<?xml version="1.0" encoding="utf-8"?>
<!-- Generator: Adobe Illustrator 16.0.0, SVG Export Plug-In . SVG Version: 6.00 Build 0)  -->
<!DOCTYPE svg PUBLIC "-//W3C//DTD SVG 1.1//EN" "http://www.w3.org/Graphics/SVG/1.1/DTD/svg11.dtd">
<svg version="1.1" id="Layer_1" xmlns="http://www.w3.org/2000/svg" xmlns:xlink="http://www.w3.org/1999/xlink" x="0px" y="0px"
	 width="8768px" height="7200px" viewBox="0 0 8768 7200" enable-background="new 0 0 8768 7200" xml:space="preserve">
<g>
	<g transform="scale(1.0)">
		<g id="_x31_80611660" transform=" scale(1.0, 1.0)">
			<path id="_x31_80611662" fill="#BFDAE3" stroke="#000000" d="M4384.703,1652.03c1.899-82.88,37.909-293.795,57.268-364.78
				c45.243-165.853,65.773-257.063,177.439-365.031c260.131-251.529,678.018-205.74,890.623-159.296
				c281.911,61.582,787.845,242.877,1090.701,412.158c382.261,213.666,721.875,404.626,1103.973,822.38
				c348.544,381.068,368.871,928.91,284.464,1304.76c-27.912,124.283-78.692,354.855-148.773,577.446
				c-3.805,12.089-7.664,24.161-11.578,36.187c-54.721,167.882-133.366,329.96-160.749,423.014
				c-55.348,188.045-73.623,472.553-280.224,763.052c-91.59,128.801-306.127,257.552-467.422,411.21
				c-93.233,88.817-90.863,149.368-177.637,269.722c-121.941,169.132-285.242,336.241-417.679,419.393
				c-258.275,162.161-521.564,278.716-757.785,270.911c-238.513-7.879-519.862-133.967-684.396-313.539
				c-58.534-63.896-111.882-140.678-144.16-220.22c-54.599-134.566-110.488-268.68-160.526-405.033
				c-47.769-130.212-68.486-266.418-124.228-393.272c-14.366-32.702-34.573-76.173-69.898-91.755
				c8.875-128.046-9.179-256.988,7.364-383.566c8.653-66.153-0.882-138.279,0.273-205.247c1.233-71.164,3.611-142.309,3.287-213.495
				c-0.653-145.345,2.958-290.748,6.523-436.034c1.321-54.175,16.12-157.946,16.03-265.244
				c-0.224-253.979-18.104-585.063-22.235-737.576c-4.482-165.749-14.447-544.948-9.857-766.609
				C4387.389,1950.391,4382.184,1761.545,4384.703,1652.03z"/>
			<path id="_x31_80611663" fill="#B0FFB8" stroke="#000000" d="M6569.809,5593.942
				c-138.348-90.881-338.426-177.988-378.926-203.678c-22.823-14.458-67.534-36.162-64.368-66.175
				c10.162-97.404,34.054-247.296,44.935-315.028c3.846-23.712,11.423-47.017,20.244-69.328
				c15.173-37.988,34.907-73.915,53.643-110.17c16.265-31.529,29.124-65.534,48.951-95.083
				c10.661-15.851,23.808-30.296,40.698-39.697c19.453-10.815,44.716-16.998,51.137-41.793c2.545-9.866,2.022-22.469,3.076-32.825
				c1.702-18.322,3.072-36.722,4.111-55.124c3.596-64.982,9.758-130.471,2.084-195.595c-3.965-33.642-8.013-67.363-10.648-101.171
				c-11.327-145.43-58.648-387.172-17.672-530.383c25.836-90.309,102.855-78.368,151.602-152.976
				c108.148-165.481,24.124-358.498-77.725-515.755c-67.847-104.784-181.419-241.217-332.245-355.689
				c-232.257-176.221-530.802-305.143-715.287-224.369c-83.469,36.555-142.76,101.819-208.801,230.415
				c-74.619,145.355-108.321,199.298-156.74,352.557c-13.753,43.373-15.477,90.698-17.702,135.79
				c-2.548,52.301-3.852,104.6-9.542,156.66c-5.372,48.74-12.647,96.66-25.812,143.926c-12.01,43.204-65.128,167.218-68.6,173.026
				c-61.777,104.638-194.257,85.019-312.445,203.694c-92.634,92.932-196.794,140.965-196.794,140.965
				c1.045-55.364,3.077-153.99,4.61-215.156c1.3-54.208,16.085-157.917,16.029-265.244
				c-0.191-254.021-18.111-585.082-22.241-737.568c-4.483-165.746-14.466-544.977-9.863-766.6
				c1.886-91.171-3.315-280.039-0.803-389.526c1.896-82.883,37.935-293.798,57.262-364.782
				c45.241-165.85,65.774-257.057,177.438-365.026c260.137-251.491,678.021-205.776,890.615-159.304
				c281.913,61.577,787.843,242.866,1090.699,412.143c382.261,213.703,721.875,404.613,1103.976,822.36
				c348.541,381.103,368.9,928.883,284.474,1304.744c-29.402,131.007-84.249,380.254-160.35,613.628
				c-54.685,167.854-133.332,329.964-160.743,423.007c-55.306,188.082-73.616,472.557-280.215,763.053
				c-91.563,128.819-306.117,257.557-467.412,411.212c-93.222,88.788-88.962,145.218-154.253,235.526
				C6766.217,5748.603,6679.438,5665.987,6569.809,5593.942z"/>
			<path id="_x31_80611709" fill="#1F9D5A" stroke="#000000" d="M6718.974,1241.382l-0.657,1.16l-71.589,129.27
				c-6.139-3.383-12.363-6.77-18.503-10.153c-100.563-55.072-206.245-101.433-307.884-154.844
				c-109.931-57.789-209.264-81.206-329.761-114.937c-92.542-26.002-174.727-51.855-265.129-83.824
				c-99.776-35.269-212.238-75.231-327.332-101.846l-17.661-166.137c48.245,6.533,92.104,14.648,129.583,22.858
				c281.913,61.578,787.843,242.87,1090.699,412.144C6640.563,1197.367,6679.979,1219.414,6718.974,1241.382z"/>
			<path id="_x31_80611708" fill="#1F9D5A" stroke="#000000" d="M6646.728,1371.812l-192.062,346.829
				c-118.642-62.163-239.841-116.533-379.434-168.124c-107.245-39.728-237.804-93.496-503.276-219.999
				c-47.95-22.858-92.675-48.375-136.567-72.653l-37.275-351.656c115.094,26.613,227.558,66.578,327.332,101.846
				c90.404,31.968,172.589,57.823,265.131,83.823c120.497,33.73,219.83,57.148,329.759,114.936
				c101.639,53.412,207.32,99.772,307.886,154.846C6634.364,1365.041,6640.589,1368.428,6646.728,1371.812z"/>
			<path id="_x31_80611707" fill="#1F9D5A" stroke="#000000" d="M6454.666,1718.64l-256.55,463.234
				c-137.905-79.111-291.738-166.066-362.366-213.739c-88.142-59.492-212.688-131.337-343.308-172.591l-57.05-537.678
				c43.893,24.273,88.619,49.793,136.569,72.652c265.471,126.504,396.031,180.271,503.276,219.998
				C6214.823,1602.107,6336.024,1656.476,6454.666,1718.64z"/>
			<path id="_x31_80611706" fill="#1F9D5A" stroke="#000000" d="M6198.116,2181.874l-210.721,380.514
				c-34.185-17.915-68.863-35.082-103.706-51.668c-103.783-49.513-213.228-112.771-329.633-133.913l-61.616-581.263
				c130.621,41.255,255.164,113.099,343.308,172.592C5906.378,2015.809,6060.211,2102.761,6198.116,2181.874z"/>
			<path id="_x31_80611705" fill="#1F9D5A" stroke="#000000" d="M5987.396,2562.387l-27.91,50.363
				c-132.768-79.206-273.776-135.934-396.46-146.457l0.242-3.066l-9.212-86.422c116.405,21.142,225.854,84.401,329.633,133.913
				C5918.532,2527.306,5953.211,2544.473,5987.396,2562.387z"/>
			<path id="_x31_80611733" fill="#1F9D5A" stroke="#000000" d="M4589.39,1278.907c32.53-70.916,76.109-136.421,127.215-195.275
				c9.877-11.376,21.08-23.086,33.267-34.269c54.764-57.038,119.827-103.732,192.768-133.598
				c139.696-57.225,299.927-45.537,455.479-9.558l-17.659-166.136c-225.414-30.528-546.722-24.979-761.033,182.16
				c-104.551,101.161-129.238,187.57-169.127,334.349l99.372,136.376C4559.479,1354.047,4572.412,1315.925,4589.39,1278.907z"/>
			<path id="_x31_80611725" fill="#1F9D5A" stroke="#000000" d="M5398.117,906.206c-155.554-35.979-315.782-47.667-455.479,9.558
				c-72.94,29.865-138.004,76.561-192.77,133.598c-12.185,11.184-23.386,22.894-33.265,34.268
				c-51.105,58.855-94.685,124.36-127.216,195.276c-16.978,37.018-29.91,75.14-39.719,114.05l16.401,22.51l186.752,256.203
				c21.762-59.883,44.6-118.439,62.548-173.84c39.119-120.253,110.169-311.602,262.448-334.123
				c139.775-20.678,245.97,32.56,357.569,94.157L5398.117,906.206z"/>
			<path id="_x31_80611712" fill="#1F9D5A" stroke="#000000" d="M5435.391,1257.866l57.05,537.676
				c-111.211-35.159-226.854-48.099-328.388-12.501c-106.504,37.348-133.812,139.511-148.087,249.687l-263.141-361.057
				c21.762-59.882,44.598-118.439,62.548-173.838c39.119-120.256,110.169-311.602,262.449-334.125
				C5217.599,1143.031,5323.792,1196.268,5435.391,1257.866z"/>
			<path id="_x31_80611711" fill="#1F9D5A" stroke="#000000" d="M5492.44,1795.542l61.618,581.263
				c-39.052-7.131-78.837-9.453-119.521-4.979c-51.126,5.661-97.592,20.841-139.728,43.553l-278.846-382.654
				c14.276-110.175,41.584-212.336,148.088-249.686C5265.586,1747.443,5381.229,1760.383,5492.44,1795.542z"/>
			<path id="_x31_80611710" fill="#1F9D5A" stroke="#000000" d="M5554.057,2376.805l9.212,86.424l-0.242,3.066
				c-62.419-5.424-120.092,1.159-169.605,22.811c-11.597,5.079-22.688,10.654-33.45,17.058l-3.825-6.623l-61.335-84.162
				c42.134-22.712,88.6-37.89,139.726-43.551C5475.22,2367.353,5515.005,2369.675,5554.057,2376.805z"/>
			<path id="_x31_80611704" fill="#188064" stroke="#000000" d="M7704.716,1997.434c348.541,381.1,368.9,928.883,284.474,1304.742
				c-6.898,30.68-15.195,67.908-24.803,109.865l-3.976-0.656l-113.723-5.482c23.901-105.72,40.915-213.081,63.986-318.963
				c16.258-74.542,40.418-135.009,27.752-209.906c-11.412-67.105-8.076-136.316-21.142-203.172
				c-20.185-103.308-54.938-196.806-102.621-289.862c-72.224-140.827-186.9-287.284-302.02-408.298
				c-90.37-95.041-244.313-195.171-347.828-274.189c-61.174-46.702-128.546-84.604-191.05-129.642
				c-103.75-74.708-214.605-138.298-327.035-200.059l71.589-129.272l0.657-1.159
				C7054.279,1431.059,7362.486,1623.199,7704.716,1997.434z"/>
			<path id="_x31_80611703" fill="#188064" stroke="#000000" d="M7938.423,2877.032c12.67,74.898-11.492,135.364-27.75,209.905
				c-23.071,105.883-40.087,213.245-63.986,318.964l-266.648-12.876c38.67-178.102,39.235-508.785,29.516-558.824
				c-28.315-146.638-80.083-293.059-167.11-415.622c-220.265-310.339-805.667-847.839-888.828-661.855l-6.687,11.947
				c-30.784-17.258-61.401-33.936-92.265-50.031l192.063-346.828c112.43,61.761,223.285,125.351,327.035,200.057
				c62.502,45.041,129.876,82.941,191.05,129.644c103.517,79.017,257.46,179.147,347.828,274.188
				c115.119,121.013,229.794,267.471,302.02,408.299c47.683,93.057,82.435,186.555,102.621,289.865
				C7930.349,2740.716,7927.011,2809.927,7938.423,2877.032z"/>
			<path id="_x31_80611702" fill="#188064" stroke="#000000" d="M7609.554,2834.2c9.718,50.039,9.153,380.723-29.516,558.824
				l-57.771-2.781c7.094-55.296,11.625-110.832,12.338-165.863c3.352-263.145,11.133-388.805-110.447-629.647
				c-92.954-184.212-243.139-349.658-392.592-481.955c-77.882-68.958-199.099-171.811-287.059-226.66
				c-68.051-42.377-133.023-81.279-197.578-117.446l6.687-11.946c83.161-185.983,668.56,351.515,888.828,661.854
				C7529.473,2541.142,7581.24,2687.563,7609.554,2834.2z"/>
			<path id="_x31_80611701" fill="#188064" stroke="#000000" d="M7424.159,2594.731c121.58,240.843,113.799,366.503,110.447,629.646
				c-0.715,55.03-5.244,110.568-12.338,165.864l-388.241-18.677c0.077-1.907,0.159-3.73,0.237-5.47
				c5.102-178.861-47.655-361.831-147.457-530.115c-121.754-205.287-228.702-300.543-564.645-520.967
				c-48.467-31.894-132.771-80.783-224.047-133.14l256.548-463.234c30.865,16.096,61.484,32.771,92.265,50.031
				c64.555,36.168,129.527,75.069,197.576,117.447c87.962,54.848,209.177,157.701,287.061,226.658
				C7181.021,2245.073,7331.207,2410.52,7424.159,2594.731z"/>
			<path id="_x31_80611700" fill="#188064" stroke="#000000" d="M6986.808,2835.98c99.802,168.285,152.559,351.255,147.457,530.115
				c-0.08,1.739-0.16,3.563-0.237,5.47l-437.642-21.144c-12.577-31.054-44.614-52.951-60.511-83.913
				c-18.136-35.105-27.252-74.367-41.666-110.972c-111.476-282.467-346.794-457.766-606.813-593.15l210.72-380.512
				c91.277,52.355,175.582,101.246,224.047,133.138C6758.107,2535.439,6865.054,2630.693,6986.808,2835.98z"/>
			<path id="_x31_80611699" fill="#188064" stroke="#000000" d="M6696.384,3350.422l-6.205,6.063
				c-1.994-2.151-4.065-4.302-6.148-6.371c-15.11-15.052-36.764-25.365-54.691-36.602c-23.895-14.951-48.623-29.072-71.449-45.685
				c-6.889-5.04-13.616-10.331-20.832-15.04c6.574,14.905,10.749,29.897,15.178,45.55c2.418,8.616,4.596,17.313,6.434,26.011
				c-20.24-88.72-66.749-176.476-117.717-255.188c-67.847-104.784-181.419-241.216-332.245-355.688
				c-47.48-36.039-97.692-70.082-149.223-100.724l27.91-50.364c260.021,135.384,495.339,310.685,606.81,593.15
				c14.413,36.604,23.529,75.867,41.671,110.971C6651.77,3297.472,6683.807,3319.369,6696.384,3350.422z"/>
			<path id="_x31_80611698" fill="#009C75" stroke="#000000" d="M7960.411,3411.385l3.976,0.656
				c-30.149,131.259-73.376,309.122-128.135,480.874l-1.909-0.577l-130.612-39.513c40.977-103.018,75.817-208.512,107.845-312.671
				c13.666-44.285,25.006-89.147,35.111-134.253L7960.411,3411.385z"/>
			<path id="_x31_80611697" fill="#009C75" stroke="#000000" d="M7580.038,3393.024l266.648,12.876
				c-10.104,45.106-21.445,89.968-35.111,134.253c-32.027,104.16-66.868,209.652-107.843,312.671l-294.569-89.148
				c15.051-16.36,28.688-33.626,38.016-52.871c36.394-74.832,35.931-98.7,49.387-165.86c2.623-13.102,5.168-26.28,7.624-39.55
				l10.946,0.809C7543.812,3509.628,7564.851,3463.171,7580.038,3393.024z"/>
			<path id="_x31_80611696" fill="#009C75" stroke="#000000" d="M7522.269,3390.242l57.77,2.78
				c-15.188,70.148-36.227,116.605-64.906,113.181l-10.944-0.808C7511.238,3467.341,7517.374,3428.874,7522.269,3390.242z"/>
			<path id="_x31_80611695" fill="#009C75" stroke="#000000" d="M7134.025,3371.566l388.241,18.677
				c-4.895,38.632-11.03,77.1-18.077,115.152c-2.46,13.271-5.001,26.448-7.624,39.551c-13.454,67.159-12.993,91.029-49.387,165.859
				c-9.329,19.245-22.967,36.513-38.016,52.872l-334.539-101.17c7.907-23.718,15.067-47.77,21.482-72.561
				C7110.164,3535.631,7131.329,3431.16,7134.025,3371.566z"/>
			<path id="_x31_80611694" fill="#009C75" stroke="#000000" d="M6696.384,3350.422l437.642,21.145
				c-2.698,59.596-23.861,164.063-37.919,218.381c-6.417,24.793-13.577,48.846-21.484,72.563l-266.373-80.59
				c-5.191-26.587-13.201-53.676-24.944-81.335c-22.4-52.663-53.255-102.658-93.122-144.098L6696.384,3350.422z"/>
			<path id="_x31_80611726" fill="#40A666" stroke="#000000" d="M4549.67,1392.957l-99.372-136.376
				c-2.634,9.948-5.429,20.15-8.31,30.681c-19.329,70.981-55.366,281.899-57.264,364.782c-0.459,19.725-0.659,42.185-0.61,66.054
				l140.023,130.263C4520.208,1696.402,4512.82,1539.112,4549.67,1392.957z"/>
			<path id="_x31_80611727" fill="#40A666" stroke="#000000" d="M4549.67,1392.957c-36.85,146.155-29.462,303.447-25.532,455.403
				l31.451,29.258l123.472,114.778c0.156-6.631,0.388-13.261,0.626-19.892c3.279-97.389,36.711-200.808,73.135-300.833
				l-186.752-256.205L4549.67,1392.957z"/>
			<path id="_x31_80611715" fill="#40A666" stroke="#000000" d="M4752.823,1671.671l263.141,361.054
				c-5.386,41.533-8.945,84.223-14.165,125.01c-4.729,37.222-11.613,76.438-19.568,116.566l-303.17-281.906
				c0.155-6.631,0.386-13.261,0.624-19.894C4682.968,1875.115,4716.401,1771.696,4752.823,1671.671z"/>
			<path id="_x31_80611714" fill="#40A666" stroke="#000000" d="M5015.966,2032.727l278.845,382.652
				c-32.782,17.556-62.906,39.663-90.536,65.328l-222.04-206.406c7.958-40.128,14.839-79.344,19.568-116.565
				C5007.021,2116.949,5010.58,2074.259,5015.966,2032.727z"/>
			<path id="_x31_80611713" fill="#40A666" stroke="#000000" d="M5356.147,2499.54l3.825,6.624
				c-24.832,14.389-47.588,32.419-69.341,54.926l-0.661-0.661l-85.698-79.719c27.634-25.667,57.756-47.773,90.538-65.328
				L5356.147,2499.54z"/>
			<path id="_x31_80611728" fill="#2FA850" stroke="#000000" d="M4516.471,2419.29c0.66-151.479,8.264-303.951,9.213-456.169
				c0.234-37.727-0.545-76.071-1.546-114.762l-140.023-130.263c-0.275,108.487,2.917,248.794,1.414,323.47
				c-2.192,104.1-1.079,242.921,1.024,378.006l128.446,38.211C4515.893,2445.06,4516.416,2432.243,4516.471,2419.29z"/>
			<path id="_x31_80611729" fill="#2FA850" stroke="#000000" d="M4571.236,2041.079c2.831-49.083-0.417-97.8,2.321-146.761
				l-17.969-16.701l-31.451-29.258c1.003,38.69,1.782,77.035,1.548,114.762c-0.951,152.218-8.553,304.688-9.213,456.169
				c-0.057,12.953-0.578,25.769-1.472,38.494l38.656,11.502l30.96,9.218C4576.029,2332.306,4562.725,2188.601,4571.236,2041.079z"/>
			<path id="_x31_80611730" fill="#2FA850" stroke="#000000" d="M4682.261,2338.156c-3.801-115.193-6.441-230.553-3.198-345.761
				l-105.505-98.076c-2.738,48.962,0.51,97.678-2.321,146.761c-8.512,147.521,4.796,291.227,13.377,437.425l108.61,32.345
				C4688.875,2452.266,4684.031,2392.106,4682.261,2338.156z"/>
			<path id="_x31_80611718" fill="#2FA850" stroke="#000000" d="M4679.063,1992.396l303.171,281.906
				c-19.683,100.738-45.903,207.375-61.53,304.291l-227.479-67.743c-4.347-58.585-9.192-118.744-10.963-172.694
				C4678.46,2222.963,4675.82,2107.604,4679.063,1992.396z"/>
			<path id="_x31_80611717" fill="#2FA850" stroke="#000000" d="M4982.233,2274.301l222.041,206.406
				c-44.749,41.447-83.1,92.166-115.557,147.927l-168.017-50.043C4936.33,2481.676,4962.549,2375.039,4982.233,2274.301z"/>
			<path id="_x31_80611716" fill="#2FA850" stroke="#000000" d="M5289.97,2560.427l0.662,0.659
				c-26.546,27.489-51.506,61.851-76.859,105.084l-0.912-0.579l-124.143-36.958c32.455-55.757,70.808-106.477,115.557-147.927
				L5289.97,2560.427z"/>
			<path id="_x31_80611731" fill="#59B363" stroke="#000000" d="M4502.905,2968.069c-8.333-24.525-14.802-49.838-19.787-75.181
				c-3.143-15.942-4.473-31.992-6.618-48.234c-1.784-13.515-1.509-27.16-1.906-40.751c-1.843-63.579,1.945-126.795,15.199-189.201
				c11.149-52.499,21.472-103.891,25.206-156.917l-128.447-38.211c2.554,152.654,6.422,300.664,8.839,388.595
				c1.616,59.919,5.362,147.431,9.381,246.957c44.58-3.489,88.274,5.951,132.457,10.254c-7.291-16.079-13.48-32.732-18.696-49.774
				C4512.519,3000.15,4508.367,2984.137,4502.905,2968.069z"/>
			<path id="_x31_80611732" fill="#59B363" stroke="#000000" d="M4726.83,3052.225c-34.236-84.135-56.802-174.589-50.025-266.599
				c5.724-78.332,25.318-140.365,20.183-221.243c-1.113-17.57-2.395-35.468-3.76-53.532l-139.57-41.564l-38.656-11.502
				c-3.732,53.027-14.056,104.419-25.206,156.917c-13.25,62.405-17.044,125.622-15.199,189.202
				c0.396,13.59,0.126,27.234,1.908,40.748c2.144,16.243,3.475,32.294,6.618,48.236c4.985,25.342,11.452,50.653,19.787,75.181
				c5.462,16.068,9.612,32.083,15.625,47.534c5.216,17.045,11.407,33.697,18.698,49.773c1.908,0.246,3.729,0.407,5.637,0.569
				c65.731,5.749,130.312,14.234,196.043,17.912C4735.161,3073.175,4731.076,3062.575,4726.83,3052.225z"/>
			<path id="_x31_80611721" fill="#59B363" stroke="#000000" d="M4693.224,2510.852l227.478,67.741
				c-3.681,22.469-6.789,44.355-9.065,65.494c-6.667,61.593-15.127,138.933-23.647,266.251
				c-2.013,29.509-18.193,180.629-27.895,178.66l-0.159,2.487c-31.333-1.925-62.751-5.259-94.329-6.353
				c-8.955-0.314-17.822-0.711-26.689-1.272c-3.751-10.683-7.834-21.284-12.08-31.633c-34.24-84.136-56.802-174.591-50.029-266.601
				c5.725-78.332,25.319-140.364,20.183-221.242C4695.87,2546.814,4694.589,2528.917,4693.224,2510.852z"/>
			<path id="_x31_80611720" fill="#59B363" stroke="#000000" d="M5088.718,2628.634
				c-82.092,141.064-127.069,314.289-145.767,451.903l0.686,10.191c-1.658,0.087-3.147,0.172-4.558,0.342
				c-26.513,2.624-52.872,2.016-79.146,0.412l0.159-2.485c9.7,1.967,25.883-149.152,27.895-178.661
				c8.522-127.318,16.98-204.662,23.647-266.251c2.278-21.139,5.385-43.025,9.067-65.494L5088.718,2628.634z"/>
			<path id="_x31_80611719" fill="#59B363" stroke="#000000" d="M5212.86,2665.592l0.914,0.579
				c-9.661,16.428-19.326,34.187-29.149,53.35c-74.619,145.355-108.321,199.299-156.738,352.557
				c-1.484,4.726-2.883,9.453-4.031,14.262c-32.069,4.044-62.814,3.28-80.219,4.391l-0.685-10.191
				c18.696-137.614,63.673-310.839,145.766-451.903L5212.86,2665.592z"/>
			<path id="_x31_80611686" fill="#219866" stroke="#000000" d="M7834.343,3892.338l1.909,0.577
				c-2.469,7.631-4.943,15.261-7.412,22.89c-41.755,128.297-97.524,253.143-133.797,346.457l-176.051-47.624
				c74.856-112.122,134.443-235.069,184.74-361.812L7834.343,3892.338z"/>
			<path id="_x31_80611687" fill="#219866" stroke="#000000" d="M7409.163,3763.677l294.567,89.148
				c-50.295,126.743-109.882,249.69-184.738,361.813l-341.898-92.535c41.026-79.317,75.502-160.525,111.117-213.971
				c23.548-35.438,49.584-69.97,78.938-100.862C7380.63,3792.989,7395.519,3778.788,7409.163,3763.677z"/>
			<path id="_x31_80611690" fill="#219866" stroke="#000000" d="M7074.622,3662.508l334.541,101.169
				c-13.645,15.112-28.533,29.313-42.013,43.597c-29.355,30.891-55.394,65.423-78.941,100.859
				c-35.615,53.443-70.089,134.654-111.115,213.972l-306.407-82.91c44.487-49.983,84.654-104.852,112.714-161.677
				C7020.046,3803.266,7050.655,3734.497,7074.622,3662.508z"/>
			<path id="_x31_80611692" fill="#219866" stroke="#000000" d="M6808.249,3581.918l266.373,80.59
				c-23.969,71.989-54.576,140.758-91.224,215.01c-28.056,56.825-68.227,111.692-112.712,161.677l-80.35-21.714
				c3.913-30.923,5.005-62.333,6.27-92.257C6801.745,3803.549,6830.696,3696.164,6808.249,3581.918z"/>
			<path id="_x31_80611688" fill="#219866" stroke="#000000" d="M7518.99,4214.638l176.051,47.624
				c-11.211,28.78-20.527,54.575-26.944,76.552c-11.361,38.558-21.131,81.182-31.314,127.03c0.081-0.498,0.164-0.908,0.248-1.24
				c0,0-95.773-22.349-134.47-20.031c-38.37,2.149-76.313,10.27-114.598,12.006c-22.29,1.039-44.833,1.999-67.457,2.624
				l-0.272-11.937C7396.998,4377.994,7462.313,4299.371,7518.99,4214.638z"/>
			<path id="_x31_80611689" fill="#219866" stroke="#000000" d="M7177.094,4122.104l341.896,92.535
				c-56.679,84.735-121.994,163.356-198.763,232.634l0.275,11.936c-104.504,3.117-212.005-0.062-311.274-31.267
				c-20.649-6.504-52.606-31.964-86.808-57.337l3.967-5.395C7041.067,4353.45,7116.341,4239.916,7177.094,4122.104z"/>
			<path id="_x31_80611691" fill="#219866" stroke="#000000" d="M6870.687,4039.194l306.407,82.91
				c-60.753,117.813-136.026,231.346-250.702,243.103l-3.969,5.396c-41.754-30.91-86.814-61.732-118.968-57.688l-1.511-9.61
				l-154.537-25.378c-67.864-33.754-154.23-36.975-228.446-16.936c-7.945,2.175-32.432,26.757-31.679,32.143
				c-1.011-8.533-1.938-16.823-2.531-24.857c-0.428-5.469-0.938-11.102-1.449-16.822c53.983-25.967,117.172-10.601,174.506-19.171
				c0.082,0.001,0.164,0.002,0.248-0.001c53.189-7.98,111.509-21.112,155.032-54.936c10.84-8.477,21.843-18.778,30.356-29.814
				l33.289-14.079C6808.33,4104.963,6840.507,4073.234,6870.687,4039.194z"/>
			<path id="_x31_80611693" fill="#219866" stroke="#000000" d="M6790.339,4017.48l80.348,21.714
				c-30.176,34.042-62.356,65.769-93.955,94.259l-33.287,14.079c0.577-0.583,1.075-1.245,1.566-1.911
				C6772.783,4108.351,6784.708,4063.491,6790.339,4017.48z"/>
			<path id="_x31_80611664" fill="#9AD2BD" stroke="#000000" d="M7502.54,4444.547c-36.818,2.134-73.195,9.629-109.965,11.8
				c-1.545,0.092-3.099,0.172-4.649,0.246c-28.256,1.306-56.9,2.494-85.718,3.115c-98.734,2.14-199.438-2.363-293.006-31.749
				c-50.274-15.792-167.256-143.884-221.158-109.55c-45.339,28.895,16.683,119.699,34.781,145.772
				c43.957,63.28,77.395,135.854,34.641,211.265c-57.778,101.913-190.395,139.846-283.871,202.46
				c-32.124,21.514-56.25,50.554-77.5,82.397c-38.183,57.202-61.97,123.221-101.634,179.455
				c-45.519,64.52-107.855,94.047-167.207,143.001c-28.011,23.11-52.349,58.521-81.253,78.251
				c30.743,27.117,189.4,101.719,230.568,123.313c4.896,2.571,9.854,5.171,14.856,7.802c31.658,16.646,65.106,34.434,98.021,53.102
				c27.612,15.664,54.853,31.946,80.343,48.697c109.683,72.071,196.464,154.66,196.464,154.66
				c59.713-82.607,61.225-136.852,132.459-213.518c6.62-7.121,13.827-14.436,21.753-21.983
				c13.911-13.253,28.217-26.312,42.805-39.21c24.038-22.03,49.117-43.97,66.132-56.092c0,0,0.004-0.007,0.008-0.009
				c52.47-42.976,106.318-84.212,156.895-124.374c82.831-65.768,156.861-128.65,201.578-191.532
				c73.354-103.132,132.2-218.506,172.004-338.743c5.639-17.008,72.879-275.599,77.176-298.482
				C7637.058,4464.646,7541.299,4442.291,7502.54,4444.547z"/>
			<path id="_x31_80611665" fill="#9AD2BD" stroke="#000000" d="M4943.637,3090.729c-1.659,0.089-3.147,0.172-4.558,0.343
				c-26.513,2.625-52.872,2.015-79.146,0.412c-31.333-1.925-62.749-5.259-94.329-6.354c-8.953-0.313-17.822-0.71-26.689-1.271
				c-65.732-3.677-130.312-12.164-196.043-17.913c-1.907-0.162-3.731-0.322-5.639-0.568c-44.182-4.302-87.877-13.74-132.457-10.252
				c0.087,2.403,0.173,4.809,0.266,7.208c4.021,101.604,8.231,215.302,10.611,324.779c0.004,0.993,0.086,1.988,0.09,2.899
				l0.013,0.373c-0.509,0.105-1.016,0.225-1.523,0.318c2.299,16.823-2.81,32.202,1.111,48.346
				c-0.365,6.24,0.063,15.104,0.769,21.815c0.179-0.023,0.33-0.049,0.479-0.075c-0.383,50.54-1.995,176.763-6.901,232.207
				c-1.658,18.676-11.638,277.787-12.684,333.143c0,0,45.805-20.475,103.27-61.393c29.623-21.092,62.344-47.61,93.489-79.566
				c14.111-14.473,28.972-27.049,44.446-38.268c49.006-35.521,104.211-57.344,161.54-81.953
				c28.086-12.056,54.146-24.407,73.684-42.703c32.303-30.283,51.664-71.929,69.044-119.212
				c8.964-24.398,30.048-84.891,29.89-89.852c-0.003-0.086-0.018-0.18-0.022-0.268c3.312-8.416,6.041-17.588,9.168-26.517
				c3.359-9.602,4.621-18.22,4.299-26.146c6.169-27.131,12.37-72.589,16.373-111.984c0.083-0.249,0.081-0.497,0.077-0.663
				c2.106-24.038,3.465-48.077,4.659-72.196c0.447-25.36,1.655-41.689,3.02-64.152c0.237-4.229,0.479-8.623,0.717-13.346
				c0.156-2.486,0.238-4.975,0.395-7.378c0.162-2.487,0.242-5.138,0.4-7.875c0.082-1.407,0.156-3.066,0.321-4.808
				c-0.001-0.993,0.079-1.987,0.159-2.901c0.963-16.411,2.25-32.822,4.459-49.073c-0.001-0.166-0.002-0.331-0.003-0.497
				c0.163-2.155,0.244-4.145,0.323-5.885c0.233-5.885,1.22-10.115,3.281-15.92c0-0.082,0-0.082,0-0.082
				c1.065-5.805,2.376-11.524,3.86-17.165C4991.786,3090.383,4961.039,3089.618,4943.637,3090.729z"/>
			<path id="_x31_80611682" fill="#62D09F" stroke="#000000" d="M4477.562,3733.933c15.115-106.003,36.934-213.714,51.818-319.585
				c-38.294,7.611-102.414,21.346-112.696,26.416c0.027,17.62-1.119,185.782-7.001,252.232
				c-1.656,18.678-11.636,277.788-12.682,333.144c0,0,45.802-20.476,103.271-61.394c-7.253-40.023-23.268-81.414-29.988-121.005
				C4463.547,3804.047,4471.971,3773.122,4477.562,3733.933z"/>
			<path id="_x31_80611681" fill="#62D09F" stroke="#000000" d="M4600.802,3592.698c12.319-61.4,26.627-161.703,31.833-193.139
				c-26.78,2.903-52.399,6.442-75.633,9.633c-3.364,0.463-13.814,2.411-27.622,5.153c-14.884,105.871-36.701,213.58-51.818,319.584
				c-5.59,39.188-14.014,70.112-7.274,109.805c6.722,39.592,22.734,80.982,29.986,121.007c18.944-13.485,39.151-29.203,59.403-47.13
				c1.057-29.679,0.878-77.876,2.813-119.267C4565.448,3734.963,4592.241,3635.382,4600.802,3592.698z"/>
			<path id="_x31_80611680" fill="#62D09F" stroke="#000000" d="M4632.637,3399.56c-5.204,31.435-19.516,131.738-31.835,193.139
				c-8.561,42.684-35.354,142.266-38.311,205.651c-1.936,41.391-1.756,89.588-2.814,119.266
				c11.423-10.11,22.857-20.913,34.087-32.437c14.109-14.474,28.972-27.049,44.446-38.267c5.602-14.547,22.839-28.615,31.602-39.545
				c12.853-16.032,25.201-32.474,36.818-49.426c21.023-30.686,41.104-63.647,52.281-99.365
				c25.888-82.374,37.359-171.703,36.285-261.316C4742.623,3390.569,4685.367,3393.838,4632.637,3399.56z"/>
			<path id="_x31_80611679" fill="#62D09F" stroke="#000000" d="M4885.448,3423.012c-26.808-13.617-57.633-21.599-90.254-25.751
				c1.074,89.612-10.399,178.941-36.285,261.315c-11.176,35.718-31.258,68.68-52.281,99.365
				c-11.615,16.952-23.964,33.394-36.818,49.426c-8.763,10.93-26,24.998-31.602,39.545c49.004-35.521,104.209-57.344,161.538-81.952
				c28.086-12.057,54.148-24.408,73.686-42.704c32.301-30.283,51.662-71.929,69.044-119.212
				c8.962-24.397,30.047-84.893,29.888-89.852C4971.793,3495.249,4906.139,3433.521,4885.448,3423.012z"/>
			<path id="_x31_80611723" fill="#A4DAA4" stroke="#000000" d="M4545.306,3082.351c58.163,112.927,122.75,163.846,54.564,296.76
				c-14.337,1.521-28.669,3.291-42.919,5.225c-12.682,1.767-126.343,24.626-140.334,31.536l-0.881-25.856
				c-0.004-0.91-0.086-1.904-0.09-2.9c-2.378-109.477-6.59-223.177-10.611-324.776c-0.091-2.403-0.179-4.808-0.266-7.21
				c44.58-3.489,88.276,5.949,132.458,10.252C4539.729,3071.093,4542.394,3076.806,4545.306,3082.351z"/>
			<path id="_x31_80611722" fill="#A4DAA4" stroke="#000000" d="M4738.91,3083.859c32.921,90.683,52.276,191.339,55.798,292.361
				c-64.99-6.496-130.625-4.042-194.839,2.888c68.185-132.912,3.598-183.831-54.563-296.759c-2.912-5.545-5.578-11.259-8.077-16.972
				c1.909,0.244,3.731,0.406,5.638,0.568C4608.601,3071.695,4673.179,3080.184,4738.91,3083.859z"/>
			<path id="_x31_80611724" fill="#A4DAA4" stroke="#000000" d="M5023.855,3086.338c-1.482,5.64-2.796,11.361-3.86,17.163
				c0,0,0,0,0,0.085c-2.062,5.806-3.048,10.034-3.281,15.92c-0.081,1.738-0.162,3.729-0.323,5.883
				c-0.001,0.167,0.002,0.332,0.003,0.498c-2.207,16.249-3.496,32.661-4.457,49.072c-0.08,0.913-0.16,1.907-0.16,2.903
				c-0.164,1.741-0.24,3.399-0.322,4.806c-0.158,2.739-0.233,5.39-0.398,7.876c-0.16,2.404-0.238,4.892-0.395,7.377
				c-0.24,4.725-0.482,9.117-0.719,13.346c-1.364,22.464-2.572,38.793-3.019,64.154c-1.195,24.119-2.552,48.157-4.66,72.195
				c0.005,0.167,0.004,0.414-0.077,0.663c-4.389,43.188-11.414,93.678-18.154,119.299c-31.337-44.274-98.204-76.791-129.297-82.777
				c-19.897-3.771-39.961-6.633-60.02-8.578c-3.521-101.021-22.877-201.679-55.798-292.361c8.868,0.562,17.736,0.957,26.688,1.271
				c31.578,1.093,62.996,4.428,94.329,6.353c26.274,1.603,52.632,2.213,79.146-0.411c1.41-0.17,2.9-0.255,4.558-0.343
				C4961.039,3089.618,4991.786,3090.383,5023.855,3086.338z"/>
			<path id="_x31_80611685" fill="#6ACBBA" stroke="#000000" d="M7502.54,4444.547c-36.818,2.134-73.195,9.629-109.965,11.8
				c0.77,25.037,1.504,52.374,3.853,76.979c8.919,93.402-36.586,179.634-68.518,264.392
				c-31.967,84.834-62.55,158.069-136.452,216.859c-15.919,12.67-32.947,23.948-51.018,33.552
				c-57.975,30.801-119.496,29.802-182.209,41.401c-88.502,16.368-141.812,121.872-212.924,169.657
				c-54.703,36.762-92.59,85.465-133.737,136.133c-31.391,38.658-60.651,77.047-94.248,113.467
				c-10.853,11.767-20.454,23.201-27.879,36.445c27.615,15.664,54.852,31.946,80.342,48.697
				c109.683,72.071,196.464,154.658,196.464,154.658c59.713-82.605,61.225-136.85,132.459-213.513
				c-3.707,3.62-5.816,5.701-5.816,5.701c-168.914,20.813,19.713-149.001,46.597-182.427
				c48.957-60.87,172.362-144.01,219.362-127.529c38.004,13.322,63.617,33.022,63.617,33.022s-14.682,12.056-36.168,29.565
				c82.829-65.768,156.861-128.65,201.578-191.532c73.352-103.131,132.2-218.504,172.002-338.741
				c5.637-17.01,72.879-275.602,77.174-298.484C7637.058,4464.646,7541.299,4442.291,7502.54,4444.547z"/>
			<path id="_x31_80611684" fill="#6ACBBA" stroke="#000000" d="M6517.326,5508.782c33.597-36.42,62.857-74.811,94.248-113.469
				c41.146-50.668,79.03-99.369,133.738-136.131c71.109-47.785,124.419-153.289,212.923-169.657
				c62.713-11.596,124.234-10.601,182.21-41.401c18.069-9.604,35.099-20.884,51.017-33.552
				c73.902-58.79,104.483-132.023,136.452-216.861c31.932-84.757,77.435-170.987,68.518-264.39
				c-2.349-24.605-3.085-51.939-3.854-76.979c-1.545,0.092-3.097,0.173-4.647,0.247c-28.257,1.303-56.901,2.49-85.718,3.116
				c-10.654,5.519-21.005,11.754-30.555,20.279c-25.421,22.685-42.962,51.667-62.676,79.103
				c-32.332,44.989-67.403,97.921-76.4,153.591c-7.472,46.3-5.397,105.673-55.237,129.785
				c-44.412,21.479-102.681,8.271-150.057,13.167c-98.579,10.163-190.009,48.907-251.701,127.236
				c-43.576,55.32-85.761,127.368-111.983,192.484c-26.897,66.795-71.791,115.685-108.541,175.782
				c-25.663,41.968-30.16,103.109-63.626,140.99c31.66,16.647,65.106,34.434,98.02,53.102
				C6496.872,5531.982,6506.474,5520.549,6517.326,5508.782z"/>
			<path id="_x31_80611683" fill="#6ACBBA" stroke="#000000" d="M6563.597,5175.358c26.223-65.115,68.405-137.168,111.981-192.487
				c61.693-78.329,153.124-117.074,251.701-127.237c47.378-4.895,105.643,8.315,150.057-13.167
				c49.844-24.113,47.768-83.484,55.239-129.783c8.997-55.67,44.068-108.602,76.4-153.591
				c19.716-27.437,37.253-56.419,62.674-79.104c9.554-8.526,19.902-14.764,30.555-20.281
				c-98.732,2.142-199.438-2.363-293.004-31.749c-50.274-15.792-167.258-143.882-221.158-109.55
				c-45.341,28.896,16.683,119.699,34.781,145.772c43.957,63.281,77.393,135.852,34.641,211.265
				c-57.778,101.913-190.396,139.846-283.871,202.46c-32.124,21.514-56.252,50.554-77.5,82.397
				c-38.183,57.206-61.97,123.223-101.637,179.457c-45.516,64.519-107.854,94.045-167.204,142.999
				c-28.013,23.108-52.351,58.521-81.253,78.253c30.743,27.115,189.398,101.717,230.566,123.312
				c4.897,2.571,9.855,5.173,14.858,7.804c33.466-37.882,37.963-99.029,63.624-140.992
				C6491.804,5291.041,6536.699,5242.148,6563.597,5175.358z"/>
			<path id="_x31_80611670" fill="#8ADA87" stroke="#000000" d="M6808.249,3581.918c22.447,114.249-6.504,221.631-11.641,343.306
				c-1.267,29.924-2.36,61.336-6.27,92.257c-5.631,46.011-17.556,90.87-45.327,128.139c-0.49,0.667-0.988,1.33-1.567,1.912
				c-8.514,11.038-19.517,21.34-30.354,29.814c-43.527,33.823-101.845,46.955-155.034,54.936c-0.084,0.003-0.166,0.002-0.248,0.001
				c-57.334,8.57-120.522-6.796-174.504,19.171c-3.307-36.292-8.365-77.64-13.59-121.389c-4.403-46.32-10.385-92.226-14.296-138.46
				c-0.167-1.904-0.254-3.811-0.425-5.634c-0.678-8.536-1.278-16.988-1.793-25.438c-0.346-6.464-0.691-12.845-1.034-19.226
				c-0.604-12.844-1.048-25.772-1.321-38.784c-0.086-1.49-0.092-2.983-0.095-4.476c-0.786-59.17,3.329-114.628,16.327-160.154
				c25.838-90.309,102.855-78.369,151.604-152.975c2.23-3.403,4.379-6.888,6.522-10.374c46.337-77.088,52.386-159.73,35.225-241.742
				c-0.502-2.818-1.089-5.636-1.757-8.449c-1.838-8.698-4.014-17.397-6.434-26.011c-4.429-15.654-8.604-30.645-15.178-45.55
				c7.217,4.711,13.943,10,20.832,15.041c22.826,16.61,47.551,30.732,71.449,45.684c17.928,11.234,39.581,21.551,54.691,36.602
				c2.081,2.068,4.154,4.219,6.152,6.371c39.865,41.439,70.72,91.435,93.12,144.098
				C6795.048,3528.242,6803.056,3555.331,6808.249,3581.918z"/>
			<path id="_x31_80611671" fill="#A0EE9D" stroke="#000000" d="M6647.407,4277.93c43.472,21.457,79.348,55.612,99.586,104.137
				c48.058,115.183,168.963,228.23,36.913,336.573c-54.938,45.115-125.914,69.215-186.093,106.302
				c-68.37,42.163-107.541,97.687-141.893,157.762c-26.84,46.633-50.689,96.079-83.078,144.13
				c-10.414,15.52-114.824,102.34-126.332,110.984c-41.949,31.498-80.09,65.057-117.31,101.934
				c-5.567-7.113,9.613-120.523,10.998-131.716c2.612-20.891,5.632-41.778,8.821-62.591c5.645-36.644,11.951-73.206,18.092-109.768
				c6.467-38.802,13.852-74.451,30.354-109.963c18.564-39.983,37.464-79.721,58.188-118.631
				c18.413-34.682,37.131-79.642,69.151-103.99c18.207-13.877,44.881-19.818,57.854-39.652c8.512-13.026,4.078-31.086,6.204-45.84
				c5.312-36.481,8.136-73.368,10.379-110.172c2.084-35.807,2.092-71.855-0.636-107.738c-0.168-2.236-0.342-4.472-0.428-6.632
				c-2.221-32.812-5.84-59.742-8.873-83.688c-0.758-5.551-1.433-10.935-2.024-16.236c-0.758-5.386,23.73-29.97,31.676-32.144
				C6493.177,4240.953,6579.541,4244.174,6647.407,4277.93z"/>
			<path id="_x31_80611667" fill="#98D6F9" stroke="#000000" d="M6371.342,4656.424c-3.847-120.193-7.035-267.839-19.817-410.201
				c-16.588-184.825-42.188-353.11-36.952-502.714c5.219-149.196,37.063-260.33,10.308-359.165
				c-26.742-98.844-116.763-181.344-228.456-291.803c-11.108-10.986-22.567-21.633-34.278-31.968
				c-29.292-25.82-63.889-52.065-93.595-70.332c-34.795-21.398-76.915-42.085-116.145-51.584
				c-23.961-5.796-46.605-14.204-71.313-15.918c-87.037-6.035-148.209,29.981-280.21,101.403
				c-71.748,38.823-87.433,60.779-122.729,101.087c-62.21,71.04-111.386,160.606-146.569,263.438
				c-63.126,184.491-85.908,378.678-108.957,571.816c0,0,238.91,153.101,330.2,210.925
				c91.278,57.825,273.33,183.829,363.099,247.888c124.505,88.835,316.497,255.234,369.434,307.95
				c12.05,12.005,30.56,34.473,48.958,34.979c19.881,0.539,35.872-22.234,45.544-36.904c11.102-16.831,21.212-34.307,38.023-46.181
				c7.946-5.608,16.392-11.339,25.162-15.529C6345.114,4662.632,6371.263,4653.916,6371.342,4656.424z"/>
			<path id="_x31_80611668" fill="#80CDF8" stroke="#000000" d="M6174.308,4746.589c-59.058-45.872-244.922-219.113-369.391-307.927
				c-89.764-64.053-271.818-190.061-363.1-247.882c-58.547-37.09-223.37-141.133-328.531-193.442
				c-41.977-20.753-96.923,39.274-112.353,73.478c-31.59,70.044-84.583,207.038-146.395,344.246
				c-84.268,187.065-167.849,326.332-186.94,447.963c-35.989,229.426,61.578,339.556,196.472,506.69
				c115.219,142.772,239.798,282.969,409.122,360.689c67.953,31.188,288.775,125.276,406.687,68.182
				c67.323-32.593,93.924-116.502,159.275-149.892c87.799-44.846,203.476-53.357,241.205-161.758
				c35.962-103.295,16.833-228.182,37.138-335.163c14.559-76.677,27.148-167.55,57.42-238.049
				C6199.585,4856.289,6237.718,4795.861,6174.308,4746.589z"/>
			<path id="_x31_80611675" fill="#80CDF8" stroke="#000000" d="M5794.293,6321.339c-46.816-4.86-93.769,28.389-107.025,73.03
				c-8.349,28.105-5.015,46.838,5.237,58.46c4.359,4.942,9.979,8.594,16.479,11.14c40.733-6.28,82.039-15.548,123.772-27.465
				C5881.933,6398.03,5851.67,6327.297,5794.293,6321.339z"/>
			<path id="_x31_80611676" fill="#80CDF8" stroke="#000000" d="M5331.699,6194.634c-46.979-3.682-60.883,55.944-50.45,106.772
				c9.483,46.207,39.071,85.146,82.212,62.655c10.359-5.406,18.526-13.143,24.639-22.368
				C5420.95,6292.131,5394.644,6199.56,5331.699,6194.634z"/>
			<path id="_x31_80611677" fill="#80CDF8" stroke="#000000" d="M5056.969,6047.88c-20.443-45.412-69.894-12.354-94.577,36.862
				c-20.675,41.223-23.983,93.781,21.683,121.085c15.973,9.547,30.487,5.281,42.104-6.813c2.364-2.467,4.655-5.214,6.865-8.204
				C5059.286,6155.273,5073.798,6085.265,5056.969,6047.88z"/>
			<path id="_x31_80611678" fill="#80CDF8" stroke="#000000" d="M4679.51,5606.323c0.225-4.262,0.295-8.522,0.237-12.788
				c-0.505-0.432-1.014-0.864-1.521-1.291c0.507,0.429,1.016,0.859,1.521,1.291c-0.387-29.197-6.821-58.325-11.721-86.934
				c-4.81-28.097,7.189-78.65,11.397-127.374c-0.333-0.627-0.672-1.248-1.029-1.864c0.359,0.614,0.701,1.239,1.029,1.864
				c5.076-58.728-1.169-114.797-61.803-125.684c-10.328,11.747-19.968,21.843-27.152,28.062
				c-23.977,20.747-51.052,41.271-77.889,58.157c23.824,80.697,59.826,180.371,112.768,315.941
				C4661.264,5656.67,4676.968,5654.629,4679.51,5606.323z"/>
			<path id="_x31_80611674" fill="#80CDF8" stroke="#000000" d="M6614.724,5668.224
				c-21.713,105.537-135.321,168.803-212.297,229.931c-66.818,53.06-122.247,119.218-191.537,169.375
				c-67.355,48.755-149.037,67.618-225.71,93.035c-20.192,6.69-44.825,9.187-62.872,20.845
				c-19.127,12.355-33.322,31.424-54.746,43.18c-88.904,48.785-188.095,73.813-282.73,108.605
				c-72.842,26.773-136.086,24.591-196.729,8.501c-6.11,9.226-14.279,16.964-24.639,22.366c-43.141,22.49-72.73-16.45-82.212-62.653
				c-33.608-15.306-67.702-32.166-103.502-47.951c-35.664-15.731-76.975-20.474-111.456-38.022
				c-12.187-6.201-23.179-14.664-33.252-24.624c-2.212,2.99-4.503,5.737-6.865,8.204c-11.614,12.094-26.129,16.359-42.104,6.813
				c-45.666-27.306-42.359-79.862-21.683-121.085c-3.999-7.123-7.941-14.016-11.877-20.532
				c-41.407-68.526-92.436-130.796-131.753-200.66c-25.229-44.833-29.787-95.799-48.604-142.731
				c-19.421-48.39-52.122-94.511-90.406-127.279c0.056,4.264-0.013,8.524-0.237,12.784c-2.54,48.307-18.246,50.349-54.164,49.385
				c31.495,80.653,68.985,174.018,113.481,283.652c32.281,79.551,85.63,156.327,144.162,220.228
				c164.531,179.554,445.886,305.649,684.393,313.53c46.239,1.525,93.524-1.735,141.6-9.147c-6.5-2.546-12.117-6.199-16.479-11.14
				c-10.252-11.622-13.584-30.356-5.237-58.46c13.259-44.642,60.209-77.891,107.027-73.032
				c57.377,5.96,87.642,76.694,38.463,115.167c160.613-45.862,327.53-130.787,492.405-234.306
				c132.433-83.151,306.074-262.727,428.01-431.85C6736.595,5756.41,6677.497,5713.138,6614.724,5668.224z"/>
			<path id="_x31_80611673" fill="#80CDF8" stroke="#000000" d="M4770.151,5720.816c18.821,46.933,23.377,97.9,48.606,142.733
				c39.318,69.864,90.348,132.134,131.754,200.658c3.937,6.517,7.877,13.407,11.876,20.534
				c24.688-49.218,74.138-82.276,94.581-36.864c16.828,37.389,2.316,107.397-23.928,142.933
				c10.071,9.958,21.064,18.421,33.252,24.624c34.479,17.549,75.79,22.289,111.454,38.022c35.8,15.787,69.894,32.646,103.504,47.949
				c-10.433-50.828,3.475-110.452,50.448-106.772c62.944,4.928,89.251,97.497,56.4,147.062
				c60.647,16.09,123.892,18.272,196.729-8.501c94.638-34.791,193.828-59.82,282.73-108.605
				c21.426-11.756,35.621-30.826,54.746-43.18c18.049-11.658,42.68-14.15,62.872-20.843c76.673-25.417,158.354-44.28,225.71-93.035
				c69.29-50.159,124.717-116.319,191.539-169.375c76.974-61.13,190.582-124.394,212.297-229.933
				c-7.521-5.385-15.1-10.789-22.658-16.173c-49.276,13.515-79.357,68.142-119.616,96.378
				c-43.337,30.39-93.87,48.276-137.632,77.635c-98.342,65.986-212.199,124.994-331.781,137.104
				c-73.885,7.48-129.981,30.563-177.553,89.79c-57.091,71.114-157.006,127.167-250.539,122.216
				c-121.982-6.464-296.79-14.122-399.771-84.702c-34.687-23.776-57.402-60.532-83.279-92.876
				c-32.561-40.701-87.357-86.051-108.338-133.621c-18.975-43.031-30.54-88.983-46.181-132.575
				c-15.586-43.434-45.235-80.573-72.006-117.666c-12.811-17.748-27.57-33.973-42.061-51.245
				c-25.443-30.332-40.747-67.558-64.066-99.358c-9.116-12.431-20.94-22.523-32.691-32.366
				c-11.873-9.943-23.95-19.681-34.087-31.463c-0.815-0.947-1.617-1.906-2.406-2.883l-0.205,0.139
				c0.029-0.094,0.058-0.19,0.088-0.287c-1.982-2.479-3.856-5.042-5.557-7.723c-1.905-2.991-3.309-6.222-4.954-9.325
				c-4.207,48.72-16.206,99.274-11.396,127.372c4.9,28.609,11.332,57.738,11.721,86.936
				C4718.031,5626.306,4750.732,5672.429,4770.151,5720.816z"/>
			<path id="_x31_80611672" fill="#80CDF8" stroke="#000000" d="M4690.057,5396.425c0.783,0.976,1.586,1.936,2.403,2.885
				c10.14,11.78,22.217,21.52,34.088,31.462c11.751,9.844,23.576,19.935,32.692,32.364c23.318,31.802,38.624,69.027,64.067,99.359
				c14.489,17.274,29.25,33.496,42.061,51.247c26.767,37.091,56.419,74.232,72.006,117.668
				c15.641,43.59,27.206,89.544,46.179,132.571c20.98,47.572,75.778,92.92,108.34,133.623c25.878,32.34,48.591,69.098,83.278,92.878
				c102.983,70.576,277.786,78.234,399.769,84.698c93.534,4.953,193.447-51.1,250.544-122.214
				c47.566-59.231,103.663-82.312,177.547-89.788c119.59-12.113,233.441-71.117,331.782-137.105
				c43.763-29.364,94.298-47.247,137.63-77.635c40.264-28.238,70.345-82.867,119.623-96.38c-2.545-1.813-5.088-3.622-7.63-5.425
				c-75.363-53.561-147.063-103.122-148.401-101.173c-9.434,13.886,66.809,67.231,60.316,87.852
				c-10.86,34.437-91.102,56.695-119.428,62.202c-79.622,15.466-168.834,5.366-203.989,90.428
				c-19.756,47.81-50.339,97.722-99.408,121.615c-46.507,22.648-100.115,28.686-148.554,46.467
				c-124.125,45.535-232.229,136.245-367.43,149.548c-235.372,23.163-406.855-109.569-516.354-269.713
				c-84.38-123.406-176.042-239.357-255.309-365.752c-10.847-17.295-19.909-35.636-31.007-52.79
				c-7.365-11.386-14.985-24.744-26.174-32.844c-4.845-3.504-10.643-2.446-16.124-1.48c-0.041,0.019-0.082,0.035-0.122,0.053
				L4690.057,5396.425z"/>
			<path id="_x31_80611669" fill="#90CBED" stroke="#000000" d="M4607.643,3915.544c82.709-80.291,162.778-97.03,229-138.605
				c62.581-39.297,99.133-44.38,99.364-44.412c16.28-2.408,34.239,22.584,42.19,33.322c13.862,18.723,25.01,36.208,32.594,58.387
				c21.701,63.502-5.97,122.256-32.74,203.117c-7.062,21.332-14.42,42.571-21.908,63.757
				c-16.259,45.968-35.403,90.254-52.654,135.792c-18.43,48.65-38.145,96.803-60.091,143.982
				c-76.447,164.315-164.364,336.063-184.249,414.771c-35.617,140.967-20.827,274.326-7.587,339.819
				c19.533,96.644-146.615,188.748-146.631,188.758c11.253-6.236-57.145-265.459-116.749-264.81
				c3.436-49.114,1.854-819.877,1.557-960.771C4468.374,4038.76,4576.289,3945.968,4607.643,3915.544z"/>
			<path id="_x31_80611666" fill="#A2B1D8" stroke="#000000" d="M6254.239,5465.763c-76.896-36.092-133.92-133.363-137.876-40.118
				c-3.188,75.43-50.224,133.985-117.739,174.287c-53.886,32.161-125.589,49.271-163.524,79.067
				c-43.932,34.521-89.985,89.175-121.968,132.858c-34.303,46.85-178.127,31.449-298.35,6.834
				c-146.852-30.067-191.482-85.268-313.209-167.187c-57.652-38.793-155.693-144.714-209.674-196.402
				c-43.149-41.317-95.726-206.979-151.546-144.73c-52.268,58.297,50.101,139.326,79.673,182.743
				c90.976,133.538,205.812,257.233,296.525,390.416c71.799,105.428,185.769,166.556,315.331,187.9
				c120.077,19.773,209.435-13.403,318.961-58.669c51.058-21.105,98.297-58.088,151.099-74.901
				c42.791-13.631,96.327-20.609,134.591-41.722c48.201-26.585,90.501-58.891,107.519-107.957
				c52.541-151.557,375.354-83.008,318.709-178.846C6432.622,5558.335,6309.348,5491.634,6254.239,5465.763z"/>
			<path id="_x31_80611735" fill="#CCCCCC" stroke="#000000" d="M5959.486,2612.751c51.53,30.644,101.744,64.687,149.223,100.724
				c150.826,114.475,264.398,250.905,332.245,355.688c50.97,78.711,97.477,166.467,117.717,255.188
				c0.586,2.816,1.255,5.633,1.757,8.45c3.432,17.149,5.71,34.549,6.988,52.033c4.775,65.879-8.427,132.869-42.213,189.709
				c-2.146,3.489-4.292,6.973-6.522,10.374c-48.748,74.606-125.768,62.667-151.604,152.975
				c-14.729,51.332-17.269,106.202-16.327,160.155c0.003,1.489,0.009,2.98,0.093,4.473c0.193,12.763,0.635,25.691,1.323,38.786
				c0.343,6.382,0.688,12.76,1.036,19.226c0.429,8.453,1.109,16.987,1.793,25.438c0.169,1.824,0.254,3.729,0.423,5.635
				c3.664,46.821,9.064,93.881,14.296,138.46c0.08,1.16,0.248,2.236,0.336,3.396c3.645,38.782,9.451,80.372,13.256,117.993
				c0.511,5.719,1.021,11.354,1.449,16.822c0.591,8.04,1.519,16.322,2.531,24.857c0.595,5.303,1.268,10.688,2.025,16.24
				c2.529,21.045,4.479,42.341,6.841,63.139c0.76,6.876,1.437,13.671,2.034,20.547c0.088,2.154,0.261,4.392,0.428,6.632
				c2.919,49.474,2.472,112.047-7.716,197.266c-4.19,18.323-2.58,74.594-19.196,55.32c-3.811-120.166-7.425-263.704-20.148-406.062
				c-16.621-184.785-42.249-353.139-37-502.749c5.243-149.189,37.09-260.31,10.367-359.127
				c-26.811-98.818-116.817-181.346-228.518-291.84c-139.439-137.954-301.437-203.508-494.871-162.5
				c-117.39,24.941-224.808,102.321-314.518,205.771c-37.289,42.925-71.335,90.319-97.01,141.177
				c-6.604,12.943-13.12,26.632-18.727,39.987c-3.217,7.797-4.856,16.254-8.158,24.133c-6.928,16.593-14.107,33.43-19.619,50.513
				c-28.004,86.335-38.59,176.44-41.805,266.786c-0.938,26.772-1.22,53.541-1.161,80.313c0.057,26.936-9.376,156.908-27.256,247.032
				c-8.284,41.787-54.28,44.287-72.342,85.098c-73.585,165.993-146.137,352.865-160.892,350.494
				c-21.388-3.439,84.144-231.322,138.011-393.955c26.767-80.862,54.414-139.598,32.731-203.121
				c-26.932-78.928-113.398-131.708-104.554-142.749c10.248-12.87,14.521-30.862,21.458-45.709
				c17.985-38.247,32.246-76.976,44.428-117.365c13.909-46.356,22.094-97.263,27.631-145.339c0.979-8.29,1.787-16.579,2.436-24.785
				c0.087-0.249,0.083-0.496,0.079-0.662c2.517-25.699,4.214-48.741,4.432-62.498c0.075-3.399,0.069-6.632,0.228-9.697
				c0.952-20.639,1.82-41.36,2.938-62.084c0.001-0.661,0.083-1.408,0.081-2.07c0.238-4.394,0.478-8.869,0.718-13.345
				c0.156-2.487,0.238-4.974,0.396-7.379c0.243-4.226,0.477-8.454,0.72-12.681c-0.001-0.996,0.079-1.988,0.159-2.904
				c1.132-14.171,3.49-35.31,4.459-49.07c0-0.166-0.002-0.332-0.003-0.498c0.981-7.296,2.211-14.593,3.604-21.805
				c0-0.083,0-0.083,0-0.083c1.648-4.477,3.792-9.871,6.757-17.5c-0.994,0.085-1.903,0.252-2.896,0.337
				c1.148-4.809,2.545-9.536,4.029-14.264c48.419-153.257,82.121-207.199,156.74-352.555c9.825-19.164,19.488-36.921,29.149-53.353
				c25.354-43.232,50.313-77.593,76.859-105.08c21.753-22.506,44.509-40.537,69.341-54.927c10.76-6.404,21.855-11.981,33.448-17.057
				c49.518-21.652,107.186-28.236,169.604-22.813C5685.71,2476.816,5826.719,2533.545,5959.486,2612.751z"/>
			<path id="_x31_80611736" fill="#CCCCCC" stroke="#000000" d="M5720.858,4541.73c92.52,70.333,162.199,277.315,164.404,343.611
				c-68.379-1.931-157.561-45.259-225.957-59.62c-69.356-14.563-122.396-53.934-137.02-130.248
				C5495.022,4553.255,5606.729,4454.958,5720.858,4541.73z"/>
			<path id="_x31_80611737" fill="#CCCCCC" stroke="#000000" d="M7158.854,5230.816c-47-16.481-170.403,66.658-219.362,127.528
				c-26.884,33.426-215.511,203.239-46.595,182.425c0,0,2.109-2.077,5.814-5.7c6.622-7.123,13.827-14.438,21.755-21.985
				c13.911-13.251,28.217-26.31,42.803-39.208c24.036-22.028,49.119-43.968,66.134-56.095c0,0,0.004-0.004,0.008-0.004
				c52.469-42.978,106.318-84.214,156.895-124.376c21.488-17.512,36.167-29.565,36.167-29.565S7196.858,5244.138,7158.854,5230.816z
				"/>
			<path id="_x31_80611734" fill="#AAAAAA" stroke="#000000" d="M5078.829,3954.627c13.283,6.365,29.273,6.729,43.807,5.855
				c23.049-193.138,45.831-387.324,108.957-571.813c16.796-49.09,37.228-96.293,62.411-141.652
				c12.853-23.158,26.706-47.475,42.395-68.841c12.715-17.311,25.601-33.466,40.248-49.172
				c18.719-20.059,32.587-43.057,54.72-60.086c38.281-29.46,80.014-54.49,123.188-76.098c21.509-10.765,44.304-18.743,65.548-30.041
				c19.917-10.589,38.947-20.623,60.686-27.218c26.827-8.143,54.914-15.349,83.003-14.993c-14.057-0.177-29.524-1.484-44.004-2.024
				c-17.567-0.648-35.551,0.677-53.033,2.338c-54.592,5.176-108.715,16.644-158.134,40.344
				c-106.403,51.035-197.62,135.274-264.007,226.943c-53.148,73.402-89.179,159.134-113.65,246.131
				c-31.319,111.325-25.437,233.563-32.541,346.299C5094.452,3843.559,5086.782,3897.104,5078.829,3954.627z"/>
		</g>
	</g>
	<g transform="scale(1.0)">
		<g id="_x31_80611660_1_" transform=" scale(1.0, 1.0)">
			<path id="_x31_80611662_1_" fill="#BFDAE3" stroke="#000000" d="M4382.498,2041.563c4.589,221.661-5.375,600.86-9.857,766.609
				c-4.132,152.514-22.012,483.597-22.235,737.576c-0.09,107.298,14.709,211.069,16.03,265.244
				c3.565,145.286,7.177,290.689,6.523,436.034c-0.324,71.187,2.054,142.331,3.287,213.495c1.155,66.968-8.38,139.094,0.273,205.247
				c16.542,126.578-1.511,255.521,7.363,383.566c-35.324,15.582-55.531,59.053-69.897,91.755
				c-55.741,126.854-76.459,263.061-124.228,393.272c-50.038,136.354-105.928,270.467-160.526,405.033
				c-32.278,79.542-85.626,156.324-144.16,220.22c-164.533,179.572-445.883,305.66-684.396,313.539
				c-236.221,7.805-499.51-108.75-757.785-270.911c-132.437-83.151-295.737-250.261-417.679-419.393
				c-86.773-120.354-84.403-180.904-177.637-269.722c-161.295-153.658-375.832-282.409-467.422-411.21
				c-206.601-290.499-224.876-575.007-280.224-763.052c-27.383-93.054-106.028-255.132-160.749-423.014
				c-3.914-12.025-7.773-24.098-11.578-36.187c-70.081-222.591-120.861-453.163-148.773-577.446
				c-84.407-375.85-64.08-923.691,284.464-1304.76c382.098-417.754,721.712-608.714,1103.973-822.38
				c302.856-169.281,808.79-350.576,1090.701-412.158c212.605-46.444,630.492-92.233,890.623,159.296
				c111.666,107.969,132.196,199.179,177.439,365.031c19.358,70.985,55.368,281.9,57.268,364.78
				C4385.815,1761.545,4380.611,1950.391,4382.498,2041.563z"/>
			<path id="_x31_80611663_1_" fill="#B0FFB8" stroke="#000000" d="M2001.795,5748.603
				c-65.291-90.309-61.031-146.738-154.253-235.526c-161.295-153.655-375.85-282.393-467.412-411.212
				c-206.599-290.496-224.909-574.971-280.215-763.053c-27.411-93.043-106.059-255.152-160.743-423.007
				c-76.101-233.374-130.947-482.621-160.35-613.628c-84.427-375.861-64.067-923.642,284.474-1304.744
				c382.101-417.747,721.715-608.657,1103.976-822.36c302.856-169.276,808.786-350.565,1090.699-412.143
				c212.595-46.473,630.479-92.188,890.615,159.304c111.663,107.97,132.196,199.177,177.438,365.026
				c19.327,70.984,55.366,281.899,57.262,364.782c2.512,109.487-2.688,298.355-0.803,389.526
				c4.603,221.623-5.38,600.854-9.863,766.6c-4.13,152.486-22.05,483.548-22.241,737.568
				c-0.056,107.327,14.729,211.036,16.029,265.244c1.533,61.166,3.565,159.792,4.61,215.156c0,0-104.16-48.033-196.794-140.965
				c-118.188-118.676-250.668-99.057-312.445-203.694c-3.472-5.809-56.59-129.822-68.6-173.026
				c-13.164-47.266-20.439-95.186-25.812-143.926c-5.69-52.061-6.994-104.359-9.542-156.66
				c-2.226-45.092-3.949-92.417-17.702-135.79c-48.419-153.259-82.121-207.201-156.74-352.557
				c-66.041-128.596-125.332-193.86-208.801-230.415c-184.485-80.773-483.03,48.148-715.287,224.369
				c-150.826,114.473-264.398,250.905-332.245,355.689c-101.849,157.257-185.873,350.273-77.725,515.755
				c48.746,74.607,125.766,62.667,151.602,152.976c40.977,143.211-6.345,384.953-17.672,530.383
				c-2.636,33.808-6.684,67.529-10.648,101.171c-7.674,65.124-1.512,130.612,2.084,195.595c1.039,18.402,2.409,36.802,4.111,55.124
				c1.054,10.356,0.531,22.959,3.076,32.825c6.421,24.795,31.684,30.978,51.137,41.793c16.891,9.401,30.037,23.847,40.698,39.697
				c19.827,29.549,32.687,63.554,48.951,95.083c18.735,36.255,38.47,72.182,53.643,110.17c8.821,22.312,16.398,45.616,20.244,69.328
				c10.881,67.732,34.772,217.624,44.935,315.028c3.166,30.013-41.545,51.717-64.368,66.175
				c-40.5,25.689-240.578,112.797-378.926,203.678C2088.562,5665.987,2001.783,5748.603,2001.795,5748.603z"/>
			<path id="_x31_80611709_1_" fill="#1F9D5A" stroke="#000000" d="M2167.26,1175.073
				c302.856-169.273,808.786-350.565,1090.699-412.144c37.479-8.21,81.338-16.325,129.583-22.858l-17.661,166.137
				c-115.094,26.614-227.556,66.577-327.332,101.846c-90.402,31.969-172.587,57.822-265.129,83.824
				c-120.497,33.73-219.83,57.147-329.761,114.937c-101.639,53.411-207.32,99.771-307.884,154.844
				c-6.14,3.384-12.364,6.771-18.503,10.153l-71.589-129.27l-0.657-1.16C2088.021,1219.414,2127.437,1197.367,2167.26,1175.073z"/>
			<path id="_x31_80611708_1_" fill="#1F9D5A" stroke="#000000" d="M2139.779,1361.658
				c100.565-55.073,206.247-101.434,307.886-154.846c109.929-57.787,209.262-81.205,329.759-114.936
				c92.542-26,174.727-51.855,265.131-83.823c99.774-35.268,212.238-75.232,327.332-101.846l-37.275,351.656
				c-43.893,24.278-88.617,49.795-136.567,72.653c-265.473,126.503-396.031,180.271-503.276,219.999
				c-139.593,51.591-260.792,105.961-379.434,168.124l-192.062-346.829C2127.411,1368.428,2133.636,1365.041,2139.779,1361.658z"/>
			<path id="_x31_80611707_1_" fill="#1F9D5A" stroke="#000000" d="M2692.762,1550.517
				c107.245-39.728,237.806-93.494,503.276-219.998c47.95-22.859,92.677-48.379,136.569-72.652l-57.05,537.678
				c-130.619,41.254-255.166,113.099-343.308,172.591c-70.628,47.673-224.461,134.628-362.366,213.739l-256.55-463.234
				C2431.976,1656.476,2553.177,1602.107,2692.762,1550.517z"/>
			<path id="_x31_80611706_1_" fill="#1F9D5A" stroke="#000000" d="M2932.252,1968.136
				c88.144-59.493,212.687-131.337,343.308-172.592l-61.616,581.263c-116.405,21.143-225.85,84.4-329.633,133.913
				c-34.843,16.586-69.521,33.753-103.706,51.668l-210.721-380.514C2707.789,2102.761,2861.622,2015.809,2932.252,1968.136z"/>
			<path id="_x31_80611705_1_" fill="#1F9D5A" stroke="#000000" d="M2884.311,2510.718
				c103.779-49.512,213.228-112.771,329.633-133.913l-9.212,86.422l0.242,3.066c-122.684,10.523-263.692,67.251-396.46,146.457
				l-27.91-50.363C2814.789,2544.473,2849.468,2527.306,2884.311,2510.718z"/>
			<path id="_x31_80611733_1_" fill="#1F9D5A" stroke="#000000" d="M4218.33,1392.957l99.372-136.376
				c-39.889-146.778-64.576-233.188-169.127-334.349c-214.312-207.14-535.619-212.688-761.033-182.16l-17.659,166.136
				c155.552-35.979,315.782-47.667,455.479,9.558c72.94,29.865,138.004,76.56,192.768,133.598
				c12.187,11.183,23.39,22.893,33.267,34.269c51.105,58.854,94.685,124.359,127.215,195.275
				C4195.588,1315.925,4208.521,1354.047,4218.33,1392.957z"/>
			<path id="_x31_80611725_1_" fill="#1F9D5A" stroke="#000000" d="M3332.611,1257.862c111.6-61.598,217.794-114.835,357.569-94.157
				c152.279,22.521,223.329,213.87,262.448,334.123c17.948,55.4,40.786,113.957,62.548,173.84l186.752-256.203l16.401-22.51
				c-9.809-38.91-22.741-77.032-39.719-114.05c-32.531-70.916-76.11-136.421-127.216-195.276
				c-9.879-11.374-21.08-23.084-33.265-34.268c-54.766-57.037-119.829-103.732-192.77-133.598
				c-139.696-57.225-299.925-45.536-455.479-9.558L3332.611,1257.862z"/>
			<path id="_x31_80611712_1_" fill="#1F9D5A" stroke="#000000" d="M3690.178,1163.708
				c152.28,22.523,223.33,213.869,262.449,334.125c17.95,55.398,40.786,113.956,62.548,173.838l-263.141,361.057
				c-14.275-110.176-41.583-212.339-148.087-249.687c-101.533-35.598-217.177-22.658-328.388,12.501l57.05-537.676
				C3444.208,1196.268,3550.401,1143.031,3690.178,1163.708z"/>
			<path id="_x31_80611711_1_" fill="#1F9D5A" stroke="#000000" d="M3603.947,1783.039
				c106.504,37.35,133.812,139.511,148.088,249.686l-278.846,382.654c-42.136-22.712-88.602-37.892-139.728-43.553
				c-40.684-4.475-80.469-2.152-119.521,4.979l61.618-581.263C3386.771,1760.383,3502.414,1747.443,3603.947,1783.039z"/>
			<path id="_x31_80611710_1_" fill="#1F9D5A" stroke="#000000" d="M3333.464,2371.827c51.126,5.661,97.592,20.839,139.726,43.551
				l-61.335,84.162l-3.825,6.623c-10.762-6.403-21.854-11.979-33.45-17.058c-49.514-21.651-107.187-28.234-169.605-22.811
				l-0.242-3.066l9.212-86.424C3252.995,2369.675,3292.78,2367.353,3333.464,2371.827z"/>
			<path id="_x31_80611704_1_" fill="#188064" stroke="#000000" d="M2049.022,1241.38l0.657,1.159l71.589,129.272
				c-112.43,61.761-223.285,125.351-327.035,200.059c-62.504,45.038-129.876,82.939-191.05,129.642
				c-103.515,79.019-257.458,179.148-347.828,274.189c-115.119,121.014-229.796,267.471-302.02,408.298
				c-47.683,93.057-82.437,186.555-102.621,289.862c-13.065,66.855-9.729,136.066-21.142,203.172
				c-12.666,74.897,11.494,135.364,27.752,209.906c23.071,105.882,40.085,213.243,63.986,318.963l-113.723,5.482l-3.976,0.656
				c-9.607-41.957-17.904-79.186-24.803-109.865c-84.427-375.859-64.067-923.643,284.474-1304.742
				C1405.514,1623.199,1713.721,1431.059,2049.022,1241.38z"/>
			<path id="_x31_80611703_1_" fill="#188064" stroke="#000000" d="M850.719,2673.864
				c20.187-103.311,54.938-196.809,102.621-289.865c72.226-140.828,186.9-287.286,302.02-408.299
				c90.368-95.041,244.312-195.172,347.828-274.188c61.174-46.702,128.548-84.603,191.05-129.644
				c103.75-74.706,214.605-138.296,327.035-200.057l192.063,346.828c-30.863,16.096-61.48,32.773-92.265,50.031l-6.687-11.947
				c-83.161-185.983-668.563,351.517-888.828,661.855c-87.027,122.563-138.795,268.984-167.11,415.622
				c-9.72,50.039-9.154,380.723,29.516,558.824l-266.648,12.876c-23.899-105.719-40.915-213.081-63.986-318.964
				c-16.258-74.541-40.42-135.007-27.75-209.905C840.989,2809.927,837.651,2740.716,850.719,2673.864z"/>
			<path id="_x31_80611702_1_" fill="#188064" stroke="#000000" d="M1325.557,2418.579
				c220.269-310.34,805.667-847.838,888.828-661.854l6.687,11.946c-64.555,36.167-129.527,75.069-197.578,117.446
				c-87.96,54.85-209.177,157.702-287.059,226.66c-149.453,132.297-299.638,297.743-392.592,481.955
				c-121.58,240.843-113.799,366.503-110.447,629.647c0.713,55.031,5.244,110.567,12.338,165.863l-57.771,2.781
				c-38.669-178.102-39.233-508.785-29.516-558.824C1186.76,2687.563,1238.527,2541.142,1325.557,2418.579z"/>
			<path id="_x31_80611701_1_" fill="#188064" stroke="#000000" d="M1736.435,2112.776
				c77.884-68.957,199.099-171.811,287.061-226.658c68.049-42.378,133.021-81.279,197.576-117.447
				c30.78-17.26,61.399-33.936,92.265-50.031l256.548,463.234c-91.275,52.356-175.58,101.246-224.047,133.14
				c-335.942,220.424-442.891,315.68-564.645,520.967c-99.802,168.284-152.559,351.254-147.457,530.115
				c0.078,1.739,0.16,3.563,0.237,5.47l-388.241,18.677c-7.094-55.296-11.623-110.834-12.338-165.864
				c-3.352-263.144-11.133-388.804,110.447-629.646C1436.793,2410.52,1586.979,2245.073,1736.435,2112.776z"/>
			<path id="_x31_80611700_1_" fill="#188064" stroke="#000000" d="M2345.837,2315.013c48.465-31.892,132.77-80.782,224.047-133.138
				l210.72,380.512c-260.019,135.385-495.337,310.684-606.813,593.15c-14.414,36.604-23.53,75.866-41.666,110.972
				c-15.896,30.962-47.934,52.859-60.511,83.913l-437.642,21.144c-0.077-1.907-0.157-3.73-0.237-5.47
				c-5.102-178.86,47.655-361.83,147.457-530.115C1902.946,2630.693,2009.893,2535.439,2345.837,2315.013z"/>
			<path id="_x31_80611699_1_" fill="#188064" stroke="#000000" d="M2132.125,3266.506c18.142-35.104,27.258-74.366,41.671-110.971
				c111.471-282.466,346.789-457.767,606.81-593.15l27.91,50.364c-51.53,30.642-101.742,64.685-149.223,100.724
				c-150.826,114.473-264.398,250.904-332.245,355.688c-50.968,78.712-97.477,166.468-117.717,255.188
				c1.838-8.698,4.016-17.395,6.434-26.011c4.429-15.652,8.604-30.645,15.178-45.55c-7.216,4.709-13.943,10-20.832,15.04
				c-22.826,16.612-47.555,30.733-71.449,45.685c-17.928,11.236-39.581,21.55-54.691,36.602c-2.083,2.069-4.154,4.22-6.148,6.371
				l-6.205-6.063C2084.193,3319.369,2116.23,3297.472,2132.125,3266.506z"/>
			<path id="_x31_80611698_1_" fill="#009C75" stroke="#000000" d="M921.313,3405.901c10.105,45.105,21.445,89.968,35.111,134.253
				c32.027,104.159,66.868,209.653,107.845,312.671l-130.612,39.513l-1.909,0.577c-54.759-171.752-97.985-349.615-128.135-480.874
				l3.976-0.656L921.313,3405.901z"/>
			<path id="_x31_80611697_1_" fill="#009C75" stroke="#000000" d="M1252.864,3506.203l10.946-0.809
				c2.456,13.27,5.001,26.448,7.624,39.55c13.456,67.16,12.993,91.028,49.387,165.86c9.327,19.245,22.965,36.511,38.016,52.871
				l-294.569,89.148c-40.975-103.019-75.815-208.511-107.843-312.671c-13.666-44.285-25.008-89.146-35.111-134.253l266.648-12.876
				C1203.149,3463.171,1224.188,3509.628,1252.864,3506.203z"/>
			<path id="_x31_80611696_1_" fill="#009C75" stroke="#000000" d="M1263.813,3505.396l-10.944,0.808
				c-28.68,3.425-49.719-43.032-64.906-113.181l57.77-2.78C1250.626,3428.874,1256.762,3467.341,1263.813,3505.396z"/>
			<path id="_x31_80611695_1_" fill="#009C75" stroke="#000000" d="M1671.894,3589.947c6.415,24.791,13.575,48.843,21.482,72.561
				l-334.539,101.17c-15.049-16.359-28.687-33.627-38.016-52.872c-36.394-74.83-35.933-98.7-49.387-165.859
				c-2.623-13.103-5.164-26.28-7.624-39.551c-7.047-38.053-13.183-76.521-18.077-115.152l388.241-18.677
				C1636.671,3431.16,1657.836,3535.631,1671.894,3589.947z"/>
			<path id="_x31_80611694_1_" fill="#009C75" stroke="#000000" d="M2077.817,3356.487c-39.867,41.439-70.722,91.435-93.122,144.098
				c-11.743,27.659-19.753,54.748-24.944,81.335l-266.373,80.59c-7.907-23.717-15.067-47.77-21.484-72.563
				c-14.058-54.317-35.221-158.785-37.919-218.381l437.642-21.145L2077.817,3356.487z"/>
			<path id="_x31_80611726_1_" fill="#40A666" stroke="#000000" d="M4243.862,1848.36l140.022-130.263
				c0.049-23.869-0.15-46.329-0.609-66.054c-1.897-82.883-37.935-293.801-57.264-364.782c-2.881-10.53-5.676-20.732-8.31-30.681
				l-99.372,136.376C4255.18,1539.112,4247.792,1696.402,4243.862,1848.36z"/>
			<path id="_x31_80611727_1_" fill="#40A666" stroke="#000000" d="M4201.931,1415.467l-186.752,256.205
				c36.424,100.025,69.855,203.444,73.135,300.833c0.238,6.631,0.47,13.261,0.626,19.892l123.472-114.778l31.451-29.258
				c3.93-151.956,11.317-309.248-25.532-455.403L4201.931,1415.467z"/>
			<path id="_x31_80611715_1_" fill="#40A666" stroke="#000000" d="M4088.315,1972.501c0.238,6.633,0.469,13.263,0.624,19.894
				l-303.17,281.906c-7.955-40.129-14.839-79.345-19.568-116.566c-5.22-40.787-8.779-83.477-14.165-125.01l263.141-361.054
				C4051.599,1771.696,4085.032,1875.115,4088.315,1972.501z"/>
			<path id="_x31_80611714_1_" fill="#40A666" stroke="#000000" d="M3766.197,2157.735c4.729,37.222,11.61,76.438,19.568,116.565
				l-222.04,206.406c-27.63-25.665-57.754-47.772-90.536-65.328l278.845-382.652
				C3757.42,2074.259,3760.979,2116.949,3766.197,2157.735z"/>
			<path id="_x31_80611713_1_" fill="#40A666" stroke="#000000" d="M3473.189,2415.382c32.782,17.555,62.904,39.661,90.538,65.328
				l-85.698,79.719l-0.661,0.661c-21.753-22.507-44.509-40.537-69.341-54.926l3.825-6.624L3473.189,2415.382z"/>
			<path id="_x31_80611728_1_" fill="#2FA850" stroke="#000000" d="M4253.001,2457.783l128.446-38.211
				c2.103-135.085,3.216-273.906,1.024-378.006c-1.503-74.676,1.688-214.982,1.413-323.47l-140.022,130.263
				c-1.001,38.69-1.78,77.035-1.546,114.762c0.949,152.218,8.553,304.689,9.213,456.169
				C4251.584,2432.243,4252.107,2445.06,4253.001,2457.783z"/>
			<path id="_x31_80611729_1_" fill="#2FA850" stroke="#000000" d="M4183.383,2478.504l30.96-9.218l38.656-11.502
				c-0.894-12.726-1.415-25.541-1.472-38.494c-0.66-151.481-8.262-303.951-9.213-456.169c-0.234-37.727,0.545-76.071,1.548-114.762
				l-31.451,29.258l-17.969,16.701c2.738,48.961-0.51,97.678,2.321,146.761C4205.275,2188.601,4191.971,2332.306,4183.383,2478.504z
				"/>
			<path id="_x31_80611730_1_" fill="#2FA850" stroke="#000000" d="M4074.776,2510.85l108.61-32.345
				c8.581-146.198,21.889-289.904,13.377-437.425c-2.831-49.083,0.417-97.799-2.321-146.761l-105.505,98.076
				c3.243,115.208,0.603,230.567-3.198,345.761C4083.969,2392.106,4079.125,2452.266,4074.776,2510.85z"/>
			<path id="_x31_80611718_1_" fill="#2FA850" stroke="#000000" d="M4085.739,2338.155c-1.771,53.95-6.616,114.109-10.963,172.694
				l-227.479,67.743c-15.627-96.916-41.848-203.553-61.53-304.291l303.171-281.906
				C4092.18,2107.604,4089.54,2222.963,4085.739,2338.155z"/>
			<path id="_x31_80611717_1_" fill="#2FA850" stroke="#000000" d="M3847.299,2578.591l-168.017,50.043
				c-32.457-55.761-70.808-106.479-115.557-147.927l222.041-206.406C3805.451,2375.039,3831.67,2481.676,3847.299,2578.591z"/>
			<path id="_x31_80611716_1_" fill="#2FA850" stroke="#000000" d="M3563.726,2480.706c44.749,41.45,83.102,92.17,115.557,147.927
				l-124.143,36.958l-0.912,0.579c-25.354-43.233-50.313-77.595-76.859-105.084l0.662-0.659L3563.726,2480.706z"/>
			<path id="_x31_80611731_1_" fill="#59B363" stroke="#000000" d="M4249.468,3015.605c-5.216,17.042-11.405,33.695-18.696,49.774
				c44.183-4.303,87.877-13.743,132.457-10.254c4.019-99.526,7.765-187.038,9.381-246.957c2.417-87.931,6.285-235.94,8.839-388.595
				l-128.447,38.211c3.734,53.026,14.057,104.418,25.206,156.917c13.254,62.406,17.042,125.622,15.199,189.201
				c-0.397,13.591-0.122,27.236-1.906,40.751c-2.146,16.242-3.476,32.292-6.618,48.234c-4.985,25.343-11.454,50.655-19.787,75.181
				C4259.633,2984.137,4255.481,3000.15,4249.468,3015.605z"/>
			<path id="_x31_80611732_1_" fill="#59B363" stroke="#000000" d="M4029.088,3083.857c65.731-3.678,130.312-12.163,196.043-17.912
				c1.907-0.162,3.729-0.323,5.637-0.569c7.291-16.076,13.482-32.729,18.698-49.773c6.013-15.451,10.163-31.466,15.625-47.534
				c8.335-24.527,14.802-49.839,19.787-75.181c3.144-15.942,4.475-31.993,6.618-48.236c1.782-13.514,1.513-27.158,1.908-40.748
				c1.845-63.58-1.949-126.797-15.199-189.202c-11.15-52.498-21.474-103.89-25.206-156.917l-38.656,11.502l-139.57,41.564
				c-1.365,18.064-2.646,35.962-3.76,53.532c-5.136,80.878,14.459,142.911,20.183,221.243
				c6.776,92.01-15.789,182.464-50.025,266.599C4036.924,3062.575,4032.839,3073.175,4029.088,3083.857z"/>
			<path id="_x31_80611721_1_" fill="#59B363" stroke="#000000" d="M4071.011,2564.385c-5.137,80.878,14.458,142.91,20.183,221.242
				c6.772,92.01-15.789,182.465-50.029,266.601c-4.246,10.349-8.329,20.95-12.08,31.633c-8.867,0.562-17.734,0.958-26.689,1.272
				c-31.578,1.094-62.996,4.428-94.329,6.353l-0.159-2.487c-9.701,1.969-25.882-149.151-27.895-178.66
				c-8.521-127.318-16.98-204.658-23.647-266.251c-2.276-21.139-5.385-43.025-9.065-65.494l227.478-67.741
				C4073.411,2528.917,4072.13,2546.814,4071.011,2564.385z"/>
			<path id="_x31_80611720_1_" fill="#59B363" stroke="#000000" d="M3847.299,2578.591c3.683,22.469,6.789,44.355,9.067,65.494
				c6.667,61.589,15.125,138.933,23.647,266.251c2.012,29.509,18.194,180.628,27.895,178.661l0.159,2.485
				c-26.274,1.604-52.634,2.212-79.146-0.412c-1.41-0.17-2.899-0.255-4.558-0.342l0.686-10.191
				c-18.697-137.614-63.675-310.839-145.767-451.903L3847.299,2578.591z"/>
			<path id="_x31_80611719_1_" fill="#59B363" stroke="#000000" d="M3679.282,2628.635
				c82.093,141.064,127.069,314.289,145.766,451.903l-0.685,10.191c-17.404-1.11-48.149-0.347-80.219-4.391
				c-1.148-4.809-2.547-9.536-4.031-14.262c-48.417-153.258-82.119-207.201-156.738-352.557
				c-9.823-19.163-19.488-36.922-29.149-53.35l0.914-0.579L3679.282,2628.635z"/>
			<path id="_x31_80611686_1_" fill="#219866" stroke="#000000" d="M1064.268,3852.826
				c50.297,126.742,109.884,249.689,184.74,361.812l-176.051,47.624c-36.272-93.314-92.042-218.16-133.797-346.457
				c-2.469-7.629-4.943-15.259-7.412-22.89l1.909-0.577L1064.268,3852.826z"/>
			<path id="_x31_80611687_1_" fill="#219866" stroke="#000000" d="M1400.852,3807.27c29.354,30.893,55.39,65.425,78.938,100.862
				c35.615,53.445,70.091,134.653,111.117,213.971l-341.898,92.535c-74.856-112.122-134.443-235.069-184.738-361.813l294.567-89.148
				C1372.481,3778.788,1387.37,3792.989,1400.852,3807.27z"/>
			<path id="_x31_80611690_1_" fill="#219866" stroke="#000000" d="M1784.6,3877.518c28.06,56.825,68.227,111.693,112.714,161.677
				l-306.407,82.91c-41.026-79.317-75.5-160.528-111.115-213.972c-23.548-35.437-49.586-69.969-78.941-100.859
				c-13.479-14.284-28.368-28.484-42.013-43.597l334.541-101.169C1717.345,3734.497,1747.954,3803.266,1784.6,3877.518z"/>
			<path id="_x31_80611692_1_" fill="#219866" stroke="#000000" d="M1971.394,3925.224c1.265,29.924,2.356,61.334,6.27,92.257
				l-80.35,21.714c-44.485-49.984-84.656-104.852-112.712-161.677c-36.647-74.252-67.255-143.021-91.224-215.01l266.373-80.59
				C1937.304,3696.164,1966.255,3803.549,1971.394,3925.224z"/>
			<path id="_x31_80611688_1_" fill="#219866" stroke="#000000" d="M1447.767,4447.266l-0.272,11.937
				c-22.624-0.625-45.167-1.585-67.457-2.624c-38.284-1.736-76.228-9.856-114.598-12.006c-38.696-2.317-134.47,20.031-134.47,20.031
				c0.084,0.332,0.167,0.742,0.248,1.24c-10.184-45.849-19.953-88.473-31.314-127.03c-6.417-21.977-15.733-47.771-26.944-76.552
				l176.051-47.624C1305.687,4299.371,1371.002,4377.994,1447.767,4447.266z"/>
			<path id="_x31_80611689_1_" fill="#219866" stroke="#000000" d="M1841.612,4365.211l3.967,5.395
				c-34.201,25.373-66.158,50.833-86.808,57.337c-99.27,31.205-206.771,34.384-311.274,31.267l0.275-11.936
				c-76.769-69.277-142.084-147.898-198.763-232.634l341.896-92.535C1651.659,4239.916,1726.933,4353.45,1841.612,4365.211z"/>
			<path id="_x31_80611691_1_" fill="#219866" stroke="#000000" d="M1991.267,4133.452l33.289,14.079
				c8.514,11.036,19.517,21.338,30.356,29.814c43.523,33.823,101.843,46.955,155.032,54.936c0.084,0.003,0.166,0.002,0.248,0.001
				c57.334,8.57,120.522-6.796,174.506,19.171c-0.512,5.721-1.021,11.354-1.449,16.822c-0.593,8.034-1.521,16.324-2.531,24.857
				c0.753-5.386-23.733-29.968-31.679-32.143c-74.216-20.039-160.582-16.818-228.446,16.936l-154.537,25.378l-1.511,9.61
				c-32.153-4.044-77.214,26.778-118.968,57.688l-3.969-5.396c-114.676-11.757-189.949-125.289-250.702-243.103l306.407-82.91
				C1927.493,4073.234,1959.67,4104.963,1991.267,4133.452z"/>
			<path id="_x31_80611693_1_" fill="#219866" stroke="#000000" d="M2022.989,4145.621c0.491,0.666,0.989,1.328,1.566,1.911
				l-33.287-14.079c-31.599-28.49-63.779-60.217-93.955-94.259l80.348-21.714
				C1983.292,4063.491,1995.217,4108.351,2022.989,4145.621z"/>
			<path id="_x31_80611664_1_" fill="#9AD2BD" stroke="#000000" d="M1130.938,4464.642c4.297,22.884,71.537,281.475,77.176,298.482
				c39.804,120.237,98.65,235.611,172.004,338.743c44.717,62.882,118.747,125.765,201.578,191.532
				c50.576,40.162,104.425,81.398,156.895,124.374c0.004,0.002,0.008,0.009,0.008,0.009c17.015,12.122,42.094,34.062,66.132,56.092
				c14.588,12.898,28.894,25.957,42.805,39.21c7.926,7.548,15.133,14.862,21.753,21.983
				c71.234,76.666,72.746,130.91,132.459,213.518c0,0,86.781-82.589,196.464-154.66c25.49-16.751,52.73-33.033,80.343-48.697
				c32.914-18.668,66.362-36.455,98.021-53.102c5.003-2.631,9.961-5.23,14.856-7.802c41.168-21.595,199.825-96.196,230.568-123.313
				c-28.904-19.729-53.242-55.141-81.253-78.251c-59.352-48.954-121.688-78.481-167.207-143.001
				c-39.664-56.234-63.451-122.253-101.634-179.455c-21.25-31.844-45.376-60.884-77.5-82.397
				c-93.477-62.614-226.093-100.547-283.871-202.46c-42.754-75.411-9.316-147.984,34.641-211.265
				c18.099-26.073,80.12-116.878,34.781-145.772c-53.902-34.334-170.884,93.758-221.158,109.55
				c-93.567,29.386-194.271,33.889-293.006,31.749c-28.817-0.621-57.462-1.81-85.718-3.115c-1.551-0.074-3.104-0.154-4.649-0.246
				c-36.77-2.171-73.146-9.666-109.965-11.8C1226.701,4442.291,1130.942,4464.646,1130.938,4464.642z"/>
			<path id="_x31_80611665_1_" fill="#9AD2BD" stroke="#000000" d="M3744.146,3086.339c1.484,5.641,2.795,11.36,3.86,17.165
				c0,0,0,0,0,0.082c2.062,5.805,3.048,10.035,3.281,15.92c0.079,1.74,0.16,3.729,0.323,5.885c-0.001,0.166-0.002,0.331-0.003,0.497
				c2.209,16.251,3.496,32.662,4.459,49.073c0.08,0.914,0.16,1.908,0.159,2.901c0.165,1.741,0.239,3.4,0.321,4.808
				c0.158,2.737,0.238,5.388,0.4,7.875c0.156,2.403,0.238,4.892,0.395,7.378c0.238,4.723,0.479,9.117,0.717,13.346
				c1.364,22.463,2.572,38.792,3.02,64.152c1.194,24.119,2.553,48.158,4.659,72.196c-0.004,0.166-0.006,0.414,0.077,0.663
				c4.003,39.396,10.204,84.854,16.373,111.984c-0.322,7.926,0.939,16.544,4.299,26.146c3.127,8.929,5.856,18.101,9.168,26.517
				c-0.005,0.088-0.02,0.182-0.022,0.268c-0.158,4.961,20.926,65.453,29.89,89.852c17.38,47.283,36.741,88.929,69.044,119.212
				c19.537,18.296,45.598,30.647,73.684,42.703c57.329,24.609,112.534,46.433,161.54,81.953
				c15.475,11.219,30.335,23.795,44.446,38.268c31.146,31.956,63.866,58.475,93.489,79.566
				c57.465,40.918,103.27,61.393,103.27,61.393c-1.046-55.355-11.025-314.467-12.684-333.143
				c-4.906-55.444-6.519-181.667-6.901-232.207c0.148,0.026,0.3,0.052,0.479,0.075c0.705-6.712,1.134-15.575,0.769-21.815
				c3.921-16.144-1.188-31.522,1.111-48.346c-0.508-0.094-1.015-0.213-1.523-0.318l0.013-0.373c0.004-0.911,0.086-1.906,0.09-2.899
				c2.38-109.478,6.591-223.176,10.611-324.779c0.093-2.399,0.179-4.805,0.266-7.208c-44.58-3.488-88.275,5.95-132.457,10.252
				c-1.907,0.246-3.731,0.406-5.639,0.568c-65.731,5.749-130.311,14.236-196.043,17.913c-8.867,0.561-17.736,0.957-26.689,1.271
				c-31.58,1.095-62.996,4.429-94.329,6.354c-26.274,1.603-52.634,2.213-79.146-0.412c-1.41-0.171-2.898-0.254-4.558-0.343
				C3806.961,3089.618,3776.214,3090.383,3744.146,3086.339z"/>
			<path id="_x31_80611682_1_" fill="#62D09F" stroke="#000000" d="M4297.717,3843.741c-6.721,39.591-22.735,80.981-29.988,121.005
				c57.469,40.918,103.271,61.394,103.271,61.394c-1.046-55.355-11.025-314.466-12.682-333.144
				c-5.882-66.45-7.028-234.612-7.001-252.232c-10.282-5.07-74.402-18.805-112.696-26.416
				c14.885,105.871,36.703,213.582,51.818,319.585C4296.029,3773.122,4304.453,3804.047,4297.717,3843.741z"/>
			<path id="_x31_80611681_1_" fill="#62D09F" stroke="#000000" d="M4205.511,3798.345c1.935,41.391,1.756,89.588,2.813,119.267
				c20.252,17.927,40.459,33.645,59.403,47.13c7.252-40.024,23.265-81.415,29.986-121.007c6.739-39.692-1.685-70.616-7.274-109.805
				c-15.117-106.004-36.935-213.713-51.818-319.584c-13.808-2.742-24.258-4.69-27.622-5.153c-23.233-3.19-48.853-6.729-75.633-9.633
				c5.206,31.436,19.514,131.738,31.833,193.139C4175.759,3635.382,4202.552,3734.963,4205.511,3798.345z"/>
			<path id="_x31_80611680_1_" fill="#62D09F" stroke="#000000" d="M3972.804,3397.26c-1.074,89.613,10.397,178.942,36.285,261.316
				c11.178,35.718,31.258,68.68,52.281,99.365c11.617,16.952,23.966,33.394,36.818,49.426c8.763,10.93,26,24.998,31.602,39.545
				c15.475,11.218,30.337,23.793,44.446,38.267c11.229,11.523,22.664,22.326,34.087,32.437
				c-1.059-29.678-0.879-77.875-2.814-119.266c-2.957-63.386-29.75-162.968-38.311-205.651
				c-12.319-61.4-26.631-161.704-31.835-193.139C4082.633,3393.838,4025.377,3390.569,3972.804,3397.26z"/>
			<path id="_x31_80611679_1_" fill="#62D09F" stroke="#000000" d="M3795.637,3513.192c-0.159,4.959,20.926,65.454,29.888,89.852
				c17.382,47.283,36.743,88.929,69.044,119.212c19.537,18.296,45.6,30.647,73.686,42.704
				c57.329,24.608,112.534,46.432,161.538,81.952c-5.602-14.547-22.839-28.615-31.602-39.545
				c-12.854-16.032-25.203-32.474-36.818-49.426c-21.023-30.686-41.105-63.647-52.281-99.365
				c-25.886-82.374-37.359-171.703-36.285-261.315c-32.621,4.152-63.446,12.134-90.254,25.751
				C3861.861,3433.521,3796.207,3495.249,3795.637,3513.192z"/>
			<path id="_x31_80611723_1_" fill="#A4DAA4" stroke="#000000" d="M4230.772,3065.38c44.182-4.303,87.878-13.741,132.458-10.252
				c-0.087,2.402-0.175,4.807-0.266,7.21c-4.021,101.6-8.233,215.3-10.611,324.776c-0.004,0.996-0.086,1.99-0.09,2.9l-0.881,25.856
				c-13.991-6.91-127.652-29.77-140.334-31.536c-14.25-1.934-28.582-3.703-42.919-5.225
				c-68.186-132.914-3.599-183.833,54.564-296.76C4225.606,3076.806,4228.271,3071.093,4230.772,3065.38z"/>
			<path id="_x31_80611722_1_" fill="#A4DAA4" stroke="#000000" d="M4225.134,3065.946c1.906-0.162,3.729-0.324,5.638-0.568
				c-2.499,5.713-5.165,11.427-8.077,16.972c-58.161,112.928-122.748,163.847-54.563,296.759
				c-64.214-6.93-129.849-9.384-194.839-2.888c3.521-101.022,22.877-201.679,55.798-292.361
				C4094.821,3080.184,4159.399,3071.695,4225.134,3065.946z"/>
			<path id="_x31_80611724_1_" fill="#A4DAA4" stroke="#000000" d="M3824.361,3090.731c1.657,0.088,3.147,0.173,4.558,0.343
				c26.515,2.624,52.872,2.014,79.146,0.411c31.333-1.925,62.751-5.26,94.329-6.353c8.951-0.314,17.819-0.71,26.688-1.271
				c-32.921,90.683-52.276,191.34-55.798,292.361c-20.059,1.945-40.122,4.807-60.02,8.578
				c-31.093,5.986-97.96,38.503-129.297,82.777c-6.74-25.621-13.766-76.11-18.154-119.299c-0.081-0.249-0.082-0.496-0.077-0.663
				c-2.108-24.038-3.465-48.076-4.66-72.195c-0.446-25.361-1.654-41.69-3.019-64.154c-0.236-4.229-0.479-8.621-0.719-13.346
				c-0.156-2.485-0.234-4.973-0.395-7.377c-0.165-2.486-0.24-5.137-0.398-7.876c-0.082-1.406-0.158-3.064-0.322-4.806
				c0-0.996-0.08-1.99-0.16-2.903c-0.961-16.411-2.25-32.823-4.457-49.072c0.001-0.166,0.004-0.331,0.003-0.498
				c-0.161-2.153-0.242-4.145-0.323-5.883c-0.233-5.886-1.22-10.114-3.281-15.92c0-0.085,0-0.085,0-0.085
				c-1.064-5.802-2.378-11.523-3.86-17.163C3776.214,3090.383,3806.961,3089.618,3824.361,3090.731z"/>
			<path id="_x31_80611685_1_" fill="#6ACBBA" stroke="#000000" d="M1130.946,4464.649c4.295,22.883,71.537,281.475,77.174,298.484
				c39.802,120.237,98.65,235.61,172.002,338.741c44.717,62.882,118.749,125.765,201.578,191.532
				c-21.486-17.51-36.168-29.565-36.168-29.565s25.613-19.7,63.617-33.022c47-16.48,170.405,66.659,219.362,127.529
				c26.884,33.426,215.511,203.239,46.597,182.427c0,0-2.109-2.081-5.816-5.701c71.234,76.663,72.746,130.907,132.459,213.513
				c0,0,86.781-82.587,196.464-154.658c25.49-16.751,52.727-33.033,80.342-48.697c-7.425-13.244-17.026-24.679-27.879-36.445
				c-33.597-36.42-62.857-74.809-94.248-113.467c-41.147-50.668-79.034-99.371-133.737-136.133
				c-71.112-47.785-124.422-153.289-212.924-169.657c-62.713-11.6-124.234-10.601-182.209-41.401
				c-18.07-9.604-35.099-20.882-51.018-33.552c-73.902-58.79-104.485-132.025-136.452-216.859
				c-31.932-84.758-77.437-170.989-68.518-264.392c2.349-24.604,3.083-51.941,3.853-76.979c-36.77-2.171-73.146-9.666-109.965-11.8
				C1226.701,4442.291,1130.942,4464.646,1130.946,4464.649z"/>
			<path id="_x31_80611684_1_" fill="#6ACBBA" stroke="#000000" d="M2278.545,5545.226c32.913-18.668,66.359-36.454,98.02-53.102
				c-33.466-37.881-37.963-99.022-63.626-140.99c-36.75-60.098-81.644-108.987-108.541-175.782
				c-26.223-65.116-68.407-137.164-111.983-192.484c-61.692-78.329-153.122-117.073-251.701-127.236
				c-47.376-4.896-105.645,8.312-150.057-13.167c-49.84-24.112-47.766-83.485-55.237-129.785
				c-8.997-55.67-44.068-108.602-76.4-153.591c-19.714-27.436-37.255-56.418-62.676-79.103c-9.55-8.525-19.9-14.761-30.555-20.279
				c-28.816-0.626-57.461-1.813-85.718-3.116c-1.551-0.074-3.103-0.155-4.647-0.247c-0.77,25.039-1.506,52.373-3.854,76.979
				c-8.917,93.402,36.586,179.633,68.518,264.39c31.969,84.838,62.55,158.071,136.452,216.861
				c15.918,12.668,32.947,23.947,51.017,33.552c57.976,30.801,119.497,29.806,182.21,41.401
				c88.504,16.368,141.813,121.872,212.923,169.657c54.708,36.762,92.593,85.463,133.738,136.131
				c31.391,38.658,60.651,77.049,94.248,113.469C2261.526,5520.549,2271.128,5531.982,2278.545,5545.226z"/>
			<path id="_x31_80611683_1_" fill="#6ACBBA" stroke="#000000" d="M2312.952,5351.136c25.661,41.963,30.158,103.11,63.624,140.992
				c5.003-2.631,9.961-5.232,14.858-7.804c41.168-21.595,199.823-96.196,230.566-123.312c-28.902-19.731-53.24-55.145-81.253-78.253
				c-59.35-48.954-121.688-78.48-167.204-142.999c-39.667-56.234-63.454-122.251-101.637-179.457
				c-21.248-31.844-45.376-60.884-77.5-82.397c-93.475-62.614-226.093-100.547-283.871-202.46
				c-42.752-75.413-9.316-147.983,34.641-211.265c18.099-26.073,80.122-116.876,34.781-145.772
				c-53.9-34.332-170.884,93.758-221.158,109.55c-93.565,29.386-194.271,33.891-293.004,31.749
				c10.652,5.518,21.001,11.755,30.555,20.281c25.421,22.685,42.958,51.667,62.674,79.104c32.332,44.989,67.403,97.921,76.4,153.591
				c7.472,46.299,5.396,105.67,55.239,129.783c44.414,21.482,102.679,8.272,150.057,13.167
				c98.577,10.163,190.008,48.908,251.701,127.237c43.576,55.319,85.759,127.372,111.981,192.487
				C2231.301,5242.148,2276.196,5291.041,2312.952,5351.136z"/>
			<path id="_x31_80611670_1_" fill="#8ADA87" stroke="#000000" d="M1984.695,3500.587c22.4-52.663,53.255-102.658,93.12-144.098
				c1.998-2.152,4.071-4.303,6.152-6.371c15.11-15.051,36.764-25.367,54.691-36.602c23.898-14.951,48.623-29.073,71.449-45.684
				c6.889-5.041,13.615-10.33,20.832-15.041c-6.573,14.905-10.749,29.896-15.178,45.55c-2.42,8.613-4.596,17.313-6.434,26.011
				c-0.668,2.813-1.255,5.631-1.757,8.449c-17.161,82.012-11.112,164.654,35.225,241.742c2.144,3.486,4.292,6.971,6.522,10.374
				c48.748,74.605,125.766,62.666,151.604,152.975c12.998,45.526,17.113,100.984,16.327,160.154
				c-0.003,1.492-0.009,2.985-0.095,4.476c-0.273,13.012-0.717,25.94-1.321,38.784c-0.343,6.381-0.688,12.762-1.034,19.226
				c-0.515,8.45-1.115,16.902-1.793,25.438c-0.171,1.823-0.258,3.729-0.425,5.634c-3.911,46.234-9.893,92.14-14.296,138.46
				c-5.225,43.749-10.283,85.097-13.59,121.389c-53.981-25.967-117.17-10.601-174.504-19.171c-0.082,0.001-0.164,0.002-0.248-0.001
				c-53.189-7.98-111.507-21.112-155.034-54.936c-10.838-8.475-21.841-18.776-30.354-29.814c-0.579-0.582-1.077-1.245-1.567-1.912
				c-27.771-37.269-39.696-82.128-45.327-128.139c-3.909-30.921-5.003-62.333-6.27-92.257
				c-5.137-121.675-34.088-229.057-11.641-343.306C1964.944,3555.331,1972.952,3528.242,1984.695,3500.587z"/>
			<path id="_x31_80611671_1_" fill="#A0EE9D" stroke="#000000" d="M2349.043,4260.991c7.945,2.174,32.434,26.758,31.676,32.144
				c-0.592,5.302-1.267,10.686-2.024,16.236c-3.033,23.945-6.652,50.876-8.873,83.688c-0.086,2.16-0.26,4.396-0.428,6.632
				c-2.728,35.883-2.72,71.932-0.636,107.738c2.243,36.804,5.067,73.69,10.379,110.172c2.126,14.754-2.308,32.813,6.204,45.84
				c12.973,19.834,39.646,25.775,57.854,39.652c32.021,24.349,50.738,69.309,69.151,103.99
				c20.724,38.91,39.623,78.647,58.188,118.631c16.503,35.512,23.888,71.161,30.354,109.963
				c6.141,36.562,12.447,73.124,18.092,109.768c3.189,20.813,6.209,41.7,8.821,62.591c1.385,11.192,16.565,124.603,10.998,131.716
				c-37.22-36.877-75.36-70.436-117.31-101.934c-11.508-8.645-115.918-95.465-126.332-110.984
				c-32.389-48.051-56.238-97.497-83.078-144.13c-34.352-60.075-73.522-115.599-141.893-157.762
				c-60.179-37.087-131.155-61.187-186.093-106.302c-132.05-108.343-11.145-221.391,36.913-336.573
				c20.238-48.524,56.114-82.68,99.586-104.137C2188.459,4244.174,2274.823,4240.953,2349.043,4260.991z"/>
			<path id="_x31_80611667_1_" fill="#98D6F9" stroke="#000000" d="M2424.952,4663.61c8.771,4.19,17.216,9.921,25.162,15.529
				c16.812,11.874,26.922,29.35,38.023,46.181c9.672,14.67,25.663,37.443,45.544,36.904c18.398-0.506,36.908-22.974,48.958-34.979
				c52.937-52.716,244.929-219.115,369.434-307.95c89.769-64.059,271.82-190.063,363.099-247.888
				c91.29-57.824,330.2-210.925,330.2-210.925c-23.049-193.139-45.831-387.325-108.957-571.816
				c-35.184-102.831-84.359-192.397-146.569-263.438c-35.296-40.308-50.98-62.264-122.729-101.087
				c-132.001-71.422-193.173-107.438-280.21-101.403c-24.708,1.714-47.353,10.122-71.313,15.918
				c-39.229,9.499-81.35,30.186-116.145,51.584c-29.706,18.267-64.303,44.512-93.595,70.332
				c-11.711,10.335-23.17,20.981-34.278,31.968C2559.883,3203,2469.862,3285.5,2443.12,3384.344
				c-26.756,98.835,5.089,209.969,10.308,359.165c5.236,149.604-20.364,317.889-36.952,502.714
				c-12.782,142.362-15.971,290.008-19.817,410.201C2396.737,4653.916,2422.886,4662.632,2424.952,4663.61z"/>
			<path id="_x31_80611668_1_" fill="#80CDF8" stroke="#000000" d="M2593.083,4913.725c30.271,70.499,42.861,161.372,57.42,238.049
				c20.305,106.981,1.176,231.868,37.138,335.163c37.729,108.4,153.406,116.912,241.205,161.758
				c65.352,33.39,91.952,117.299,159.275,149.892c117.911,57.095,338.733-36.994,406.687-68.182
				c169.324-77.721,293.903-217.917,409.122-360.689c134.894-167.135,232.461-277.265,196.472-506.69
				c-19.092-121.631-102.673-260.897-186.94-447.963c-61.812-137.208-114.805-274.202-146.395-344.246
				c-15.43-34.203-70.376-94.23-112.353-73.478c-105.161,52.31-269.984,156.353-328.531,193.442
				c-91.281,57.821-273.336,183.829-363.1,247.882c-124.469,88.813-310.333,262.055-369.391,307.927
				C2530.282,4795.861,2568.415,4856.289,2593.083,4913.725z"/>
			<path id="_x31_80611675_1_" fill="#80CDF8" stroke="#000000" d="M2935.244,6436.504c41.733,11.917,83.039,21.185,123.772,27.465
				c6.5-2.546,12.119-6.197,16.479-11.14c10.252-11.622,13.586-30.354,5.237-58.46c-13.257-44.642-60.209-77.891-107.025-73.03
				C2916.33,6327.297,2886.067,6398.03,2935.244,6436.504z"/>
			<path id="_x31_80611676_1_" fill="#80CDF8" stroke="#000000" d="M3379.9,6341.693c6.112,9.226,14.279,16.962,24.639,22.368
				c43.141,22.49,72.729-16.448,82.212-62.655c10.433-50.828-3.471-110.454-50.45-106.772
				C3373.356,6199.56,3347.05,6292.131,3379.9,6341.693z"/>
			<path id="_x31_80611677_1_" fill="#80CDF8" stroke="#000000" d="M3734.957,6190.811c2.21,2.99,4.501,5.737,6.865,8.204
				c11.616,12.094,26.131,16.359,42.104,6.813c45.666-27.304,42.357-79.862,21.683-121.085
				c-24.684-49.216-74.134-82.274-94.577-36.862C3694.202,6085.265,3708.714,6155.273,3734.957,6190.811z"/>
			<path id="_x31_80611678_1_" fill="#80CDF8" stroke="#000000" d="M4142.652,5655.704
				c52.941-135.57,88.943-235.244,112.768-315.941c-26.837-16.887-53.912-37.41-77.889-58.157
				c-7.185-6.219-16.824-16.314-27.152-28.062c-60.634,10.887-66.879,66.956-61.803,125.684c0.328-0.625,0.67-1.25,1.029-1.864
				c-0.357,0.616-0.696,1.237-1.029,1.864c4.208,48.724,16.207,99.277,11.397,127.374c-4.899,28.608-11.334,57.736-11.721,86.934
				c0.505-0.432,1.014-0.862,1.521-1.291c-0.507,0.427-1.016,0.859-1.521,1.291c-0.058,4.266,0.013,8.526,0.237,12.788
				C4091.032,5654.629,4106.736,5656.67,4142.652,5655.704z"/>
			<path id="_x31_80611674_1_" fill="#80CDF8" stroke="#000000" d="M2014.827,5770.351
				c121.936,169.123,295.577,348.698,428.01,431.85c164.875,103.519,331.792,188.443,492.405,234.306
				c-49.179-38.473-18.914-109.207,38.463-115.167c46.818-4.858,93.769,28.391,107.027,73.032
				c8.347,28.104,5.015,46.838-5.237,58.46c-4.361,4.94-9.979,8.594-16.479,11.14c48.075,7.412,95.36,10.673,141.6,9.147
				c238.507-7.881,519.861-133.977,684.393-313.53c58.532-63.9,111.881-140.677,144.162-220.228
				c44.496-109.635,81.986-202.999,113.481-283.652c-35.918,0.964-51.624-1.078-54.164-49.385c-0.225-4.26-0.293-8.521-0.237-12.784
				c-38.284,32.769-70.985,78.89-90.406,127.279c-18.817,46.933-23.375,97.898-48.604,142.731
				c-39.317,69.864-90.346,132.134-131.753,200.66c-3.936,6.517-7.878,13.409-11.877,20.532
				c20.677,41.223,23.983,93.779-21.683,121.085c-15.975,9.547-30.489,5.281-42.104-6.813c-2.362-2.467-4.653-5.214-6.865-8.204
				c-10.073,9.96-21.065,18.423-33.252,24.624c-34.481,17.549-75.792,22.291-111.456,38.022
				c-35.8,15.785-69.894,32.646-103.502,47.951c-9.481,46.203-39.071,85.144-82.212,62.653
				c-10.359-5.402-18.528-13.141-24.639-22.366c-60.644,16.09-123.888,18.272-196.729-8.501
				c-94.636-34.793-193.826-59.82-282.73-108.605c-21.424-11.756-35.619-30.824-54.746-43.18
				c-18.047-11.658-42.68-14.154-62.872-20.845c-76.673-25.417-158.354-44.28-225.71-93.035
				c-69.29-50.157-124.719-116.315-191.537-169.375c-76.976-61.128-190.584-124.394-212.297-229.931
				C2090.503,5713.138,2031.405,5756.41,2014.827,5770.351z"/>
			<path id="_x31_80611673_1_" fill="#80CDF8" stroke="#000000" d="M4088.245,5593.528c0.389-29.197,6.82-58.326,11.721-86.936
				c4.81-28.098-7.189-78.652-11.396-127.372c-1.646,3.104-3.049,6.334-4.954,9.325c-1.7,2.681-3.574,5.244-5.557,7.723
				c0.03,0.097,0.059,0.193,0.088,0.287l-0.205-0.139c-0.789,0.977-1.591,1.936-2.406,2.883
				c-10.137,11.782-22.214,21.52-34.087,31.463c-11.751,9.843-23.575,19.936-32.691,32.366
				c-23.319,31.801-38.623,69.026-64.066,99.358c-14.49,17.272-29.25,33.497-42.061,51.245
				c-26.771,37.093-56.42,74.232-72.006,117.666c-15.641,43.592-27.206,89.544-46.181,132.575
				c-20.98,47.57-75.777,92.92-108.338,133.621c-25.877,32.344-48.593,69.1-83.279,92.876
				c-102.98,70.58-277.788,78.238-399.771,84.702c-93.533,4.951-193.448-51.102-250.539-122.216
				c-47.571-59.228-103.668-82.31-177.553-89.79c-119.582-12.109-233.439-71.117-331.781-137.104
				c-43.762-29.358-94.295-47.245-137.632-77.635c-40.259-28.236-70.34-82.863-119.616-96.378
				c-7.559,5.384-15.138,10.788-22.658,16.173c21.715,105.539,135.323,168.803,212.297,229.933
				c66.822,53.056,122.249,119.216,191.539,169.375c67.355,48.755,149.037,67.618,225.71,93.035
				c20.192,6.692,44.823,9.185,62.872,20.843c19.125,12.354,33.32,31.424,54.746,43.18c88.902,48.785,188.093,73.814,282.73,108.605
				c72.838,26.773,136.082,24.591,196.729,8.501c-32.851-49.564-6.544-142.134,56.4-147.062
				c46.974-3.68,60.881,55.944,50.448,106.772c33.61-15.304,67.704-32.162,103.504-47.949
				c35.664-15.733,76.975-20.474,111.454-38.022c12.188-6.203,23.181-14.666,33.252-24.624
				c-26.244-35.535-40.756-105.544-23.928-142.933c20.443-45.412,69.894-12.354,94.581,36.864
				c3.999-7.127,7.939-14.018,11.876-20.534c41.406-68.524,92.436-130.794,131.754-200.658
				c25.229-44.833,29.785-95.801,48.606-142.733C4017.268,5672.429,4049.969,5626.306,4088.245,5593.528z"/>
			<path id="_x31_80611672_1_" fill="#80CDF8" stroke="#000000" d="M4055.547,5381.046c-0.04-0.018-0.081-0.034-0.122-0.053
				c-5.481-0.966-11.279-2.023-16.124,1.48c-11.188,8.1-18.809,21.458-26.174,32.844c-11.098,17.154-20.16,35.495-31.007,52.79
				c-79.267,126.395-170.929,242.346-255.309,365.752c-109.498,160.144-280.981,292.876-516.354,269.713
				c-135.201-13.303-243.305-104.013-367.43-149.548c-48.438-17.781-102.047-23.818-148.554-46.467
				c-49.069-23.894-79.652-73.806-99.408-121.615c-35.155-85.062-124.367-74.962-203.989-90.428
				c-28.326-5.507-108.567-27.766-119.428-62.202c-6.492-20.62,69.75-73.966,60.316-87.852
				c-1.338-1.949-73.038,47.612-148.401,101.173c-2.542,1.803-5.085,3.612-7.63,5.425c49.278,13.513,79.359,68.142,119.623,96.38
				c43.332,30.388,93.867,48.271,137.63,77.635c98.341,65.988,212.192,124.992,331.782,137.105
				c73.884,7.477,129.98,30.557,177.547,89.788c57.097,71.114,157.01,127.167,250.544,122.214
				c121.982-6.464,296.785-14.122,399.769-84.698c34.688-23.78,57.4-60.538,83.278-92.878
				c32.562-40.703,87.359-86.051,108.34-133.623c18.973-43.027,30.538-88.981,46.179-132.571
				c15.587-43.436,45.239-80.577,72.006-117.668c12.811-17.751,27.571-33.973,42.061-51.247
				c25.443-30.332,40.749-67.558,64.067-99.359c9.116-12.43,20.941-22.521,32.692-32.364c11.871-9.942,23.948-19.682,34.088-31.462
				c0.817-0.949,1.62-1.909,2.403-2.885L4055.547,5381.046z"/>
			<path id="_x31_80611669_1_" fill="#90CBED" stroke="#000000" d="M4378.262,4088.652c-0.297,140.894-1.879,911.656,1.557,960.771
				c-59.604-0.649-128.002,258.573-116.749,264.81c-0.016-0.01-166.164-92.114-146.631-188.758
				c13.24-65.493,28.03-198.853-7.587-339.819c-19.885-78.709-107.802-250.456-184.249-414.771
				c-21.946-47.18-41.661-95.332-60.091-143.982c-17.251-45.538-36.396-89.824-52.654-135.792
				c-7.488-21.186-14.847-42.425-21.908-63.757c-26.771-80.861-54.441-139.615-32.74-203.117
				c7.584-22.179,18.731-39.664,32.594-58.387c7.951-10.738,25.91-35.73,42.19-33.322c0.231,0.032,36.783,5.115,99.364,44.412
				c66.222,41.575,146.291,58.314,229,138.605C4191.711,3945.968,4299.626,4038.76,4378.262,4088.652z"/>
			<path id="_x31_80611666_1_" fill="#A2B1D8" stroke="#000000" d="M2305.239,5609.337
				c-56.645,95.838,266.168,27.289,318.709,178.846c17.018,49.066,59.317,81.372,107.519,107.957
				c38.264,21.112,91.8,28.091,134.591,41.722c52.802,16.813,100.041,53.796,151.099,74.901
				c109.526,45.266,198.884,78.442,318.961,58.669c129.563-21.345,243.532-82.473,315.331-187.9
				c90.714-133.183,205.55-256.878,296.525-390.416c29.572-43.417,131.94-124.446,79.673-182.743
				c-55.82-62.249-108.396,103.413-151.546,144.73c-53.98,51.688-152.021,157.609-209.674,196.402
				c-121.727,81.919-166.357,137.119-313.209,167.187c-120.223,24.615-264.047,40.016-298.35-6.834
				c-31.982-43.684-78.036-98.338-121.968-132.858c-37.936-29.796-109.639-46.906-163.524-79.067
				c-67.516-40.302-114.551-98.857-117.739-174.287c-3.956-93.245-60.98,4.026-137.876,40.118
				C2458.652,5491.634,2335.378,5558.335,2305.239,5609.337z"/>
			<path id="_x31_80611735_1_" fill="#CCCCCC" stroke="#000000" d="M3204.972,2466.292c62.418-5.424,120.086,1.16,169.604,22.813
				c11.593,5.075,22.688,10.652,33.448,17.057c24.832,14.39,47.588,32.421,69.341,54.927c26.546,27.487,51.506,61.848,76.859,105.08
				c9.661,16.432,19.324,34.188,29.149,53.353c74.619,145.355,108.321,199.298,156.74,352.555c1.484,4.728,2.881,9.455,4.029,14.264
				c-0.993-0.085-1.902-0.252-2.896-0.337c2.965,7.629,5.108,13.023,6.757,17.5c0,0,0,0,0,0.083
				c1.394,7.212,2.623,14.509,3.604,21.805c-0.001,0.166-0.003,0.332-0.003,0.498c0.969,13.761,3.327,34.899,4.459,49.07
				c0.08,0.916,0.16,1.908,0.159,2.904c0.243,4.227,0.477,8.455,0.72,12.681c0.158,2.405,0.24,4.892,0.396,7.379
				c0.24,4.476,0.479,8.951,0.718,13.345c-0.002,0.662,0.08,1.409,0.081,2.07c1.117,20.724,1.985,41.445,2.938,62.084
				c0.158,3.065,0.152,6.298,0.228,9.697c0.218,13.757,1.915,36.799,4.432,62.498c-0.004,0.166-0.008,0.413,0.079,0.662
				c0.648,8.206,1.457,16.495,2.436,24.785c5.537,48.076,13.722,98.982,27.631,145.339c12.182,40.39,26.442,79.118,44.428,117.365
				c6.938,14.847,11.21,32.839,21.458,45.709c8.845,11.041-77.622,63.821-104.554,142.749
				c-21.683,63.523,5.965,122.259,32.731,203.121c53.867,162.633,159.398,390.516,138.011,393.955
				c-14.755,2.371-87.307-184.501-160.892-350.494c-18.062-40.811-64.058-43.311-72.342-85.098
				c-17.88-90.124-27.313-220.097-27.256-247.032c0.059-26.771-0.223-53.54-1.161-80.313
				c-3.215-90.346-13.801-180.451-41.805-266.786c-5.512-17.083-12.691-33.92-19.619-50.513c-3.302-7.879-4.941-16.336-8.158-24.133
				c-5.606-13.355-12.122-27.044-18.727-39.987c-25.675-50.857-59.721-98.252-97.01-141.177
				c-89.71-103.449-197.128-180.829-314.518-205.771c-193.435-41.008-355.432,24.546-494.871,162.5
				c-111.7,110.494-201.707,193.021-228.518,291.84c-26.723,98.817,5.124,209.938,10.367,359.127
				c5.249,149.61-20.379,317.964-37,502.749c-12.724,142.357-16.338,285.896-20.148,406.062
				c-16.616,19.273-15.006-36.997-19.196-55.32c-10.188-85.219-10.635-147.792-7.716-197.266c0.167-2.24,0.34-4.478,0.428-6.632
				c0.598-6.876,1.274-13.671,2.034-20.547c2.361-20.798,4.312-42.094,6.841-63.139c0.758-5.553,1.431-10.938,2.025-16.24
				c1.013-8.535,1.94-16.817,2.531-24.857c0.428-5.469,0.938-11.104,1.449-16.822c3.805-37.621,9.611-79.211,13.256-117.993
				c0.088-1.159,0.256-2.235,0.336-3.396c5.231-44.579,10.632-91.639,14.296-138.46c0.169-1.905,0.254-3.811,0.423-5.635
				c0.684-8.45,1.364-16.984,1.793-25.438c0.348-6.466,0.693-12.844,1.036-19.226c0.688-13.095,1.13-26.023,1.323-38.786
				c0.084-1.492,0.09-2.983,0.093-4.473c0.941-53.953-1.599-108.823-16.327-160.155c-25.836-90.308-102.855-78.368-151.604-152.975
				c-2.23-3.401-4.377-6.885-6.522-10.374c-33.786-56.84-46.988-123.83-42.213-189.709c1.278-17.484,3.557-34.884,6.988-52.033
				c0.502-2.817,1.171-5.634,1.757-8.45c20.24-88.722,66.747-176.478,117.717-255.188
				c67.847-104.783,181.419-241.214,332.245-355.688c47.479-36.037,97.692-70.08,149.223-100.724
				C2941.281,2533.545,3082.29,2476.816,3204.972,2466.292z"/>
			<path id="_x31_80611736_1_" fill="#CCCCCC" stroke="#000000" d="M3245.714,4695.474
				c-14.623,76.314-67.663,115.686-137.02,130.248c-68.396,14.361-157.578,57.689-225.957,59.62
				c2.205-66.296,71.885-273.278,164.404-343.611C3161.271,4454.958,3272.978,4553.255,3245.714,4695.474z"/>
			<path id="_x31_80611737_1_" fill="#CCCCCC" stroke="#000000" d="M1545.527,5263.836c0,0,14.679,12.054,36.167,29.565
				c50.576,40.162,104.426,81.398,156.895,124.376c0.004,0,0.008,0.004,0.008,0.004c17.015,12.127,42.098,34.066,66.134,56.095
				c14.586,12.898,28.892,25.957,42.803,39.208c7.928,7.548,15.133,14.862,21.755,21.985c3.705,3.623,5.814,5.7,5.814,5.7
				c168.916,20.814-19.711-148.999-46.595-182.425c-48.959-60.87-172.362-144.01-219.362-127.528
				C1571.142,5244.138,1545.527,5263.836,1545.527,5263.836z"/>
			<path id="_x31_80611734_1_" fill="#AAAAAA" stroke="#000000" d="M3669.578,3780.599c-7.104-112.735-1.222-234.974-32.541-346.299
				c-24.472-86.997-60.502-172.729-113.65-246.131c-66.387-91.669-157.604-175.908-264.007-226.943
				c-49.419-23.7-103.542-35.168-158.134-40.344c-17.482-1.661-35.466-2.986-53.033-2.338c-14.479,0.54-29.947,1.848-44.004,2.024
				c28.089-0.355,56.176,6.851,83.003,14.993c21.738,6.595,40.769,16.629,60.686,27.218c21.244,11.298,44.039,19.276,65.548,30.041
				c43.175,21.607,84.907,46.638,123.188,76.098c22.133,17.029,36.001,40.027,54.72,60.086
				c14.647,15.706,27.533,31.861,40.248,49.172c15.688,21.366,29.542,45.683,42.395,68.841
				c25.184,45.359,45.615,92.563,62.411,141.652c63.126,184.489,85.908,378.676,108.957,571.813
				c14.533,0.874,30.523,0.51,43.807-5.855C3681.218,3897.104,3673.548,3843.559,3669.578,3780.599z"/>
		</g>
	</g>
</g>
</svg>
