<?xml version="1.0" encoding="utf-8"?>
<!-- Generator: Adobe Illustrator 16.0.0, SVG Export Plug-In . SVG Version: 6.00 Build 0)  -->
<!DOCTYPE svg PUBLIC "-//W3C//DTD SVG 1.1//EN" "http://www.w3.org/Graphics/SVG/1.1/DTD/svg11.dtd">
<svg version="1.1" id="Layer_1" xmlns="http://www.w3.org/2000/svg" xmlns:xlink="http://www.w3.org/1999/xlink" x="0px" y="0px"
	 width="5840px" height="5296px" viewBox="0 0 5840 5296" enable-background="new 0 0 5840 5296" xml:space="preserve">
<g>
	<g transform="scale(1.0)">
		<g id="_x31_80609461" transform=" scale(1.0, 1.0)">
			<path id="_x31_80609463" fill="#BFDAE3" stroke="#000000" d="M4447.221,2719.434c25.82,30.747,56.936,61.757,82.012,93.128
				c34.293,42.893,59.869,89.627,82.479,138.782c36.213,78.717,56.273,161.963,61.275,248.435
				c2.791,48.339,0.838,97.383-4.955,145.454c-11.748,97.64-52.852,184.781-78.621,278.67
				c-25.369,92.518-53.125,168.684-104.119,251.905c-53.514,87.343-130.424,169.741-203.443,240.946
				c-111.945,109.146-257.393,216.967-394.752,291.998c-179.69,98.147-373.182,171.85-575.155,86.183
				c-111.204-47.16-217.855-115.938-290.151-214.467c-96.519-131.535-97.082-239.713-93.437-395.938
				c1.164-49.93,1.123-666.541,5.375-833.893c3.373-132.684,21.479-227.709,76.151-348.771
				c62.05-137.419,137.958-249.452,288.989-289.845c84.624-22.633,174.479-42.054,262.491-43.055
				c83.235-0.952,139.976,47.977,196.812-36.374c60.79-90.24,179.935-150.949,215.194-163.593
				c-21.719-4.155-84.641,7.932-124.887,19.083c-53.755,14.895-112.689,25.514-168.362,28.79
				c-124.564,7.326-251.971,1.266-376.775-0.193c-150.191-1.751-234.573-98.584-270.463-234.47
				c-30.354-114.938-51.643-233.152-58.936-351.915c-7.068-115.076,11.845-207.398,35.34-318.739
				c24.206-114.656,13.54-217.128,77.734-320.318c117.353-188.605,357.896-274.304,572.313-214.7
				c109.153,30.346,219.113,37.168,329.932,59.999c248.014,51.091,502.531,182.021,687.773,355.692
				c322.359,302.222,517.543,762.129,265.121,1172.608c-74.457,121.104-171.234,226.336-321.232,239.86
				c-81.25,7.324-255.131-23.037-295.041-145.375c23.58,72.296,49.947,142.301,87.611,208.724
				C4424.66,2687.729,4434.488,2704.254,4447.221,2719.434z"/>
			<path id="_x31_80609464" fill="#B0FFB8" stroke="#000000" d="M4677.035,1192.227
				c-185.242-173.671-439.762-304.603-687.773-355.693c-110.818-22.831-220.778-29.652-329.932-59.999
				c-214.418-59.603-454.962,26.095-572.313,214.701c-64.194,103.19-53.528,205.663-77.734,320.318
				c-23.495,111.341-42.408,203.663-35.34,318.738c7.293,118.764,28.58,236.979,58.936,351.915
				c35.89,135.886,120.271,232.718,270.463,234.47c124.806,1.459,252.211,7.521,376.775,0.193
				c55.673-3.275,114.607-13.895,168.362-28.79c40.246-11.149,103.168-23.237,124.887-19.083
				c-35.26,12.645-154.404,73.354-215.194,163.594c-56.836,84.351-113.574,35.422-196.812,36.373
				c-88.015,1.002-177.867,20.422-262.491,43.056c-151.031,40.392-226.939,152.426-288.989,289.845
				c-54.673,121.063-72.778,216.089-76.151,348.771c-4.252,167.353-4.211,783.963-5.375,833.893
				c-3.646,156.227-3.082,264.404,93.437,395.939c72.296,98.527,178.947,167.307,290.151,214.467
				c201.975,85.666,395.465,11.965,575.153-86.183c137.361-75.03,282.807-182.853,394.754-291.998
				c73.021-71.206,149.932-153.604,203.443-240.947c50.994-83.222,78.75-159.389,104.119-251.905
				c25.77-93.889,66.873-181.029,78.621-278.67c5.793-48.07,7.746-97.114,4.955-145.453
				c-5.002-86.473-25.063-169.719-61.275-248.436c-22.607-49.155-48.186-95.89-82.479-138.782
				c-25.076-31.371-56.191-62.381-82.012-93.128c-12.73-15.18-22.561-31.704-33.727-51.391
				c-37.664-66.423-64.031-136.429-87.611-208.724c39.91,122.338,213.791,152.699,295.041,145.375
				c149.998-13.524,246.775-118.757,321.232-239.86C5194.578,1954.355,4999.395,1494.448,4677.035,1192.227z M3804.478,3369.479
				c-11.069,20.195-63.638,150.328-97.896,134.675c-5.043-15.331-1.848-33.349-2.389-49.615
				c-1.815-54.544-16.258-96.719-32.5-148.004c-9.158-28.909-33.469-76.063-26.676-106.95c9.48-43.03,55.021,2.832,73.908,11.265
				c37.124,16.589,81.342,0.831,120.185,13.071C3889.287,3239.733,3816.727,3347.128,3804.478,3369.479z"/>
			<path id="_x31_80609486" fill="#1F9D5A" stroke="#000000" d="M4677.037,1192.204
				c322.313,302.237,517.553,762.119,265.139,1172.594c-74.443,121.125-170.947,230.106-321.238,239.855
				c-112.615,7.354-266.459-37.842-295.047-145.334c-10.576-39.742-24.869-81.797-44.203-120.796l5.701-2.728l-230.27-479.711
				c102.617,47.096,195.648,117.655,274.803,196.23c59.9,59.489,90.143,143.104,188.547,146.492
				c74.938,2.561,158.801-60.48,196.725-122.696c69.322-113.938,67.834-256.876,5.453-370.235
				c-63.123-114.847-96.586-200.857-195.732-300.006c-50.648-50.647-173.51-139.634-231.346-181.771
				c-87.086-63.538-204.738-118.399-307.109-153.516c-146.408-50.234-350.239-89.895-522.094-51.888l-75.602-244.565
				c87.002-22.061,180.036-22.226,268.607,2.396c109.146,30.323,219.035,37.181,329.916,59.985
				C4237.316,887.653,4491.797,1018.529,4677.037,1192.204z"/>
			<path id="_x31_80609485" fill="#1F9D5A" stroke="#000000" d="M4526.912,1405.868c99.146,99.148,132.609,185.16,195.732,300.006
				c62.381,113.359,63.869,256.297-5.453,370.235c-37.924,62.216-121.785,125.257-196.725,122.696
				c-98.404-3.389-128.646-87.003-188.547-146.492c-79.152-78.575-172.186-149.135-274.803-196.229l-120.301-250.681
				c103.197,9.501,205.98,36.603,292.65,92.373c180.861,116.5,192.182-77.997,96.422-184.499
				c-88.16-98.074-202.51-141.865-330.492-173.509c-153.266-37.842-290.504-109.724-456.08-97.331
				c-1.239,0.083-2.479,0.165-3.718,0.413l-69.238-224.158c171.855-38.007,375.688,1.653,522.095,51.888
				c102.369,35.115,220.023,89.978,307.107,153.516C4353.402,1266.235,4476.264,1355.221,4526.912,1405.868z"/>
			<path id="_x31_80609484" fill="#1F9D5A" stroke="#000000" d="M4325.891,1513.279c95.76,106.502,84.439,300.998-96.422,184.499
				c-86.67-55.771-189.453-82.872-292.648-92.373l-48.666-101.462l-0.166,0.083l-283.231-37.594l-1.073-3.471l-0.743-3.387
				l-0.248,0.165l-67.09-216.887c1.238-0.248,2.479-0.331,3.718-0.413c165.576-12.394,302.814,59.489,456.08,97.331
				C4123.381,1371.414,4237.73,1415.205,4325.891,1513.279z"/>
			<path id="_x31_80609498" fill="#2FA850" stroke="#000000" d="M3390.763,774.129l75.601,244.565
				c-86.424,19.004-164.751,57.672-223.661,124.514c-19.664,22.227-36.437,47.921-50.316,75.767l-155.166-94.688
				c8.675-44.865,22.391-88.902,49.82-133.023C3155.947,880.548,3267.24,805.36,3390.763,774.129z"/>
			<path id="_x31_80609497" fill="#2FA850" stroke="#000000" d="M3466.362,1018.694l69.238,224.158
				c-61.143,6.113-106.584,50.399-130.545,105.841l-212.672-129.719c13.881-27.846,30.652-53.541,50.316-75.767
				C3301.611,1076.366,3379.938,1037.698,3466.362,1018.694z"/>
			<path id="_x31_80609496" fill="#2FA850" stroke="#000000" d="M3602.691,1459.739l-7.023,5.288l-190.61-116.334
				c23.961-55.44,69.402-99.728,130.545-105.841L3602.691,1459.739z"/>
			<path id="_x31_80609489" fill="#248A5E" stroke="#000000" d="M4057.117,1856.085l230.27,479.711l-5.701,2.728
				c-19.332-38.916-43.707-74.774-74.359-102.123c-73.285-65.355-126.494-71.058-233.986-67.421
				c-45.195,1.57-84.605,7.932-124.844,19.086c-28.506,7.932-58.416,14.625-88.489,19.582l-0.084-0.33l-80.888-385.356
				c9.336-3.966,19.003-7.353,29.248-9.915c86.177-21.316,175.574-15.698,260.098,10.08
				C3998.621,1831.38,4028.283,1842.782,4057.117,1856.085z"/>
			<path id="_x31_80609488" fill="#248A5E" stroke="#000000" d="M3936.82,1605.405l120.299,250.68
				c-28.836-13.303-58.498-24.705-88.736-33.958c-84.523-25.779-173.923-31.396-260.099-10.08
				c-10.245,2.563-19.912,5.949-29.248,9.915l-43.295-206.063c63.372-2.479,127.983-12.89,182.351-14.211
				C3857.17,1600.695,3896.994,1601.77,3936.82,1605.405z"/>
			<path id="_x31_80609487" fill="#248A5E" stroke="#000000" d="M3606.325,1471.472l-1.569-5.04l283.232,37.594l0.166-0.083
				l48.664,101.462c-39.824-3.635-79.648-4.709-118.729-3.718c-54.366,1.321-118.979,11.732-182.351,14.211l-30.405-145.004
				L3606.325,1471.472z"/>
			<path id="_x31_80609495" fill="#248A5E" stroke="#000000" d="M3206.513,1756.193l-193.339,144.674
				c-19.829-89.068-33.627-179.624-39.246-270.592c-7.021-115.096,11.898-207.385,35.363-318.762
				c13.881-65.604,16.276-127.158,27.927-187.226l155.166,94.688c-51.722,102.782-65.603,235.725-47.591,339.995
				C3155.947,1623.582,3173.628,1696.043,3206.513,1756.193z"/>
			<path id="_x31_80609494" fill="#248A5E" stroke="#000000" d="M3448.433,1575.164l-241.92,181.028
				c-32.885-60.15-50.564-132.611-61.72-197.224c-18.012-104.271-4.131-237.212,47.591-339.995l212.672,129.719
				c-32.636,75.435-25.529,171.526,35.941,220.853C3443.476,1571.529,3445.954,1573.347,3448.433,1575.164z"/>
			<path id="_x31_80609493" fill="#248A5E" stroke="#000000" d="M3595.667,1465.027l-147.234,110.137
				c-2.479-1.818-4.957-3.635-7.436-5.619c-61.472-49.326-68.577-145.417-35.941-220.853L3595.667,1465.027z"/>
			<path id="_x31_80609492" fill="#248A5E" stroke="#000000" d="M3759.922,2207.317l0.083,0.33
				c-26.771,4.544-53.705,7.684-79.896,9.254c-124.515,7.271-252.001,1.239-376.763-0.248
				c-150.209-1.735-234.566-98.57-270.426-234.486c-7.104-26.936-13.715-54.036-19.747-81.301l193.339-144.674
				c35.775,65.603,89.646,116.747,172.848,127.571c61.638,8.097,126.166-0.083,186.812-12.312
				c42.468-8.593,74.443-33.38,112.863-49.492L3759.922,2207.317z"/>
			<path id="_x31_80609491" fill="#248A5E" stroke="#000000" d="M3635.739,1615.898l43.295,206.063
				c-38.42,16.112-70.396,40.899-112.863,49.492c-60.646,12.229-125.174,20.408-186.813,12.312
				c-83.2-10.824-137.07-61.969-172.847-127.571l241.92-181.028c20.573,14.79,43.708,24.705,68.329,31.066
				C3553.861,1615.898,3594.593,1617.551,3635.739,1615.898z"/>
			<path id="_x31_80609490" fill="#248A5E" stroke="#000000" d="M3605.334,1470.894l30.405,145.004
				c-41.146,1.651-81.879,0-118.979-9.667c-24.621-6.362-47.756-16.277-68.329-31.066l147.234-110.137L3605.334,1470.894z"/>
			<path id="_x31_80609465" fill="#9AD2BD" stroke="#000000" d="M4673.973,3228.438c-1.404-66.503-12.119-134.717-33.025-197.95
				c-7.398-22.392-15.418-44.563-24.254-66.43c-15.258-37.729-32.863-76.313-55.73-110.122
				c-10.666-15.782-22.625-30.54-34.84-45.128c-16.984-20.284-34.623-40.077-51.922-60.111
				c-11.922-13.812-25.063-26.718-40.455-36.294c3.143,1.148,6.27,2.302,9.383,3.438c-60.482-69.206-98.857-162.263-119.988-251.005
				c-19.051-80.029-57.207-168.229-118.563-222.918c-32.92-29.343-73.133-48.904-116.252-57.765
				c-37.221-7.648-93.516-21.765-129.961-8.862c-18.744,6.636-37.174,19.86-54.166,30.035
				c-60.006,35.91-108.056,74.66-149.094,131.439c-20.896,24.117-43.651,44.039-77.941,44.095
				c-60.436,0.101-120.337-8.839-181.037-4.356c-67.994,5.026-134.399,23.483-199.998,41.028
				c-151.037,40.393-226.939,152.427-288.987,289.837c-54.673,121.07-72.787,216.097-76.152,348.777
				c-4.26,167.354-19.711,345.132-4.292,511.678c5.535,59.773,7.562,115.027,2.761,173.752
				c-4.084,49.864,2.396,98.535,1.226,148.464c-3.646,156.228-8.147,264.403,88.368,395.939
				c72.296,98.527,178.947,167.305,290.142,214.467c201.982,85.665,395.47,11.966,575.158-86.182
				c39.924-21.812,77.072-48.154,116.617-70.514c19.994-11.313,56.021-48.984,72.215-54.398c-1.557,0.52-3.121,1.033-4.691,1.541
				c10.313-4.935,19.768-10.674,27.551-16.863c63.912-50.816,126.436-99.391,185.805-157.275
				c73.027-71.205,149.932-153.604,203.451-240.947c50.994-83.221,78.742-159.389,104.117-251.905
				c25.764-93.887,66.873-181.029,78.621-278.66C4672.688,3306.542,4674.795,3267.426,4673.973,3228.438z M3804.478,3369.479
				c-11.069,20.195-63.638,150.328-97.896,134.675c-5.043-15.331-1.848-33.349-2.389-49.615
				c-1.815-54.544-16.258-96.719-32.5-148.004c-9.158-28.909-33.469-76.063-26.676-106.95c9.48-43.03,55.021,2.832,73.908,11.265
				c37.124,16.589,81.342,0.831,120.185,13.071C3889.287,3239.733,3816.727,3347.128,3804.478,3369.479z"/>
			<path id="_x31_80609466" fill="#9AD2BD" stroke="#000000" d="M3616.881,2374.44c-39.036-5.596-78.71-6.351-118.005-3.45
				c-67.994,5.027-134.398,23.483-199.997,41.03c-151.038,40.392-226.938,152.426-288.987,289.845
				c-54.674,121.063-72.787,216.088-76.151,348.77c-4.261,167.354-4.212,783.965-5.382,833.895
				c-3.647,156.227-3.074,264.402,93.442,395.939c72.295,98.526,178.946,167.305,290.142,214.467
				c201.982,85.664,395.47,11.965,575.159-86.184l141.346-86.271c-194.164,39.246-223.083-318.101-276.788-485.412
				c-20.606-64.195-35.011-129.803-41.908-196.886c-2.389-23.157-3.85-46.396-4.946-69.642c-0.968-20.445-1.646-40.893-2.412-61.338
				c-0.604-16.412,2.565-32.711,1.969-49.203c-2.913-80.542-34.518-155.436-63.961-229.216
				c-7.415-18.591-14.838-37.205-21.485-56.086c-7.818-22.173-14.621-44.726-19.834-67.656
				c-6.873-30.241-11.666-60.967-14.088-91.896c-7.397-94.509,1.938-186.959,27.11-278.354
				c24.23-87.975,55.456-163.82,107.347-240.103c17.8-26.166,35.534-53.785,38.343-86.174c2.639-30.472-4.995-61.838,9.198-90.551
				C3728.931,2394.405,3672.273,2382.38,3616.881,2374.44z"/>
			<path id="_x31_80609467" fill="#82C7AE" stroke="#000000" d="M3243.513,2431.486
				c-115.697,53.854-182.627,157.457-233.621,270.379c-54.674,121.063-72.787,216.088-76.159,348.77
				c-4.244,167.354-4.204,783.965-5.374,833.895c-3.647,156.227-3.074,264.402,93.443,395.939
				c72.295,98.526,178.945,167.305,290.141,214.467c152.143,64.524,311.941,35.26,458.97-27.838
				c28.272-12.136,59.701-24.771,85.166-42.224c19.615-13.442,26.967-26.918-4.373-23.778c-41.837,4.195-84.061,21.705-124.17,33.47
				c-38.891,11.399-79.428,20.543-119.634,25.69c-69.955,8.947-143.389,2-204.523-35.647c-29.33-18.058-54.068-42.306-74.571-69.851
				c-18.735-25.176-45.936-60.791-54.188-91.371c-12.199-45.176-2.984-93.402-33.849-132.834
				c-17.218-21.987-27.909-31.938-34.437-60.5c-7.479-32.768-16-64.203-30.888-94.518
				c-37.552-76.443-100.237-146.818-85.648-238.607c7.778-48.889,0.983-96.131-4.761-145.066
				c-5.754-48.945-16.929-97.422-17.742-146.852c-0.751-44.942,18.404-88.627,19.26-134.238c0.557-29.879,2.533-61.79-2.574-91.258
				c-5.865-33.896-23.771-65.22-31.396-98.842c-7.947-35.043-0.79-77.186,6.857-111.856c6.326-28.7,21.834-51.833,34.454-77.871
				c13.645-28.136,19.019-57.304,21.986-88.19c6.286-65.396,25.376-125.057,45.911-187.146
				c16.969-51.294,24.237-112.383,63.483-152.314c22.777-23.173,51.865-40.707,71.827-66.667
				c9.858-12.825,8.012-18.065,0.879-19.216C3283.984,2415.15,3249.636,2428.638,3243.513,2431.486z"/>
			<path id="_x31_80609471" fill="#82C7AE" stroke="#000000" d="M3751.659,3837.068c-10.787-33.6-20.01-67.624-27.32-102.15
				c-10.73-50.711-15.686-101.866-18.992-153.515c-1.591-24.844-2.356-49.833-3.414-74.7c-1.259-29.66,2.162-57.868-1.477-87.328
				c-8.956-72.488-36.311-132.729-65.688-198.61c-16.34-36.632-29.209-74.789-37.906-113.946
				c-7.487-33.711-12.03-68.075-13.071-102.602c-2.751-90.902,4.075-179.416,28.313-267.422
				c18.228-66.172,44.691-144.398,81.672-202.599c10.358-16.299,46.7-56.142,23.986-76.467
				c-24.085-21.551-77.096,0.646-102.892,9.247c-45.111,15.048-84.882,37.479-119.73,70.093
				c-30.258,28.313-54.472,62.501-73.73,99.116c-104.9,199.363-130.712,420.059-102.425,641.254
				c10.144,79.331,32.05,154.822,46.848,232.145c22.365,116.893,48.429,233.09,80.792,347.642
				c17.751,62.831,37.454,125.13,59.651,186.541c20.033,55.424,43.644,110.121,76.78,159.082
				c28.62,42.28,74.976,98.043,132.312,93.733c60.038-4.511,87.561-66.775,91.725-118.893c5.212-65.26,2.178-116.173-14.33-178.107
				C3778.312,3945.398,3768.813,3890.491,3751.659,3837.068z"/>
			<path id="_x31_80609470" fill="#9AD2BD" stroke="#000000" d="M3523.89,2492.966c-106.28,57.336-164.182,148.834-185.909,267.228
				c-9.481,51.664-22.157,101.013-44.821,147.988c-22.811,47.259-22.02,113.535-23.973,165.385
				c-3.493,92.612,14.572,187.88,31.04,278.379c16.711,91.854,33.622,183.684,52.229,275.175
				c17.438,85.746,29.347,181.394,63.904,261.548c19.815,45.942,33.274,97.002,46.467,145.357
				c11.798,43.24,27.556,81.736,43.03,123.186c14.71,39.383,25.667,81.106,48.84,116.682c11.524,17.693,44.823,34.205,60.797,55.438
				l60.886-38.897c-39.41-15.334-71.515-55.37-93.32-87.584c-33.138-48.961-56.747-103.658-76.781-159.082
				c-22.196-61.411-41.899-123.71-59.651-186.541c-32.362-114.552-58.426-230.749-80.791-347.642
				c-14.799-77.321-36.705-152.813-46.848-232.145c-28.288-221.195-2.477-441.891,102.424-641.254
				c19.261-36.615,43.475-70.803,73.731-99.116c34.849-32.613,74.619-55.044,119.729-70.093c3.826-1.274,8.254-2.851,13.095-4.538
				l-47.893,2.661C3563.379,2477.489,3541.865,2483.263,3523.89,2492.966z"/>
			<path id="_x31_80609469" fill="#82C7AE" stroke="#000000" d="M3588.399,2457.886c-89.021,18.466-162.858,64.474-217.273,138.293
				c-60.99,82.738-63.152,194.144-96.437,288.417c-29.749,84.278-42.724,174.494-37.236,263.728
				c4.801,78.063,16.307,155.532,31.209,232.267c13.022,67.066,20.253,135.069,32.089,202.33
				c11.998,68.164,37.102,127.382,57.691,191.972c22.624,71.053,41.149,145.39,59.684,217.692
				c21.196,82.737,38.729,169.403,76.717,246.564c20.164,40.948,52.947,80.162,92,104.667c11.077,6.955,22.938,18.22,36.342,16.799
				c9.884-38.213-51.891-61.241-68.487-86.724c-23.173-35.574-34.13-77.297-48.84-116.682
				c-15.477-41.448-31.233-79.943-43.03-123.186c-13.191-48.354-26.65-99.414-46.467-145.357
				c-34.56-80.154-46.469-175.801-63.904-261.547c-18.605-91.491-35.518-183.321-52.229-275.175
				c-16.469-90.499-34.533-185.768-31.041-278.379c1.953-51.851,1.162-118.126,23.974-165.386
				c22.664-46.976,35.34-96.323,44.821-147.987c21.729-118.394,79.629-209.893,185.909-267.229
				C3545.029,2481.557,3571.067,2475.585,3588.399,2457.886z"/>
			<path id="_x31_80609468" fill="#9AD2BD" stroke="#000000" d="M3798.993,4025.404c10.963,50.878,12.569,96.307,8.1,152.284
				c-4.164,52.116-31.688,114.382-91.726,118.894c-13.649,1.024-26.677-1.358-38.99-6.15l-60.885,38.898
				c7.032,9.347,10.712,19.604,7.69,31.285c-13.402,1.42-25.265-9.845-36.343-16.799c-39.052-24.506-71.835-63.72-91.999-104.668
				c-37.986-77.16-55.521-163.826-76.717-246.563c-18.533-72.304-37.061-146.642-59.684-217.692
				c-20.592-64.591-45.693-123.808-57.691-191.972c-11.836-67.261-19.064-135.264-32.089-202.331
				c-14.902-76.732-26.408-154.201-31.209-232.266c-5.487-89.232,7.487-179.448,37.235-263.728
				c33.283-94.273,35.445-205.679,96.438-288.417c54.415-73.819,128.252-119.827,217.273-138.293
				c-2.595,2.649-5.388,5.031-8.325,7.212l47.892-2.66c27.794-9.687,69.285-23.063,89.799-4.709
				c13.228,11.836,6.426,30.293-3.608,46.863c1.743-2.633,3.504-5.266,5.295-7.898c17.8-26.167,35.535-53.786,38.343-86.174
				c2.639-30.473-4.995-61.838,9.198-90.552c-38.06,74.438-94.718,62.412-150.108,54.472c-39.036-5.596-78.711-6.35-118.006-3.449
				c-67.993,5.027-134.398,23.483-199.996,41.029c-14.861,3.975-28.983,8.654-42.448,13.972v0.372
				c13.065-4.732,32.021-10.491,41.552-8.953c7.133,1.15,8.98,6.391-0.879,19.216c-19.962,25.961-49.05,43.494-71.827,66.667
				c-39.246,39.934-46.516,101.021-63.483,152.314c-20.535,62.089-39.625,121.748-45.911,187.146
				c-2.969,30.887-8.343,60.057-21.986,88.19c-12.62,26.038-28.128,49.171-34.454,77.871c-7.647,34.672-14.806,76.813-6.857,111.856
				c7.625,33.622,25.529,64.944,31.396,98.842c5.107,29.468,3.132,61.379,2.574,91.258c-0.854,45.611-20.011,89.296-19.26,134.238
				c0.813,49.43,11.989,97.905,17.741,146.852c5.746,48.938,12.539,96.179,4.762,145.066
				c-14.588,91.789,48.098,162.164,85.648,238.607c14.887,30.314,23.407,61.75,30.887,94.518c6.527,28.563,17.22,38.513,34.438,60.5
				c30.863,39.432,21.648,87.658,33.85,132.834c8.254,30.58,35.452,66.195,54.188,91.371c20.503,27.545,45.241,51.793,74.571,69.851
				c61.136,37.647,134.569,44.597,204.523,35.647c40.206-5.147,80.743-14.291,119.634-25.69
				c40.109-11.765,82.334-29.272,124.171-33.47c31.338-3.14,23.986,10.336,4.373,23.778c-1.117,0.767-2.262,1.511-3.4,2.259
				c11.529-6.006,23.006-12.145,34.424-18.381l141.348-86.271C3893.18,4349.823,3838.113,4184.68,3798.993,4025.404z"/>
			<path id="_x31_80609480" fill="#9DF0D2" stroke="#000000" d="M4136.793,2188.565c24.756,12.039,49.904,29.451,70.535,47.839
				c51.494,45.899,88.344,114.237,106.83,180.259c10.344,36.958,21.834,76.415,34.801,113.66
				c11.223,32.268,38.559,71.424,35.018,106.378c-3.105,30.654-38.287,34.761-63.5,39.021
				c-58.627,9.908-118.926,12.28-178.244,14.379c-69.607,2.47-139.281,2.274-208.889-0.314
				c-41.207-1.525-84.236-6.931-125.332-1.363c-49.872,6.745-106.966,28.435-133.438,74.426
				c-4.938,8.577-25.626,48.412-41.238,42.354c-8.174-3.171-0.598-37.891-0.018-45.686c7.036-94.379,47.863-172.833,99.664-250.479
				c16.541-24.787,32.438-50.421,42.918-78.456c14.442-38.637-14.789-81.002,0.33-119.082c11.435-28.79,56.386-58.87,85.521-81.393
				c36.383-28.125,96.471-62.308,123.742-62.308C4033.998,2167.8,4092.738,2167.143,4136.793,2188.565z"/>
			<path id="_x31_80609481" fill="#9DF0D2" stroke="#000000" d="M3934.934,2357.786c47.41-25.292,107.682-5.257,157.096,3.405
				c50.195,8.795,103.6,19.917,142.313,55.618c26.256,24.214,61.838,65.771,55.9,103.929c-4.898,31.492-34.824,38.907-62.43,37.601
				c-35.832-1.694-78.191-1.146-112.838-9.313c-50.639-11.941-102.455-40.828-154.449-44.337
				c-33.68-2.274-121.879-15.854-100.813-69.286c3.398-8.604,8.158-16.977,13.889-24.936
				C3889.416,2388.511,3912.631,2369.684,3934.934,2357.786z"/>
			<path id="_x31_80609483" fill="#95E4C8" stroke="#000000" d="M3799.257,2666.508c9.844,6.197,17.931,10.328,21.866,17.478
				c-54.722,9.578-116.858,27.289-146.552,78.864c-4.938,8.576-25.626,48.412-41.238,42.353c-8.174-3.171-0.598-37.891-0.018-45.686
				c2.154-28.918,3.342-81.275,29.008-100.681C3700.343,2630.101,3761.609,2642.793,3799.257,2666.508z"/>
			<path id="_x31_80609482" fill="#9DF0D2" stroke="#000000" d="M4152.027,2663.7c21.863,1.92,44.004,2.114,66.322,0.517
				c24.447-1.76,77.977-5.752,88.037-34.729c10.82-31.193-40.141-42.15-60.369-45.991c-55.609-10.554-112.268-11.748-167.73-24.223
				c-68.268-15.347-133.641-41.715-202.111-56.029c-44.789-9.352-95.058-13.87-134.013,14.798
				c-19.025,14.008-82.479,79.994-49.994,104.539c36.245,27.387,95.622-14.281,132.062-23.545
				c53.625-13.644,117.27-7.141,166.756,17.89C4041.986,2642.72,4096.137,2658.811,4152.027,2663.7z"/>
			<path id="_x31_80609472" fill="#54BF94" stroke="#000000" d="M3790.527,3932.609c24.359-6.753,25.416-66.938,25.279-86.133
				c-0.518-71.078-21.075-133.19-9.271-205.02c14.033-85.365,39.408-168.279,78.678-245.515
				c22.859-44.959,64.115-91.749,98.689-128.551c27.684-29.468,89.604-83.173,36.154-120.595
				c-50.162-35.115-133.617-17.002-188.557-5.27c-32.46,6.931-72.787,12.087-99.905,33.025
				c-11.144,8.608-27.959,28.144-8.271,38.931c-13.806-7.561-25.626-18.179-39.617-25.545c-8.938-4.704-14.531-10.207-25.416-6.013
				c-4.033,1.559-16.767,8.506-13.281,13.621c-27.143-39.907-31.789-92.347-39.075-138.354
				c-6.406-40.457-11.104-82.067-7.536-123.032c2.259-25.844,0.354-72.554,17.291-93.178c7.504-9.134,19.615-11.796,29.321-18.235
				c14.879-9.866,26.53-22.196,37.31-35.105c22.883-27.395,41.126-59.597,79.719-72.175c75.28-24.521,216.257-8.086,321.319-12.637
				c77.176-3.34,154.27-5.236,231.496-6.745c32.953-0.646,68.592-5.229,100.107,6.884c23.924,9.189,42.74,26.609,59.24,45.726
				c17.299,20.034,34.938,39.827,51.922,60.111c12.215,14.588,24.174,29.346,34.84,45.128
				c22.867,33.809,40.475,72.393,55.73,110.122c8.836,21.866,16.855,44.039,24.254,66.43
				c20.906,63.233,31.621,131.447,33.025,197.95c0.822,38.986-1.283,78.104-5.938,116.803
				c-11.748,97.631-52.859,184.773-78.621,278.66c-25.377,92.517-53.125,168.685-104.119,251.904
				c-53.52,87.345-130.422,169.742-203.451,240.948c-59.369,57.885-121.893,106.458-185.805,157.274
				c-25.844,20.551-70.035,36.222-103.367,33.47c-67.93-5.592-108.66-86.956-134.625-140.549
				c-17.291-35.688-20.996-72.69-34.092-110.099C3816.742,4036.213,3790.527,3932.609,3790.527,3932.609z"/>
			<path id="_x31_80609478" fill="#54BF94" stroke="#000000" d="M3949.955,3120.309l-2.563,6.076
				c26.926,0.78,52.488,6.289,72.664,20.412c53.447,37.424-8.473,91.129-36.154,120.596c-1.035,1.101-2.076,2.212-3.121,3.33
				l8.422,0.374c65.574-1.646,130.373,18.728,193.678,16.589c47.877-1.623,107.736-16.486,152.09-28.643
				c11.432-40.386,18.857-84.369,21.17-136.218c7.383-165.667-123.992-274.44-273.695-297.413
				c-63.742-9.781-128.178-9.832-189.15,2.667l0.207,1.666C3922.645,2891.012,3987.959,3056.412,3949.955,3120.309z"/>
			<path id="_x31_80609474" fill="#54BF94" stroke="#000000" d="M3911.234,2749.087c11.486,1.878,23.021,3.591,34.58,5.29
				c51.727,7.613,101.578,31.258,153.727,40.666c221.436,39.947,325.416,132.044,347.031,350.62
				c2.051,20.733-8.172,99.969,16.352,110.747c20.123,8.845,39.34-52.704,44.686-67.381
				c41.342-113.508-9.561-283.952-99.088-362.035c-29.031-25.313-90.184-39.27-127.68-46.29
				c-96.314-18.033-190.967-38.438-285.217-62.226c-18.893-4.766-37.387-11.145-56.154-16.43
				c-57.223-1.049-120.719-5.101-175.913,13.021c18.18,8.604,39.889,6.51,59.067,13.12
				C3851.457,2738.129,3881.172,2744.174,3911.234,2749.087z"/>
			<path id="_x31_80609475" fill="#54BF94" stroke="#000000" d="M4252.844,3807.286c74.289,5.093,30.291,30.937-9.883,69.893
				c-56.359,54.637-103.615,118.844-165.938,167.259c-22.549,17.518-50.852,33.374-76.924,44.828
				c-14.92,6.555-40.166,13.629-56.436,15.454c-22.918,2.569-41.318,0.431-62.006-9.843c-68.68-34.105-131.066-138.579-64.5-202.545
				c62.852-60.395,147.324,59.854,209.395,50.313c69.498-10.682,109.818-98.562,173.369-125.717
				C4216.67,3809.771,4234.594,3806.035,4252.844,3807.286z"/>
			<path id="_x31_80609477" fill="#54BF94" stroke="#000000" d="M3989.201,3271.096l-8.422-0.373
				c-33.904,36.271-73.391,81.605-95.566,125.221c-22.604,44.458-40.598,90.802-54.48,138.408l7.684,3.205
				c86.859,31.259,249.531,60.646,305.705,142.525l2.662,3.559c24.199-61.313,46.188-127.332,75.07-181.569
				c48.4-90.886,89.393-159.202,113.117-243.027c-44.354,12.155-104.213,27.019-152.09,28.642
				C4119.574,3289.824,4054.775,3269.45,3989.201,3271.096z"/>
			<path id="_x31_80609479" fill="#54BF94" stroke="#000000" d="M3731.166,3174.893c0.142-0.112,0.286-0.229,0.427-0.338
				c4.975-3.84,10.395-7.146,16.125-10.031c0.127-0.063,0.251-0.131,0.378-0.194c0.438-0.219,0.882-0.426,1.323-0.64
				c0.548-0.265,1.093-0.535,1.646-0.794c0.01-0.005,0.02-0.009,0.028-0.014c24.906-11.61,55.052-15.94,80.404-21.354
				c32.844-7.014,75.875-16.304,115.895-15.144c0,0,2.561-6.073,2.563-6.077c39.479-93.59-24.057-205.293-56.607-292.029
				c2.178,5.8-36.568-2.618-38.361-2.821c-17.689-2.009-35.67-0.857-53.416-0.506c-34.103,0.68-69.767,5.148-101.751,17.535
				c-65.756,25.468-91.294,92.346-94.156,158.336c-2.391,55.113,3.229,110.295,23.447,162.216
				c2.141,5.497,8.459,14.632,18.553,17.783c10.093,3.151,16,4,30.411,3.115C3692.108,3183.076,3728.416,3177.051,3731.166,3174.893
				z"/>
			<path id="_x31_80609476" fill="#54BF94" stroke="#000000" d="M3924.506,3869.579c122.928,28.893,176.557-70.12,222.275-185.938
				l-2.662-3.559c-56.174-81.881-218.844-111.268-305.705-142.524l-7.682-3.206c-10.236,35.097-18.243,70.88-24.198,107.105
				c-10.313,62.761,4.078,118.104,8.222,178.488l0.938,0.597C3857.174,3846.48,3893.1,3862.196,3924.506,3869.579"/>
			<path id="_x31_80609473" fill="#54BF94" stroke="#000000" d="M4377.682,3760.642
				c126.615-262.814,137.443-433.768,142.873-527.291c2.068-35.623,2.824-73.865,0.891-112.616
				c-1.652,24.094-6.146,47.181-13.836,68.295c-5.346,14.677-24.563,76.227-44.686,67.381
				c-24.523-10.777-14.301-90.013-16.352-110.747c-21.615-218.575-125.598-310.673-347.031-350.62
				c-52.148-9.407-102-33.053-153.727-40.666c-11.559-1.699-23.096-3.412-34.58-5.289c-30.063-4.914-59.777-10.959-88.609-20.896
				c-19.179-6.61-40.887-4.516-59.065-13.12c1.674-0.55,3.354-1.077,5.045-1.587c-2.238,0.631-4.433,1.289-6.566,1.984
				c-38.593,12.578-56.836,44.78-79.719,72.175c-10.779,12.909-22.432,25.239-37.311,35.105c-9.706,6.439-21.816,9.103-29.32,18.235
				c-16.938,20.624-15.032,67.334-17.291,93.178c-3.566,40.965,1.129,82.575,7.535,123.032c0.23,1.455,0.458,2.917,0.686,4.385
				c-1.622-20.15-1.834-40.458-0.953-60.757c2.862-65.99,28.4-132.868,94.156-158.336c31.984-12.387,67.648-16.855,101.751-17.535
				c17.746-0.353,35.727-1.503,53.416,0.506c1.715,0.194,37.227,7.901,38.416,3.5l-0.109-0.877
				c60.975-12.5,125.408-12.448,189.15-2.668c149.705,22.973,281.078,131.746,273.695,297.414
				c-2.313,51.848-9.738,95.832-21.17,136.218c-23.725,83.825-64.715,152.142-113.117,243.026
				c-28.883,54.238-50.871,120.258-75.07,181.569c-45.719,115.818-99.348,214.83-222.273,185.938
				c-31.408-7.383-67.332-23.1-108.814-49.036l-0.936-0.597c-0.135-1.948-0.279-3.893-0.434-5.83
				c0.842,10.619,1.402,21.383,1.482,32.359c0.072,10.286-0.199,32.342-4.214,51.639c1.749-1.96,3.597-3.892,5.563-5.783
				c62.852-60.395,147.324,59.854,209.395,50.313c69.498-10.682,109.818-98.562,173.369-125.717
				c16.748-7.156,34.672-10.892,52.922-9.641c74.289,5.092,30.291,30.936-9.883,69.892
				c-56.359,54.638-103.615,118.845-165.938,167.259c-22.549,17.518-50.852,33.375-76.924,44.828
				c-14.92,6.556-40.166,13.629-56.436,15.455c-22.918,2.568-41.318,0.43-62.006-9.844c-23.178-11.51-45.631-31.039-62.658-54.315
				c2.037,7.146,3.76,12.866,4.957,16.292c13.096,37.406,16.799,74.41,34.09,110.098c1.094,2.258,16.121,31.959,17.268,34.308
				c30.352-21.767,64.463-42.856,89.797-52.284C4083.533,4104.9,4254.289,4016.774,4377.682,3760.642z"/>
			<path id="_x31_80609500" fill="#CCCCCC" stroke="#000000" d="M3850.541,3280.311c8.867-26.756,11.191-49.01-10.932-56.876
				c-22.586-8.028-49.567-0.728-72.999-3.931c-13.91-1.896-34.525,0.694-46.709-7.133c-16.944-10.867,1.437-29.895,11.684-37.81
				c27.118-20.946,67.445-26.104,99.915-33.033c54.939-11.731,138.393-29.847,188.557,5.269
				c53.445,37.424-8.473,91.129-36.156,120.596c-34.574,36.802-75.83,83.592-98.688,128.551
				c-39.27,77.234-64.646,160.148-78.679,245.515c-11.804,71.828,8.755,133.94,9.272,205.02c0.137,19.194-0.92,79.38-25.28,86.133
				c-9.319,2.582-17.438-16.193-19.3-22.642c-5.011-17.362-10.813-34.873-15.179-52.552c-13.685-55.448-32.58-109.67-38.479-166.893
				c-2.033-19.785-6.14-39.238-7.504-59.128c-4.413-64.372,18.438-118.255,49.243-173.332
				c14.306-25.578,27.069-52.141,41.239-77.524C3808.754,3365.848,3837.705,3319.049,3850.541,3280.311z"/>
			<path id="_x31_80609501" fill="#CCCCCC" stroke="#000000" d="M4036.879,4302.594c-50.641,23.623-82.27,0.025-116.215-43.771
				c-47.129-60.807-4.977-91.462,44.445-109.852c118.424-44.07,289.18-132.196,412.572-388.33
				c126.613-262.813,137.441-433.767,142.871-527.291c7.934-136.555-3.355-311.572-112.033-406.355
				c-29.029-25.313-90.184-39.27-127.678-46.29c-96.316-18.033-190.969-38.438-285.219-62.226
				c-27.223-6.866-53.625-17.091-81.203-22.553c-28.248-5.584-54.092-3.51-81.631-12.82c-25.021-8.457-89.184-43.186-44.692-69.546
				c54.642-32.389,148.116-24.344,202.888,3.364c69.18,34.995,156.313,51.1,232.076,67.883
				c111.18,24.609,234.855,37.246,309.119,133.877c118.674,154.428,158.889,335.102,135.854,526.547
				c-11.748,97.641-52.859,184.782-78.621,278.67c-25.377,92.517-53.125,168.685-104.119,251.904
				c-53.512,87.336-130.414,169.733-203.436,240.932C4216.566,4180.408,4135.656,4256.514,4036.879,4302.594z"/>
			<path id="_x31_80609499" fill="#AAAAAA" stroke="#000000" d="M3671.692,3306.534c-9.158-28.91-33.469-76.063-26.676-106.951
				c9.48-43.03,55.021,2.833,73.908,11.265c37.124,16.59,81.342,0.832,120.185,13.071c50.18,15.814-22.383,123.209-34.631,145.561
				c-11.07,20.194-63.638,150.327-97.897,134.675c-5.043-15.331-1.848-33.35-2.389-49.615
				C3702.376,3399.994,3687.935,3357.819,3671.692,3306.534z"/>
		</g>
	</g>
	<g transform="scale(1.0)">
		<g id="_x31_80609461_1_" transform=" scale(1.0, 1.0)">
			<path id="_x31_80609463_1_" fill="#BFDAE3" stroke="#000000" d="M1426.505,2668.045c37.664-66.423,64.031-136.428,87.611-208.724
				c-39.91,122.338-213.791,152.699-295.041,145.375c-149.998-13.524-246.775-118.756-321.232-239.86
				c-252.422-410.479-57.238-870.388,265.121-1172.609c185.242-173.671,439.76-304.602,687.775-355.692
				c110.817-22.831,220.777-29.653,329.931-59.999c214.418-59.604,454.961,26.095,572.313,214.7
				c64.194,103.19,53.528,205.662,77.734,320.318c23.495,111.341,42.408,203.663,35.34,318.739
				c-7.293,118.763-28.581,236.978-58.936,351.916c-35.89,135.886-120.271,232.719-270.463,234.47
				c-124.805,1.459-252.211,7.52-376.775,0.193c-55.673-3.276-114.607-13.896-168.361-28.79
				c-40.246-11.151-103.168-23.238-124.888-19.083c35.261,12.644,154.404,73.353,215.194,163.593
				c56.836,84.351,113.576,35.422,196.812,36.374c88.013,1.001,177.867,20.422,262.491,43.055
				c151.031,40.393,226.939,152.426,288.989,289.845c54.673,121.063,72.778,216.088,76.151,348.771
				c4.252,167.352,4.211,783.963,5.375,833.893c3.646,156.226,3.082,264.403-93.437,395.938
				c-72.296,98.528-178.947,167.307-290.151,214.467c-201.974,85.667-395.465,11.965-575.154-86.183
				c-137.36-75.031-282.808-182.852-394.753-291.998c-73.02-71.205-149.93-153.604-203.443-240.946
				c-50.994-83.222-78.75-159.388-104.119-251.905c-25.77-93.889-66.873-181.03-78.621-278.67
				c-5.793-48.071-7.746-97.115-4.955-145.454c5.002-86.472,25.063-169.718,61.275-248.435
				c22.609-49.155,48.186-95.89,82.479-138.782c25.076-31.371,56.191-62.381,82.012-93.128
				C1405.511,2704.254,1415.339,2687.729,1426.505,2668.045z"/>
			<path id="_x31_80609464_1_" fill="#B0FFB8" stroke="#000000" d="M897.843,2364.832
				c74.457,121.104,171.234,226.336,321.232,239.86c81.25,7.324,255.131-23.037,295.041-145.375
				c-23.58,72.295-49.947,142.301-87.611,208.724c-11.166,19.687-20.996,36.211-33.727,51.391
				c-25.82,30.747-56.936,61.757-82.012,93.128c-34.293,42.893-59.871,89.627-82.479,138.782
				c-36.213,78.717-56.273,161.963-61.275,248.436c-2.791,48.339-0.838,97.383,4.955,145.453
				c11.748,97.641,52.852,184.781,78.621,278.67c25.369,92.517,53.125,168.684,104.119,251.905
				c53.512,87.343,130.422,169.741,203.443,240.947c111.947,109.146,257.393,216.968,394.754,291.998
				c179.688,98.147,373.179,171.849,575.153,86.183c111.204-47.16,217.855-115.939,290.151-214.467
				c96.519-131.535,97.082-239.713,93.437-395.939c-1.164-49.93-1.123-666.54-5.375-833.893
				c-3.373-132.682-21.479-227.707-76.151-348.771c-62.05-137.419-137.958-249.453-288.989-289.845
				c-84.624-22.634-174.477-42.054-262.491-43.056c-83.237-0.951-139.976,47.978-196.812-36.373
				c-60.79-90.24-179.934-150.949-215.194-163.594c21.72-4.154,84.641,7.934,124.888,19.083
				c53.754,14.896,112.688,25.515,168.361,28.79c124.564,7.327,251.97,1.266,376.775-0.193
				c150.192-1.752,234.573-98.584,270.463-234.47c30.355-114.938,51.643-233.152,58.936-351.916
				c7.068-115.075-11.845-207.397-35.34-318.738c-24.206-114.655-13.54-217.128-77.734-320.318
				c-117.352-188.606-357.896-274.304-572.313-214.701c-109.153,30.347-219.113,37.168-329.931,59.999
				c-248.013,51.091-502.533,182.022-687.775,355.693C840.605,1494.447,645.421,1954.355,897.843,2364.832z M2000.892,3223.92
				c38.842-12.24,83.06,3.518,120.184-13.071c18.888-8.433,64.428-54.295,73.908-11.265c6.793,30.888-17.518,78.041-26.676,106.95
				c-16.242,51.285-30.685,93.46-32.5,148.004c-0.541,16.267,2.654,34.284-2.389,49.615
				c-34.259,15.653-86.827-114.479-97.896-134.675C2023.274,3347.128,1950.713,3239.733,2000.892,3223.92z"/>
			<path id="_x31_80609486_1_" fill="#1F9D5A" stroke="#000000" d="M1850.714,836.511c110.881-22.805,220.77-29.662,329.915-59.985
				c88.571-24.622,181.605-24.457,268.607-2.396l-75.602,244.565c-171.854-38.007-375.686,1.653-522.094,51.888
				c-102.37,35.116-220.024,89.978-307.11,153.516c-57.836,42.138-180.697,131.124-231.346,181.771
				c-99.146,99.148-132.609,185.159-195.732,300.006c-62.381,113.359-63.869,256.298,5.453,370.236
				c37.924,62.216,121.787,125.257,196.725,122.696c98.404-3.389,128.646-87.003,188.547-146.492
				c79.154-78.575,172.187-149.136,274.804-196.231l-230.271,479.712l5.701,2.728c-19.334,38.999-33.627,81.054-44.203,120.796
				c-28.588,107.492-182.432,152.688-295.047,145.334c-150.291-9.749-246.795-118.73-321.238-239.855
				c-252.414-410.475-57.174-870.357,265.139-1172.595C1348.203,1018.528,1602.683,887.652,1850.714,836.511z"/>
			<path id="_x31_80609485_1_" fill="#1F9D5A" stroke="#000000" d="M1544.437,1224.095c87.084-63.538,204.739-118.4,307.109-153.516
				c146.406-50.234,350.238-89.895,522.094-51.888l-69.238,224.158c-1.238-0.248-2.479-0.33-3.718-0.413
				c-165.576-12.393-302.814,59.489-456.079,97.331c-127.983,31.644-242.333,75.435-330.494,173.509
				c-95.76,106.502-84.439,300.999,96.422,184.499c86.671-55.771,189.455-82.872,292.651-92.373l-120.3,250.681
				c-102.617,47.095-195.652,117.655-274.804,196.23c-59.9,59.489-90.143,143.104-188.547,146.492
				c-74.939,2.561-158.801-60.48-196.725-122.696c-69.322-113.938-67.834-256.877-5.453-370.236
				c63.123-114.846,96.586-200.857,195.732-300.006C1363.736,1355.22,1486.597,1266.234,1544.437,1224.095z"/>
			<path id="_x31_80609484_1_" fill="#1F9D5A" stroke="#000000" d="M1844.601,1339.771
				c153.266-37.842,290.503-109.725,456.079-97.331c1.239,0.082,2.479,0.165,3.718,0.413l-67.09,216.887l-0.248-0.165l-0.743,3.387
				l-1.073,3.471l-283.231,37.594l-0.166-0.083l-48.665,101.462c-103.195,9.501-205.979,36.603-292.65,92.373
				c-180.861,116.499-192.182-77.997-96.422-184.499C1602.269,1415.204,1716.619,1371.413,1844.601,1339.771z"/>
			<path id="_x31_80609498_1_" fill="#2FA850" stroke="#000000" d="M2752.96,991.263c27.43,44.121,41.146,88.158,49.82,133.023
				l-155.166,94.688c-13.88-27.846-30.652-53.54-50.316-75.767c-58.91-66.842-137.237-105.51-223.661-124.514l75.601-244.565
				C2572.76,805.359,2684.053,880.547,2752.96,991.263z"/>
			<path id="_x31_80609497_1_" fill="#2FA850" stroke="#000000" d="M2597.3,1143.207c19.664,22.226,36.436,47.921,50.316,75.767
				l-212.672,129.719c-23.961-55.441-69.402-99.728-130.545-105.841l69.238-224.158
				C2460.062,1037.697,2538.389,1076.365,2597.3,1143.207z"/>
			<path id="_x31_80609496_1_" fill="#2FA850" stroke="#000000" d="M2304.397,1242.852c61.143,6.113,106.584,50.4,130.545,105.841
				l-190.61,116.334l-7.023-5.288L2304.397,1242.852z"/>
			<path id="_x31_80609489_1_" fill="#248A5E" stroke="#000000" d="M1871.62,1822.125c84.522-25.778,173.92-31.396,260.097-10.08
				c10.245,2.563,19.912,5.949,29.248,9.915l-80.888,385.357l-0.084,0.33c-30.073-4.957-59.983-11.65-88.488-19.582
				c-40.238-11.154-79.649-17.516-124.844-19.086c-107.492-3.637-160.701,2.065-233.988,67.421
				c-30.652,27.349-55.027,63.207-74.359,102.123l-5.701-2.728l230.27-479.712C1811.718,1842.781,1841.38,1831.379,1871.62,1822.125
				z"/>
			<path id="_x31_80609488_1_" fill="#248A5E" stroke="#000000" d="M2021.908,1601.688c54.367,1.321,118.979,11.731,182.351,14.211
				l-43.295,206.063c-9.336-3.966-19.003-7.353-29.248-9.915c-86.176-21.316-175.574-15.699-260.098,10.08
				c-30.239,9.253-59.901,20.655-88.736,33.958l120.299-250.68C1943.006,1601.769,1982.831,1600.694,2021.908,1601.688z"/>
			<path id="_x31_80609487_1_" fill="#248A5E" stroke="#000000" d="M2234.666,1470.893l-30.405,145.004
				c-63.372-2.479-127.984-12.89-182.35-14.211c-39.08-0.991-78.905,0.083-118.729,3.718l48.665-101.462l0.166,0.083l283.231-37.594
				l-1.569,5.04L2234.666,1470.893z"/>
			<path id="_x31_80609495_1_" fill="#248A5E" stroke="#000000" d="M2695.207,1558.97c18.012-104.271,4.131-237.213-47.591-339.995
				l155.166-94.688c11.65,60.067,14.046,121.622,27.927,187.226c23.465,111.377,42.385,203.666,35.363,318.762
				c-5.619,90.968-19.417,181.523-39.246,270.592l-193.339-144.674C2666.372,1696.042,2684.053,1623.581,2695.207,1558.97z"/>
			<path id="_x31_80609494_1_" fill="#248A5E" stroke="#000000" d="M2399.003,1569.544c61.471-49.326,68.577-145.418,35.941-220.853
				l212.672-129.719c51.722,102.783,65.603,235.725,47.591,339.995c-11.155,64.612-28.835,137.073-61.72,197.224l-241.92-181.028
				C2394.046,1573.346,2396.524,1571.528,2399.003,1569.544z"/>
			<path id="_x31_80609493_1_" fill="#248A5E" stroke="#000000" d="M2434.944,1348.691c32.636,75.436,25.53,171.526-35.941,220.853
				c-2.479,1.984-4.957,3.801-7.436,5.619l-147.234-110.137L2434.944,1348.691z"/>
			<path id="_x31_80609492_1_" fill="#248A5E" stroke="#000000" d="M2160.965,1821.959c38.42,16.112,70.396,40.899,112.863,49.492
				c60.646,12.229,125.174,20.408,186.812,12.312c83.201-10.824,137.072-61.969,172.848-127.571l193.339,144.674
				c-6.032,27.266-12.643,54.366-19.747,81.302c-35.859,135.916-120.217,232.751-270.426,234.486
				c-124.762,1.487-252.248,7.52-376.763,0.248c-26.19-1.57-53.125-4.71-79.896-9.254l0.083-0.33L2160.965,1821.959z"/>
			<path id="_x31_80609491_1_" fill="#248A5E" stroke="#000000" d="M2323.239,1606.23c24.621-6.361,47.756-16.276,68.329-31.066
				l241.92,181.028c-35.776,65.603-89.646,116.747-172.847,127.571c-61.639,8.097-126.166-0.082-186.813-12.312
				c-42.467-8.593-74.443-33.38-112.863-49.492l43.295-206.063C2245.407,1617.55,2286.139,1615.897,2323.239,1606.23z"/>
			<path id="_x31_80609490_1_" fill="#248A5E" stroke="#000000" d="M2244.334,1465.026l147.234,110.137
				c-20.573,14.789-43.708,24.704-68.329,31.066c-37.1,9.667-77.832,11.318-118.979,9.667l30.405-145.004L2244.334,1465.026z"/>
			<path id="_x31_80609465_1_" fill="#9AD2BD" stroke="#000000" d="M1171.962,3345.241c11.748,97.631,52.857,184.773,78.621,278.66
				c25.375,92.517,53.123,168.685,104.117,251.905c53.52,87.344,130.424,169.742,203.451,240.947
				c59.369,57.885,121.894,106.459,185.806,157.275c7.783,6.189,17.237,11.929,27.551,16.863c-1.571-0.508-3.135-1.021-4.691-1.541
				c16.193,5.414,52.221,43.086,72.215,54.398c39.544,22.359,76.692,48.702,116.616,70.514
				c179.688,98.147,373.176,171.847,575.158,86.182c111.194-47.162,217.846-115.939,290.142-214.467
				c96.516-131.536,92.014-239.712,88.368-395.939c-1.17-49.929,5.31-98.6,1.226-148.464c-4.801-58.725-2.774-113.979,2.761-173.752
				c15.419-166.546-0.032-344.323-4.292-511.678c-3.365-132.681-21.479-227.707-76.152-348.777
				c-62.048-137.41-137.95-249.444-288.987-289.837c-65.599-17.545-132.004-36.002-199.998-41.028
				c-60.7-4.482-120.602,4.457-181.037,4.356c-34.29-0.056-57.045-19.978-77.941-44.095
				c-41.038-56.779-89.087-95.529-149.093-131.439c-16.993-10.175-35.423-23.399-54.166-30.035
				c-36.445-12.902-92.74,1.214-129.961,8.862c-43.119,8.86-83.333,28.422-116.253,57.765
				c-61.355,54.688-99.512,142.889-118.563,222.918c-21.131,88.742-59.506,181.799-119.988,251.005
				c3.113-1.136,6.24-2.289,9.383-3.438c-15.393,9.576-28.533,22.482-40.455,36.294c-17.299,20.034-34.938,39.827-51.922,60.111
				c-12.215,14.588-24.174,29.346-34.84,45.128c-22.867,33.809-40.473,72.393-55.73,110.122
				c-8.836,21.866-16.855,44.038-24.254,66.43c-20.906,63.233-31.621,131.447-33.025,197.95
				C1165.205,3267.426,1167.312,3306.542,1171.962,3345.241z M2000.892,3223.92c38.842-12.24,83.06,3.518,120.184-13.071
				c18.888-8.433,64.428-54.295,73.908-11.265c6.793,30.888-17.518,78.041-26.676,106.95c-16.242,51.285-30.685,93.46-32.5,148.004
				c-0.541,16.267,2.654,34.284-2.389,49.615c-34.259,15.653-86.827-114.479-97.896-134.675
				C2023.274,3347.128,1950.713,3239.733,2000.892,3223.92z"/>
			<path id="_x31_80609466_1_" fill="#9AD2BD" stroke="#000000" d="M2073.009,2319.966c14.193,28.713,6.56,60.079,9.198,90.551
				c2.809,32.389,20.543,60.008,38.343,86.174c51.891,76.282,83.116,152.128,107.347,240.103
				c25.173,91.395,34.508,183.845,27.11,278.354c-2.422,30.929-7.215,61.654-14.088,91.896
				c-5.213,22.931-12.016,45.483-19.834,67.656c-6.647,18.881-14.07,37.495-21.485,56.086
				c-29.443,73.78-61.048,148.674-63.961,229.216c-0.597,16.492,2.573,32.791,1.969,49.203c-0.767,20.445-1.444,40.893-2.412,61.338
				c-1.097,23.246-2.558,46.484-4.946,69.642c-6.897,67.083-21.302,132.69-41.908,196.886
				c-53.705,167.312-82.623,524.658-276.787,485.412l141.346,86.271c179.688,98.148,373.176,171.848,575.158,86.184
				c111.195-47.162,217.847-115.94,290.142-214.467c96.517-131.537,97.09-239.713,93.442-395.939
				c-1.17-49.93-1.121-666.54-5.382-833.895c-3.364-132.682-21.478-227.707-76.151-348.77
				c-62.049-137.419-137.949-249.453-288.987-289.845c-65.599-17.547-132.003-36.003-199.997-41.03
				c-39.295-2.9-78.969-2.146-118.005,3.45C2167.727,2382.38,2111.069,2394.405,2073.009,2319.966z"/>
			<path id="_x31_80609467_1_" fill="#82C7AE" stroke="#000000" d="M2542.018,2417.411c-7.133,1.15-8.979,6.391,0.879,19.216
				c19.962,25.96,49.05,43.494,71.827,66.667c39.246,39.932,46.515,101.021,63.483,152.314
				c20.535,62.089,39.625,121.749,45.911,187.146c2.968,30.887,8.342,60.055,21.986,88.19c12.62,26.038,28.128,49.171,34.454,77.871
				c7.647,34.671,14.805,76.813,6.857,111.856c-7.625,33.622-25.53,64.945-31.396,98.842c-5.107,29.468-3.131,61.379-2.574,91.258
				c0.855,45.611,20.011,89.296,19.26,134.238c-0.813,49.43-11.988,97.906-17.742,146.852
				c-5.744,48.936-12.539,96.178-4.761,145.066c14.589,91.789-48.097,162.164-85.648,238.607
				c-14.888,30.314-23.408,61.75-30.888,94.518c-6.527,28.563-17.219,38.513-34.437,60.5
				c-30.864,39.432-21.649,87.658-33.849,132.834c-8.253,30.58-35.453,66.195-54.188,91.371
				c-20.503,27.545-45.241,51.793-74.571,69.851c-61.135,37.647-134.568,44.595-204.523,35.647
				c-40.206-5.147-80.743-14.291-119.634-25.69c-40.109-11.765-82.333-29.274-124.169-33.47c-31.34-3.14-23.988,10.336-4.373,23.778
				c25.465,17.453,56.893,30.088,85.165,42.224c147.028,63.098,306.827,92.362,458.97,27.838
				c111.195-47.162,217.846-115.94,290.141-214.467c96.518-131.537,97.091-239.713,93.443-395.939
				c-1.17-49.93-1.13-666.54-5.374-833.895c-3.372-132.682-21.485-227.707-76.159-348.77
				c-50.994-112.922-117.924-216.524-233.621-270.379C2590.364,2428.638,2556.016,2415.15,2542.018,2417.411z"/>
			<path id="_x31_80609471_1_" fill="#82C7AE" stroke="#000000" d="M2047.237,3999.582c-16.508,61.935-19.542,112.848-14.33,178.107
				c4.164,52.117,31.687,114.382,91.725,118.893c57.336,4.31,103.691-51.453,132.312-93.733
				c33.137-48.961,56.747-103.658,76.78-159.082c22.197-61.411,41.9-123.71,59.651-186.541
				c32.363-114.552,58.427-230.749,80.792-347.642c14.798-77.322,36.704-152.813,46.848-232.145
				c28.287-221.195,2.476-441.891-102.425-641.254c-19.259-36.615-43.473-70.803-73.73-99.116
				c-34.849-32.613-74.619-55.045-119.73-70.093c-25.796-8.601-78.807-30.798-102.892-9.247
				c-22.714,20.325,13.628,60.168,23.986,76.467c36.98,58.2,63.444,136.427,81.672,202.599
				c24.238,88.006,31.064,176.52,28.313,267.422c-1.041,34.526-5.584,68.891-13.071,102.602
				c-8.697,39.157-21.566,77.314-37.906,113.946c-29.377,65.881-56.731,126.122-65.688,198.61
				c-3.639,29.46-0.218,57.668-1.477,87.328c-1.058,24.867-1.823,49.856-3.414,74.7c-3.307,51.648-8.262,102.804-18.992,153.515
				c-7.311,34.526-16.533,68.551-27.32,102.15C2071.187,3890.491,2061.688,3945.398,2047.237,3999.582z"/>
			<path id="_x31_80609470_1_" fill="#9AD2BD" stroke="#000000" d="M2259.926,2465.1l-47.893-2.661
				c4.841,1.688,9.269,3.264,13.095,4.538c45.11,15.049,84.881,37.479,119.729,70.093c30.257,28.313,54.471,62.501,73.731,99.116
				c104.9,199.363,130.712,420.059,102.424,641.254c-10.143,79.332-32.049,154.823-46.848,232.145
				c-22.365,116.893-48.429,233.09-80.791,347.642c-17.752,62.831-37.455,125.13-59.651,186.541
				c-20.034,55.424-43.644,110.121-76.781,159.082c-21.806,32.214-53.91,72.25-93.32,87.584l60.886,38.897
				c15.974-21.232,49.272-37.744,60.797-55.438c23.173-35.575,34.13-77.299,48.84-116.682
				c15.475-41.449,31.232-79.945,43.03-123.186c13.192-48.355,26.651-99.415,46.467-145.357
				c34.558-80.154,46.467-175.802,63.904-261.548c18.606-91.491,35.518-183.321,52.229-275.175
				c16.468-90.499,34.533-185.767,31.04-278.379c-1.953-51.85-1.162-118.126-23.973-165.385
				c-22.664-46.976-35.34-96.324-44.821-147.988c-21.728-118.394-79.629-209.892-185.909-267.228
				C2298.135,2483.263,2276.621,2477.489,2259.926,2465.1z"/>
			<path id="_x31_80609469_1_" fill="#82C7AE" stroke="#000000" d="M2316.109,2492.964
				c106.28,57.336,164.181,148.835,185.909,267.229c9.481,51.664,22.157,101.012,44.821,147.987
				c22.812,47.26,22.021,113.535,23.974,165.386c3.492,92.611-14.572,187.88-31.041,278.379
				c-16.711,91.854-33.623,183.684-52.229,275.175c-17.436,85.746-29.345,181.393-63.904,261.547
				c-19.816,45.943-33.275,97.003-46.467,145.357c-11.797,43.242-27.554,81.737-43.03,123.186
				c-14.71,39.385-25.667,81.107-48.84,116.682c-16.597,25.482-78.371,48.511-68.487,86.724
				c13.403,1.421,25.265-9.844,36.342-16.799c39.053-24.505,71.836-63.719,92-104.667c37.987-77.161,55.521-163.827,76.717-246.564
				c18.534-72.303,37.06-146.64,59.684-217.692c20.59-64.59,45.693-123.808,57.691-191.972
				c11.836-67.261,19.066-135.264,32.089-202.33c14.902-76.734,26.408-154.203,31.209-232.267
				c5.487-89.233-7.487-179.449-37.236-263.728c-33.284-94.273-35.446-205.679-96.437-288.417
				c-54.415-73.819-128.252-119.827-217.273-138.293C2268.933,2475.585,2294.971,2481.557,2316.109,2492.964z"/>
			<path id="_x31_80609468_1_" fill="#9AD2BD" stroke="#000000" d="M1811.55,4322.48l141.347,86.271
				c11.419,6.236,22.895,12.375,34.424,18.381c-1.139-0.748-2.282-1.492-3.399-2.259c-19.614-13.442-26.966-26.918,4.373-23.778
				c41.836,4.197,84.061,21.705,124.17,33.47c38.891,11.399,79.428,20.543,119.634,25.69c69.954,8.949,143.388,2,204.523-35.647
				c29.33-18.058,54.068-42.306,74.571-69.851c18.735-25.176,45.934-60.791,54.188-91.371c12.201-45.176,2.986-93.402,33.85-132.834
				c17.218-21.987,27.91-31.938,34.438-60.5c7.479-32.768,16-64.203,30.887-94.518c37.551-76.443,100.236-146.818,85.648-238.607
				c-7.777-48.888-0.984-96.129,4.762-145.066c5.752-48.946,16.928-97.422,17.741-146.852c0.751-44.942-18.405-88.627-19.26-134.238
				c-0.558-29.879-2.533-61.79,2.574-91.258c5.866-33.897,23.771-65.22,31.396-98.842c7.948-35.043,0.79-77.185-6.857-111.856
				c-6.326-28.7-21.834-51.833-34.454-77.871c-13.644-28.134-19.018-57.304-21.986-88.19
				c-6.286-65.397-25.376-125.057-45.911-187.146c-16.968-51.293-24.237-112.381-63.483-152.314
				c-22.777-23.173-51.865-40.706-71.827-66.667c-9.859-12.825-8.012-18.065-0.879-19.216c9.531-1.538,28.486,4.221,41.552,8.953
				v-0.372c-13.465-5.317-27.587-9.997-42.448-13.972c-65.598-17.546-132.003-36.002-199.996-41.029
				c-39.295-2.9-78.97-2.146-118.006,3.449c-55.391,7.94-112.049,19.967-150.108-54.472c14.193,28.714,6.56,60.079,9.198,90.552
				c2.808,32.388,20.543,60.007,38.343,86.174c1.791,2.633,3.552,5.266,5.295,7.898c-10.034-16.57-16.836-35.027-3.608-46.863
				c20.514-18.354,62.005-4.978,89.799,4.709l47.892,2.66c-2.938-2.181-5.73-4.563-8.325-7.212
				c89.021,18.466,162.858,64.474,217.273,138.293c60.992,82.738,63.154,194.144,96.438,288.417
				c29.748,84.279,42.723,174.495,37.235,263.728c-4.801,78.064-16.307,155.533-31.209,232.266
				c-13.024,67.067-20.253,135.07-32.089,202.331c-11.998,68.164-37.1,127.381-57.691,191.972
				c-22.623,71.051-41.15,145.389-59.684,217.692c-21.196,82.737-38.73,169.403-76.717,246.563
				c-20.164,40.948-52.947,80.162-91.999,104.668c-11.078,6.954-22.94,18.219-36.343,16.799c-3.021-11.681,0.658-21.938,7.69-31.285
				l-60.885-38.898c-12.313,4.792-25.341,7.175-38.99,6.15c-60.038-4.512-87.562-66.777-91.726-118.894
				c-4.47-55.978-2.863-101.406,8.1-152.284C2001.887,4184.68,1946.821,4349.823,1811.55,4322.48z"/>
			<path id="_x31_80609480_1_" fill="#9DF0D2" stroke="#000000" d="M1854.509,2167.801c27.271,0,87.359,34.183,123.741,62.308
				c29.136,22.522,74.086,52.603,85.521,81.393c15.119,38.08-14.112,80.445,0.33,119.082c10.48,28.035,26.377,53.669,42.918,78.456
				c51.801,77.646,92.628,156.1,99.664,250.479c0.58,7.795,8.156,42.515-0.018,45.686c-15.612,6.059-36.3-33.776-41.238-42.354
				c-26.473-45.991-83.566-67.681-133.438-74.426c-41.095-5.567-84.124-0.162-125.331,1.363
				c-69.608,2.589-139.281,2.784-208.889,0.314c-59.32-2.099-119.619-4.471-178.246-14.379c-25.213-4.261-60.395-8.367-63.5-39.021
				c-3.541-34.954,23.795-74.11,35.018-106.378c12.967-37.245,24.457-76.702,34.801-113.66
				c18.486-66.021,55.336-134.359,106.83-180.259c20.631-18.388,45.781-35.8,70.536-47.839
				C1747.262,2167.143,1806.002,2167.8,1854.509,2167.801z"/>
			<path id="_x31_80609481_1_" fill="#9DF0D2" stroke="#000000" d="M1966.399,2410.468c5.729,7.959,10.49,16.331,13.888,24.936
				c21.066,53.432-67.132,67.012-100.812,69.286c-51.994,3.509-103.811,32.396-154.449,44.337
				c-34.647,8.166-77.007,7.618-112.839,9.313c-27.605,1.307-57.531-6.108-62.43-37.601c-5.938-38.157,29.645-79.715,55.9-103.929
				c38.713-35.701,92.119-46.823,142.314-55.618c49.413-8.662,109.686-28.697,157.096-3.405
				C1927.37,2369.684,1950.584,2388.511,1966.399,2410.468z"/>
			<path id="_x31_80609483_1_" fill="#95E4C8" stroke="#000000" d="M2177.677,2658.836c25.666,19.405,26.854,71.763,29.008,100.681
				c0.58,7.795,8.156,42.515-0.018,45.686c-15.612,6.06-36.3-33.776-41.238-42.353c-29.693-51.575-91.83-69.286-146.552-78.864
				c3.937-7.149,12.022-11.28,21.866-17.478C2078.391,2642.793,2139.657,2630.101,2177.677,2658.836z"/>
			<path id="_x31_80609482_1_" fill="#9DF0D2" stroke="#000000" d="M1849.015,2616.926c49.485-25.03,113.131-31.533,166.755-17.89
				c36.439,9.264,95.816,50.932,132.062,23.545c32.484-24.545-30.969-90.531-49.994-104.539
				c-38.955-28.668-89.223-24.149-134.012-14.798c-68.471,14.314-133.844,40.683-202.112,56.029
				c-55.463,12.475-112.122,13.669-167.731,24.223c-20.229,3.841-71.189,14.798-60.369,45.991
				c10.061,28.978,63.59,32.97,88.037,34.729c22.318,1.598,44.459,1.403,66.324-0.517
				C1743.864,2658.811,1798.014,2642.72,1849.015,2616.926z"/>
			<path id="_x31_80609472_1_" fill="#54BF94" stroke="#000000" d="M2016.045,4056.848c-13.095,37.408-16.8,74.41-34.091,110.099
				c-25.965,53.593-66.695,134.957-134.625,140.549c-33.332,2.752-77.523-12.919-103.367-33.47
				c-63.912-50.816-126.437-99.39-185.806-157.274c-73.029-71.206-149.932-153.604-203.451-240.948
				c-50.994-83.22-78.742-159.388-104.119-251.904c-25.762-93.887-66.873-181.029-78.621-278.66
				c-4.654-38.699-6.76-77.816-5.938-116.803c1.404-66.503,12.119-134.717,33.025-197.95c7.398-22.391,15.418-44.563,24.254-66.43
				c15.256-37.729,32.863-76.313,55.73-110.122c10.666-15.782,22.625-30.54,34.84-45.128c16.984-20.284,34.623-40.077,51.922-60.111
				c16.5-19.116,35.316-36.536,59.24-45.726c31.516-12.112,67.154-7.529,100.107-6.884c77.227,1.509,154.321,3.405,231.498,6.745
				c105.063,4.551,246.038-11.885,321.318,12.637c38.593,12.578,56.836,44.78,79.719,72.175
				c10.779,12.909,22.431,25.239,37.31,35.105c9.706,6.439,21.817,9.102,29.321,18.235c16.938,20.624,15.032,67.334,17.291,93.178
				c3.567,40.965-1.13,82.575-7.536,123.032c-7.286,46.008-11.933,98.447-39.075,138.354c3.485-5.115-9.248-12.063-13.281-13.621
				c-10.885-4.194-16.478,1.309-25.416,6.013c-13.991,7.366-25.812,17.984-39.617,25.545c19.688-10.787,2.872-30.322-8.271-38.931
				c-27.118-20.938-67.445-26.095-99.905-33.025c-54.939-11.732-138.394-29.846-188.556,5.27
				c-53.449,37.422,8.471,91.127,36.154,120.595c34.574,36.802,75.83,83.592,98.688,128.551
				c39.27,77.235,64.646,160.149,78.678,245.515c11.804,71.829-8.754,133.941-9.271,205.02c-0.138,19.195,0.92,79.38,25.278,86.133
				C2049.473,3932.609,2023.259,4036.213,2016.045,4056.848z"/>
			<path id="_x31_80609478_1_" fill="#54BF94" stroke="#000000" d="M1946.499,2829.745l0.207-1.666
				c-60.974-12.499-125.408-12.448-189.15-2.667c-149.705,22.973-281.08,131.746-273.697,297.413
				c2.313,51.849,9.738,95.832,21.17,136.218c44.354,12.156,104.213,27.02,152.09,28.643
				c63.306,2.139,128.105-18.235,193.679-16.589l8.422-0.374c-1.046-1.118-2.087-2.229-3.121-3.33
				c-27.683-29.467-89.602-83.172-36.154-120.596c20.176-14.123,45.738-19.632,72.664-20.412l-2.563-6.076
				C1852.041,3056.412,1917.356,2891.012,1946.499,2829.745z"/>
			<path id="_x31_80609474_1_" fill="#54BF94" stroke="#000000" d="M2017.376,2728.19c19.178-6.61,40.887-4.517,59.066-13.12
				c-55.193-18.122-118.689-14.07-175.912-13.021c-18.769,5.285-37.262,11.664-56.154,16.43
				c-94.25,23.787-188.904,44.192-285.218,62.226c-37.496,7.021-98.648,20.978-127.68,46.29
				c-89.527,78.083-140.43,248.527-99.088,362.035c5.346,14.677,24.563,76.226,44.686,67.381
				c24.523-10.778,14.301-90.014,16.352-110.747c21.615-218.576,125.596-310.673,347.032-350.62
				c52.149-9.408,102-33.053,153.727-40.666c11.559-1.699,23.095-3.412,34.58-5.29
				C1958.828,2744.174,1988.544,2738.129,2017.376,2728.19z"/>
			<path id="_x31_80609475_1_" fill="#54BF94" stroke="#000000" d="M1640.078,3816.928
				c63.551,27.155,103.873,115.035,173.371,125.717c62.07,9.541,146.543-110.707,209.394-50.313
				c66.566,63.966,4.18,168.439-64.499,202.545c-20.688,10.273-39.088,12.412-62.006,9.843c-16.27-1.825-41.517-8.899-56.437-15.454
				c-26.071-11.454-54.375-27.311-76.923-44.828c-62.322-48.415-109.58-112.622-165.939-167.259
				c-40.174-38.956-84.172-64.8-9.883-69.893C1605.406,3806.035,1623.33,3809.771,1640.078,3816.928z"/>
			<path id="_x31_80609477_1_" fill="#54BF94" stroke="#000000" d="M1657.119,3287.686c-47.877-1.623-107.736-16.486-152.09-28.642
				c23.725,83.825,64.717,152.142,113.117,243.027c28.883,54.237,50.871,120.256,75.072,181.569l2.662-3.559
				c56.174-81.88,218.846-111.267,305.705-142.525l7.683-3.205c-13.883-47.606-31.876-93.95-54.479-138.408
				c-22.176-43.615-61.662-88.95-95.567-125.221l-8.422,0.373C1785.226,3269.45,1720.426,3289.824,1657.119,3287.686z"/>
			<path id="_x31_80609479_1_" fill="#54BF94" stroke="#000000" d="M2161.926,3183.937c14.411,0.885,20.318,0.036,30.411-3.115
				c10.094-3.151,16.412-12.286,18.553-17.783c20.219-51.921,25.838-107.103,23.447-162.216
				c-2.862-65.99-28.4-132.868-94.156-158.336c-31.984-12.387-67.648-16.855-101.751-17.535
				c-17.746-0.352-35.727-1.503-53.416,0.506c-1.793,0.203-40.538,8.621-38.36,2.821c-32.551,86.736-96.086,198.439-56.607,292.029
				c0.001,0.004,2.563,6.077,2.563,6.077c40.02-1.16,83.051,8.13,115.894,15.144c25.353,5.413,55.498,9.743,80.404,21.354
				c0.009,0.005,0.019,0.009,0.028,0.014c0.554,0.259,1.099,0.529,1.646,0.794c0.441,0.214,0.886,0.421,1.323,0.64
				c0.127,0.063,0.251,0.132,0.378,0.194c5.73,2.886,11.15,6.191,16.125,10.031c0.141,0.108,0.285,0.226,0.427,0.338
				C2111.584,3177.051,2147.892,3183.076,2161.926,3183.937z"/>
			<path id="_x31_80609476_1_" fill="#54BF94" stroke="#000000" d="M1915.494,3869.579c31.407-7.383,67.332-23.099,108.813-49.036
				l0.937-0.597c4.144-60.385,18.535-115.728,8.222-178.488c-5.955-36.226-13.961-72.009-24.197-107.105l-7.683,3.206
				c-86.86,31.257-249.531,60.644-305.705,142.524l-2.661,3.559C1738.938,3799.459,1792.567,3898.472,1915.494,3869.579"/>
			<path id="_x31_80609473_1_" fill="#54BF94" stroke="#000000" d="M1874.89,4148.973c25.334,9.428,59.444,30.518,89.797,52.284
				c1.146-2.349,16.173-32.05,17.267-34.308c17.291-35.688,20.995-72.691,34.091-110.098c1.196-3.426,2.92-9.146,4.957-16.292
				c-17.028,23.276-39.481,42.806-62.658,54.315c-20.688,10.273-39.088,12.412-62.006,9.844
				c-16.27-1.826-41.517-8.899-56.437-15.455c-26.071-11.453-54.375-27.311-76.923-44.828
				c-62.322-48.414-109.58-112.621-165.939-167.259c-40.174-38.956-84.172-64.8-9.883-69.892c18.25-1.251,36.174,2.484,52.922,9.641
				c63.551,27.155,103.873,115.035,173.371,125.717c62.07,9.541,146.543-110.707,209.394-50.313
				c1.968,1.892,3.815,3.823,5.563,5.783c-4.015-19.297-4.285-41.353-4.213-51.639c0.08-10.977,0.64-21.74,1.482-32.359
				c-0.155,1.938-0.299,3.882-0.434,5.83l-0.937,0.597c-41.481,25.937-77.405,41.653-108.813,49.036
				c-122.926,28.892-176.556-70.12-222.273-185.938c-24.201-61.312-46.189-127.331-75.072-181.569
				c-48.402-90.885-89.393-159.201-113.117-243.026c-11.432-40.386-18.857-84.37-21.17-136.218
				c-7.383-165.668,123.99-274.441,273.697-297.414c63.742-9.78,128.176-9.832,189.15,2.668l-0.109,0.877
				c1.188,4.401,36.7-3.306,38.415-3.5c17.689-2.009,35.67-0.858,53.416-0.506c34.103,0.68,69.767,5.148,101.751,17.535
				c65.756,25.468,91.294,92.346,94.156,158.336c0.881,20.299,0.669,40.606-0.953,60.757c0.228-1.468,0.455-2.93,0.686-4.385
				c6.406-40.457,11.102-82.067,7.535-123.032c-2.259-25.844-0.354-72.554-17.291-93.178c-7.504-9.133-19.614-11.796-29.32-18.235
				c-14.879-9.866-26.531-22.196-37.311-35.105c-22.883-27.395-41.126-59.597-79.719-72.175c-2.134-0.695-4.328-1.354-6.566-1.984
				c1.69,0.51,3.371,1.037,5.045,1.587c-18.179,8.604-39.887,6.51-59.065,13.12c-28.832,9.938-58.547,15.982-88.608,20.896
				c-11.485,1.877-23.022,3.59-34.58,5.289c-51.728,7.613-101.578,31.259-153.728,40.666
				c-221.434,39.947-325.417,132.045-347.032,350.62c-2.051,20.734,8.172,99.97-16.352,110.747
				c-20.123,8.846-39.34-52.704-44.686-67.381c-7.689-21.114-12.184-44.201-13.836-68.295c-1.934,38.751-1.178,76.993,0.891,112.616
				c5.43,93.523,16.258,264.477,142.873,527.291C1585.71,4016.774,1756.468,4104.9,1874.89,4148.973z"/>
			<path id="_x31_80609500_1_" fill="#CCCCCC" stroke="#000000" d="M2039.452,3380.54c14.17,25.384,26.934,51.946,41.239,77.524
				c30.806,55.077,53.656,108.96,49.243,173.332c-1.364,19.89-5.471,39.343-7.504,59.128
				c-5.898,57.223-24.794,111.444-38.479,166.893c-4.365,17.679-10.168,35.189-15.179,52.552c-1.862,6.448-9.98,25.224-19.3,22.642
				c-24.359-6.753-25.416-66.938-25.279-86.133c0.517-71.079,21.075-133.191,9.271-205.02
				c-14.032-85.366-39.408-168.28-78.678-245.515c-22.858-44.959-64.114-91.749-98.688-128.551
				c-27.683-29.467-89.602-83.172-36.155-120.596c50.164-35.115,133.617-17,188.557-5.269c32.469,6.93,72.796,12.087,99.914,33.033
				c10.247,7.915,28.628,26.942,11.684,37.81c-12.184,7.827-32.799,5.237-46.709,7.133c-23.432,3.203-50.412-4.098-72.998,3.931
				c-22.123,7.866-19.8,30.12-10.933,56.876C2002.296,3319.049,2031.246,3365.848,2039.452,3380.54z"/>
			<path id="_x31_80609501_1_" fill="#CCCCCC" stroke="#000000" d="M1558.142,4116.736
				c-73.021-71.198-149.924-153.596-203.436-240.932c-50.994-83.22-78.742-159.388-104.119-251.904
				c-25.762-93.888-66.873-181.029-78.621-278.67c-23.035-191.445,17.18-372.119,135.854-526.547
				c74.264-96.631,197.939-109.268,309.119-133.877c75.764-16.783,162.897-32.888,232.078-67.883
				c54.771-27.708,148.245-35.753,202.887-3.364c44.491,26.36-19.671,61.089-44.692,69.546c-27.538,9.311-53.382,7.236-81.631,12.82
				c-27.578,5.462-53.979,15.687-81.203,22.553c-94.25,23.787-188.903,44.192-285.219,62.226
				c-37.494,7.021-98.648,20.978-127.678,46.29c-108.678,94.783-119.967,269.801-112.033,406.355
				c5.43,93.524,16.258,264.478,142.871,527.291c123.393,256.134,294.15,344.26,412.574,388.33
				c49.422,18.39,91.574,49.045,44.445,109.852c-33.945,43.797-65.574,67.395-116.215,43.771
				C1704.344,4256.514,1623.433,4180.408,1558.142,4116.736z"/>
			<path id="_x31_80609499_1_" fill="#AAAAAA" stroke="#000000" d="M2135.808,3454.539c-0.541,16.266,2.654,34.284-2.389,49.615
				c-34.26,15.652-86.827-114.48-97.897-134.675c-12.247-22.352-84.81-129.746-34.63-145.561
				c38.842-12.239,83.06,3.519,120.184-13.071c18.888-8.432,64.428-54.295,73.908-11.265c6.793,30.888-17.518,78.041-26.676,106.951
				C2152.065,3357.819,2137.624,3399.994,2135.808,3454.539z"/>
		</g>
	</g>
</g>
</svg>
