<?xml version="1.0" encoding="utf-8"?>
<!-- Generator: Adobe Illustrator 16.0.0, SVG Export Plug-In . SVG Version: 6.00 Build 0)  -->
<!DOCTYPE svg PUBLIC "-//W3C//DTD SVG 1.1//EN" "http://www.w3.org/Graphics/SVG/1.1/DTD/svg11.dtd">
<svg version="1.1" id="Layer_1" xmlns="http://www.w3.org/2000/svg" xmlns:xlink="http://www.w3.org/1999/xlink" x="0px" y="0px"
	 width="5296px" height="5472px" viewBox="0 0 5296 5472" enable-background="new 0 0 5296 5472" xml:space="preserve">
<g>
	<g id="_x31_80609119" transform=" scale(1.0, 1.0)">
		<path id="_x31_80609121" fill="#BFDAE3" stroke="#000000" d="M4463.676,1911.045c79.007,233.983,60.203,402.984,37.339,616.938
			c-17.092,159.885-77.72,329.074-108.012,425c-65.706,208.039-163.158,338.816-251.006,536.205
			c-83.506,187.645-204.666,411.896-343.868,561.395c-115.162,123.672-240.205,280.766-426.583,287.594
			c-231.884,8.5-519.604-177.492-640.788-372.393c-142.156-228.625-136.548-513.58-136.698-773.537
			c-0.131-231.766-28.479-450.371-8.533-684.984c21.303-250.568,64.142-500.309,129.052-743.27
			c56.377-211.029,135.55-456.898,336.013-576.143c213.688-127.085,485.234-5.609,677.807,103.937
			c143.475,81.62,306.766,132.913,442.229,227.608C4320.519,1624.184,4412.589,1759.741,4463.676,1911.045z"/>
		<path id="_x31_80609122" fill="#B0FFB8" stroke="#000000" d="M4463.674,1911.03c-51.084-151.297-143.152-286.857-293.042-391.641
			c-135.467-94.693-298.75-145.987-442.227-227.604c-192.57-109.546-464.111-231.021-677.806-103.937
			c-200.461,119.233-279.633,365.106-336.01,576.127c-64.907,242.963-107.75,492.705-129.049,743.264
			c-19.946,234.613,8.394,453.215,8.53,684.979c0.144,259.951-5.461,544.906,136.691,773.525
			c121.185,194.898,408.901,380.891,640.786,372.389c186.37-6.828,311.419-163.92,426.579-287.59
			c139.203-149.498,260.356-373.744,343.868-561.385c87.845-197.387,185.299-328.162,251.002-536.199
			c30.291-95.926,90.926-265.109,108.018-424.996C4523.879,2314.013,4542.684,2145.018,4463.674,1911.03z M3636.884,2377.098
			c-35.109,52.494-54.867,112.641-66.645,174.562c-5.417,28.501-9.385,56.333-17.348,83.92
			c-9.619,33.338-16.576,64.281-21.76,97.984c-2.864,18.611-27.629,50.128-36.654,17.712c-1.051-3.766-1.664-8.348-1.945-13.502
			c3.99-31.525,6.832-63.31,9.517-95.123c0.024-0.182,0.052-0.375,0.075-0.555c4.225-32.556,7.039-64.754,8.796-96.591
			c0.384-3.503,0.767-7.006,1.174-10.502c2.191-18.852,1.938-37.698,1.083-56.571c0.553-41.451-0.337-82.256-1.888-122.397
			c-1.868-48.379-10.32-94.152-23.786-139.836c-0.243-0.821-0.574-1.818-0.958-2.937c-1.905-7.154-3.907-14.314-6.01-21.486
			c-2.284-7.783-4.597-15.556-6.912-23.326c-0.803-7.687,0.042-14.151,3.973-17.441c12.411-10.394,25.297,19.88,32.762,27.379
			c36.536,36.732,67.967,48.347,117.527,55.931c24.715,3.785,73.826,2.286,78.082,36.181
			C3710.006,2302.638,3654.422,2350.88,3636.884,2377.098z"/>
		<path id="_x31_80609123" fill="#9AD2BD" stroke="#000000" d="M4463.674,1911.03c-51.084-151.297-143.152-286.857-293.042-391.641
			c-135.467-94.693-298.75-145.987-442.227-227.604c-192.57-109.546-464.111-231.021-677.806-103.937
			c-200.461,119.233-279.633,365.106-336.01,576.127c-64.907,242.963-107.75,492.705-129.049,743.264
			c-19.946,234.613,8.394,453.215,8.53,684.979c0.144,259.951-5.461,544.906,136.691,773.525
			c121.185,194.898,408.901,380.891,640.786,372.389c186.37-6.828,311.419-163.92,426.579-287.59
			c139.203-149.498,260.356-373.744,343.868-561.385c87.845-197.387,185.299-328.162,251.002-536.199
			c30.291-95.926,90.926-265.109,108.018-424.996C4523.879,2314.013,4542.684,2145.018,4463.674,1911.03z M3636.884,2377.098
			c-35.109,52.494-54.867,112.641-66.645,174.562c-5.417,28.501-9.385,56.333-17.348,83.92
			c-9.619,33.338-16.576,64.281-21.76,97.984c-2.864,18.611-27.629,50.128-36.654,17.712c-1.051-3.766-1.664-8.348-1.945-13.502
			c3.99-31.525,6.832-63.31,9.517-95.123c0.024-0.182,0.052-0.375,0.075-0.555c4.225-32.556,7.039-64.754,8.796-96.591
			c0.384-3.503,0.767-7.006,1.174-10.502c2.191-18.852,1.938-37.698,1.083-56.571c0.553-41.451-0.337-82.256-1.888-122.397
			c-1.868-48.379-10.32-94.152-23.786-139.836c-0.243-0.821-0.574-1.818-0.958-2.937c-1.905-7.154-3.907-14.314-6.01-21.486
			c-2.284-7.783-4.597-15.556-6.912-23.326c-0.803-7.687,0.042-14.151,3.973-17.441c12.411-10.394,25.297,19.88,32.762,27.379
			c36.536,36.732,67.967,48.347,117.527,55.931c24.715,3.785,73.826,2.286,78.082,36.181
			C3710.006,2302.638,3654.422,2350.88,3636.884,2377.098z"/>
		<path id="_x31_80609124" fill="#9AD2BD" stroke="#000000" d="M4463.674,1911.03c-51.084-151.297-143.152-286.857-293.042-391.641
			c-51.276-35.846-106.543-65.471-163.215-92.878c0,0,41.658,71.72,60.392,118.109c48.793,120.786,77.666,264.86,13.98,390.215
			c-58.296,114.735-193.114,175.224-310.921,203.185c-98.384,23.317-231.153,33.307-285.157-72.278
			c-19.526-38.175-26.229-86.662-30.677-128.818c-11.655-110.5-15.701-236.903-7.652-347.716
			c2.186-30.117,4.582-62.026,9.251-91.863c8.355-53.18,21.336-107.711,44.884-156.443c9.538-19.73,21.696-38.532,31.915-57.717
			c8.783-16.49,51.243-65.705,51.243-65.705c-170.683-77.967-369.535-127.486-534.075-29.626
			c-200.461,119.233-279.633,365.102-336.008,576.125c-64.909,242.962-107.752,492.706-129.051,743.264
			c-19.945,234.614,8.402,453.216,8.531,684.978c0.15,259.953-5.462,544.904,136.691,773.523
			c121.191,194.9,408.91,380.891,640.785,372.389c186.38-6.83,311.419-163.916,426.579-287.59
			c139.203-149.494,260.367-373.744,343.869-561.385c87.852-197.389,185.299-328.162,251.009-536.199
			c30.291-95.926,90.917-265.109,108.01-424.996C4523.879,2314.013,4542.684,2145.018,4463.674,1911.03z M3636.884,2377.098
			c-35.109,52.494-54.867,112.641-66.645,174.562c-5.417,28.501-9.385,56.333-17.348,83.92
			c-9.619,33.338-16.576,64.281-21.76,97.984c-2.864,18.611-27.629,50.128-36.654,17.712c-1.051-3.766-1.664-8.348-1.945-13.502
			c3.99-31.525,6.832-63.31,9.517-95.123c0.024-0.182,0.052-0.375,0.075-0.555c4.225-32.556,7.039-64.754,8.796-96.591
			c0.384-3.503,0.767-7.006,1.174-10.502c2.191-18.852,1.938-37.698,1.083-56.571c0.553-41.451-0.337-82.256-1.888-122.397
			c-1.868-48.379-10.32-94.152-23.786-139.836c-0.243-0.821-0.574-1.818-0.958-2.937c-1.905-7.154-3.907-14.314-6.01-21.486
			c-2.284-7.783-4.597-15.556-6.912-23.326c-0.803-7.687,0.042-14.151,3.973-17.441c12.411-10.394,25.297,19.88,32.762,27.379
			c36.536,36.732,67.967,48.347,117.527,55.931c24.715,3.785,73.826,2.286,78.082,36.181
			C3710.006,2302.638,3654.422,2350.88,3636.884,2377.098z"/>
		<path id="_x31_80609129" fill="#82C7AE" stroke="#000000" d="M2916.212,3130.101c3.232,18.225,10.785,22.838,23.109,40.5
			c15.068,21.605,26.296,47.377,30.569,75.506c1.632,10.736,5.244,24.176,1.438,34.965c-1.614,4.574-16.498,20.648-16.519,21.352
			c-2.333,56.117,52.189,102.797,84.325,142.373c24.221,29.855,17.712,62.223,34.871,94.732
			c9.013,17.084,23.319,28.842,31.957,45.709c9.065,17.695,4.414,35.236,12.658,52.813c9.23,19.684,26.61,23.678,41.967,40.607
			c16.154,17.809,26.571,42.641,30.64,66.631c8.488,50-2.354,101.041,30.313,143.816c8.302,10.887,100.896,109.807,78.386,124.734
			c35.136-23.238,46.963,40.156,76.348,48.953c18.859,5.645,36.108-1.617,56.611,6.969c18.038,7.566,27.374,24.365,49.58,14.598
			c16.848-7.414,26.708-32.377,39.792-44.662c22.346-20.984,22.943-14.229,48.312-13.002c29.243,1.406,24.344,7.246,43.521-17.727
			c11.619-15.129,16.365-29.99,33.822-41.764c23.606-15.926,33.3-3.158,55.27-9.467c20.92-6.006,20.667-18.891,31.667-36.643
			c14.61-23.605,39.594-35.625,57.241-56.207c16.706-19.469,26.11-44.189,38.848-66.121c27.181-46.805,79.656-39.371,118.256-70.037
			c34.741-27.584,51.528-68.754,67.265-108.953c13.839-35.346,38.193-66.988,48.543-103.412
			c13.188-46.461,12.579-93.426,27.829-139.029c26.935-80.535,25.402-170.695,61.879-249.154
			c17.624-37.904,34.325-50.621,26.643-95.738c-3.029-17.76-14.566-34.305-16.974-51.053c-3.329-23.242,14.901-35.551,13.707-56.9
			c-1.219-21.445-21.376-30.176-17.65-55.563c3.677-25.127,20.298-24.516,30.519-41.615c12.741-21.328,2.736-38.723,5.736-62.473
			c3.149-24.947,16.579-35.847,28.745-55.47c21.481-34.656-6.078-71.301,22.035-101.807c20.619-22.382,72.841-50.757,102.449-58.776
			c1.86-26.312,3.844-39.949,14.764-63.187c10.333-21.972,18.948-29.105,14.108-56.372c-8.433-47.414-2.724-77.312,20.446-118.388
			c20.135-35.695,43.16-74.801,43.135-117.014c-0.025-53.29-32.489-99.23-29.924-153.796c2.5-53.071,14.06-107.422,1.343-160.337
			c-11.271-46.841-53.611-85.885-51.288-136.345c55.501,29.131,82.286,111.853,101.167,167.681
			c79.003,233.987,60.205,402.985,37.332,616.933c-17.093,159.886-77.719,329.069-108.01,424.993
			c-65.709,208.039-163.157,338.813-251.009,536.201c-83.502,187.641-204.666,411.887-343.869,561.387
			c-81.814,87.867-166.848,198.586-277.974,251.123c-117.271,55.451-289.022-57.799-333.144-163.588
			c-90.528-217.07-138.913-315.379-261.718-479.342c-66.479-88.748-139.326-252.773-178.031-356.342
			c-62.152-166.295-46.938-247.605-73.018-422.168c-25.188-168.605-62.81-403.375-47.685-573.756
			c16.165-182.075,40.944-366.21,88.042-542.496c56.376-211.024,135.547-456.892,336.008-576.126
			c96.024-57.113,203.746-63.997,311.79-42.857c28.627,5.604,56.024,10.178,84.134,18.396c15.295,4.472,23.459,14.415,2.56,17.845
			c-9.403,1.54-27.45,0.484-35.06,6.41c-9.963,7.772,0.624,21.8-8.393,31.879c-25.322,28.276-67.597,1.367-93.581-8.065
			c-32.542-11.812-75.785-3.83-107.587,6.642c-18.251,6.009-36.078,14.186-51.016,26.491
			c-25.447,20.981-27.399,46.429-39.314,76.397c-17.533,44.067-64.611,67.88-89.012,107.205
			c-23.08,37.191-1.884,80.006-26.038,115.638c-11.441,16.874-28.269,26.204-30.63,46.032c-2.803,23.51,11.383,42.813,1.423,70.655
			c-6.255,17.489-25.417,35.576-28.543,53.481c-3.747,21.521,11.472,44.578,5.955,68.228c-4.23,18.104-19.689,31.394-23.876,49.64
			c-5.529,24.157,2.829,38.092-6.492,60.3c-13.388,31.886-35.028,62.939-37.968,98.225c-3.359,40.313,15.403,63.187-7.473,101.959
			c-22.746,38.571-29.248,47.647-9.44,87.833c13.612,27.629,24.578,55.593,14.234,86.921c-5.007,15.162-18.973,25.189-24.688,39.375
			c-9.23,22.915-6.371,10.749-0.273,32.824c13.791,49.882,17.659,84.371,11.732,135.328c-5.355,46.07,10.412,90.922,7.361,136.913
			c-1.475,22.271-12.492,53.627-9.635,74.908c3.22,24.031,20.529,33.02,34.224,52.083c36.895,51.377,20.701,105.223-3.27,157.979
			c-27.474,60.467,7.178,87.953,21.847,146.896c5.939,23.887-0.16,48.299,1.131,72.416
			C2914.995,3121.429,2915.497,3126.093,2916.212,3130.101z"/>
		<path id="_x31_80609125" fill="#82C7AE" stroke="#000000" d="M4119.216,1797.907c1.775-18.275-0.647-36.681-1.477-55.061
			c-0.54-11.991-17.18-97.972-22.169-118.095c30.812,0.107,61.92,61.33,73.19,75.462c11.843,14.844,17.747,33.302,27.163,49.804
			c20.632,36.152,33.607,75.919,42.225,116.512c9.321,43.897,14.604,88.94,15.412,133.808
			c2.74,151.747-56.683,270.748-143.487,389.066c-61.068,83.249-129.416,240.959-148.01,340.754
			c-21.416,114.962-31.652,186.029-31.737,295.88c-0.091,119.248,5.717,249.482-36.698,365.721
			c-51.976,142.422-240.323,342.406-404.803,264.516c-121.242-57.42-185.6-242.236-211.209-361.756
			c-28.404-132.619-55.439-256.555-50.425-391.611c5.82-156.541,15.523-328.368,5.846-483.403
			c-6.065-97.181-25.258-169.707-45.247-264.888c-15.643-74.51-35.384-164.823-33.676-248.038
			c1.489-72.316,16.472-129.649,29.654-200.777c22.261-120.177,106.729-303.028,238.682-324.744
			c76.354-12.551,40.562,77.401,33.141,122.934c-9.664,59.182-9.019,156.399-12.289,219.447c-0.65,12.448,0.867,10.521,0.286,25.266
			c-45.845,100.304-15.338,254.563,17.278,377.888c19.452,73.57,46.426,131.153,50.243,224.925
			c3.176,78.029,3.271,154.88-3.024,233.002c-3.563,44.199-10.448,89.765-14.773,133.699
			c-11.14,112.955-57.689,215.031-53.52,329.361c1.55,42.574,22.424,113.199,62.956,139.475
			c18.265,11.844,43.284,24.23,67.536,4.365c78.819-64.531,67.986-252.793,74.227-333.41c5.767-74.443,1.582-154.554,17.342-234.353
			c15.034-76.128,19.69-131.702,50.326-199.753c51.494-114.407,155.227-205.297,218.921-313.628
			c36.922-62.804,19.901-39.76,74.668-82.965c70.283-55.454,89.512-111.798,105.599-181.257
			C4115.034,1830.166,4117.641,1814.089,4119.216,1797.907z"/>
		<path id="_x31_80609126" fill="#9AD2BD" stroke="#000000" d="M3393.057,1374.387c-0.585,0.261-1.176,0.52-1.771,0.775
			c-0.284,0.121-0.566,0.242-0.852,0.363c-0.603,0.254-1.21,0.506-1.823,0.756c-0.253,0.104-0.503,0.207-0.755,0.31
			c-1.726,0.695-3.484,1.373-5.267,2.034c-0.267,0.1-0.538,0.198-0.808,0.297c-0.638,0.234-1.278,0.467-1.925,0.698
			c-0.303,0.107-0.603,0.216-0.906,0.322c-0.65,0.23-1.306,0.458-1.962,0.685c-0.264,0.091-0.53,0.186-0.794,0.274
			c-1.835,0.629-3.683,1.241-5.541,1.843c-0.28,0.09-0.563,0.182-0.846,0.271c-0.662,0.213-1.323,0.425-1.987,0.635
			c-0.311,0.097-0.62,0.195-0.931,0.294c-0.673,0.21-1.346,0.421-2.02,0.629c-0.269,0.083-0.536,0.165-0.804,0.249
			c-1.868,0.575-3.734,1.14-5.594,1.698c-0.292,0.088-0.586,0.176-0.879,0.263c-0.66,0.197-1.32,0.395-1.978,0.589
			c-0.311,0.093-0.619,0.186-0.93,0.275c-0.704,0.21-1.406,0.417-2.105,0.624c-0.231,0.068-0.463,0.137-0.693,0.205
			c-0.908,0.268-1.813,0.534-2.71,0.801c-0.851,0.252-1.696,0.5-2.536,0.749c-0.259,0.077-0.516,0.154-0.774,0.23
			c-0.641,0.189-1.279,0.38-1.914,0.57c-0.297,0.087-0.591,0.178-0.886,0.264c-0.626,0.188-1.245,0.376-1.863,0.562
			c-0.26,0.079-0.521,0.156-0.779,0.235c-1.715,0.521-3.396,1.038-5.032,1.555c-0.238,0.077-0.474,0.151-0.711,0.227
			c-0.574,0.183-1.144,0.367-1.707,0.549c-0.275,0.089-0.55,0.179-0.821,0.267c-0.551,0.182-1.094,0.361-1.634,0.542
			c-0.238,0.081-0.48,0.161-0.718,0.241c-1.517,0.514-2.983,1.03-4.39,1.547c-0.217,0.081-0.426,0.161-0.641,0.241
			c-0.488,0.183-0.973,0.366-1.445,0.55c-0.231,0.09-0.461,0.181-0.687,0.27c-0.47,0.185-0.926,0.369-1.378,0.557
			c-0.197,0.081-0.396,0.16-0.589,0.241c-0.63,0.266-1.247,0.529-1.842,0.797c-0.592,0.267-1.161,0.534-1.715,0.803
			c-0.17,0.083-0.335,0.166-0.503,0.249c-0.381,0.19-0.757,0.382-1.119,0.574c-0.181,0.096-0.357,0.189-0.532,0.284
			c-0.352,0.191-0.69,0.385-1.022,0.579c-0.148,0.088-0.301,0.175-0.446,0.263c-0.461,0.277-0.906,0.559-1.323,0.841
			c-39.016,26.442-72.321,82.541-95.559,122.381c-48.908,83.841-66.68,144.543-84.966,249.268
			c-28.264,161.877-7.171,341.588,13.463,500.531c6.718,51.743,21.516,101.001,28.439,153.137
			c14.488,109.145,13.222,198.094,7.224,307.483c-2.127,38.648-36.201,188.292-25.788,282.56
			c20.464,185.125,98.129,424.355,188.298,579.709c42.615,73.408,73.031,129.158,123.582,150.705
			c39.321,16.76,106.321,2.762,161.392-17.377c85.385-31.219,198.964-115.852,255.765-200.424
			c44.345-66.029,73.305-186.838,86.671-347.15c13.244-158.91-10.95-296.813,13.773-399.791
			c13.257-55.167,37.069-125.38,75.141-199.663c43.846-85.559,103.315-175.235,133.164-232.559
			c57.868-111.154,78.663-140.016,97.423-265.767c18.694-125.365-24.388-264.968-96.409-365.575
			c-0.961-1.342-1.942-2.676-2.934-4.009c-0.34-0.453-0.688-0.907-1.032-1.359c-0.661-0.875-1.324-1.751-2-2.621
			c-0.415-0.536-0.836-1.07-1.256-1.605c-0.617-0.786-1.235-1.573-1.862-2.356c-0.449-0.563-0.905-1.123-1.358-1.684
			c-0.613-0.759-1.229-1.515-1.849-2.27c-0.468-0.567-0.938-1.133-1.408-1.699c-0.622-0.748-1.248-1.494-1.878-2.24
			c-0.476-0.565-0.952-1.129-1.431-1.693c-0.646-0.755-1.291-1.51-1.941-2.265c-0.469-0.544-0.937-1.09-1.409-1.634
			c-0.688-0.791-1.378-1.581-2.07-2.37c-0.441-0.504-0.882-1.008-1.324-1.511c-0.782-0.885-1.568-1.77-2.355-2.655
			c-0.356-0.402-0.712-0.805-1.071-1.206c-1.148-1.286-2.301-2.572-3.457-3.857c-0.097-0.105-0.193-0.212-0.289-0.32
			c-1.088-1.207-2.18-2.413-3.272-3.622c-0.364-0.402-0.731-0.806-1.097-1.21c-1.387-1.529-2.775-3.059-4.166-4.59
			c-0.409-0.452-0.818-0.903-1.229-1.354c-0.673-0.742-1.346-1.485-2.02-2.23c-0.566-0.624-1.134-1.25-1.697-1.875
			c-0.619-0.683-1.233-1.368-1.852-2.053c-0.574-0.638-1.148-1.275-1.721-1.913c-0.597-0.666-1.195-1.333-1.79-2
			c-0.232-0.26-0.468-0.519-0.698-0.779c-0.157-0.175-0.311-0.353-0.467-0.528c-1.822-2.046-3.639-4.099-5.435-6.163
			c13.998,17.698,25.45,38.057,31.363,45.471c11.844,14.842,17.748,33.299,27.164,49.802c20.632,36.15,33.607,75.914,42.225,116.505
			c9.32,43.895,15.565,88.927,15.41,133.801c-0.562,164.134-54.35,266.729-143.489,389.047
			c-60.8,83.44-129.415,240.949-148.002,340.736c-21.425,114.957-31.662,186.021-31.75,295.867
			c-0.089,119.24,5.719,249.469-36.697,365.701c-51.969,142.414-240.314,342.395-404.795,264.504
			c-121.242-57.416-185.599-242.219-211.208-361.736c-28.404-132.609-55.444-256.539-50.422-391.586
			c5.811-156.533,15.517-328.35,5.84-483.382c-6.066-97.171-25.258-169.695-45.246-264.872
			c-15.642-74.506-35.385-164.818-33.673-248.024c1.489-72.313,16.471-129.646,29.646-200.767c0.326-1.772,0.671-3.559,1.025-5.357
			c0.014-0.066,0.026-0.133,0.039-0.2c0.347-1.748,0.707-3.511,1.078-5.281c0.024-0.119,0.049-0.236,0.073-0.355
			c0.363-1.727,0.74-3.464,1.127-5.212c0.038-0.172,0.074-0.342,0.113-0.514c0.382-1.718,0.778-3.445,1.184-5.183
			c0.046-0.199,0.093-0.397,0.14-0.597c0.402-1.715,0.816-3.439,1.243-5.173c0.056-0.227,0.109-0.453,0.166-0.679
			c0.425-1.72,0.859-3.448,1.307-5.183c0.062-0.239,0.123-0.479,0.185-0.719c0.447-1.726,0.903-3.459,1.37-5.199
			c0.068-0.254,0.137-0.509,0.207-0.764c0.468-1.737,0.948-3.481,1.439-5.231c0.072-0.256,0.145-0.512,0.217-0.769
			c0.495-1.754,0.998-3.513,1.514-5.278c0.075-0.257,0.15-0.515,0.226-0.772c0.52-1.773,1.051-3.552,1.592-5.334
			c0.076-0.246,0.15-0.491,0.225-0.736c0.55-1.802,1.109-3.608,1.682-5.419c0.07-0.227,0.144-0.453,0.215-0.68
			c0.579-1.833,1.17-3.67,1.771-5.509c0.066-0.205,0.135-0.41,0.202-0.613c0.611-1.864,1.232-3.732,1.868-5.605
			c0.06-0.178,0.122-0.356,0.185-0.535c0.646-1.902,1.302-3.808,1.972-5.716c0.049-0.139,0.099-0.278,0.146-0.416
			c0.688-1.955,1.384-3.909,2.097-5.868c0.027-0.078,0.055-0.154,0.084-0.233c1.475-4.056,2.998-8.123,4.575-12.195
			c0.021-0.054,0.042-0.108,0.062-0.162c0.77-1.987,1.555-3.976,2.349-5.964c0.046-0.117,0.093-0.234,0.14-0.351
			c0.774-1.939,1.564-3.88,2.362-5.819c0.068-0.165,0.136-0.331,0.205-0.497c0.786-1.905,1.586-3.811,2.396-5.714
			c0.083-0.195,0.165-0.392,0.249-0.586c0.799-1.877,1.61-3.752,2.431-5.626c0.1-0.226,0.197-0.452,0.297-0.677
			c0.812-1.849,1.636-3.694,2.47-5.54c0.111-0.247,0.223-0.496,0.336-0.744c0.828-1.829,1.669-3.655,2.519-5.479
			c0.12-0.261,0.242-0.521,0.364-0.781c0.848-1.814,1.707-3.626,2.575-5.435c0.128-0.265,0.256-0.528,0.381-0.791
			c0.871-1.808,1.753-3.61,2.646-5.412c0.127-0.26,0.258-0.521,0.388-0.781c0.897-1.805,1.803-3.605,2.721-5.401
			c0.127-0.25,0.255-0.499,0.384-0.747c0.924-1.806,1.858-3.605,2.804-5.401c0.124-0.234,0.249-0.469,0.373-0.704
			c0.955-1.808,1.922-3.612,2.897-5.41c0.115-0.213,0.232-0.425,0.347-0.638c0.991-1.817,1.991-3.63,3.002-5.435
			c0.104-0.186,0.207-0.37,0.312-0.554c1.029-1.833,2.068-3.658,3.12-5.478c0.082-0.145,0.166-0.287,0.25-0.43
			c1.075-1.859,2.165-3.712,3.263-5.555c0.051-0.086,0.104-0.172,0.154-0.259c1.134-1.897,2.279-3.785,3.436-5.663
			c0.012-0.02,0.022-0.038,0.035-0.057c1.172-1.902,2.354-3.792,3.55-5.671c0.025-0.039,0.049-0.078,0.073-0.116
			c1.171-1.84,2.354-3.668,3.548-5.486c0.066-0.1,0.133-0.202,0.197-0.302c1.162-1.766,2.335-3.52,3.518-5.265
			c0.102-0.15,0.203-0.302,0.307-0.452c1.159-1.704,2.328-3.396,3.509-5.078c0.13-0.185,0.256-0.369,0.387-0.553
			c1.163-1.652,2.336-3.293,3.519-4.925c0.149-0.204,0.299-0.412,0.448-0.619c1.172-1.609,2.355-3.205,3.546-4.793
			c0.165-0.218,0.327-0.438,0.491-0.655c1.185-1.57,2.381-3.127,3.581-4.673c0.178-0.228,0.354-0.455,0.532-0.683
			c1.198-1.532,2.406-3.053,3.622-4.559c0.188-0.231,0.374-0.464,0.562-0.694c1.218-1.501,2.442-2.989,3.68-4.464
			c0.188-0.227,0.379-0.451,0.567-0.677c1.241-1.473,2.49-2.935,3.749-4.38c0.188-0.217,0.378-0.432,0.569-0.647
			c1.267-1.45,2.544-2.887,3.83-4.307c0.18-0.199,0.362-0.399,0.543-0.597c1.301-1.43,2.609-2.844,3.928-4.242
			c0.172-0.182,0.345-0.364,0.518-0.545c1.334-1.407,2.678-2.803,4.032-4.179c0.156-0.158,0.313-0.314,0.469-0.471
			c1.377-1.396,2.764-2.773,4.161-4.133c0.129-0.125,0.257-0.249,0.386-0.371c1.429-1.388,2.869-2.757,4.317-4.105
			c0.091-0.084,0.184-0.167,0.274-0.252c1.491-1.383,2.992-2.748,4.504-4.089c0.042-0.036,0.082-0.071,0.123-0.106
			c1.532-1.358,3.077-2.695,4.631-4.01c0.037-0.031,0.072-0.062,0.106-0.093c1.54-1.3,3.091-2.575,4.649-3.832
			c0.092-0.074,0.184-0.148,0.275-0.224c1.518-1.218,3.045-2.411,4.582-3.586c0.138-0.105,0.275-0.212,0.411-0.317
			c1.506-1.145,3.021-2.266,4.544-3.368c0.175-0.126,0.346-0.253,0.519-0.378c1.5-1.078,3.01-2.136,4.527-3.173
			c0.202-0.137,0.401-0.275,0.604-0.413c1.502-1.019,3.015-2.015,4.534-2.991c0.22-0.142,0.439-0.284,0.657-0.425
			c1.511-0.964,3.031-1.903,4.559-2.824c0.234-0.141,0.468-0.282,0.702-0.422c1.522-0.908,3.053-1.794,4.592-2.659
			c0.245-0.138,0.49-0.275,0.736-0.412c1.537-0.856,3.084-1.691,4.641-2.502c0.248-0.129,0.496-0.259,0.744-0.387
			c1.561-0.807,3.128-1.59,4.705-2.351c0.248-0.119,0.495-0.236,0.742-0.354c1.586-0.756,3.178-1.489,4.781-2.197
			c0.241-0.106,0.485-0.212,0.728-0.317c1.616-0.707,3.238-1.391,4.871-2.047c0.229-0.093,0.46-0.183,0.688-0.273
			c1.652-0.657,3.313-1.291,4.983-1.896c0.209-0.077,0.418-0.148,0.626-0.223c1.698-0.608,3.403-1.194,5.12-1.748
			c0.179-0.057,0.355-0.11,0.534-0.168c1.75-0.561,3.512-1.094,5.279-1.598c0.138-0.038,0.274-0.074,0.411-0.112
			c1.815-0.51,3.64-0.993,5.475-1.441c0.021-0.005,0.042-0.012,0.064-0.016l-14.134-10.725c-0.797,0.381-1.608,0.754-2.428,1.124
			C3393.555,1374.168,3393.305,1374.277,3393.057,1374.387z"/>
		<path id="_x31_80609127" fill="#82C7AE" stroke="#000000" d="M3422.105,1340.312c-8.829-54.1-104.21-3.55-147.123,45.94
			c-92.113,106.233-126.999,169.613-158.137,277.979c-63.913,222.449-29.189,474.217,11.457,685.317
			c12.346,64.118,23.305,121.642,22.805,186.216c-1.643,213.295-57.413,373.314-25.445,587.291
			c11.949,79.975,27.366,117.432,53.031,218.031c34.127,133.783,95.669,219.842,180.743,370.143
			c20.393,36.031,60.045,88.152,93.437,95.457c128.063,28.014,343.7-105.461,424.031-215.031
			c77.267-105.371,118.392-183.701,126.529-308.42c8.729-133.721,11.114-300.924,35.942-430.072
			c20.538-106.816,31.55-184.318,61.551-260.387c20.663-52.356,40.285-90.4,86.002-151.375
			c35.459-47.284,53.729-92.849,80.473-145.881c72.193-143.154,57.292-247.638,49.491-361.089
			c-5.932-86.309-46.384-198.189-98.408-255.41c-19.523-21.481-41.241-35.993-70.091-66.426
			c-24.316-25.647-50.813-56.706-56.809-29.52c18.465,53.35,70.029,92.431,102.187,137.342
			c72.021,100.615,115.104,240.224,96.41,365.596c-18.757,125.762-39.554,154.621-97.429,265.781
			c-29.84,57.325-89.311,147.008-133.154,232.57c-38.078,74.285-61.891,144.498-75.14,199.673
			c-24.729,102.982-0.536,240.893-13.78,399.811c-13.363,160.32-42.316,281.133-86.661,347.164
			c-56.808,84.58-170.387,169.219-255.77,200.438c-55.072,20.135-122.07,34.135-161.386,17.373
			c-50.551-21.549-80.974-77.301-123.582-150.713c-90.175-155.359-167.843-394.605-188.299-579.74
			c-10.419-94.268,23.661-243.924,25.778-282.572c6.006-109.398,7.272-198.348-7.225-307.501
			c-6.923-52.138-21.714-101.396-28.432-153.147c-20.634-158.946-41.729-338.671-13.466-500.557
			c18.286-104.729,36.057-165.436,84.966-249.276c23.243-39.847,56.54-95.943,95.559-122.392
			C3335.489,1387.104,3428.37,1378.648,3422.105,1340.312z"/>
		<path id="_x31_80609128" fill="#9AD2BD" stroke="#000000" d="M3455.463,1753.588c4.07-56.833,10.152-113.508,13.981-166.212
			c2.063-28.444,7.078-56.634,11.241-84.852c7.437-50.299,19.084-102.142,39.966-148.749c9.467-21.11,22.658-40.24,32.99-60.909
			c11.217-22.445,24.488-49.019,49.635-58.814c4.884-1.901,9.458-2.031,13.849-1.126c-51.328-24.959-105.702-47.947-161.301-65.5
			c8.228,4.883,9.271,11.324-6.738,13.948c-9.402,1.544-27.441,0.483-35.05,6.413c-9.965,7.769,0.623,21.8-8.401,31.879
			c-25.313,28.274-67.588,1.364-93.573-8.068c-32.542-11.813-75.785-3.827-107.587,6.646c-18.259,6.009-36.087,14.182-51.015,26.49
			c-25.446,20.975-27.399,46.426-39.315,76.389c-17.531,44.07-64.611,67.878-89.021,107.203
			c-23.068,37.189-1.874,80.002-26.037,115.632c-11.434,16.873-28.26,26.203-30.622,46.024
			c-2.802,23.513,11.384,42.814,1.424,70.657c-6.254,17.489-25.416,35.573-28.545,53.479c-3.747,21.52,11.473,44.574,5.956,68.222
			c-4.231,18.103-19.69,31.394-23.876,49.639c-5.528,24.155,2.828,38.089-6.492,60.297c-13.389,31.884-35.029,62.935-37.967,98.218
			c-3.361,40.312,15.401,63.184-7.475,101.954c-22.739,38.567-29.248,47.646-9.44,87.829c13.612,27.625,24.577,55.588,14.233,86.914
			c-4.998,15.163-18.974,25.188-24.681,39.373c-9.237,22.914-6.371,10.748-0.273,32.821c13.79,49.879,17.653,84.367,11.724,135.323
			c-5.355,46.067,10.413,90.917,7.361,136.905c-1.47,22.27-12.493,53.627-9.635,74.906c3.229,24.027,20.527,33.014,34.223,52.08
			c36.903,51.373,20.709,105.221-3.27,157.973c-27.476,60.463,7.185,87.943,21.846,146.887c5.946,23.887-0.159,48.295,1.138,72.41
			c0.292,5.609,0.797,10.273,1.511,14.279c3.233,18.225,10.787,22.838,23.103,40.498c15.075,21.607,26.295,47.375,30.569,75.502
			c1.639,10.736,5.241,24.174,1.445,34.963c-1.622,4.572-16.498,20.646-16.525,21.35c-2.333,56.115,52.197,102.793,84.334,142.367
			c24.219,29.852,17.71,62.219,34.861,94.729c9.021,17.084,23.329,28.838,31.967,45.705c9.066,17.695,4.405,35.234,12.648,52.813
			c9.239,19.678,26.617,23.672,41.976,40.598c16.155,17.811,26.571,42.643,30.64,66.631c8.479,49.998-2.354,101.035,30.311,143.807
			c8.304,10.889,100.898,109.805,78.387,124.727c35.127-23.234,46.964,40.16,76.347,48.951c18.86,5.648,36.11-1.613,56.612,6.969
			c18.037,7.566,27.373,24.363,49.579,14.6c16.849-7.414,26.709-32.375,39.792-44.662c22.348-20.986,22.943-14.229,48.312-13.004
			c29.244,1.406,24.344,7.25,43.521-17.721c11.62-15.133,16.366-29.988,33.823-41.766c23.6-15.922,33.299-3.158,55.27-9.469
			c20.92-6,20.667-18.887,31.665-36.639c14.612-23.604,39.597-35.621,57.244-56.201c16.706-19.469,26.11-44.188,38.847-66.121
			c27.181-46.805,79.656-39.371,118.258-70.035c34.74-27.582,51.527-68.752,67.264-108.947
			c13.839-35.344,38.196-66.984,48.535-103.408c13.195-46.459,12.587-93.422,27.837-139.02
			c26.929-80.533,25.405-170.688,61.872-249.145c17.623-37.902,34.325-50.615,26.645-95.732
			c-3.023-17.76-14.557-34.305-16.967-51.049c-3.336-23.244,14.894-35.549,13.699-56.9c-1.21-21.443-21.367-30.174-17.65-55.559
			c3.685-25.127,20.299-24.512,30.52-41.613c12.741-21.324,2.736-38.721,5.746-62.471c3.14-24.943,16.577-35.845,28.736-55.466
			c21.488-34.656-6.078-71.297,22.042-101.802c20.62-22.386,72.834-50.754,102.449-58.774c1.854-26.309,3.837-39.945,14.765-63.181
			c10.325-21.975,18.949-29.107,14.103-56.371c-8.433-47.409-2.723-77.307,20.447-118.38
			c20.135-35.694,43.161-74.798,43.144-117.008c-0.033-53.287-32.496-99.225-29.933-153.787
			c2.503-53.073,14.062-107.418,1.347-160.333c-11.27-46.835-53.613-85.877-51.29-136.336
			c21.554,11.312,38.773,30.708,52.884,53.468c-54.42-105.284-133.719-199.794-244.756-277.414
			c-63.838-44.622-133.858-79.605-205.068-112.667c5.284,2.453,10.562,4.917,15.832,7.396c0,0,42.858,84.029,61.601,130.416
			c47.509,117.626,96.319,255.778,43.264,380.294c13.779-29.407,22.673-60.903,28.346-94.38c0.694-4.059,3.336-16.644,4.609-32.555
			c4.99-62.107-17.02-143.265-23.915-173.091c11.555,0.038,23.194,8.673,33.82,20.191c-15.808-19.091-29.673-39.212-37.533-61.923
			c5.986-27.185,32.491,3.874,56.807,29.52c28.852,30.432,50.566,44.942,70.091,66.418c52.025,57.223,92.475,169.097,98.407,255.401
			c7.8,113.445,22.702,217.923-49.484,361.068c-26.751,53.033-45.015,98.593-80.472,145.875
			c-45.718,60.972-65.349,99.014-86.003,151.367c-30.012,76.065-41.016,153.564-61.562,260.373
			c-24.83,129.143-27.206,296.338-35.938,430.051c-8.144,124.713-49.26,203.045-126.529,308.408
			c-80.332,109.563-295.969,243.029-424.04,215.023c-33.392-7.303-73.042-59.428-93.43-95.451
			c-85.079-150.293-146.612-236.346-180.739-370.123c-25.664-100.592-41.082-138.049-53.032-218.02
			c-31.967-213.967,23.799-373.975,25.438-587.258c0.504-64.575-10.458-122.097-22.802-186.207
			c-40.646-211.089-75.365-462.844-11.454-685.282c31.141-108.359,66.023-171.74,158.139-277.965
			c42.914-49.492,138.294-100.036,147.123-45.942c2.347,14.375-9.249,24.55-25.889,32.485l14.134,10.724
			c-0.021,0.006-0.042,0.012-0.063,0.018c4.004-0.978,8.057-1.809,12.154-2.483c76.361-12.555,40.414,78.396,32.983,123.928
			c-9.655,59.178-12.284,148.031-12.497,211.086c-0.043,12.464-0.764,23.279-0.814,36.753L3455.463,1753.588z"/>
		<path id="_x31_80609130" fill="#9DF0D2" stroke="#000000" d="M3981.402,1414.109c-84.937-39.944-172.121-76.313-252.996-122.324
			c-15.077-8.582-30.245-17.005-45.519-25.235c-12.856-6.931-25.309-14.612-38.561-20.766c-13.192-6.126-25.58-17.901-41.062-11.865
			c-25.146,9.792-38.421,36.366-49.636,58.813c-10.333,20.67-23.524,39.802-32.984,60.911
			c-20.879,46.61-32.528,98.456-39.966,148.758c-4.171,28.219-9.175,56.409-11.248,84.855
			c-8.04,110.813-26.053,239.168-14.397,349.669c4.447,42.156,11.151,90.644,30.678,128.818
			c54.005,105.585,186.773,95.596,285.156,72.278c117.806-27.961,252.626-88.448,310.922-203.185
			c63.685-125.354,9.996-269.516-38.796-390.3C4024.254,1498.146,3981.402,1414.109,3981.402,1414.109z"/>
		<path id="_x31_80609131" fill="#9DF0D2" stroke="#000000" d="M3868.506,1362.376c-47.533-21.733-94.638-44.6-140.088-70.457
			c-15.076-8.581-30.243-17.005-45.517-25.234c-12.857-6.928-25.318-14.614-38.569-20.764c-13.185-6.127-25.571-17.9-41.056-11.87
			c-25.146,9.797-38.419,36.37-49.637,58.814c-10.332,20.668-23.523,39.8-32.988,60.908c-6.561,14.641-23.395,42.226-2.306,50.567
			c23.767,9.39,50.151,14.265,74.444,22.424c33.517,11.259,67.927,24.889,100.077,39.376c27.358,12.335,59.106,23.689,89.538,15.644
			c16.362-4.326,31.87-18.64,46.715-26.699c20.867-11.324,33.069-14.904,56.301-15.771c22.587-0.843,45.654,1.245,66.251,11.222
			c9.822,4.752,34.451,26.663,46.509,21.321c20.426-9.054-4.324-28.606-15.845-57.084
			C3959.509,1404.013,3943.689,1396.754,3868.506,1362.376z"/>
		<path id="_x31_80609133" fill="#95E4C8" stroke="#000000" d="M3770.869,2138.021c52.1-12.354,106.531-33.314,163.258-61.723
			c50.293-25.18,234.141-160.59,111.012-222.933c-44.896-22.735-79.263,21.716-123.226,35.021
			c-113.868,34.46-228.644,88.121-346.763,28.357c-23.567-11.925-79.431-72.071-103.188-66.537
			c-25.35,5.9-17.832,78.175-16.947,86.577c4.444,42.188,11.151,90.74,30.695,128.954
			C3539.716,2171.321,3672.501,2161.332,3770.869,2138.021z"/>
		<path id="_x31_80609132" fill="#9DF0D2" stroke="#000000" d="M3497.062,1761.082c-14.574-14.45-29.231-34.043-32.241-49.627
			c-5.981-30.877-1.104-62.607,1.946-93.524c3.186-32.176,8.719-71.54,12.04-100.271c2.255-19.541,6.746-43.426,17.919-87.513
			c26.275-21.969-2.188,89.545-1.616,124.713c0.557,34.724,12.522,73.137,36.116,98.998
			c47.522,52.075,129.673,46.839,192.114,32.105c73.201-17.283,139.056-53.834,200.688-95.882
			c25.276-17.243,63.451-56.15,97.532-44.714c31.586,10.594,45.572,62.004,47.695,90.57c4.273,57.387-25.769,79.58-74.453,106.127
			l10.251-4.854c-19.896,10.578-44.041,22.202-64.815,30.878c-34.167,14.259-68.6,27.296-104.515,36.921
			c-61.511,16.5-138.597,23.427-201.342,14.287c-29.496-4.292-59.001-11.417-85.997-24.328
			c-11.854-5.668-23.641-11.954-34.441-19.481C3508.847,1771.933,3502.963,1766.926,3497.062,1761.082z"/>
		<path id="_x31_80609135" fill="#CCCCCC" stroke="#000000" d="M4193.012,1985.033c-21.829-90.053-43.613-150.435-80.65-207.088
			c-6.035-9.239-20.021-44.292-37.017-60.791c-22.091-21.435-50.652,9.604-70.292,20.056
			c-19.896,10.578-44.042,22.201-64.815,30.877c-34.166,14.259-68.601,27.296-104.516,36.921
			c-61.51,16.501-138.597,23.427-201.343,14.287c-53.199-7.742-97.065-23.612-132.979-55.315
			c-11.787-10.399-31.988-44.117-48.256-29.464c-5.917,5.327-12.718,19.629-14.934,29.391
			c-3.191,13.998-10.091,32.953-12.327,47.124c-13.942,88.379-0.406,168.88,19.494,255.055c7.976,34.53,18.136,68.43,28.246,102.365
			c-0.803-7.688,0.041-14.151,3.973-17.441c12.412-10.395,25.296,19.879,32.762,27.379c36.535,36.732,67.967,48.345,117.527,55.931
			c24.715,3.785,73.826,2.286,78.081,36.18c4.038,32.139-51.546,80.381-69.084,106.6c-35.108,52.493-54.867,112.64-66.644,174.561
			c-5.419,28.501-9.386,56.333-17.35,83.921c-9.618,33.338-16.575,64.279-21.759,97.982c-2.864,18.611-27.629,50.13-36.654,17.714
			c-1.05-3.766-1.663-8.348-1.945-13.502c-0.914,7.223-1.87,14.438-2.918,21.629c-17.629,120.949-85.143,254.24-29.63,374.545
			c18.413,39.898,65.606,87.463,110.683,57.408c20.535-13.686,33.073-39.121,41.042-61.498c9.69-27.207,16.528-55.332,21.397-83.775
			c6.769-39.564,9.577-79.668,10.801-119.744c2.14-70.447-0.641-141.023,4.614-211.369c3.973-53.209,17.538-105.213,25.805-157.817
			c7.584-48.228,19.846-95.103,40.403-139.534c23.799-51.447,58.515-95.446,93.764-139.458
			c16.544-20.658,33.128-41.365,48.82-62.684c17.724-24.078,37.531-48.071,53.703-73.299c6.591-10.277,41.438-49.294,20.485-57.08
			c-8.917-3.311-57.985,19.912-65.038,23.116c-30.229,13.72-63.042,22.186-95.238,29.81
			c-98.369,23.302-231.137,33.286-285.134-72.285c-19.554-38.211-26.253-86.761-30.696-128.948
			c-0.886-8.404-8.401-80.671,16.947-86.571c23.757-5.536,79.622,54.608,103.188,66.533c118.121,59.76,232.896,6.1,346.763-28.362
			c24.796-7.503,45.874-23.861,69.688-33.691c19.648-8.116,37.875-7.887,53.472-1.07c15.882,6.938,29.043,20.704,38.19,39.431
			c18.687,38.222,31.985,82.458,30.963,125.217c-1.035,42.884-12.15,85.872-23.831,126.919
			c-6.115,21.507-13.175,42.699-20.315,63.886c-31.761,94.234-85.784,189.29-135.718,275.141
			c-66.903,115.047-91.034,211.973-113.5,336.686c-22.57,125.281,29.845,298.934-10.313,420.242
			c-26.841,81.07-188.993,132.863-149.104,226.646c22.421,52.699,98.456,11.328,145.631-18.469
			c76.01-47.994,74.321-156.824,75.239-228.617c1.903-147.307-6.327-240.732,10.967-387.387
			c22.443-190.285,118.951-331.362,208.521-497.017C4154.089,2240.32,4220.839,2099.856,4193.012,1985.033z"/>
		<path id="_x31_80609136" fill="#CCCCCC" stroke="#000000" d="M3187.009,4138.071c-90.528-217.057-138.912-315.361-261.715-479.313
			c-66.48-88.746-139.325-252.764-178.04-356.324c-62.149-166.285-46.936-247.592-73.014-422.146
			c-25.188-168.595-62.801-403.354-47.684-573.726c16.167-182.062,40.946-366.191,88.045-542.469
			c-64.918,242.948-107.756,492.681-129.054,743.225c-19.957,234.603,8.392,453.188,8.529,684.944
			c0.141,259.938-5.466,544.873,136.687,773.48c121.183,194.891,408.898,380.869,640.782,372.365
			c42.815-1.568,82.391-11.072,119.355-26.27C3376.085,4338.931,3227.581,4235.353,3187.009,4138.071z"/>
		<path id="_x31_80609134" fill="#AAAAAA" stroke="#000000" d="M3494.478,2751.276c9.025,32.416,33.789,0.896,36.655-17.714
			c5.183-33.703,12.14-64.645,21.758-97.984c7.963-27.586,11.929-55.418,17.351-83.92c11.776-61.92,31.533-122.067,66.643-174.561
			c17.539-26.219,73.123-74.462,69.084-106.599c-4.257-33.895-53.367-32.396-78.081-36.181
			c-49.563-7.584-80.991-19.197-117.527-55.931c-7.465-7.5-20.351-37.772-32.763-27.379c-3.932,3.291-4.775,9.755-3.973,17.441
			c2.316,7.77,4.63,15.542,6.912,23.325c2.102,7.172,4.104,14.332,6.01,21.486c0.385,1.118,0.715,2.115,0.958,2.938
			c13.466,45.683,21.919,91.456,23.786,139.835c1.55,40.143,2.441,80.947,1.888,122.397c0.855,18.873,1.108,37.721-1.082,56.57
			c-0.406,3.498-0.791,7.001-1.174,10.504c-1.757,31.837-4.571,64.034-8.798,96.59c-0.023,0.18-0.051,0.373-0.073,0.555
			c-2.686,31.814-5.527,63.6-9.518,95.125C3492.815,2742.927,3493.43,2747.511,3494.478,2751.276z"/>
	</g>
	<g transform="scale(1.0)">
		<g id="_x31_80609119_1_" transform=" scale(1.0, 1.0)">
			<path id="_x31_80609121_1_" fill="#BFDAE3" stroke="#000000" d="M986.21,1519.396
				c135.463-94.695,298.754-145.988,442.229-227.608c192.572-109.546,464.118-231.021,677.807-103.937
				c200.463,119.244,279.636,365.113,336.013,576.143c64.91,242.961,107.749,492.701,129.052,743.27
				c19.945,234.613-8.402,453.219-8.533,684.984c-0.15,259.957,5.458,544.912-136.698,773.537
				c-121.185,194.9-408.904,380.893-640.788,372.393c-186.378-6.828-311.421-163.922-426.583-287.594
				c-139.202-149.498-260.362-373.75-343.868-561.395c-87.848-197.389-185.3-328.166-251.006-536.205
				c-30.292-95.926-90.92-265.115-108.012-425c-22.864-213.954-41.668-382.955,37.339-616.938
				C744.247,1759.741,836.317,1624.184,986.21,1519.396z"/>
			<path id="_x31_80609122_1_" fill="#B0FFB8" stroke="#000000" d="M655.82,2527.962c17.092,159.887,77.727,329.07,108.018,424.996
				c65.703,208.037,163.157,338.813,251.002,536.199c83.512,187.641,204.665,411.887,343.868,561.385
				c115.16,123.67,240.209,280.762,426.579,287.59c231.885,8.502,519.602-177.49,640.786-372.389
				c142.152-228.619,136.548-513.574,136.691-773.525c0.137-231.764,28.477-450.365,8.53-684.979
				c-21.299-250.559-64.142-500.301-129.049-743.264c-56.377-211.021-135.549-456.894-336.01-576.127
				c-213.694-127.084-485.235-5.609-677.806,103.937c-143.477,81.617-306.76,132.911-442.227,227.604
				c-149.89,104.783-241.958,240.344-293.042,391.641C614.152,2145.018,632.957,2314.013,655.82,2527.962z M1450.869,2270.499
				c4.256-33.895,53.367-32.396,78.082-36.181c49.561-7.584,80.991-19.198,117.527-55.931c7.465-7.499,20.351-37.772,32.762-27.379
				c3.931,3.29,4.775,9.755,3.973,17.441c-2.315,7.771-4.628,15.543-6.912,23.326c-2.103,7.172-4.104,14.332-6.01,21.486
				c-0.384,1.118-0.715,2.115-0.958,2.937c-13.466,45.684-21.918,91.457-23.786,139.836c-1.551,40.142-2.44,80.946-1.888,122.397
				c-0.855,18.873-1.108,37.72,1.083,56.571c0.407,3.496,0.79,6.999,1.174,10.502c1.757,31.837,4.571,64.035,8.796,96.591
				c0.023,0.18,0.051,0.373,0.075,0.555c2.685,31.813,5.526,63.598,9.517,95.123c-0.281,5.154-0.895,9.736-1.945,13.502
				c-9.025,32.416-33.79,0.898-36.654-17.712c-5.184-33.703-12.141-64.646-21.76-97.984c-7.963-27.587-11.931-55.419-17.348-83.92
				c-11.777-61.921-31.535-122.067-66.645-174.562C1502.414,2350.88,1446.83,2302.638,1450.869,2270.499z"/>
			<path id="_x31_80609123_1_" fill="#9AD2BD" stroke="#000000" d="M655.82,2527.962c17.092,159.887,77.727,329.07,108.018,424.996
				c65.703,208.037,163.157,338.813,251.002,536.199c83.512,187.641,204.665,411.887,343.868,561.385
				c115.16,123.67,240.209,280.762,426.579,287.59c231.885,8.502,519.602-177.49,640.786-372.389
				c142.152-228.619,136.548-513.574,136.691-773.525c0.137-231.764,28.477-450.365,8.53-684.979
				c-21.299-250.559-64.142-500.301-129.049-743.264c-56.377-211.021-135.549-456.894-336.01-576.127
				c-213.694-127.084-485.235-5.609-677.806,103.937c-143.477,81.617-306.76,132.911-442.227,227.604
				c-149.89,104.783-241.958,240.344-293.042,391.641C614.152,2145.018,632.957,2314.013,655.82,2527.962z M1450.869,2270.499
				c4.256-33.895,53.367-32.396,78.082-36.181c49.561-7.584,80.991-19.198,117.527-55.931c7.465-7.499,20.351-37.772,32.762-27.379
				c3.931,3.29,4.775,9.755,3.973,17.441c-2.315,7.771-4.628,15.543-6.912,23.326c-2.103,7.172-4.104,14.332-6.01,21.486
				c-0.384,1.118-0.715,2.115-0.958,2.937c-13.466,45.684-21.918,91.457-23.786,139.836c-1.551,40.142-2.44,80.946-1.888,122.397
				c-0.855,18.873-1.108,37.72,1.083,56.571c0.407,3.496,0.79,6.999,1.174,10.502c1.757,31.837,4.571,64.035,8.796,96.591
				c0.023,0.18,0.051,0.373,0.075,0.555c2.685,31.813,5.526,63.598,9.517,95.123c-0.281,5.154-0.895,9.736-1.945,13.502
				c-9.025,32.416-33.79,0.898-36.654-17.712c-5.184-33.703-12.141-64.646-21.76-97.984c-7.963-27.587-11.931-55.419-17.348-83.92
				c-11.777-61.921-31.535-122.067-66.645-174.562C1502.414,2350.88,1446.83,2302.638,1450.869,2270.499z"/>
			<path id="_x31_80609124_1_" fill="#9AD2BD" stroke="#000000" d="M655.82,2527.962c17.093,159.887,77.719,329.07,108.01,424.996
				c65.71,208.037,163.157,338.811,251.009,536.199c83.502,187.641,204.666,411.891,343.869,561.385
				c115.16,123.674,240.199,280.76,426.579,287.59c231.875,8.502,519.594-177.488,640.785-372.389
				c142.153-228.619,136.541-513.57,136.691-773.523c0.129-231.762,28.477-450.363,8.531-684.978
				c-21.299-250.558-64.142-500.302-129.051-743.264c-56.375-211.023-135.547-456.892-336.008-576.125
				c-164.54-97.86-363.393-48.341-534.075,29.626c0,0,42.46,49.215,51.243,65.705c10.219,19.185,22.377,37.986,31.915,57.717
				c23.548,48.732,36.528,103.264,44.884,156.443c4.669,29.837,7.065,61.746,9.251,91.863
				c8.049,110.813,4.003,237.216-7.652,347.716c-4.448,42.156-11.15,90.644-30.677,128.818
				c-54.004,105.585-186.773,95.596-285.157,72.278c-117.807-27.961-252.625-88.449-310.921-203.185
				c-63.686-125.354-34.813-269.429,13.98-390.215c18.733-46.39,60.392-118.109,60.392-118.109
				c-56.672,27.407-111.938,57.032-163.215,92.878c-149.89,104.783-241.958,240.344-293.042,391.641
				C614.152,2145.018,632.957,2314.013,655.82,2527.962z M1450.869,2270.499c4.256-33.895,53.367-32.396,78.082-36.181
				c49.561-7.584,80.991-19.198,117.527-55.931c7.465-7.499,20.351-37.772,32.762-27.379c3.931,3.29,4.775,9.755,3.973,17.441
				c-2.315,7.771-4.628,15.543-6.912,23.326c-2.103,7.172-4.104,14.332-6.01,21.486c-0.384,1.118-0.715,2.115-0.958,2.937
				c-13.466,45.684-21.918,91.457-23.786,139.836c-1.551,40.142-2.44,80.946-1.888,122.397c-0.855,18.873-1.108,37.72,1.083,56.571
				c0.407,3.496,0.79,6.999,1.174,10.502c1.757,31.837,4.571,64.035,8.796,96.591c0.023,0.18,0.051,0.373,0.075,0.555
				c2.685,31.813,5.526,63.598,9.517,95.123c-0.281,5.154-0.895,9.736-1.945,13.502c-9.025,32.416-33.79,0.898-36.654-17.712
				c-5.184-33.703-12.141-64.646-21.76-97.984c-7.963-27.587-11.931-55.419-17.348-83.92
				c-11.777-61.921-31.535-122.067-66.645-174.562C1502.414,2350.88,1446.83,2302.638,1450.869,2270.499z"/>
			<path id="_x31_80609129_1_" fill="#82C7AE" stroke="#000000" d="M2242.136,3115.823c1.291-24.117-4.809-48.529,1.131-72.416
				c14.669-58.943,49.32-86.43,21.847-146.896c-23.971-52.756-40.164-106.602-3.27-157.979
				c13.694-19.064,31.004-28.052,34.224-52.083c2.857-21.281-8.16-52.637-9.635-74.908c-3.051-45.991,12.717-90.842,7.361-136.913
				c-5.927-50.957-2.059-85.446,11.732-135.328c6.098-22.075,8.957-9.909-0.273-32.824c-5.716-14.186-19.682-24.213-24.688-39.375
				c-10.344-31.328,0.622-59.292,14.234-86.921c19.808-40.186,13.306-49.262-9.44-87.833c-22.876-38.772-4.113-61.646-7.473-101.959
				c-2.939-35.285-24.58-66.339-37.968-98.225c-9.321-22.208-0.963-36.143-6.492-60.3c-4.187-18.246-19.646-31.536-23.876-49.64
				c-5.517-23.649,9.702-46.706,5.955-68.228c-3.126-17.905-22.288-35.992-28.543-53.481c-9.96-27.843,4.226-47.146,1.423-70.655
				c-2.361-19.828-19.188-29.158-30.63-46.032c-24.154-35.632-2.958-78.446-26.038-115.638
				c-24.4-39.325-71.479-63.138-89.012-107.205c-11.915-29.969-13.867-55.416-39.314-76.397
				c-14.938-12.306-32.765-20.482-51.016-26.491c-31.802-10.472-75.045-18.453-107.587-6.642
				c-25.984,9.433-68.259,36.342-93.581,8.065c-9.017-10.079,1.57-24.106-8.393-31.879c-7.609-5.926-25.656-4.87-35.06-6.41
				c-20.899-3.43-12.735-13.373,2.56-17.845c28.109-8.218,55.507-12.792,84.134-18.396c108.044-21.14,215.766-14.256,311.79,42.857
				c200.461,119.234,279.632,365.102,336.008,576.126c47.098,176.286,71.877,360.421,88.042,542.496
				c15.125,170.381-22.496,405.151-47.685,573.756c-26.079,174.563-10.865,255.873-73.018,422.168
				c-38.705,103.568-111.553,267.594-178.031,356.342c-122.805,163.963-171.189,262.271-261.718,479.342
				c-44.121,105.789-215.872,219.039-333.144,163.588c-111.126-52.537-196.159-163.256-277.974-251.123
				c-139.203-149.5-260.367-373.746-343.869-561.387c-87.852-197.389-185.3-328.162-251.009-536.201
				c-30.291-95.924-90.917-265.107-108.01-424.993c-22.873-213.947-41.671-382.945,37.332-616.933
				c18.881-55.828,45.666-138.55,101.167-167.681c2.323,50.46-40.018,89.504-51.288,136.345
				c-12.717,52.915-1.157,107.266,1.343,160.337c2.565,54.565-29.898,100.506-29.924,153.796
				c-0.025,42.213,23,81.318,43.135,117.014c23.17,41.076,28.879,70.974,20.446,118.388c-4.84,27.267,3.775,34.4,14.108,56.372
				c10.92,23.237,12.903,36.875,14.764,63.187c29.608,8.02,81.83,36.395,102.449,58.776c28.113,30.506,0.554,67.151,22.035,101.807
				c12.166,19.623,25.596,30.523,28.745,55.47c3,23.75-7.005,41.145,5.736,62.473c10.221,17.1,26.842,16.488,30.519,41.615
				c3.726,25.387-16.432,34.117-17.65,55.563c-1.194,21.35,17.036,33.658,13.707,56.9c-2.407,16.748-13.944,33.293-16.974,51.053
				c-7.683,45.117,9.019,57.834,26.643,95.738c36.477,78.459,34.944,168.619,61.879,249.154
				c15.25,45.604,14.641,92.568,27.829,139.029c10.35,36.424,34.704,68.066,48.543,103.412
				c15.736,40.199,32.523,81.369,67.265,108.953c38.6,30.666,91.075,23.232,118.256,70.037
				c12.737,21.932,22.142,46.652,38.848,66.121c17.647,20.582,42.631,32.602,57.241,56.207c11,17.752,10.747,30.637,31.667,36.643
				c21.97,6.309,31.663-6.459,55.27,9.467c17.457,11.773,22.203,26.635,33.822,41.764c19.178,24.973,14.278,19.133,43.521,17.727
				c25.368-1.227,25.966-7.982,48.312,13.002c13.084,12.285,22.944,37.248,39.792,44.662c22.206,9.768,31.542-7.031,49.58-14.598
				c20.503-8.586,37.752-1.324,56.611-6.969c29.385-8.797,41.212-72.191,76.348-48.953
				c-22.511-14.928,70.084-113.848,78.386-124.734c32.667-42.775,21.825-93.816,30.313-143.816
				c4.068-23.99,14.485-48.822,30.64-66.631c15.356-16.93,32.736-20.924,41.967-40.607c8.244-17.576,3.593-35.117,12.658-52.813
				c8.638-16.867,22.944-28.625,31.957-45.709c17.159-32.51,10.65-64.877,34.871-94.732c32.136-39.576,86.658-86.256,84.325-142.373
				c-0.021-0.703-14.904-16.777-16.519-21.352c-3.806-10.789-0.193-24.229,1.438-34.965c4.273-28.129,15.501-53.9,30.569-75.506
				c12.324-17.662,19.877-22.275,23.109-40.5C2241.339,3126.093,2241.841,3121.429,2242.136,3115.823z"/>
			<path id="_x31_80609125_1_" fill="#82C7AE" stroke="#000000" d="M1045.47,1846.051c16.087,69.459,35.315,125.803,105.599,181.257
				c54.767,43.205,37.746,20.161,74.668,82.965c63.694,108.331,167.427,199.221,218.921,313.628
				c30.636,68.052,35.292,123.625,50.326,199.753c15.76,79.799,11.575,159.91,17.342,234.353
				c6.24,80.617-4.593,268.879,74.227,333.41c24.252,19.865,49.271,7.479,67.536-4.365c40.532-26.275,61.406-96.9,62.956-139.475
				c4.17-114.33-42.38-216.406-53.52-329.361c-4.325-43.934-11.21-89.5-14.773-133.699c-6.295-78.122-6.2-154.973-3.024-233.002
				c3.817-93.771,30.791-151.354,50.243-224.925c32.616-123.325,63.123-277.584,17.278-377.888
				c-0.581-14.745,0.937-12.817,0.286-25.266c-3.271-63.048-2.625-160.266-12.289-219.447
				c-7.421-45.532-43.214-135.484,33.141-122.934c131.952,21.716,216.421,204.567,238.682,324.744
				c13.183,71.128,28.165,128.461,29.654,200.777c1.708,83.215-18.033,173.528-33.676,248.038
				c-19.989,95.181-39.182,167.707-45.247,264.888c-9.678,155.035,0.025,326.862,5.846,483.403
				c5.015,135.057-22.021,258.992-50.425,391.611c-25.609,119.52-89.967,304.336-211.209,361.756
				c-164.479,77.891-352.827-122.094-404.803-264.516c-42.415-116.238-36.607-246.473-36.698-365.721
				c-0.085-109.852-10.321-180.918-31.737-295.88c-18.594-99.795-86.941-257.505-148.01-340.754
				c-86.805-118.318-146.228-237.319-143.487-389.066c0.809-44.867,6.091-89.91,15.412-133.808
				c8.617-40.593,21.593-80.359,42.225-116.512c9.416-16.502,15.32-34.96,27.163-49.804c11.271-14.132,42.379-75.354,73.19-75.462
				c-4.989,20.123-21.629,106.104-22.169,118.095c-0.829,18.38-3.252,36.785-1.477,55.061
				C1039.195,1814.089,1041.802,1830.166,1045.47,1846.051z"/>
			<path id="_x31_80609126_1_" fill="#9AD2BD" stroke="#000000" d="M1763.027,1374.06c-0.819-0.37-1.631-0.743-2.428-1.124
				l-14.134,10.725c0.022,0.004,0.043,0.011,0.064,0.016c1.835,0.448,3.659,0.932,5.475,1.441c0.137,0.038,0.273,0.074,0.411,0.112
				c1.768,0.504,3.529,1.037,5.279,1.598c0.179,0.058,0.355,0.111,0.534,0.168c1.717,0.554,3.422,1.14,5.12,1.748
				c0.208,0.074,0.417,0.146,0.626,0.223c1.67,0.605,3.331,1.239,4.983,1.896c0.228,0.091,0.458,0.181,0.688,0.273
				c1.633,0.656,3.255,1.34,4.871,2.047c0.242,0.105,0.486,0.211,0.728,0.317c1.604,0.708,3.195,1.441,4.781,2.197
				c0.247,0.118,0.494,0.235,0.742,0.354c1.577,0.761,3.145,1.544,4.705,2.351c0.248,0.128,0.496,0.258,0.744,0.387
				c1.557,0.811,3.104,1.646,4.641,2.502c0.246,0.137,0.491,0.274,0.736,0.412c1.539,0.865,3.069,1.751,4.592,2.659
				c0.234,0.14,0.468,0.281,0.702,0.422c1.527,0.921,3.048,1.86,4.559,2.824c0.218,0.141,0.438,0.283,0.657,0.425
				c1.52,0.977,3.032,1.973,4.534,2.991c0.202,0.138,0.401,0.276,0.604,0.413c1.518,1.037,3.027,2.095,4.527,3.173
				c0.173,0.125,0.344,0.252,0.519,0.378c1.523,1.103,3.038,2.224,4.544,3.368c0.136,0.105,0.273,0.212,0.411,0.317
				c1.537,1.175,3.064,2.368,4.582,3.586c0.092,0.075,0.184,0.149,0.275,0.224c1.559,1.257,3.109,2.532,4.649,3.832
				c0.034,0.031,0.069,0.062,0.106,0.093c1.554,1.314,3.099,2.651,4.631,4.01c0.041,0.035,0.081,0.07,0.123,0.106
				c1.512,1.341,3.013,2.706,4.504,4.089c0.091,0.085,0.184,0.168,0.274,0.252c1.448,1.349,2.889,2.718,4.317,4.105
				c0.129,0.122,0.257,0.246,0.386,0.371c1.397,1.359,2.784,2.737,4.161,4.133c0.155,0.156,0.313,0.313,0.469,0.471
				c1.354,1.376,2.698,2.771,4.032,4.179c0.173,0.181,0.346,0.363,0.518,0.545c1.318,1.398,2.627,2.813,3.928,4.242
				c0.181,0.197,0.363,0.397,0.543,0.597c1.286,1.42,2.563,2.856,3.83,4.307c0.191,0.216,0.381,0.431,0.569,0.647
				c1.259,1.445,2.508,2.907,3.749,4.38c0.188,0.226,0.38,0.45,0.567,0.677c1.237,1.475,2.462,2.963,3.68,4.464
				c0.188,0.23,0.374,0.463,0.562,0.694c1.216,1.506,2.424,3.026,3.622,4.559c0.178,0.228,0.354,0.455,0.532,0.683
				c1.2,1.546,2.396,3.103,3.581,4.673c0.164,0.218,0.326,0.438,0.491,0.655c1.19,1.588,2.374,3.184,3.546,4.793
				c0.149,0.207,0.299,0.415,0.448,0.619c1.183,1.632,2.355,3.272,3.519,4.925c0.131,0.184,0.257,0.368,0.387,0.553
				c1.181,1.683,2.35,3.374,3.509,5.078c0.104,0.15,0.205,0.302,0.307,0.452c1.183,1.745,2.355,3.499,3.518,5.265
				c0.064,0.1,0.131,0.202,0.197,0.302c1.193,1.818,2.377,3.646,3.548,5.486c0.024,0.038,0.048,0.077,0.073,0.116
				c1.195,1.879,2.378,3.769,3.55,5.671c0.013,0.019,0.023,0.037,0.035,0.057c1.156,1.878,2.302,3.766,3.436,5.663
				c0.051,0.087,0.104,0.173,0.154,0.259c1.098,1.843,2.188,3.695,3.263,5.555c0.084,0.143,0.168,0.285,0.25,0.43
				c1.052,1.819,2.091,3.645,3.12,5.478c0.104,0.184,0.208,0.368,0.312,0.554c1.011,1.805,2.011,3.617,3.002,5.435
				c0.114,0.213,0.231,0.425,0.347,0.638c0.976,1.798,1.942,3.603,2.897,5.41c0.124,0.235,0.249,0.47,0.373,0.704
				c0.945,1.796,1.88,3.596,2.804,5.401c0.129,0.248,0.257,0.497,0.384,0.747c0.918,1.796,1.823,3.597,2.721,5.401
				c0.13,0.261,0.261,0.521,0.388,0.781c0.893,1.802,1.774,3.604,2.646,5.412c0.125,0.263,0.253,0.526,0.381,0.791
				c0.868,1.809,1.728,3.62,2.575,5.435c0.122,0.26,0.244,0.521,0.364,0.781c0.85,1.823,1.69,3.649,2.519,5.479
				c0.113,0.248,0.225,0.497,0.336,0.744c0.834,1.846,1.658,3.691,2.47,5.54c0.1,0.225,0.197,0.451,0.297,0.677
				c0.82,1.874,1.632,3.749,2.431,5.626c0.084,0.194,0.166,0.391,0.249,0.586c0.811,1.903,1.61,3.809,2.396,5.714
				c0.069,0.166,0.137,0.332,0.205,0.497c0.798,1.939,1.588,3.88,2.362,5.819c0.047,0.116,0.094,0.233,0.14,0.351
				c0.794,1.988,1.579,3.977,2.349,5.964c0.02,0.054,0.041,0.108,0.062,0.162c1.577,4.072,3.101,8.14,4.575,12.195
				c0.029,0.079,0.057,0.155,0.084,0.233c0.713,1.959,1.409,3.913,2.097,5.868c0.048,0.138,0.098,0.277,0.146,0.416
				c0.67,1.908,1.326,3.813,1.972,5.716c0.063,0.179,0.125,0.357,0.185,0.535c0.636,1.873,1.257,3.741,1.868,5.605
				c0.067,0.203,0.136,0.408,0.202,0.613c0.601,1.839,1.191,3.676,1.771,5.509c0.071,0.227,0.145,0.453,0.215,0.68
				c0.572,1.811,1.132,3.617,1.682,5.419c0.074,0.245,0.148,0.49,0.225,0.736c0.541,1.782,1.072,3.561,1.592,5.334
				c0.075,0.258,0.15,0.516,0.226,0.772c0.516,1.766,1.019,3.524,1.514,5.278c0.072,0.257,0.145,0.513,0.217,0.769
				c0.491,1.75,0.972,3.494,1.439,5.231c0.07,0.255,0.139,0.51,0.207,0.764c0.467,1.74,0.923,3.474,1.37,5.199
				c0.062,0.24,0.123,0.479,0.185,0.719c0.447,1.734,0.882,3.463,1.307,5.183c0.057,0.226,0.11,0.452,0.166,0.679
				c0.427,1.733,0.841,3.458,1.243,5.173c0.047,0.199,0.094,0.397,0.14,0.597c0.405,1.737,0.802,3.465,1.184,5.183
				c0.039,0.172,0.075,0.342,0.113,0.514c0.387,1.748,0.764,3.485,1.127,5.212c0.024,0.119,0.049,0.236,0.073,0.355
				c0.371,1.771,0.731,3.533,1.078,5.281c0.013,0.067,0.025,0.134,0.039,0.2c0.354,1.799,0.699,3.585,1.025,5.357
				c13.176,71.12,28.157,128.454,29.646,200.767c1.712,83.206-18.031,173.519-33.673,248.024
				c-19.988,95.177-39.18,167.701-45.246,264.872c-9.677,155.032,0.029,326.849,5.84,483.382
				c5.022,135.047-22.018,258.977-50.422,391.586c-25.609,119.518-89.966,304.32-211.208,361.736
				c-164.48,77.891-352.826-122.09-404.795-264.504c-42.416-116.232-36.608-246.461-36.697-365.701
				c-0.088-109.846-10.325-180.91-31.75-295.867c-18.587-99.787-87.202-257.295-148.002-340.736
				c-89.14-122.318-142.928-224.913-143.489-389.047c-0.155-44.874,6.09-89.906,15.41-133.801
				c8.617-40.591,21.593-80.354,42.225-116.505c9.416-16.503,15.32-34.96,27.164-49.802c5.913-7.414,17.365-27.772,31.363-45.471
				c-1.796,2.064-3.612,4.117-5.435,6.163c-0.156,0.176-0.31,0.354-0.467,0.528c-0.23,0.261-0.466,0.52-0.698,0.779
				c-0.595,0.667-1.193,1.334-1.79,2c-0.572,0.638-1.146,1.275-1.721,1.913c-0.618,0.685-1.232,1.37-1.852,2.053
				c-0.563,0.625-1.131,1.251-1.697,1.875c-0.674,0.745-1.347,1.488-2.02,2.23c-0.41,0.451-0.819,0.902-1.229,1.354
				c-1.391,1.531-2.779,3.061-4.166,4.59c-0.365,0.404-0.732,0.808-1.097,1.21c-1.093,1.209-2.185,2.415-3.272,3.622
				c-0.096,0.108-0.192,0.215-0.289,0.32c-1.156,1.285-2.309,2.571-3.457,3.857c-0.359,0.401-0.715,0.804-1.071,1.206
				c-0.787,0.886-1.573,1.771-2.355,2.655c-0.442,0.503-0.883,1.007-1.324,1.511c-0.692,0.789-1.383,1.579-2.07,2.37
				c-0.473,0.544-0.94,1.09-1.409,1.634c-0.65,0.755-1.296,1.51-1.941,2.265c-0.479,0.564-0.955,1.128-1.431,1.693
				c-0.63,0.746-1.256,1.492-1.878,2.24c-0.471,0.566-0.94,1.132-1.408,1.699c-0.62,0.755-1.235,1.511-1.849,2.27
				c-0.453,0.561-0.909,1.12-1.358,1.684c-0.627,0.783-1.245,1.57-1.862,2.356c-0.42,0.535-0.841,1.069-1.256,1.605
				c-0.676,0.87-1.339,1.746-2,2.621c-0.344,0.452-0.692,0.906-1.032,1.359c-0.991,1.333-1.973,2.667-2.934,4.009
				c-72.021,100.607-115.104,240.21-96.409,365.575c18.76,125.751,39.555,154.612,97.423,265.767
				c29.849,57.323,89.318,147,133.164,232.559c38.071,74.283,61.884,144.496,75.141,199.663
				c24.724,102.979,0.529,240.881,13.773,399.791c13.366,160.313,42.326,281.121,86.671,347.15
				c56.801,84.572,170.38,169.205,255.765,200.424c55.07,20.139,122.07,34.137,161.392,17.377
				c50.551-21.547,80.967-77.297,123.582-150.705c90.169-155.354,167.834-394.584,188.298-579.709
				c10.413-94.268-23.661-243.912-25.788-282.56c-5.998-109.389-7.265-198.338,7.224-307.483
				c6.924-52.136,21.722-101.394,28.439-153.137c20.634-158.943,41.727-338.654,13.463-500.531
				c-18.286-104.725-36.058-165.427-84.966-249.268c-23.237-39.84-56.543-95.938-95.559-122.381
				c-0.417-0.282-0.862-0.563-1.323-0.841c-0.146-0.088-0.298-0.175-0.446-0.263c-0.332-0.194-0.671-0.388-1.022-0.579
				c-0.175-0.095-0.352-0.188-0.532-0.284c-0.362-0.192-0.738-0.384-1.119-0.574c-0.168-0.083-0.333-0.166-0.503-0.249
				c-0.554-0.269-1.123-0.536-1.715-0.803c-0.595-0.268-1.212-0.531-1.842-0.797c-0.193-0.081-0.392-0.16-0.589-0.241
				c-0.452-0.188-0.908-0.372-1.378-0.557c-0.226-0.089-0.455-0.18-0.687-0.27c-0.473-0.184-0.957-0.367-1.445-0.55
				c-0.215-0.08-0.424-0.16-0.641-0.241c-1.406-0.517-2.873-1.033-4.39-1.547c-0.237-0.08-0.479-0.16-0.718-0.241
				c-0.54-0.181-1.083-0.36-1.634-0.542c-0.271-0.088-0.546-0.178-0.821-0.267c-0.563-0.182-1.133-0.366-1.707-0.549
				c-0.237-0.075-0.473-0.149-0.711-0.227c-1.637-0.517-3.317-1.034-5.032-1.555c-0.259-0.079-0.52-0.156-0.779-0.235
				c-0.618-0.186-1.237-0.373-1.863-0.562c-0.295-0.086-0.589-0.177-0.886-0.264c-0.635-0.19-1.273-0.381-1.914-0.57
				c-0.259-0.076-0.516-0.153-0.774-0.23c-0.84-0.249-1.686-0.497-2.536-0.749c-0.896-0.267-1.802-0.533-2.71-0.801
				c-0.23-0.068-0.462-0.137-0.693-0.205c-0.699-0.207-1.401-0.414-2.105-0.624c-0.311-0.09-0.619-0.183-0.93-0.275
				c-0.657-0.194-1.317-0.392-1.978-0.589c-0.293-0.087-0.587-0.175-0.879-0.263c-1.859-0.559-3.726-1.123-5.594-1.698
				c-0.268-0.084-0.535-0.166-0.804-0.249c-0.674-0.208-1.347-0.419-2.02-0.629c-0.311-0.099-0.62-0.197-0.931-0.294
				c-0.664-0.21-1.325-0.422-1.987-0.635c-0.283-0.089-0.565-0.181-0.846-0.271c-1.858-0.602-3.706-1.214-5.541-1.843
				c-0.264-0.089-0.53-0.184-0.794-0.274c-0.656-0.227-1.312-0.454-1.962-0.685c-0.304-0.106-0.604-0.215-0.906-0.322
				c-0.646-0.231-1.287-0.464-1.925-0.698c-0.27-0.099-0.541-0.197-0.808-0.297c-1.782-0.661-3.541-1.339-5.267-2.034
				c-0.252-0.103-0.502-0.206-0.755-0.31c-0.613-0.25-1.221-0.502-1.823-0.756c-0.285-0.121-0.567-0.242-0.852-0.363
				c-0.596-0.256-1.187-0.515-1.771-0.775C1763.531,1374.277,1763.281,1374.168,1763.027,1374.06z"/>
			<path id="_x31_80609127_1_" fill="#82C7AE" stroke="#000000" d="M1844.674,1402.925c39.019,26.448,72.315,82.545,95.559,122.392
				c48.909,83.841,66.68,144.547,84.966,249.276c28.263,161.886,7.168,341.61-13.466,500.557
				c-6.718,51.751-21.509,101.01-28.432,153.147c-14.497,109.153-13.23,198.103-7.225,307.501
				c2.117,38.648,36.197,188.304,25.778,282.572c-20.456,185.135-98.124,424.381-188.299,579.74
				c-42.608,73.412-73.031,129.164-123.582,150.713c-39.315,16.762-106.313,2.762-161.386-17.373
				c-85.383-31.219-198.962-115.857-255.77-200.438c-44.345-66.031-73.298-186.844-86.661-347.164
				c-13.244-158.918,10.949-296.828-13.78-399.811c-13.249-55.175-37.062-125.388-75.14-199.673
				c-43.844-85.563-103.314-175.245-133.154-232.57c-57.875-111.16-78.672-140.02-97.429-265.781
				c-18.694-125.372,24.39-264.98,96.41-365.596c32.157-44.911,83.722-83.992,102.187-137.342
				c-5.995-27.187-32.492,3.872-56.809,29.52c-28.85,30.433-50.567,44.944-70.091,66.426
				c-52.024,57.221-92.477,169.102-98.408,255.41c-7.801,113.451-22.702,217.935,49.491,361.089
				c26.744,53.032,45.014,98.597,80.473,145.881c45.717,60.975,65.339,99.019,86.002,151.375
				c30.001,76.069,41.013,153.57,61.551,260.387c24.828,129.148,27.213,296.352,35.942,430.072
				c8.138,124.719,49.263,203.049,126.529,308.42c80.331,109.57,295.968,243.045,424.031,215.031
				c33.392-7.305,73.044-59.426,93.437-95.457c85.074-150.301,146.616-236.359,180.743-370.143
				c25.665-100.6,41.082-138.057,53.031-218.031c31.968-213.977-23.803-373.996-25.445-587.291
				c-0.5-64.574,10.459-122.098,22.805-186.216c40.646-211.101,75.37-462.868,11.457-685.317
				c-31.138-108.366-66.023-171.746-158.137-277.979c-42.913-49.49-138.294-100.04-147.123-45.94
				C1728.466,1378.648,1821.347,1387.104,1844.674,1402.925z"/>
			<path id="_x31_80609128_1_" fill="#9AD2BD" stroke="#000000" d="M1714.706,1752.958c-0.051-13.474-0.771-24.289-0.814-36.753
				c-0.213-63.055-2.842-151.908-12.497-211.086c-7.431-45.531-43.378-136.482,32.983-123.928c4.098,0.675,8.15,1.506,12.154,2.483
				c-0.021-0.006-0.042-0.012-0.063-0.018l14.134-10.724c-16.64-7.936-28.235-18.11-25.889-32.485
				c8.829-54.094,104.209-3.55,147.123,45.942c92.115,106.225,126.998,169.605,158.139,277.965
				c63.911,222.438,29.191,474.193-11.454,685.282c-12.344,64.11-23.306,121.632-22.802,186.207
				c1.64,213.283,57.405,373.291,25.438,587.258c-11.95,79.971-27.368,117.428-53.032,218.02
				c-34.127,133.777-95.66,219.83-180.739,370.123c-20.388,36.023-60.038,88.148-93.43,95.451
				c-128.071,28.006-343.708-105.461-424.04-215.023c-77.27-105.363-118.386-183.695-126.529-308.408
				c-8.732-133.713-11.108-300.908-35.938-430.051c-20.546-106.809-31.55-184.308-61.562-260.373
				c-20.654-52.354-40.285-90.396-86.003-151.367c-35.457-47.282-53.721-92.842-80.472-145.875
				c-72.187-143.146-57.284-247.623-49.484-361.068c5.933-86.305,46.382-198.179,98.407-255.401
				c19.524-21.476,41.239-35.986,70.091-66.418c24.315-25.646,50.82-56.704,56.807-29.52c-7.86,22.711-21.726,42.832-37.533,61.923
				c10.626-11.519,22.266-20.153,33.82-20.191c-6.896,29.826-28.905,110.983-23.915,173.091c1.273,15.911,3.915,28.496,4.609,32.555
				c5.673,33.477,14.566,64.973,28.346,94.38c-53.056-124.516-4.245-262.668,43.264-380.294
				c18.742-46.387,61.601-130.416,61.601-130.416c5.271-2.479,10.548-4.943,15.832-7.396
				c-71.21,33.062-141.23,68.045-205.068,112.667c-111.037,77.62-190.336,172.13-244.756,277.414
				c14.11-22.76,31.33-42.156,52.884-53.468c2.323,50.459-40.021,89.501-51.29,136.336c-12.715,52.915-1.156,107.26,1.347,160.333
				c2.563,54.563-29.899,100.5-29.933,153.787c-0.018,42.21,23.009,81.313,43.144,117.008c23.17,41.073,28.88,70.971,20.447,118.38
				c-4.847,27.264,3.777,34.396,14.103,56.371c10.928,23.235,12.91,36.872,14.765,63.181c29.615,8.021,81.829,36.389,102.449,58.774
				c28.12,30.505,0.554,67.146,22.042,101.802c12.159,19.621,25.597,30.523,28.736,55.466c3.01,23.75-6.995,41.146,5.746,62.471
				c10.221,17.102,26.835,16.486,30.52,41.613c3.717,25.385-16.44,34.115-17.65,55.559c-1.194,21.352,17.035,33.656,13.699,56.9
				c-2.41,16.744-13.943,33.289-16.967,51.049c-7.681,45.117,9.021,57.83,26.645,95.732
				c36.467,78.457,34.943,168.611,61.872,249.145c15.25,45.598,14.642,92.561,27.837,139.02
				c10.339,36.424,34.696,68.064,48.535,103.408c15.736,40.195,32.523,81.365,67.264,108.947
				c38.602,30.664,91.077,23.23,118.258,70.035c12.736,21.934,22.141,46.652,38.847,66.121
				c17.647,20.58,42.632,32.598,57.244,56.201c10.998,17.752,10.745,30.639,31.665,36.639c21.971,6.311,31.67-6.453,55.27,9.469
				c17.457,11.777,22.203,26.633,33.823,41.766c19.178,24.971,14.277,19.127,43.521,17.721c25.368-1.225,25.964-7.982,48.312,13.004
				c13.083,12.287,22.943,37.248,39.792,44.662c22.206,9.764,31.542-7.033,49.579-14.6c20.502-8.582,37.752-1.32,56.612-6.969
				c29.383-8.791,41.22-72.186,76.347-48.951c-22.512-14.922,70.083-113.838,78.387-124.727
				c32.665-42.771,21.831-93.809,30.311-143.807c4.068-23.988,14.484-48.82,30.64-66.631c15.358-16.926,32.736-20.92,41.976-40.598
				c8.243-17.578,3.582-35.117,12.648-52.813c8.638-16.867,22.945-28.621,31.967-45.705c17.151-32.51,10.643-64.877,34.861-94.729
				c32.137-39.574,86.667-86.252,84.334-142.367c-0.027-0.703-14.903-16.777-16.525-21.35c-3.796-10.789-0.193-24.227,1.445-34.963
				c4.274-28.127,15.494-53.895,30.569-75.502c12.315-17.66,19.869-22.273,23.103-40.498c0.714-4.006,1.219-8.67,1.511-14.279
				c1.297-24.115-4.809-48.523,1.138-72.41c14.661-58.943,49.321-86.424,21.846-146.887c-23.979-52.752-40.173-106.6-3.27-157.973
				c13.695-19.066,30.994-28.052,34.223-52.08c2.858-21.279-8.165-52.637-9.635-74.906c-3.052-45.988,12.717-90.837,7.361-136.905
				c-5.93-50.956-2.066-85.444,11.724-135.323c6.098-22.073,8.964-9.907-0.273-32.821c-5.707-14.185-19.683-24.21-24.681-39.373
				c-10.344-31.326,0.621-59.289,14.233-86.914c19.808-40.184,13.299-49.262-9.44-87.829c-22.876-38.771-4.113-61.643-7.475-101.954
				c-2.938-35.283-24.578-66.334-37.967-98.218c-9.32-22.208-0.964-36.142-6.492-60.297c-4.186-18.245-19.645-31.536-23.876-49.639
				c-5.517-23.647,9.703-46.702,5.956-68.222c-3.129-17.906-22.291-35.99-28.545-53.479c-9.96-27.843,4.226-47.145,1.424-70.657
				c-2.362-19.821-19.188-29.151-30.622-46.024c-24.163-35.63-2.969-78.442-26.037-115.632
				c-24.41-39.325-71.49-63.133-89.021-107.203c-11.916-29.963-13.869-55.414-39.315-76.389
				c-14.928-12.309-32.756-20.481-51.015-26.49c-31.802-10.473-75.045-18.458-107.587-6.646
				c-25.985,9.433-68.26,36.343-93.573,8.068c-9.024-10.079,1.563-24.11-8.401-31.879c-7.608-5.93-25.647-4.869-35.05-6.413
				c-16.01-2.624-14.966-9.065-6.738-13.948c-55.599,17.553-109.973,40.541-161.301,65.5c4.391-0.905,8.965-0.775,13.849,1.126
				c25.146,9.796,38.418,36.369,49.635,58.814c10.332,20.669,23.523,39.799,32.99,60.909c20.882,46.607,32.529,98.45,39.966,148.749
				c4.163,28.218,9.179,56.407,11.241,84.852c3.829,52.704,9.911,109.379,13.981,166.212L1714.706,1752.958z"/>
			<path id="_x31_80609130_1_" fill="#9DF0D2" stroke="#000000" d="M1113.842,1544.538c-48.792,120.784-102.48,264.945-38.796,390.3
				c58.296,114.736,193.116,175.224,310.922,203.185c98.383,23.317,231.151,33.307,285.156-72.278
				c19.526-38.175,26.23-86.662,30.678-128.818c11.655-110.501-6.357-238.856-14.397-349.669
				c-2.073-28.446-7.077-56.637-11.248-84.855c-7.438-50.302-19.087-102.147-39.966-148.758
				c-9.46-21.109-22.651-40.241-32.984-60.911c-11.215-22.447-24.49-49.021-49.636-58.813c-15.481-6.036-27.869,5.739-41.062,11.865
				c-13.252,6.153-25.704,13.835-38.561,20.766c-15.273,8.23-30.441,16.653-45.519,25.235
				c-80.875,46.012-168.06,82.38-252.996,122.324C1175.434,1414.109,1132.582,1498.146,1113.842,1544.538z"/>
			<path id="_x31_80609131_1_" fill="#9DF0D2" stroke="#000000" d="M1174.5,1414.772c-11.521,28.478-36.271,48.03-15.845,57.084
				c12.058,5.342,36.687-16.569,46.509-21.321c20.597-9.977,43.664-12.064,66.251-11.222c23.231,0.867,35.434,4.447,56.301,15.771
				c14.845,8.06,30.353,22.373,46.715,26.699c30.432,8.046,62.18-3.309,89.538-15.644c32.15-14.487,66.561-28.117,100.077-39.376
				c24.293-8.159,50.678-13.034,74.444-22.424c21.089-8.342,4.255-35.927-2.306-50.567c-9.465-21.108-22.656-40.24-32.988-60.908
				c-11.218-22.444-24.491-49.018-49.637-58.814c-15.484-6.03-27.871,5.743-41.056,11.87c-13.251,6.149-25.712,13.836-38.569,20.764
				c-15.273,8.229-30.44,16.653-45.517,25.234c-45.45,25.857-92.555,48.724-140.088,70.457
				C1213.146,1396.754,1197.327,1404.013,1174.5,1414.772z"/>
			<path id="_x31_80609133_1_" fill="#95E4C8" stroke="#000000" d="M1671.126,2065.737c19.544-38.214,26.251-86.766,30.695-128.954
				c0.885-8.402,8.402-80.677-16.947-86.577c-23.758-5.534-79.621,54.612-103.188,66.537
				c-118.119,59.764-232.895,6.103-346.763-28.357c-43.963-13.305-78.33-57.756-123.226-35.021
				c-123.129,62.343,60.719,197.753,111.012,222.933c56.727,28.408,111.158,49.369,163.258,61.723
				C1484.335,2161.332,1617.12,2171.321,1671.126,2065.737z"/>
			<path id="_x31_80609132_1_" fill="#9DF0D2" stroke="#000000" d="M1642.894,1775.487c-10.801,7.527-22.588,13.813-34.441,19.481
				c-26.996,12.911-56.501,20.036-85.997,24.328c-62.745,9.14-139.831,2.213-201.342-14.287
				c-35.915-9.625-70.348-22.662-104.515-36.921c-20.774-8.676-44.92-20.3-64.815-30.878l10.251,4.854
				c-48.685-26.547-78.727-48.74-74.453-106.127c2.123-28.566,16.109-79.977,47.695-90.57
				c34.081-11.437,72.256,27.471,97.532,44.714c61.632,42.048,127.486,78.599,200.688,95.882
				c62.441,14.733,144.592,19.97,192.114-32.105c23.594-25.861,35.56-64.274,36.116-98.998
				c0.571-35.168-27.892-146.682-1.616-124.713c11.173,44.087,15.664,67.972,17.919,87.513c3.321,28.731,8.854,68.096,12.04,100.271
				c3.05,30.917,7.928,62.647,1.946,93.524c-3.01,15.584-17.667,35.177-32.241,49.627
				C1653.873,1766.926,1647.989,1771.933,1642.894,1775.487z"/>
			<path id="_x31_80609135_1_" fill="#CCCCCC" stroke="#000000" d="M1054.653,2336.307
				c89.57,165.654,186.078,306.732,208.521,497.017c17.294,146.654,9.063,240.08,10.967,387.387
				c0.918,71.793-0.771,180.623,75.239,228.617c47.175,29.797,123.21,71.168,145.631,18.469
				c39.89-93.783-122.263-145.576-149.104-226.646c-40.158-121.309,12.257-294.961-10.313-420.242
				c-22.466-124.712-46.597-221.639-113.5-336.686c-49.934-85.851-103.957-180.906-135.718-275.141
				c-7.141-21.187-14.2-42.379-20.315-63.886c-11.681-41.047-22.796-84.035-23.831-126.919
				c-1.022-42.759,12.276-86.995,30.963-125.217c9.147-18.727,22.309-32.493,38.19-39.431c15.597-6.816,33.823-7.046,53.472,1.07
				c23.814,9.83,44.893,26.188,69.688,33.691c113.867,34.462,228.642,88.122,346.763,28.362
				c23.565-11.925,79.431-72.069,103.188-66.533c25.349,5.9,17.833,78.167,16.947,86.571
				c-4.443,42.188-11.143,90.737-30.696,128.948c-53.997,105.571-186.765,95.587-285.134,72.285
				c-32.196-7.624-65.009-16.09-95.238-29.81c-7.053-3.204-56.121-26.427-65.038-23.116c-20.953,7.786,13.895,46.803,20.485,57.08
				c16.172,25.228,35.979,49.221,53.703,73.299c15.692,21.318,32.276,42.025,48.82,62.684
				c35.249,44.012,69.965,88.011,93.764,139.458c20.558,44.432,32.819,91.307,40.403,139.534
				c8.267,52.604,21.832,104.608,25.805,157.817c5.255,70.345,2.475,140.921,4.614,211.369c1.224,40.076,4.032,80.18,10.801,119.744
				c4.869,28.443,11.707,56.568,21.397,83.775c7.969,22.377,20.507,47.813,41.042,61.498c45.076,30.055,92.27-17.51,110.683-57.408
				c55.513-120.305-12.001-253.596-29.63-374.545c-1.048-7.191-2.004-14.406-2.918-21.629c-0.282,5.154-0.896,9.736-1.945,13.502
				c-9.025,32.416-33.79,0.896-36.654-17.714c-5.184-33.703-12.141-64.645-21.759-97.982c-7.964-27.588-11.931-55.42-17.35-83.921
				c-11.776-61.921-31.535-122.067-66.644-174.561c-17.538-26.219-73.122-74.461-69.084-106.6
				c4.255-33.894,53.366-32.395,78.081-36.18c49.561-7.586,80.992-19.198,117.527-55.931c7.466-7.5,20.35-37.773,32.762-27.379
				c3.932,3.29,4.775,9.753,3.973,17.441c10.11-33.936,20.271-67.835,28.246-102.365c19.9-86.175,33.437-166.676,19.494-255.055
				c-2.236-14.171-9.136-33.126-12.327-47.124c-2.216-9.762-9.017-24.063-14.934-29.391c-16.268-14.653-36.469,19.064-48.256,29.464
				c-35.913,31.703-79.779,47.573-132.979,55.315c-62.746,9.14-139.833,2.214-201.343-14.287
				c-35.915-9.625-70.35-22.662-104.516-36.921c-20.773-8.676-44.919-20.299-64.815-30.877
				c-19.64-10.452-48.201-41.49-70.292-20.056c-16.996,16.499-30.981,51.552-37.017,60.791
				c-37.037,56.653-58.821,117.035-80.65,207.088C935.997,2099.856,1002.747,2240.32,1054.653,2336.307z"/>
			<path id="_x31_80609136_1_" fill="#CCCCCC" stroke="#000000" d="M1665.935,4311.839c36.965,15.197,76.54,24.701,119.355,26.27
				c231.884,8.504,519.6-177.475,640.782-372.365c142.152-228.607,136.546-513.543,136.687-773.48
				c0.138-231.756,28.486-450.342,8.529-684.944c-21.298-250.544-64.136-500.276-129.054-743.225
				c47.099,176.277,71.878,360.407,88.045,542.469c15.117,170.371-22.495,405.13-47.684,573.726
				c-26.078,174.555-10.864,255.861-73.014,422.146c-38.715,103.561-111.56,267.578-178.04,356.324
				c-122.803,163.951-171.187,262.256-261.715,479.313C1929.255,4235.353,1780.751,4338.931,1665.935,4311.839z"/>
			<path id="_x31_80609134_1_" fill="#AAAAAA" stroke="#000000" d="M1664.303,2737.774c-3.99-31.525-6.832-63.31-9.518-95.125
				c-0.022-0.182-0.05-0.375-0.073-0.555c-4.227-32.556-7.041-64.753-8.798-96.59c-0.383-3.503-0.768-7.006-1.174-10.504
				c-2.19-18.85-1.938-37.697-1.082-56.57c-0.554-41.45,0.338-82.255,1.888-122.397c1.867-48.379,10.32-94.152,23.786-139.835
				c0.243-0.822,0.573-1.819,0.958-2.938c1.906-7.154,3.908-14.314,6.01-21.486c2.282-7.783,4.596-15.556,6.912-23.325
				c0.803-7.687-0.041-14.15-3.973-17.441c-12.412-10.394-25.298,19.879-32.763,27.379c-36.536,36.733-67.965,48.347-117.527,55.931
				c-24.714,3.784-73.824,2.286-78.081,36.181c-4.039,32.137,51.545,80.38,69.084,106.599
				c35.109,52.493,54.866,112.641,66.643,174.561c5.422,28.502,9.388,56.334,17.351,83.92c9.618,33.34,16.575,64.281,21.758,97.984
				c2.866,18.611,27.63,50.13,36.655,17.714C1663.406,2747.511,1664.021,2742.927,1664.303,2737.774z"/>
		</g>
	</g>
</g>
</svg>
