<?xml version="1.0" encoding="utf-8"?>
<!-- Generator: Adobe Illustrator 16.0.0, SVG Export Plug-In . SVG Version: 6.00 Build 0)  -->
<!DOCTYPE svg PUBLIC "-//W3C//DTD SVG 1.1//EN" "http://www.w3.org/Graphics/SVG/1.1/DTD/svg11.dtd">
<svg version="1.1" id="Layer_1" xmlns="http://www.w3.org/2000/svg" xmlns:xlink="http://www.w3.org/1999/xlink" x="0px" y="0px"
	 width="5184px" height="4544px" viewBox="0 0 5184 4544" enable-background="new 0 0 5184 4544" xml:space="preserve">
<g>
	<g transform="scale(1.0)">
		<g id="_x31_80608952" transform=" scale(1.0, 1.0)">
			<path id="_x31_80608954" fill="#BFDAE3" stroke="#000000" d="M4524.179,1408.651c127.435,248.306,162.923,549.483,85.757,813.594
				c-34.125,116.78-50.488,210.438-58.373,330.045c-8.232,125.086-30.021,251.626-85.6,364.969
				c-158.886,323.962-527.254,1050.968-996.416,910.995c-349.634-104.314-783.736-324.711-857.253-722.713
				c-39.378-213.166-7.808-417.609-16.066-630.63c-14.667-378.377,28.067-757.873,89.566-1130.759
				c23.243-140.952,59.37-282.644,118.747-412.953c71.991-157.987,240.767-206.781,401.231-227.984
				c120.616-15.939,254.594,8.322,373.237,29.158c148.77,26.127,293.111,74.436,424.294,149.788
				C4228.988,1011.788,4403.764,1174.026,4524.179,1408.651z"/>
			<path id="_x31_80608955" fill="#B0FFB8" stroke="#000000" d="M4524.174,1408.623
				c-120.412-234.613-295.191-396.849-520.873-526.472c-131.184-75.347-275.519-123.656-424.289-149.782
				c-118.649-20.834-252.623-45.096-373.24-29.157c-160.459,21.201-329.239,70-401.226,227.984
				c-59.382,130.307-95.504,271.992-118.75,412.934c-61.497,372.877-104.24,752.359-89.568,1130.73
				c8.258,213.014-23.313,417.457,16.064,630.618c73.512,397.986,507.614,618.376,857.24,722.687
				c469.158,139.969,837.531-587.02,996.419-910.972c55.576-113.339,77.37-239.878,85.596-364.959
				c7.888-119.604,24.251-213.263,58.38-330.038C4687.096,1958.091,4651.611,1656.923,4524.174,1408.623z M3629.034,1860.865
				c-2.729,57.97-40.676,113.865-56.767,169.115c-20.696,71.007-20.119,144.527-34.187,216.614
				c-2.796,14.321-15.099,255.994-39.111,238.346c-25.276-18.581,11.172-251.679,14.588-269.281
				c13.293-68.574,11.4-138.688,11.878-208.176c0.289-42.323-3.659-89.68-10.047-133.829c-1.775-12.296-3.747-24.345-5.857-35.964
				c-4.137-22.635-49.313-158.053-17.393-170.715c23.627-9.382,53.201,45.089,63.709,60.008
				c20.763,29.467,56.441,52.758,67.71,88.313C3627.836,1828.793,3629.707,1846.55,3629.034,1860.865z"/>
			<path id="_x31_80608956" fill="#9AD2BD" stroke="#000000" d="M4524.174,1408.623
				c-120.412-234.613-295.191-396.849-520.873-526.472c-131.184-75.347-275.519-123.656-424.289-149.782
				c-118.649-20.834-252.623-45.096-373.24-29.157c-160.459,21.201-329.239,70-401.226,227.984
				c-59.382,130.307-95.504,271.992-118.75,412.934c-61.497,372.877-104.24,752.359-89.568,1130.73
				c8.258,213.014-23.313,417.457,16.064,630.618c73.512,397.986,507.614,618.376,857.24,722.687
				c469.158,139.969,837.531-587.02,996.419-910.972c55.576-113.339,77.37-239.878,85.596-364.959
				c7.888-119.604,24.251-213.263,58.38-330.038C4687.096,1958.091,4651.611,1656.923,4524.174,1408.623z M3629.034,1860.865
				c-2.729,57.97-40.676,113.865-56.767,169.115c-20.696,71.007-20.119,144.527-34.187,216.614
				c-2.796,14.321-15.099,255.994-39.111,238.346c-25.276-18.581,11.172-251.679,14.588-269.281
				c13.293-68.574,11.4-138.688,11.878-208.176c0.289-42.323-3.659-89.68-10.047-133.829c-1.775-12.296-3.747-24.345-5.857-35.964
				c-4.137-22.635-49.313-158.053-17.393-170.715c23.627-9.382,53.201,45.089,63.709,60.008
				c20.763,29.467,56.441,52.758,67.71,88.313C3627.836,1828.793,3629.707,1846.55,3629.034,1860.865z"/>
			<path id="_x31_80608957" fill="#9AD2BD" stroke="#000000" d="M4524.182,1408.621
				c-120.42-234.612-295.199-396.847-520.881-526.467c-131.184-75.351-275.519-123.656-424.289-149.783
				c-118.644-20.835-252.623-45.095-373.241-29.153c-160.457,21.202-329.236,70-401.225,227.984
				c-59.374,130.307-95.506,271.993-118.739,412.934c-61.499,372.881-104.24,752.359-89.57,1130.732
				c8.259,213.015-23.312,417.459,16.072,630.619c73.513,397.99,507.612,618.372,857.249,722.681
				c469.156,139.967,837.52-587.021,996.409-910.979c55.58-113.339,77.37-239.877,85.598-364.959
				c7.882-119.602,24.25-213.261,58.369-330.039C4687.102,1958.087,4651.618,1656.921,4524.182,1408.621z M3629.034,1860.865
				c-2.729,57.97-40.676,113.865-56.767,169.115c-20.696,71.007-20.119,144.527-34.187,216.614
				c-2.796,14.321-15.099,255.994-39.111,238.346c-25.276-18.581,11.172-251.679,14.588-269.281
				c13.293-68.574,11.4-138.688,11.878-208.176c0.289-42.323-3.659-89.68-10.047-133.829c-1.775-12.296-3.747-24.345-5.857-35.964
				c-4.137-22.635-49.313-158.053-17.393-170.715c23.627-9.382,53.201,45.089,63.709,60.008
				c20.763,29.467,56.441,52.758,67.71,88.313C3627.836,1828.793,3629.707,1846.55,3629.034,1860.865z M3920.793,1455.434
				c-1.65,21.333-5.985,45.518-17.318,64.078c-10.736,17.591-26.972,23.062-43.228,35.499
				c-51.319,39.292-94.887,81.105-150.858,114.912c-23.509,14.201-52.047,23.06-79.223,21.668
				c-19.979-1.015-39.204-7.561-55.171-21.596c-32.456-28.5-80.813-89.268-85.154-132.619c-6.53-65.049-9.624-129.607-12.43-202.801
				c-3.475-91.053,38.426-177.099,131.904-214.703c92.349-37.159,235.379-13.967,287.095,79.4
				C3935.866,1270.543,3926.914,1376.885,3920.793,1455.434z"/>
			<path id="_x31_80608958" fill="#82C7AE" stroke="#000000" d="M3879.832,820.646c14.011,6.508,19.971,29.043,27.149,41.386
				c31.859,54.729,86.671,96.677,142.084,125.428c17.927,9.307,39.855,14.747,56.636,25.698
				c17.444,11.381,29.496,31.865,43.203,47.208c29.709,33.234,65.585,57.241,97.515,87.756
				c35.558,33.994,64.896,75.197,89.114,117.821c17.311,30.469,30.313,63.142,46.602,94.148c14.34,27.285,36.389,49.708,51.6,76.519
				c6.712,11.82,5.734,22.831,7.08,36.333c1.709,17.268,5.52,34.3,12.607,50.191c11.504,25.785,14.215,49.833,8.846,76.581
				c-6.669,33.228,2.964,70.122,9.327,102.636c2.729,13.931,8.075,25.894,8.517,40.661c1.037,34.429-19.238,62.953-30.552,94.061
				c-12.187,33.505-15.155,69.33-19.239,104.488c-3.497,30.065-24.521,58.386-37.918,84.834
				c-14.896,29.408-29.438,59.05-46.671,87.188c-23.407,38.215-64.592,43.695-96.316,69.689
				c-48.634,39.847-60.382,121.279-86.684,176.047c-16.882,35.151-30.443,71.846-40.867,109.415
				c-7.067,25.463-13.149,51.827-22.821,76.378c-11.902,30.181-22.908,60.58-29.313,92.472
				c-12.271,61.079,1.486,122.385,17.679,181.338c16.625,60.562,30.709,119.876,36.538,182.598
				c11.484,123.643-11.135,244.185-83.224,346.855c-55.26,78.692-112.986,169.543-201.106,214.805
				c-33.841,17.383-74.861,18.548-106.724,39.398c-24.531,16.061-54.33,29.398-82.324,37.924
				c-35.125,10.715-71.11,9.762-106.577,1.342c-30.472-7.229-49.013-36.697-69.622-57.774
				c-24.879-25.445-52.263-48.241-78.696-72.018c-33.387-30.021-63.269-63.146-94.13-95.678
				c-15.938-16.812-25.451-42.815-36.928-63.359c-28.708-51.443-57.53-102.154-92.869-149.427
				c-67.213-89.913-152.577-166.602-184.964-277.671c-25.323-86.866-48.12-172.398-48.863-263.515
				c-0.43-53.178-2.15-98.018,13.809-148.213c16.241-51.034-6.295-98.979-9.393-151.999c-1.526-26.13-2.561-52.278-3.322-78.434
				c-0.69-22.974,3.597-52.286-3.023-74.398c-5.51-18.382-16.664-35.217-22.086-54.177c-6.516-22.801-9.829-47.731,0.228-70.054
				c15.678-34.79,20.452-76.12,6.402-112.5c-11.183-29.004-32.138-59.147-32.121-91.33c0.021-36.706,16.232-71.864,13.438-108.649
				c-10.866-143.045-10.378-286.455,9.067-428.825c4.324-31.672,6.7-63.54,9.253-95.402c2.361-29.525,5.472-59.198,10.119-88.468
				c17.011-107.196,59.447-192.647,135.41-270.01c39.343-40.055,76.089-82.044,114.77-122.668
				c12.252-12.861,29.363-20.486,46.731-25.075c32.415-8.564,65.254-16.041,98.654-19.519c16.018-1.666,30.639-2.29,46.175-6.197
				c13.036-3.292,32.647-11.05,46.045-9.624c-46.188-4.896-78.187-6.943-118.323-6.521l-93.979,2.875
				c-160.463,21.207-329.237,70.005-401.225,227.989c-59.818,131.273-89.001,292.784-94.9,436.452
				c-10.454,254.297-1.695,507.02-19.559,761.592c-28.539,406.795-2.165,798.701,236.071,1145.439
				c113.335,164.965,259.396,309.524,424.691,422.313c163.9,111.838,351.438,152.852,525.012,31.748
				c106.875-74.57,194.14-159.805,271.616-264.952c56.013-76.014,106.813-155.297,155.104-236.394
				c50.423-84.697,42.432-164.752,35.218-260.164c-8.098-107.063-12.307-219.916,5.097-326.244
				c27.452-167.646,119.769-302.322,210.045-441.799c76.418-118.074,105.246-231.563,92.515-370.424
				c-13.412-146.152-54.211-289.467-121.275-420.153c-120.42-234.611-295.199-396.847-520.88-526.466
				C4003.303,882.154,3946.847,851.785,3879.832,820.646z"/>
			<path id="_x31_80608962" fill="#82C7AE" stroke="#000000" d="M3790.425,3272.46c47.776-55.915,62.358-130.516,63.021-202.18
				c2.573-277.388-174.402-572.174-29.32-838.472c32.371-59.429,80.566-116.126,127.236-164.818
				c36.328-37.901,76.693-78.119,115.666-120.831c105.735-115.892,211.389-254.353,172.897-422.969
				c-14.637-64.128-48.887-118.936-88.659-169.501c-44.285-56.299-78.835-118.92-126.132-173.712
				c-86.847-100.622-200.823-184.891-324.556-234.309c-40.975-16.368-86.621-26.994-133.365-30.88
				c-86.212-7.166-176.156,8.619-247.416,53.751c-124.382,78.784-175.489,260.373-177.857,399.584
				c-0.912,54.082,5.355,108.691,13.007,162.154c12.535,87.508,51.483,169.024,69.063,254.091c0.208,0.996,0.427,1.989,0.627,2.983
				c0.143,0.721,0.271,1.443,0.411,2.163c0.442,2.252,0.884,4.505,1.294,6.763c0.318,1.757,0.605,3.518,0.902,5.277
				c0.207,1.227,0.431,2.448,0.63,3.677c0.455,2.833,0.877,5.674,1.277,8.518c0.022,0.157,0.049,0.311,0.069,0.468l0,0
				c0.001,0.001,0.001,0.002,0.001,0.003c14.496,104.229,41.436,201.147,36.32,307.936c-3.997,83.323-5.498,165.664-17.308,248.448
				c-18.86,132.353-36.701,255.735-9.711,388.731c25.925,127.727,80.222,250.254,158.944,354.472
				c37.753,49.992,70.396,101.946,117.816,143.945c49.411,43.748,113.944,74.365,174.518,68.799
				c0.889-0.082,1.771-0.188,2.656-0.283c0.623-0.072,1.245-0.126,1.863-0.203
				C3729.035,3321.813,3762.274,3305.406,3790.425,3272.46z M3534.61,2790.204c-37.381,9.985-32.211-81.416-32.087-99.089
				c0.452-63.04-23.29-122.587-3.037-185.717l-0.497-20.457c-25.286-18.585,11.164-251.68,14.585-269.284
				c13.286-68.574,11.396-138.683,11.871-208.173c0.289-42.326-3.661-89.684-10.045-133.83c-1.777-12.295-3.749-24.349-5.861-35.964
				c-4.135-22.636-49.311-158.057-17.391-170.718l26.654,7.66c-41.111-27.261-69.043-37.896-89.168-88.559
				c-14.077-35.445-14.466-70.285-10.823-107.403c4.315-44.137,20.498-121.71,59.385-161.867l-0.431-9.721
				c5.191-80.509,47.55-153.416,131.549-187.21c92.35-37.158,235.378-13.968,287.096,79.4c14.401,26.01,22.352,56.71,26.354,89.013
				l2.658,0.752c88.883,60.396,172.461,144.534,140.265,182.875c-21.526-5.234-30.558-21.033-46.79-37.742
				c-30.031-30.899-59.814-66.008-92.791-95.974c0.768,40.887-2.552,81.882-5.311,117.236c-1.652,21.333-5.986,45.518-17.32,64.079
				c-10.736,17.591-26.972,23.062-43.226,35.499l-32.834,28.853c16.54-11.959,59.905-50.032,83.613-42.254
				c49.369,16.207-75.4,171.06-88.149,189.485c-106.821,154.463-179.416,319.181-212.66,504.803
				c-11.788,65.881-29.339,130.672-38.886,196.947c-4.241,29.396-12.028,61.05-8.132,90.438
				c4.799,36.29,16.378,71.982,29.887,105.87c12.908,32.391,18.099,66.733,0.144,98.47
				C3583.933,2744.054,3553.384,2785.186,3534.61,2790.204z"/>
			<path id="_x31_80608961" fill="#9AD2BD" stroke="#000000" d="M3475.283,868.518c-42.113,8.359-85.348,10.073-125.062,29.186
				c-99.641,47.951-168.621,148.36-208.634,248.459c-35.957,89.958-50.364,190.164-47.412,286.79
				c3.277,107.492,40.842,223.593,76.31,324.014c60.957,172.662,66.349,370.053,45.062,549.332
				c-16.346,137.703-50.724,283.213-29.824,421.997c14.406,95.643,40.325,212.481,87.828,297.326
				c15.895,28.412,40.045,50.781,58.996,76.816c79.342,108.975,116.243,259.229,271.958,278.304
				c75.893,9.293,169.526-5.47,223.511-63.354c50.357-53.996,72.231-152.741,71.518-224.874
				c-0.839-84.341-37.988-158.106-50.645-239.246c-14.134-90.608-31.333-180.717-44.28-271.509
				c-10.296-72.073-2.313-185.843,29.719-251.923c55.325-114.141,134.481-195.591,220.27-287.492
				c157.081-168.304,329.825-397.88,193.538-635.897c-58.477-102.12-136.956-191.657-219.504-274.933
				c-75.856-76.537-154.391-161.41-253.643-207.687c-26.776-12.472-95.677-33.193-105.462-65.61
				C3642.735,871.496,3503.417,862.941,3475.283,868.518z M3700.582,945.663c123.731,49.418,237.707,133.687,324.56,234.308
				c47.291,54.793,81.846,117.414,126.133,173.711c39.771,50.566,74.014,105.373,88.66,169.501
				c38.49,168.619-67.165,307.079-172.897,422.969c-38.973,42.714-79.339,82.933-115.664,120.831
				c-46.671,48.7-94.856,105.395-127.239,164.822c-145.074,266.303,31.901,561.084,29.327,838.474
				c-0.662,71.663-15.246,146.265-63.021,202.18c-28.15,32.95-61.397,49.356-96.115,53.605c-0.618,0.075-1.242,0.13-1.863,0.2
				c-0.885,0.098-1.768,0.202-2.656,0.284c-60.576,5.576-125.119-25.046-174.533-68.803
				c-47.424-41.996-80.066-93.949-117.817-143.943c-78.723-104.218-133.021-226.744-158.945-354.47
				c-26.989-132.996-9.149-256.382,9.719-388.737c11.811-82.783,13.31-165.122,17.308-248.445
				c5.115-106.788-21.822-203.708-36.312-307.936c-0.021-0.157-0.048-0.312-0.07-0.469c-0.4-2.844-0.822-5.685-1.278-8.518
				c-0.197-1.228-0.422-2.45-0.628-3.677c-0.298-1.76-0.586-3.521-0.903-5.277c-0.41-2.257-0.851-4.511-1.292-6.763
				c-0.141-0.72-0.269-1.442-0.412-2.161c-0.2-0.997-0.42-1.989-0.627-2.984c-17.583-85.069-56.537-166.586-69.071-254.094
				c-7.646-53.466-13.923-108.074-13-162.157c2.369-139.211,53.476-320.796,177.858-399.579
				c71.259-45.137,161.202-60.92,247.416-53.752C3613.959,918.671,3659.605,929.296,3700.582,945.663z"/>
			<path id="_x31_80608960" fill="#82C7AE" stroke="#000000" d="M3871.291,941.909c-38.633-28.418-151.537-90.583-201.767-83.691
				c9.783,32.417,78.686,53.139,105.462,65.611c99.254,46.274,177.786,131.148,253.643,207.687
				c82.549,83.275,161.027,172.812,219.504,274.933c136.289,238.017-36.455,467.594-193.538,635.896
				c-85.787,91.899-164.944,173.351-220.27,287.492c-32.03,66.08-40.013,179.85-29.719,251.923
				c12.948,90.792,30.146,180.901,44.28,271.509c12.655,81.139,49.806,154.905,50.646,239.246
				c0.711,72.132-21.161,170.879-71.518,224.874c-53.984,57.885-147.619,72.649-223.512,63.354
				c-155.715-19.075-192.616-169.329-271.959-278.302c-18.951-26.036-43.1-48.406-58.996-76.818
				c-47.503-84.844-73.422-201.683-87.828-297.327c-20.899-138.783,13.479-284.292,29.824-421.994
				c21.287-179.28,15.896-376.672-45.062-549.333c-35.468-100.422-73.032-216.522-76.308-324.014
				c-2.954-96.626,11.454-196.833,47.41-286.791c40.012-100.098,108.993-200.508,208.634-248.459
				c39.714-19.112,82.949-20.828,125.062-29.187c28.134-5.576,167.454,2.979,194.24-10.299
				c-34.105-47.712-218.65-33.66-267.478-20.193c-248.244,68.424-339.299,334.851-344.723,566.259
				c-2.583,110.304,24.519,222.647,57.646,327.324c44.154,139.546,79.236,278.048,81.762,424.761
				c2.522,146.035-49.19,295.322-59.86,442.069c-9.359,128.802,17.186,251.83,69.717,369.666
				c28.958,64.932,66.334,125.507,110.308,181.371c49.521,62.934,75.581,141.71,128.609,202.107
				c62.618,71.323,152.28,90.773,243.765,70.883c70.1-15.248,114.386-33.438,166.506-83.003
				c67.787-64.444,88.292-181.162,80.027-270.746c-24.25-262.69-190.885-530.035-26.12-784.616
				c66.609-102.902,160.87-178.229,240.057-269.882c45.365-52.515,92.17-110.715,122.103-173.764
				c30.182-63.582,54.094-134.237,60.776-204.537c19.525-205.397-107.532-358.166-242.777-492.083
				C4020.675,1075.335,3949.817,999.665,3871.291,941.909z"/>
			<path id="_x31_80608959" fill="#9AD2BD" stroke="#000000" d="M4453.414,1523.146c-7.088-15.892-10.898-32.924-12.608-50.193
				c-1.336-13.502-0.364-24.511-7.071-36.338c-15.219-26.812-37.259-49.234-51.606-76.519c-16.29-31-29.283-63.679-46.596-94.145
				c-24.226-42.626-53.555-83.831-89.111-117.825c-31.931-30.515-67.806-54.521-97.516-87.756
				c-13.714-15.341-25.759-35.827-43.204-47.204c-16.786-10.955-38.706-16.396-56.643-25.701
				c-55.405-28.752-110.216-70.702-142.077-125.43c-7.177-12.342-13.14-34.878-27.14-41.39
				c67.007,31.141,123.462,61.512,123.462,61.512c-131.185-75.351-275.521-123.66-424.29-149.786
				c-118.642-20.837-252.615-45.096-373.233-29.154l93.97-2.879c40.139-0.419,72.135,1.625,118.324,6.521
				c-13.398-1.421-33.011,6.336-46.045,9.624c-15.535,3.908-30.159,4.531-46.177,6.198c-33.398,3.477-66.23,10.952-98.653,19.522
				c-17.367,4.586-34.479,12.216-46.725,25.07c-38.676,40.628-75.434,82.616-114.776,122.671
				c-75.963,77.361-118.398,162.813-135.41,270.008c-4.647,29.268-7.755,58.945-10.119,88.468
				c-2.552,31.858-4.927,63.728-9.257,95.403c-19.448,142.367-19.937,285.776-9.07,428.825c2.794,36.788-13.411,71.94-13.44,108.647
				c-0.015,32.182,20.939,62.33,32.131,91.33c14.043,36.384,9.267,77.711-6.41,112.504c-10.057,22.314-6.742,47.246-0.228,70.049
				c5.423,18.965,16.575,35.795,22.086,54.178c6.619,22.114,2.332,51.427,3.025,74.399c0.761,26.16,1.795,52.308,3.322,78.434
				c3.097,53.02,25.623,100.965,9.392,151.996c-15.968,50.202-14.246,95.037-13.816,148.217
				c0.744,91.115,23.538,176.648,48.863,263.516c32.386,111.067,117.742,187.759,184.964,277.668
				c35.341,47.273,64.16,97.99,92.868,149.427c11.477,20.551,20.987,46.548,36.929,63.357c30.862,32.538,60.745,65.663,94.13,95.683
				c26.434,23.778,53.81,46.575,78.689,72.021c20.616,21.075,39.147,50.544,69.621,57.774c35.469,8.418,71.449,9.371,106.575-1.336
				c27.992-8.535,57.803-21.875,82.326-37.928c31.862-20.854,72.885-22.017,106.725-39.397
				c88.129-45.267,145.848-136.112,201.106-214.807c72.095-102.67,94.715-223.21,83.222-346.849
				c-5.821-62.73-19.903-122.044-36.528-182.604c-16.194-58.947-29.95-120.26-17.678-181.34
				c6.413-31.893,17.412-62.285,29.312-92.465c9.681-24.553,15.755-50.916,22.818-76.383
				c10.427-37.568,23.991-74.256,40.878-109.416c26.301-54.764,38.042-136.196,86.683-176.043
				c31.724-25.991,72.903-31.471,96.319-69.69c17.231-28.137,31.765-57.772,46.67-87.182c13.396-26.453,34.42-54.774,37.918-84.839
				c4.084-35.159,7.051-70.977,19.237-104.487c11.316-31.104,31.59-59.631,30.555-94.058c-0.445-14.771-5.788-26.73-8.52-40.661
				c-6.353-32.52-15.993-69.413-9.318-102.638C4467.637,1572.978,4464.921,1548.929,4453.414,1523.146z M4332.616,1635.92
				c-6.684,70.298-30.597,140.957-60.777,204.537c-29.933,63.048-76.737,121.248-122.103,173.764
				c-79.187,91.653-173.449,166.978-240.059,269.882c-164.765,254.579,1.871,521.926,26.121,784.617
				c8.264,89.581-12.238,206.3-80.026,270.745c-52.118,49.565-96.407,67.755-166.508,83.003
				c-91.482,19.891-181.145,0.44-243.764-70.883c-53.027-60.399-79.087-139.174-128.609-202.107
				c-43.975-55.863-81.348-116.439-110.307-181.371c-52.531-117.836-79.076-240.865-69.717-369.666
				c10.669-146.748,62.383-296.036,59.86-442.069c-2.527-146.713-37.608-285.216-81.762-424.761
				c-33.128-104.676-60.228-217.019-57.646-327.323c5.422-231.409,96.479-497.835,344.723-566.26
				c48.827-13.466,233.37-27.52,267.478,20.193c50.23-6.892,163.136,55.274,201.768,83.69
				c78.525,57.757,149.383,133.428,218.547,201.929C4225.081,1277.754,4352.142,1430.522,4332.616,1635.92z"/>
			<path id="_x31_80608963" fill="#9DF0D2" stroke="#000000" d="M3609.315,1119.874c-93.479,37.604-135.379,123.649-131.904,214.703
				c2.806,73.194,5.899,137.751,12.43,202.801c4.341,43.351,52.698,104.119,85.154,132.619
				c15.966,14.036,35.192,20.581,55.171,21.596c27.176,1.392,55.714-7.467,79.223-21.668
				c55.972-33.807,99.539-75.62,150.858-114.912c16.256-12.437,32.491-17.908,43.228-35.499
				c11.333-18.561,15.668-42.744,17.318-64.078c6.123-78.548,15.073-184.889-24.383-256.161
				C3844.694,1105.906,3701.664,1082.714,3609.315,1119.874z"/>
			<path id="_x31_80608964" fill="#95E4C8" stroke="#000000" d="M3630.166,1691.592c-19.979-1.015-39.204-7.561-55.171-21.596
				c-32.456-28.5-80.804-89.262-85.163-132.608c-3.021-30.118-13.225-68.736,1.924-97.396
				c29.154-55.135,88.947,6.095,117.569,28.552c42.019,32.953,102.904,44.604,153.792,28.22
				c34.133-10.994,94.191-46.419,126.775-12.536c25.824,26.857-22.594,63.556-40.578,78.636
				c-44.892,37.631-89.629,76.682-139.926,107.06C3685.88,1684.125,3657.342,1692.983,3630.166,1691.592z"/>
			<path id="_x31_80608966" fill="#CCCCCC" stroke="#000000" d="M4592.86,1573.582c27.021,82.703,44.632,168.45,52.591,255.197
				c12.729,138.864-16.105,252.352-92.525,370.428c-90.275,139.474-182.593,274.153-210.044,441.797
				c-17.402,106.324-13.194,219.181-5.101,326.243c7.022,92.94,14.787,171.311-31.427,253.589
				c65.497-113.328,119.288-221.454,159.6-303.639c55.576-113.341,77.368-239.876,85.604-364.957
				c7.879-119.605,24.251-213.264,58.37-330.04C4670.664,2014.336,4661.599,1783.518,4592.86,1573.582z"/>
			<path id="_x31_80608967" fill="#CCCCCC" stroke="#000000" d="M3875.847,3728.75c-173.581,121.107-361.12,80.09-525.021-31.748
				c-165.288-112.792-311.358-257.352-424.685-422.318c-238.229-346.745-264.601-738.652-236.063-1145.441
				c17.875-254.574,9.105-507.296,19.565-761.594c5.9-143.666,35.085-305.173,94.903-436.451
				c-59.375,130.307-95.506,271.993-118.751,412.934c-61.497,372.881-104.229,752.358-89.568,1130.734
				c8.258,213.008-23.313,417.452,16.063,630.615c73.515,397.988,507.614,618.375,857.25,722.686
				c347.506,103.676,639.712-268.295,832.453-599.818c-48.124,80.772-98.745,159.731-154.532,235.449
				C4069.977,3568.949,3982.712,3654.184,3875.847,3728.75z"/>
			<path id="_x31_80608968" fill="#CCCCCC" stroke="#000000" d="M3972.205,1876.844c-43.153,42.264-87.928,82.935-129.939,126.373
				c-80.91,83.641-134.322,159.32-146.505,278.998c-24.505,240.608,122.464,551.094-16.006,726.062
				c-19.266,24.34-106.217,78.362-47.264,88.318c85.94,14.51,132.256-160.17,140.198-212.638
				c23.8-156.95-25.015-343.824-34.103-499.651c-8.424-144.533,30.751-227.981,126.48-333.842
				c80.753-89.293,173.896-189.956,268.048-281.521c49.498-48.134-15.396-55.072-57.615-23.843
				C4026.68,1781.223,4014.908,1835.02,3972.205,1876.844z"/>
			<path id="_x31_80608969" fill="#CCCCCC" stroke="#000000" d="M3621.261,1904.027c-12.584,42.755-36.931,84.528-48.993,125.953
				c-45.236,155.303-22.596,318.962-72.791,475.42c-20.254,63.126,3.483,122.671,3.027,185.713
				c-0.12,17.677-5.292,109.074,32.088,99.089c18.775-5.02,49.325-46.147,58.621-62.584c17.956-31.729,12.768-66.072-0.146-98.461
				c-13.497-33.889-25.084-69.588-29.884-105.872c-3.896-29.387,3.898-61.048,8.133-90.442
				c9.548-66.275,27.097-131.065,38.894-196.946c33.245-185.622,105.835-350.338,212.659-504.798
				c12.751-18.429,137.527-173.279,88.148-189.489c-23.698-7.78-67.071,30.294-83.603,42.253
				c-39.411,28.478-76.332,60.877-118.032,86.061c-40.769,24.632-96.706,33.19-134.396,0.073
				c-32.456-28.5-80.808-89.274-85.156-132.622c-2.934-29.193-3.997-64.787-7.182-94.066c-3.882-35.681,7.096-77.046,38.381-98.135
				c34.908-23.523,85.059-7.958,124.437-14.549c45.299-7.586,83.518-31.628,124.502-50.543
				c36.29-16.751,76.332,0.727,108.108,20.855c53.586,33.943,96.932,88.086,140.819,133.238
				c16.226,16.71,25.266,32.508,46.792,37.742c10.613,2.584-3.569-54.719-5.511-58.212c-16.648-29.928-45.654-53.621-71.445-75.314
				c-54.229-45.63-122.927-108.666-198.439-107.771c-21.411,0.247-42.135,5.971-61.721,14.316
				c-21.417,9.122-41.12,27.125-62.709,34.493c-24.01,8.191-46.779,11.583-72.029,12.11c-23.736,0.501-45.056-2.904-68.771,0.232
				c-73.654,9.746-100.492,128.057-106.258,186.898c-3.634,37.121-3.254,71.96,10.831,107.4
				c20.117,50.669,48.049,61.299,89.168,88.565c20.705,13.732,28.133,41.821,43.33,60.568
				c21.021,25.929,50.943,47.041,61.427,80.093c4.276,13.499,6.147,31.254,5.473,45.568
				C3628.355,1875.375,3625.461,1889.752,3621.261,1904.027z"/>
			<path id="_x31_80608965" fill="#AAAAAA" stroke="#000000" d="M3515.391,1873.654c-1.775-12.296-3.747-24.346-5.859-35.965
				c-4.135-22.635-49.311-158.053-17.392-170.715c23.626-9.382,53.199,45.088,63.71,60.007
				c20.762,29.467,56.44,52.759,67.708,88.314c4.277,13.498,6.149,31.254,5.475,45.567c-2.729,57.971-40.676,113.866-56.766,169.115
				c-20.697,71.007-20.119,144.527-34.187,216.615c-2.796,14.32-15.1,255.994-39.111,238.345
				c-25.277-18.581,11.172-251.679,14.587-269.28c13.293-68.576,11.4-138.688,11.88-208.177
				C3525.727,1965.16,3521.776,1917.803,3515.391,1873.654z"/>
		</g>
	</g>
	<g transform="scale(1.0)">
		<g id="_x31_80608952_1_" transform=" scale(1.0, 1.0)">
			<path id="_x31_80608954_1_" fill="#BFDAE3" stroke="#000000" d="M1180.696,882.16c131.183-75.352,275.524-123.66,424.294-149.787
				c118.644-20.836,252.621-45.098,373.237-29.158c160.465,21.203,329.24,69.997,401.231,227.984
				c59.377,130.309,95.504,272.001,118.747,412.953c61.499,372.886,104.233,752.382,89.566,1130.759
				c-8.259,213.021,23.312,417.464-16.066,630.63c-73.517,398.002-507.619,618.398-857.253,722.714
				c-469.162,139.972-837.53-587.034-996.416-910.996c-55.579-113.343-77.367-239.883-85.6-364.969
				c-7.885-119.607-24.248-213.266-58.373-330.045c-77.166-264.11-41.678-565.288,85.757-813.594
				C780.236,1174.026,955.012,1011.788,1180.696,882.16z"/>
			<path id="_x31_80608955_1_" fill="#B0FFB8" stroke="#000000" d="M574.073,2222.196c34.129,116.774,50.492,210.434,58.38,330.037
				c8.226,125.081,30.02,251.62,85.596,364.959c158.888,323.952,527.261,1050.941,996.419,910.972
				c349.626-104.31,783.729-324.7,857.241-722.687c39.377-213.161,7.807-417.604,16.064-630.618
				c14.67-378.37-28.072-757.853-89.569-1130.729c-23.246-140.941-59.368-282.627-118.75-412.934
				c-71.986-157.984-240.767-206.783-401.226-227.984c-120.617-15.938-254.591,8.322-373.24,29.157
				c-148.771,26.125-293.105,74.435-424.289,149.781c-225.682,129.624-400.461,291.859-520.873,526.473
				C532.389,1656.923,496.904,1958.092,574.073,2222.196z M1560.442,1815.297c11.269-35.556,46.947-58.847,67.71-88.313
				c10.508-14.919,40.082-69.39,63.709-60.008c31.92,12.662-13.256,148.08-17.393,170.715c-2.11,11.619-4.082,23.668-5.857,35.965
				c-6.388,44.148-10.336,91.506-10.047,133.829c0.478,69.487-1.415,139.602,11.878,208.176
				c3.416,17.602,39.864,250.699,14.588,269.28c-24.013,17.647-36.315-224.024-39.111-238.346
				c-14.067-72.087-13.49-145.607-34.187-216.614c-16.091-55.25-54.037-111.146-56.767-169.115
				C1554.293,1846.551,1556.164,1828.794,1560.442,1815.297z"/>
			<path id="_x31_80608956_1_" fill="#9AD2BD" stroke="#000000" d="M574.073,2222.196c34.129,116.774,50.492,210.434,58.38,330.037
				c8.226,125.081,30.02,251.62,85.596,364.959c158.888,323.952,527.261,1050.941,996.419,910.972
				c349.626-104.31,783.729-324.7,857.241-722.687c39.377-213.161,7.807-417.604,16.064-630.618
				c14.67-378.37-28.072-757.853-89.569-1130.729c-23.246-140.941-59.368-282.627-118.75-412.934
				c-71.986-157.984-240.767-206.783-401.226-227.984c-120.617-15.938-254.591,8.322-373.24,29.157
				c-148.771,26.125-293.105,74.435-424.289,149.781c-225.682,129.624-400.461,291.859-520.873,526.473
				C532.389,1656.923,496.904,1958.092,574.073,2222.196z M1560.442,1815.297c11.269-35.556,46.947-58.847,67.71-88.313
				c10.508-14.919,40.082-69.39,63.709-60.008c31.92,12.662-13.256,148.08-17.393,170.715c-2.11,11.619-4.082,23.668-5.857,35.965
				c-6.388,44.148-10.336,91.506-10.047,133.829c0.478,69.487-1.415,139.602,11.878,208.176
				c3.416,17.602,39.864,250.699,14.588,269.28c-24.013,17.647-36.315-224.024-39.111-238.346
				c-14.067-72.087-13.49-145.607-34.187-216.614c-16.091-55.25-54.037-111.146-56.767-169.115
				C1554.293,1846.551,1556.164,1828.794,1560.442,1815.297z"/>
			<path id="_x31_80608957_1_" fill="#9AD2BD" stroke="#000000" d="M574.066,2222.192c34.119,116.777,50.487,210.437,58.369,330.038
				c8.228,125.082,30.018,251.62,85.598,364.959c158.89,323.958,527.253,1050.946,996.409,910.979
				c349.637-104.309,783.736-324.691,857.249-722.682c39.385-213.16,7.814-417.604,16.072-630.619
				c14.67-378.372-28.071-757.851-89.57-1130.731c-23.233-140.94-59.365-282.627-118.739-412.934
				c-71.988-157.983-240.768-206.782-401.225-227.984c-120.618-15.941-254.598,8.318-373.241,29.153
				c-148.771,26.126-293.105,74.432-424.289,149.782c-225.682,129.62-400.461,291.855-520.881,526.467
				C532.382,1656.922,496.898,1958.087,574.066,2222.192z M1560.442,1815.297c11.269-35.556,46.947-58.847,67.71-88.313
				c10.508-14.919,40.082-69.39,63.709-60.008c31.92,12.662-13.256,148.08-17.393,170.715c-2.11,11.619-4.082,23.668-5.857,35.965
				c-6.388,44.148-10.336,91.506-10.047,133.829c0.478,69.487-1.415,139.602,11.878,208.176
				c3.416,17.602,39.864,250.699,14.588,269.28c-24.013,17.647-36.315-224.024-39.111-238.346
				c-14.067-72.087-13.49-145.607-34.187-216.614c-16.091-55.25-54.037-111.146-56.767-169.115
				C1554.293,1846.551,1556.164,1828.794,1560.442,1815.297z M1287.59,1199.273c51.716-93.367,194.746-116.559,287.095-79.399
				c93.479,37.604,135.379,123.649,131.904,214.702c-2.806,73.194-5.899,137.752-12.43,202.801
				c-4.341,43.352-52.698,104.119-85.154,132.619c-15.967,14.035-35.192,20.581-55.171,21.596
				c-27.176,1.392-55.714-7.467-79.223-21.668c-55.972-33.807-99.539-75.62-150.858-114.912
				c-16.256-12.438-32.491-17.908-43.228-35.499c-11.333-18.561-15.668-42.745-17.318-64.078
				C1257.086,1376.885,1248.134,1270.544,1287.59,1199.273z"/>
			<path id="_x31_80608958_1_" fill="#82C7AE" stroke="#000000" d="M1180.698,882.151
				c-225.681,129.62-400.46,291.855-520.88,526.467c-67.064,130.687-107.863,274.001-121.275,420.153
				c-12.731,138.86,16.097,252.35,92.515,370.424c90.276,139.477,182.593,274.153,210.045,441.799
				c17.403,106.328,13.194,219.181,5.097,326.244c-7.214,95.412-15.205,175.467,35.218,260.164
				c48.29,81.097,99.091,160.38,155.104,236.394c77.477,105.147,164.741,190.383,271.616,264.953
				c173.574,121.103,361.111,80.09,525.012-31.748c165.295-112.789,311.356-257.349,424.691-422.313
				c238.236-346.738,264.61-738.644,236.071-1145.438c-17.863-254.572-9.104-507.295-19.559-761.592
				c-5.899-143.668-35.082-305.179-94.9-436.452c-71.987-157.983-240.762-206.781-401.225-227.988l-93.979-2.875
				c-40.137-0.423-72.136,1.625-118.323,6.521c13.397-1.427,33.009,6.331,46.045,9.623c15.536,3.907,30.157,4.531,46.175,6.197
				c33.4,3.478,66.239,10.955,98.654,19.519c17.368,4.59,34.479,12.215,46.731,25.075c38.681,40.625,75.427,82.613,114.77,122.669
				c75.963,77.362,118.399,162.813,135.41,270.01c4.647,29.271,7.758,58.943,10.119,88.468c2.553,31.862,4.929,63.729,9.253,95.402
				c19.445,142.37,19.934,285.779,9.067,428.825c-2.794,36.785,13.417,71.943,13.438,108.649
				c0.017,32.182-20.938,62.325-32.121,91.329c-14.05,36.38-9.275,77.71,6.402,112.5c10.057,22.322,6.743,47.253,0.228,70.054
				c-5.422,18.96-16.576,35.795-22.086,54.177c-6.62,22.112-2.333,51.424-3.023,74.397c-0.762,26.155-1.796,52.304-3.322,78.434
				c-3.098,53.021-25.634,100.965-9.393,151.999c15.959,50.195,14.238,95.035,13.809,148.213
				c-0.743,91.116-23.54,176.648-48.863,263.515c-32.387,111.069-117.751,187.758-184.964,277.671
				c-35.339,47.272-64.161,97.983-92.869,149.427c-11.477,20.544-20.99,46.548-36.928,63.359
				c-30.861,32.532-60.743,65.657-94.13,95.678c-26.434,23.776-53.817,46.572-78.696,72.018
				c-20.609,21.078-39.15,50.547-69.622,57.775c-35.467,8.42-71.452,9.372-106.577-1.342c-27.994-8.525-57.793-21.864-82.324-37.925
				c-31.862-20.851-72.883-22.016-106.724-39.398c-88.12-45.262-145.847-136.112-201.106-214.805
				c-72.089-102.671-94.708-223.213-83.224-346.855c5.829-62.722,19.913-122.036,36.538-182.598
				c16.192-58.953,29.949-120.259,17.679-181.338c-6.405-31.892-17.411-62.291-29.313-92.472
				c-9.672-24.551-15.754-50.915-22.821-76.378c-10.424-37.569-23.985-74.264-40.867-109.415
				c-26.302-54.769-38.05-136.2-86.684-176.047c-31.725-25.994-72.909-31.475-96.316-69.689
				c-17.233-28.138-31.775-57.779-46.671-87.188c-13.396-26.448-34.421-54.77-37.918-84.835
				c-4.084-35.158-7.053-70.983-19.239-104.488c-11.313-31.107-31.589-59.631-30.552-94.061c0.441-14.767,5.787-26.729,8.517-40.661
				c6.363-32.514,15.996-69.407,9.327-102.636c-5.369-26.747-2.658-50.796,8.846-76.58c7.088-15.892,10.898-32.924,12.607-50.191
				c1.346-13.502,0.368-24.513,7.08-36.333c15.211-26.812,37.26-49.233,51.6-76.519c16.289-31.007,29.291-63.68,46.602-94.148
				c24.219-42.624,53.557-83.827,89.114-117.821c31.93-30.516,67.806-54.521,97.515-87.756
				c13.707-15.344,25.759-35.827,43.203-47.208c16.78-10.952,38.709-16.392,56.636-25.698
				c55.413-28.751,110.225-70.699,142.084-125.428c7.179-12.343,13.139-34.878,27.149-41.387
				C1237.153,851.785,1180.697,882.154,1180.698,882.151z"/>
			<path id="_x31_80608962_1_" fill="#82C7AE" stroke="#000000" d="M1489.678,3326.063c0.618,0.077,1.24,0.131,1.863,0.203
				c0.885,0.096,1.768,0.201,2.656,0.283c60.573,5.566,125.106-25.051,174.518-68.799c47.421-41.999,80.063-93.953,117.816-143.945
				c78.723-104.218,133.02-226.745,158.944-354.472c26.99-132.996,9.149-256.379-9.711-388.731
				c-11.81-82.784-13.311-165.124-17.308-248.447c-5.115-106.788,21.824-203.706,36.32-307.936c0-0.001,0-0.002,0.001-0.003l0,0
				c0.021-0.157,0.047-0.312,0.069-0.468c0.4-2.844,0.822-5.685,1.277-8.518c0.199-1.229,0.423-2.45,0.63-3.677
				c0.297-1.76,0.584-3.521,0.902-5.277c0.41-2.258,0.852-4.511,1.294-6.764c0.14-0.72,0.269-1.442,0.411-2.163
				c0.2-0.994,0.419-1.986,0.627-2.982c17.58-85.067,56.528-166.583,69.063-254.091c7.651-53.464,13.919-108.073,13.007-162.154
				c-2.368-139.211-53.476-320.8-177.857-399.584c-71.26-45.133-161.204-60.917-247.416-53.751
				c-46.744,3.887-92.391,14.512-133.365,30.88c-123.732,49.418-237.709,133.688-324.556,234.309
				c-47.297,54.792-81.847,117.414-126.132,173.713c-39.772,50.565-74.022,105.373-88.659,169.501
				c-38.491,168.617,67.162,307.077,172.897,422.97c38.973,42.712,79.338,82.93,115.666,120.831
				c46.67,48.692,94.865,105.39,127.236,164.818c145.082,266.298-31.894,561.084-29.32,838.472
				c0.663,71.664,15.245,146.265,63.021,202.18C1421.726,3305.406,1454.965,3321.813,1489.678,3326.063z M1590.769,2727.622
				c-17.955-31.736-12.765-66.079,0.144-98.47c13.509-33.888,25.088-69.58,29.887-105.87c3.896-29.389-3.891-61.042-8.132-90.438
				c-9.547-66.274-27.098-131.065-38.886-196.946c-33.244-185.622-105.839-350.34-212.66-504.804
				c-12.749-18.425-137.519-173.278-88.149-189.485c23.708-7.778,67.073,30.295,83.613,42.254l-32.834-28.853
				c-16.254-12.437-32.489-17.907-43.226-35.498c-11.334-18.561-15.668-42.745-17.32-64.079
				c-2.759-35.354-6.078-76.349-5.311-117.235c-32.977,29.966-62.76,65.075-92.791,95.974c-16.232,16.71-25.264,32.509-46.79,37.742
				c-32.196-38.341,51.382-122.479,140.265-182.875l2.658-0.753c4.002-32.302,11.952-63.002,26.354-89.013
				c51.718-93.367,194.746-116.558,287.096-79.399c83.999,33.794,126.357,106.701,131.549,187.21l-0.431,9.721
				c38.887,40.156,55.069,117.73,59.385,161.867c3.643,37.118,3.254,71.958-10.823,107.402
				c-20.125,50.663-48.057,61.298-89.168,88.56l26.654-7.66c31.92,12.662-13.256,148.082-17.391,170.719
				c-2.112,11.615-4.084,23.669-5.861,35.964c-6.384,44.146-10.334,91.504-10.045,133.83c0.475,69.49-1.415,139.599,11.871,208.173
				c3.421,17.604,39.871,250.698,14.585,269.283l-0.497,20.457c20.253,63.13-3.489,122.677-3.037,185.717
				c0.124,17.673,5.294,109.074-32.087,99.089C1630.616,2785.186,1600.067,2744.054,1590.769,2727.622z"/>
			<path id="_x31_80608961_1_" fill="#9AD2BD" stroke="#000000" d="M1514.474,858.218c-9.785,32.417-78.686,53.139-105.462,65.61
				c-99.252,46.276-177.786,131.149-253.643,207.687c-82.548,83.275-161.027,172.813-219.504,274.933
				c-136.287,238.018,36.457,467.594,193.538,635.897c85.788,91.9,164.944,173.351,220.27,287.491
				c32.031,66.08,40.015,179.85,29.719,251.923c-12.947,90.792-30.146,180.9-44.28,271.509
				c-12.656,81.14-49.806,154.905-50.645,239.246c-0.714,72.133,21.16,170.878,71.518,224.874
				c53.984,57.885,147.618,72.647,223.511,63.354c155.715-19.075,192.616-169.329,271.958-278.304
				c18.951-26.035,43.102-48.404,58.996-76.816c47.503-84.845,73.422-201.684,87.828-297.326
				c20.899-138.784-13.479-284.294-29.824-421.997c-21.287-179.278-15.896-376.67,45.062-549.331
				c35.468-100.421,73.032-216.522,76.31-324.014c2.952-96.626-11.455-196.832-47.412-286.79
				c-40.013-100.1-108.993-200.509-208.634-248.46c-39.714-19.112-82.948-20.826-125.062-29.186
				C1680.583,862.941,1541.265,871.496,1514.474,858.218z M1616.784,914.784c86.214-7.168,176.157,8.614,247.416,53.752
				c124.383,78.783,175.489,260.368,177.858,399.579c0.923,54.083-5.354,108.69-13,162.156
				c-12.534,87.508-51.488,169.025-69.071,254.095c-0.207,0.995-0.427,1.987-0.627,2.983c-0.144,0.719-0.271,1.441-0.412,2.161
				c-0.441,2.252-0.882,4.506-1.292,6.763c-0.317,1.757-0.605,3.518-0.903,5.277c-0.206,1.228-0.431,2.45-0.628,3.678
				c-0.456,2.833-0.878,5.673-1.278,8.518c-0.022,0.157-0.05,0.313-0.07,0.469c-14.489,104.228-41.427,201.148-36.312,307.937
				c3.998,83.323,5.497,165.661,17.308,248.444c18.868,132.355,36.708,255.741,9.719,388.737
				c-25.925,127.726-80.223,250.252-158.945,354.47c-37.751,49.994-70.394,101.947-117.817,143.943
				c-49.414,43.757-113.957,74.379-174.533,68.803c-0.889-0.082-1.771-0.187-2.656-0.284c-0.621-0.07-1.245-0.125-1.863-0.2
				c-34.718-4.249-67.965-20.655-96.115-53.605c-47.775-55.915-62.359-130.517-63.021-202.18
				c-2.574-277.39,174.401-572.171,29.327-838.474c-32.383-59.428-80.568-116.122-127.239-164.822
				c-36.325-37.898-76.691-78.117-115.664-120.831c-105.732-115.89-211.388-254.35-172.897-422.969
				c14.646-64.128,48.889-118.935,88.66-169.501c44.287-56.298,78.842-118.919,126.133-173.712
				c86.853-100.62,200.828-184.89,324.56-234.308C1524.395,929.296,1570.041,918.672,1616.784,914.784z"/>
			<path id="_x31_80608960_1_" fill="#82C7AE" stroke="#000000" d="M1094.162,1143.835
				c-135.245,133.918-262.303,286.686-242.777,492.083c6.683,70.3,30.595,140.955,60.776,204.537
				c29.933,63.048,76.737,121.248,122.103,173.764c79.187,91.653,173.447,166.98,240.057,269.882
				c164.765,254.581-1.87,521.926-26.12,784.616c-8.265,89.584,12.24,206.302,80.027,270.746
				c52.12,49.564,96.406,67.755,166.506,83.003c91.484,19.891,181.146,0.44,243.765-70.883
				c53.028-60.397,79.088-139.174,128.609-202.107c43.974-55.864,81.35-116.439,110.308-181.371
				c52.531-117.836,79.076-240.864,69.717-369.666c-10.67-146.747-62.383-296.034-59.86-442.068
				c2.525-146.713,37.607-285.215,81.762-424.762c33.127-104.676,60.229-217.02,57.646-327.323
				c-5.424-231.409-96.479-497.835-344.723-566.26c-48.827-13.466-233.372-27.519-267.478,20.193
				c26.786,13.278,166.106,4.724,194.24,10.299c42.112,8.359,85.348,10.074,125.062,29.187
				c99.641,47.951,168.622,148.362,208.634,248.46c35.956,89.958,50.364,190.164,47.41,286.79
				c-3.275,107.492-40.84,223.592-76.308,324.015c-60.957,172.66-66.349,370.053-45.062,549.332
				c16.345,137.702,50.724,283.211,29.824,421.994c-14.406,95.645-40.325,212.483-87.828,297.327
				c-15.896,28.412-40.045,50.782-58.996,76.818c-79.343,108.973-116.244,259.227-271.959,278.302
				c-75.893,9.295-169.527-5.47-223.512-63.354c-50.356-53.995-72.229-152.742-71.518-224.874
				c0.841-84.341,37.991-158.107,50.646-239.246c14.134-90.607,31.332-180.717,44.28-271.509
				c10.294-72.073,2.312-185.843-29.719-251.923c-55.325-114.141-134.482-195.592-220.27-287.491
				c-157.083-168.303-329.827-397.88-193.538-635.896c58.477-102.121,136.955-191.658,219.504-274.933
				c75.856-76.538,154.389-161.412,253.643-207.687c26.776-12.472,95.679-33.194,105.462-65.611
				c-50.229-6.892-163.134,55.273-201.767,83.691C1234.183,999.665,1163.325,1075.336,1094.162,1143.835z"/>
			<path id="_x31_80608959_1_" fill="#9AD2BD" stroke="#000000" d="M721.732,1599.725c6.675,33.225-2.966,70.118-9.318,102.638
				c-2.731,13.931-8.074,25.89-8.52,40.661c-1.035,34.427,19.238,62.954,30.555,94.058c12.187,33.511,15.153,69.328,19.237,104.487
				c3.498,30.065,24.521,58.387,37.918,84.84c14.905,29.409,29.438,59.045,46.67,87.182c23.416,38.22,64.596,43.699,96.319,69.69
				c48.641,39.848,60.382,121.279,86.683,176.043c16.887,35.16,30.451,71.848,40.878,109.416
				c7.063,25.467,13.138,51.83,22.818,76.383c11.899,30.18,22.898,60.572,29.312,92.465c12.272,61.08-1.483,122.393-17.678,181.34
				c-16.625,60.561-30.707,119.874-36.528,182.604c-11.493,123.639,11.127,244.179,83.222,346.849
				c55.259,78.694,112.978,169.54,201.106,214.807c33.84,17.381,74.862,18.544,106.725,39.397
				c24.523,16.053,54.334,29.393,82.326,37.928c35.126,10.707,71.106,9.754,106.575,1.337c30.474-7.23,49.005-36.7,69.621-57.775
				c24.88-25.446,52.256-48.243,78.689-72.021c33.385-30.02,63.268-63.145,94.13-95.683c15.941-16.81,25.452-42.807,36.929-63.357
				c28.708-51.437,57.527-102.153,92.868-149.427c67.222-89.909,152.578-166.601,184.964-277.668
				c25.325-86.867,48.119-172.4,48.863-263.516c0.43-53.18,2.151-98.015-13.816-148.217c-16.231-51.031,6.295-98.977,9.392-151.996
				c1.527-26.126,2.562-52.273,3.322-78.434c0.693-22.972-3.594-52.284,3.025-74.398c5.511-18.383,16.663-35.213,22.086-54.178
				c6.515-22.803,9.829-47.734-0.228-70.049c-15.677-34.793-20.453-76.12-6.41-112.505c11.191-28.999,32.146-59.147,32.131-91.329
				c-0.029-36.707-16.234-71.859-13.44-108.647c10.866-143.049,10.378-286.458-9.07-428.825c-4.33-31.676-6.705-63.545-9.257-95.403
				c-2.364-29.523-5.472-59.2-10.119-88.468c-17.012-107.195-59.447-192.646-135.41-270.008
				c-39.343-40.055-76.101-82.043-114.776-122.671c-12.246-12.854-29.357-20.484-46.725-25.07
				c-32.423-8.57-65.255-16.046-98.653-19.522c-16.018-1.667-30.642-2.29-46.177-6.198c-13.034-3.287-32.646-11.044-46.045-9.623
				c46.189-4.896,78.186-6.94,118.324-6.521l93.97,2.88c-120.618-15.942-254.592,8.317-373.233,29.154
				c-148.77,26.126-293.105,74.435-424.29,149.785c0,0,56.455-30.371,123.462-61.512c-14,6.512-19.963,29.048-27.14,41.39
				c-31.861,54.729-86.672,96.678-142.077,125.43c-17.937,9.305-39.856,14.746-56.643,25.701
				c-17.445,11.377-29.49,31.862-43.204,47.204c-29.71,33.235-65.585,57.24-97.516,87.756
				c-35.557,33.994-64.886,75.199-89.111,117.825c-17.313,30.466-30.306,63.145-46.596,94.145
				c-14.348,27.285-36.388,49.708-51.606,76.52c-6.707,11.826-5.735,22.835-7.071,36.338c-1.71,17.269-5.521,34.301-12.608,50.192
				C719.079,1548.929,716.363,1572.978,721.732,1599.725z M1094.164,1143.84c69.164-68.5,140.021-144.172,218.547-201.929
				c38.632-28.416,151.537-90.582,201.768-83.69c34.107-47.713,218.65-33.659,267.478-20.193
				c248.243,68.425,339.301,334.851,344.723,566.26c2.582,110.305-24.518,222.647-57.646,327.323
				c-44.153,139.546-79.234,278.049-81.762,424.762c-2.522,146.032,49.191,295.32,59.86,442.068
				c9.359,128.801-17.186,251.83-69.717,369.666c-28.959,64.932-66.332,125.508-110.307,181.371
				c-49.522,62.934-75.582,141.708-128.609,202.107c-62.619,71.323-152.281,90.773-243.764,70.883
				c-70.101-15.248-114.39-33.438-166.508-83.003c-67.788-64.445-88.29-181.164-80.026-270.745
				c24.25-262.691,190.886-530.038,26.121-784.617c-66.609-102.904-160.872-178.229-240.059-269.882
				c-45.365-52.516-92.17-110.716-122.103-173.764c-30.181-63.58-54.094-134.238-60.777-204.537
				C831.858,1430.522,958.919,1277.755,1094.164,1143.84z"/>
			<path id="_x31_80608963_1_" fill="#9DF0D2" stroke="#000000" d="M1287.59,1199.273c-39.456,71.272-30.506,177.612-24.383,256.161
				c1.65,21.334,5.985,45.518,17.318,64.078c10.736,17.591,26.972,23.062,43.228,35.499
				c51.319,39.292,94.887,81.105,150.858,114.912c23.509,14.201,52.047,23.06,79.223,21.668
				c19.979-1.015,39.205-7.561,55.171-21.596c32.456-28.5,80.813-89.268,85.154-132.619c6.53-65.049,9.624-129.606,12.43-202.801
				c3.475-91.053-38.426-177.099-131.904-214.702C1482.336,1082.715,1339.306,1105.906,1287.59,1199.273z"/>
			<path id="_x31_80608964_1_" fill="#95E4C8" stroke="#000000" d="M1474.611,1669.924c-50.297-30.378-95.034-69.429-139.926-107.06
				c-17.984-15.079-66.402-51.778-40.578-78.636c32.584-33.883,92.643,1.542,126.775,12.536
				c50.888,16.384,111.773,4.732,153.792-28.221c28.622-22.456,88.415-83.687,117.569-28.552
				c15.148,28.66,4.944,67.278,1.924,97.396c-4.359,43.347-52.707,104.108-85.163,132.608
				c-15.967,14.035-35.192,20.581-55.171,21.596C1526.658,1692.983,1498.12,1684.126,1474.611,1669.924z"/>
			<path id="_x31_80608966_1_" fill="#CCCCCC" stroke="#000000" d="M574.071,2222.201c34.119,116.775,50.491,210.434,58.37,330.039
				c8.236,125.081,30.028,251.616,85.604,364.957c40.312,82.185,94.103,190.311,159.6,303.639
				c-46.214-82.278-38.449-160.648-31.427-253.589c8.094-107.063,12.302-219.919-5.101-326.243
				c-27.451-167.645-119.769-302.323-210.044-441.797c-76.42-118.076-105.255-231.563-92.525-370.428
				c7.959-86.748,25.569-172.495,52.591-255.197C522.401,1783.518,513.336,2014.337,574.071,2222.201z"/>
			<path id="_x31_80608967_1_" fill="#CCCCCC" stroke="#000000" d="M1036.539,3463.797
				c-55.787-75.718-106.408-154.677-154.532-235.449c192.741,331.523,484.947,703.495,832.453,599.819
				c349.636-104.312,783.735-324.698,857.25-722.687c39.376-213.163,7.806-417.607,16.063-630.615
				c14.661-378.375-28.07-757.853-89.568-1130.733c-23.245-140.94-59.376-282.627-118.751-412.934
				c59.818,131.277,89.003,292.785,94.903,436.45c10.46,254.299,1.69,507.021,19.565,761.595
				c28.537,406.788,2.165,798.695-236.063,1145.44c-113.326,164.967-259.396,309.526-424.685,422.319
				c-163.901,111.838-351.44,152.854-525.021,31.748C1201.288,3654.185,1114.023,3568.949,1036.539,3463.797z"/>
			<path id="_x31_80608968_1_" fill="#CCCCCC" stroke="#000000" d="M1108.5,1745.101c-42.22-31.229-107.113-24.291-57.615,23.843
				c94.152,91.564,187.295,192.227,268.048,281.521c95.729,105.861,134.904,189.31,126.48,333.842
				c-9.088,155.827-57.902,342.701-34.103,499.651c7.942,52.468,54.258,227.147,140.198,212.638
				c58.953-9.956-27.998-63.979-47.264-88.318c-138.47-174.968,8.499-485.453-16.006-726.062
				c-12.183-119.677-65.595-195.356-146.505-278.997c-42.012-43.438-86.786-84.109-129.939-126.373
				C1169.092,1835.02,1157.32,1781.224,1108.5,1745.101z"/>
			<path id="_x31_80608969_1_" fill="#CCCCCC" stroke="#000000" d="M1554.966,1860.861c-0.675-14.313,1.196-32.069,5.473-45.567
				c10.483-33.053,40.405-54.164,61.427-80.093c15.197-18.747,22.625-46.836,43.33-60.568
				c41.119-27.266,69.051-37.896,89.168-88.564c14.085-35.44,14.465-70.28,10.831-107.4
				c-5.766-58.842-32.604-177.152-106.258-186.898c-23.715-3.136-45.034,0.27-68.771-0.232c-25.25-0.527-48.02-3.919-72.029-12.11
				c-21.589-7.367-41.292-25.371-62.709-34.492c-19.586-8.346-40.31-14.069-61.721-14.316
				c-75.513-0.895-144.21,62.141-198.439,107.771c-25.791,21.694-54.797,45.387-71.445,75.314
				c-1.941,3.494-16.124,60.797-5.511,58.213c21.526-5.233,30.566-21.032,46.792-37.742
				c43.888-45.151,87.233-99.294,140.819-133.237c31.776-20.128,71.818-37.606,108.108-20.855
				c40.984,18.915,79.203,42.957,124.502,50.543c39.378,6.591,89.528-8.974,124.437,14.549
				c31.285,21.09,42.263,62.455,38.381,98.136c-3.185,29.279-4.248,64.873-7.182,94.066c-4.349,43.348-52.7,104.121-85.156,132.622
				c-37.689,33.117-93.627,24.559-134.396-0.073c-41.7-25.184-78.621-57.583-118.032-86.061
				c-16.531-11.959-59.904-50.033-83.603-42.253c-49.379,16.209,75.397,171.06,88.148,189.488
				c106.824,154.461,179.414,319.177,212.659,504.799c11.797,65.88,29.346,130.67,38.894,196.945
				c4.234,29.395,12.029,61.056,8.133,90.442c-4.8,36.284-16.387,71.983-29.884,105.872c-12.913,32.389-18.102,66.732-0.146,98.461
				c9.296,16.437,39.846,57.564,58.621,62.584c37.38,9.985,32.208-81.412,32.088-99.089c-0.456-63.042,23.281-122.587,3.027-185.713
				c-50.195-156.458-27.555-320.117-72.791-475.42c-12.063-41.425-36.409-83.198-48.993-125.953
				C1558.539,1889.753,1555.645,1875.375,1554.966,1860.861z"/>
			<path id="_x31_80608965_1_" fill="#AAAAAA" stroke="#000000" d="M1658.564,2007.482c0.479,69.488-1.413,139.601,11.88,208.177
				c3.415,17.601,39.864,250.698,14.587,269.279c-24.012,17.648-36.315-224.024-39.111-238.345
				c-14.067-72.088-13.489-145.608-34.187-216.615c-16.09-55.25-54.036-111.145-56.766-169.115
				c-0.675-14.313,1.197-32.07,5.475-45.567c11.268-35.556,46.946-58.847,67.708-88.314c10.511-14.919,40.084-69.389,63.71-60.007
				c31.919,12.661-13.257,148.08-17.392,170.715c-2.112,11.619-4.084,23.669-5.859,35.965
				C1662.224,1917.803,1658.273,1965.16,1658.564,2007.482z"/>
		</g>
	</g>
</g>
</svg>
