<?xml version="1.0" encoding="utf-8"?>
<!-- Generator: Adobe Illustrator 16.0.0, SVG Export Plug-In . SVG Version: 6.00 Build 0)  -->
<!DOCTYPE svg PUBLIC "-//W3C//DTD SVG 1.1//EN" "http://www.w3.org/Graphics/SVG/1.1/DTD/svg11.dtd">
<svg version="1.1" id="Layer_1" xmlns="http://www.w3.org/2000/svg" xmlns:xlink="http://www.w3.org/1999/xlink" x="0px" y="0px"
	 width="9312px" height="7280px" viewBox="0 0 9312 7280" enable-background="new 0 0 9312 7280" xml:space="preserve">
<g>
	<g transform="scale(1.0)">
		<g id="_x31_80623315" transform=" scale(1.0, 1.0)">
			<path id="_x31_80623317" fill="#BFDAE3" stroke="#000000" d="M4657.486,5715.146c47.734,2.595,180.271,93.249,221.732,112.393
				c355.438,164.062,362.185,282.595,478.435,432.843c59.742,77.227,216.335,191.451,341.158,258.055
				c192.167,102.535,266.281,129.047,370.308,137.385c236.564,18.971,435.237-66.48,694.939-228.727
				c109.478-68.396,232.053-143.77,341.252-257.92c133.06-139.086,250.408-321.493,352.378-439.617
				c51.576-59.746,112.491-93.997,159.554-147c142.577-160.563,254.916-324.42,374.596-532.542
				c183.301-318.759,275.341-615.339,383.003-965.293c88.639-288.131,253.036-661.957,254.008-968.083
				c3.122-988.336-680.265-1540.609-1475.412-1997.601c-260.73-149.847-598.603-277.304-1092.895-405.225
				c-321.772-83.272-540.017-107.492-821.105-83.37c-230.574,19.787-310.705,99.805-388.4,171.916
				c-57.157,53.05-171.837,144.383-192.653,245.28l-0.337,1710.373L4657.486,5715.146z"/>
			<path id="_x31_80623318" fill="#B0FFB8" stroke="#000000" d="M7359.739,5852.979c34.102-45.107,66.744-87.274,97.949-123.424
				c51.576-59.744,112.491-93.995,159.554-147c142.577-160.563,254.916-324.42,374.596-532.542
				c183.301-318.759,275.341-615.339,383.003-965.293c88.639-288.131,253.036-661.955,254.008-968.083
				c3.122-988.336-680.265-1540.609-1475.412-1997.601c-260.73-149.847-598.603-277.304-1092.896-405.225
				c-321.771-83.272-540.016-107.492-821.104-83.37c-230.574,19.787-310.705,99.805-388.4,171.916
				c-57.157,53.05-171.837,144.383-192.653,245.28l-0.337,1710.371c133.725,1.72,265.031-16.104,390.674-77.313
				c230.327-112.22,302.956-256.577,451.178-444.044c135.955-171.959,468.123-21.316,643.567,50.061
				c271.877,110.6,563.466,225.338,786.9,422.82c158.943,140.489,264.337,259.797,372.489,445.675
				c49.61,85.262,74.274,196.967,97.027,288.52c54.47,219.131,18.46,447.122-22.317,662.993
				c-10.281,54.492-61.113,435.511-94.433,543.715c-72.965,236.935-269.068,423.606-403.915,626.271
				c-56.335,84.663-60.021,178.167-24.731,270.877c44.597,117.228,134.253,98.869,238.434,149.302
				C7178.905,5738.514,7359.739,5852.979,7359.739,5852.979z"/>
			<path id="_x31_80623384" fill="#1F9D5A" stroke="#000000" d="M5762.588,649.126c91.792,15.081,188.905,36.487,298.005,64.721
				c273.454,70.792,498.971,141.408,690.034,215.679l0.001,0.083l-0.582,1.414l-61.364,150.703h-0.084
				c-75.309-28.644-151.285-56.288-219.771-82.765c-229.927-88.84-465.343-171.276-710.175-218.593L5762.588,649.126z"/>
			<path id="_x31_80623383" fill="#1F9D5A" stroke="#000000" d="M6100.847,1280.43c-124.823-50.874-234.746-116.723-351.745-177.248
				v-0.083l9.55-322.732c244.83,47.317,480.248,129.752,710.173,218.593c68.488,26.479,144.463,54.123,219.773,82.764
				l-158.612,389.281C6389.438,1402.738,6245.891,1339.461,6100.847,1280.43z"/>
			<path id="_x31_80623382" fill="#1F9D5A" stroke="#000000" d="M6192.287,1818.561
				c-139.052-60.113-310.396-114.574-458.851-184.758l15.665-530.62c116.999,60.523,226.922,126.374,351.745,177.247
				c145.044,59.032,288.591,122.309,429.139,190.577l-172.517,423.566C6303.463,1868.432,6248.706,1842.955,6192.287,1818.561z"/>
			<path id="_x31_80623381" fill="#1F9D5A" stroke="#000000" d="M5973.104,2132.015c-61.746-23.813-158.94-65.526-251.646-91.426
				v-0.083l11.978-406.704c148.457,70.185,319.799,124.645,458.851,184.757c56.419,24.395,111.176,49.872,165.182,76.015
				l-135.966,333.445C6138.787,2195.378,6055.57,2163.904,5973.104,2132.015z"/>
			<path id="_x31_80623380" fill="#1F9D5A" stroke="#000000" d="M6143.513,2286.756
				c-109.428-44.461-279.768-119.891-425.489-128.576l3.436-117.591c92.705,25.899,189.899,67.612,251.646,91.427
				c82.466,31.89,165.683,63.362,248.398,96.002l-31.556,77.639C6174.386,2299.33,6158.908,2293.002,6143.513,2286.756z"/>
			<path id="_x31_80623389" fill="#1F9D5A" stroke="#000000" d="M4851.029,802.413c77.743-72.139,157.901-152.183,388.43-171.946
				c185.837-15.942,344.207-10.751,523.129,18.659l-3.937,131.24c-57.338-11.162-115.258-20.329-173.678-27.163
				c-213.378-25.008-486.672-38.458-648.743,137.11c-104.798,113.412-153.427,271.106-164.775,423.733l-113.077-117.113
				l0.028-149.22C4679.232,946.77,4793.929,855.414,4851.029,802.413z"/>
			<path id="_x31_80623388" fill="#1F9D5A" stroke="#000000" d="M4936.23,890.311c162.067-175.566,435.365-162.114,648.741-137.108
				c58.421,6.836,116.342,16.001,173.68,27.163l-9.55,322.732c-33.618-17.401-67.819-34.384-103.102-50.451
				c-158.275-72.102-323.959-127.477-489.254-37.961c-169.79,91.928-213.438,291.485-214.221,476.571l-171.072-177.212
				C4782.801,1161.419,4831.433,1003.724,4936.23,890.311z"/>
			<path id="_x31_80623387" fill="#1F9D5A" stroke="#000000" d="M5192.89,1750.542l-250.366-259.284
				c0.785-185.084,44.431-384.643,214.222-476.571c165.295-89.514,330.979-34.141,489.253,37.961
				c35.284,16.068,69.483,33.051,103.103,50.451v0.083l-15.664,530.621c-51.176-24.062-99.606-50.119-143.042-78.839
				c-101.519-67.18-243.146-154.589-334.964-28.524C5213.477,1583.937,5197.316,1667.987,5192.89,1750.542z"/>
			<path id="_x31_80623386" fill="#1F9D5A" stroke="#000000" d="M5721.459,2040.506c-100.86-28.233-196.396-37.904-235.021,14.101
				l-293.548-303.984l0.001-0.083c4.427-82.555,20.587-166.604,62.541-224.102c91.817-126.064,233.443-38.656,334.962,28.523
				c43.438,28.723,91.866,54.778,143.042,78.84L5721.459,2040.506z"/>
			<path id="_x31_80623385" fill="#1F9D5A" stroke="#000000" d="M5595.854,2167.977l-109.415-113.369
				c38.625-52.007,134.16-42.335,235.021-14.101v0.083l-3.436,117.591c-43.608-2.589-84.97,0.733-121.839,12.709L5595.854,2167.977z
				"/>
			<path id="_x31_80623367" fill="#188064" stroke="#000000" d="M8624.973,2989.709l-110.188,8.051
				c-3.635-150.632-12.756-319.409-68.736-453.823c-54.403-130.668-138.436-244.448-210.233-365.299l104.871-59.233
				c161.404,247.032,264.878,532.003,284.702,870.304L8624.973,2989.709z"/>
			<path id="_x31_80623366" fill="#188064" stroke="#000000" d="M7973.128,2382.064c-8.486-13.899-17.055-27.383-25.708-40.451
				l288.396-162.975c71.798,120.853,155.83,234.633,210.233,365.299c55.98,134.414,65.104,303.189,68.736,453.823l-298.521,21.747
				c-0.582-10.819-1.245-21.721-1.909-32.624C8200.501,2758.77,8089.851,2574.163,7973.128,2382.064z"/>
			<path id="_x31_80623365" fill="#188064" stroke="#000000" d="M7947.42,2341.613c8.651,13.069,17.222,26.553,25.708,40.452
				c116.723,192.098,227.371,376.706,241.228,604.819c0.664,10.903,1.327,21.805,1.909,32.624l-166.862,12.201
				c-2.635-148.634-18.253-300.934-84.057-429.857c-35.105-68.748-79.783-134.586-129.952-196.927l111.946-63.312L7947.42,2341.613z
				"/>
			<path id="_x31_80623364" fill="#188064" stroke="#000000" d="M7551.477,2642.717c-14.727-17.729-29.787-35.042-45.264-51.855
				l329.096-185.939l0.082,0c50.172,62.341,94.848,128.179,129.953,196.926c65.804,128.923,81.421,281.222,84.055,429.857
				l-303.849,22.162C7704.639,2898.237,7639.004,2748.259,7551.477,2642.717z"/>
			<path id="_x31_80623363" fill="#188064" stroke="#000000" d="M7375.045,3080.93c-44.76-69.582-100.091-135.006-157.416-208.335
				c-21.801-27.884-44.68-54.435-68.477-79.989l357.062-201.744c15.478,16.813,30.538,34.126,45.265,51.855
				c87.527,105.542,153.163,255.521,194.076,411.153L7375.045,3080.93z"/>
			<path id="_x31_80623362" fill="#188064" stroke="#000000" d="M7262.777,3089.147c-60.734-95.716-122.721-173.875-195.939-250.036
				l82.314-46.505c23.797,25.554,46.676,52.105,68.477,79.989c57.325,73.329,112.656,138.752,157.415,208.335L7262.777,3089.147z"/>
			<path id="_x31_80623373" fill="#188064" stroke="#000000" d="M7958.922,1820.147c-98.35-98.387-202.032-156.58-332.343-237.081
				c-38.859-23.976-76.64-47.616-113.753-70.845l85.656-114.496c297.313,206.114,557.584,439.019,742.199,721.676l-104.87,59.233
				c-13.976-23.304-27.37-46.943-40.101-70.996C8139.479,2001.022,8043.625,1904.883,7958.922,1820.147z"/>
			<path id="_x31_80623372" fill="#188064" stroke="#000000" d="M7512.75,1915.933c-62.822-51.36-129.225-98.393-196.21-141.182
				l196.288-262.528c37.113,23.226,74.892,46.868,113.751,70.845c130.31,80.5,233.995,138.692,332.346,237.081
				c84.702,84.735,180.556,180.875,236.792,287.493c12.73,24.054,26.125,47.692,40.101,70.996l-288.396,162.977h-0.082
				C7835.104,2172.984,7699.389,2068.515,7512.75,1915.933z"/>
			<path id="_x31_80623371" fill="#188064" stroke="#000000" d="M7316.54,1774.751c66.986,42.789,133.388,89.821,196.21,141.182
				c186.64,152.582,322.354,257.051,434.588,425.68l-111.946,63.313l-0.083,0c-70.39-87.48-151.682-167.805-232.56-239.143
				c-115.575-101.967-237.811-196.948-365.289-285.355L7316.54,1774.751z"/>
			<path id="_x31_80623370" fill="#188064" stroke="#000000" d="M7506.213,2590.862
				c-147.023-160.896-324.843-282.602-513.322-383.418l244.569-327.016c127.479,88.407,249.714,183.387,365.289,285.355
				c80.878,71.338,162.17,151.663,232.56,239.143L7506.213,2590.862z"/>
			<path id="_x31_80623369" fill="#188064" stroke="#000000" d="M6889.294,2565.278c-36.196-27.387-72.144-51.944-108.257-74.504
				l211.854-283.33c188.481,100.818,366.301,222.523,513.324,383.418l-357.063,201.744
				C7070.939,2708.62,6982.656,2635.701,6889.294,2565.278z"/>
			<path id="_x31_80623368" fill="#188064" stroke="#000000" d="M6930.377,2709.592c-62.653-55.355-130.637-104.218-202.033-148.34
				l52.691-70.479c36.115,22.561,72.062,47.117,108.257,74.504c93.364,70.423,181.646,143.342,259.86,227.328l-82.314,46.505
				l-0.084,0C7025.485,2796.244,6980.552,2753.958,6930.377,2709.592z"/>
			<path id="_x31_80623379" fill="#188064" stroke="#000000" d="M6897.054,1166.818c-64.075-29.14-135.974-57.615-208.372-85.093
				l61.363-150.703l0.583-1.414c154.446,60.032,286.343,122.559,402.841,189.49c153.942,88.494,303.643,180.483,445.018,278.63
				l-85.658,114.497C7314.616,1388.269,7134.795,1275.052,6897.054,1166.818z"/>
			<path id="_x31_80623378" fill="#188064" stroke="#000000" d="M6752.769,1477.458c-34.949-17.566-238.167-69.204-133.161,36.093
				l-0.748,1.416c-29.458-14.988-59.081-29.64-88.874-43.96l158.612-389.281h0.084c72.398,27.477,144.296,55.951,208.372,85.093
				c237.743,108.233,417.564,221.45,615.774,345.405l-196.288,262.528C7096.946,1633.981,6872.015,1537.733,6752.769,1477.458z"/>
			<path id="_x31_80623377" fill="#188064" stroke="#000000" d="M7237.46,1880.427c-195.462-135.94-403.244-256.817-618.603-365.462
				l0.748-1.415c-105.006-105.296,98.212-53.659,133.163-36.093c119.245,60.276,344.178,156.523,563.771,297.294L7237.46,1880.427z"
				/>
			<path id="_x31_80623376" fill="#188064" stroke="#000000" d="M6799.335,2111.867
				c-152.531-70.102-294.243-146.028-441.866-217.293l172.517-423.566c29.793,14.319,59.416,28.973,88.874,43.96
				c215.356,108.645,423.139,229.521,618.601,365.461l-244.569,327.016C6929.316,2173.393,6864.574,2141.84,6799.335,2111.867z"/>
			<path id="_x31_80623375" fill="#188064" stroke="#000000" d="M6408.321,2305.282c-61.579-26.894-123.99-52.454-186.818-77.265
				l135.966-333.445c147.622,71.266,289.335,147.189,441.866,217.293c65.241,29.972,129.981,61.526,193.556,95.577l-211.854,283.33
				C6662.46,2416.517,6542.465,2363.898,6408.321,2305.282z"/>
			<path id="_x31_80623374" fill="#188064" stroke="#000000" d="M6728.262,2561.251
				c-168.838-104.309-356.821-181.826-538.314-255.594l31.556-77.64c62.827,24.812,125.239,50.373,186.817,77.266
				c134.145,58.614,254.14,111.232,372.715,185.489l-52.692,70.479C6728.262,2561.251,6728.262,2561.251,6728.262,2561.251z"/>
			<path id="_x31_80623361" fill="#188064" stroke="#000000" d="M8625.389,2989.709c2.406,41.528,3.646,83.805,3.471,126.998
				c-0.354,111.849-22.514,232.767-54.744,355.18l-122.668-9.178c32.896-129.986,67.461-263.884,64.738-398.455
				c-0.412-21.639-0.905-43.859-1.4-66.494l110.188-8.051L8625.389,2989.709z"/>
			<path id="_x31_80623360" fill="#188064" stroke="#000000" d="M8514.785,2997.76c0.495,22.636,0.988,44.856,1.4,66.494
				c2.723,134.57-31.842,268.468-64.738,398.455l-263.061-19.773c2.414-12.816,4.499-23.218,6.246-30.626
				c30.734-130.486,29.012-260.063,21.632-392.803L8514.785,2997.76z"/>
			<path id="_x31_80623359" fill="#188064" stroke="#000000" d="M8048.618,3207.64c0.76-56.84,1.854-116.094,0.784-175.931
				l166.862-12.202c7.38,132.741,9.103,262.317-21.632,392.804c-1.747,7.407-3.832,17.809-6.246,30.625l-151.212-11.347
				C8044.179,3356.772,8047.605,3281.791,8048.618,3207.64z"/>
			<path id="_x31_80623358" fill="#188064" stroke="#000000" d="M7794.918,3413.315c-0.146-110.685-17.1-236.853-49.364-359.445
				l303.849-22.162c1.069,59.837-0.024,119.092-0.784,175.931c-1.013,74.15-4.439,149.134-11.443,223.948L7794.918,3413.315z"/>
			<path id="_x31_80623357" fill="#188064" stroke="#000000" d="M7375.045,3080.93l370.509-27.058
				c32.267,122.591,49.221,248.759,49.366,359.444l-289.443-21.692c-18.797-51.186-38.013-101.955-53.981-152.472
				C7433.28,3181.474,7406.826,3130.121,7375.045,3080.93z"/>
			<path id="_x31_80623356" fill="#188064" stroke="#000000" d="M7262.777,3089.147l112.268-8.217
				c31.781,49.19,58.237,100.543,76.45,158.221c15.969,50.518,35.183,101.287,53.979,152.473l-109.52-8.26l-10.32,2.578
				c-19.542-77.981-43.16-162.708-82.762-230.707C7289.482,3132.262,7276.171,3110.289,7262.777,3089.147z"/>
			<path id="_x31_80623355" fill="#009C75" stroke="#000000" d="M8451.447,3462.709l122.668,9.178
				c-45.307,171.262-110.337,345.6-163.296,502.462l-7.822-2.58l-0.166-0.084l-95.866-21.656
				c58.449-153.865,100.675-313.977,140.984-473.422C8449.114,3471.946,8450.28,3467.369,8451.447,3462.709z"/>
			<path id="_x31_80623354" fill="#009C75" stroke="#000000" d="M7967.358,3824.549c146.966,24.994,199.451-268.852,221.028-381.613
				l263.061,19.773c-1.167,4.66-2.333,9.238-3.498,13.898c-40.31,159.445-82.535,319.556-140.984,473.42l-361.086-81.709
				c5.412-15.146,10.575-30.374,15.405-45.687L7967.358,3824.549z"/>
			<path id="_x31_80623353" fill="#009C75" stroke="#000000" d="M8188.387,3442.935c-21.577,112.762-74.063,406.607-221.028,381.614
				l-6.072-1.918c40.219-126.073,63.632-258.307,75.893-391.045L8188.387,3442.935z"/>
			<path id="_x31_80623352" fill="#009C75" stroke="#000000" d="M7945.879,3868.32l-188.822-42.731
				c17.75-119.918,31.259-245.497,36.77-363.089c0.752-15.979,1.09-32.456,1.092-49.183l242.257,18.271
				c-12.26,132.738-35.672,264.971-75.892,391.046C7956.454,3837.945,7951.291,3853.173,7945.879,3868.32z"/>
			<path id="_x31_80623351" fill="#009C75" stroke="#000000" d="M7505.477,3391.623l289.443,21.692
				c-0.002,16.73-0.339,33.207-1.092,49.185c-5.515,117.59-19.019,243.171-36.77,363.089l-171.261-38.73
				c0.677-58.838-4.639-116.095-8.627-143.809C7564.949,3557.912,7535.836,3474.184,7505.477,3391.623z"/>
			<path id="_x31_80623350" fill="#009C75" stroke="#000000" d="M7385.639,3385.941l10.32-2.578l109.518,8.26
				c30.362,82.562,59.473,166.289,71.691,251.427c3.988,27.714,9.303,84.971,8.626,143.809l-159.862-36.149
				c5.014-102.86-0.876-205.806-25.992-306.927C7395.285,3425.224,7390.629,3405.832,7385.639,3385.941z"/>
			<path id="_x31_80623394" fill="#40A666" stroke="#000000" d="M4658.279,1704.834l0.099-507.9l113.077,117.112
				c-1.086,15.479-1.833,30.958-2.255,46.271c-3.605,140.976,18.506,283.292,30.877,424.105l-141.793-79.505l-0.003-0.083H4658.279z
				"/>
			<path id="_x31_80623393" fill="#40A666" stroke="#000000" d="M4800.075,1784.422c-12.373-140.814-34.48-283.129-30.875-424.105
				c0.42-15.313,1.169-30.792,2.255-46.271l171.072,177.212c-0.258,45.689,2.145,90.463,5.881,132.574
				c7.475,83.806,12.286,167.861,14.6,251.999L4800.075,1784.422z"/>
			<path id="_x31_80623392" fill="#40A666" stroke="#000000" d="M5203.742,2010.862l-240.736-135.033
				c-2.314-84.137-7.125-168.192-14.601-251.999c-3.735-42.111-6.14-86.884-5.882-132.574l250.366,259.284l-0.001,0.083
				c-3.256,62.582,0.144,124.336,4.211,173.187C5199.51,1952.439,5201.832,1981.484,5203.742,2010.862z"/>
			<path id="_x31_80623391" fill="#40A666" stroke="#000000" d="M5442.895,2145.062l-239.152-134.199
				c-1.91-29.378-4.235-58.423-6.643-87.051c-4.068-48.852-7.467-110.604-4.212-173.187l293.548,303.984
				c-3.33,4.41-6.243,9.321-8.655,14.729C5467.29,2092.471,5455.384,2118.018,5442.895,2145.062z"/>
			<path id="_x31_80623390" fill="#40A666" stroke="#000000" d="M5486.438,2054.608l109.415,113.369l0.331,2.912
				c-20.475,6.57-39.615,15.888-56.928,28.201l-96.361-54.03c12.488-27.044,24.396-52.59,34.885-75.725
				C5480.193,2063.927,5483.107,2059.018,5486.438,2054.608z"/>
			<path id="_x31_80623399" fill="#40A666" stroke="#000000" d="M4874.208,2739.74c-42.444,8.812-85.306,14.047-128.746,16.7
				c5.243-1.081,9.819-2.743,13.149-5.156c20.892-15.311,78.827-69.142,47.872-95.863c-22.467-19.395-50.935,12.723-65.086,27.118
				c-11.569,11.648-24.222,22.548-34.792,35.196c-2.497,3.078-25.639,38.109-21.979,38.36c6.408,0.418,15.813,1.335,25.881,1.919
				c-17.391,0.663-34.87,0.827-52.43,0.739l0.002-0.666l0.2-1053.174l141.795,79.505c1.329,14.729,2.49,29.46,3.569,44.191
				c4.399,60.752-0.688,119.839,4.377,180.593c12.62,150.551,12.1,269.475-12.561,409.698
				c-16.998,96.284,31.012,152.635,65.368,227.541C4874.305,2675.742,4870.305,2707.699,4874.208,2739.74z"/>
			<path id="_x31_80623398" fill="#40A666" stroke="#000000" d="M4978.656,2710.383c-34.623,12.56-69.411,22.207-104.448,29.357
				c-3.903-32.042,0.095-63.998-13.379-93.294c-34.359-74.907-82.365-131.259-65.369-227.542
				c24.66-140.224,25.182-259.147,12.561-409.698c-5.064-60.755,0.023-119.841-4.376-180.594
				c-1.079-14.731-2.24-29.462-3.569-44.191l162.931,91.408c2.81,103.03,1.792,206.059-2.889,309.003
				c-7.855,172.517,17.908,347.456,16.961,521.222L4978.656,2710.383z"/>
			<path id="_x31_80623397" fill="#40A666" stroke="#000000" d="M4963.006,1875.83l240.736,135.033
				c14.273,210.138,12.232,435.585-93.497,625.894l4.909,8.239c-20.642,12.315-42.697,24.209-66.417,35.773
				c-23.305,11.314-46.609,21.129-70.081,29.614l-1.578-4.329c0.949-173.767-24.815-348.704-16.961-521.222
				C4964.798,2081.887,4965.815,1978.86,4963.006,1875.83z"/>
			<path id="_x31_80623396" fill="#40A666" stroke="#000000" d="M5320.914,2468.855c-56.021,65.734-118.033,124.145-205.76,176.141
				l-4.91-8.239c105.729-190.309,107.771-415.756,93.498-625.894l239.152,134.199c-47.623,102.105-104.734,225.179-130.053,316.967
				L5320.914,2468.855z"/>
			<path id="_x31_80623395" fill="#40A666" stroke="#000000" d="M5442.895,2145.062l96.361,54.03
				c-14.4,10.317-27.552,22.797-39.287,37.61c-68.177,86.12-120.287,163.174-179.054,232.155l-8.073-6.826
				C5338.158,2370.24,5395.273,2247.166,5442.895,2145.062z"/>
			<path id="_x31_80623349" fill="#219866" stroke="#000000" d="M8114.979,4339.137c54.528-92.283,105.726-186.396,150.022-286.752
				c14.902-33.787,28.809-67.904,41.965-102.356l95.866,21.656l0.166,0.084l7.822,2.58c-12.823,37.946-24.981,74.811-35.89,110.43
				c-31.978,103.771-62.538,202.799-94.431,299.163l-5.159-1.664l-0.167-0.084L8114.979,4339.137z"/>
			<path id="_x31_80623348" fill="#219866" stroke="#000000" d="M8114.979,4339.137l-330.79-88.943
				c61.357-122.657,114.479-250.81,159.857-376.632c0.667-1.748,1.252-3.496,1.832-5.242l361.088,81.709
				c-13.156,34.451-27.063,68.569-41.965,102.356C8220.705,4152.74,8169.506,4246.854,8114.979,4339.137z"/>
			<path id="_x31_80623347" fill="#219866" stroke="#000000" d="M7784.189,4250.192l-140.223-37.645v-0.083
				c56.94-85.791,81.844-196.224,98.342-293.671c5.166-30.542,10.082-61.666,14.746-93.207l188.82,42.73
				c-0.581,1.744-1.163,3.494-1.83,5.242C7898.668,3999.384,7845.547,4127.537,7784.189,4250.192z"/>
			<path id="_x31_80623346" fill="#219866" stroke="#000000" d="M7491.133,3975.506c-63.989-36.382-87.05,0.73-98.379,48.249
				c7.25-41.192,13.915-82.721,19.416-124.497h0.168v0.084l0.166-0.001c25.381,12.906,77.384,66.096,103.016,67.347
				c54.675,2.76,69.423-90.281,70.274-179.829l171.261,38.73c-4.666,31.541-9.584,62.667-14.748,93.208
				c-16.497,97.449-41.399,207.878-98.342,293.669l-85.632-22.987C7543.785,4121.818,7561.947,4015.716,7491.133,3975.506z"/>
			<path id="_x31_80623345" fill="#219866" stroke="#000000" d="M7515.521,3966.688c-25.634-1.251-77.635-54.44-103.016-67.347
				l-0.166,0.001v-0.084h-0.167c6.504-49.347,11.42-98.948,13.759-148.549l159.864,36.149
				C7584.943,3876.406,7570.196,3969.445,7515.521,3966.688z"/>
			<path id="_x31_80623344" fill="#219866" stroke="#000000" d="M8168.922,4687.846c-73.396-21.566-146.959-49.629-220.273-78.353
				l0.5-1.248c56.274-90.535,112.634-178.907,165.829-269.108l160.193,43.057l0.167,0.084l5.159,1.664
				C8246.108,4487.63,8210.055,4588.071,8168.922,4687.846z"/>
			<path id="_x31_80623343" fill="#219866" stroke="#000000" d="M7732.121,4528.144c-41.108-13.738-70.151-27.56-86.298-19.656
				l-4.575-8.489c51.865-78.551,99.398-162.764,142.941-249.807l330.792,88.945c-53.195,90.202-109.555,178.573-165.829,269.108
				l-0.5,1.248C7876.085,4581.184,7803.771,4552.125,7732.121,4528.144z"/>
			<path id="_x31_80623342" fill="#219866" stroke="#000000" d="M7304.938,4562.018c0.418-23.387,87.228-58.738,104.372-69.472
				c29.714-18.553,54.02-40.518,77.325-66.895c31.298-35.362,56.106-80.795,68.183-128.648l0.167,0.083l0.084,0.001l7.156,1.748
				c32.96-23.629,59.681-53.166,81.741-86.285l140.223,37.646c-43.543,87.041-91.076,171.256-142.942,249.807l-141.646,5.299
				c-83.138,1.398-160.628,58.891-202.835,128.621l-3.658-2.247l11.913-71.236
				C7304.939,4561.018,7304.938,4561.519,7304.938,4562.018z"/>
			<path id="_x31_80623341" fill="#219866" stroke="#000000" d="M7643.967,4212.55c-22.062,33.119-48.779,62.658-81.741,86.285
				l-7.156-1.748l-0.084-0.001l-0.167-0.083c9.079-35.533,11.082-72.483,3.517-107.522l85.632,22.987V4212.55z"/>
			<path id="_x31_80623319" fill="#9AD2BD" stroke="#000000" d="M7948.937,4609.605c-0.097-0.038-0.19-0.074-0.288-0.112
				c-49.926-19.479-99.736-39.31-149.291-57.6c-22.468-8.294-44.888-16.271-67.236-23.75
				c-41.108-13.739-70.151-27.562-86.298-19.657c-12.649,6.156-17.313,25.544-13.493,68.74
				c6.976,80.392,4.047,159.037-33.334,233.347c-49.453,98.19-144.339,164.585-241.3,210.587
				c-85.31,40.514-162.464,78.366-255.593,99.9c-120.678,27.939-157.719,57.725-222.815,155.749
				c-56.355,84.626-60.037,178.164-24.77,270.883c37.256,97.92,106.022,101.193,188.409,129.058
				c16.21,5.48,32.947,11.911,50.075,20.203c22.944,11.111,52.646,27.414,83.867,45.342
				c85.739,49.238,182.913,110.752,182.913,110.752c2.831-3.662,5.575-7.321,8.322-10.901
				c31.05-41.021,60.933-79.298,89.652-112.499c23.774-27.565,49.549-49.705,75.043-70.767c6.051-4.998,12.082-9.939,18.07-14.872
				c1.857-1.593,3.705-3.196,5.537-4.83c27.984-24.942,49.543-45.559,67.191-63.71c0.432-0.498,0.869-0.993,1.299-1.498
				c0.417-0.413,0.752-0.747,1.083-1.165c25.04-28.487,49.15-57.115,72.567-86.095c48.193-59.649,93.391-120.819,137.372-185.501
				c3.745-5.494,7.491-11.067,11.236-16.646c5.327-8.07,10.74-16.14,16.066-24.298c35.63-54.17,70.761-111.086,106.307-171.666
				c7.492-12.648,14.902-25.546,22.396-38.528c4.578-7.989,9.158-15.977,13.569-23.966l163.431-338.266
				C8095.621,4666.307,8022.154,4638.292,7948.937,4609.605z"/>
			<path id="_x31_80623340" fill="#6ACBBA" stroke="#000000" d="M7948.937,4609.605c0.555,15.52-4.862,47.291-10.259,74.131
				c-4.188,20.835-8.365,38.7-9.719,43.685c-12.187,44.796-27.753,88.663-46.262,131.233
				c-36.526,84.011-84.497,163.196-142.387,234.213c-62.969,77.244-125.958,151.993-204.651,212.232
				c-84.483,64.658-171.78,121.043-261.809,177.791c-31.687,19.976-70.552,44.353-82.346,82.443
				c-8.863,28.604,6.343,45.806,7.339,72.067c1.311,34.667-19.636,68.926-21.973,104.894
				c85.738,49.24,182.912,110.754,182.912,110.754c2.831-3.664,5.575-7.323,8.323-10.902c31.049-41.021,19.527-29.212,48.204-62.447
				c2.468-2.861,0,0,0,0c-131.141-30.039,31.755-228.787,178.068-313.654c57.34-33.263,123.179-63.428,149.115-36.625
				c-6.4,8.136,48.447-63.525,92.427-128.206c3.745-5.491,7.491-11.066,11.236-16.645c5.329-8.07,10.74-16.141,16.065-24.298
				c35.629-54.17,70.762-111.086,106.308-171.667c7.492-12.647,14.902-25.546,22.394-38.527c4.578-7.989,9.158-15.978,13.57-23.966
				l163.43-338.266C8095.621,4666.307,8022.154,4638.292,7948.937,4609.605z"/>
			<path id="_x31_80623339" fill="#6ACBBA" stroke="#000000" d="M7191.505,5565.336c11.794-38.091,50.659-62.469,82.346-82.442
				c90.028-56.751,177.325-113.132,261.809-177.792c78.693-60.243,141.683-134.988,204.651-212.232
				c57.89-71.018,105.862-150.203,142.387-234.213c18.509-42.57,34.075-86.438,46.262-131.234c1.355-4.984,5.53-22.849,9.719-43.684
				c5.396-26.84,10.813-58.609,10.259-74.132c-0.097-0.037-0.19-0.073-0.288-0.112c-49.926-19.478-99.736-39.309-149.291-57.6
				c-1.113,52.63,1.689,102.909,6.286,155.384c8.622,98.407-56.053,177.166-123.755,240.077
				c-93.861,87.229-219.596,139.063-317.534,220.488c-61.517,51.137-107.891,117.805-161.904,176.219
				c-55.442,59.969-105.485,125.567-142.331,198.713c-19.832,39.378-29.631,90.834-17.195,133.977
				c16.21,5.48,32.947,11.911,50.073,20.203c22.944,11.111,52.648,27.414,83.868,45.342c2.337-35.969,23.285-70.225,21.973-104.894
				C7197.848,5611.142,7182.642,5593.941,7191.505,5565.336z"/>
			<path id="_x31_80623338" fill="#6ACBBA" stroke="#000000" d="M7060.123,5542.776c36.846-73.147,86.889-138.743,142.331-198.712
				c54.014-58.415,100.388-125.084,161.903-176.221c97.939-81.424,223.674-133.255,317.533-220.486
				c67.703-62.911,132.379-141.671,123.757-240.079c-4.601-52.474-7.401-102.755-6.287-155.383
				c-22.469-8.293-44.887-16.271-67.237-23.75c-41.108-13.738-70.151-27.56-86.297-19.656c-12.65,6.155-17.314,25.543-13.492,68.739
				c6.975,80.392,4.047,159.037-33.334,233.348c-49.453,98.19-144.339,164.585-241.3,210.587
				c-85.31,40.514-162.464,78.365-255.595,99.899c-120.678,27.939-157.717,57.727-222.815,155.75
				c-56.355,84.625-60.035,178.165-24.769,270.882c37.255,97.92,106.022,101.193,188.408,129.058
				C7030.492,5633.611,7040.289,5582.154,7060.123,5542.776z"/>
			<path id="_x31_80623337" fill="#7ED04B" stroke="#000000" d="M4684.626,2756.099c-3.661-0.25,19.48-35.284,21.979-38.362
				c10.573-12.648,23.224-23.547,34.793-35.196c14.151-14.395,42.618-46.512,65.085-27.118
				c30.955,26.72-26.981,80.554-47.872,95.863c-3.329,2.413-7.906,4.076-13.149,5.158c-11.403,0.745-22.805,1.243-34.204,1.574
				c-0.25,0.083-0.5,0.083-0.751,0C4700.439,2757.433,4691.033,2756.516,4684.626,2756.099z"/>
			<path id="_x31_80623336" fill="#8ADA87" stroke="#000000" d="M7305.021,4560.435l5.499-32.703
				c11.415-64.579,22.659-121.252,31.909-183.832c5.75-39.196,11.582-78.227,17.583-117.256c3.916-19.307,6.664-39.446,9.081-59.087
				c3.75-24.383,7.666-48.683,11.748-72.982c1.416-8.405,2.666-17.643,4.084-27.13c2.665-14.396,5.249-28.878,7.748-43.357
				c0.083-0.083,0.084-0.166,0.082-0.332c11.328-47.519,34.388-84.631,98.379-48.249c70.813,40.208,52.65,146.313,67.202,213.975
				c7.565,35.039,5.561,71.989-3.517,107.522c-12.076,47.851-36.885,93.283-68.183,128.648
				c-23.308,26.379-47.613,48.344-77.325,66.895c-17.146,10.733-103.954,46.085-104.372,69.472
				C7304.938,4561.519,7304.939,4561.018,7305.021,4560.435z"/>
			<path id="_x31_80623335" fill="#A0EE9D" stroke="#000000" d="M7118.42,5088.109c-41.447,13.059-83.395,24.702-125.674,35.513
				c9.407-13.813,68.012-90.034,78.25-102.599c58.104-71.725,111.631-156.768,153.089-231.494
				c23.144-41.606,37.465-78.551,55.034-120.992c4.828-11.732,10.74-23.385,17.649-34.616
				c42.206-69.73,119.697-127.223,202.836-128.62c69.907-1.152,103.015,67.263,110.078,128.182
				c23.43,201.318-183.736,328.36-341.202,398.482C7219.458,5053.759,7169.354,5072.058,7118.42,5088.109z"/>
			<path id="_x31_80623322" fill="#98D6F9" stroke="#000000" d="M6991.791,5072.013c-24.953-33.292-257.943-183.132-352.262-213.671
				c-62.74-20.307-238.408,23.217-355.049-122.127c-158.08-196.983-318.948-360.687-443.764-460.574
				c-85.353-68.305-373.412-169.282-373.412-169.282c-7.846-110.214-7.835-184.157-16.262-228.861
				c-13.865-73.515-28.416-156.843-40.176-237.189c-12.334-84.304-42.476-165.297-51.268-249.679
				c-9.7-92.93-16.612-178.923-6.892-273.238c5.139-49.703,0.364-130.811,22.232-196.953c13.128-39.691,34.687-62.412,65.2-99.861
				c45.024-55.246,131.877-137.523,206.707-159.466c127.601-37.42,214.082-84.343,206.684-107.678l12.762-3.178
				c107.479-26.158,242.038-45.211,349.256-24.958c191.31,36.131,364.396,84.586,524.033,197.719
				c76.442,54.167,349.732,272.654,410.709,340.625c97.085,108.204,184.039,377.354,205.183,554.843
				c26.147,219.391-52.541,451.27-38.972,668.544c0,0-19.449,216.364-58.303,330.093c-38.87,113.737-105.456,244.104-133.216,288.48
				C7097.232,4949.975,6991.791,5072.013,6991.791,5072.013z"/>
			<path id="_x31_80623323" fill="#80CDF8" stroke="#000000" d="M6978.902,5097.852c-24.959-33.294-256.162-186.779-350.481-217.31
				c-62.739-20.32-238.406,23.212-355.048-122.134c-158.087-196.979-318.947-360.685-443.765-460.571
				c-85.357-68.303-360.558-169.28-360.558-169.28l2.976,33.018c0.783,8.021,1.626,15.982,2.536,23.848
				c6.519,57.042,15.237,108.188,23.552,145.642c4.99,115.485,19.085,190.45,19.373,245.502c0.261,50.189-8.861,82.67-9.741,110.956
				c-5.546-44.518-23.142-80.975-30.695-125.084c-11.238-65.614-12.18-139.205-20.553-199.488
				c-7.15-51.491-29.109-131.768-26.316-190.021c-97.23,62.324-208.084,130.78-263.58,230.196
				c-68.66,123.001-117.611,307.107-91.638,463.239c22.167,133.151,180.986,168.612,219.093,283
				c20.109,60.339,51.172,147.948,103.301,239.276c24.613,43.134,70.178,97.779,126.886,129.019
				c56.707,31.243,116.511,50.518,139.379,74.927c31.201,33.29,68.646,72.835,37.435,81.146
				c-30.477,8.119-50.818,38.482-41.621,52.005c82.41,121.101,136.694,22.401,174.75,93.66
				c7.533,14.123,20.658,39.075,33.925,68.328c0,0,99.194,112.701,203.219,91.916c104.032-20.786,345.391-91.477,426.544-166.362
				c81.155-74.884,143.256-136.085,177.57-153.233c26.359-13.169,72.131-36.048,169.218-36.023
				c32.847-0.001-34.493-99.271-36.028-141.486c-1.49-41.343-6.171-83.863,16.037-147.66
				C6875.247,5189.562,6978.902,5097.852,6978.902,5097.852z M5271.006,4424.128c-8.445,60.767-44.047,135.503-45.446,167.36
				c-2.705,61.25,15.375,175.688-54.783,208.061c-94.192,43.456-56.848-172.23-50.987-208.354
				c10.422-64.312,16.436-118.42,53.384-172.957C5214.178,4357.738,5288.382,4299.224,5271.006,4424.128z"/>
			<path id="_x31_80623333" fill="#80CDF8" stroke="#000000" d="M5797.199,6185.244c-12.652,10.293-28.921,16.9-43.076,26.301
				c-1.904,1.26-59.247-87.232-81.548-8.412c-2.196,7.756-1.282,17.371,1.839,27.547c10.019,32.66,42.831,71.115,68.988,72.604
				c3.135,0.18,9.058-1.605,16.604-4.748c32.593-13.568,95.492-52.412,95.079-67.146
				C5854.647,6215.793,5810.49,6194.1,5797.199,6185.244z"/>
			<path id="_x31_80623334" fill="#80CDF8" stroke="#000000" d="M5173.175,4418.236c-36.949,54.537-42.962,108.646-53.385,172.958
				c-5.86,36.124-43.204,251.81,50.988,208.354c70.156-32.372,52.077-146.81,54.783-208.062c1.399-31.854,37-106.593,45.445-167.358
				C5288.382,4299.224,5214.178,4357.738,5173.175,4418.236z"/>
			<path id="_x31_80623332" fill="#80CDF8" stroke="#000000" d="M7228.449,5800.512c-25.746,40.3-35.639,111.698-54.344,145.657
				c-41.848,75.974-127.001,126.147-187.747,190.3c-48.319,51.029-122.398,91.426-190.031,111.217
				c-57.782,16.916-109.671,33.232-146.804,81.941c-45.834,60.139-126.734,107.318-193.996,141.988
				c-68.287,35.223-145.753,44.637-220.897,54.828c-82.262,11.16-165.309,13.98-246.67-4.965
				c-83.45-19.426-158.693-61.934-243.531-78.994c-30.095-6.053-60.102-18.111-89.122-28.08
				c-109.212-37.516-202.168-133.391-251.388-240.551c-19.121,29.559-35.458,61.617-45.228,82.363
				c-2.255,4.803,25.992,33.295,42.268,51.332c49.757,55.416,225.135,172.088,297.825,210.869
				c192.19,102.551,266.305,129.063,370.333,137.402c236.564,18.971,435.239-66.479,694.939-228.727
				c109.478-68.398,232.053-143.768,341.252-257.918c92.337-96.525,164.952-197.796,242.27-300.074L7228.449,5800.512z"/>
			<path id="_x31_80623331" fill="#80CDF8" stroke="#000000" d="M7170.219,5766.986l-15.741-8.923
				c-14.385,39.184-31.703,89.099-53.413,114.96c-27.038,32.209-78.844,33.611-104.912,67.842
				c-17.736,23.291-19.387,49.238-41.166,70.445c-59.399,57.793-124.56,101.502-199.629,136.965
				c-41.258,19.479-86.051,10.855-124.546,36.408c-70.31,46.643-99.986,122.24-185.24,149.84
				c-137.927,44.643-305.381,74.125-448.663,36.898c-36.273-9.424-73.685-10.166-109.609-20.436
				c-38.191-10.926-71.537-30.707-108.424-44.869c-6.848-2.627-13.103-5.135-18.87-7.584c-7.545,3.143-13.468,4.928-16.603,4.748
				c-26.153-1.486-58.969-39.941-68.986-72.602c-6.445-8.279-13.537-17.693-21.786-28.549
				c-42.506-55.957-92.473-89.01-149.771-121.822c-18.718,9.844-37.3,22.984-55.698,39.635c-14.92,13.508-29.77,33.09-43.242,53.914
				c49.221,107.156,142.177,203.029,251.388,240.547c29.021,9.971,59.027,22.029,89.123,28.082
				c84.839,17.061,160.081,59.568,243.532,78.994c81.36,18.945,164.406,16.125,246.67,4.965
				c75.145-10.193,152.614-19.604,220.896-54.83c67.264-34.672,148.162-81.848,193.996-141.988
				c37.133-48.707,89.02-65.023,146.805-81.939c67.635-19.789,141.713-60.191,190.032-111.215
				c60.746-64.152,145.898-114.328,187.745-190.3c18.705-33.959,28.598-105.357,54.344-145.657L7170.219,5766.986z"/>
			<path id="_x31_80623330" fill="#80CDF8" stroke="#000000" d="M5652.628,6202.129c8.249,10.857,15.339,20.27,21.784,28.549
				c-3.12-10.176-4.033-19.791-1.837-27.549c22.301-78.818,79.644,9.672,81.548,8.414c14.155-9.4,30.424-16.008,43.076-26.301
				c13.29,8.854,57.448,30.549,57.88,46.145c0.415,14.734-62.486,53.576-95.08,67.145c5.768,2.449,12.022,4.957,18.868,7.584
				c36.891,14.162,70.232,33.943,108.426,44.867c35.924,10.27,73.336,11.012,109.609,20.436
				c143.282,37.229,310.738,7.744,448.663-36.898c85.256-27.6,114.931-103.195,185.24-149.84
				c38.497-25.553,83.29-16.928,124.546-36.406c75.069-35.461,140.229-79.172,199.629-136.965
				c21.779-21.209,23.432-47.156,41.166-70.446c26.068-34.231,77.874-35.634,104.912-67.842
				c21.71-25.862,39.029-75.779,53.415-114.958l-96.926-54.943c-6.906-3.915,9.531,80.606,10.413,85.5
				c5.394,29.591,13.242,55.37-20.848,70.541c-42.297,18.813-84.712,22.402-124.737,48.455
				c-38.312,24.941-76.72,56.947-110.388,87.861c-26.161,24.02-45.881,67.818-80.767,80.379
				c-51.361,18.498-137.47,5.363-170.981,59.893c-19.579,31.857-39.594,68.768-75.258,85.119
				c-61.566,28.232-77.092-12.77-126.93-33.695c-63.452-26.637-186.801-43.67-251.411-23.373
				c-37.934,11.916-65.72,26.416-99.854,42.604c-109.501,51.941-189.847-35.67-271.876-95.088
				c-77.815-56.371-156.075-70.961-232.058-31.012C5560.155,6113.119,5610.122,6146.172,5652.628,6202.129z"/>
			<path id="_x31_80623328" fill="#90CBED" stroke="#000000" d="M5029.891,3421.454c41.123,36.611,86.26,69.198,134.662,95.537
				c37.124,20.206,79.304,25.801,119.806,35.736c32.125,7.882,62.348,38.17,96.619,34.664c3.213-21.887-11.623-52.604-17.402-74.067
				c-8.215-30.461-24.317-59.767-35.61-89.227c-20.553-53.667-44.842-105.847-71.021-156.983
				c-26.021-50.83-91.515-151.166-154.584-202.481c-49.989-40.663-81.133-36.771-114.43-25.077c0,0-121.887,63.114-222.445,85.289
				c55.475,18.037,126.124,134.615,173.49,198.304C4965.671,3359.052,4996.5,3391.717,5029.891,3421.454z"/>
			<path id="_x31_80623327" fill="#90CBED" stroke="#000000" d="M5423.299,3837.267c-5.609-35.782-11.924-142.208-17.98-180.316
				l-24.34-69.56c-34.271,3.504-64.494-26.784-96.617-34.666c-40.501-9.936-82.681-15.53-119.807-35.736
				c-48.402-26.337-93.54-58.926-134.662-95.537c-33.393-29.739-64.22-62.402-90.916-98.308
				c-39.019-52.461-79.251-127.62-136.406-172.654c0.115,0.104,0.231,0.203,0.347,0.311c37.277,34.395,47.5,74.979,31.112,122.928
				c-16.559,48.418-58.94,78.097-89.22,117.228c-23.543,30.445-46.446,55.851-84.813,68.136l-2.159,418.938l101.031,239.283
				c0,0,51.984,141.488,93.579,235.119c112.354-10.379,259.232-5.251,332.888-8.261c41.622-72.809,204.907-159.11,245.477-185.12
				c0,0,6.834-50.893,7.707-79.055C5440.69,4010.23,5435.65,3916.104,5423.299,3837.267z"/>
			<path id="_x31_80623329" fill="#90CBED" stroke="#000000" d="M4659.366,3139.382c49.943,2.401,100.624-28.178,143.548,11.416
				c37.277,34.396,47.501,74.981,31.113,122.93c-16.559,48.418-58.94,78.097-89.221,117.229
				c-23.543,30.445-46.445,55.851-84.812,68.136L4659.366,3139.382z"/>
			<path id="_x31_80623324" fill="#A2B1D8" stroke="#000000" d="M7030.436,5717.248c-11.25-51.303-107.965-45.555-145.554-59.933
				c-64.073-24.514-190.03,2.044-228.864,36.02c-28.886,25.253-83.242,85.981-170.634,151.156
				c-88.53,66.005-324.591,143.491-436.96,153.874c-110.957,10.246-187.188-83.182-230.889-170.651
				c-24.965-49.933-92.338,27.446-174.751-93.657c-9.197-13.523-9.657-62.611,20.827-70.732
				c53.927-14.379-56.201-94.206-78.507-98.423c-107.19-20.296-155.729-82.66-204.398-167.935
				c-52.125-91.339-91.512-178.943-111.614-239.282c-31.402-94.261-136.435-126.598-187.771-212.482
				c0,0-54.437,54.352-86.844,101.467c-30.514,44.38-71.965,130.359-74.758,196.935c-2.783,66.575,94.105,224.72,135.715,263.571
				c85.657,79.983,177.593,149.247,272.005,220.59c66.284,50.093,196.399,133.13,225.838,222.667
				c7.442,22.627,147.757,110.98,201.786,149.824c44.287,31.834,77.626,65.67,120.658,83.242c40.585,16.58,90.287,16.305,129-2.059
				c96.702-45.873,153.243-55.939,261.378-38.299c64.549,10.537,132.513,19.465,173.44,82.082
				c47.249,72.262,98.35-112.1,131.99-135.646c41.426-28.99,134.467-14.232,169.021-48.777
				c88.864-88.825,121.925-131.224,198.267-173.283C6978.062,5845.9,7067.976,5888.348,7030.436,5717.248z"/>
			<path id="_x31_80623325" fill="#96A7D3" stroke="#000000" d="M4937.648,4851.78c-31.192-62.428-34.369-149.736-37.414-162.293
				c-33.266-137.319-34.459-229.578-99.792-399.48c-48.912-127.18-85.779-235.524-141.886-364.601l-0.694,1162.319
				c141.267-28.192,277.99-133.304,322.746-170.335C4965.332,4897.412,4948.937,4874.365,4937.648,4851.78z"/>
			<path id="_x31_80623326" fill="#96A7D3" stroke="#000000" d="M5528.314,5950.412c-16.049-57.831-159.482-157.464-223.274-207.403
				c-43.697-34.212-235.756-197-277.364-235.847c-18.208-17.001-46.597-57.783-72.553-103.851
				c-33.351-59.195-62.682-127.12-61.242-164.565c4.189-108.187,97.842-218.91,126.966-264.206
				c2.836-4.399-17.457-27.361-40.239-57.151c-44.753,37.029-181.478,142.145-322.746,170.335l-0.073,118.616l-0.304,508.804
				c47.734,2.594,180.271,93.249,221.732,112.392c355.438,164.061,366.084,286.17,465.906,416.199c0,0,33.657-88.83,93.695-139.381
				c40.964-34.488,93.389-61.705,114.442-66.553C5580.308,6031.563,5538.709,5987.863,5528.314,5950.412z"/>
			<path id="_x31_80623320" fill="#E64438" stroke="#000000" d="M5033.454,4362.87c-45.772-8.33-131.535-7.825-178.922,4.131
				c-14.29,3.603-7.295,16.645-0.016,35.365c29.115,74.904,70.671,341.22,83.144,395.315
				c12.475,54.099,87.353,156.062,103.998,141.499c16.658-14.563,20.818-47.85,16.659-62.413
				c-4.16-14.564,0.031-181.002,0.031-181.002c11.743-110.37,41.48-204.778,87.438-287.101
				c6.939-12.427,24.761-36.338,33.302-47.848L5033.454,4362.87z"/>
			<path id="_x31_80623321" fill="#F2483B" stroke="#000000" d="M5033.454,4362.87c-45.772-8.33-131.535-7.825-178.922,4.131
				c-14.29,3.603-7.295,16.645-0.016,35.365c29.115,74.904,70.671,341.22,83.144,395.315
				c12.475,54.099,87.353,156.062,103.998,141.499c16.658-14.563,20.818-47.85,16.659-62.413
				c-4.16-14.564,0.031-181.002,0.031-181.002c11.743-110.37,41.48-204.778,87.438-287.101
				c6.939-12.427,24.761-36.338,33.302-47.848L5033.454,4362.87z"/>
			<path id="_x31_80623401" fill="#CCCCCC" stroke="#000000" d="M4745.462,2756.442c43.441-2.654,86.303-7.887,128.746-16.7
				c35.037-7.15,69.827-16.798,104.448-29.358c23.47-8.484,46.776-18.3,70.081-29.614c23.72-11.563,45.775-23.46,66.417-35.773
				c87.725-51.994,149.738-110.407,205.761-176.141c58.767-68.98,110.877-146.032,179.054-232.154
				c11.735-14.812,24.887-27.293,39.287-37.61c17.313-12.314,36.454-21.632,56.929-28.202
				c36.869-11.974,78.232-15.298,121.84-12.709c145.72,8.685,316.061,84.115,425.488,128.576
				c15.396,6.247,30.874,12.574,46.435,18.902c181.495,73.769,369.477,151.285,538.315,255.594c0,0,0,0,0.084,0
				c71.397,44.121,139.38,92.985,202.034,148.341c50.174,44.367,95.104,86.651,136.375,129.519l0.084,0
				c73.221,76.161,135.205,154.319,195.939,250.037c13.395,21.142,26.706,43.113,40.102,66.085
				c39.6,68,63.218,152.725,82.762,230.708c4.99,19.892,9.646,39.282,14.303,57.84c25.114,101.119,31.004,204.066,25.99,306.928
				c-2.339,49.6-7.259,99.2-13.759,148.549c-5.502,41.777-12.165,83.303-19.417,124.496c0.002,0.166,0.001,0.25-0.08,0.332
				c-3.332,14.146-5.748,29.128-7.75,43.357c-2.417,13.149-4.832,26.299-7.33,39.362c-3.414,18.226-5.833,39.197-8.502,60.75
				c-0.667,4.245-1.331,8.489-1.999,12.733c-2.417,15.479-4.749,30.877-7.082,46.354c-4.583,22.718-10.996,44.106-20.734,61.914
				c-13.525-217.295,42.362-450.639,16.273-670.017c-21.188-177.516-108.101-446.673-205.201-554.879
				c-60.988-67.921-334.331-286.43-410.718-340.623c-159.683-113.13-332.775-161.596-524.013-197.669
				c-147.05-27.825-345.54,18.326-454.984,55.339c-180.353,61.049-312.786,201.253-532.681,324.463
				c-257.185,144.171-392.436,228.785-569.286,234.992L4656,2758.76c0.666,0,1.416,0,2.081,0
				c17.562,0.087,35.036-0.076,52.431-0.738c0.251,0.082,0.499,0.082,0.75,0C4722.907,2758.602,4735.475,2758.522,4745.462,2756.442
				z"/>
			<path id="_x31_80623402" fill="#CCCCCC" stroke="#000000" d="M5726.15,4972.601c-73.189-57.149-100.745-102.405-135.204-174.794
				c-41.592-87.389-41.568-208.061-2.033-239.26c30.378-23.979,65.113-22.071,137.315,20.832
				c98.082,58.291,90.412,87.605,107.25,189.446c8.352,50.445,57.037,160.12,48.71,203.805
				C5877.232,4998.648,5796.702,5027.686,5726.15,4972.601z"/>
			<path id="_x31_80623403" fill="#CCCCCC" stroke="#000000" d="M7743.492,5429.42c-25.935-26.803-91.773,3.362-149.115,36.623
				c-146.313,84.869-309.207,283.619-178.066,313.657c0,0,29.578-42.933,76.073-86.897c12.88-12.186,26.711-22.954,40.415-33.924
				c6.051-4.997,12.082-9.939,18.07-14.872c1.857-1.593,3.705-3.195,5.537-4.829c27.984-24.942,49.543-45.558,67.191-63.71
				c0.432-0.498,0.869-0.993,1.299-1.497c0.417-0.414,0.752-0.746,1.083-1.166c25.04-28.487,49.15-57.115,72.567-86.095
				c7.927-10.338,16.225-21.138,25.649-32.956C7730.654,5445.652,7737.092,5437.557,7743.492,5429.42z"/>
			<path id="_x31_80623400" fill="#AAAAAA" stroke="#000000" d="M5102.357,3064.63c-49.989-40.663-81.133-36.771-114.43-25.077
				c29.826-18.632,211.691-117.286,290.812-162.636c150.578-86.335,253.068-181.442,375.045-247.704
				c46.693-25.37,98.143-50.258,199.748-75.78c7.737,23.69-79.082,70.26-206.683,107.678
				c-74.83,21.944-161.683,104.22-206.707,159.466c-30.514,37.451-52.072,60.17-65.201,99.863
				c-21.867,66.14-17.093,147.249-22.232,196.951c-9.718,94.315-2.809,180.309,6.893,273.238
				c8.788,84.384,38.931,165.375,51.267,249.68c11.759,80.347,26.311,163.676,40.176,237.188
				c9.021,47.854,9.891,188.623,23.521,307.924c6.518,57.042,15.234,108.188,23.552,145.643
				c4.989,115.485,19.084,190.45,19.372,245.502c0.26,50.188-8.861,82.67-9.74,110.955c-5.548-44.519-23.142-80.975-30.697-125.084
				c-11.237-65.613-12.18-139.206-20.552-199.487c-8.912-64.156-24.922-114.731-26.324-176.145
				c-0.977-42.926,6.992-63.353,8.344-106.807c2.174-69.767-2.864-163.895-15.216-242.731
				c-5.61-35.781-11.924-142.207-17.981-180.317c-8.943-56.198-33.066-113.659-52.684-170.616
				c-28.06-81.418-53.392-136.538-95.665-219.167C5230.971,3216.347,5165.454,3115.964,5102.357,3064.63z"/>
		</g>
	</g>
	<g transform="scale(1.0)">
		<g id="_x31_80623315_1_" transform=" scale(1.0, 1.0)">
			<path id="_x31_80623317_1_" fill="#BFDAE3" stroke="#000000" d="M4653.954,2758.012l-0.337-1710.373
				c-20.816-100.897-135.496-192.23-192.653-245.28c-77.695-72.111-157.826-152.129-388.4-171.916
				c-281.089-24.122-499.333,0.098-821.105,83.37c-494.292,127.921-832.164,255.378-1092.895,405.225
				C1363.416,1576.03,680.029,2128.303,683.151,3116.639c0.972,306.126,165.369,679.952,254.008,968.083
				c107.662,349.954,199.702,646.534,383.003,965.293c119.68,208.122,232.019,371.979,374.596,532.542
				c47.063,53.003,107.978,87.254,159.554,147c101.97,118.124,219.318,300.531,352.378,439.617
				c109.199,114.15,231.774,189.523,341.252,257.92c259.702,162.246,458.375,247.697,694.939,228.727
				c104.026-8.338,178.141-34.85,370.308-137.385c124.823-66.604,281.416-180.828,341.158-258.055
				c116.25-150.248,122.997-268.781,478.435-432.843c41.461-19.144,173.998-109.798,221.732-112.393L4653.954,2758.012z"/>
			<path id="_x31_80623318_1_" fill="#B0FFB8" stroke="#000000" d="M2219.081,5696.885
				c104.181-50.433,193.837-32.074,238.434-149.302c35.29-92.71,31.604-186.214-24.731-270.877
				c-134.847-202.665-330.95-389.337-403.915-626.271c-33.319-108.204-84.151-489.223-94.433-543.715
				c-40.777-215.871-76.787-443.861-22.317-662.993c22.753-91.552,47.417-203.257,97.027-288.52
				c108.152-185.878,213.546-305.186,372.489-445.675c223.435-197.482,515.023-312.22,786.9-422.82
				c175.444-71.377,507.612-222.02,643.567-50.061c148.222,187.467,220.851,331.824,451.178,444.044
				c125.643,61.209,256.949,79.033,390.674,77.313l-0.337-1710.371c-20.816-100.897-135.496-192.23-192.653-245.28
				c-77.695-72.111-157.826-152.129-388.4-171.916c-281.089-24.122-499.333,0.098-821.104,83.37
				c-494.293,127.921-832.165,255.378-1092.896,405.225C1363.416,1576.028,680.029,2128.301,683.151,3116.637
				c0.972,306.128,165.369,679.952,254.008,968.083c107.662,349.954,199.702,646.534,383.003,965.293
				c119.68,208.122,232.019,371.979,374.596,532.542c47.063,53.005,107.978,87.256,159.554,147
				c31.205,36.149,63.848,78.316,97.949,123.424C1952.261,5852.979,2133.095,5738.514,2219.081,5696.885z"/>
			<path id="_x31_80623384_1_" fill="#1F9D5A" stroke="#000000" d="M3553.349,780.368
				c-244.832,47.317-480.248,129.753-710.175,218.593c-68.486,26.478-144.463,54.122-219.771,82.765h-0.084l-61.364-150.703
				l-0.582-1.414l0.001-0.083c191.063-74.271,416.58-144.887,690.034-215.679c109.1-28.233,206.213-49.64,298.005-64.721
				L3553.349,780.368z"/>
			<path id="_x31_80623383_1_" fill="#1F9D5A" stroke="#000000" d="M2782.015,1471.006l-158.612-389.281
				c75.311-28.642,151.285-56.286,219.773-82.764c229.925-88.841,465.343-171.276,710.173-218.593l9.55,322.732v0.083
				c-116.999,60.524-226.922,126.374-351.745,177.248C3066.109,1339.461,2922.563,1402.738,2782.015,1471.006z"/>
			<path id="_x31_80623382_1_" fill="#1F9D5A" stroke="#000000" d="M2954.531,1894.573l-172.517-423.566
				c140.548-68.269,284.095-131.545,429.139-190.577c124.823-50.873,234.746-116.723,351.745-177.247l15.665,530.62
				c-148.455,70.184-319.799,124.645-458.851,184.758C3063.294,1842.955,3008.537,1868.432,2954.531,1894.573z"/>
			<path id="_x31_80623381_1_" fill="#1F9D5A" stroke="#000000" d="M3090.497,2228.018l-135.966-333.445
				c54.006-26.143,108.763-51.62,165.182-76.015c139.052-60.112,310.394-114.572,458.851-184.757l11.978,406.704v0.083
				c-92.705,25.9-189.899,67.613-251.646,91.426C3256.43,2163.904,3173.213,2195.378,3090.497,2228.018z"/>
			<path id="_x31_80623380_1_" fill="#1F9D5A" stroke="#000000" d="M3122.053,2305.658l-31.556-77.639
				c82.716-32.64,165.933-64.113,248.398-96.002c61.746-23.815,158.94-65.528,251.646-91.427l3.436,117.591
				c-145.722,8.685-316.062,84.115-425.489,128.576C3153.092,2293.002,3137.614,2299.33,3122.053,2305.658z"/>
			<path id="_x31_80623389_1_" fill="#1F9D5A" stroke="#000000" d="M4653.594,1047.714l0.028,149.22l-113.077,117.113
				c-11.349-152.627-59.978-310.321-164.775-423.733c-162.071-175.569-435.365-162.118-648.743-137.11
				c-58.42,6.834-116.34,16.001-173.678,27.163l-3.937-131.24c178.922-29.41,337.292-34.602,523.129-18.659
				c230.528,19.763,310.687,99.807,388.43,171.946C4518.071,855.414,4632.768,946.77,4653.594,1047.714z"/>
			<path id="_x31_80623388_1_" fill="#1F9D5A" stroke="#000000" d="M4540.547,1314.045l-171.072,177.212
				c-0.783-185.086-44.431-384.644-214.221-476.571c-165.295-89.516-330.979-34.141-489.254,37.961
				c-35.282,16.066-69.483,33.05-103.102,50.451l-9.55-322.732c57.338-11.162,115.259-20.327,173.68-27.163
				c213.376-25.006,486.674-38.458,648.741,137.108C4480.567,1003.724,4529.199,1161.419,4540.547,1314.045z"/>
			<path id="_x31_80623387_1_" fill="#1F9D5A" stroke="#000000" d="M4056.569,1526.438
				c-91.817-126.065-233.445-38.656-334.964,28.524c-43.436,28.721-91.866,54.778-143.042,78.839l-15.664-530.621v-0.083
				c33.619-17.4,67.818-34.382,103.103-50.451c158.273-72.102,323.958-127.475,489.253-37.961
				c169.791,91.929,213.437,291.487,214.222,476.571l-250.366,259.284C4114.684,1667.987,4098.523,1583.937,4056.569,1526.438z"/>
			<path id="_x31_80623386_1_" fill="#1F9D5A" stroke="#000000" d="M3578.563,1633.802c51.176-24.063,99.604-50.118,143.042-78.84
				c101.519-67.179,243.145-154.587,334.962-28.523c41.954,57.498,58.114,141.546,62.541,224.102l0.001,0.083l-293.548,303.984
				c-38.625-52.005-134.16-42.334-235.021-14.101L3578.563,1633.802z"/>
			<path id="_x31_80623385_1_" fill="#1F9D5A" stroke="#000000" d="M3715.815,2170.89c-36.869-11.976-78.23-15.298-121.839-12.709
				l-3.436-117.591v-0.083c100.86-28.234,196.396-37.906,235.021,14.101l-109.415,113.369L3715.815,2170.89z"/>
			<path id="_x31_80623367_1_" fill="#188064" stroke="#000000" d="M686.611,2989.709
				c19.824-338.301,123.298-623.272,284.702-870.304l104.871,59.233c-71.798,120.851-155.83,234.631-210.233,365.299
				c-55.98,134.414-65.102,303.191-68.736,453.823l-110.188-8.051L686.611,2989.709z"/>
			<path id="_x31_80623366_1_" fill="#188064" stroke="#000000" d="M1097.645,2986.882c-0.664,10.903-1.327,21.805-1.909,32.624
				l-298.521-21.747c3.633-150.633,12.756-319.409,68.736-453.823c54.403-130.666,138.436-244.446,210.233-365.299l288.396,162.975
				c-8.653,13.068-17.222,26.552-25.708,40.451C1222.149,2574.163,1111.499,2758.77,1097.645,2986.882z"/>
			<path id="_x31_80623365_1_" fill="#188064" stroke="#000000" d="M1364.66,2341.614l111.946,63.312
				c-50.169,62.341-94.847,128.179-129.952,196.927c-65.804,128.923-81.422,281.223-84.057,429.857l-166.862-12.201
				c0.582-10.819,1.245-21.721,1.909-32.624c13.856-228.114,124.505-412.721,241.228-604.819
				c8.486-13.899,17.057-27.383,25.708-40.452L1364.66,2341.614z"/>
			<path id="_x31_80623364_1_" fill="#188064" stroke="#000000" d="M1566.45,3053.868l-303.849-22.162
				c2.634-148.635,18.251-300.934,84.055-429.857c35.105-68.747,79.781-134.585,129.953-196.926l0.082,0l329.096,185.939
				c-15.477,16.813-30.537,34.126-45.264,51.855C1672.996,2748.259,1607.361,2898.237,1566.45,3053.868z"/>
			<path id="_x31_80623363_1_" fill="#188064" stroke="#000000" d="M1566.445,3053.87
				c40.913-155.633,106.549-305.611,194.076-411.153c14.727-17.729,29.787-35.042,45.265-51.855l357.062,201.744
				c-23.797,25.554-46.676,52.105-68.477,79.989c-57.325,73.329-112.656,138.753-157.416,208.335L1566.445,3053.87z"/>
			<path id="_x31_80623362_1_" fill="#188064" stroke="#000000" d="M1936.956,3080.93c44.759-69.583,100.09-135.006,157.415-208.335
				c21.801-27.884,44.68-54.435,68.477-79.989l82.314,46.505c-73.219,76.161-135.205,154.319-195.939,250.036L1936.956,3080.93z"/>
			<path id="_x31_80623373_1_" fill="#188064" stroke="#000000" d="M1116.289,2107.639c-12.73,24.053-26.125,47.692-40.101,70.996
				l-104.87-59.233c184.615-282.657,444.886-515.562,742.199-721.676l85.656,114.496c-37.113,23.229-74.894,46.869-113.753,70.845
				c-130.311,80.501-233.993,138.693-332.343,237.081C1268.375,1904.883,1172.521,2001.022,1116.289,2107.639z"/>
			<path id="_x31_80623372_1_" fill="#188064" stroke="#000000" d="M1364.66,2341.615h-0.082l-288.396-162.977
				c13.976-23.303,27.37-46.941,40.101-70.996c56.236-106.619,152.09-202.758,236.792-287.493
				c98.351-98.388,202.036-156.581,332.346-237.081c38.859-23.977,76.638-47.619,113.751-70.845l196.288,262.528
				c-66.985,42.789-133.388,89.821-196.21,141.182C1612.611,2068.515,1476.896,2172.984,1364.66,2341.615z"/>
			<path id="_x31_80623371_1_" fill="#188064" stroke="#000000" d="M2074.54,1880.428
				c-127.479,88.407-249.714,183.388-365.289,285.355c-80.878,71.338-162.17,151.663-232.56,239.143l-0.083,0l-111.946-63.313
				c112.233-168.629,247.948-273.098,434.588-425.68c62.822-51.36,129.224-98.393,196.21-141.182L2074.54,1880.428z"/>
			<path id="_x31_80623370_1_" fill="#188064" stroke="#000000" d="M1476.691,2404.925c70.39-87.48,151.682-167.805,232.56-239.143
				c115.575-101.968,237.811-196.948,365.289-285.355l244.569,327.016c-188.479,100.817-366.299,222.522-513.322,383.418
				L1476.691,2404.925z"/>
			<path id="_x31_80623369_1_" fill="#188064" stroke="#000000" d="M2162.848,2792.607l-357.063-201.744
				c147.023-160.896,324.843-282.601,513.324-383.418l211.854,283.33c-36.113,22.56-72.061,47.117-108.257,74.504
				C2329.344,2635.701,2241.061,2708.62,2162.848,2792.607z"/>
			<path id="_x31_80623368_1_" fill="#188064" stroke="#000000" d="M2245.246,2839.11l-0.084,0l-82.314-46.505
				c78.215-83.986,166.496-156.905,259.86-227.328c36.195-27.387,72.142-51.943,108.257-74.504l52.691,70.479
				c-71.396,44.123-139.38,92.985-202.033,148.34C2331.448,2753.958,2286.515,2796.244,2245.246,2839.11z"/>
			<path id="_x31_80623379_1_" fill="#188064" stroke="#000000" d="M1799.172,1512.226l-85.658-114.497
				c141.375-98.146,291.075-190.136,445.018-278.63c116.498-66.932,248.395-129.458,402.841-189.49l0.583,1.414l61.363,150.703
				c-72.398,27.478-144.297,55.953-208.372,85.093C2177.205,1275.052,1997.384,1388.269,1799.172,1512.226z"/>
			<path id="_x31_80623378_1_" fill="#188064" stroke="#000000" d="M1995.46,1774.751l-196.288-262.528
				c198.21-123.955,378.031-237.172,615.774-345.405c64.076-29.142,135.974-57.616,208.372-85.093h0.084l158.612,389.281
				c-29.793,14.32-59.416,28.972-88.874,43.96l-0.748-1.416c105.006-105.297-98.212-53.659-133.161-36.093
				C2439.985,1537.733,2215.054,1633.981,1995.46,1774.751z"/>
			<path id="_x31_80623377_1_" fill="#188064" stroke="#000000" d="M1995.46,1774.75
				c219.594-140.771,444.526-237.018,563.771-297.294c34.951-17.566,238.169-69.203,133.163,36.093l0.748,1.415
				c-215.358,108.646-423.141,229.522-618.603,365.462L1995.46,1774.75z"/>
			<path id="_x31_80623376_1_" fill="#188064" stroke="#000000" d="M2319.109,2207.444l-244.569-327.016
				c195.462-135.94,403.244-256.817,618.601-365.461c29.458-14.987,59.081-29.641,88.874-43.96l172.517,423.566
				c-147.623,71.266-289.335,147.191-441.866,217.293C2447.426,2141.84,2382.684,2173.393,2319.109,2207.444z"/>
			<path id="_x31_80623375_1_" fill="#188064" stroke="#000000" d="M2530.963,2490.772l-211.854-283.33
				c63.574-34.05,128.314-65.604,193.556-95.577c152.531-70.104,294.244-146.028,441.866-217.293l135.966,333.445
				c-62.828,24.811-125.239,50.372-186.818,77.265C2769.535,2363.898,2649.54,2416.517,2530.963,2490.772z"/>
			<path id="_x31_80623374_1_" fill="#188064" stroke="#000000" d="M2583.657,2561.251l-52.692-70.479
				c118.575-74.256,238.57-126.875,372.715-185.489c61.578-26.894,123.99-52.454,186.817-77.266l31.556,77.64
				c-181.493,73.769-369.477,151.285-538.314,255.594C2583.738,2561.251,2583.738,2561.251,2583.657,2561.251z"/>
			<path id="_x31_80623361_1_" fill="#188064" stroke="#000000" d="M687.027,2989.71l110.188,8.051
				c-0.495,22.635-0.988,44.855-1.4,66.494c-2.723,134.57,31.842,268.469,64.738,398.455l-122.668,9.178
				c-32.23-122.414-54.39-243.331-54.744-355.18c-0.176-43.193,1.064-85.47,3.471-126.998L687.027,2989.71z"/>
			<path id="_x31_80623360_1_" fill="#188064" stroke="#000000" d="M1095.735,3019.506c-7.38,132.74-9.103,262.317,21.632,392.803
				c1.747,7.408,3.832,17.811,6.246,30.626l-263.061,19.773c-32.896-129.987-67.461-263.884-64.738-398.455
				c0.412-21.638,0.905-43.858,1.4-66.494L1095.735,3019.506z"/>
			<path id="_x31_80623359_1_" fill="#188064" stroke="#000000" d="M1274.825,3431.587l-151.212,11.347
				c-2.414-12.816-4.499-23.217-6.246-30.625c-30.734-130.487-29.012-260.063-21.632-392.804l166.862,12.202
				c-1.069,59.837,0.024,119.091,0.784,175.931C1264.395,3281.791,1267.821,3356.772,1274.825,3431.587z"/>
			<path id="_x31_80623358_1_" fill="#188064" stroke="#000000" d="M1274.825,3431.587c-7.004-74.814-10.431-149.798-11.443-223.948
				c-0.76-56.839-1.854-116.094-0.784-175.931l303.849,22.162c-32.265,122.593-49.219,248.761-49.364,359.445L1274.825,3431.587z"/>
			<path id="_x31_80623357_1_" fill="#188064" stroke="#000000" d="M1860.505,3239.152
				c-15.969,50.518-35.185,101.287-53.981,152.472l-289.443,21.692c0.146-110.686,17.1-236.854,49.366-359.444l370.509,27.058
				C1905.174,3130.121,1878.72,3181.474,1860.505,3239.152z"/>
			<path id="_x31_80623356_1_" fill="#188064" stroke="#000000" d="M2009.127,3155.235c-39.602,68-63.22,152.726-82.762,230.707
				l-10.32-2.578l-109.52,8.26c18.797-51.187,38.011-101.956,53.979-152.473c18.213-57.677,44.669-109.03,76.45-158.221
				l112.268,8.217C2035.829,3110.289,2022.518,3132.262,2009.127,3155.235z"/>
			<path id="_x31_80623355_1_" fill="#009C75" stroke="#000000" d="M864.051,3476.606c40.31,159.446,82.535,319.557,140.984,473.422
				l-95.866,21.656l-0.166,0.084l-7.822,2.58c-52.959-156.862-117.989-331.2-163.296-502.462l122.668-9.178
				C861.72,3467.369,862.886,3471.946,864.051,3476.606z"/>
			<path id="_x31_80623354_1_" fill="#009C75" stroke="#000000" d="M1350.716,3822.632c4.83,15.313,9.993,30.541,15.405,45.687
				l-361.086,81.709c-58.449-153.864-100.675-313.976-140.984-473.42c-1.165-4.66-2.331-9.238-3.498-13.898l263.061-19.773
				c21.577,112.762,74.063,406.607,221.028,381.613L1350.716,3822.632z"/>
			<path id="_x31_80623353_1_" fill="#009C75" stroke="#000000" d="M1274.821,3431.585
				c12.261,132.739,35.674,264.972,75.893,391.045l-6.072,1.918c-146.966,24.993-199.451-268.853-221.028-381.614L1274.821,3431.585
				z"/>
			<path id="_x31_80623352_1_" fill="#009C75" stroke="#000000" d="M1350.717,3822.635
				c-40.22-126.075-63.632-258.309-75.892-391.046l242.257-18.271c0.002,16.727,0.34,33.204,1.092,49.183
				c5.511,117.592,19.02,243.171,36.77,363.089l-188.822,42.731C1360.709,3853.173,1355.546,3837.945,1350.717,3822.635z"/>
			<path id="_x31_80623351_1_" fill="#009C75" stroke="#000000" d="M1734.829,3643.05c-3.988,27.714-9.304,84.971-8.627,143.809
				l-171.261,38.73c-17.751-119.918-31.255-245.499-36.77-363.089c-0.753-15.978-1.09-32.454-1.092-49.185l289.443-21.692
				C1776.164,3474.184,1747.051,3557.912,1734.829,3643.05z"/>
			<path id="_x31_80623350_1_" fill="#009C75" stroke="#000000" d="M1912.061,3443.782
				c-25.116,101.121-31.006,204.066-25.992,306.927l-159.862,36.149c-0.677-58.838,4.638-116.095,8.626-143.809
				c12.219-85.138,41.329-168.865,71.691-251.427l109.518-8.26l10.32,2.578C1921.371,3405.832,1916.715,3425.224,1912.061,3443.782z
				"/>
			<path id="_x31_80623394_1_" fill="#40A666" stroke="#000000" d="M4653.719,1704.834l-0.003,0.083l-141.793,79.505
				c12.371-140.813,34.482-283.129,30.877-424.105c-0.422-15.313-1.169-30.792-2.255-46.271l113.077-117.112l0.099,507.9H4653.719z"
				/>
			<path id="_x31_80623393_1_" fill="#40A666" stroke="#000000" d="M4348.992,1875.83c2.313-84.137,7.125-168.192,14.6-251.999
				c3.736-42.111,6.139-86.885,5.881-132.574l171.072-177.212c1.086,15.479,1.835,30.958,2.255,46.271
				c3.605,140.976-18.502,283.291-30.875,424.105L4348.992,1875.83z"/>
			<path id="_x31_80623392_1_" fill="#40A666" stroke="#000000" d="M4114.9,1923.811c4.067-48.851,7.467-110.604,4.211-173.187
				l-0.001-0.083l250.366-259.284c0.258,45.689-2.146,90.463-5.882,132.574c-7.476,83.806-12.286,167.861-14.601,251.999
				l-240.736,135.033C4110.168,1981.484,4112.49,1952.439,4114.9,1923.811z"/>
			<path id="_x31_80623391_1_" fill="#40A666" stroke="#000000" d="M3834.22,2069.338c-2.412-5.408-5.325-10.319-8.655-14.729
				l293.548-303.984c3.255,62.583-0.144,124.335-4.212,173.187c-2.407,28.628-4.732,57.673-6.643,87.051l-239.152,134.199
				C3856.616,2118.018,3844.71,2092.471,3834.22,2069.338z"/>
			<path id="_x31_80623390_1_" fill="#40A666" stroke="#000000" d="M3834.22,2069.336c10.488,23.135,22.396,48.681,34.885,75.725
				l-96.361,54.03c-17.313-12.313-36.453-21.631-56.928-28.201l0.331-2.912l109.415-113.369
				C3828.893,2059.018,3831.807,2063.927,3834.22,2069.336z"/>
			<path id="_x31_80623399_1_" fill="#40A666" stroke="#000000" d="M4451.171,2646.441c34.356-74.906,82.366-131.257,65.368-227.541
				c-24.66-140.223-25.181-259.147-12.561-409.698c5.065-60.754-0.022-119.841,4.377-180.593c1.079-14.731,2.24-29.462,3.569-44.191
				l141.795-79.505l0.2,1053.174l0.002,0.666c-17.56,0.088-35.039-0.076-52.43-0.739c10.068-0.583,19.473-1.5,25.881-1.919
				c3.66-0.25-19.481-35.282-21.979-38.36c-10.57-12.648-23.223-23.547-34.792-35.196c-14.151-14.395-42.619-46.512-65.086-27.118
				c-30.955,26.721,26.98,80.552,47.872,95.863c3.33,2.413,7.906,4.075,13.149,5.156c-43.44-2.653-86.302-7.888-128.746-16.7
				C4441.695,2707.699,4437.695,2675.742,4451.171,2646.441z"/>
			<path id="_x31_80623398_1_" fill="#40A666" stroke="#000000" d="M4334.922,2706.055
				c-0.947-173.766,24.816-348.705,16.961-521.222c-4.681-102.944-5.698-205.973-2.889-309.003l162.931-91.408
				c-1.329,14.729-2.49,29.46-3.569,44.191c-4.399,60.752,0.688,119.839-4.376,180.594c-12.621,150.551-12.1,269.474,12.561,409.698
				c16.996,96.283-31.01,152.635-65.369,227.542c-13.474,29.296-9.476,61.251-13.379,93.294
				c-35.037-7.15-69.825-16.798-104.448-29.357L4334.922,2706.055z"/>
			<path id="_x31_80623397_1_" fill="#40A666" stroke="#000000" d="M4351.883,2184.832c7.854,172.518-17.91,347.455-16.961,521.222
				l-1.578,4.329c-23.472-8.484-46.776-18.3-70.081-29.614c-23.72-11.563-45.775-23.458-66.417-35.773l4.909-8.239
				c-105.729-190.309-107.771-415.756-93.497-625.894l240.736-135.033C4346.185,1978.86,4347.202,2081.887,4351.883,2184.832z"/>
			<path id="_x31_80623396_1_" fill="#40A666" stroke="#000000" d="M3999.158,2462.03c-25.318-91.789-82.43-214.862-130.053-316.967
				l239.152-134.199c-14.273,210.138-12.23,435.585,93.498,625.894l-4.91,8.239c-87.727-51.996-149.738-110.407-205.76-176.141
				L3999.158,2462.03z"/>
			<path id="_x31_80623395_1_" fill="#40A666" stroke="#000000" d="M3999.158,2462.03l-8.073,6.826
				c-58.767-68.981-110.877-146.035-179.054-232.155c-11.735-14.813-24.887-27.293-39.287-37.61l96.361-54.03
				C3916.727,2247.166,3973.842,2370.24,3999.158,2462.03z"/>
			<path id="_x31_80623349_1_" fill="#219866" stroke="#000000" d="M1036.825,4382.193l-0.167,0.084l-5.159,1.664
				c-31.893-96.364-62.453-195.393-94.431-299.163c-10.908-35.619-23.066-72.483-35.89-110.43l7.822-2.58l0.166-0.084l95.866-21.656
				c13.156,34.452,27.063,68.569,41.965,102.356c44.297,100.355,95.494,194.469,150.022,286.752L1036.825,4382.193z"/>
			<path id="_x31_80623348_1_" fill="#219866" stroke="#000000" d="M1046.998,4052.385c-14.902-33.787-28.809-67.905-41.965-102.356
				l361.088-81.709c0.58,1.746,1.165,3.494,1.832,5.242c45.379,125.822,98.5,253.975,159.857,376.632l-330.79,88.943
				C1142.494,4246.854,1091.295,4152.74,1046.998,4052.385z"/>
			<path id="_x31_80623347_1_" fill="#219866" stroke="#000000" d="M1367.955,3873.56c-0.667-1.748-1.249-3.498-1.83-5.242
				l188.82-42.73c4.664,31.541,9.58,62.665,14.746,93.207c16.498,97.447,41.401,207.88,98.342,293.671v0.083l-140.223,37.645
				C1466.453,4127.537,1413.332,3999.384,1367.955,3873.56z"/>
			<path id="_x31_80623346_1_" fill="#219866" stroke="#000000" d="M1753.667,4189.479l-85.632,22.987
				c-56.942-85.791-81.845-196.22-98.342-293.669c-5.164-30.541-10.082-61.667-14.748-93.208l171.261-38.73
				c0.852,89.548,15.6,182.589,70.274,179.829c25.632-1.251,77.635-54.44,103.016-67.347l0.166,0.001v-0.084h0.168
				c5.501,41.776,12.166,83.305,19.416,124.497c-11.329-47.519-34.39-84.631-98.379-48.249
				C1750.053,4015.716,1768.215,4121.818,1753.667,4189.479z"/>
			<path id="_x31_80623345_1_" fill="#219866" stroke="#000000" d="M1726.204,3786.858l159.864-36.149
				c2.339,49.601,7.255,99.202,13.759,148.549h-0.167v0.084l-0.166-0.001c-25.381,12.906-77.382,66.096-103.016,67.347
				C1741.804,3969.445,1727.057,3876.406,1726.204,3786.858z"/>
			<path id="_x31_80623344_1_" fill="#219866" stroke="#000000" d="M1031.503,4383.941l5.159-1.664l0.167-0.084l160.193-43.057
				c53.195,90.201,109.555,178.573,165.829,269.108l0.5,1.248c-73.314,28.724-146.878,56.786-220.273,78.353
				C1101.945,4588.071,1065.892,4487.63,1031.503,4383.941z"/>
			<path id="_x31_80623343_1_" fill="#219866" stroke="#000000" d="M1363.348,4609.493l-0.5-1.248
				c-56.274-90.535-112.634-178.906-165.829-269.108l330.792-88.945c43.543,87.043,91.076,171.256,142.941,249.807l-4.575,8.489
				c-16.146-7.903-45.189,5.918-86.298,19.656C1508.229,4552.125,1435.915,4581.184,1363.348,4609.493z"/>
			<path id="_x31_80623342_1_" fill="#219866" stroke="#000000" d="M2006.979,4560.438l11.913,71.236l-3.658,2.247
				c-42.207-69.73-119.697-127.223-202.835-128.621l-141.646-5.299c-51.866-78.551-99.399-162.766-142.942-249.807l140.223-37.646
				c22.061,33.119,48.781,62.656,81.741,86.285l7.156-1.748l0.084-0.001l0.167-0.083c12.076,47.854,36.885,93.286,68.183,128.648
				c23.306,26.377,47.611,48.342,77.325,66.895c17.145,10.733,103.954,46.085,104.372,69.472
				C2007.063,4561.519,2007.061,4561.018,2006.979,4560.438z"/>
			<path id="_x31_80623341_1_" fill="#219866" stroke="#000000" d="M1668.033,4212.468l85.632-22.987
				c-7.565,35.039-5.563,71.989,3.517,107.522l-0.167,0.083l-0.084,0.001l-7.156,1.748c-32.962-23.627-59.68-53.166-81.741-86.285
				V4212.468z"/>
			<path id="_x31_80623319_1_" fill="#9AD2BD" stroke="#000000" d="M1143.074,4687.84l163.431,338.266
				c4.411,7.989,8.991,15.977,13.569,23.966c7.493,12.982,14.903,25.88,22.396,38.528c35.546,60.58,70.677,117.496,106.307,171.666
				c5.326,8.158,10.739,16.228,16.066,24.298c3.745,5.578,7.491,11.151,11.236,16.646c43.981,64.682,89.179,125.852,137.372,185.501
				c23.417,28.979,47.527,57.607,72.567,86.095c0.331,0.418,0.666,0.752,1.083,1.165c0.43,0.505,0.867,1,1.299,1.498
				c17.648,18.151,39.207,38.768,67.191,63.71c1.832,1.634,3.68,3.237,5.537,4.83c5.988,4.933,12.02,9.874,18.07,14.872
				c25.494,21.062,51.269,43.201,75.043,70.767c28.72,33.201,58.603,71.479,89.652,112.499c2.747,3.58,5.491,7.239,8.322,10.901
				c0,0,97.174-61.514,182.913-110.752c31.221-17.928,60.923-34.23,83.867-45.342c17.128-8.292,33.865-14.723,50.075-20.203
				c82.387-27.864,151.153-31.138,188.409-129.058c35.268-92.719,31.586-186.257-24.77-270.883
				c-65.097-98.024-102.138-127.81-222.815-155.749c-93.129-21.534-170.283-59.387-255.593-99.9
				c-96.961-46.002-191.847-112.396-241.3-210.587c-37.381-74.31-40.31-152.955-33.334-233.347
				c3.82-43.196-0.844-62.584-13.493-68.74c-16.146-7.904-45.189,5.918-86.298,19.657c-22.349,7.479-44.769,15.456-67.236,23.75
				c-49.555,18.29-99.365,38.121-149.291,57.6c-0.098,0.038-0.191,0.074-0.288,0.112
				C1289.846,4638.292,1216.379,4666.307,1143.074,4687.84z"/>
			<path id="_x31_80623340_1_" fill="#6ACBBA" stroke="#000000" d="M1143.076,4687.846l163.43,338.266
				c4.412,7.988,8.992,15.977,13.57,23.966c7.491,12.981,14.901,25.88,22.394,38.527c35.546,60.581,70.679,117.497,106.308,171.667
				c5.325,8.157,10.736,16.228,16.065,24.298c3.745,5.578,7.491,11.153,11.236,16.645c43.979,64.681,98.827,136.342,92.427,128.206
				c25.937-26.803,91.775,3.362,149.115,36.625c146.313,84.867,309.209,283.615,178.068,313.654c0,0-2.468-2.861,0,0
				c28.677,33.235,17.155,21.426,48.204,62.447c2.748,3.579,5.492,7.238,8.323,10.902c0,0,97.174-61.514,182.912-110.754
				c-2.337-35.968-23.283-70.227-21.973-104.894c0.996-26.262,16.202-43.464,7.339-72.067
				c-11.794-38.091-50.659-62.468-82.346-82.443c-90.028-56.748-177.325-113.133-261.809-177.791
				c-78.693-60.239-141.683-134.988-204.651-212.232c-57.89-71.017-105.86-150.202-142.387-234.213
				c-18.509-42.57-34.075-86.438-46.262-131.233c-1.354-4.984-5.53-22.85-9.719-43.685c-5.396-26.84-10.813-58.611-10.259-74.131
				C1289.846,4638.292,1216.379,4666.307,1143.076,4687.846z"/>
			<path id="_x31_80623339_1_" fill="#6ACBBA" stroke="#000000" d="M2113.162,5637.403c-1.313,34.669,19.636,68.925,21.973,104.894
				c31.22-17.928,60.924-34.23,83.868-45.342c17.126-8.292,33.863-14.723,50.073-20.203c12.436-43.143,2.637-94.599-17.195-133.977
				c-36.846-73.146-86.889-138.744-142.331-198.713c-54.014-58.414-100.388-125.082-161.904-176.219
				c-97.938-81.426-223.673-133.26-317.534-220.488c-67.702-62.911-132.377-141.67-123.755-240.077
				c4.597-52.475,7.399-102.754,6.286-155.384c-49.555,18.291-99.365,38.122-149.291,57.6c-0.098,0.039-0.191,0.075-0.288,0.112
				c-0.555,15.522,4.862,47.292,10.259,74.132c4.188,20.835,8.363,38.699,9.719,43.684c12.187,44.796,27.753,88.664,46.262,131.234
				c36.524,84.01,84.497,163.195,142.387,234.213c62.969,77.244,125.958,151.989,204.651,212.232
				c84.483,64.66,171.78,121.041,261.809,177.792c31.687,19.974,70.552,44.352,82.346,82.442
				C2129.358,5593.941,2114.152,5611.142,2113.162,5637.403z"/>
			<path id="_x31_80623338_1_" fill="#6ACBBA" stroke="#000000" d="M2269.07,5676.752c82.386-27.864,151.153-31.138,188.408-129.058
				c35.267-92.717,31.587-186.257-24.769-270.882c-65.099-98.023-102.138-127.811-222.815-155.75
				c-93.131-21.534-170.285-59.386-255.595-99.899c-96.961-46.002-191.847-112.396-241.3-210.587
				c-37.381-74.311-40.309-152.956-33.334-233.348c3.822-43.196-0.842-62.584-13.492-68.739
				c-16.146-7.903-45.188,5.918-86.297,19.656c-22.351,7.479-44.769,15.457-67.237,23.75c1.114,52.628-1.687,102.909-6.287,155.383
				c-8.622,98.408,56.054,177.168,123.757,240.079c93.859,87.231,219.594,139.063,317.533,220.486
				c61.516,51.137,107.89,117.806,161.903,176.221c55.442,59.969,105.485,125.564,142.331,198.712
				C2271.711,5582.154,2281.508,5633.611,2269.07,5676.752z"/>
			<path id="_x31_80623337_1_" fill="#7ED04B" stroke="#000000" d="M4601.494,2758.018c-0.251,0.084-0.501,0.084-0.751,0
				c-11.399-0.332-22.801-0.829-34.204-1.574c-5.243-1.082-9.82-2.745-13.149-5.158c-20.891-15.309-78.827-69.143-47.872-95.863
				c22.467-19.395,50.934,12.723,65.085,27.118c11.569,11.648,24.22,22.548,34.793,35.196c2.498,3.078,25.64,38.111,21.979,38.362
				C4620.967,2756.516,4611.561,2757.433,4601.494,2758.018z"/>
			<path id="_x31_80623336_1_" fill="#8ADA87" stroke="#000000" d="M2007.06,4562.018c-0.418-23.387-87.226-58.738-104.372-69.472
				c-29.712-18.551-54.018-40.516-77.325-66.895c-31.298-35.365-56.106-80.798-68.183-128.648
				c-9.077-35.533-11.082-72.483-3.517-107.522c14.552-67.662-3.61-173.767,67.202-213.975c63.991-36.382,87.051,0.73,98.379,48.249
				c-0.002,0.166-0.001,0.249,0.082,0.332c2.499,14.479,5.083,28.961,7.748,43.357c1.418,9.487,2.668,18.725,4.084,27.13
				c4.082,24.3,7.998,48.6,11.748,72.982c2.417,19.641,5.165,39.78,9.081,59.087c6.001,39.029,11.833,78.06,17.583,117.256
				c9.25,62.58,20.494,119.253,31.909,183.832l5.499,32.703C2007.061,4561.018,2007.063,4561.519,2007.06,4562.018z"/>
			<path id="_x31_80623335_1_" fill="#A0EE9D" stroke="#000000" d="M2043.52,5031.965
				c-157.466-70.122-364.632-197.164-341.202-398.482c7.063-60.919,40.171-129.334,110.078-128.182
				c83.139,1.397,160.63,58.89,202.836,128.62c6.909,11.231,12.821,22.884,17.649,34.616
				c17.569,42.441,31.891,79.386,55.034,120.992c41.458,74.727,94.985,159.77,153.089,231.494
				c10.238,12.564,68.843,88.785,78.25,102.599c-42.279-10.811-84.227-22.454-125.674-35.513
				C2142.646,5072.058,2092.542,5053.759,2043.52,5031.965z"/>
			<path id="_x31_80623322_1_" fill="#98D6F9" stroke="#000000" d="M2187.017,4905.6c-27.76-44.377-94.346-174.743-133.216-288.48
				c-38.854-113.729-58.303-330.093-58.303-330.093c13.569-217.274-65.119-449.153-38.972-668.544
				c21.144-177.489,108.098-446.639,205.183-554.843c60.977-67.971,334.267-286.458,410.709-340.625
				c159.638-113.132,332.724-161.588,524.033-197.719c107.218-20.253,241.776-1.2,349.256,24.958l12.762,3.178
				c-7.398,23.335,79.083,70.258,206.684,107.678c74.83,21.943,161.683,104.22,206.707,159.466
				c30.514,37.449,52.072,60.17,65.2,99.861c21.868,66.142,17.094,147.25,22.232,196.953c9.721,94.315,2.809,180.309-6.892,273.238
				c-8.792,84.382-38.934,165.375-51.268,249.679c-11.76,80.347-26.311,163.675-40.176,237.189
				c-8.427,44.704-8.416,118.647-16.262,228.861c0,0-288.06,100.978-373.412,169.282
				c-124.815,99.888-285.684,263.591-443.764,460.574c-116.641,145.344-292.309,101.82-355.049,122.127
				c-94.318,30.539-327.309,180.379-352.262,213.671C2320.209,5072.013,2214.768,4949.975,2187.017,4905.6z"/>
			<path id="_x31_80623323_1_" fill="#80CDF8" stroke="#000000" d="M2487.33,5334.875c22.208,63.797,17.527,106.317,16.037,147.66
				c-1.535,42.215-68.875,141.485-36.028,141.486c97.087-0.024,142.858,22.854,169.218,36.023
				c34.314,17.148,96.415,78.35,177.57,153.233c81.153,74.886,322.512,145.576,426.544,166.362
				c104.024,20.785,203.219-91.916,203.219-91.916c13.267-29.253,26.392-54.205,33.925-68.328
				c38.056-71.259,92.34,27.44,174.75-93.66c9.197-13.522-11.145-43.886-41.621-52.005c-31.211-8.312,6.233-47.856,37.435-81.146
				c22.868-24.409,82.672-43.684,139.379-74.927c56.708-31.239,102.272-85.885,126.886-129.019
				c52.129-91.328,83.191-178.938,103.301-239.276c38.106-114.388,196.926-149.849,219.093-283
				c25.974-156.132-22.978-340.238-91.638-463.239c-55.496-99.416-166.35-167.872-263.58-230.196
				c2.793,58.254-19.166,138.53-26.316,190.021c-8.373,60.283-9.314,133.874-20.553,199.488
				c-7.554,44.109-25.149,80.566-30.695,125.084c-0.88-28.286-10.002-60.767-9.741-110.956
				c0.288-55.052,14.383-130.017,19.373-245.502c8.314-37.453,17.033-88.6,23.552-145.642c0.91-7.865,1.753-15.827,2.536-23.848
				l2.976-33.018c0,0-275.2,100.978-360.558,169.28c-124.817,99.887-285.678,263.593-443.765,460.571
				c-116.642,145.346-292.309,101.813-355.048,122.134c-94.319,30.53-325.522,184.016-350.481,217.31
				C2333.098,5097.852,2436.753,5189.562,2487.33,5334.875z M4138.827,4418.238c36.948,54.537,42.962,108.646,53.384,172.957
				c5.86,36.123,43.205,251.81-50.987,208.354c-70.158-32.373-52.078-146.811-54.783-208.061
				c-1.399-31.857-37.001-106.594-45.446-167.36C4023.618,4299.224,4097.822,4357.738,4138.827,4418.238z"/>
			<path id="_x31_80623333_1_" fill="#80CDF8" stroke="#000000" d="M3456.915,6231.389c-0.413,14.734,62.486,53.578,95.079,67.146
				c7.546,3.143,13.469,4.928,16.604,4.748c26.157-1.488,58.97-39.943,68.988-72.604c3.121-10.176,4.035-19.791,1.839-27.547
				c-22.301-78.82-79.644,9.672-81.548,8.412c-14.155-9.4-30.424-16.008-43.076-26.301
				C3501.51,6194.1,3457.353,6215.793,3456.915,6231.389z"/>
			<path id="_x31_80623334_1_" fill="#80CDF8" stroke="#000000" d="M4040.993,4424.128c8.445,60.766,44.046,135.505,45.445,167.358
				c2.706,61.252-15.373,175.689,54.783,208.062c94.192,43.456,56.849-172.229,50.988-208.354
				c-10.423-64.312-16.436-118.421-53.385-172.958C4097.822,4357.738,4023.618,4299.224,4040.993,4424.128z"/>
			<path id="_x31_80623332_1_" fill="#80CDF8" stroke="#000000" d="M1964.422,5869.102
				c77.317,102.278,149.933,203.549,242.27,300.074c109.199,114.15,231.774,189.52,341.252,257.918
				c259.7,162.248,458.375,247.697,694.939,228.727c104.028-8.34,178.143-34.852,370.333-137.402
				c72.69-38.781,248.068-155.453,297.825-210.869c16.275-18.037,44.522-46.529,42.268-51.332
				c-9.77-20.746-26.106-52.805-45.228-82.363c-49.22,107.16-142.176,203.035-251.388,240.551
				c-29.021,9.969-59.027,22.027-89.122,28.08c-84.838,17.061-160.081,59.568-243.531,78.994
				c-81.361,18.945-164.408,16.125-246.67,4.965c-75.145-10.191-152.61-19.605-220.897-54.828
				c-67.262-34.67-148.162-81.85-193.996-141.988c-37.133-48.709-89.021-65.025-146.804-81.941
				c-67.633-19.791-141.712-60.188-190.031-111.217c-60.746-64.152-145.899-114.326-187.747-190.3
				c-18.705-33.959-28.598-105.357-54.344-145.657L1964.422,5869.102z"/>
			<path id="_x31_80623331_1_" fill="#80CDF8" stroke="#000000" d="M2083.551,5800.516c25.746,40.3,35.639,111.698,54.344,145.657
				c41.847,75.972,126.999,126.147,187.745,190.3c48.319,51.023,122.397,91.426,190.032,111.215
				c57.785,16.916,109.672,33.232,146.805,81.939c45.834,60.141,126.732,107.316,193.996,141.988
				c68.281,35.227,145.751,44.637,220.896,54.83c82.264,11.16,165.31,13.98,246.67-4.965
				c83.451-19.426,158.693-61.934,243.532-78.994c30.096-6.053,60.103-18.111,89.123-28.082
				c109.211-37.518,202.167-133.391,251.388-240.547c-13.473-20.824-28.322-40.406-43.242-53.914
				c-18.398-16.65-36.98-29.791-55.698-39.635c-57.298,32.813-107.265,65.865-149.771,121.822
				c-8.249,10.855-15.341,20.27-21.786,28.549c-10.018,32.66-42.833,71.115-68.986,72.602c-3.135,0.18-9.058-1.605-16.603-4.748
				c-5.768,2.449-12.022,4.957-18.87,7.584c-36.887,14.162-70.232,33.943-108.424,44.869
				c-35.925,10.27-73.336,11.012-109.609,20.436c-143.282,37.227-310.736,7.744-448.663-36.898
				c-85.254-27.6-114.931-103.197-185.24-149.84c-38.495-25.553-83.288-16.93-124.546-36.408
				c-75.069-35.463-140.229-79.172-199.629-136.965c-21.779-21.207-23.43-47.154-41.166-70.445
				c-26.068-34.23-77.874-35.633-104.912-67.842c-21.71-25.861-39.028-75.776-53.413-114.96l-15.741,8.923L2083.551,5800.516z"/>
			<path id="_x31_80623330_1_" fill="#80CDF8" stroke="#000000" d="M3809.146,6080.303
				c-75.982-39.949-154.242-25.359-232.058,31.012c-82.029,59.418-162.375,147.029-271.876,95.088
				c-34.134-16.188-61.92-30.688-99.854-42.604c-64.61-20.297-187.959-3.264-251.411,23.373
				c-49.838,20.926-65.363,61.928-126.93,33.695c-35.664-16.352-55.679-53.262-75.258-85.119
				c-33.512-54.529-119.62-41.395-170.981-59.893c-34.886-12.561-54.605-56.359-80.767-80.379
				c-33.668-30.914-72.076-62.92-110.388-87.861c-40.025-26.053-82.44-29.642-124.737-48.455
				c-34.09-15.171-26.241-40.95-20.848-70.541c0.882-4.894,17.319-89.415,10.413-85.5l-96.926,54.943
				c14.386,39.179,31.705,89.096,53.415,114.958c27.038,32.208,78.844,33.61,104.912,67.842
				c17.734,23.29,19.387,49.237,41.166,70.446c59.399,57.793,124.56,101.504,199.629,136.965
				c41.256,19.479,86.049,10.854,124.546,36.406c70.31,46.645,99.984,122.24,185.24,149.84
				c137.925,44.643,305.381,74.127,448.663,36.898c36.273-9.424,73.686-10.166,109.609-20.436
				c38.193-10.924,71.535-30.705,108.426-44.867c6.846-2.627,13.101-5.135,18.868-7.584c-32.594-13.568-95.495-52.41-95.08-67.145
				c0.432-15.596,44.59-37.291,57.88-46.145c12.652,10.293,28.921,16.9,43.076,26.301c1.904,1.258,59.247-87.232,81.548-8.414
				c2.196,7.758,1.283,17.373-1.837,27.549c6.445-8.279,13.535-17.691,21.784-28.549
				C3701.878,6146.172,3751.845,6113.119,3809.146,6080.303z"/>
			<path id="_x31_80623328_1_" fill="#90CBED" stroke="#000000" d="M4373.025,3323.147
				c47.366-63.688,118.016-180.267,173.49-198.304c-100.559-22.175-222.445-85.289-222.445-85.289
				c-33.297-11.695-64.44-15.586-114.43,25.077c-63.069,51.315-128.563,151.651-154.584,202.481
				c-26.18,51.137-50.469,103.316-71.021,156.983c-11.293,29.46-27.396,58.766-35.61,89.227
				c-5.779,21.464-20.615,52.181-17.402,74.067c34.271,3.506,64.494-26.782,96.619-34.664c40.502-9.935,82.682-15.53,119.806-35.736
				c48.402-26.339,93.539-58.926,134.662-95.537C4315.5,3391.717,4346.329,3359.052,4373.025,3323.147z"/>
			<path id="_x31_80623327_1_" fill="#90CBED" stroke="#000000" d="M3873.48,4079.998c0.873,28.162,7.707,79.055,7.707,79.055
				c40.569,26.01,203.854,112.312,245.477,185.12c73.655,3.01,220.534-2.118,332.888,8.261
				c41.595-93.631,93.579-235.119,93.579-235.119l101.031-239.283l-2.159-418.938c-38.366-12.285-61.27-37.691-84.813-68.136
				c-30.279-39.131-72.661-68.81-89.22-117.228c-16.388-47.949-6.165-88.534,31.112-122.928c0.115-0.107,0.231-0.207,0.347-0.311
				c-57.155,45.034-97.388,120.192-136.406,172.654c-26.696,35.906-57.523,68.569-90.916,98.308
				c-41.122,36.611-86.26,69.2-134.662,95.537c-37.126,20.206-79.306,25.8-119.807,35.736c-32.123,7.882-62.347,38.17-96.617,34.666
				l-24.34,69.56c-6.057,38.108-12.371,144.534-17.98,180.316C3876.35,3916.104,3871.31,4010.23,3873.48,4079.998z"/>
			<path id="_x31_80623329_1_" fill="#90CBED" stroke="#000000" d="M4652.005,3459.093c-38.366-12.285-61.269-37.691-84.812-68.136
				c-30.28-39.131-72.662-68.81-89.221-117.229c-16.388-47.949-6.164-88.535,31.113-122.93
				c42.924-39.594,93.604-9.015,143.548-11.416L4652.005,3459.093z"/>
			<path id="_x31_80623324_1_" fill="#A2B1D8" stroke="#000000" d="M2373.184,5867.516c76.342,42.06,109.402,84.458,198.267,173.283
				c34.554,34.545,127.595,19.787,169.021,48.777c33.641,23.547,84.741,207.908,131.99,135.646
				c40.928-62.617,108.892-71.545,173.44-82.082c108.135-17.641,164.676-7.574,261.378,38.299
				c38.713,18.363,88.415,18.639,129,2.059c43.032-17.572,76.371-51.408,120.658-83.242
				c54.029-38.844,194.344-127.197,201.786-149.824c29.438-89.537,159.554-172.574,225.838-222.667
				c94.412-71.343,186.348-140.606,272.005-220.59c41.609-38.852,138.498-196.996,135.715-263.571
				c-2.793-66.575-44.244-152.555-74.758-196.935c-32.407-47.115-86.844-101.467-86.844-101.467
				c-51.337,85.885-156.369,118.222-187.771,212.482c-20.103,60.339-59.489,147.943-111.614,239.282
				c-48.669,85.274-97.208,147.639-204.398,167.935c-22.306,4.217-132.434,84.044-78.507,98.423
				c30.484,8.121,30.024,57.209,20.827,70.732c-82.413,121.104-149.786,43.725-174.751,93.657
				c-43.701,87.47-119.932,180.897-230.889,170.651c-112.369-10.383-348.43-87.869-436.96-153.874
				c-87.392-65.175-141.748-125.903-170.634-151.156c-38.834-33.976-164.791-60.533-228.864-36.02
				c-37.589,14.378-134.304,8.63-145.554,59.933C2244.024,5888.348,2333.938,5845.9,2373.184,5867.516z"/>
			<path id="_x31_80623325_1_" fill="#96A7D3" stroke="#000000" d="M4331.392,4917.391
				c44.756,37.031,181.479,142.143,322.746,170.335l-0.694-1162.319c-56.106,129.076-92.974,237.421-141.886,364.601
				c-65.333,169.902-66.526,262.161-99.792,399.48c-3.045,12.557-6.222,99.865-37.414,162.293
				C4363.063,4874.365,4346.668,4897.412,4331.392,4917.391z"/>
			<path id="_x31_80623326_1_" fill="#96A7D3" stroke="#000000" d="M3758.739,6037.801c21.054,4.848,73.479,32.064,114.442,66.553
				c60.038,50.551,93.695,139.381,93.695,139.381c99.822-130.029,110.469-252.139,465.906-416.199
				c41.461-19.143,173.998-109.798,221.732-112.392l-0.304-508.804l-0.073-118.616c-141.269-28.19-277.993-133.306-322.746-170.335
				c-22.782,29.79-43.075,52.752-40.239,57.151c29.124,45.296,122.776,156.02,126.966,264.206
				c1.439,37.445-27.892,105.37-61.242,164.565c-25.956,46.067-54.345,86.85-72.553,103.851
				c-41.608,38.847-233.667,201.635-277.364,235.847c-63.792,49.939-207.226,149.572-223.274,207.403
				C3773.291,5987.863,3731.692,6031.563,3758.739,6037.801z"/>
			<path id="_x31_80623320_1_" fill="#E64438" stroke="#000000" d="M4132.912,4360.817c8.541,11.51,26.362,35.421,33.302,47.848
				c45.957,82.322,75.694,176.73,87.438,287.101c0,0,4.191,166.438,0.031,181.002c-4.159,14.563,0.001,47.85,16.659,62.413
				c16.646,14.563,91.523-87.4,103.998-141.499c12.473-54.096,54.028-320.411,83.144-395.315
				c7.279-18.721,14.274-31.763-0.016-35.365c-47.387-11.956-133.149-12.461-178.922-4.131L4132.912,4360.817z"/>
			<path id="_x31_80623321_1_" fill="#F2483B" stroke="#000000" d="M4132.912,4360.817c8.541,11.51,26.362,35.421,33.302,47.848
				c45.957,82.322,75.694,176.73,87.438,287.101c0,0,4.191,166.438,0.031,181.002c-4.159,14.563,0.001,47.85,16.659,62.413
				c16.646,14.563,91.523-87.4,103.998-141.499c12.473-54.096,54.028-320.411,83.144-395.315
				c7.279-18.721,14.274-31.763-0.016-35.365c-47.387-11.956-133.149-12.461-178.922-4.131L4132.912,4360.817z"/>
			<path id="_x31_80623401_1_" fill="#CCCCCC" stroke="#000000" d="M4600.738,2758.022c0.251,0.082,0.499,0.082,0.75,0
				c17.395,0.662,34.869,0.825,52.431,0.738c0.665,0,1.415,0,2.081,0l-2.673,381.406c-176.851-6.207-312.102-90.82-569.286-234.992
				c-219.895-123.21-352.328-263.414-532.681-324.463c-109.444-37.013-307.935-83.164-454.984-55.339
				c-191.237,36.074-364.33,84.54-524.013,197.669c-76.387,54.192-349.729,272.702-410.718,340.623
				c-97.101,108.206-184.013,377.364-205.201,554.879c-26.089,219.378,29.799,452.722,16.273,670.017
				c-9.738-17.808-16.151-39.196-20.734-61.914c-2.333-15.478-4.665-30.875-7.082-46.354c-0.668-4.244-1.332-8.488-1.999-12.733
				c-2.669-21.553-5.088-42.524-8.502-60.75c-2.498-13.063-4.913-26.213-7.33-39.362c-2.002-14.229-4.418-29.211-7.75-43.357
				c-0.081-0.082-0.082-0.166-0.08-0.332c-7.252-41.193-13.915-82.719-19.417-124.496c-6.5-49.349-11.42-98.949-13.759-148.549
				c-5.014-102.861,0.876-205.809,25.99-306.928c4.656-18.559,9.313-37.949,14.303-57.84
				c19.544-77.982,43.162-162.708,82.762-230.708c13.396-22.972,26.707-44.944,40.102-66.085
				c60.734-95.717,122.719-173.875,195.939-250.037l0.084,0c41.271-42.868,86.201-85.152,136.375-129.519
				c62.654-55.356,130.637-104.221,202.034-148.341c0.084,0,0.084,0,0.084,0c168.839-104.309,356.82-181.825,538.315-255.594
				c15.561-6.328,31.039-12.655,46.435-18.902c109.428-44.461,279.769-119.892,425.488-128.576
				c43.607-2.589,84.971,0.735,121.84,12.709c20.475,6.57,39.615,15.888,56.929,28.202c14.4,10.317,27.552,22.798,39.287,37.61
				c68.177,86.122,120.287,163.174,179.054,232.154c56.022,65.734,118.036,124.147,205.761,176.141
				c20.642,12.313,42.697,24.21,66.417,35.773c23.305,11.314,46.611,21.129,70.081,29.614
				c34.621,12.561,69.411,22.208,104.448,29.358c42.443,8.813,85.305,14.046,128.746,16.7
				C4576.525,2758.522,4589.093,2758.602,4600.738,2758.022z"/>
			<path id="_x31_80623402_1_" fill="#CCCCCC" stroke="#000000" d="M3429.812,4972.63c-8.327-43.685,40.358-153.359,48.71-203.805
				c16.838-101.841,9.168-131.155,107.25-189.446c72.202-42.903,106.938-44.811,137.315-20.832
				c39.535,31.199,39.559,151.871-2.033,239.26c-34.459,72.389-62.015,117.645-135.204,174.794
				C3515.298,5027.686,3434.768,4998.648,3429.812,4972.63z"/>
			<path id="_x31_80623403_1_" fill="#CCCCCC" stroke="#000000" d="M1587.804,5453.754c9.425,11.818,17.723,22.618,25.649,32.956
				c23.417,28.979,47.527,57.607,72.567,86.095c0.331,0.42,0.666,0.752,1.083,1.166c0.43,0.504,0.867,0.999,1.299,1.497
				c17.648,18.152,39.207,38.768,67.191,63.71c1.832,1.634,3.68,3.236,5.537,4.829c5.988,4.933,12.02,9.875,18.07,14.872
				c13.704,10.97,27.535,21.738,40.415,33.924c46.495,43.965,76.073,86.897,76.073,86.897
				c131.141-30.038-31.753-228.788-178.066-313.657c-57.342-33.261-123.181-63.426-149.115-36.623
				C1574.908,5437.557,1581.346,5445.652,1587.804,5453.754z"/>
			<path id="_x31_80623400_1_" fill="#AAAAAA" stroke="#000000" d="M4055.026,3267.167
				c-42.273,82.629-67.605,137.749-95.665,219.167c-19.617,56.957-43.74,114.418-52.684,170.616
				c-6.058,38.11-12.371,144.536-17.981,180.317c-12.352,78.837-17.39,172.965-15.216,242.731
				c1.352,43.454,9.32,63.881,8.344,106.807c-1.402,61.413-17.412,111.988-26.324,176.145
				c-8.372,60.281-9.314,133.874-20.552,199.487c-7.556,44.109-25.149,80.565-30.697,125.084c-0.879-28.285-10-60.768-9.74-110.955
				c0.288-55.052,14.383-130.017,19.372-245.502c8.317-37.454,17.034-88.601,23.552-145.643
				c13.631-119.301,14.501-260.07,23.521-307.924c13.865-73.513,28.417-156.842,40.176-237.188
				c12.336-84.305,42.479-165.296,51.267-249.68c9.701-92.93,16.61-178.923,6.893-273.238
				c-5.14-49.702-0.365-130.811-22.232-196.951c-13.129-39.693-34.688-62.412-65.201-99.863
				c-45.024-55.246-131.877-137.521-206.707-159.466c-127.601-37.418-214.42-83.988-206.683-107.678
				c101.605,25.522,153.055,50.411,199.748,75.78c121.977,66.261,224.467,161.369,375.045,247.704
				c79.12,45.351,260.985,144.004,290.812,162.636c-33.297-11.695-64.44-15.586-114.43,25.077
				C4146.546,3115.964,4081.029,3216.347,4055.026,3267.167z"/>
		</g>
	</g>
</g>
</svg>
