<?xml version="1.0" encoding="utf-8"?>
<!-- Generator: Adobe Illustrator 16.0.0, SVG Export Plug-In . SVG Version: 6.00 Build 0)  -->
<!DOCTYPE svg PUBLIC "-//W3C//DTD SVG 1.1//EN" "http://www.w3.org/Graphics/SVG/1.1/DTD/svg11.dtd">
<svg version="1.1" id="Layer_1" xmlns="http://www.w3.org/2000/svg" xmlns:xlink="http://www.w3.org/1999/xlink" x="0px" y="0px"
	 width="5392px" height="5152px" viewBox="0 0 5392 5152" enable-background="new 0 0 5392 5152" xml:space="preserve">
<g>
	<g transform="scale(1.0)">
		<g id="_x31_80609059" transform=" scale(1.0, 1.0)">
			<path id="_x31_80609061" fill="#BFDAE3" stroke="#000000" d="M4600.908,1699.958c87.081,145.572,97.352,309.874,87.791,493.303
				c-10.429,200.295-42.118,400.604-93.742,596.021c-82.774,313.39-231.544,595.964-430.1,851.572
				c-113.31,145.868-290.075,384.984-455.905,400.579c-145.873,13.722-295.858-51.814-419.085-121.941
				c-294.634-167.674-525.336-420.028-532.386-776.504c-2.847-144.147-58.741-280.233-61.081-425.797
				c-2.389-148.819,6.945-289.38,18.676-437.709c18.172-229.555,25.283-455.016,73.71-680.576
				c28.212-131.451,60.223-281.792,157.008-381.702c120.117-124.013,326.52-118.635,485.128-95.006
				c375.145,55.901,807.924,185.579,1080.731,463.125C4547.854,1622.157,4577.226,1660.363,4600.908,1699.958z"/>
			<path id="_x31_80609062" fill="#B0FFB8" stroke="#000000" d="M4600.888,1699.95c-23.684-39.594-53.056-77.805-89.25-114.631
				c-272.803-277.549-705.573-407.246-1080.711-463.147c-158.606-23.629-365.007-29.004-485.122,95
				c-96.787,99.909-128.796,250.251-157.012,381.693c-48.423,225.562-55.539,451.017-73.714,680.568
				c-11.734,148.331-21.069,288.893-18.682,437.706c2.34,145.561,58.235,281.646,61.076,425.8
				c7.047,356.476,237.738,608.826,532.366,776.504c123.229,70.124,273.202,135.666,419.07,121.949
				c165.835-15.594,342.598-254.705,455.907-400.565c198.56-255.604,347.325-538.171,430.109-851.563
				c51.623-195.417,83.314-395.72,93.744-596.016C4698.233,2009.827,4687.966,1845.519,4600.888,1699.95z M3790.22,2099.882
				c6.287,31.845-45.896,83.975-61.596,111.418c-31.419,54.938-46.956,116.455-54.383,179.188
				c-4.417,37.27-9.904,74.406-14.726,111.626c-4.472,34.469-11.95,68.107-15.778,102.973c-1.034,9.395,0.237,27.056-8.231,33.121
				c-4.622-5.557-4.64-18.54-5.781-25.701c-1.694-10.563-1.675-21.384-3.481-31.907c-17.935-104.108-3.527-211.269-8.474-316.736
				c-1.048-22.244-3.893-43.241-8.043-63.596c-9.585-47.021-26.19-90.558-43.874-137.908c-4.218-11.295-28.804-49.208-16.956-60.625
				c9.62-9.289,18.729,8.826,25.867,14.33c40.328,31.084,84.219,48.968,134.854,53.121
				C3734.599,2071.239,3783.588,2066.296,3790.22,2099.882z"/>
			<path id="_x31_80609063" fill="#9AD2BD" stroke="#000000" d="M4600.888,1699.95c-23.684-39.594-53.056-77.805-89.25-114.631
				c-272.803-277.549-705.573-407.246-1080.711-463.147c-158.606-23.629-365.007-29.004-485.122,95
				c-96.787,99.909-128.796,250.251-157.012,381.693c-48.423,225.562-55.539,451.017-73.714,680.568
				c-11.734,148.331-21.069,288.893-18.682,437.706c2.34,145.561,58.235,281.646,61.076,425.8
				c7.047,356.476,237.738,608.826,532.366,776.504c123.229,70.124,273.202,135.666,419.07,121.949
				c165.835-15.594,342.598-254.705,455.907-400.565c198.56-255.604,347.325-538.171,430.109-851.563
				c51.623-195.417,83.314-395.72,93.744-596.016C4698.233,2009.827,4687.966,1845.519,4600.888,1699.95z M3790.22,2099.882
				c6.287,31.845-45.896,83.975-61.596,111.418c-31.419,54.938-46.956,116.455-54.383,179.188
				c-4.417,37.27-9.904,74.406-14.726,111.626c-4.472,34.469-11.95,68.107-15.778,102.973c-1.034,9.395,0.237,27.056-8.231,33.121
				c-4.622-5.557-4.64-18.54-5.781-25.701c-1.694-10.563-1.675-21.384-3.481-31.907c-17.935-104.108-3.527-211.269-8.474-316.736
				c-1.048-22.244-3.893-43.241-8.043-63.596c-9.585-47.021-26.19-90.558-43.874-137.908c-4.218-11.295-28.804-49.208-16.956-60.625
				c9.62-9.289,18.729,8.826,25.867,14.33c40.328,31.084,84.219,48.968,134.854,53.121
				C3734.599,2071.239,3783.588,2066.296,3790.22,2099.882z"/>
			<path id="_x31_80609064" fill="#9AD2BD" stroke="#000000" d="M4600.893,1699.955c-23.685-39.593-53.058-77.802-89.249-114.63
				c-162.754-165.575-363.86-258.502-499.187-313.572c0,0-114.364-41.256-114.376-41.261c6.52,2.358,9.839,14.807,12.495,20.29
				c30.35,62.674,70.036,118.057,108.308,175.765c13.031,19.646,19.943,47.77,26.514,70.478
				c10.029,34.664,15.491,66.643,20.199,101.862c1.688,12.614,2.157,25.375,1.616,38.081c-1.3,30.517-6.266,60.626-12.353,90.521
				c-4.973,24.473-8.283,64.413-21.694,85.624l-5.958,9.426c-24.275,16.119-39.139,60.393-60.328,82.272
				c-19.729,20.37-45.39,38.035-68.389,54.526c-44.256,31.73-95.258,60.12-150.705,63.753
				c-50.178,3.292-112.271-23.249-149.632-57.931c-65.072-60.402-96.283-159.919-98.271-245.177
				c-1.395-59.662-23.403-90.387-21.601-136.41c1.961-49.868,8.757-101.381,29.25-147.306
				c17.785-39.853,49.895-74.074,87.371-95.843c9.748-5.665,23.032-21.589,23.73-32.699c0.851-13.321-8.948-29.531-11.558-42.573
				c-6.783-33.864-8.93-92.934,30.206-105.301c0,0-140.056-27.792-206.366-37.671c-158.607-23.63-365.011-29.006-485.127,95.002
				c-96.789,99.908-128.799,250.252-157.016,381.695c-48.424,225.563-55.54,451.024-73.716,680.577
				c-11.734,148.327-21.068,288.895-18.683,437.705c2.339,145.561,58.234,281.653,61.076,425.801
				c7.046,356.479,237.739,608.836,532.37,776.507c123.231,70.124,273.205,135.664,419.086,121.949
				c165.828-15.593,342.594-254.706,455.911-400.571c198.564-255.605,347.331-538.174,430.11-851.565
				c51.623-195.417,83.317-395.722,93.754-596.021C4698.236,2009.835,4687.972,1845.526,4600.893,1699.955z M3790.22,2099.882
				c6.287,31.845-45.896,83.975-61.596,111.418c-31.419,54.938-46.956,116.455-54.383,179.188
				c-4.417,37.27-9.904,74.406-14.726,111.626c-4.472,34.469-11.95,68.107-15.778,102.973c-1.034,9.395,0.237,27.056-8.231,33.121
				c-4.622-5.557-4.64-18.54-5.781-25.701c-1.694-10.563-1.675-21.384-3.481-31.907c-17.935-104.108-3.527-211.269-8.474-316.736
				c-1.048-22.244-3.893-43.241-8.043-63.596c-9.585-47.021-26.19-90.558-43.874-137.908c-4.218-11.295-28.804-49.208-16.956-60.625
				c9.62-9.289,18.729,8.826,25.867,14.33c40.328,31.084,84.219,48.968,134.854,53.121
				C3734.599,2071.239,3783.588,2066.296,3790.22,2099.882z"/>
			<path id="_x31_80609065" fill="#82C7AE" stroke="#000000" d="M4600.906,1700.125c-23.684-39.591-53.056-77.796-89.249-114.62
				c-1.622-1.653-3.257-3.293-4.892-4.934c-36.115-36.129-126.062-120.03-165.21-117.416c-1.05,45.814,54.872,68.012,78.644,100.993
				c30.088,41.746,59.273,97.194,78.71,145.501c39.174,97.299,101.025,151.607,61.583,261.729
				c-22.874,63.896-46.69,122.906-54.829,191.04c-8.492,70.996,9.973,139.583-54.822,185.06
				c-69.406,48.719-149.268,89.983-171.898,178.171c-18.695,72.853-9.37,147.701,2.411,220.837
				c28.331,175.963,26.312,380.874-16.901,555.7c-22.189,89.749-88.657,148.247-136.626,222.987
				c-48.655,75.802-131.134,103.865-211.554,132.628c-89.696,32.087-151.25,177.456-256.221,126.664
				c-108.408-52.452-189.871-165.267-261.192-257.261c-85.225-109.928-149.781-234.428-202.518-362.729
				c-46.436-112.959-97.095-226.179-120.005-346.868c-9.276-48.852-20.748-86.854-37.467-132.537
				c-18.696-51.053-2.742-95.726,0.001-148.372c4.756-91.329-19.839-173.537-49.401-258.152
				c-26.456-75.697-27.836-150.114-10.268-226.008c14.982-64.726-11.587-122.016-11.435-185.503
				c0.123-49.89,26.645-93.658,40.803-140.443c25.598-84.594-0.558-190.068,3.334-276.946
				c3.775-84.246,34.311-142.765,107.043-185.565c37.212-21.896,69.981-51.595,107.275-72.624
				c43.084-24.292,88.423-20.638,135.477-29.695c31.653-6.089,51.745-13.515,42.148-27.073c-3.488-4.933-9.226-15.93-23.111-17.456
				c-22.698-2.499-43.24-4.867-62.6-6.716c-112.829-6.367-233.116,5.597-323.893,66.543c-11.306,8.167-22.17,17.225-32.517,27.272
				c-114.936,111.61-101.488,297.093-109.71,444.138c-13.713,245.519-100.919,486.012-91.046,733.317
				c9.885,247.497,67.225,494.269,155.494,724.969c97.1,253.793,229.997,487.546,427.286,677.209
				c121.213,116.538,278.408,263.502,458.726,206.191c39.527-12.566,75.608-32.476,109.009-57.21
				c96.429-86.042,186.059-205.491,253.327-292.077c198.564-255.588,347.334-538.137,430.117-851.504
				c51.634-195.408,83.32-395.694,93.76-595.98C4698.243,2009.979,4687.979,1845.683,4600.906,1700.125z"/>
			<path id="_x31_80609069" fill="#82C7AE" stroke="#000000" d="M3985.192,1411.895c73.86,35.028,140.164,87.235,205.143,150.899
				c75.938,74.409,133.426,165.582,143.534,266.981c4.153,41.698,3.119,86.648-3.622,128.074
				c-20.731,127.551-96.98,224.319-181.683,317.056c-125.96,137.927-182.304,341.814-146.675,525.298
				c25.939,133.564,70.645,280.518,48.373,417.38c-12.981,79.803-74.366,161.826-139.877,199.078
				c-60.82,34.591-122.992,46.326-193.805,38.598c-46.246-5.039-69.094-40.137-101.513-70.636
				c-73.104-68.762-111.323-153.096-156.509-240.672c-44.466-86.182-80.083-176.741-91.696-273.626
				c-8.109-67.62,1.412-139.05,1.504-207.234c0.172-115.094-0.428-223.478-22.231-337.711
				c-17.414-91.246-31.737-184.499-57.88-273.373c-25.404-86.337-64.295-168.403-85.69-255.976
				c-23.167-94.746-13.384-171.022,17.034-262.316c26.27-78.872,50.896-172.938,119.462-226.988
				c71.394-56.295,174.646-45.547,255.538-18.459c9.896,3.313,44.522,19.301,25.319,35.405
				c-13.814,11.594-31.707,20.692-46.876,30.555c-62.323,40.51-83.063,119.117-91.99,188.468
				c-1.647,12.884-2.464,25.87-2.538,38.855c-0.052,8.634,0.05,14.167,1.051,29.198c-9.412,19.188-14.857,64.074-15.19,78.726
				c-0.767,33.048,3.005,66.234,7.569,98.907c2.448,17.498,5.135,34.954,7.696,52.434c0,0,15.624,95.172,77.011,157.014
				c-30.356,2.024,4.972,53.054,9.195,64.342c17.678,47.358,34.29,90.896,43.87,137.923c4.157,20.347,6.996,41.356,8.043,63.599
				c4.947,105.473-9.45,212.632,8.478,316.753c1.543,8.936,2.428,46.749,10.765,51.514l-2.493,106.526
				c0.823,48.016,4.429,114.526,33.11,155.482c17.714,25.29,57.537,33.233,70.438-5.846c19.276-58.348-17.733-131.56-21.886-190.747
				c-11.268-160.462,8.776-309.556,69.413-459.133c15.782-38.935,28.713-90.109,48.721-126.109
				c22.217-39.987,69.445-55.078,101.514-84.739c54.104-50.07,120.386-136.695,117.689-212.205
				c-6.995-6.115-26.296,7.322-26.296,7.322c18.88-21.576,22.69-70.574,27.66-95.051c6.078-29.891,11.045-60.001,12.338-90.513
				c2.222-51.909-12.969-90.035-34.997-135.884c-12.57-26.165-26.024-51.743-40.091-76.928L3985.192,1411.895z"/>
			<path id="_x31_80609068" fill="#9AD2BD" stroke="#000000" d="M3219.281,1445.621c-26.007,96.081-63.848,198.294-51.694,298.951
				c3.577,29.67,8.15,59.19,13.6,88.54c12.494,67.306,29.612,133.739,49.974,199.128c28.904,92.813,44.505,190.276,63.592,285.625
				c23.892,119.36,24.002,232.722,23.215,353.093c-0.466,71.313-11.527,146.07-2.776,216.754
				c19.42,156.679,95.905,279.752,175.861,411.975c40.943,67.711,81.098,159.379,153.663,198.471
				c92.825,50.003,194.285,2.839,278.171-41.854c73.777-39.305,143.144-125.406,158.152-208.947
				c25.723-143.264-23.726-296.728-52.175-436.283c-24.852-121.943,2.325-245.505,52.912-356.507
				c24.887-54.611,53.986-101.375,88.586-150.03c53.551-75.319,128.925-133.765,164.957-219.911
				c37.833-90.479,65.081-194.23,32.669-290.591c-23.351-69.403-52.278-130.34-98.411-188.135
				c-13.902-17.417-44.748-35.101-53.336-55.184c-2.184-5.105-3.402-9.061-3.803-12.025l-93.321-40.112
				c24.107,19.733,47.75,41.225,71.221,64.22c75.938,74.406,133.424,165.58,143.533,266.979
				c4.154,41.698,3.121,86.649-3.622,128.075c-20.73,127.55-96.979,224.318-181.684,317.055
				c-125.959,137.928-182.304,341.814-146.673,525.298c25.939,133.565,70.643,280.518,48.373,417.379
				c-12.982,79.804-74.367,161.827-139.878,199.079c-60.82,34.591-122.993,46.326-193.806,38.598
				c-46.245-5.04-69.093-40.137-101.512-70.635c-73.104-68.763-111.324-153.097-156.508-240.674
				c-44.468-86.181-80.083-176.74-91.697-273.625c-8.109-67.62,1.412-139.051,1.504-207.234
				c0.172-115.094-0.429-223.478-22.23-337.71c-17.414-91.247-31.737-184.5-57.881-273.374
				c-25.403-86.337-64.297-168.403-85.691-255.976c-23.165-94.746-13.384-171.022,17.035-262.316
				c26.27-78.872,50.896-172.938,119.462-226.988c42.255-33.317,95.671-43.149,149.006-40.01l-65.806-32.271
				c-26.62,19.103-61.842,22.749-90.343,37.531C3257.831,1310.402,3239.274,1371.755,3219.281,1445.621z"/>
			<path id="_x31_80609067" fill="#82C7AE" stroke="#000000" d="M3181.171,1832.911c-5.449-29.352-10.025-58.869-13.602-88.54
				c-12.161-100.661,25.688-202.881,51.691-298.971c19.984-73.868,38.55-135.226,112.629-173.651
				c30.303-15.719,68.195-18.841,95.275-41.326c-27.891-35.292-97.063,2.352-125.749,16.401
				c-60.99,29.889-77.367,88.253-99.177,147.639c-22.218,60.503-50.278,121.321-64.844,184.243
				c-16.316,70.419,0.956,139.69,10.146,209.741c28.205,214.697,84.265,420.625,126.409,632.761
				c23.581,118.692,7.819,240.195,1.486,359.741c-3.264,61.688-7.708,127.796,3.414,188.924
				c10.9,59.883,46.09,117.527,72.749,172.058c53.266,108.95,118.262,211.743,187.595,311.099
				c30.408,43.572,79.429,101.839,130.893,116.697c95.284,27.52,210.429-44.036,285.899-95.897
				c82.601-56.75,152.176-143.296,167.614-244.247c14.072-92.024-16.991-184.741-19.278-276.655
				c-2.819-113.196-47.861-228.264-20.021-341.037c26.09-105.692,61.77-189.007,131.863-274.152
				c90.913-110.435,193.485-255.975,205.972-403.417c5.241-61.748-6.233-125.801-28.879-185.786
				c-19.503-51.632-47.289-100.242-79.842-141.775c-9.71-12.368-123.589-117.972-97.196-56.256
				c8.588,20.088,39.441,37.769,53.336,55.192c46.134,57.793,75.064,118.734,98.414,188.146
				c32.412,96.363,5.176,200.122-32.656,290.608c-36.031,86.148-111.406,144.591-164.963,219.921
				c-34.584,48.652-63.689,95.421-88.576,150.034c-50.578,111.01-77.76,234.575-52.907,356.527
				c28.45,139.563,77.907,293.036,52.179,436.308c-15.008,83.543-84.37,169.653-158.141,208.958
				c-83.885,44.692-185.354,91.86-278.172,41.851c-72.571-39.09-112.729-130.768-153.674-198.478
				c-79.957-132.231-156.445-255.313-175.858-412.001c-8.76-70.688,2.302-145.446,2.773-216.767
				c0.778-120.375,0.665-233.747-23.226-353.105c-19.099-95.356-34.692-192.831-63.598-285.647
				C3210.784,1966.66,3193.677,1900.223,3181.171,1832.911z"/>
			<path id="_x31_80609066" fill="#9AD2BD" stroke="#000000" d="M3318.135,1110.513c19.36,1.848,39.901,4.218,62.599,6.716
				c13.888,1.526,19.623,12.523,23.112,17.457c9.597,13.559-10.495,20.984-42.148,27.072c-47.054,9.059-92.392,5.405-135.477,29.694
				c-37.294,21.03-70.063,50.729-107.276,72.625c-72.73,42.802-103.268,101.319-107.041,185.566
				c-3.894,86.876,22.263,192.351-3.335,276.944c-14.157,46.786-40.679,90.554-40.805,140.443
				c-0.15,63.488,26.42,120.777,11.437,185.504c-17.567,75.894-16.189,150.312,10.268,226.009
				c29.562,84.614,54.157,166.822,49.4,258.152c-2.741,52.646-18.697,97.317,0.002,148.372
				c16.719,45.682,28.188,83.685,37.464,132.535c22.911,120.69,73.57,233.909,120.006,346.869
				c52.736,128.302,117.293,252.8,202.518,362.729c71.322,91.995,152.784,204.808,261.192,257.262
				c104.97,50.791,166.524-94.578,256.222-126.665c80.418-28.764,162.897-56.826,211.553-132.627
				c47.968-74.74,114.437-133.239,136.624-222.989c43.216-174.824,45.235-379.735,16.902-555.698
				c-11.778-73.136-21.104-147.983-2.409-220.838c22.63-88.188,102.489-129.452,171.896-178.171
				c64.795-45.477,46.331-114.064,54.822-185.061c8.14-68.132,31.955-127.145,54.831-191.038
				c39.439-110.123-22.409-164.43-61.583-261.729c-19.439-48.308-48.623-103.755-78.711-145.503
				c-23.771-32.981-79.694-55.178-78.643-100.992c18.083-1.208,46.997,16.039,76.438,38.511c0.929,0.71,1.858,1.423,2.787,2.142
				c28.914,22.361,19.309,14.374-12.041-10.467c-11.805-9.353-23.808-18.502-35.996-27.45
				c-121.235-88.708-247.254-147.395-343.984-187.443c-7.614-3.072-15.256-6.097-22.916-9.077
				c-19.872-7.169-79.064-28.522-100.177-36.14c-2.077-0.693-4.156-1.38-6.234-2.066c5.636,3.452,8.679,14.528,11.144,19.618
				c30.35,62.676,70.037,118.058,108.307,175.765c0.923,1.392,1.807,2.833,2.669,4.303c33.753,19.165,66.059,41.938,97.563,67.728
				l93.318,40.113c-4.452-32.85,92.091,56.927,100.991,68.271c32.56,41.53,60.345,90.138,79.847,141.767
				c22.646,59.984,34.111,124.033,28.878,185.778c-12.489,147.432-115.069,292.97-205.985,403.404
				c-70.097,85.136-105.775,168.448-131.86,274.129c-27.848,112.771,17.184,227.828,20,341.018
				c2.288,91.914,33.348,184.621,19.275,276.645c-15.438,100.947-85.015,187.487-167.61,244.23
				c-75.47,51.858-190.628,123.418-285.905,95.896c-51.466-14.859-100.485-73.118-130.894-116.691
				c-69.331-99.35-134.316-202.135-187.582-311.083c-26.657-54.526-61.847-112.167-72.745-172.042
				c-11.122-61.13-6.676-127.232-3.412-188.915c6.334-119.543,22.106-241.037-1.473-359.727
				c-42.143-212.125-98.197-418.035-126.4-632.721c-9.19-70.05-26.454-139.317-10.143-209.729
				c14.567-62.92,42.629-123.734,64.846-184.232c21.81-59.383,38.188-117.743,99.179-147.634
				c28.686-14.053,97.859-51.691,125.749-16.401c-1.605,1.332-3.25,2.591-4.926,3.794l65.807,32.271
				c36.778,2.165,73.518,10.496,106.531,21.55c4.977,1.667,16.202,6.539,23.696,13.018c-1.722-11.877-9.018-25.13-11.22-36.134
				c-6.76-33.744-8.908-92.508,29.792-105.162c-3.881-0.846-7.761-1.685-11.639-2.514c-29.029-5.69-104.644-20.359-160.965-29.924
				c-11.146-1.776-22.25-3.489-33.305-5.136C3395.266,1117.099,3357.145,1112.714,3318.135,1110.513z"/>
			<path id="_x31_80609070" fill="#9DF0D2" stroke="#000000" d="M4027.209,1822.537c-24.277,16.119-39.141,60.393-60.329,82.271
				c-19.729,20.371-45.39,38.036-68.389,54.528c-44.254,31.729-95.257,60.119-150.705,63.751
				c-50.177,3.292-112.271-23.247-149.632-57.93c-65.071-60.402-96.283-159.919-98.272-245.177
				c-1.393-59.662-23.402-90.388-21.6-136.411c3.121-79.634,22.885-182.626,94.746-229.339
				c16.908-10.986,34.011-22.794,53.261-34.93c19.95-12.573,3.489-28.402,0.556-44.871c-6.531-36.565-13.953-71.821,14.553-101.243
				c16.091-16.607,61.914,3.127,88.365,8.456c41.075,8.268,82.072,24.785,119.428,33.326c33.317,7.62,42.287,44.326,58.91,70.455
				c44.537,70.014,87.959,140.421,124.105,215.656c22.037,45.848,37.219,83.977,35.007,135.885
				c-1.3,30.516-6.267,60.626-12.353,90.521c-4.973,24.474-8.282,64.413-21.695,85.624L4027.209,1822.537z"/>
			<path id="_x31_80609073" fill="#9DF0D2" stroke="#000000" d="M3687.818,1307.618c-26.758-3.574-80.914-8.225-85.25-43.696
				c-1.401-11.503,1.551-26.653,10.673-34.515c22.072-19.025,50.318-9.155,76.091-10.606c24.811-1.396,44.968,0.435,69.581,6.625
				c29.783,7.494,59.029,17.863,87.294,29.853c28.374,12.042,60.017,17.533,72.768,48.796c1.632,3.989,8.272,16.892,5.94,21.192
				c-5.505,10.131-34.852-5.694-41.281-8.541c-17.883-7.908-33.727-8.871-53.472-9.927
				C3782.932,1304.285,3734.802,1313.893,3687.818,1307.618z"/>
			<path id="_x31_80609071" fill="#95E4C8" stroke="#000000" d="M4029.326,1819.788c-29.37,22.349-39.642,61.452-62.438,84.996
				c-19.728,20.372-45.39,38.039-68.387,54.529c-44.256,31.73-95.249,60.118-150.705,63.746
				c-68.221,4.469-137.71-36.491-178.76-88.738c-28.128-35.793-48.751-81.408-56.521-126.197
				c-4.049-23.379-17.222-68.615,4.309-87.051c24.951-21.364,61.713,3.046,83.654,15.967
				c96.098,56.64,212.184,23.343,309.587-12.866c28.46-10.585,51.105-33.397,79.973-42.769c15.714-5.101,63.82-9.412,72.486,3.105
				C4058.889,1706.566,4050.323,1778.646,4029.326,1819.788z"/>
			<path id="_x31_80609072" fill="#9DF0D2" stroke="#000000" d="M3478.298,1583.553c2.565-65.327,13.488-134.869,53.402-188.38
				c21.888-29.341,60.635-70.079,101.665-67.28c12.557,35.48-64.656,44.119-55.12,87.66c8.861,40.451,60.809,62.879,96.738,70.697
				c44.918,9.776,98.739,4.086,144.39,0.281c40.488-3.37,63.504-17.225,92.999-43.592c17.861-15.964,44.262-41.872,70.096-28.03
				c24.146,12.942,38.596,62.944,49.748,86.155c22.029,45.849,37.218,83.974,34.998,135.884l0.057-18.335
				c-37.383-22.1-66.293-24.886-115.382-14.599c-48.852,10.235-95.718,28.576-144.116,40.468
				c-16.866,4.142-33.912,7.501-51.304,9.457c-65.4,7.368-133.251,0.153-193.784-26.543c-33.91-14.955-62.034-43.552-80.94-20.207
				L3478.298,1583.553z"/>
			<path id="_x31_80609075" fill="#CCCCCC" stroke="#000000" d="M3343.748,3783.962
				c-197.288-189.662-330.186-423.415-427.286-677.209c-88.27-230.7-145.609-477.474-155.494-724.971
				c-9.874-247.305,77.334-487.798,91.045-733.315c8.222-147.045-5.224-332.527,109.713-444.14
				c10.345-10.046,21.209-19.104,32.515-27.27c-17.29,11.608-33.512,24.986-48.401,40.359
				c-96.788,99.902-128.801,250.233-157.019,381.671c-48.427,225.542-55.546,450.986-73.724,680.521
				c-11.736,148.325-21.075,288.871-18.683,437.669c2.329,145.556,58.223,281.629,61.066,425.768
				c7.033,356.449,237.729,608.781,532.35,776.437c123.229,70.117,273.201,135.656,419.077,121.934
				c67.381-6.337,136.57-49.578,202.574-108.471c-33.4,24.733-69.48,44.643-109.009,57.209
				C3622.157,4047.464,3464.962,3900.499,3343.748,3783.962z"/>
			<path id="_x31_80609076" fill="#CCCCCC" stroke="#000000" d="M3807.779,1644.687c-16.856,4.14-33.912,7.501-51.295,9.456
				c-65.401,7.368-133.249,0.158-193.782-26.54c-33.911-14.954-72.729-58.142-89.42-1.645
				c-18.906,63.96-3.218,149.645,6.377,215.054c17.1,116.752,107.9,218.158,229.96,228.177c24.981,2.052,73.97-2.892,80.602,30.695
				c6.287,31.844-45.896,83.975-61.595,111.417c-31.409,54.916-46.939,116.396-54.372,179.1
				c-13.68,115.459-41.774,231.408-39.75,348.232c0.823,48.014,4.428,114.521,33.109,155.474
				c17.713,25.287,57.536,33.232,70.438-5.847c19.278-58.344-17.732-131.557-21.885-190.739
				c-11.265-160.453,8.782-309.53,69.428-459.106c15.783-38.935,28.707-90.099,48.722-126.104
				c22.218-39.985,69.439-55.069,101.51-84.729c54.112-50.069,118.442-136.572,117.7-212.192
				c-10.108-2.916-17.126,1.227-26.296,7.318c-24.277,16.118-39.139,60.388-60.328,82.268
				c-19.728,20.368-45.391,38.031-68.388,54.521c-44.255,31.733-95.256,60.121-150.706,63.749
				c-68.218,4.47-137.709-36.491-178.758-88.735c-28.133-35.783-48.748-81.397-56.518-126.192
				c-4.051-23.374-17.229-68.606,4.301-87.042c24.96-21.365,61.721,3.039,83.662,15.964c96.099,56.639,212.185,23.343,309.585-12.87
				c32.122-11.942,61.596-41.251,95.339-47.064c58.914-10.154,132.939,33.606,160.535,83.923
				c35.063,63.941,11.193,160.431-13.705,224.021c-91.839,234.543-253.053,414.342-263.224,678.511
				c-3.384,87.745-3.518,191.058,17.327,276.789c15.41,63.381,48.438,131.518,22.685,195.951
				c-5.884,14.699-34.366,51.403-7.012,62.105c19.532,7.632,40.302-25.264,47.863-38.8c35.831-64.109-2.522-165.352-9.77-233.93
				c-10.083-95.327-22.877-190.706-21.644-286.765c1.253-97.187,17.4-194.249,66.13-279.387
				c103.696-181.184,311.618-423,171.003-638.853c-50.2-77.074-125.533-137.224-223.704-116.654
				C3903.052,1614.452,3856.179,1632.801,3807.779,1644.687z"/>
			<path id="_x31_80609074" fill="#AAAAAA" stroke="#000000" d="M3609.728,2200.27c-9.588-47.022-26.192-90.559-43.876-137.909
				c-4.216-11.294-28.803-49.208-16.955-60.624c9.62-9.29,18.729,8.825,25.868,14.331c40.327,31.083,84.218,48.968,134.854,53.12
				c24.98,2.052,73.97-2.891,80.602,30.694c6.287,31.845-45.896,83.975-61.596,111.418
				c-31.419,54.938-46.956,116.455-54.383,179.188c-4.418,37.271-9.904,74.407-14.726,111.626
				c-4.472,34.469-11.95,68.107-15.778,102.973c-1.034,9.395,0.237,27.056-8.231,33.121c-4.622-5.556-4.64-18.539-5.781-25.701
				c-1.694-10.563-1.673-21.383-3.481-31.907c-17.934-104.107-3.527-211.269-8.474-316.736
				C3616.722,2241.62,3613.876,2220.622,3609.728,2200.27z"/>
		</g>
	</g>
	<g transform="scale(1.0)">
		<g id="_x31_80609059_1_" transform=" scale(1.0, 1.0)">
			<path id="_x31_80609061_1_" fill="#BFDAE3" stroke="#000000" d="M880.346,1585.323
				c272.809-277.546,705.587-407.224,1080.732-463.125c158.608-23.629,365.011-29.007,485.128,95.006
				c96.785,99.91,128.796,250.251,157.008,381.702c48.427,225.561,55.538,451.021,73.71,680.576
				c11.731,148.329,21.066,288.89,18.676,437.709c-2.339,145.563-58.234,281.649-61.081,425.797
				c-7.05,356.476-237.752,608.83-532.386,776.504c-123.227,70.127-273.212,135.663-419.085,121.941
				c-165.83-15.595-342.596-254.711-455.906-400.579c-198.555-255.608-347.324-538.183-430.1-851.572
				c-51.623-195.417-83.313-395.727-93.742-596.021c-9.561-183.429,0.711-347.731,87.791-493.303
				C814.775,1660.363,844.146,1622.157,880.346,1585.323z"/>
			<path id="_x31_80609062_1_" fill="#B0FFB8" stroke="#000000" d="M703.33,2193.249c10.43,200.296,42.121,400.599,93.744,596.016
				c82.783,313.392,231.549,595.958,430.109,851.563c113.309,145.86,290.072,384.972,455.907,400.565
				c145.868,13.717,295.841-51.825,419.07-121.949c294.628-167.678,525.319-420.028,532.366-776.504
				c2.841-144.153,58.737-280.239,61.076-425.8c2.387-148.813-6.947-289.375-18.682-437.706
				c-18.174-229.551-25.291-455.007-73.714-680.568c-28.216-131.442-60.225-281.784-157.012-381.693
				c-120.115-124.004-326.516-118.629-485.122-95c-375.138,55.901-807.908,185.599-1080.71,463.147
				c-36.195,36.826-65.566,75.037-89.25,114.631C704.035,1845.519,693.768,2009.827,703.33,2193.249z M1682.382,2069.186
				c50.636-4.153,94.526-22.037,134.854-53.121c7.139-5.504,16.247-23.619,25.867-14.33c11.848,11.417-12.738,49.33-16.956,60.625
				c-17.684,47.35-34.289,90.886-43.874,137.908c-4.15,20.354-6.995,41.352-8.043,63.596
				c-4.946,105.468,9.461,212.628-8.474,316.736c-1.807,10.523-1.787,21.345-3.481,31.907c-1.142,7.161-1.159,20.145-5.781,25.701
				c-8.469-6.065-7.197-23.727-8.231-33.121c-3.828-34.865-11.307-68.504-15.778-102.973c-4.821-37.22-10.309-74.356-14.726-111.626
				c-7.427-62.732-22.964-124.249-54.383-179.188c-15.7-27.443-67.883-79.573-61.596-111.418
				C1608.413,2066.296,1657.402,2071.239,1682.382,2069.186z"/>
			<path id="_x31_80609063_1_" fill="#9AD2BD" stroke="#000000" d="M703.33,2193.249c10.43,200.296,42.121,400.599,93.744,596.016
				c82.783,313.392,231.549,595.958,430.109,851.563c113.309,145.86,290.072,384.972,455.907,400.565
				c145.868,13.717,295.841-51.825,419.07-121.949c294.628-167.678,525.319-420.028,532.366-776.504
				c2.841-144.153,58.737-280.239,61.076-425.8c2.387-148.813-6.947-289.375-18.682-437.706
				c-18.174-229.551-25.291-455.007-73.714-680.568c-28.216-131.442-60.225-281.784-157.012-381.693
				c-120.115-124.004-326.516-118.629-485.122-95c-375.138,55.901-807.908,185.599-1080.71,463.147
				c-36.195,36.826-65.566,75.037-89.25,114.631C704.035,1845.519,693.768,2009.827,703.33,2193.249z M1682.382,2069.186
				c50.636-4.153,94.526-22.037,134.854-53.121c7.139-5.504,16.247-23.619,25.867-14.33c11.848,11.417-12.738,49.33-16.956,60.625
				c-17.684,47.35-34.289,90.886-43.874,137.908c-4.15,20.354-6.995,41.352-8.043,63.596
				c-4.946,105.468,9.461,212.628-8.474,316.736c-1.807,10.523-1.787,21.345-3.481,31.907c-1.142,7.161-1.159,20.145-5.781,25.701
				c-8.469-6.065-7.197-23.727-8.231-33.121c-3.828-34.865-11.307-68.504-15.778-102.973c-4.821-37.22-10.309-74.356-14.726-111.626
				c-7.427-62.732-22.964-124.249-54.383-179.188c-15.7-27.443-67.883-79.573-61.596-111.418
				C1608.413,2066.296,1657.402,2071.239,1682.382,2069.186z"/>
			<path id="_x31_80609064_1_" fill="#9AD2BD" stroke="#000000" d="M703.318,2193.259c10.436,200.299,42.131,400.604,93.754,596.021
				c82.779,313.392,231.545,595.96,430.109,851.565c113.318,145.865,290.083,384.979,455.912,400.571
				c145.881,13.715,295.854-51.825,419.086-121.949c294.631-167.671,525.324-420.028,532.37-776.507
				c2.842-144.147,58.738-280.24,61.076-425.801c2.386-148.811-6.948-289.378-18.683-437.705
				c-18.175-229.553-25.292-455.014-73.716-680.577c-28.217-131.443-60.227-281.787-157.016-381.695
				c-120.116-124.008-326.52-118.632-485.127-95.002c-66.311,9.879-206.366,37.671-206.366,37.671
				c39.136,12.367,36.989,71.437,30.206,105.301c-2.609,13.042-12.408,29.252-11.558,42.573c0.698,11.11,13.982,27.034,23.73,32.699
				c37.477,21.769,69.586,55.99,87.371,95.843c20.493,45.925,27.289,97.438,29.25,147.306c1.803,46.023-20.206,76.748-21.601,136.41
				c-1.988,85.258-33.199,184.774-98.271,245.177c-37.36,34.682-99.454,61.223-149.632,57.931
				c-55.447-3.633-106.449-32.022-150.705-63.753c-22.999-16.491-48.66-34.156-68.389-54.526
				c-21.189-21.879-36.053-66.153-60.328-82.272l-5.958-9.426c-13.411-21.211-16.722-61.151-21.694-85.624
				c-6.087-29.896-11.053-60.005-12.353-90.521c-0.541-12.706-0.072-25.467,1.616-38.081c4.708-35.22,10.17-67.198,20.199-101.862
				c6.57-22.708,13.482-50.831,26.514-70.478c38.271-57.708,77.958-113.091,108.308-175.765c2.656-5.483,5.976-17.932,12.495-20.29
				c-0.012,0.005-114.376,41.261-114.376,41.261c-135.327,55.07-336.432,147.997-499.186,313.572
				c-36.191,36.828-65.564,75.037-89.25,114.63C704.029,1845.526,693.764,2009.835,703.318,2193.259z M1682.382,2069.186
				c50.636-4.153,94.526-22.037,134.854-53.121c7.139-5.504,16.247-23.619,25.867-14.33c11.848,11.417-12.738,49.33-16.956,60.625
				c-17.684,47.35-34.289,90.886-43.874,137.908c-4.15,20.354-6.995,41.352-8.043,63.596
				c-4.946,105.468,9.461,212.628-8.474,316.736c-1.807,10.523-1.787,21.345-3.481,31.907c-1.142,7.161-1.159,20.145-5.781,25.701
				c-8.469-6.065-7.197-23.727-8.231-33.121c-3.828-34.865-11.307-68.504-15.778-102.973c-4.821-37.22-10.309-74.356-14.726-111.626
				c-7.427-62.732-22.964-124.249-54.383-179.188c-15.7-27.443-67.883-79.573-61.596-111.418
				C1608.413,2066.296,1657.402,2071.239,1682.382,2069.186z"/>
			<path id="_x31_80609065_1_" fill="#82C7AE" stroke="#000000" d="M703.311,2193.384c10.439,200.286,42.125,400.572,93.76,595.98
				c82.783,313.367,231.553,595.916,430.117,851.504c67.268,86.586,156.898,206.035,253.327,292.077
				c33.4,24.734,69.481,44.644,109.009,57.21c180.317,57.311,337.513-89.653,458.726-206.191
				c197.289-189.663,330.187-423.416,427.286-677.209c88.27-230.7,145.609-477.472,155.494-724.969
				c9.873-247.305-77.333-487.798-91.046-733.317c-8.222-147.045,5.226-332.527-109.71-444.138
				c-10.347-10.048-21.211-19.105-32.517-27.272c-90.776-60.946-211.063-72.91-323.893-66.543
				c-19.359,1.849-39.901,4.217-62.6,6.716c-13.886,1.526-19.623,12.523-23.111,17.456c-9.597,13.559,10.495,20.984,42.148,27.073
				c47.054,9.058,92.393,5.403,135.477,29.695c37.294,21.029,70.063,50.729,107.275,72.624
				c72.732,42.801,103.268,101.319,107.043,185.565c3.892,86.878-22.264,192.353,3.334,276.946
				c14.158,46.785,40.68,90.553,40.803,140.443c0.152,63.487-26.417,120.777-11.435,185.503
				c17.568,75.894,16.188,150.311-10.268,226.008c-29.563,84.615-54.157,166.823-49.401,258.152
				c2.743,52.646,18.697,97.319,0.001,148.372c-16.719,45.684-28.19,83.686-37.467,132.537
				c-22.91,120.689-73.569,233.909-120.005,346.868c-52.736,128.301-117.293,252.801-202.518,362.729
				c-71.321,91.994-152.784,204.809-261.192,257.261c-104.971,50.792-166.524-94.577-256.221-126.664
				c-80.42-28.763-162.898-56.826-211.554-132.628c-47.969-74.74-114.436-133.238-136.625-222.987
				c-43.213-174.826-45.232-379.737-16.902-555.7c11.781-73.136,21.107-147.984,2.412-220.837
				c-22.631-88.188-102.492-129.452-171.898-178.171c-64.795-45.477-46.33-114.064-54.822-185.06
				c-8.139-68.133-31.955-127.143-54.83-191.04c-39.441-110.122,22.41-164.43,61.584-261.729
				c19.436-48.307,48.621-103.755,78.709-145.501c23.771-32.981,79.693-55.179,78.645-100.993
				c-39.148-2.614-129.096,81.287-165.211,117.416c-1.635,1.641-3.27,3.28-4.891,4.934c-36.193,36.824-65.566,75.029-89.25,114.62
				C704.021,1845.683,693.758,2009.979,703.311,2193.384z"/>
			<path id="_x31_80609069_1_" fill="#82C7AE" stroke="#000000" d="M1399.878,1424.138c-14.066,25.185-27.521,50.763-40.091,76.928
				c-22.028,45.849-37.219,83.975-34.997,135.884c1.293,30.512,6.26,60.622,12.338,90.513c4.97,24.477,8.78,73.475,27.66,95.051
				c0,0-19.301-13.438-26.296-7.322c-2.696,75.51,63.586,162.135,117.689,212.205c32.068,29.661,79.297,44.752,101.514,84.739
				c20.008,36,32.938,87.175,48.721,126.109c60.637,149.577,80.681,298.671,69.413,459.133
				c-4.152,59.188-41.162,132.399-21.886,190.747c12.9,39.079,52.724,31.136,70.438,5.846
				c28.682-40.956,32.287-107.467,33.11-155.482l-2.493-106.526c8.337-4.765,9.222-42.578,10.765-51.514
				c17.928-104.121,3.53-211.28,8.478-316.753c1.047-22.242,3.886-43.252,8.043-63.599c9.58-47.027,26.192-90.565,43.87-137.923
				c4.224-11.288,39.552-62.318,9.195-64.342c61.387-61.841,77.011-157.014,77.011-157.014c2.562-17.48,5.248-34.936,7.696-52.434
				c4.564-32.673,8.336-65.859,7.569-98.907c-0.333-14.651-5.778-59.537-15.19-78.726c1.001-15.031,1.103-20.564,1.051-29.198
				c-0.074-12.985-0.891-25.972-2.538-38.855c-8.928-69.351-29.667-147.958-91.99-188.468
				c-15.169-9.862-33.062-18.961-46.876-30.555c-19.203-16.104,15.423-32.092,25.319-35.405
				c80.892-27.088,184.145-37.836,255.538,18.459c68.566,54.051,93.192,148.116,119.462,226.988
				c30.418,91.294,40.201,167.57,17.034,262.316c-21.396,87.573-60.286,169.639-85.69,255.976
				c-26.143,88.874-40.466,182.126-57.88,273.373c-21.804,114.233-22.403,222.617-22.231,337.711
				c0.092,68.185,9.613,139.614,1.504,207.234c-11.613,96.885-47.23,187.444-91.696,273.626
				c-45.186,87.576-83.405,171.91-156.509,240.672c-32.419,30.499-55.267,65.597-101.513,70.636
				c-70.813,7.729-132.984-4.007-193.805-38.598c-65.511-37.252-126.896-119.275-139.877-199.078
				c-22.271-136.862,22.434-283.815,48.373-417.38c35.629-183.483-20.715-387.371-146.675-525.298
				c-84.701-92.736-160.951-189.505-181.682-317.056c-6.742-41.426-7.775-86.376-3.623-128.074
				c10.109-101.399,67.596-192.572,143.535-266.981c64.978-63.664,131.282-115.871,205.142-150.899L1399.878,1424.138z"/>
			<path id="_x31_80609068_1_" fill="#9AD2BD" stroke="#000000" d="M2060.081,1271.979c-28.501-14.782-63.723-18.429-90.343-37.531
				l-65.806,32.271c53.335-3.14,106.751,6.692,149.006,40.01c68.566,54.051,93.192,148.116,119.462,226.988
				c30.419,91.294,40.2,167.57,17.035,262.316c-21.395,87.573-60.288,169.639-85.691,255.976
				c-26.144,88.874-40.467,182.126-57.881,273.374c-21.802,114.232-22.402,222.616-22.23,337.71
				c0.092,68.184,9.613,139.614,1.504,207.234c-11.614,96.885-47.229,187.444-91.697,273.625
				c-45.184,87.577-83.404,171.911-156.508,240.674c-32.419,30.498-55.267,65.595-101.512,70.635
				c-70.813,7.729-132.985-4.007-193.806-38.598c-65.511-37.252-126.896-119.275-139.878-199.079
				c-22.27-136.861,22.434-283.813,48.373-417.379c35.631-183.483-20.714-387.37-146.673-525.298
				c-84.703-92.736-160.953-189.505-181.684-317.055c-6.742-41.426-7.775-86.377-3.621-128.075
				c10.109-101.399,67.594-192.573,143.533-266.979c23.471-22.995,47.113-44.486,71.22-64.22l-93.322,40.112
				c-0.4,2.965-1.619,6.92-3.803,12.025c-8.588,20.083-39.434,37.767-53.336,55.184c-46.133,57.795-75.061,118.731-98.41,188.135
				c-32.412,96.36-5.164,200.111,32.668,290.591c36.033,86.146,111.406,144.592,164.957,219.911
				c34.6,48.655,63.7,95.419,88.586,150.03c50.587,111.002,77.764,234.563,52.912,356.507
				c-28.449,139.556-77.897,293.02-52.175,436.283c15.009,83.541,84.375,169.643,158.152,208.947
				c83.886,44.692,185.346,91.856,278.171,41.854c72.565-39.092,112.72-130.76,153.663-198.471
				c79.956-132.223,156.441-255.296,175.861-411.975c8.751-70.684-2.311-145.44-2.776-216.754
				c-0.787-120.371-0.677-233.732,23.215-353.093c19.087-95.349,34.688-192.811,63.592-285.625
				c20.361-65.389,37.479-131.823,49.974-199.128c5.449-29.35,10.022-58.87,13.6-88.54c12.153-100.657-25.688-202.87-51.694-298.951
				C2152.726,1371.755,2134.169,1310.402,2060.081,1271.979z"/>
			<path id="_x31_80609067_1_" fill="#82C7AE" stroke="#000000" d="M2160.849,2032.051
				c-28.905,92.816-44.499,190.291-63.598,285.647c-23.891,119.358-24.004,232.73-23.226,353.105
				c0.472,71.32,11.533,146.079,2.773,216.767c-19.413,156.688-95.901,279.77-175.858,412.001
				c-40.945,67.71-81.103,159.388-153.674,198.478c-92.818,50.01-194.287,2.842-278.172-41.851
				c-73.771-39.305-143.133-125.415-158.141-208.958c-25.729-143.271,23.729-296.744,52.179-436.308
				c24.853-121.952-2.329-245.518-52.907-356.527c-24.887-54.613-53.992-101.382-88.576-150.034
				c-53.557-75.33-128.932-133.773-164.963-219.921c-37.832-90.486-65.068-194.245-32.656-290.608
				c23.35-69.412,52.279-130.354,98.414-188.146c13.895-17.424,44.748-35.104,53.336-55.192
				c26.393-61.716-87.486,43.888-97.197,56.256c-32.553,41.533-60.338,90.144-79.842,141.775
				c-22.645,59.984-34.119,124.038-28.879,185.786c12.486,147.443,115.059,292.983,205.973,403.417
				c70.094,85.146,105.773,168.46,131.863,274.152c27.841,112.773-17.201,227.841-20.021,341.037
				c-2.287,91.914-33.35,184.631-19.278,276.655c15.438,100.951,85.014,187.497,167.614,244.247
				c75.471,51.861,190.615,123.417,285.899,95.897c51.464-14.858,100.484-73.125,130.893-116.697
				c69.333-99.355,134.329-202.148,187.595-311.099c26.659-54.53,61.849-112.175,72.749-172.058
				c11.122-61.128,6.678-127.235,3.414-188.924c-6.333-119.546-22.095-241.049,1.486-359.741
				c42.145-212.136,98.204-418.064,126.409-632.761c9.189-70.051,26.462-139.322,10.146-209.741
				c-14.565-62.922-42.626-123.74-64.844-184.243c-21.81-59.386-38.187-117.75-99.177-147.639
				c-28.687-14.05-97.858-51.693-125.749-16.401c27.08,22.485,64.973,25.607,95.275,41.326
				c74.079,38.426,92.645,99.783,112.629,173.651c26.004,96.09,63.853,198.31,51.691,298.971
				c-3.576,29.671-8.152,59.188-13.602,88.54C2198.324,1900.223,2181.216,1966.66,2160.849,2032.051z"/>
			<path id="_x31_80609066_1_" fill="#9AD2BD" stroke="#000000" d="M1961.041,1122.412c-11.055,1.646-22.158,3.359-33.305,5.136
				c-56.321,9.564-131.936,24.233-160.965,29.924c-3.878,0.829-7.758,1.668-11.639,2.514c38.7,12.654,36.552,71.418,29.792,105.162
				c-2.202,11.004-9.498,24.257-11.22,36.134c7.494-6.479,18.72-11.351,23.696-13.018c33.014-11.054,69.753-19.385,106.531-21.55
				l65.807-32.271c-1.676-1.203-3.32-2.462-4.926-3.794c27.89-35.29,97.063,2.349,125.749,16.401
				c60.99,29.891,77.369,88.251,99.179,147.634c22.217,60.498,50.278,121.313,64.846,184.232
				c16.312,70.412-0.952,139.68-10.143,209.729c-28.203,214.686-84.258,420.596-126.4,632.721
				c-23.579,118.689-7.807,240.184-1.473,359.727c3.264,61.683,7.71,127.785-3.412,188.915
				c-10.898,59.875-46.088,117.516-72.745,172.042c-53.266,108.948-118.251,211.733-187.582,311.083
				c-30.408,43.573-79.428,101.832-130.894,116.691c-95.277,27.521-210.436-44.038-285.905-95.896
				c-82.596-56.743-152.172-143.283-167.61-244.23c-14.073-92.023,16.987-184.73,19.275-276.645
				c2.816-113.189,47.848-228.246,20-341.018c-26.085-105.681-61.764-188.993-131.86-274.129
				c-90.916-110.435-193.496-255.972-205.986-403.404c-5.232-61.746,6.232-125.794,28.879-185.778
				c19.502-51.629,47.287-100.236,79.846-141.767c8.9-11.344,105.443-101.12,100.992-68.271l93.318-40.113
				c31.505-25.79,63.811-48.563,97.563-67.728c0.862-1.47,1.746-2.911,2.669-4.303c38.27-57.707,77.957-113.089,108.307-175.765
				c2.465-5.09,5.508-16.166,11.144-19.618c-2.078,0.687-4.157,1.373-6.234,2.066c-21.112,7.617-80.305,28.971-100.177,36.14
				c-7.66,2.98-15.302,6.005-22.916,9.077c-96.73,40.049-222.75,98.735-343.984,187.443c-12.189,8.948-24.191,18.098-35.996,27.45
				c-31.35,24.841-40.955,32.828-12.041,10.467c0.928-0.719,1.857-1.432,2.787-2.142c29.441-22.472,58.355-39.719,76.438-38.511
				c1.053,45.814-54.871,68.011-78.643,100.992c-30.088,41.748-59.271,97.195-78.711,145.503
				c-39.174,97.299-101.021,151.606-61.582,261.729c22.875,63.894,46.691,122.906,54.83,191.038
				c8.492,70.996-9.973,139.584,54.822,185.061c69.408,48.719,149.268,89.983,171.896,178.171
				c18.695,72.854,9.369,147.702-2.408,220.838c-28.334,175.963-26.314,380.874,16.902,555.698
				c22.188,89.75,88.656,148.249,136.624,222.989c48.655,75.801,131.135,103.863,211.553,132.627
				c89.697,32.087,151.252,177.456,256.222,126.665c108.408-52.454,189.87-165.267,261.192-257.262
				c85.225-109.929,149.781-234.427,202.518-362.729c46.436-112.96,97.095-226.179,120.006-346.869
				c9.275-48.851,20.745-86.854,37.464-132.535c18.699-51.055,2.743-95.727,0.002-148.372c-4.757-91.33,19.839-173.538,49.4-258.152
				c26.457-75.697,27.835-150.115,10.268-226.009c-14.983-64.727,11.587-122.016,11.437-185.504
				c-0.126-49.89-26.647-93.657-40.805-140.443c-25.598-84.594,0.559-190.068-3.335-276.944
				c-3.773-84.247-34.311-142.765-107.041-185.566c-37.213-21.896-69.982-51.595-107.276-72.625
				c-43.085-24.289-88.423-20.636-135.477-29.694c-31.653-6.088-51.745-13.514-42.148-27.072
				c3.489-4.934,9.225-15.931,23.112-17.457c22.697-2.498,43.238-4.868,62.599-6.716
				C2034.856,1112.714,1996.735,1117.099,1961.041,1122.412z"/>
			<path id="_x31_80609070_1_" fill="#9DF0D2" stroke="#000000" d="M1358.835,1813.11c-13.413-21.211-16.723-61.15-21.695-85.624
				c-6.086-29.895-11.053-60.005-12.353-90.521c-2.212-51.908,12.97-90.037,35.007-135.885
				c36.146-75.235,79.568-145.643,124.105-215.656c16.623-26.129,25.593-62.835,58.91-70.455
				c37.355-8.541,78.353-25.059,119.428-33.326c26.451-5.329,72.274-25.063,88.365-8.456
				c28.506,29.422,21.084,64.678,14.553,101.243c-2.934,16.469-19.395,32.298,0.556,44.871c19.25,12.136,36.353,23.943,53.261,34.93
				c71.861,46.713,91.625,149.705,94.746,229.339c1.803,46.023-20.207,76.749-21.6,136.411
				c-1.989,85.258-33.201,184.774-98.272,245.177c-37.36,34.683-99.455,61.221-149.632,57.93
				c-55.448-3.632-106.451-32.022-150.705-63.751c-22.999-16.492-48.66-34.157-68.389-54.528
				c-21.188-21.878-36.052-66.152-60.329-82.271L1358.835,1813.11z"/>
			<path id="_x31_80609073_1_" fill="#9DF0D2" stroke="#000000" d="M1561.838,1306.799c-19.745,1.056-35.589,2.019-53.472,9.927
				c-6.43,2.847-35.776,18.672-41.281,8.541c-2.332-4.301,4.309-17.203,5.94-21.192c12.751-31.263,44.394-36.754,72.768-48.796
				c28.265-11.989,57.511-22.358,87.294-29.853c24.613-6.19,44.771-8.021,69.581-6.625c25.772,1.451,54.019-8.419,76.091,10.606
				c9.122,7.861,12.074,23.012,10.673,34.515c-4.336,35.472-58.492,40.122-85.25,43.696
				C1657.199,1313.893,1609.069,1304.285,1561.838,1306.799z"/>
			<path id="_x31_80609071_1_" fill="#95E4C8" stroke="#000000" d="M1329.475,1684.51c8.666-12.518,56.772-8.206,72.486-3.105
				c28.867,9.371,51.513,32.184,79.973,42.769c97.403,36.209,213.489,69.506,309.587,12.866
				c21.941-12.921,58.703-37.331,83.654-15.967c21.53,18.436,8.357,63.672,4.309,87.051c-7.77,44.789-28.393,90.404-56.521,126.197
				c-41.05,52.248-110.539,93.208-178.76,88.738c-55.456-3.628-106.449-32.016-150.705-63.746
				c-22.997-16.49-48.659-34.157-68.387-54.529c-22.796-23.544-33.067-62.647-62.438-84.996
				C1341.677,1778.646,1333.112,1706.566,1329.475,1684.51z"/>
			<path id="_x31_80609072_1_" fill="#9DF0D2" stroke="#000000" d="M1910.256,1607.189c-18.906-23.345-47.03,5.252-80.94,20.207
				c-60.533,26.696-128.384,33.911-193.784,26.543c-17.392-1.956-34.438-5.315-51.304-9.457
				c-48.398-11.892-95.265-30.232-144.116-40.468c-49.089-10.287-77.999-7.501-115.382,14.599l0.057,18.335
				c-2.22-51.91,12.969-90.035,34.998-135.884c11.152-23.211,25.602-73.213,49.748-86.155c25.834-13.842,52.234,12.066,70.096,28.03
				c29.495,26.367,52.511,40.222,92.999,43.592c45.65,3.805,99.472,9.495,144.39-0.281c35.93-7.818,87.877-30.246,96.738-70.697
				c9.536-43.541-67.677-52.18-55.12-87.66c41.03-2.799,79.777,37.939,101.665,67.28c39.914,53.511,50.837,123.053,53.402,188.38
				L1910.256,1607.189z"/>
			<path id="_x31_80609075_1_" fill="#CCCCCC" stroke="#000000" d="M1589.528,3990.154c-39.528-12.566-75.608-32.476-109.009-57.209
				c66.004,58.893,135.193,102.134,202.574,108.471c145.876,13.723,295.849-51.816,419.077-121.934
				c294.621-167.655,525.316-419.987,532.35-776.437c2.844-144.139,58.738-280.212,61.066-425.768
				c2.393-148.798-6.946-289.344-18.682-437.669c-18.178-229.536-25.297-454.979-73.724-680.521
				c-28.218-131.438-60.23-281.769-157.019-381.671c-14.89-15.373-31.111-28.751-48.401-40.359
				c11.306,8.165,22.17,17.224,32.515,27.27c114.937,111.612,101.491,297.095,109.713,444.14
				c13.711,245.518,100.919,486.01,91.045,733.315c-9.885,247.497-67.225,494.271-155.494,724.971
				c-97.101,253.794-229.998,487.547-427.286,677.209C1927.039,3900.499,1769.843,4047.464,1589.528,3990.154z"/>
			<path id="_x31_80609076_1_" fill="#CCCCCC" stroke="#000000" d="M1440.096,1604.218
				c-98.171-20.569-173.504,39.58-223.704,116.654c-140.615,215.853,67.306,457.669,171.002,638.853
				c48.729,85.138,64.877,182.2,66.13,279.387c1.233,96.059-11.561,191.438-21.644,286.765c-7.247,68.578-45.601,169.82-9.77,233.93
				c7.562,13.536,28.331,46.432,47.863,38.8c27.354-10.702-1.128-47.406-7.012-62.105c-25.753-64.434,7.274-132.57,22.685-195.951
				c20.845-85.731,20.711-189.044,17.327-276.789c-10.171-264.169-171.385-443.968-263.223-678.511
				c-24.898-63.591-48.768-160.08-13.705-224.021c27.596-50.316,101.621-94.077,160.535-83.923
				c33.743,5.813,63.217,35.122,95.339,47.064c97.4,36.213,213.486,69.509,309.585,12.87c21.941-12.925,58.702-37.329,83.662-15.964
				c21.53,18.436,8.352,63.668,4.301,87.042c-7.77,44.795-28.385,90.409-56.518,126.192
				c-41.049,52.244-110.54,93.205-178.758,88.735c-55.45-3.628-106.451-32.016-150.706-63.749
				c-22.997-16.49-48.66-34.153-68.388-54.521c-21.189-21.879-36.051-66.149-60.328-82.268c-9.17-6.092-16.188-10.234-26.296-7.318
				c-0.742,75.621,63.588,162.123,117.7,212.192c32.07,29.66,79.292,44.744,101.51,84.729
				c20.015,36.006,32.938,87.17,48.722,126.104c60.646,149.576,80.692,298.653,69.428,459.106
				c-4.152,59.183-41.163,132.396-21.885,190.739c12.901,39.079,52.725,31.134,70.438,5.847
				c28.682-40.952,32.286-107.46,33.109-155.474c2.024-116.824-26.07-232.773-39.75-348.232
				c-7.433-62.704-22.963-124.184-54.372-179.1c-15.699-27.442-67.882-79.573-61.595-111.417
				c6.632-33.587,55.62-28.643,80.602-30.695c122.06-10.019,212.86-111.425,229.96-228.177
				c9.595-65.409,25.283-151.094,6.377-215.054c-16.69-56.497-55.509-13.31-89.42,1.645
				c-60.533,26.698-128.381,33.908-193.782,26.54c-17.383-1.955-34.438-5.316-51.295-9.456
				C1535.822,1632.801,1488.949,1614.452,1440.096,1604.218z"/>
			<path id="_x31_80609074_1_" fill="#AAAAAA" stroke="#000000" d="M1774.231,2263.862c-4.946,105.468,9.46,212.629-8.474,316.736
				c-1.809,10.524-1.787,21.345-3.481,31.907c-1.142,7.162-1.159,20.146-5.781,25.701c-8.469-6.065-7.197-23.727-8.231-33.121
				c-3.828-34.865-11.307-68.504-15.778-102.973c-4.821-37.219-10.308-74.355-14.726-111.626
				c-7.427-62.732-22.964-124.249-54.383-179.188c-15.7-27.443-67.883-79.573-61.596-111.418
				c6.632-33.585,55.621-28.643,80.602-30.694c50.636-4.152,94.526-22.037,134.854-53.12c7.14-5.506,16.248-23.621,25.868-14.331
				c11.848,11.417-12.739,49.33-16.955,60.624c-17.684,47.35-34.288,90.886-43.876,137.909
				C1778.125,2220.622,1775.279,2241.62,1774.231,2263.862z"/>
		</g>
	</g>
</g>
</svg>
