<?xml version="1.0" encoding="utf-8"?>
<!-- Generator: Adobe Illustrator 16.0.0, SVG Export Plug-In . SVG Version: 6.00 Build 0)  -->
<!DOCTYPE svg PUBLIC "-//W3C//DTD SVG 1.1//EN" "http://www.w3.org/Graphics/SVG/1.1/DTD/svg11.dtd">
<svg version="1.1" id="Layer_1" xmlns="http://www.w3.org/2000/svg" xmlns:xlink="http://www.w3.org/1999/xlink" x="0px" y="0px"
	 width="5280px" height="5024px" viewBox="0 0 5280 5024" enable-background="new 0 0 5280 5024" xml:space="preserve">
<g>
	<g transform="scale(1.0)">
		<g id="_x31_80609170" transform=" scale(1.0, 1.0)">
			<path id="_x31_80609172" fill="#BFDAE3" stroke="#000000" d="M4529.221,1678.969c122.701,209.438,57.34,510.354,28.576,739.818
				c-14.316,114.127-62.822,191.912-108.951,293.876c-79.037,174.676-159.43,351.785-247.994,520.14
				c-82.439,156.725-182.049,343.839-311.332,465.308c-108.09,101.555-247.488,219.345-400.295,229.223
				c-297.241,19.231-608.368-136.133-726.142-414.94c-111.778-264.595-112.315-617.847-122.567-901.839
				c-4.631-128.283,22.85-256.956,46.268-382.674c64.318-345.307-18.639-827.061,338.728-1030.233
				c223.057-126.815,508.28-120.791,751.065-63.825c164.314,38.548,272.889,115.189,412.088,205.843
				C4313.605,1421.034,4447.441,1539.354,4529.221,1678.969z"/>
			<path id="_x31_80609173" fill="#B0FFB8" stroke="#000000" d="M4529.215,1678.948
				c-81.781-139.605-215.617-257.921-340.559-339.287c-139.195-90.654-247.768-167.289-412.086-205.838
				c-242.771-56.961-527.997-62.978-751.062,63.833c-357.362,203.178-274.4,684.913-338.722,1030.212
				c-23.411,125.717-50.896,254.386-46.26,382.666c10.26,283.986,10.802,637.228,122.581,901.814
				c117.773,278.795,428.891,434.154,726.132,414.92c152.82-9.88,292.207-127.674,400.293-229.227
				c129.285-121.464,228.889-308.575,311.326-465.296c88.566-168.351,168.949-345.456,247.998-520.134
				c46.123-101.96,94.623-179.742,108.945-293.865C4586.563,2189.284,4651.922,1888.377,4529.215,1678.948z M3688.4,2168.351
				c-17.824,29.618-14.764,72.04-24.746,105.64c-20.172,67.854-41.658,141.995-39.463,213.157
				c0.727,23.156,14.018,80.236-5.836,97.203c-41.35,35.342-37.061-50.337-35.572-69.188c3.887-49.668-2.67-98.792,1.934-148.377
				c6.113-65.737-1.963-127.478-17.035-188.314c-11.615-46.832-34.617-91.5-53.732-135.674
				c-4.861-11.223-26.088-44.709-19.982-58.022c12.777-27.847,51.254,0.418,66.295,12.663c32.67,26.59,51.527,47.804,94.078,58.27
				c21.928,5.396,68.932,7.345,79.523,33.248C3747.682,2122.867,3702.33,2145.194,3688.4,2168.351z"/>
			<path id="_x31_80609174" fill="#9AD2BD" stroke="#000000" d="M4529.215,1678.948
				c-81.781-139.605-215.617-257.921-340.559-339.287c-139.195-90.654-247.768-167.289-412.086-205.838
				c-242.771-56.961-527.997-62.978-751.062,63.833c-357.362,203.178-274.4,684.913-338.722,1030.212
				c-23.411,125.717-50.896,254.386-46.26,382.666c10.26,283.986,10.802,637.228,122.581,901.814
				c117.773,278.795,428.891,434.154,726.132,414.92c152.82-9.88,292.207-127.674,400.293-229.227
				c129.285-121.464,228.889-308.575,311.326-465.296c88.566-168.351,168.949-345.456,247.998-520.134
				c46.123-101.96,94.623-179.742,108.945-293.865C4586.563,2189.284,4651.922,1888.377,4529.215,1678.948z M3688.4,2168.351
				c-17.824,29.618-14.764,72.04-24.746,105.64c-20.172,67.854-41.658,141.995-39.463,213.157
				c0.727,23.156,14.018,80.236-5.836,97.203c-41.35,35.342-37.061-50.337-35.572-69.188c3.887-49.668-2.67-98.792,1.934-148.377
				c6.113-65.737-1.963-127.478-17.035-188.314c-11.615-46.832-34.617-91.5-53.732-135.674
				c-4.861-11.223-26.088-44.709-19.982-58.022c12.777-27.847,51.254,0.418,66.295,12.663c32.67,26.59,51.527,47.804,94.078,58.27
				c21.928,5.396,68.932,7.345,79.523,33.248C3747.682,2122.867,3702.33,2145.194,3688.4,2168.351z"/>
			<path id="_x31_80609175" fill="#9AD2BD" stroke="#000000" d="M4529.223,1678.954c-81.783-139.61-215.617-257.926-340.559-339.293
				c-13.072-8.511,40.826,141.985,35.852,215.938c-4.803,71.414,34.113,298.674-45.752,320.519
				c-30.17,8.255-127.734,51.58-202.646,79.645l-27.949,10.877c-38.633,10.686-130.025,44.884-163.727,52.729
				c-75.482,17.566-142.246,33.837-203.445-50.773c-54.486-75.346-95.4-189.035-92.971-248.324l-1.197-70.715
				c1.98-104.526,11.563-206.585,18.189-255.896c8.719-64.877,41.836-126.803,44.871-191.876c1.5-32.287,2.51-74.282-28.752-90.708
				c-53.133-27.923-182.372-10.939-249.523,0.637c-86.26,14.87-169.754,42.529-246.097,85.935
				c-357.363,203.174-274.409,684.916-338.729,1030.214c-23.412,125.717-50.897,254.386-46.268,382.668
				c10.254,283.986,10.792,637.226,122.573,901.816c117.772,278.799,428.898,434.162,726.14,414.926
				c152.805-9.878,292.207-127.669,400.293-229.222c129.287-121.464,228.889-308.576,311.334-465.297
				c88.559-168.348,168.949-345.454,247.99-520.131c46.125-101.961,94.633-179.747,108.943-293.866
				C4586.563,2189.29,4651.92,1888.387,4529.223,1678.954z M3618.357,2584.351c-41.352,35.342-37.063-50.337-35.574-69.188
				c3.887-49.668-2.67-98.792,1.934-148.377c6.113-65.737-1.963-127.478-17.033-188.315
				c-11.617-46.831-34.619-91.499-53.734-135.673c-4.859-11.224-26.088-44.709-19.98-58.022
				c12.777-27.847,51.254,0.418,66.293,12.663c32.67,26.59,51.529,47.804,94.078,58.27c21.93,5.396,68.932,7.345,79.523,33.248
				c13.818,33.912-31.533,56.239-45.463,79.396c-17.824,29.618-14.764,72.039-24.746,105.639
				c-20.172,67.855-41.66,141.995-39.463,213.157C3624.918,2510.304,3638.209,2567.385,3618.357,2584.351z M3912.666,2194.033
				c-6.537,60.034-16.021,119.718-30.266,178.434c-19.916,82.048-15.846,165.301-24.924,248.705
				c-4.064,37.316-7.139,91.352-44.93,109.715c-27.715,13.46-74.85,18.893-106.697-15.535
				c-39.826-43.05-15.162-149.305-8.756-200.198c12.199-97.015,31.848-194.758,62.236-287.798
				c12.893-39.508,80.701-217.904,148.102-162.478C3933.846,2086.654,3915.816,2165.164,3912.666,2194.033z"/>
			<path id="_x31_80609180" fill="#82C7AE" stroke="#000000" d="M4575.764,2287.647c16.131-116.384,31.344-241.832,22.984-359.918
				c-2.563-34.338-7.131-68.543-14.221-102.543c-11.225-51.861-28.906-101.114-55.285-146.138
				c-2.355-4.022-4.764-8.027-7.205-12.016c-5.559-4.024-11.609-6.356-18.186-6.357c-3.816,12.122-5.92,24.678-6.811,37.543
				c0.848,6.595,1.643,13.331,2.438,20.23c-0.795-6.899-1.592-13.636-2.438-20.23c-4.652,67.087,23.879,142.574,17.031,208.847
				c-6.145,59.492-30.039,112.332-50.396,166.97c-21.594,57.98-10.25,134.705-15.957,202.295
				c-3.92,46.375-15.854,88.455-51.965,117.23c-43.527,34.676-68.518,96.907-86.602,147.856
				c-22.223,62.601,0.281,121.688,1.172,184.619c1.172,82.259-49.143,154.915-77.75,229.026
				c-19.332,50.051-47.709,96.694-70.945,144.702c-23.584,48.723-29.182,103.603-48.131,153.954
				c-20.496,54.399-44.932,116.166-80.721,162.562c-78,101.096-176.596,194.518-282.254,266.915
				c-100.922,69.166-242.717,153.085-356.089,59.542c-68.53-56.541-112.706-125.023-153.428-204.086
				c-50.395-97.85-70.99-207.185-113.614-308.152c-21.332-50.494-73.775-81.561-85.069-138.251
				c-11.103-55.694,0.06-115.801-19.459-169.336c-49.111-134.701-77.257-258.788-67.613-404.126
				c5.655-85.135-29.302-174.692-28.062-262.135c1.183-84.131-17.069-165.541-5.142-250.471
				c8.343-59.412,18.239-119.01,26.605-177.974c15.098-106.491,27.133-219.692,63.419-321.718
				c22.57-63.447,37.453-133.274,95.241-175.104c26.886-19.452,57.605-17.064,85.108-31.559
				c31.149-16.421,44.332-53.361,66.853-78.159c17.784-19.604,42.799-28.908,64.901-43.387
				c26.724-17.51,56.738-29.036,88.721-31.486c11.568-0.884,38.494,7.155,58.592,5.974c-7.453-2.214-15.557-4.068-24.352-5.562
				c8.793,1.493,16.898,3.35,24.352,5.562c11.951-0.703,21.488-4.666,23.941-15.71c8.752-39.399-81.592-40.893-144.966-36.794
				c-69.806,6.759-138.458,20.588-203.878,43.135c-35.909,12.528-70.868,27.505-103.832,44.955c-1.293,0.687-2.588,1.375-3.88,2.071
				c-1.44,0.774-2.882,1.553-4.314,2.338c-3.015,1.652-6.024,3.318-9.017,5.021c-2.317,1.318-4.606,2.655-6.888,3.997
				c-1.426,0.84-2.846,1.686-4.257,2.535c-0.372,0.225-0.739,0.448-1.11,0.671c-243.891,148.025-280.375,459.366-263.156,720.195
				c12.204,185.092-17.903,379.834-31.733,565.111c-20.561,275.542,61.821,583.241,190.941,825.789
				c56.22,105.639,97.23,221.862,148.078,329.92c46.329,98.44,90.333,186.987,198.893,229.589
				c53.902,21.157,112.48,28.003,169.496,35.545c186.527,24.659,337.143-94.191,463.723-213.099
				c129.281-121.458,228.893-308.561,311.328-465.271c88.57-168.342,168.963-345.438,247.996-520.104
				c46.127-101.955,94.643-179.732,108.949-293.849c0.342-2.724,0.689-5.46,1.041-8.202
				C4564.053,2369.878,4569.998,2328.849,4575.764,2287.647z"/>
			<path id="_x31_80609176" fill="#82C7AE" stroke="#000000" d="M3506.828,1382.297c-11.762-14.65-22.164-28.537-42.338-37.196
				c-64.368-27.626-129.911,7.856-168.081,60.088c-12.831,17.557-22.563,37.008-28.139,56.588
				c-47.422,166.657-101.945,339.646-48.133,513.393c27.003,87.199,55.758,156.647,61.845,248.265
				c4.443,66.779,17.187,135.671,14.479,202.911c-4.85,120.34-8.526,241.115-0.996,361.411
				c5.915,94.539,36.945,183.964,61.857,274.579c43.171,157.035,80.445,466.674,317.082,372.063
				c99.816-39.913,199.424-81.114,262.635-172.806c53.158-77.093,84.061-167.277,104.529-258.021
				c36.961-163.828,34.48-334.141,76.986-496.612c45.83-175.117,129.143-337.174,185.043-508.89
				c32.508-99.862,67.74-242.479-18.006-326.305c-15.521-15.175-24.547-31.35-58.672-32.679
				c0.221,82.269,17.557,221.503-48.156,237.029c-23.58,5.571-111.002,43.245-155.557,60.008
				c22.438,17.121,18.115,21.603,20.723,26.556c13.346,25.34-65.641,107.164-71.348,129.536
				c-5.877,22.989-0.547,50.164-12.307,71.365c-5.143,9.256-28.811,36.162-42.264-6.793c-14.748,71.103-10.867,64.955-11.824,89.568
				c-1.666,42.722-13.705,84.572-23.777,126.108c-19.916,82.051-15.848,165.3-24.924,248.708
				c-2.773,25.429-5.045,53.931-14.695,77.799c-9.652,23.855-28.77,43.236-41.582,65.342
				c-11.201,19.318-20.789,42.669-35.426,59.639c-40.027,46.386-55.328,205.655-130.09,80.42
				c-34.072-57.076-53.984-127.382-57.299-193.48c0,0-5.039-47.081,39.957-126.592c-37.955,35.106-37.055-50.341-35.582-69.192
				c3.891-49.672-2.664-98.803,1.938-148.387c6.115-65.739-1.961-127.487-17.043-188.322
				c-11.605-46.836-34.609-91.508-53.734-135.684c-4.859-11.223-26.086-44.712-19.98-58.024
				c12.785-27.852,51.254,0.418,66.445,12.522c-15.264-15.428-27.584-28.731-38.266-47.671
				c-10.359-18.364-32.283-77.754-24.381-58.298c3.561,8.758-27.613-99.108-23.688-147.902c0,0-2.629-77.807,13.041-106.309
				C3485.238,1530.285,3506.828,1382.297,3506.828,1382.297z"/>
			<path id="_x31_80609177" fill="#9AD2BD" stroke="#000000" d="M3307.094,1345.223c-79.893,82.018-109.664,212.831-142.015,319.357
				c-39.511,130.154-3.516,262.012,35.225,387.601c36.711,119.001,72.899,268.361,51.598,393.183
				c-20.896,122.438-18.919,250.921-9.675,376.066c6.275,85.17,46.211,166.45,58.496,252.241
				c18.468,128.988,51.653,265.959,131.008,373.528c76.762,104.06,218.729,79.48,316.738,24.425
				c80.518-45.222,175.617-104.416,223.922-185.965c14.678-24.788,25.338-52.74,34.658-79.436
				c9.568-27.417,21.762-52.673,30.029-80.155c20.209-67.13,35.119-142.186,48.303-211.254
				c31.355-164.337,38.576-334.969,101.332-491.881c32.072-80.167,75.404-155.37,106.373-236.006
				c25.979-67.67,25.92-137.435,39.109-208.155c11.861-63.57,39.025-113.233,28.686-180.681
				c-4.729-30.949-21.115-77.876-11.873-110.713c-21.691-22.566-63.904-25.873-90.807-42.785c-0.221-0.139-0.445-0.304-0.668-0.451
				c-0.365,0.668-0.707,1.343-1.031,2.025c12.275,6.396,19.426,16.237,29.102,25.696c85.754,83.819,50.518,226.427,18.002,326.286
				c-55.912,171.709-139.225,333.757-185.053,508.858c-42.51,162.468-40.021,332.77-76.984,496.585
				c-20.477,90.738-57.229,187.284-110.395,264.373c-63.215,91.689-156.955,126.519-256.779,166.426
				c-236.645,94.611-273.902-215.014-317.07-372.033c-24.912-90.612-55.934-180.032-61.855-274.569
				c-7.531-120.287-3.854-241.052,1.008-361.386c2.692-67.235-10.037-136.126-14.486-202.906
				c-6.076-91.611-34.84-161.051-61.843-248.249c-53.811-173.733,0.712-346.716,48.137-513.363
				c5.574-19.575,15.317-39.028,28.148-56.583c38.162-52.227,103.712-87.71,168.073-60.085c2.48,1.064,4.811,2.209,7.018,3.425
				c2.176-7.811,2.168-16.823,0.797-25.584c-21.627-8.229-46.371-24.848-70.854-31.974
				C3380.401,1312.279,3328.66,1323.078,3307.094,1345.223z"/>
			<path id="_x31_80609178" fill="#82C7AE" stroke="#000000" d="M4349.01,1687.38c1.195-4.247,2.797-8.27,4.93-11.978
				c8.139-14.165,47.758,100.506,47.938,112.69c1.313,99.263-42.404,195.629-52.402,293.847
				c-6.422,62.979-27.475,115.521-52.24,172.857c-21.123,48.886-48.279,96.025-64.848,146.698
				c-19.313,59.146-30.781,124.221-42.566,184.934c-16.512,85.078-31.029,170.436-48.889,255.273
				c-29.537,140.261-62.385,286.633-120.471,418.261c-33.213,75.309-97.416,146.443-166.539,190.786
				c-58.334,37.412-152.242,88.637-220.646,98.781c-107.332,15.922-176.402-6.261-237.312-98.223
				c-100.043-151.001-129.076-342.617-166.978-516.887c-23.682-108.961-29.957-221.035-29.324-332.291
				c0.548-96.755,20.449-185.609,13.363-282.699c-7.1-97.511-43.279-189.124-62.375-284.361
				c-22.188-110.607-41.034-223.641-28.554-336.704c10.098-91.508,55.331-159.824,90.098-243.223
				c30.087-72.194,94.147-207.288,197.603-177.622c-1.345,5.013-4.271,9.479-8.33,13.564
				c-21.066,21.194-72.807,31.992-94.373,54.138c-79.892,82.018-109.663,212.831-142.015,319.357
				c-39.51,130.154-3.516,262.012,35.226,387.601c36.71,119.001,72.898,268.361,51.597,393.183
				c-20.896,122.437-18.918,250.92-9.675,376.066c6.275,85.17,46.211,166.45,58.497,252.241
				c18.467,128.988,51.652,265.959,131.007,373.528c76.764,104.06,218.729,79.48,316.738,24.425
				c80.518-45.222,175.617-104.416,223.922-185.965c14.678-24.788,25.338-52.74,34.658-79.436
				c9.568-27.417,21.762-52.673,30.029-80.155c20.209-67.13,35.119-142.186,48.303-211.254
				c31.355-164.337,38.576-334.969,101.332-491.881c32.072-80.167,75.404-155.37,106.373-236.006
				c25.979-67.67,25.92-137.435,39.109-208.155c11.861-63.57,39.025-113.233,28.686-180.681
				C4356.154,1767.142,4339.77,1720.215,4349.01,1687.38z"/>
			<path id="_x31_80609179" fill="#9AD2BD" stroke="#000000" d="M4257.535,1644.142c-36.592-24.337-79.939-161.873-38.234-193.992
				c29.473-22.666,77.24,17.307,103.832,29.922c45.635,21.653,102.762,56.104,133.014,98.211
				c27.082,37.697,35.197,75.621,40.895,119.937c-4.652,67.088,23.879,142.574,17.031,208.847
				c-6.145,59.492-30.039,112.332-50.396,166.971c-21.594,57.98-10.25,134.704-15.957,202.294
				c-3.92,46.375-15.854,88.456-51.965,117.23c-43.527,34.676-68.516,96.908-86.602,147.857
				c-22.223,62.6,0.281,121.688,1.172,184.618c1.172,82.259-49.143,154.915-77.75,229.027
				c-19.332,50.05-47.709,96.694-70.945,144.701c-23.584,48.723-29.182,103.604-48.131,153.955
				c-20.496,54.398-44.932,116.165-80.719,162.562c-78.002,101.096-176.598,194.517-282.256,266.915
				c-100.922,69.165-242.717,153.084-356.089,59.542c-68.53-56.542-112.706-125.024-153.428-204.087
				c-50.395-97.85-70.99-207.185-113.614-308.151c-21.332-50.495-73.775-81.562-85.069-138.251
				c-11.103-55.695,0.06-115.802-19.459-169.337c-49.111-134.701-77.257-258.787-67.613-404.126
				c5.656-85.134-29.302-174.692-28.062-262.134c1.183-84.132-17.069-165.542-5.142-250.472
				c8.343-59.412,18.239-119.009,26.605-177.973c15.098-106.491,27.133-219.692,63.419-321.718
				c22.57-63.448,37.453-133.275,95.241-175.104c26.886-19.452,57.605-17.065,85.108-31.56
				c31.149-16.421,44.332-53.36,66.853-78.158c17.784-19.604,42.799-28.908,64.901-43.387c26.724-17.51,56.738-29.037,88.721-31.486
				c11.568-0.885,38.494,7.155,58.592,5.973c64.162,19.049,79.4,64.882,57.732,138.857c-11.516,39.287-32.168,40.849-56.898,31.438
				c-21.627-8.229-46.369-24.848-70.854-31.974c4.058-4.086,6.985-8.553,8.331-13.565
				c-103.455-29.665-167.516,105.427-197.604,177.621c-34.767,83.4-80.001,151.716-90.097,243.224
				c-12.482,113.063,6.365,226.096,28.554,336.703c19.094,95.237,55.275,186.852,62.373,284.361
				c7.086,97.091-12.813,185.944-13.362,282.7c-0.633,111.255,5.644,223.33,29.324,332.291
				c37.9,174.271,66.936,365.886,166.978,516.886c60.91,91.962,129.979,114.146,237.313,98.223
				c68.402-10.144,162.311-61.368,220.645-98.78c69.125-44.345,133.326-115.478,166.539-190.786
				c58.088-131.628,90.936-278.001,120.471-418.262c17.859-84.838,32.379-170.194,48.889-255.272
				c11.787-60.714,23.256-125.789,42.566-184.936c16.568-50.671,43.727-97.811,64.85-146.697
				c24.766-57.336,45.818-109.879,52.238-172.857c10-98.218,53.717-194.584,52.402-293.847
				c-0.18-12.185-39.799-126.855-47.936-112.69c-2.135,3.709-3.736,7.73-4.932,11.978c-21.689-22.568-63.902-25.875-90.805-42.785
				C4257.982,1644.454,4257.758,1644.29,4257.535,1644.142z"/>
			<path id="_x31_80609181" fill="#9DF0D2" stroke="#000000" d="M3949.137,1941.729c-38.635,10.681-79.541,30.208-113.248,38.056
				c-75.486,17.566-160.471,74.717-221.674-9.897c-54.486-75.344-103.711-189.355-101.273-248.647l-6.871-70.935
				c1.971-104.521,17.238-206.363,23.863-255.675c7.484-55.733,33.045-107.114,43.643-162.185
				c4.273-22.184,7.777-49.087,6.221-71.719c-0.646-9.252-14.111-58.836-25.777-58.46c73.799-2.368,150.748,15.348,222.559,31.556
				c155.941,35.188,277.436,117.877,378.189,183.688c2.133,50.361,50.129,154.864,45.15,228.814
				c-4.799,71.412,34.123,298.677-45.75,320.518c-30.16,8.255-102.164,35.945-177.074,64.004L3949.137,1941.729z"/>
			<path id="_x31_80609183" fill="#9DF0D2" stroke="#000000" d="M3775.947,1136.125c17.309,4.111,34.51,8.771,51.678,13.198
				c24.416,6.301,47.143,14.132,70.699,22.244c28.678,9.879,50.426,14.57,74.473,32.744c28.523,21.56,62.521,36.076,91.223,58.218
				c23.93,18.447,26.111,50.663,23.643,79.22c-6.387,73.864-85.727,101.301-145.137,118.022
				c-49.328,13.887-99.842,33.502-151.961,28.08c-66.609-6.922-138.564-5.398-183.449-63.72
				c-25.869-33.619-60.861-67.943-53.053-114.13c7.057-41.681,27.707-87.057,24.221-129.748
				c-1.996-24.419-15.045-50.882,13.762-63.874c24.002-10.829,56.955-7.106,82.127-3.433
				C3707.869,1117.87,3742.693,1128.231,3775.947,1136.125z"/>
			<path id="_x31_80609182" fill="#95E4C8" stroke="#000000" d="M3835.895,1979.787c-75.492,17.567-160.479,74.714-221.67-9.897
				c-86.115-119.056-159.063-334.702-35.795-278.316c64.869,29.674,106.768,83.425,182.666,90.75
				c90.574,8.75,191.975-25.278,280.314-42.28c28.143-5.415,60.535-17.66,88.076-3.113c31.861,16.833,39.266,64.275,42.016,96.196
				c1.74,20.298-11.002,30.4-28.695,37.083c-50.322,19.013-103.57,36.898-154.842,55.938
				C3937.672,1944.826,3888.32,1967.592,3835.895,1979.787z"/>
			<path id="_x31_80609184" fill="#9DF0D2" stroke="#000000" d="M4204.482,1696.218c-16.928-63.416-155.797-17.827-213.691-0.347
				c-63.916,19.301-129.789,32.564-196.836,25.729c-45.182-4.608-95.914-11.677-138.824-26.613
				c-39.107-13.61-117.867-100.021-149.203-64.838c0,0-11.303-96.899,14.164-176.139c42.775,46.246,82.861,71.558,135.133,89.823
				c69.4,24.258,175.744,26.115,248.5,26.309c82.09,0.217,161.027-48.112,235.93-78.145c48.236-19.338,62.031,0.805,60.607,40.205
				C4198.393,1584.437,4204.482,1696.218,4204.482,1696.218z"/>
			<path id="_x31_80609185" fill="#54BF94" stroke="#000000" d="M3705.85,2715.351c-39.826-43.05-15.162-149.304-8.756-200.197
				c12.199-97.016,31.848-194.758,62.234-287.799c12.895-39.507,80.703-217.904,148.104-162.478
				c26.414,21.777,8.385,100.286,5.234,129.156c-6.537,60.034-16.021,119.718-30.266,178.434
				c-19.916,82.048-15.846,165.301-24.924,248.705c-4.064,37.316-7.139,91.352-44.93,109.715
				C3784.83,2744.347,3737.697,2749.779,3705.85,2715.351z"/>
			<path id="_x31_80609186" fill="#54BF94" stroke="#000000" d="M3705.85,2715.351c-39.826-43.05-15.162-149.304-8.756-200.197
				c12.199-97.016,31.848-194.758,62.234-287.799c12.895-39.507,80.703-217.904,148.104-162.478
				c26.414,21.777,8.385,100.286,5.234,129.156c-6.537,60.034-16.021,119.718-30.266,178.434
				c-19.916,82.048-15.846,165.301-24.924,248.705c-4.064,37.316-7.139,91.352-44.93,109.715
				C3784.83,2744.347,3737.697,2749.779,3705.85,2715.351z"/>
			<path id="_x31_80609188" fill="#CCCCCC" stroke="#000000" d="M3560.406,1997.301c17.85,18.052,37.658,34.298,59.734,45.584
				c10.65,5.457,22.566,9.961,34.199,12.824c21.932,5.395,68.934,7.345,79.525,33.248c13.816,33.912-31.535,56.239-45.465,79.396
				c-17.824,29.618-14.764,72.039-24.744,105.639c-20.174,67.855-41.66,141.995-39.465,213.157
				c0.309,10.056,2.994,26.521,4.305,43.31l0.375,10.487c-2.455,63.122-54.096,97.62-50.473,169.99
				c3.307,66.097,23.221,136.395,57.307,193.473c74.754,125.229,90.053-34.036,130.08-80.419
				c10.123-11.717,57.809-104.44,67.738-108.117c-29.254,27.063-94.91,38.817-127.668-0.477
				c-37.543-45.046-15.158-149.296-8.756-200.186c12.211-97.011,31.854-194.747,62.24-287.783
				c12.904-39.503,79.328-216.164,148.096-162.479c32.275,25.193-7.049,114.967,30.998,115.029
				c31.648,0.048,27.781-65.006,33.98-84.558c15.605-49.076,133.826-148.706,33.359-160.265
				c-51.172-5.886-118.801,32.83-169.867,44.72c-75.49,17.563-160.471,74.711-221.67-9.899
				c-86.107-119.049-159.059-334.683-35.799-278.301c64.885,29.672,106.783,83.419,182.674,90.749
				c90.582,8.748,191.99-25.282,280.313-42.28c51.576-9.93,91.74-24.913,118.557,31.373c22.621,47.465,7.879,130.186,8.07,182.408
				c0.457,122.354-38.777,224.259-78.281,338.824c-37.053,107.479-72.037,209.82-97.582,316.4
				c-33.27,138.825-55.686,284.084-98.602,449.433c-8.801,33.932-36.777,132.584,8.266,110.564
				c50.844-24.863,82.355-192.13,88.973-239.703c42.326-304.146,140.695-564.01,211.338-852.72
				c33.035-135.047,33.184-264.846,2.338-380.408c-16.926-63.412-155.797-17.824-213.691-0.341
				c-63.916,19.3-129.781,32.559-196.838,25.726c-45.174-4.604-95.91-11.677-138.822-26.61
				c-39.109-13.609-91.199-72.934-133.094-70.808c-60.928,3.088-44.156,71.604-47.975,119.168
				c-3.928,48.783,27.254,156.649,23.693,147.889c-7.902-19.456,14.012,39.932,24.373,58.294
				C3532.822,1968.567,3545.137,1981.867,3560.406,1997.301z"/>
			<path id="_x31_80609189" fill="#CCCCCC" stroke="#000000" d="M3425.807,3911.134c-57.015-7.541-115.594-14.386-169.497-35.545
				c-108.559-42.603-152.563-131.149-198.893-229.589c-50.848-108.058-91.857-224.281-148.077-329.92
				c-129.12-242.547-211.503-550.247-190.941-825.789c13.829-185.278,43.938-380.021,31.732-565.111
				c-17.217-260.828,19.266-572.17,263.157-720.195c-343.183,207.146-262.915,681.684-326.483,1022.955
				c-23.412,125.709-50.899,254.37-46.279,382.641c10.252,283.973,10.789,637.195,122.567,901.767
				c117.769,278.784,428.903,434.136,726.146,414.901c152.795-9.88,292.199-127.666,400.291-229.214
				C3762.949,3816.942,3612.334,3935.793,3425.807,3911.134z"/>
			<path id="_x31_80609187" fill="#AAAAAA" stroke="#000000" d="M3567.682,2178.471c-11.615-46.833-34.617-91.5-53.734-135.675
				c-4.859-11.223-26.088-44.709-19.98-58.021c12.777-27.848,51.254,0.418,66.293,12.662c32.672,26.591,51.529,47.805,94.08,58.271
				c21.928,5.396,68.932,7.344,79.523,33.248c13.816,33.912-31.535,56.238-45.465,79.395c-17.822,29.618-14.764,72.04-24.744,105.64
				c-20.172,67.854-41.66,141.995-39.463,213.157c0.725,23.155,14.016,80.236-5.836,97.203
				c-41.354,35.342-37.063-50.337-35.574-69.188c3.885-49.669-2.67-98.792,1.932-148.377
				C3590.83,2301.048,3582.754,2239.308,3567.682,2178.471z"/>
		</g>
	</g>
	<g transform="scale(1.0)">
		<g id="_x31_80609170_1_" transform=" scale(1.0, 1.0)">
			<path id="_x31_80609172_1_" fill="#BFDAE3" stroke="#000000" d="M1091.335,1339.664
				c139.2-90.653,247.773-167.295,412.088-205.843c242.785-56.966,528.01-62.99,751.066,63.825
				c357.366,203.173,274.409,684.927,338.728,1030.233c23.418,125.718,50.898,254.391,46.268,382.674
				c-10.252,283.992-10.79,637.244-122.567,901.839c-117.773,278.808-428.9,434.172-726.143,414.94
				c-152.806-9.878-292.205-127.668-400.295-229.223c-129.282-121.469-228.893-308.583-311.332-465.308
				c-88.564-168.354-168.957-345.464-247.994-520.14c-46.128-101.964-94.635-179.749-108.95-293.876
				c-28.765-229.465-94.126-530.381,28.575-739.818C832.559,1539.354,966.394,1421.034,1091.335,1339.664z"/>
			<path id="_x31_80609173_1_" fill="#B0FFB8" stroke="#000000" d="M722.197,2418.747
				c14.322,114.123,62.822,191.905,108.946,293.865c79.049,174.678,159.431,351.783,247.997,520.134
				c82.438,156.721,182.042,343.832,311.326,465.296c108.086,101.553,247.474,219.347,400.294,229.227
				c297.241,19.234,608.358-136.125,726.132-414.92c111.779-264.587,112.321-617.828,122.581-901.814
				c4.637-128.28-22.848-256.949-46.259-382.666c-64.321-345.299,18.641-827.034-338.722-1030.212
				c-223.064-126.811-508.291-120.794-751.062-63.833c-164.319,38.549-272.892,115.184-412.087,205.838
				c-124.941,81.366-258.777,199.682-340.559,339.287C628.079,1888.377,693.437,2189.284,722.197,2418.747z M1546.137,2088.955
				c10.591-25.903,57.595-27.853,79.522-33.248c42.551-10.466,61.409-31.68,94.079-58.27c15.04-12.245,53.518-40.51,66.294-12.663
				c6.105,13.313-15.121,46.8-19.982,58.022c-19.114,44.174-42.117,88.842-53.732,135.674
				c-15.071,60.837-23.147,122.577-17.034,188.314c4.603,49.585-1.954,98.709,1.933,148.377
				c1.489,18.852,5.778,104.53-35.572,69.188c-19.853-16.967-6.562-74.047-5.836-97.203c2.196-71.162-19.291-145.303-39.463-213.157
				c-9.982-33.6-6.922-76.021-24.746-105.64C1577.67,2145.194,1532.319,2122.867,1546.137,2088.955z"/>
			<path id="_x31_80609174_1_" fill="#9AD2BD" stroke="#000000" d="M722.197,2418.747
				c14.322,114.123,62.822,191.905,108.946,293.865c79.049,174.678,159.431,351.783,247.997,520.134
				c82.438,156.721,182.042,343.832,311.326,465.296c108.086,101.553,247.474,219.347,400.294,229.227
				c297.241,19.234,608.358-136.125,726.132-414.92c111.779-264.587,112.321-617.828,122.581-901.814
				c4.637-128.28-22.848-256.949-46.259-382.666c-64.321-345.299,18.641-827.034-338.722-1030.212
				c-223.064-126.811-508.291-120.794-751.062-63.833c-164.319,38.549-272.892,115.184-412.087,205.838
				c-124.941,81.366-258.777,199.682-340.559,339.287C628.079,1888.377,693.437,2189.284,722.197,2418.747z M1546.137,2088.955
				c10.591-25.903,57.595-27.853,79.522-33.248c42.551-10.466,61.409-31.68,94.079-58.27c15.04-12.245,53.518-40.51,66.294-12.663
				c6.105,13.313-15.121,46.8-19.982,58.022c-19.114,44.174-42.117,88.842-53.732,135.674
				c-15.071,60.837-23.147,122.577-17.034,188.314c4.603,49.585-1.954,98.709,1.933,148.377
				c1.489,18.852,5.778,104.53-35.572,69.188c-19.853-16.967-6.562-74.047-5.836-97.203c2.196-71.162-19.291-145.303-39.463-213.157
				c-9.982-33.6-6.922-76.021-24.746-105.64C1577.67,2145.194,1532.319,2122.867,1546.137,2088.955z"/>
			<path id="_x31_80609175_1_" fill="#9AD2BD" stroke="#000000" d="M722.207,2418.755
				c14.311,114.119,62.818,191.905,108.944,293.866c79.04,174.677,159.431,351.783,247.989,520.131
				c82.445,156.721,182.048,343.833,311.334,465.297c108.087,101.553,247.488,219.344,400.294,229.222
				c297.241,19.236,608.367-136.127,726.14-414.926c111.781-264.591,112.32-617.83,122.573-901.816
				c4.629-128.282-22.855-256.951-46.268-382.668c-64.32-345.298,18.634-827.04-338.729-1030.214
				c-76.343-43.405-159.837-71.064-246.098-85.935c-67.151-11.576-196.391-28.56-249.523-0.637
				c-31.261,16.426-30.252,58.421-28.751,90.708c3.034,65.073,36.152,126.999,44.87,191.876
				c6.628,49.311,16.209,151.369,18.189,255.896l-1.196,70.715c2.429,59.289-38.484,172.979-92.971,248.324
				c-61.199,84.61-127.963,68.34-203.446,50.773c-33.7-7.845-125.094-42.043-163.727-52.729l-27.948-10.877
				c-74.912-28.064-172.478-71.39-202.647-79.645c-79.865-21.845-40.948-249.104-45.752-320.519
				c-4.974-73.952,48.925-224.448,35.852-215.938c-124.941,81.367-258.775,199.683-340.558,339.293
				C628.081,1888.387,693.437,2189.29,722.207,2418.755z M1655.808,2487.146c2.197-71.162-19.291-145.302-39.463-213.157
				c-9.982-33.6-6.922-76.021-24.746-105.639c-13.929-23.156-59.28-45.483-45.463-79.396c10.592-25.903,57.595-27.853,79.523-33.248
				c42.549-10.466,61.408-31.68,94.079-58.27c15.039-12.245,53.516-40.51,66.293-12.663c6.106,13.313-15.121,46.799-19.981,58.022
				c-19.115,44.174-42.117,88.842-53.733,135.673c-15.071,60.838-23.147,122.578-17.033,188.315
				c4.603,49.585-1.954,98.709,1.933,148.377c1.488,18.852,5.778,104.53-35.574,69.188
				C1641.791,2567.385,1655.083,2510.304,1655.808,2487.146z M1372.568,2064.878c67.4-55.427,135.209,122.97,148.103,162.478
				c30.388,93.04,50.036,190.783,62.236,287.798c6.406,50.894,31.07,157.148-8.757,200.198
				c-31.847,34.428-78.981,28.995-106.696,15.535c-37.792-18.363-40.865-72.398-44.93-109.715
				c-9.078-83.404-5.009-166.657-24.925-248.705c-14.243-58.716-23.728-118.399-30.266-178.434
				C1364.184,2165.164,1346.154,2086.654,1372.568,2064.878z"/>
			<path id="_x31_80609180_1_" fill="#82C7AE" stroke="#000000" d="M721.157,2410.61c0.351,2.742,0.699,5.479,1.041,8.202
				c14.306,114.116,62.821,191.894,108.949,293.849c79.032,174.667,159.426,351.763,247.995,520.104
				c82.436,156.711,182.048,343.813,311.328,465.271c126.581,118.907,277.195,237.758,463.723,213.099
				c57.016-7.542,115.594-14.388,169.497-35.545c108.56-42.602,152.563-131.148,198.893-229.589
				c50.848-108.058,91.858-224.281,148.078-329.92c129.12-242.548,211.502-550.247,190.941-825.789
				c-13.83-185.277-43.938-380.02-31.733-565.111c17.219-260.829-19.266-572.17-263.156-720.195
				c-0.371-0.223-0.738-0.446-1.11-0.671c-1.411-0.85-2.831-1.695-4.257-2.535c-2.281-1.342-4.57-2.679-6.888-3.997
				c-2.992-1.702-6.002-3.368-9.017-5.021c-1.433-0.785-2.874-1.563-4.314-2.338c-1.292-0.696-2.587-1.385-3.88-2.071
				c-32.964-17.45-67.923-32.427-103.832-44.955c-65.42-22.547-134.073-36.376-203.879-43.135
				c-63.373-4.099-153.718-2.605-144.966,36.794c2.454,11.044,11.991,15.007,23.941,15.71c7.454-2.212,15.56-4.068,24.352-5.562
				c-8.794,1.493-16.898,3.348-24.352,5.562c20.098,1.182,47.024-6.857,58.593-5.974c31.981,2.45,61.996,13.977,88.72,31.486
				c22.103,14.479,47.117,23.782,64.902,43.387c22.521,24.798,35.703,61.738,66.853,78.159
				c27.503,14.494,58.223,12.106,85.108,31.559c57.788,41.83,72.671,111.657,95.241,175.104
				c36.286,102.025,48.321,215.227,63.419,321.718c8.366,58.964,18.263,118.562,26.605,177.974
				c11.928,84.93-6.324,166.34-5.142,250.471c1.24,87.442-33.717,177-28.062,262.135c9.644,145.338-18.502,269.425-67.613,404.126
				c-19.519,53.535-8.356,113.642-19.459,169.336c-11.294,56.69-63.737,87.757-85.069,138.251
				c-42.624,100.968-63.22,210.303-113.614,308.152c-40.723,79.063-84.898,147.545-153.429,204.086
				c-113.372,93.543-255.167,9.624-356.089-59.542c-105.658-72.397-204.254-165.819-282.254-266.915
				c-35.788-46.396-60.224-108.162-80.72-162.562c-18.949-50.352-24.547-105.231-48.132-153.954
				c-23.235-48.008-51.612-94.651-70.945-144.702c-28.607-74.111-78.921-146.768-77.75-229.026
				c0.891-62.932,23.395-122.019,1.172-184.619c-18.084-50.949-43.074-113.181-86.602-147.856
				c-36.111-28.775-48.045-70.855-51.964-117.23c-5.708-67.59,5.636-144.314-15.958-202.295
				c-20.357-54.638-44.252-107.478-50.396-166.97c-6.849-66.272,21.683-141.76,17.03-208.847c-0.846,6.595-1.642,13.331-2.438,20.23
				c0.796-6.899,1.59-13.636,2.438-20.23c-0.891-12.865-2.994-25.421-6.811-37.543c-6.576,0.001-12.626,2.333-18.186,6.357
				c-2.441,3.988-4.849,7.993-7.205,12.016c-26.379,45.023-44.06,94.276-55.285,146.138c-7.089,34-11.657,68.205-14.22,102.543
				c-8.359,118.086,6.853,243.534,22.984,359.918C710.001,2328.849,715.947,2369.878,721.157,2410.61z"/>
			<path id="_x31_80609176_1_" fill="#82C7AE" stroke="#000000" d="M1792.898,1637.032c15.67,28.502,13.041,106.309,13.041,106.309
				c3.927,48.794-27.247,156.66-23.687,147.902c7.901-19.456-14.022,39.934-24.382,58.298
				c-10.682,18.939-23.002,32.243-38.265,47.671c15.19-12.104,53.66-40.374,66.445-12.522c6.104,13.313-15.122,46.802-19.981,58.024
				c-19.125,44.176-42.128,88.848-53.734,135.684c-15.081,60.835-23.158,122.583-17.043,188.322
				c4.602,49.584-1.953,98.715,1.938,148.387c1.472,18.852,2.372,104.299-35.582,69.192
				c44.996,79.511,39.957,126.592,39.957,126.592c-3.315,66.099-23.228,136.404-57.299,193.48
				c-74.763,125.235-90.063-34.034-130.091-80.42c-14.636-16.97-24.225-40.32-35.425-59.639
				c-12.813-22.105-31.931-41.486-41.583-65.342c-9.65-23.868-11.922-52.37-14.694-77.799
				c-9.077-83.408-5.009-166.657-24.924-248.708c-10.073-41.536-22.111-83.387-23.778-126.108
				c-0.956-24.613,2.925-18.466-11.824-89.568c-13.452,42.955-37.121,16.049-42.263,6.793c-11.761-21.201-6.43-48.376-12.307-71.365
				c-5.708-22.372-84.693-104.196-71.349-129.536c2.607-4.953-1.715-9.435,20.723-26.556
				c-44.555-16.763-131.976-54.437-155.557-60.008c-65.713-15.526-48.377-154.761-48.155-237.029
				c-34.125,1.329-43.15,17.504-58.673,32.679c-85.746,83.825-50.514,226.442-18.006,326.305
				c55.9,171.716,139.214,333.772,185.044,508.89c42.505,162.472,40.024,332.784,76.985,496.612
				c20.47,90.743,51.371,180.928,104.529,258.021c63.211,91.691,162.818,132.893,262.635,172.806
				c236.637,94.611,273.911-215.027,317.082-372.063c24.912-90.615,55.942-180.04,61.857-274.579
				c7.53-120.296,3.854-241.071-0.996-361.411c-2.708-67.24,10.035-136.132,14.479-202.911
				c6.087-91.617,34.843-161.065,61.846-248.265c53.813-173.747-0.711-346.735-48.134-513.393
				c-5.576-19.58-15.308-39.031-28.139-56.588c-38.17-52.231-103.713-87.714-168.081-60.088
				c-20.174,8.659-30.575,22.546-42.337,37.196C1773.172,1382.297,1794.762,1530.285,1792.898,1637.032z"/>
			<path id="_x31_80609177_1_" fill="#9AD2BD" stroke="#000000" d="M1878.534,1291.085c-24.483,7.126-49.228,23.744-70.854,31.974
				c-1.371,8.761-1.38,17.773,0.796,25.584c2.207-1.216,4.538-2.36,7.019-3.425c64.36-27.625,129.91,7.858,168.072,60.085
				c12.831,17.555,22.574,37.008,28.148,56.583c47.426,166.647,101.948,339.63,48.138,513.363
				c-27.003,87.198-55.768,156.638-61.844,248.249c-4.449,66.78-17.179,135.671-14.486,202.906
				c4.861,120.334,8.539,241.099,1.008,361.386c-5.922,94.537-36.943,183.957-61.855,274.569
				c-43.168,157.02-80.426,466.645-317.07,372.033c-99.824-39.907-193.564-74.736-256.778-166.426
				c-53.166-77.089-89.918-173.635-110.396-264.373c-36.962-163.815-34.474-334.117-76.983-496.585
				c-45.828-175.102-129.142-337.149-185.053-508.858c-32.516-99.859-67.752-242.467,18.001-326.286
				c9.676-9.459,16.827-19.3,29.102-25.696c-0.323-0.683-0.665-1.357-1.031-2.025c-0.222,0.147-0.446,0.313-0.668,0.451
				c-26.902,16.912-69.115,20.219-90.806,42.785c9.241,32.837-7.145,79.764-11.874,110.713
				c-10.339,67.447,16.824,117.11,28.686,180.681c13.189,70.721,13.131,140.485,39.109,208.155
				c30.97,80.636,74.301,155.839,106.374,236.006c62.755,156.912,69.976,327.544,101.332,491.881
				c13.184,69.068,28.093,144.124,48.303,211.254c8.267,27.482,20.46,52.738,30.028,80.155c9.32,26.695,19.98,54.647,34.658,79.436
				c48.305,81.549,143.405,140.743,223.923,185.965c98.01,55.056,239.976,79.635,316.738-24.425
				c79.354-107.569,112.539-244.54,131.007-373.528c12.285-85.791,52.222-167.071,58.497-252.241
				c9.244-125.146,11.222-253.628-9.675-376.066c-21.303-124.821,14.887-274.182,51.598-393.183
				c38.74-125.589,74.735-257.446,35.225-387.601c-32.351-106.526-62.122-237.34-142.016-319.357
				C1951.339,1323.078,1899.598,1312.279,1878.534,1291.085z"/>
			<path id="_x31_80609178_1_" fill="#82C7AE" stroke="#000000" d="M919.119,1798.092c-10.339,67.447,16.824,117.11,28.686,180.681
				c13.189,70.721,13.131,140.485,39.109,208.155c30.97,80.636,74.301,155.839,106.374,236.006
				c62.755,156.912,69.976,327.544,101.332,491.881c13.184,69.068,28.093,144.124,48.303,211.254
				c8.267,27.482,20.46,52.738,30.028,80.155c9.32,26.695,19.98,54.647,34.658,79.436
				c48.305,81.549,143.404,140.743,223.922,185.965c98.01,55.056,239.976,79.635,316.739-24.425
				c79.354-107.569,112.539-244.54,131.006-373.528c12.286-85.791,52.223-167.071,58.498-252.241
				c9.243-125.146,11.221-253.63-9.675-376.066c-21.303-124.821,14.887-274.182,51.597-393.183
				c38.741-125.589,74.735-257.446,35.226-387.601c-32.352-106.526-62.123-237.34-142.016-319.357
				c-21.566-22.146-73.307-32.943-94.373-54.138c-4.059-4.085-6.985-8.552-8.33-13.564
				c103.455-29.666,167.517,105.428,197.604,177.622c34.767,83.398,80,151.715,90.098,243.223
				c12.48,113.063-6.366,226.097-28.554,336.704c-19.096,95.237-55.275,186.851-62.375,284.361
				c-7.086,97.09,12.815,185.944,13.363,282.699c0.633,111.256-5.643,223.33-29.324,332.291
				c-37.901,174.27-66.936,365.886-166.979,516.887c-60.908,91.962-129.979,114.145-237.312,98.223
				c-68.403-10.145-162.312-61.369-220.646-98.781c-69.122-44.343-133.325-115.478-166.538-190.786
				c-58.087-131.628-90.935-278-120.471-418.261c-17.86-84.838-32.378-170.195-48.889-255.273
				c-11.786-60.713-23.255-125.788-42.566-184.934c-16.569-50.673-43.726-97.813-64.849-146.698
				c-24.766-57.336-45.818-109.879-52.24-172.857c-9.998-98.218-53.715-194.584-52.401-293.847
				c0.179-12.185,39.799-126.855,47.938-112.69c2.132,3.708,3.734,7.73,4.93,11.978
				C940.231,1720.215,923.846,1767.142,919.119,1798.092z"/>
			<path id="_x31_80609179_1_" fill="#9AD2BD" stroke="#000000" d="M1021.794,1644.597c-26.901,16.91-69.115,20.217-90.804,42.785
				c-1.195-4.247-2.798-8.269-4.932-11.978c-8.137-14.165-47.757,100.506-47.937,112.69
				c-1.313,99.263,42.403,195.629,52.402,293.847c6.421,62.979,27.473,115.521,52.239,172.857
				c21.123,48.887,48.28,96.026,64.849,146.697c19.312,59.146,30.78,124.222,42.567,184.936
				c16.51,85.078,31.028,170.435,48.888,255.272c29.535,140.261,62.384,286.634,120.471,418.262
				c33.213,75.309,97.415,146.441,166.539,190.786c58.334,37.412,152.242,88.637,220.646,98.78
				c107.334,15.923,176.402-6.261,237.312-98.223c100.042-151,129.078-342.615,166.979-516.886
				c23.681-108.961,29.957-221.036,29.324-332.291c-0.549-96.756-20.448-185.609-13.362-282.7
				c7.098-97.51,43.279-189.124,62.373-284.361c22.188-110.607,41.036-223.641,28.554-336.703
				c-10.096-91.508-55.33-159.823-90.097-243.224c-30.088-72.194-94.149-207.286-197.604-177.621
				c1.346,5.013,4.273,9.479,8.331,13.565c-24.484,7.126-49.228,23.744-70.854,31.974c-24.731,9.411-45.383,7.85-56.899-31.438
				c-21.667-73.976-6.43-119.809,57.732-138.857c20.098,1.183,47.024-6.857,58.593-5.973c31.981,2.449,61.996,13.977,88.72,31.486
				c22.103,14.479,47.117,23.782,64.902,43.387c22.521,24.798,35.703,61.737,66.853,78.158
				c27.503,14.494,58.223,12.107,85.108,31.56c57.788,41.829,72.671,111.656,95.241,175.104
				c36.286,102.025,48.321,215.227,63.419,321.718c8.366,58.964,18.263,118.561,26.605,177.973
				c11.928,84.93-6.324,166.34-5.142,250.472c1.24,87.441-33.718,177-28.062,262.134c9.644,145.339-18.502,269.425-67.613,404.126
				c-19.519,53.535-8.356,113.642-19.459,169.337c-11.294,56.689-63.737,87.756-85.069,138.251
				c-42.624,100.967-63.22,210.302-113.614,308.151c-40.723,79.063-84.898,147.545-153.429,204.087
				c-113.372,93.542-255.167,9.623-356.089-59.542c-105.658-72.398-204.254-165.819-282.255-266.915
				c-35.787-46.396-60.223-108.163-80.719-162.562c-18.949-50.352-24.547-105.232-48.132-153.955
				c-23.235-48.007-51.612-94.651-70.945-144.701c-28.607-74.112-78.921-146.769-77.75-229.027
				c0.891-62.931,23.395-122.019,1.172-184.618c-18.085-50.949-43.074-113.182-86.602-147.857
				c-36.111-28.774-48.045-70.855-51.964-117.23c-5.708-67.59,5.636-144.313-15.958-202.294
				c-20.357-54.639-44.252-107.479-50.396-166.971c-6.849-66.272,21.683-141.759,17.03-208.847
				c5.697-44.315,13.813-82.239,40.896-119.937c30.251-42.107,87.378-76.558,133.014-98.211
				c26.591-12.615,74.359-52.588,103.832-29.922c41.704,32.119-1.643,169.655-38.235,193.992
				C1022.243,1644.29,1022.017,1644.454,1021.794,1644.597z"/>
			<path id="_x31_80609181_1_" fill="#9DF0D2" stroke="#000000" d="M1302.907,1930.847c-74.91-28.059-146.914-55.749-177.074-64.004
				c-79.873-21.841-40.951-249.105-45.751-320.518c-4.979-73.95,43.018-178.453,45.15-228.814
				c100.754-65.811,222.248-148.5,378.19-183.688c71.811-16.208,148.759-33.924,222.559-31.556
				c-11.667-0.376-25.132,49.208-25.778,58.46c-1.556,22.632,1.947,49.535,6.221,71.719c10.599,55.07,36.159,106.451,43.643,162.185
				c6.625,49.312,21.893,151.153,23.864,255.675l-6.872,70.935c2.438,59.292-46.787,173.304-101.273,248.647
				c-61.202,84.614-146.188,27.464-221.673,9.897c-33.707-7.848-74.614-27.375-113.248-38.056L1302.907,1930.847z"/>
			<path id="_x31_80609183_1_" fill="#9DF0D2" stroke="#000000" d="M1605.829,1112.947c25.172-3.674,58.125-7.396,82.126,3.433
				c28.807,12.992,15.758,39.455,13.762,63.874c-3.486,42.691,17.164,88.067,24.221,129.748
				c7.81,46.187-27.183,80.511-53.053,114.13c-44.885,58.321-116.84,56.798-183.449,63.72
				c-52.119,5.422-102.633-14.193-151.96-28.08c-59.411-16.722-138.75-44.158-145.138-118.022
				c-2.469-28.557-0.286-60.772,23.643-79.22c28.702-22.142,62.699-36.658,91.223-58.218c24.047-18.174,45.795-22.865,74.473-32.744
				c23.558-8.112,46.283-15.943,70.699-22.244c17.169-4.427,34.37-9.087,51.679-13.198
				C1537.306,1128.231,1572.13,1117.87,1605.829,1112.947z"/>
			<path id="_x31_80609182_1_" fill="#95E4C8" stroke="#000000" d="M1292.035,1926.146c-51.271-19.039-104.52-36.925-154.841-55.938
				c-17.694-6.683-30.437-16.785-28.696-37.083c2.75-31.921,10.154-79.363,42.016-96.196c27.541-14.547,59.934-2.302,88.077,3.113
				c88.339,17.002,189.739,51.03,280.314,42.28c75.898-7.325,117.797-61.076,182.666-90.75
				c123.268-56.386,50.319,159.261-35.795,278.316c-61.192,84.611-146.179,27.465-221.671,9.897
				C1391.679,1967.592,1342.328,1944.826,1292.035,1926.146z"/>
			<path id="_x31_80609184_1_" fill="#9DF0D2" stroke="#000000" d="M1079.738,1532.203c-1.424-39.4,12.371-59.543,60.607-40.205
				c74.902,30.032,153.84,78.361,235.93,78.145c72.756-0.193,179.1-2.051,248.501-26.309
				c52.271-18.266,92.356-43.577,135.132-89.823c25.467,79.239,14.165,176.139,14.165,176.139
				c-31.336-35.184-110.096,51.228-149.204,64.838c-42.909,14.937-93.642,22.005-138.823,26.613
				c-67.048,6.835-132.921-6.429-196.837-25.729c-57.895-17.48-196.764-63.069-213.691,0.347
				C1075.517,1696.218,1081.607,1584.437,1079.738,1532.203z"/>
			<path id="_x31_80609185_1_" fill="#54BF94" stroke="#000000" d="M1467.454,2730.887c-37.792-18.363-40.865-72.398-44.93-109.715
				c-9.078-83.404-5.009-166.657-24.925-248.705c-14.243-58.716-23.728-118.399-30.266-178.434
				c-3.149-28.87-21.18-107.379,5.234-129.156c67.4-55.427,135.209,122.971,148.104,162.478
				c30.387,93.041,50.035,190.783,62.235,287.799c6.406,50.894,31.07,157.147-8.756,200.197
				C1542.303,2749.779,1495.17,2744.347,1467.454,2730.887z"/>
			<path id="_x31_80609186_1_" fill="#54BF94" stroke="#000000" d="M1467.454,2730.887c-37.792-18.363-40.865-72.398-44.93-109.715
				c-9.078-83.404-5.009-166.657-24.925-248.705c-14.243-58.716-23.728-118.399-30.266-178.434
				c-3.149-28.87-21.18-107.379,5.234-129.156c67.4-55.427,135.209,122.971,148.104,162.478
				c30.387,93.041,50.035,190.783,62.235,287.799c6.406,50.894,31.07,157.147-8.756,200.197
				C1542.303,2749.779,1495.17,2744.347,1467.454,2730.887z"/>
			<path id="_x31_80609188_1_" fill="#CCCCCC" stroke="#000000" d="M1757.854,1949.632c10.36-18.362,32.274-77.75,24.373-58.294
				c-3.562,8.761,27.621-99.105,23.693-147.889c-3.819-47.563,12.952-116.08-47.976-119.168
				c-41.895-2.126-93.984,57.198-133.094,70.808c-42.911,14.934-93.647,22.006-138.822,26.61
				c-67.056,6.833-132.922-6.426-196.838-25.726c-57.894-17.483-196.765-63.071-213.691,0.341
				c-30.845,115.563-30.696,245.361,2.339,380.408c70.643,288.71,169.011,548.574,211.338,852.72
				c6.617,47.573,38.129,214.84,88.973,239.703c45.042,22.02,17.065-76.633,8.265-110.564
				c-42.915-165.349-65.331-310.607-98.602-449.433c-25.545-106.58-60.529-208.921-97.582-316.4
				c-39.504-114.565-78.738-216.471-78.281-338.824c0.192-52.223-14.55-134.943,8.07-182.408
				c26.817-56.286,66.981-41.303,118.557-31.373c88.322,16.998,189.73,51.028,280.313,42.28
				c75.89-7.33,117.788-61.077,182.673-90.749c123.261-56.382,50.309,159.252-35.799,278.301
				c-61.199,84.61-146.18,27.462-221.669,9.899c-51.067-11.89-118.696-50.605-169.868-44.72
				c-100.467,11.559,17.755,111.188,33.359,160.265c6.199,19.552,2.332,84.605,33.981,84.558
				c38.046-0.063-1.277-89.836,30.997-115.029c68.769-53.685,135.192,122.977,148.097,162.479
				c30.386,93.036,50.029,190.772,62.24,287.783c6.402,50.89,28.786,155.14-8.757,200.186
				c-32.758,39.294-98.414,27.54-127.668,0.477c9.93,3.677,57.615,96.4,67.738,108.117c40.027,46.383,55.326,205.647,130.081,80.419
				c34.086-57.078,53.999-127.376,57.306-193.473c3.624-72.37-48.017-106.868-50.473-169.99l0.376-10.487
				c1.311-16.788,3.995-33.254,4.304-43.31c2.196-71.162-19.291-145.302-39.464-213.157c-9.981-33.6-6.921-76.021-24.745-105.639
				c-13.929-23.156-59.281-45.483-45.464-79.396c10.592-25.903,57.594-27.854,79.524-33.248c11.634-2.863,23.55-7.367,34.2-12.824
				c22.075-11.286,41.884-27.532,59.733-45.584C1734.864,1981.867,1747.177,1968.567,1757.854,1949.632z"/>
			<path id="_x31_80609189_1_" fill="#CCCCCC" stroke="#000000" d="M1390.47,3698.034
				c108.093,101.548,247.496,219.334,400.291,229.214c297.243,19.234,608.378-136.117,726.146-414.901
				c111.779-264.571,112.315-617.794,122.567-901.767c4.62-128.271-22.867-256.932-46.279-382.641
				c-63.568-341.271,16.699-815.81-326.483-1022.955c243.892,148.025,280.374,459.367,263.157,720.195
				c-12.205,185.09,17.903,379.833,31.732,565.111c20.562,275.542-61.821,583.242-190.941,825.789
				c-56.22,105.639-97.229,221.862-148.077,329.92c-46.33,98.439-90.334,186.986-198.893,229.589
				c-53.904,21.159-112.483,28.004-169.498,35.545C1667.666,3935.793,1517.051,3816.942,1390.47,3698.034z"/>
			<path id="_x31_80609187_1_" fill="#AAAAAA" stroke="#000000" d="M1695.287,2366.784c4.602,49.585-1.953,98.708,1.932,148.377
				c1.488,18.852,5.779,104.53-35.574,69.188c-19.852-16.967-6.56-74.048-5.835-97.203c2.197-71.162-19.291-145.303-39.463-213.157
				c-9.981-33.6-6.922-76.021-24.745-105.64c-13.929-23.156-59.281-45.482-45.464-79.395c10.592-25.904,57.595-27.853,79.523-33.248
				c42.55-10.466,61.408-31.68,94.079-58.271c15.039-12.244,53.517-40.51,66.294-12.662c6.106,13.313-15.121,46.799-19.981,58.021
				c-19.116,44.175-42.118,88.842-53.733,135.675C1697.246,2239.308,1689.17,2301.048,1695.287,2366.784z"/>
		</g>
	</g>
</g>
</svg>
