<?xml version="1.0" encoding="utf-8"?>
<!-- Generator: Adobe Illustrator 16.0.0, SVG Export Plug-In . SVG Version: 6.00 Build 0)  -->
<!DOCTYPE svg PUBLIC "-//W3C//DTD SVG 1.1//EN" "http://www.w3.org/Graphics/SVG/1.1/DTD/svg11.dtd">
<svg version="1.1" id="Layer_1" xmlns="http://www.w3.org/2000/svg" xmlns:xlink="http://www.w3.org/1999/xlink" x="0px" y="0px"
	 width="4608px" height="4160px" viewBox="0 0 4608 4160" enable-background="new 0 0 4608 4160" xml:space="preserve">
<g>
	<g transform="scale(1.0)">
		<g id="_x31_80608757" transform=" scale(1.0, 1.0)">
			<path id="_x31_80608759" fill="#BFDAE3" stroke="#000000" d="M4336.945,1387.763c12.916,61.006,20.615,123.974,25.322,189.758
				c5.41,75.421,1.873,144.573-3.35,219.26c-10.988,157.486-52.584,311.643-81.115,467.208
				c-18.934,103.219-14.049,210.084-35.092,313.997c-45.404,224.188-146.264,405.212-291.902,577.479
				c-104.949,124.139-225.199,243.985-371.037,316.91c-150.633,75.332-296.742,107.469-462.283,68.391
				c-155.477-36.709-304.053-68.766-443.386-151.631c-341.388-203.041-393.896-620.235-362.163-980.267
				c14.197-161.062,6.952-320.341,19.818-481.318c8.01-100.167,22.455-200.519,36.463-300.462
				c14.525-103.633,34.311-205.789,52.904-308.718c28.4-157.201,57.683-309.157,163.845-435.771
				c100.653-120.042,258.997-211.835,409.529-251.472c87.001-22.909,187.095-33.023,277.021-26.955
				c168.199,11.347,357.133,30.484,512.666,98.657c87.664,38.428,179.84,101.351,245.553,171.409
				c65.4,69.726,133.854,136.025,186.264,216.722C4278.389,1187.034,4315.119,1284.595,4336.945,1387.763z"/>
			<path id="_x31_80608760" fill="#B0FFB8" stroke="#000000" d="M4336.945,1387.769c-21.828-103.167-58.559-200.732-120.941-296.802
				c-52.412-80.699-120.861-147.002-186.262-216.727c-65.717-70.06-157.896-132.979-245.561-171.41
				c-155.529-68.175-344.469-87.309-512.664-98.657c-89.932-6.066-190.021,4.046-277.028,26.956
				c-150.528,39.634-308.874,131.428-409.532,251.47c-106.158,126.616-135.443,278.573-163.844,435.774
				c-18.598,102.932-38.383,205.09-52.904,308.719c-14.01,99.944-28.457,200.295-36.465,300.462
				c-12.867,160.982-5.621,320.259-19.819,481.323c-31.73,360.034,20.772,777.229,362.165,980.272
				c139.329,82.866,287.913,114.921,443.383,151.63c165.547,39.08,311.652,6.94,462.291-68.386
				c145.84-72.929,266.088-192.776,371.035-316.917c145.643-172.264,246.506-353.293,291.908-577.478
				c21.051-103.918,16.162-210.783,35.098-314.004c28.525-155.563,70.123-309.723,81.113-467.208
				c5.227-74.688,8.754-143.839,3.354-219.264C4357.561,1511.743,4349.863,1448.771,4336.945,1387.769z M3365.836,1547.964
				c-13.031,48.108-51.943,92.733-74.615,137.341c-30.426,59.876-48.078,122.167-61.371,187.734
				c-11.795-38.353,14.844-92.896,22.516-130.512c16.795-82.463,12.045-168.909,16.447-252.554
				c1.451-27.729-12.117-171.462,51.043-157.565c25.697,5.657,34.822,42.064,39.107,63.245
				C3369.063,1445.536,3379.459,1497.67,3365.836,1547.964z"/>
			<path id="_x31_80608761" fill="#9AD2BD" stroke="#000000" d="M4336.945,1387.763c-21.826-103.168-58.557-200.729-120.943-296.8
				c-52.41-80.697-120.863-146.997-186.264-216.723c-65.713-70.059-157.891-132.981-245.553-171.409
				c-155.531-68.172-344.469-87.311-512.666-98.656c-89.926-6.069-190.02,4.045-277.02,26.955
				c-150.532,39.636-308.876,131.429-409.53,251.471c-106.162,126.613-135.445,278.569-163.845,435.771
				c-18.594,102.929-38.379,205.084-52.902,308.717c-14.01,99.944-28.454,200.295-36.464,300.462
				c-12.866,160.978-5.622,320.257-19.819,481.318c-31.732,360.031,20.775,777.226,362.163,980.267
				c139.333,82.865,287.909,114.921,443.388,151.631c165.539,39.078,311.648,6.94,462.281-68.391
				c145.838-72.925,266.088-192.771,371.037-316.91c145.637-172.266,246.498-353.291,291.902-577.479
				c21.045-103.913,16.158-210.778,35.092-313.997c28.531-155.564,70.127-309.723,81.115-467.208
				c5.223-74.687,8.758-143.838,3.35-219.26C4357.561,1511.737,4349.861,1448.769,4336.945,1387.763z M3365.836,1547.964
				c-13.031,48.108-51.943,92.733-74.615,137.341c-30.426,59.876-48.078,122.167-61.371,187.734
				c-11.795-38.353,14.844-92.896,22.516-130.512c16.795-82.463,12.045-168.909,16.447-252.554
				c1.451-27.729-12.117-171.462,51.043-157.565c25.697,5.657,34.822,42.064,39.107,63.245
				C3369.063,1445.536,3379.459,1497.67,3365.836,1547.964z"/>
			<path id="_x31_80608762" fill="#9AD2BD" stroke="#000000" d="M4336.945,1387.769c-21.828-103.167-58.559-200.732-120.941-296.802
				c-52.412-80.699-120.861-147.002-186.262-216.727c-65.717-70.06-157.896-132.979-245.561-171.41
				c-155.529-68.175-344.469-87.309-512.664-98.657c-89.932-6.066-190.021,4.046-277.028,26.956
				c-150.528,39.634-308.874,131.428-409.532,251.47c-106.158,126.616-135.443,278.573-163.844,435.774
				c-18.598,102.932-38.383,205.09-52.904,308.719c-14.01,99.944-28.457,200.295-36.465,300.462
				c-12.867,160.982-5.621,320.259-19.819,481.323c-31.73,360.034,20.772,777.229,362.165,980.272
				c139.329,82.866,287.913,114.921,443.383,151.63c165.547,39.08,311.652,6.94,462.291-68.386
				c145.84-72.929,266.088-192.776,371.035-316.917c145.643-172.264,246.506-353.293,291.908-577.478
				c21.051-103.918,16.162-210.783,35.098-314.004c28.525-155.563,70.123-309.723,81.113-467.208
				c5.227-74.688,8.754-143.839,3.354-219.264C4357.561,1511.743,4349.863,1448.771,4336.945,1387.769z M3365.836,1547.964
				c-13.031,48.108-51.943,92.733-74.615,137.341c-30.426,59.876-48.078,122.167-61.371,187.734
				c-11.795-38.353,14.844-92.896,22.516-130.512c16.795-82.463,12.045-168.909,16.447-252.554
				c1.451-27.729-12.117-171.462,51.043-157.565c25.697,5.657,34.822,42.064,39.107,63.245
				C3369.063,1445.536,3379.459,1497.67,3365.836,1547.964z"/>
			<path id="_x31_80608763" fill="#82C7AE" stroke="#000000" d="M2474.384,1414.048c7.735,65.786,15.939,125.805,29.229,189.465
				c34.888,167.131-23.86,325.2-41.153,490.872c-28.805,275.931-15.102,594.951,102.264,851.329
				c29.681,64.816,75.138,125.416,125.34,175.907c141.702,142.531,295.495,268.896,501.314,299.827
				c51.961,7.809,112.707,18.281,164.816,10.859c59.51-8.483,127.234-44.106,176.414-77.449
				c67.416-45.707,99.209-109.767,138.285-178.796c51.898-91.684,80.912-195.678,107.682-296.989
				c22.393-84.754,27.188-172.796,46-258.006c16.84-76.304,78.895-155.54,138.498-203.333
				c51.107-40.979,98.629-89.349,120.139-150.915c24.883-71.212,54.148-142.906,87.477-210.562
				c31.039-63.001,77.383-118.66,96.992-186.88c21.02-73.133,29.643-152.622,30.887-228.488
				c1.213-74.113,1.379-159.14-5.977-244.307c-10.303-119.279-35.346-238.814-92.842-328.954c-2.633-4.122-5.326-8.19-8.066-12.218
				c-48.217-65.104-105.889-121.795-161.373-180.946c-65.715-70.054-157.881-132.973-245.551-171.397
				c-155.525-68.168-344.453-87.305-512.648-98.646c-89.93-6.064-190.018,4.048-277.014,26.955
				c-91.677,24.14-186.251,67.621-268.928,125.048c-17.439,13.689-33.843,28.45-48.903,44.363
				C2529.375,957.034,2449.23,1200.255,2474.384,1414.048z M2933.396,747.986c80.771-55.292,170.682-73.103,263.213-78.003
				c60.324-3.188,121.748-0.895,182.488,0.083c64.135,1.029,104.848,20.552,164.887,41.433
				c77.678,27.013,154.744,62.765,226.725,102.37c128.498,70.696,254.256,165.261,316.65,302.02
				c71.094,155.858,58.445,370.019-0.898,528.606c-22.918,61.25-63.213,113.792-101.064,166.377
				c-34.82,48.38-61.127,98.47-97.703,145.676c-32.18,41.541-50.82,90.652-90.615,125.142
				c-38.314,33.212-60.668,75.156-91.193,114.711c-49.068,63.598-95.424,110.047-115.014,190.564
				c-26.59,109.345,20.352,207.448,14.125,316.776c-8.215,144.219-33.174,279.387-94.711,411.618
				c-25.783,55.393-50.564,127.055-104.762,161.131c-70.457,44.301-168.598,29.907-244.184,7.104
				c-55.639-16.781-130.438-50.757-171.219-93.262c-40.787-42.504-61.798-99.155-97.245-145.702
				c-64.388-84.571-138.722-162.309-186.751-258.153c-30.816-61.499-60.665-140.916-73.995-208.393
				c-7.193-36.392-2.276-71.371-1.502-108.027c1.032-48.697-10.401-97.33-21.218-144.668
				c-16.364-71.632,4.578-123.193,36.092-185.979c34.779-69.303,60.031-158.294,72.919-234.73
				c5.168-30.659-2.729-59.946,3.224-90.768c8.863-45.82,31.167-88.385,26.575-136.359c-5.427-56.671-27.478-120.559-41.349-176.47
				c-14.419-58.164-45.034-107.313-45.227-170.233c-0.239-79.405,15.495-166.366,37.761-242.325
				C2738.162,956.342,2818.365,826.741,2933.396,747.986z"/>
			<path id="_x31_80608767" fill="#82C7AE" stroke="#000000" d="M3251.801,1742.345c16.797-82.467,12.045-168.919,16.447-252.569
				c0.973-18.636,6.969-118.988,6.969-118.988c-19.715-25.029-51.914-55.336-46.148-89.296c6.4-37.698,44.049-61.724,79.258-67.957
				c136.529-24.151,171.98,145.366,156.787,245.169c-18.414,120.968-89.223,225.028-145.094,330.542
				c-92.551,174.807-153.359,376.901-151.779,575.64c0.178,21.729,28.664,207.172-23.314,183.83
				c-32.299-14.501-51.771-79.609-60.424-110.932c-12.145-43.979-9.801-96.6-2.037-141.438
				c8.537-49.248,36.143-100.146,58.162-144.688c39.887-80.691,87.512-274.638,88.66-278.793
				C3217.494,1834.51,3244.131,1779.965,3251.801,1742.345z M3644.324,1785.214c69.572-72.933,137.197-148.897,184.826-238.382
				c61.346-115.226,42.836-256.695-34.441-358.222c-58.961-77.456-127.16-138.833-204.785-197.189
				c-153.803-115.637-378.119-243.097-546.639-70.843c-92.293,94.341-122.332,251.067-104.632,379.092
				c14.25,102.99,74.537,191.035,98.792,291.106c22.32,92.117,17.037,192.349,2.368,285.253
				c-14.946,94.6-89.833,171.588-127.194,257.319c-85.102,195.263-69.838,389.18,25.535,576.578
				c47.937,94.206,121.896,232.057,226.934,270.77c110.66,40.791,170.766-65.727,181.668-160.407
				c10.105-87.661,4.58-175.866-1.189-264.007c-9.977-152.348-18.369-320.756,41.428-464.899
				c21.877-52.704,54.305-97.969,91.332-139.815C3530.086,1893.091,3590.836,1841.29,3644.324,1785.214z"/>
			<path id="_x31_80608766" fill="#9AD2BD" stroke="#000000" d="M3013.985,1756.373
				c-13.994,248.978-231.986,453.409-208.746,711.428c9.467,105.105,58.046,202.045,103.248,296.309
				c50.099,104.53,169.048,226.941,274.987,275.605c199.646,91.707,182.535-232.07,193.068-332.26
				c7.148-68.02,12.416-139.188,10.066-207.318c-2.479-72.059-10.055-141.604-1.27-213.777
				c13.148-108.15,46.701-216.354,122.436-297.105c0.266-0.285,0.539-0.569,0.803-0.855
				c68.43-72.497,156.717-126.517,217.572-206.507c33.984-44.668,56.896-97.391,93.742-140.931
				c67.047-79.241,121.861-167.675,112.893-275.583c-10.203-122.885-98.197-191.056-167.822-281.462
				c-42.867-55.658-93.838-98.289-145.125-145.601c-85.154-78.561-168.91-120.054-283.227-139.239
				c-234.996-39.433-461.736,173.552-458.275,409.375c1.077,73.625,22.421,156.167,51.197,223.751
				C2974.354,1537.487,3020.592,1638.823,3013.985,1756.373z M2939.221,1299.884c-17.696-128.02,12.342-284.733,104.637-379.069
				c168.521-172.244,392.838-44.797,546.639,70.831c77.621,58.351,145.82,119.724,204.781,197.178
				c77.273,101.515,95.783,242.973,34.436,358.193c-47.631,89.479-115.258,165.442-184.83,238.375
				c-53.486,56.069-114.238,107.868-165.996,166.34c-37.027,41.846-69.455,87.106-91.334,139.808
				c-59.807,144.135-51.408,312.532-41.434,464.868c5.768,88.137,11.293,176.338,1.188,263.989
				c-10.904,94.676-71.021,201.19-181.67,160.4c-105.037-38.709-178.996-176.55-226.933-270.749
				c-95.369-187.385-110.632-381.289-25.525-576.54c37.361-85.729,112.249-162.711,127.195-257.306
				c14.669-92.897,19.958-193.125-2.363-285.236C3013.754,1490.908,2953.469,1402.868,2939.221,1299.884z"/>
			<path id="_x31_80608765" fill="#82C7AE" stroke="#000000" d="M3507.219,1989.089c-75.729,80.756-109.285,188.968-122.434,297.123
				c-8.775,72.178-1.207,141.729,1.275,213.793c2.348,68.134-2.91,139.306-10.066,207.33
				c-10.531,100.201,6.586,423.995-193.064,332.28c-105.938-48.669-224.891-171.089-274.992-275.627
				c-45.201-94.27-93.781-191.214-103.252-296.331c-23.239-258.036,194.75-462.472,208.738-711.469
				c6.605-117.557-39.633-218.9-84.458-324.196c-28.776-67.586-50.121-150.136-51.199-223.765
				c-3.462-235.838,223.274-448.832,458.269-409.396c114.318,19.189,198.078,60.688,283.23,139.253
				c51.287,47.315,102.26,89.949,145.127,145.608c69.627,90.417,157.621,158.596,167.828,281.486
				c8.971,107.917-45.844,196.356-112.891,275.601c-36.844,43.542-59.756,96.268-93.738,140.934
				c-60.855,79.998-149.141,134.021-217.572,206.521C3507.756,1988.52,3507.484,1988.805,3507.219,1989.089z M3769.191,1786.99
				c28.324-44.463,55.188-89.939,86.193-126.133c73.404-85.704,135.607-180.501,119.418-298.531
				c-20.322-148.202-84.668-188.041-176.35-299.001c-102.281-123.807-225.68-248.235-385.928-289.745
				c-156.633-40.567-336.941,22.058-457.861,126.218c-124.196,106.979-136.376,255.853-95.36,409.658
				c18.026,67.591,41.587,139.225,65.741,207.092c21.763,61.161,59.078,122.435,62.67,188.256
				c6.282,115.429-66.055,241.157-103.635,347.302c-40.075,113.208-86.731,224.078-107.375,341.266
				c-31.364,177.991,67.712,356.661,166.085,496.864c80.581,114.84,345.335,332.166,445.382,122.599
				c27.109-56.79,35.084-128.271,38.328-190.443c3.881-74.151,1.85-151.079-5.674-224.983
				c-19.012-187.005-19.223-349.854,71.918-518.965c34.967-64.893,88.662-110.633,149.203-147.543
				C3694.492,1898.857,3733.031,1843.75,3769.191,1786.99z"/>
			<path id="_x31_80608764" fill="#9AD2BD" stroke="#000000" d="M2661.647,1330.851c0.193,62.92,30.807,112.069,45.227,170.234
				c13.872,55.91,35.921,119.797,41.348,176.47c4.592,47.973-17.711,90.539-26.575,136.359c-5.952,30.821,1.945,60.108-3.224,90.768
				c-12.886,76.436-38.139,165.428-72.917,234.73c-31.515,62.786-52.457,114.349-36.094,185.979
				c10.816,47.339,22.25,95.97,21.22,144.668c-0.775,36.656-5.693,71.636,1.5,108.026c13.331,67.477,43.179,146.894,73.996,208.393
				c48.029,95.847,122.362,173.583,186.751,258.154c35.446,46.546,56.457,103.198,97.244,145.701
				c40.78,42.505,115.58,76.482,171.219,93.263c75.588,22.802,173.729,37.196,244.184-7.104
				c54.197-34.075,78.98-105.74,104.762-161.133c61.537-132.231,86.494-267.398,94.711-411.617
				c6.227-109.328-40.715-207.432-14.125-316.776c19.59-80.517,65.947-126.967,115.016-190.564
				c30.523-39.555,52.877-81.499,91.191-114.713c39.795-34.486,58.436-83.599,90.617-125.139
				c36.574-47.206,62.881-97.297,97.701-145.677c37.852-52.584,78.145-105.125,101.066-166.376
				c59.344-158.586,71.99-372.748,0.896-528.607c-62.395-136.759-188.152-231.322-316.65-302.02
				c-71.98-39.605-149.047-75.357-226.727-102.369c-60.037-20.882-100.748-40.402-164.883-41.434
				c-60.742-0.978-122.166-3.271-182.49-0.082c-92.531,4.9-182.442,22.711-263.213,78.002
				c-115.029,78.756-195.233,208.356-233.989,340.538C2677.144,1164.485,2661.409,1251.446,2661.647,1330.851z M2955.236,900.038
				c120.922-104.156,301.23-166.779,457.865-126.213c160.244,41.502,283.641,165.921,385.92,289.718
				c91.68,110.953,156.023,150.79,176.346,298.984c16.188,118.019-46.02,212.811-119.422,298.511
				c-31.004,36.192-57.869,81.669-86.195,126.125c-36.158,56.757-74.699,111.862-127.246,143.902
				c-60.539,36.907-114.236,82.647-149.205,147.535c-91.141,169.102-90.934,331.939-71.924,518.934
				c7.521,73.899,9.553,150.822,5.672,224.97c-3.244,62.168-11.221,133.644-38.33,190.43
				c-100.051,209.555-364.802-7.757-445.381-122.589c-98.371-140.188-197.446-318.849-166.086-496.825
				c20.651-117.187,67.307-228.045,107.388-341.248c37.58-106.139,109.919-231.859,103.637-347.28
				c-3.591-65.816-40.905-127.087-62.668-188.243c-24.152-67.862-47.711-139.492-65.736-207.078
				C2818.858,1155.877,2831.039,1007.012,2955.236,900.038z"/>
			<path id="_x31_80608769" fill="#CCCCCC" stroke="#000000" d="M4337.498,1387.961c-21.826-103.159-58.547-200.721-120.936-296.781
				c-7.947-12.232-16.266-24.133-24.883-35.766c2.742,4.027,5.436,8.096,8.066,12.218c57.498,90.139,82.539,209.675,92.842,328.954
				c7.357,85.166,7.191,170.193,5.977,244.306c-1.242,75.867-9.865,155.355-30.885,228.489
				c-19.609,68.219-65.951,123.879-96.994,186.88c-33.328,67.655-62.594,139.349-87.475,210.561
				c-21.51,61.565-69.031,109.937-120.139,150.915c-59.604,47.793-121.66,127.03-138.5,203.333
				c-18.811,85.21-23.605,173.252-45.998,258.006c-26.771,101.313-55.783,205.306-107.682,296.989
				c-39.076,69.029-70.869,133.089-138.287,178.796c-49.178,33.343-116.904,68.967-176.414,77.45
				c-52.109,7.421-112.854-3.052-164.816-10.86c-205.818-30.932-359.611-157.297-501.313-299.826
				c-50.202-50.492-95.658-111.093-125.339-175.908c-117.366-256.378-131.067-575.398-102.266-851.328
				c17.294-165.672,76.041-323.742,41.154-490.873c-13.289-63.66-21.495-123.678-29.229-189.464
				c-25.154-213.794,54.991-457.014,202.88-613.258c15.06-15.912,31.463-30.673,48.903-44.362
				c-53.075,36.866-101.249,79.479-140.604,126.41c-106.157,126.604-135.442,278.552-163.844,435.747
				c-18.6,102.923-38.385,205.072-52.906,308.699c-14.011,99.935-28.456,200.284-36.465,300.444
				c-12.869,160.967-5.625,320.239-19.822,481.287c-31.733,360.012,20.767,777.184,362.147,980.206
				c139.325,82.861,287.898,114.916,443.37,151.624c165.541,39.072,311.643,6.937,462.277-68.389
				c145.838-72.924,266.084-192.766,371.029-316.896c145.637-172.257,246.5-353.271,291.904-577.449
				c21.049-103.905,16.162-210.766,35.102-313.977c28.523-155.553,70.121-309.706,81.113-467.181
				c5.227-74.68,8.756-143.829,3.355-219.249C4358.111,1511.929,4350.418,1448.961,4337.498,1387.961z"/>
			<path id="_x31_80608770" fill="#CCCCCC" stroke="#000000" d="M3229.85,1873.04c17.799-64.049,22.309-114.607,61.369-187.734
				c23.576-44.14,61.586-89.233,74.615-137.341c13.625-50.295,3.229-102.429-6.873-152.311
				c-4.283-21.181-13.41-57.589-39.115-63.248c-20.664-4.543-36.623,20.347-44.064,38.587
				c-19.715-25.027-51.912-55.333-46.145-89.291c6.398-37.695,44.047-61.722,79.256-67.953
				c136.529-24.151,171.979,145.359,156.783,245.151c-18.422,120.962-89.225,225.015-145.096,330.521
				c-92.553,174.8-153.365,376.879-151.787,575.606c0.178,21.728,28.66,207.159-23.316,183.821
				c-32.299-14.5-51.77-79.604-60.424-110.926c-12.145-43.976-9.801-96.594-2.033-141.43c8.537-49.244,36.143-100.14,58.162-144.678
				C3181.07,2071.13,3228.699,1877.194,3229.85,1873.04z"/>
			<path id="_x31_80608768" fill="#AAAAAA" stroke="#000000" d="M3229.85,1873.04c17.799-64.049,22.309-114.607,61.369-187.734
				c23.576-44.14,61.586-89.233,74.615-137.341c13.625-50.295,3.229-102.429-6.873-152.311
				c-4.283-21.181-13.41-57.589-39.115-63.248c-20.664-4.543-36.623,20.347-44.064,38.587c-19.715-25.027-20.279-25.235-0.566-0.204
				c0,0-5.994,100.35-6.969,118.986c-4.402,83.651,0.35,170.104-16.445,252.57c-7.67,37.619-34.309,92.164-22.514,130.519
				C3228.139,1877.021,3228.699,1877.194,3229.85,1873.04z"/>
		</g>
	</g>
	<g transform="scale(1.0)">
		<g id="_x31_80608757_1_" transform=" scale(1.0, 1.0)">
			<path id="_x31_80608759_1_" fill="#BFDAE3" stroke="#000000" d="M391.998,1090.96c52.411-80.697,120.863-146.997,186.265-216.722
				c65.713-70.059,157.889-132.982,245.553-171.409c155.532-68.173,344.467-87.311,512.666-98.658
				c89.926-6.068,190.02,4.046,277.021,26.955c150.532,39.637,308.876,131.43,409.529,251.472
				c106.162,126.613,135.444,278.569,163.845,435.77c18.594,102.929,38.379,205.084,52.904,308.718
				c14.008,99.943,28.453,200.294,36.463,300.462c12.866,160.978,5.621,320.257,19.818,481.318
				c31.732,360.031-20.775,777.226-362.163,980.267c-139.333,82.865-287.909,114.922-443.387,151.631
				c-165.54,39.078-311.649,6.941-462.283-68.391c-145.838-72.925-266.087-192.771-371.036-316.91
				c-145.64-172.267-246.499-353.29-291.902-577.479c-21.044-103.913-16.158-210.778-35.092-313.997
				c-28.531-155.564-70.127-309.722-81.116-467.208c-5.222-74.687-8.759-143.838-3.349-219.26
				c4.707-65.785,12.406-128.752,25.321-189.758C292.88,1284.595,329.612,1187.034,391.998,1090.96z"/>
			<path id="_x31_80608760_1_" fill="#B0FFB8" stroke="#000000" d="M245.729,1577.524c-5.4,75.425-1.873,144.576,3.353,219.264
				c10.99,157.485,52.589,311.645,81.113,467.208c18.937,103.221,14.048,210.086,35.098,314.004
				c45.403,224.185,146.267,405.214,291.908,577.478c104.947,124.141,225.195,243.988,371.036,316.917
				c150.639,75.326,296.743,107.466,462.29,68.386c155.471-36.709,304.055-68.764,443.384-151.63
				c341.393-203.043,393.894-620.238,362.165-980.272c-14.198-161.064-6.952-320.341-19.819-481.323
				c-8.008-100.167-22.455-200.518-36.465-300.462c-14.521-103.629-34.307-205.787-52.904-308.719
				c-28.4-157.201-57.686-309.158-163.844-435.774c-100.658-120.042-259.004-211.836-409.532-251.47
				c-87.007-22.91-187.097-33.022-277.029-26.956c-168.194,11.349-357.134,30.482-512.664,98.657
				c-87.664,38.432-179.843,101.351-245.56,171.41c-65.401,69.725-133.85,136.027-186.262,216.727
				c-62.383,96.069-99.114,193.634-120.942,296.801C258.137,1448.771,250.44,1511.743,245.729,1577.524z M1249.037,1395.653
				c4.285-21.18,13.411-57.587,39.108-63.245c63.16-13.896,49.592,129.837,51.043,157.565
				c4.402,83.645-0.348,170.091,16.447,252.554c7.672,37.617,34.311,92.16,22.516,130.512
				c-13.294-65.568-30.946-127.858-61.371-187.734c-22.672-44.608-61.584-89.233-74.615-137.341
				C1228.542,1497.67,1238.937,1445.536,1249.037,1395.653z"/>
			<path id="_x31_80608761_1_" fill="#9AD2BD" stroke="#000000" d="M245.733,1577.523c-5.408,75.421-1.874,144.573,3.349,219.26
				c10.989,157.485,52.585,311.643,81.116,467.208c18.934,103.219,14.047,210.084,35.092,313.997
				c45.403,224.188,146.265,405.213,291.902,577.479c104.949,124.139,225.198,243.985,371.036,316.91
				c150.633,75.331,296.743,107.469,462.282,68.391c155.479-36.71,304.055-68.766,443.388-151.631
				c341.388-203.041,393.895-620.235,362.163-980.267c-14.197-161.062-6.953-320.341-19.819-481.318
				c-8.01-100.167-22.454-200.519-36.464-300.462c-14.523-103.633-34.309-205.788-52.902-308.717
				c-28.399-157.201-57.683-309.157-163.845-435.77c-100.654-120.042-258.998-211.835-409.53-251.471
				c-87-22.91-187.094-33.024-277.021-26.955c-168.197,11.346-357.134,30.484-512.665,98.657
				c-87.663,38.427-179.84,101.35-245.553,171.409c-65.401,69.725-133.854,136.025-186.265,216.723
				c-62.386,96.071-99.117,193.631-120.943,296.799C258.139,1448.769,250.44,1511.737,245.733,1577.523z M1249.037,1395.653
				c4.285-21.18,13.411-57.587,39.108-63.245c63.16-13.896,49.592,129.837,51.043,157.565
				c4.402,83.645-0.348,170.091,16.447,252.554c7.672,37.617,34.311,92.16,22.516,130.512
				c-13.294-65.568-30.946-127.858-61.371-187.734c-22.672-44.608-61.584-89.233-74.615-137.341
				C1228.542,1497.67,1238.937,1445.536,1249.037,1395.653z"/>
			<path id="_x31_80608762_1_" fill="#9AD2BD" stroke="#000000" d="M245.729,1577.524c-5.4,75.425-1.873,144.576,3.353,219.264
				c10.99,157.485,52.589,311.645,81.113,467.208c18.937,103.221,14.048,210.086,35.098,314.004
				c45.403,224.185,146.267,405.214,291.908,577.478c104.947,124.141,225.195,243.988,371.036,316.917
				c150.639,75.326,296.743,107.466,462.29,68.386c155.471-36.709,304.055-68.764,443.384-151.63
				c341.393-203.043,393.894-620.238,362.165-980.272c-14.198-161.064-6.952-320.341-19.819-481.323
				c-8.008-100.167-22.455-200.518-36.465-300.462c-14.521-103.629-34.307-205.787-52.904-308.719
				c-28.4-157.201-57.686-309.158-163.844-435.774c-100.658-120.042-259.004-211.836-409.532-251.47
				c-87.007-22.91-187.097-33.022-277.029-26.956c-168.194,11.349-357.134,30.482-512.664,98.657
				c-87.664,38.432-179.843,101.351-245.56,171.41c-65.401,69.725-133.85,136.027-186.262,216.727
				c-62.383,96.069-99.114,193.634-120.942,296.801C258.137,1448.771,250.44,1511.743,245.729,1577.524z M1249.037,1395.653
				c4.285-21.18,13.411-57.587,39.108-63.245c63.16-13.896,49.592,129.837,51.043,157.565
				c4.402,83.645-0.348,170.091,16.447,252.554c7.672,37.617,34.311,92.16,22.516,130.512
				c-13.294-65.568-30.946-127.858-61.371-187.734c-22.672-44.608-61.584-89.233-74.615-137.341
				C1228.542,1497.67,1238.937,1445.536,1249.037,1395.653z"/>
			<path id="_x31_80608763_1_" fill="#82C7AE" stroke="#000000" d="M1930.736,800.788c-15.061-15.913-31.464-30.673-48.903-44.363
				c-82.677-57.427-177.251-100.908-268.928-125.047c-86.996-22.908-187.084-33.02-277.014-26.956
				c-168.195,11.342-357.123,30.479-512.649,98.647c-87.669,38.425-179.836,101.343-245.55,171.397
				c-55.484,59.151-113.156,115.843-161.374,180.946c-2.74,4.028-5.434,8.096-8.065,12.218
				c-57.497,90.14-82.539,209.674-92.842,328.954c-7.355,85.167-7.19,170.194-5.977,244.307
				c1.243,75.866,9.867,155.355,30.887,228.488c19.609,68.22,65.952,123.879,96.991,186.88
				c33.329,67.655,62.595,139.35,87.477,210.562c21.51,61.566,69.031,109.936,120.139,150.915
				c59.604,47.793,121.659,127.029,138.499,203.333c18.812,85.21,23.607,173.252,45.999,258.006
				c26.771,101.312,55.783,205.306,107.682,296.989c39.076,69.029,70.87,133.089,138.286,178.796
				c49.18,33.343,116.903,68.966,176.414,77.449c52.109,7.422,112.855-3.051,164.816-10.859
				c205.819-30.931,359.612-157.296,501.314-299.827c50.202-50.491,95.659-111.091,125.34-175.907
				c117.365-256.378,131.068-575.398,102.264-851.329c-17.293-165.672-76.041-323.741-41.153-490.872
				c13.289-63.66,21.493-123.679,29.229-189.465C2158.77,1200.255,2078.625,957.034,1930.736,800.788z M1908.595,1088.525
				c22.266,75.959,38,162.92,37.761,242.325c-0.192,62.921-30.808,112.07-45.227,170.233
				c-13.871,55.911-35.922,119.799-41.349,176.47c-4.592,47.974,17.712,90.539,26.575,136.359
				c5.953,30.823-1.944,60.11,3.224,90.768c12.888,76.437,38.14,165.428,72.919,234.73c31.514,62.786,52.456,114.348,36.092,185.979
				c-10.816,47.338-22.25,95.971-21.218,144.668c0.774,36.656,5.691,71.636-1.502,108.027
				c-13.33,67.477-43.179,146.894-73.995,208.393c-48.029,95.845-122.363,173.582-186.751,258.153
				c-35.447,46.547-56.458,103.198-97.245,145.702c-40.78,42.505-115.58,76.48-171.22,93.262
				c-75.585,22.803-173.727,37.196-244.184-7.104c-54.197-34.076-78.979-105.738-104.761-161.131
				c-61.538-132.231-86.496-267.399-94.711-411.618c-6.228-109.328,40.714-207.432,14.125-316.776
				c-19.59-80.518-65.946-126.967-115.015-190.564c-30.524-39.555-52.879-81.499-91.192-114.711
				c-39.796-34.489-58.437-83.601-90.616-125.142c-36.575-47.206-62.883-97.296-97.702-145.676
				c-37.853-52.585-78.146-105.126-101.064-166.377c-59.345-158.587-71.993-372.749-0.899-528.606
				c62.396-136.759,188.152-231.323,316.651-302.02c71.98-39.605,149.047-75.357,226.725-102.37
				c60.038-20.881,100.751-40.403,164.886-41.433c60.741-0.977,122.165-3.271,182.489-0.083
				c92.531,4.9,182.442,22.71,263.213,78.002C1789.635,826.742,1869.838,956.342,1908.595,1088.525z"/>
			<path id="_x31_80608767_1_" fill="#82C7AE" stroke="#000000" d="M1378.712,1872.864c1.149,4.154,48.774,198.101,88.66,278.792
				c22.021,44.543,49.625,95.44,58.162,144.688c7.765,44.839,10.108,97.459-2.036,141.438
				c-8.653,31.322-28.126,96.431-60.424,110.932c-51.979,23.342-23.493-162.102-23.315-183.83
				c1.581-198.739-59.229-400.833-151.779-575.64c-55.87-105.513-126.68-209.573-145.094-330.542
				c-15.192-99.803,20.259-269.32,156.787-245.169c35.21,6.233,72.857,30.259,79.258,67.957
				c5.766,33.96-26.434,64.267-46.148,89.296c0,0,5.997,100.353,6.97,118.988c4.402,83.65-0.35,170.103,16.446,252.569
				C1363.869,1779.965,1390.506,1834.51,1378.712,1872.864z M1129.674,1951.567c37.026,41.847,69.455,87.111,91.331,139.815
				c59.798,144.144,51.404,312.552,41.428,464.899c-5.769,88.141-11.294,176.346-1.189,264.007
				c10.902,94.681,71.009,201.198,181.668,160.407c105.038-38.713,178.998-176.563,226.935-270.77
				c95.373-187.398,110.637-381.315,25.535-576.578c-37.361-85.731-112.248-162.72-127.194-257.319
				c-14.67-92.904-19.953-193.137,2.368-285.253c24.255-100.071,84.542-188.116,98.792-291.106
				c17.7-128.025-12.339-284.751-104.632-379.092c-168.52-172.254-392.837-44.794-546.64,70.843
				c-77.625,58.355-145.823,119.733-204.785,197.189c-77.277,101.527-95.787,242.996-34.44,358.222
				c47.629,89.485,115.254,165.45,184.826,238.382C1017.164,1841.29,1077.914,1893.091,1129.674,1951.567z"/>
			<path id="_x31_80608766_1_" fill="#9AD2BD" stroke="#000000" d="M1678.467,1432.201c28.776-67.583,50.12-150.126,51.197-223.751
				c3.461-235.823-223.28-448.807-458.275-409.374c-114.316,19.185-198.072,60.679-283.227,139.239
				c-51.287,47.311-102.258,89.942-145.125,145.6c-69.625,90.406-157.62,158.577-167.823,281.462
				c-8.968,107.908,45.847,196.343,112.894,275.583c36.845,43.54,59.757,96.263,93.741,140.931
				c60.856,79.991,149.143,134.01,217.572,206.507c0.265,0.286,0.538,0.57,0.803,0.855
				c75.735,80.752,109.287,188.955,122.436,297.105c8.786,72.174,1.21,141.719-1.27,213.777
				c-2.349,68.13,2.919,139.299,10.066,207.318c10.534,100.189-6.577,423.967,193.069,332.26
				c105.939-48.664,224.889-171.075,274.987-275.605c45.202-94.264,93.781-191.203,103.248-296.309
				c23.24-258.019-194.752-462.45-208.746-711.428C1587.409,1638.823,1633.646,1537.487,1678.467,1432.201z M1569.99,1590.967
				c-22.321,92.112-17.033,192.339-2.363,285.236c14.946,94.595,89.834,171.577,127.195,257.306
				c85.106,195.251,69.844,389.155-25.525,576.54c-47.937,94.199-121.896,232.04-226.933,270.749
				c-110.649,40.79-170.766-65.725-181.67-160.4c-10.105-87.651-4.58-175.853,1.188-263.989
				c9.974-152.336,18.373-320.733-41.434-464.868c-21.879-52.701-54.307-97.962-91.335-139.808
				c-51.757-58.473-112.509-110.271-165.995-166.34c-69.573-72.933-137.199-148.895-184.831-238.375
				c-61.348-115.22-42.838-256.679,34.437-358.193c58.961-77.454,127.16-138.827,204.781-197.178
				c153.801-115.628,378.117-243.075,546.639-70.831c92.295,94.336,122.333,251.049,104.637,379.069
				C1654.532,1402.868,1594.247,1490.908,1569.99,1590.967z"/>
			<path id="_x31_80608765_1_" fill="#82C7AE" stroke="#000000" d="M1099.981,1988.236
				c-68.432-72.5-156.717-126.522-217.572-206.521c-33.983-44.667-56.896-97.392-93.738-140.934
				c-67.047-79.245-121.862-167.685-112.892-275.601c10.208-122.89,98.202-191.069,167.828-281.486
				c42.867-55.659,93.84-98.293,145.128-145.608c85.152-78.565,168.912-120.063,283.229-139.253
				c234.995-39.437,461.731,173.557,458.27,409.395c-1.078,73.629-22.423,156.178-51.199,223.765
				c-44.825,105.295-91.063,206.639-84.458,324.196c13.988,248.998,231.978,453.433,208.738,711.469
				c-9.471,105.117-58.051,202.062-103.252,296.331c-50.102,104.538-169.055,226.958-274.992,275.627
				c-199.65,91.715-182.534-232.079-193.064-332.28c-7.156-68.024-12.414-139.196-10.066-207.33
				c2.482-72.064,10.051-141.615,1.274-213.793c-13.147-108.155-46.704-216.367-122.434-297.123
				C1100.516,1988.805,1100.244,1988.52,1099.981,1988.236z M966.052,1930.899c60.541,36.91,114.236,82.65,149.204,147.543
				c91.14,169.111,90.929,331.96,71.917,518.965c-7.522,73.904-9.554,150.832-5.673,224.983
				c3.243,62.173,11.219,133.653,38.328,190.443c100.046,209.567,364.801-7.759,445.382-122.599
				c98.373-140.203,197.449-318.873,166.085-496.864c-20.644-117.188-67.3-228.058-107.375-341.266
				c-37.58-106.146-109.917-231.873-103.635-347.302c3.592-65.821,40.907-127.095,62.67-188.256
				c24.154-67.868,47.715-139.501,65.741-207.092c41.016-153.805,28.836-302.679-95.36-409.658
				c-120.921-104.161-301.229-166.786-457.862-126.218c-160.248,41.51-283.646,165.939-385.928,289.745
				c-91.681,110.961-156.026,150.8-176.349,299.001c-16.189,118.03,46.014,212.828,119.418,298.531
				c31.006,36.194,57.868,81.67,86.192,126.133C874.968,1843.751,913.507,1898.857,966.052,1930.899z"/>
			<path id="_x31_80608764_1_" fill="#9AD2BD" stroke="#000000" d="M1908.591,1088.526
				c-38.756-132.182-118.96-261.783-233.989-340.539c-80.771-55.291-170.682-73.101-263.213-78.001
				c-60.324-3.188-121.748-0.896-182.49,0.082c-64.135,1.032-104.847,20.552-164.884,41.434
				C986.336,738.513,909.27,774.265,837.29,813.87c-128.499,70.697-254.257,165.261-316.651,302.02
				c-71.094,155.859-58.447,370.021,0.897,528.607c22.922,61.251,63.215,113.792,101.066,166.376
				c34.819,48.381,61.127,98.471,97.701,145.677c32.181,41.54,50.821,90.652,90.617,125.139
				c38.313,33.214,60.668,75.158,91.191,114.713c49.067,63.598,95.426,110.048,115.016,190.564
				c26.589,109.345-20.353,207.448-14.125,316.776c8.216,144.219,33.173,279.386,94.71,411.617
				c25.781,55.393,50.564,127.058,104.762,161.133c70.455,44.3,168.597,29.905,244.184,7.104
				c55.64-16.78,130.439-50.758,171.22-93.263c40.787-42.503,61.798-99.155,97.244-145.701
				c64.389-84.571,138.722-162.308,186.751-258.154c30.817-61.499,60.665-140.916,73.996-208.393
				c7.193-36.391,2.275-71.37,1.5-108.026c-1.03-48.698,10.403-97.329,21.22-144.668c16.363-71.631-4.579-123.193-36.094-185.979
				c-34.778-69.303-60.031-158.295-72.917-234.729c-5.169-30.66,2.729-59.947-3.224-90.769
				c-8.864-45.82-31.167-88.386-26.575-136.359c5.427-56.672,27.476-120.56,41.348-176.47
				c14.42-58.165,45.033-107.314,45.227-170.234C1946.591,1251.446,1930.857,1164.485,1908.591,1088.526z M1748.13,1309.67
				c-18.025,67.586-41.584,139.216-65.736,207.078c-21.763,61.156-59.077,122.427-62.668,188.243
				c-6.282,115.421,66.057,241.142,103.637,347.28c40.081,113.203,86.736,224.062,107.388,341.248
				c31.36,177.977-67.715,356.637-166.086,496.825c-80.579,114.832-345.33,332.144-445.381,122.589
				c-27.109-56.786-35.086-128.262-38.33-190.43c-3.881-74.147-1.85-151.07,5.671-224.97
				c19.011-186.994,19.218-349.832-71.923-518.934c-34.969-64.888-88.666-110.628-149.206-147.535
				c-52.546-32.04-91.087-87.145-127.246-143.902c-28.325-44.456-55.19-89.933-86.194-126.125
				c-73.403-85.7-135.609-180.492-119.422-298.511c20.321-148.195,84.665-188.031,176.345-298.984
				c102.28-123.797,225.677-248.216,385.921-289.718c156.635-40.566,336.943,22.057,457.865,126.212
				C1776.961,1007.012,1789.142,1155.877,1748.13,1309.67z"/>
			<path id="_x31_80608769_1_" fill="#CCCCCC" stroke="#000000" d="M245.175,1577.707c-5.399,75.42-1.87,144.569,3.356,219.249
				c10.992,157.475,52.589,311.628,81.113,467.181c18.938,103.211,14.053,210.071,35.102,313.977
				c45.403,224.179,146.267,405.192,291.903,577.449c104.945,124.131,225.191,243.973,371.029,316.896
				c150.635,75.325,296.736,107.461,462.277,68.389c155.473-36.708,304.046-68.763,443.371-151.624
				c341.381-203.022,393.879-620.194,362.147-980.206c-14.197-161.048-6.953-320.32-19.822-481.287
				c-8.009-100.16-22.454-200.509-36.465-300.444c-14.521-103.627-34.307-205.776-52.906-308.699
				c-28.401-157.194-57.687-309.142-163.844-435.747c-39.354-46.931-87.528-89.543-140.604-126.41
				c17.44,13.689,33.844,28.451,48.903,44.363c147.889,156.244,228.034,399.464,202.88,613.258
				c-7.733,65.786-15.939,125.804-29.229,189.464c-34.887,167.131,23.86,325.201,41.154,490.873
				c28.802,275.93,15.101,594.95-102.266,851.328c-29.681,64.815-75.137,125.416-125.339,175.908
				c-141.702,142.529-295.495,268.895-501.314,299.826c-51.962,7.809-112.707,18.281-164.815,10.86
				c-59.511-8.483-127.236-44.107-176.414-77.45c-67.418-45.707-99.212-109.767-138.287-178.796
				c-51.898-91.684-80.911-195.677-107.683-296.989c-22.392-84.754-27.187-172.796-45.997-258.006
				c-16.841-76.303-78.897-155.54-138.501-203.333c-51.106-40.979-98.628-89.35-120.139-150.915
				c-24.881-71.212-54.146-142.905-87.475-210.561c-31.042-63.001-77.384-118.661-96.993-186.88
				c-21.02-73.134-29.643-152.622-30.886-228.489c-1.215-74.113-1.38-159.141,5.978-244.306
				c10.303-119.279,35.343-238.815,92.842-328.954c2.63-4.122,5.323-8.19,8.065-12.218c-8.616,11.633-16.936,23.533-24.882,35.766
				c-62.389,96.06-99.11,193.622-120.937,296.781C257.583,1448.961,249.888,1511.929,245.175,1577.707z"/>
			<path id="_x31_80608770_1_" fill="#CCCCCC" stroke="#000000" d="M1466.819,2151.818c22.02,44.538,49.625,95.434,58.162,144.678
				c7.767,44.836,10.111,97.454-2.034,141.43c-8.653,31.321-28.125,96.426-60.423,110.926
				c-51.978,23.338-23.495-162.094-23.317-183.821c1.579-198.728-59.234-400.807-151.786-575.606
				c-55.871-105.506-126.674-209.56-145.097-330.521c-15.194-99.792,20.255-269.303,156.783-245.151
				c35.21,6.231,72.858,30.258,79.257,67.953c5.768,33.957-26.431,64.264-46.146,89.291c-7.44-18.241-23.4-43.13-44.063-38.587
				c-25.706,5.659-34.832,42.067-39.116,63.248c-10.102,49.882-20.497,102.016-6.873,152.311
				c13.03,48.107,51.039,93.201,74.616,137.341c39.06,73.127,43.57,123.685,61.369,187.734
				C1379.301,1877.194,1426.929,2071.13,1466.819,2151.818z"/>
			<path id="_x31_80608768_1_" fill="#AAAAAA" stroke="#000000" d="M1378.713,1872.865c11.794-38.354-14.844-92.899-22.514-130.519
				c-16.796-82.467-12.044-168.919-16.446-252.57c-0.974-18.637-6.969-118.986-6.969-118.986
				c19.713-25.031,19.148-24.823-0.566,0.204c-7.44-18.241-23.4-43.13-44.063-38.587c-25.706,5.659-34.832,42.067-39.116,63.248
				c-10.102,49.882-20.497,102.016-6.873,152.311c13.03,48.107,51.039,93.201,74.616,137.341
				c39.06,73.127,43.57,123.685,61.369,187.734C1379.301,1877.194,1379.861,1877.022,1378.713,1872.865z"/>
		</g>
	</g>
</g>
</svg>
