<?xml version="1.0" encoding="utf-8"?>
<!-- Generator: Adobe Illustrator 16.0.0, SVG Export Plug-In . SVG Version: 6.00 Build 0)  -->
<!DOCTYPE svg PUBLIC "-//W3C//DTD SVG 1.1//EN" "http://www.w3.org/Graphics/SVG/1.1/DTD/svg11.dtd">
<svg version="1.1" id="Layer_1" xmlns="http://www.w3.org/2000/svg" xmlns:xlink="http://www.w3.org/1999/xlink" x="0px" y="0px"
	 width="9568px" height="7904px" viewBox="0 0 9568 7904" enable-background="new 0 0 9568 7904" xml:space="preserve">
<g>
	<g transform="scale(1.0)">
		<g id="_x31_80623552" transform=" scale(1.0, 1.0)">
			<path id="_x31_80623554" fill="#BFDAE3" stroke="#000000" d="M4786.716,6014.937c63.469,20.072,138.408,24.139,202.729,40.957
				c91.887,23.988,203.489,49.918,277.2,108.352c160.504,127.244,303.804,269.885,442.785,381.736
				c179.756,144.674,374.592,293.352,636.481,320.836c201.176,21.094,381.27-60.945,533.99-156.461
				c109.168-68.262,253.533-155.955,362.41-269.857c132.645-138.793,227.502-308.318,329.156-426.176
				c144.488-167.521,318.561-250.131,473.055-420.695c160.443-177.125,272.027-351.24,381.717-564.545
				c168.572-327.809,269.482-660.691,364.963-1239.68c97.717-592.523-0.26-1151.055-426.467-1560.468
				c-313.213-300.878-758.258-514.479-857.887-575.33c-389.947-238.183-763.371-396.405-1209.447-502.451
				c-514.135-122.226-1328.148-278.535-1511.721,281.714l0.314,1411.15L4786.716,6014.937z"/>
			<path id="_x31_80623555" fill="#B0FFB8" stroke="#000000" d="M7203.521,5901.011c139.223,83.475,323.191,168.766,323.191,168.766
				c14.855-19.426,29.791-37.941,44.814-55.377c144.475-167.545,318.529-250.176,473.055-420.713
				c160.416-177.178,272.023-351.27,381.713-564.545c168.518-327.842,269.465-660.73,364.959-1239.736
				c97.734-592.458-0.258-1151.002-426.518-1560.472c-313.18-300.836-758.238-514.483-857.861-575.307
				c-389.947-238.146-763.357-396.359-1209.471-502.428c-514.1-122.239-1328.123-278.528-1511.695,281.742l0.319,1411.15
				l0.001-0.083c125.094,1.715,255.579-16.661,386.888-63.423c272.829-97.183,279.946-195.135,427.741-382.187
				c135.516-171.61,472.389-65.769,647.469,5.331c271.215,110.258,578.703,207.971,801.625,404.82
				c158.578,140.084,208.807,170.287,344.07,364.165c63.605,91.296,184.838,268.326,207.605,359.63
				c54.418,218.551,72.02,597.73,47.166,813.56c-12.51,108.744-24.504,300.58-35.869,329.221c0,0-41.451,246.297-163.189,406.781
				c-125.637,165.795-210.125,237.287-259.998,304.451c-71.945,96.805-113.436,160.48-127.178,323.766
				C7058.473,5755.696,7051.262,5809.735,7203.521,5901.011z"/>
			<path id="_x31_80623630" fill="#1F9D5A" stroke="#000000" d="M6183.373,1254.321c-110.826-34.176-258.674-75.646-413.824-100.346
				l0.559-101.522l0.166-1.077v-0.083c186.029,22.285,370.482,62.67,527.131,99.906c206.951,49.178,398.301,109.648,582.844,184.064
				l0.002,0.083l-62.553,162.13C6606.09,1416.175,6400.373,1321.178,6183.373,1254.321z"/>
			<path id="_x31_80623629" fill="#1F9D5A" stroke="#000000" d="M6690.934,1825.806
				c-222.822-124.215-455.607-248.759-687.719-334.786c-79.363-29.449-157.32-64.462-235.021-91.59l1.357-245.457
				c155.146,24.7,302.996,66.173,413.822,100.347c217,66.857,422.717,161.854,634.324,243.155L6690.934,1825.806z"/>
			<path id="_x31_80623628" fill="#1F9D5A" stroke="#000000" d="M6577.445,2119.849c-219.748-92.422-439.572-179.864-655.09-289.553
				c-44.746-22.734-98.873-45.219-156.152-64.215l1.992-366.65c77.701,27.127,155.654,62.14,235.02,91.59
				c232.111,86.027,464.896,210.571,687.719,334.786L6577.445,2119.849z"/>
			<path id="_x31_80623627" fill="#1F9D5A" stroke="#000000" d="M6345.238,2350.25c-144.865-60.895-397.225-123.261-546.65-159.17
				c-11.621-2.819-23.244-4.312-34.699-4.558l2.314-420.44c57.281,18.996,111.406,41.48,156.152,64.215
				c215.518,109.688,435.342,197.131,655.09,289.553l-108.844,281.923C6427.59,2384.598,6386.414,2367.591,6345.238,2350.25z"/>
			<path id="_x31_80623626" fill="#1F9D5A" stroke="#000000" d="M6248.129,2403.73c-123.195-50.026-326.334-117.22-483.215-92.943
				l-1.662-10.377l0.637-113.888c11.455,0.245,23.076,1.739,34.699,4.557c149.424,35.909,401.783,98.275,546.648,159.17
				c41.178,17.34,82.352,34.348,123.361,51.522l-29.783,77.122C6374.314,2453.59,6310.309,2429.034,6248.129,2403.73z"/>
			<path id="_x31_80623635" fill="#1F9D5A" stroke="#000000" d="M4983.348,1415.048c-20.99,49.23-37,100.532-49.023,153.163
				l-146.211-142.327c130.484-383.033,560.297-425.298,982.16-374.592v0.083l-0.166,1.077l-0.557,101.521
				C5453.771,1103.74,5107.963,1123.076,4983.348,1415.048z"/>
			<path id="_x31_80623634" fill="#1F9D5A" stroke="#000000" d="M5768.195,1399.431c-140.049-49.026-279.508-72.486-426.334,8.729
				c-158.859,87.86-193.695,216.033-198.807,363.293l-208.73-203.242c12.025-52.631,28.035-103.933,49.025-153.163
				c124.613-291.97,470.424-311.307,786.201-261.073L5768.195,1399.431z"/>
			<path id="_x31_80623633" fill="#1F9D5A" stroke="#000000" d="M5766.203,1766.081c-96.797-32.267-202.639-55.073-287.805-54.056
				c-112.975,1.354-147.314,114.086-154.178,235.862l-181.166-176.351v-0.083c5.115-147.26,39.949-275.433,198.809-363.294
				c146.824-81.216,286.281-57.756,426.332-8.729L5766.203,1766.081z"/>
			<path id="_x31_80623632" fill="#1F9D5A" stroke="#000000" d="M5763.889,2186.522c-49.557-1.234-97.363,19.944-138.029,55.231
				l-301.639-293.783v-0.083c6.861-121.775,41.201-234.509,154.178-235.862c85.166-1.016,191.008,21.788,287.805,54.056
				L5763.889,2186.522z"/>
			<path id="_x31_80623631" fill="#1F9D5A" stroke="#000000" d="M5625.859,2241.754c40.666-35.287,88.473-56.466,138.029-55.231
				l-0.637,113.888l1.662,10.377c-21.748,3.325-42.582,8.477-62.088,15.536l-1.084-10.708L5625.859,2241.754z"/>
			<path id="_x31_80623607" fill="#188064" stroke="#000000" d="M8811.861,3145.001l-119.947,17.127
				c-16.809-185.687-67.482-361.571-169.211-543.503c-29.646-53.036-63.027-104.161-99.895-152.88l98.52-59.457l0.748-0.498
				C8687.564,2624.813,8779.01,2875.729,8811.861,3145.001z"/>
			<path id="_x31_80623606" fill="#188064" stroke="#000000" d="M8204.775,2597.196l218.033-131.451
				c36.869,48.718,70.25,99.844,99.896,152.879c101.727,181.934,152.402,357.817,169.211,543.504l-296.746,42.235
				C8374.617,2989.459,8318.455,2779.542,8204.775,2597.196z"/>
			<path id="_x31_80623605" fill="#188064" stroke="#000000" d="M8041.77,2695.517l163.006-98.321
				c113.68,182.346,169.842,392.262,190.395,607.168L8248,3225.397c-13.551-86.076-35.068-170.99-67.211-254.406
				C8144.49,2876.868,8100.809,2779.841,8041.77,2695.517z"/>
			<path id="_x31_80623604" fill="#188064" stroke="#000000" d="M7923.648,3070.08c-32.723-79.018-79.725-153.383-135.604-221.521
				l253.725-153.043c59.039,84.324,102.721,181.352,139.02,275.476c32.143,83.417,53.66,168.33,67.211,254.406l-268.443,38.245
				C7967.504,3198.151,7949.891,3133.492,7923.648,3070.08z"/>
			<path id="_x31_80623603" fill="#188064" stroke="#000000" d="M7606.775,3316.77c-20.016-36.02-41.604-71.793-64.688-107.73
				c-32.221-50.13-68.588-99.347-107.779-147.068l353.652-213.41l0.082-0.001c55.883,68.139,102.881,142.503,135.604,221.521
				c26.242,63.412,43.855,128.072,55.908,193.563l-372.697,53.127L7606.775,3316.77z"/>
			<path id="_x31_80623602" fill="#188064" stroke="#000000" d="M7434.309,3061.973c39.191,47.722,75.561,96.938,107.779,147.067
				c23.084,35.939,44.674,71.71,64.688,107.73l-106.58,15.216c-37.699-60.091-77.807-118.27-106.371-159.271
				c-15.441-22.077-29.725-42.078-43.178-60.254l0.418-0.332L7434.309,3061.973z"/>
			<path id="_x31_80623625" fill="#188064" stroke="#000000" d="M7410.105,1750.687c-4.98-2.823-10.045-5.478-15.107-8.215
				c-182.727-97.825-372.418-166.847-565.014-240.267c-4.068-1.576-8.219-3.151-12.287-4.729l62.553-162.13
				c200.898,80.971,393.834,178.548,590.178,296.292L7410.105,1750.687z"/>
			<path id="_x31_80623624" fill="#188064" stroke="#000000" d="M7288.553,1990.111c-88.248-42.979-177.658-86.705-261.508-128.605
				c-49.311-24.642-260.088-102.292-279.51-85.685c-28.631,24.493-27.135,41.345-5.463,66.409l-5.143,9.215
				c-15.277-8.464-30.635-17.092-45.996-25.638l126.764-328.33c4.068,1.577,8.219,3.154,12.289,4.729
				c192.596,73.42,382.285,142.44,565.014,240.267c5.063,2.738,10.127,5.393,15.107,8.214L7288.553,1990.111z"/>
			<path id="_x31_80623623" fill="#188064" stroke="#000000" d="M7225.99,2113.393c-119.297-62.893-247.811-126.781-342.785-179.885
				c-48.15-26.885-96.967-54.35-146.279-82.063l5.145-9.215c-21.672-25.064-23.17-41.915,5.463-66.41
				c19.422-16.605,230.199,61.044,279.51,85.686c83.848,41.901,173.26,85.627,261.508,128.605L7225.99,2113.393z"/>
			<path id="_x31_80623622" fill="#188064" stroke="#000000" d="M7100.621,2360.539c-91.82-47.129-185.049-91.517-278.857-134.331
				c-81.273-37.086-162.795-72.097-244.318-106.361l113.488-294.044c15.361,8.547,30.719,17.175,45.996,25.639
				c49.311,27.713,98.125,55.178,146.277,82.063c94.977,53.104,223.488,116.992,342.785,179.885L7100.621,2360.539z"/>
			<path id="_x31_80623621" fill="#188064" stroke="#000000" d="M6821.766,2226.21c93.807,42.814,187.035,87.202,278.855,134.329
				l-141.385,278.527c-154.668-94.845-321.613-166.692-490.639-237.294l108.844-281.923
				C6658.969,2154.113,6740.49,2189.124,6821.766,2226.21z"/>
			<path id="_x31_80623620" fill="#188064" stroke="#000000" d="M6922.23,2711.541c-147.443-97.503-316.883-167.357-483.412-232.646
				l29.781-77.122c169.025,70.601,335.971,142.448,490.641,237.293l-35.762,70.565L6922.23,2711.541z"/>
			<path id="_x31_80623613" fill="#188064" stroke="#000000" d="M8422.809,2465.745
				c-112.924-149.723-257.637-277.191-421.02-367.471c-7.223-3.98-14.527-8.046-21.75-12.197l84.646-98.882l0.248-0.334
				c103.197,71.948,207.309,153.19,299.803,242.071c58.533,56.267,110.84,115.274,157.342,176.856l-0.75,0.498L8422.809,2465.745z"
				/>
			<path id="_x31_80623612" fill="#188064" stroke="#000000" d="M8108.455,2465.982c-75.807-88.222-170.535-154.69-272.566-211.362
				l144.15-168.542c7.223,4.151,14.525,8.217,21.75,12.197c163.381,90.278,308.094,217.747,421.02,367.471l-218.033,131.451
				C8176.377,2551.632,8144.408,2507.728,8108.455,2465.982z"/>
			<path id="_x31_80623611" fill="#188064" stroke="#000000" d="M7972.768,2611.361c-86.014-88.801-171.611-153.447-261.025-211.614
				l124.146-145.129c102.031,56.672,196.762,123.143,272.566,211.362c35.953,41.745,67.922,85.648,96.32,131.215l-163.006,98.319
				C8020.846,2665.639,7997.926,2637.337,7972.768,2611.361z"/>
			<path id="_x31_80623610" fill="#188064" stroke="#000000" d="M7787.961,2848.56c-74.561-90.878-165.059-170.713-258.625-235.687
				l182.406-213.126c89.414,58.167,175.012,122.813,261.025,211.613c25.158,25.977,48.078,54.276,69.002,84.154l-253.725,153.044
				L7787.961,2848.56z"/>
			<path id="_x31_80623609" fill="#188064" stroke="#000000" d="M7787.961,2848.56l-353.652,213.411
				c-46.664-56.933-97.311-111.79-149.371-163.328l244.398-285.769C7622.902,2677.848,7713.4,2757.682,7787.961,2848.56z"/>
			<path id="_x31_80623608" fill="#188064" stroke="#000000" d="M7284.938,2898.644c52.061,51.537,102.705,106.394,149.371,163.327
				l-83.246,50.157l-0.418,0.332c-47.246-63.907-84.445-106.729-123.965-145.736L7284.938,2898.644z"/>
			<path id="_x31_80623619" fill="#188064" stroke="#000000" d="M7980.039,2086.078c-190.031-106.54-376.664-230.76-569.934-335.39
				l60.32-119.049l0.084-0.001c12.121,7.22,24.24,14.604,36.363,21.991c70.152,42.816,311.818,161.547,558.061,333.235l-0.248,0.332
				L7980.039,2086.078z"/>
			<path id="_x31_80623618" fill="#188064" stroke="#000000" d="M7835.889,2254.621
				c-122.617-68.289-255.943-122.298-379.889-182.865c-54.213-26.469-110.582-53.932-167.449-81.644l121.553-239.424
				c193.27,104.63,379.9,228.852,569.934,335.391L7835.889,2254.621z"/>
			<path id="_x31_80623617" fill="#188064" stroke="#000000" d="M7456,2071.754c123.945,60.567,257.27,114.578,379.889,182.864
				l-124.146,145.129c-90.824-59.248-185.717-111.689-288.912-175.83c-55.955-34.768-124.695-72.438-196.84-110.524l62.563-123.282
				C7345.422,2017.823,7401.789,2045.286,7456,2071.754z"/>
			<path id="_x31_80623616" fill="#188064" stroke="#000000" d="M7516.301,2603.911c-133.084-90.284-272.639-170.023-415.68-243.372
				l125.369-247.146c72.143,38.086,140.885,75.755,196.84,110.525c103.195,64.141,198.088,116.582,288.912,175.828l-182.406,213.127
				C7525.02,2609.802,7520.617,2606.898,7516.301,2603.911z"/>
			<path id="_x31_80623615" fill="#188064" stroke="#000000" d="M7284.938,2898.644c-33.209-32.863-67-64.398-100.709-94.357
				c-70.904-62.904-146.371-117.093-224.992-165.221l141.385-278.526c143.041,73.347,282.596,153.087,415.68,243.371
				c4.316,2.988,8.717,5.893,13.035,8.962L7284.938,2898.644z"/>
			<path id="_x31_80623614" fill="#188064" stroke="#000000" d="M7226.682,2966.725c-48.154-47.802-99.713-89.959-176.928-158.175
				c-40.018-35.353-82.775-67.469-127.523-97.009l1.242-1.911l35.762-70.563c78.621,48.127,154.086,102.316,224.992,165.219
				c33.709,29.959,67.498,61.495,100.709,94.358L7226.682,2966.725z"/>
			<path id="_x31_80623601" fill="#188064" stroke="#000000" d="M8811.861,3145.001c24.449,200.711,16.363,411.554-17.789,627.138
				l-2.656-0.417l-136.465,1.526c14.506-80.604,25.281-162.206,32.9-244.885c11.924-128.5,14.717-249.278,4.064-366.235
				L8811.861,3145.001z"/>
			<path id="_x31_80623600" fill="#188064" stroke="#000000" d="M8399.156,3582.47c8.021-124.765,8.16-252.267-3.986-378.105
				l296.746-42.236c10.652,116.958,7.859,237.735-4.064,366.237c-7.619,82.677-18.395,164.279-32.9,244.884l-271.191,2.966
				C8391.629,3695.694,8396.426,3625.219,8399.156,3582.47z"/>
			<path id="_x31_80623599" fill="#188064" stroke="#000000" d="M8383.76,3776.214l-117.375,1.354
				c-3.248-51.216-5.5-102.679-2.773-155.059c7.025-134.063,4.922-266.875-15.611-397.112l147.17-21.034
				c12.146,125.84,12.008,253.34,3.986,378.105C8396.426,3625.219,8391.629,3695.694,8383.76,3776.214z"/>
			<path id="_x31_80623598" fill="#188064" stroke="#000000" d="M8015.033,3773.311c-10.166-170.747-4.809-342.825-35.477-509.668
				l268.441-38.245c20.533,130.237,22.637,263.049,15.613,397.112c-2.727,52.379-0.477,103.844,2.771,155.059l-250.936,2.795
				C8015.283,3778.042,8015.201,3775.635,8015.033,3773.311z"/>
			<path id="_x31_80623597" fill="#188064" stroke="#000000" d="M7745.473,3634.996c-36.799-113.382-81.979-216.635-138.613-318.226
				l372.695-53.128c30.668,166.842,25.311,338.921,35.477,509.668c0.168,2.324,0.248,4.731,0.418,7.055l-230.184,2.541
				C7775.293,3724.224,7754.111,3661.723,7745.473,3634.996z"/>
			<path id="_x31_80623596" fill="#188064" stroke="#000000" d="M7645.896,3784.434l-3.322,0.333
				c-9.732-93.632-23.449-181.535-41.145-252.421c-12.545-50.3-54.98-126.659-101.234-200.36l106.582-15.215l0.082-0.001
				c56.635,101.591,101.814,204.845,138.613,318.226c8.639,26.727,29.82,89.229,39.793,147.914L7645.896,3784.434z"/>
			<path id="_x31_80623589" fill="#009C75" stroke="#000000" d="M8722.439,4158.893c-22.969,107.997-46.936,206.206-72.648,297.521
				l-201.307-52.584c28.457-57.697,54.592-115.727,76.576-170.684c13.191-32.955,25.471-65.996,36.918-99.285l154.818,23.872
				L8722.439,4158.893z"/>
			<path id="_x31_80623588" fill="#009C75" stroke="#000000" d="M8336.518,4099.213l225.461,34.648
				c-11.445,33.289-23.727,66.33-36.916,99.286c-21.982,54.959-48.121,112.984-76.578,170.684l-283.906-74.23
				c5.641-10.709,11.199-21.502,16.594-32.375l22.412,1.736c60.604,29.705,103.166-66.594,132.854-199.75L8336.518,4099.213z"/>
			<path id="_x31_80623587" fill="#009C75" stroke="#000000" d="M8260.148,4087.443l76.287,11.768
				c-29.688,133.155-72.25,229.456-132.854,199.749l-22.412-1.734C8214.523,4230.229,8243.561,4160.08,8260.148,4087.443z"/>
			<path id="_x31_80623586" fill="#009C75" stroke="#000000" d="M8015.76,4049.813l244.389,37.631
				c-16.588,72.637-45.625,142.784-78.979,209.782c-5.395,10.873-10.953,21.666-16.594,32.375l-188.523-49.264
				C7997.947,4204.795,8010.051,4127.676,8015.76,4049.813z"/>
			<path id="_x31_80623585" fill="#009C75" stroke="#000000" d="M8015.76,4049.813c-5.709,77.863-17.813,154.982-39.707,230.524
				l-134.07-35c-1.084-28.969-4.494-61.175-10.979-96.702c-9.807-53.372-26.75-97.03-51.162-135.128L8015.76,4049.813z"/>
			<path id="_x31_80623595" fill="#11AD83" stroke="#000000" d="M8654.951,3773.249l136.465-1.526l2.656,0.417
				c-0.912,5.727-1.908,11.538-2.818,17.266c-22.381,135.641-45.018,257.836-68.814,369.487l-5.643-1.161l-154.818-23.871
				C8602.791,4015.73,8633.145,3895.608,8654.951,3773.249z"/>
			<path id="_x31_80623594" fill="#11AD83" stroke="#000000" d="M8561.979,4133.86l-225.461-34.647
				c22.139-99.449,37.221-219.565,47.24-322.999l271.191-2.965C8633.145,3895.608,8602.791,4015.73,8561.979,4133.86z"/>
			<path id="_x31_80623593" fill="#11AD83" stroke="#000000" d="M8266.385,3777.569l117.375-1.355
				c-10.02,103.433-25.102,223.55-47.242,322.999l-0.082-0.001l-76.287-11.768c8.955-38.933,14.34-78.529,14.912-118.706
				C8275.959,3904.488,8270.469,3841.237,8266.385,3777.569z"/>
			<path id="_x31_80623592" fill="#11AD83" stroke="#000000" d="M8260.148,4087.443l-244.389-37.63
				c6.623-89.236,4.859-179.55-0.311-269.447l250.936-2.796c4.084,63.666,9.574,126.917,8.676,191.167
				C8274.488,4008.914,8269.104,4048.511,8260.148,4087.443z"/>
			<path id="_x31_80623591" fill="#11AD83" stroke="#000000" d="M7779.842,4013.508c-29.979-46.975-71.242-85.648-124.211-123.903
				c-0.91,14.859-1.236,29.385-1.316,43.828c-1.502-27.558-3.416-55.116-5.58-82.427c26.07,36.933,90.084,83.736,125.188,47.618
				c20.334-21.088,19.74-67.076,11.346-115.717l230.182-2.543c5.168,89.898,6.932,180.212,0.313,269.447L7779.842,4013.508z"/>
			<path id="_x31_80623590" fill="#11AD83" stroke="#000000" d="M7773.92,3898.624c-35.104,36.117-99.115-10.685-125.188-47.618
				c-1.832-22.33-3.91-44.49-6.158-66.24l3.322-0.331l139.369-1.527C7793.662,3831.549,7794.254,3877.536,7773.92,3898.624z"/>
			<path id="_x31_80623640" fill="#40A666" stroke="#000000" d="M4900.308,2006.92l-114.479-49.614l-0.119-524.365
				c0.748-2.408,1.576-4.733,2.406-7.058l146.211,142.327C4901.982,1709,4897.617,1859.663,4900.308,2006.92z"/>
			<path id="_x31_80623639" fill="#40A666" stroke="#000000" d="M5148.611,2114.526l-248.304-107.607
				c-2.687-147.257,1.675-297.919,34.019-438.709l208.729,203.241v0.083c-2.309,66.325,1.443,136.467,2.539,208.518
				C5146.268,2024.545,5147.439,2069.453,5148.611,2114.526z"/>
			<path id="_x31_80623638" fill="#40A666" stroke="#000000" d="M5333.656,2194.671l-185.045-80.144
				c-1.172-45.073-2.344-89.981-3.016-134.472c-1.098-72.052-4.848-142.194-2.537-208.519l181.164,176.352v0.083
				C5319.096,2039.696,5329.574,2136.565,5333.656,2194.671z"/>
			<path id="_x31_80623637" fill="#40A666" stroke="#000000" d="M5333.656,2194.671c-4.082-58.104-14.561-154.974-9.436-246.7
				l301.639,293.783c-18.842,16.274-36.186,35.619-51.455,57.205L5333.656,2194.671z"/>
			<path id="_x31_80623636" fill="#40A666" stroke="#000000" d="M5574.406,2298.959c15.268-21.587,32.611-40.931,51.453-57.205
				l75.885,73.861l1.084,10.708c-13.033,4.817-25.566,10.464-37.35,17.107l-3.822-6.641L5574.406,2298.959z"/>
			<path id="_x31_80623645" fill="#40A666" stroke="#000000" d="M4785.828,1957.306l114.479,49.614
				c1.514,81.434,5.268,161.949,7.691,239.148c3.761,120.777,5.451,241.639,8.715,362.331c2.177,80.353,7.51,173.986,98.993,202.688
				l2.408,12.037c-78.687,15.621-156.382,21.948-232.088,20.885L4785.828,1957.306z M4940.992,2783.376
				c-20.847-48.058-147.258,2.689-121.185,45.933c12.624,20.916,43.831,9.702,71.386-7.154
				C4909.454,2810.941,4949.047,2802.052,4940.992,2783.376z"/>
			<path id="_x31_80623644" fill="#40A666" stroke="#000000" d="M5015.707,2811.085c-91.483-28.701-96.816-122.335-98.993-202.688
				c-3.264-120.692-4.954-241.553-8.715-362.332c-2.425-77.197-6.178-157.715-7.691-239.147l248.304,107.607
				c6.03,227.858,12.39,461.859-38.858,682.673l0.996,3.403c-30.96,9.056-61.922,16.532-92.633,22.518L5015.707,2811.085z"/>
			<path id="_x31_80623643" fill="#40A666" stroke="#000000" d="M5172.916,2780.585c-20.748,7.393-41.5,14.038-62.167,20.019
				l-0.996-3.401c51.248-220.814,44.889-454.815,38.858-682.675l185.045,80.144c0.248,2.575,0.416,5.064,0.582,7.472
				c12.911,197.476-0.656,400.435-123.141,564.155C5198.98,2771.116,5186.281,2775.85,5172.916,2780.585z"/>
			<path id="_x31_80623642" fill="#40A666" stroke="#000000" d="M5333.656,2194.671l240.75,104.29
				c-7.883,11.042-15.186,22.665-21.824,34.785c-51.279,92.897-126.543,199.581-144.035,305.671l3.904,5.81
				c-45.896,44.585-105.069,83.197-201.354,121.071c122.484-163.72,136.052-366.68,123.141-564.155
				C5334.072,2199.734,5333.904,2197.244,5333.656,2194.671z"/>
			<path id="_x31_80623641" fill="#40A666" stroke="#000000" d="M5574.406,2298.959l87.25,37.832l3.82,6.641
				c-24.65,13.784-46.561,31.885-64.816,54.966c-83.15,105.19-121.733,182.23-188.208,246.827l-3.904-5.81
				c17.491-106.088,92.755-212.771,144.036-305.671C5559.219,2321.624,5566.523,2310.001,5574.406,2298.959z"/>
			<path id="_x31_80623584" fill="#219866" stroke="#000000" d="M8427.869,5015.528c-43.842-52.535-135.742-98.17-212.619-142.727
				l2.24-3.82c26.045-93.559,60.559-165.617,112.256-249.467c40.494-65.752,81.566-140.303,118.738-215.686l201.307,52.584
				c-61.375,217.58-132.643,395.9-223.496,572.729c-1.826,3.57-3.65,7.057-5.477,10.627
				C8427.041,5026.319,8429.693,5017.685,8427.869,5015.528z"/>
			<path id="_x31_80623583" fill="#219866" stroke="#000000" d="M8136.713,4821.601c-30.387-24.148-69.5-92.373-110.178-99.254
				l-55.129-62.412c73.611-68.83,135.254-222.576,180.473-306.428c4.232-7.885,8.547-15.855,12.697-23.908l283.908,74.229
				c-37.172,75.383-78.244,149.932-118.738,215.684c-51.697,83.852-86.211,155.912-112.258,249.467l-2.24,3.822
				C8185.613,4855.708,8158.299,4838.78,8136.713,4821.601z"/>
			<path id="_x31_80623582" fill="#219866" stroke="#000000" d="M7959.455,4669.901c-1.912-16.27-7.561-32.205-18.191-47.227
				c-22.498-32.037-59.693-56.186-99.045-72.777l4.48-10.125c18.754-24.988,38.09-48.818,53.357-76.133
				c33.191-59.691,57.91-120.955,75.996-183.301l188.525,49.264c-4.15,8.055-8.465,16.025-12.697,23.91
				c-45.219,83.85-106.861,237.598-180.475,306.428c-3.734,3.57-7.469,6.809-11.285,9.881L7959.455,4669.901z"/>
			<path id="_x31_80623581" fill="#219866" stroke="#000000" d="M7770.494,4528.165c-40.096-7.713-139.951,8.748-139.951,8.748
				l2.322-9.547c0,0,106.66-25.592,141.85-53.988c17.18-13.867,72.945-79.539,67.268-228.041l134.07,35
				c-18.086,62.344-42.805,123.611-75.996,183.301c-15.268,27.313-34.604,51.143-53.357,76.131l-4.48,10.127
				C7818.143,4539.858,7793.322,4532.558,7770.494,4528.165z"/>
			<path id="_x31_80623556" fill="#9AD2BD" stroke="#000000" d="M8427.813,5015.521c-24.26-29.123-127.357-92.391-236.471-155.197
				c-1.428-0.822-2.854-1.645-4.285-2.465c-47.102-27.064-71.891-65.68-107.84-98.689c-14.865-13.648-31.635-26.342-52.682-36.863
				c-16.945-8.473-35.961,0.01-49.309,20.754c-15.346,23.848-51.385,82.561-73.766,106.082
				c-40.479,42.523-88.418,83.414-133.951,120.49c-92.529,75.318-199.873,136.035-306.221,188.809
				c-45.182,22.416-84.01,55.588-129.205,77.914c-39.992,19.748-51.184,44.182-80.953,75.938
				c-120.875,128.918-177.283,237.422-190.836,397.764c-3.859,45.625-11.041,99.617,141.15,190.893
				c1.313,0.787,2.633,1.578,3.955,2.365c21.182,12.635,43.34,25.287,65.68,37.66c123.986,68.684,253.596,128.754,253.596,128.754
				c14.09-18.387,28.182-35.979,42.393-52.596c0.801-0.934,1.6-1.881,2.398-2.811c22.645-26.254,45.871-50.555,69.559-73.512
				c7.629-8.221,13.398-14.543,16.215-17.832c5.119-5.975,24.723-22.225,49.385-41.842c43.707-37.584,88.537-72.607,133.799-108.508
				c67.863-53.832,136.699-109.645,204.166-179.076C8173.354,5461.052,8441.652,5032.118,8427.813,5015.521z"/>
			<path id="_x31_80623580" fill="#6ACBBA" stroke="#000000" d="M8427.813,5015.521c-24.26-29.123-127.357-92.391-236.471-155.197
				c-2.119,11.627-5.18,23.449-6.414,34.84c-4.129,38.102,1.422,76.111,9.109,113.395c7.279,35.289,17.66,58.453,2.602,93.035
				c-35.818,82.305-111.254,147.85-179.914,202.414c-27.658,21.977-50.832,43.885-75.662,68.881
				c-126.162,126.924-315.9,173.191-458.834,278.406c-40.33,29.684-78.166,62.787-110.885,100.791
				c-20.635,23.969-38.014,50.473-53.963,77.727c-15.279,26.102-34.502,52.805-41.469,82.527
				c-2.021,8.643-1.961,18.803-2.824,28.637c123.986,68.682,253.594,128.754,253.594,128.754
				c14.092-18.389,28.182-35.982,42.395-52.598c-25.945,27.316-47.387,49.762-47.387,49.762
				c-73.328-33.184-96.615-55.828-90.801-99.137c14.65-109.111,220.146-257.016,327.465-244.607
				c36.102,4.176,62.803,17.877,82.08,49.482c67.861-53.832,136.699-109.646,204.166-179.076
				C8173.354,5461.052,8441.652,5032.118,8427.813,5015.521z"/>
			<path id="_x31_80623579" fill="#6ACBBA" stroke="#000000" d="M7317.379,5829.813c15.949-27.256,33.33-53.758,53.965-77.727
				c32.719-38.002,70.555-71.107,110.885-100.791c142.936-105.215,332.672-151.482,458.834-278.406
				c24.83-24.998,48.004-46.904,75.662-68.881c68.66-54.564,144.096-120.109,179.916-202.416
				c15.059-34.586,4.676-57.746-2.602-93.033c-7.689-37.283-13.238-75.293-9.111-113.395c1.234-11.393,4.297-23.215,6.416-34.842
				c-1.428-0.822-2.855-1.645-4.285-2.465c-47.104-27.063-71.891-65.678-107.84-98.689c-7.373,10.924-15.973,21.293-20.012,34.842
				c-3.916,13.131-6.275,27.67-7.398,41.293c-3.572,43.359,5.176,88.537-3.771,131.469c-9.691,46.484-44.652,91.465-83.625,117.619
				c-39.893,26.77-88.219,46.086-115.33,87.941c-42.395,65.455-125.129,106.162-191.023,144.523
				c-51.359,29.898-99.674,53.684-145.029,92.758c-36.299,31.273-71.098,64.441-103.182,100.033
				c-49.875,55.313-93.1,112.246-131.467,176.191c-16.299,27.164-31.354,56.26-45.342,84.156
				c-11.281,22.496-11.219,49.313-16.83,73.424c-4.561,19.604-6.404,39.555-8.803,59.902c21.182,12.633,43.34,25.287,65.68,37.66
				c0.865-9.834,0.803-19.994,2.828-28.635C7282.879,5882.618,7302.102,5855.917,7317.379,5829.813z"/>
			<path id="_x31_80623578" fill="#6ACBBA" stroke="#000000" d="M7233.037,5769.989c13.984-27.896,29.043-56.99,45.342-84.156
				c38.367-63.941,81.592-120.877,131.467-176.191c32.082-35.59,66.883-68.76,103.182-100.033
				c45.355-39.074,93.67-62.859,145.029-92.758c65.893-38.363,148.629-79.068,191.021-144.523
				c27.113-41.855,75.438-61.174,115.332-87.941c38.973-26.15,73.934-71.131,83.625-117.621c8.947-42.93,0.199-88.107,3.771-131.467
				c1.123-13.619,3.482-28.16,7.398-41.293c4.039-13.547,12.641-23.918,20.01-34.84c-14.861-13.65-31.633-26.344-52.682-36.863
				c-16.943-8.475-35.961,0.012-49.309,20.756c-15.344,23.846-51.383,82.559-73.766,106.08
				c-40.477,42.523-88.416,83.414-133.949,120.49c-92.527,75.318-199.873,136.035-306.221,188.809
				c-45.182,22.416-84.01,55.588-129.203,77.914c-39.994,19.748-51.186,44.182-80.955,75.938
				c-120.875,128.916-177.281,237.42-190.836,397.764c-3.859,45.625-11.041,99.617,141.15,190.893
				c1.313,0.787,2.633,1.578,3.951,2.365c2.4-20.346,4.246-40.299,8.807-59.902
				C7221.818,5819.302,7221.754,5792.487,7233.037,5769.989z"/>
			<path id="_x31_80623577" fill="#7ED04B" stroke="#000000" d="M4819.81,2829.308c-26.075-43.242,100.336-93.989,121.183-45.932
				c8.055,18.676-31.538,27.565-49.797,38.776C4863.641,2839.01,4832.432,2850.223,4819.81,2829.308z"/>
			<path id="_x31_80623576" fill="#8ADA87" stroke="#000000" d="M7632.871,4527.333c0,0,106.639-25.621,141.809-53.994
				c20.504-16.533,96.215-107.072,56.254-324.75c-21.873-119.151-79.369-189.771-175.359-259.054
				c-4.596,79.081,4.133,150.817,4.043,231.068c-0.088,75.126-2.424,150.542-11.033,225.228
				C7646.563,4363.397,7632.871,4527.333,7632.871,4527.333z"/>
			<path id="_x31_80623575" fill="#A0EE9D" stroke="#000000" d="M7356.193,5207.438c1.807-16.736,112.24-69.578,129.635-80.807
				c41.883-27.055,83.203-55.016,123.445-84.482c94.102-68.922,186.035-128.137,270.662-208.439
				c52.264-49.588,111.004-140.727,61.32-211.115c-36.35-51.479-110.498-82.813-170.762-94.453
				c-40.137-7.74-139.967,8.719-139.967,8.719s-10.445,94.287-17.832,138.24c0,0-41.459,246.266-163.162,406.791
				C7425.449,5113.636,7360.563,5167.179,7356.193,5207.438z"/>
			<path id="_x31_80623564" fill="#98D6F9" stroke="#000000" d="M7618.186,4527.063c-19.479,178.975-81.807,340.771-113.352,405.391
				c-74.211,151.979-154.896,235.229-243.42,312.729c-37.467,32.793-88.908,77.75-132.793,99.645
				c-93.502,46.646-197.949,85.113-301.578,72.002c-117.639-14.889-241.9-80.846-345.899-138.281
				c-89.446-49.387-396.298-288.859-450.408-363.061c-89.26-122.42-168.935-201.939-241.488-314.684
				c-73.726-114.547-161.412-130.5-179.204-209.375c-2.983-99.156-6.929-239.101-19.45-351.582
				c-10.395-93.386-25.398-186.181-39.498-275.996c-18.23-116.287-26.941-229.979-66.121-348.167
				c-34.358-103.617-9.245-225.146,14.093-330.414c58.436-263.6,370.477-317.972,574.74-410.336l10.709-4.373
				c22.441-3.915,42.258-6.008,58.65-6.077c129.939-0.545,244.854,23.575,369.58,57.79
				c92.465,25.362,178.848,74.835,266.334,114.151c185.486,83.359,351.146,170.388,490.164,325.227
				c96.871,107.888,284.854,372.158,315.557,547.785C7630.518,3970.905,7642.469,4226.702,7618.186,4527.063z"/>
			<path id="_x31_80623563" fill="#80CDF8" stroke="#000000" d="M5663.328,4538.917c-21.794-41.5-11.705-47.174-7.266-41.504
				c120.143,115.996,231.979,264.299,324.862,403.557c20.13,30.182,79.507,82.498,132.839,136.928
				c55.079,56.213,125.22,94.668,187.403,142.105c60.16,45.881,117.233,96.1,182.748,134.52
				c127.296,74.684,245.872,128.723,401.935,129.951c132.654,1.037,230.33-62.307,263.529-85.145c0,0,70.537-50.5,62.25-31.125
				c-8.299,19.359-75.375,82.266-101.658,132.822c-26.973,51.887-57.475,101.146-68.451,170.182
				c-14.494,91.313,8.021,186.713,4.203,199.215c-33.072,108.189-201.537,35.572-264.967,129.811
				c-23.709,35.236,0.596,85.949-38.283,113.287c-43.033,30.232-113.461-15.779-154.885-29.52
				c-109.671-36.373-237.244-8.408-338.39-69.1c-91.981-55.17-148.005-199.434-181.239-297.559
				c-20.448-60.355-26.065-126.6-65.645-179.17c-89.64-119.041-249.184-175.088-384.461-219.43
				c-43.299-14.191-120.378-58.08-188.873-114.092c-15.396-12.598-52.566-59.227-29.093-76.762
				c17.763-13.25,81.635,9.922,116.889,16.762c50.664,9.84,105.599,2.225,157.065-0.238c63.612-3.045,115.873,6.541,155.632-33.234
				c33.197-33.217,35.259-114.15,35.259-114.15c3.109-26.979-9.625-118.807-45.692-180.537
				c-36.084-61.727-96.402-93.018-97.568-97.514C5713.162,4646.815,5703.813,4593.901,5663.328,4538.917z"/>
			<path id="_x31_80623571" fill="#80CDF8" stroke="#000000" d="M5949.994,6328.835c-2.126,3.127-3.75,6.689-4.911,10.533
				c-8.211,27.135,6.612,68.385,29.957,71.971c3.147,0.482,6.448,0.289,9.869-0.721c6.809-2.02,46.847-13.953,52.566-22.152
				C6069.802,6342.153,5977.907,6287.778,5949.994,6328.835z"/>
			<path id="_x31_80623572" fill="#80CDF8" stroke="#000000" d="M6579.783,6377.274c-5.502-23.523-15.465-51.67-29.939-67.33
				c-8.932-9.666-19.586-14.563-31.971-10.691c-9.607,3.006-20.256,11.277-31.957,26.729c-42.331,55.91,32.461,169.34,93.91,178.578
				C6634.223,6512.722,6588.166,6413.085,6579.783,6377.274z"/>
			<path id="_x31_80623570" fill="#80CDF8" stroke="#000000" d="M7334.537,5999.638c3.938,57.844-25.369,115.396-47.191,166.176
				c-28.086,65.17-82.701,110.76-113.93,172.609c-43.414,85.943-79.404,156.826-165.072,207.971
				c-102.5,61.193-219.299,91.848-327.072,141.838c-112.83,52.334-285.563,146.498-409.664,78.359
				c-56.307-30.914-117.753-55.512-171.93-89.848c-31.892-20.213-58.786-45.076-92.82-61.936
				c-71.752-35.525-168.382-77.686-201.724-156.293c-14.365-33.875-4.012-58.25,3.406-88.68
				c-95.315,51.693-167.769,118.951-167.769,118.951c23.047,19.762,45.917,38.896,68.657,57.195
				c179.756,144.674,374.592,293.352,636.48,320.836c201.175,21.094,381.269-60.945,533.991-156.459
				c109.166-68.264,253.531-155.957,362.41-269.859c100.766-105.434,223.041-289.51,232.35-301.654l27.664-42.889
				C7453.547,6055.333,7394.145,6029.286,7334.537,5999.638z"/>
			<path id="_x31_80623569" fill="#80CDF8" stroke="#000000" d="M7334.537,5999.638c-1.26-0.625-2.516-1.25-3.773-1.877
				c-38.633-19.311-74.85-28.076-105.375-24.701c-4.951,16.814-8.26,35.703-14.115,52.852
				c-11.904,34.844-30.412,68.5-40.906,103.611c-12.738,42.621-28.051,89.158-45.102,130.295
				c-25.832,62.326-90.682,109.484-144.963,145.537c-58.293,38.719-121.371,69.406-182.734,102.797
				c-43.975,23.926-91.076,39.379-136.6,60.051c-46.848,21.273-93.443,4.166-131.73-26.027
				c-13.283-10.477-23.824-31.055-39.748-37.166c-9.915-3.805-32.775-6.346-42.86-5.078c-11.756,1.479-23.768,5.984-34.779,10.617
				c-19.691,8.287-39.758,19.072-44.268,41.104c-3.52,17.178,7.483,32.926-8.264,46.982c-29.419,26.252-75.324,11.639-92.35-20.754
				c-24.891-47.373-40.182-94.707-94.068-117.689c-40.226-17.154-85.425-3.961-126.441,4.541
				c-14.125,2.93-35.121,10.822-49.269,5.096c-17.251-6.986-17.466-41.133-22.151-58.488c-23.344-3.588-38.168-44.836-29.957-71.971
				c-4.289-5.588-10.414-12.973-16.875-18.174c-41.408,10.494-82.293,28.371-119.662,48.639
				c-7.421,30.428-17.773,54.803-3.406,88.678c33.343,78.609,129.968,120.771,201.723,156.293
				c34.034,16.861,60.929,41.723,92.82,61.936c54.178,34.34,115.624,58.936,171.93,89.852
				c124.105,68.137,296.835-26.027,409.665-78.361c107.773-49.992,224.572-80.643,327.072-141.836
				c85.67-51.146,121.654-122.027,165.072-207.971c31.229-61.85,85.848-107.441,113.93-172.611
				C7309.17,6115.034,7338.475,6057.481,7334.537,5999.638z"/>
			<path id="_x31_80623568" fill="#80CDF8" stroke="#000000" d="M5945.082,6339.368c1.162-3.844,2.786-7.406,4.912-10.533
				c27.913-41.059,119.805,13.316,87.478,59.633c-5.718,8.197-45.756,20.131-52.566,22.15c-3.421,1.01-6.722,1.203-9.869,0.721
				c4.688,17.354,4.902,51.5,22.152,58.488c14.146,5.727,35.143-2.166,49.268-5.094c41.017-8.504,86.216-21.697,126.441-4.543
				c53.889,22.98,69.177,70.316,94.07,117.691c17.023,32.393,62.928,47.004,92.348,20.752c15.747-14.057,4.744-29.803,8.264-46.98
				c4.512-22.031,24.575-32.816,44.268-41.105c11.012-4.633,23.023-9.139,34.779-10.617c10.084-1.268,32.945,1.273,42.86,5.078
				c15.924,6.111,26.461,26.688,39.748,37.166c38.287,30.191,84.885,47.299,131.73,26.025c45.523-20.672,92.623-36.121,136.6-60.049
				c61.361-33.391,124.443-64.078,182.734-102.797c54.283-36.053,119.131-83.215,144.963-145.537
				c17.051-41.135,32.365-87.674,45.102-130.295c10.494-35.115,29.002-68.768,40.906-103.611
				c5.855-17.146,9.164-36.035,14.115-52.85c-25.908,2.863-47.719,14.471-63.422,35.811
				c-34.164,46.494-36.777,78.303-107.877,120.389c-62.484,36.998-206.939,29.635-229.072,111.918
				c-18.156,67.51-4.896,107.377-80.213,141.23c-96.961,43.572-126.199-39.152-194.961-72.465
				c14.475,15.662,24.439,43.811,29.941,67.33c8.381,35.809,54.438,135.447,0.041,127.283
				c-61.449-9.236-136.24-122.666-93.909-178.576c11.7-15.451,22.349-23.725,31.956-26.73c-2.584-0.494-5.219-0.92-7.914-1.262
				c-74.615-9.482-136.224,34.402-204.9,50.449c-95.636,22.352-178.218-21.059-270.552-34.725
				c-34.546-5.117-70.619-1.561-106.3,7.48C5934.667,6326.397,5940.792,6333.78,5945.082,6339.368z"/>
			<path id="_x31_80623567" fill="#90CBED" stroke="#000000" d="M5508.338,3546.229c-36.442-24.286-71.208-45.828-104.146-74.355
				c-31.613-27.38-65.415-53.084-104.272-69.285c-39.765-16.576-81.341-28.404-120.502-46.529
				c-81.236-37.594-151.386-94.375-230.567-135.426c-47.84-24.805-112.046-31.315-164.851-43.631l2.083-0.688l-0.016-58.376
				c106.347-3.577,211.783-10.848,347.07-38.815c0,0,75.041-8.158,145.956,33.172c58.2,33.906,108.17,121.779,130.782,170.139
				c40.222,86.028,73.357,175.097,96.596,267.013L5508.338,3546.229z"/>
			<path id="_x31_80623566" fill="#90CBED" stroke="#000000" d="M4786.138,3417.041l0.049,229.387c0,0,38.741,11.326,74.726,72.189
				c35.978,60.866,143.922,179.819,224.208,373.487c80.276,193.678,62.148,298.549,87.056,317.92
				c24.905,19.35,221.202,131.385,237.976,96.801c36.132-74.467,177.589-127.861,177.589-127.861
				c-13.902-69.566-5.015-143.92-4.371-212.71c1.479-161.238-28.104-323.55-50.968-485.408
				c-5.897-41.74-13.969-82.934-23.984-123.572l-0.078-11.046c-36.441-24.286-71.207-45.828-104.146-74.355
				c-31.612-27.38-65.414-53.084-104.271-69.285c-39.765-16.576-81.341-28.404-120.502-46.529
				c-81.236-37.594-151.387-94.375-230.567-135.426c-47.84-24.805-112.047-31.316-164.852-43.631L4786.138,3417.041z"/>
			<path id="_x31_80623562" fill="#A2B1D8" stroke="#000000" d="M5475.55,5308.071c37.706-22.738,65.393-28.342,125.752-8.557
				c135.268,44.348,294.788,100.389,384.41,219.414c39.58,52.572,36.896,118.816,57.338,179.172
				c33.237,98.133,97.574,242.387,189.55,297.561c101.153,60.691,228.718,32.727,338.391,69.094
				c41.428,13.744,120.795,56.834,169.734,37.598c58.104-22.842,46.822-99.67,70.531-134.904
				c63.438-94.244,220.082,17.182,263.518-128.725l145.578,102.998c-34.072,12.379-54.09,22.309-68.764,42.25
				c-34.166,46.49-36.779,78.303-107.881,120.389c-62.482,36.99-214.408,36.055-236.545,118.336
				c-18.164,67.518,2.32,100.395-72.74,134.811c-95.318,43.701-117.225-72.148-217.781-84.936
				c-74.61-9.486-153.279,34.926-221.966,50.975c-95.636,22.346-288.529-11.43-236.661-79.922
				c34.801-45.973,10.358-80.943-33.226-118.281c-80.541-69-183.411-93.439-284.343-122.373
				c-160.556-46.023-310.917-112.277-469.038-170.064c-81.796-29.895-45.433-202.621,24.18-334.699
				C5360.017,5375.962,5440.369,5329.317,5475.55,5308.071z"/>
			<path id="_x31_80623565" fill="#96A7D3" stroke="#000000" d="M4786.193,3671.337
				c150.457,159.328,285.986,420.543,333.386,636.332c20.418,92.91-31.145,205.828-49.744,296.07
				c-18.356,89.111-17.462,177.143-6.326,268.285c8.128,66.523,9.512,196.346-4.616,238.072
				c-22.661,66.885-168.797,167.609-272.341,171.262L4786.193,3671.337z"/>
			<path id="_x31_80623561" fill="#96A7D3" stroke="#000000" d="M5068.128,6073.692c109.176,37.605,154.014,55.279,198.516,90.553
				c134.229,106.418,239.302,200.59,357.007,301.537c0,0,149.204-130.852,278.305-169.725
				c63.715-19.189,170.143-27.51,133.696-117.234c-26.089-64.248-99.693-79.211-157.203-102.461
				c-68.841-27.838-171.841-55.166-243.835-75.447c-110.824-31.217-184.012-59.98-290.161-101.539
				c-71.494-27.986-309.644-159.008-357.349-93.387C4970.502,5828.819,5007.908,6052.937,5068.128,6073.692z"/>
			<path id="_x31_80623573" fill="#B3C0DF" stroke="#000000" d="M5600.302,4451.017c-21.033,43.027-31.941,95.232-29.403,142.779
				c1.622,30.391,12.534,88.213,39.222,112.369c3.184-5.076,6.629-9.801,10.366-14.018c18.959-21.385,47.026-31.836,76.076-23.543
				C5726.091,4677.042,5643.332,4526.489,5600.302,4451.017z"/>
			<path id="_x31_80623574" fill="#B3C0DF" stroke="#000000" d="M5600.302,4451.017c-14.259-25.012-24.157-41.777-24.157-41.777
				c-203.461,66.729-405.358,509.328-158.512,641.781c80.788,43.326,199.26,26.41,287.329,32.633c0,0-95.473-73.291-120.396-141.088
				c-15.458-42.033-9.165-96.807-8.332-128.664c3.254-23.902,12.613-73.834,33.884-107.734
				c-26.687-24.158-37.599-81.98-39.223-112.371C5568.36,4546.249,5579.269,4494.044,5600.302,4451.017z"/>
			<path id="_x31_80623557" fill="#E64438" stroke="#000000" d="M4786.716,6014.937c66.081,20.9,179.012,31.43,224.146,46.51
				c0,0-20.846-71.023-44.492-159.99c-18.059-67.91-32.268-130.424,56.001-143.205c7.34-1.059,115.308,29.502,170.186,45.627
				c1.244,0.283-3.334-185.404,72.315-313.113c82.627-139.477,82.63-121.906,201.485-211.99
				c43.372-32.869-9.485-49.348-47.749-87.145c-26.789-26.457-53.328-80.793-74.736-134.873
				c-24.568-62.012-50.667-130.68-54-163.932c-8.577-85.713,4.116-178.469,31.767-239.338c0,0,47.033-83.037,52.56-102.393
				c5.517-19.377-185.419-99.57-213.083-110.635c-27.302-10.904-61.469,163.889-69.12,204.779
				c-16.582,88.543,5.588,260.084,8.373,343.092c2.783,83.01-2.743,107.91-33.162,160.498
				c-30.434,52.58-113.426,119.006-168.769,138.373c-55.333,19.393-111.874,21.545-111.874,21.545"/>
			<path id="_x31_80623558" fill="#FF5547" stroke="#000000" d="M4786.716,6014.937c40.947,12.951,83.88,18.428,126.116,25.75
				c16.369,2.842,81.502,18.029,98.03,20.758c-5.2-18.377-8.222-29.93-12.879-44.863c-16.391-52.547-36.473-124.834-47.399-182.85
				c-13.001-68.932-55.622-212.15-163.945-185.145L4786.716,6014.937z"/>
			<path id="_x31_80623559" fill="#FF5547" stroke="#000000" d="M5164.623,5746.964c-12.245-23.109-24.819-46.006-38.664-68.207
				c-28.117-45.096-60.402-87.801-98.708-124.77c-72.026-69.518-145.604-95.822-240.661-89.795l0.04,182.83
				c21.547-3.072,42.273-0.736,61.009,7.006c16.113,6.656,30.753,17.311,43.176,31.955c26.462,31.188,38.705,70.873,49.949,109.395
				c4.865,16.67,6.624,31.916,12.978,46.867c-4.591-42.119,7.202-75.102,68.626-83.996c7.342-1.057,115.31,29.502,170.188,45.627
				c0.028,0.006,0.055-0.086,0.078-0.271c-3.237-8.719-6.762-17.289-10.414-25.811
				C5177.475,5766.72,5170.252,5757.593,5164.623,5746.964z"/>
			<path id="_x31_80623560" fill="#F2483B" stroke="#000000" d="M5418.61,5191.628c-26.79-26.453-53.329-80.791-74.738-134.869
				c-24.567-62.012-50.667-130.682-54-163.932c-8.577-85.715,4.117-178.469,31.769-239.338c0,0,47.031-83.039,52.558-102.395
				c5.519-19.377-185.419-99.57-213.081-110.635c-27.303-10.904-61.47,163.889-69.12,204.779
				c-16.583,88.543,5.586,260.084,8.373,343.092c2.783,83.008-2.743,107.91-33.164,160.496
				c-30.433,52.582-113.425,119.008-168.768,138.377c-55.333,19.389-111.875,21.543-111.875,21.543l0.034,155.443
				c95.059-6.025,168.634,20.277,240.663,89.797c38.306,36.969,70.591,79.674,98.707,124.768
				c13.844,22.201,26.42,45.098,38.663,68.207c5.63,10.629,12.852,19.756,17.599,30.828c3.652,8.525,7.178,17.09,10.414,25.811
				c0.999-7.889-1.686-188.047,72.238-312.842c82.627-139.477,82.629-121.906,201.484-211.988
				C5509.729,5245.903,5456.874,5229.427,5418.61,5191.628z"/>
			<path id="_x31_80623647" fill="#CCCCCC" stroke="#000000" d="M7648.732,3851.006c2.166,27.309,4.08,54.868,5.58,82.427
				c-0.318,61.179,5.174,119.617,5.352,183.367c0.006,15.937-0.158,31.71-0.402,47.231c-0.082,5.231-0.162,10.377-0.248,15.439
				c-0.162,5.147-0.246,10.211-0.41,15.274c-0.248,10.044-0.658,20.007-0.988,29.799c-1.238,29.385-2.977,57.361-5.209,83.51
				c-0.414,4.316-0.746,8.551-1.16,12.701c-0.828,8.635-1.738,17.02-2.65,25.15c-0.664,5.479-1.16,11.455-1.656,17.768
				c-2.816,31.129-8.115,92.803-11.342,130.906c-2.572,14.859-5.971,28.805-10.533,40.924c-1.994,5.396-4.314,10.461-6.807,15.109
				c21.99-409.487,12.324-558.901-33.393-841.121c-28.512-176.054-218.746-439.897-315.557-547.787
				c-139.076-154.862-304.697-241.902-490.242-325.282c-87.418-39.245-173.842-88.78-266.318-114.079
				c-124.688-34.255-239.578-58.384-369.568-57.856c-89.982,0.437-283.047,61.656-451.119,151.677
				c-126.072,67.516-234.131,165.156-296.05,188.248c-118.94,44.271-186.924,59.06-262.871,74.767
				c-135.299,27.921-240.719,35.25-347.053,38.762l-0.062-273.848l0.002-0.084c75.702,1.064,153.396-5.263,232.086-20.885
				c30.713-5.985,61.674-13.463,92.634-22.52c20.668-5.979,41.419-12.626,62.166-20.019c13.365-4.734,26.063-9.468,38.182-14.287
				c96.285-37.873,155.458-76.484,201.354-121.07c66.474-64.597,105.056-141.638,188.208-246.828
				c18.256-23.081,40.166-41.182,64.814-54.966c11.787-6.645,24.318-12.29,37.352-17.109c19.506-7.06,40.34-12.211,62.088-15.536
				c156.881-24.273,360.018,42.918,483.215,92.943c62.182,25.303,126.188,49.859,190.688,75.163
				c166.529,65.289,335.967,135.146,483.416,232.647c44.748,29.541,87.504,61.656,127.523,97.007
				c77.215,68.217,128.773,110.375,176.928,158.175c39.521,39.007,76.721,81.829,123.965,145.736
				c13.451,18.178,27.736,38.177,43.178,60.256c28.564,40.999,68.672,99.178,106.371,159.269
				c46.254,73.701,88.689,150.06,101.234,200.359c17.695,70.887,31.412,158.791,41.145,252.421
				C7644.822,3806.516,7646.9,3828.677,7648.732,3851.006z"/>
			<path id="_x31_80623648" fill="#CCCCCC" stroke="#000000" d="M5681.356,4667.237c166.027,44.238,207.903,287.287,173.994,358.84
				c-82.721,174.486-263.363-3.115-277.553-121.027C5565.175,4800.077,5598.461,4645.153,5681.356,4667.237z"/>
			<path id="_x31_80623649" fill="#CCCCCC" stroke="#000000" d="M7758.35,5723.149c-107.318-12.408-312.814,135.496-327.465,244.607
				c-5.814,43.309,17.477,65.955,90.801,99.137c0,0,21.441-22.445,47.387-49.762c0.801-0.932,1.6-1.879,2.398-2.811
				c22.646-26.252,45.871-50.555,69.559-73.512c7.629-8.221,13.398-14.543,16.215-17.83c5.119-5.975,24.723-22.225,49.387-41.842
				c43.705-37.584,88.535-72.605,133.797-108.508C7821.152,5741.026,7794.451,5727.325,7758.35,5723.149z"/>
			<path id="_x31_80623646" fill="#AAAAAA" stroke="#000000" d="M5279.094,3112.293c-70.915-41.33-145.955-33.173-145.955-33.173
				c58.791-12.462,129.056-26.761,174.993-44.276c37.979-14.472,78.301-23.57,114.555-42.33
				c38.582-19.965,74.044-49.609,109.948-74.41c38.77-26.79,78.246-54.481,118.588-78.814
				c50.17-30.267,102.217-54.684,155.91-78.873c22.148-9.978,44.598-20.148,67.652-27.837
				c41.643-13.89,156.877-57.639,199.021-57.648c-204.264,92.364-516.305,146.736-574.741,410.336
				c-23.338,105.267-48.451,226.795-14.092,330.413c39.18,118.188,47.891,231.881,66.121,348.168
				c14.099,89.814,29.102,182.61,39.496,275.994c15.216,136.735,16.658,265.626,20.842,402.589
				c-45.479-77.797-28.887-187.492-28.062-276.179c1.48-161.237-28.104-323.549-50.968-485.407
				c-19.627-138.99-63.4-271.973-122.524-398.416C5387.264,3234.071,5337.295,3146.199,5279.094,3112.293z"/>
		</g>
	</g>
	<g transform="scale(1.0)">
		<g id="_x31_80623552_1_" transform=" scale(1.0, 1.0)">
			<path id="_x31_80623554_1_" fill="#BFDAE3" stroke="#000000" d="M4782.004,2844.019l0.314-1411.15
				c-183.572-560.249-997.586-403.939-1511.721-281.714c-446.076,106.046-819.5,264.269-1209.447,502.451
				c-99.629,60.851-544.674,274.452-857.887,575.33C777.057,2638.349,679.08,3196.88,776.797,3789.403
				c95.48,578.988,196.391,911.871,364.963,1239.68c109.689,213.305,221.273,387.42,381.717,564.545
				c154.494,170.564,328.566,253.174,473.055,420.695c101.654,117.857,196.512,287.383,329.156,426.176
				c108.877,113.902,253.242,201.596,362.41,269.857c152.721,95.516,332.814,177.555,533.99,156.461
				c261.89-27.484,456.726-176.162,636.481-320.836c138.981-111.852,282.281-254.492,442.785-381.736
				c73.711-58.434,185.313-84.363,277.2-108.352c64.321-16.818,139.261-20.885,202.729-40.957L4782.004,2844.019z"/>
			<path id="_x31_80623555_1_" fill="#B0FFB8" stroke="#000000" d="M2505.641,5710.124
				c-13.742-163.285-55.232-226.961-127.178-323.766c-49.873-67.164-134.361-138.656-259.998-304.451
				c-121.738-160.484-163.189-406.781-163.189-406.781c-11.365-28.641-23.359-220.477-35.869-329.221
				c-24.854-215.83-7.252-595.009,47.166-813.56c22.768-91.304,144-268.334,207.605-359.63
				c135.264-193.878,185.492-224.081,344.07-364.165c222.922-196.85,530.41-294.563,801.625-404.82
				c175.08-71.1,511.953-176.941,647.469-5.331c147.795,187.052,154.912,285.004,427.741,382.187
				c131.309,46.762,261.794,65.138,386.888,63.423l0.001,0.083l0.319-1411.15c-183.572-560.271-997.596-403.981-1511.695-281.742
				c-446.113,106.068-819.523,264.281-1209.471,502.428c-99.623,60.823-544.682,274.471-857.861,575.307
				c-426.26,409.47-524.252,968.014-426.518,1560.472c95.494,579.006,196.441,911.895,364.959,1239.736
				c109.689,213.275,221.297,387.367,381.713,564.545c154.525,170.537,328.58,253.168,473.055,420.713
				c15.023,17.436,29.959,35.951,44.814,55.377c0,0,183.969-85.291,323.191-168.766
				C2516.738,5809.735,2509.527,5755.696,2505.641,5710.124z"/>
			<path id="_x31_80623630_1_" fill="#1F9D5A" stroke="#000000" d="M2750.303,1497.477l-62.553-162.13l0.002-0.083
				c184.543-74.416,375.893-134.887,582.844-184.064c156.648-37.236,341.102-77.621,527.131-99.906v0.083l0.166,1.077l0.559,101.522
				c-155.15,24.699-302.998,66.17-413.824,100.346C3167.627,1321.178,2961.91,1416.175,2750.303,1497.477z"/>
			<path id="_x31_80623629_1_" fill="#1F9D5A" stroke="#000000" d="M2750.303,1497.475
				c211.607-81.302,417.324-176.298,634.324-243.155c110.826-34.174,258.676-75.646,413.822-100.347l1.357,245.457
				c-77.701,27.128-155.658,62.141-235.021,91.59c-232.111,86.027-464.896,210.571-687.719,334.786L2750.303,1497.475z"/>
			<path id="_x31_80623628_1_" fill="#1F9D5A" stroke="#000000" d="M2877.066,1825.807
				c222.822-124.215,455.607-248.759,687.719-334.786c79.365-29.45,157.318-64.463,235.02-91.59l1.992,366.65
				c-57.279,18.996-111.406,41.48-156.152,64.215c-215.518,109.688-435.342,197.131-655.09,289.553L2877.066,1825.807z"/>
			<path id="_x31_80623627_1_" fill="#1F9D5A" stroke="#000000" d="M3099.398,2401.772l-108.844-281.923
				c219.748-92.422,439.572-179.864,655.09-289.553c44.746-22.734,98.871-45.219,156.152-64.215l2.314,420.44
				c-11.455,0.246-23.078,1.738-34.699,4.558c-149.426,35.909-401.785,98.275-546.65,159.17
				C3181.586,2367.591,3140.41,2384.598,3099.398,2401.772z"/>
			<path id="_x31_80623626_1_" fill="#1F9D5A" stroke="#000000" d="M3129.186,2478.894l-29.783-77.122
				c41.01-17.175,82.184-34.183,123.361-51.522c144.865-60.895,397.225-123.261,546.648-159.17
				c11.623-2.817,23.244-4.312,34.699-4.557l0.637,113.888l-1.662,10.377c-156.881-24.276-360.02,42.917-483.215,92.943
				C3257.691,2429.034,3193.686,2453.59,3129.186,2478.894z"/>
			<path id="_x31_80623635_1_" fill="#1F9D5A" stroke="#000000" d="M3798.449,1153.974l-0.557-101.521l-0.166-1.077v-0.083
				c421.863-50.706,851.676-8.441,982.16,374.592l-146.211,142.327c-12.023-52.631-28.033-103.933-49.023-153.163
				C4460.037,1123.076,4114.229,1103.74,3798.449,1153.974z"/>
			<path id="_x31_80623634_1_" fill="#1F9D5A" stroke="#000000" d="M3798.449,1153.975
				c315.777-50.233,661.588-30.896,786.201,261.073c20.99,49.23,37,100.532,49.025,153.163l-208.73,203.242
				c-5.111-147.26-39.947-275.433-198.807-363.293c-146.826-81.216-286.285-57.756-426.334-8.729L3798.449,1153.975z"/>
			<path id="_x31_80623633_1_" fill="#1F9D5A" stroke="#000000" d="M3799.805,1399.431c140.051-49.026,279.508-72.486,426.332,8.729
				c158.859,87.861,193.693,216.034,198.809,363.294v0.083l-181.166,176.351c-6.863-121.776-41.203-234.509-154.178-235.862
				c-85.166-1.018-191.008,21.789-287.805,54.056L3799.805,1399.431z"/>
			<path id="_x31_80623632_1_" fill="#1F9D5A" stroke="#000000" d="M3801.797,1766.081c96.797-32.268,202.639-55.071,287.805-54.056
				c112.977,1.354,147.316,114.087,154.178,235.862v0.083l-301.639,293.783c-40.666-35.287-88.473-56.466-138.029-55.231
				L3801.797,1766.081z"/>
			<path id="_x31_80623631_1_" fill="#1F9D5A" stroke="#000000" d="M3866.258,2315.615l-1.084,10.708
				c-19.506-7.06-40.34-12.211-62.088-15.536l1.662-10.377l-0.637-113.888c49.557-1.234,97.363,19.944,138.029,55.231
				L3866.258,2315.615z"/>
			<path id="_x31_80623607_1_" fill="#188064" stroke="#000000" d="M1045.924,2405.79l0.748,0.498l98.52,59.457
				c-36.867,48.719-70.248,99.844-99.895,152.88c-101.729,181.932-152.402,357.816-169.211,543.503l-119.947-17.127
				C788.99,2875.729,880.436,2624.813,1045.924,2405.79z"/>
			<path id="_x31_80623606_1_" fill="#188064" stroke="#000000" d="M1172.83,3204.363l-296.746-42.235
				c16.809-185.687,67.484-361.57,169.211-543.504c29.646-53.035,63.027-104.161,99.896-152.879l218.033,131.451
				C1249.545,2779.542,1193.383,2989.459,1172.83,3204.363z"/>
			<path id="_x31_80623605_1_" fill="#188064" stroke="#000000" d="M1387.211,2970.991c-32.143,83.416-53.66,168.33-67.211,254.406
				l-147.17-21.034c20.553-214.906,76.715-424.822,190.395-607.168l163.006,98.321
				C1467.191,2779.841,1423.51,2876.868,1387.211,2970.991z"/>
			<path id="_x31_80623604_1_" fill="#188064" stroke="#000000" d="M1588.443,3263.644L1320,3225.398
				c13.551-86.076,35.068-170.989,67.211-254.406c36.299-94.124,79.98-191.151,139.02-275.476l253.725,153.043
				c-55.879,68.138-102.881,142.503-135.604,221.521C1618.109,3133.492,1600.496,3198.151,1588.443,3263.644z"/>
			<path id="_x31_80623603_1_" fill="#188064" stroke="#000000" d="M1961.143,3316.771l-372.697-53.127
				c12.053-65.491,29.666-130.151,55.908-193.563c32.723-79.019,79.721-153.383,135.604-221.521l0.082,0.001l353.652,213.41
				c-39.191,47.722-75.559,96.938-107.779,147.068c-23.084,35.938-44.672,71.711-64.688,107.73L1961.143,3316.771z"/>
			<path id="_x31_80623602_1_" fill="#188064" stroke="#000000" d="M2216.936,3112.13l0.418,0.332
				c-13.453,18.176-27.736,38.177-43.178,60.254c-28.564,41.001-68.672,99.18-106.371,159.271l-106.58-15.216
				c20.014-36.021,41.604-71.791,64.688-107.73c32.219-50.129,68.588-99.346,107.779-147.067L2216.936,3112.13z"/>
			<path id="_x31_80623625_1_" fill="#188064" stroke="#000000" d="M2097.572,1631.639
				c196.344-117.744,389.279-215.321,590.178-296.292l62.553,162.13c-4.068,1.577-8.219,3.152-12.287,4.729
				c-192.596,73.42-382.287,142.441-565.014,240.267c-5.063,2.737-10.127,5.392-15.107,8.215L2097.572,1631.639z"/>
			<path id="_x31_80623624_1_" fill="#188064" stroke="#000000" d="M2157.893,1750.687c4.98-2.821,10.045-5.476,15.107-8.214
				c182.729-97.826,372.418-166.847,565.014-240.267c4.07-1.574,8.221-3.151,12.289-4.729l126.764,328.33
				c-15.361,8.546-30.719,17.174-45.996,25.638l-5.143-9.215c21.672-25.064,23.168-41.916-5.463-66.409
				c-19.422-16.607-230.199,61.043-279.51,85.685c-83.85,41.9-173.26,85.626-261.508,128.605L2157.893,1750.687z"/>
			<path id="_x31_80623623_1_" fill="#188064" stroke="#000000" d="M2279.449,1990.11c88.248-42.979,177.66-86.704,261.508-128.605
				c49.311-24.642,260.088-102.291,279.51-85.686c28.633,24.495,27.135,41.346,5.463,66.41l5.145,9.215
				c-49.313,27.714-98.129,55.179-146.279,82.063c-94.975,53.104-223.488,116.992-342.785,179.885L2279.449,1990.11z"/>
			<path id="_x31_80623622_1_" fill="#188064" stroke="#000000" d="M2342.008,2113.39
				c119.297-62.893,247.809-126.781,342.785-179.885c48.152-26.886,96.967-54.351,146.277-82.063
				c15.277-8.464,30.635-17.092,45.996-25.639l113.488,294.044c-81.523,34.265-163.045,69.275-244.318,106.361
				c-93.809,42.814-187.037,87.202-278.857,134.331L2342.008,2113.39z"/>
			<path id="_x31_80623621_1_" fill="#188064" stroke="#000000" d="M2990.559,2119.85l108.844,281.923
				c-169.025,70.602-335.971,142.449-490.639,237.294l-141.385-278.527c91.82-47.127,185.049-91.515,278.855-134.329
				C2827.51,2189.124,2909.031,2154.113,2990.559,2119.85z"/>
			<path id="_x31_80623620_1_" fill="#188064" stroke="#000000" d="M2644.521,2709.632l-35.762-70.565
				c154.67-94.845,321.615-166.692,490.641-237.293l29.781,77.122c-166.529,65.288-335.969,135.143-483.412,232.646
				L2644.521,2709.632z"/>
			<path id="_x31_80623613_1_" fill="#188064" stroke="#000000" d="M1046.672,2406.287l-0.75-0.498
				c46.502-61.582,98.809-120.59,157.342-176.856c92.494-88.881,196.605-170.123,299.803-242.071l0.248,0.334l84.646,98.882
				c-7.223,4.151-14.527,8.217-21.75,12.197c-163.383,90.279-308.096,217.748-421.02,367.471L1046.672,2406.287z"/>
			<path id="_x31_80623612_1_" fill="#188064" stroke="#000000" d="M1363.225,2597.197l-218.033-131.451
				c112.926-149.724,257.639-277.192,421.02-367.471c7.225-3.98,14.527-8.046,21.75-12.197l144.15,168.542
				c-102.031,56.672-196.76,123.141-272.566,211.362C1423.592,2507.728,1391.623,2551.632,1363.225,2597.197z"/>
			<path id="_x31_80623611_1_" fill="#188064" stroke="#000000" d="M1526.23,2695.515l-163.006-98.319
				c28.398-45.566,60.367-89.47,96.32-131.215c75.805-88.22,170.535-154.69,272.566-211.362l124.146,145.129
				c-89.414,58.167-175.012,122.813-261.025,211.614C1570.074,2637.337,1547.154,2665.639,1526.23,2695.515z"/>
			<path id="_x31_80623610_1_" fill="#188064" stroke="#000000" d="M1779.955,2848.559l-253.725-153.044
				c20.924-29.878,43.844-58.178,69.002-84.154c86.014-88.801,171.611-153.446,261.025-211.613l182.406,213.126
				c-93.566,64.974-184.064,144.809-258.625,235.687L1779.955,2848.559z"/>
			<path id="_x31_80623609_1_" fill="#188064" stroke="#000000" d="M2038.664,2612.874l244.398,285.769
				c-52.061,51.538-102.707,106.396-149.371,163.328l-353.652-213.411C1854.6,2757.682,1945.098,2677.848,2038.664,2612.874z"/>
			<path id="_x31_80623608_1_" fill="#188064" stroke="#000000" d="M2341.32,2966.724c-39.52,39.007-76.719,81.829-123.965,145.736
				l-0.418-0.332l-83.246-50.157c46.666-56.934,97.311-111.79,149.371-163.327L2341.32,2966.724z"/>
			<path id="_x31_80623619_1_" fill="#188064" stroke="#000000" d="M1503.314,1987.197l-0.248-0.332
				c246.242-171.688,487.908-290.419,558.061-333.235c12.123-7.388,24.242-14.771,36.363-21.991l0.084,0.001l60.32,119.049
				c-193.27,104.63-379.902,228.85-569.934,335.39L1503.314,1987.197z"/>
			<path id="_x31_80623618_1_" fill="#188064" stroke="#000000" d="M1587.963,2086.079
				c190.033-106.539,376.664-230.761,569.934-335.391l121.553,239.424c-56.867,27.712-113.236,55.175-167.449,81.644
				c-123.945,60.567-257.271,114.576-379.889,182.865L1587.963,2086.079z"/>
			<path id="_x31_80623617_1_" fill="#188064" stroke="#000000" d="M2279.447,1990.11l62.563,123.282
				c-72.145,38.086-140.885,75.757-196.84,110.524c-103.195,64.141-198.088,116.582-288.912,175.83l-124.146-145.129
				c122.619-68.286,255.943-122.297,379.889-182.864C2166.211,2045.286,2222.578,2017.823,2279.447,1990.11z"/>
			<path id="_x31_80623616_1_" fill="#188064" stroke="#000000" d="M2038.664,2612.874l-182.406-213.127
				c90.824-59.246,185.717-111.688,288.912-175.828c55.955-34.771,124.697-72.439,196.84-110.525l125.369,247.146
				c-143.041,73.349-282.596,153.088-415.68,243.372C2047.383,2606.898,2042.98,2609.802,2038.664,2612.874z"/>
			<path id="_x31_80623615_1_" fill="#188064" stroke="#000000" d="M2038.664,2612.872c4.318-3.069,8.719-5.974,13.035-8.962
				c133.084-90.284,272.639-170.024,415.68-243.371l141.385,278.526c-78.621,48.128-154.088,102.316-224.992,165.221
				c-33.709,29.959-67.5,61.494-100.709,94.357L2038.664,2612.872z"/>
			<path id="_x31_80623614_1_" fill="#188064" stroke="#000000" d="M2283.064,2898.644c33.211-32.863,67-64.399,100.709-94.358
				c70.906-62.902,146.371-117.092,224.992-165.219l35.762,70.563l1.242,1.911c-44.748,29.54-87.506,61.656-127.523,97.009
				c-77.215,68.216-128.773,110.373-176.928,158.175L2283.064,2898.644z"/>
			<path id="_x31_80623601_1_" fill="#188064" stroke="#000000" d="M876.084,3162.128c-10.652,116.957-7.859,237.735,4.064,366.235
				c7.619,82.679,18.395,164.28,32.9,244.885l-136.465-1.526l-2.656,0.417c-34.152-215.584-42.238-426.427-17.789-627.138
				L876.084,3162.128z"/>
			<path id="_x31_80623600_1_" fill="#188064" stroke="#000000" d="M1184.24,3776.215l-271.191-2.966
				c-14.506-80.604-25.281-162.207-32.9-244.884c-11.924-128.502-14.717-249.279-4.064-366.237l296.746,42.236
				c-12.146,125.839-12.008,253.341-3.986,378.105C1171.574,3625.219,1176.371,3695.694,1184.24,3776.215z"/>
			<path id="_x31_80623599_1_" fill="#188064" stroke="#000000" d="M1168.844,3582.469c-8.021-124.766-8.16-252.266,3.986-378.105
				l147.17,21.034c-20.533,130.237-22.637,263.049-15.611,397.112c2.727,52.38,0.475,103.843-2.773,155.059l-117.375-1.354
				C1176.371,3695.694,1171.574,3625.219,1168.844,3582.469z"/>
			<path id="_x31_80623598_1_" fill="#188064" stroke="#000000" d="M1552.553,3780.363l-250.936-2.795
				c3.248-51.215,5.498-102.68,2.771-155.059c-7.023-134.063-4.92-266.875,15.613-397.112l268.441,38.245
				c-30.668,166.843-25.311,338.921-35.477,509.668C1552.799,3775.635,1552.717,3778.042,1552.553,3780.363z"/>
			<path id="_x31_80623597_1_" fill="#188064" stroke="#000000" d="M1782.734,3782.906l-230.184-2.541
				c0.17-2.323,0.25-4.73,0.418-7.055c10.166-170.747,4.809-342.826,35.477-509.668l372.695,53.128
				c-56.635,101.591-101.814,204.844-138.613,318.226C1813.889,3661.723,1792.707,3724.224,1782.734,3782.906z"/>
			<path id="_x31_80623596_1_" fill="#188064" stroke="#000000" d="M1782.734,3782.909c9.973-58.686,31.154-121.188,39.793-147.914
				c36.799-113.381,81.979-216.635,138.613-318.226l0.082,0.001l106.582,15.215c-46.254,73.701-88.689,150.061-101.234,200.36
				c-17.695,70.886-31.412,158.789-41.145,252.421l-3.322-0.333L1782.734,3782.909z"/>
			<path id="_x31_80623589_1_" fill="#009C75" stroke="#000000" d="M851.203,4157.731l154.818-23.871
				c11.447,33.289,23.727,66.33,36.918,99.285c21.984,54.957,48.119,112.986,76.576,170.684l-201.307,52.584
				c-25.713-91.314-49.68-189.523-72.648-297.521L851.203,4157.731z"/>
			<path id="_x31_80623588_1_" fill="#009C75" stroke="#000000" d="M1231.563,4099.212c29.688,133.156,72.25,229.455,132.854,199.75
				l22.412-1.736c5.395,10.873,10.953,21.666,16.594,32.375l-283.906,74.23c-28.457-57.699-54.596-115.725-76.578-170.684
				c-13.189-32.957-25.471-65.997-36.916-99.287l225.461-34.647L1231.563,4099.212z"/>
			<path id="_x31_80623587_1_" fill="#009C75" stroke="#000000" d="M1386.83,4297.226l-22.412,1.734
				c-60.604,29.707-103.166-66.594-132.854-199.749l76.287-11.768C1324.439,4160.079,1353.477,4230.229,1386.83,4297.226z"/>
			<path id="_x31_80623586_1_" fill="#009C75" stroke="#000000" d="M1591.947,4280.337l-188.523,49.264
				c-5.641-10.709-11.199-21.502-16.594-32.375c-33.354-66.998-62.391-137.146-78.979-209.782l244.389-37.632
				C1557.949,4127.676,1570.053,4204.794,1591.947,4280.337z"/>
			<path id="_x31_80623585_1_" fill="#009C75" stroke="#000000" d="M1788.158,4013.507c-24.412,38.098-41.355,81.756-51.162,135.128
				c-6.484,35.526-9.895,67.733-10.979,96.702l-134.07,35c-21.895-75.543-33.998-152.661-39.707-230.525L1788.158,4013.507z"/>
			<path id="_x31_80623595_1_" fill="#11AD83" stroke="#000000" d="M1006.021,4133.86l-154.818,23.871l-5.643,1.16
				c-23.797-111.65-46.434-233.846-68.814-369.486c-0.91-5.728-1.906-11.539-2.818-17.266l2.656-0.417l136.465,1.526
				C934.855,3895.608,965.209,4015.729,1006.021,4133.86z"/>
			<path id="_x31_80623594_1_" fill="#11AD83" stroke="#000000" d="M913.051,3773.249l271.191,2.965
				c10.02,103.434,25.102,223.549,47.24,322.999l-225.461,34.647C965.209,4015.729,934.855,3895.608,913.051,3773.249z"/>
			<path id="_x31_80623593_1_" fill="#11AD83" stroke="#000000" d="M1292.939,3968.738c0.572,40.177,5.957,79.772,14.912,118.706
				l-76.287,11.768l-0.082,0.001c-22.141-99.45-37.223-219.566-47.242-322.999l117.375,1.355
				C1297.531,3841.237,1292.041,3904.488,1292.939,3968.738z"/>
			<path id="_x31_80623592_1_" fill="#11AD83" stroke="#000000" d="M1292.939,3968.737c-0.898-64.25,4.592-127.501,8.676-191.167
				l250.936,2.796c-5.17,89.897-6.934,180.211-0.311,269.447l-244.389,37.63C1298.896,4048.511,1293.512,4008.913,1292.939,3968.737
				z"/>
			<path id="_x31_80623591_1_" fill="#11AD83" stroke="#000000" d="M1552.238,4049.812c-6.619-89.235-4.855-179.549,0.313-269.447
				l230.182,2.543c-8.395,48.641-8.988,94.629,11.346,115.717c35.104,36.118,99.117-10.686,125.188-47.618
				c-2.164,27.311-4.078,54.869-5.58,82.427c-0.08-14.443-0.406-28.969-1.316-43.828c-52.969,38.255-94.232,76.929-124.211,123.902
				L1552.238,4049.812z"/>
			<path id="_x31_80623590_1_" fill="#11AD83" stroke="#000000" d="M1782.734,3782.907l139.369,1.527l3.322,0.331
				c-2.248,21.75-4.326,43.91-6.158,66.24c-26.072,36.934-90.084,83.735-125.188,47.618
				C1773.746,3877.536,1774.338,3831.549,1782.734,3782.907z"/>
			<path id="_x31_80623640_1_" fill="#40A666" stroke="#000000" d="M4633.674,1568.21l146.211-142.327
				c0.83,2.324,1.658,4.649,2.406,7.058l-0.119,524.365l-114.479,49.614C4670.383,1859.663,4666.018,1709,4633.674,1568.21z"/>
			<path id="_x31_80623639_1_" fill="#40A666" stroke="#000000" d="M4422.406,1980.052c1.096-72.051,4.848-142.192,2.539-208.518
				v-0.083l208.729-203.241c32.344,140.79,36.705,291.452,34.019,438.709l-248.304,107.607
				C4420.561,2069.453,4421.732,2024.545,4422.406,1980.052z"/>
			<path id="_x31_80623638_1_" fill="#40A666" stroke="#000000" d="M4243.777,1947.972v-0.083l181.164-176.352
				c2.311,66.324-1.439,136.467-2.537,208.519c-0.672,44.49-1.844,89.398-3.016,134.472l-185.045,80.144
				C4238.426,2136.565,4248.904,2039.696,4243.777,1947.972z"/>
			<path id="_x31_80623637_1_" fill="#40A666" stroke="#000000" d="M3993.596,2298.959c-15.27-21.586-32.613-40.931-51.455-57.205
				l301.639-293.783c5.125,91.727-5.354,188.596-9.436,246.7L3993.596,2298.959z"/>
			<path id="_x31_80623636_1_" fill="#40A666" stroke="#000000" d="M3906.344,2336.79l-3.822,6.641
				c-11.783-6.644-24.316-12.29-37.35-17.107l1.084-10.708l75.885-73.861c18.842,16.274,36.186,35.618,51.453,57.205
				L3906.344,2336.79z"/>
			<path id="_x31_80623645_1_" fill="#40A666" stroke="#000000" d="M4781.973,2844.009c-75.706,1.063-153.401-5.264-232.088-20.885
				l2.408-12.037c91.483-28.701,96.816-122.335,98.993-202.688c3.264-120.692,4.954-241.554,8.715-362.331
				c2.424-77.199,6.178-157.715,7.691-239.148l114.479-49.614L4781.973,2844.009z M4676.807,2822.154
				c27.555,16.856,58.762,28.07,71.386,7.154c26.073-43.243-100.338-93.99-121.185-45.933
				C4618.953,2802.052,4658.546,2810.941,4676.807,2822.154z"/>
			<path id="_x31_80623644_1_" fill="#40A666" stroke="#000000" d="M4549.884,2823.119c-30.711-5.985-61.673-13.462-92.633-22.518
				l0.996-3.403c-51.248-220.813-44.889-454.814-38.858-682.673l248.304-107.607c-1.514,81.433-5.267,161.95-7.691,239.147
				c-3.761,120.779-5.451,241.64-8.715,362.332c-2.177,80.353-7.51,173.986-98.993,202.688L4549.884,2823.119z"/>
			<path id="_x31_80623643_1_" fill="#40A666" stroke="#000000" d="M4356.902,2766.298
				c-122.484-163.721-136.052-366.68-123.141-564.155c0.166-2.407,0.334-4.896,0.582-7.472l185.045-80.144
				c-6.03,227.859-12.39,461.86,38.858,682.675l-0.996,3.401c-20.667-5.98-41.419-12.626-62.167-20.019
				C4381.719,2775.85,4369.02,2771.116,4356.902,2766.298z"/>
			<path id="_x31_80623642_1_" fill="#40A666" stroke="#000000" d="M4233.762,2202.143
				c-12.911,197.476,0.656,400.436,123.141,564.155c-96.284-37.874-155.458-76.486-201.354-121.071l3.904-5.81
				c-17.492-106.09-92.756-212.773-144.035-305.671c-6.639-12.12-13.941-23.743-21.824-34.785l240.75-104.29
				C4234.096,2197.244,4233.928,2199.734,4233.762,2202.143z"/>
			<path id="_x31_80623641_1_" fill="#40A666" stroke="#000000" d="M4015.416,2333.744
				c51.281,92.899,126.545,199.583,144.036,305.671l-3.904,5.81c-66.475-64.597-105.058-141.637-188.208-246.827
				c-18.256-23.081-40.166-41.182-64.816-54.966l3.82-6.641l87.25-37.832C4001.477,2310.001,4008.781,2321.624,4015.416,2333.744z"
				/>
			<path id="_x31_80623584_1_" fill="#219866" stroke="#000000" d="M1147.182,5039.769c-1.826-3.57-3.65-7.057-5.477-10.627
				c-90.854-176.828-162.121-355.148-223.496-572.729l201.307-52.584c37.172,75.383,78.244,149.934,118.738,215.686
				c51.697,83.85,86.211,155.908,112.256,249.467l2.24,3.82c-76.877,44.557-168.777,90.191-212.619,142.727
				C1138.307,5017.685,1140.959,5026.319,1147.182,5039.769z"/>
			<path id="_x31_80623583_1_" fill="#219866" stroke="#000000" d="M1352.752,4872.8l-2.24-3.822
				c-26.047-93.555-60.561-165.615-112.258-249.467c-40.494-65.752-81.566-140.301-118.738-215.684l283.908-74.229
				c4.15,8.053,8.465,16.023,12.697,23.908c45.219,83.852,106.861,237.598,180.473,306.428l-55.129,62.412
				c-40.678,6.881-79.791,75.105-110.178,99.254C1409.701,4838.78,1382.387,4855.708,1352.752,4872.8z"/>
			<path id="_x31_80623582_1_" fill="#219866" stroke="#000000" d="M1607.879,4669.821c-3.816-3.072-7.551-6.311-11.285-9.881
				c-73.613-68.83-135.256-222.578-180.475-306.428c-4.232-7.885-8.547-15.855-12.697-23.91l188.525-49.264
				c18.086,62.346,42.805,123.609,75.996,183.301c15.268,27.314,34.604,51.145,53.357,76.133l4.48,10.125
				c-39.352,16.592-76.547,40.74-99.045,72.777c-10.631,15.021-16.279,30.957-18.191,47.227L1607.879,4669.821z"/>
			<path id="_x31_80623581_1_" fill="#219866" stroke="#000000" d="M1725.781,4549.896l-4.48-10.127
				c-18.754-24.988-38.09-48.818-53.357-76.131c-33.191-59.689-57.91-120.957-75.996-183.301l134.07-35
				c-5.678,148.502,50.088,214.174,67.268,228.041c35.189,28.396,141.85,53.988,141.85,53.988l2.322,9.547
				c0,0-99.855-16.461-139.951-8.748C1774.678,4532.558,1749.857,4539.858,1725.781,4549.896z"/>
			<path id="_x31_80623556_1_" fill="#9AD2BD" stroke="#000000" d="M1523.41,5593.552
				c67.467,69.432,136.303,125.244,204.166,179.076c45.262,35.9,90.092,70.924,133.799,108.508
				c24.662,19.617,44.266,35.867,49.385,41.842c2.816,3.289,8.586,9.611,16.215,17.832c23.688,22.957,46.914,47.258,69.559,73.512
				c0.799,0.93,1.598,1.877,2.398,2.811c14.211,16.617,28.303,34.209,42.393,52.596c0,0,129.609-60.07,253.596-128.754
				c22.34-12.373,44.498-25.025,65.68-37.66c1.322-0.787,2.643-1.578,3.955-2.365c152.191-91.275,145.01-145.268,141.15-190.893
				c-13.553-160.342-69.961-268.846-190.836-397.764c-29.77-31.756-40.961-56.189-80.953-75.938
				c-45.195-22.326-84.023-55.498-129.205-77.914c-106.348-52.773-213.691-113.49-306.221-188.809
				c-45.533-37.076-93.473-77.967-133.951-120.49c-22.381-23.521-58.42-82.234-73.766-106.082
				c-13.348-20.744-32.363-29.227-49.309-20.754c-21.047,10.521-37.816,23.215-52.682,36.863
				c-35.949,33.01-60.738,71.625-107.84,98.689c-1.432,0.82-2.857,1.643-4.285,2.465
				c-109.113,62.807-212.211,126.074-236.471,155.197C1126.348,5032.118,1394.646,5461.052,1523.41,5593.552z"/>
			<path id="_x31_80623580_1_" fill="#6ACBBA" stroke="#000000" d="M1523.4,5593.556c67.467,69.43,136.305,125.244,204.166,179.076
				c19.277-31.605,45.979-45.307,82.08-49.482c107.318-12.408,312.814,135.496,327.465,244.607
				c5.814,43.309-17.473,65.953-90.801,99.137c0,0-21.441-22.445-47.387-49.762c14.213,16.615,28.303,34.209,42.395,52.598
				c0,0,129.607-60.072,253.594-128.754c-0.863-9.834-0.803-19.994-2.824-28.637c-6.967-29.723-26.189-56.426-41.469-82.527
				c-15.949-27.254-33.328-53.758-53.963-77.727c-32.719-38.004-70.555-71.107-110.885-100.791
				c-142.934-105.215-332.672-151.482-458.834-278.406c-24.83-24.996-48.004-46.904-75.662-68.881
				c-68.66-54.564-144.096-120.109-179.914-202.414c-15.059-34.582-4.678-57.746,2.602-93.035
				c7.688-37.283,13.238-75.293,9.109-113.395c-1.234-11.391-4.295-23.213-6.414-34.84
				c-109.113,62.807-212.211,126.074-236.471,155.197C1126.348,5032.118,1394.646,5461.052,1523.4,5593.556z"/>
			<path id="_x31_80623579_1_" fill="#6ACBBA" stroke="#000000" d="M2292.086,5912.347c2.025,8.641,1.963,18.801,2.828,28.635
				c22.34-12.373,44.498-25.027,65.68-37.66c-2.398-20.348-4.242-40.299-8.803-59.902c-5.611-24.111-5.549-50.928-16.83-73.424
				c-13.988-27.896-29.043-56.992-45.342-84.156c-38.367-63.945-81.592-120.879-131.467-176.191
				c-32.084-35.592-66.883-68.76-103.182-100.033c-45.355-39.074-93.67-62.859-145.029-92.758
				c-65.895-38.361-148.629-79.068-191.023-144.523c-27.111-41.855-75.438-61.172-115.33-87.941
				c-38.973-26.154-73.934-71.135-83.625-117.619c-8.947-42.932-0.199-88.109-3.771-131.469
				c-1.123-13.623-3.482-28.162-7.398-41.293c-4.039-13.549-12.639-23.918-20.012-34.842
				c-35.949,33.012-60.736,71.627-107.84,98.689c-1.43,0.82-2.857,1.643-4.285,2.465c2.119,11.627,5.182,23.449,6.416,34.842
				c4.127,38.102-1.422,76.111-9.111,113.395c-7.277,35.287-17.66,58.447-2.602,93.033
				c35.82,82.307,111.256,147.852,179.916,202.416c27.658,21.977,50.832,43.883,75.662,68.881
				c126.162,126.924,315.898,173.191,458.834,278.406c40.33,29.684,78.166,62.789,110.885,100.791
				c20.635,23.969,38.016,50.471,53.965,77.727C2265.898,5855.917,2285.121,5882.618,2292.086,5912.347z"/>
			<path id="_x31_80623578_1_" fill="#6ACBBA" stroke="#000000" d="M2351.797,5843.407c4.561,19.604,6.406,39.557,8.807,59.902
				c1.318-0.787,2.639-1.578,3.951-2.365c152.191-91.275,145.01-145.268,141.15-190.893
				c-13.555-160.344-69.961-268.848-190.836-397.764c-29.77-31.756-40.961-56.189-80.955-75.938
				c-45.193-22.326-84.021-55.498-129.203-77.914c-106.348-52.773-213.693-113.49-306.221-188.809
				c-45.533-37.076-93.473-77.967-133.949-120.49c-22.383-23.521-58.422-82.234-73.766-106.08
				c-13.348-20.744-32.365-29.23-49.309-20.756c-21.049,10.52-37.82,23.213-52.682,36.863c7.369,10.922,15.971,21.293,20.01,34.84
				c3.916,13.133,6.275,27.674,7.398,41.293c3.572,43.359-5.176,88.537,3.771,131.467c9.691,46.49,44.652,91.471,83.625,117.621
				c39.895,26.768,88.219,46.086,115.332,87.941c42.393,65.455,125.129,106.16,191.021,144.523
				c51.359,29.898,99.674,53.684,145.029,92.758c36.299,31.273,71.1,64.443,103.182,100.033
				c49.875,55.314,93.1,112.25,131.467,176.191c16.299,27.166,31.357,56.26,45.342,84.156
				C2346.246,5792.487,2346.182,5819.302,2351.797,5843.407z"/>
			<path id="_x31_80623577_1_" fill="#7ED04B" stroke="#000000" d="M4676.805,2822.152c-18.259-11.211-57.852-20.101-49.797-38.776
				c20.847-48.058,147.258,2.689,121.183,45.932C4735.568,2850.223,4704.359,2839.01,4676.805,2822.152z"/>
			<path id="_x31_80623576_1_" fill="#8ADA87" stroke="#000000" d="M1919.416,4345.831c-8.609-74.686-10.945-150.102-11.033-225.228
				c-0.09-80.251,8.639-151.987,4.043-231.068c-95.99,69.283-153.486,139.901-175.359,259.054
				c-39.961,217.678,35.75,308.217,56.254,324.75c35.17,28.373,141.809,53.994,141.809,53.994S1921.438,4363.397,1919.416,4345.831z
				"/>
			<path id="_x31_80623575_1_" fill="#A0EE9D" stroke="#000000" d="M2118.467,5081.892
				c-121.703-160.525-163.162-406.791-163.162-406.791c-7.387-43.953-17.832-138.24-17.832-138.24s-99.83-16.459-139.967-8.719
				c-60.264,11.641-134.412,42.975-170.762,94.453c-49.684,70.389,9.057,161.527,61.32,211.115
				c84.627,80.303,176.561,139.518,270.662,208.439c40.242,29.467,81.563,57.428,123.445,84.482
				c17.395,11.229,127.828,64.07,129.635,80.807C2207.438,5167.179,2142.551,5113.636,2118.467,5081.892z"/>
			<path id="_x31_80623564_1_" fill="#98D6F9" stroke="#000000" d="M1983.199,3709.437
				c30.703-175.627,218.686-439.897,315.557-547.785c139.018-154.839,304.678-241.867,490.164-325.227
				c87.486-39.316,173.869-88.789,266.334-114.151c124.727-34.215,239.641-58.335,369.58-57.79
				c16.393,0.069,36.209,2.162,58.65,6.077l10.709,4.373c204.264,92.364,516.305,146.736,574.74,410.336
				c23.338,105.268,48.451,226.797,14.093,330.414c-39.18,118.188-47.891,231.88-66.121,348.167
				c-14.1,89.815-29.104,182.61-39.498,275.996c-12.521,112.481-16.467,252.426-19.45,351.582
				c-17.792,78.875-105.479,94.828-179.204,209.375c-72.554,112.744-152.229,192.264-241.488,314.684
				c-54.11,74.201-360.962,313.674-450.408,363.061c-103.999,57.436-228.261,123.393-345.899,138.281
				c-103.629,13.111-208.076-25.355-301.578-72.002c-43.885-21.895-95.326-66.852-132.793-99.645
				c-88.523-77.5-169.209-160.75-243.42-312.729c-31.545-64.619-93.873-226.416-113.352-405.391
				C1925.531,4226.702,1937.482,3970.905,1983.199,3709.437z"/>
			<path id="_x31_80623563_1_" fill="#80CDF8" stroke="#000000" d="M3846.528,4678.978c-1.166,4.496-61.484,35.787-97.568,97.514
				c-36.067,61.73-48.802,153.559-45.692,180.537c0,0,2.062,80.934,35.259,114.15c39.759,39.775,92.02,30.189,155.632,33.234
				c51.467,2.463,106.401,10.078,157.065,0.238c35.254-6.84,99.126-30.012,116.889-16.762
				c23.474,17.535-13.697,64.164-29.093,76.762c-68.495,56.012-145.574,99.9-188.873,114.092
				c-135.277,44.342-294.821,100.389-384.461,219.43c-39.579,52.57-45.196,118.814-65.645,179.17
				c-33.234,98.125-89.258,242.389-181.239,297.559c-101.146,60.691-228.719,32.727-338.39,69.1
				c-41.424,13.74-111.852,59.752-154.885,29.52c-38.879-27.338-14.574-78.051-38.283-113.287
				c-63.43-94.238-231.895-21.621-264.967-129.811c-3.818-12.502,18.697-107.902,4.203-199.215
				c-10.977-69.035-41.479-118.295-68.451-170.182c-26.283-50.557-93.359-113.463-101.658-132.822
				c-8.287-19.375,62.25,31.125,62.25,31.125c33.199,22.838,130.875,86.182,263.529,85.145
				c156.063-1.229,274.639-55.268,401.935-129.951c65.515-38.42,122.588-88.639,182.748-134.52
				c62.184-47.438,132.324-85.893,187.403-142.105c53.332-54.43,112.709-106.746,132.839-136.928
				c92.883-139.258,204.72-287.561,324.862-403.557c4.439-5.67,14.528,0.004-7.266,41.504
				C3864.188,4593.901,3854.838,4646.815,3846.528,4678.978z"/>
			<path id="_x31_80623571_1_" fill="#80CDF8" stroke="#000000" d="M3530.524,6388.466c5.72,8.199,45.758,20.133,52.566,22.152
				c3.421,1.01,6.722,1.203,9.869,0.721c23.345-3.586,38.168-44.836,29.957-71.971c-1.161-3.844-2.785-7.406-4.911-10.533
				C3590.093,6287.778,3498.198,6342.153,3530.524,6388.466z"/>
			<path id="_x31_80623572_1_" fill="#80CDF8" stroke="#000000" d="M2988.174,6504.56c61.449-9.238,136.241-122.668,93.91-178.578
				c-11.701-15.451-22.35-23.723-31.957-26.729c-12.385-3.871-23.039,1.025-31.971,10.691c-14.475,15.66-24.438,43.807-29.939,67.33
				C2979.834,6413.085,2933.777,6512.722,2988.174,6504.56z"/>
			<path id="_x31_80623570_1_" fill="#80CDF8" stroke="#000000" d="M2065.676,6095.956l27.664,42.889
				c9.309,12.145,131.584,196.221,232.35,301.654c108.879,113.902,253.244,201.596,362.41,269.859
				c152.723,95.514,332.816,177.553,533.991,156.459c261.889-27.484,456.725-176.162,636.48-320.836
				c22.74-18.299,45.61-37.434,68.657-57.195c0,0-72.453-67.258-167.769-118.951c7.418,30.43,17.771,54.805,3.406,88.68
				c-33.342,78.607-129.972,120.768-201.724,156.293c-34.034,16.859-60.929,41.723-92.82,61.936
				c-54.177,34.336-115.623,58.934-171.93,89.848c-124.101,68.139-296.834-26.025-409.664-78.359
				c-107.773-49.99-224.572-80.645-327.072-141.838c-85.668-51.145-121.658-122.027-165.072-207.971
				c-31.229-61.85-85.844-107.439-113.93-172.609c-21.822-50.779-51.129-108.332-47.191-166.176
				C2173.855,6029.286,2114.453,6055.333,2065.676,6095.956z"/>
			<path id="_x31_80623569_1_" fill="#80CDF8" stroke="#000000" d="M2280.648,6165.812c28.082,65.17,82.701,110.762,113.93,172.611
				c43.418,85.943,79.402,156.824,165.072,207.971c102.5,61.193,219.299,91.844,327.072,141.836
				c112.83,52.334,285.56,146.498,409.665,78.361c56.306-30.916,117.752-55.512,171.93-89.852
				c31.892-20.213,58.786-45.074,92.82-61.936c71.755-35.521,168.38-77.684,201.723-156.293c14.367-33.875,4.015-58.25-3.406-88.678
				c-37.369-20.268-78.254-38.145-119.662-48.639c-6.461,5.201-12.586,12.586-16.875,18.174
				c8.211,27.135-6.613,68.383-29.957,71.971c-4.686,17.355-4.9,51.502-22.151,58.488c-14.147,5.727-35.144-2.166-49.269-5.096
				c-41.017-8.502-86.216-21.695-126.441-4.541c-53.887,22.982-69.178,70.316-94.068,117.689
				c-17.025,32.393-62.931,47.006-92.35,20.754c-15.747-14.057-4.744-29.805-8.264-46.982c-4.51-22.031-24.576-32.816-44.268-41.104
				c-11.012-4.633-23.023-9.139-34.779-10.617c-10.085-1.268-32.945,1.273-42.86,5.078c-15.924,6.111-26.465,26.689-39.748,37.166
				c-38.287,30.193-84.883,47.301-131.73,26.027c-45.523-20.672-92.625-36.125-136.6-60.051
				c-61.363-33.391-124.441-64.078-182.734-102.797c-54.281-36.053-119.131-83.211-144.963-145.537
				c-17.051-41.137-32.363-87.674-45.102-130.295c-10.494-35.111-29.002-68.768-40.906-103.611
				c-5.855-17.148-9.164-36.037-14.115-52.852c-30.525-3.375-66.742,5.391-105.375,24.701c-1.258,0.627-2.514,1.252-3.773,1.877
				C2229.525,6057.481,2258.83,6115.034,2280.648,6165.812z"/>
			<path id="_x31_80623568_1_" fill="#80CDF8" stroke="#000000" d="M3639.797,6321.194c-35.681-9.041-71.754-12.598-106.3-7.48
				c-92.334,13.666-174.916,57.076-270.552,34.725c-68.677-16.047-130.285-59.932-204.9-50.449c-2.695,0.342-5.33,0.768-7.914,1.262
				c9.607,3.006,20.256,11.279,31.956,26.73c42.331,55.91-32.46,169.34-93.909,178.576c-54.396,8.164-8.34-91.475,0.041-127.283
				c5.502-23.52,15.467-51.668,29.941-67.33c-68.762,33.313-98,116.037-194.961,72.465c-75.316-33.854-62.057-73.721-80.213-141.23
				c-22.133-82.283-166.588-74.92-229.072-111.918c-71.1-42.086-73.713-73.895-107.877-120.389
				c-15.703-21.34-37.514-32.947-63.422-35.811c4.951,16.814,8.26,35.703,14.115,52.85c11.904,34.844,30.412,68.496,40.906,103.611
				c12.736,42.621,28.051,89.16,45.102,130.295c25.832,62.322,90.68,109.484,144.963,145.537
				c58.291,38.719,121.373,69.406,182.734,102.797c43.977,23.928,91.076,39.377,136.6,60.049
				c46.846,21.273,93.443,4.166,131.73-26.025c13.287-10.479,23.824-31.055,39.748-37.166c9.915-3.805,32.776-6.346,42.86-5.078
				c11.756,1.479,23.768,5.984,34.779,10.617c19.692,8.289,39.756,19.074,44.268,41.105c3.52,17.178-7.483,32.924,8.264,46.98
				c29.42,26.252,75.324,11.641,92.348-20.752c24.894-47.375,40.182-94.711,94.07-117.691c40.226-17.154,85.425-3.961,126.441,4.543
				c14.125,2.928,35.121,10.82,49.268,5.094c17.25-6.988,17.465-41.135,22.152-58.488c-3.147,0.482-6.448,0.289-9.869-0.721
				c-6.811-2.02-46.849-13.953-52.566-22.15c-32.327-46.316,59.564-100.691,87.478-59.633c2.126,3.127,3.75,6.689,4.912,10.533
				C3627.208,6333.78,3633.333,6326.397,3639.797,6321.194z"/>
			<path id="_x31_80623567_1_" fill="#90CBED" stroke="#000000" d="M4061.528,3549.447c23.238-91.916,56.374-180.984,96.596-267.013
				c22.612-48.359,72.582-136.232,130.782-170.139c70.915-41.33,145.956-33.172,145.956-33.172
				c135.287,27.968,240.724,35.238,347.07,38.815l-0.016,58.376l2.083,0.688c-52.805,12.315-117.011,18.826-164.851,43.631
				c-79.182,41.051-149.331,97.832-230.567,135.426c-39.161,18.125-80.737,29.953-120.502,46.529
				c-38.857,16.201-72.659,41.905-104.272,69.285c-32.938,28.527-67.703,50.069-104.146,74.355L4061.528,3549.447z"/>
			<path id="_x31_80623566_1_" fill="#90CBED" stroke="#000000" d="M4783.999,3177.001
				c-52.805,12.314-117.012,18.826-164.852,43.631c-79.181,41.051-149.331,97.832-230.567,135.426
				c-39.161,18.125-80.737,29.953-120.502,46.529c-38.857,16.201-72.659,41.905-104.271,69.285
				c-32.938,28.527-67.704,50.069-104.146,74.355l-0.078,11.046c-10.016,40.639-18.087,81.832-23.984,123.572
				c-22.864,161.858-52.447,324.169-50.968,485.408c0.644,68.79,9.531,143.144-4.371,212.71c0,0,141.457,53.395,177.589,127.861
				c16.773,34.584,213.07-77.451,237.976-96.801c24.907-19.371,6.779-124.242,87.056-317.92
				c80.286-193.668,188.23-312.621,224.208-373.487c35.984-60.863,74.726-72.189,74.726-72.189l0.049-229.387L4783.999,3177.001z"/>
			<path id="_x31_80623562_1_" fill="#A2B1D8" stroke="#000000" d="M4272.413,5498.206
				c69.612,132.078,105.976,304.805,24.18,334.699c-158.121,57.787-308.482,124.041-469.038,170.064
				c-100.932,28.934-203.802,53.373-284.343,122.373c-43.584,37.338-68.026,72.309-33.226,118.281
				c51.868,68.492-141.025,102.268-236.661,79.922c-68.687-16.049-147.355-60.461-221.966-50.975
				c-100.557,12.787-122.463,128.637-217.781,84.936c-75.061-34.416-54.576-67.293-72.74-134.811
				c-22.137-82.281-174.063-81.346-236.545-118.336c-71.102-42.086-73.715-73.898-107.881-120.389
				c-14.674-19.941-34.691-29.871-68.764-42.25l145.578-102.998c43.436,145.906,200.08,34.48,263.518,128.725
				c23.709,35.234,12.428,112.063,70.531,134.904c48.939,19.236,128.307-23.854,169.734-37.598
				c109.673-36.367,237.237-8.402,338.391-69.094c91.976-55.174,156.313-199.428,189.55-297.561
				c20.441-60.355,17.758-126.6,57.338-179.172c89.622-119.025,249.143-175.066,384.41-219.414
				c60.359-19.785,88.046-14.182,125.752,8.557C4127.631,5329.317,4207.983,5375.962,4272.413,5498.206z"/>
			<path id="_x31_80623565_1_" fill="#96A7D3" stroke="#000000" d="M4781.448,5281.358
				c-103.544-3.652-249.68-104.377-272.341-171.262c-14.128-41.727-12.744-171.549-4.616-238.072
				c11.136-91.143,12.03-179.174-6.326-268.285c-18.6-90.242-70.162-203.16-49.744-296.07
				c47.399-215.789,182.929-477.004,333.386-636.332L4781.448,5281.358z"/>
			<path id="_x31_80623561_1_" fill="#96A7D3" stroke="#000000" d="M4580.896,5805.989c-47.705-65.621-285.854,65.4-357.349,93.387
				c-106.149,41.559-179.337,70.322-290.161,101.539c-71.994,20.281-174.994,47.609-243.835,75.447
				c-57.51,23.25-131.114,38.213-157.203,102.461c-36.446,89.725,69.981,98.045,133.696,117.234
				c129.101,38.873,278.305,169.725,278.305,169.725c117.705-100.947,222.778-195.119,357.007-301.537
				c44.502-35.273,89.34-52.947,198.516-90.553C4560.092,6052.937,4597.498,5828.819,4580.896,5805.989z"/>
			<path id="_x31_80623573_1_" fill="#B3C0DF" stroke="#000000" d="M3871.438,4668.604c29.05-8.293,57.117,2.158,76.076,23.543
				c3.737,4.217,7.183,8.941,10.366,14.018c26.688-24.156,37.6-81.979,39.222-112.369c2.538-47.547-8.37-99.752-29.403-142.779
				C3924.668,4526.489,3841.909,4677.042,3871.438,4668.604z"/>
			<path id="_x31_80623574_1_" fill="#B3C0DF" stroke="#000000" d="M3997.105,4593.796c-1.624,30.391-12.536,88.213-39.223,112.371
				c21.271,33.9,30.63,83.832,33.884,107.734c0.833,31.857,7.126,86.631-8.332,128.664
				c-24.924,67.797-120.396,141.088-120.396,141.088c88.069-6.223,206.541,10.693,287.329-32.633
				c246.847-132.453,44.949-575.053-158.512-641.781c0,0-9.898,16.766-24.157,41.777
				C3988.731,4494.044,3999.64,4546.249,3997.105,4593.796z"/>
			<path id="_x31_80623557_1_" fill="#E64438" stroke="#000000" d="M4781.437,5308.747c0,0-56.541-2.152-111.874-21.545
				c-55.343-19.367-138.335-85.793-168.769-138.373c-30.419-52.588-35.945-77.488-33.162-160.498
				c2.785-83.008,24.955-254.549,8.373-343.092c-7.651-40.891-41.818-215.684-69.12-204.779
				c-27.664,11.064-218.6,91.258-213.083,110.635c5.526,19.355,52.56,102.393,52.56,102.393
				c27.65,60.869,40.344,153.625,31.767,239.338c-3.333,33.252-29.432,101.92-54,163.932
				c-21.408,54.08-47.947,108.416-74.736,134.873c-38.264,37.797-91.121,54.275-47.749,87.145
				c118.855,90.084,118.858,72.514,201.485,211.99c75.649,127.709,71.071,313.396,72.315,313.113
				c54.878-16.125,162.846-46.686,170.186-45.627c88.269,12.781,74.06,75.295,56.001,143.205
				c-23.646,88.967-44.492,159.99-44.492,159.99c45.135-15.08,158.065-25.609,224.146-46.51"/>
			<path id="_x31_80623558_1_" fill="#FF5547" stroke="#000000" d="M4781.361,5648.587
				c-108.323-27.006-150.944,116.213-163.945,185.145c-10.927,58.016-31.009,130.303-47.399,182.85
				c-4.657,14.934-7.679,26.486-12.879,44.863c16.528-2.729,81.661-17.916,98.03-20.758c42.236-7.322,85.169-12.799,126.116-25.75
				L4781.361,5648.587z"/>
			<path id="_x31_80623559_1_" fill="#FF5547" stroke="#000000" d="M4385.781,5777.794c-3.652,8.521-7.177,17.092-10.414,25.811
				c0.023,0.186,0.05,0.277,0.078,0.271c54.878-16.125,162.846-46.684,170.188-45.627c61.424,8.895,73.217,41.877,68.626,83.996
				c6.354-14.951,8.112-30.197,12.978-46.867c11.244-38.521,23.487-78.207,49.949-109.395
				c12.423-14.645,27.063-25.299,43.176-31.955c18.735-7.742,39.462-10.078,61.009-7.006l0.04-182.83
				c-95.057-6.027-168.635,20.277-240.661,89.795c-38.306,36.969-70.591,79.674-98.708,124.77
				c-13.845,22.201-26.419,45.098-38.664,68.207C4397.748,5757.593,4390.525,5766.72,4385.781,5777.794z"/>
			<path id="_x31_80623560_1_" fill="#F2483B" stroke="#000000" d="M4101.634,5278.771
				c118.855,90.082,118.857,72.512,201.484,211.988c73.924,124.795,71.239,304.953,72.238,312.842
				c3.236-8.721,6.762-17.285,10.414-25.811c4.747-11.072,11.969-20.199,17.599-30.828c12.243-23.109,24.819-46.006,38.663-68.207
				c28.116-45.094,60.401-87.799,98.707-124.768c72.029-69.52,145.604-95.822,240.663-89.797l0.034-155.443
				c0,0-56.542-2.154-111.875-21.543c-55.343-19.369-138.335-85.795-168.768-138.377c-30.421-52.586-35.947-77.488-33.164-160.496
				c2.787-83.008,24.956-254.549,8.373-343.092c-7.65-40.891-41.817-215.684-69.12-204.779
				c-27.662,11.064-218.6,91.258-213.081,110.635c5.526,19.355,52.558,102.395,52.558,102.395
				c27.651,60.869,40.346,153.623,31.769,239.338c-3.333,33.25-29.433,101.92-54,163.932
				c-21.409,54.078-47.948,108.416-74.738,134.869C4111.126,5229.427,4058.271,5245.903,4101.634,5278.771z"/>
			<path id="_x31_80623647_1_" fill="#CCCCCC" stroke="#000000" d="M1925.428,3784.765c9.732-93.63,23.449-181.534,41.145-252.421
				c12.545-50.3,54.98-126.658,101.234-200.359c37.699-60.091,77.807-118.27,106.371-159.269
				c15.441-22.079,29.727-42.078,43.178-60.256c47.244-63.907,84.443-106.729,123.965-145.736
				c48.154-47.8,99.713-89.958,176.928-158.175c40.02-35.351,82.775-67.466,127.523-97.007
				c147.449-97.501,316.887-167.358,483.416-232.647c64.5-25.304,128.506-49.86,190.688-75.163
				c123.197-50.025,326.334-117.217,483.215-92.943c21.748,3.325,42.582,8.477,62.088,15.536
				c13.033,4.819,25.564,10.465,37.352,17.109c24.648,13.784,46.559,31.885,64.814,54.966
				c83.152,105.19,121.734,182.231,188.208,246.828c45.896,44.586,105.068,83.197,201.354,121.07
				c12.118,4.819,24.816,9.553,38.182,14.287c20.747,7.393,41.498,14.039,62.166,20.019c30.96,9.057,61.921,16.534,92.634,22.52
				c78.689,15.622,156.384,21.949,232.086,20.885l0.002,0.084l-0.062,273.848c-106.334-3.512-211.754-10.841-347.053-38.762
				c-75.947-15.707-143.931-30.495-262.871-74.767c-61.919-23.092-169.978-120.732-296.05-188.248
				c-168.072-90.021-361.137-151.24-451.119-151.677c-129.99-0.527-244.881,23.602-369.568,57.856
				c-92.477,25.299-178.9,74.834-266.318,114.079c-185.545,83.38-351.166,170.42-490.242,325.282
				c-96.811,107.89-287.045,371.733-315.557,547.787c-45.717,282.22-55.383,431.633-33.393,841.121
				c-2.492-4.648-4.813-9.713-6.807-15.109c-4.563-12.119-7.961-26.064-10.533-40.924c-3.227-38.104-8.525-99.777-11.342-130.906
				c-0.496-6.313-0.992-12.289-1.656-17.768c-0.912-8.131-1.822-16.516-2.65-25.15c-0.414-4.15-0.746-8.385-1.16-12.701
				c-2.232-26.148-3.971-54.125-5.209-83.51c-0.33-9.793-0.74-19.755-0.988-29.799c-0.164-5.064-0.248-10.127-0.41-15.274
				c-0.086-5.063-0.166-10.208-0.248-15.44c-0.244-15.521-0.408-31.294-0.402-47.23c0.178-63.75,5.67-122.189,5.352-183.367
				c1.5-27.559,3.414-55.118,5.58-82.427C1921.1,3828.677,1923.178,3806.516,1925.428,3784.765z"/>
			<path id="_x31_80623648_1_" fill="#CCCCCC" stroke="#000000" d="M3990.202,4905.05
				c-14.189,117.912-194.832,295.514-277.553,121.027c-33.909-71.553,7.967-314.602,173.994-358.84
				C3969.539,4645.153,4002.825,4800.077,3990.202,4905.05z"/>
			<path id="_x31_80623649_1_" fill="#CCCCCC" stroke="#000000" d="M1727.572,5772.63c45.262,35.902,90.092,70.924,133.797,108.508
				c24.664,19.617,44.268,35.867,49.387,41.842c2.816,3.287,8.586,9.609,16.215,17.83c23.688,22.957,46.912,47.26,69.559,73.512
				c0.799,0.932,1.598,1.879,2.398,2.811c25.945,27.316,47.387,49.762,47.387,49.762c73.324-33.182,96.615-55.828,90.801-99.137
				c-14.65-109.111-220.146-257.016-327.465-244.607C1773.549,5727.325,1746.848,5741.026,1727.572,5772.63z"/>
			<path id="_x31_80623646_1_" fill="#AAAAAA" stroke="#000000" d="M4158.121,3282.429
				c-59.124,126.443-102.897,259.426-122.524,398.416c-22.864,161.858-52.448,324.17-50.968,485.407
				c0.825,88.687,17.418,198.382-28.062,276.179c4.184-136.963,5.626-265.854,20.842-402.59
				c10.395-93.383,25.397-186.179,39.496-275.993c18.23-116.287,26.941-229.979,66.121-348.168
				c34.359-103.618,9.246-225.146-14.092-330.413c-58.437-263.6-370.478-317.972-574.741-410.336
				c42.145,0.01,157.379,43.759,199.021,57.648c23.055,7.688,45.504,17.859,67.652,27.837
				c53.693,24.189,105.74,48.606,155.91,78.873c40.342,24.333,79.818,52.024,118.588,78.814
				c35.904,24.801,71.366,54.445,109.948,74.41c36.254,18.76,76.576,27.858,114.555,42.33
				c45.938,17.516,116.202,31.814,174.993,44.276c0,0-75.04-8.157-145.955,33.173
				C4230.705,3146.199,4180.736,3234.071,4158.121,3282.429z"/>
		</g>
	</g>
</g>
</svg>
