<?xml version="1.0" encoding="utf-8"?>
<!-- Generator: Adobe Illustrator 16.0.0, SVG Export Plug-In . SVG Version: 6.00 Build 0)  -->
<!DOCTYPE svg PUBLIC "-//W3C//DTD SVG 1.1//EN" "http://www.w3.org/Graphics/SVG/1.1/DTD/svg11.dtd">
<svg version="1.1" id="Layer_1" xmlns="http://www.w3.org/2000/svg" xmlns:xlink="http://www.w3.org/1999/xlink" x="0px" y="0px"
	 width="5392px" height="5408px" viewBox="0 0 5392 5408" enable-background="new 0 0 5392 5408" xml:space="preserve">
<g>
	<g transform="scale(1.0)">
		<g id="_x31_80609003" transform=" scale(1.0, 1.0)">
			<path id="_x31_80609005" fill="#BFDAE3" stroke="#000000" d="M4712.674,1810.07c81.961,168.341,86.25,354.509,60.439,536.559
				c-12.098,85.33-30.551,170.953-47.82,255.292c-17.617,85.956-58.814,161.54-79.1,246.744
				c-17.48,73.444-15.676,149.625-32.672,221.648c-16.869,71.483-54.604,140.677-85.713,206.738
				c-83.307,176.928-197.425,319.031-308.399,478.144c-98.263,140.885-189.598,292.164-319.322,406.32
				c-374.768,329.805-775.588-101.957-983.531-405.844c-67.554-98.724-141.593-199.146-175.995-315.192
				c-32.513-109.669-33.901-229.645-40.651-343.083c-16.027-269.361,20.439-535.829,57.152-802.137
				c44.934-325.92,88.411-628.957,210.928-937.045c112.827-283.734,513.07-242.621,756.077-199.69
				c254.034,44.878,498.426,146.956,700.216,310.724C4539.031,1562.374,4647.613,1676.458,4712.674,1810.07z"/>
			<path id="_x31_80609006" fill="#B0FFB8" stroke="#000000" d="M4712.662,1810.023
				c-65.057-133.609-173.633-247.681-288.372-340.799c-201.779-163.761-446.154-265.837-700.177-310.708
				c-242.997-42.926-643.213-84.034-756.028,199.678c-122.51,308.075-165.985,611.094-210.912,936.995
				c-36.709,266.291-73.177,532.742-57.146,802.083c6.749,113.435,8.14,233.397,40.651,343.063
				c34.398,116.038,108.436,216.452,175.979,315.17c207.938,303.87,608.731,735.601,983.474,405.817
				c129.719-114.148,221.047-265.421,319.305-406.296c110.967-159.101,225.079-301.198,308.378-478.112
				c31.104-66.063,68.836-135.254,85.703-206.73c16.998-72.017,15.193-148.193,32.674-221.636
				c20.275-85.199,61.475-160.771,79.092-246.73c17.262-84.329,35.719-169.942,47.816-255.273
				C4798.91,2164.505,4794.619,1978.35,4712.662,1810.023z M3808.485,2293.061c-67.991,81.641-111.75,187.332-119.682,294.742
				c-1.854,25.092-7.1,156.54-40.848,162.464c-21.244,3.729-21.045-27.948-20.719-42.346c0.623-27.953,12.9-55.833,18.262-83.069
				c15.79-80.237,14.869-161.616,21.225-242.568c1.756-22.352,1.56-43.681-0.016-64.524c-3.653-48.166-14.747-93.734-26.436-143.249
				c-2.787-11.81-22.531-52.731-9.304-62.68c16.19-12.169,60.829,56.193,70.442,64.781c18.092,16.168,39.881,27.03,63.614,31.917
				c21.113,4.342,46.08-3.749,60.077,16.804C3841.597,2249.575,3824.135,2274.265,3808.485,2293.061z"/>
			<path id="_x31_80609007" fill="#9AD2BD" stroke="#000000" d="M4712.662,1810.023
				c-65.057-133.609-173.633-247.681-288.372-340.799c-201.779-163.761-446.154-265.837-700.177-310.708
				c-242.997-42.926-643.213-84.034-756.028,199.678c-122.51,308.075-165.985,611.094-210.912,936.995
				c-36.709,266.291-73.177,532.742-57.146,802.083c6.749,113.435,8.14,233.397,40.651,343.063
				c34.398,116.038,108.436,216.452,175.979,315.17c207.938,303.87,608.731,735.601,983.474,405.817
				c129.719-114.148,221.047-265.421,319.305-406.296c110.967-159.101,225.079-301.198,308.378-478.112
				c31.104-66.063,68.836-135.254,85.703-206.73c16.998-72.017,15.193-148.193,32.674-221.636
				c20.275-85.199,61.475-160.771,79.092-246.73c17.262-84.329,35.719-169.942,47.816-255.273
				C4798.91,2164.505,4794.619,1978.35,4712.662,1810.023z M3808.485,2293.061c-67.991,81.641-111.75,187.332-119.682,294.742
				c-1.854,25.092-7.1,156.54-40.848,162.464c-21.244,3.729-21.045-27.948-20.719-42.346c0.623-27.953,12.9-55.833,18.262-83.069
				c15.79-80.237,14.869-161.616,21.225-242.568c1.756-22.352,1.56-43.681-0.016-64.524c-3.653-48.166-14.747-93.734-26.436-143.249
				c-2.787-11.81-22.531-52.731-9.304-62.68c16.19-12.169,60.829,56.193,70.442,64.781c18.092,16.168,39.881,27.03,63.614,31.917
				c21.113,4.342,46.08-3.749,60.077,16.804C3841.597,2249.575,3824.135,2274.265,3808.485,2293.061z"/>
			<path id="_x31_80609008" fill="#9AD2BD" stroke="#000000" d="M4712.678,1810.087c-65.063-133.618-173.648-247.7-288.388-340.829
				c-201.798-163.777-446.192-265.862-700.236-310.738c-243.016-42.925-643.258-84.037-756.092,199.7
				c-122.52,308.096-165.998,611.14-210.929,937.068c-36.72,266.315-73.182,532.787-57.15,802.15
				c6.749,113.444,8.131,233.42,40.646,343.094c34.41,116.046,108.444,216.472,176.002,315.199
				c207.945,303.892,608.774,735.657,983.556,405.847c129.722-114.156,221.057-265.442,319.322-406.329
				c110.977-159.115,225.098-301.223,308.405-478.149c31.113-66.069,68.84-135.263,85.719-206.748
				c16.998-72.025,15.186-148.206,32.668-221.652c20.285-85.209,61.486-160.79,79.105-246.754
				c17.264-84.335,35.723-169.956,47.82-255.292C4798.939,2164.601,4794.643,1978.429,4712.678,1810.087z M3808.485,2293.061
				c-67.991,81.641-111.75,187.332-119.682,294.742c-1.854,25.092-7.1,156.54-40.848,162.464
				c-21.244,3.729-21.045-27.948-20.719-42.346c0.623-27.953,12.9-55.833,18.262-83.069c15.79-80.237,14.869-161.616,21.225-242.568
				c1.756-22.352,1.56-43.681-0.016-64.524c-3.653-48.166-14.747-93.734-26.436-143.249c-2.787-11.81-22.531-52.731-9.304-62.68
				c16.19-12.169,60.829,56.193,70.442,64.781c18.092,16.168,39.881,27.03,63.614,31.917c21.113,4.342,46.08-3.749,60.077,16.804
				C3841.597,2249.575,3824.135,2274.265,3808.485,2293.061z M4079.807,1867.428c-0.15,25.352,1.298,50.792-2.552,75.949
				c-3.287,21.396-14.362,39.737-27.764,56.311c-20.501,25.361-59.53,76.8-80.186,94.841
				c-25.471,22.242-56.827,34.691-89.854,45.451c-28.544,9.303-65.244,10.876-94.618,5.668
				c-58.875-10.438-110.378-45.116-143.547-94.526c-34.98-52.093-41.767-119.166-37.683-180.342
				c0.639,7.248,0.311-158.22,30.314-242.561c21.294-59.837,57.248-135.38,124.683-152.339c37.99-9.558,88.57-2.337,124.898,11.408
				c99.276,37.569,149.754,145.373,175.755,240.795C4071.635,1773.519,4080.083,1820.203,4079.807,1867.428z"/>
			<path id="_x31_80609009" fill="#82C7AE" stroke="#000000" d="M4451.032,3326.701c24.001-105.906,0.397-215.71,21.991-319.987
				c20.459-98.75,69.115-188.049,121.486-273.171c67.416-109.576,122.648-226.311,159.258-349.955
				c53.184-179.636,41.076-404.613-41.092-573.367c-1.381-2.835-2.787-5.658-4.205-8.474c-0.416-0.823-0.832-1.646-1.248-2.468
				c-1.277-2.512-2.568-5.018-3.873-7.514c-0.68-1.302-1.373-2.599-2.064-3.896c-0.656-1.236-1.314-2.472-1.979-3.702
				c-65.975-122.436-167.803-227.735-275.017-314.742c-38.688-31.396-78.945-60.517-120.532-87.41
				c-14.019-8.194-31.781-18.966-55.422-34.049c77.392,76.055,78.04,127.649,132.311,185.007
				c70.434,74.416,123.523,160.455,178.504,246.792c37.008,58.111,76.951,113.106,92.842,181.452
				c17.637,75.804,0.209,152.563-28.822,223.111c-24.857,60.398-67.441,102.519-71.527,169.075
				c-6.57,107.115-91.518,166.529-148.291,251.306c-64.647,96.545-144.329,199.106-173.127,312.318
				c-18,70.777-20.696,155.511-24.041,228.79c-2.969,64.869,16.407,122.329,20.768,185.81
				c6.715,97.763-33.444,176.598-71.325,264.378c-33.016,76.527-79.211,135.011-127.979,201.029
				c-93.322,126.328-267.921,321.708-446.702,261.61c-157.936-53.095-169.332-224.726-246.618-350.18
				c-56.971-92.48-103.249-189.616-153.535-285.722c-31.614-60.422-73.607-111.885-87.372-180.141
				c-13.109-65.015-27.549-127.602-33.75-194.537c-4.987-53.887-4.207-110.34-13.761-163.528
				c-19.213-107.043,38.652-212.059,33.091-319.444c-2.967-57.24-15.755-112.313-18.978-169.337
				c-4.064-72.436-22.179-143.042-22.644-216.1c-0.738-116.348,10.311-234.976,19.66-351.148
				c18.07-224.622,88.012-498.373,300.858-618.743c119.408-67.529,255.275-60.038,386.936-47.15
				c-34.477-5.868-68.896-11.887-103.426-17.188c-217.172-31.078-504.559-38.926-634.645,141.73
				c-6.952,10.895-13.345,22.476-19.106,34.797c-56.034,119.811-69.239,252.017-80.812,382.119
				c-11.928,134.245-32.825,267.137-54.094,400.16c-18.313,114.527-60.323,253.79-35.979,369.416
				c8.886,42.184,16.318,83.4,20.259,126.392c10.84,117.815,7.016,236.192,4.74,354.285c-2.234,116.191,3.42,222.629,26.205,337.486
				c16.462,82.982,51.856,153.433,97.318,224.137c70.46,109.581,144.272,217.171,216.7,325.457
				c107.581,160.849,219.196,357.434,419.125,414.02c99.391,28.119,225.726-29.461,298.937-93.881
				c129.729-114.148,221.065-265.421,319.329-406.299C4309.224,3626.444,4415.729,3482.373,4451.032,3326.701z"/>
			<path id="_x31_80609013" fill="#82C7AE" stroke="#000000" d="M4079.847,1867.339c-0.152,25.345,1.295,50.782-2.553,75.935
				l-16.064,42.481c43.211-53.701,13.967,26.167,7.944,37.271c-47.88,88.354-120.15,155.201-177.804,236.313
				c-41.495,58.396-76.777,127.064-113.709,184.473c-45.947,71.417-70.651,155.668-77.572,239.749
				c-7.43,90.27-20.161,185.499-8.713,275.775c3.873,30.563,16.371,72.706-3.168,100.777c-32.689,46.986-59.684-0.349-72.909-33.227
				c-18.098-45.017-21.95-95.405-18.744-143.463c0.829-12.35,25.207-144.626,34.386-138.78l0.907-3.009
				c-4.867-9.674-4.718-25.109-4.521-33.978c0.622-27.95,12.897-55.826,18.257-83.071c15.79-80.225,14.866-161.605,21.221-242.554
				c1.749-22.345,1.562-43.676-0.017-64.519c-3.651-48.164-14.746-93.734-26.435-143.248c-2.784-11.806-22.529-52.726-9.304-62.678
				c0,0,10.325-2.574,18.728,5.683c-88.296-59.45-74.667-172.079-66.167-270.892c2.366-27.575-3.861-111.735,28.853-112.018
				c5.798-41.379,21.545-106.209,21.545-106.209c21.294-59.831,57.242-135.368,124.668-152.322
				c37.988-9.557,88.561-2.341,124.884,11.401c83.765,31.701,132.778,113.388,161.655,195.456l4.699,3.544
				c36.138-0.354,67.52,27.02,90.986,73.945c5.849,11.683,15.544,44.232-4.46,44.853c-24.03,0.755-38.53-42.951-70.936-52.431
				C4065.504,1752.604,4080.05,1831.924,4079.847,1867.339z M3328.034,2095.904c36.263,148.296,82.396,288.035,63.106,449.483
				c-21.697,181.593-61.354,364.261-57.643,547.47c1.446,71.375,28.64,130.662,50.802,197.784
				c23.375,70.761,49.935,140.594,86.724,205.604c63.845,112.844,136.384,250.297,287.882,231.99
				c113.161-13.679,162.805-121.008,187.822-218.652c35.868-140.006,4.313-285.11-13.842-426.558
				c-19.771-153.938,1.901-323.396,69.114-463.985c59.668-124.795,187.985-212.516,270.083-322.006
				c44.063-58.767,103.084-136.539,122.817-207.417c32.073-115.199-18.036-256.036-77.747-354.179
				c-43.045-70.736-102.555-139.737-161.979-197.118c-170.586-164.729-514.223-273.89-715.451-97.509
				c-144.578,126.72-166.753,355.682-137.087,534.527C3309.46,2016.507,3318.395,2056.51,3328.034,2095.904z"/>
			<path id="_x31_80609012" fill="#9AD2BD" stroke="#000000" d="M3457.524,1373.659c-32.815,23.389-61.127,56.458-84.147,89.254
				c-46.974,66.953-75.754,147.121-104.369,223.149c-18.688,49.673-20.117,108.144-12.06,160.241
				c8.133,52.608,8.738,106.49,13.502,160.151c13.556,152.779,86.762,294.866,84.262,449.916
				c-1.886,116.217-41.287,228.511-44.78,343.183c-5.224,171.475-50.552,362.627,33.48,520.466
				c42.24,79.354,75.254,163.384,119.935,241.478c34.685,60.642,58.52,147.959,110.491,195.348
				c42.63,38.873,127.808,49.61,180.953,33.738c44.86-13.401,92.782-42.26,127.405-75.687
				c41.606-40.147,73.406-92.621,92.878-148.85c51.775-149.514,21.25-292.856-6.995-443.895
				c-27.028-144.564-13.171-296.68,78.328-417.523c35.641-47.074,49.146-91.691,68.75-149.628
				c23.319-68.955,108.766-104.479,149.432-163.271c93.125-134.661,225.181-297.087,173.861-473.72
				c-38.188-131.274-120.513-247.083-211.367-347.312c-20.25-22.334-63.955-52.591-68.563-84.395
				c-0.002-0.01-0.002-0.021-0.005-0.034l-43.09,17.398c14.072,11.274,27.359,22.926,39.732,34.871
				c59.424,57.389,118.936,126.388,161.984,197.13c59.715,98.142,109.837,238.985,77.756,354.185
				c-19.742,70.882-78.768,148.662-122.835,207.432c-82.117,109.491-210.437,197.216-270.113,322.017
				c-67.222,140.593-88.896,310.052-69.134,464.003c18.155,141.451,49.71,286.556,13.836,426.571
				c-25.02,97.644-74.671,204.98-187.842,218.656c-151.512,18.312-224.057-119.146-287.905-231.993
				c-36.792-65.015-63.354-134.848-86.72-205.614c-22.162-67.122-49.359-126.411-50.805-197.793
				c-3.711-183.21,35.952-365.889,57.653-547.486c19.294-161.454-26.843-301.198-63.105-449.494
				c-9.634-39.401-18.576-79.404-25.4-120.573c-29.658-178.848-7.478-407.816,137.107-534.541
				c47.847-41.935,103.745-67.721,163.451-80.468l-34.147-22.301C3535.994,1354.423,3491.312,1349.576,3457.524,1373.659z"/>
			<path id="_x31_80609011" fill="#82C7AE" stroke="#000000" d="M4438.45,1918.005c51.317,176.634-80.739,339.059-173.861,473.72
				c-40.667,58.793-126.112,94.317-149.434,163.271c-19.604,57.938-33.108,102.556-68.748,149.628
				c-91.5,120.844-105.357,272.959-78.328,417.523c28.243,151.038,58.771,294.382,6.994,443.896
				c-19.472,56.227-51.271,108.702-92.877,148.85c-34.623,33.426-82.545,62.284-127.406,75.685
				c-53.145,15.874-138.322,5.137-180.954-33.737c-51.972-47.389-75.805-134.707-110.489-195.348
				c-44.682-78.093-77.694-162.124-119.935-241.479c-84.032-157.838-38.704-348.99-33.481-520.465
				c3.493-114.672,42.895-226.967,44.781-343.183c2.499-155.049-70.709-297.136-84.262-449.916
				c-4.766-53.661-5.37-107.542-13.503-160.152c-8.058-52.097-6.628-110.568,12.06-160.24
				c28.615-76.029,57.396-156.196,104.368-223.149c23.022-32.796,51.333-65.865,84.148-89.254
				c36.293-25.868,85.161-18.344,118.545-39.343c-15.811-47.452-121.059,7.641-147.507,21.56
				c-57.82,30.426-80.571,90.031-110.43,143.789c-34.631,62.391-70.306,127.513-97.312,193.629
				c-20.66,50.603-22.279,110.155-13.429,163.208c8.944,53.577,9.575,108.45,14.788,163.1
				c14.851,155.589,95.545,300.247,92.672,458.164c-3.035,166.224-60.896,324.604-71.105,489.54
				c-7.029,113.573,7.589,268.961,68.403,368.063c55.5,90.437,93.729,191.038,142.916,284.923
				c63.068,120.394,136.015,261.437,300.364,216.038c49.531-13.687,102.438-43.109,140.691-77.179
				c45.941-40.917,81.071-94.389,102.608-151.675c29.901-79.553,41.294-171.737,38.787-256.543
				c-2.035-68.798-24.507-145.099-32.337-216.026c-7.933-71.979-30.62-142.479-15.979-215.925
				c12.854-64.428,47.067-137.908,88.898-188.885c39.366-47.967,54.313-93.42,75.987-152.438
				c25.788-70.248,120.117-106.495,165.047-166.402c97.415-129.926,218.787-313.182,168.415-482.209
				c-34.875-117.034-117.973-208.829-185.768-307.543c-9.15-13.33-127.146-176.319-139.993-153.161
				c-3.287,5.961-4.141,11.984-3.269,17.96c4.608,31.803,48.313,62.06,68.563,84.395
				C4317.937,1670.922,4400.262,1786.73,4438.45,1918.005z"/>
			<path id="_x31_80609010" fill="#9AD2BD" stroke="#000000" d="M4651.994,1961.216c-15.893-68.348-55.834-123.341-92.844-181.452
				c-54.98-86.337-108.068-172.376-178.502-246.793c-54.264-57.35-54.921-108.938-132.28-184.977
				c-161.36-94.231-340.287-156.777-524.289-189.279c-25.945-4.583-53.687-9.143-82.674-13.291
				c34.53,5.3,68.949,11.32,103.426,17.188c-131.66-12.887-267.527-20.38-386.936,47.151
				c-212.845,120.368-282.786,394.119-300.858,618.742c-9.35,116.172-20.398,234.8-19.66,351.148
				c0.465,73.058,18.579,143.665,22.644,216.1c3.222,57.024,16.01,112.097,18.978,169.337
				c5.562,107.385-52.305,212.4-33.091,319.444c9.554,53.189,8.773,109.641,13.761,163.528
				c6.201,66.935,20.642,129.521,33.75,194.537c13.765,68.256,55.757,119.719,87.372,180.14
				c50.286,96.106,96.564,193.242,153.535,285.722c77.286,125.455,88.683,297.085,246.618,350.183
				c178.781,60.096,353.379-135.284,446.702-261.613c48.768-66.019,94.962-124.503,127.979-201.028
				c37.881-87.781,78.04-166.616,71.325-264.379c-4.36-63.48-23.737-120.94-20.768-185.81c3.344-73.278,6.04-158.011,24.04-228.79
				c28.799-113.213,108.481-215.773,173.128-312.318c56.775-84.777,141.721-144.189,148.291-251.306
				c4.086-66.555,46.67-108.676,71.527-169.074C4652.203,2113.777,4669.633,2037.019,4651.994,1961.216z M4319.133,2411.252
				c-44.929,59.908-139.257,96.155-165.047,166.402c-21.675,59.019-36.62,104.472-75.985,152.438
				c-41.831,50.978-76.044,124.458-88.898,188.886c-14.642,73.446,8.045,143.947,15.979,215.925
				c7.83,70.928,30.302,147.229,32.338,216.026c2.506,84.806-8.888,176.99-38.786,256.543
				c-21.54,57.286-56.669,110.758-102.61,151.675c-38.254,34.067-91.161,63.49-140.692,77.179
				c-164.349,45.397-237.296-95.645-300.364-216.038c-49.187-93.886-87.416-194.486-142.916-284.923
				c-60.814-99.103-75.432-254.49-68.403-368.063c10.21-164.936,68.07-323.316,71.105-489.54
				c2.872-157.916-77.819-302.574-92.671-458.163c-5.214-54.65-5.845-109.525-14.789-163.1
				c-8.85-53.054-7.231-112.606,13.43-163.208c27.005-66.115,62.68-131.239,97.313-193.63
				c29.856-53.755,52.607-113.362,110.428-143.789c26.449-13.918,131.697-69.01,147.507-21.559c-2.304,1.448-4.687,2.749-7.13,3.948
				l34.147,22.302c173.22-36.981,378.501,35.867,512.34,143.097l43.09-17.399c-0.863-5.963-0.011-11.976,3.271-17.925
				c12.845-23.159,130.842,139.831,139.993,153.161c67.796,98.715,150.895,190.509,185.768,307.543
				C4537.92,2098.07,4416.546,2281.327,4319.133,2411.252z"/>
			<path id="_x31_80609014" fill="#9DF0D2" stroke="#000000" d="M3883.5,1487.288c-36.328-13.746-86.908-20.966-124.899-11.408
				c-67.434,16.959-103.388,92.502-124.684,152.339c-30.003,84.34-29.675,249.81-30.313,242.562
				c-4.085,61.177,2.703,128.25,37.683,180.343c33.169,49.409,84.673,84.087,143.547,94.526c29.373,5.208,66.074,3.636,94.619-5.668
				c33.024-10.76,64.38-23.21,89.853-45.451c20.655-18.042,59.684-69.479,80.187-94.841c13.401-16.575,24.477-34.916,27.763-56.312
				c3.85-25.156,2.4-50.597,2.552-75.949c0.275-47.225-8.172-93.909-20.553-139.344
				C4033.252,1632.661,3982.776,1524.858,3883.5,1487.288z"/>
			<path id="_x31_80609015" fill="#95E4C8" stroke="#000000" d="M4057.775,1988.663c-19.574,25.598-39.046,53.917-68.872,85.539
				c-6.227,6.598-12.738,14.734-19.548,20.215c-26.327,21.198-56.818,34.686-89.842,45.441
				c-28.541,9.303-65.238,10.875-94.607,5.667c-58.868-10.433-110.365-45.108-143.532-94.514
				c-36.897-54.977-40.17-117.797-37.704-181.759c0.569-14.862-3.778-47.929,12.325-56.78
				c19.237-10.576,26.152,18.173,37.954,26.875c16.528,12.186,36.316,22.722,55.948,28.59c41.143,12.3,84.883,11.869,126.793,3.865
				c40.406-7.712,80.221-16.491,113.201-42.333c27.894-21.864,74.191-80.9,115.612-76.865
				C4084.305,1839.628,4088.681,1958.614,4057.775,1988.663z"/>
			<path id="_x31_80609017" fill="#CCCCCC" stroke="#000000" d="M4712.676,1810.22c82.17,168.753,94.275,393.73,41.094,573.366
				c-36.611,123.644-91.842,240.38-159.26,349.956c-52.369,85.123-101.025,174.42-121.485,273.172
				c-21.595,104.277,2.01,214.081-21.992,319.986c-35.304,155.671-141.808,299.744-231.646,428.542
				c110.977-159.105,225.098-301.204,308.405-478.121c31.107-66.06,68.842-135.25,85.713-206.729
				c17.008-72.024,15.197-148.197,32.678-221.64c20.287-85.202,61.488-160.774,79.109-246.734
				c17.264-84.33,35.721-169.943,47.822-255.271C4798.924,2164.706,4794.639,1978.547,4712.676,1810.22z"/>
			<path id="_x31_80609018" fill="#CCCCCC" stroke="#000000" d="M3601.119,4255.424
				c-199.929-56.586-311.544-253.171-419.125-414.021c-72.428-108.285-146.24-215.875-216.7-325.457
				c-45.463-70.704-80.856-141.155-97.318-224.137c-22.784-114.858-28.439-221.295-26.205-337.486
				c2.276-118.093,6.1-236.47-4.74-354.285c-3.94-42.992-11.373-84.207-20.259-126.392
				c-24.344-115.625,17.666-254.889,35.979-369.415c21.268-133.025,42.166-265.916,54.094-400.161
				c11.571-130.103,24.776-262.31,80.812-382.119c5.762-12.321,12.154-23.901,19.106-34.797
				c-15.188,21.093-28.233,44.752-38.771,71.248c-122.513,308.073-165.995,611.095-210.937,937.001
				c-36.716,266.294-73.189,532.747-57.169,802.091c6.756,113.434,8.137,233.4,40.649,343.065
				c34.399,116.038,108.438,216.454,175.994,315.173c207.94,303.87,608.748,735.603,983.525,405.81
				C3826.844,4225.963,3700.51,4283.541,3601.119,4255.424z"/>
			<path id="_x31_80609019" fill="#CCCCCC" stroke="#000000" d="M3969.307,2094.65c-26.33,21.199-56.825,34.688-89.853,45.444
				c-28.543,9.303-65.243,10.875-94.607,5.667c-58.881-10.435-110.376-45.111-143.551-94.514
				c-36.901-54.979-40.173-117.802-37.705-181.765c0.57-14.862-3.771-47.933,12.332-56.787
				c19.241-10.577,26.157,18.177,37.958,26.875c16.522,12.191,36.312,22.727,55.947,28.596c41.146,12.3,84.891,11.868,126.804,3.864
				c40.418-7.714,80.237-16.495,113.211-42.336c27.897-21.862,70.053-75.665,108.725-76.813
				c35.176-1.031,53.816,53.128,77.844,52.38c20.006-0.621,10.31-33.172,4.46-44.86c-38.198-76.364-97.336-100.96-163.817-38.511
				c-68.081,63.948-211.383,119.641-297.49,59.191c-13.182-9.249-21.151-23.897-33.852-33.548
				c-7.242-5.503-37.163-19.396-45.645-9.857c-19.618,22.07-15.447,81.284-16.54,108.938
				c-3.914,98.774-25.471,205.225,66.169,270.901c21.62,15.481,32.302,41.671,51.714,59.097
				c18.093,16.168,39.882,27.034,63.615,31.917c21.112,4.342,46.079-3.749,60.077,16.804c16.495,24.241-0.966,48.932-16.617,67.728
				c-67.991,81.641-111.749,187.332-119.68,294.747c-12.015,162.599-33.725,172.526-57.954,157.097
				c-9.177-5.845-33.559,126.44-34.391,138.783c-3.206,48.065,0.64,98.45,18.745,143.467c13.221,32.886,40.216,80.223,72.918,33.235
				c19.54-28.075,7.041-70.225,3.169-100.782c-11.45-90.284,1.286-185.513,8.716-275.79c6.923-84.08,31.629-168.339,77.584-239.754
				c36.936-57.412,72.221-126.088,113.723-184.481c57.658-81.115,129.943-147.967,177.831-236.325
				c6.016-11.099,32.134-78.781,1.74-47.74c-30.448,31.098-52.175,69.431-82.014,101.055
				C3982.652,2083.169,3976.118,2089.173,3969.307,2094.65z"/>
			<path id="_x31_80609020" fill="#CCCCCC" stroke="#000000" d="M4276.167,2156.679c24.022-84.973,16.806-180.012-10.02-263.33
				c-5.797-17.986-47.951-134.829-74.47-85.79c-14.286,26.445,20.36,90.719,27.752,116.581
				c23.334,81.677,30.473,171.928,1.458,253.479c-34.912,98.164-127.943,153.456-193.116,229.079
				c-35.943,41.694-71.41,100.386-94.344,150.434c-33.108,72.237-59.235,156.667-73.437,234.909
				c-30.479,167.91,24.705,344.313-2.234,513.331c-6.563,41.198-22.378,79.646-48.779,111.606
				c-14.835,17.96-72.605,68.502-40.332,96.189c22.903,19.621,82.933-3.721,101.031-20.929
				c67.905-64.596,33.528-215.092,29.301-295.279c-5.564-105.382-23.183-208.584-13.852-314.727
				c7.483-85.146,28.398-167.187,60.997-246.062c34.92-84.513,86.933-159.438,146.262-228.547
				C4160.974,2327.713,4246.355,2262.165,4276.167,2156.679z"/>
			<path id="_x31_80609016" fill="#AAAAAA" stroke="#000000" d="M3666.707,2317.759c-3.652-48.165-14.746-93.733-26.435-143.249
				c-2.787-11.81-22.531-52.73-9.304-62.68c16.19-12.169,60.829,56.194,70.442,64.782c18.093,16.167,39.881,27.029,63.614,31.917
				c21.113,4.342,46.08-3.749,60.077,16.804c16.495,24.242-0.965,48.932-16.615,67.729
				c-67.992,81.639-111.75,187.331-119.682,294.741c-1.856,25.092-7.101,156.54-40.848,162.464
				c-21.245,3.729-21.045-27.947-20.72-42.346c0.623-27.952,12.901-55.833,18.261-83.07c15.791-80.236,14.87-161.616,21.227-242.566
				C3668.479,2359.933,3668.283,2338.604,3666.707,2317.759z"/>
		</g>
	</g>
	<g transform="scale(1.0)">
		<g id="_x31_80609003_1_" transform=" scale(1.0, 1.0)">
			<path id="_x31_80609005_1_" fill="#BFDAE3" stroke="#000000" d="M967.717,1469.248
				c201.79-163.768,446.182-265.846,700.216-310.724c243.007-42.93,643.25-84.044,756.077,199.69
				c122.517,308.088,165.994,611.125,210.929,937.045c36.712,266.309,73.179,532.776,57.152,802.137
				c-6.75,113.438-8.14,233.414-40.652,343.082c-34.402,116.047-108.441,216.469-175.995,315.193
				c-207.943,303.887-608.764,735.648-983.531,405.844c-129.725-114.156-221.06-265.436-319.322-406.32
				c-110.975-159.113-225.093-301.217-308.399-478.145c-31.109-66.061-68.843-135.254-85.712-206.738
				c-16.997-72.023-15.191-148.203-32.673-221.648c-20.285-85.203-61.481-160.787-79.1-246.743
				c-17.269-84.339-35.723-169.962-47.82-255.292c-25.811-182.05-21.521-368.218,60.439-536.559
				C744.387,1676.458,852.968,1562.374,967.717,1469.248z"/>
			<path id="_x31_80609006_1_" fill="#B0FFB8" stroke="#000000" d="M618.902,2346.544c12.099,85.331,30.555,170.944,47.817,255.273
				c17.617,85.959,58.815,161.53,79.092,246.729c17.479,73.443,15.676,149.619,32.673,221.637
				c16.867,71.477,54.6,140.666,85.704,206.73c83.298,176.914,197.41,319.012,308.377,478.111
				c98.258,140.875,189.586,292.148,319.305,406.297c374.742,329.783,775.535-101.947,983.474-405.818
				c67.543-98.717,141.58-199.131,175.979-315.17c32.512-109.666,33.902-229.629,40.651-343.063
				c16.031-269.342-20.438-535.792-57.146-802.083c-44.927-325.901-88.402-628.92-210.912-936.995
				c-112.815-283.712-513.031-242.604-756.028-199.678c-254.022,44.872-498.397,146.947-700.177,310.708
				c-114.738,93.118-223.314,207.19-288.371,340.799C597.38,1978.35,593.09,2164.505,618.902,2346.544z M1566.897,2225.333
				c13.997-20.552,38.964-12.462,60.077-16.804c23.733-4.888,45.522-15.749,63.614-31.917c9.613-8.587,54.252-76.95,70.442-64.781
				c13.228,9.949-6.517,50.871-9.304,62.68c-11.688,49.514-22.782,95.083-26.436,143.249c-1.575,20.844-1.771,42.173-0.016,64.524
				c6.355,80.952,5.435,162.331,21.225,242.568c5.361,27.236,17.639,55.116,18.262,83.069c0.326,14.396,0.525,46.074-20.719,42.346
				c-33.748-5.926-38.993-137.373-40.848-162.464c-7.932-107.41-51.69-213.102-119.682-294.742
				C1567.865,2274.265,1550.403,2249.575,1566.897,2225.333z"/>
			<path id="_x31_80609007_1_" fill="#9AD2BD" stroke="#000000" d="M618.902,2346.544c12.099,85.331,30.555,170.944,47.817,255.273
				c17.617,85.959,58.815,161.53,79.092,246.729c17.479,73.443,15.676,149.619,32.673,221.637
				c16.867,71.477,54.6,140.666,85.704,206.73c83.298,176.914,197.41,319.012,308.377,478.111
				c98.258,140.875,189.586,292.148,319.305,406.297c374.742,329.783,775.535-101.947,983.474-405.818
				c67.543-98.717,141.58-199.131,175.979-315.17c32.512-109.666,33.902-229.629,40.651-343.063
				c16.031-269.342-20.438-535.792-57.146-802.083c-44.927-325.901-88.402-628.92-210.912-936.995
				c-112.815-283.712-513.031-242.604-756.028-199.678c-254.022,44.872-498.397,146.947-700.177,310.708
				c-114.738,93.118-223.314,207.19-288.371,340.799C597.38,1978.35,593.09,2164.505,618.902,2346.544z M1566.897,2225.333
				c13.997-20.552,38.964-12.462,60.077-16.804c23.733-4.888,45.522-15.749,63.614-31.917c9.613-8.587,54.252-76.95,70.442-64.781
				c13.228,9.949-6.517,50.871-9.304,62.68c-11.688,49.514-22.782,95.083-26.436,143.249c-1.575,20.844-1.771,42.173-0.016,64.524
				c6.355,80.952,5.435,162.331,21.225,242.568c5.361,27.236,17.639,55.116,18.262,83.069c0.326,14.396,0.525,46.074-20.719,42.346
				c-33.748-5.926-38.993-137.373-40.848-162.464c-7.932-107.41-51.69-213.102-119.682-294.742
				C1567.865,2274.265,1550.403,2249.575,1566.897,2225.333z"/>
			<path id="_x31_80609008_1_" fill="#9AD2BD" stroke="#000000" d="M618.874,2346.653c12.098,85.336,30.556,170.957,47.82,255.292
				c17.619,85.965,58.819,161.545,79.105,246.754c17.481,73.445,15.67,149.627,32.667,221.652
				c16.879,71.484,54.606,140.678,85.72,206.748c83.307,176.926,197.428,319.033,308.404,478.148
				c98.266,140.887,189.601,292.174,319.322,406.33c374.781,329.811,775.61-101.955,983.556-405.848
				c67.558-98.727,141.592-199.152,176.002-315.199c32.516-109.674,33.897-229.648,40.646-343.094
				c16.032-269.363-20.431-535.833-57.15-802.149c-44.93-325.929-88.409-628.972-210.929-937.068
				c-112.834-283.737-513.076-242.625-756.092-199.7c-254.044,44.876-498.438,146.961-700.236,310.738
				c-114.739,93.129-223.324,207.211-288.387,340.829C597.357,1978.429,593.061,2164.601,618.874,2346.653z M1566.897,2225.333
				c13.997-20.552,38.964-12.462,60.077-16.804c23.733-4.888,45.522-15.749,63.614-31.917c9.613-8.587,54.252-76.95,70.442-64.781
				c13.228,9.949-6.517,50.871-9.304,62.68c-11.688,49.514-22.782,95.083-26.436,143.249c-1.575,20.844-1.771,42.173-0.016,64.524
				c6.355,80.952,5.435,162.331,21.225,242.568c5.361,27.236,17.639,55.116,18.262,83.069c0.326,14.396,0.525,46.074-20.719,42.346
				c-33.748-5.926-38.993-137.373-40.848-162.464c-7.932-107.41-51.69-213.102-119.682-294.742
				C1567.865,2274.265,1550.403,2249.575,1566.897,2225.333z M1332.745,1728.083c26.001-95.423,76.479-203.226,175.755-240.795
				c36.328-13.745,86.908-20.966,124.898-11.408c67.435,16.959,103.389,92.502,124.683,152.339
				c30.004,84.341,29.676,249.809,30.314,242.561c4.084,61.176-2.702,128.25-37.683,180.342
				c-33.169,49.41-84.672,84.088-143.547,94.526c-29.374,5.208-66.074,3.635-94.618-5.668
				c-33.026-10.759-64.383-23.209-89.854-45.451c-20.655-18.041-59.685-69.48-80.186-94.841
				c-13.401-16.574-24.477-34.916-27.764-56.311c-3.85-25.157-2.401-50.598-2.552-75.949
				C1311.917,1820.203,1320.365,1773.519,1332.745,1728.083z"/>
			<path id="_x31_80609009_1_" fill="#82C7AE" stroke="#000000" d="M1172.615,3755.244
				c98.264,140.877,189.601,292.15,319.329,406.299c73.211,64.42,199.546,122,298.937,93.881
				c199.929-56.586,311.544-253.172,419.125-414.02c72.428-108.287,146.24-215.877,216.7-325.457
				c45.462-70.705,80.856-141.154,97.318-224.137c22.785-114.857,28.439-221.295,26.205-337.486
				c-2.275-118.094-6.1-236.471,4.74-354.285c3.94-42.991,11.373-84.208,20.259-126.392
				c24.344-115.626-17.666-254.889-35.979-369.416c-21.269-133.023-42.166-265.915-54.094-400.16
				c-11.572-130.102-24.777-262.309-80.812-382.119c-5.762-12.321-12.154-23.902-19.106-34.797
				c-130.086-180.656-417.473-172.808-634.645-141.73c-34.53,5.301-68.949,11.319-103.426,17.188
				c131.66-12.888,267.527-20.379,386.936,47.15c212.847,120.37,282.788,394.121,300.858,618.743
				c9.35,116.172,20.398,234.8,19.66,351.148c-0.465,73.057-18.579,143.664-22.644,216.1
				c-3.223,57.024-16.011,112.097-18.978,169.337c-5.562,107.385,52.304,212.401,33.091,319.444
				c-9.554,53.188-8.773,109.641-13.761,163.527c-6.201,66.936-20.641,129.523-33.75,194.537
				c-13.765,68.256-55.758,119.719-87.372,180.141c-50.286,96.105-96.564,193.242-153.535,285.723
				c-77.286,125.453-88.683,297.084-246.618,350.18c-178.781,60.098-353.38-135.283-446.702-261.611
				c-48.768-66.018-94.963-124.502-127.979-201.029c-37.881-87.779-78.04-166.615-71.325-264.377
				c4.36-63.48,23.736-120.941,20.768-185.811c-3.345-73.279-6.041-158.012-24.041-228.789
				c-28.798-113.213-108.479-215.773-173.127-312.318c-56.773-84.776-141.721-144.19-148.29-251.306
				c-4.087-66.556-46.671-108.677-71.528-169.075c-29.03-70.549-46.459-147.307-28.821-223.111
				c15.89-68.346,55.834-123.34,92.842-181.452c54.98-86.337,108.069-172.376,178.503-246.792
				c54.271-57.357,54.919-108.952,132.311-185.007c-23.641,15.083-41.403,25.855-55.422,34.049
				c-41.587,26.893-81.845,56.013-120.532,87.41c-107.214,87.007-209.041,192.306-275.016,314.742
				c-0.664,1.23-1.323,2.466-1.979,3.702c-0.691,1.297-1.385,2.594-2.064,3.896c-1.306,2.496-2.597,5.002-3.873,7.514
				c-0.416,0.822-0.833,1.645-1.248,2.468c-1.418,2.816-2.824,5.639-4.205,8.474c-82.169,168.754-94.275,393.731-41.092,573.367
				c36.609,123.644,91.842,240.379,159.258,349.955c52.371,85.121,101.027,174.42,121.485,273.17
				c21.594,104.277-2.01,214.082,21.991,319.988C976.271,3482.373,1082.776,3626.443,1172.615,3755.244z"/>
			<path id="_x31_80609013_1_" fill="#82C7AE" stroke="#000000" d="M1326.496,1752.6c-32.405,9.479-46.905,53.186-70.936,52.431
				c-20.004-0.621-10.309-33.17-4.46-44.853c23.467-46.925,54.849-74.299,90.986-73.945l4.699-3.544
				c28.877-82.068,77.891-163.754,161.655-195.456c36.323-13.742,86.896-20.958,124.884-11.401
				c67.426,16.954,103.374,92.492,124.668,152.322c0,0,15.747,64.831,21.545,106.209c32.714,0.283,26.486,84.443,28.853,112.018
				c8.5,98.813,22.129,211.441-66.167,270.892c8.402-8.257,18.728-5.683,18.728-5.683c13.226,9.952-6.52,50.872-9.304,62.678
				c-11.688,49.514-22.783,95.084-26.435,143.248c-1.578,20.843-1.766,42.174-0.017,64.519
				c6.354,80.948,5.431,162.329,21.221,242.554c5.359,27.245,17.635,55.121,18.257,83.071c0.196,8.867,0.346,24.303-4.521,33.977
				l0.907,3.01c9.179-5.846,33.557,126.43,34.386,138.779c3.206,48.059-0.646,98.447-18.744,143.463
				c-13.226,32.879-40.22,80.213-72.909,33.227c-19.539-28.07-7.041-70.215-3.168-100.777
				c11.448-90.275-1.283-185.504-8.713-275.774c-6.921-84.081-31.625-168.332-77.572-239.749
				c-36.932-57.408-72.214-126.077-113.709-184.473c-57.653-81.112-129.924-147.958-177.804-236.313
				c-6.022-11.104-35.267-90.972,7.944-37.271l-16.064-42.481c-3.848-25.153-2.4-50.59-2.553-75.935
				C1311.95,1831.924,1326.496,1752.604,1326.496,1752.6z M2089.364,1975.339c29.666-178.845,7.491-407.807-137.087-534.527
				c-201.229-176.381-544.865-67.22-715.451,97.509c-59.425,57.381-118.935,126.382-161.979,197.118
				c-59.711,98.143-109.82,238.979-77.747,354.179c19.733,70.878,78.754,148.65,122.817,207.417
				c82.098,109.49,210.415,197.211,270.083,322.006c67.213,140.587,88.885,310.046,69.114,463.984
				c-18.155,141.447-49.71,286.553-13.842,426.559c25.018,97.645,74.661,204.973,187.822,218.652
				c151.498,18.307,224.037-119.146,287.882-231.99c36.789-65.012,63.349-134.844,86.724-205.605
				c22.162-67.121,49.355-126.408,50.802-197.783c3.712-183.209-35.945-365.877-57.643-547.47
				c-19.289-161.448,26.844-301.188,63.106-449.483C2073.605,2056.51,2082.54,2016.507,2089.364,1975.339z"/>
			<path id="_x31_80609012_1_" fill="#9AD2BD" stroke="#000000" d="M1823.061,1338.267l-34.147,22.301
				c59.706,12.748,115.604,38.533,163.451,80.468c144.585,126.725,166.766,355.693,137.107,534.541
				c-6.824,41.169-15.767,81.172-25.4,120.573c-36.263,148.296-82.399,288.04-63.105,449.494
				c21.701,181.596,61.364,364.276,57.653,547.485c-1.445,71.383-28.643,130.672-50.805,197.793
				c-23.366,70.768-49.928,140.6-86.72,205.615c-63.849,112.846-136.394,250.305-287.905,231.992
				c-113.171-13.676-162.822-121.012-187.842-218.656c-35.874-140.016-4.319-285.119,13.836-426.57
				c19.763-153.951-1.912-323.41-69.134-464.003c-59.677-124.801-187.996-212.525-270.113-322.017
				c-44.067-58.77-103.093-136.549-122.835-207.432c-32.081-115.199,18.041-256.043,77.756-354.185
				c43.049-70.742,102.561-139.741,161.984-197.13c12.373-11.945,25.66-23.597,39.732-34.871l-43.09-17.398
				c-0.003,0.012-0.003,0.023-0.005,0.034c-4.608,31.804-48.313,62.06-68.563,84.395
				c-90.854,100.229-173.18,216.038-211.367,347.312c-51.319,176.633,80.736,339.059,173.861,473.72
				c40.666,58.793,126.112,94.316,149.432,163.271c19.604,57.938,33.109,102.555,68.75,149.627
				c91.499,120.844,105.356,272.959,78.328,417.523c-28.245,151.039-58.771,294.381-6.995,443.895
				c19.472,56.229,51.271,108.703,92.878,148.85c34.623,33.428,82.545,62.285,127.405,75.688
				c53.146,15.871,138.323,5.135,180.953-33.738c51.972-47.389,75.807-134.707,110.491-195.348
				c44.681-78.094,77.694-162.125,119.935-241.479c84.032-157.838,38.704-348.99,33.48-520.465
				c-3.493-114.672-42.895-226.966-44.78-343.183c-2.5-155.05,70.706-297.136,84.262-449.916
				c4.764-53.661,5.369-107.543,13.502-160.151c8.058-52.097,6.628-110.568-12.06-160.241
				c-28.615-76.029-57.396-156.196-104.369-223.149c-23.021-32.796-51.332-65.865-84.147-89.254
				C1900.688,1349.576,1856.005,1354.423,1823.061,1338.267z"/>
			<path id="_x31_80609011_1_" fill="#82C7AE" stroke="#000000" d="M1164.917,1570.692c20.251-22.335,63.955-52.592,68.563-84.395
				c0.872-5.976,0.019-11.999-3.269-17.96c-12.847-23.158-130.843,139.832-139.993,153.161
				c-67.795,98.715-150.893,190.51-185.768,307.543c-50.372,169.028,71,352.284,168.415,482.209
				c44.93,59.907,139.259,96.154,165.047,166.402c21.675,59.018,36.621,104.471,75.987,152.438
				c41.831,50.977,76.044,124.457,88.898,188.885c14.641,73.445-8.047,143.945-15.979,215.924
				c-7.83,70.928-30.302,147.229-32.337,216.027c-2.507,84.805,8.886,176.99,38.787,256.543
				c21.537,57.285,56.667,110.758,102.608,151.674c38.253,34.07,91.16,63.492,140.691,77.18
				c164.35,45.398,237.296-95.645,300.364-216.039c49.187-93.885,87.416-194.486,142.916-284.922
				c60.814-99.102,75.433-254.49,68.403-368.063c-10.21-164.936-68.07-323.316-71.105-489.54
				c-2.873-157.917,77.821-302.575,92.672-458.164c5.213-54.649,5.844-109.523,14.788-163.1
				c8.851-53.053,7.231-112.605-13.429-163.208c-27.006-66.116-62.681-131.238-97.312-193.629
				c-29.858-53.757-52.609-113.362-110.43-143.789c-26.448-13.919-131.696-69.011-147.507-21.56
				c33.384,20.999,82.252,13.475,118.545,39.343c32.815,23.389,61.126,56.458,84.148,89.254
				c46.973,66.954,75.753,147.121,104.368,223.149c18.688,49.672,20.117,108.143,12.06,160.24
				c-8.133,52.609-8.737,106.491-13.503,160.152c-13.553,152.78-86.761,294.867-84.262,449.916
				c1.887,116.216,41.288,228.511,44.781,343.182c5.223,171.475,50.551,362.627-33.481,520.465
				c-42.24,79.355-75.253,163.387-119.935,241.479c-34.685,60.641-58.518,147.959-110.489,195.348
				c-42.632,38.875-127.81,49.611-180.954,33.738c-44.861-13.4-92.783-42.26-127.406-75.686
				c-41.606-40.146-73.405-92.623-92.877-148.85c-51.776-149.514-21.249-292.857,6.994-443.895
				c27.029-144.564,13.172-296.68-78.328-417.523c-35.64-47.073-49.145-91.69-68.748-149.628
				c-23.321-68.954-108.767-104.479-149.434-163.271c-93.122-134.661-225.179-297.086-173.861-473.72
				C991.738,1786.73,1074.063,1670.922,1164.917,1570.692z"/>
			<path id="_x31_80609010_1_" fill="#9AD2BD" stroke="#000000" d="M768.832,2184.327c24.857,60.398,67.441,102.52,71.528,169.074
				c6.569,107.116,91.515,166.528,148.29,251.306c64.646,96.545,144.329,199.104,173.128,312.317
				c18,70.779,20.696,155.512,24.04,228.791c2.97,64.869-16.407,122.328-20.768,185.809
				c-6.715,97.764,33.444,176.598,71.325,264.379c33.017,76.525,79.211,135.01,127.979,201.029
				c93.323,126.328,267.921,321.709,446.702,261.613c157.936-53.098,169.332-224.729,246.618-350.184
				c56.971-92.479,103.249-189.615,153.535-285.721c31.615-60.422,73.607-111.885,87.372-180.141
				c13.108-65.016,27.549-127.602,33.75-194.537c4.987-53.887,4.207-110.338,13.761-163.527
				c19.214-107.045-38.652-212.059-33.091-319.444c2.968-57.24,15.756-112.313,18.978-169.337
				c4.064-72.436,22.179-143.043,22.644-216.1c0.738-116.348-10.311-234.976-19.66-351.148
				c-18.072-224.623-88.014-498.374-300.858-618.742c-119.408-67.531-255.275-60.039-386.936-47.151
				c34.477-5.868,68.896-11.888,103.426-17.188c-28.987,4.147-56.729,8.708-82.674,13.291
				c-184.002,32.501-362.929,95.047-524.289,189.279c-77.359,76.039-78.017,127.626-132.28,184.977
				c-70.434,74.417-123.521,160.456-178.502,246.793c-37.009,58.111-76.95,113.104-92.843,181.452
				C722.368,2037.019,739.797,2113.777,768.832,2184.327z M904.452,1929.042c34.873-117.034,117.972-208.829,185.768-307.543
				c9.151-13.331,127.148-176.32,139.993-153.161c3.282,5.949,4.135,11.962,3.271,17.925l43.09,17.399
				c133.839-107.23,339.12-180.078,512.34-143.097l34.147-22.302c-2.443-1.199-4.826-2.5-7.13-3.948
				c15.81-47.452,121.058,7.641,147.507,21.559c57.82,30.426,80.571,90.033,110.428,143.789
				c34.633,62.391,70.308,127.515,97.313,193.63c20.661,50.602,22.279,110.154,13.43,163.208
				c-8.944,53.575-9.575,108.449-14.789,163.1c-14.852,155.589-95.543,300.247-92.671,458.163
				c3.035,166.224,60.896,324.603,71.105,489.539c7.028,113.574-7.589,268.961-68.403,368.064
				c-55.5,90.436-93.729,191.037-142.916,284.922c-63.068,120.395-136.016,261.436-300.364,216.039
				c-49.531-13.689-102.438-43.111-140.692-77.18c-45.941-40.916-81.07-94.389-102.61-151.674
				c-29.898-79.553-41.292-171.738-38.786-256.543c2.036-68.799,24.508-145.1,32.338-216.027
				c7.934-71.977,30.62-142.479,15.979-215.924c-12.854-64.428-47.067-137.908-88.898-188.887
				c-39.365-47.965-54.311-93.418-75.985-152.437c-25.79-70.247-120.118-106.494-165.047-166.402
				C975.454,2281.327,854.08,2098.07,904.452,1929.042z"/>
			<path id="_x31_80609014_1_" fill="#9DF0D2" stroke="#000000" d="M1332.747,1728.084c-12.381,45.435-20.828,92.119-20.553,139.344
				c0.151,25.352-1.298,50.793,2.552,75.949c3.286,21.396,14.361,39.737,27.763,56.312c20.503,25.362,59.531,76.799,80.187,94.841
				c25.473,22.241,56.828,34.691,89.853,45.451c28.545,9.304,65.246,10.875,94.619,5.668
				c58.874-10.439,110.378-45.117,143.547-94.526c34.979-52.093,41.768-119.166,37.683-180.343
				c-0.639,7.249-0.311-158.221-30.313-242.562c-21.296-59.837-57.25-135.38-124.684-152.339
				c-37.991-9.558-88.571-2.338-124.899,11.408C1409.223,1524.858,1358.748,1632.661,1332.747,1728.084z"/>
			<path id="_x31_80609015_1_" fill="#95E4C8" stroke="#000000" d="M1326.496,1752.604c41.421-4.035,87.719,55.001,115.612,76.865
				c32.98,25.842,72.795,34.622,113.201,42.333c41.91,8.004,85.65,8.435,126.793-3.865c19.632-5.869,39.42-16.405,55.948-28.59
				c11.802-8.702,18.717-37.451,37.954-26.875c16.104,8.851,11.756,41.918,12.325,56.78c2.466,63.962-0.807,126.782-37.704,181.759
				c-33.167,49.406-84.664,84.081-143.532,94.514c-29.369,5.208-66.066,3.636-94.607-5.667
				c-33.023-10.756-63.515-24.244-89.842-45.441c-6.81-5.481-13.321-13.617-19.548-20.215
				c-29.826-31.622-49.298-59.941-68.872-85.539C1303.319,1958.614,1307.695,1839.628,1326.496,1752.604z"/>
			<path id="_x31_80609017_1_" fill="#CCCCCC" stroke="#000000" d="M618.887,2346.749c12.101,85.327,30.559,170.94,47.822,255.271
				c17.621,85.96,58.821,161.532,79.109,246.733c17.48,73.443,15.67,149.615,32.678,221.641
				c16.87,71.479,54.605,140.668,85.712,206.729c83.308,176.916,197.429,319.016,308.405,478.121
				c-89.839-128.799-196.343-272.871-231.646-428.543c-24.002-105.904-0.397-215.709-21.992-319.986
				c-20.459-98.752-69.115-188.049-121.485-273.172c-67.417-109.575-122.647-226.311-159.259-349.955
				c-53.182-179.636-41.077-404.613,41.093-573.366C597.362,1978.547,593.076,2164.706,618.887,2346.749z"/>
			<path id="_x31_80609018_1_" fill="#CCCCCC" stroke="#000000" d="M1491.944,4161.543
				c374.777,329.793,775.585-101.939,983.525-405.811c67.556-98.719,141.595-199.135,175.994-315.172
				c32.513-109.666,33.894-229.633,40.649-343.066c16.02-269.344-20.453-535.796-57.168-802.09
				c-44.941-325.906-88.425-628.928-210.938-937.001c-10.537-26.495-23.583-50.155-38.771-71.248
				c6.952,10.896,13.345,22.476,19.106,34.797c56.035,119.81,69.24,252.016,80.812,382.119
				c11.928,134.245,32.826,267.136,54.094,400.161c18.313,114.526,60.323,253.79,35.979,369.415
				c-8.886,42.185-16.318,83.399-20.259,126.392c-10.84,117.815-7.017,236.192-4.74,354.284
				c2.234,116.191-3.421,222.629-26.205,337.486c-16.462,82.982-51.855,153.434-97.318,224.137
				c-70.46,109.582-144.272,217.172-216.7,325.457c-107.581,160.85-219.196,357.436-419.125,414.021
				C1691.49,4283.541,1565.156,4225.963,1491.944,4161.543z"/>
			<path id="_x31_80609019_1_" fill="#CCCCCC" stroke="#000000" d="M1403.126,2076.573c-29.839-31.625-51.565-69.957-82.014-101.055
				c-30.394-31.041-4.275,36.641,1.74,47.74c47.888,88.358,120.173,155.21,177.831,236.325
				c41.502,58.394,76.787,127.069,113.723,184.481c45.955,71.415,70.661,155.674,77.584,239.754
				c7.43,90.277,20.166,185.505,8.716,275.789c-3.872,30.559-16.371,72.707,3.169,100.783c32.702,46.986,59.697-0.35,72.918-33.236
				c18.105-45.016,21.951-95.4,18.745-143.467c-0.832-12.342-25.214-144.627-34.391-138.783
				c-24.229,15.43-45.939,5.502-57.954-157.096c-7.931-107.415-51.688-213.106-119.68-294.747
				c-15.651-18.796-33.112-43.486-16.617-67.728c13.998-20.552,38.965-12.462,60.077-16.804
				c23.733-4.883,45.522-15.749,63.615-31.917c19.412-17.426,30.094-43.616,51.714-59.097
				c91.64-65.676,70.083-172.127,66.169-270.901c-1.093-27.654,3.078-86.868-16.54-108.938c-8.481-9.539-38.402,4.354-45.645,9.857
				c-12.7,9.651-20.67,24.3-33.852,33.548c-86.107,60.45-229.409,4.757-297.49-59.191c-66.481-62.449-125.619-37.854-163.817,38.511
				c-5.85,11.688-15.546,44.239,4.46,44.86c24.027,0.748,42.668-53.411,77.844-52.38c38.672,1.149,80.827,54.952,108.725,76.813
				c32.974,25.842,72.793,34.622,113.211,42.336c41.913,8.003,85.658,8.436,126.804-3.864c19.636-5.87,39.425-16.405,55.947-28.596
				c11.801-8.698,18.717-37.452,37.958-26.875c16.104,8.854,11.762,41.925,12.332,56.787c2.468,63.962-0.804,126.785-37.705,181.765
				c-33.175,49.402-84.67,84.079-143.551,94.514c-29.364,5.208-66.064,3.636-94.607-5.667
				c-33.027-10.756-63.522-24.245-89.853-45.444C1415.881,2089.173,1409.347,2083.169,1403.126,2076.573z"/>
			<path id="_x31_80609020_1_" fill="#CCCCCC" stroke="#000000" d="M1299.615,2407.625
				c59.329,69.109,111.342,144.034,146.262,228.547c32.599,78.875,53.514,160.917,60.997,246.061
				c9.331,106.143-8.287,209.346-13.852,314.727c-4.228,80.188-38.604,230.684,29.301,295.279
				c18.099,17.209,78.128,40.551,101.031,20.93c32.273-27.688-25.497-78.23-40.332-96.189
				c-26.401-31.961-42.217-70.408-48.779-111.607c-26.939-169.018,28.245-345.42-2.234-513.33
				c-14.201-78.242-40.328-162.671-73.437-234.909c-22.934-50.048-58.4-108.739-94.344-150.434
				c-65.173-75.623-158.204-130.915-193.116-229.079c-29.015-81.551-21.876-171.802,1.458-253.479
				c7.392-25.862,42.038-90.136,27.752-116.581c-26.519-49.04-68.673,67.804-74.47,85.79
				c-26.825,83.318-34.042,178.357-10.02,263.33C1145.644,2262.165,1231.026,2327.713,1299.615,2407.625z"/>
			<path id="_x31_80609016_1_" fill="#AAAAAA" stroke="#000000" d="M1725.274,2382.285c6.356,80.95,5.436,162.33,21.227,242.566
				c5.359,27.237,17.638,55.118,18.261,83.069c0.325,14.398,0.525,46.074-20.72,42.346c-33.747-5.924-38.991-137.372-40.848-162.463
				c-7.932-107.41-51.689-213.103-119.682-294.741c-15.65-18.797-33.11-43.486-16.615-67.729
				c13.997-20.552,38.964-12.462,60.077-16.804c23.733-4.888,45.521-15.749,63.614-31.917c9.613-8.588,54.252-76.951,70.442-64.782
				c13.228,9.95-6.517,50.871-9.304,62.68c-11.688,49.515-22.782,95.083-26.435,143.249
				C1723.716,2338.604,1723.521,2359.933,1725.274,2382.285z"/>
		</g>
	</g>
</g>
</svg>
