<?xml version="1.0" encoding="utf-8"?>
<!-- Generator: Adobe Illustrator 16.0.0, SVG Export Plug-In . SVG Version: 6.00 Build 0)  -->
<!DOCTYPE svg PUBLIC "-//W3C//DTD SVG 1.1//EN" "http://www.w3.org/Graphics/SVG/1.1/DTD/svg11.dtd">
<svg version="1.1" id="Layer_1" xmlns="http://www.w3.org/2000/svg" xmlns:xlink="http://www.w3.org/1999/xlink" x="0px" y="0px"
	 width="6768px" height="5824px" viewBox="0 0 6768 5824" enable-background="new 0 0 6768 5824" xml:space="preserve">
<g>
	<g transform="scale(1.0)">
		<g id="_x31_80610255" transform=" scale(1.0, 1.0)">
			<path id="_x31_80610257" fill="#BFDAE3" stroke="#000000" d="M5677.1,1365.324c-176.173-158.672-374.499-282.891-588.187-388.688
				c-149.496-74.115-311.594-119.063-473.425-161.168c-40.482-10.445-80.88-20.802-121.104-31.407
				c-13.439-3.479-26.791-7.039-40.144-10.603c-29.441-7.852-59.314-15.132-89.626-21.419c0,0-0.003,0.084-0.083-0.001
				c-12.044-2.447-24.172-4.811-36.387-7.012c0,0,0,0-0.084,0c-12.133-2.198-24.354-4.148-36.661-6.017
				c-18.38-2.675-36.934-5.022-55.499-6.866c-12.322-1.203-24.648-2.154-36.981-2.937c-123.154-7.671-246.505,7.766-358.439,63.77
				c-11.903,5.984-23.986,12.55-36.167,19.694c-104.381,61.435-214.143,164.468-287.272,274.767
				c-28.266,42.574-51.049,86.275-65.967,128.989c-34.307,98.509-50.558,202.859-59.113,306.466
				c-9.387,114.269-5.609,229.424-1.747,344.497c2.491,76.742,5.067,153.403,3.644,229.804
				c-3.305,187.254-11.636,375.396-9.516,562.609c0.45,38.561-0.442,77.425,0.174,115.824
				c1.6,108.263,14.633,212.866,100.023,295.019c93.605,90.076,204.161,72.753,326.031,45.076
				c-51.49,14.429-103.691,17.202-155.284,30.888c-117.709,31.291-180.179,174.438-203.11,279.211
				c-34.262,156.51-56.259,313.063-60.412,474.011c-9.928,385.005,26.798,1042.269,472.186,1169.642
				c196.424,56.174,398.966-15.912,576.296-92.365c163.127-70.338,312.125-150.801,426.48-291.154
				c196.01-240.586,419.257-559.45,472.005-870.411c11.396-67.176,64.48-244.071,14.368-325.716
				c-24.159-39.368-59.79-66.55-98.499-89.918c78.249,35.798,158.702,49.072,237.403,9.449
				c125.789-63.445,182.823-163.268,251.707-281.176c2.257-3.87,4.519-7.823,6.864-11.774
				c54.893-93.78,107.505-190.032,149.713-290.949c42.909-102.483,63.822-206.39,87.162-314.245
				c18.666-86.018,28.456-177.832,28.859-271.614C6017.837,1918.963,5910.501,1575.461,5677.1,1365.324z"/>
			<path id="_x31_80610258" fill="#B0FFB8" stroke="#000000" d="M5677.1,1365.324c-176.173-158.672-374.499-282.891-588.187-388.688
				c-149.496-74.115-311.594-119.063-473.425-161.168c-40.482-10.445-80.88-20.802-121.104-31.407
				c-13.439-3.479-26.791-7.039-40.144-10.603c-29.441-7.852-59.314-15.132-89.626-21.419c0,0-0.003,0.084-0.083-0.001
				c-12.044-2.447-24.172-4.811-36.387-7.012c0,0,0,0-0.084,0c-12.133-2.198-24.354-4.148-36.661-6.017
				c-18.38-2.675-36.934-5.022-55.499-6.866c-12.322-1.203-24.648-2.154-36.981-2.937c-123.154-7.671-246.505,7.766-358.439,63.77
				c-11.903,5.984-23.986,12.55-36.167,19.694c-104.381,61.435-214.143,164.468-287.272,274.767
				c-28.266,42.574-51.049,86.275-65.967,128.989c-34.307,98.509-50.558,202.859-59.113,306.466
				c-9.387,114.269-5.609,229.424-1.747,344.497c2.491,76.742,5.067,153.403,3.644,229.804
				c-3.305,187.254-11.636,375.396-9.516,562.609c0.45,38.561-0.442,77.425,0.174,115.824
				c1.6,108.263,14.633,212.866,100.023,295.019c93.605,90.076,204.161,72.753,326.031,45.076
				c-51.49,14.429-103.691,17.202-155.284,30.888c-117.709,31.291-180.179,174.438-203.11,279.211
				c-34.262,156.51-56.259,313.063-60.412,474.011c-9.928,385.005,26.798,1042.269,472.186,1169.642
				c196.424,56.174,398.966-15.912,576.296-92.365c163.127-70.338,312.125-150.801,426.48-291.154
				c196.01-240.586,419.257-559.45,472.005-870.411c11.396-67.176,64.48-244.071,14.368-325.716
				c-24.159-39.368-59.79-66.55-98.499-89.918c78.249,35.798,158.702,49.072,237.403,9.449
				c125.789-63.445,182.823-163.268,251.707-281.176c2.257-3.87,4.519-7.823,6.864-11.774
				c54.893-93.78,107.505-190.032,149.713-290.949c42.909-102.483,63.822-206.39,87.162-314.245
				c18.666-86.018,28.456-177.832,28.859-271.614C6017.837,1918.963,5910.501,1575.461,5677.1,1365.324z M4247.681,3817.993
				c-17.429,35.963-46.252,65.257-86.379,74.982c-0.371,0.088-0.728,0.179-1.086,0.25c-69.998,14.6-55.662-112.692-30.451-144.203
				c18.422-23.013,56.108-39.893,85.237-36.039C4276.798,3721.156,4268.573,3774.828,4247.681,3817.993z M5155.39,3344.079
				c-27.311-16.445-52.997-34.659-78.296-53.347c1.712,0.257,3.395,0.951,5.038,2.144c25.605,18.505,51.854,37.07,78.578,54.37
				C5158.929,3346.195,5157.154,3345.142,5155.39,3344.079z"/>
			<path id="_x31_80610296" fill="#1F9D5A" stroke="#000000" d="M6016.306,2239.603c-0.403,93.78-10.191,185.595-28.857,271.614
				c-23.341,107.856-44.255,211.763-87.162,314.246c-42.207,100.916-94.822,197.166-149.713,290.948
				c-2.344,3.951-4.605,7.903-6.864,11.774l-0.575-0.347l-123.282-136.345c50.099-99.314,88.44-202.739,117.036-292.366
				c11.509-36.033,20.982-70.613,28.558-102.479c25.69-108.47,71.405-231.333,72.884-342.781
				c0.174-11.176,0.261-22.273,0.265-33.287L6016.306,2239.603z"/>
			<path id="_x31_80610295" fill="#1F9D5A" stroke="#000000" d="M5838.325,2253.867c-1.479,111.447-47.193,234.309-72.884,342.781
				c-7.575,31.867-17.049,66.446-28.558,102.48c-28.596,89.627-66.939,193.051-117.036,292.364l-351.779-389.094
				c25.324-23.53,47.112-56.659,63.916-101.499c35.201-93.816,65.729-213.106,78.174-326.052l428.434,45.732
				C5838.586,2231.593,5838.499,2242.69,5838.325,2253.867z"/>
			<path id="_x31_80610294" fill="#1F9D5A" stroke="#000000" d="M5061.635,2137.628l348.523,37.218
				c-12.444,112.947-42.975,232.237-78.174,326.054c-16.802,44.839-38.592,77.967-63.916,101.498l-318.499-352.279
				C5089.394,2294.891,5099.359,2227.948,5061.635,2137.628z"/>
			<path id="_x31_80610293" fill="#1F9D5A" stroke="#000000" d="M5061.635,2137.628c37.727,90.319,27.759,157.262-112.065,112.492
				l-124.583-137.793L5061.635,2137.628z"/>
			<path id="_x31_80610292" fill="#1F9D5A" stroke="#000000" d="M6016.306,2239.603l-177.716-19.023
				c0.665-126.902-6.691-246.063-52.315-362.931c-49.255-125.963-68.541-285.284-193.13-430.002
				c-116.876-135.614-397.913-237.203-524.359-301.272c-222.787-112.935-336.117-141.242-598.753-208.526
				c-199.01-50.972-416.925-85.353-611.86,13.134l-53.291-117.378l-0.563-0.932c12.18-7.146,24.264-13.71,36.166-19.694
				c111.934-56.003,235.285-71.439,358.438-63.77c12.333,0.783,24.659,1.734,36.983,2.936c18.564,1.845,37.118,4.191,55.498,6.866
				c12.307,1.87,24.528,3.82,36.659,6.018c0.085,0,0.085,0,0.085,0c12.214,2.201,24.342,4.565,36.387,7.012
				c0.082,0.085,0.084,0.001,0.084,0.001c30.311,6.288,60.185,13.568,89.625,21.419c13.354,3.564,26.705,7.124,40.146,10.604
				c40.224,10.604,80.624,20.961,121.103,31.407c161.83,42.105,323.93,87.054,473.426,161.168
				c213.686,105.796,412.012,230.015,588.187,388.688C5910.501,1575.461,6017.837,1918.963,6016.306,2239.603z"/>
			<path id="_x31_80610291" fill="#1F9D5A" stroke="#000000" d="M5838.59,2220.58l-428.433-45.731
				c5.668-50.52,7.717-99.705,5-144.911c-5.545-92.75-40.702-171.41-91.789-246.767
				c-74.805-110.697-156.811-198.614-269.187-264.948c-123.159-72.757-243.053-142.353-373.706-197.76
				c-144.201-61.143-458.625-191.367-619.675-147.758c-26.45,7.152-51.382,20.931-74.768,40.002l-127.865-281.724
				c194.936-98.487,412.851-64.104,611.86-13.133c262.636,67.286,375.968,95.593,598.753,208.525
				c126.446,64.071,407.483,165.658,524.359,301.272c124.589,144.719,143.875,304.039,193.13,430.003
				C5831.898,1974.517,5839.255,2093.678,5838.59,2220.58z"/>
			<path id="_x31_80610290" fill="#1F9D5A" stroke="#000000" d="M5415.157,2029.937c2.717,45.206,0.665,94.392-5,144.911
				l-348.523-37.219c-42.468-101.861-145.583-233.485-190.772-267.651c-155.84-117.569-375.653-243.616-539.863-229.367
				c-53.595,4.692-98.819,11.829-138.315,27.443l-206.65-455.349c23.384-19.071,48.318-32.85,74.769-40.002
				c161.05-43.609,475.472,86.616,619.675,147.758c130.651,55.406,250.547,125.002,373.704,197.76
				c112.376,66.335,194.38,154.251,269.187,264.948C5374.457,1858.525,5409.612,1937.187,5415.157,2029.937z"/>
			<path id="_x31_80610289" fill="#1F9D5A" stroke="#000000" d="M5061.635,2137.628l-236.648-25.301
				c0,0-201.26-138.138-525.08-208.167l-107.222-236.108c39.495-15.613,84.72-22.752,138.316-27.443
				c164.209-14.25,384.022,111.798,539.863,229.367C4916.053,1904.143,5019.166,2035.768,5061.635,2137.628z"/>
			<path id="_x31_80610288" fill="#40A666" stroke="#000000" d="M3621.472,1176.286c-2.271,4.37-4.371,8.744-6.479,13.201
				l-97.378-101.62l-0.574-0.431c73.13-110.299,182.889-213.332,287.272-274.766l0.563,0.932l53.291,117.378
				c-16.291,8.136-32.354,17.196-48.275,27.344C3724.872,1012.36,3664.351,1089.656,3621.472,1176.286z"/>
			<path id="_x31_80610287" fill="#40A666" stroke="#000000" d="M3858.169,930.98l127.866,281.724
				c-57.82,46.902-105.943,125.734-143.202,214.58c0,0-221.748-232.031-227.842-237.796c1.636-5.525,4.693-8.176,6.48-13.202
				c42.879-86.628,103.4-163.927,188.422-217.961C3825.813,948.177,3841.877,939.116,3858.169,930.98z"/>
			<path id="_x31_80610286" fill="#40A666" stroke="#000000" d="M3986.035,1212.705l206.649,455.349
				c-27.283,10.804-51.824,25.676-74.418,46.602l-275.433-287.372C3880.091,1338.439,3928.214,1259.606,3986.035,1212.705z"/>
			<path id="_x31_80610285" fill="#40A666" stroke="#000000" d="M4192.685,1668.053l107.222,236.108l-181.636-189.505
				C4140.86,1693.731,4165.399,1678.857,4192.685,1668.053z"/>
			<path id="_x31_80610284" fill="#2FA850" stroke="#000000" d="M3517.615,1087.868l97.378,101.62
				c-40.354,85.687-64.211,179.68-78.11,268.814c-19.284,123.72-41.813,265.224-59.977,412.833l-84.272-3.857l-2.425,0.112
				c-3.861-115.075-7.641-230.229,1.748-344.5c8.556-103.607,24.81-207.954,59.113-306.464
				c14.918-42.714,37.701-86.415,65.967-128.989L3517.615,1087.868z"/>
			<path id="_x31_80610283" fill="#2FA850" stroke="#000000" d="M3632.514,1207.748c26.735,74.795,35.229,97.355-0.631,197.996
				c-45.407,127.709-49.963,271.377-53.234,406.315c-0.498,21.684-0.984,42.868-1.464,63.717l-100.276-4.643
				c18.163-147.611,40.691-289.115,59.977-412.835c13.899-89.133,37.754-183.126,78.11-268.813L3632.514,1207.748z"/>
			<path id="_x31_80610282" fill="#2FA850" stroke="#000000" d="M3632.514,1207.748l210.32,219.536
				c-26.033,61.65-46.755,128.18-62.082,192.33c-12.101,50.872-31.181,158.494-46.359,263.367l-157.208-7.204
				c0.479-20.85,0.966-42.033,1.464-63.717c3.269-134.938,7.825-278.606,53.234-406.315
				C3667.742,1305.103,3659.249,1282.544,3632.514,1207.748z"/>
			<path id="_x31_80610281" fill="#2FA850" stroke="#000000" d="M3842.834,1427.285l275.433,287.372
				c-39.223,36.398-72.605,91.121-104.481,174.582c-0.712,1.904-1.43,4.139-2.152,6.541l-277.239-12.799
				c15.18-104.874,34.258-212.495,46.358-263.365C3796.079,1555.463,3816.801,1488.935,3842.834,1427.285z"/>
			<path id="_x31_80610280" fill="#2FA850" stroke="#000000" d="M4299.904,1904.161l-4.861,4.644l-283.408-13.025
				c0.723-2.403,1.439-4.639,2.152-6.541c31.876-83.46,65.259-138.184,104.481-174.582L4299.904,1904.161z"/>
			<path id="_x31_80610305" fill="#248A5E" stroke="#000000" d="M5056.778,3176.223l25.354,116.653
				c-45.059-32.662-88.122-65.026-128.267-90.065c-170.125-105.964-359.244-227.801-564.227-258.466l0.496-3.412l-21.245-244.56
				c41.563-0.38,83.604,7.515,126.373,27.272C4634.635,2788.016,4853.331,3027.938,5056.778,3176.223z"/>
			<path id="_x31_80610304" fill="#248A5E" stroke="#000000" d="M4928.162,2585.989l128.616,590.235
				c-203.447-148.285-422.144-388.21-561.517-452.577c-42.771-19.758-84.813-27.651-126.374-27.271l-29.251-335.533
				c153.448-21.587,303.688,9.403,422.859,110.273C4806.697,2508.514,4865.039,2551.411,4928.162,2585.989z"/>
			<path id="_x31_80610302" fill="#248A5E" stroke="#000000" d="M4844.307,2201.139l83.855,384.851
				c-63.123-34.579-121.465-77.476-165.666-114.873c-119.172-100.87-269.409-131.861-422.859-110.273l-24.81-285.446
				c7.174-3.508,13.918-6.523,20.318-9.128C4495.677,2001.535,4708.66,2127.092,4844.307,2201.139z"/>
			<path id="_x31_80610301" fill="#248A5E" stroke="#000000" d="M4824.984,2112.328l19.32,88.811
				c-135.646-74.047-348.628-199.603-509.159-134.871c-6.402,2.607-13.146,5.624-20.319,9.128l-14.922-171.236
				C4623.725,1974.189,4824.984,2112.328,4824.984,2112.328z"/>
			<path id="_x31_80610279" fill="#248A5E" stroke="#000000" d="M3473.494,2690.891l-88.979,84.734
				c-0.617-38.399,0.274-77.265-0.175-115.824c-2.119-187.212,6.212-375.354,9.517-562.609
				c1.422-76.401-1.152-153.062-3.645-229.804l2.425-0.112l84.272,3.857C3442.722,2149.468,3424.229,2449.273,3473.494,2690.891z"/>
			<path id="_x31_80610278" fill="#248A5E" stroke="#000000" d="M3519.244,2642.794l2.284,2.389l-48.034,45.707
				c-49.266-241.618-30.772-541.422,3.414-819.757l100.276,4.643c-3.961,179.563-6.067,332.801-17.243,517.622
				C3554.449,2483.476,3583.377,2582.604,3519.244,2642.794z"/>
			<path id="_x31_80610277" fill="#248A5E" stroke="#000000" d="M3577.185,1875.777l157.208,7.203
				c-11.709,80.921-21.039,160.229-22.95,210.668c-7.101,189.003,0.885,280.81,8.367,361.838c-0.006,0.25,0.072,0.586,0.065,0.836
				l-198.351,188.861l-2.282-2.389c64.133-60.19,35.204-159.319,40.697-249.396
				C3571.117,2208.578,3573.223,2055.34,3577.185,1875.777z"/>
			<path id="_x31_80610276" fill="#248A5E" stroke="#000000" d="M4016.243,2174.255l-296.368,282.068
				c0.008-0.25-0.07-0.586-0.063-0.836c-7.482-81.029-15.47-172.834-8.367-361.837c1.909-50.439,11.243-129.747,22.95-210.668
				l277.237,12.799C3995.541,1949.648,3982.844,2124.421,4016.243,2174.255z"/>
			<path id="_x31_80610275" fill="#248A5E" stroke="#000000" d="M4295.042,1908.805l-278.799,265.45
				c-33.398-49.833-20.704-224.607-4.61-278.474L4295.042,1908.805z"/>
			<path id="_x31_80610309" fill="#248A5E" stroke="#000000" d="M4368.886,2696.376l21.246,244.561l-0.495,3.41
				c-27.106-4.129-54.423-6.592-82.11-7.227c-153.705-3.534-379.655,151.896-496.506,178.503
				c-122.049,27.731-232.762,45.212-326.482-44.976c-85.393-82.153-98.424-186.758-100.023-295.021l88.979-84.734
				c3.525,17.354,7.386,34.464,11.674,51.252c67.414,265.232,300.194,172.122,512.581,84.05
				C4119.994,2775.432,4241.943,2697.462,4368.886,2696.376z"/>
			<path id="_x31_80610308" fill="#248A5E" stroke="#000000" d="M4339.637,2360.843l29.249,335.533
				c-126.942,1.087-248.896,79.056-371.137,129.817c-212.387,88.071-445.166,181.181-512.581-84.05
				c-4.288-16.787-8.148-33.899-11.674-51.252l48.033-45.708l198.349-188.861c20.732,216.011,321.733-2.448,451.701-51.696
				C4227.132,2383.625,4283.632,2368.735,4339.637,2360.843z"/>
			<path id="_x31_80610307" fill="#248A5E" stroke="#000000" d="M4314.825,2075.397l24.812,285.446
				c-56.005,7.893-112.505,22.782-168.062,43.784c-129.968,49.248-430.967,267.708-451.7,51.696l296.366-282.068
				c6.293,9.406,14.191,14.344,24.063,13.237C4148.739,2174.881,4247.404,2107.975,4314.825,2075.397z"/>
			<path id="_x31_80610306" fill="#248A5E" stroke="#000000" d="M4295.042,1908.805l4.861-4.644l14.922,171.236
				c-67.421,32.578-166.09,99.485-274.521,112.094c-9.871,1.108-17.769-3.83-24.063-13.238L4295.042,1908.805z"/>
			<path id="_x31_80610300" fill="#219866" stroke="#000000" d="M5743.13,3127.837l0.577,0.346
				c-68.884,117.909-125.916,217.731-251.707,281.177c-138.366,69.664-282.152-24.178-409.868-116.483l-25.355-116.653
				c149.604,109.244,290.841,168.819,386.009,72.629c70.906-71.718,129.322-162.58,177.061-257.36L5743.13,3127.837z"/>
			<path id="_x31_80610299" fill="#219866" stroke="#000000" d="M5268.067,2602.398l351.78,389.094
				c-47.74,94.78-106.156,185.641-177.061,257.36c-95.168,96.19-236.403,36.617-386.009-72.629l-128.616-590.234
				C5045.342,2650.183,5178.877,2685.462,5268.067,2602.398z"/>
			<path id="_x31_80610298" fill="#219866" stroke="#000000" d="M4949.569,2250.121l318.5,352.28
				c-89.19,83.061-222.726,47.782-339.905-16.409l-83.855-384.853c35.104,19.165,65.032,34.956,87.545,42.983
				C4937.974,2246.348,4943.937,2248.322,4949.569,2250.121z"/>
			<path id="_x31_80610297" fill="#219866" stroke="#000000" d="M4824.984,2112.328l124.583,137.793
				c-5.631-1.799-11.594-3.772-17.718-5.998c-22.513-8.027-52.44-23.818-87.545-42.983L4824.984,2112.328z"/>
			<path id="_x31_80610259" fill="#9AD2BD" stroke="#000000" d="M5352.699,3493.608c-44.545-72.567-127.994-103.792-197.97-145.939
				c-71.004-42.75-131.059-97.42-201.765-141.468c-192.845-120.14-410.052-269.139-647.194-266.004
				c-180.031,2.379-327.8,131.021-497.168,178.711c-51.703,14.558-104.115,17.31-155.931,31.054
				c-117.861,31.331-180.408,174.666-203.364,279.573c-34.304,156.713-57.073,313.45-60.487,474.628
				c-8.145,384.847,20.225,1034.159,472.813,1171.153c195.788,59.256,399.48-15.934,577.04-92.488
				c163.34-70.432,312.527-151.004,427.027-291.537c196.269-240.9,419.799-560.178,472.611-871.545
				C5349.729,3752.484,5402.874,3575.361,5352.699,3493.608z M4247.681,3817.993c-17.429,35.963-46.252,65.257-86.379,74.982
				c-0.371,0.088-0.728,0.179-1.086,0.25c-69.998,14.6-55.662-112.692-30.451-144.203c18.422-23.013,56.108-39.893,85.237-36.039
				C4276.798,3721.156,4268.573,3774.828,4247.681,3817.993z"/>
			<path id="_x31_80610260" fill="#9AD2BD" stroke="#000000" d="M3597.515,3427.759c30.808,8.672,72.143,41.696,92.178,68.396
				c36.256,48.323,63.194,105.543,83.724,162.198c69.721,192.385,133.587,571.576-109.845,661.314
				c-43.705,16.109-115.722,33.502-158.822,16.063c-18.774-7.604-105.467-38.635-105.467-38.635s-5.34-58.811-6.687-72.568
				c-10.267-104.294-6.343-216.14-3.773-320.367c5.799-235.452,78.117-537.954,78.117-537.954S3520.088,3405.954,3597.515,3427.759z
				"/>
			<path id="_x31_80610264" fill="#82C7AE" stroke="#000000" d="M3589.766,3901.029c7.586,69.667,19.512,446.359,98.469,407.746
				c87.617-42.85,128.008-129.743,142.26-210.661c4.99-28.341,9.163-55.78,7.251-80.676c-1.459-18.972-0.455-39.749-1.311-60.115
				c-1.487-35.398-5.05-71.488-11.486-108.574c-22.566-130.004-67.256-263.491-133.518-352.642
				c-55.733-74.984-111.755,53.429-113.696,110.128C3574.234,3708.539,3578.693,3799.429,3589.766,3901.029z"/>
			<path id="_x31_80610263" fill="#9AD2BD" stroke="#000000" d="M3588.023,3901.077c-11.07-101.604-15.531-192.486-12.024-294.793
				c1.236-36.104,23.474-100.565,54.44-123.735l-103.843,15.823c16.051,40.468,21.118,131.509,22.391,166.749
				c2.566,71.809-6.573,147.208,3.931,218.434c14.105,95.63,35.992,251.486,45.882,366.6c1.521,17.727,0.705,27.762-1.67,32.039
				l62.211,23.338C3603.701,4260.27,3594.69,3962.287,3588.023,3901.077z"/>
			<path id="_x31_80610262" fill="#82C7AE" stroke="#000000" d="M3497.309,3735.316c-2.088-71.737-43.851-192.311,2.858-253.402
				c37.581-28.991,47.014,133.228,48.814,183.204c2.572,71.808-6.565,147.207,3.931,218.441
				c14.113,95.628,35.995,251.487,45.887,366.599c7.421,86.371-40.681-9.771-54.292-65.911
				C3509.486,4039.964,3501.599,3883.189,3497.309,3735.316z"/>
			<path id="_x31_80610261" fill="#9AD2BD" stroke="#000000" d="M3671.476,4311.125c-0.439-0.057-0.872-0.135-1.306-0.223
				c-0.096-0.018-0.195-0.035-0.291-0.053c-0.451-0.096-0.899-0.213-1.347-0.34c-0.073-0.02-0.148-0.039-0.225-0.063
				c-0.464-0.135-0.923-0.291-1.384-0.463c-0.055-0.02-0.108-0.037-0.163-0.059c-0.474-0.18-0.946-0.379-1.414-0.594
				c-0.037-0.018-0.075-0.033-0.112-0.051c-0.481-0.223-0.958-0.467-1.433-0.727c-0.022-0.014-0.049-0.023-0.069-0.037
				c-0.487-0.268-0.969-0.553-1.447-0.857c-0.013-0.008-0.022-0.014-0.034-0.02c-0.488-0.311-0.974-0.643-1.455-0.988
				c-0.004-0.002-0.008-0.004-0.01-0.006c-0.485-0.354-0.968-0.725-1.448-1.113l-62.21-23.338l0,0
				c-2.69,4.844-7.381,2.295-12.948-4.859h-0.001c-0.01-0.012-0.021-0.025-0.027-0.037c-0.396-0.508-0.795-1.041-1.198-1.596
				c-0.041-0.059-0.085-0.117-0.128-0.176c-0.378-0.527-0.763-1.072-1.15-1.639c-0.049-0.068-0.098-0.143-0.146-0.215
				c-0.393-0.574-0.79-1.166-1.188-1.781c-0.034-0.057-0.071-0.111-0.107-0.168c-0.23-0.354-0.46-0.713-0.689-1.078
				c-0.113-0.178-0.227-0.367-0.341-0.549c-0.183-0.295-0.365-0.592-0.547-0.889c-0.252-0.41-0.503-0.826-0.759-1.248
				c-0.182-0.309-0.364-0.609-0.546-0.924c-0.263-0.445-0.525-0.9-0.789-1.357c-0.174-0.305-0.35-0.605-0.525-0.916
				c-0.285-0.508-0.574-1.021-0.861-1.539c-0.153-0.281-0.311-0.555-0.463-0.84c-0.436-0.793-0.871-1.598-1.308-2.422
				c-0.073-0.139-0.145-0.275-0.216-0.414c-0.374-0.711-0.752-1.428-1.127-2.158c-0.167-0.324-0.334-0.66-0.505-0.99
				c-0.279-0.547-0.556-1.092-0.834-1.648c-0.19-0.385-0.384-0.773-0.573-1.16c-0.255-0.514-0.509-1.031-0.764-1.553
				c-0.202-0.414-0.401-0.83-0.603-1.25c-0.247-0.514-0.494-1.027-0.74-1.547c-0.201-0.43-0.407-0.859-0.609-1.295
				c-0.243-0.521-0.487-1.049-0.73-1.578c-0.199-0.434-0.401-0.869-0.6-1.307c-0.25-0.549-0.5-1.102-0.748-1.654
				c-0.194-0.43-0.386-0.854-0.577-1.285c-0.262-0.588-0.521-1.184-0.783-1.777c-0.178-0.406-0.356-0.809-0.532-1.215
				c-0.35-0.803-0.694-1.613-1.041-2.426c-0.191-0.445-0.38-0.891-0.568-1.34c-0.314-0.744-0.63-1.49-0.94-2.244
				c-0.183-0.438-0.362-0.885-0.545-1.328c-0.242-0.588-0.479-1.174-0.72-1.764c-0.193-0.48-0.385-0.963-0.578-1.443
				c-0.225-0.561-0.446-1.117-0.667-1.68c-0.197-0.492-0.39-0.988-0.584-1.486c-0.215-0.553-0.429-1.106-0.645-1.658
				c-0.192-0.5-0.381-0.998-0.572-1.499c-0.213-0.561-0.427-1.121-0.636-1.682c-0.184-0.493-0.371-0.985-0.554-1.478
				c-0.211-0.575-0.424-1.149-0.634-1.725c-0.174-0.479-0.351-0.957-0.521-1.438c-0.22-0.606-0.436-1.216-0.653-1.823
				c-0.159-0.447-0.32-0.895-0.478-1.342c-0.278-0.792-0.55-1.58-0.822-2.371c-0.175-0.511-0.349-1.017-0.521-1.526
				c-0.262-0.767-0.521-1.533-0.772-2.296c-0.144-0.432-0.283-0.859-0.423-1.29c-0.202-0.613-0.402-1.227-0.6-1.839
				c-0.146-0.452-0.289-0.9-0.431-1.348c-0.186-0.584-0.369-1.168-0.55-1.747c-0.143-0.458-0.282-0.915-0.42-1.369
				c-0.175-0.571-0.349-1.143-0.521-1.712c-0.135-0.45-0.267-0.898-0.399-1.346c-0.168-0.568-0.332-1.138-0.494-1.7
				c-0.125-0.437-0.252-0.874-0.373-1.308c-0.165-0.585-0.326-1.165-0.488-1.746c-0.11-0.398-0.221-0.805-0.33-1.204
				c-0.172-0.637-0.337-1.265-0.502-1.894c-0.086-0.335-0.176-0.673-0.26-1.007c-0.248-0.954-0.485-1.899-0.712-2.835
				c-35.021-144.278-42.906-301.052-47.197-448.921c-2.082-71.741-43.847-192.316,2.858-253.404
				c0.324-0.248,0.645-0.481,0.963-0.701c0.102-0.071,0.204-0.136,0.308-0.204c0.216-0.145,0.43-0.284,0.646-0.415
				c0.119-0.073,0.235-0.143,0.354-0.21c0.196-0.118,0.395-0.229,0.594-0.333c0.118-0.064,0.238-0.125,0.357-0.187
				c0.199-0.101,0.397-0.194,0.599-0.284c0.106-0.048,0.216-0.101,0.323-0.146c0.233-0.101,0.464-0.188,0.693-0.269
				c0.072-0.025,0.145-0.058,0.217-0.08c0.302-0.104,0.602-0.193,0.901-0.271c0.055-0.013,0.108-0.022,0.165-0.036
				c0.242-0.057,0.483-0.109,0.724-0.15c0.097-0.017,0.188-0.027,0.282-0.042c0.199-0.028,0.399-0.053,0.599-0.07
				c0.104-0.011,0.203-0.015,0.305-0.022c0.194-0.012,0.388-0.014,0.581-0.016c0.096,0.002,0.19,0.001,0.286,0.005
				c0.209,0.006,0.416,0.021,0.621,0.041c0.075,0.007,0.152,0.013,0.228,0.02c0.569,0.068,1.131,0.184,1.686,0.35
				c0.055,0.018,0.106,0.035,0.161,0.056c0.221,0.068,0.439,0.145,0.656,0.23c0.076,0.029,0.15,0.061,0.229,0.095
				c0.196,0.083,0.395,0.171,0.589,0.265c0.077,0.039,0.153,0.075,0.23,0.115c0.201,0.101,0.403,0.214,0.602,0.328
				c0.063,0.038,0.13,0.074,0.192,0.115c0.237,0.141,0.475,0.297,0.706,0.46c0.021,0.017,0.047,0.028,0.067,0.046
				c0.534,0.373,1.058,0.795,1.573,1.26c0.041,0.038,0.081,0.075,0.122,0.114c0.212,0.193,0.423,0.393,0.631,0.604
				c0.055,0.055,0.108,0.109,0.165,0.166c0.197,0.205,0.397,0.417,0.594,0.633c0.051,0.058,0.103,0.112,0.15,0.169
				c0.215,0.243,0.429,0.494,0.64,0.751c0.026,0.034,0.058,0.067,0.086,0.104c0.74,0.91,1.462,1.918,2.169,3.016
				c0.027,0.043,0.056,0.089,0.084,0.132c0.206,0.322,0.409,0.651,0.61,0.988c0.035,0.057,0.067,0.111,0.103,0.17
				c0.203,0.346,0.408,0.695,0.609,1.054c0.022,0.041,0.045,0.08,0.067,0.123c0.915,1.643,1.801,3.438,2.656,5.376
				c0.017,0.037,0.031,0.075,0.05,0.113c0.2,0.452,0.397,0.912,0.593,1.381c0.016,0.035,0.03,0.07,0.045,0.105
				c0.207,0.496,0.412,1,0.614,1.513l103.844-15.824c0.007-0.004,0.013-0.008,0.019-0.012c1.093-0.816,2.197-1.583,3.312-2.295
				c0.014-0.009,0.024-0.016,0.037-0.022c1.117-0.712,2.244-1.369,3.384-1.97c0.007-0.002,0.013-0.006,0.02-0.009
				c1.698-0.895,3.421-1.657,5.161-2.283c0.027-0.01,0.057-0.022,0.082-0.029c1.137-0.405,2.284-0.75,3.437-1.034
				c0.053-0.012,0.103-0.022,0.155-0.034c1.136-0.273,2.281-0.49,3.434-0.637c0.068-0.009,0.137-0.021,0.205-0.027
				c1.144-0.138,2.292-0.218,3.449-0.232c0.076,0,0.154,0,0.229,0c0.552-0.001,1.102,0.008,1.653,0.035
				c0.024,0.002,0.051,0.002,0.077,0.004c0.581,0.031,1.165,0.078,1.748,0.143c0.076,0.009,0.153,0.017,0.231,0.026
				c0.524,0.06,1.045,0.134,1.569,0.225c0.071,0.014,0.146,0.023,0.222,0.037c0.58,0.101,1.159,0.219,1.74,0.356
				c0.067,0.015,0.136,0.032,0.201,0.049c0.519,0.124,1.034,0.263,1.554,0.413c0.104,0.032,0.207,0.057,0.313,0.093
				c0.578,0.174,1.159,0.363,1.744,0.574c0.039,0.014,0.078,0.028,0.117,0.045c0.535,0.195,1.074,0.407,1.612,0.633
				c0.121,0.052,0.244,0.103,0.366,0.156c1.151,0.495,2.31,1.061,3.47,1.698c0.112,0.06,0.229,0.125,0.343,0.188l2.162-1.913
				c-21.641-21.418-51.383-42.327-74.969-48.968c-77.428-21.799-130.572-61.551-130.572-61.551s-72.326,302.503-78.122,537.959
				c-2.565,104.221-6.108,199.365,4.167,303.661c1.348,13.759,6.297,89.271,6.297,89.271s86.688,31.027,105.464,38.635
				c43.106,17.439,115.124,0.053,158.827-16.064c3.721-1.371,7.37-2.809,10.949-4.316l-2.826-4.201
				C3671.626,4311.141,3671.55,4311.135,3671.476,4311.125z"/>
			<path id="_x31_80610265" fill="#54BF94" stroke="#000000" d="M5352.699,3493.608c-44.545-72.567-127.994-103.792-197.97-145.939
				c-71.004-42.75-131.059-97.42-201.765-141.468c-192.845-120.14-410.052-269.139-647.194-266.004l3.31,3.389
				c9.353,124.019,8.024,236.443,11.55,360.707c2.959,104.604,26.413,287.852,47.787,331.227
				c-52.888,6.533-119.137,32.188-127.783,65.836c-54.133-21.29-93.709-68.316-110.635-83.531
				c-35.453-31.88-65.098-69.834-100.635-101.745c-112.21-100.776-278.645-298.793-324.675-365.116l8.705-13.403
				c-20.275,3.362-40.544,7.049-60.724,12.405c-72.325,19.183-119.199,76.47-152.727,139.372c-3.631,6.812-22.033,33-21.438,40.674
				c2.741,35.425,93.308,52.827,118.766,64.348c68.09,30.826,132.338,94.936,165.506,161.256
				c43.861,87.704,77.225,174.208,88.429,272.613c9.59,84.263,24.038,170.707,14.101,255.641
				c-12.592,107.651-61.251,188.313-150.12,246.042c-99.731,64.789-218.885,40.846-312.324-6.971
				c7.04,39.596,4.653,38.863,10.849,73.355c6.619,36.813,10.28,80.836,18.188,117.395
				c27.482,126.91,60.912,200.936,124.333,316.178c36.088,65.582,90.352,121.318,139.066,159.172
				c55.41,43.059,110.574,69.408,166.332,86.279c195.788,59.256,399.479-15.932,577.04-92.488
				c163.339-70.432,312.528-151.004,427.026-291.539c196.269-240.898,419.799-560.178,472.611-871.545
				C5349.729,3752.484,5402.874,3575.361,5352.699,3493.608z M4247.681,3817.993c-17.429,35.963-46.252,65.257-86.379,74.982
				c-0.371,0.088-0.728,0.179-1.086,0.25c-69.998,14.6-55.662-112.692-30.451-144.203c18.422-23.013,56.108-39.893,85.237-36.039
				C4276.798,3721.156,4268.573,3774.828,4247.681,3817.993z"/>
			<path id="_x31_80610268" fill="#54BF94" stroke="#000000" d="M5070.961,3469.151l-0.415,0.198
				c-96.624,59.32-178.883,144.104-282.26,193.268c-65.834,31.303-136.445,31.868-207.597,35.684l-0.967-0.593
				c16.269-28.258-20.18-46.531-60.763-57.038c-10.9-2.813-22.097-5.074-32.649-6.806l-0.125-4.578
				c70.021-138.335,72.992-267.769,95.426-426.005l-0.288-10.467C4782.88,3216.459,4987.518,3295.659,5070.961,3469.151z"/>
			<path id="_x31_80610267" fill="#54BF94" stroke="#000000" d="M5089.629,3515.744c38.675,118.821-15.978,224.244-88.341,315.987
				c-85.037,107.813-166.304,215.178-239.498,331.596c-99.857,158.856-209.467,316.362-350.613,440.972l-3.715-3.438
				c-125.315-76.643-223.485-265.324-182.719-411.511l2.197-8.113c10.335-9.047,17.659-22.444,23.872-33.68
				c47.511-85.999,96.679-169.674,146.396-254.443c29.164-49.73,59.699-100.101,105.17-135.964
				c22.089-17.435,52.9-30.167,71.511-51.427c2.414-2.756,4.342-5.432,5.832-8.015l0.967,0.593
				c71.151-3.816,141.763-4.381,207.597-35.683c103.375-49.165,185.636-133.948,282.262-193.27l0.413-0.198
				C5078.093,3483.979,5084.341,3499.503,5089.629,3515.744z"/>
			<path id="_x31_80610269" fill="#54BF94" stroke="#000000" d="M4581.325,3192.814l0.286,10.467
				c-22.434,158.236-25.407,287.667-95.426,426.005l0.125,4.578c-21.666-3.563-40.632-4.943-48.741-4.5
				c-21.717,1.178-45.482,2.752-69.156,6.154c-21.372-43.378-44.822-226.623-47.78-331.231c-1.09-38.484-1.718-75.831-2.343-112.737
				l4.598-0.486C4400.899,3182.784,4490.799,3182.19,4581.325,3192.814z"/>
			<path id="_x31_80610270" fill="#54BF94" stroke="#000000" d="M4242.587,3712.7c3.872,6.623,7.479,12.508,10.516,18.218
				c-7.493-9.038-19.686-15.506-38.099-17.94c-29.139-3.85-66.816,13.032-85.241,36.049
				c-25.106,31.372-39.424,157.753,29.592,144.371c-6.179,3.12-11.649,7.083-15.651,12.885
				c-19.193,27.788-19.628,174.486,12.974,246.055v0.01l-6.562,12.305c-38.114,89.112-108.876,146.315-171.904,209.11
				c-36.667,36.533-59.647,60.893-106.404,85.275l-0.792,0.336c-4.303-10.199-8.337-20.488-12.083-30.85
				c-27.565-76.141,2.306-129.932-0.882-206.175c-1.032-24.76,9.399-38.334-6.521-62.474l-2.896,0.937
				c7.935-23.946,13.472-49.576,16.67-76.946c9.938-84.938-4.507-171.379-14.098-255.639
				c-8.84-77.676-31.491-147.929-62.221-217.211h0.011l-0.396-15.166c-3.16-70.839,36.926-175.561,94.195-220.646l5.053-3.229
				c48.626,53.692,98.972,105.886,141.518,144.101c35.532,31.914,65.178,69.862,100.627,101.74
				c16.924,15.21,56.474,62.209,110.568,83.512C4239.91,3705.181,4240.436,3709.017,4242.587,3712.7z"/>
			<path id="_x31_80610266" fill="#54BF94" stroke="#000000" d="M4407.462,4600.861l3.716,3.438
				c-22.981,20.289-46.794,39.713-71.538,58.119c-202.964,150.98-385.778-6.721-468.621-203.043l0.793-0.334
				c46.756-24.385,69.736-48.746,106.403-85.277c63.026-62.797,133.79-119.996,171.904-209.109l6.562-12.306
				c12.639,27.742,30.239,44.186,53.629,38.052c6.328-1.665,11.808-4.937,16.635-9.161l-2.197,8.113
				C4183.979,4335.537,4282.147,4524.221,4407.462,4600.861z"/>
			<path id="_x31_80610271" fill="#54BF94" stroke="#000000" d="M4613.3,4897.85c-55.567,31.41-114.123,58.893-174.629,84.979
				c-177.562,76.555-381.247,151.744-577.031,92.486c-55.766-16.869-110.932-43.225-166.334-86.275
				c-48.709-37.855-102.984-93.594-139.063-159.172c-63.424-115.238-96.853-189.268-124.335-316.18
				c-7.907-36.557-11.571-80.572-18.186-117.383c-6.2-34.492-3.811-33.77-10.852-73.361c93.442,47.816,212.593,71.758,312.32,6.973
				c66.279-43.061,110.191-98.859,133.448-169.095l2.896-0.937c15.921,24.138,5.489,37.712,6.521,62.472
				c3.188,76.243-26.684,130.036,0.881,206.175c3.747,10.361,7.781,20.652,12.082,30.852
				c82.842,196.32,265.659,354.023,468.623,203.041c24.743-18.406,48.56-37.828,71.536-58.119
				c141.146-124.609,250.755-282.113,350.612-440.971c73.193-116.417,154.462-223.784,239.498-331.595
				c72.362-91.745,127.015-197.17,88.341-315.987c-5.289-16.242-11.537-31.765-18.671-46.595
				c-83.442-173.492-288.079-252.692-489.636-276.336c-90.526-10.623-180.425-10.029-258.437-1.75l-4.598,0.485
				c-1.392-82.272-2.756-162.354-9.213-247.959l-3.306-3.391c237.145-3.134,454.344,145.867,647.192,266.006
				c70.708,44.044,130.765,98.712,201.767,141.464c69.978,42.143,153.427,73.37,197.972,145.939
				c12.88,20.984,18.942,48.248,20.662,78.332l-0.32,0.02c-1.105-19.527-4.985-38.655-13.761-56.954
				c-28.239-58.875-82.112-99.65-81.18-7.24c2.004,197.521-58.884,345.271-156.916,512.712
				c-62.096,106.077-117.692,212.749-192.728,309.897c-53.37,69.084-108.02,137.104-162.781,205.057
				c-52.864,65.598-103.646,134.932-168.05,189.883c-54.688,46.664-134.516,92.207-161.377,162.281
				c-7.746,20.189-4.805,32.904,3.769,40.57c12.585,11.26,37.283,11.66,58.227,8.912c41.285-5.428,79.029-19.973,114.602-40.037
				L4613.3,4897.85z"/>
			<path id="_x31_80610272" fill="#54BF94" stroke="#000000" d="M3887.85,3371.979l-5.052,3.229
				c-57.271,45.083-97.355,149.805-94.196,220.646l0.398,15.166h-0.01c-8.194-18.504-16.974-36.928-26.217-55.41
				c-33.166-66.313-97.413-130.431-165.498-161.25c-25.467-11.523-116.027-28.926-118.765-64.346
				c-0.604-7.675,17.805-33.86,21.431-40.676c33.531-62.906,80.404-120.195,152.733-139.371c20.18-5.361,40.446-9.049,60.723-12.406
				l-8.705,13.405C3733.265,3192.133,3808.253,3284.065,3887.85,3371.979z"/>
			<path id="_x31_80610274" fill="#62D09F" stroke="#000000" d="M4275.671,2942.818c6.315,83.698,7.764,162.107,9.124,242.45
				l-9.996-3.396c-139.908-32.864-309.284,21.236-369.426,159.423l-1.591,4.015c-76.006-84.631-146.218-170.942-173.664-210.471
				c62.192-3.303,180.685-53.951,220.246-72.526C4018.709,3030.24,4150.618,2961.146,4275.671,2942.818z"/>
			<path id="_x31_80610273" fill="#62D09F" stroke="#000000" d="M4287.229,3303.526c2.967,104.599,29.788,294.042,51.17,337.407
				c-15.708,3.514-30.958,8.146-45.063,14.337c-17.559,7.257-28.008,14.578-36.408,22.352c-0.01,0.011-0.021,0.021-0.028,0.021
				c-0.449,0.403-0.897,0.805-1.347,1.207c-54.098-21.299-83.205-61.934-100.111-77.154
				c-35.458-31.877-65.093-69.826-100.636-101.74c-45.324-40.708-99.505-97.291-151.022-154.646l1.591-4.015
				c60.142-138.186,229.518-192.286,369.426-159.423l9.994,3.396C4285.45,3223.965,4286.077,3263.123,4287.229,3303.526z"/>
			<path id="_x31_80610311" fill="#CCCCCC" stroke="#000000" d="M4518.96,3640.675c-33.271-8.597-69.326-11.975-81.393-11.311
				c-52.017,2.843-115.821,7.887-161.847,34.826c-16.964,9.929-43.368,30.977-33.134,48.511c16.836,28.821,28.56,43.582,11.77,90.79
				c-9.901,27.834-27.983,49.809-49.571,68.937c-17.599,15.577-47.628,14.367-61.079,33.851
				c-26.634,38.567-17.147,306.104,66.6,284.122c19.897-5.228,31.387-26.354,40.503-42.843
				c47.517-86.003,96.683-169.674,146.404-254.448c29.161-49.722,59.696-100.097,105.166-135.964
				c22.093-17.435,52.897-30.159,71.512-51.421C4602.624,3672.87,4563.259,3652.136,4518.96,3640.675z"/>
			<path id="_x31_80610312" fill="#CCCCCC" stroke="#000000" d="M4440.017,4928.172c12.582,11.256,37.286,11.662,58.225,8.91
				c55.053-7.236,103.812-30.674,149.509-61.805c66.052-44.996,134.977-89.68,188.138-150.211
				c50.72-57.756,93.408-122.225,143.842-179.436c57.878-65.662,96.935-140.297,143.995-213.895
				c31.584-49.402,62.257-99.285,90.604-150.622c52.188-94.535,78.299-189.18,107.246-291.968
				c19.861-70.521,34.752-142.755,43.185-215.554c6.125-52.914,18.352-108.9-5.481-158.581
				c-28.239-58.874-82.108-99.655-81.174-7.245c2,197.527-58.88,345.271-156.914,512.711
				c-62.102,106.083-117.692,212.751-192.73,309.901c-53.369,69.09-108.023,137.1-162.786,205.057
				c-52.86,65.596-103.641,134.93-168.05,189.883c-54.678,46.66-134.508,92.211-161.375,162.283
				C4428.503,4907.785,4431.44,4920.5,4440.017,4928.172z"/>
			<path id="_x31_80610310" fill="#AAAAAA" stroke="#000000" d="M4160.216,3893.226c-69.998,14.6-55.662-112.692-30.451-144.203
				c18.422-23.013,56.108-39.893,85.239-36.039c61.793,8.173,53.569,61.845,32.674,105.01
				c-17.428,35.963-46.251,65.258-86.378,74.982C4160.929,3893.063,4160.572,3893.154,4160.216,3893.226z"/>
		</g>
	</g>
	<g transform="scale(1.0)">
		<g id="_x31_80610255_1_" transform=" scale(1.0, 1.0)">
			<path id="_x31_80610257_1_" fill="#BFDAE3" stroke="#000000" d="M751.692,2239.598c0.403,93.782,10.193,185.596,28.859,271.614
				c23.34,107.855,44.253,211.762,87.162,314.245c42.208,100.917,94.82,197.168,149.713,290.949
				c2.346,3.951,4.607,7.904,6.864,11.774c68.884,117.908,125.918,217.73,251.707,281.176
				c78.701,39.623,159.154,26.349,237.403-9.449c-38.709,23.368-74.34,50.55-98.499,89.918
				c-50.112,81.645,2.972,258.54,14.368,325.716c52.748,310.961,275.995,629.825,472.005,870.411
				c114.355,140.354,263.354,220.816,426.48,291.154c177.33,76.453,379.872,148.539,576.296,92.365
				c445.388-127.373,482.113-784.637,472.186-1169.642c-4.153-160.948-26.15-317.501-60.412-474.011
				c-22.932-104.773-85.401-247.92-203.11-279.211c-51.593-13.686-103.794-16.459-155.284-30.888
				c121.87,27.677,232.426,45,326.031-45.076c85.391-82.153,98.424-186.756,100.023-295.019
				c0.616-38.399-0.276-77.263,0.174-115.824c2.12-187.212-6.211-375.354-9.516-562.609c-1.424-76.401,1.152-153.062,3.644-229.804
				c3.862-115.073,7.64-230.228-1.747-344.497c-8.556-103.607-24.807-207.957-59.113-306.466
				c-14.918-42.714-37.701-86.415-65.967-128.989c-73.13-110.299-182.892-213.333-287.272-274.767
				c-12.181-7.144-24.264-13.71-36.167-19.694c-111.935-56.004-235.285-71.44-358.439-63.77
				c-12.333,0.783-24.659,1.734-36.981,2.937c-18.565,1.844-37.119,4.191-55.499,6.866c-12.307,1.869-24.528,3.819-36.661,6.017
				c-0.084,0-0.084,0-0.084,0c-12.215,2.201-24.343,4.565-36.387,7.012c-0.08,0.085-0.083,0.001-0.083,0.001
				c-30.312,6.288-60.185,13.567-89.626,21.419c-13.353,3.564-26.704,7.124-40.144,10.603
				c-40.225,10.604-80.622,20.962-121.104,31.407c-161.831,42.105-323.929,87.053-473.425,161.168
				c-213.688,105.797-412.014,230.016-588.187,388.688C857.499,1575.461,750.163,1918.963,751.692,2239.598z"/>
			<path id="_x31_80610258_1_" fill="#B0FFB8" stroke="#000000" d="M751.692,2239.598c0.403,93.782,10.193,185.596,28.859,271.614
				c23.34,107.855,44.253,211.762,87.162,314.245c42.208,100.917,94.82,197.168,149.713,290.949
				c2.346,3.951,4.607,7.904,6.864,11.774c68.884,117.908,125.918,217.73,251.707,281.176
				c78.701,39.623,159.154,26.349,237.403-9.449c-38.709,23.368-74.34,50.55-98.499,89.918
				c-50.112,81.645,2.972,258.54,14.368,325.716c52.748,310.961,275.995,629.825,472.005,870.411
				c114.355,140.354,263.354,220.816,426.48,291.154c177.33,76.453,379.872,148.539,576.296,92.365
				c445.388-127.373,482.113-784.637,472.186-1169.642c-4.153-160.948-26.15-317.501-60.412-474.011
				c-22.932-104.773-85.401-247.92-203.11-279.211c-51.593-13.686-103.794-16.459-155.284-30.888
				c121.87,27.677,232.426,45,326.031-45.076c85.391-82.153,98.424-186.756,100.023-295.019
				c0.616-38.399-0.276-77.263,0.174-115.824c2.12-187.212-6.211-375.354-9.516-562.609c-1.424-76.401,1.152-153.062,3.644-229.804
				c3.862-115.073,7.64-230.228-1.747-344.497c-8.556-103.607-24.807-207.957-59.113-306.466
				c-14.918-42.714-37.701-86.415-65.967-128.989c-73.13-110.299-182.892-213.333-287.272-274.767
				c-12.181-7.144-24.264-13.71-36.167-19.694c-111.935-56.004-235.285-71.44-358.439-63.77
				c-12.333,0.783-24.659,1.734-36.981,2.937c-18.565,1.844-37.119,4.191-55.499,6.866c-12.307,1.869-24.528,3.819-36.661,6.017
				c-0.084,0-0.084,0-0.084,0c-12.215,2.201-24.343,4.565-36.387,7.012c-0.08,0.085-0.083,0.001-0.083,0.001
				c-30.312,6.288-60.185,13.567-89.626,21.419c-13.353,3.564-26.704,7.124-40.144,10.603
				c-40.225,10.604-80.622,20.962-121.104,31.407c-161.831,42.105-323.929,87.053-473.425,161.168
				c-213.688,105.797-412.014,230.016-588.187,388.688C857.499,1575.461,750.163,1918.963,751.692,2239.598z M2552.998,3712.983
				c29.129-3.854,66.815,13.026,85.237,36.039c25.211,31.511,39.547,158.803-30.451,144.203c-0.358-0.071-0.715-0.162-1.086-0.25
				c-40.127-9.726-68.95-39.02-86.379-74.982C2499.427,3774.828,2491.202,3721.156,2552.998,3712.983z M1607.29,3347.246
				c26.724-17.3,52.973-35.865,78.578-54.37c1.644-1.192,3.326-1.887,5.038-2.144c-25.299,18.688-50.985,36.901-78.296,53.347
				C1610.846,3345.142,1609.071,3346.195,1607.29,3347.246z"/>
			<path id="_x31_80610296_1_" fill="#1F9D5A" stroke="#000000" d="M929.406,2220.58c0.004,11.014,0.091,22.111,0.265,33.287
				c1.479,111.448,47.193,234.311,72.884,342.781c7.575,31.866,17.049,66.446,28.558,102.479
				c28.596,89.627,66.938,193.052,117.036,292.366l-123.282,136.345l-0.575,0.347c-2.259-3.871-4.521-7.823-6.864-11.774
				c-54.891-93.782-107.506-190.032-149.713-290.948c-42.907-102.483-63.821-206.39-87.162-314.246
				c-18.666-86.019-28.454-177.834-28.857-271.614L929.406,2220.58z"/>
			<path id="_x31_80610295_1_" fill="#1F9D5A" stroke="#000000" d="M929.408,2220.58l428.434-45.732
				c12.444,112.946,42.973,232.236,78.174,326.052c16.804,44.84,38.592,77.969,63.916,101.499l-351.779,389.094
				c-50.097-99.313-88.44-202.737-117.036-292.364c-11.509-36.034-20.982-70.613-28.558-102.48
				c-25.69-108.473-71.405-231.334-72.884-342.781C929.501,2242.69,929.414,2231.593,929.408,2220.58z"/>
			<path id="_x31_80610294_1_" fill="#1F9D5A" stroke="#000000" d="M1818.431,2250.12l-318.499,352.279
				c-25.324-23.531-47.114-56.659-63.916-101.498c-35.199-93.817-65.729-213.107-78.174-326.054l348.523-37.218
				C1668.641,2227.948,1678.606,2294.891,1818.431,2250.12z"/>
			<path id="_x31_80610293_1_" fill="#1F9D5A" stroke="#000000" d="M1943.014,2112.328l-124.583,137.793
				c-139.824,44.77-149.792-22.173-112.065-112.492L1943.014,2112.328z"/>
			<path id="_x31_80610292_1_" fill="#1F9D5A" stroke="#000000" d="M1090.896,1365.327
				c176.175-158.673,374.501-282.892,588.187-388.688c149.496-74.114,311.596-119.063,473.426-161.168
				c40.479-10.446,80.879-20.802,121.103-31.407c13.44-3.479,26.792-7.039,40.146-10.604c29.44-7.851,59.314-15.131,89.625-21.419
				c0,0,0.002,0.084,0.084-0.001c12.045-2.447,24.173-4.811,36.387-7.012c0,0,0,0,0.085,0c12.131-2.198,24.353-4.148,36.659-6.018
				c18.38-2.675,36.934-5.021,55.498-6.866c12.324-1.202,24.65-2.153,36.983-2.936c123.153-7.67,246.505,7.767,358.438,63.77
				c11.902,5.984,23.986,12.548,36.166,19.694l-0.563,0.932l-53.291,117.378c-194.936-98.486-412.851-64.105-611.86-13.134
				c-262.636,67.285-375.966,95.592-598.753,208.526c-126.446,64.069-407.483,165.658-524.359,301.272
				c-124.589,144.718-143.875,304.039-193.13,430.002c-45.624,116.868-52.98,236.029-52.315,362.931l-177.716,19.023
				C750.163,1918.963,857.499,1575.461,1090.896,1365.327z"/>
			<path id="_x31_80610291_1_" fill="#1F9D5A" stroke="#000000" d="M981.729,1857.649c49.255-125.964,68.541-285.284,193.13-430.003
				c116.876-135.614,397.913-237.201,524.359-301.272c222.785-112.933,336.117-141.24,598.753-208.525
				c199.01-50.971,416.925-85.354,611.86,13.133l-127.865,281.724c-23.386-19.071-48.317-32.85-74.768-40.002
				c-161.05-43.609-475.474,86.616-619.675,147.758c-130.653,55.407-250.547,125.002-373.706,197.76
				c-112.376,66.334-194.382,154.251-269.187,264.948c-51.087,75.357-86.244,154.017-91.789,246.767
				c-2.717,45.206-0.668,94.392,5,144.911L929.41,2220.58C928.745,2093.678,936.102,1974.517,981.729,1857.649z"/>
			<path id="_x31_80610290_1_" fill="#1F9D5A" stroke="#000000" d="M1444.634,1783.17
				c74.807-110.697,156.811-198.613,269.187-264.948c123.157-72.757,243.053-142.354,373.704-197.76
				c144.203-61.143,458.625-191.367,619.675-147.758c26.45,7.152,51.385,20.931,74.769,40.002l-206.65,455.349
				c-39.496-15.614-84.721-22.751-138.315-27.443c-164.21-14.249-384.023,111.798-539.863,229.367
				c-45.189,34.166-148.305,165.791-190.772,267.651l-348.523,37.219c-5.665-50.52-7.717-99.705-5-144.911
				C1358.388,1937.187,1393.543,1858.525,1444.634,1783.17z"/>
			<path id="_x31_80610289_1_" fill="#1F9D5A" stroke="#000000" d="M1897.136,1869.977
				c155.841-117.569,375.654-243.617,539.863-229.367c53.597,4.691,98.821,11.83,138.316,27.443l-107.222,236.108
				c-323.82,70.028-525.08,208.167-525.08,208.167l-236.648,25.301C1748.834,2035.768,1851.947,1904.143,1897.136,1869.977z"/>
			<path id="_x31_80610288_1_" fill="#40A666" stroke="#000000" d="M2958.107,958.323c-15.921-10.147-31.984-19.208-48.275-27.344
				l53.291-117.378l0.563-0.932c104.384,61.435,214.143,164.467,287.272,274.766l-0.574,0.431l-97.378,101.62
				c-2.107-4.457-4.208-8.831-6.479-13.201C3103.649,1089.656,3043.128,1012.36,2958.107,958.323z"/>
			<path id="_x31_80610287_1_" fill="#40A666" stroke="#000000" d="M2958.106,958.324
				c85.021,54.035,145.543,131.333,188.422,217.961c1.787,5.026,4.845,7.677,6.48,13.202
				c-6.094,5.766-227.842,237.796-227.842,237.796c-37.259-88.845-85.382-167.678-143.202-214.58l127.866-281.724
				C2926.123,939.116,2942.187,948.177,2958.106,958.324z"/>
			<path id="_x31_80610286_1_" fill="#40A666" stroke="#000000" d="M2925.166,1427.283l-275.433,287.372
				c-22.594-20.926-47.135-35.798-74.418-46.602l206.649-455.349C2839.786,1259.606,2887.909,1338.439,2925.166,1427.283z"/>
			<path id="_x31_80610285_1_" fill="#40A666" stroke="#000000" d="M2649.729,1714.656l-181.636,189.505l107.222-236.108
				C2602.601,1678.857,2627.14,1693.731,2649.729,1714.656z"/>
			<path id="_x31_80610284_1_" fill="#2FA850" stroke="#000000" d="M3250.963,1087.438c28.266,42.574,51.049,86.275,65.967,128.989
				c34.304,98.51,50.558,202.857,59.113,306.464c9.389,114.27,5.609,229.425,1.748,344.5l-2.425-0.112l-84.272,3.857
				c-18.163-147.609-40.692-289.113-59.977-412.833c-13.899-89.135-37.756-183.128-78.11-268.814l97.378-101.62L3250.963,1087.438z"
				/>
			<path id="_x31_80610283_1_" fill="#2FA850" stroke="#000000" d="M3153.005,1189.486c40.356,85.687,64.211,179.68,78.11,268.813
				c19.285,123.72,41.813,265.224,59.977,412.835l-100.276,4.643c-0.479-20.85-0.966-42.033-1.464-63.717
				c-3.271-134.938-7.827-278.606-53.234-406.315c-35.859-100.641-27.366-123.201-0.631-197.996L3153.005,1189.486z"/>
			<path id="_x31_80610282_1_" fill="#2FA850" stroke="#000000" d="M3136.117,1405.744
				c45.409,127.709,49.966,271.377,53.234,406.315c0.498,21.684,0.984,42.868,1.464,63.717l-157.208,7.204
				c-15.179-104.873-34.259-212.495-46.359-263.367c-15.327-64.149-36.049-130.68-62.082-192.33l210.32-219.536
				C3108.751,1282.544,3100.258,1305.103,3136.117,1405.744z"/>
			<path id="_x31_80610281_1_" fill="#2FA850" stroke="#000000" d="M2987.248,1619.616c12.101,50.87,31.179,158.491,46.358,263.365
				l-277.239,12.799c-0.723-2.402-1.44-4.637-2.152-6.541c-31.876-83.461-65.259-138.184-104.481-174.582l275.433-287.372
				C2951.199,1488.935,2971.921,1555.463,2987.248,1619.616z"/>
			<path id="_x31_80610280_1_" fill="#2FA850" stroke="#000000" d="M2649.731,1714.657c39.223,36.398,72.605,91.122,104.481,174.582
				c0.713,1.902,1.43,4.138,2.152,6.541l-283.408,13.025l-4.861-4.644L2649.731,1714.657z"/>
			<path id="_x31_80610305_1_" fill="#248A5E" stroke="#000000" d="M2272.737,2723.645c42.77-19.757,84.81-27.652,126.373-27.272
				l-21.245,244.56l0.496,3.412c-204.982,30.665-394.102,152.502-564.227,258.466c-40.145,25.039-83.208,57.403-128.267,90.065
				l25.354-116.653C1914.669,3027.938,2133.365,2788.016,2272.737,2723.645z"/>
			<path id="_x31_80610304_1_" fill="#248A5E" stroke="#000000" d="M2005.504,2471.117
				c119.172-100.87,269.411-131.86,422.859-110.273l-29.251,335.533c-41.562-0.38-83.604,7.513-126.374,27.271
				c-139.373,64.367-358.069,304.292-561.517,452.577l128.616-590.235C1902.961,2551.411,1961.303,2508.514,2005.504,2471.117z"/>
			<path id="_x31_80610302_1_" fill="#248A5E" stroke="#000000" d="M2432.854,2066.269c6.4,2.605,13.145,5.62,20.318,9.128
				l-24.81,285.446c-153.45-21.588-303.688,9.403-422.859,110.273c-44.201,37.397-102.543,80.294-165.666,114.873l83.855-384.851
				C2059.34,2127.092,2272.323,2001.535,2432.854,2066.269z"/>
			<path id="_x31_80610301_1_" fill="#248A5E" stroke="#000000" d="M2468.096,1904.16l-14.922,171.236
				c-7.173-3.505-13.917-6.521-20.319-9.128c-160.531-64.732-373.513,60.824-509.159,134.871l19.32-88.811
				C1943.016,2112.328,2144.275,1974.189,2468.096,1904.16z"/>
			<path id="_x31_80610279_1_" fill="#248A5E" stroke="#000000" d="M3291.09,1871.134l84.272-3.857l2.425,0.112
				c-2.492,76.742-5.066,153.403-3.645,229.804c3.305,187.254,11.636,375.396,9.517,562.609
				c-0.449,38.559,0.442,77.425-0.175,115.824l-88.979-84.734C3343.771,2449.273,3325.278,2149.468,3291.09,1871.134z"/>
			<path id="_x31_80610278_1_" fill="#248A5E" stroke="#000000" d="M3208.059,2393.398
				c-11.176-184.821-13.282-338.06-17.243-517.622l100.276-4.643c34.187,278.335,52.68,578.139,3.414,819.757l-48.034-45.707
				l2.284-2.389C3184.623,2582.604,3213.551,2483.476,3208.059,2393.398z"/>
			<path id="_x31_80610277_1_" fill="#248A5E" stroke="#000000" d="M3208.061,2393.398c5.493,90.077-23.436,189.206,40.697,249.396
				l-2.282,2.389l-198.351-188.861c-0.007-0.25,0.071-0.586,0.065-0.836c7.482-81.029,15.468-172.835,8.367-361.838
				c-1.911-50.438-11.241-129.747-22.95-210.668l157.208-7.203C3194.777,2055.34,3196.883,2208.578,3208.061,2393.398z"/>
			<path id="_x31_80610276_1_" fill="#248A5E" stroke="#000000" d="M2756.368,1895.781l277.237-12.799
				c11.707,80.921,21.041,160.229,22.95,210.668c7.103,189.003-0.885,280.809-8.367,361.837c0.007,0.25-0.071,0.586-0.063,0.836
				l-296.368-282.068C2785.156,2124.421,2772.459,1949.648,2756.368,1895.781z"/>
			<path id="_x31_80610275_1_" fill="#248A5E" stroke="#000000" d="M2756.367,1895.781c16.094,53.867,28.788,228.642-4.61,278.474
				l-278.799-265.45L2756.367,1895.781z"/>
			<path id="_x31_80610309_1_" fill="#248A5E" stroke="#000000" d="M2770.252,2826.195
				c212.387,88.072,445.167,181.182,512.581-84.05c4.288-16.788,8.148-33.898,11.674-51.252l88.979,84.734
				c-1.6,108.263-14.631,212.868-100.023,295.021c-93.721,90.188-204.434,72.707-326.482,44.976
				c-116.851-26.606-342.801-182.037-496.506-178.503c-27.688,0.635-55.004,3.098-82.11,7.227l-0.495-3.41l21.246-244.561
				C2526.057,2697.462,2648.006,2775.432,2770.252,2826.195z"/>
			<path id="_x31_80610308_1_" fill="#248A5E" stroke="#000000" d="M2596.423,2404.627
				c129.968,49.248,430.969,267.707,451.701,51.696l198.349,188.861l48.033,45.708c-3.525,17.353-7.386,34.465-11.674,51.252
				c-67.415,265.231-300.194,172.121-512.581,84.05c-122.241-50.761-244.194-128.73-371.137-129.817l29.249-335.533
				C2484.368,2368.735,2540.868,2383.625,2596.423,2404.627z"/>
			<path id="_x31_80610307_1_" fill="#248A5E" stroke="#000000" d="M2727.695,2187.492c9.872,1.107,17.771-3.831,24.063-13.237
				l296.366,282.068c-20.733,216.012-321.732-2.448-451.7-51.696c-55.557-21.002-112.057-35.891-168.062-43.784l24.812-285.446
				C2520.596,2107.975,2619.261,2174.881,2727.695,2187.492z"/>
			<path id="_x31_80610306_1_" fill="#248A5E" stroke="#000000" d="M2751.759,2174.253c-6.295,9.408-14.192,14.346-24.063,13.238
				c-108.431-12.609-207.1-79.516-274.521-112.094l14.922-171.236l4.861,4.644L2751.759,2174.253z"/>
			<path id="_x31_80610300_1_" fill="#219866" stroke="#000000" d="M1148.154,2991.491c47.738,94.78,106.154,185.643,177.061,257.36
				c95.168,96.19,236.404,36.615,386.009-72.629l-25.355,116.653c-127.716,92.306-271.502,186.147-409.868,116.483
				c-125.791-63.445-182.823-163.268-251.707-281.177l0.577-0.346L1148.154,2991.491z"/>
			<path id="_x31_80610299_1_" fill="#219866" stroke="#000000" d="M1839.838,2585.989l-128.616,590.234
				c-149.605,109.246-290.841,168.819-386.009,72.629c-70.904-71.72-129.32-162.58-177.061-257.36l351.78-389.094
				C1589.123,2685.462,1722.658,2650.183,1839.838,2585.989z"/>
			<path id="_x31_80610298_1_" fill="#219866" stroke="#000000" d="M1836.146,2244.122c22.513-8.027,52.44-23.818,87.545-42.983
				l-83.855,384.853c-117.18,64.191-250.715,99.47-339.905,16.409l318.5-352.28
				C1824.063,2248.322,1830.026,2246.348,1836.146,2244.122z"/>
			<path id="_x31_80610297_1_" fill="#219866" stroke="#000000" d="M1923.695,2201.14c-35.104,19.165-65.032,34.956-87.545,42.983
				c-6.124,2.226-12.087,4.199-17.718,5.998l124.583-137.793L1923.695,2201.14z"/>
			<path id="_x31_80610259_1_" fill="#9AD2BD" stroke="#000000" d="M1429.688,3819.746
				c52.813,311.367,276.343,630.645,472.611,871.545c114.5,140.533,263.688,221.105,427.027,291.537
				c177.56,76.555,381.252,151.744,577.04,92.488c452.588-136.994,480.957-786.307,472.813-1171.153
				c-3.414-161.178-26.184-317.915-60.487-474.628c-22.956-104.907-85.503-248.242-203.364-279.573
				c-51.815-13.744-104.228-16.496-155.931-31.054c-169.368-47.689-317.137-176.332-497.168-178.711
				c-237.143-3.135-454.35,145.864-647.194,266.004c-70.706,44.048-130.761,98.718-201.765,141.468
				c-69.976,42.147-153.425,73.372-197.97,145.939C1365.126,3575.361,1418.271,3752.484,1429.688,3819.746z M2552.998,3712.983
				c29.129-3.854,66.815,13.026,85.237,36.039c25.211,31.511,39.547,158.803-30.451,144.203c-0.358-0.071-0.715-0.162-1.086-0.25
				c-40.127-9.726-68.95-39.02-86.379-74.982C2499.427,3774.828,2491.202,3721.156,2552.998,3712.983z"/>
			<path id="_x31_80610260_1_" fill="#9AD2BD" stroke="#000000" d="M3301.061,3366.206c0,0,72.318,302.502,78.117,537.954
				c2.569,104.228,6.493,216.073-3.773,320.367c-1.347,13.758-6.687,72.568-6.687,72.568s-86.692,31.031-105.467,38.635
				c-43.101,17.439-115.117,0.047-158.822-16.063c-243.432-89.738-179.565-468.93-109.845-661.314
				c20.529-56.655,47.468-113.875,83.724-162.198c20.035-26.7,61.37-59.725,92.178-68.396
				C3247.912,3405.954,3301.061,3366.206,3301.061,3366.206z"/>
			<path id="_x31_80610264_1_" fill="#82C7AE" stroke="#000000" d="M3190.266,3606.235
				c-1.941-56.699-57.963-185.112-113.696-110.128c-66.262,89.15-110.951,222.638-133.518,352.642
				c-6.437,37.086-9.999,73.176-11.486,108.574c-0.855,20.366,0.148,41.144-1.311,60.115c-1.912,24.896,2.261,52.335,7.251,80.676
				c14.252,80.918,54.643,167.812,142.26,210.661c78.957,38.613,90.883-338.079,98.469-407.746
				C3189.307,3799.429,3193.766,3708.539,3190.266,3606.235z"/>
			<path id="_x31_80610263_1_" fill="#9AD2BD" stroke="#000000" d="M3108.659,4305.531l62.211-23.338
				c-2.375-4.277-3.191-14.313-1.67-32.039c9.89-115.113,31.776-270.97,45.882-366.6c10.504-71.226,1.364-146.625,3.931-218.434
				c1.272-35.24,6.34-126.281,22.391-166.749l-103.843-15.823c30.967,23.17,53.204,87.632,54.44,123.735
				c3.507,102.307-0.954,193.188-12.024,294.793C3173.31,3962.287,3164.299,4260.27,3108.659,4305.531z"/>
			<path id="_x31_80610262_1_" fill="#82C7AE" stroke="#000000" d="M3223.493,4184.247c-13.611,56.14-61.713,152.282-54.292,65.911
				c9.892-115.111,31.773-270.971,45.887-366.599c10.496-71.234,1.358-146.634,3.931-218.441
				c1.801-49.977,11.233-212.195,48.814-183.204c46.709,61.092,4.946,181.665,2.858,253.402
				C3266.401,3883.189,3258.514,4039.964,3223.493,4184.247z"/>
			<path id="_x31_80610261_1_" fill="#9AD2BD" stroke="#000000" d="M3096.301,4311.152l-2.826,4.201
				c3.579,1.508,7.229,2.945,10.949,4.316c43.703,16.117,115.721,33.504,158.827,16.064c18.776-7.607,105.464-38.635,105.464-38.635
				s4.949-75.512,6.297-89.271c10.275-104.296,6.732-199.44,4.167-303.661c-5.796-235.456-78.122-537.959-78.122-537.959
				s-53.145,39.752-130.572,61.551c-23.586,6.641-53.328,27.55-74.969,48.968l2.162,1.913c0.113-0.063,0.23-0.128,0.343-0.188
				c1.16-0.638,2.318-1.203,3.47-1.698c0.122-0.054,0.245-0.104,0.366-0.156c0.538-0.226,1.077-0.438,1.612-0.633
				c0.039-0.017,0.078-0.031,0.117-0.045c0.585-0.211,1.166-0.4,1.744-0.574c0.105-0.036,0.208-0.061,0.313-0.093
				c0.52-0.15,1.035-0.289,1.554-0.413c0.065-0.017,0.134-0.034,0.201-0.049c0.581-0.138,1.16-0.256,1.74-0.356
				c0.076-0.014,0.15-0.023,0.222-0.037c0.524-0.091,1.045-0.165,1.569-0.225c0.078-0.01,0.155-0.018,0.231-0.026
				c0.583-0.064,1.167-0.111,1.748-0.143c0.026-0.002,0.053-0.002,0.077-0.004c0.552-0.027,1.102-0.036,1.653-0.035
				c0.075,0,0.153,0,0.229,0c1.157,0.015,2.306,0.095,3.449,0.232c0.068,0.007,0.137,0.019,0.205,0.027
				c1.152,0.146,2.298,0.363,3.434,0.637c0.053,0.012,0.103,0.022,0.155,0.034c1.152,0.284,2.3,0.629,3.437,1.034
				c0.025,0.007,0.055,0.02,0.082,0.029c1.74,0.626,3.463,1.389,5.161,2.283c0.007,0.003,0.013,0.007,0.02,0.009
				c1.14,0.601,2.267,1.258,3.384,1.97c0.013,0.007,0.023,0.014,0.037,0.022c1.114,0.712,2.219,1.479,3.312,2.295
				c0.006,0.004,0.012,0.008,0.019,0.012l103.844,15.824c0.202-0.513,0.407-1.017,0.614-1.513c0.015-0.035,0.029-0.07,0.045-0.105
				c0.195-0.469,0.393-0.929,0.593-1.381c0.019-0.038,0.033-0.076,0.05-0.113c0.855-1.938,1.741-3.733,2.656-5.376
				c0.022-0.043,0.045-0.082,0.067-0.123c0.201-0.358,0.406-0.708,0.609-1.054c0.035-0.059,0.067-0.113,0.103-0.17
				c0.201-0.337,0.404-0.666,0.61-0.988c0.028-0.043,0.057-0.089,0.084-0.132c0.707-1.098,1.429-2.105,2.169-3.016
				c0.028-0.036,0.06-0.069,0.086-0.104c0.211-0.257,0.425-0.508,0.64-0.751c0.048-0.057,0.1-0.111,0.15-0.169
				c0.196-0.216,0.396-0.428,0.594-0.633c0.057-0.057,0.11-0.111,0.165-0.166c0.208-0.212,0.419-0.411,0.631-0.604
				c0.041-0.039,0.081-0.076,0.122-0.114c0.516-0.465,1.039-0.887,1.573-1.26c0.021-0.018,0.046-0.029,0.067-0.046
				c0.231-0.163,0.469-0.319,0.706-0.46c0.063-0.041,0.129-0.077,0.192-0.115c0.198-0.114,0.4-0.228,0.602-0.328
				c0.077-0.04,0.153-0.076,0.23-0.115c0.194-0.094,0.393-0.182,0.589-0.265c0.078-0.034,0.152-0.065,0.229-0.095
				c0.217-0.086,0.436-0.162,0.656-0.23c0.055-0.021,0.106-0.038,0.161-0.056c0.555-0.166,1.116-0.281,1.686-0.35
				c0.075-0.007,0.152-0.013,0.228-0.02c0.205-0.021,0.412-0.035,0.621-0.041c0.096-0.004,0.19-0.003,0.286-0.005
				c0.193,0.002,0.387,0.004,0.581,0.016c0.102,0.008,0.201,0.012,0.305,0.022c0.199,0.018,0.399,0.042,0.599,0.07
				c0.094,0.015,0.186,0.025,0.282,0.042c0.24,0.041,0.481,0.094,0.724,0.15c0.057,0.014,0.11,0.023,0.165,0.036
				c0.3,0.077,0.6,0.167,0.901,0.271c0.072,0.022,0.145,0.055,0.217,0.08c0.229,0.081,0.46,0.168,0.693,0.269
				c0.107,0.045,0.217,0.098,0.323,0.146c0.201,0.09,0.399,0.184,0.599,0.284c0.119,0.062,0.239,0.122,0.357,0.187
				c0.199,0.104,0.397,0.215,0.594,0.333c0.118,0.067,0.234,0.137,0.354,0.21c0.216,0.131,0.43,0.271,0.646,0.415
				c0.104,0.068,0.206,0.133,0.308,0.204c0.318,0.22,0.639,0.453,0.963,0.701c46.705,61.088,4.94,181.663,2.858,253.404
				c-4.291,147.869-12.176,304.643-47.197,448.921c-0.227,0.936-0.464,1.881-0.712,2.835c-0.084,0.334-0.174,0.672-0.26,1.007
				c-0.165,0.629-0.33,1.257-0.502,1.894c-0.109,0.399-0.22,0.806-0.33,1.204c-0.162,0.581-0.323,1.161-0.488,1.746
				c-0.121,0.434-0.248,0.871-0.373,1.308c-0.162,0.563-0.326,1.132-0.494,1.7c-0.133,0.447-0.265,0.896-0.399,1.346
				c-0.172,0.569-0.346,1.141-0.521,1.712c-0.138,0.454-0.277,0.911-0.42,1.369c-0.181,0.579-0.364,1.163-0.55,1.747
				c-0.142,0.447-0.284,0.896-0.431,1.348c-0.197,0.612-0.397,1.226-0.6,1.839c-0.14,0.431-0.279,0.858-0.423,1.29
				c-0.252,0.763-0.511,1.529-0.772,2.296c-0.172,0.51-0.346,1.016-0.521,1.526c-0.272,0.791-0.544,1.579-0.822,2.371
				c-0.157,0.447-0.318,0.895-0.478,1.342c-0.218,0.607-0.434,1.217-0.653,1.823c-0.171,0.48-0.348,0.958-0.521,1.438
				c-0.21,0.575-0.423,1.149-0.634,1.725c-0.183,0.492-0.37,0.984-0.554,1.478c-0.209,0.561-0.423,1.121-0.636,1.682
				c-0.191,0.501-0.38,0.999-0.572,1.499c-0.216,0.552-0.43,1.105-0.645,1.658c-0.194,0.498-0.387,0.994-0.584,1.486
				c-0.221,0.563-0.442,1.119-0.667,1.68c-0.193,0.48-0.385,0.963-0.578,1.443c-0.24,0.59-0.478,1.176-0.72,1.764
				c-0.183,0.443-0.362,0.891-0.545,1.328c-0.311,0.754-0.626,1.5-0.94,2.244c-0.188,0.449-0.377,0.895-0.568,1.34
				c-0.347,0.813-0.691,1.623-1.041,2.426c-0.176,0.406-0.354,0.809-0.532,1.215c-0.262,0.594-0.521,1.189-0.783,1.777
				c-0.191,0.432-0.383,0.855-0.577,1.285c-0.248,0.553-0.498,1.105-0.748,1.654c-0.198,0.438-0.4,0.873-0.6,1.307
				c-0.243,0.529-0.487,1.057-0.73,1.578c-0.202,0.436-0.408,0.865-0.609,1.295c-0.246,0.52-0.493,1.033-0.74,1.547
				c-0.201,0.42-0.4,0.836-0.603,1.25c-0.255,0.521-0.509,1.039-0.764,1.553c-0.189,0.387-0.383,0.775-0.573,1.16
				c-0.278,0.557-0.555,1.102-0.834,1.648c-0.171,0.33-0.338,0.666-0.505,0.99c-0.375,0.73-0.753,1.447-1.127,2.158
				c-0.071,0.139-0.143,0.275-0.216,0.414c-0.437,0.824-0.872,1.629-1.308,2.422c-0.152,0.285-0.31,0.559-0.463,0.84
				c-0.287,0.518-0.576,1.031-0.861,1.539c-0.176,0.311-0.352,0.611-0.525,0.916c-0.264,0.457-0.526,0.912-0.789,1.357
				c-0.182,0.314-0.364,0.615-0.546,0.924c-0.256,0.422-0.507,0.838-0.759,1.248c-0.182,0.297-0.364,0.594-0.547,0.889
				c-0.114,0.182-0.228,0.371-0.341,0.549c-0.229,0.365-0.459,0.725-0.689,1.078c-0.036,0.057-0.073,0.111-0.107,0.168
				c-0.398,0.615-0.796,1.207-1.188,1.781c-0.049,0.072-0.098,0.146-0.146,0.215c-0.388,0.566-0.772,1.111-1.15,1.639
				c-0.043,0.059-0.087,0.117-0.128,0.176c-0.403,0.555-0.803,1.088-1.198,1.596c-0.007,0.012-0.018,0.025-0.027,0.037h-0.001
				c-5.567,7.154-10.258,9.703-12.948,4.859l0,0l-62.21,23.338c-0.48,0.389-0.963,0.76-1.448,1.113
				c-0.002,0.002-0.006,0.004-0.01,0.006c-0.481,0.346-0.967,0.678-1.455,0.988c-0.012,0.006-0.021,0.012-0.034,0.02
				c-0.479,0.305-0.96,0.59-1.447,0.857c-0.021,0.014-0.047,0.023-0.069,0.037c-0.475,0.26-0.951,0.504-1.433,0.727
				c-0.037,0.018-0.075,0.033-0.112,0.051c-0.468,0.215-0.94,0.414-1.414,0.594c-0.055,0.021-0.108,0.039-0.163,0.059
				c-0.461,0.172-0.92,0.328-1.384,0.463c-0.076,0.023-0.151,0.043-0.225,0.063c-0.447,0.127-0.896,0.244-1.347,0.34
				c-0.096,0.018-0.195,0.035-0.291,0.053c-0.434,0.088-0.866,0.166-1.306,0.223
				C3096.45,4311.135,3096.374,4311.141,3096.301,4311.152z"/>
			<path id="_x31_80610265_1_" fill="#54BF94" stroke="#000000" d="M1429.692,3819.746
				c52.813,311.367,276.343,630.646,472.611,871.545c114.498,140.535,263.688,221.107,427.026,291.539
				c177.561,76.557,381.252,151.744,577.04,92.488c55.758-16.871,110.922-43.221,166.332-86.279
				c48.715-37.854,102.979-93.59,139.066-159.172c63.421-115.242,96.851-189.268,124.333-316.178
				c7.907-36.559,11.568-80.582,18.188-117.395c6.195-34.492,3.809-33.76,10.849-73.355c-93.439,47.816-212.593,71.76-312.324,6.971
				c-88.869-57.729-137.528-138.391-150.12-246.042c-9.938-84.934,4.511-171.378,14.101-255.641
				c11.204-98.405,44.567-184.909,88.429-272.613c33.168-66.32,97.416-130.43,165.506-161.256
				c25.458-11.521,116.024-28.923,118.766-64.348c0.595-7.674-17.808-33.862-21.438-40.674
				c-33.527-62.902-80.401-120.189-152.727-139.372c-20.18-5.356-40.448-9.043-60.724-12.405l8.705,13.403
				c-46.03,66.323-212.465,264.34-324.675,365.116c-35.537,31.911-65.182,69.865-100.635,101.745
				c-16.926,15.215-56.502,62.241-110.635,83.531c-8.646-33.647-74.896-59.303-127.783-65.836
				c21.374-43.375,44.828-226.622,47.787-331.227c3.525-124.264,2.197-236.688,11.55-360.707l3.31-3.389
				c-237.143-3.135-454.35,145.864-647.194,266.004c-70.706,44.048-130.761,98.718-201.765,141.468
				c-69.976,42.147-153.425,73.372-197.97,145.939C1365.126,3575.361,1418.271,3752.484,1429.692,3819.746z M2552.998,3712.983
				c29.129-3.854,66.815,13.026,85.237,36.039c25.211,31.511,39.547,158.803-30.451,144.203c-0.358-0.071-0.715-0.162-1.086-0.25
				c-40.127-9.726-68.95-39.02-86.379-74.982C2499.427,3774.828,2491.202,3721.156,2552.998,3712.983z"/>
			<path id="_x31_80610268_1_" fill="#54BF94" stroke="#000000" d="M2186.677,3192.814l-0.288,10.467
				c22.434,158.236,25.405,287.67,95.426,426.005l-0.125,4.578c-10.553,1.731-21.749,3.993-32.649,6.806
				c-40.583,10.507-77.031,28.78-60.763,57.038l-0.967,0.593c-71.151-3.815-141.763-4.381-207.597-35.684
				c-103.377-49.163-185.636-133.947-282.26-193.268l-0.415-0.198C1780.482,3295.659,1985.12,3216.459,2186.677,3192.814z"/>
			<path id="_x31_80610267_1_" fill="#54BF94" stroke="#000000" d="M1697.041,3469.151l0.413,0.198
				c96.626,59.321,178.887,144.104,282.262,193.27c65.834,31.302,136.445,31.866,207.597,35.683l0.967-0.593
				c1.49,2.583,3.418,5.259,5.832,8.015c18.61,21.26,49.422,33.992,71.511,51.427c45.471,35.863,76.006,86.233,105.17,135.964
				c49.717,84.77,98.885,168.444,146.396,254.443c6.213,11.235,13.537,24.633,23.872,33.68l2.197,8.113
				c40.767,146.187-57.403,334.868-182.719,411.511l-3.715,3.438c-141.146-124.609-250.756-282.115-350.613-440.972
				c-73.194-116.418-154.461-223.783-239.498-331.596c-72.363-91.743-127.016-197.166-88.341-315.987
				C1683.659,3499.503,1689.907,3483.979,1697.041,3469.151z"/>
			<path id="_x31_80610269_1_" fill="#54BF94" stroke="#000000" d="M2445.112,3191.063l4.598,0.486
				c-0.625,36.906-1.253,74.253-2.343,112.737c-2.958,104.608-26.408,287.854-47.78,331.231
				c-23.674-3.402-47.439-4.977-69.156-6.154c-8.109-0.443-27.075,0.938-48.741,4.5l0.125-4.578
				c-70.019-138.338-72.992-267.769-95.426-426.005l0.286-10.467C2277.201,3182.19,2367.101,3182.784,2445.112,3191.063z"/>
			<path id="_x31_80610270_1_" fill="#54BF94" stroke="#000000" d="M2527.44,3701.327c54.095-21.303,93.645-68.302,110.568-83.512
				c35.449-31.878,65.095-69.826,100.627-101.74c42.546-38.215,92.892-90.408,141.518-144.101l5.053,3.229
				c57.27,45.085,97.355,149.807,94.195,220.646l-0.396,15.166h0.011c-30.729,69.282-53.381,139.535-62.221,217.211
				c-9.591,84.26-24.035,170.701-14.098,255.639c3.198,27.37,8.735,53,16.67,76.946l-2.896-0.937
				c-15.921,24.14-5.489,37.714-6.521,62.474c-3.188,76.243,26.684,130.034-0.882,206.175c-3.746,10.361-7.78,20.65-12.083,30.85
				l-0.792-0.336c-46.757-24.383-69.737-48.742-106.404-85.275c-63.028-62.795-133.79-119.998-171.904-209.11l-6.562-12.305v-0.01
				c32.602-71.568,32.167-218.267,12.974-246.055c-4.002-5.802-9.473-9.765-15.651-12.885
				c69.016,13.382,54.698-112.999,29.592-144.371c-18.425-23.017-56.103-39.898-85.241-36.049
				c-18.413,2.435-30.605,8.902-38.099,17.94c3.037-5.71,6.644-11.595,10.516-18.218
				C2527.564,3709.017,2528.09,3705.181,2527.44,3701.327z"/>
			<path id="_x31_80610266_1_" fill="#54BF94" stroke="#000000" d="M2543.253,4189.353l-2.197-8.113
				c4.827,4.225,10.307,7.496,16.635,9.161c23.39,6.134,40.99-10.31,53.629-38.052l6.562,12.306
				c38.114,89.113,108.878,146.313,171.904,209.109c36.667,36.531,59.647,60.893,106.403,85.277l0.793,0.334
				c-82.843,196.322-265.657,354.023-468.621,203.043c-24.744-18.406-48.557-37.83-71.538-58.119l3.716-3.438
				C2485.853,4524.221,2584.021,4335.537,2543.253,4189.353z"/>
			<path id="_x31_80610271_1_" fill="#54BF94" stroke="#000000" d="M2155.152,4897.049c35.572,20.064,73.316,34.609,114.602,40.037
				c20.943,2.748,45.642,2.348,58.227-8.912c8.573-7.666,11.515-20.381,3.769-40.57c-26.861-70.074-106.689-115.617-161.377-162.281
				c-64.403-54.951-115.186-124.285-168.05-189.883c-54.762-67.953-109.411-135.973-162.781-205.057
				c-75.035-97.148-130.632-203.82-192.728-309.897c-98.032-167.44-158.92-315.191-156.916-512.712
				c0.933-92.41-52.94-51.635-81.18,7.24c-8.775,18.299-12.655,37.427-13.761,56.954l-0.32-0.02
				c1.72-30.084,7.782-57.348,20.662-78.332c44.545-72.569,127.994-103.797,197.972-145.939
				c71.002-42.752,131.059-97.42,201.767-141.464c192.849-120.139,410.048-269.14,647.192-266.006l-3.306,3.391
				c-6.457,85.604-7.821,165.687-9.213,247.959l-4.598-0.485c-78.012-8.279-167.91-8.873-258.437,1.75
				c-201.557,23.644-406.193,102.844-489.636,276.336c-7.134,14.83-13.382,30.353-18.671,46.595
				c-38.674,118.817,15.979,224.242,88.341,315.987c85.036,107.811,166.305,215.178,239.498,331.595
				c99.857,158.857,209.466,316.361,350.612,440.971c22.977,20.291,46.793,39.713,71.536,58.119
				c202.964,150.982,385.781-6.721,468.623-203.041c4.301-10.199,8.335-20.49,12.082-30.852
				c27.564-76.139-2.308-129.932,0.881-206.175c1.032-24.76-9.399-38.334,6.521-62.472l2.896,0.937
				c23.257,70.235,67.169,126.034,133.448,169.095c99.728,64.785,218.878,40.844,312.32-6.973
				c-7.041,39.592-4.651,38.869-10.852,73.361c-6.614,36.811-10.278,80.826-18.186,117.383
				c-27.482,126.912-60.911,200.941-124.335,316.18c-36.079,65.578-90.354,121.316-139.063,159.172
				c-55.402,43.051-110.568,69.406-166.334,86.275c-195.784,59.258-399.47-15.932-577.031-92.486
				c-60.506-26.086-119.062-53.568-174.629-84.979L2155.152,4897.049z"/>
			<path id="_x31_80610272_1_" fill="#54BF94" stroke="#000000" d="M3063.308,3150.968l-8.705-13.405
				c20.276,3.357,40.543,7.045,60.723,12.406c72.329,19.176,119.202,76.465,152.733,139.371
				c3.626,6.815,22.034,33.001,21.431,40.676c-2.737,35.42-93.298,52.822-118.765,64.346
				c-68.085,30.819-132.332,94.937-165.498,161.25c-9.243,18.482-18.022,36.906-26.217,55.41H2979l0.398-15.166
				c3.159-70.842-36.926-175.563-94.196-220.646l-5.052-3.229C2959.747,3284.065,3034.735,3192.133,3063.308,3150.968z"/>
			<path id="_x31_80610274_1_" fill="#62D09F" stroke="#000000" d="M2817.636,3062.313c39.562,18.575,158.054,69.224,220.246,72.526
				c-27.446,39.528-97.658,125.84-173.664,210.471l-1.591-4.015c-60.142-138.187-229.518-192.287-369.426-159.423l-9.996,3.396
				c1.36-80.343,2.809-158.752,9.124-242.45C2617.382,2961.146,2749.291,3030.24,2817.636,3062.313z"/>
			<path id="_x31_80610273_1_" fill="#62D09F" stroke="#000000" d="M2483.205,3185.269l9.994-3.396
				c139.908-32.863,309.284,21.237,369.426,159.423l1.591,4.015c-51.518,57.354-105.698,113.938-151.022,154.646
				c-35.543,31.914-65.178,69.863-100.636,101.74c-16.906,15.221-46.014,55.855-100.111,77.154
				c-0.449-0.402-0.897-0.804-1.347-1.207c-0.008,0-0.019-0.01-0.028-0.021c-8.4-7.773-18.85-15.095-36.408-22.352
				c-14.104-6.191-29.354-10.823-45.063-14.337c21.382-43.365,48.203-232.809,51.17-337.407
				C2481.923,3263.123,2482.55,3223.965,2483.205,3185.269z"/>
			<path id="_x31_80610311_1_" fill="#CCCCCC" stroke="#000000" d="M2194.109,3705.725c18.614,21.262,49.419,33.986,71.512,51.421
				c45.47,35.867,76.005,86.242,105.166,135.964c49.722,84.774,98.888,168.445,146.404,254.448
				c9.116,16.489,20.605,37.615,40.503,42.843c83.747,21.982,93.233-245.555,66.6-284.122
				c-13.451-19.483-43.48-18.273-61.079-33.851c-21.588-19.128-39.67-41.103-49.571-68.937c-16.79-47.208-5.066-61.969,11.77-90.79
				c10.234-17.534-16.17-38.582-33.134-48.511c-46.025-26.939-109.83-31.983-161.847-34.826
				c-12.066-0.664-48.122,2.714-81.393,11.311C2204.741,3652.136,2165.376,3672.87,2194.109,3705.725z"/>
			<path id="_x31_80610312_1_" fill="#CCCCCC" stroke="#000000" d="M2331.751,4887.602
				c-26.867-70.072-106.697-115.623-161.375-162.283c-64.409-54.953-115.189-124.287-168.05-189.883
				c-54.763-67.957-109.417-135.967-162.786-205.057c-75.038-97.15-130.629-203.818-192.73-309.901
				c-98.034-167.439-158.914-315.184-156.914-512.711c0.935-92.41-52.935-51.629-81.174,7.245
				c-23.833,49.681-11.606,105.667-5.481,158.581c8.433,72.799,23.323,145.032,43.185,215.554
				c28.947,102.788,55.059,197.433,107.246,291.968c28.348,51.337,59.021,101.22,90.604,150.622
				c47.061,73.598,86.117,148.232,143.995,213.895c50.434,57.211,93.122,121.68,143.842,179.436
				c53.161,60.531,122.086,105.215,188.138,150.211c45.697,31.131,94.456,54.568,149.509,61.805
				c20.938,2.752,45.643,2.346,58.225-8.91C2336.56,4920.5,2339.497,4907.785,2331.751,4887.602z"/>
			<path id="_x31_80610310_1_" fill="#AAAAAA" stroke="#000000" d="M2606.7,3892.976c-40.127-9.725-68.95-39.02-86.378-74.982
				c-20.896-43.165-29.119-96.837,32.674-105.01c29.131-3.854,66.817,13.026,85.239,36.039
				c25.211,31.511,39.547,158.803-30.451,144.203C2607.428,3893.154,2607.071,3893.063,2606.7,3892.976z"/>
		</g>
	</g>
</g>
</svg>
