<?xml version="1.0" encoding="utf-8"?>
<!-- Generator: Adobe Illustrator 16.0.0, SVG Export Plug-In . SVG Version: 6.00 Build 0)  -->
<!DOCTYPE svg PUBLIC "-//W3C//DTD SVG 1.1//EN" "http://www.w3.org/Graphics/SVG/1.1/DTD/svg11.dtd">
<svg version="1.1" id="Layer_1" xmlns="http://www.w3.org/2000/svg" xmlns:xlink="http://www.w3.org/1999/xlink" x="0px" y="0px"
	 width="7104px" height="5872px" viewBox="0 0 7104 5872" enable-background="new 0 0 7104 5872" xml:space="preserve">
<g transform="scale(1.0)">
	<g id="_x31_80610550" transform=" scale(1.0, 1.0)">
		<path id="_x31_80610552" fill="#BFDAE3" stroke="#000000" d="M3830.137,3376.768c-130.534-103.242-123.087-304.227-123.302-454.11
			c-0.513-351.184-3.163-722.299-1.574-1084.2c0.951-217.79-15.679-415.978,40.99-565.845
			c45.033-119.078,139.405-223.261,218.302-333.378c287.887-401.76,1018.826-239.984,1375.299-102.324
			c620.033,239.442,1033.525,754.904,1147.404,1301.318c67.359,323.208-17.148,754.749-190.684,1126.271
			c-70.117,150.117-164.619,276.971-255.904,359.91c-65.121,59.168-173.484,31.922-494.225-141.43
			c-246.857-133.426-544.609-287.564-535.521-273.057c10.473,16.705,202.621,96.373,416.279,208.428
			c119.238,62.537,269.861,143.846,384.914,202.207c179.248,90.924,144.406,164.355,145.191,176.773
			c13.385,209.121-68.367,356.602-191.541,532.613c-156.697,223.908-308.766,418.516-534.27,591.646
			c-286.826,220.199-750.592,386.701-1092.33,149.297c-129.768-90.139-264.605-224.061-307.141-375.816
			c-59.605-212.713-28.438-398.52-31.605-657.721c-1.611-132.201-13.803-262.578-11.69-370.666
			c1.946-99.434,19.274-180.027,24.759-225.793C3815.295,3425.898,3830.137,3376.768,3830.137,3376.768z"/>
		<path id="_x31_80610553" fill="#B0FFB8" stroke="#000000" d="M6487.258,2138.257
			c-113.877-546.421-527.371-1061.894-1147.402-1301.342c-356.477-137.662-1087.416-299.443-1375.307,102.32
			c-78.902,110.124-173.271,214.304-218.306,333.386c-56.678,149.865-40.724,348.055-40.986,565.848
			c-0.431,353.973,0.568,733.518,1.563,1084.217c0.428,149.881-7.232,350.87,123.301,454.116c0,0-14.836,49.125-16.645,64.131
			c-5.486,45.768-22.813,126.361-24.758,225.797c-2.114,108.092,10.078,238.469,11.691,370.674
			c3.163,259.199-28.007,445.01,31.598,657.721c42.537,151.76,177.379,285.684,307.145,375.826
			c341.738,237.408,805.506,70.904,1092.336-149.295c225.504-173.135,377.58-367.742,534.27-591.654
			c123.174-176.016,204.93-323.498,191.551-532.621c-0.793-12.416,34.053-85.848-145.191-176.777
			c-33.145-16.813-69.244-35.533-106.693-55.156c200.834,98.109,282.32,107.102,335.248,59.012
			c91.283-82.939,185.785-209.793,255.904-359.914C6470.109,2893.012,6554.619,2461.468,6487.258,2138.257z M4680.629,3930.566
			c-7.793,27.734-20.545,53.281-34.285,78.314c1.246-4.473,0.813-8.957-2.682-14.012c-5.324-7.699-21.146-9.713-27.996-17.23
			c-0.008-0.008-0.018-0.016-0.023-0.023c-11.51-12.691-20.217-28.215-27.674-43.541c-12.143-24.969-28.363-61.547-21.387-90.094
			c6.121-25.047,31.9-38.08,41.48-40.561c0,0,0.299-2.42-9.625-2.107c14.768-0.955,29.623,0.191,41.266,6.324
			C4688.182,3833.18,4694.424,3881.471,4680.629,3930.566z"/>
		<path id="_x31_80610584" fill="#1F9D5A" stroke="#000000" d="M6487.277,2138.234c65.338,313.711-12.324,729.474-175.684,1093.348
			l-1.172-0.498l-169.598-137.051c20.652-58.313,39.547-116.785,59.703-172.25c71.457-196.181,113.881-406.031,117.758-615.491
			c2.793-153.019-35.373-292.265-90.092-432.994c-67.225-172.902-147.957-319.948-260.627-463.435
			c-70.613-89.95-103.977-146.677-195.213-215.442c-75.334-56.667-157.189-111.4-258.51-156.406l63.088-85.796l2.172-3.933
			C6065.951,1215.901,6388.682,1665.452,6487.277,2138.234z"/>
		<path id="_x31_80610583" fill="#1F9D5A" stroke="#000000" d="M6228.193,1873.298c54.719,140.729,92.885,279.977,90.092,432.994
			c-3.877,209.46-46.303,419.309-117.758,615.491c-20.156,55.463-39.051,113.94-59.703,172.249l-291.234-235.291
			c46.902-119.134,30.145-319.536,17.936-433.902c-25.426-238.266-49.432-418.504-176.467-610.134
			c-148.908-224.709-247.535-314.452-423.309-441.962l246.096-334.73c101.32,45.005,183.176,99.739,258.508,156.406
			c91.236,68.766,124.6,125.493,195.215,215.444C6080.236,1553.35,6160.969,1700.396,6228.193,1873.298z"/>
		<path id="_x31_80610582" fill="#1F9D5A" stroke="#000000" d="M5867.527,2424.839c12.205,114.366,28.965,314.768-17.936,433.901
			l-310.82-251.147c45.377-15.536,60.85-70.157,9.604-180.873c-114.572-247.919-284.066-425.524-502.508-570.7
			c-27.705-18.355-57.834-38.88-89.721-59.403l311.602-423.874c175.775,127.51,274.402,217.252,423.309,441.961
			C5818.094,2006.335,5842.1,2186.573,5867.527,2424.839z"/>
		<path id="_x31_80610581" fill="#1F9D5A" stroke="#000000" d="M4759.459,2068.4c-0.92-0.084-1.756-0.081-2.592-0.081l-0.002-0.669
			l199.281-271.032c31.887,20.523,62.016,41.048,89.719,59.403c218.443,145.175,387.938,322.778,502.508,570.7
			c51.248,110.716,35.775,165.338-9.604,180.872l-302.619-244.556c0,0-40.436-36.816-99.623-84.475
			C5029.379,2192.345,4860.721,2070.677,4759.459,2068.4z"/>
		<path id="_x31_80610588" fill="#1F9D5A" stroke="#000000" d="M5579.1,948.285l-2.172,3.933l-63.086,85.795
			c-28.361-12.585-58.314-24.499-90.105-35.406c-114.523-39.387-220.83-62.56-335.773-101.36
			c-180.107-60.946-404.83-96.242-596.85-66.698c-118.787,18.314-256.303,97.613-348.842,170.993
			c-32.656,25.883-62.883,53.853-90.516,83.746l-96.936-134.73l-0.92-0.668c3.668-4.857,7.174-9.71,10.68-14.648
			c287.887-401.767,1018.826-240.024,1375.303-102.323C5423.461,869.159,5503.285,906.502,5579.1,948.285z"/>
		<path id="_x31_80610587" fill="#1F9D5A" stroke="#000000" d="M5513.844,1038.014l-246.096,334.731
			c-7.195-5.258-14.482-10.515-21.928-15.856c-106.049-76.271-304.014-169.633-423.889-205.666
			c-123.215-37.032-181.26-49.907-301.064-38.615c-156.336,14.775-260.596,77.554-325.42,176.311l-143.686-199.632
			c27.631-29.89,57.859-57.861,90.516-83.745c92.539-73.382,230.055-152.678,348.842-170.994
			c192.02-29.542,416.742,5.753,596.85,66.7c114.943,38.798,221.246,61.974,335.773,101.358
			C5455.529,1013.515,5485.48,1025.429,5513.844,1038.014z"/>
		<path id="_x31_80610586" fill="#1F9D5A" stroke="#000000" d="M5267.748,1372.745l-311.604,423.874
			c-139.346-89.771-312.309-179.489-460.678-90.895l-300.023-416.803c64.826-98.761,169.084-161.537,325.422-176.313
			c119.803-11.293,177.85,1.582,301.063,38.613c119.873,36.034,317.838,129.396,423.889,205.667
			C5253.266,1362.229,5260.551,1367.487,5267.748,1372.745z"/>
		<path id="_x31_80610585" fill="#1F9D5A" stroke="#000000" d="M4956.146,1796.619l-199.281,271.034l-0.512-6.856l-2.332,4.184
			l-258.555-359.254C4643.838,1617.13,4816.799,1706.85,4956.146,1796.619z"/>
		<path id="_x31_80610592" fill="#40A666" stroke="#000000" d="M3954.822,954.559l96.934,134.729
			c-97.508,104.828-164.967,232.436-204.736,369.874l-127.719-85.605c6.301-35.629,15.033-69.338,26.944-100.962
			c43.063-113.778,131.132-213.907,207.655-318.704L3954.822,954.559z"/>
		<path id="_x31_80610591" fill="#40A666" stroke="#000000" d="M4051.758,1089.288l143.688,199.632
			c-30.871,47.036-52.781,102.255-67.072,164.316c-15.039,65.158-27.164,121.028-37.047,169.542l-205.555-137.668
			c-6.449-8.434-15.574-15.029-28.287-18.939l-10.463-7.009C3886.789,1321.724,3954.248,1194.115,4051.758,1089.288z"/>
		<path id="_x31_80610590" fill="#40A666" stroke="#000000" d="M4195.445,1288.92l300.023,416.804
			c-30.492,18.191-59.969,43.904-87.932,78.811c-7.93,9.875-15.688,21.679-23.113,34.65l-293.1-196.406
			c9.883-48.512,22.008-104.385,37.047-169.543C4142.664,1391.173,4164.574,1335.956,4195.445,1288.92z"/>
		<path id="_x31_80610589" fill="#40A666" stroke="#000000" d="M4754.021,2064.979l-0.752,1.255l-368.846-247.052
			c7.424-12.97,15.184-24.774,23.113-34.65c27.961-34.908,57.438-60.619,87.932-78.811L4754.021,2064.979z"/>
		<path id="_x31_80610597" fill="#2FA850" stroke="#000000" d="M3719.301,1373.557l127.719,85.605
			c-14.395,49.688-25.191,100.709-32.389,152.393c-32.111,229.734-43.218,472.235-48.479,708.955l-60.515,15.39
			c-0.326-168.317-0.572-338.556-0.384-497.426C3705.509,1666.562,3695.579,1506.873,3719.301,1373.557z"/>
		<path id="_x31_80610596" fill="#2FA850" stroke="#000000" d="M3857.482,1466.169l28.287,18.939
			c32.168,41.929-1.734,130.775-7.934,180.285c-13.889,110.308-22.145,239.671-24.576,351.217
			c-2.201,99.254-1.406,185.292-1.934,282.287l-85.175,21.612c5.262-236.722,16.365-479.22,48.478-708.956
			c7.201-51.684,17.996-102.704,32.389-152.392L3857.482,1466.169z"/>
		<path id="_x31_80610595" fill="#2FA850" stroke="#000000" d="M3885.771,1485.109l205.553,137.668
			c-31.881,155.568-41.631,236.939-54.225,315.556c-12.434,77.195-17.367,192.172-16.432,317.593l-169.342,42.972
			c0.529-96.995-0.264-183.033,1.934-282.287c2.432-111.547,10.689-240.911,24.578-351.217
			C3884.037,1615.885,3917.939,1527.038,3885.771,1485.109z"/>
		<path id="_x31_80610594" fill="#2FA850" stroke="#000000" d="M4091.324,1622.778l293.1,196.406
			c-33.027,57.574-59.916,139.472-71.293,194.005c-10.295,49.181-24.168,113.084-34.611,177.315l-257.855,65.422
			c-0.934-125.421,4-240.396,16.432-317.593C4049.693,1859.717,4059.441,1778.346,4091.324,1622.778z"/>
		<path id="_x31_80610593" fill="#2FA850" stroke="#000000" d="M4753.271,2066.234l-2.422,4.35L4278.521,2190.5
			c10.441-64.231,24.314-128.132,34.611-177.313c11.375-54.535,38.264-136.432,71.293-194.005L4753.271,2066.234z"/>
		<path id="_x31_80610576" fill="#248A5E" stroke="#000000" d="M5608.236,3407.688l56.047,133.701l-1,1.84
			c-80.33-42.275-163.926-86.973-236.053-124.828c-8.369-4.42-16.738-8.754-25.023-13.01
			c-38.076-22.102-76.902-43.199-120.08-64.125c-10.373-5-20.582-9.922-30.791-14.754
			c-139.488-72.625-245.92-125.314-240.389-116.545c2.598,4.174,16.572,12.266,39.418,23.855
			c-22.09-10.086-44.68-20.588-68.025-31.51c-43.674-20.422-95.535-33.557-146.633-39.754l0.248-1.838l-17.83-246.221
			c11.041,2.326,22.248,5.572,33.627,9.815c82.068,30.486,134.309,74.642,203.035,128.558
			c74.332,58.258,136.143,129.742,218.484,177.199c101.762,58.551,206.525,112.5,311.287,165.527
			C5592.506,3399.598,5600.373,3403.686,5608.236,3407.688z"/>
		<path id="_x31_80610575" fill="#248A5E" stroke="#000000" d="M5405.191,2922.929l203.045,484.756
			c-7.863-4.004-15.73-8.088-23.68-12.09c-104.762-53.029-209.525-106.979-311.285-165.525
			c-82.344-47.457-144.154-118.943-218.486-177.201c-68.727-53.914-120.965-98.072-203.033-128.558
			c-11.379-4.245-22.586-7.491-33.627-9.815l-0.002-0.084l-22.098-305.914c168.527,31.446,315.027,152.56,463.145,236.715
			C5309.215,2873.653,5357.916,2900.422,5405.191,2922.929z"/>
		<path id="_x31_80610574" fill="#248A5E" stroke="#000000" d="M5217.498,2474.86l187.693,448.071
			c-47.275-22.51-95.977-49.279-146.02-77.719c-148.119-84.153-294.619-205.269-463.145-236.714l-21.84-301.149
			c42.305-1.149,85.543,3.974,130.211,17.121C5027.195,2360.581,5125.441,2417.631,5217.498,2474.86z"/>
		<path id="_x31_80610573" fill="#248A5E" stroke="#000000" d="M5135.695,2279.569l81.803,195.291
			c-92.057-57.229-190.303-114.279-313.098-150.391c-44.67-13.146-87.904-18.269-130.213-17.12l-17.234-238.277l2.508-0.672
			c101.262,2.276,269.92,123.946,377.068,210.164L5135.695,2279.569z"/>
		<path id="_x31_80610602" fill="#248A5E" stroke="#000000" d="M4056.387,3311.428l-39.531,70.713l-0.162,2.338
			c-38.383-3.203-76.932-5.156-115.4-8.109c-19.148-1.563-46.248-6.455-62.543-0.914c-4.682,1.596-8.271,5.031-11.023,9.549
			c1.412-5.018,2.412-8.197,2.412-8.197c-130.589-103.242-123.101-304.262-123.316-454.101
			c-0.253-176.427-0.799-380.112-1.185-586.807l60.518-15.39c-1.491,67.062-2.567,133.62-3.393,199.343
			c-3.176,231.367-42.004,557.102,178.782,703.695c24.773,16.436,53.236,40.307,83.705,64.262
			C4035.461,3295.738,4045.844,3303.75,4056.387,3311.428z"/>
		<path id="_x31_80610601" fill="#248A5E" stroke="#000000" d="M3883.951,2947.871c47.211,93.578,225.914,222.838,143.887,336.672
			l-2.59,3.266c-30.469-23.955-58.932-47.828-83.705-64.262c-220.786-146.592-181.956-472.329-178.78-703.695
			c0.827-65.723,1.899-132.281,3.392-199.343l85.174-21.611c-0.338,56.691-1.002,117.061-2.992,185.963
			C3843.242,2664.975,3794.814,2771.569,3883.951,2947.871z"/>
		<path id="_x31_80610600" fill="#248A5E" stroke="#000000" d="M4403.076,2692.011l-346.689,619.419
			c-10.543-7.68-20.926-15.691-31.137-23.619l2.59-3.266c82.025-113.834-96.678-243.096-143.887-336.674
			c-89.138-176.3-40.709-282.896-35.617-463.009c1.99-68.903,2.654-129.272,2.992-185.963l169.34-42.971
			c1.27,184.871,15.365,392.464,37.145,535.247c18.4,120.378,137.348,38.516,264.73-50.552
			C4346.432,2723.949,4373.668,2707.438,4403.076,2692.011z"/>
		<path id="_x31_80610599" fill="#248A5E" stroke="#000000" d="M4597.563,2344.562l-194.486,347.449
			c-29.406,15.427-56.645,31.938-80.533,48.613c-127.385,89.065-246.332,170.929-264.732,50.551
			c-21.779-142.783-35.873-350.378-37.145-535.248l257.855-65.423c-26.771,164.342-31.045,330.656,104.891,257.382
			C4455.178,2409.151,4525.779,2371.253,4597.563,2344.562z"/>
		<path id="_x31_80610598" fill="#248A5E" stroke="#000000" d="M4750.85,2070.585l-153.285,273.977
			c-71.787,26.695-142.387,64.589-214.152,103.322c-135.938,73.275-131.66-93.04-104.891-257.383L4750.85,2070.585z"/>
		<path id="_x31_80610572" fill="#248A5E" stroke="#000000" d="M4818.125,2914.496l-0.002-0.083
			c-180.246-39.624-309.484,152.876-398.672,289.128c-28.783,43.939-78.699,103.461-133.416,139.076
			c-25.393,16.508-51.883,27.918-77.717,30.215c-49.742,4.418-102.547-25.441-151.934-61.406l-39.529,70.713l-0.162,2.34
			c37.715,3.205,75.264,7.586,112.482,15.307c22.5,4.648,42.746,12.148,61.738,21.484l1.586-3.182l50.045-25.408
			c3.824-15.305,22.955-24.863,34.736-32.992c4.592-3.184,9.189-6.285,13.867-9.301c32.412-21.371,66.244-39.98,100.502-57.674
			c45.705-23.479,92.246-45.285,137.947-69.348c7.854-4.109,73.455-28.033,73.449-34.053l0.002-0.084l29.504-5.895
			c42.695-23.139,122.035-30.613,203.152-20.781l0.248-1.838L4818.125,2914.496z"/>
		<path id="_x31_80610571" fill="#248A5E" stroke="#000000" d="M4796.027,2608.499l22.096,305.915
			c-180.246-39.624-309.484,152.877-398.672,289.129c-28.783,43.938-78.699,103.461-133.416,139.076
			c-25.393,16.508-51.883,27.918-77.717,30.213c-49.742,4.418-102.547-25.441-151.934-61.404l346.689-619.417
			c109.453-57.519,249.357-101.031,359.58-88.565C4773.863,2604.683,4784.986,2606.339,4796.027,2608.499z"/>
		<path id="_x31_80610570" fill="#248A5E" stroke="#000000" d="M4774.188,2307.349l21.84,301.149
			c-11.041-2.159-22.164-3.815-33.373-5.052c-110.221-12.466-250.125,31.047-359.58,88.565l194.488-347.449
			C4655.227,2323.072,4713.652,2308.857,4774.188,2307.349z"/>
		<path id="_x31_80610569" fill="#248A5E" stroke="#000000" d="M4756.951,2069.072l17.236,238.277
			c-60.535,1.509-118.961,15.722-176.625,37.212l153.287-273.977L4756.951,2069.072z"/>
		<path id="_x31_80610580" fill="#219866" stroke="#000000" d="M6310.422,3231.084l1.172,0.498
			c-4.834,11.045-9.916,22.006-15.002,32.965c-70.102,150.107-164.652,277.002-255.924,359.914
			c-52.857,47.986-134.313,39.074-334.791-58.801c-14.059-7.338-28.283-14.842-42.594-22.432l1.002-1.84l-56.047-133.701
			c139.152,71.373,263.834,136.83,383.516-14.852c67.855-85.971,111.348-192.139,149.072-298.803L6310.422,3231.084z"/>
		<path id="_x31_80610579" fill="#219866" stroke="#000000" d="M5849.588,2858.741l291.234,235.292
			c-37.725,106.662-81.215,212.832-149.07,298.803c-119.684,151.684-244.363,86.225-383.518,14.852l-203.045-484.755
			c144.166,68.773,275.484,97.597,391.998,10.638C5820.076,2916.562,5837.094,2890.534,5849.588,2858.741z"/>
		<path id="_x31_80610578" fill="#219866" stroke="#000000" d="M5538.77,2607.594l310.822,251.148
			c-12.496,31.791-29.516,57.818-52.404,74.827c-116.514,86.961-247.83,58.135-391.996-10.639l-187.693-448.071
			c56.406,34.952,110.557,69.992,166.537,100.181C5442.279,2606.477,5500.994,2620.609,5538.77,2607.594z"/>
		<path id="_x31_80610577" fill="#219866" stroke="#000000" d="M5236.15,2363.039l302.617,244.556
			c-37.773,13.015-96.488-1.118-154.732-32.555c-55.98-30.188-110.131-65.228-166.537-100.18l-81.803-195.291l0.832-1.005
			C5195.713,2326.223,5236.15,2363.039,5236.15,2363.039z"/>
		<path id="_x31_80610554" fill="#9AD2BD" stroke="#000000" d="M5812.115,3620.563c-115.051-58.361-265.674-139.67-384.914-202.207
			c-213.656-112.053-405.805-191.721-416.277-208.428l-2.709-0.266c-297.635-99.285-361.906-29.723-428.193-9.771
			c-74.049,22.283-272.205,134.568-334.902,182.865c-2.572,9.926-46.223,30.488-56.797,37.26
			c-11.633-6.381-23.115-10.82-49.133-17.934c-58.004-15.857-142.951-19.199-209.299-22.641
			c-54.684-2.832-96.035-1.396-96.035-1.396s-7.766,8.889-9.135,13.053c0,0-9.424,34.797-11.232,49.801
			c-5.483,45.766-22.811,126.361-24.756,225.793c-2.115,108.088,10.078,238.465,11.69,370.668
			c3.168,259.199-27.999,445.006,31.606,657.719c42.533,151.756,177.371,285.678,307.139,375.818
			c341.738,237.404,805.504,70.902,1092.33-149.297c225.506-173.137,377.574-367.738,534.271-591.646
			c123.174-176.012,204.924-323.496,191.539-532.615C5956.521,3784.918,5991.365,3711.486,5812.115,3620.563z M4680.629,3930.566
			c-7.793,27.734-20.545,53.281-34.285,78.314c1.246-4.473,0.813-8.957-2.682-14.012c-5.324-7.699-21.146-9.713-27.996-17.23
			c-0.008-0.008-0.018-0.016-0.023-0.023c-11.51-12.691-20.217-28.215-27.674-43.541c-12.143-24.969-28.363-61.547-21.387-90.094
			c6.121-25.047,31.9-38.08,41.48-40.561c0,0,0.299-2.42-9.625-2.107c14.768-0.955,29.623,0.191,41.266,6.324
			C4688.182,3833.18,4694.424,3881.471,4680.629,3930.566z"/>
		<path id="_x31_80610555" fill="#54BF94" stroke="#000000" d="M5930.701,3705.443c-87.334-95.688-298.68-159.908-400.283-222.396
			c-86.061-52.938-157.311-97.762-248.252-141.789c-99.596-48.223-191.328-88.203-299.82-138.92
			c-112.957-52.795-280.191-56.736-349.811-19.01c-3.189,1.729-15.682,90.236,12.846,210.418
			c21.859,92.1,77.402,202.67,121.684,307.803c-28.021-7.203-92.557-16.445-141.461-2.932
			c-55.361,20.98-166.016,90.979-94.947,116.15c-123.33-1.912-150.498,4.396-214.223,25.393
			c-39.127,12.893-106.779,99.807-161.871,91.164c-45.566-7.146-85.875-34.92-130.729-53.115
			c-77.424-31.416-174.582-44.391-230.037-75.967c-7.327-4.17,5.316,65.84,4.34,111.83c-2.627,123.326,7.337,262.9,1.154,390.561
			c-6.479,134.104-3.893,259.865,32.715,390.49c10.277,36.639,23.479,74.756,53.031,45.906
			c59.682-58.275,151.357-210.408,236.449-311.105c64.701-76.58,130.201-125.988,161.525-93.592
			c38.121,39.42,96.85,183.238,128.623,291.066c35.713,121.188,66.523,224.268,56.15,274.453
			c-12.271,59.223-62.51,85.578-121.057,129.775c-51.791,39.076-123.291,85.242-104.381,94.908
			c81.586,41.691,159.082,50.49,257.188,57.465c259.23,18.441,570.092-138.072,731.949-262.35
			c225.502-173.135,377.578-367.74,534.27-591.654c71.158-101.668,131.256-204.045,162.607-304.029
			c22.941-73.107,30.504-118.51,30.363-211.873C5958.666,3772.264,5956.064,3733.234,5930.701,3705.443z M4680.629,3930.566
			c-7.793,27.734-20.545,53.281-34.285,78.314c1.246-4.473,0.813-8.957-2.682-14.012c-5.324-7.699-21.146-9.713-27.996-17.23
			c-0.008-0.008-0.018-0.016-0.023-0.023c-11.51-12.691-20.217-28.215-27.674-43.541c-12.143-24.969-28.363-61.547-21.387-90.094
			c6.121-25.047,31.9-38.08,41.48-40.561c0,0,0.299-2.42-9.625-2.107c14.768-0.955,29.623,0.191,41.266,6.324
			C4688.182,3833.18,4694.424,3881.471,4680.629,3930.566z"/>
		<path id="_x31_80610558" fill="#54BF94" stroke="#000000" d="M4767.068,3701.549c-44.283-105.133-99.828-215.705-121.686-307.803
			c-4.441-18.719-7.889-36.672-10.531-53.646l6.27,4.877c44.523,12.031,116.207,20.982,161.693,27.635
			c245.32,35.875,513.023,85.27,708.453,238.719c46.295,36.352,127.088,86.547,170.764,145.805l-3.498,4.42
			c-75.871,51.73-215.156,42.623-303.424,44.703c-161.16,3.807-328.168-6.891-488.031,14.969l-4.135,0.758
			c-6.334-33.797-17.273-63.883-34.408-85.793c-16.322-20.881-38.289-33.807-67.281-34.641L4767.068,3701.549z"/>
		<path id="_x31_80610557" fill="#54BF94" stroke="#000000" d="M4882.939,3821.982l4.135-0.758
			c159.867-21.861,326.871-11.164,488.033-14.967c88.27-2.08,227.553,7.027,303.424-44.703l3.498-4.42
			c26.891,36.486,39.713,76.404,21.75,118.648c-50.24,118.156-241.109,190.828-333.74,262.656
			c-116.227,90.131-136.564,222.49-177.523,354.584c-16.771,54.086-47.139,101.953-86.291,141.143l5.684-5
			c-25.35-49.844-41.256-111.365-84.689-148.701c-81.766-70.281-206.492-88.576-289.939-162.221l0.561,0.289
			c63.076-121.828,105.713-167.75,125.932-226.928C4883.012,4035.314,4900.309,3914.693,4882.939,3821.982z"/>
		<path id="_x31_80610559" fill="#54BF94" stroke="#000000" d="M4408.584,4692.324c-10.338-18.799-15.822-40.768-22.727-64.199
			c-21.244-72.094-43.209-145.744-76.449-213.393c-26.959-54.863-65.369-102.416-71.488-166.459
			c-3.854-40.342,2.68-80.822,0.389-121.203c-1.844-32.506-4.59-72.266-20.193-102.014c-12.543-23.92-37.695-36.465-52.6-58.301
			c-4.309-6.311-20.209-37.609-10.949-35.434c9.639,2.27,26.428-1.957,35.752-5.492c16.715-6.354,31.285-18.008,45.943-27.988
			c27.965-19.045,51.541-47.221,80.176-57.676c83.668-30.543,142.021-23.963,178.67-25.699c12.406-0.588,19.18-0.209,25.367,0.133
			c3.279,0.184,5.721,1.365,10.23,0.172c78.547-20.789,77.359-11.352,77.359-11.352c-9.58,2.479-35.359,15.512-41.48,40.559
			c-6.975,28.547,9.244,65.125,21.389,90.094c7.457,15.326,16.168,30.85,27.674,43.543c0.008,0.008,0.016,0.016,0.021,0.021
			c6.854,7.518,22.674,9.531,27.998,17.23c8.613,12.453-1.381,21.438-9.209,35.391c-15.49,27.619-31.082,55.463-40.848,85.742
			c-16.738,51.893-6.77,110.387,9.732,161.006c7.955,24.393,18.229,48.309,31.445,70.338c9.994,16.639,28.852,27.48,35.102,46.418
			c8.08,24.477,4.32,59.373,2.551,84.705c-4.115,58.945-19.92,116.846-45.955,169.883c-14.516,29.57-38.072,78.576-68.5,94.633
			c-26.785,14.133-68.443,5.875-95.273-4.555C4434.98,4727.652,4419.215,4711.666,4408.584,4692.324z"/>
		<path id="_x31_80610556" fill="#54BF94" stroke="#000000" d="M5111.912,4629.17c-25.35-49.844-41.254-111.363-84.689-148.701
			c-81.764-70.281-206.492-88.576-289.936-162.219l0.559,0.289c-9.879,19.076-20.254,40.016-31.127,63.158
			c-8.682,18.479-22.613,18.934-38.002,7.271l1.166,4.797c8.078,24.477,4.316,59.371,2.549,84.707
			c-4.113,58.943-19.92,116.844-45.953,169.881c-14.514,29.57-38.072,78.576-68.5,94.633l0.24-3.803
			c39.238-3.51,78.408-10.172,102.502-8.078c97.105,8.451,195.875,28.563,291.246-2.549c5.117-1.672,10.205-3.449,15.258-5.332
			c51.912-19.365,99.852-49.871,139.004-89.057L5111.912,4629.17z"/>
		<path id="_x31_80610560" fill="#54BF94" stroke="#000000" d="M4137.941,3927.064c-6.359-1.668-13.617-3.09-19.082-4.842
			c-11.139-3.574-21.883-8.516-32.404-13.588c-20.906-10.07-41.082-21.686-62.619-30.424
			c-77.426-31.416-174.582-44.393-230.037-75.969c-7.327-4.17,5.314,65.842,4.34,111.83c-2.627,123.328,7.337,262.9,1.154,390.563
			c-6.481,134.102-3.895,259.863,32.715,390.49c10.275,36.637,23.477,74.756,53.031,45.904
			c59.682-58.275,151.355-210.406,236.449-311.104c51.67-61.158,103.848-104.982,138.723-103.658l0.117-2.463
			c-11.135-23.383-19.77-47.926-22.41-75.527c-3.854-40.344,2.68-80.822,0.389-121.201c-1.844-32.51-4.592-72.268-20.195-102.018
			c-15.727-29.988-51.654-44.088-62.742-77.178c-2.785-8.307-0.549-14.404-8.734-17.986
			C4144.213,3928.834,4141.195,3927.916,4137.941,3927.064z"/>
		<path id="_x31_80610561" fill="#54BF94" stroke="#000000" d="M5036.555,5036.209c-33.732-14.561,191.236-258.818,229.475-318.064
			c49.443-76.588,107.752-140.057,166.92-210.676c108.334-129.309,219.35-263.109,326.658-390.969
			c30.742-36.627,83.619-105.375,126.199-126.008c25.348-12.277,49.908,11.115,49.908,11.115
			c-25.256,87.967-63.074,165.586-116.74,249.58c92.658-143.607,149.68-276.584,138.334-453.854
			c-0.787-12.418,34.055-85.852-145.193-176.773c-115.051-58.361-265.674-139.67-384.914-202.205
			c-213.656-112.055-405.805-191.723-416.279-208.43l-2.707-0.266c-251.047-83.742-336.068-47.361-396.311-21.949l23.824,153.068
			l5.391,4.193c44.523,12.031,116.207,20.982,161.693,27.635c245.32,35.877,513.023,85.271,708.455,238.719
			c46.295,36.352,127.088,86.547,170.762,145.805c26.893,36.488,39.715,76.406,21.752,118.65
			c-50.24,118.154-241.109,190.828-333.742,262.658c-116.225,90.131-136.564,222.488-177.521,354.582
			c-15.988,51.566-44.342,97.473-80.881,135.6c0.09,0.182,0.178,0.365,0.273,0.545l-5.684,5
			c-39.154,39.184-87.094,69.693-139.004,89.057c-5.051,1.885-10.139,3.664-15.26,5.33c-95.369,31.113-194.139,11-291.244,2.551
			c-22.686-1.971-58.734,3.816-95.619,7.43c-2.332,1.668-4.705,3.174-7.123,4.449c-26.785,14.133-68.445,5.875-95.271-4.555
			c-27.729-10.779-43.49-26.766-54.123-46.107c-4.391-7.988-7.902-16.547-11.021-25.547c2.064,6.686,4.135,13.373,6.211,20.057
			c10.088,32.438,20.217,64.852,29.23,97.678c9.617,35.018,22.832,76.598,15.27,113.184c-6.057,29.291-30.639,66.422-60.873,75.324
			l7.617-0.344c-26.232,21.506-58.164,41.16-87.318,63.172c-34.254,25.836-58.393,36.01-93.947,79.652
			c331.15,168.344,748.732,11.611,1015.291-192.033C5147.594,4983.855,5052.014,5042.879,5036.555,5036.209z"/>
		<path id="_x31_80610568" fill="#62D09F" stroke="#000000" d="M4157.428,3409.387c-9.016-3.016-18.371-5.578-28.158-7.602
			c-37.221-7.723-74.766-12.102-112.484-15.307c-38.383-3.205-76.932-5.156-115.4-8.111c-19.15-1.561-46.248-6.457-62.545-0.914
			c-4.68,1.596-8.268,5.029-11.021,9.551c-5.422,8.953-7.746,22-9.318,33.457l-13.68,81.545
			c-10.519,69.75-15.933,139.742-15.163,210.646c0.382,30.938-0.448,36.541,1.183,67.393c0.92-0.002,44.68,19.668,47.943,20.75
			c61.404,21.65,130.139,25.816,188.957,52.07c18.24,8.117,35.738,18.678,53.533,28.531
			C4026.012,3716.904,3972.678,3523.316,4157.428,3409.387z"/>
		<path id="_x31_80610567" fill="#62D09F" stroke="#000000" d="M4561.908,3628.795c-90.195-42.096-180.047-75.498-261.32-135.498
			c-35.66-26.287-68.643-52.412-106.629-71.17c-10.73-5.275-21.869-9.965-33.582-13.883
			c-180.445,111.207-137.836,298.781-80.996,469.309c22.861,12.828,46.057,24.965,71.799,29.684
			c48.092,8.797,79.73-26.033,112.465-54.846c57.119-50.25,126.768-51.523,199.678-52.295c18.063-0.195,45.99,0.434,45.99,0.434
			c-6.281-6.346,0.309-18.227,10.742-30.033c0.082-0.084,0.168-0.166,0.25-0.332c9.852-10.971,22.881-21.859,31.736-27.891
			c8.771-6.033,18.207-12.732,28.064-19.105c20.801-13.91,43.523-26.816,66.43-31.115
			C4646.533,3692.053,4602.154,3647.549,4561.908,3628.795z"/>
		<path id="_x31_80610566" fill="#62D09F" stroke="#000000" d="M4395.018,4972.676c-26.23,21.506-58.164,41.162-87.318,63.172
			c-34.27,25.852-58.418,36.02-94.01,79.725c-21.494-9.992-28.455-13.516-47.654-25.877c-10.885-7.002-20.922-13.158-33.717-22.324
			c-15.836-11.348-81.055-63.41-107.928-87.965c-44.791-40.926-84.111-84.826-118.854-134.555
			c-11.311-16.184-29.1-43.674-39.131-65.223c49.281-26.977,78.381-83.066,97.596-102.338
			c21.828-21.893,90.576-133.756,160.09-220.613l3.055,0.291c-0.336,159.09-85.908,476.254,134.971,513.238
			c40.721,6.826,83.961,7.955,124.943,2.832L4395.018,4972.676z"/>
		<path id="_x31_80610565" fill="#62D09F" stroke="#000000" d="M4403.773,4686.834c-6.074-19.529-12.131-39.068-17.916-58.709
			c-21.244-72.094-43.211-145.744-76.451-213.393c-8.957-18.229-21.896-56.041-42.998-63.223
			c-15.623-5.322-38.775,4.748-51.828,13.363c-10.074,6.646-90.168,82.35-85.777,85.955c-0.002-0.002-1.709-1.402-1.709-1.402
			c2.543,156.371-89.404,483.201,135.02,520.779c37.357,6.254,87.07,13.244,124.264,3.125c30.701-8.35,55.771-46.014,61.895-75.633
			c7.561-36.588-5.652-78.17-15.271-113.186C4423.99,4751.688,4413.859,4719.271,4403.773,4686.834z"/>
		<path id="_x31_80610564" fill="#6ACBBA" stroke="#000000" d="M4466.969,3347.252c52.594-0.17,95.025-2.336,145.859-0.16
			c-3.801-24.418-6.186-49.242-6.818-74.586c-0.709-27.758-1.332-55.518-2.959-83.189c0.008,6.02-65.594,29.945-73.449,34.053
			c-45.703,24.063-92.246,45.871-137.947,69.348c-33.758,17.434-67.105,35.77-99.086,56.748
			C4349.871,3344.48,4409.605,3347.438,4466.969,3347.252z"/>
		<path id="_x31_80610563" fill="#6ACBBA" stroke="#000000" d="M4579.105,3454.463c20.494,2.846,41.855,8.795,62.563,10.211
			c-12.5-38.432-22.592-77.461-28.84-117.582c-50.834-2.176-93.266-0.01-145.861,0.16c-57.361,0.188-117.096-2.771-174.402,2.211
			c-0.471,0.311-0.947,0.613-1.416,0.926c-4.676,3.016-9.273,6.117-13.867,9.301c-11.775,8.131-30.912,17.688-34.736,32.992
			c-6.65,26.518,29.252,48.873,47.916,60.471c7.533,4.711,14.961,9.459,22.324,14.227c0.334-0.131,0.67-0.26,1.006-0.389
			c-0.34,0.129-0.674,0.258-1.006,0.389c0.455,0.295,0.912,0.59,1.369,0.885C4398.816,3448.191,4491.473,3442.283,4579.105,3454.463
			z"/>
		<path id="_x31_80610562" fill="#6ACBBA" stroke="#000000" d="M4737.645,3695.826c-6.131-19.141-27.928-59.578-38.166-83.309
			c-21.252-48.988-41.568-97.91-57.811-147.842c-20.707-1.42-42.066-7.365-62.563-10.211
			c-87.633-12.182-180.289-6.271-264.951,13.799c57.545,37.305,110.898,75.563,174.479,105.51
			c52.465,24.844,113.287,51.93,156.988,90.58c17.246,15.191,13.219,4.662,22.863,25.051c12.795,1.15,21.824,1.893,28.85,2.633
			c16.641,1.564,22.16,2.393,40.725,5.127C4737.896,3696.744,4737.813,3696.246,4737.645,3695.826z"/>
		<path id="_x31_80610604" fill="#CCCCCC" stroke="#000000" d="M4848.533,3736.191c-16.324-20.881-38.291-33.807-67.281-34.643
			c-42.957-1.225-85.246-15-128.393-11.605c-36.805,2.889-73.961,30.965-103.879,51.447c-18.459,12.625-70.184,49.143-30.635,69.127
			c16.027,8.102,29.215-0.877,44.818-4.008c22.602-4.535,55.057-10.189,76.543,1.127c48.475,25.545,54.717,73.836,40.924,122.93
			c-18.738,66.689-66.148,120.738-87.02,185.428c-40.379,125.178,78.389,339.619,113.109,265.703
			c80.303-170.928,133.68-221.641,157.059-290.086C4890.025,4014.793,4912.664,3818.203,4848.533,3736.191z"/>
		<path id="_x31_80610605" fill="#CCCCCC" stroke="#000000" d="M5935.717,4001.609c0,0-24.563-23.393-49.91-11.117
			c-42.58,20.635-95.455,89.383-126.199,126.01c-107.309,127.863-218.324,261.66-326.658,390.969
			c-59.166,70.619-117.477,134.088-166.92,210.676c-38.238,59.246-263.207,303.504-229.475,318.066
			c15.459,6.67,111.039-52.354,192.488-112.742c0.814-0.623,1.635-1.248,2.451-1.869c21.127-16.225,41.611-32.635,61.516-49.238
			c27.848-23.699,47.232-41.91,47.232-41.91c173.674-152.43,303.133-325.711,435.941-515.482c0.604-0.861,1.188-1.707,1.785-2.566
			c14.307-20.713,28.004-41.066,41.004-61.211C5872.641,4167.193,5910.459,4089.574,5935.717,4001.609z"/>
		<path id="_x31_80610603" fill="#AAAAAA" stroke="#000000" d="M4608.064,3803.422c-9.582,2.479-35.361,15.512-41.482,40.561
			c-6.975,28.545,9.244,65.123,21.389,90.094c7.457,15.326,16.166,30.848,27.674,43.541c0.006,0.008,0.016,0.018,0.023,0.023
			c6.852,7.518,22.674,9.531,27.996,17.229c3.494,5.055,3.928,9.537,2.682,14.014c13.74-25.033,26.492-50.582,34.285-78.314
			c13.797-49.098,7.551-97.387-40.924-122.932c-11.641-6.131-26.496-7.275-41.266-6.32
			C4608.363,3800.998,4608.064,3803.422,4608.064,3803.422z"/>
	</g>
</g>
<g transform="scale(1.0)">
	<g id="_x31_80610550_1_" transform=" scale(1.0, 1.0)">
		<path id="_x31_80610552_1_" fill="#BFDAE3" stroke="#000000" d="M3593.273,3440.892c5.484,45.766,22.813,126.359,24.758,225.793
			c2.113,108.087-10.078,238.465-11.689,370.666c-3.168,259.2,28,445.008-31.605,657.72
			c-42.535,151.756-177.374,285.679-307.141,375.817c-341.738,237.404-805.503,70.902-1092.329-149.298
			c-225.505-173.131-377.573-367.738-534.271-591.646c-123.174-176.012-204.925-323.492-191.54-532.612
			c0.785-12.418-34.057-85.851,145.191-176.773c115.053-58.362,265.676-139.67,384.914-202.208
			c213.657-112.054,405.807-191.722,416.279-208.428c9.088-14.508-288.665,139.631-535.521,273.058
			c-320.74,173.352-429.104,200.598-494.226,141.429c-91.284-82.939-185.786-209.792-255.904-359.909
			c-173.534-371.522-258.043-803.063-190.682-1126.271c113.879-546.414,527.371-1061.876,1147.404-1301.317
			c356.472-137.66,1087.411-299.437,1375.299,102.324c78.896,110.117,173.267,214.3,218.3,333.378
			c56.67,149.868,40.039,348.056,40.99,565.846c1.59,361.9-1.061,733.017-1.574,1084.2c-0.215,149.884,7.232,350.867-123.301,454.11
			C3576.625,3376.769,3591.467,3425.898,3593.273,3440.892z"/>
		<path id="_x31_80610553_1_" fill="#B0FFB8" stroke="#000000" d="M1110.185,3264.544
			c70.119,150.12,164.622,276.974,255.904,359.914c52.929,48.089,134.415,39.097,335.248-59.013
			c-37.448,19.624-73.548,38.345-106.693,55.157c-179.243,90.93-144.397,164.36-145.19,176.777
			c-13.379,209.123,68.377,356.605,191.551,532.62c156.689,223.912,308.766,418.52,534.27,591.655
			c286.83,220.198,750.598,386.703,1092.336,149.295c129.765-90.143,264.607-224.066,307.144-375.826
			c59.604-212.711,28.434-398.522,31.598-657.721c1.613-132.206,13.805-262.583,11.691-370.675
			c-1.945-99.435-19.271-180.028-24.758-225.796c-1.809-15.007-16.645-64.131-16.645-64.131
			c130.533-103.246,122.873-304.234,123.301-454.116c0.994-350.699,1.994-730.244,1.563-1084.217
			c-0.262-217.793,15.691-415.983-40.986-565.848c-45.033-119.082-139.403-223.262-218.304-333.386
			c-287.891-401.764-1018.831-239.982-1375.307-102.32c-620.031,239.448-1033.525,754.921-1147.404,1301.342
			C852.144,2461.469,936.653,2893.013,1110.185,3264.544z M2767.059,3807.637c11.642-6.132,26.498-7.279,41.266-6.324
			c-9.924-0.313-9.625,2.108-9.625,2.108c9.58,2.48,35.359,15.513,41.48,40.561c6.976,28.547-9.244,65.125-21.387,90.093
			c-7.458,15.327-16.164,30.851-27.674,43.541c-0.007,0.008-0.016,0.016-0.023,0.024c-6.851,7.518-22.672,9.53-27.997,17.229
			c-3.493,5.056-3.927,9.539-2.681,14.012c-13.74-25.033-26.492-50.58-34.286-78.314
			C2712.337,3881.472,2718.581,3833.181,2767.059,3807.637z"/>
		<path id="_x31_80610584_1_" fill="#1F9D5A" stroke="#000000" d="M1827.659,948.287l2.171,3.934l63.089,85.796
			c-101.321,45.006-183.176,99.739-258.51,156.406c-91.237,68.765-124.6,125.491-195.214,215.441
			c-112.67,143.487-193.402,290.533-260.627,463.435c-54.719,140.729-92.884,279.976-90.092,432.994
			c3.878,209.46,46.302,419.311,117.759,615.491c20.156,55.464,39.051,113.937,59.703,172.249l-169.599,137.051l-1.172,0.499
			c-163.36-363.875-241.02-779.638-175.684-1093.349C1018.081,1665.452,1340.81,1215.901,1827.659,948.287z"/>
		<path id="_x31_80610583_1_" fill="#1F9D5A" stroke="#000000" d="M1439.193,1409.862
			c70.616-89.951,103.979-146.678,195.215-215.443c75.333-56.667,157.188-111.4,258.509-156.406l246.096,334.73
			c-175.774,127.51-274.401,217.253-423.31,441.962c-127.034,191.629-151.04,371.867-176.466,610.134
			c-12.209,114.366-28.967,314.768,17.935,433.902l-291.233,235.291c-20.652-58.31-39.548-116.786-59.703-172.249
			c-71.455-196.182-113.881-406.031-117.759-615.491c-2.792-153.017,35.373-292.265,90.092-432.994
			C1245.792,1700.396,1326.525,1553.351,1439.193,1409.862z"/>
		<path id="_x31_80610582_1_" fill="#1F9D5A" stroke="#000000" d="M1715.705,1814.705
			c148.907-224.709,247.534-314.451,423.309-441.961l311.603,423.874c-31.888,20.522-62.017,41.047-89.721,59.402
			c-218.442,145.176-387.936,322.781-502.508,570.7c-51.247,110.716-35.774,165.337,9.604,180.873l-310.82,251.147
			c-46.9-119.134-30.141-319.536-17.936-433.901C1564.663,2186.573,1588.668,2006.335,1715.705,1814.705z"/>
		<path id="_x31_80610581_1_" fill="#1F9D5A" stroke="#000000" d="M2270.235,2278.563c-59.188,47.659-99.623,84.475-99.623,84.475
			l-302.619,244.557c-45.38-15.534-60.853-70.156-9.604-180.872c114.57-247.922,284.064-425.524,502.507-570.7
			c27.704-18.354,57.833-38.88,89.72-59.402l199.28,271.031l-0.002,0.669c-0.835,0-1.672-0.003-2.592,0.081
			C2546.042,2070.677,2377.383,2192.345,2270.235,2278.563z"/>
		<path id="_x31_80610588_1_" fill="#1F9D5A" stroke="#000000" d="M2066.878,836.92
			c356.478-137.702,1087.416-299.444,1375.303,102.322c3.506,4.938,7.012,9.791,10.681,14.648l-0.92,0.668l-96.936,134.73
			c-27.633-29.894-57.86-57.863-90.517-83.746c-92.538-73.38-230.054-152.679-348.842-170.993
			c-192.02-29.544-416.741,5.752-596.849,66.698c-114.943,38.801-221.251,61.974-335.773,101.36
			c-31.792,10.906-61.744,22.82-90.105,35.405l-63.087-85.795l-2.172-3.934C1903.477,906.503,1983.3,869.159,2066.878,836.92z"/>
		<path id="_x31_80610587_1_" fill="#1F9D5A" stroke="#000000" d="M1983.02,1002.607c114.526-39.385,220.83-62.561,335.773-101.358
			c180.107-60.946,404.83-96.242,596.849-66.7c118.788,18.316,256.304,97.612,348.843,170.994
			c32.655,25.883,62.885,53.854,90.516,83.744l-143.686,199.632c-64.825-98.757-169.085-161.535-325.421-176.311
			c-119.804-11.292-177.849,1.583-301.063,38.614c-119.875,36.033-317.841,129.395-423.89,205.666
			c-7.445,5.341-14.731,10.599-21.927,15.856l-246.096-334.731C1921.282,1025.43,1951.232,1013.515,1983.02,1002.607z"/>
		<path id="_x31_80610586_1_" fill="#1F9D5A" stroke="#000000" d="M2160.945,1356.888c106.052-76.27,304.017-169.632,423.89-205.666
			c123.213-37.031,181.26-49.906,301.063-38.613c156.337,14.775,260.596,77.552,325.422,176.313l-300.024,416.803
			c-148.369-88.594-321.331,1.125-460.677,90.896l-311.604-423.874C2146.211,1367.487,2153.496,1362.229,2160.945,1356.888z"/>
		<path id="_x31_80610585_1_" fill="#1F9D5A" stroke="#000000" d="M2911.294,1705.726l-258.554,359.255l-2.333-4.185l-0.512,6.856
			l-199.28-271.033C2589.963,1706.851,2762.923,1617.13,2911.294,1705.726z"/>
		<path id="_x31_80610592_1_" fill="#40A666" stroke="#000000" d="M3452.862,953.891
			c76.523,104.797,164.591,204.926,207.654,318.704c11.912,31.624,20.645,65.333,26.945,100.962l-127.719,85.605
			c-39.769-137.438-107.228-265.046-204.737-369.874l96.935-134.729L3452.862,953.891z"/>
		<path id="_x31_80610591_1_" fill="#40A666" stroke="#000000" d="M3559.74,1459.163l-10.462,7.009
			c-12.713,3.91-21.839,10.505-28.288,18.939l-205.554,137.668c-9.883-48.515-22.009-104.385-37.048-169.542
			c-14.291-62.062-36.2-117.28-67.071-164.316l143.688-199.633C3452.514,1194.115,3519.972,1321.725,3559.74,1459.163z"/>
		<path id="_x31_80610590_1_" fill="#40A666" stroke="#000000" d="M3278.39,1453.237c15.04,65.157,27.165,121.031,37.048,169.543
			l-293.1,196.405c-7.427-12.971-15.184-24.774-23.113-34.65c-27.963-34.906-57.439-60.619-87.933-78.811l300.024-416.804
			C3242.188,1335.956,3264.097,1391.174,3278.39,1453.237z"/>
		<path id="_x31_80610589_1_" fill="#40A666" stroke="#000000" d="M2911.292,1705.722c30.495,18.191,59.972,43.903,87.933,78.811
			c7.93,9.877,15.688,21.681,23.113,34.65l-368.846,247.052l-0.752-1.255L2911.292,1705.722z"/>
		<path id="_x31_80610597_1_" fill="#2FA850" stroke="#000000" d="M3701.508,1838.473c0.188,158.87-0.059,329.108-0.385,497.426
			l-60.514-15.39c-5.262-236.72-16.367-479.22-48.479-708.954c-7.197-51.684-17.994-102.705-32.389-152.393l127.719-85.605
			C3711.182,1506.873,3701.252,1666.563,3701.508,1838.473z"/>
		<path id="_x31_80610596_1_" fill="#2FA850" stroke="#000000" d="M3559.744,1459.163c14.393,49.688,25.188,100.708,32.389,152.392
			c32.111,229.736,43.215,472.233,48.477,708.956l-85.174-21.612c-0.527-96.994,0.268-183.033-1.934-282.287
			c-2.431-111.546-10.687-240.909-24.577-351.217c-6.199-49.51-40.102-138.356-7.934-180.285l28.288-18.939L3559.744,1459.163z"/>
		<path id="_x31_80610595_1_" fill="#2FA850" stroke="#000000" d="M3528.924,1665.394c13.889,110.306,22.146,239.67,24.578,351.217
			c2.197,99.254,1.404,185.293,1.934,282.287l-169.341-42.972c0.935-125.421-3.999-240.397-16.432-317.593
			c-12.595-78.616-22.345-159.988-54.225-315.556l205.553-137.668C3488.822,1527.038,3522.724,1615.886,3528.924,1665.394z"/>
		<path id="_x31_80610594_1_" fill="#2FA850" stroke="#000000" d="M3369.667,1938.334c12.431,77.196,17.364,192.172,16.431,317.593
			l-257.854-65.422c-10.443-64.231-24.316-128.135-34.612-177.315c-11.376-54.533-38.266-136.432-71.292-194.006l293.1-196.405
			C3347.32,1778.346,3357.069,1859.718,3369.667,1938.334z"/>
		<path id="_x31_80610593_1_" fill="#2FA850" stroke="#000000" d="M3022.336,1819.182c33.029,57.574,59.918,139.471,71.292,194.006
			c10.298,49.181,24.17,113.081,34.612,177.313l-472.329-119.916l-2.421-4.35L3022.336,1819.182z"/>
		<path id="_x31_80610576_1_" fill="#248A5E" stroke="#000000" d="M1822.204,3395.6c104.762-53.026,209.525-106.976,311.286-165.526
			c82.342-47.457,144.152-118.942,218.485-177.199c68.727-53.916,120.967-98.072,203.034-128.559
			c11.38-4.243,22.587-7.489,33.628-9.815l-17.831,246.221l0.248,1.839c-51.098,6.197-102.958,19.332-146.633,39.754
			c-23.346,10.921-45.936,21.424-68.024,31.509c22.845-11.59,36.82-19.681,39.417-23.855c5.531-8.77-100.9,43.92-240.389,116.546
			c-10.208,4.832-20.418,9.753-30.791,14.754c-43.178,20.925-82.003,42.023-120.08,64.125c-8.285,4.255-16.653,8.589-25.022,13.009
			c-72.128,37.856-155.724,82.554-236.054,124.829l-0.999-1.84l56.047-133.702C1806.389,3403.686,1814.255,3399.599,1822.204,3395.6
			z"/>
		<path id="_x31_80610575_1_" fill="#248A5E" stroke="#000000" d="M2147.592,2845.213
			c148.117-84.155,294.616-205.269,463.145-236.715l-22.098,305.914l-0.002,0.084c-11.041,2.324-22.248,5.57-33.628,9.815
			c-82.067,30.486-134.306,74.644-203.033,128.559c-74.332,58.258-136.143,129.743-218.486,177.201
			c-101.76,58.547-206.522,112.496-311.284,165.525c-7.95,4.002-15.816,8.086-23.68,12.089l203.044-484.756
			C2048.845,2900.423,2097.547,2873.653,2147.592,2845.213z"/>
		<path id="_x31_80610574_1_" fill="#248A5E" stroke="#000000" d="M2502.364,2324.47c44.668-13.146,87.905-18.27,130.211-17.12
			l-21.84,301.149c-168.526,31.445-315.025,152.561-463.145,236.714c-50.043,28.439-98.745,55.209-146.021,77.719l187.693-448.071
			C2281.321,2417.632,2379.566,2360.581,2502.364,2324.47z"/>
		<path id="_x31_80610573_1_" fill="#248A5E" stroke="#000000" d="M2270.233,2278.563
			c107.148-86.218,275.807-207.888,377.067-210.163l2.508,0.672l-17.233,238.277c-42.309-1.148-85.543,3.974-130.213,17.12
			c-122.796,36.111-221.041,93.161-313.099,150.391l81.804-195.291L2270.233,2278.563z"/>
		<path id="_x31_80610602_1_" fill="#248A5E" stroke="#000000" d="M3381.512,3287.81c30.468-23.955,58.932-47.827,83.705-64.263
			c220.785-146.593,181.957-472.328,178.781-703.695c-0.824-65.723-1.9-132.281-3.393-199.343l60.518,15.39
			c-0.385,206.695-0.932,410.38-1.184,586.808c-0.217,149.839,7.271,350.858-123.316,454.102c0,0,1,3.18,2.412,8.196
			c-2.752-4.518-6.342-7.952-11.023-9.548c-16.295-5.542-43.395-0.648-62.543,0.914c-38.468,2.953-77.018,4.906-115.399,8.109
			l-0.162-2.339l-39.532-70.712C3360.918,3303.75,3371.301,3295.739,3381.512,3287.81z"/>
		<path id="_x31_80610601_1_" fill="#248A5E" stroke="#000000" d="M3558.426,2484.861c-1.99-68.902-2.654-129.271-2.992-185.963
			l85.174,21.61c1.492,67.062,2.564,133.62,3.391,199.343c3.176,231.367,42.006,557.104-178.78,703.695
			c-24.772,16.435-53.236,40.308-83.705,64.263l-2.59-3.266c-82.026-113.834,96.676-243.095,143.887-336.673
			C3611.947,2771.569,3563.52,2664.975,3558.426,2484.861z"/>
		<path id="_x31_80610600_1_" fill="#248A5E" stroke="#000000" d="M3084.219,2740.623c127.383,89.068,246.329,170.931,264.73,50.553
			c21.779-142.783,35.874-350.377,37.145-535.247l169.339,42.971c0.338,56.691,1.002,117.061,2.992,185.963
			c5.092,180.113,53.52,286.709-35.617,463.01c-47.21,93.578-225.912,222.839-143.888,336.674l2.591,3.265
			c-10.212,7.929-20.594,15.94-31.138,23.619l-346.688-619.419C3033.093,2707.438,3060.33,2723.949,3084.219,2740.623z"/>
		<path id="_x31_80610599_1_" fill="#248A5E" stroke="#000000" d="M3023.35,2447.887c135.935,73.274,131.661-93.04,104.891-257.382
			l257.854,65.423c-1.271,184.869-15.364,392.465-37.144,535.248c-18.401,120.378-137.349,38.514-264.732-50.552
			c-23.89-16.675-51.127-33.186-80.533-48.613L2809.2,2344.562C2880.983,2371.254,2951.583,2409.151,3023.35,2447.887z"/>
		<path id="_x31_80610598_1_" fill="#248A5E" stroke="#000000" d="M3128.241,2190.501
			c26.769,164.343,31.046,330.658-104.891,257.383c-71.767-38.732-142.366-76.627-214.152-103.322l-153.286-273.977
			L3128.241,2190.501z"/>
		<path id="_x31_80610572_1_" fill="#248A5E" stroke="#000000" d="M2570.808,3160.715l0.248,1.839
			c81.118-9.833,160.458-2.358,203.152,20.78l29.505,5.895l0.001,0.084c-0.006,6.021,65.597,29.944,73.45,34.054
			c45.701,24.063,92.242,45.869,137.947,69.348c34.257,17.692,68.09,36.303,100.502,57.673c4.678,3.017,9.275,6.117,13.866,9.302
			c11.781,8.128,30.913,17.687,34.736,32.992l50.046,25.408l1.585,3.182c18.993-9.337,39.239-16.836,61.739-21.484
			c37.219-7.721,74.768-12.102,112.482-15.307l-0.162-2.341l-39.53-70.712c-49.387,35.965-102.191,65.823-151.933,61.405
			c-25.834-2.296-52.324-13.706-77.718-30.214c-54.717-35.615-104.633-95.138-133.415-139.076
			c-89.188-136.252-218.427-328.753-398.672-289.129l-0.002,0.083L2570.808,3160.715z"/>
		<path id="_x31_80610571_1_" fill="#248A5E" stroke="#000000" d="M2644.107,2603.446c110.223-12.467,250.128,31.046,359.58,88.564
			l346.689,619.417c-49.387,35.964-102.191,65.823-151.933,61.405c-25.834-2.296-52.324-13.706-77.718-30.214
			c-54.717-35.615-104.633-95.138-133.415-139.076c-89.188-136.252-218.427-328.753-398.672-289.129l22.096-305.915
			C2621.776,2606.339,2632.899,2604.683,2644.107,2603.446z"/>
		<path id="_x31_80610570_1_" fill="#248A5E" stroke="#000000" d="M2809.2,2344.563l194.487,347.449
			c-109.454-57.518-249.359-101.031-359.58-88.564c-11.208,1.236-22.331,2.893-33.372,5.052l21.84-301.149
			C2693.11,2308.857,2751.535,2323.072,2809.2,2344.563z"/>
		<path id="_x31_80610569_1_" fill="#248A5E" stroke="#000000" d="M2655.912,2070.585l153.288,273.977
			c-57.665-21.49-116.09-35.703-176.625-37.212l17.235-238.277L2655.912,2070.585z"/>
		<path id="_x31_80610580_1_" fill="#219866" stroke="#000000" d="M1265.936,3094.034
			c37.725,106.663,81.217,212.831,149.072,298.802c119.682,151.682,244.363,86.226,383.516,14.852l-56.047,133.702l1.001,1.84
			c-14.31,7.589-28.535,15.094-42.593,22.432c-200.479,97.874-281.934,106.787-334.792,58.801
			c-91.271-82.912-185.821-209.807-255.924-359.914c-5.085-10.96-10.168-21.921-15.002-32.965l1.172-0.499L1265.936,3094.034z"/>
		<path id="_x31_80610579_1_" fill="#219866" stroke="#000000" d="M1609.575,2933.57c116.514,86.959,247.832,58.136,391.997-10.638
			l-203.044,484.755c-139.154,71.373-263.834,136.833-383.518-14.851c-67.855-85.971-111.346-192.141-149.07-298.804
			l291.233-235.292C1569.667,2890.534,1586.686,2916.563,1609.575,2933.57z"/>
		<path id="_x31_80610578_1_" fill="#219866" stroke="#000000" d="M2022.726,2575.041c55.981-30.188,110.131-65.229,166.537-100.181
			l-187.693,448.071c-144.165,68.774-275.481,97.6-391.995,10.639c-22.889-17.009-39.909-43.036-52.404-74.827l310.822-251.148
			C1905.767,2620.609,1964.483,2606.478,2022.726,2575.041z"/>
		<path id="_x31_80610577_1_" fill="#219866" stroke="#000000" d="M2270.235,2278.565l0.832,1.005l-81.804,195.291
			c-56.406,34.952-110.556,69.991-166.537,100.18c-58.243,31.437-116.959,45.569-154.731,32.555l302.617-244.557
			C2170.612,2363.039,2211.049,2326.224,2270.235,2278.565z"/>
		<path id="_x31_80610554_1_" fill="#9AD2BD" stroke="#000000" d="M1449.454,3797.339
			c-13.385,209.119,68.364,356.603,191.538,532.615c156.697,223.907,308.766,418.509,534.272,591.646
			c286.826,220.2,750.591,386.702,1092.33,149.297c129.767-90.14,264.604-224.063,307.138-375.818
			c59.605-212.712,28.438-398.52,31.605-657.719c1.613-132.202,13.807-262.579,11.691-370.667
			c-1.945-99.433-19.273-180.027-24.756-225.793c-1.809-15.005-11.232-49.802-11.232-49.802c-1.369-4.163-9.135-13.052-9.135-13.052
			s-41.351-1.437-96.035,1.396c-66.348,3.441-151.296,6.784-209.3,22.642c-26.017,7.112-37.5,11.552-49.132,17.933
			c-10.575-6.771-54.226-27.333-56.797-37.26c-62.698-48.297-260.854-160.582-334.902-182.865
			c-66.287-19.95-130.56-89.513-428.194,9.772l-2.708,0.265c-10.474,16.707-202.622,96.376-416.278,208.428
			c-119.239,62.537-269.862,143.847-384.914,202.208C1415.397,3711.486,1450.241,3784.919,1449.454,3797.339z M2767.059,3807.637
			c11.642-6.132,26.498-7.279,41.266-6.324c-9.924-0.313-9.625,2.108-9.625,2.108c9.58,2.48,35.359,15.513,41.48,40.561
			c6.976,28.547-9.244,65.125-21.387,90.093c-7.458,15.327-16.164,30.851-27.674,43.541c-0.007,0.008-0.016,0.016-0.023,0.024
			c-6.851,7.518-22.672,9.53-27.997,17.229c-3.493,5.056-3.927,9.539-2.681,14.012c-13.74-25.033-26.492-50.58-34.286-78.314
			C2712.337,3881.472,2718.581,3833.181,2767.059,3807.637z"/>
		<path id="_x31_80610555_1_" fill="#54BF94" stroke="#000000" d="M1448.038,3814.095c-0.142,93.362,7.421,138.766,30.362,211.873
			c31.353,99.984,91.45,202.361,162.608,304.028c156.691,223.914,308.767,418.521,534.27,591.655
			c161.856,124.276,472.718,280.791,731.949,262.35c98.105-6.976,175.602-15.774,257.188-57.465
			c18.909-9.667-52.591-55.832-104.382-94.909c-58.546-44.197-108.785-70.552-121.056-129.775
			c-10.373-50.185,20.438-153.266,56.149-274.453c31.773-107.827,90.502-251.646,128.623-291.066
			c31.324-32.396,96.824,17.013,161.525,93.593c85.092,100.696,176.768,252.829,236.45,311.105
			c29.553,28.85,42.753-9.269,53.031-45.906c36.607-130.625,39.193-256.388,32.715-390.49
			c-6.184-127.66,3.781-267.234,1.154-390.561c-0.977-45.991,11.666-116,4.34-111.831c-55.455,31.577-152.613,44.551-230.038,75.968
			c-44.853,18.194-85.161,45.969-130.728,53.114c-55.092,8.644-122.745-78.271-161.872-91.163
			c-63.724-20.996-90.893-27.305-214.222-25.394c71.068-25.172-39.587-95.169-94.947-116.149
			c-48.905-13.515-113.44-4.271-141.461,2.931c44.281-105.133,99.824-215.703,121.683-307.803
			c28.527-120.181,16.035-208.688,12.846-210.417c-69.619-37.728-236.853-33.785-349.811,19.01
			c-108.492,50.717-200.225,90.697-299.819,138.919c-90.942,44.027-162.192,88.853-248.252,141.789
			c-101.604,62.489-312.949,126.71-400.283,222.397C1450.697,3733.235,1448.095,3772.265,1448.038,3814.095z M2767.059,3807.637
			c11.642-6.132,26.498-7.279,41.266-6.324c-9.924-0.313-9.625,2.108-9.625,2.108c9.58,2.48,35.359,15.513,41.48,40.561
			c6.976,28.547-9.244,65.125-21.387,90.093c-7.458,15.327-16.164,30.851-27.674,43.541c-0.007,0.008-0.016,0.016-0.023,0.024
			c-6.851,7.518-22.672,9.53-27.997,17.229c-3.493,5.056-3.927,9.539-2.681,14.012c-13.74-25.033-26.492-50.58-34.286-78.314
			C2712.337,3881.472,2718.581,3833.181,2767.059,3807.637z"/>
		<path id="_x31_80610558_1_" fill="#54BF94" stroke="#000000" d="M2625.508,3701.552c-28.993,0.833-50.96,13.759-67.282,34.64
			c-17.135,21.91-28.073,51.996-34.407,85.794l-4.135-0.759c-159.864-21.859-326.871-11.162-488.032-14.969
			c-88.267-2.079-227.553,7.027-303.424-44.702l-3.497-4.42c43.676-59.259,124.468-109.454,170.764-145.805
			c195.43-153.45,463.133-202.844,708.452-238.72c45.486-6.652,117.171-15.603,161.693-27.634l6.271-4.877
			c-2.644,16.974-6.09,34.927-10.532,53.646c-21.856,92.098-77.401,202.67-121.685,307.803L2625.508,3701.552z"/>
		<path id="_x31_80610557_1_" fill="#54BF94" stroke="#000000" d="M2542.991,4091.605c20.219,59.179,62.854,105.101,125.932,226.929
			l0.56-0.289c-83.447,73.644-208.173,91.938-289.938,162.22c-43.435,37.337-59.34,98.857-84.689,148.701l5.683,5
			c-39.152-39.188-69.52-87.057-86.29-141.142c-40.96-132.094-61.298-264.454-177.523-354.584
			c-92.631-71.829-283.5-144.501-333.741-262.656c-17.962-42.244-5.14-82.163,21.751-118.648l3.498,4.42
			c75.87,51.73,215.154,42.623,303.424,44.702c161.161,3.804,328.165-6.895,488.032,14.967l4.136,0.759
			C2506.453,3914.693,2523.75,4035.315,2542.991,4091.605z"/>
		<path id="_x31_80610559_1_" fill="#54BF94" stroke="#000000" d="M2944.05,4738.429c-26.829,10.43-68.487,18.688-95.272,4.554
			c-30.428-16.057-53.985-65.062-68.5-94.633c-26.035-53.036-41.841-110.938-45.955-169.882c-1.77-25.333-5.529-60.229,2.55-84.706
			c6.25-18.938,25.107-29.778,35.103-46.417c13.217-22.029,23.49-45.946,31.444-70.338c16.503-50.62,26.471-109.113,9.732-161.007
			c-9.766-30.279-25.356-58.123-40.848-85.742c-7.827-13.953-17.821-22.937-9.208-35.391c5.324-7.699,21.145-9.713,27.997-17.229
			c0.006-0.006,0.014-0.015,0.022-0.022c11.506-12.693,20.216-28.216,27.674-43.543c12.145-24.968,28.362-61.546,21.389-90.093
			c-6.121-25.048-31.9-38.081-41.481-40.56c0,0-1.187-9.438,77.359,11.353c4.51,1.193,6.952,0.012,10.23-0.173
			c6.188-0.342,12.961-0.721,25.368-0.132c36.648,1.736,95.001-4.844,178.669,25.699c28.636,10.454,52.212,38.631,80.176,57.675
			c14.659,9.98,29.229,21.636,45.943,27.989c9.325,3.535,26.114,7.761,35.753,5.491c9.26-2.175-6.641,29.124-10.949,35.434
			c-14.904,21.837-40.057,34.381-52.601,58.302c-15.603,29.747-18.35,69.507-20.193,102.013
			c-2.291,40.382,4.243,80.862,0.389,121.203c-6.119,64.043-44.529,111.596-71.487,166.459
			c-33.24,67.648-55.206,141.3-76.45,213.394c-6.904,23.431-12.389,45.399-22.726,64.199
			C2987.547,4711.667,2971.781,4727.653,2944.05,4738.429z"/>
		<path id="_x31_80610556_1_" fill="#54BF94" stroke="#000000" d="M2300.533,4634.168c39.153,39.187,87.092,69.691,139.004,89.057
			c5.054,1.884,10.141,3.661,15.259,5.333c95.37,31.11,194.14,11,291.246,2.549c24.094-2.095,63.263,4.568,102.501,8.077
			l0.241,3.803c-30.428-16.056-53.986-65.062-68.5-94.633c-26.034-53.036-41.841-110.938-45.953-169.88
			c-1.768-25.337-5.529-60.231,2.548-84.708l1.166-4.797c-15.388,11.663-29.32,11.207-38.001-7.271
			c-10.873-23.143-21.249-44.081-31.127-63.157l0.559-0.29c-83.444,73.643-208.172,91.938-289.936,162.22
			c-43.437,37.338-59.341,98.856-84.689,148.7L2300.533,4634.168z"/>
		<path id="_x31_80610560_1_" fill="#54BF94" stroke="#000000" d="M3260.127,3929.896c-8.187,3.581-5.95,9.68-8.735,17.985
			c-11.088,33.09-47.015,47.19-62.742,77.179c-15.603,29.749-18.351,69.508-20.194,102.017c-2.291,40.38,4.242,80.858,0.389,121.201
			c-2.641,27.602-11.275,52.145-22.41,75.527l0.116,2.464c34.876-1.324,87.053,42.5,138.723,103.658
			c85.094,100.696,176.768,252.827,236.45,311.104c29.554,28.852,42.755-9.269,53.031-45.904
			c36.609-130.627,39.195-256.39,32.715-390.491c-6.184-127.661,3.781-267.233,1.154-390.563
			c-0.975-45.988,11.666-115.999,4.34-111.83c-55.455,31.577-152.611,44.553-230.038,75.969
			c-21.536,8.738-41.713,20.354-62.619,30.425c-10.521,5.071-21.266,10.013-32.403,13.587c-5.466,1.753-12.723,3.175-19.083,4.842
			C3265.567,3927.917,3262.549,3928.834,3260.127,3929.896z"/>
		<path id="_x31_80610561_1_" fill="#54BF94" stroke="#000000" d="M2177.72,4923.464
			c266.559,203.645,684.142,360.377,1015.292,192.033c-35.556-43.644-59.694-53.816-93.948-79.652
			c-29.153-22.012-61.086-41.667-87.317-63.173l7.617,0.345c-30.234-8.902-54.816-46.034-60.873-75.325
			c-7.563-36.586,5.652-78.166,15.269-113.184c9.014-32.825,19.144-65.239,29.23-97.678c2.077-6.684,4.147-13.37,6.212-20.056
			c-3.12,9-6.631,17.559-11.021,25.547c-10.633,19.342-26.396,35.327-54.124,46.107c-26.826,10.429-68.485,18.688-95.271,4.554
			c-2.419-1.275-4.791-2.78-7.123-4.448c-36.885-3.613-72.935-9.401-95.619-7.43c-97.105,8.449-195.875,28.562-291.245-2.551
			c-5.121-1.667-10.208-3.445-15.26-5.331c-51.91-19.363-99.849-49.872-139.004-89.057l-5.683-5
			c0.095-0.179,0.183-0.362,0.273-0.545c-36.54-38.126-64.894-84.032-80.881-135.599
			c-40.958-132.094-61.298-264.451-177.522-354.582c-92.632-71.831-283.501-144.505-333.742-262.659
			c-17.962-42.243-5.14-82.161,21.753-118.649c43.674-59.259,124.466-109.454,170.762-145.805
			c195.432-153.448,463.135-202.842,708.454-238.72c45.486-6.652,117.171-15.603,161.693-27.634l5.392-4.194l23.823-153.068
			c-60.242-25.411-145.263-61.793-396.311,21.95l-2.706,0.265c-10.476,16.707-202.624,96.376-416.28,208.43
			c-119.239,62.535-269.862,143.844-384.914,202.206c-179.247,90.921-144.405,164.355-145.192,176.773
			c-11.346,177.27,45.676,310.245,138.334,453.854c-53.666-83.995-91.485-161.613-116.74-249.58c0,0,24.561-23.393,49.908-11.116
			c42.58,20.634,95.457,89.381,126.199,126.009c107.309,127.859,218.323,261.659,326.658,390.968
			c59.167,70.619,117.477,134.089,166.92,210.676c38.237,59.246,263.206,303.505,229.474,318.064
			C2354.748,5042.879,2259.167,4983.856,2177.72,4923.464z"/>
		<path id="_x31_80610568_1_" fill="#62D09F" stroke="#000000" d="M3325.488,3881.397c17.795-9.854,35.294-20.414,53.533-28.531
			c58.819-26.254,127.553-30.42,188.958-52.07c3.264-1.082,47.023-20.752,47.943-20.75c1.631-30.852,0.801-36.455,1.182-67.394
			c0.77-70.904-4.645-140.896-15.162-210.646l-13.68-81.546c-1.572-11.457-3.896-24.504-9.318-33.457
			c-2.754-4.521-6.342-7.954-11.021-9.55c-16.296-5.544-43.395-0.647-62.545,0.914c-38.468,2.954-77.018,4.906-115.4,8.11
			c-37.718,3.205-75.264,7.585-112.483,15.307c-9.787,2.024-19.144,4.587-28.159,7.602
			C3434.084,3523.316,3380.75,3716.904,3325.488,3881.397z"/>
		<path id="_x31_80610567_1_" fill="#62D09F" stroke="#000000" d="M2760.227,3692.054c22.906,4.298,45.629,17.205,66.43,31.114
			c9.857,6.373,19.293,13.073,28.063,19.105c8.856,6.032,21.886,16.921,31.737,27.891c0.082,0.167,0.167,0.249,0.249,0.333
			c10.435,11.807,17.023,23.688,10.742,30.033c0,0,27.929-0.629,45.99-0.434c72.91,0.771,142.559,2.044,199.679,52.295
			c32.734,28.812,64.373,63.642,112.464,54.845c25.743-4.719,48.938-16.855,71.8-29.684
			c56.84-170.527,99.448-358.102-80.997-469.309c-11.713,3.919-22.851,8.608-33.582,13.884
			c-37.986,18.757-70.969,44.882-106.628,71.17c-81.274,60-171.125,93.401-261.321,135.498
			C2804.607,3647.55,2760.229,3692.054,2760.227,3692.054z"/>
		<path id="_x31_80610566_1_" fill="#62D09F" stroke="#000000" d="M3019.701,4973.04c40.983,5.122,84.224,3.994,124.944-2.833
			c220.879-36.983,135.307-354.148,134.971-513.237l3.055-0.291c69.514,86.857,138.261,198.72,160.09,220.612
			c19.214,19.271,48.313,75.362,97.596,102.338c-10.031,21.55-27.82,49.04-39.131,65.224
			c-34.742,49.728-74.063,93.629-118.854,134.554c-26.874,24.556-92.092,76.617-107.929,87.965
			c-12.795,9.167-22.832,15.323-33.717,22.325c-19.198,12.361-26.159,15.884-47.654,25.876
			c-35.592-43.704-59.74-53.872-94.01-79.724c-29.154-22.01-61.088-41.667-87.317-63.172L3019.701,4973.04z"/>
		<path id="_x31_80610565_1_" fill="#62D09F" stroke="#000000" d="M2973.761,4784.512c-9.619,35.016-22.832,76.599-15.271,113.186
			c6.122,29.619,31.192,67.283,61.895,75.634c37.193,10.119,86.905,3.129,124.263-3.125
			c224.424-37.578,132.477-364.409,135.021-520.78c0,0-1.707,1.401-1.709,1.403c4.391-3.606-75.704-79.309-85.777-85.956
			c-13.053-8.614-36.206-18.685-51.829-13.362c-21.102,7.181-34.04,44.993-42.998,63.222
			c-33.239,67.648-55.207,141.3-76.451,213.394c-5.785,19.641-11.842,39.179-17.915,58.708
			C2992.903,4719.272,2982.771,4751.688,2973.761,4784.512z"/>
		<path id="_x31_80610564_1_" fill="#6ACBBA" stroke="#000000" d="M3114.194,3349.465c-31.98-20.978-65.329-39.314-99.086-56.747
			c-45.702-23.478-92.245-45.285-137.947-69.348c-7.855-4.108-73.457-28.033-73.449-34.054c-1.628,27.672-2.251,55.432-2.96,83.19
			c-0.633,25.343-3.017,50.167-6.818,74.586c50.834-2.176,93.267-0.011,145.859,0.159
			C2997.157,3347.438,3056.891,3344.481,3114.194,3349.465z"/>
		<path id="_x31_80610563_1_" fill="#6ACBBA" stroke="#000000" d="M3092.608,3468.264c0.456-0.295,0.914-0.589,1.369-0.885
			c-0.333-0.131-0.666-0.259-1.006-0.389c0.336,0.13,0.671,0.258,1.006,0.389c7.363-4.767,14.791-9.515,22.324-14.227
			c18.664-11.597,54.565-33.952,47.915-60.47c-3.823-15.306-22.96-24.862-34.736-32.992c-4.593-3.185-9.19-6.285-13.866-9.302
			c-0.469-0.312-0.945-0.615-1.416-0.925c-57.307-4.982-117.041-2.024-174.403-2.212c-52.595-0.17-95.027-2.335-145.86-0.159
			c-6.248,40.121-16.34,79.149-28.84,117.582c20.706-1.416,42.067-7.365,62.562-10.211
			C2915.289,3442.284,3007.946,3448.192,3092.608,3468.264z"/>
		<path id="_x31_80610562_1_" fill="#6ACBBA" stroke="#000000" d="M2668.703,3697.165c18.565-2.734,24.084-3.563,40.725-5.127
			c7.025-0.741,16.055-1.483,28.851-2.633c9.645-20.39,5.617-9.859,22.863-25.052c43.7-38.65,104.523-65.735,156.988-90.58
			c63.58-29.946,116.934-68.205,174.479-105.509c-84.662-20.07-177.319-25.98-264.952-13.8
			c-20.495,2.847-41.855,8.792-62.562,10.211c-16.242,49.932-36.559,98.854-57.812,147.843
			c-10.237,23.73-32.035,64.167-38.166,83.309C2668.949,3696.247,2668.866,3696.744,2668.703,3697.165z"/>
		<path id="_x31_80610604_1_" fill="#CCCCCC" stroke="#000000" d="M2542.983,4091.611c23.379,68.446,76.756,119.158,157.059,290.086
			c34.721,73.916,153.488-140.525,113.108-265.703c-20.87-64.688-68.28-118.737-87.02-185.428
			c-13.793-49.093-7.55-97.384,40.925-122.929c21.486-11.317,53.941-5.662,76.542-1.127c15.604,3.131,28.791,12.109,44.818,4.007
			c39.55-19.983-12.175-56.502-30.634-69.126c-29.918-20.482-67.075-48.559-103.879-51.447
			c-43.146-3.396-85.436,10.38-128.393,11.605c-28.991,0.835-50.958,13.761-67.281,34.642
			C2494.097,3818.204,2516.737,4014.794,2542.983,4091.611z"/>
		<path id="_x31_80610605_1_" fill="#CCCCCC" stroke="#000000" d="M1587.79,4251.194c12.999,20.145,26.696,40.497,41.003,61.211
			c0.598,0.858,1.183,1.705,1.785,2.566c132.81,189.771,262.269,363.053,435.942,515.481c0,0,19.385,18.211,47.231,41.91
			c19.904,16.604,40.389,33.015,61.517,49.238c0.815,0.622,1.637,1.246,2.451,1.87c81.448,60.389,177.029,119.411,192.487,112.741
			c33.732-14.562-191.236-258.82-229.474-318.066c-49.443-76.587-107.755-140.057-166.92-210.676
			c-108.335-129.308-219.35-263.104-326.658-390.968c-30.744-36.628-83.619-105.375-126.199-126.011
			c-25.348-12.275-49.91,11.118-49.91,11.118C1496.302,4089.575,1534.122,4167.193,1587.79,4251.194z"/>
		<path id="_x31_80610603_1_" fill="#AAAAAA" stroke="#000000" d="M2808.321,3801.317c-14.77-0.955-29.626,0.189-41.266,6.32
			c-48.475,25.545-54.721,73.833-40.925,122.931c7.794,27.732,20.546,53.281,34.286,78.314c-1.246-4.477-0.813-8.958,2.681-14.014
			c5.323-7.697,21.145-9.71,27.997-17.228c0.007-0.006,0.017-0.017,0.023-0.024c11.508-12.692,20.216-28.214,27.674-43.541
			c12.145-24.97,28.362-61.548,21.389-90.093c-6.121-25.05-31.9-38.082-41.483-40.561
			C2798.697,3803.423,2798.399,3800.999,2808.321,3801.317z"/>
	</g>
</g>
</svg>
