<?xml version="1.0" encoding="utf-8"?>
<!-- Generator: Adobe Illustrator 16.0.0, SVG Export Plug-In . SVG Version: 6.00 Build 0)  -->
<!DOCTYPE svg PUBLIC "-//W3C//DTD SVG 1.1//EN" "http://www.w3.org/Graphics/SVG/1.1/DTD/svg11.dtd">
<svg version="1.1" id="Layer_1" xmlns="http://www.w3.org/2000/svg" xmlns:xlink="http://www.w3.org/1999/xlink" x="0px" y="0px"
	 width="4544px" height="4480px" viewBox="0 0 4544 4480" enable-background="new 0 0 4544 4480" xml:space="preserve">
<g>
	<g transform="scale(1.0)">
		<g id="_x31_80606922" transform=" scale(1.0, 1.0)">
			<path id="_x31_80606924" fill="#BFDAE3" stroke="#000000" d="M4179.395,3099.191
				c-67.528,144.549-166.969,253.553-300.966,342.744c-248.47,165.395-547.918,322.152-855.222,223.104
				c-304.865-98.279-519.099-232.422-666.351-521.914c-92.711-182.258-91.927-423.176-78.031-623.178
				c4.656-66.955,11.111-134.414,18.97-201.111c19.186-162.727,58.211-321.557,88.87-482.729
				c39.883-209.7,110.374-423.638,183.409-624.635c87.095-239.696,225.175-368.141,485.382-414.013
				c129.002-22.744,259.653-15.521,386.42,14.513c171.447,40.625,299.166,97.95,424.804,221.898
				c116.489,114.937,234.617,239.974,308.872,386.139c42.274,83.226,77.025,177.212,97.129,268.28
				c42.115,190.704,20.218,385.588-1.957,577.62c-16.687,144.502-31.258,289.234-43.77,434.115
				C4215.994,2826.971,4233.715,2982.938,4179.395,3099.191z"/>
			<path id="_x31_80606925" fill="#B0FFB8" stroke="#000000" d="M4272.681,1688.288c-20.104-91.068-54.854-185.055-97.129-268.28
				c-74.255-146.165-192.382-271.202-308.871-386.139c-125.639-123.948-253.357-181.271-424.805-221.898
				c-126.766-30.034-257.417-37.257-386.419-14.513c-260.208,45.873-398.286,174.317-485.383,414.013
				c-73.034,200.997-143.524,414.936-183.408,624.635c-30.66,161.173-69.684,320.002-88.87,482.73
				c-7.859,66.695-14.314,134.154-18.971,201.109c-13.895,200.004-14.68,440.922,78.032,623.18
				c147.251,289.492,361.484,423.635,666.351,521.912c307.305,99.053,606.752-57.707,855.221-223.102
				c133.996-89.193,233.437-198.195,300.966-342.744c54.32-116.256,36.599-272.223,47.558-399.168
				c12.513-144.883,27.085-289.617,43.771-434.117C4292.9,2073.875,4314.797,1878.992,4272.681,1688.288z M3269.013,1978.443
				c-14.152,31.624-33.246,67.463-47.075,101.863c-0.294,0.73-0.591,1.463-0.885,2.205c-10.766,27.188-12.177,70.856-31.084,92.483
				c-0.878-18.949,7.646-37.481,11.877-55.847c6.299-27.36,7.458-54.664,16.073-81.591c9.076-28.348,22.072-56.208,29.311-85.273
				c8.563-34.461,3.146-68.773,5.395-103.733c1.085-17.02,6.976-162.773,35.3-159.301c18.301,2.267,35.622,70.015,41.96,84.599
				C3363.372,1850.842,3300.179,1908.832,3269.013,1978.443z"/>
			<path id="_x31_80606926" fill="#9AD2BD" stroke="#000000" d="M4272.681,1688.288c-20.104-91.068-54.854-185.055-97.129-268.28
				c-74.255-146.165-192.382-271.202-308.871-386.139c-125.639-123.948-253.357-181.271-424.805-221.898
				c-126.766-30.034-257.417-37.257-386.419-14.513c-260.208,45.873-398.286,174.317-485.383,414.013
				c-73.034,200.997-143.524,414.936-183.408,624.635c-30.66,161.173-69.684,320.002-88.87,482.73
				c-7.859,66.695-14.314,134.154-18.971,201.109c-13.895,200.004-14.68,440.922,78.032,623.18
				c147.251,289.492,361.484,423.635,666.351,521.912c307.305,99.053,606.752-57.707,855.221-223.102
				c133.996-89.193,233.437-198.195,300.966-342.744c54.32-116.256,36.599-272.223,47.558-399.168
				c12.513-144.883,27.085-289.617,43.771-434.117C4292.9,2073.875,4314.797,1878.992,4272.681,1688.288z M3269.013,1978.443
				c-14.152,31.624-33.246,67.463-47.075,101.863c-0.294,0.73-0.591,1.463-0.885,2.205c-10.766,27.188-12.177,70.856-31.084,92.483
				c-0.878-18.949,7.646-37.481,11.877-55.847c6.299-27.36,7.458-54.664,16.073-81.591c9.076-28.348,22.072-56.208,29.311-85.273
				c8.563-34.461,3.146-68.773,5.395-103.733c1.085-17.02,6.976-162.773,35.3-159.301c18.301,2.267,35.622,70.015,41.96,84.599
				C3363.372,1850.842,3300.179,1908.832,3269.013,1978.443z"/>
			<path id="_x31_80606927" fill="#9AD2BD" stroke="#000000" d="M4272.681,1688.288c-20.104-91.068-54.854-185.055-97.129-268.28
				c-74.255-146.165-192.382-271.202-308.871-386.139c-125.639-123.948-253.357-181.271-424.805-221.898
				c-126.766-30.034-257.417-37.257-386.419-14.513c-260.208,45.873-398.286,174.317-485.383,414.013
				c-73.034,200.997-143.524,414.936-183.408,624.635c-30.66,161.173-69.684,320.002-88.87,482.73
				c-7.859,66.695-14.314,134.154-18.971,201.109c-13.895,200.004-14.68,440.922,78.032,623.18
				c147.251,289.492,361.484,423.635,666.351,521.912c307.305,99.053,606.752-57.707,855.221-223.102
				c133.996-89.193,233.437-198.195,300.966-342.744c54.32-116.256,36.599-272.223,47.558-399.168
				c12.513-144.883,27.085-289.617,43.771-434.117C4292.9,2073.875,4314.797,1878.992,4272.681,1688.288z M3269.013,1978.443
				c-14.152,31.624-33.246,67.463-47.075,101.863c-0.294,0.73-0.591,1.463-0.885,2.205c-10.766,27.188-12.177,70.856-31.084,92.483
				c-0.878-18.949,7.646-37.481,11.877-55.847c6.299-27.36,7.458-54.664,16.073-81.591c9.076-28.348,22.072-56.208,29.311-85.273
				c8.563-34.461,3.146-68.773,5.395-103.733c1.085-17.02,6.976-162.773,35.3-159.301c18.301,2.267,35.622,70.015,41.96,84.599
				C3363.372,1850.842,3300.179,1908.832,3269.013,1978.443z"/>
			<path id="_x31_80606932" fill="#82C7AE" stroke="#000000" d="M3444.877,3470.238c48.466-67.979,98.319-131.006,136.855-205.377
				c40.438-78.049,63.821-163.461,95.411-244.143c32.997-84.285,84.426-165.227,132.516-241.918
				c58.096-92.662,122.742-181.758,183.044-273.098c109.228-165.463,224.433-339.706,266.54-535.029
				c38.828-180.167-0.465-386.837-83.695-550.673c-74.25-146.155-192.382-271.196-308.873-386.128
				c-125.633-123.947-253.355-181.271-424.795-221.896c-126.764-30.033-257.413-37.253-386.418-14.506
				c-260.201,45.869-398.277,174.313-485.376,414.005c-26.285,72.333-58.579,153.865-68.819,230.12
				c-11.289,84.028,12.842,171.189,7.749,255.867c-6.124,101.791,2.828,207.305-7.71,308.325
				c-8.429,80.759-26.936,163.057-38.628,244.198c-19.959,138.475-52.337,275.604-34.968,416.402
				c27.527,223.107,116.177,450.721,250.363,631.969c72.615,98.109,91.333,256.25,205.989,318.084
				c128.915,69.516,313.57,31.252,436.642-36.109C3374.593,3550.83,3409.736,3519.535,3444.877,3470.238z M3527.342,2684.279
				c-48.288,98.416-56.114,208.504-64.528,315.539c-5.693,72.281-35.568,151.658-53.414,222.295
				c-14.304,56.605-29.337,116.449-64.108,164.943c-55.647,77.578-128.731,144.814-230.402,126.631
				c-88.16-15.764-170.626-60.926-239.182-115.936c-66.634-53.477-84.143-112.609-123.798-183.334
				c-30.592-54.572-48.792-103.049-63.455-164.275c-10.79-45.061-32.821-72.508-52.851-111.883
				c-42.175-82.936-36.631-170.994-65.485-255.551c-12.997-38.063-19.105-78.459-11.892-118.398
				c7.032-38.918,31.854-68.199,43.154-104.16c29.226-92.971,35.279-191.641,45.223-287.734
				c4.733-45.795,6.646-91.878,12.886-137.529c5.774-42.325,35.449-78.294,40.729-117.194c4.311-31.788-20.115-61.963-23.41-92.89
				c-5.412-50.897,4.85-103.206-2.509-154.489c-23.467-163.463-35.945-324.46,69.205-465.795
				c14.072-18.912,32.685-30.635,47.729-47.21c21.453-23.648,20.276-50.992,30.729-82.34
				c10.994-32.896,33.836-86.466,61.707-109.021c29.431-23.824,74.405-14.366,108.282-28.068
				c37.269-15.067,61.444-43.579,102.028-53.471c54.568-13.306,107.034,3.925,161.104,5.225
				c57.175,1.372,126.865-7.342,178.489,21.005c53.122,29.176,111.901,61.964,163.216,94.429
				c68.782,43.51,143.188,87.685,203.587,141.926c42.384,38.059,58.064,75.442,82.639,123.376
				c26.557,51.78,68.86,94.221,95.779,146.032c14.345,27.616,36.622,50.02,52.939,76.354c16.617,26.803,21.04,54.918,31.529,83.783
				c30.027,82.666,16.135,163.939,23.094,248.656c10.005,121.838-64.751,202.695-119.207,302.161
				c-33.325,60.857-59.244,119.677-100.658,176.343c-26.944,36.869-74.699,67.053-108.608,98.494
				c-68.562,63.578-125.481,131.801-182.317,204.941C3556.048,2632.266,3540.236,2658.002,3527.342,2684.279z"/>
			<path id="_x31_80606928" fill="#82C7AE" stroke="#000000" d="M3424.813,2271.092c-5.731,6.039-11.279,12.355-16.594,19.012
				c-118.173,147.842-173.196,327.959-189.497,512.887c-5.589,63.293-4.603,127.504-5.086,190.953
				c-0.594,76.725-7.75,187.041-94.729,218.318c-122.769,44.158-215.578-103.705-249.813-196.35
				c-32.966-89.236-66.399-195.768-71.146-291.17c-3.841-77.063,13.839-154.395,42.107-225.869
				c49.618-125.447,142.834-250.752,166.195-384.39c9.326-53.342,0.629-119.113-1.149-173.425
				c-2.172-66.544-7.538-132.733-21.788-197.901c-23.603-107.933-44.485-218.536-13.823-327.581
				c9.593-34.124,8.266-71.268,18.413-104.355c41.801-136.29,167.935-206.438,307.129-168.543
				c146.187,39.802,261.202,139.177,345.645,259.59c44.205,63.039,90.129,134.541,121.351,204.968
				c88.168,198.848,27.736,381.927-140.934,517.027C3559.737,2173.395,3478.551,2214.509,3424.813,2271.092z M3269.013,1978.443
				c31.167-69.611,94.36-127.6,60.871-204.594c-6.336-14.584-23.659-82.332-41.959-84.599
				c-28.324-3.473-34.216,142.281-35.299,159.3c-2.249,34.96,3.168,69.271-5.396,103.733c-7.237,29.065-20.234,56.925-29.312,85.273
				c-8.613,26.926-9.774,54.229-16.071,81.59c-4.231,18.366-12.756,36.897-11.878,55.848c18.907-21.627,20.318-65.294,31.084-92.483
				c0.295-0.742,0.59-1.475,0.885-2.205C3235.766,2045.907,3254.86,2010.066,3269.013,1978.443z"/>
			<path id="_x31_80606929" fill="#9AD2BD" stroke="#000000" d="M3203.727,3226.445c64.162-68.514,57.415-161.83,54.979-249.693
				c-3.019-108.504,7.51-225.389,30.378-332.463c23.355-109.445,61.78-194.535,128.058-285.439
				c37.506-51.404,81.136-115.385,138.642-142.747c120.782-57.486,235.68-158.903,286.791-284.385
				c13.773-33.81,24.679-82.146,24.18-117.741c-0.968-69.583-23.273-131.665-47.401-194.501
				c-29.644-77.165-78.116-120.743-112.607-175.299c-123.359-195.21-293.255-402.285-544.475-371.721
				c-88.789,10.806-148.117,96.133-192.731,170.096c-54.791,90.858-67.603,200.092-64.258,304.62
				c2.407,74.821,22.073,147.081,38.808,219.085c16.254,69.987,21.623,133.445,21.601,205.851
				c-0.048,155.012-64.188,336.029-138.027,470.751c-33.383,60.92-58.829,132.445-67.61,201.566
				c-12.705,100.063,26.064,194.561,58.993,286.158c23.32,64.854,42.156,146.578,80.279,203.502
				c42.558,63.543,128.289,114.986,201.591,126.574C3136.849,3266.334,3178.031,3253.875,3203.727,3226.445z M2869.097,3015.914
				c-32.967-89.236-66.4-195.768-71.147-291.172c-3.838-77.061,13.84-154.395,42.108-225.869
				c49.618-125.447,142.833-250.75,166.195-384.388c9.326-53.343,0.629-119.114-1.149-173.426
				c-2.172-66.544-7.538-132.732-21.789-197.901c-23.602-107.933-44.484-218.535-13.823-327.581
				c9.594-34.124,8.266-71.268,18.414-104.354c41.801-136.291,167.936-206.438,307.128-168.543
				c146.188,39.801,261.202,139.177,345.645,259.59c44.207,63.038,90.13,134.541,121.351,204.968
				c88.169,198.847,27.737,381.926-140.934,517.026c-61.358,49.132-142.545,90.245-196.283,146.83
				c-5.731,6.037-11.279,12.355-16.595,19.012c-118.172,147.842-173.195,327.959-189.495,512.887
				c-5.59,63.293-4.604,127.506-5.087,190.953c-0.594,76.725-7.75,187.039-94.729,218.316
				C2996.141,3256.422,2903.329,3108.559,2869.097,3015.914z"/>
			<path id="_x31_80606930" fill="#82C7AE" stroke="#000000" d="M3842.574,1931.72c-51.113,125.481-166.011,226.897-286.791,284.384
				c-57.508,27.363-101.138,91.341-138.642,142.748c-66.277,90.902-104.702,175.992-128.059,285.439
				c-22.867,107.074-33.396,223.957-30.378,332.463c2.438,87.861,9.184,181.18-54.979,249.691
				c-25.695,27.432-66.878,39.889-102.813,34.217c-73.3-11.588-159.032-63.031-201.591-126.574
				c-38.123-56.922-56.959-138.648-80.276-203.502c-32.932-91.596-71.699-186.096-58.995-286.158
				c8.782-69.121,34.228-140.645,67.61-201.564c73.838-134.725,137.979-315.742,138.027-470.753
				c0.023-72.406-5.348-135.865-21.6-205.851c-16.734-72.004-36.401-144.264-38.81-219.085
				c-3.345-104.528,9.467-213.762,64.26-304.62c44.614-73.963,103.942-159.29,192.729-170.096
				c251.221-30.563,421.116,176.511,544.476,371.721c34.49,54.557,82.964,98.134,112.608,175.299
				c24.127,62.837,46.435,124.918,47.399,194.501C3867.253,1849.575,3856.348,1897.911,3842.574,1931.72z M3910.188,1802.234
				c-1.769-71.97-31.066-133.482-53.963-200.015c-22.557-65.552-70.09-114.643-108.585-171.389
				c-137.705-203.021-326.746-418.751-602.864-389.479c-97.577,10.339-162.009,98.02-210.354,174.094
				c-59.377,93.451-72.376,206.293-67.636,314.416c3.402,77.406,25.769,152.317,44.909,226.918
				c18.582,72.538,25.139,138.214,25.843,213.089c1.508,160.301-67.23,346.897-147.132,485.536
				c-36.129,62.68-63.396,136.412-72.365,207.816c-12.978,103.357,30.633,201.443,67.787,296.479
				c26.315,67.283,47.857,151.967,90.392,211.195c47.465,66.098,142.312,120.107,223.095,132.771
				c39.59,6.203,84.791-6.301,112.78-34.428c69.916-70.248,71.967-173.979,68.398-264.854
				c-4.409-112.244-4.425-225.861,19.655-336.381c24.598-112.957,66.024-200.59,138.042-293.979
				c40.735-52.807,88.111-118.566,151.107-146.325c132.321-58.328,246.345-187.942,301.326-317.222
				C3905.443,1875.638,3911.085,1839.05,3910.188,1802.234z"/>
			<path id="_x31_80606931" fill="#9AD2BD" stroke="#000000" d="M3345.29,3387.059c34.772-48.494,49.806-108.338,64.109-164.943
				c17.846-70.639,47.722-150.012,53.414-222.297c8.414-107.033,16.24-217.121,64.529-315.537
				c12.894-26.277,28.704-52.014,48.223-77.145c56.836-73.139,113.756-141.363,182.319-204.941
				c33.908-31.441,81.663-61.625,108.607-98.492c41.413-56.666,67.332-115.488,100.659-176.345
				c54.454-99.465,129.209-180.32,119.205-302.16c-6.959-84.718,6.934-165.992-23.094-248.656
				c-10.489-28.864-14.911-56.98-31.529-83.783c-16.317-26.335-38.594-48.738-52.938-76.354
				c-26.919-51.812-69.224-94.251-95.78-146.033c-24.572-47.933-40.255-85.316-82.637-123.375
				c-60.4-54.242-134.806-98.416-203.588-141.926c-51.315-32.465-110.095-65.252-163.217-94.429
				c-51.623-28.349-121.315-19.634-178.489-21.005c-54.069-1.3-106.534-18.531-161.104-5.225
				c-40.584,9.892-64.759,38.405-102.028,53.47c-33.877,13.702-78.852,4.245-108.282,28.068
				c-27.87,22.555-50.712,76.125-61.707,109.021c-10.453,31.347-9.275,58.691-30.729,82.34
				c-15.044,16.576-33.656,28.298-47.729,47.21c-105.148,141.335-92.67,302.332-69.205,465.795
				c7.358,51.284-2.903,103.592,2.509,154.489c3.295,30.927,27.723,61.101,23.41,92.89c-5.28,38.9-34.954,74.87-40.729,117.194
				c-6.238,45.651-8.152,91.734-12.885,137.529c-9.943,96.092-15.998,194.764-45.223,287.733
				c-11.302,35.961-36.123,65.242-43.153,104.162c-7.216,39.938-1.105,80.334,11.891,118.398
				c28.855,84.557,23.31,172.613,65.485,255.551c20.029,39.375,42.06,66.82,52.851,111.883
				c14.664,61.227,32.863,109.701,63.454,164.273c39.655,70.725,57.163,129.859,123.799,183.334
				c68.555,55.012,151.021,100.174,239.181,115.936C3216.56,3531.871,3289.645,3464.637,3345.29,3387.059z M2876.222,3170.891
				c-42.532-59.227-64.076-143.912-90.39-211.193c-37.155-95.037-80.766-193.121-67.787-296.48
				c8.967-71.402,36.235-145.135,72.364-207.814c79.901-138.639,148.639-325.235,147.132-485.537
				c-0.703-74.875-7.26-140.552-25.844-213.088c-19.139-74.603-41.505-149.512-44.908-226.919
				c-4.74-108.122,8.259-220.965,67.637-314.415c48.345-76.076,112.776-163.756,210.353-174.095
				c276.118-29.273,465.159,186.459,602.864,389.479c38.495,56.745,86.028,105.837,108.585,171.389
				c22.896,66.534,52.193,128.046,53.963,200.014c0.896,36.818-4.745,73.405-19.562,108.245
				c-54.98,129.28-169.003,258.893-301.326,317.221c-62.996,27.757-110.371,93.519-151.107,146.326
				c-72.02,93.389-113.446,181.021-138.041,293.979c-24.08,110.52-24.064,224.137-19.657,336.377
				c3.569,90.879,1.52,194.607-68.397,264.855c-27.991,28.127-73.191,40.631-112.779,34.428
				C3018.534,3291,2923.687,3236.988,2876.222,3170.891z"/>
			<path id="_x31_80606934" fill="#CCCCCC" stroke="#000000" d="M2678.072,3298.355
				c-134.186-181.246-222.836-408.861-250.362-631.967c-17.368-140.799,15.009-277.928,34.968-416.402
				c11.692-81.141,30.199-163.439,38.628-244.198c10.537-101.02,1.586-206.535,7.71-308.325
				c5.093-84.678-19.036-171.837-7.749-255.867c5.044-37.556,15.439-76.389,27.829-114.774
				c-57.619,166.441-110.081,339.252-142.417,509.276c-30.663,161.174-69.685,319.998-88.872,482.724
				c-7.858,66.697-14.32,134.156-18.975,201.109c-13.894,199.998-14.682,440.914,78.035,623.168
				c121.919,239.693,289.76,372.887,516.944,467.4C2768.213,3544.986,2748.469,3393.467,2678.072,3298.355z"/>
			<path id="_x31_80606935" fill="#CCCCCC" stroke="#000000" d="M4272.677,1688.286c-20.007-90.597-54.502-184.08-96.479-266.986
				c82.781,163.628,121.771,369.681,83.043,549.375c-42.107,195.324-157.311,369.566-266.539,535.029
				c-60.302,91.34-124.947,180.436-183.043,273.098c-48.091,76.691-99.52,157.635-132.517,241.918
				c-31.591,80.682-54.972,166.094-95.412,244.143c-38.534,74.373-88.39,137.398-136.854,205.377
				c-35.141,49.297-70.284,80.592-124.174,110.094c-99.057,54.217-238.001,89.568-355.676,65.059
				c19.02,6.709,38.405,13.238,58.184,19.613c307.301,99.053,606.744-57.701,855.208-223.096
				c133.995-89.193,233.438-198.195,300.971-342.742c54.319-116.254,36.594-272.217,47.559-399.16
				c12.512-144.881,27.081-289.613,43.765-434.113C4292.894,2073.868,4314.787,1878.986,4272.677,1688.286z"/>
			<path id="_x31_80606933" fill="#AAAAAA" stroke="#000000" d="M3221.053,2082.511c0.294-0.742,0.591-1.475,0.885-2.205
				c13.829-34.399,32.923-70.239,47.075-101.863c31.167-69.611,94.359-127.601,60.871-204.594
				c-6.336-14.584-23.659-82.332-41.959-84.599c-28.324-3.473-34.217,142.28-35.3,159.299c-2.248,34.961,3.169,69.272-5.395,103.733
				c-7.237,29.066-20.234,56.926-29.312,85.274c-8.613,26.925-9.774,54.229-16.071,81.59c-4.232,18.365-12.756,36.897-11.878,55.847
				C3208.876,2153.368,3210.287,2109.7,3221.053,2082.511z"/>
		</g>
	</g>
	<g transform="scale(1.0)">
		<g id="_x31_80606922_1_" transform=" scale(1.0, 1.0)">
			<path id="_x31_80606924_1_" fill="#BFDAE3" stroke="#000000" d="M317.046,2700.023c-12.512-144.881-27.083-289.613-43.77-434.115
				c-22.175-192.032-44.072-386.916-1.957-577.62c20.104-91.067,54.854-185.054,97.129-268.28
				c74.255-146.166,192.383-271.202,308.872-386.139c125.638-123.948,253.356-181.272,424.803-221.898
				c126.767-30.034,257.418-37.257,386.42-14.513c260.207,45.872,398.288,174.317,485.381,414.013
				c73.035,200.998,143.527,414.935,183.41,624.635c30.66,161.173,69.686,320.002,88.869,482.729
				c7.859,66.697,14.314,134.156,18.971,201.111c13.895,200.002,14.68,440.92-78.031,623.178
				c-147.252,289.492-361.486,423.635-666.351,521.914c-307.304,99.049-606.751-57.709-855.221-223.104
				c-133.997-89.191-233.438-198.195-300.966-342.744C310.285,2982.938,328.006,2826.971,317.046,2700.023z"/>
			<path id="_x31_80606925_1_" fill="#B0FFB8" stroke="#000000" d="M273.276,2265.906c16.687,144.5,31.259,289.234,43.771,434.117
				c10.959,126.945-6.763,282.912,47.558,399.168c67.529,144.549,166.97,253.551,300.966,342.744
				c248.469,165.395,547.916,322.154,855.22,223.102c304.866-98.277,519.1-232.42,666.352-521.912
				c92.711-182.258,91.926-423.176,78.031-623.18c-4.656-66.955-11.111-134.414-18.971-201.109
				c-19.186-162.728-58.209-321.558-88.871-482.73c-39.883-209.699-110.373-423.638-183.408-624.635
				c-87.096-239.696-225.174-368.14-485.382-414.013c-129.002-22.744-259.653-15.521-386.419,14.513
				c-171.447,40.626-299.166,97.95-424.804,221.898c-116.489,114.937-234.616,239.975-308.871,386.139
				c-42.274,83.225-77.025,177.211-97.129,268.28C229.203,1878.992,251.1,2073.875,273.276,2265.906z M1214.116,1773.849
				c6.338-14.583,23.659-82.332,41.96-84.599c28.324-3.473,34.215,142.281,35.3,159.301c2.249,34.96-3.169,69.271,5.395,103.733
				c7.238,29.065,20.234,56.926,29.311,85.273c8.615,26.927,9.774,54.23,16.073,81.591c4.231,18.365,12.755,36.897,11.877,55.847
				c-18.907-21.627-20.318-65.295-31.084-92.483c-0.294-0.742-0.591-1.475-0.885-2.205c-13.829-34.4-32.923-70.24-47.075-101.863
				C1243.821,1908.832,1180.627,1850.842,1214.116,1773.849z"/>
			<path id="_x31_80606926_1_" fill="#9AD2BD" stroke="#000000" d="M273.276,2265.906c16.687,144.5,31.259,289.234,43.771,434.117
				c10.959,126.945-6.763,282.912,47.558,399.168c67.529,144.549,166.97,253.551,300.966,342.744
				c248.469,165.395,547.916,322.154,855.22,223.102c304.866-98.277,519.1-232.42,666.352-521.912
				c92.711-182.258,91.926-423.176,78.031-623.18c-4.656-66.955-11.111-134.414-18.971-201.109
				c-19.186-162.728-58.209-321.558-88.871-482.73c-39.883-209.699-110.373-423.638-183.408-624.635
				c-87.096-239.696-225.174-368.14-485.382-414.013c-129.002-22.744-259.653-15.521-386.419,14.513
				c-171.447,40.626-299.166,97.95-424.804,221.898c-116.489,114.937-234.616,239.975-308.871,386.139
				c-42.274,83.225-77.025,177.211-97.129,268.28C229.203,1878.992,251.1,2073.875,273.276,2265.906z M1214.116,1773.849
				c6.338-14.583,23.659-82.332,41.96-84.599c28.324-3.473,34.215,142.281,35.3,159.301c2.249,34.96-3.169,69.271,5.395,103.733
				c7.238,29.065,20.234,56.926,29.311,85.273c8.615,26.927,9.774,54.23,16.073,81.591c4.231,18.365,12.755,36.897,11.877,55.847
				c-18.907-21.627-20.318-65.295-31.084-92.483c-0.294-0.742-0.591-1.475-0.885-2.205c-13.829-34.4-32.923-70.24-47.075-101.863
				C1243.821,1908.832,1180.627,1850.842,1214.116,1773.849z"/>
			<path id="_x31_80606927_1_" fill="#9AD2BD" stroke="#000000" d="M273.276,2265.906c16.687,144.5,31.259,289.234,43.771,434.117
				c10.959,126.945-6.763,282.912,47.558,399.168c67.529,144.549,166.97,253.551,300.966,342.744
				c248.469,165.395,547.916,322.154,855.22,223.102c304.866-98.277,519.1-232.42,666.352-521.912
				c92.711-182.258,91.926-423.176,78.031-623.18c-4.656-66.955-11.111-134.414-18.971-201.109
				c-19.186-162.728-58.209-321.558-88.871-482.73c-39.883-209.699-110.373-423.638-183.408-624.635
				c-87.096-239.696-225.174-368.14-485.382-414.013c-129.002-22.744-259.653-15.521-386.419,14.513
				c-171.447,40.626-299.166,97.95-424.804,221.898c-116.489,114.937-234.616,239.975-308.871,386.139
				c-42.274,83.225-77.025,177.211-97.129,268.28C229.203,1878.992,251.1,2073.875,273.276,2265.906z M1214.116,1773.849
				c6.338-14.583,23.659-82.332,41.96-84.599c28.324-3.473,34.215,142.281,35.3,159.301c2.249,34.96-3.169,69.271,5.395,103.733
				c7.238,29.065,20.234,56.926,29.311,85.273c8.615,26.927,9.774,54.23,16.073,81.591c4.231,18.365,12.755,36.897,11.877,55.847
				c-18.907-21.627-20.318-65.295-31.084-92.483c-0.294-0.742-0.591-1.475-0.885-2.205c-13.829-34.4-32.923-70.24-47.075-101.863
				C1243.821,1908.832,1180.627,1850.842,1214.116,1773.849z"/>
			<path id="_x31_80606932_1_" fill="#82C7AE" stroke="#000000" d="M1223.295,3580.332
				c123.071,67.361,307.727,105.625,436.642,36.109c114.656-61.834,133.374-219.975,205.99-318.084
				c134.186-181.248,222.836-408.861,250.363-631.969c17.369-140.799-15.01-277.928-34.969-416.402
				c-11.691-81.141-30.199-163.439-38.627-244.198c-10.539-101.021-1.586-206.535-7.711-308.325
				c-5.092-84.678,19.039-171.838,7.75-255.867c-10.24-76.255-42.535-157.787-68.82-230.12
				c-87.098-239.692-225.174-368.136-485.375-414.005c-129.005-22.747-259.654-15.527-386.418,14.506
				c-171.439,40.625-299.162,97.949-424.794,221.896c-116.491,114.932-234.623,239.973-308.873,386.128
				c-83.23,163.836-122.523,370.505-83.695,550.673c42.107,195.323,157.313,369.566,266.54,535.029
				c60.302,91.34,124.948,180.436,183.044,273.098c48.09,76.691,99.519,157.633,132.516,241.918
				c31.59,80.682,54.973,166.094,95.411,244.143c38.536,74.371,88.389,137.398,136.855,205.377
				C1134.263,3519.535,1169.407,3550.83,1223.295,3580.332z M968.435,2607.137c-56.836-73.141-113.756-141.363-182.317-204.941
				c-33.909-31.441-81.664-61.625-108.608-98.494c-41.414-56.666-67.333-115.486-100.658-176.343
				c-54.456-99.466-129.212-180.323-119.207-302.161c6.959-84.717-6.934-165.991,23.094-248.656
				c10.489-28.865,14.912-56.98,31.529-83.783c16.317-26.335,38.595-48.738,52.939-76.354
				c26.919-51.812,69.223-94.252,95.779-146.032c24.574-47.934,40.255-85.317,82.639-123.376
				c60.399-54.241,134.805-98.416,203.587-141.926c51.314-32.465,110.093-65.253,163.215-94.429
				c51.624-28.347,121.314-19.633,178.489-21.005c54.069-1.3,106.535-18.531,161.104-5.225
				c40.584,9.892,64.76,38.404,102.028,53.471c33.877,13.702,78.852,4.244,108.282,28.068
				c27.871,22.554,50.713,76.125,61.707,109.021c10.453,31.348,9.276,58.691,30.729,82.34c15.045,16.575,33.657,28.298,47.729,47.21
				c105.15,141.335,92.671,302.332,69.205,465.795c-7.357,51.284,2.904,103.592-2.508,154.489
				c-3.295,30.927-27.721,61.102-23.41,92.89c5.279,38.9,34.953,74.87,40.729,117.194c6.238,45.651,8.152,91.734,12.885,137.529
				c9.943,96.093,15.998,194.763,45.223,287.734c11.301,35.961,36.123,65.242,43.154,104.16
				c7.215,39.939,1.105,80.336-11.891,118.398c-28.855,84.557-23.311,172.615-65.486,255.551
				c-20.029,39.375-42.061,66.822-52.85,111.883c-14.664,61.227-32.863,109.703-63.456,164.275
				c-39.655,70.725-57.164,129.857-123.798,183.334c-68.556,55.01-151.021,100.172-239.182,115.936
				c-101.671,18.184-174.755-49.053-230.402-126.631c-34.771-48.494-49.805-108.338-64.108-164.943
				c-17.846-70.637-47.721-150.014-53.414-222.295c-8.414-107.035-16.24-217.123-64.528-315.539
				C1003.763,2658.002,987.952,2632.266,968.435,2607.137z"/>
			<path id="_x31_80606928_1_" fill="#82C7AE" stroke="#000000" d="M922.905,2124.263
				c-168.67-135.101-229.102-318.18-140.934-517.027c31.222-70.427,77.146-141.929,121.351-204.968
				c84.442-120.413,199.458-219.789,345.644-259.59c139.194-37.895,265.328,32.253,307.129,168.543
				c10.147,33.088,8.82,70.232,18.413,104.355c30.662,109.045,9.779,219.648-13.823,327.581
				c-14.25,65.168-19.616,131.356-21.788,197.901c-1.778,54.312-10.476,120.083-1.149,173.425
				c23.361,133.638,116.577,258.943,166.195,384.39c28.269,71.475,45.948,148.807,42.107,225.869
				c-4.746,95.402-38.18,201.934-71.146,291.17c-34.234,92.645-127.044,240.508-249.813,196.35
				c-86.979-31.277-94.135-141.594-94.729-218.318c-0.483-63.449,0.503-127.66-5.086-190.953
				c-16.301-184.928-71.324-365.045-189.497-512.887c-5.314-6.656-10.862-12.973-16.594-19.012
				C1065.449,2214.509,984.263,2173.395,922.905,2124.263z M1322.061,2080.306c0.295,0.73,0.59,1.463,0.885,2.205
				c10.766,27.189,12.177,70.856,31.084,92.483c0.878-18.95-7.646-37.481-11.878-55.848c-6.297-27.36-7.458-54.664-16.071-81.59
				c-9.077-28.349-22.074-56.208-29.312-85.273c-8.563-34.462-3.146-68.773-5.396-103.733c-1.083-17.02-6.975-162.773-35.299-159.3
				c-18.3,2.267-35.623,70.014-41.959,84.599c-33.489,76.995,29.704,134.983,60.871,204.594
				C1289.139,2010.066,1308.234,2045.907,1322.061,2080.306z"/>
			<path id="_x31_80606929_1_" fill="#9AD2BD" stroke="#000000" d="M1443.084,3260.66c73.302-11.588,159.033-63.031,201.591-126.574
				c38.123-56.924,56.959-138.648,80.279-203.502c32.929-91.598,71.698-186.096,58.993-286.158
				c-8.781-69.121-34.228-140.646-67.61-201.566c-73.839-134.723-137.979-315.74-138.027-470.751
				c-0.022-72.406,5.347-135.864,21.601-205.851c16.734-72.004,36.4-144.264,38.808-219.085
				c3.345-104.528-9.467-213.762-64.258-304.62c-44.614-73.963-103.942-159.29-192.731-170.096
				c-251.22-30.564-421.115,176.511-544.474,371.721c-34.491,54.556-82.964,98.134-112.607,175.299
				c-24.128,62.836-46.434,124.918-47.401,194.501c-0.499,35.596,10.406,83.932,24.18,117.741
				c51.111,125.481,166.009,226.898,286.791,284.385c57.505,27.362,101.135,91.342,138.641,142.747
				c66.277,90.904,104.702,175.994,128.058,285.439c22.868,107.074,33.396,223.959,30.378,332.463
				c-2.436,87.863-9.183,181.18,54.979,249.693C1365.968,3253.875,1407.151,3266.334,1443.084,3260.66z M1425.093,3212.262
				c-86.979-31.277-94.135-141.592-94.729-218.316c-0.483-63.447,0.503-127.66-5.087-190.953
				c-16.3-184.928-71.323-365.045-189.495-512.887c-5.315-6.656-10.863-12.975-16.595-19.012
				c-53.738-56.584-134.924-97.698-196.283-146.83c-168.671-135.101-229.103-318.179-140.934-517.026
				c31.221-70.427,77.144-141.93,121.351-204.968c84.442-120.413,199.457-219.789,345.644-259.59
				c139.192-37.895,265.327,32.252,307.128,168.543c10.148,33.087,8.82,70.231,18.414,104.354
				c30.661,109.046,9.778,219.648-13.823,327.581c-14.251,65.168-19.617,131.356-21.789,197.901
				c-1.778,54.312-10.476,120.083-1.149,173.426c23.362,133.638,116.577,258.941,166.195,384.388
				c28.269,71.475,45.946,148.809,42.108,225.869c-4.747,95.404-38.181,201.936-71.147,291.172
				C1640.67,3108.559,1547.859,3256.422,1425.093,3212.262z"/>
			<path id="_x31_80606930_1_" fill="#82C7AE" stroke="#000000" d="M677.247,1813.979c0.965-69.583,23.272-131.664,47.399-194.501
				c29.645-77.165,78.118-120.742,112.608-175.299c123.359-195.21,293.254-402.284,544.475-371.721
				c88.787,10.806,148.115,96.133,192.729,170.096c54.793,90.858,67.604,200.092,64.26,304.62
				c-2.408,74.821-22.075,147.081-38.81,219.085c-16.252,69.986-21.623,133.445-21.6,205.851
				c0.048,155.012,64.189,336.029,138.027,470.753c33.383,60.92,58.828,132.443,67.61,201.564
				c12.704,100.063-26.063,194.563-58.995,286.158c-23.317,64.854-42.153,146.58-80.276,203.502
				c-42.559,63.543-128.291,114.986-201.591,126.574c-35.935,5.672-77.117-6.785-102.813-34.217
				c-64.162-68.512-57.416-161.83-54.979-249.691c3.018-108.506-7.511-225.389-30.378-332.463
				c-23.356-109.447-61.781-194.537-128.059-285.439c-37.504-51.406-81.134-115.385-138.641-142.748
				c-120.78-57.486-235.678-158.902-286.791-284.384C687.652,1897.911,676.747,1849.575,677.247,1813.979z M653.375,1910.477
				c54.981,129.279,169.005,258.894,301.326,317.222c62.996,27.758,110.372,93.518,151.107,146.325
				c72.018,93.389,113.444,181.021,138.042,293.979c24.08,110.52,24.064,224.137,19.655,336.381
				c-3.568,90.875-1.518,194.605,68.398,264.854c27.989,28.127,73.19,40.631,112.78,34.428
				c80.783-12.664,175.63-66.674,223.095-132.771c42.534-59.229,64.076-143.912,90.392-211.195
				c37.154-95.035,80.764-193.121,67.788-296.479c-8.969-71.404-36.237-145.137-72.366-207.816
				c-79.901-138.639-148.64-325.235-147.132-485.536c0.704-74.875,7.261-140.551,25.843-213.089
				c19.141-74.601,41.507-149.512,44.909-226.918c4.74-108.123-8.259-220.965-67.636-314.416
				c-48.345-76.074-112.776-163.755-210.354-174.094c-276.118-29.271-465.159,186.459-602.864,389.479
				c-38.495,56.747-86.028,105.837-108.585,171.389c-22.896,66.533-52.194,128.045-53.963,200.015
				C632.915,1839.05,638.557,1875.638,653.375,1910.477z"/>
			<path id="_x31_80606931_1_" fill="#9AD2BD" stroke="#000000" d="M1429.111,3513.688c88.16-15.762,170.626-60.924,239.181-115.936
				c66.636-53.475,84.144-112.609,123.799-183.334c30.59-54.572,48.79-103.047,63.454-164.273
				c10.791-45.063,32.822-72.508,52.852-111.883c42.176-82.938,36.629-170.994,65.484-255.551
				c12.996-38.064,19.107-78.461,11.891-118.398c-7.029-38.92-31.852-68.201-43.152-104.162
				c-29.225-92.969-35.279-191.641-45.223-287.733c-4.732-45.795-6.646-91.878-12.885-137.529
				c-5.775-42.325-35.449-78.294-40.729-117.194c-4.313-31.789,20.115-61.963,23.41-92.89c5.412-50.897-4.85-103.206,2.508-154.489
				c23.465-163.463,35.943-324.46-69.205-465.795c-14.073-18.912-32.686-30.634-47.729-47.21
				c-21.454-23.648-20.276-50.993-30.729-82.34c-10.995-32.896-33.837-86.466-61.707-109.021
				c-29.431-23.823-74.405-14.366-108.282-28.068c-37.27-15.065-61.444-43.578-102.028-53.47
				c-54.569-13.306-107.034,3.925-161.104,5.225c-57.174,1.371-126.866-7.344-178.489,21.005
				c-53.122,29.177-111.901,61.964-163.216,94.429c-68.782,43.51-143.188,87.684-203.588,141.926
				c-42.382,38.059-58.064,75.442-82.637,123.375c-26.557,51.782-68.861,94.221-95.78,146.033
				c-14.345,27.616-36.621,50.02-52.938,76.354c-16.618,26.803-21.04,54.919-31.529,83.783
				c-30.027,82.665-16.135,163.938-23.094,248.656c-10.004,121.84,64.751,202.695,119.205,302.16
				c33.327,60.857,59.246,119.679,100.659,176.345c26.944,36.867,74.699,67.051,108.607,98.492
				c68.563,63.578,125.483,131.803,182.319,204.941c19.519,25.131,35.329,50.867,48.222,77.145
				c48.289,98.416,56.115,208.504,64.529,315.537c5.692,72.285,35.568,151.658,53.414,222.297
				c14.304,56.605,29.337,116.449,64.109,164.943C1254.355,3464.637,1327.44,3531.871,1429.111,3513.688z M1444.679,3303.662
				c-39.588,6.203-84.788-6.301-112.779-34.428c-69.917-70.248-71.967-173.977-68.397-264.855
				c4.407-112.24,4.423-225.857-19.657-336.377c-24.595-112.957-66.021-200.59-138.041-293.979
				c-40.736-52.807-88.111-118.568-151.107-146.326c-132.323-58.328-246.346-187.941-301.326-317.221
				c-14.816-34.84-20.457-71.427-19.562-108.245c1.77-71.967,31.066-133.479,53.963-200.014
				c22.557-65.552,70.09-114.644,108.585-171.389c137.705-203.021,326.746-418.752,602.864-389.479
				c97.576,10.339,162.008,98.019,210.353,174.095c59.378,93.45,72.377,206.293,67.637,314.415
				c-3.403,77.407-25.77,152.316-44.908,226.919c-18.584,72.536-25.141,138.213-25.844,213.088
				c-1.507,160.302,67.23,346.898,147.132,485.537c36.129,62.68,63.397,136.412,72.364,207.814
				c12.979,103.359-30.631,201.443-67.787,296.48c-26.313,67.281-47.857,151.967-90.39,211.193
				C1620.313,3236.988,1525.465,3291,1444.679,3303.662z"/>
			<path id="_x31_80606934_1_" fill="#CCCCCC" stroke="#000000" d="M1670.188,3610.5c227.184-94.514,395.026-227.707,516.944-467.4
				c92.717-182.254,91.93-423.17,78.035-623.168c-4.654-66.953-11.115-134.412-18.975-201.109
				c-19.188-162.726-58.209-321.549-88.871-482.724c-32.336-170.024-84.799-342.835-142.418-509.276
				c12.391,38.385,22.785,77.218,27.83,114.774c11.287,84.029-12.842,171.189-7.75,255.867
				c6.125,101.791-2.826,207.306,7.711,308.325c8.428,80.759,26.936,163.057,38.627,244.198
				c19.959,138.475,52.336,275.604,34.969,416.402c-27.527,223.105-116.178,450.721-250.363,631.967
				C1795.531,3393.467,1775.787,3544.986,1670.188,3610.5z"/>
			<path id="_x31_80606935_1_" fill="#CCCCCC" stroke="#000000" d="M273.288,2265.893c16.684,144.5,31.253,289.232,43.765,434.113
				c10.965,126.943-6.761,282.906,47.559,399.16c67.533,144.547,166.976,253.549,300.971,342.742
				c248.464,165.395,547.907,322.148,855.208,223.096c19.778-6.375,39.164-12.904,58.184-19.613
				c-117.675,24.51-256.619-10.842-355.676-65.059c-53.89-29.502-89.033-60.797-124.174-110.094
				c-48.465-67.979-98.32-131.004-136.854-205.377c-40.44-78.049-63.821-163.461-95.412-244.143
				c-32.997-84.283-84.426-165.227-132.517-241.918c-58.096-92.662-122.741-181.758-183.043-273.098
				c-109.229-165.463-224.432-339.705-266.539-535.029c-38.729-179.694,0.262-385.747,83.043-549.375
				c-41.977,82.906-76.472,176.389-96.479,266.986C229.213,1878.986,251.106,2073.868,273.288,2265.893z"/>
			<path id="_x31_80606933_1_" fill="#AAAAAA" stroke="#000000" d="M1354.03,2174.994c0.878-18.949-7.646-37.481-11.878-55.847
				c-6.297-27.36-7.458-54.665-16.071-81.59c-9.077-28.349-22.074-56.208-29.312-85.274c-8.563-34.461-3.146-68.772-5.395-103.733
				c-1.083-17.02-6.976-162.772-35.3-159.299c-18.3,2.267-35.623,70.014-41.959,84.599
				c-33.488,76.994,29.704,134.983,60.871,204.594c14.152,31.625,33.246,67.464,47.075,101.863c0.294,0.73,0.591,1.463,0.885,2.205
				C1333.712,2109.7,1335.124,2153.368,1354.03,2174.994z"/>
		</g>
	</g>
</g>
</svg>
