<?xml version="1.0" encoding="utf-8"?>
<!-- Generator: Adobe Illustrator 16.0.0, SVG Export Plug-In . SVG Version: 6.00 Build 0)  -->
<!DOCTYPE svg PUBLIC "-//W3C//DTD SVG 1.1//EN" "http://www.w3.org/Graphics/SVG/1.1/DTD/svg11.dtd">
<svg version="1.1" id="Layer_1" xmlns="http://www.w3.org/2000/svg" xmlns:xlink="http://www.w3.org/1999/xlink" x="0px" y="0px"
	 width="5456px" height="5120px" viewBox="0 0 5456 5120" enable-background="new 0 0 5456 5120" xml:space="preserve">
<g>
	<g transform="scale(1.0)">
		<g id="_x31_80608862" transform=" scale(1.0, 1.0)">
			<path id="_x31_80608864" fill="#BFDAE3" stroke="#000000" d="M4789.268,1800.138c62.76,155.563,91.904,324.436,77.529,505.057
				c-6.451,80.988-23.543,166.396-58.135,240.344c-34.15,72.976-72.643,121.615-68.164,207.237
				c10.926,208.706-35.773,398.145-137.225,581.639c-163.668,296.021-358.303,516.117-649.521,688.853
				c-124.877,74.07-256.131,97.636-397.098,56.161c-152.174-44.787-272.051-142.286-389.465-244.914
				c-116.752-102.034-242.395-212.936-307.719-356.767c-86.634-190.751-63.264-441.343-67.691-647.354
				c-2.893-134.642,53.951-264.66,45.223-398.733c-15.137-232.523,5.031-492.518,80.525-713.923
				c57.359-168.212,111.775-345.028,223.938-486.044c158.398-199.156,416.201-234.281,655.875-197.701
				c239.867,36.606,502.395,135.578,681.672,301.246C4617.9,1463.586,4718.744,1625.322,4789.268,1800.138z"/>
			<path id="_x31_80608865" fill="#B0FFB8" stroke="#000000" d="M4789.256,1800.121c-70.518-174.809-171.357-336.547-310.25-464.887
				c-179.271-165.666-441.799-264.638-681.658-301.246c-239.668-36.587-497.473-1.453-655.865,197.695
				c-112.164,141.018-166.586,317.829-223.939,486.031c-75.5,221.395-95.674,481.39-80.537,713.906
				c8.73,134.07-48.119,264.087-45.223,398.725c4.426,206.008-18.936,456.596,67.686,647.342
				c65.326,143.835,190.965,254.733,307.709,356.762c117.416,102.628,237.291,200.129,389.461,244.913
				c140.963,41.476,272.217,17.906,397.1-56.156c291.219-172.733,485.844-392.821,649.514-688.84
				c101.449-183.49,148.154-372.922,137.23-581.626c-4.484-85.621,34.012-134.261,68.158-207.231
				c34.594-73.946,51.686-159.358,58.135-240.341C4881.158,2124.557,4852.02,1955.68,4789.256,1800.121z M3876.35,2142.085
				c-5.055,20.516-12.537,39.063-20.359,58.561c-9.145,22.79-16.627,45.215-29.148,66.489
				c-37.893,64.395-61.113,135.449-76.646,208.232c-3.234,15.173-7.65,30.111-10.119,45.434
				c-12.338,76.504-26.094,137.01-38.625,206.098c-1.621,8.96-4.479,44.249-19.363,41.756c-20.688-3.457-2.029-65.785,0.389-78.245
				c10.393-53.542,26.07-105.835,38.615-158.878c7.676-32.494,11.684-65.512,18.578-98.081c0.055-0.274,0.115-0.545,0.172-0.818
				c9.717-48.779,19.752-97.024,19.217-147.038c-0.527-50.236-11.557-99.251-23.631-147.768
				c-10.139-40.731-23.42-79.706-23.127-122.187c0.068-10.287-3.906-38.156,8.193-43.329c14.838-6.333,33.438,16.725,45.023,22.38
				c9.133,4.463,17.5,9.938,26.963,13.617c18.543,7.207,38.656,15.939,56.049,25.514c16.973,9.349,31.65,24.14,35.68,43.775
				C3888.523,2098.661,3881.359,2121.73,3876.35,2142.085z"/>
			<path id="_x31_80608866" fill="#9AD2BD" stroke="#000000" d="M4789.256,1800.121c-70.518-174.809-171.357-336.547-310.25-464.887
				c-179.271-165.666-441.799-264.638-681.658-301.246c-239.668-36.587-497.473-1.453-655.865,197.695
				c-112.164,141.018-166.586,317.829-223.939,486.031c-75.5,221.395-95.674,481.39-80.537,713.906
				c8.73,134.07-48.119,264.087-45.223,398.725c4.426,206.008-18.936,456.596,67.686,647.342
				c65.326,143.835,190.965,254.733,307.709,356.762c117.416,102.628,237.291,200.129,389.461,244.913
				c140.963,41.476,272.217,17.906,397.1-56.156c291.219-172.733,485.844-392.821,649.514-688.84
				c101.449-183.49,148.154-372.922,137.23-581.626c-4.484-85.621,34.012-134.261,68.158-207.231
				c34.594-73.946,51.686-159.358,58.135-240.341C4881.158,2124.557,4852.02,1955.68,4789.256,1800.121z M3876.35,2142.085
				c-5.055,20.516-12.537,39.063-20.359,58.561c-9.145,22.79-16.627,45.215-29.148,66.489
				c-37.893,64.395-61.113,135.449-76.646,208.232c-3.234,15.173-7.65,30.111-10.119,45.434
				c-12.338,76.504-26.094,137.01-38.625,206.098c-1.621,8.96-4.479,44.249-19.363,41.756c-20.688-3.457-2.029-65.785,0.389-78.245
				c10.393-53.542,26.07-105.835,38.615-158.878c7.676-32.494,11.684-65.512,18.578-98.081c0.055-0.274,0.115-0.545,0.172-0.818
				c9.717-48.779,19.752-97.024,19.217-147.038c-0.527-50.236-11.557-99.251-23.631-147.768
				c-10.139-40.731-23.42-79.706-23.127-122.187c0.068-10.287-3.906-38.156,8.193-43.329c14.838-6.333,33.438,16.725,45.023,22.38
				c9.133,4.463,17.5,9.938,26.963,13.617c18.543,7.207,38.656,15.939,56.049,25.514c16.973,9.349,31.65,24.14,35.68,43.775
				C3888.523,2098.661,3881.359,2121.73,3876.35,2142.085z"/>
			<path id="_x31_80608867" fill="#9AD2BD" stroke="#000000" d="M4789.256,1800.121c-70.518-174.809-171.357-336.547-310.25-464.887
				c-179.271-165.666-441.799-264.638-681.658-301.246c-239.668-36.587-497.473-1.453-655.865,197.695
				c-112.164,141.018-166.586,317.829-223.939,486.031c-75.5,221.395-95.674,481.39-80.537,713.906
				c8.73,134.07-48.119,264.087-45.223,398.725c4.426,206.008-18.936,456.596,67.686,647.342
				c65.326,143.835,190.965,254.733,307.709,356.762c117.416,102.628,237.291,200.129,389.461,244.913
				c140.963,41.476,272.217,17.906,397.1-56.156c291.219-172.733,485.844-392.821,649.514-688.84
				c101.449-183.49,148.154-372.922,137.23-581.626c-4.484-85.621,34.012-134.261,68.158-207.231
				c34.594-73.946,51.686-159.358,58.135-240.341C4881.158,2124.557,4852.02,1955.68,4789.256,1800.121z M3876.35,2142.085
				c-5.055,20.516-12.537,39.063-20.359,58.561c-9.145,22.79-16.627,45.215-29.148,66.489
				c-37.893,64.395-61.113,135.449-76.646,208.232c-3.234,15.173-7.65,30.111-10.119,45.434
				c-12.338,76.504-26.094,137.01-38.625,206.098c-1.621,8.96-4.479,44.249-19.363,41.756c-20.688-3.457-2.029-65.785,0.389-78.245
				c10.393-53.542,26.07-105.835,38.615-158.878c7.676-32.494,11.684-65.512,18.578-98.081c0.055-0.274,0.115-0.545,0.172-0.818
				c9.717-48.779,19.752-97.024,19.217-147.038c-0.527-50.236-11.557-99.251-23.631-147.768
				c-10.139-40.731-23.42-79.706-23.127-122.187c0.068-10.287-3.906-38.156,8.193-43.329c14.838-6.333,33.438,16.725,45.023,22.38
				c9.133,4.463,17.5,9.938,26.963,13.617c18.543,7.207,38.656,15.939,56.049,25.514c16.973,9.349,31.65,24.14,35.68,43.775
				C3888.523,2098.661,3881.359,2121.73,3876.35,2142.085z M4001.771,1774.009c-0.367,23.142,0.742,49.249-5.426,71.713
				c-13.918,50.657-50.389,131.318-113.838,131.423c-42.49,0.063-77.506-30.604-101.01-63.665
				c-31.178-43.844-41.789-92.551-43.074-145.603c-0.82-33.96-13.949-66.68-12.797-100.857
				c1.211-35.749,32.951-70.067,65.252-81.447c40.461-14.252,60.188-13.515,95.93-6.058c34.949,7.282,67.74,18.041,87.566,50.244
				c12.037,19.552,18.414,47.874,22.529,70.202C4001.402,1724.354,4002.17,1749.264,4001.771,1774.009z"/>
			<path id="_x31_80608868" fill="#82C7AE" stroke="#000000" d="M4321.791,3618.343
				c123.633-200.473,183.404-401.142,212.746-633.438c10.971-86.879,24.654-172.522,62.008-252.52
				c36.607-78.395,87.854-149.069,128.35-225.414c85.861-161.908,109.594-322.102,75.033-501.422
				c-12.623-65.547-27.643-130.879-46.178-195.159c-18.078-62.645-39.494-124.293-65.311-184.138
				c-41.508-96.208-96.418-176.42-167.611-250.083c-2.615-2.694-5.229-5.393-7.871-8.062c2.648,2.678,10.484,10.748,7.871,8.062
				c-20.85-21.442-20.85-21.442-41.822-40.938c-178.785-166.189-441.797-264.633-681.658-301.242
				c-239.668-36.583-508.377-9.654-655.865,197.698c-63.766,89.647-65.24,92.797-87.346,136.045
				c-17.564,34.366-18.74,39.62-26.998,55.422c-75.057,179.484-101.324,389.406-103.76,572.625
				c-3.227,243.895,6.498,489.076,14.178,732.856c4.322,137.247,11.822,274.874,35.615,410.304
				c10.934,62.227,23.031,124.574,49.633,181.994c58.744,126.797,124.154,252.367,210.393,362.925
				c58.104,74.486,114.738,151.099,184.975,214.845c48.014,43.584,100.813,90.201,159.773,122.334
				c34.77,19.268,71.688,33.557,111.039,39.231c114.375,16.494,233.746-37.982,334.814-85.375c0.246,0.683,0.484,1.226,0.465,1.219
				c0.604-0.404,1.199-0.815,1.801-1.222c0.199,0.971,0.711,2.193,0.859,2.57c2.381-1.568,4.768-3.133,7.135-4.707
				C4162.227,3884.113,4241.053,3749.242,4321.791,3618.343z M4035.92,3751.611c-43.258,50.574-110.395,122.52-176.68,138.799
				c-48.223,11.857-64.137-42.748-105.51-40.666c-43.922,2.229-56.242,57.27-105.477,58.522
				c-110.928,2.833-197.318-127.606-229.361-221.291c-15.508-45.336-36.586-85.2-59.867-126.578
				c-27.643-49.129-57.162-100.825-92.26-144.941c-58.395-73.41-63.652-151.867-87.377-238.301
				c-10.182-37.11-41.273-58.351-50.023-97.106c-9.553-42.255,2.051-86.693,0.479-129.434
				c-2.928-79.991-28.893-162.474-19.295-241.995c3.443-28.577,16.619-42.019,27.691-65.102
				c28.611-59.673-0.996-140.154,8.635-205.277c4.246-28.711,19.229-57.086,21.357-86.175
				c5.084-69.285-31.504-132.117-30.488-200.968c0.855-57.589,4.951-115.557-3.564-172.399
				c-8.611-57.385-17.666-116.824-12.906-174.976c6.234-76.159,31.176-151.972,44.146-227.421
				c5.389-31.299,27.209-57.993,40.453-86.117c29.191-62.025,25.861-134.457,64.119-191.281
				c38.203-56.754,77.721-120.973,136.5-158.961c59.383-38.381,124.367-80.863,192.828-91.802
				c42.449-6.786,99.896-12.301,142.385-2.746c38.785,8.717,94.684,12.251,131.404,23.339
				c43.016,12.989,82.713,29.181,123.227,47.959c37.912,17.572,62.969,32.371,104.121,55.098
				c61.801,34.131,115.76,82.684,170.871,126.135c203.66,160.605,369.701,400.387,390.9,665.863
				c5.725,71.746,2.053,153.366-15.783,223.403c-22.713,89.155-37.197,103.711-89.176,175.557
				c-24.932,34.459-55.879,89.197-69.568,105.44c-21.158,25.106-47.42,81.059-61.42,112.473
				c-23.676,53.098-41.166,61.014-67.166,111.793c-33.908,66.228-88.992,114.191-112.609,186.527
				c-18.555,56.821-29.387,116.081-34.27,175.603c-4.033,49.271,7.975,97.274,4.473,145.689
				c-1.559,21.607-10.502,42.317-14.512,64.104c-16.51,89.52,17.672,175.287-37.479,252.445
				C4112.375,3590.072,4095.533,3681.89,4035.92,3751.611z"/>
			<path id="_x31_80608872" fill="#82C7AE" stroke="#000000" d="M3717.494,1943.223c-16.424-36.621-15.846-80.475-12.146-119.598
				c4.863-51.455,1.414-128.739,26.596-183.229c12.121-26.228,30.879-47.176,60.385-57.417
				c35.875-12.455,64.863-11.984,95.518-5.193c34.752,7.697,67.355,18.881,86.939,51.599c11.889,19.862,18.105,48.532,22.088,71.127
				c4.361,24.686,5.01,49.852,4.494,74.848l1.475-15.549c34.391,112.561,48.254,222.272-8.129,330.854
				c-68.584,132.092-166.105,236.995-203.643,385.737c-21.693,85.927-39.74,156.721-44.545,245.761
				c-2.408,44.702-6.086,93.746-4,138.625c1.412,30.492-0.295,62.667,3.246,93.665c3.436,30.108,9.869,65.304,7.416,96.248
				c-1.35,17.115-1.631,97.074-33.498,81.479c-37.328-18.258-37.488-58.173-44.9-93.542c-10.543-50.331-30.07-104.68-33.926-155.725
				c-0.766-10.162-1.98-27.647,0.762-37.457c4.33-15.516,10.854-19.809,20.871-31.973c5.24-6.357,31.354-36.003,31.793-54.497
				c-4.188,8.357-16.68,15.772-19.521,8.192c-8.195-21.88,0.197-47.777,4.428-69.341c10.602-53.983,26.449-106.65,39.191-160.105
				c7.787-32.75,11.936-66.063,18.957-98.897c0.055-0.274,0.113-0.551,0.166-0.823c9.91-49.174,20.125-97.813,19.828-148.337
				c-0.291-50.747-11.037-100.368-22.83-149.489c-9.895-41.242-22.934-80.744-22.445-123.647
				c0.148-12.651-7.924-59.791,28.129-39.063C3727.666,1964.077,3718.979,1946.533,3717.494,1943.223z M3895.408,2810.115
				c18.188-128.442,76.713-243.959,164.326-337.168c126.486-134.58,299.693-241.485,352.729-429.721
				c23.49-83.353,18.078-187.776-18.162-267.702c-50.604-111.607-151.287-196.459-232.258-286.361
				c-62.043-68.886-150.432-175.599-247.027-219.045c-109.346-49.182-229.012-26.741-329.271,49.374
				c-62.225,47.243-94.443,112.917-128.686,181.388c-44.35,88.671-77.348,176.589-76.133,276.928
				c2.168,180.05,120.439,338.959,142.506,517.283c21.063,170.256-69.217,327.934-103.324,489.85
				c-24.748,117.437-15.258,250.717,13.717,367.283c40.521,163.05,135.734,390.978,307.014,451.331
				c67.996,23.957,135.619-6.079,179.643-57.121c57.098-66.206,74.307-158.789,61.379-241.422
				c-20.926-133.827-75.748-258-84.223-390.6C3895.383,2879.208,3890.232,2846.718,3895.408,2810.115z"/>
			<path id="_x31_80608871" fill="#9AD2BD" stroke="#000000" d="M3612.561,1237.179c-71.246,37.583-132.975,117.864-169.348,188.376
				c-49.494,95.947-105.395,200.012-111.865,310.02c-7.959,135.361,42.494,246.236,87.17,369.684
				c34.168,94.458,69.709,191.059,64.332,292.113c-3.373,63.258-29.682,117.527-48.098,177.408
				c-22.297,72.48-44.781,147.04-62.127,220.424c-28.104,118.918-9.203,222.909,17.918,340.884
				c42.201,183.511,258.551,678.519,499.656,516.637c139.799-93.86,141.014-304.823,113.117-448.486
				c-24.973-128.605-77.842-262.538-54.762-395.366c21.543-123.923,76.865-221.776,161.322-312.437
				c143.689-154.26,357.408-271.842,365.6-508.188c5.301-152.977-77.52-280.888-168.557-396.5
				c-32.746-41.594-68.848-80.709-106.207-117.299C4052.008,1328.791,3853.404,1110.128,3612.561,1237.179z M4161.84,1489.229
				c79.084,90.623,177.57,165.645,228.918,275.646c36.781,78.771,46.018,190.147,22.814,272.883
				c-52.398,186.857-223.459,291.901-349.887,426.352c-87.576,93.116-145.828,208.033-163.49,335.367
				c-5.029,36.282-5.643,71.675-3.215,106.511c9.139,131.185,61.373,254.34,83.031,386.618
				c13.367,81.685,5.877,178.598-51.168,244.688c-43.986,50.958-119.586,89.321-188.004,66.263
				c-172.338-58.094-267.996-299.67-309.467-460.693c-29.654-115.113-33.049-247.234-8.75-363.729
				c33.506-160.617,123.453-317.577,101.492-485.923c-22.996-176.319-142.551-332.486-145.57-510.708
				c-1.693-99.317,31.043-186.671,75.18-274.881c34.076-68.114,66.131-133.432,128.418-180.802
				c106.85-81.253,227.818-102.89,340.482-51.6C4009.262,1314.658,4089.965,1406.866,4161.84,1489.229z"/>
			<path id="_x31_80608870" fill="#82C7AE" stroke="#000000" d="M4219.721,2453.527c49.535-44.504,98.311-87.074,137.721-129.333
				c91.619-98.243,159.307-244.396,156.723-378.67c-1.895-98.427-52.271-187.377-100.264-271.903
				c-44.879-79.054-111.189-146.814-174.025-212.98c-192.369-202.561-265.486-278.885-498.246-289.906
				c-229.998-10.889-390.307,249.003-429.992,443.939c-13.424,65.895-20.57,139.122-14.723,206.382
				c7.066,81.358,44.279,168.95,72.795,245.552c50.455,135.527,99.705,248.287,71.172,396.627
				c-26.977,140.25-109.301,286.01-124.652,440.966c-5.498,55.499,15.016,109.75,27.766,169.502
				c22.113,103.623,50.959,213.102,96.68,297.416c51.279,94.571,92.742,230.156,173.602,303.225
				c85.914,77.651,217.064,66.359,307.393,5.181c49.543-33.543,94.105-87.836,115.115-143.851
				c96.883-258.284-92.959-489.368-50.201-735.989C4010.004,2664.669,4109.982,2552.134,4219.721,2453.527z M3948.557,2808.869
				c-23.082,132.829,29.789,266.762,54.762,395.367c27.895,143.663,26.68,354.625-113.119,448.486
				c-241.105,161.883-457.457-333.127-499.654-516.637c-27.123-117.975-46.023-221.966-17.92-340.884
				c17.346-73.385,39.83-147.943,62.127-220.424c18.416-59.881,44.727-114.15,48.098-177.408
				c5.379-101.053-30.164-197.656-64.33-292.114c-44.676-123.447-95.129-234.323-87.172-369.684
				c6.469-110.008,62.371-214.071,111.867-310.019c36.371-70.512,98.1-150.792,169.346-188.376
				c240.846-127.049,439.447,91.614,588.152,237.268c37.359,36.591,73.461,75.705,106.209,117.3
				c91.035,115.609,173.857,243.521,168.557,396.499c-8.193,236.346-221.912,353.927-365.602,508.188
				C4025.422,2587.094,3970.098,2684.946,3948.557,2808.869z"/>
			<path id="_x31_80608869" fill="#9AD2BD" stroke="#000000" d="M3599.32,1048.143c-68.461,10.938-133.443,53.422-192.828,91.801
				c-58.777,37.988-98.297,102.208-136.5,158.962c-38.256,56.824-34.926,129.255-64.119,191.28
				c-13.242,28.125-35.063,54.818-40.451,86.118c-12.973,75.448-37.914,151.261-44.146,227.42
				c-4.762,58.15,4.295,117.591,12.906,174.977c8.516,56.842,4.418,114.809,3.564,172.398
				c-1.018,68.85,35.57,131.682,30.488,200.968c-2.131,29.088-17.111,57.464-21.357,86.175
				c-9.633,65.124,19.977,145.606-8.635,205.277c-11.072,23.082-24.248,36.523-27.691,65.101
				c-9.6,79.523,16.367,162.005,19.295,241.997c1.57,42.74-10.033,87.179-0.48,129.432c8.75,38.757,39.844,59.998,50.025,97.108
				c23.723,86.432,28.982,164.889,87.377,238.3c35.096,44.115,64.615,95.813,92.258,144.941
				c23.281,41.378,44.359,81.242,59.869,126.578c32.043,93.685,118.434,224.123,229.359,221.29
				c49.234-1.252,61.557-56.293,105.477-58.522c41.375-2.082,57.287,52.523,105.512,40.667
				c66.283-16.278,133.422-88.225,176.68-138.799c59.615-69.722,76.453-161.538,128.801-234.787
				c55.15-77.157,20.969-162.923,37.479-252.442c4.012-21.788,12.951-42.497,14.512-64.104c3.504-48.415-8.504-96.419-4.471-145.689
				c4.881-59.521,15.715-118.78,34.268-175.604c23.617-72.335,78.703-120.301,112.609-186.526
				c26.002-50.779,43.49-58.698,67.166-111.794c14.002-31.414,40.264-87.366,61.42-112.471
				c13.689-16.245,44.639-70.982,69.568-105.441c51.979-71.847,66.465-86.402,89.178-175.557
				c17.836-70.038,21.506-151.658,15.781-223.404c-21.197-265.476-187.24-505.258-390.9-665.862
				c-55.111-43.452-109.07-92.006-170.871-126.137c-41.15-22.727-66.209-37.526-104.119-55.098
				c-40.514-18.778-80.213-34.971-123.229-47.959c-36.721-11.088-92.619-14.622-131.404-23.339
				C3699.217,1035.841,3641.771,1041.358,3599.32,1048.143z M4239.875,1460.642c62.838,66.165,129.146,133.926,174.025,212.98
				c47.994,84.525,98.369,173.476,100.264,271.903c2.584,134.273-65.104,280.427-156.721,378.67
				c-39.41,42.258-88.188,84.829-137.723,129.333c-109.738,98.606-209.717,211.142-233.137,346.158
				c-42.76,246.623,147.084,477.705,50.201,735.99c-21.012,56.015-65.574,110.309-115.117,143.851
				c-90.326,61.179-221.477,72.472-307.393-5.18c-80.857-73.069-122.322-208.655-173.602-303.226
				c-45.719-84.315-74.566-193.793-96.68-297.417c-12.748-59.751-33.264-114.002-27.766-169.501
				c15.354-154.956,97.676-300.716,124.654-440.966c28.531-148.341-20.717-261.102-71.172-396.627
				c-28.518-76.601-65.729-164.195-72.795-245.553c-5.85-67.26,1.299-140.486,14.721-206.381
				c39.686-194.937,199.994-454.828,429.992-443.939C3974.389,1181.758,4047.506,1258.081,4239.875,1460.642z"/>
			<path id="_x31_80608873" fill="#9DF0D2" stroke="#000000" d="M3738.424,1767.876c1.285,53.052,11.896,101.759,43.074,145.603
				c23.506,33.062,58.52,63.73,101.012,63.665c63.447-0.105,99.918-80.766,113.836-131.423c6.17-22.463,5.061-48.57,5.426-71.712
				c0.4-24.745-0.369-49.654-4.865-74.049c-4.113-22.329-10.494-50.651-22.529-70.201c-19.826-32.204-52.617-42.964-87.566-50.245
				c-35.742-7.455-55.469-8.193-95.93,6.058c-32.299,11.379-64.043,45.699-65.25,81.449
				C3724.477,1701.196,3737.605,1733.915,3738.424,1767.876z"/>
			<path id="_x31_80608874" fill="#95E4C8" stroke="#000000" d="M3738.424,1767.876c1.285,53.052,11.896,101.759,43.074,145.603
				c23.506,33.062,58.52,63.73,101.012,63.665c63.447-0.105,99.918-80.766,113.836-131.423c6.17-22.463,5.061-48.57,5.426-71.712
				c0.4-24.745-0.369-49.654-4.865-74.049c-4.113-22.329-10.494-50.651-22.529-70.201c-19.826-32.204-52.617-42.964-87.566-50.245
				c-35.742-7.455-55.469-8.193-95.93,6.058c-32.299,11.379-64.043,45.699-65.25,81.449
				C3724.477,1701.196,3737.605,1733.915,3738.424,1767.876z"/>
			<path id="_x31_80608876" fill="#CCCCCC" stroke="#000000" d="M3704.311,2708.706c-0.535,2.433-7.244,59.396-22.166,77.426
				c-24.111,29.138-45.406,47.579-42.043,88.851c4.111,50.493,21.861,103.829,32.684,153.554
				c7.619,34.939,9.328,85.926,46.902,103.645c32.088,15.134,32.592-71.139,33.875-88.096c2.316-30.658-4.197-59.855-7.793-89.631
				c-3.695-30.65-1.674-63.498-3.244-93.665c-2.303-44.408,1.422-87.854,3.637-132.126c4.41-88.191,26.271-173.271,47.654-258.537
				c37.01-147.611,134.482-252.401,202.756-383.828c56.133-108.034,41.691-216.506,6.615-327.604
				c-4.73,24.605,1.834,49.984-4.283,74.453c-10.771,43.115-31.094,95.646-66.645,124.325
				c-83.48,67.259-172.127-47.701-184.898-120.889c-13.084-75.02-23.027-162.264,64.059-196.356
				c27.625-10.815,57.006-11.377,86.201-9.758c9.564,0.527,42.619,8.249,48.879-3.299c10.385-19.155-10.846-30.671-24.564-37.956
				c-21.418-11.364-51.736-12.911-75.287-13.046c-49.076-0.283-97.074,19.779-117.514,66.295
				c-25.066,57.063-18.982,121.887-24.492,182.271c-3.846,42.2-2.822,90.854,17.941,129.024
				c32.766,60.234,117.838,55.206,150.574,101.669c29.465,41.819-3.693,101.608-15.203,140.719
				c-16.477,55.984-52.836,104.062-73.551,158.411c-17.283,45.349-27.84,89.081-37.865,136.521
				c-10.396,49.129-17.525,98.174-27.041,142.336C3714.232,2657.848,3709.668,2684.287,3704.311,2708.706z"/>
			<path id="_x31_80608877" fill="#CCCCCC" stroke="#000000" d="M4024.264,3976.116c0.02,0.006-0.219-0.535-0.465-1.219
				c-101.068,47.394-220.439,101.871-334.814,85.376c-39.354-5.676-76.271-19.964-111.039-39.232
				c-58.959-32.131-111.76-78.75-159.771-122.334c-70.238-63.745-126.873-140.357-184.977-214.845
				c-86.238-110.556-151.646-236.128-210.395-362.924c-26.6-57.42-38.695-119.768-49.631-181.995
				c-23.793-135.429-31.291-273.058-35.615-410.303c-7.68-243.78-17.406-488.962-14.18-732.857
				c2.436-183.22,28.703-393.142,103.764-572.625c-43.586,95.261-76.086,196.43-109.59,294.666
				c-75.49,221.389-95.658,481.374-80.521,713.882c8.727,134.063-48.115,264.074-45.227,398.708
				c4.424,206-18.944,456.581,67.691,647.314c65.314,143.828,190.959,254.719,307.705,356.744
				c117.414,102.623,237.287,200.115,389.457,244.901c140.971,41.472,272.227,17.902,397.1-56.165
				c25.098-14.885,49.463-30.133,73.168-45.74c-0.146-0.375-0.658-1.602-0.859-2.572
				C4025.463,3975.299,4024.867,3975.712,4024.264,3976.116z"/>
			<path id="_x31_80608878" fill="#CCCCCC" stroke="#000000" d="M4789.268,1800.201
				c-64.639-160.236-154.768-309.477-276.313-432.091c75.037,75.874,132.459,158.417,175.484,258.144
				c25.816,59.845,47.232,121.493,65.309,184.138c18.537,64.28,33.557,129.612,46.178,195.159
				c34.563,179.322,10.83,339.515-75.031,501.423c-40.496,76.343-91.742,147.02-128.35,225.413
				c-37.354,79.998-51.037,165.643-62.008,252.52c-29.344,232.296-89.113,432.965-212.746,633.438
				c-80.744,130.908-159.576,265.791-287.762,354.436c247.566-164.712,421.09-370.443,569.244-638.39
				c101.449-183.485,148.146-372.911,137.223-581.606c-4.48-85.616,34.014-134.255,68.16-207.228
				c34.594-73.944,51.688-159.345,58.137-240.328C4881.176,2124.618,4852.031,1955.752,4789.268,1800.201z"/>
			<path id="_x31_80608875" fill="#AAAAAA" stroke="#000000" d="M3739.842,2432.632c9.717-48.778,19.75-97.023,19.217-147.037
				c-0.527-50.236-11.557-99.251-23.631-147.769c-10.139-40.73-23.42-79.706-23.129-122.186c0.068-10.287-3.904-38.156,8.193-43.329
				c14.838-6.333,33.439,16.724,45.025,22.379c9.133,4.464,17.5,9.938,26.963,13.618c18.543,7.207,38.656,15.939,56.049,25.514
				c16.973,9.348,31.65,24.14,35.678,43.776c4.318,21.061-2.848,44.13-7.857,64.485c-5.057,20.515-12.537,39.063-20.359,58.561
				c-9.145,22.79-16.627,45.214-29.148,66.489c-37.893,64.394-61.113,135.448-76.646,208.231
				c-3.234,15.173-7.65,30.111-10.119,45.435c-12.338,76.503-26.094,137.009-38.625,206.097c-1.621,8.96-4.479,44.249-19.363,41.756
				c-20.688-3.457-2.029-65.783,0.387-78.245c10.393-53.542,26.072-105.835,38.617-158.877
				c7.676-32.494,11.684-65.512,18.578-98.081C3739.723,2433.178,3739.785,2432.906,3739.842,2432.632z"/>
		</g>
	</g>
	<g transform="scale(1.0)">
		<g id="_x31_80608862_1_" transform=" scale(1.0, 1.0)">
			<path id="_x31_80608864_1_" fill="#BFDAE3" stroke="#000000" d="M976.988,1335.238
				c179.277-165.668,441.806-264.64,681.673-301.246c239.673-36.58,497.476-1.455,655.874,197.701
				c112.163,141.016,166.579,317.832,223.938,486.044c75.494,221.405,95.662,481.399,80.525,713.923
				c-8.729,134.073,48.115,264.092,45.222,398.733c-4.427,206.011,18.942,456.603-67.69,647.354
				c-65.324,143.831-190.967,254.732-307.719,356.767c-117.415,102.628-237.292,200.127-389.466,244.914
				c-140.966,41.475-272.22,17.909-397.098-56.161c-291.219-172.735-485.853-392.831-649.521-688.853
				c-101.451-183.494-148.15-372.933-137.225-581.639c4.478-85.622-34.014-134.262-68.164-207.237
				c-34.593-73.948-51.685-159.355-58.135-240.344c-14.375-180.621,14.77-349.494,77.528-505.057
				C737.256,1625.322,838.1,1463.586,976.988,1335.238z"/>
			<path id="_x31_80608865_1_" fill="#B0FFB8" stroke="#000000" d="M589.225,2305.168c6.449,80.982,23.541,166.395,58.135,240.341
				c34.146,72.971,72.642,121.61,68.158,207.231c-10.924,208.704,35.78,398.136,137.229,581.626
				c163.671,296.019,358.295,516.106,649.515,688.84c124.883,74.063,256.137,97.632,397.1,56.156
				c152.17-44.784,272.044-142.285,389.46-244.913c116.745-102.028,242.383-212.927,307.71-356.762
				c86.621-190.746,63.26-441.334,67.686-647.342c2.896-134.638-53.953-264.654-45.224-398.725
				c15.138-232.517-5.037-492.512-80.536-713.906c-57.354-168.202-111.776-345.013-223.939-486.031
				c-158.393-199.148-416.197-234.283-655.866-197.695c-239.858,36.608-502.386,135.58-681.658,301.246
				c-138.892,128.34-239.732,290.078-310.249,464.887C603.981,1955.68,574.842,2124.557,589.225,2305.168z M1571.792,2077.597
				c4.029-19.636,18.707-34.426,35.679-43.775c17.394-9.575,37.506-18.307,56.049-25.514c9.464-3.68,17.83-9.154,26.964-13.617
				c11.585-5.656,30.186-28.713,45.023-22.38c12.099,5.173,8.125,33.042,8.193,43.329c0.292,42.48-12.989,81.455-23.128,122.187
				c-12.074,48.516-23.103,97.531-23.63,147.767c-0.535,50.014,9.499,98.259,19.217,147.038c0.056,0.273,0.117,0.544,0.171,0.818
				c6.895,32.569,10.903,65.587,18.578,98.081c12.545,53.043,28.223,105.336,38.616,158.878c2.418,12.46,21.076,74.788,0.389,78.245
				c-14.885,2.493-17.742-32.796-19.363-41.756c-12.531-69.088-26.288-129.594-38.625-206.098
				c-2.47-15.322-6.886-30.261-10.12-45.434c-15.533-72.783-38.754-143.838-76.646-208.232
				c-12.521-21.274-20.003-43.699-29.147-66.489c-7.823-19.497-15.305-38.045-20.36-58.561
				C1574.64,2121.73,1567.476,2098.661,1571.792,2077.597z"/>
			<path id="_x31_80608866_1_" fill="#9AD2BD" stroke="#000000" d="M589.225,2305.168c6.449,80.982,23.541,166.395,58.135,240.341
				c34.146,72.971,72.642,121.61,68.158,207.231c-10.924,208.704,35.78,398.136,137.229,581.626
				c163.671,296.019,358.295,516.106,649.515,688.84c124.883,74.063,256.137,97.632,397.1,56.156
				c152.17-44.784,272.044-142.285,389.46-244.913c116.745-102.028,242.383-212.927,307.71-356.762
				c86.621-190.746,63.26-441.334,67.686-647.342c2.896-134.638-53.953-264.654-45.224-398.725
				c15.138-232.517-5.037-492.512-80.536-713.906c-57.354-168.202-111.776-345.013-223.939-486.031
				c-158.393-199.148-416.197-234.283-655.866-197.695c-239.858,36.608-502.386,135.58-681.658,301.246
				c-138.892,128.34-239.732,290.078-310.249,464.887C603.981,1955.68,574.842,2124.557,589.225,2305.168z M1571.792,2077.597
				c4.029-19.636,18.707-34.426,35.679-43.775c17.394-9.575,37.506-18.307,56.049-25.514c9.464-3.68,17.83-9.154,26.964-13.617
				c11.585-5.656,30.186-28.713,45.023-22.38c12.099,5.173,8.125,33.042,8.193,43.329c0.292,42.48-12.989,81.455-23.128,122.187
				c-12.074,48.516-23.103,97.531-23.63,147.767c-0.535,50.014,9.499,98.259,19.217,147.038c0.056,0.273,0.117,0.544,0.171,0.818
				c6.895,32.569,10.903,65.587,18.578,98.081c12.545,53.043,28.223,105.336,38.616,158.878c2.418,12.46,21.076,74.788,0.389,78.245
				c-14.885,2.493-17.742-32.796-19.363-41.756c-12.531-69.088-26.288-129.594-38.625-206.098
				c-2.47-15.322-6.886-30.261-10.12-45.434c-15.533-72.783-38.754-143.838-76.646-208.232
				c-12.521-21.274-20.003-43.699-29.147-66.489c-7.823-19.497-15.305-38.045-20.36-58.561
				C1574.64,2121.73,1567.476,2098.661,1571.792,2077.597z"/>
			<path id="_x31_80608867_1_" fill="#9AD2BD" stroke="#000000" d="M589.225,2305.168c6.449,80.982,23.541,166.395,58.135,240.341
				c34.146,72.971,72.642,121.61,68.158,207.231c-10.924,208.704,35.78,398.136,137.229,581.626
				c163.671,296.019,358.295,516.106,649.515,688.84c124.883,74.063,256.137,97.632,397.1,56.156
				c152.17-44.784,272.044-142.285,389.46-244.913c116.745-102.028,242.383-212.927,307.71-356.762
				c86.621-190.746,63.26-441.334,67.686-647.342c2.896-134.638-53.953-264.654-45.224-398.725
				c15.138-232.517-5.037-492.512-80.536-713.906c-57.354-168.202-111.776-345.013-223.939-486.031
				c-158.393-199.148-416.197-234.283-655.866-197.695c-239.858,36.608-502.386,135.58-681.658,301.246
				c-138.892,128.34-239.732,290.078-310.249,464.887C603.981,1955.68,574.842,2124.557,589.225,2305.168z M1571.792,2077.597
				c4.029-19.636,18.707-34.426,35.679-43.775c17.394-9.575,37.506-18.307,56.049-25.514c9.464-3.68,17.83-9.154,26.964-13.617
				c11.585-5.656,30.186-28.713,45.023-22.38c12.099,5.173,8.125,33.042,8.193,43.329c0.292,42.48-12.989,81.455-23.128,122.187
				c-12.074,48.516-23.103,97.531-23.63,147.767c-0.535,50.014,9.499,98.259,19.217,147.038c0.056,0.273,0.117,0.544,0.171,0.818
				c6.895,32.569,10.903,65.587,18.578,98.081c12.545,53.043,28.223,105.336,38.616,158.878c2.418,12.46,21.076,74.788,0.389,78.245
				c-14.885,2.493-17.742-32.796-19.363-41.756c-12.531-69.088-26.288-129.594-38.625-206.098
				c-2.47-15.322-6.886-30.261-10.12-45.434c-15.533-72.783-38.754-143.838-76.646-208.232
				c-12.521-21.274-20.003-43.699-29.147-66.489c-7.823-19.497-15.305-38.045-20.36-58.561
				C1574.64,2121.73,1567.476,2098.661,1571.792,2077.597z M1459.096,1699.959c4.114-22.328,10.492-50.649,22.528-70.202
				c19.826-32.203,52.618-42.962,87.567-50.244c35.742-7.457,55.468-8.194,95.93,6.058c32.3,11.38,64.041,45.699,65.251,81.447
				c1.152,34.177-11.976,66.897-12.797,100.857c-1.284,53.052-11.896,101.759-43.073,145.603
				c-23.505,33.061-58.52,63.728-101.011,63.665c-63.448-0.105-99.919-80.766-113.837-131.423
				c-6.169-22.464-5.06-48.571-5.426-71.713C1453.83,1749.264,1454.598,1724.354,1459.096,1699.959z"/>
			<path id="_x31_80608868_1_" fill="#82C7AE" stroke="#000000" d="M1421.942,3972.756c2.367,1.574,4.753,3.139,7.135,4.707
				c0.147-0.377,0.659-1.6,0.859-2.57c0.601,0.406,1.196,0.817,1.8,1.222c-0.019,0.007,0.219-0.536,0.465-1.219
				c101.069,47.393,220.44,101.869,334.814,85.375c39.353-5.675,76.271-19.964,111.04-39.231
				c58.96-32.133,111.76-78.75,159.772-122.334c70.237-63.746,126.872-140.358,184.975-214.845
				c86.239-110.558,151.648-236.128,210.394-362.925c26.601-57.42,38.698-119.768,49.633-181.994
				c23.792-135.43,31.292-273.057,35.614-410.304c7.681-243.78,17.405-488.961,14.179-732.856
				c-2.436-183.22-28.703-393.142-103.76-572.625c-8.259-15.802-9.435-21.056-26.998-55.422
				c-22.105-43.248-23.581-46.398-87.346-136.045c-147.489-207.352-416.198-234.281-655.866-197.698
				c-239.86,36.609-502.872,135.052-681.658,301.242c-20.972,19.496-20.972,19.496-41.821,40.938
				c-2.614,2.686,5.223-5.384,7.871-8.062c-2.643,2.669-5.257,5.368-7.871,8.062c-71.193,73.662-126.104,153.875-167.612,250.083
				c-25.816,59.845-47.231,121.493-65.31,184.138c-18.536,64.279-33.556,129.612-46.178,195.159
				c-34.561,179.321-10.828,339.514,75.032,501.422c40.497,76.345,91.742,147.02,128.35,225.414
				c37.354,79.997,51.038,165.641,62.009,252.52c29.342,232.296,89.113,432.965,212.746,633.438
				C1214.947,3749.242,1293.774,3884.113,1421.942,3972.756z M1291.282,3516.824c-55.15-77.158-20.969-162.926-37.479-252.445
				c-4.01-21.786-12.953-42.496-14.512-64.104c-3.502-48.415,8.506-96.419,4.472-145.689
				c-4.883-59.521-15.715-118.781-34.269-175.603c-23.618-72.336-78.702-120.3-112.61-186.527
				c-25.999-50.779-43.49-58.695-67.165-111.793c-14-31.414-40.262-87.366-61.42-112.473
				c-13.689-16.243-44.637-70.981-69.568-105.44c-51.979-71.846-66.464-86.401-89.177-175.557
				c-17.836-70.038-21.508-151.658-15.782-223.403c21.198-265.476,187.24-505.257,390.9-665.863
				c55.11-43.452,109.069-92.004,170.87-126.135c41.152-22.727,66.21-37.526,104.122-55.098
				c40.513-18.778,80.21-34.97,123.226-47.959c36.721-11.088,92.619-14.622,131.405-23.339c42.488-9.555,99.936-4.04,142.385,2.746
				c68.461,10.938,133.445,53.42,192.828,91.802c58.778,37.988,98.296,102.207,136.5,158.961
				c38.258,56.824,34.927,129.255,64.119,191.281c13.244,28.125,35.064,54.818,40.452,86.117
				c12.972,75.449,37.913,151.262,44.146,227.421c4.761,58.152-4.295,117.591-12.906,174.976
				c-8.516,56.842-4.419,114.811-3.564,172.399c1.017,68.851-35.571,131.683-30.488,200.968
				c2.13,29.089,17.112,57.464,21.357,86.175c9.632,65.123-19.976,145.604,8.635,205.277c11.072,23.083,24.248,36.524,27.691,65.102
				c9.598,79.521-16.366,162.004-19.295,241.995c-1.571,42.74,10.031,87.179,0.479,129.434
				c-8.75,38.756-39.842,59.996-50.024,97.106c-23.724,86.434-28.982,164.891-87.377,238.301
				c-35.098,44.116-64.616,95.813-92.259,144.941c-23.281,41.378-44.359,81.242-59.868,126.578
				c-32.042,93.685-118.434,224.124-229.36,221.291c-49.234-1.253-61.555-56.294-105.477-58.522
				c-41.374-2.082-57.287,52.523-105.511,40.666c-66.284-16.279-133.421-88.225-176.679-138.799
				C1360.466,3681.89,1343.625,3590.072,1291.282,3516.824z"/>
			<path id="_x31_80608872_1_" fill="#82C7AE" stroke="#000000" d="M1715.809,1977.474c36.052-20.728,27.98,26.412,28.128,39.063
				c0.489,42.904-12.551,82.405-22.445,123.647c-11.793,49.121-22.538,98.742-22.829,149.489
				c-0.297,50.524,9.918,99.163,19.827,148.337c0.054,0.272,0.112,0.549,0.167,0.823c7.021,32.835,11.169,66.147,18.957,98.897
				c12.741,53.455,28.59,106.122,39.191,160.105c4.229,21.563,12.623,47.461,4.427,69.341c-2.841,7.58-15.333,0.165-19.521-8.192
				c0.439,18.494,26.552,48.14,31.793,54.497c10.018,12.164,16.54,16.457,20.87,31.973c2.743,9.81,1.528,27.295,0.763,37.457
				c-3.855,51.045-23.383,105.394-33.926,155.725c-7.413,35.369-7.572,75.284-44.9,93.542
				c-31.868,15.596-32.148-64.363-33.499-81.479c-2.452-30.944,3.981-66.14,7.417-96.248c3.54-30.998,1.834-63.173,3.245-93.665
				c2.087-44.879-1.591-93.923-3.999-138.625c-4.805-89.04-22.852-159.834-44.546-245.761
				c-37.536-148.742-135.059-253.645-203.643-385.737c-56.383-108.582-42.519-218.292-8.128-330.854l1.475,15.549
				c-0.516-24.996,0.132-50.162,4.493-74.848c3.983-22.595,10.199-51.265,22.088-71.127c19.585-32.718,52.188-43.902,86.939-51.599
				c30.654-6.791,59.644-7.262,95.519,5.193c29.506,10.24,48.263,31.189,60.385,57.417c25.182,54.49,21.731,131.774,26.595,183.229
				c3.7,39.123,4.277,82.977-12.146,119.598C1737.022,1946.533,1728.334,1964.077,1715.809,1977.474z M1558.364,2914.413
				c-8.475,132.6-63.298,256.772-84.224,390.6c-12.928,82.633,4.281,175.216,61.379,241.422
				c44.024,51.042,111.646,81.078,179.643,57.121c171.28-60.354,266.493-288.281,307.015-451.331
				c28.974-116.566,38.464-249.847,13.717-367.283c-34.107-161.916-124.387-319.594-103.325-489.85
				c22.066-178.324,140.339-337.233,142.507-517.283c1.215-100.339-31.783-188.257-76.134-276.928
				c-34.242-68.471-66.46-134.145-128.685-181.388c-100.261-76.115-219.926-98.556-329.272-49.374
				c-96.596,43.446-184.984,150.159-247.026,219.045c-80.972,89.901-181.654,174.754-232.259,286.361
				c-36.24,79.926-41.651,184.349-18.161,267.702c53.035,188.235,226.242,295.141,352.729,429.721
				c87.613,93.209,146.139,208.726,164.326,337.168C1565.768,2846.718,1560.618,2879.208,1558.364,2914.413z"/>
			<path id="_x31_80608871_1_" fill="#9AD2BD" stroke="#000000" d="M1255.287,1474.448c-37.358,36.59-73.461,75.705-106.207,117.299
				c-91.036,115.611-173.857,243.523-168.557,396.5c8.192,236.346,221.911,353.928,365.6,508.188
				c84.457,90.66,139.78,188.514,161.322,312.437c23.081,132.828-29.789,266.761-54.762,395.366
				c-27.896,143.663-26.681,354.626,113.118,448.486c241.105,161.882,457.455-333.126,499.655-516.637
				c27.122-117.975,46.021-221.966,17.919-340.884c-17.346-73.384-39.83-147.943-62.127-220.424
				c-18.417-59.881-44.726-114.15-48.099-177.408c-5.376-101.054,30.164-197.655,64.332-292.113
				c44.677-123.448,95.13-234.323,87.171-369.684c-6.471-110.008-62.372-214.072-111.866-310.02
				c-36.373-70.512-98.101-150.792-169.347-188.376C1602.595,1110.128,1403.993,1328.791,1255.287,1474.448z M1533.375,1275.221
				c112.665-51.291,233.634-29.653,340.483,51.6c62.287,47.37,94.342,112.688,128.418,180.802
				c44.136,88.21,76.873,175.564,75.179,274.881c-3.02,178.222-122.574,334.389-145.57,510.708
				c-21.961,168.346,67.987,325.306,101.492,485.923c24.3,116.494,20.904,248.615-8.75,363.729
				c-41.47,161.023-137.129,402.6-309.466,460.693c-68.419,23.059-144.018-15.305-188.005-66.263
				c-57.045-66.09-64.534-163.003-51.167-244.688c21.658-132.278,73.892-255.434,83.03-386.618
				c2.429-34.836,1.815-70.229-3.215-106.511c-17.661-127.334-75.914-242.251-163.489-335.367
				c-126.428-134.45-297.489-239.494-349.887-426.352c-23.204-82.736-13.967-194.112,22.814-272.883
				c51.348-110.001,149.834-185.023,228.917-275.646C1366.035,1406.866,1446.738,1314.658,1533.375,1275.221z"/>
			<path id="_x31_80608870_1_" fill="#82C7AE" stroke="#000000" d="M1469.418,2799.686
				c42.758,246.621-147.085,477.705-50.202,735.989c21.011,56.015,65.573,110.308,115.116,143.851
				c90.328,61.179,221.479,72.471,307.393-5.181c80.859-73.068,122.321-208.653,173.602-303.225
				c45.72-84.314,74.566-193.793,96.68-297.416c12.75-59.752,33.264-114.003,27.765-169.502
				c-15.352-154.956-97.676-300.716-124.652-440.966c-28.533-148.34,20.718-261.1,71.172-396.627
				c28.516-76.603,65.729-164.194,72.795-245.552c5.849-67.26-1.299-140.487-14.722-206.382
				c-39.686-194.937-199.994-454.829-429.992-443.939c-232.76,11.021-305.877,87.345-498.247,289.906
				c-62.835,66.166-129.146,133.926-174.024,212.98c-47.992,84.525-98.369,173.476-100.264,271.903
				c-2.585,134.274,65.103,280.427,156.722,378.67c39.41,42.259,88.187,84.829,137.722,129.333
				C1346.017,2552.134,1445.997,2664.669,1469.418,2799.686z M1346.123,2496.432c-143.689-154.261-357.407-271.842-365.601-508.188
				c-5.301-152.977,77.521-280.89,168.557-396.499c32.748-41.595,68.849-80.709,106.208-117.3
				c148.705-145.654,347.308-364.317,588.152-237.268c71.247,37.584,132.975,117.865,169.346,188.376
				c49.496,95.947,105.398,200.011,111.867,310.019c7.958,135.361-42.495,246.237-87.172,369.684
				c-34.165,94.458-69.708,191.061-64.33,292.114c3.371,63.258,29.682,117.527,48.099,177.408
				c22.297,72.48,44.781,147.039,62.127,220.424c28.103,118.918,9.202,222.909-17.92,340.884
				c-42.198,183.51-258.549,678.52-499.655,516.637c-139.798-93.861-141.013-304.823-113.118-448.486
				c24.973-128.605,77.843-262.538,54.762-395.367C1485.902,2684.946,1430.579,2587.094,1346.123,2496.432z"/>
			<path id="_x31_80608869_1_" fill="#9AD2BD" stroke="#000000" d="M1714.291,1045.398c-38.785,8.717-94.684,12.251-131.404,23.339
				c-43.016,12.988-82.714,29.181-123.228,47.959c-37.911,17.572-62.969,32.371-104.12,55.098
				c-61.801,34.131-115.759,82.685-170.87,126.137c-203.66,160.604-369.703,400.386-390.9,665.862
				c-5.726,71.746-2.055,153.366,15.781,223.404c22.712,89.154,37.198,103.71,89.178,175.557
				c24.93,34.459,55.879,89.196,69.567,105.441c21.156,25.104,47.419,81.057,61.421,112.471
				c23.675,53.096,41.164,61.015,67.165,111.794c33.907,66.226,88.992,114.191,112.61,186.526
				c18.553,56.823,29.386,116.083,34.267,175.604c4.034,49.271-7.975,97.274-4.47,145.689c1.56,21.607,10.5,42.316,14.512,64.104
				c16.51,89.52-17.673,175.285,37.478,252.442c52.348,73.249,69.187,165.065,128.802,234.787
				c43.258,50.574,110.396,122.521,176.68,138.799c48.224,11.856,64.136-42.749,105.511-40.667
				c43.921,2.229,56.242,57.271,105.478,58.522c110.926,2.833,197.316-127.605,229.359-221.29
				c15.509-45.336,36.587-85.2,59.868-126.578c27.643-49.129,57.162-100.826,92.259-144.941
				c58.394-73.411,63.653-151.868,87.377-238.3c10.181-37.11,41.274-58.352,50.024-97.108c9.554-42.253-2.05-86.691-0.48-129.432
				c2.929-79.992,28.895-162.474,19.296-241.997c-3.443-28.577-16.62-42.019-27.692-65.101
				c-28.61-59.671,0.999-140.153-8.634-205.277c-4.246-28.711-19.228-57.087-21.357-86.175
				c-5.083-69.286,31.505-132.118,30.488-200.968c-0.854-57.589-4.951-115.556,3.563-172.398
				c8.612-57.386,17.669-116.826,12.906-174.977c-6.232-76.16-31.173-151.972-44.146-227.42
				c-5.389-31.3-27.209-57.993-40.452-86.118c-29.192-62.024-25.862-134.456-64.118-191.28
				c-38.204-56.755-77.723-120.975-136.501-158.962c-59.384-38.379-124.367-80.863-192.828-91.801
				C1814.229,1041.358,1756.783,1035.841,1714.291,1045.398z M1714.371,1170.737c229.999-10.889,390.307,249.002,429.992,443.939
				c13.423,65.895,20.57,139.121,14.721,206.381c-7.065,81.358-44.276,168.952-72.794,245.553
				c-50.455,135.526-99.704,248.287-71.172,396.627c26.978,140.25,109.3,286.01,124.653,440.966
				c5.499,55.499-15.017,109.75-27.766,169.501c-22.113,103.624-50.96,213.102-96.68,297.417
				c-51.279,94.57-92.743,230.156-173.601,303.226c-85.916,77.651-217.066,66.358-307.394,5.18
				c-49.543-33.542-94.105-87.836-115.116-143.851c-96.883-258.285,92.96-489.367,50.201-735.99
				c-23.42-135.017-123.399-247.552-233.137-346.158c-49.535-44.504-98.313-87.075-137.723-129.333
				c-91.618-98.243-159.306-244.396-156.721-378.67c1.895-98.427,52.27-187.378,100.264-271.903
				c44.879-79.054,111.188-146.815,174.024-212.98C1408.495,1258.081,1481.612,1181.758,1714.371,1170.737z"/>
			<path id="_x31_80608873_1_" fill="#9DF0D2" stroke="#000000" d="M1730.37,1667.021c-1.208-35.75-32.951-70.069-65.25-81.449
				c-40.462-14.251-60.188-13.513-95.93-6.058c-34.949,7.281-67.741,18.041-87.567,50.245
				c-12.035,19.55-18.415,47.873-22.528,70.201c-4.496,24.395-5.266,49.304-4.865,74.049c0.365,23.142-0.745,49.249,5.426,71.712
				c13.917,50.657,50.389,131.318,113.836,131.423c42.492,0.065,77.506-30.603,101.011-63.665
				c31.178-43.844,41.789-92.551,43.074-145.603C1718.395,1733.915,1731.523,1701.196,1730.37,1667.021z"/>
			<path id="_x31_80608874_1_" fill="#95E4C8" stroke="#000000" d="M1730.37,1667.021c-1.208-35.75-32.951-70.069-65.25-81.449
				c-40.462-14.251-60.188-13.513-95.93-6.058c-34.949,7.281-67.741,18.041-87.567,50.245
				c-12.035,19.55-18.415,47.873-22.528,70.201c-4.496,24.395-5.266,49.304-4.865,74.049c0.365,23.142-0.745,49.249,5.426,71.712
				c13.917,50.657,50.389,131.318,113.836,131.423c42.492,0.065,77.506-30.603,101.011-63.665
				c31.178-43.844,41.789-92.551,43.074-145.603C1718.395,1733.915,1731.523,1701.196,1730.37,1667.021z"/>
			<path id="_x31_80608876_1_" fill="#CCCCCC" stroke="#000000" d="M1736.502,2633.414c-9.517-44.162-16.646-93.207-27.042-142.336
				c-10.024-47.439-20.582-91.172-37.864-136.521c-20.715-54.35-57.074-102.427-73.551-158.411
				c-11.51-39.11-44.668-98.9-15.204-140.719c32.736-46.463,117.81-41.435,150.574-101.669
				c20.765-38.17,21.788-86.824,17.942-129.024c-5.51-60.384,0.574-125.208-24.493-182.271
				c-20.438-46.516-68.437-66.579-117.513-66.295c-23.552,0.135-53.869,1.682-75.287,13.046
				c-13.72,7.285-34.949,18.801-24.565,37.956c6.26,11.548,39.314,3.827,48.88,3.299c29.194-1.619,58.576-1.057,86.201,9.758
				c87.085,34.093,77.142,121.336,64.059,196.356c-12.772,73.188-101.418,188.148-184.898,120.889
				c-35.551-28.679-55.873-81.21-66.646-124.325c-6.116-24.469,0.448-49.848-4.283-74.453
				c-35.076,111.098-49.518,219.57,6.615,327.604c68.274,131.426,165.746,236.216,202.757,383.828
				c21.382,85.267,43.243,170.346,47.654,258.537c2.214,44.272,5.939,87.718,3.637,132.126c-1.57,30.167,0.45,63.015-3.245,93.665
				c-3.596,29.775-10.109,58.973-7.793,89.631c1.283,16.957,1.787,103.229,33.875,88.096
				c37.574-17.719,39.283-68.705,46.902-103.645c10.823-49.725,28.573-103.061,32.684-153.554
				c3.363-41.271-17.932-59.713-42.042-88.851c-14.923-18.03-21.631-74.993-22.167-77.426
				C1746.333,2684.287,1741.768,2657.848,1736.502,2633.414z"/>
			<path id="_x31_80608877_1_" fill="#CCCCCC" stroke="#000000" d="M1429.935,3974.896c-0.2,0.971-0.712,2.197-0.859,2.572
				c23.705,15.607,48.071,30.855,73.169,45.74c124.873,74.067,256.128,97.637,397.1,56.165
				c152.17-44.786,272.042-142.278,389.457-244.901c116.746-102.025,242.39-212.916,307.705-356.744
				c86.635-190.733,63.268-441.314,67.69-647.314c2.889-134.634-53.952-264.645-45.227-398.708
				c15.138-232.509-5.03-492.494-80.521-713.882c-33.503-98.236-66.004-199.404-109.589-294.666
				c75.06,179.484,101.327,389.406,103.763,572.625c3.227,243.895-6.5,489.077-14.18,732.857
				c-4.323,137.245-11.822,274.874-35.614,410.303c-10.937,62.228-23.032,124.575-49.632,181.995
				c-58.747,126.796-124.155,252.368-210.395,362.924c-58.103,74.487-114.737,151.1-184.976,214.845
				c-48.012,43.584-100.813,90.203-159.772,122.334c-34.768,19.269-71.686,33.557-111.039,39.232
				c-114.374,16.495-233.745-37.982-334.814-85.376c-0.245,0.684-0.484,1.225-0.465,1.219
				C1431.133,3975.712,1430.537,3975.299,1429.935,3974.896z"/>
			<path id="_x31_80608878_1_" fill="#CCCCCC" stroke="#000000" d="M589.207,2305.227c6.45,80.983,23.544,166.384,58.138,240.328
				c34.146,72.973,72.641,121.611,68.159,207.228c-10.923,208.695,35.773,398.121,137.223,581.606
				c148.155,267.946,321.678,473.678,569.245,638.39c-128.187-88.645-207.018-223.527-287.762-354.436
				c-123.634-200.473-183.403-401.142-212.746-633.438c-10.971-86.877-24.655-172.521-62.009-252.52
				c-36.606-78.394-87.853-149.07-128.35-225.413c-85.86-161.908-109.594-322.102-75.031-501.423
				c12.622-65.547,27.642-130.879,46.178-195.159c18.077-62.645,39.493-124.293,65.31-184.138
				c43.025-99.727,100.446-182.27,175.484-258.144c-121.545,122.615-211.674,271.855-276.313,432.091
				C603.969,1955.752,574.825,2124.618,589.207,2305.227z"/>
			<path id="_x31_80608875_1_" fill="#AAAAAA" stroke="#000000" d="M1716.33,2433.449c6.895,32.569,10.903,65.587,18.578,98.081
				c12.545,53.042,28.225,105.335,38.617,158.877c2.417,12.462,21.075,74.788,0.388,78.245
				c-14.885,2.493-17.742-32.796-19.363-41.756c-12.531-69.088-26.287-129.594-38.625-206.097
				c-2.47-15.323-6.885-30.262-10.119-45.435c-15.533-72.783-38.755-143.838-76.647-208.231
				c-12.521-21.275-20.003-43.699-29.147-66.489c-7.823-19.498-15.304-38.046-20.359-58.561
				c-5.011-20.355-12.176-43.425-7.858-64.485c4.028-19.636,18.706-34.428,35.679-43.776c17.393-9.575,37.505-18.307,56.049-25.514
				c9.463-3.68,17.83-9.154,26.963-13.618c11.586-5.655,30.187-28.712,45.024-22.379c12.098,5.172,8.125,33.042,8.193,43.329
				c0.291,42.479-12.989,81.455-23.129,122.186c-12.073,48.517-23.103,97.532-23.63,147.768
				c-0.534,50.014,9.5,98.259,19.217,147.037C1716.214,2432.906,1716.277,2433.178,1716.33,2433.449z"/>
		</g>
	</g>
</g>
</svg>
