<?xml version="1.0" encoding="utf-8"?>
<!-- Generator: Adobe Illustrator 16.0.0, SVG Export Plug-In . SVG Version: 6.00 Build 0)  -->
<!DOCTYPE svg PUBLIC "-//W3C//DTD SVG 1.1//EN" "http://www.w3.org/Graphics/SVG/1.1/DTD/svg11.dtd">
<svg version="1.1" id="Layer_1" xmlns="http://www.w3.org/2000/svg" xmlns:xlink="http://www.w3.org/1999/xlink" x="0px" y="0px"
	 width="5504px" height="5440px" viewBox="0 0 5504 5440" enable-background="new 0 0 5504 5440" xml:space="preserve">
<g>
	<g transform="scale(1.0)">
		<g id="_x31_80609365" transform=" scale(1.0, 1.0)">
			<path id="_x31_80609367" fill="#BFDAE3" stroke="#000000" d="M4340.192,2569.677c142.26,268.014,112.62,582.501,21.566,862.212
				c-55.656,170.951-140.896,329.081-233.825,482.266c-92.758,152.926-183.738,312.08-306.17,443.564
				c-68.967,74.065-149.4,137.233-233.705,192.937c-142.993,94.493-378.634,9.43-507.486-68.543
				c-268.394-162.394-318.382-520.406-313.064-805.176c4.492-241.29-6.455-483.55-5.994-725.746
				c0.332-180.672,28.538-376.28,61.875-553.566c21.579-114.822,78.378-261.834,182.231-324.294
				c123.615-74.348,268.514-95.563,410.218-100.644c86.953-3.12,167.766,0.939,252.457,15.334
				c115.906,19.702,217.161,52.18,322.563,103.061c45.002,21.729,113.098,38.436,149.911,72.134
				c38.254,35.007,43.11,94.347,53.292,141.922c18.058,84.439,89.617,147.476,125.125,222.967
				C4325.827,2542.224,4332.956,2556.023,4340.192,2569.677z"/>
			<path id="_x31_80609368" fill="#BFDAE3" stroke="#000000" d="M3030.54,906.382c152.183-109.544,414.969-39.014,579.041-2.499
				c87.679,19.507,177.751,52.431,257.018,94.774c138.607,74.046,278.113,151.022,371.714,280.682
				c84.635,117.255,268.848,362.589,102.952,491.421c-49.681,38.584-110.052,61.782-171.508,42.819
				c-63.488-19.594-115.189-66.844-164.148-109.108c-110.974-95.775-312.252-127.573-452.146-112.148
				c-180.355,19.888-427.592,52.952-556.334-109.415c-93.895-118.419-112.446-339.201-49.004-475.239
				C2968.699,963.576,2996.916,930.584,3030.54,906.382z"/>
			<path id="_x31_80609369" fill="#B0FFB8" stroke="#000000" d="M4340.208,2569.652c-7.256-13.654-14.368-27.454-21.015-41.573
				c-35.517-75.487-107.064-138.522-125.127-222.961c-10.181-47.574-15.043-106.913-53.289-141.92
				c-36.822-33.696-104.91-50.404-149.91-72.133c-105.401-50.876-206.655-83.359-322.561-103.054
				c-84.69-14.396-165.504-18.457-252.457-15.34c-141.696,5.086-286.607,26.295-410.224,100.643
				c-103.846,62.462-160.635,209.473-182.225,324.294c-33.344,177.284-61.54,372.889-61.874,553.559
				c-0.46,242.193,10.495,484.448,5.995,725.737c-5.319,284.766,44.688,642.775,313.062,805.161
				c128.867,77.975,364.493,163.032,507.493,68.548c84.297-55.707,164.745-118.876,233.696-192.939
				c122.441-131.484,213.41-290.633,306.177-443.555c92.92-153.189,178.16-311.312,233.814-482.265
				C4452.826,3152.144,4482.459,2837.662,4340.208,2569.652z M3690.502,3042.891c-16.028,29.126-28.575,60.179-38.096,92.021
				c-14.789,49.453-12.962,101.927-31.598,150.44c-3.16,8.242-9.621,23.847-18.987,13.306
				c-10.409-11.768-10.006-38.135-11.108-52.648c-1.5-19.769-1.857-39.542-1.972-59.323c2.371-28.692,1.79-57.014,0.174-86.434
				c-0.174-3.123-0.369-6.247-0.576-9.372c-0.404-28.693-2.372-57.306-11.111-84.797c-3.226-10.17-7.244-20.079-11.421-29.93
				c-3.188-8.223-6.703-16.313-10.292-24.371c-5.439-13.443-10.208-27.095-12.72-41.474c-9.076-51.984,40.154-44.43,73.761-30.598
				c7.544,3.104,16.392,6.647,25.755,10.722c7.371,3.901,14.856,7.514,22.254,10.907c2.434,1.118,4.84,2.238,7.234,3.351
				c27.854,15.253,53.188,35.742,56.522,63.652C3731.673,2996.444,3703.021,3020.128,3690.502,3042.891z"/>
			<path id="_x31_80609370" fill="#B0FFB8" stroke="#000000" d="M3030.54,906.382c152.183-109.544,414.969-39.014,579.041-2.499
				c87.679,19.507,177.751,52.431,257.018,94.774c138.607,74.046,278.113,151.022,371.714,280.682
				c84.635,117.255,268.848,362.589,102.952,491.421c-49.681,38.584-110.052,61.782-171.508,42.819
				c-63.488-19.594-115.189-66.844-164.148-109.108c-110.974-95.775-312.252-127.573-452.146-112.148
				c-180.355,19.888-427.592,52.952-556.334-109.415c-93.895-118.419-112.446-339.201-49.004-475.239
				C2968.699,963.576,2996.916,930.584,3030.54,906.382z"/>
			<path id="_x31_80609385" fill="#268F45" stroke="#000000" d="M3030.54,906.382c152.183-109.544,414.969-39.014,579.041-2.499
				c87.679,19.507,177.751,52.431,257.018,94.774c138.607,74.046,278.113,151.022,371.714,280.682
				c84.635,117.255,268.848,362.589,102.952,491.421c-49.681,38.584-110.052,61.782-171.508,42.819
				c-63.488-19.594-115.189-66.844-164.148-109.108c-110.974-95.775-312.252-127.573-452.146-112.148
				c-180.355,19.888-427.592,52.952-556.334-109.415c-93.895-118.419-112.446-339.201-49.004-475.239
				C2968.699,963.576,2996.916,930.584,3030.54,906.382z"/>
			<path id="_x31_80609371" fill="#9AD2BD" stroke="#000000" d="M4340.192,2569.677c-7.236-13.654-14.367-27.453-21.006-41.569
				c-35.508-75.492-107.066-138.528-125.125-222.967c-10.184-47.576-15.038-106.915-53.292-141.923
				c-36.813-33.697-104.909-50.404-149.911-72.133c-105.402-50.882-206.657-83.361-322.563-103.061
				c-84.691-14.396-165.503-18.456-252.456-15.335c-141.705,5.081-286.604,26.295-410.218,100.644
				c-103.855,62.459-160.653,209.472-182.232,324.294c-33.337,177.286-61.541,372.895-61.874,553.566
				c-0.461,242.195,10.487,484.455,5.994,725.747c-5.318,284.769,44.671,642.781,313.064,805.175
				c128.852,77.972,364.493,163.035,507.484,68.544c84.306-55.704,164.738-118.871,233.706-192.937
				c122.433-131.484,213.412-290.639,306.17-443.564c92.931-153.186,178.169-311.314,233.825-482.267
				C4452.813,3152.178,4482.454,2837.69,4340.192,2569.677z M3690.502,3042.891c-16.028,29.126-28.575,60.179-38.096,92.021
				c-14.789,49.453-12.962,101.927-31.598,150.44c-3.16,8.242-9.621,23.847-18.987,13.306
				c-10.409-11.768-10.006-38.135-11.108-52.648c-1.5-19.769-1.857-39.542-1.972-59.323c2.371-28.692,1.79-57.014,0.174-86.434
				c-0.174-3.123-0.369-6.247-0.576-9.372c-0.404-28.693-2.372-57.306-11.111-84.797c-3.226-10.17-7.244-20.079-11.421-29.93
				c-3.188-8.223-6.703-16.313-10.292-24.371c-5.439-13.443-10.208-27.095-12.72-41.474c-9.076-51.984,40.154-44.43,73.761-30.598
				c7.544,3.104,16.392,6.647,25.755,10.722c7.371,3.901,14.856,7.514,22.254,10.907c2.434,1.118,4.84,2.238,7.234,3.351
				c27.854,15.253,53.188,35.742,56.522,63.652C3731.673,2996.444,3703.021,3020.128,3690.502,3042.891z"/>
			<path id="_x31_80609372" fill="#9AD2BD" stroke="#000000" d="M4071.227,3979.939c-0.91,0.456-1.646,0.809-2.137,1.013
				c-19.708,8.195-44.752,10.022-65.904,10.108c-99.639,0.426-199.172-74.852-260.407-147.711
				c-26.419-31.436-57.108-59.93-79.669-94.454c-25.161-38.506-33.408-84.555-49.465-126.996
				c-18.139-47.911-40.605-96.117-47.512-147.4c-7.673-56.962-3.005-114.673,4.104-171.428
				c4.536-36.213,18.463-89.301,18.867-159.481c0.408-69.681,3.132-119.257-37.856-203.412
				c-59.882-122.971-40.144-190.65-35.465-301.049c1.797-42.346,5.655-82.115,20.846-122.315
				c19.312-51.115,35.457-101.063,45.679-155.161c10.483-55.486,22.199-111.73,35.902-166.511
				c8.33-33.371,38.928-97.835,13.137-129.774c-16.836-20.844-46.027-31.991-67.36-47.29
				c-46.881-33.616-90.361-47.472-148.136-45.408c-141.697,5.086-286.607,26.295-410.225,100.643
				c-103.846,62.462-160.635,209.473-182.225,324.294c-33.343,177.283-61.539,372.889-61.873,553.559
				c-0.46,242.193,10.495,484.448,5.994,725.737c-5.318,284.766,44.688,642.775,313.062,805.16
				c128.868,77.976,364.493,163.033,507.494,68.549c84.297-55.707,164.745-118.876,233.696-192.939
				c26.451-28.396,51.365-58.138,75.268-88.697c42.193-54.002,80.867-110.961,117.372-168.95
				c18.208-28.928,36.369-57.911,53.849-87.292c8.959-15.067,18.321-29.854,27.521-44.776
				C4097.001,3965.981,4078.45,3976.328,4071.227,3979.939z"/>
			<path id="_x31_80609373" fill="#82C7AE" stroke="#000000" d="M3333.98,1988.734c-26.333-9.417-136.852,73.862-156.435,93.45
				c-17.268,17.251-20.153,44.291-34.095,63.774c-18.366,25.655-48.699,40.445-66.267,66.461
				c-19.568,28.953-35.794,67.344-49.105,100.004c-81.022,198.815-88.689,447.105-68.947,658.366
				c4.753,50.894,1.328,102.955-3.514,154.347c-2.862,30.364-4.185,60.252-1.97,91.025c8.151,113.328,33.624,224.974,62.375,334.656
				c26.92,102.704,44.835,208.133,81.376,308.12c28.671,78.434,50.957,160.813,99.723,229.882
				c24.835,35.176,51.241,54.856,65.998,95.866c17.97,49.955,33.042,100.927,52.806,150.239
				c29.833,74.508,53.413,143.053,142.46,161.274c73.46,15.031,144.842-35.739,203.378-72.866
				c45.388-28.802,112.646-103.329,169.684-98.468c3.256,43.787-61.293,85.301-89.537,109.988
				c-48.336,42.241-100.317,80.394-153.835,115.758c-184.217,121.729-317.724-55.046-426.054-185.766
				c-57.597-69.517-108.606-144.446-154.421-222.187c-38.812-65.868-90.634-141.402-110.253-215.103
				c-25.791-96.91-55.562-201.997-53.109-303.575c2.306-95.885-10.101-195.777-18.106-292.043
				c-10.375-124.841-24.164-246.723-19.241-371.516c5.334-135.161,14.194-270.164,23.489-405.099
				c11.71-170.326,7.719-381.248,175.244-482.01C3084.553,2025.853,3234.445,1968.125,3333.98,1988.734z"/>
			<path id="_x31_80609377" fill="#82C7AE" stroke="#000000" d="M3818.546,3993.888c-0.9-71.228-27.543-93.149-75.769-150.537
				c-26.419-31.437-57.107-59.931-79.669-94.455c-25.161-38.506-33.408-84.554-49.465-126.996
				c-18.139-47.91-40.605-96.117-47.512-147.399c-7.673-56.963-3.004-114.674,4.104-171.429
				c4.535-36.211,18.463-89.3,18.867-159.481c0.408-69.681,3.132-119.255-37.856-203.412
				c-59.882-122.971-40.144-190.65-35.465-301.049c1.797-42.346,5.655-82.115,20.846-122.315
				c19.312-51.114,35.457-101.063,45.679-155.161c13.045-69.097,59.709-189.479-44.329-209.999
				c-65.798-12.976-139.143,30.559-183.481,76.072c-92.233,94.652-131.988,227.397-139.559,356.58
				c-7.809,133.46,28.45,252.024,49.771,381.835c14.78,89.903,37.153,180.339,47.319,270.781
				c8.882,79.023-10.992,153.217-6.482,232.171c3.736,65.557,20.419,131.619,37.963,194.716
				c15.645,56.276,32.837,111.662,55.345,165.627c38.186,91.55,88.235,175.082,138.208,260.438
				c42.809,73.114,123.811,138.184,208.586,84.468c56.211-35.627,70.602-103.336,72.716-164.801
				C3818.546,4004.064,3818.608,3998.848,3818.546,3993.888z"/>
			<path id="_x31_80609376" fill="#9AD2BD" stroke="#000000" d="M3482.729,2129.073c-20.768,17.95-57.289,17.783-81.201,30.239
				c-261.028,135.968-218.501,491.589-180.376,732.513c16.127,101.913,36.46,204.584,46.728,307.243
				c9.037,90.414-0.267,180.381,4.896,270.798c12.298,215.318,91.7,403.168,195.967,588.177
				c27.901,49.497,37.576,111.247,82.815,150.2c11.373,9.798,22.787,20.005,35.458,27.41c9.187,5.375,19.012,9.276,29.966,10.458
				c1.311,0.139,67.546-5.022,80.01,1.03c12.397-6.309,25.469-13.332,32.846-26.763c6.514-11.859,6.386-27.483,0.735-37.708
				c-79.198,37.605-153.25-24.032-193.513-92.798c-49.972-85.356-100.023-168.889-138.208-260.438
				c-22.506-53.963-39.698-109.351-55.345-165.626c-17.543-63.098-34.227-129.159-37.963-194.716
				c-4.508-78.953,15.365-153.147,6.483-232.171c-10.165-90.443-32.539-180.88-47.319-270.781
				c-21.323-129.812-57.582-248.376-49.772-381.835c7.571-129.183,47.325-261.928,139.56-356.58
				c37.306-38.293,95.144-75.182,151.745-78.195C3503.261,2139.967,3495.229,2133.643,3482.729,2129.073z"/>
			<path id="_x31_80609375" fill="#82C7AE" stroke="#000000" d="M3587.017,4235.653c9.188,5.375,19.012,9.276,29.966,10.458
				c1.509,0.159,89.174-6.715,81.565,4.619c-24.392,36.33-122.557,47.381-158.566,32.529
				c-60.598-24.977-60.56-113.802-79.668-166.483c-28.659-78.996-87.531-142.166-124.726-216.854
				c-42.58-85.517-75.993-178.735-92.754-272.849c-22.692-127.4-10.003-256.859-19.923-385.179
				c-10.037-129.788-39.779-257.12-50.828-386.806c-8.295-97.348-27.047-193.425-19.102-291.482
				c11.056-136.625,76.106-327.755,185.356-418.686c30.805-25.651,113.778-38.278,150.822-22.693
				c-18.733,25.01-61.008,23.212-87.632,37.083c-261.028,135.968-218.501,491.59-180.376,732.512
				c16.127,101.914,36.46,204.585,46.728,307.244c9.037,90.414-0.267,180.38,4.896,270.798
				c12.298,215.317,91.699,403.168,195.968,588.177c27.9,49.496,37.575,111.246,82.814,150.201
				C3562.932,4218.04,3574.346,4228.248,3587.017,4235.653z"/>
			<path id="_x31_80609374" fill="#9AD2BD" stroke="#000000" d="M3776.403,4282.913c-19.754-38.601-61.278-17.574-95.647-16.089
				c-37.692,23.204-110.783,28.806-140.774,16.436c-60.598-24.977-60.56-113.802-79.668-166.483
				c-28.659-78.996-87.531-142.166-124.726-216.854c-42.58-85.517-75.993-178.735-92.754-272.849
				c-22.692-127.4-10.003-256.859-19.923-385.179c-10.037-129.788-39.779-257.12-50.828-386.806
				c-8.295-97.348-27.047-193.425-19.102-291.482c11.056-136.625,76.106-327.755,185.356-418.686
				c29.735-24.758,108.064-37.381,146.79-24.214c-0.712-0.465-0.712-0.465,0,0c1.396,0.474,3.653,1.986,3.468,2.223
				c29.608,18.551,84.423,42.72,114.364,22.827c27.77-18.45,29.151-56.13,20.583-88.657c-17.11-15.797-41.231-25.88-59.559-39.024
				c-46.882-33.616-90.361-47.472-148.137-45.407c-2.274,0.081-4.551,0.166-6.828,0.257c-50.826,2.012-85.104,15.442-88.637,16.345
				c-39.119,10-125.721,75.789-142.837,92.912c-17.268,17.251-20.153,44.291-34.095,63.774
				c-18.366,25.655-48.699,40.445-66.267,66.461c-19.568,28.953-35.794,67.344-49.105,100.004
				c-81.022,198.814-88.689,447.106-68.947,658.367c4.753,50.893,1.328,102.955-3.514,154.346
				c-2.862,30.364-4.185,60.252-1.97,91.025c8.151,113.327,33.624,224.975,62.375,334.657
				c26.92,102.703,44.835,208.132,81.376,308.119c28.671,78.434,50.957,160.812,99.723,229.882
				c24.835,35.176,51.241,54.857,65.998,95.865c17.97,49.957,33.042,100.928,52.806,150.24
				c29.833,74.507,53.413,143.054,142.46,161.274c73.46,15.031,144.842-35.738,203.378-72.867
				c30.457-19.326,70.764-59.244,111.223-81.946C3782.973,4324.579,3788.17,4305.91,3776.403,4282.913z"/>
			<path id="_x31_80609378" fill="#9DF0D2" stroke="#000000" d="M4319.192,2528.08c-75.786,3.798-134.55,15.94-209.201,23.333
				c-91.295,9.033-193.941,34.302-286.001,45.956c-70.288,8.89-209.568,25.826-235.988-36.291
				c-19.107-44.9,3.196-164.151,11.855-208.027c10.837-54.826,24.839-109.053,38.59-163.203
				c8.365-32.953,26.569-67.936,19.974-102.541c-5.17-27.201-24.541-41.17-46.88-55.369c-12.425-7.896-53.14-28.096-54.035-44.632
				c-1.446-26.826,203.55,18.391,221.377,24.563c41.434,14.354,58.259,17.016,100.013,31.838
				c38.116,13.534,75.842,29.118,111.972,47.359c44.609,22.531,113.088,38.437,149.91,72.133
				c38.245,35.007,43.109,94.346,53.289,141.92c16.713,78.171,79.292,138,116.665,206.347L4319.192,2528.08z"/>
			<path id="_x31_80609381" fill="#9DF0D2" stroke="#000000" d="M4170.161,2207.07c-11.583-34.703-45.682-62.272-82.731-73.282
				c-21.57-6.412-41.697-0.412-63.176-2.547c-28.169-2.795-54.882-13.724-83.084-16.229c-11.864-1.053-23.709,1.103-35.395-1.236
				c-12.087-2.417-23.014-8.847-35.271-10.72c-32.095-4.908-62.721,13.7-94.879,10.826c-10.156-0.905-18.678-6.583-28.319-9.526
				c-22.994-7.019-53.171-11.352-74.445,2.633c-12.321,8.086-22.782,26.167-24.279,40.722
				c-3.062,29.437,20.019,34.661,38.909,50.242c11.689,9.658,14.389,23.307,29.247,30.84c13.989,7.095,30.771,1.413,44.461,7.978
				c14.281,6.851,10.952,12.977,18.753,24.428c12.42,18.202,32.918,25.305,52.969,31.701c18.227,5.814,35.902,13.966,54.765,17.572
				c15.591,2.974,32.577-0.396,47.583,4.923c34.694,12.292,49.457,32.511,90.199,27.727c52.468-6.176,123.535-33.259,145.304-85.392
				C4178.78,2238.555,4175.466,2222.899,4170.161,2207.07z"/>
			<path id="_x31_80609379" fill="#95E4C8" stroke="#000000" d="M4177.672,2553.917c-58.934-42.676-170.496-3.377-237.142-5.398
				c-63.217-1.921-127.232-18.325-182.152-45.931c-38.314-19.261-58.153-55.106-95.279-74.528
				c-36.592-19.129-65.532-27.465-67.471-40.811l-6.329,25.23c-8.07,52.375-14.373,117.885-1.297,148.598
				c26.42,62.117,165.701,45.182,235.988,36.291c92.06-11.654,194.705-36.922,286.001-45.956L4177.672,2553.917z"/>
			<path id="_x31_80609380" fill="#9DF0D2" stroke="#000000" d="M3599.856,2353.05c3.706-29.909,24.414-107.059,38.59-163.203
				c54.078,0.33,54.657,24.907,82.903,43.597c51.845,34.279,87.134,63.389,142.096,93.072
				c69.621,37.618,169.464,50.651,244.164,28.298c17.846-5.335,66.068-24.592,83.203-23.271
				c17.844,1.373,32.298,69.267,96.541,141.951c-56.24-53.637-156.52,10.626-204.69,19.82
				c-104.994,20.046-205.861,7.506-302.81-37.95c-43.1-20.206-185.888-119.937-184.228-68.116
				C3595.627,2387.249,3599.856,2353.058,3599.856,2353.05z"/>
			<path id="_x31_80609382" fill="#54BF94" stroke="#000000" d="M4302.289,2537.327c44.462-7.267,121.25,215.684,131.595,367.107
				c11.881,173.875-14.822,352.677-68.501,517.523c-43.639,134.025-107.024,263.983-176.401,386.316
				c-21.842,38.512-37.628,65.28-57.695,100.335c-8.544,14.921-19.356,32.392-26.685,44.139
				c-20.091,32.202-90.135,26.866-132.543,17.021c-30.117-6.995-61.951-18.151-89.667-31.867
				c-33.659-16.661-67.981-46.255-92.686-74.222c-37.986-43.025-53.014-92.447-68.421-146.419
				c-28.616-100.25-45.088-198.105-47.178-303.221c-0.836-41.911-3.316-90.86,4.927-131.722c4.852-24.083,9.603-48.044,15.04-72.054
				c12.841-56.733,50.945-105.879,87.538-149.527c23.863-28.445,70.431-82.412,39.075-120.221
				c-19.764-23.809-65.968-12.286-92.225-15.758c-22.337-2.944-44.098-15.688-64.855-23.939
				c-50.686-20.154-103.682-59.462-98.83-120.569c2.613-32.852-0.382-65.505,4.963-98.305
				c11.018-67.484,69.127-64.57,122.326-61.796c70.606,3.688,140.485-10.625,210.038-20.806
				C4035.521,2579.804,4194.785,2554.882,4302.289,2537.327z"/>
			<path id="_x31_80609383" fill="#54BF94" stroke="#000000" d="M4314.414,2878.561c-4.436-122.812-16.609-235.392-132.969-321.859
				c-15.876,2.507-32.119,5.058-48.604,7.63c-38.06,5.942-77.389,12.007-116.381,17.931l-0.004,0.041
				c-2.862,25.298,49.189,51.696,62.768,67.458c24.13,28,49.174,71.442,60.13,106.692c13.719,44.12,5.485,98.417,3.226,143.798
				c-5.719,114.422-52.063,216.179-100.455,317.91c-41.865,88.011-37.048,190.947-82.061,275.116
				c-46.771,87.454-159.292,157.904-243.786,205.991c1.626,5.99,3.295,11.986,5.009,17.992
				c14.462,50.661,28.592,97.314,61.687,138.432c2.162,2.686,4.404,5.351,6.734,7.989c11.676,13.219,25.501,26.797,40.389,39.203
				c0.66-1.079,1.349-2.159,2.072-3.245c33.217-49.741,97.287-57.829,146.563-82.306c54.104-26.882,115.417-74.504,145.784-126.935
				c43.321-74.79,85.179-173.286,104.952-242.223c22.709-79.162,52.036-164.541,63.894-245.354
				C4318.078,3034.209,4317.146,2954.164,4314.414,2878.561z"/>
			<path id="_x31_80609384" fill="#54BF94" stroke="#000000" d="M4139.353,2756.451c-10.956-35.25-35.999-78.692-60.129-106.691
				c-13.578-15.762-65.63-42.161-62.768-67.458l0.004-0.041c-33.799,5.132-67.341,10.161-99.576,14.91
				c-4.955,0.73-9.888,1.454-14.779,2.171c-69.552,10.182-139.432,24.495-210.038,20.806
				c-53.199-2.773-111.309-5.687-122.326,61.797c-5.344,32.8-2.35,65.452-4.962,98.305c-4.853,61.107,48.144,100.415,98.829,120.568
				c20.76,8.252,42.52,20.995,64.855,23.94c26.257,3.472,72.461-8.052,92.225,15.758c31.355,37.807-15.21,91.773-39.074,120.22
				c-36.594,43.648-74.698,92.794-87.539,149.527c-5.438,24.011-10.188,47.971-15.04,72.055c-8.243,40.86-5.763,89.81-4.927,131.722
				c1.34,67.31,8.584,131.643,21.131,195.534c5.872,29.906,12.9,59.719,21.04,89.692c84.494-48.087,197.016-118.537,243.785-205.991
				c45.013-84.169,40.195-187.104,82.062-275.116c48.392-101.731,94.735-203.488,100.454-317.91
				C4144.839,2854.867,4153.072,2800.57,4139.353,2756.451z"/>
			<path id="_x31_80609387" fill="#CCCCCC" stroke="#000000" d="M3616.555,2879.712c7.544,3.104,16.393,6.647,25.754,10.722
				c-35.497-18.779-68.358-44.413-75.806-86.525c-11.004-62.156,11.111-126.425,10.537-188.866
				c-0.143-14.909,1.925-30.138,2.487-44.976c0.794-20.291,2.272-40.508,1.922-60.843c-0.216-12.138-4.386-20.673-17.461-17.459
				c-21.775,5.348-33.244,45.168-37.693,63.952c-7.498,31.654-10.65,64.415-12.761,96.804c-1.071,16.377-1.654,32.772-2.141,49.177
				c-1.795,59.712-6.725,117.889,14.99,174.627c6.747,17.639,11.625,35.414,19.068,52.755c3.268,7.604,6.692,15.145,10.06,22.707
				c-5.439-13.443-10.207-27.095-12.72-41.475C3533.719,2858.325,3582.947,2865.879,3616.555,2879.712z"/>
			<path id="_x31_80609388" fill="#CCCCCC" stroke="#000000" d="M3809.2,2932.688c-26.881-12.707-54.912-3.759-82.66-8.404
				c-19.615-3.282-36.721-11.224-54.741-19.594c27.854,15.254,53.188,35.743,56.523,63.652
				c3.351,28.102-25.302,51.786-37.818,74.548c-16.029,29.126-28.576,60.179-38.097,92.021
				c-14.788,49.453-12.961,101.927-31.599,150.441c-3.159,8.242-9.62,23.846-18.986,13.305
				c-10.409-11.766-10.005-38.133-11.108-52.648c-1.499-19.768-1.857-39.542-1.972-59.323c-0.88,10.626-2.15,21.302-3.943,32.106
				c-11.535,69.683-27.705,139.359-24.056,211.028c2.813,55.192,20.754,107.048,39.191,158.867
				c21.893,61.512,67.583,216.527,137.827,241.513c14.211-45.786-16.564-109.925-26.426-153.763
				c-39.531-175.576-78.171-412.302,34.135-571.979c4.347-6.179,12.383-15.329,21.921-26.312
				C3805.646,3034.004,3867.75,2960.39,3809.2,2932.688z"/>
			<path id="_x31_80609389" fill="#CCCCCC" stroke="#000000" d="M3162.022,4364.845c-57.598-69.517-108.605-144.445-154.421-222.186
				c-38.811-65.87-90.633-141.403-110.252-215.104c-25.791-96.911-55.562-201.997-53.109-303.575
				c2.306-95.885-10.102-195.777-18.106-292.043c-10.376-124.842-24.165-246.722-19.241-371.516
				c5.334-135.16,14.194-270.164,23.488-405.1c7.505-109.183,8.562-235.046,52.479-337.881
				c-29.42,58.494-48.761,123.279-59.459,180.167c-33.343,177.283-61.539,372.888-61.873,553.558
				c-0.46,242.194,10.495,484.449,5.994,725.736c-5.318,284.768,44.688,642.777,313.062,805.162
				c94.864,57.401,247.581,118.638,378.614,109.264C3338.771,4586.947,3243.309,4462.931,3162.022,4364.845z"/>
			<path id="_x31_80609390" fill="#CCCCCC" stroke="#000000" d="M3982.906,2104.511c-10.476,8.315-31.883,3.065-43.871,2.458
				c-26.318-1.325-51.399-6.802-77.45-8.434c-26.062-1.636-52.095,5.405-78.031,3.613c-41.18-2.828-99.103-18.583-134.953-39.942
				c-14.151-8.424-21.876-20.625-37.071-30.269c-12.423-7.9-53.131-28.103-54.025-44.634
				c-1.446-26.827,203.55,18.391,221.377,24.563c41.434,14.354,58.257,17.015,100.013,31.837
				c24.87,8.832,49.332,18.621,73.506,29.206C3962.382,2077.289,4000.664,2090.442,3982.906,2104.511z"/>
			<path id="_x31_80609391" fill="#CCCCCC" stroke="#000000" d="M4432.942,2924.981c15.229,173.61-19.174,348.643-72.854,513.499
				c-30.71,94.304-76.199,187.518-119.244,276.695c-51.441,106.575-111.72,206.017-216.091,267.235
				c-46.859,27.487-95.227,54.232-148.528,29.152c-45.44-21.383-76.253-63.711-44.059-111.929
				c33.219-49.739,97.287-57.828,146.564-82.306c54.102-26.881,115.416-74.503,145.783-126.935
				c43.321-74.789,85.178-173.285,104.952-242.222c22.71-79.163,52.035-164.542,63.893-245.354
				c24.72-168.612,23.786-248.658,21.056-324.261c-4.484-124.132-16.855-237.817-136.743-324.644
				c-58.934-42.676-170.497-3.377-237.142-5.398c-63.218-1.921-127.233-18.324-182.153-45.931
				c-38.313-19.261-58.153-55.106-95.279-74.528c-36.592-19.129-65.532-27.465-67.47-40.811
				c-1.661-51.823,141.129,47.909,184.227,68.115c96.95,45.457,197.815,57.997,302.809,37.951
				c48.173-9.195,126.565-56.562,175.32-38.28c42.737,16.021,66.957,83.296,85.483,120.864
				c35.659,72.314,57.54,141.813,73.563,225.012c7.406,38.496,11.47,77.165,15.163,116.019
				C4432.447,2919.614,4432.702,2922.297,4432.942,2924.981z"/>
			<path id="_x31_80609386" fill="#AAAAAA" stroke="#000000" d="M3590.713,3246.009c1.103,14.514,0.699,40.883,11.108,52.649
				c9.366,10.541,15.826-5.063,18.987-13.306c18.635-48.515,16.809-100.987,31.598-150.441c9.52-31.84,22.067-62.893,38.096-92.02
				c12.519-22.763,41.171-46.446,37.818-74.548c-3.334-27.909-28.668-48.399-56.521-63.652c-2.395-1.112-4.803-2.232-7.236-3.351
				c-7.396-3.394-14.882-7.005-22.254-10.907c-9.362-4.074-18.21-7.617-25.754-10.722c-33.607-13.833-82.838-21.387-73.761,30.598
				c2.512,14.379,7.279,28.029,12.719,41.474c3.589,8.06,7.104,16.148,10.293,24.371c4.176,9.852,8.194,19.761,11.421,29.93
				c8.74,27.49,10.706,56.104,11.11,84.797c0.209,3.125,0.404,6.249,0.576,9.372c1.617,29.419,2.197,57.739-0.174,86.433
				C3588.856,3206.467,3589.213,3226.241,3590.713,3246.009z"/>
		</g>
	</g>
	<g transform="scale(1.0)">
		<g id="_x31_80609365_1_" transform=" scale(1.0, 1.0)">
			<path id="_x31_80609367_1_" fill="#BFDAE3" stroke="#000000" d="M1184.813,2528.105
				c35.508-75.492,107.067-138.528,125.125-222.967c10.182-47.575,15.038-106.915,53.292-141.922
				c36.813-33.698,104.909-50.405,149.911-72.134c105.402-50.881,206.657-83.359,322.563-103.061
				c84.691-14.395,165.504-18.455,252.457-15.334c141.704,5.081,286.603,26.295,410.218,100.644
				c103.854,62.46,160.652,209.472,182.232,324.294c33.336,177.286,61.542,372.895,61.875,553.566
				c0.461,242.196-10.486,484.456-5.994,725.746c5.317,284.77-44.671,642.782-313.064,805.176
				c-128.853,77.973-364.493,163.036-507.486,68.543c-84.305-55.703-164.738-118.871-233.705-192.937
				c-122.432-131.484-213.412-290.639-306.17-443.564c-92.929-153.185-178.169-311.314-233.825-482.266
				c-91.054-279.711-120.693-594.198,21.566-862.212C1171.043,2556.023,1178.172,2542.224,1184.813,2528.105z"/>
			<path id="_x31_80609368_1_" fill="#BFDAE3" stroke="#000000" d="M2555.875,1007.67c63.442,136.039,44.891,356.82-49.004,475.239
				c-128.742,162.366-375.979,129.303-556.334,109.415c-139.895-15.425-341.173,16.373-452.146,112.148
				c-48.959,42.264-100.66,89.515-164.148,109.108c-61.456,18.963-121.827-4.234-171.508-42.819
				c-165.896-128.832,18.317-374.167,102.952-491.421c93.601-129.659,233.106-206.636,371.714-280.682
				c79.267-42.343,169.339-75.267,257.018-94.774c164.072-36.516,426.858-107.046,579.041,2.499
				C2507.083,930.584,2535.3,963.576,2555.875,1007.67z"/>
			<path id="_x31_80609369_1_" fill="#B0FFB8" stroke="#000000" d="M1142.235,3431.854
				c55.654,170.953,140.895,329.075,233.814,482.265c92.767,152.922,183.735,312.07,306.177,443.555
				c68.951,74.063,149.399,137.232,233.696,192.939c143,94.484,378.626,9.427,507.493-68.548
				c268.375-162.386,318.381-520.396,313.062-805.161c-4.5-241.289,6.455-483.544,5.995-725.737
				c-0.333-180.67-28.53-376.274-61.874-553.559c-21.59-114.821-78.379-261.832-182.225-324.294
				c-123.616-74.348-268.527-95.557-410.224-100.643c-86.953-3.117-167.767,0.944-252.457,15.34
				c-115.905,19.695-217.159,52.178-322.561,103.054c-45,21.729-113.088,38.438-149.91,72.133
				c-38.246,35.008-43.108,94.346-53.289,141.92c-18.063,84.439-89.61,147.474-125.127,222.961
				c-6.646,14.119-13.759,27.919-21.015,41.573C1021.541,2837.662,1051.173,3152.144,1142.235,3431.854z M1775.678,2968.343
				c3.334-27.91,28.668-48.399,56.522-63.652c2.395-1.112,4.801-2.232,7.234-3.351c7.397-3.394,14.883-7.006,22.254-10.907
				c9.363-4.074,18.211-7.617,25.755-10.722c33.606-13.832,82.837-21.387,73.761,30.598c-2.512,14.379-7.28,28.03-12.72,41.474
				c-3.589,8.059-7.104,16.148-10.292,24.371c-4.177,9.851-8.195,19.76-11.421,29.93c-8.739,27.491-10.707,56.104-11.111,84.797
				c-0.207,3.125-0.402,6.249-0.576,9.372c-1.616,29.42-2.197,57.741,0.174,86.434c-0.114,19.781-0.472,39.555-1.972,59.323
				c-1.103,14.514-0.699,40.881-11.108,52.648c-9.366,10.541-15.827-5.063-18.987-13.306
				c-18.636-48.514-16.809-100.987-31.598-150.44c-9.521-31.842-22.067-62.895-38.096-92.021
				C1800.979,3020.128,1772.327,2996.444,1775.678,2968.343z"/>
			<path id="_x31_80609370_1_" fill="#B0FFB8" stroke="#000000" d="M2555.875,1007.67c63.442,136.039,44.891,356.82-49.004,475.239
				c-128.742,162.366-375.979,129.303-556.334,109.415c-139.895-15.425-341.173,16.373-452.146,112.148
				c-48.959,42.264-100.66,89.515-164.148,109.108c-61.456,18.963-121.827-4.234-171.508-42.819
				c-165.896-128.832,18.317-374.167,102.952-491.421c93.601-129.659,233.106-206.636,371.714-280.682
				c79.267-42.343,169.339-75.267,257.018-94.774c164.072-36.516,426.858-107.046,579.041,2.499
				C2507.083,930.584,2535.3,963.576,2555.875,1007.67z"/>
			<path id="_x31_80609385_1_" fill="#268F45" stroke="#000000" d="M2555.875,1007.67c63.442,136.039,44.891,356.82-49.004,475.239
				c-128.742,162.366-375.979,129.303-556.334,109.415c-139.895-15.425-341.173,16.373-452.146,112.148
				c-48.959,42.264-100.66,89.515-164.148,109.108c-61.456,18.963-121.827-4.234-171.508-42.819
				c-165.896-128.832,18.317-374.167,102.952-491.421c93.601-129.659,233.106-206.636,371.714-280.682
				c79.267-42.343,169.339-75.267,257.018-94.774c164.072-36.516,426.858-107.046,579.041,2.499
				C2507.083,930.584,2535.3,963.576,2555.875,1007.67z"/>
			<path id="_x31_80609371_1_" fill="#9AD2BD" stroke="#000000" d="M1142.241,3431.891
				c55.656,170.952,140.895,329.081,233.825,482.267c92.758,152.926,183.737,312.08,306.17,443.564
				c68.968,74.065,149.4,137.232,233.706,192.937c142.991,94.491,378.633,9.428,507.484-68.544
				c268.394-162.394,318.383-520.406,313.065-805.175c-4.493-241.292,6.455-483.552,5.994-725.747
				c-0.333-180.672-28.537-376.28-61.874-553.566c-21.58-114.822-78.377-261.835-182.233-324.294
				c-123.614-74.348-268.513-95.563-410.218-100.644c-86.953-3.12-167.765,0.939-252.456,15.335
				c-115.906,19.7-217.161,52.179-322.563,103.061c-45.002,21.729-113.098,38.436-149.911,72.133
				c-38.254,35.008-43.108,94.347-53.292,141.923c-18.059,84.439-89.617,147.476-125.125,222.967
				c-6.639,14.116-13.77,27.915-21.006,41.569C1021.545,2837.69,1051.187,3152.178,1142.241,3431.891z M1775.678,2968.343
				c3.334-27.91,28.668-48.399,56.522-63.652c2.395-1.112,4.801-2.232,7.234-3.351c7.397-3.394,14.883-7.006,22.254-10.907
				c9.363-4.074,18.211-7.617,25.755-10.722c33.606-13.832,82.837-21.387,73.761,30.598c-2.512,14.379-7.28,28.03-12.72,41.474
				c-3.589,8.059-7.104,16.148-10.292,24.371c-4.177,9.851-8.195,19.76-11.421,29.93c-8.739,27.491-10.707,56.104-11.111,84.797
				c-0.207,3.125-0.402,6.249-0.576,9.372c-1.616,29.42-2.197,57.741,0.174,86.434c-0.114,19.781-0.472,39.555-1.972,59.323
				c-1.103,14.514-0.699,40.881-11.108,52.648c-9.366,10.541-15.827-5.063-18.987-13.306
				c-18.636-48.514-16.809-100.987-31.598-150.44c-9.521-31.842-22.067-62.895-38.096-92.021
				C1800.979,3020.128,1772.327,2996.444,1775.678,2968.343z"/>
			<path id="_x31_80609372_1_" fill="#9AD2BD" stroke="#000000" d="M1408.217,3967.957c9.199,14.922,18.562,29.709,27.521,44.776
				c17.479,29.381,35.641,58.364,53.849,87.292c36.505,57.989,75.179,114.948,117.372,168.95
				c23.902,30.56,48.816,60.302,75.268,88.697c68.951,74.063,149.399,137.232,233.696,192.939
				c143.001,94.484,378.626,9.427,507.494-68.549c268.375-162.385,318.38-520.395,313.062-805.16
				c-4.501-241.289,6.454-483.544,5.994-725.737c-0.333-180.67-28.53-376.275-61.873-553.559
				c-21.59-114.821-78.379-261.832-182.225-324.294c-123.617-74.348-268.527-95.557-410.225-100.643
				c-57.774-2.064-101.255,11.792-148.136,45.408c-21.333,15.299-50.524,26.446-67.36,47.29
				c-25.791,31.939,4.807,96.403,13.137,129.774c13.703,54.78,25.419,111.024,35.902,166.511
				c10.222,54.098,26.367,104.046,45.679,155.161c15.19,40.2,19.049,79.969,20.846,122.315
				c4.679,110.398,24.417,178.078-35.465,301.049c-40.988,84.155-38.265,133.731-37.856,203.412
				c0.404,70.181,14.331,123.269,18.867,159.481c7.108,56.755,11.776,114.466,4.104,171.428
				c-6.906,51.283-29.373,99.489-47.512,147.4c-16.057,42.441-24.304,88.49-49.465,126.996
				c-22.561,34.524-53.25,63.019-79.669,94.454c-61.235,72.859-160.769,148.137-260.407,147.711
				c-21.152-0.086-46.196-1.913-65.904-10.108c-0.491-0.204-1.227-0.557-2.137-1.013
				C1425.549,3976.328,1406.999,3965.981,1408.217,3967.957z"/>
			<path id="_x31_80609373_1_" fill="#82C7AE" stroke="#000000" d="M2498.375,2073.314
				c167.525,100.762,163.534,311.684,175.244,482.01c9.295,134.935,18.155,269.938,23.489,405.099
				c4.923,124.793-8.866,246.675-19.241,371.516c-8.006,96.266-20.412,196.158-18.106,292.043
				c2.452,101.578-27.318,206.665-53.109,303.575c-19.619,73.7-71.441,149.234-110.253,215.103
				c-45.814,77.74-96.824,152.67-154.421,222.187c-108.33,130.72-241.837,307.495-426.054,185.766
				c-53.518-35.364-105.499-73.517-153.835-115.758c-28.244-24.688-92.793-66.201-89.537-109.988
				c57.037-4.861,124.296,69.666,169.684,98.468c58.536,37.127,129.918,87.897,203.378,72.866
				c89.047-18.222,112.627-86.767,142.46-161.274c19.764-49.313,34.836-100.284,52.806-150.239
				c14.757-41.01,41.163-60.69,65.998-95.866c48.766-69.069,71.052-151.448,99.723-229.882
				c36.541-99.987,54.456-205.416,81.376-308.12c28.751-109.683,54.224-221.328,62.375-334.656
				c2.215-30.773,0.893-60.661-1.97-91.025c-4.842-51.392-8.267-103.453-3.514-154.347
				c19.742-211.261,12.075-459.551-68.947-658.366c-13.312-32.66-29.537-71.051-49.105-100.004
				c-17.567-26.017-47.9-40.807-66.267-66.461c-13.941-19.483-16.827-46.522-34.095-63.774
				c-19.583-19.588-130.102-102.867-156.435-93.45C2269.554,1968.125,2419.447,2025.853,2498.375,2073.314z"/>
			<path id="_x31_80609377_1_" fill="#82C7AE" stroke="#000000" d="M1685.637,4009.54c2.114,61.465,16.505,129.174,72.716,164.801
				c84.775,53.716,165.777-11.354,208.586-84.468c49.973-85.355,100.022-168.888,138.208-260.438
				c22.508-53.965,39.7-109.351,55.345-165.627c17.544-63.097,34.227-129.159,37.963-194.716
				c4.51-78.954-15.364-153.147-6.482-232.171c10.166-90.442,32.539-180.878,47.319-270.781
				c21.321-129.811,57.58-248.375,49.771-381.835c-7.57-129.183-47.325-261.928-139.559-356.58
				c-44.339-45.513-117.684-89.047-183.481-76.072c-104.038,20.52-57.374,140.901-44.329,209.999
				c10.222,54.098,26.367,104.047,45.679,155.161c15.19,40.2,19.049,79.969,20.846,122.315
				c4.679,110.398,24.417,178.078-35.465,301.049c-40.988,84.157-38.265,133.731-37.856,203.412
				c0.404,70.182,14.332,123.271,18.867,159.481c7.107,56.755,11.776,114.466,4.104,171.429
				c-6.906,51.282-29.373,99.489-47.512,147.399c-16.057,42.442-24.304,88.49-49.465,126.996
				c-22.562,34.524-53.25,63.019-79.669,94.455c-48.226,57.388-74.868,79.31-75.769,150.537
				C1685.391,3998.848,1685.454,4004.064,1685.637,4009.54z"/>
			<path id="_x31_80609376_1_" fill="#9AD2BD" stroke="#000000" d="M1997.758,2149.53c56.602,3.014,114.439,39.902,151.745,78.195
				c92.234,94.652,131.988,227.397,139.56,356.58c7.81,133.459-28.449,252.023-49.772,381.835
				c-14.78,89.901-37.154,180.338-47.319,270.781c-8.882,79.023,10.991,153.218,6.483,232.171
				c-3.736,65.557-20.42,131.618-37.963,194.716c-15.646,56.275-32.839,111.663-55.345,165.626
				c-38.185,91.55-88.236,175.082-138.208,260.438c-40.263,68.766-114.314,130.403-193.513,92.798
				c-5.65,10.225-5.778,25.849,0.735,37.708c7.377,13.431,20.448,20.454,32.846,26.763c12.464-6.053,78.699-0.892,80.01-1.03
				c10.954-1.182,20.779-5.083,29.966-10.458c12.671-7.405,24.085-17.612,35.458-27.41c45.239-38.953,54.914-100.703,82.815-150.2
				c104.267-185.009,183.669-372.858,195.967-588.177c5.163-90.417-4.141-180.384,4.896-270.798
				c10.268-102.659,30.601-205.33,46.728-307.243c38.125-240.924,80.652-596.545-180.376-732.513
				c-23.912-12.456-60.434-12.289-81.201-30.239C2008.77,2133.643,2000.739,2139.967,1997.758,2149.53z"/>
			<path id="_x31_80609375_1_" fill="#82C7AE" stroke="#000000" d="M1952.441,4208.243c45.239-38.955,54.914-100.705,82.814-150.201
				c104.269-185.009,183.67-372.859,195.968-588.177c5.163-90.418-4.141-180.384,4.896-270.798
				c10.268-102.659,30.601-205.33,46.728-307.244c38.125-240.922,80.652-596.544-180.376-732.512
				c-26.624-13.871-68.898-12.072-87.632-37.083c37.044-15.585,120.018-2.958,150.822,22.693
				c109.25,90.93,174.301,282.061,185.356,418.686c7.945,98.057-10.807,194.134-19.102,291.482
				c-11.049,129.686-40.791,257.018-50.828,386.806c-9.92,128.319,2.77,257.778-19.923,385.179
				c-16.761,94.113-50.174,187.332-92.754,272.849c-37.194,74.688-96.066,137.858-124.726,216.854
				c-19.108,52.682-19.07,141.507-79.668,166.483c-36.01,14.852-134.175,3.801-158.566-32.529
				c-7.608-11.334,80.057-4.46,81.565-4.619c10.954-1.182,20.778-5.083,29.966-10.458
				C1929.654,4228.248,1941.068,4218.04,1952.441,4208.243z"/>
			<path id="_x31_80609374_1_" fill="#9AD2BD" stroke="#000000" d="M1731.013,4341.385c40.459,22.702,80.766,62.62,111.223,81.946
				c58.536,37.129,129.918,87.898,203.378,72.867c89.047-18.221,112.627-86.768,142.46-161.274
				c19.764-49.313,34.836-100.283,52.806-150.24c14.757-41.008,41.163-60.689,65.998-95.865
				c48.766-69.07,71.052-151.448,99.723-229.882c36.541-99.987,54.456-205.416,81.376-308.119
				c28.751-109.683,54.224-221.33,62.375-334.657c2.215-30.773,0.893-60.661-1.97-91.025c-4.842-51.391-8.267-103.453-3.514-154.346
				c19.742-211.261,12.075-459.553-68.947-658.367c-13.312-32.66-29.537-71.051-49.105-100.004
				c-17.567-26.017-47.9-40.807-66.267-66.461c-13.941-19.483-16.827-46.522-34.095-63.774
				c-17.116-17.123-103.718-82.911-142.837-92.912c-3.533-0.903-37.811-14.333-88.637-16.345c-2.277-0.091-4.554-0.177-6.828-0.257
				c-57.775-2.065-101.255,11.792-148.137,45.407c-18.327,13.144-42.448,23.228-59.559,39.024
				c-8.568,32.526-7.187,70.207,20.583,88.657c29.941,19.893,84.756-4.276,114.364-22.827c-0.186-0.237,2.072-1.749,3.468-2.223
				c0.712-0.465,0.712-0.465,0,0c38.726-13.167,117.055-0.544,146.79,24.214c109.25,90.93,174.301,282.061,185.356,418.686
				c7.945,98.057-10.807,194.134-19.102,291.482c-11.049,129.686-40.791,257.018-50.828,386.806
				c-9.92,128.319,2.77,257.778-19.923,385.179c-16.761,94.113-50.174,187.332-92.754,272.849
				c-37.194,74.688-96.066,137.858-124.726,216.854c-19.108,52.682-19.07,141.507-79.668,166.483
				c-29.991,12.37-103.082,6.769-140.774-16.436c-34.369-1.485-75.894-22.512-95.647,16.089
				C1715.83,4305.91,1721.027,4324.579,1731.013,4341.385z"/>
			<path id="_x31_80609378_1_" fill="#9DF0D2" stroke="#000000" d="M1193.268,2511.465
				c37.373-68.347,99.952-128.176,116.665-206.347c10.18-47.574,15.044-106.914,53.289-141.92
				c36.822-33.697,105.301-49.603,149.91-72.133c36.13-18.241,73.855-33.825,111.972-47.359
				c41.754-14.822,58.579-17.483,100.013-31.838c17.827-6.171,222.823-51.388,221.377-24.563
				c-0.896,16.536-41.61,36.736-54.035,44.632c-22.339,14.199-41.71,28.168-46.88,55.369
				c-6.596,34.605,11.608,69.588,19.974,102.541c13.751,54.15,27.753,108.377,38.59,163.203
				c8.659,43.876,30.963,163.127,11.855,208.027c-26.42,62.117-165.7,45.181-235.988,36.291
				c-92.06-11.654-194.706-36.923-286.001-45.956c-74.651-7.392-133.415-19.534-209.201-23.333L1193.268,2511.465z"/>
			<path id="_x31_80609381_1_" fill="#9DF0D2" stroke="#000000" d="M1333.229,2257.729c21.769,52.132,92.836,79.216,145.304,85.392
				c40.742,4.785,55.505-15.435,90.199-27.727c15.006-5.318,31.992-1.949,47.583-4.923c18.862-3.606,36.538-11.758,54.765-17.572
				c20.051-6.396,40.549-13.499,52.969-31.701c7.801-11.451,4.472-17.577,18.753-24.428c13.69-6.565,30.472-0.883,44.461-7.978
				c14.858-7.534,17.558-21.183,29.247-30.84c18.891-15.581,41.971-20.805,38.909-50.242c-1.497-14.555-11.958-32.636-24.279-40.722
				c-21.274-13.985-51.451-9.652-74.445-2.633c-9.642,2.943-18.163,8.621-28.319,9.526c-32.158,2.874-62.784-15.734-94.879-10.826
				c-12.258,1.874-23.185,8.304-35.271,10.72c-11.686,2.338-23.53,0.183-35.395,1.236c-28.202,2.506-54.915,13.435-83.084,16.229
				c-21.479,2.135-41.605-3.865-63.176,2.547c-37.05,11.01-71.148,38.58-82.731,73.282
				C1328.534,2222.899,1325.219,2238.555,1333.229,2257.729z"/>
			<path id="_x31_80609379_1_" fill="#95E4C8" stroke="#000000" d="M1394.008,2551.412c91.296,9.034,193.941,34.302,286.001,45.956
				c70.287,8.891,209.568,25.826,235.988-36.291c13.076-30.713,6.773-96.224-1.297-148.598l-6.329-25.23
				c-1.938,13.346-30.879,21.682-67.471,40.811c-37.126,19.422-56.965,55.267-95.279,74.528
				c-54.92,27.606-118.936,44.01-182.152,45.931c-66.646,2.021-178.208-37.278-237.142,5.398L1394.008,2551.412z"/>
			<path id="_x31_80609380_1_" fill="#9DF0D2" stroke="#000000" d="M1908.374,2387.249c1.66-51.821-141.128,47.91-184.228,68.116
				c-96.948,45.456-197.815,57.996-302.81,37.95c-48.171-9.194-148.45-73.457-204.69-19.82
				c64.243-72.684,78.697-140.578,96.541-141.951c17.135-1.322,65.357,17.936,83.203,23.271
				c74.7,22.353,174.543,9.32,244.164-28.298c54.962-29.683,90.251-58.793,142.096-93.072
				c28.246-18.689,28.825-43.267,82.903-43.597c14.176,56.144,34.884,133.294,38.59,163.203
				C1904.143,2353.058,1908.373,2387.249,1908.374,2387.249z"/>
			<path id="_x31_80609382_1_" fill="#54BF94" stroke="#000000" d="M1601.895,2599.343c69.553,10.181,139.432,24.494,210.038,20.806
				c53.199-2.774,111.309-5.688,122.326,61.796c5.345,32.8,2.35,65.453,4.963,98.305c4.852,61.107-48.145,100.415-98.83,120.569
				c-20.758,8.252-42.519,20.995-64.855,23.939c-26.257,3.472-72.461-8.051-92.225,15.758
				c-31.355,37.809,15.212,91.775,39.075,120.221c36.593,43.648,74.697,92.794,87.538,149.527
				c5.438,24.01,10.188,47.971,15.04,72.054c8.243,40.861,5.763,89.811,4.927,131.722c-2.09,105.115-18.562,202.971-47.178,303.221
				c-15.407,53.972-30.435,103.394-68.421,146.419c-24.704,27.967-59.026,57.561-92.686,74.222
				c-27.716,13.716-59.55,24.872-89.667,31.867c-42.408,9.846-112.452,15.182-132.543-17.021
				c-7.328-11.747-18.141-29.218-26.685-44.139c-20.067-35.055-35.854-61.823-57.695-100.335
				c-69.377-122.333-132.763-252.291-176.401-386.316c-53.679-164.847-80.382-343.648-68.501-517.523
				c10.345-151.424,87.133-374.374,131.595-367.107C1309.214,2554.882,1468.478,2579.804,1601.895,2599.343z"/>
			<path id="_x31_80609383_1_" fill="#54BF94" stroke="#000000" d="M1210.639,3202.822c11.857,80.813,41.185,166.191,63.894,245.354
				c19.773,68.937,61.631,167.433,104.952,242.223c30.367,52.431,91.681,100.053,145.784,126.935
				c49.275,24.477,113.346,32.564,146.563,82.306c0.724,1.086,1.412,2.166,2.072,3.245c14.888-12.406,28.713-25.984,40.389-39.203
				c2.33-2.639,4.572-5.304,6.734-7.989c33.095-41.117,47.225-87.771,61.687-138.432c1.714-6.006,3.383-12.002,5.009-17.992
				c-84.494-48.087-197.016-118.537-243.786-205.991c-45.013-84.169-40.195-187.105-82.061-275.116
				c-48.393-101.731-94.736-203.488-100.455-317.91c-2.26-45.381-10.493-99.678,3.226-143.798c10.956-35.25,36-78.691,60.13-106.692
				c13.578-15.761,65.63-42.16,62.768-67.458l-0.004-0.041c-38.992-5.923-78.321-11.989-116.381-17.931
				c-16.485-2.573-32.729-5.123-48.604-7.63c-116.359,86.468-128.533,199.048-132.969,321.859
				C1186.853,2954.164,1185.921,3034.209,1210.639,3202.822z"/>
			<path id="_x31_80609384_1_" fill="#54BF94" stroke="#000000" d="M1361.42,2900.25c5.719,114.422,52.063,216.179,100.454,317.91
				c41.866,88.012,37.049,190.947,82.062,275.116c46.77,87.454,159.291,157.904,243.785,205.991
				c8.14-29.974,15.168-59.786,21.04-89.692c12.547-63.892,19.791-128.225,21.131-195.534c0.836-41.912,3.316-90.861-4.927-131.722
				c-4.853-24.084-9.603-48.044-15.04-72.055c-12.841-56.733-50.945-105.879-87.539-149.527
				c-23.864-28.446-70.43-82.413-39.074-120.22c19.764-23.81,65.968-12.286,92.225-15.758c22.336-2.945,44.096-15.688,64.855-23.94
				c50.686-20.153,103.682-59.461,98.829-120.568c-2.612-32.853,0.382-65.505-4.962-98.305
				c-11.018-67.484-69.127-64.57-122.326-61.797c-70.606,3.689-140.486-10.624-210.038-20.806
				c-4.892-0.717-9.824-1.441-14.779-2.171c-32.235-4.749-65.777-9.777-99.576-14.91l0.004,0.041
				c2.862,25.297-49.189,51.695-62.768,67.458c-24.13,27.999-49.173,71.441-60.129,106.691
				C1350.927,2800.57,1359.161,2854.867,1361.42,2900.25z"/>
			<path id="_x31_80609387_1_" fill="#CCCCCC" stroke="#000000" d="M1961.208,2910.31c-2.513,14.38-7.28,28.031-12.72,41.475
				c3.367-7.563,6.792-15.104,10.06-22.707c7.443-17.341,12.321-35.116,19.068-52.755c21.715-56.738,16.785-114.915,14.99-174.627
				c-0.486-16.404-1.069-32.8-2.141-49.177c-2.11-32.389-5.263-65.149-12.761-96.804c-4.449-18.783-15.918-58.604-37.693-63.952
				c-13.075-3.213-17.245,5.322-17.461,17.459c-0.351,20.335,1.128,40.552,1.922,60.843c0.563,14.838,2.63,30.067,2.487,44.976
				c-0.574,62.441,21.541,126.71,10.537,188.866c-7.447,42.112-40.309,67.746-75.806,86.525c9.361-4.074,18.21-7.617,25.754-10.722
				C1921.052,2865.879,1970.281,2858.325,1961.208,2910.31z"/>
			<path id="_x31_80609388_1_" fill="#CCCCCC" stroke="#000000" d="M1736.608,3078.147c9.538,10.982,17.574,20.133,21.921,26.312
				c112.306,159.677,73.666,396.402,34.135,571.979c-9.861,43.838-40.637,107.977-26.426,153.763
				c70.244-24.985,115.935-180.001,137.827-241.513c18.438-51.819,36.379-103.675,39.191-158.867
				c3.649-71.669-12.521-141.346-24.056-211.028c-1.793-10.805-3.063-21.48-3.943-32.106c-0.114,19.781-0.473,39.556-1.972,59.323
				c-1.104,14.516-0.699,40.883-11.108,52.648c-9.366,10.541-15.827-5.063-18.986-13.305
				c-18.638-48.515-16.811-100.988-31.599-150.441c-9.521-31.842-22.067-62.895-38.097-92.021
				c-12.517-22.762-41.169-46.446-37.818-74.548c3.335-27.909,28.669-48.398,56.523-63.652
				c-18.021,8.37-35.126,16.312-54.741,19.594c-27.748,4.646-55.779-4.303-82.66,8.404
				C1636.25,2960.39,1698.353,3034.004,1736.608,3078.147z"/>
			<path id="_x31_80609389_1_" fill="#CCCCCC" stroke="#000000" d="M2044.802,4591.327c131.033,9.374,283.75-51.862,378.614-109.264
				c268.375-162.385,318.38-520.395,313.062-805.162c-4.501-241.287,6.454-483.542,5.994-725.736
				c-0.333-180.67-28.53-376.274-61.873-553.558c-10.698-56.887-30.039-121.672-59.459-180.167
				c43.917,102.835,44.974,228.698,52.479,337.881c9.294,134.936,18.154,269.939,23.489,405.1
				c4.923,124.794-8.865,246.674-19.242,371.516c-8.005,96.266-20.412,196.158-18.106,292.043
				c2.452,101.578-27.318,206.664-53.109,303.575c-19.619,73.7-71.441,149.233-110.252,215.104
				c-45.815,77.74-96.823,152.669-154.421,222.186C2260.691,4462.931,2165.228,4586.947,2044.802,4591.327z"/>
			<path id="_x31_80609390_1_" fill="#CCCCCC" stroke="#000000" d="M1551.6,2072.911c24.174-10.585,48.636-20.375,73.506-29.206
				c41.756-14.822,58.579-17.483,100.013-31.837c17.827-6.172,222.823-51.39,221.377-24.563
				c-0.895,16.531-41.603,36.734-54.025,44.634c-15.195,9.643-22.92,21.845-37.071,30.269
				c-35.851,21.359-93.773,37.114-134.953,39.942c-25.937,1.792-51.97-5.25-78.031-3.613c-26.051,1.632-51.132,7.109-77.45,8.434
				c-11.988,0.606-33.396,5.857-43.871-2.458C1503.335,2090.442,1541.618,2077.289,1551.6,2072.911z"/>
			<path id="_x31_80609391_1_" fill="#CCCCCC" stroke="#000000" d="M1071.808,2916.927c3.693-38.854,7.757-77.522,15.163-116.019
				c16.022-83.198,37.903-152.697,73.563-225.012c18.526-37.568,42.746-104.844,85.483-120.864
				c48.755-18.282,127.147,29.085,175.32,38.28c104.993,20.046,205.858,7.506,302.809-37.951
				c43.098-20.206,185.888-119.938,184.227-68.115c-1.938,13.346-30.878,21.682-67.47,40.811
				c-37.126,19.422-56.966,55.267-95.279,74.528c-54.92,27.606-118.936,44.01-182.153,45.931
				c-66.645,2.021-178.208-37.278-237.142,5.398c-119.888,86.827-132.259,200.512-136.743,324.644
				c-2.73,75.603-3.664,155.648,21.056,324.261c11.857,80.812,41.183,166.19,63.893,245.354
				c19.774,68.937,61.631,167.433,104.952,242.222c30.367,52.432,91.682,100.054,145.783,126.935
				c49.277,24.478,113.346,32.566,146.564,82.306c32.194,48.218,1.382,90.546-44.059,111.929
				c-53.302,25.08-101.669-1.665-148.528-29.152c-104.371-61.219-164.649-160.66-216.091-267.235
				c-43.045-89.178-88.534-182.392-119.244-276.695c-53.681-164.856-88.084-339.889-72.854-513.499
				C1071.297,2922.297,1071.552,2919.614,1071.808,2916.927z"/>
			<path id="_x31_80609386_1_" fill="#AAAAAA" stroke="#000000" d="M1915.26,3186.686c-2.371-28.693-1.791-57.014-0.174-86.433
				c0.172-3.123,0.367-6.247,0.576-9.372c0.404-28.693,2.37-57.307,11.11-84.797c3.227-10.169,7.245-20.078,11.421-29.93
				c3.188-8.223,6.704-16.312,10.293-24.371c5.439-13.444,10.207-27.095,12.719-41.474c9.077-51.984-40.153-44.431-73.761-30.598
				c-7.544,3.104-16.392,6.647-25.754,10.722c-7.372,3.902-14.857,7.514-22.254,10.907c-2.434,1.118-4.842,2.238-7.236,3.351
				c-27.854,15.253-53.188,35.743-56.521,63.652c-3.353,28.102,25.3,51.785,37.818,74.548c16.028,29.127,28.576,60.18,38.096,92.02
				c14.789,49.454,12.963,101.927,31.598,150.441c3.161,8.242,9.621,23.847,18.987,13.306
				c10.409-11.767,10.006-38.136,11.108-52.649C1914.787,3226.241,1915.143,3206.467,1915.26,3186.686z"/>
		</g>
	</g>
</g>
</svg>
