<?xml version="1.0" encoding="utf-8"?>
<!-- Generator: Adobe Illustrator 16.0.0, SVG Export Plug-In . SVG Version: 6.00 Build 0)  -->
<!DOCTYPE svg PUBLIC "-//W3C//DTD SVG 1.1//EN" "http://www.w3.org/Graphics/SVG/1.1/DTD/svg11.dtd">
<svg version="1.1" id="Layer_1" xmlns="http://www.w3.org/2000/svg" xmlns:xlink="http://www.w3.org/1999/xlink" x="0px" y="0px"
	 width="5200px" height="4800px" viewBox="0 0 5200 4800" enable-background="new 0 0 5200 4800" xml:space="preserve">
<g>
	<g transform="scale(1.0)">
		<g id="_x31_80609248" transform=" scale(1.0, 1.0)">
			<path id="_x31_80609250" fill="#BFDAE3" stroke="#000000" d="M1302.887,1213.771c256.589-125.08,555.425-173.069,827.691-53.829
				c168.721,73.898,272.844,278.711,335.386,442.844c66.436,174.347,91.146,366.738,104.663,551.72
				c16.229,222.159,50.231,436.303,11.49,658.52c-26.364,151.189-47.92,304.682-97.271,450.596
				c-141.938,419.633-618.316,545.433-1006.634,365.008c-111.826-51.958-206.337-172.909-285.567-264.732
				c-208.353-241.516-173.276-595.787-339.98-859.148c-65.67-103.755-82.396-223.392-116.268-340.326
				c-51.758-178.684-38.176-417.899,85.441-567.93c8.626-10.471,16.866-21.082,24.961-31.686
				C972.04,1400.686,1117.848,1303.972,1302.887,1213.771z"/>
			<path id="_x31_80609251" fill="#B0FFB8" stroke="#000000" d="M736.401,2164.437c33.867,116.938,50.591,236.574,116.263,340.329
				c166.705,263.367,131.631,617.642,339.991,859.158c79.228,91.823,173.738,212.778,285.562,264.737
				c388.328,180.426,864.703,54.626,1006.646-365.011c49.354-145.916,70.915-299.41,97.271-450.604
				c38.742-222.215,4.745-436.363-11.488-658.521c-13.514-184.986-38.23-377.376-104.661-551.731
				c-62.546-164.132-166.668-368.947-335.387-442.848c-272.28-119.241-571.108-71.254-827.704,53.823
				c-185.041,90.208-330.861,186.922-456.095,351.047c-8.095,10.608-16.337,21.219-24.96,31.687
				C698.218,1746.529,684.628,1985.751,736.401,2164.437z M1577.917,2071.073c32.251-21.34,61.351-45.845,92.331-68.833
				c45.215-33.554,59.124-10.661,50.666,36.674c-8.463,47.395-28.844,90.823-41.067,136.688c-4.638,17.378-8.099,35.111-9.293,53.55
				c-6.663,102.567,23.885,202.555,8.78,305.815c-3.251,22.278-3.827,52.168-17.584,71.102c5.309-7.309-20.176-55.03-22.926-64.967
				c-6.245-22.548-7.384-45.664-7.103-68.968c0.926-75.727-15.364-149.268-46.428-218.028
				c-16.657-36.857-56.358-88.001-54.424-129.021C1532.181,2097.561,1557.332,2084.686,1577.917,2071.073z"/>
			<path id="_x31_80609252" fill="#9AD2BD" stroke="#000000" d="M736.401,2164.437c33.867,116.938,50.591,236.574,116.263,340.329
				c166.705,263.367,131.631,617.642,339.991,859.158c79.228,91.823,173.738,212.778,285.562,264.737
				c388.328,180.426,864.703,54.626,1006.646-365.011c49.354-145.916,70.915-299.41,97.271-450.604
				c38.742-222.215,4.745-436.363-11.488-658.521c-13.514-184.986-38.23-377.376-104.661-551.731
				c-62.546-164.132-166.668-368.947-335.387-442.848c-272.28-119.241-571.108-71.254-827.704,53.823
				c-185.041,90.208-330.861,186.922-456.095,351.047c-8.095,10.608-16.337,21.219-24.96,31.687
				C698.218,1746.529,684.628,1985.751,736.401,2164.437z M1577.917,2071.073c32.251-21.34,61.351-45.845,92.331-68.833
				c45.215-33.554,59.124-10.661,50.666,36.674c-8.463,47.395-28.844,90.823-41.067,136.688c-4.638,17.378-8.099,35.111-9.293,53.55
				c-6.663,102.567,23.885,202.555,8.78,305.815c-3.251,22.278-3.827,52.168-17.584,71.102c5.309-7.309-20.176-55.03-22.926-64.967
				c-6.245-22.548-7.384-45.664-7.103-68.968c0.926-75.727-15.364-149.268-46.428-218.028
				c-16.657-36.857-56.358-88.001-54.424-129.021C1532.181,2097.561,1557.332,2084.686,1577.917,2071.073z"/>
			<path id="_x31_80609253" fill="#9AD2BD" stroke="#000000" d="M708.894,1922.24c99.816-5.976,220.364-0.283,346.593,0.896
				c39.675,0.373,79.381-4.611,119.026-1.565c40.289,3.103,71.792,18.408,106.939,36.697
				c40.666,21.156,89.093,38.383,122.405,70.887c52.846,51.549,78.014,132.858,103.726,200.286
				c28.839,75.659,51.034,154.233,60.392,234.82c6.175,53.227,11.213,110.996,3.304,164.266
				c-3.847,25.921-15.313,49.882-24.807,74.049c-5.078,12.929-10.407,26.323-13.826,40.046
				c-6.389,25.658-2.942,56.457,12.412,78.479c15.503,22.232,14.448,35.53-0.441,58.977
				c-60.656,95.516-194.339,138.215-297.992,164.678c-34.022,8.684-67.975,17.756-101.352,28.723
				c-30.822,10.126-61.835,21.805-89.069,39.741c0,0,53.48,162.858,136.462,250.745c83.267,88.189,173.746,212.782,285.57,264.737
				c388.328,180.429,864.712,54.619,1006.647-365.025c49.355-145.916,70.909-299.414,97.272-450.61
				c38.735-222.222,4.74-436.373-11.494-658.534c-13.521-184.986-38.229-377.382-104.67-551.737
				c-62.545-164.136-166.674-368.954-335.394-442.852c-26.648-11.671-54.018-21.619-81.97-29.692
				c-50.659-14.622-141.983-41.224-244.348-38.851c-29.696,32.095-49.523,164.778-53.388,194.568
				c-6.887,53.031-5.965,108.369-7.43,161.792c-1.53,55.229-2.941,110.474-2.884,165.722c0.043,44.499-0.12,89.124-6.722,133.232
				c-6.777,45.212-23.344,85.708-45.528,125.448c-13.177,23.594-29.127,45.828-49.332,63.834
				c-76.226,67.926-171.625,70.508-265.419,30.61c-20.69-8.801-40.357-19.749-59.512-31.453
				c-16.69-10.204-31.539-22.369-48.396-32.302c-16.254-9.565-41.148-12.752-53.084-27.297
				c-38.469-46.911-82.436-100.524-94.329-161.336c-15.85-80.977-23.025-162.396-12.524-242.432
				c5.223-39.882,14.845-79.422,29.975-118.399c4.744-12.234,4.744-12.234,23.422-62.661
				c-39.681,22.409-128.282,82.702-197.056,146.228c-67.333,62.196-131.604,149.095-140.227,159.563
				C744.581,1690.286,709.75,1831.402,708.894,1922.24z M1577.917,2071.073c32.251-21.34,61.351-45.845,92.331-68.833
				c45.215-33.554,59.124-10.661,50.666,36.674c-8.463,47.395-28.844,90.823-41.067,136.688c-4.638,17.378-8.099,35.111-9.293,53.55
				c-6.663,102.567,23.885,202.555,8.78,305.815c-3.251,22.278-3.827,52.168-17.584,71.102c5.309-7.309-20.176-55.03-22.926-64.967
				c-6.245-22.548-7.384-45.664-7.103-68.968c0.926-75.727-15.364-149.268-46.428-218.028
				c-16.657-36.857-56.358-88.001-54.424-129.021C1532.181,2097.561,1557.332,2084.686,1577.917,2071.073z"/>
			<path id="_x31_80609255" fill="#82C7AE" stroke="#000000" d="M1307.657,3080.848c-10.165-0.594-18.7-4.45-27.759-11.253
				c-17.965-14.272-8.926-9.331-25.728-26.785c-34.021,8.684-75.521,19.699-108.898,30.666
				c-30.82,10.126-61.834,21.805-89.068,39.741c0,0,53.479,162.858,136.462,250.745c83.267,88.189,173.745,212.782,285.57,264.737
				c307.614,142.927,670.472,93.675,878.579-141.563c-139.516,157.68-348.582,231.77-563.921,220.425
				c61.202-2.529,118.664-20.31,164.158-62.557c60.204-55.913,112.275-128.32,142.004-204.498
				c27.201-69.704,90.075-132.862,149.047-178.058c37.693-28.882,76.917-63.424,111.411-96.031
				c122.836-116.146,129.426-352.155,142.721-508.537c28.229-332.271,43.043-667.947-26.776-996.334
				c-40.935-192.513-135.262-323.769-322.349-395.783c-19.812-7.625-61.653-28.591-78.265-22.679
				c-2.155,0.769-3.891,1.983-5.094,3.743c-3.057,4.478-2.708,12.437,2.764,25.35c27.293,64.407,106.213,105.356,146.696,161.352
				c39.192,54.22,54.3,125.197,66.354,189.873c8.991,48.272,9.862,97.619,17.867,146.028c7.448,45.011,26.668,85.008,37.253,129.102
				c28.799,119.974,0.168,234.076-15.855,353.004c-21.162,157.111-3.517,321.517-41.069,476.109
				c-16.187,66.624-10.661,134.817-33.833,201.345c-16.247,46.667-55.561,67.155-91.846,96.059
				c-46.769,37.25-66.322,75.449-98.059,122.472c-48.005,71.14-107.543,136.483-145.148,213.764
				c-45.098,92.699-38.015,226.606-157.587,258.463c-46.248,12.326-86.475-6.597-131.091-12.648
				c-47.478-6.44-99.111-29.728-141.351-51.951c-88.014-46.323-158.176-117.49-228.462-186.451
				c-41.536-40.766-79.292-85.953-109.75-135.633c-10.553-17.21-37.692-47.886-26.806-67.216
				c9.375-16.645,40.586-16.999,56.26-13.604c22.946,4.97,39.359,20.121,51.702,37.79c3.388,4.847,6.457,9.885,9.283,14.954
				c-2.65-7.42-3.705-14.948-2.64-22.501c8.087,3.782,15.968,7.878,23.691,12.219c-10.096-10.365-16.765-22.162-7.429-34.357
				c11.725-15.323,28.327-10.656,44.399-0.356c-16.78-16.952-27.102-34.51-23.271-50.986c22.341,0.539,42.213-17.005,56.354-33.421
				C1331.039,3072.267,1319.692,3081.551,1307.657,3080.848z"/>
			<path id="_x31_80609254" fill="#82C7AE" stroke="#000000" d="M708.853,1925.879c99.808-5.966,220.354-0.274,346.592,0.91
				c39.666,0.371,79.371-4.617,119.018-1.567c8.563,0.653,44.057,2.79,88.367,28.455c-13.393-11.229-31.032-21.657-41.183-35.908
				c-4.198-5.89-27.513-29.377,1.974-29.1c-14.483-13.298-21.354-20.066-30.122-31.567c-38.743-50.827-65.098-87.141-75.294-139.233
				c-15.84-80.975-23.018-162.393-12.517-242.426c5.232-39.881,14.854-79.421,29.976-118.398
				c4.751-12.232,4.751-12.232,23.421-62.66c-39.68,22.408-128.282,82.701-197.055,146.226
				c-67.333,62.192-131.603,149.088-140.226,159.557C744.538,1693.933,709.699,1835.049,708.853,1925.879z"/>
			<path id="_x31_80609259" fill="#82C7AE" stroke="#000000" d="M1740.7,1580.199c54.24,4.396,68.934,45.395,50.583,99.65
				c-19.448,57.506-7.231,120.601-12.59,179.929c-2.455,27.16-6.815,56.138-22.624,79.328
				c-7.371,10.816-26.076,33.026-61.596,46.591c60.085-14.716,8.116,115.911-1.3,147.046
				c-11.035,36.474-23.281,57.204-23.793,111.404c-0.45,47.963,6.142,95.501,10.081,143.21c4.063,49.114,4.111,98.554-0.327,147.647
				c-1.713,18.891-5.061,53.078-15.921,71.557c9.779,29.479,20.333,56.218,24.367,87.257c3.752,28.78-2.166,63.034-11.325,90.346
				c-15.103,44.99-57.879,109.653-118.546,56.055c-0.761,81.202-162.202,165.663-217.015,176.877
				c9.873-2.021-7.2,52.324-12.516,58.489c-14.142,16.417-34.014,33.96-56.354,33.422
				c-11.843,50.953,111.554,112.233,143.234,134.042c75.498,51.98,155.667,103.786,240.676,41.632
				c61.546-44.99,99.649-115.152,145.812-174.118c64.322-82.17,140.043-163.675,159.777-268.616
				c21.76-115.706,21.284-226.163,10.938-343.273c-10.356-117.246,16.396-236.67,50.285-348.791
				c17.47-57.808,30.177-118.684,39.984-178.218c18.832-114.273,10.974-225.344-19.844-336.781
				c-21.23-76.768-41.332-150.153-100.443-207.221c-59.892-57.807-135.746-63.825-198.169-2.578
				C1743.529,1483.371,1741.6,1521.634,1740.7,1580.199z"/>
			<path id="_x31_80609258" fill="#9AD2BD" stroke="#000000" d="M1744.089,1425.192c62.422-61.24,138.276-55.225,198.168,2.58
				c59.111,57.063,79.214,130.447,100.445,207.209c30.816,111.432,38.677,222.497,19.853,336.765
				c-9.806,59.536-22.515,120.403-39.981,178.208c-33.889,112.112-60.641,231.532-50.283,348.771
				c10.347,117.103,10.82,227.556-10.937,343.254c-19.733,104.937-95.445,186.438-159.776,268.605
				c-46.16,58.958-84.265,129.12-145.81,174.105c-85.009,62.154-165.17,10.349-240.677-41.628
				c-25.065-17.254-52.342-31.07-77.302-48.532c-18.384-12.862-63.018-65.64-87.091-34.184
				c-15.121,19.758,11.748,38.464,27.161,51.751c41.521,35.797,90.397,62.491,136.619,91.55
				c58.865,37.01,170.235,90.398,242.086,74.308c50.644-11.344,56.304-71.061,81.123-109.084
				c67.089-102.78,186.198-183.939,233.099-298.629c32.528-79.54,38.74-184.455,48.76-269.517
				c12.742-108.067-1.576-214.233,2.89-322.549c3.905-95.001,24.428-185.47,40.546-278.785
				c12.129-70.208,28.229-140.331,26.776-212.019c-0.032-1.362-0.048-2.717-0.081-4.074c-1.789-98.818-2.022-190.323-33.109-286.121
				c-29.26-90.156-57.522-231.026-173.997-240.995c-25.839-2.212-51.794,7.49-77.533,6.221L1744.089,1425.192z"/>
			<path id="_x31_80609257" fill="#82C7AE" stroke="#000000" d="M1505.215,3398.208c60.349,15.594,139.896,62.097,201.254,25.722
				c71.627-42.473,64.874-169.047,135.969-221.448c180.78-133.255,224.583-426.519,221.14-632.735
				c-2.072-124.329,7.517-248.638,25.867-371.571c16.28-109.083,62.246-217.486,48.838-329.323
				c-11.495-95.862-36.779-189.086-53.239-284.075c-15.866-91.609-53.972-200.769-146.615-239.765
				c-27.596-11.613-154.971-46.204-161.264,10.506c34.788,16.646,70.199-2.46,105.396,0.554
				c116.473,9.968,144.736,150.843,173.995,241.007c31.087,95.802,31.317,187.312,33.106,286.134
				c0.025,1.357,0.051,2.713,0.073,4.073c1.461,71.693-14.648,141.819-26.77,212.031c-16.119,93.32-36.642,183.794-40.556,278.799
				c-4.468,108.32,9.851,214.492-2.893,322.568c-10.02,85.063-16.229,189.982-48.76,269.528
				c-46.902,114.693-166.021,195.858-233.101,298.646c-24.82,38.021-30.481,97.744-81.133,109.085
				c-71.841,16.093-183.212-37.294-242.071-74.306c-61.295-38.547-113.9-90.229-180.019-121.152
				c-6.885,48.855,74.639,96.742,106.405,120.006C1391.876,3339.86,1442.547,3382.018,1505.215,3398.208z"/>
			<path id="_x31_80609256" fill="#9AD2BD" stroke="#000000" d="M1146.633,3233.063c30.457,49.679,68.214,94.867,109.751,135.632
				c70.285,68.96,140.447,140.129,228.461,186.451c42.239,22.226,93.874,45.511,141.351,51.952
				c44.615,6.052,84.844,24.975,131.092,12.647c119.572-31.856,112.488-165.764,157.587-258.463
				c37.604-77.28,97.143-142.624,145.148-213.763c31.734-47.021,51.29-85.222,98.059-122.472
				c36.285-28.903,75.598-49.391,91.845-96.06c23.172-66.525,17.647-134.72,33.833-201.344
				c37.553-154.593,19.906-318.997,41.069-476.109c16.024-118.929,44.654-233.03,15.856-353.005
				c-10.586-44.094-29.806-84.09-37.254-129.102c-8.005-48.409-8.874-97.755-17.867-146.028
				c-12.055-64.674-27.162-135.653-66.354-189.873c-40.484-55.995-119.403-96.944-146.696-161.352
				c-5.472-12.913-5.82-20.874-2.764-25.351c1.204-1.761,2.938-2.976,5.095-3.743c-12.038-7.767-24.339-15.199-35.864-23.344
				c-39.527-27.937-84.873-68.938-104.357-117.253c-39.276-7.083-83.654-12.027-130.333-10.945
				c-24.491,26.465-42.272,121.332-49.923,170.491c-1.627,10.447-2.796,18.838-3.474,24.062
				c-8.249,63.521,20.341,48.592,57.003,40.319c9.86-2.226,20.417-2.384,30.865-2.304c32.779,0.254,69.405,8.282,99.667,21.013
				c92.651,39.002,130.757,148.157,146.624,239.757c16.46,94.983,41.744,188.202,53.247,284.06
				c13.411,111.833-32.562,220.229-48.842,329.305c-18.342,122.93-27.938,247.23-25.857,371.552
				c3.444,206.206-40.357,499.455-221.134,632.705c-71.088,52.396-64.336,178.963-135.963,221.438
				c-61.362,36.371-140.912-10.132-201.26-25.722c-62.659-16.189-113.336-58.344-164.373-95.715
				c-34.961-25.598-77.457-44.264-97.301-85.021c-4.452-9.149-9.607-18.613-15.779-27.447c-12.344-17.67-28.755-32.82-51.702-37.79
				c-15.674-3.395-46.885-3.04-56.26,13.604C1108.943,3185.178,1136.081,3215.854,1146.633,3233.063z"/>
			<path id="_x31_80609260" fill="#9DF0D2" stroke="#000000" d="M1126.521,1491.466c-7.247,70.553,4.084,141.085,15.761,210.632
				c11.813,70.33,102.741,191.095,128.176,206.076c16.856,9.934,26.919,16.774,43.609,26.977
				c19.155,11.706,39.067,22.095,59.512,31.453c89.166,40.805,193.501,37.358,265.419-30.609
				c19.668-18.592,36.155-40.241,49.333-63.835c22.185-39.739,38.75-80.236,45.527-125.447
				c6.602-44.109-17.999-88.965-18.043-133.463c-0.103-110.217,2.809-168.717,5.968-282.604
				c1.693-60.736,21.655-175.642,48.385-238.917c-147.139-1.378-327.144,53.731-467.272,122.046
				c-18.503,9.017-72.85,37.479-81.525,42.558c-8.218,4.812-19.114,8.599-25.2,16.125c-9.556,11.814-16.735,25.302-22.705,39.217
				c-21.63,50.374-36.547,105.996-44.486,160.163C1128.025,1478.358,1127.192,1484.899,1126.521,1491.466z"/>
			<path id="_x31_80609261" fill="#9DF0D2" stroke="#000000" d="M1228.432,1282.134c-27.378,17.533-103.866,68.299-45.979,96.453
				c19.723,9.598,45.022,13.438,66.741,16.824c26.334,4.114,53.116,3.298,79.515,6.81c13.314,1.775,24.596,5.263,37.973,3.677
				c13.891-1.637,27.791-3.119,41.763-3.912c21.401-1.208,43.619-0.281,64.859-2.713c14.699-1.684,31.87-11.968,45.95-18.14
				c13.193-5.782,27.37-10.214,41.626-12.448c22.368-3.494,39.625-0.092,60.633,7.664c18.876,6.973,30.705,7.031,47.236-5.14
				c31.32-23.063,66.351-46.347,79.569-84.949c5.762-16.818,9.065-34.513,13.797-51.405c4.916-17.537,15.174-37.582,3.18-54.21
				c-20.623-28.602-71.668-21.231-101.678-19.947c-51.762,2.214-105.615,4.038-156.553,12.461
				c-35.61,5.879-71.068,10.271-101.989,30.434c-25.67,16.73-57.448,19.914-86.598,29.711c-26.23,8.816-49.333,22.757-72.354,37.471
				C1240.23,1274.534,1234.349,1278.349,1228.432,1282.134z"/>
			<path id="_x31_80609263" fill="#95E4C8" stroke="#000000" d="M1527.37,1990.622c41.294-8.446,80.707-25.42,111.608-54.632
				c33.329-31.496,55.235-70.849,73.102-112.432c16.757-39.032,31.667-91.794,24.343-134.563
				c-6.382-37.263-48.395,17.05-60.156,23.76c-26.406,15.05-55.599,25.708-85.927,28.737
				c-101.438,10.146-175.082,24.007-274.329-11.184c-25.215-8.939-191.32-72.836-160.424,10.243
				c16.23,43.612,49.613,91.691,76.98,129.354c29.877,41.094,75.17,61.158,116.21,84.272
				C1403.296,1984.878,1471.574,2002.031,1527.37,1990.622z"/>
			<path id="_x31_80609262" fill="#9DF0D2" stroke="#000000" d="M1661.955,1597.702c5.604-3.12,54.513-20.345,53.969-15.876
				c-0.721-46.443,1.913-74.654,2.336-118.671c0.223-22.077,1.772-64.506,3.175-124.509
				c-26.506,26.024-31.104,75.404-61.335,105.305c-91.744,90.751-254.395,26.767-363.457,21.242
				c-51.116-2.587-95.899,22.191-142.018,40.689c-42.297,16.955-12.521,25.695,12.79,34.197
				c30.805,10.349,58.981,27.407,86.748,44.081c57.008,34.236,111.629,77.344,179.969,85.162
				c55.559,6.357,110.946,0.057,159.5-29.108C1616.576,1626.441,1638.64,1610.702,1661.955,1597.702z"/>
			<path id="_x31_80609264" fill="#54BF94" stroke="#000000" d="M932.056,2672.148c31.404,92.804,54.639,192.182,80.044,290.387
				c10.72,41.44,23.625,83.501,34.786,123.432c21.021-8.78,79.183-30.865,98.622-37.252c33.376-10.963,67.32-20.036,101.344-28.725
				c103.653-26.457,237.336-69.162,298-164.677c14.89-23.444,15.709-11.983,0.206-34.214
				c-15.354-22.022-18.801-52.821-12.413-78.479c3.421-13.724,8.749-27.118,13.826-40.046c9.495-24.167,20.96-48.127,24.808-74.049
				c7.909-53.27,2.871-111.039-3.305-164.266c-9.357-80.587-31.553-159.162-60.392-234.82
				c-25.711-67.427-50.879-148.737-103.725-200.287c-33.312-32.502-81.739-49.73-122.406-70.886
				c-35.147-18.291-66.886-8.839-107.174-11.938c-39.646-3.046-79.352,1.937-119.019,1.567
				c-75.888-0.71-273.285-1.932-347.167-2.401c-0.116,15.703,1.876,78.51,4.104,93.772c8.717,59.757,8.717,59.757,20.959,113.558
				c9.193,40.394,19.925,75.159,32.312,122.702c10.226,39.254,19.982,77.005,32.979,114.068
				C830.753,2481.724,900.76,2579.686,932.056,2672.148z"/>
			<path id="_x31_80609266" fill="#54BF94" stroke="#000000" d="M1063.771,1947.958c4.147,83.032,21.112,165.921,43.702,245.278
				c15.987,56.146,12.797,113.543,26.142,170.282c17.324,73.659,30.984,147.908,61.038,217.711
				c33.339,77.449,51.37,160.073,77.114,240.102c5.999,18.654,48.527,104.656,64.547,172.627
				c81.711-27.661,164.428-69.181,208.54-138.63c14.888-23.445,15.708-11.985,0.215-34.213c-5.128-7.351-8.921-15.68-11.472-24.469
				c-2.359-8.13-3.646-16.651-3.926-25.16l-3.305-1.633c-13.151-27.891-35.007-47.455-52.672-72.792
				c-72.752-104.355-91.278-228.082-135.695-345.372c-30.231-79.834-37.346-165.989-50.391-250.122
				c-7.051-45.466-7.694-89.592,4.157-134.499l0.894-3.08c-3.788-1.863-7.528-3.743-11.206-5.656
				c-32.049-16.679-61.272-10.288-96.73-11.386c-3.421-0.105-6.893-0.276-10.437-0.549
				C1137.475,1943.565,1100.609,1947.654,1063.771,1947.958z"/>
			<path id="_x31_80609265" fill="#54BF94" stroke="#000000" d="M1287.606,2101.569c13.046,84.131,20.158,170.289,50.391,250.121
				c44.416,117.29,62.943,241.017,135.694,345.373c17.667,25.335,39.521,44.9,52.673,72.791l3.305,1.634
				c-0.324-9.85,0.696-19.678,2.983-28.848c2.556-10.253,6.176-20.321,9.963-30.149c1.28-3.326,2.578-6.624,3.862-9.893
				c9.487-24.166,20.961-48.125,24.806-74.044c7.912-53.267,2.863-111.032-3.305-164.25
				c-9.357-80.586-31.553-159.155-60.393-234.809c-25.71-67.43-50.871-148.732-103.719-200.279
				c-23.604-23.03-54.805-38.391-85.453-52.915c-8.692-4.119-17.338-8.172-25.755-12.312l-0.894,3.079
				C1279.914,2011.976,1280.558,2056.102,1287.606,2101.569z"/>
			<path id="_x31_80609267" fill="#54BF94" stroke="#000000" d="M708.092,1945.493c-0.116,15.704,1.877,78.51,4.104,93.773
				c8.717,59.756,8.717,59.756,20.96,113.556c9.192,40.395,19.924,75.16,32.311,122.703c10.226,39.254,19.982,77.005,32.979,114.068
				c32.306,92.128,102.313,190.091,133.611,282.555c31.404,92.805,54.639,192.182,80.044,290.388
				c10.72,41.44,23.625,83.501,34.786,123.432c21.021-8.78,79.183-30.865,98.621-37.252c31.153-10.232,62.804-18.813,94.548-26.978
				c-30.38-50.15-52.614-117.78-59.854-142.516c-21.551-73.628-30.604-152.001-51.688-226.344
				c-17.61-62.099-32.161-125.037-50.891-186.822c-14.03-46.283-26.863-92.927-38.148-139.95
				c-30.093-125.494-42.375-251.484-51.547-378.757C896.371,1946.672,765.262,1945.858,708.092,1945.493z"/>
			<path id="_x31_80609269" fill="#CCCCCC" stroke="#000000" d="M1112.546,1530.836c116.815,2.783,203.144,125.029,321.607,138.583
				c55.551,6.355,110.939,0.057,159.499-29.106c44.549-26.751,93.979-66.33,149.871-59.755
				c56.611,6.672,63.729,52.264,47.782,99.373c-33.372,98.632,32.451,255.247-91.107,301.964l-29.949,20.345
				c-30.98,22.987-60.079,47.492-92.331,68.832c-20.586,13.612-45.737,26.487-47.048,54.012
				c-1.935,41.02,37.768,92.165,54.425,129.021c31.062,68.761,47.354,142.301,46.427,218.028
				c-0.281,23.304,0.858,46.419,7.104,68.968c3.023,10.925,9.235,21.33,13.715,31.708c9.329,21.673,15.077,44.768,22.14,67.242
				c7.153,22.757,14.53,45.779,14.886,69.864c0.532,36.712-8.249,73.191-26.246,105.263c-55.466,98.826-152.352,16.974-131.533-72.7
				c9.231-39.758,33.381-72.746,39.496-113.924c7.913-53.267,2.864-111.032-3.304-164.25
				c-9.357-80.586-31.553-159.155-60.393-234.81c-32.174-84.396-57.431-183.816-150.83-233.146
				c-44.07-23.271-91.675-40.689-129.002-75.437c-23.493-21.868-26.581-46.178,7.888-31.167
				c43.43,18.923,75.383,43.245,113.159,64.515c54.511,30.7,122.797,47.855,178.589,36.439
				c41.293-8.444,80.706-25.417,111.615-54.627c33.322-31.495,55.227-70.84,73.094-112.421
				c16.765-39.035,31.665-91.793,24.349-134.556c-6.382-37.265-48.394,17.045-60.164,23.753
				c-26.396,15.051-55.599,25.707-85.926,28.739c-101.439,10.145-175.083,24.004-274.329-11.184
				c-85.354-30.261-216.604-74.046-241.557,53.51c-26.569,135.828-4.54,277.452,33,409.324
				c15.986,56.145,12.796,113.542,26.141,170.281c17.325,73.659,30.986,147.908,61.039,217.711
				c33.339,77.449,51.371,160.074,77.114,240.102c9.954,30.956,120.513,247.383,43.567,259.086
				c-66.139,10.005-122.706-158.747-135.131-201.193c-21.551-73.628-30.604-152.001-51.688-226.344
				c-17.61-62.099-32.161-125.037-50.891-186.822c-14.03-46.283-26.863-92.927-38.148-139.95
				c-39.778-165.886-48.441-332.638-59.929-502.076c-3.351-49.19,8.944-92.866,14.563-142.232
				c5.697-50.197,11.109-112.943,60.196-139.099C1069.458,1534.629,1088.505,1530.275,1112.546,1530.836z"/>
			<path id="_x31_80609270" fill="#CCCCCC" stroke="#000000" d="M1445.912,1161.05c-15.147,20.665,28.574,17.452,37.635,16.035
				c27.119-4.257,54.967-7.893,82.388-9.45c24.38-1.391,48.813-3.2,73.173-4.487c43.266-2.292,86.521-4.609,129.853-5.402
				c33.538-0.612,72.818-0.872,98.429-26.78c23.636-23.912-9.833-36.163-29.21-37.114c-50.748-2.472-94.063-2.608-135.712,1.892
				c-47.79,5.166-95.306,13.194-142.113,24.14c-34.334,8.025-74.413,21.477-107.724,35.152
				C1449.652,1156.26,1447.6,1158.759,1445.912,1161.05z"/>
			<path id="_x31_80609271" fill="#CCCCCC" stroke="#000000" d="M2038.982,1219.74c11.524,8.146,23.825,15.579,35.864,23.344
				c16.611-5.912,58.451,15.055,78.265,22.68c187.087,72.014,281.414,203.269,322.347,395.782
				c69.821,328.387,55.007,664.063,26.778,996.334c-13.295,156.384-19.886,392.391-142.722,508.538
				c-34.495,32.606-73.718,67.148-111.41,96.031c-58.974,45.194-121.846,108.354-149.048,178.058
				c-29.729,76.178-81.8,148.584-142.004,204.497c-45.494,42.247-102.955,60.026-164.158,62.557
				c299.627,15.786,587.108-133.834,691.988-443.887c49.354-145.908,70.907-299.396,97.269-450.578
				c38.74-222.208,4.744-436.341-11.49-658.487c-13.516-184.976-38.225-377.36-104.667-551.702
				c-62.545-164.125-166.668-368.934-335.388-442.828c-26.656-11.67-54.026-21.617-81.978-29.689
				c-27.561-7.954-67.152-19.452-114.006-27.903C1954.107,1150.802,1999.453,1191.803,2038.982,1219.74z"/>
			<path id="_x31_80609268" fill="#AAAAAA" stroke="#000000" d="M1670.554,2229.151c-6.663,102.567,23.885,202.555,8.78,305.815
				c-3.251,22.278-3.827,52.168-17.584,71.102c5.309-7.309-20.176-55.029-22.926-64.967c-6.245-22.548-7.384-45.664-7.103-68.968
				c0.926-75.727-15.364-149.268-46.428-218.028c-16.658-36.856-56.358-88.001-54.424-129.021
				c1.311-27.524,26.462-40.4,47.047-54.012c32.252-21.34,61.352-45.845,92.332-68.832c45.215-33.555,59.123-10.661,50.666,36.673
				c-8.464,47.395-28.845,90.823-41.068,136.688C1675.208,2192.98,1671.748,2210.715,1670.554,2229.151z"/>
		</g>
	</g>
	<g transform="scale(1.0)">
		<g id="_x31_80609248_1_" transform=" scale(1.0, 1.0)">
			<path id="_x31_80609250_1_" fill="#BFDAE3" stroke="#000000" d="M4353.2,1564.807c8.095,10.604,16.335,21.215,24.961,31.686
				c123.617,150.03,137.199,389.246,85.441,567.93c-33.872,116.935-50.598,236.571-116.268,340.326
				c-166.704,263.361-131.628,617.633-339.98,859.148c-79.23,91.823-173.741,212.774-285.567,264.732
				c-388.317,180.425-864.695,54.625-1006.634-365.008c-49.351-145.914-70.906-299.406-97.271-450.596
				c-38.741-222.217-4.739-436.36,11.49-658.52c13.518-184.981,38.228-377.373,104.663-551.72
				c62.542-164.132,166.665-368.945,335.386-442.844c272.267-119.24,571.103-71.251,827.691,53.829
				C4082.152,1303.972,4227.96,1400.686,4353.2,1564.807z"/>
			<path id="_x31_80609251_1_" fill="#B0FFB8" stroke="#000000" d="M4378.161,1596.503c-8.623-10.468-16.865-21.078-24.96-31.687
				c-125.233-164.125-271.054-260.838-456.095-351.047c-256.596-125.077-555.424-173.064-827.704-53.823
				c-168.719,73.901-272.841,278.716-335.387,442.848c-66.431,174.355-91.147,366.745-104.661,551.731
				c-16.233,222.157-50.23,436.306-11.488,658.521c26.355,151.193,47.916,304.688,97.271,450.604
				c141.943,419.637,618.318,545.437,1006.646,365.011c111.823-51.959,206.334-172.914,285.562-264.737
				c208.36-241.517,173.286-595.791,339.991-859.158c65.672-103.755,82.396-223.392,116.263-340.329
				C4515.372,1985.751,4501.782,1746.529,4378.161,1596.503z M3669.13,2125.085c1.935,41.02-37.767,92.163-54.424,129.021
				c-31.063,68.761-47.354,142.302-46.428,218.028c0.281,23.304-0.857,46.42-7.103,68.968c-2.75,9.937-28.234,57.658-22.926,64.967
				c-13.757-18.934-14.333-48.823-17.584-71.102c-15.104-103.261,15.443-203.248,8.78-305.815
				c-1.194-18.438-4.655-36.172-9.293-53.55c-12.224-45.864-32.604-89.293-41.067-136.688c-8.458-47.335,5.451-70.228,50.666-36.674
				c30.98,22.988,60.08,47.493,92.331,68.833C3642.668,2084.686,3667.819,2097.561,3669.13,2125.085z"/>
			<path id="_x31_80609252_1_" fill="#9AD2BD" stroke="#000000" d="M4378.161,1596.503c-8.623-10.468-16.865-21.078-24.96-31.687
				c-125.233-164.125-271.054-260.838-456.095-351.047c-256.596-125.077-555.424-173.064-827.704-53.823
				c-168.719,73.901-272.841,278.716-335.387,442.848c-66.431,174.355-91.147,366.745-104.661,551.731
				c-16.233,222.157-50.23,436.306-11.488,658.521c26.355,151.193,47.916,304.688,97.271,450.604
				c141.943,419.637,618.318,545.437,1006.646,365.011c111.823-51.959,206.334-172.914,285.562-264.737
				c208.36-241.517,173.286-595.791,339.991-859.158c65.672-103.755,82.396-223.392,116.263-340.329
				C4515.372,1985.751,4501.782,1746.529,4378.161,1596.503z M3669.13,2125.085c1.935,41.02-37.767,92.163-54.424,129.021
				c-31.063,68.761-47.354,142.302-46.428,218.028c0.281,23.304-0.857,46.42-7.103,68.968c-2.75,9.937-28.234,57.658-22.926,64.967
				c-13.757-18.934-14.333-48.823-17.584-71.102c-15.104-103.261,15.443-203.248,8.78-305.815
				c-1.194-18.438-4.655-36.172-9.293-53.55c-12.224-45.864-32.604-89.293-41.067-136.688c-8.458-47.335,5.451-70.228,50.666-36.674
				c30.98,22.988,60.08,47.493,92.331,68.833C3642.668,2084.686,3667.819,2097.561,3669.13,2125.085z"/>
			<path id="_x31_80609253_1_" fill="#9AD2BD" stroke="#000000" d="M4378.153,1596.515c-8.623-10.468-72.894-97.366-140.227-159.563
				c-68.773-63.525-157.375-123.819-197.056-146.228c18.678,50.427,18.678,50.427,23.422,62.661
				c15.13,38.978,24.752,78.517,29.975,118.399c10.501,80.035,3.325,161.455-12.524,242.432
				c-11.894,60.812-55.86,114.425-94.329,161.336c-11.936,14.545-36.83,17.732-53.084,27.298
				c-16.857,9.933-31.706,22.098-48.396,32.302c-19.154,11.704-38.821,22.652-59.512,31.453
				c-93.794,39.898-189.193,37.316-265.419-30.61c-20.205-18.006-36.155-40.24-49.332-63.834
				c-22.185-39.74-38.751-80.235-45.528-125.448c-6.602-44.108-6.765-88.733-6.722-133.232
				c0.058-55.248-1.354-110.493-2.884-165.722c-1.465-53.423-0.543-108.761-7.43-161.792
				c-3.864-29.791-23.691-162.473-53.388-194.568c-102.364-2.373-193.688,24.229-244.348,38.851
				c-27.952,8.073-55.321,18.021-81.97,29.692c-168.72,73.898-272.849,278.716-335.394,442.852
				c-66.441,174.355-91.148,366.751-104.67,551.737c-16.234,222.161-50.229,436.313-11.494,658.534
				c26.363,151.196,47.917,304.694,97.272,450.61c141.936,419.645,618.319,545.454,1006.647,365.025
				c111.824-51.955,202.304-176.548,285.57-264.737c82.981-87.887,136.462-250.745,136.462-250.745
				c-27.234-17.937-58.247-29.615-89.069-39.741c-33.377-10.967-67.329-20.039-101.352-28.723
				c-103.653-26.463-237.336-69.162-297.992-164.678c-14.89-23.446-15.944-36.744-0.441-58.977
				c15.354-22.022,18.801-52.821,12.412-78.479c-3.419-13.723-8.748-27.117-13.826-40.046c-9.493-24.167-20.96-48.128-24.807-74.049
				c-7.909-53.27-2.871-111.039,3.304-164.266c9.357-80.587,31.553-159.161,60.392-234.82
				c25.712-67.428,50.88-148.737,103.726-200.286c33.313-32.504,81.739-49.73,122.405-70.887
				c35.147-18.29,66.65-33.595,106.939-36.697c39.646-3.046,79.352,1.938,119.026,1.565c126.229-1.178,246.776-6.871,346.593-0.896
				C4490.25,1831.402,4455.419,1690.286,4378.153,1596.515z M3669.13,2125.085c1.935,41.02-37.767,92.163-54.424,129.021
				c-31.063,68.761-47.354,142.302-46.428,218.028c0.281,23.304-0.857,46.42-7.103,68.968c-2.75,9.937-28.234,57.658-22.926,64.967
				c-13.757-18.934-14.333-48.823-17.584-71.102c-15.104-103.261,15.443-203.248,8.78-305.815
				c-1.194-18.438-4.655-36.172-9.293-53.55c-12.224-45.864-32.604-89.293-41.067-136.688c-8.458-47.335,5.451-70.228,50.666-36.674
				c30.98,22.988,60.08,47.493,92.331,68.833C3642.668,2084.686,3667.819,2097.561,3669.13,2125.085z"/>
			<path id="_x31_80609255_1_" fill="#82C7AE" stroke="#000000" d="M3871.819,3075.584c14.142,16.416,34.014,33.96,56.354,33.421
				c3.83,16.477-6.491,34.034-23.271,50.986c16.072-10.3,32.675-14.967,44.399,0.356c9.336,12.195,2.667,23.992-7.429,34.357
				c7.724-4.341,15.604-8.437,23.691-12.219c1.065,7.553,0.011,15.081-2.64,22.501c2.826-5.069,5.896-10.107,9.283-14.954
				c12.343-17.669,28.756-32.82,51.702-37.79c15.674-3.395,46.885-3.04,56.26,13.604c10.887,19.33-16.253,50.006-26.806,67.216
				c-30.458,49.68-68.214,94.867-109.75,135.633c-70.286,68.961-140.448,140.128-228.462,186.451
				c-42.239,22.224-93.873,45.511-141.351,51.951c-44.616,6.052-84.843,24.975-131.091,12.648
				c-119.572-31.856-112.489-165.764-157.587-258.463c-37.605-77.28-97.144-142.624-145.148-213.764
				c-31.736-47.022-51.29-85.222-98.059-122.472c-36.285-28.903-75.599-49.392-91.846-96.059
				c-23.172-66.527-17.646-134.721-33.833-201.345c-37.553-154.593-19.907-318.998-41.069-476.109
				c-16.023-118.929-44.654-233.03-15.855-353.004c10.585-44.094,29.805-84.092,37.253-129.102
				c8.005-48.409,8.876-97.756,17.867-146.028c12.055-64.676,27.162-135.653,66.354-189.873
				c40.483-55.996,119.403-96.945,146.696-161.352c5.472-12.913,5.82-20.873,2.764-25.35c-1.203-1.76-2.938-2.975-5.094-3.743
				c-16.611-5.912-58.453,15.054-78.265,22.679c-187.087,72.014-281.414,203.27-322.349,395.783
				c-69.819,328.387-55.005,664.064-26.776,996.334c13.295,156.382,19.885,392.391,142.721,508.537
				c34.494,32.607,73.718,67.149,111.411,96.031c58.972,45.195,121.846,108.354,149.047,178.058
				c29.729,76.178,81.8,148.585,142.004,204.498c45.494,42.247,102.956,60.027,164.158,62.557
				c-215.339,11.345-424.405-62.745-563.921-220.425c208.107,235.238,570.965,284.49,878.579,141.563
				c111.825-51.955,202.304-176.548,285.57-264.737c82.982-87.887,136.462-250.745,136.462-250.745
				c-27.234-17.937-58.248-29.615-89.068-39.741c-33.378-10.967-74.877-21.982-108.898-30.666
				c-16.802,17.454-7.763,12.513-25.728,26.785c-9.059,6.803-17.594,10.659-27.759,11.253
				C3880.308,3081.551,3868.961,3072.267,3871.819,3075.584z"/>
			<path id="_x31_80609254_1_" fill="#82C7AE" stroke="#000000" d="M4378.196,1600.167c-8.623-10.469-72.893-97.364-140.226-159.557
				c-68.772-63.525-157.375-123.817-197.055-146.226c18.67,50.428,18.67,50.428,23.421,62.66
				c15.122,38.977,24.743,78.517,29.976,118.398c10.501,80.033,3.323,161.451-12.517,242.426
				c-10.196,52.093-36.551,88.407-75.294,139.234c-8.769,11.501-15.639,18.27-30.122,31.566c29.486-0.277,6.172,23.211,1.974,29.101
				c-10.15,14.251-27.79,24.679-41.183,35.907c44.311-25.665,79.805-27.802,88.367-28.455c39.646-3.049,79.352,1.938,119.018,1.567
				c126.237-1.185,246.784-6.876,346.592-0.91C4490.301,1835.049,4455.462,1693.933,4378.196,1600.167z"/>
			<path id="_x31_80609259_1_" fill="#82C7AE" stroke="#000000" d="M3455.925,1425.083c-62.423-61.248-138.277-55.229-198.169,2.578
				c-59.111,57.067-79.213,130.453-100.443,207.221c-30.817,111.437-38.676,222.508-19.844,336.781
				c9.808,59.534,22.515,120.41,39.984,178.218c33.889,112.121,60.642,231.545,50.285,348.791
				c-10.347,117.11-10.822,227.567,10.938,343.273c19.734,104.941,95.455,186.446,159.777,268.616
				c46.162,58.966,84.266,129.128,145.812,174.118c85.009,62.154,165.178,10.349,240.676-41.632
				c31.681-21.809,155.077-83.089,143.234-134.042c-22.341,0.538-42.213-17.005-56.354-33.422
				c-5.315-6.165-22.389-60.51-12.516-58.489c-54.813-11.214-216.254-95.675-217.015-176.877
				c-60.667,53.599-103.443-11.064-118.546-56.055c-9.159-27.312-15.077-61.565-11.325-90.346
				c4.034-31.039,14.588-57.778,24.367-87.257c-10.86-18.479-14.208-52.666-15.921-71.557c-4.438-49.094-4.391-98.533-0.327-147.647
				c3.939-47.709,10.531-95.247,10.081-143.21c-0.512-54.2-12.758-74.931-23.793-111.404c-9.416-31.135-61.385-161.763-1.3-147.046
				c-35.52-13.564-54.225-35.774-61.596-46.591c-15.809-23.189-20.169-52.168-22.624-79.327
				c-5.358-59.328,6.858-122.423-12.59-179.929c-18.351-54.256-3.657-95.255,50.583-99.65
				C3458.4,1521.634,3456.471,1483.371,3455.925,1425.083z"/>
			<path id="_x31_80609258_1_" fill="#9AD2BD" stroke="#000000" d="M3394.963,1362.404c-25.739,1.27-51.694-8.433-77.533-6.221
				c-116.475,9.969-144.737,150.839-173.997,240.995c-31.087,95.797-31.32,187.303-33.109,286.121
				c-0.033,1.356-0.049,2.711-0.081,4.073c-1.453,71.688,14.647,141.811,26.776,212.019
				c16.118,93.315,36.641,183.784,40.546,278.785c4.466,108.315-9.853,214.481,2.89,322.549
				c10.02,85.062,16.231,189.977,48.76,269.517c46.9,114.689,166.01,195.849,233.099,298.629
				c24.819,38.023,30.479,97.74,81.123,109.084c71.851,16.091,183.221-37.298,242.086-74.308
				c46.222-29.059,95.098-55.753,136.619-91.55c15.413-13.287,42.282-31.993,27.161-51.751
				c-24.073-31.456-68.707,21.321-87.091,34.184c-24.96,17.462-52.236,31.278-77.302,48.532
				c-75.507,51.977-155.668,103.782-240.677,41.628c-61.545-44.985-99.649-115.147-145.81-174.105
				c-64.331-82.168-140.043-163.669-159.776-268.605c-21.757-115.698-21.283-226.151-10.937-343.254
				c10.357-117.239-16.395-236.659-50.283-348.771c-17.467-57.806-30.176-118.673-39.981-178.209
				c-18.824-114.268-10.964-225.332,19.853-336.764c21.231-76.762,41.334-150.146,100.445-207.209
				c59.892-57.805,135.746-63.819,198.168-2.58L3394.963,1362.404z"/>
			<path id="_x31_80609257_1_" fill="#82C7AE" stroke="#000000" d="M3859.16,3302.492c31.767-23.264,113.29-71.15,106.405-120.006
				c-66.118,30.923-118.724,82.605-180.019,121.152c-58.859,37.012-170.23,90.398-242.071,74.306
				c-50.651-11.341-56.313-71.063-81.133-109.085c-67.08-102.787-186.198-183.952-233.101-298.646
				c-32.53-79.546-38.74-184.465-48.76-269.528c-12.743-108.076,1.575-214.248-2.893-322.568
				c-3.914-95.005-24.437-185.479-40.556-278.799c-12.121-70.212-28.23-140.339-26.77-212.031c0.022-1.36,0.048-2.716,0.073-4.073
				c1.789-98.822,2.02-190.332,33.106-286.134c29.259-90.165,57.522-231.04,173.995-241.007
				c35.197-3.014,70.608,16.092,105.396-0.554c-6.293-56.71-133.668-22.119-161.264-10.506
				c-92.644,38.996-130.749,148.156-146.615,239.765c-16.46,94.989-41.744,188.213-53.239,284.075
				c-13.408,111.837,32.558,220.24,48.838,329.323c18.351,122.934,27.939,247.242,25.867,371.571
				c-3.443,206.217,40.359,499.48,221.14,632.735c71.095,52.401,64.342,178.976,135.969,221.448
				c61.357,36.375,140.905-10.128,201.254-25.722C3757.453,3382.018,3808.124,3339.86,3859.16,3302.492z"/>
			<path id="_x31_80609256_1_" fill="#9AD2BD" stroke="#000000" d="M4080.172,3165.848c-9.375-16.645-40.586-16.999-56.26-13.604
				c-22.947,4.97-39.358,20.12-51.702,37.79c-6.172,8.834-11.327,18.298-15.779,27.447c-19.844,40.758-62.34,59.424-97.301,85.021
				c-51.037,37.371-101.714,79.525-164.373,95.715c-60.348,15.59-139.897,62.093-201.26,25.722
				c-71.627-42.476-64.875-169.042-135.963-221.438c-180.776-133.25-224.578-426.499-221.134-632.705
				c2.081-124.321-7.516-248.622-25.857-371.552c-16.28-109.075-62.253-217.472-48.842-329.305
				c11.503-95.857,36.787-189.076,53.247-284.06c15.867-91.6,53.973-200.754,146.624-239.757
				c30.262-12.731,66.888-20.759,99.667-21.013c10.448-0.081,21.005,0.078,30.865,2.304c36.662,8.273,65.252,23.203,57.003-40.319
				c-0.678-5.223-1.847-13.614-3.474-24.062c-7.65-49.16-25.432-144.026-49.923-170.491c-46.679-1.082-91.057,3.862-130.333,10.945
				c-19.484,48.315-64.83,89.316-104.357,117.253c-11.525,8.146-23.826,15.578-35.864,23.344c2.157,0.767,3.891,1.981,5.095,3.743
				c3.057,4.477,2.708,12.438-2.764,25.351c-27.293,64.408-106.212,105.357-146.696,161.352
				c-39.192,54.22-54.3,125.198-66.354,189.873c-8.993,48.273-9.862,97.62-17.867,146.028
				c-7.448,45.011-26.668,85.008-37.254,129.102c-28.798,119.975-0.168,234.076,15.856,353.005
				c21.163,157.112,3.517,321.517,41.069,476.109c16.186,66.624,10.661,134.818,33.833,201.344
				c16.247,46.669,55.56,67.156,91.845,96.06c46.769,37.25,66.324,75.45,98.059,122.472
				c48.006,71.139,107.545,136.482,145.148,213.763c45.099,92.699,38.015,226.606,157.587,258.463
				c46.248,12.327,86.477-6.596,131.092-12.647c47.477-6.441,99.111-29.727,141.351-51.952
				c88.014-46.322,158.176-117.491,228.461-186.451c41.537-40.765,79.294-85.953,109.751-135.632
				C4063.919,3215.854,4091.057,3185.178,4080.172,3165.848z"/>
			<path id="_x31_80609260_1_" fill="#9DF0D2" stroke="#000000" d="M4071.022,1471.837c-7.939-54.167-22.856-109.79-44.486-160.163
				c-5.97-13.915-13.149-27.403-22.705-39.217c-6.086-7.527-16.982-11.313-25.2-16.125c-8.676-5.079-63.022-33.541-81.525-42.558
				c-140.129-68.315-320.134-123.424-467.272-122.046c26.729,63.275,46.691,178.181,48.385,238.917
				c3.159,113.887,6.07,172.387,5.968,282.604c-0.044,44.498-24.645,89.354-18.043,133.463
				c6.777,45.211,23.343,85.708,45.527,125.447c13.178,23.594,29.665,45.244,49.333,63.836
				c71.918,67.967,176.253,71.413,265.419,30.608c20.444-9.358,40.356-19.747,59.512-31.453
				c16.69-10.202,26.753-17.043,43.609-26.978c25.435-14.98,116.363-135.745,128.176-206.075
				c11.677-69.547,23.008-140.079,15.761-210.632C4072.808,1484.899,4071.975,1478.358,4071.022,1471.837z"/>
			<path id="_x31_80609261_1_" fill="#9DF0D2" stroke="#000000" d="M3953.878,1270.773c-23.021-14.714-46.124-28.655-72.354-37.471
				c-29.149-9.797-60.928-12.981-86.598-29.711c-30.921-20.163-66.379-24.555-101.989-30.434
				c-50.938-8.423-104.791-10.247-156.553-12.461c-30.01-1.284-81.055-8.655-101.678,19.947c-11.994,16.629-1.736,36.673,3.18,54.21
				c4.731,16.892,8.035,34.587,13.797,51.405c13.219,38.602,48.249,61.886,79.569,84.949c16.531,12.171,28.36,12.113,47.236,5.14
				c21.008-7.756,38.265-11.158,60.633-7.664c14.256,2.234,28.433,6.666,41.626,12.448c14.08,6.172,31.251,16.456,45.95,18.14
				c21.24,2.432,43.458,1.505,64.859,2.713c13.972,0.793,27.872,2.275,41.763,3.912c13.377,1.586,24.658-1.902,37.973-3.677
				c26.398-3.512,53.181-2.695,79.515-6.81c21.719-3.387,47.019-7.227,66.741-16.824c57.887-28.153-18.602-78.92-45.979-96.453
				C3965.651,1278.349,3959.77,1274.534,3953.878,1270.773z"/>
			<path id="_x31_80609263_1_" fill="#95E4C8" stroke="#000000" d="M3851.223,1954.177c41.04-23.114,86.333-43.178,116.21-84.272
				c27.367-37.663,60.75-85.741,76.98-129.354c30.896-83.079-135.209-19.182-160.424-10.243
				c-99.247,35.191-172.891,21.331-274.329,11.184c-30.328-3.028-59.521-13.687-85.927-28.737
				c-11.762-6.709-53.774-61.022-60.156-23.76c-7.324,42.769,7.586,95.53,24.343,134.563
				c17.866,41.584,39.772,80.936,73.102,112.432c30.901,29.213,70.314,46.187,111.608,54.633
				C3728.426,2002.031,3796.704,1984.878,3851.223,1954.177z"/>
			<path id="_x31_80609262_1_" fill="#9DF0D2" stroke="#000000" d="M3606.368,1640.214c48.554,29.165,103.941,35.465,159.5,29.108
				c68.34-7.818,122.961-50.926,179.969-85.162c27.767-16.674,55.943-33.732,86.748-44.081c25.311-8.502,55.087-17.242,12.79-34.197
				c-46.118-18.498-90.901-43.276-142.018-40.689c-109.063,5.525-271.713,69.509-363.457-21.242
				c-30.23-29.901-34.829-79.281-61.335-105.305c1.402,60.003,2.952,102.433,3.175,124.509c0.423,44.018,3.057,72.229,2.336,118.671
				c-0.544-4.468,48.364,12.757,53.969,15.876C3561.36,1610.702,3583.424,1626.441,3606.368,1640.214z"/>
			<path id="_x31_80609264_1_" fill="#54BF94" stroke="#000000" d="M4401.554,2389.595c12.997-37.063,22.754-74.814,32.979-114.068
				c12.387-47.543,23.118-82.309,32.312-122.702c12.242-53.801,12.242-53.801,20.959-113.558
				c2.229-15.263,4.221-78.069,4.104-93.772c-73.882,0.469-271.279,1.69-347.167,2.401c-39.667,0.369-79.372-4.613-119.019-1.567
				c-40.288,3.1-72.026-6.353-107.174,11.938c-40.667,21.155-89.095,38.384-122.406,70.886
				c-52.846,51.55-78.014,132.86-103.725,200.287c-28.839,75.658-51.034,154.233-60.392,234.82
				c-6.176,53.227-11.214,110.996-3.305,164.266c3.848,25.922,15.313,49.882,24.808,74.049
				c5.077,12.928,10.405,26.322,13.826,40.046c6.388,25.658,2.941,56.457-12.413,78.479c-15.503,22.23-14.684,10.77,0.206,34.214
				c60.664,95.515,194.347,138.22,298,164.677c34.023,8.688,67.968,17.762,101.344,28.725c19.439,6.387,77.601,28.472,98.622,37.252
				c11.161-39.931,24.066-81.991,34.786-123.432c25.405-98.205,48.64-197.583,80.044-290.387
				C4299.24,2579.686,4369.247,2481.724,4401.554,2389.595z"/>
			<path id="_x31_80609266_1_" fill="#54BF94" stroke="#000000" d="M4025.714,1946.397c-3.544,0.273-7.016,0.445-10.437,0.55
				c-35.458,1.099-64.682-5.293-96.73,11.386c-3.678,1.913-7.418,3.793-11.206,5.656l0.894,3.08
				c11.852,44.906,11.208,89.032,4.157,134.498c-13.045,84.133-20.159,170.288-50.391,250.122
				c-44.417,117.29-62.943,241.017-135.695,345.372c-17.665,25.337-39.521,44.901-52.672,72.792l-3.305,1.633
				c-0.279,8.509-1.566,17.03-3.926,25.16c-2.551,8.789-6.344,17.118-11.472,24.469c-15.493,22.228-14.673,10.768,0.215,34.213
				c44.112,69.449,126.829,110.969,208.54,138.63c16.02-67.971,58.548-153.973,64.547-172.627
				c25.744-80.028,43.775-162.652,77.114-240.102c30.054-69.803,43.714-144.052,61.038-217.711
				c13.345-56.739,10.154-114.136,26.142-170.282c22.59-79.356,39.555-162.246,43.702-245.278
				C4099.391,1947.654,4062.525,1943.565,4025.714,1946.397z"/>
			<path id="_x31_80609265_1_" fill="#54BF94" stroke="#000000" d="M3908.234,1967.069l-0.894-3.079
				c-8.417,4.14-17.063,8.192-25.755,12.312c-30.648,14.524-61.849,29.885-85.453,52.915
				c-52.848,51.547-78.009,132.85-103.719,200.279c-28.84,75.653-51.035,154.223-60.393,234.809
				c-6.168,53.218-11.217,110.983-3.305,164.25c3.845,25.919,15.318,49.878,24.806,74.044c1.284,3.269,2.582,6.566,3.862,9.893
				c3.787,9.828,7.407,19.896,9.963,30.149c2.287,9.17,3.308,18.998,2.983,28.848l3.305-1.634
				c13.151-27.891,35.006-47.456,52.673-72.791c72.751-104.356,91.278-228.083,135.694-345.373
				c30.232-79.832,37.345-165.99,50.391-250.121C3919.442,2056.102,3920.086,2011.976,3908.234,1967.069z"/>
			<path id="_x31_80609267_1_" fill="#54BF94" stroke="#000000" d="M4212.071,1947.35c-9.172,127.272-21.454,253.263-51.547,378.757
				c-11.285,47.023-24.118,93.667-38.148,139.95c-18.729,61.785-33.28,124.724-50.891,186.822
				c-21.084,74.343-30.137,152.716-51.688,226.344c-7.24,24.735-29.475,92.365-59.854,142.516
				c31.744,8.164,63.395,16.745,94.548,26.978c19.438,6.387,77.601,28.472,98.621,37.252
				c11.161-39.931,24.066-81.991,34.786-123.432c25.405-98.206,48.64-197.583,80.044-290.388
				c31.299-92.464,101.306-190.427,133.611-282.555c12.997-37.063,22.754-74.814,32.979-114.068
				c12.387-47.543,23.118-82.309,32.311-122.703c12.243-53.8,12.243-53.8,20.96-113.556c2.228-15.264,4.221-78.069,4.104-93.773
				C4434.738,1945.858,4303.629,1946.672,4212.071,1947.35z"/>
			<path id="_x31_80609269_1_" fill="#CCCCCC" stroke="#000000" d="M4145.693,1542.7c49.087,26.156,54.499,88.902,60.196,139.099
				c5.619,49.366,17.914,93.042,14.563,142.231c-11.487,169.438-20.15,336.19-59.929,502.076
				c-11.285,47.023-24.118,93.667-38.148,139.95c-18.729,61.785-33.28,124.724-50.891,186.822
				c-21.084,74.343-30.137,152.716-51.688,226.344c-12.425,42.446-68.992,211.198-135.131,201.193
				c-76.945-11.703,33.613-228.13,43.567-259.086c25.743-80.027,43.775-162.652,77.114-240.102
				c30.053-69.803,43.714-144.052,61.039-217.711c13.345-56.739,10.154-114.137,26.141-170.281
				c37.54-131.872,59.569-273.496,33-409.324c-24.953-127.556-156.202-83.771-241.557-53.51
				c-99.246,35.188-172.89,21.328-274.329,11.184c-30.327-3.032-59.53-13.688-85.926-28.739
				c-11.771-6.708-53.782-61.018-60.164-23.753c-7.316,42.763,7.584,95.521,24.349,134.556
				c17.867,41.582,39.771,80.927,73.094,112.422c30.909,29.21,70.322,46.183,111.615,54.627
				c55.792,11.416,124.078-5.739,178.589-36.439c37.776-21.27,69.729-45.591,113.159-64.514
				c34.469-15.011,31.381,9.299,7.888,31.167c-37.327,34.747-84.932,52.165-129.002,75.437
				c-93.399,49.33-118.656,148.751-150.83,233.146c-28.84,75.654-51.035,154.224-60.393,234.81
				c-6.168,53.218-11.217,110.983-3.304,164.25c6.115,41.178,30.265,74.166,39.496,113.924
				c20.818,89.674-76.067,171.526-131.533,72.7c-17.997-32.071-26.778-68.551-26.246-105.263
				c0.355-24.085,7.732-47.107,14.886-69.864c7.063-22.475,12.811-45.569,22.14-67.242c4.479-10.378,10.691-20.783,13.715-31.708
				c6.245-22.549,7.385-45.664,7.104-68.968c-0.927-75.728,15.365-149.268,46.427-218.028
				c16.657-36.855,56.359-88.001,54.425-129.021c-1.311-27.524-26.462-40.399-47.048-54.012
				c-32.252-21.34-61.351-45.845-92.331-68.832l-29.949-20.345c-123.559-46.718-57.735-203.333-91.107-301.964
				c-15.946-47.109-8.829-92.701,47.782-99.373c55.892-6.575,105.322,33.004,149.871,59.755
				c48.56,29.163,103.948,35.461,159.499,29.106c118.464-13.555,204.792-135.801,321.607-138.583
				C4111.495,1530.275,4130.542,1534.629,4145.693,1542.7z"/>
			<path id="_x31_80609270_1_" fill="#CCCCCC" stroke="#000000" d="M3747.37,1155.036c-33.311-13.675-73.39-27.127-107.724-35.152
				c-46.808-10.946-94.323-18.974-142.113-24.14c-41.648-4.5-84.964-4.364-135.712-1.892c-19.377,0.951-52.846,13.202-29.21,37.114
				c25.61,25.908,64.891,26.168,98.429,26.78c43.332,0.793,86.587,3.11,129.853,5.402c24.36,1.287,48.793,3.096,73.173,4.487
				c27.421,1.557,55.269,5.193,82.388,9.45c9.061,1.417,52.782,4.63,37.635-16.035
				C3752.4,1158.759,3750.348,1156.26,3747.37,1155.036z"/>
			<path id="_x31_80609271_1_" fill="#CCCCCC" stroke="#000000" d="M3265.377,1102.487c-46.854,8.451-86.445,19.949-114.006,27.903
				c-27.951,8.073-55.321,18.02-81.978,29.689c-168.72,73.895-272.843,278.704-335.388,442.828
				c-66.442,174.342-91.151,366.727-104.667,551.702c-16.234,222.146-50.23,436.279-11.49,658.487
				c26.361,151.183,47.914,304.67,97.269,450.578c104.88,310.053,392.361,459.673,691.988,443.887
				c-61.203-2.53-118.664-20.31-164.158-62.557c-60.204-55.913-112.275-128.319-142.004-204.497
				c-27.202-69.704-90.074-132.863-149.048-178.058c-37.692-28.883-76.915-63.425-111.41-96.031
				c-122.836-116.147-129.427-352.154-142.722-508.538c-28.229-332.271-43.043-667.947,26.778-996.334
				c40.933-192.513,135.26-323.768,322.347-395.782c19.813-7.625,61.653-28.592,78.265-22.68
				c12.039-7.765,24.34-15.199,35.864-23.344C3200.547,1191.803,3245.893,1150.802,3265.377,1102.487z"/>
			<path id="_x31_80609268_1_" fill="#AAAAAA" stroke="#000000" d="M3520.153,2175.602c-12.224-45.864-32.604-89.293-41.068-136.688
				c-8.457-47.334,5.451-70.228,50.666-36.673c30.98,22.987,60.08,47.492,92.332,68.832c20.585,13.611,45.736,26.487,47.047,54.012
				c1.935,41.02-37.766,92.164-54.424,129.021c-31.063,68.761-47.354,142.302-46.428,218.028c0.281,23.304-0.857,46.42-7.103,68.968
				c-2.75,9.938-28.234,57.658-22.926,64.967c-13.757-18.934-14.333-48.823-17.584-71.102
				c-15.104-103.261,15.443-203.248,8.78-305.815C3528.252,2210.715,3524.792,2192.98,3520.153,2175.602z"/>
		</g>
	</g>
</g>
</svg>
