<?xml version="1.0" encoding="utf-8"?>
<!-- Generator: Adobe Illustrator 16.0.0, SVG Export Plug-In . SVG Version: 6.00 Build 0)  -->
<!DOCTYPE svg PUBLIC "-//W3C//DTD SVG 1.1//EN" "http://www.w3.org/Graphics/SVG/1.1/DTD/svg11.dtd">
<svg version="1.1" id="Layer_1" xmlns="http://www.w3.org/2000/svg" xmlns:xlink="http://www.w3.org/1999/xlink" x="0px" y="0px"
	 width="7392px" height="6336px" viewBox="0 0 7392 6336" enable-background="new 0 0 7392 6336" xml:space="preserve">
<g>
	<g transform="scale(1.0)">
		<g id="_x31_80610952" transform=" scale(1.0, 1.0)">
			<path id="_x31_80610954" fill="#BFDAE3" stroke="#000000" d="M3696.914,1713.715c3.891-300.951-14.162-325.512,110.695-543.065
				c192.139-334.754,565.084-496.072,828.303-462.891c271.205,34.189,632.463,111.472,933.758,276.836
				c297.192,163.11,601.11,395.483,823.05,758.945c230.057,376.746,303.059,672.771,285.598,944.703
				c-18.322,285.378-27.613,365.729-105.119,648.349c-50.006,182.339-210.52,525.279-365.564,645.636
				c-160.662,124.716-644.483-266.844-634.517-218.721c2.926,14.141,53.564,40.116,83.133,58.162
				c138.373,84.462,473.749,207.055,476.616,307.42c4.674,163.841-36.205,353.097-166.111,509.83
				c-144.911,174.835-376.968,356.028-551.47,505.66c-51.693,44.331-127.178,117.889-185.354,163.618
				c-263.979,207.517-500.969,343.448-770.15,320.19c-329.801-28.501-639.221-324.905-723.314-770.046
				c-4.711-24.956-37.406-54.975-37.414-80.341c-0.021-78.271,1.908-158.744,0.625-238.271c-1.404-87.276-0.045-173.86-0.063-265.29
				c-0.006-16.057-0.057-220.263,0.607-264.646c0.549-37.144,0.148-75.627,4.234-112.704c5.434-49.323,11.383-91.364,17.24-137.159
				c7.182-56.195,15.904-113.731,14.463-170.542c-1.18-46.438-38.131-151.179-38.162-277.731
				c-0.043-175.926-0.779-333.851-0.822-509.098c-0.045-194.023-1.49-455.764-0.164-673.255
				C3697.389,2067.829,3694.668,1888.058,3696.914,1713.715z"/>
			<path id="_x31_80610955" fill="#B0FFB8" stroke="#000000" d="M6392.722,1743.515
				c-221.953-363.451-525.867-595.825-823.05-758.929c-301.293-165.364-662.559-242.643-933.756-276.831
				c-263.223-33.184-636.162,128.133-828.303,462.889c-124.854,217.548-106.807,242.109-110.693,543.059
				c-2.25,174.336,0.477,354.106,0.107,415.578c-1.334,217.488,0.117,479.224,0.174,673.249
				c0.035,175.24,0.768,333.165,0.803,509.089c0.039,126.55,36.984,231.287,38.16,277.725
				c1.439,56.811-7.279,114.346-14.455,170.536c-5.859,45.802-9.51,91.619-17.119,137.158c-6.146,36.796-3.805,75.563-4.359,112.706
				c-0.65,44.385-0.604,248.581-0.6,264.64c0.014,91.426-1.346,178.008,0.059,265.283c1.283,79.529-0.658,160.001-0.635,238.271
				c0.002,25.366,32.707,55.383,37.414,80.337c84.105,445.137,393.527,741.537,723.316,770.04
				c269.182,23.25,506.174-112.68,770.15-320.191c58.172-45.729,133.117-120.074,185.422-163.673
				c174.504-145.441,406.484-330.766,551.396-505.599c129.904-156.729,170.785-345.983,166.115-509.824
				c-2.871-100.36-338.243-222.948-476.616-307.409c-29.566-18.043-80.207-44.021-83.131-58.165
				c-9.975-48.121,473.847,343.435,634.509,218.719c155.045-120.35,315.563-463.292,365.559-645.625
				c77.51-282.616,86.801-362.966,105.121-648.335C6695.772,2416.275,6622.769,2120.257,6392.722,1743.515z M4659.902,4177.322
				c-4.299,11.635-13.568,25.455-25.217,31.035c-38.049,18.231-73.33-84.553-81.893-105.781
				c-5.377-13.302-28.029-48.202-34.346-75.39c-4.344-18.803-0.887-33.903,21.494-35.647c19.025-1.485,35.08,8.163,51.904,15.336
				c47.041,20.046,71.436,66.428,73.91,116.291C4666.596,4139.923,4665.785,4161.424,4659.902,4177.322z"/>
			<path id="_x31_80610986" fill="#1F9D5A" stroke="#000000" d="M5660.357,1200.802l74.277-118.295
				c241.747,155.618,477.104,364.767,658.038,661.032c230.082,376.711,303.129,672.754,285.658,944.635
				c-18.383,285.426-27.672,365.719-105.152,648.335c-16.527,60.181-45.018,137.821-81.402,219.2l-3.742-1.661l-181.313-140.423
				c2.984-28.013,8.799-55.608,20.428-82.455c53.58-123.857,98.434-248.959,133.643-379.961
				c61.287-228.003,71.285-462.896,1.66-690.285c-71.701-233.955-202.176-474.382-336.457-675.24
				C6082.343,1520.364,5923.628,1343.282,5660.357,1200.802z"/>
			<path id="_x31_80610985" fill="#1F9D5A" stroke="#000000" d="M6306.722,3413.625l-372.854-288.738
				c80.018-103.833,93.936-290.434,95.395-433.727c2.113-195.575-47.066-419.729-155.238-581.781
				c-138.19-207.01-305.872-341.866-494.911-460.011l281.242-448.565c263.271,142.479,421.985,319.562,465.638,384.88
				c134.283,200.86,264.758,441.287,336.459,675.24c69.625,227.392,59.627,462.282-1.66,690.286
				c-35.209,131-80.063,256.104-133.643,379.962C6315.521,3358.018,6309.706,3385.613,6306.722,3413.625z"/>
			<path id="_x31_80610984" fill="#1F9D5A" stroke="#000000" d="M5874.026,2109.381
				c108.176,162.052,157.354,386.205,155.238,581.779c-1.461,143.294-15.379,329.896-95.395,433.728l-872.569-675.692
				c82.773-53.632,86.41-136.581,39.76-220.518c-12.389-22.272-27.855-43.547-45.232-63.822l323.285-515.486
				C5568.154,1767.515,5735.836,1902.371,5874.026,2109.381z"/>
			<path id="_x31_80610983" fill="#1F9D5A" stroke="#000000" d="M5101.061,2228.677c46.648,83.937,43.014,166.887-39.76,220.518
				l-123.703-95.803l118.234-188.538C5073.205,2185.131,5088.672,2206.405,5101.061,2228.677z"/>
			<path id="_x31_80610990" fill="#1F9D5A" stroke="#000000" d="M3959.129,1298.798l-118.984-179.42l-0.584-0.415
				c199.328-299.602,547.057-442.647,796.336-411.208c271.221,34.178,632.471,111.471,933.729,276.8
				c54.949,30.158,110.146,62.727,165.01,97.954l-74.277,118.296c-51.373-27.917-106.734-54.416-166.006-78.505
				c-189.027-76.919-383.291-140.54-576.389-205.906c-211.219-71.594-619.734-32.929-779.109,139.913
				C4075.619,1124.807,4010.975,1207.938,3959.129,1298.798z"/>
			<path id="_x31_80610989" fill="#1F9D5A" stroke="#000000" d="M5660.357,1200.802l-281.242,448.564
				c-109.232-68.461-225.613-131.269-347.563-199.227c-213.891-119.221-344.4-164.237-470.996-199.365
				c-176.969-49.078-286.418,23.674-351.873,188.512c-19.771,49.876-36.881,99.665-52.408,156.689l-197.146-297.179
				c51.844-90.859,116.488-173.991,179.727-242.494c159.373-172.84,567.891-211.506,779.109-139.912
				c193.098,65.364,387.361,128.985,576.387,205.904C5553.623,1146.387,5608.986,1172.888,5660.357,1200.802z"/>
			<path id="_x31_80610988" fill="#1F9D5A" stroke="#000000" d="M4422.932,1998.111l-266.654-402.135
				c15.527-57.022,32.637-106.814,52.408-156.688c65.455-164.838,174.904-237.59,351.875-188.513
				c126.596,35.128,257.105,80.145,470.994,199.364c121.949,67.96,238.332,130.767,347.563,199.229l-323.285,515.484
				c-60.443-70.303-144.574-128.711-208.254-178.15c-123.871-96.219-304.24-123.437-415.008,0.02
				c-1.492,1.662-2.988,3.408-4.488,5.155C4426.338,1993.953,4424.594,1996.033,4422.932,1998.111z"/>
			<path id="_x31_80610987" fill="#1F9D5A" stroke="#000000" d="M4641.859,2328.113l-218.93-330.003
				c1.664-2.078,3.408-4.157,5.152-6.234c1.496-1.746,2.99-3.491,4.486-5.154c110.766-123.455,291.137-96.239,415.008-0.019
				c63.68,49.438,147.811,107.849,208.254,178.149l-118.232,188.537c0,0-171.814-49.827-282.605-33.177l-8.727,8.729l-2.328,2.246
				L4641.859,2328.113z"/>
			<path id="_x31_80610994" fill="#40A666" stroke="#000000" d="M3827.67,1772.68l-128.686-88.074h-1.748
				c2.512-273.704-10.297-303.623,110.34-513.937c10.137-17.706,20.857-34.997,31.986-51.706l0.584,0.415l118.986,179.419
				c-31.654,55.614-58.568,114.053-77.342,173.816c-25.082,79.882-27.639,157.929-44.242,243.794
				C3833.895,1735.107,3830.656,1753.893,3827.67,1772.68z"/>
			<path id="_x31_80610993" fill="#40A666" stroke="#000000" d="M3959.129,1298.798l197.146,297.179
				c-24.834,90.603-45.752,199.407-67.656,355.257l-260.949-178.553c2.986-18.787,6.225-37.571,9.877-56.272
				c16.604-85.865,19.162-163.912,44.242-243.794C3900.561,1412.848,3927.477,1354.411,3959.129,1298.798z"/>
			<path id="_x31_80610992" fill="#40A666" stroke="#000000" d="M4156.273,1595.976l266.654,402.135
				c-32.74,39.488-58.658,82.467-79.098,127.771l-255.213-174.648C4110.525,1795.383,4131.443,1686.578,4156.273,1595.976z"/>
			<path id="_x31_80610991" fill="#40A666" stroke="#000000" d="M4641.859,2328.113l-0.246,1.578l-297.781-203.811
				c20.439-45.303,46.359-88.283,79.1-127.771L4641.859,2328.113z"/>
			<path id="_x31_80610997" fill="#2FA850" stroke="#000000" d="M3827.67,1772.68c-42.242,264.901-24.887,534.528-24.74,802.83
				c0.008,30.42,0.016,60.839-0.061,91.179l-105.883,42.248c-0.211-179.615-1.094-395.47,0.027-579.656
				c0.398-61.507-2.389-241.204-0.104-415.585c0.164-9.974,0.242-19.698,0.324-29.09h1.744L3827.67,1772.68z"/>
			<path id="_x31_80611007" fill="#2FA850" stroke="#000000" d="M3936.406,1847.081l-108.736-74.401
				c-42.242,264.901-24.887,534.528-24.74,802.83c0.008,30.42,0.016,60.839-0.061,91.179l108.637-43.31
				C3904.439,2365.288,3907.166,2104.032,3936.406,1847.081z"/>
			<path id="_x31_80611008" fill="#2FA850" stroke="#000000" d="M4038.816,2572.625c9.926-204.303,19.852-406.775,48.145-609.672
				c0.58-3.991,1.076-7.896,1.656-11.72l-152.211-104.151c-29.242,256.951-31.969,518.208-24.902,776.297L4038.816,2572.625z"/>
			<path id="_x31_80610996" fill="#2FA850" stroke="#000000" d="M4088.619,1951.231l255.213,174.65
				c-49.51,109.476-67.1,232.66-70.148,353.013l-234.867,93.731c9.926-204.302,19.852-406.775,48.145-609.671
				C4087.541,1958.962,4088.039,1955.055,4088.619,1951.231z"/>
			<path id="_x31_80610995" fill="#2FA850" stroke="#000000" d="M4641.613,2329.693l-0.336,2.66l-367.59,146.541
				c3.045-120.353,20.637-243.536,70.148-353.013L4641.613,2329.693z"/>
			<path id="_x31_80611003" fill="#59B363" stroke="#000000" d="M3835.191,3637.149c-48.035,32.845-38.061,30.847-108.697,85.887
				c5.725-44.385,10.783-89.27,9.691-133.652c-1.174-46.465-38.188-151.183-38.219-277.766c-0.006-14.63-0.008-29.178-0.01-43.641
				l1.412-0.002l96.977-96.105c-0.984,65.497,4.6,130.325,32.873,186.922c42.912,86.184,136.023,171.105,229.621,200.09
				l-2.406,11.554C3972.146,3554.499,3914.139,3583.104,3835.191,3637.149z"/>
			<path id="_x31_80611011" fill="#59B363" stroke="#000000" d="M4201.438,3572.157c-40.055-22.769-79.121-52.722-113.715-83.137
				c-127.502-112.091-159.006-274.365-167.041-440.469l-124.338,123.319c-0.982,65.497,4.602,130.326,32.875,186.922
				c42.908,86.184,136.021,171.104,229.621,200.089l-2.406,11.555c14.877,2.822,30.672,7.056,47.545,12.788
				c20.119,6.893,41.146,12.125,62.176,15.611c29.262,4.852,59.113,7.195,88.863,6.941
				C4241.125,3591.54,4222.16,3583.936,4201.438,3572.157z"/>
			<path id="_x31_80611012" fill="#59B363" stroke="#000000" d="M4519.418,2968.558c-59.418,48.057-76.275,108.817-149.58,138.591
				c-97.902,39.753-208.533,40.114-276.043-42.569c-30.182-36.979-47.979-81.776-57.881-130.313l-115.232,114.285
				c8.035,166.103,39.541,328.378,167.039,440.469c34.596,30.414,73.66,60.368,113.717,83.137
				c20.723,11.778,39.688,19.383,53.578,33.621c11.994-0.101,23.979-0.611,35.898-1.571c19.951-1.666,40.313-3.917,60.428-7.411
				c22.275-3.827,45.543-6.411,65.076-17.054l1.248-0.415l29.838-10.23c0,0,16.535-9.063,33.99-19.957l79.563-605.774
				C4545.514,2950.516,4531.467,2958.83,4519.418,2968.558z"/>
			<path id="_x31_80611002" fill="#59B363" stroke="#000000" d="M4609.006,2577.889l-47.953,365.477
				c-15.539,7.15-29.586,15.465-41.635,25.192c-59.418,48.057-76.275,108.817-149.58,138.591
				c-97.902,39.753-208.533,40.114-276.043-42.569c-30.182-36.979-47.979-81.776-57.881-130.313l241.977-240.019
				c10.84,129.409,45.783,266.544,157.053,164.699c54.096-49.468,52.666-128.096,89.221-187.536
				C4544.521,2638.413,4575.434,2605.656,4609.006,2577.889z"/>
			<path id="_x31_80611001" fill="#59B363" stroke="#000000" d="M4277.893,2694.25l363.139-360.234l-32.025,243.874
				c-33.572,27.769-64.484,60.524-84.842,93.524c-36.557,59.438-35.123,138.067-89.223,187.535
				C4323.674,2960.794,4288.73,2823.659,4277.893,2694.25z"/>
			<path id="_x31_80610978" fill="#248A5E" stroke="#000000" d="M5272.043,3630.149
				c-100.586-56.911-204.416-115.648-309.238-166.987l2.742-5.737l-47.088-166.305c71.486,26.746,139.984,63.219,191.277,88.391
				c150.293,73.768,280.391,149.125,407.838,260.302c67.59,58.996,141.164,120.486,219.223,172.581l30.518,55.765
				c-112.471-65.47-198.432-125.29-194.189-104.682c2.914,14.132,53.539,40.136,83.133,58.162
				c-32.834-18.611-65.84-36.472-100.17-52.836C5460.244,3723.276,5364.65,3682.575,5272.043,3630.149z"/>
			<path id="_x31_80610977" fill="#248A5E" stroke="#000000" d="M4918.461,3291.119l-111.141-392.863
				c10.723-0.669,21.029-1.254,30.67-1.838c165.154-10.264,317.525,54.281,466.99,127.719l431.822,788.257
				c-78.061-52.096-151.633-113.584-219.223-172.58c-127.447-111.179-257.545-186.535-407.838-260.306
				C5058.447,3354.338,4989.949,3317.866,4918.461,3291.119z"/>
			<path id="_x31_80610976" fill="#248A5E" stroke="#000000" d="M5004.373,2475.308l300.605,548.829
				c-149.465-73.438-301.834-137.983-466.99-127.719c-9.641,0.584-19.945,1.169-30.67,1.838l-107.314-379.235
				C4794.668,2478.269,4907.881,2504.588,5004.373,2475.308z"/>
			<path id="_x31_80610975" fill="#248A5E" stroke="#000000" d="M4654.99,2320.215c110.791-16.65,282.605,33.177,282.605,33.177
				l66.777,121.916c-96.494,29.28-209.705,2.961-304.367,43.711l-53.74-190.075L4654.99,2320.215z"/>
			<path id="_x31_80611000" fill="#248A5E" stroke="#000000" d="M3802.371,3007.3c0.014,52.196-5.379,108.636-6.027,164.57
				l-96.975,96.105l-1.41,0.002c-0.125-158.752-0.742-304.87-0.781-465.452c-0.006-29.758-0.014-61.09-0.189-93.59l105.881-42.249
				C3802.813,2780.225,3802.342,2893.762,3802.371,3007.3z"/>
			<path id="_x31_80611009" fill="#248A5E" stroke="#000000" d="M3915.912,2755.686c-1.701-43.984-3.197-88.098-4.406-132.306
				l-108.637,43.31c-0.057,113.537-0.527,227.074-0.498,340.612c0.012,52.196-5.379,108.636-6.027,164.571l124.338-123.32
				C3915.865,2948.977,3919.484,2848.025,3915.912,2755.686z"/>
			<path id="_x31_80611010" fill="#248A5E" stroke="#000000" d="M3915.912,2755.686c3.57,92.34-0.047,193.292,4.77,292.868
				l115.232-114.285c-24.133-117.271-2.225-256.662,2.904-361.392c0-0.082,0-0.166,0-0.248l-127.313,50.753
				C3912.719,2667.586,3914.213,2711.701,3915.912,2755.686z"/>
			<path id="_x31_80610999" fill="#248A5E" stroke="#000000" d="M4277.893,2694.25l-241.979,240.019
				c-24.133-117.271-2.225-256.662,2.904-361.392c0-0.082,0-0.166,0-0.248l234.867-93.733c-0.412,16.208-0.574,32.419-0.486,48.458
				C4273.287,2551.456,4271.809,2621.605,4277.893,2694.25z"/>
			<path id="_x31_80610998" fill="#248A5E" stroke="#000000" d="M4641.277,2332.353l-0.246,1.662l-363.139,360.233
				c-6.084-72.643-4.605-142.793-4.695-166.897c-0.086-16.041,0.076-32.249,0.49-48.46L4641.277,2332.353z"/>
			<path id="_x31_80610974" fill="#248A5E" stroke="#000000" d="M4897.135,3432.009c-94.016-42.866-191.93-43.423-279.275,6.051
				l-1.414-9.642c-9.906-65.161,1.547-136.895,67.871-160.846c68.396-24.787,153.266-6.852,234.146,23.548l47.088,166.306
				l-2.742,5.738C4940.943,3452.443,4919.08,3441.979,4897.135,3432.009z"/>
			<path id="_x31_80610973" fill="#248A5E" stroke="#000000" d="M4573.98,3467.909c-21.439,17.298-39.387,38.412-59.166,57.199
				c-7.563,7.151-20.607,16.046-33.324,24.029l79.563-605.774c70.061-32.182,169.715-40.186,246.266-45.109l111.141,392.866
				c-80.879-30.401-165.748-48.338-234.146-23.55c-66.324,23.952-77.777,95.688-67.871,160.847l1.414,9.643
				C4602.902,3446.542,4588.273,3456.438,4573.98,3467.909z"/>
			<path id="_x31_80610972" fill="#248A5E" stroke="#000000" d="M4700.006,2519.019l107.314,379.235
				c-76.551,4.922-176.205,12.927-246.266,45.109l47.953-365.476c23.352-19.371,48.035-36.334,71.303-49.223
				C4686.793,2525.09,4693.357,2521.846,4700.006,2519.019z"/>
			<path id="_x31_80610971" fill="#248A5E" stroke="#000000" d="M4646.266,2328.943l53.74,190.075
				c-6.648,2.827-13.213,6.071-19.697,9.646c-23.27,12.89-47.949,29.85-71.303,49.224l32.025-243.874l2.74-2.66l0.084-0.082
				l0.082-0.001v-0.084L4646.266,2328.943z"/>
			<path id="_x31_80610982" fill="#219866" stroke="#000000" d="M5896.155,3900.041c185.705,77.835,318.82-91.257,383.947-243.875
				c32.646-76.558,17.664-161.084,26.621-242.541l181.313,140.424l3.74,1.66c-73.932,165.172-180.281,345.81-284.158,426.459
				c-91.91,71.418-289.75-26.362-440.3-114.013l-30.52-55.764C5788.094,3846.792,5841.375,3877.114,5896.155,3900.041z"/>
			<path id="_x31_80610981" fill="#219866" stroke="#000000" d="M5736.799,3812.394l-431.824-788.257
				c131.426,64.465,260.521,135.833,394.188,169.212c111.467,27.901,185.601-4.699,234.706-68.462l372.854,288.738
				c-8.955,81.457,6.027,165.983-26.621,242.541c-65.127,152.618-198.24,321.71-383.947,243.875
				C5841.375,3877.114,5788.094,3846.792,5736.799,3812.394z"/>
			<path id="_x31_80610980" fill="#219866" stroke="#000000" d="M5061.301,2449.194l872.569,675.692
				c-49.107,63.763-123.241,96.363-234.708,68.462c-133.66-33.38-262.76-104.747-394.186-169.212l-300.604-548.829
				c19.113-5.822,37.648-13.807,55.184-24.949C5060.139,2450.026,5060.721,2449.61,5061.301,2449.194z"/>
			<path id="_x31_80610979" fill="#219866" stroke="#000000" d="M5061.301,2449.194c-0.58,0.416-1.162,0.832-1.744,1.164
				c-17.535,11.143-36.068,19.126-55.184,24.949l-66.775-121.916L5061.301,2449.194z"/>
			<path id="_x31_80610956" fill="#9AD2BD" stroke="#000000" d="M5656.254,3821.615c-29.553-18.036-80.16-43.999-83.127-58.144
				c0,0.002,0,0.004,0,0.007c2.914,14.131,53.539,40.136,83.133,58.162c-32.834-18.61-65.84-36.472-100.17-52.836
				c-95.846-45.526-191.439-86.226-284.047-138.652c-100.588-56.91-204.416-115.647-309.24-166.988
				c-21.861-10.717-43.727-21.183-65.672-31.151c-94.016-42.865-191.93-43.423-279.273,6.052
				c-14.957,8.481-29.586,18.377-43.879,29.85c-21.439,17.296-39.387,38.41-59.166,57.197c-7.561,7.151-20.607,16.048-33.322,24.03
				c-17.451,10.892-33.992,19.956-33.992,19.956l-29.838,10.231l-1.246,0.413c-19.531,10.647-42.803,13.228-65.076,17.056
				c-20.115,3.495-40.477,5.744-60.428,7.409c-41.475,3.338-83.699,1.437-124.762-5.371c-21.027-3.485-42.059-8.718-62.174-15.611
				c-16.875-5.733-32.668-9.965-47.547-12.787c-84.287-15.938-142.295,12.667-221.244,66.712
				c-48.033,32.844-38.061,30.844-108.695,85.885c0.004-0.029,0.004-0.061,0.008-0.087c-1.59,12.359-3.229,24.676-4.793,36.93
				c-5.859,45.802-9.51,91.619-17.119,137.158c-6.146,36.797-3.805,75.563-4.357,112.704c-0.652,44.387-0.605,248.583-0.602,264.642
				c0.014,91.426-1.344,178.008,0.059,265.284c1.283,79.528-0.658,160-0.635,238.27c0.002,25.367,32.709,55.383,37.414,80.339
				c84.105,445.134,393.525,741.537,723.316,770.038c269.182,23.25,506.174-112.676,770.15-320.189
				c58.172-45.729,133.117-120.074,185.422-163.672c174.504-145.441,406.484-330.769,551.396-505.6
				c129.902-156.729,170.783-345.982,166.115-509.824C6129.997,4028.665,5794.625,3906.078,5656.254,3821.615z M4659.902,4177.322
				c-4.299,11.635-13.568,25.455-25.217,31.035c-38.049,18.231-73.33-84.553-81.893-105.781
				c-5.377-13.302-28.029-48.202-34.346-75.39c-4.344-18.803-0.887-33.903,21.494-35.647c19.025-1.485,35.08,8.163,51.904,15.336
				c47.041,20.046,71.436,66.428,73.91,116.291C4666.596,4139.923,4665.785,4161.424,4659.902,4177.322z"/>
			<path id="_x31_80610957" fill="#54BF94" stroke="#000000" d="M4589.508,4287.655c21.461-39.041,69.898-71.448,73.262-118.839
				c-30.156,76.596-64.715,25.264-71.928,15.243c-22.34-30.99-31.822-67.07-48.17-101.333c-7.012-14.7-16.871-31.021-21.004-46.826
				c-2.209-8.446-42.342-22.416-55.027-21.901c-19.715,0.801-40.721-0.587-60.053,3.759c-17.326,3.91-35.016,11.188-50.961,18.935
				c-32.463,15.775-62.357,36.177-93.451,54.372c-51.691,30.252-103.936,58.837-147.725,100.385
				c-66.564,63.167-110.754,144.07-174.018,209.604c-39.146,40.542-97.844,90.024-151.633,107.804
				c-78.504,25.971-85.363,4.438-88.402,88.341c-1.025,28.503,3.936,56.755,4.008,84.789c0.078,28.782-5.195,56.131-5.334,85.209
				c-0.141,28.621,12.594,37.484,22.857,62.402c6.25-23.145,38.887-50.237,56.18-66.806
				c51.367-49.229,107.494-94.688,163.178-139.01c52.568-41.849,157.971-103.146,226.639-67.609
				c116.383,60.231,248.785,230.371,276.457,371.882c12.662,64.769,8.775,143.377,28.443,205.706
				c30.334,96.152,16.459,167.849-18.699,262.644c-19.645,52.952-43.639,202.64-47.822,224.904
				c36.467,3.39,82.49,11.873,119.451,11.155c60.42-1.168,126.639-8.588,184.424-27.062c30.613-9.788,86.912-29.127,86.912-29.127
				c9.271-3.097-8.816-159.933-8.066-197.919c1.438-72.964,5.195-145.869,22.445-217.167
				c17.475-72.209,43.254-142.619,52.658-216.614c14.521-114.291-22.9-178.696-72.879-233.573l-84.109-108.387
				c-22.746,0.007-51.271-45.237-68.58-68.178C4582.264,4459.788,4539.914,4377.895,4589.508,4287.655z"/>
			<path id="_x31_80610960" fill="#54BF94" stroke="#000000" d="M4402.563,4670.358c30.342-27.641,54.881-63.773,77.504-97.681
				c20.643-30.945,34.814-64.999,59.631-93.297c35.564-40.555,31.5-44.545,28.217-99.424c-1.938-32.387,6.008-63.94,21.594-92.303
				c43.465-79.094-11.105-130.218-46.924-205.104c-7.01-14.651-16.807-30.91-20.922-46.647c-2.209-8.448-42.34-22.419-55.025-21.902
				c-19.717,0.8-40.723-0.588-60.055,3.756c-17.326,3.912-35.014,11.189-50.959,18.936c-32.463,15.776-62.357,36.178-93.453,54.373
				c-51.691,30.252-103.936,58.836-147.725,100.385c-65.625,62.274-109.516,141.78-171.361,206.811
				c-14.492,83.54-33.293,160.339-29.799,247.911c9.332-7.505,18.67-14.964,28-22.389c52.566-41.849,157.969-103.146,226.637-67.609
				c36.412,18.844,68.9,44.874,98.496,73.05C4322.496,4682.622,4330.762,4735.765,4402.563,4670.358z"/>
			<path id="_x31_80610961" fill="#54BF94" stroke="#000000" d="M4791.25,4711.002l-84.109-108.387
				c-22.746,0.007-51.271-45.237-68.58-68.178c-18.189-24.121-34.92-49-47.568-74.666c-45.795-22.871-94.012,87.555-110.928,112.912
				c-22.621,33.905-47.16,70.038-77.502,97.679c-21.285,19.388-45.99,29.4-51.736,56.847
				c45.602,63.951,80.762,135.455,93.553,200.85c12.664,64.769,8.777,143.377,28.445,205.706
				c11.785,37.365,16.896,71.037,16.678,103.809c33.303-19.103,76.252-35.869,108.096-52.263
				c31.244-16.088,58.055-15.375,92.156-23.28c84.797-19.665,117.549-94.895,163.578-157.849
				c4.475-19.676,8.242-39.509,10.795-59.603C4878.65,4830.282,4841.229,4765.88,4791.25,4711.002z"/>
			<path id="_x31_80610958" fill="#54BF94" stroke="#000000" d="M3940.43,4401.053c-39.146,40.542-97.844,90.024-151.633,107.804
				c-78.504,25.971-85.363,4.438-88.402,88.341c-1.025,28.503,3.936,56.755,4.008,84.789c0.078,28.782-4.533,57.446-4.662,86.527
				c-0.127,28.616,11.922,36.166,22.188,61.085c6.248-23.145,38.883-50.236,56.178-66.807
				c42.766-40.982,88.824-79.346,135.182-116.62c-3.494-87.575,15.305-164.374,29.799-247.91
				C3942.199,4399.188,3941.324,4400.127,3940.43,4401.053z"/>
			<path id="_x31_80610959" fill="#54BF94" stroke="#000000" d="M4689.756,5162.026c-34.102,7.905-60.912,7.192-92.156,23.278
				c-31.842,16.396-74.791,33.163-108.096,52.265c-0.344,51.558-13.883,100.88-35.377,158.835
				c-19.646,52.952-43.641,202.64-47.824,224.904c36.467,3.39,82.492,11.873,119.453,11.155
				c60.42-1.168,126.639-8.588,184.424-27.062c30.613-9.788,86.91-29.126,86.91-29.126c9.273-3.098-8.814-159.934-8.064-197.92
				c1.436-72.964,5.193-145.869,22.443-217.171c6.281-25.952,17.002-50.593,24.223-76.277c3.512-12.487,6.072-24.999,7.107-37.934
				c1.275-15.938-5.176-14.618-14.119-3.941c-7.48,8.933-15.613,19.336-21.326,29.64c-6.385,11.518-16.91,22.201-25.754,31.87
				C4756.336,5132.174,4726.752,5153.448,4689.756,5162.026z"/>
			<path id="_x31_80610970" fill="#62D09F" stroke="#000000" d="M3938.424,4201.063c-3.074-59.861-9.639-119.491-12.309-179.366
				c-5.07-113.702,1.885-234.196,75.174-327.25c39.162-49.729,99.998-62.788,146.979-99.015
				c-14.992-3.205-29.863-7.266-44.295-12.178c-111.893-38.06-175.787-9.673-268.76,53.88
				c-48.01,32.822-38.074,30.847-108.719,85.904c0,0-3.355,32.888-5.668,46.771c-13.824,82.752-21.893,164.419-21.268,248.297
				c0.715,93.509,0.738,186.324-0.359,277.49c-0.242,20.145,1.074,41.164,1.018,61.567c-0.074,23.881-0.48,47.768-0.096,71.658
				c0.215,12.719,0.408,25.434-0.146,38.149c-0.307,7.173-0.924,25.713-0.924,25.713c73.033,11.122,135.199-39.802,187.965-82.927
				c19.244-15.732,35.707-34.506,50.893-54.605C3933.846,4304.626,3941.043,4252.026,3938.424,4201.063z"/>
			<path id="_x31_80610969" fill="#62D09F" stroke="#000000" d="M4193.838,3822.46c26.582-75.155,116.848-139.851,59.744-216.671
				c-29.27,0.186-58.629-2.155-87.414-6.943c-5.973-0.99-11.945-2.143-17.9-3.414c-46.98,36.226-107.816,49.286-146.979,99.015
				c-73.287,93.058-80.246,213.551-75.174,327.251c2.67,59.876,9.234,119.507,12.309,179.365
				c2.619,50.964-4.578,103.563-0.516,154.089c17.924-23.722,34.066-49.292,50.883-73.886
				c49.703-72.706,117.139-123.838,188.051-171.363c1.035-39.041,0.229-78.268,3.414-117.089
				C4184.928,3935.94,4173.955,3878.682,4193.838,3822.46z"/>
			<path id="_x31_80610968" fill="#62D09F" stroke="#000000" d="M4468.305,3650.135c-10.74-17.911-38.797-77.566-51.871-70.414
				c-19.541,10.696-42.826,13.214-65.08,17.083c-20.119,3.507-40.459,5.752-60.447,7.371c-12.393,1.007-24.852,1.535-37.324,1.614
				c57.104,76.82-33.164,141.516-59.746,216.671c-19.883,56.222-8.91,113.48-13.582,170.354
				c-3.188,38.822-2.379,78.051-3.414,117.091c38.035-25.491,77.07-49.944,114.906-76.128
				c41.074-28.421,96.549-51.135,147.188-48.758c26.4,1.247,55.469,5.59,80.408,14.815c13.551-13.553,36.842-9.903,45.875-4.122
				c16.449-23.997,9.773-15.099,18.836-19.862c9.281-4.883,20.086-6.091,30.381-6.761c27.432-1.79,57.75,13.024,59.531-22.905
				c1.236-24.959-46.973-75.172-60.979-94.545C4564.639,3784.76,4510.842,3721.04,4468.305,3650.135z"/>
			<path id="_x31_80610967" fill="#62D09F" stroke="#000000" d="M4453.467,5213.392c-42.627,61.169-104.951,99.074-183.961,96.783
				c-59.047-1.732-115.969-34.365-159.854-71.689c-84.162-71.593-125.68-180.445-148.619-286.068
				c-18.779-86.489-36.877-173.621-44.736-261.883c-75.771,62.884-160.881,140.676-178.955,169.487
				c12.578,72.638,53.133,194.117,71.605,235.357c44.521,99.396,95.574,197.238,171.32,277.56
				c48.799,51.746,102.18,99.363,161.154,139.25c29.902,20.225,63.014,39.171,95.6,54.934
				c16.182,7.829,96.424,38.248,137.922,47.869c2.625-72.51,59.102-244.59,64.316-261.729
				C4454.828,5302.073,4457.248,5257.128,4453.467,5213.392z"/>
			<path id="_x31_80610966" fill="#62D09F" stroke="#000000" d="M4109.652,5238.485c43.885,37.328,100.807,69.957,159.854,71.689
				c79.008,2.291,141.334-35.614,183.961-96.783c-5.619-65.031-24.961-127.396-35.244-203.638
				c-0.799-5.897-1.574-11.729-2.348-17.515c-25.666-6.045-57.311,18.065-68.873,36.595c-16.336,26.171-16.717,66.939-42.443,86.365
				c-87.381,65.976-205.143-87.429-207.387-165.098c-1.752-60.135,38.799-107.09,58.162-161.058
				c25-69.675,3.947-131.428,4.879-199.32c-41.986-14.025-86.404-10.81-134.178,17.558c-22.26,13.221-64.32,45.557-109.738,83.253
				c7.857,88.262,25.955,175.392,44.736,261.881C3983.973,5058.038,4025.49,5166.893,4109.652,5238.485z"/>
			<path id="_x31_80610965" fill="#62D09F" stroke="#000000" d="M4155.334,4789.042c-19.363,53.968-59.914,100.923-58.162,161.06
				c2.244,77.667,120.006,231.073,207.387,165.096c25.727-19.424,26.107-60.192,42.443-86.365
				c11.563-18.529,43.205-42.64,68.873-36.595c-8.898-66.577-17.5-126.326-52.746-189.184
				c-30.041-53.593-159.205-194.471-184.666-206.115c-6.033-2.758-12.115-5.169-18.25-7.217
				C4159.281,4657.616,4180.334,4719.367,4155.334,4789.042z"/>
			<path id="_x31_80610964" fill="#6ACBBA" stroke="#000000" d="M4891.715,5012.613c13.277-5.413,21.982,4.962,33.184,10.582
				c10.889,5.46,25.354,10.507,37.473,12.043c28.648,3.636,56.553-5.476,82.557-16.625c22.754-9.759,42.221-26.27,62.609-39.879
				c11.664-7.786,21.818-18.063,32.193-27.646c13.281-12.271,26.146-24.982,39.074-37.625
				c28.668-28.043,41.211-58.203,61.463-90.343c24.523-38.926,59.266-68.073,73.557-113.62
				c20.986-66.946,22.223-109.3,67.588-166.604c35.732-45.14,82.244-80.72,131.953-109.213
				c38.533-22.093,79.553-40.28,120.348-55.925c110.354-42.315,249.233-54.97,251.534-206.563
				c1.299-85.967-65.19-151.387-131.739-195.864c-113.215-75.664-247.789-118.771-375.525-162.725
				c-132.242-45.514-265.66-88.693-393.908-144.821c-78.668-34.431-152.676-75.944-226.773-119.066
				c-11.006-6.406-22.402-12.93-33.807-18.639c-25.578-12.801-53.518-19.768-80.332-29.373
				c-19.145-6.859-64.754-20.594-49.023-41.888c6.387-8.646,44.805-32.355,55.313-36.286c21.58-8.077,68.432-22.76,97.74-21.905
				c41.115,1.198,87.846,3.14,149.955,31.435c127.049,57.87,253.41,129.271,374.896,198.08
				c92.584,52.438,188.209,93.109,284.014,138.632c50.35,23.926,97.744,51.308,145.992,79.213
				c76.107,44.125,156.073,79.164,236.739,117.974c51.666,24.909,116.881,63.905,159.561,102.3
				c15.371,13.833,28.818,33.014,33.82,53.285c3.826,15.566,0.223,35.024,0.775,51.292c1.17,34.244-4.217,66.432-8.732,100.22
				c-7.365,55.096-20.598,112.291-40.451,164.223c-6.365,16.638-12.857,32.377-19.635,47.454l-12.127,10.301
				c-45.188,58.434-141.594,37.755-200.24,67.895c-38.79,19.934-71.401,50.374-106.022,76.52
				c-83.348,62.925-161.996,131.624-239.553,201.779c-59.992,54.25-150.951,173.199-196.658,239.711
				c-56.955,82.923-63.227,203.638-138.398,268.385l1.758,2.393c-60.848,45.178-123.16,87.42-188.938,129.12
				c-60.895,38.604-101.254,13.271-130.684-50.177c-20.898-45.062-27.799-97.966-23.92-147.376
				c6.24-79.512,14.305-115.718,26.85-171.049c5.803-25.576,4-68.048,21.693-88.72
				C4882.717,5017.863,4887.275,5014.424,4891.715,5012.613z"/>
			<path id="_x31_80610963" fill="#6ACBBA" stroke="#000000" d="M4878.861,4971.269c1.639-9.145,3.07-18.334,4.246-27.58
				c2.309-18.158,13.418-31.857,29.523-38.632c16.594-6.982,32.445-18.147,46.861-28.807c29.131-21.542,55.465-49.14,71.016-82.192
				c8.547-18.17,13.689-37.829,14.08-57.955c1.547-79.358,20.053-171.223,55.432-242.336c22.758-45.699,36.768-93.09,56.449-139.908
				c18.199-43.264,40.02-60.875,86.094-64.496c63.375-4.982,309.469-110.594,259.916-203.32
				c-20.381-38.122-93.625-55.651-131.455-69.4c-75.016-27.247-154.637-36.261-230.797-59.064
				c-78.85-23.6-136.84-65.837-203.523-111.526c-68.947-47.238-138.695-95.186-202.902-148.14
				c-31.871-26.283-56.252-60.32-87.99-86.721c-36.895-30.694-83.18-57.438-110.135-98.222
				c-6.758-10.216-10.391-21.521-11.684-33.669c-0.59-5.527,3.459-32.295,14.217-23.702l3.389,1.18
				c67.271,40.545,147.813,52.422,215.699,91.934c74.094,43.123,148.105,84.638,226.773,119.066
				c128.252,56.128,261.666,99.308,393.908,144.822c127.729,43.95,262.309,87.06,375.525,162.723
				c66.553,44.479,133.038,109.898,131.739,195.865c-2.303,151.594-141.179,164.247-251.534,206.563
				c-40.791,15.646-81.814,33.833-120.348,55.926c-49.711,28.493-96.221,64.074-131.955,109.214
				c-45.363,57.302-46.6,99.657-67.586,166.604c-14.291,45.548-49.031,74.693-73.557,113.62
				c-20.252,32.138-32.795,62.301-61.465,90.341c-81.217,79.406-205.955,190.086-301.207,69.231L4878.861,4971.269z"/>
			<path id="_x31_80610962" fill="#6ACBBA" stroke="#000000" d="M4905.789,4908.486c68.625-32.612,137.295-95.193,138.797-172.382
				c1.547-79.358,20.055-171.223,55.434-242.336c22.758-45.699,36.766-93.09,56.449-139.91
				c18.199-43.262,40.018-60.873,86.094-64.496c63.375-4.98,309.467-110.592,259.916-203.318
				c-20.383-38.122-93.625-55.653-131.457-69.401c-75.014-27.246-154.635-36.26-230.797-59.063
				c-78.85-23.602-136.84-65.837-203.523-111.526c-68.945-47.238-138.693-95.186-202.902-148.14
				c-31.869-26.283-56.252-60.32-87.988-86.721c-6.453-5.369-13.064-10.547-19.695-15.693
				c-13.049-10.123-26.912-19.499-39.535-30.042c-11.975-9.999-24.781-20.107-35.281-31.808
				c-1.656-1.843-19.389-24.672-18.764-25.095c-0.002,0.001-3.053,2.069-3.053,2.069c-4.82,4.918-9.672,9.787-14.643,14.503
				c-17.893,16.975-67.33,43.968-67.33,43.968c18.863,34.608,53.352,70.782,74.02,104.097
				c46.477,74.951,104.158,136.99,154.236,208.33c22.002,31.364,51.123,102.922,51.123,102.922
				c77.449,18.716,163.84,48.884,177.936,55.588c22.508,10.709,40.881,13.277,50.656,36.183
				c24.369,57.041-45.48,141.415-73.199,186.914c-36.969,60.706-75.236,121.553-102.477,187.103
				c-11.416,27.466-19.469,55.535-25.611,84.591c-3.912,18.551-3.902,44.415-21.24,61.753
				c67.104,67.075,71.264,85.102,118.088,141.985c37.66,45.749,48.322,109.074,47.115,167.325L4905.789,4908.486z"/>
			<path id="_x31_80611005" fill="#CCCCCC" stroke="#000000" d="M5568.621,5013.008c9.322-7.718,18.619-15.483,27.889-23.319
				c41.529-35.129,82.898-70.285,123.713-106.27c38.289-33.755,76.756-66.191,112.139-103.177
				c25.382-26.534,54.577-50.438,78.302-78.341c24.795-29.154,116.432-111.611,70.201-154.752
				c-61.895-57.766-191.218,59.131-235.126,92.291c-83.348,62.925-161.996,131.624-239.553,201.779
				c-59.99,54.25-150.951,173.201-196.654,239.705c-17.666,25.719-95.014,156.529-70.609,180.098
				c33.809,32.65,182.545-127.676,209.121-149.602C5488.02,5078.427,5528.566,5046.148,5568.621,5013.008z"/>
			<path id="_x31_80611006" fill="#CCCCCC" stroke="#000000" d="M4711.531,3980.993c-69.428-14.92-132.682-19.418-141.234,9.713
				c-1.885,6.427,28.77,19.988,32.816,22.206c56.594,31.086,71.461,98.457,59.795,158.145c-9.391,47.987-51.01,75.876-73.4,116.597
				c-49.592,90.241-7.242,172.135,49.057,246.781c17.305,22.941,53.754,86.976,91.807,63.99
				c18.539-11.196,19.912-45.059,23.828-63.607c6.143-29.055,14.191-57.125,25.611-84.591
				c27.238-65.551,65.506-126.398,102.477-187.103c27.715-45.501,97.568-129.874,73.199-186.914
				c-9.777-22.905-28.148-25.475-50.658-36.183C4889.309,4032.657,4795.877,3999.125,4711.531,3980.993z"/>
			<path id="_x31_80611004" fill="#AAAAAA" stroke="#000000" d="M4518.445,4027.185c6.316,27.188,28.969,62.09,34.348,75.392
				c8.563,21.227,43.842,124.013,81.891,105.78c11.648-5.579,20.922-19.401,25.219-31.034c5.883-15.897,6.691-37.399,5.85-54.156
				c-2.475-49.863-26.869-96.243-73.91-116.29c-16.826-7.173-32.881-16.82-51.904-15.337
				C4517.557,3993.283,4514.1,4008.384,4518.445,4027.185z"/>
		</g>
	</g>
	<g transform="scale(1.0)">
		<g id="_x31_80610952_1_" transform=" scale(1.0, 1.0)">
			<path id="_x31_80610954_1_" fill="#BFDAE3" stroke="#000000" d="M3694.988,2129.306c1.326,217.491-0.119,479.231-0.164,673.255
				c-0.043,175.247-0.779,333.172-0.822,509.098c-0.031,126.553-36.982,231.294-38.162,277.731
				c-1.441,56.811,7.281,114.347,14.463,170.542c5.857,45.795,11.807,87.836,17.24,137.159c4.086,37.077,3.686,75.561,4.234,112.704
				c0.664,44.383,0.613,248.589,0.607,264.646c-0.018,91.43,1.342,178.014-0.063,265.29c-1.283,79.526,0.646,159.999,0.625,238.271
				c-0.008,25.366-32.703,55.385-37.414,80.341c-84.094,445.141-393.514,741.545-723.314,770.046
				c-269.182,23.258-506.172-112.674-770.15-320.19c-58.176-45.729-133.66-119.287-185.354-163.618
				c-174.502-149.632-406.559-330.825-551.47-505.66c-129.906-156.733-170.785-345.989-166.111-509.83
				c2.867-100.365,338.243-222.958,476.616-307.42c29.568-18.046,80.207-44.021,83.133-58.162
				c9.967-48.123-473.854,343.437-634.517,218.721c-155.045-120.356-315.559-463.297-365.564-645.636
				c-77.506-282.619-86.797-362.971-105.119-648.349c-17.461-271.932,55.541-567.957,285.598-944.703
				c221.939-363.462,525.857-595.835,823.05-758.945c301.295-165.364,662.553-242.646,933.758-276.836
				c263.219-33.182,636.164,128.137,828.303,462.891c124.857,217.554,106.805,242.114,110.695,543.065
				C3697.332,1888.058,3694.611,2067.829,3694.988,2129.306z"/>
			<path id="_x31_80610955_1_" fill="#B0FFB8" stroke="#000000" d="M713.69,2688.211c18.32,285.369,27.611,365.719,105.121,648.335
				c49.996,182.333,210.514,525.275,365.559,645.625c160.662,124.716,644.483-266.84,634.509-218.719
				c-2.924,14.144-53.564,40.122-83.131,58.165c-138.373,84.461-473.745,207.049-476.616,307.409
				c-4.67,163.841,36.211,353.096,166.115,509.824c144.911,174.833,376.892,360.157,551.396,505.599
				c52.305,43.599,127.25,117.944,185.422,163.673c263.977,207.512,500.969,343.441,770.15,320.191
				c329.789-28.503,639.211-324.903,723.316-770.04c4.707-24.954,37.412-54.971,37.414-80.337
				c0.023-78.27-1.918-158.741-0.635-238.271c1.404-87.275,0.045-173.857,0.059-265.283c0.004-16.059,0.051-220.255-0.6-264.64
				c-0.555-37.143,1.787-75.91-4.359-112.706c-7.609-45.539-11.26-91.356-17.119-137.158
				c-7.176-56.19-15.895-113.726-14.455-170.536c1.176-46.438,38.121-151.175,38.16-277.725
				c0.035-175.924,0.768-333.849,0.803-509.089c0.057-194.025,1.508-455.761,0.174-673.249
				c-0.369-61.472,2.357-241.242,0.107-415.578c-3.887-300.949,14.16-325.511-110.693-543.059
				c-192.141-334.756-565.08-496.072-828.303-462.889c-271.197,34.188-632.463,111.467-933.756,276.831
				c-297.183,163.104-601.097,395.478-823.05,758.929C769.231,2120.257,696.228,2416.275,713.69,2688.211z M2726.244,4123.166
				c2.475-49.863,26.869-96.245,73.91-116.291c16.824-7.173,32.879-16.821,51.904-15.336c22.381,1.744,25.838,16.845,21.494,35.647
				c-6.316,27.188-28.969,62.088-34.346,75.39c-8.563,21.229-43.844,124.013-81.893,105.781c-11.648-5.58-20.918-19.4-25.217-31.035
				C2726.215,4161.424,2725.404,4139.923,2726.244,4123.166z"/>
			<path id="_x31_80610986_1_" fill="#1F9D5A" stroke="#000000" d="M1266.005,1585.684
				c-134.281,200.858-264.756,441.285-336.457,675.24c-69.625,227.39-59.627,462.282,1.66,690.285
				c35.209,131.002,80.063,256.104,133.643,379.961c11.629,26.847,17.443,54.442,20.428,82.455l-181.313,140.423l-3.742,1.661
				c-36.385-81.379-64.875-159.02-81.402-219.2c-77.48-282.616-86.77-362.909-105.152-648.335
				c-17.471-271.881,55.576-567.924,285.658-944.635c180.934-296.266,416.291-505.414,658.038-661.032l74.277,118.295
				C1468.372,1343.282,1309.657,1520.364,1266.005,1585.684z"/>
			<path id="_x31_80610985_1_" fill="#1F9D5A" stroke="#000000" d="M1064.851,3331.171
				c-53.58-123.858-98.434-248.962-133.643-379.962c-61.287-228.004-71.285-462.895-1.66-690.286
				c71.701-233.953,202.176-474.38,336.459-675.24c43.652-65.318,202.367-242.401,465.638-384.88l281.242,448.565
				c-189.039,118.145-356.721,253.001-494.911,460.011c-108.172,162.052-157.352,386.206-155.238,581.781
				c1.459,143.293,15.377,329.894,95.395,433.727l-372.854,288.738C1082.294,3385.613,1076.479,3358.018,1064.851,3331.171z"/>
			<path id="_x31_80610984_1_" fill="#1F9D5A" stroke="#000000" d="M2012.887,1649.369l323.285,515.486
				c-17.377,20.275-32.844,41.55-45.232,63.822c-46.65,83.937-43.014,166.886,39.76,220.518l-872.569,675.692
				c-80.016-103.832-93.934-290.434-95.395-433.728c-2.115-195.574,47.063-419.728,155.238-581.779
				C1656.164,1902.371,1823.846,1767.515,2012.887,1649.369z"/>
			<path id="_x31_80610983_1_" fill="#1F9D5A" stroke="#000000" d="M2336.168,2164.854l118.234,188.538l-123.703,95.803
				c-82.773-53.631-86.408-136.581-39.76-220.518C2303.328,2206.405,2318.795,2185.131,2336.168,2164.854z"/>
			<path id="_x31_80610990_1_" fill="#1F9D5A" stroke="#000000" d="M3253.146,1056.307
				c-159.375-172.842-567.891-211.507-779.109-139.913c-193.098,65.366-387.361,128.987-576.389,205.906
				c-59.271,24.089-114.633,50.588-166.006,78.505l-74.277-118.296c54.863-35.228,110.061-67.796,165.01-97.954
				c301.258-165.329,662.508-242.622,933.729-276.8c249.279-31.439,597.008,111.606,796.336,411.208l-0.584,0.415l-118.984,179.42
				C3381.025,1207.938,3316.381,1124.807,3253.146,1056.307z"/>
			<path id="_x31_80610989_1_" fill="#1F9D5A" stroke="#000000" d="M1897.648,1122.295
				c189.025-76.919,383.289-140.54,576.387-205.904c211.219-71.594,619.736-32.928,779.109,139.912
				c63.238,68.503,127.883,151.635,179.727,242.494l-197.146,297.179c-15.527-57.024-32.637-106.813-52.408-156.689
				c-65.455-164.838-174.904-237.59-351.873-188.512c-126.596,35.128-257.105,80.145-470.996,199.365
				c-121.949,67.958-238.33,130.766-347.563,199.227l-281.242-448.564C1783.014,1172.888,1838.377,1146.387,1897.648,1122.295z"/>
			<path id="_x31_80610988_1_" fill="#1F9D5A" stroke="#000000" d="M2963.918,1991.878c-1.5-1.747-2.996-3.493-4.488-5.155
				c-110.768-123.456-291.137-96.238-415.008-0.02c-63.68,49.439-147.811,107.848-208.254,178.15l-323.285-515.484
				c109.23-68.462,225.613-131.269,347.563-199.229c213.889-119.22,344.398-164.236,470.994-199.364
				c176.971-49.077,286.42,23.675,351.875,188.513c19.771,49.873,36.881,99.665,52.408,156.688l-266.654,402.135
				C2967.406,1996.033,2965.662,1993.953,2963.918,1991.878z"/>
			<path id="_x31_80610987_1_" fill="#1F9D5A" stroke="#000000" d="M2748.063,2331.188l-2.328-2.246l-8.727-8.729
				c-110.791-16.65-282.605,33.177-282.605,33.177l-118.232-188.537c60.443-70.301,144.574-128.712,208.254-178.149
				c123.871-96.221,304.242-123.437,415.008,0.019c1.496,1.663,2.99,3.408,4.486,5.154c1.744,2.077,3.488,4.156,5.152,6.234
				l-218.93,330.003L2748.063,2331.188z"/>
			<path id="_x31_80610994_1_" fill="#40A666" stroke="#000000" d="M3554.451,1716.407c-16.604-85.865-19.16-163.912-44.242-243.794
				c-18.773-59.764-45.688-118.202-77.342-173.816l118.986-179.419l0.584-0.415c11.129,16.709,21.85,34,31.986,51.706
				c120.637,210.313,107.828,240.232,110.34,513.937h-1.748l-128.686,88.074C3561.344,1753.893,3558.105,1735.107,3554.451,1716.407
				z"/>
			<path id="_x31_80610993_1_" fill="#40A666" stroke="#000000" d="M3510.211,1472.614c25.08,79.882,27.639,157.929,44.242,243.794
				c3.652,18.701,6.891,37.485,9.877,56.272l-260.949,178.553c-21.904-155.85-42.822-264.654-67.656-355.257l197.146-297.179
				C3464.523,1354.411,3491.439,1412.848,3510.211,1472.614z"/>
			<path id="_x31_80610992_1_" fill="#40A666" stroke="#000000" d="M3303.383,1951.232l-255.213,174.648
				c-20.439-45.304-46.357-88.282-79.098-127.771l266.654-402.135C3260.557,1686.578,3281.475,1795.383,3303.383,1951.232z"/>
			<path id="_x31_80610991_1_" fill="#40A666" stroke="#000000" d="M2969.068,1998.11c32.74,39.487,58.66,82.468,79.1,127.771
				l-297.781,203.811l-0.246-1.578L2969.068,1998.11z"/>
			<path id="_x31_80610997_1_" fill="#2FA850" stroke="#000000" d="M3693.021,1684.605h1.744c0.082,9.392,0.16,19.116,0.324,29.09
				c2.285,174.381-0.502,354.078-0.104,415.585c1.121,184.187,0.238,400.041,0.027,579.656l-105.883-42.248
				c-0.076-30.34-0.068-60.759-0.061-91.179c0.146-268.302,17.502-537.929-24.74-802.83L3693.021,1684.605z"/>
			<path id="_x31_80611007_1_" fill="#2FA850" stroke="#000000" d="M3480.494,2623.379l108.637,43.31
				c-0.076-30.34-0.068-60.759-0.061-91.179c0.146-268.302,17.502-537.929-24.74-802.83l-108.736,74.401
				C3484.834,2104.032,3487.561,2365.288,3480.494,2623.379z"/>
			<path id="_x31_80611008_1_" fill="#2FA850" stroke="#000000" d="M3480.496,2623.379c7.066-258.089,4.34-519.346-24.902-776.297
				l-152.211,104.151c0.58,3.823,1.076,7.729,1.656,11.72c28.293,202.896,38.219,405.369,48.145,609.672L3480.496,2623.379z"/>
			<path id="_x31_80610996_1_" fill="#2FA850" stroke="#000000" d="M3305.039,1962.955
				c28.293,202.896,38.219,405.369,48.145,609.671l-234.867-93.731c-3.049-120.353-20.639-243.537-70.148-353.013l255.213-174.65
				C3303.961,1955.055,3304.459,1958.962,3305.039,1962.955z"/>
			<path id="_x31_80610995_1_" fill="#2FA850" stroke="#000000" d="M3048.164,2125.882c49.512,109.477,67.104,232.66,70.148,353.013
				l-367.59-146.541l-0.336-2.66L3048.164,2125.882z"/>
			<path id="_x31_80611003_1_" fill="#59B363" stroke="#000000" d="M3335.566,3570.436l-2.406-11.554
				c93.598-28.984,186.709-113.906,229.621-200.09c28.273-56.597,33.857-121.425,32.873-186.922l96.977,96.105l1.412,0.002
				c-0.002,14.463-0.004,29.011-0.01,43.641c-0.031,126.583-37.045,231.301-38.219,277.766
				c-1.092,44.383,3.967,89.268,9.691,133.652c-70.637-55.04-60.662-53.042-108.697-85.887
				C3477.861,3583.104,3419.854,3554.499,3335.566,3570.436z"/>
			<path id="_x31_80611011_1_" fill="#59B363" stroke="#000000" d="M3136.982,3605.777c29.75,0.254,59.602-2.09,88.863-6.941
				c21.029-3.486,42.057-8.719,62.176-15.611c16.873-5.732,32.668-9.966,47.545-12.788l-2.406-11.555
				c93.6-28.984,186.713-113.905,229.621-200.089c28.273-56.596,33.857-121.425,32.875-186.922l-124.338-123.319
				c-8.035,166.104-39.539,328.378-167.041,440.469c-34.594,30.415-73.66,60.368-113.715,83.137
				C3169.84,3583.936,3150.875,3591.54,3136.982,3605.777z"/>
			<path id="_x31_80611012_1_" fill="#59B363" stroke="#000000" d="M2830.943,2943.365l79.563,605.774
				c17.455,10.894,33.99,19.957,33.99,19.957l29.838,10.23l1.248,0.415c19.533,10.643,42.801,13.227,65.076,17.054
				c20.115,3.494,40.477,5.745,60.428,7.411c11.92,0.96,23.904,1.471,35.898,1.571c13.891-14.238,32.855-21.843,53.578-33.621
				c40.057-22.769,79.121-52.723,113.717-83.137c127.498-112.091,159.004-274.366,167.039-440.469l-115.232-114.285
				c-9.902,48.536-27.699,93.333-57.881,130.313c-67.51,82.684-178.141,82.322-276.043,42.569
				c-73.305-29.773-90.162-90.534-149.58-138.591C2860.533,2958.83,2846.486,2950.516,2830.943,2943.365z"/>
			<path id="_x31_80611002_1_" fill="#59B363" stroke="#000000" d="M2867.836,2671.411c36.555,59.44,35.125,138.068,89.221,187.536
				c111.27,101.845,146.213-35.29,157.053-164.699l241.977,240.019c-9.902,48.536-27.699,93.333-57.881,130.313
				c-67.51,82.684-178.141,82.322-276.043,42.569c-73.305-29.773-90.162-90.534-149.58-138.591
				c-12.049-9.728-26.096-18.042-41.635-25.192l-47.953-365.477C2816.566,2605.656,2847.479,2638.413,2867.836,2671.411z"/>
			<path id="_x31_80611001_1_" fill="#59B363" stroke="#000000" d="M2957.059,2858.949c-54.1-49.468-52.666-128.098-89.223-187.535
				c-20.357-33-51.27-65.756-84.842-93.524l-32.025-243.874l363.139,360.234C3103.27,2823.659,3068.326,2960.794,2957.059,2858.949z
				"/>
			<path id="_x31_80610978_1_" fill="#248A5E" stroke="#000000" d="M1835.912,3768.803c-34.33,16.364-67.336,34.225-100.17,52.836
				c29.594-18.026,80.219-44.03,83.133-58.162c4.242-20.608-81.719,39.212-194.189,104.682l30.518-55.765
				c78.059-52.095,151.633-113.585,219.223-172.581c127.447-111.177,257.545-186.534,407.838-260.302
				c51.293-25.172,119.791-61.645,191.277-88.391l-47.088,166.305l2.742,5.737c-104.822,51.339-208.652,110.076-309.238,166.987
				C2027.35,3682.575,1931.756,3723.276,1835.912,3768.803z"/>
			<path id="_x31_80610977_1_" fill="#248A5E" stroke="#000000" d="M2282.258,3379.508
				c-150.293,73.771-280.391,149.127-407.838,260.306c-67.59,58.996-141.162,120.484-219.223,172.58l431.822-788.257
				c149.465-73.438,301.836-137.982,466.99-127.719c9.641,0.584,19.947,1.169,30.67,1.838l-111.141,392.863
				C2402.051,3317.866,2333.553,3354.338,2282.258,3379.508z"/>
			<path id="_x31_80610976_1_" fill="#248A5E" stroke="#000000" d="M2691.996,2519.021l-107.314,379.235
				c-10.725-0.669-21.029-1.254-30.67-1.838c-165.156-10.265-317.525,54.281-466.99,127.719l300.605-548.829
				C2484.119,2504.588,2597.332,2478.269,2691.996,2519.021z"/>
			<path id="_x31_80610975_1_" fill="#248A5E" stroke="#000000" d="M2745.734,2328.943l-53.74,190.075
				c-94.662-40.75-207.873-14.431-304.367-43.711l66.777-121.916c0,0,171.814-49.827,282.605-33.177L2745.734,2328.943z"/>
			<path id="_x31_80611000_1_" fill="#248A5E" stroke="#000000" d="M3589.131,2666.687l105.881,42.249
				c-0.176,32.5-0.184,63.832-0.189,93.59c-0.039,160.582-0.656,306.7-0.781,465.452l-1.41-0.002l-96.975-96.105
				c-0.648-55.935-6.041-112.374-6.027-164.57C3589.658,2893.762,3589.188,2780.225,3589.131,2666.687z"/>
			<path id="_x31_80611009_1_" fill="#248A5E" stroke="#000000" d="M3471.318,3048.553l124.338,123.32
				c-0.648-55.936-6.039-112.375-6.027-164.571c0.029-113.538-0.441-227.075-0.498-340.612l-108.637-43.31
				c-1.209,44.208-2.705,88.321-4.406,132.306C3472.516,2848.025,3476.135,2948.977,3471.318,3048.553z"/>
			<path id="_x31_80611010_1_" fill="#248A5E" stroke="#000000" d="M3480.494,2623.382l-127.313-50.753c0,0.082,0,0.166,0,0.248
				c5.129,104.729,27.037,244.121,2.904,361.392l115.232,114.285c4.816-99.576,1.199-200.528,4.77-292.868
				C3477.787,2711.701,3479.281,2667.586,3480.494,2623.382z"/>
			<path id="_x31_80610999_1_" fill="#248A5E" stroke="#000000" d="M3118.801,2527.354c0.088-16.039-0.074-32.25-0.486-48.458
				l234.867,93.733c0,0.082,0,0.166,0,0.248c5.129,104.729,27.037,244.121,2.904,361.392l-241.979-240.019
				C3120.191,2621.605,3118.713,2551.456,3118.801,2527.354z"/>
			<path id="_x31_80610998_1_" fill="#248A5E" stroke="#000000" d="M3118.313,2478.891c0.414,16.211,0.576,32.419,0.49,48.46
				c-0.09,24.104,1.389,94.255-4.695,166.897l-363.139-360.233l-0.246-1.662L3118.313,2478.891z"/>
			<path id="_x31_80610974_1_" fill="#248A5E" stroke="#000000" d="M2429.191,3463.164l-2.742-5.738l47.088-166.306
				c80.881-30.399,165.75-48.335,234.146-23.548c66.324,23.951,77.777,95.685,67.871,160.846l-1.414,9.642
				c-87.346-49.474-185.26-48.917-279.275-6.051C2472.92,3441.979,2451.057,3452.443,2429.191,3463.164z"/>
			<path id="_x31_80610973_1_" fill="#248A5E" stroke="#000000" d="M2774.145,3438.06l1.414-9.643
				c9.906-65.159-1.547-136.895-67.871-160.847c-68.398-24.788-153.268-6.852-234.146,23.55l111.141-392.866
				c76.551,4.924,176.205,12.928,246.266,45.109l79.563,605.774c-12.717-7.983-25.762-16.878-33.324-24.029
				c-19.779-18.787-37.727-39.901-59.166-57.199C2803.727,3456.438,2789.098,3446.542,2774.145,3438.06z"/>
			<path id="_x31_80610972_1_" fill="#248A5E" stroke="#000000" d="M2711.689,2528.665c23.268,12.889,47.951,29.852,71.303,49.223
				l47.953,365.476c-70.061-32.183-169.715-40.188-246.266-45.109l107.314-379.235
				C2698.643,2521.846,2705.207,2525.09,2711.689,2528.665z"/>
			<path id="_x31_80610971_1_" fill="#248A5E" stroke="#000000" d="M2748.063,2331.188v0.084l0.082,0.001l0.084,0.082l2.74,2.66
				l32.025,243.874c-23.354-19.374-48.033-36.334-71.303-49.224c-6.484-3.575-13.049-6.819-19.697-9.646l53.74-190.075
				L2748.063,2331.188z"/>
			<path id="_x31_80610982_1_" fill="#219866" stroke="#000000" d="M1655.201,3812.392l-30.52,55.764
				c-150.55,87.65-348.39,185.431-440.3,114.013c-103.877-80.649-210.227-261.287-284.158-426.459l3.74-1.66l181.313-140.424
				c8.957,81.457-6.025,165.983,26.621,242.541c65.127,152.618,198.242,321.71,383.947,243.875
				C1550.625,3877.114,1603.906,3846.792,1655.201,3812.392z"/>
			<path id="_x31_80610981_1_" fill="#219866" stroke="#000000" d="M1495.847,3900.041
				c-185.707,77.835-318.82-91.257-383.947-243.875c-32.648-76.558-17.666-161.084-26.621-242.541l372.854-288.738
				c49.105,63.763,123.239,96.363,234.706,68.462c133.666-33.379,262.762-104.747,394.188-169.212l-431.824,788.257
				C1603.906,3846.792,1550.625,3877.114,1495.847,3900.041z"/>
			<path id="_x31_80610980_1_" fill="#219866" stroke="#000000" d="M2332.443,2450.358c17.535,11.143,36.07,19.127,55.184,24.949
				l-300.604,548.829c-131.426,64.465-260.525,135.832-394.186,169.212c-111.467,27.901-185.601-4.699-234.708-68.462
				l872.569-675.692C2331.279,2449.61,2331.861,2450.026,2332.443,2450.358z"/>
			<path id="_x31_80610979_1_" fill="#219866" stroke="#000000" d="M2454.402,2353.392l-66.775,121.916
				c-19.115-5.823-37.648-13.807-55.184-24.949c-0.582-0.332-1.164-0.748-1.744-1.164L2454.402,2353.392z"/>
			<path id="_x31_80610956_1_" fill="#9AD2BD" stroke="#000000" d="M1259.138,4129.026
				c-4.668,163.842,36.213,353.095,166.115,509.824c144.911,174.831,376.892,360.158,551.396,505.6
				c52.305,43.598,127.25,117.943,185.422,163.672c263.977,207.514,500.969,343.439,770.15,320.189
				c329.791-28.501,639.211-324.904,723.316-770.038c4.705-24.956,37.412-54.972,37.414-80.339
				c0.023-78.27-1.918-158.741-0.635-238.27c1.402-87.276,0.045-173.858,0.059-265.284c0.004-16.059,0.051-220.255-0.602-264.642
				c-0.553-37.142,1.789-75.907-4.357-112.704c-7.609-45.539-11.26-91.356-17.119-137.158c-1.564-12.254-3.203-24.57-4.793-36.93
				c0.004,0.026,0.004,0.058,0.008,0.087c-70.635-55.041-60.662-53.041-108.695-85.885c-78.949-54.045-136.957-82.65-221.244-66.712
				c-14.879,2.822-30.672,7.054-47.547,12.787c-20.115,6.894-41.146,12.126-62.174,15.611c-41.063,6.808-83.287,8.709-124.762,5.371
				c-19.951-1.665-40.313-3.914-60.428-7.409c-22.273-3.828-45.545-6.408-65.076-17.056l-1.246-0.413l-29.838-10.231
				c0,0-16.541-9.064-33.992-19.956c-12.715-7.982-25.762-16.879-33.322-24.03c-19.779-18.787-37.727-39.901-59.166-57.197
				c-14.293-11.473-28.922-21.368-43.879-29.85c-87.344-49.475-185.258-48.917-279.273-6.052
				c-21.945,9.969-43.811,20.435-65.672,31.151c-104.824,51.341-208.652,110.078-309.24,166.988
				c-92.607,52.427-188.201,93.126-284.047,138.652c-34.33,16.364-67.336,34.226-100.17,52.836
				c29.594-18.026,80.219-44.031,83.133-58.162c0-0.003,0-0.005,0-0.007c-2.967,14.145-53.574,40.107-83.127,58.144
				C1597.375,3906.078,1262.003,4028.665,1259.138,4129.026z M2726.244,4123.166c2.475-49.863,26.869-96.245,73.91-116.291
				c16.824-7.173,32.879-16.821,51.904-15.336c22.381,1.744,25.838,16.845,21.494,35.647c-6.316,27.188-28.969,62.088-34.346,75.39
				c-8.563,21.229-43.844,124.013-81.893,105.781c-11.648-5.58-20.918-19.4-25.217-31.035
				C2726.215,4161.424,2725.404,4139.923,2726.244,4123.166z"/>
			<path id="_x31_80610957_1_" fill="#54BF94" stroke="#000000" d="M2753.439,4534.438c-17.309,22.94-45.834,68.185-68.58,68.178
				l-84.109,108.387c-49.979,54.877-87.4,119.282-72.879,233.573c9.404,73.995,35.184,144.405,52.658,216.614
				c17.25,71.298,21.008,144.203,22.445,217.167c0.75,37.986-17.338,194.822-8.066,197.919c0,0,56.299,19.339,86.912,29.127
				c57.785,18.474,124.004,25.894,184.424,27.062c36.961,0.718,82.984-7.766,119.451-11.155
				c-4.184-22.265-28.178-171.952-47.822-224.904c-35.158-94.795-49.033-166.491-18.699-262.644
				c19.668-62.329,15.781-140.938,28.443-205.706c27.672-141.511,160.074-311.65,276.457-371.882
				c68.668-35.537,174.07,25.761,226.639,67.609c55.684,44.321,111.811,89.78,163.178,139.01
				c17.293,16.568,49.93,43.661,56.18,66.806c10.264-24.918,22.998-33.781,22.857-62.402c-0.139-29.078-5.412-56.427-5.334-85.209
				c0.072-28.034,5.033-56.286,4.008-84.789c-3.039-83.902-9.898-62.37-88.402-88.341
				c-53.789-17.779-112.486-67.262-151.633-107.804c-63.264-65.533-107.453-146.437-174.018-209.604
				c-43.789-41.548-96.033-70.133-147.725-100.385c-31.094-18.195-60.988-38.597-93.451-54.372
				c-15.945-7.746-33.635-15.024-50.961-18.935c-19.332-4.346-40.338-2.958-60.053-3.759c-12.686-0.515-52.818,13.455-55.027,21.901
				c-4.133,15.805-13.992,32.126-21.004,46.826c-16.348,34.263-25.83,70.343-48.17,101.333
				c-7.213,10.021-41.771,61.353-71.928-15.243c3.363,47.391,51.801,79.798,73.262,118.839
				C2852.086,4377.895,2809.736,4459.788,2753.439,4534.438z"/>
			<path id="_x31_80610960_1_" fill="#54BF94" stroke="#000000" d="M3125.582,4629.223c29.596-28.176,62.084-54.206,98.496-73.05
				c68.668-35.536,174.07,25.761,226.637,67.609c9.33,7.425,18.668,14.884,28,22.389c3.494-87.572-15.307-164.371-29.799-247.911
				c-61.846-65.03-105.736-144.536-171.361-206.811c-43.789-41.549-96.033-70.133-147.725-100.385
				c-31.096-18.195-60.99-38.597-93.453-54.373c-15.945-7.746-33.633-15.023-50.959-18.936c-19.332-4.344-40.338-2.956-60.055-3.756
				c-12.686-0.517-52.816,13.454-55.025,21.902c-4.115,15.737-13.912,31.996-20.922,46.647
				c-35.818,74.887-90.389,126.011-46.924,205.104c15.586,28.362,23.531,59.916,21.594,92.303
				c-3.283,54.879-7.348,58.869,28.217,99.424c24.816,28.298,38.988,62.352,59.631,93.297c22.623,33.907,47.162,70.04,77.504,97.681
				C3061.238,4735.765,3069.504,4682.622,3125.582,4629.223z"/>
			<path id="_x31_80610961_1_" fill="#54BF94" stroke="#000000" d="M2527.873,4944.579c2.553,20.094,6.32,39.927,10.795,59.603
				c46.029,62.954,78.781,138.184,163.578,157.849c34.102,7.905,60.912,7.192,92.156,23.28
				c31.844,16.394,74.793,33.16,108.096,52.263c-0.219-32.771,4.893-66.443,16.678-103.809
				c19.668-62.329,15.781-140.938,28.445-205.706c12.791-65.395,47.951-136.898,93.553-200.85
				c-5.746-27.446-30.451-37.459-51.736-56.847c-30.342-27.641-54.881-63.773-77.502-97.679
				c-16.916-25.357-65.133-135.783-110.928-112.912c-12.648,25.666-29.379,50.545-47.568,74.666
				c-17.309,22.94-45.834,68.185-68.58,68.178l-84.109,108.387C2550.771,4765.88,2513.35,4830.282,2527.873,4944.579z"/>
			<path id="_x31_80610958_1_" fill="#54BF94" stroke="#000000" d="M3448.914,4398.262c14.494,83.536,33.293,160.335,29.799,247.91
				c46.357,37.274,92.416,75.638,135.182,116.62c17.295,16.57,49.93,43.662,56.178,66.807
				c10.266-24.919,22.314-32.469,22.188-61.085c-0.129-29.081-4.74-57.745-4.662-86.527c0.072-28.034,5.033-56.286,4.008-84.789
				c-3.039-83.902-9.898-62.37-88.402-88.341c-53.789-17.779-112.486-67.262-151.633-107.804
				C3450.676,4400.127,3449.801,4399.188,3448.914,4398.262z"/>
			<path id="_x31_80610959_1_" fill="#54BF94" stroke="#000000" d="M2610.4,5104.543c-8.844-9.669-19.369-20.353-25.754-31.87
				c-5.713-10.304-13.846-20.707-21.326-29.64c-8.943-10.677-15.395-11.997-14.119,3.941c1.035,12.935,3.596,25.446,7.107,37.934
				c7.221,25.685,17.941,50.325,24.223,76.277c17.25,71.302,21.008,144.207,22.443,217.171c0.75,37.986-17.338,194.822-8.064,197.92
				c0,0,56.297,19.338,86.91,29.126c57.785,18.474,124.004,25.894,184.424,27.062c36.961,0.718,82.986-7.766,119.453-11.155
				c-4.184-22.265-28.178-171.952-47.824-224.904c-21.494-57.955-35.033-107.277-35.377-158.835
				c-33.305-19.102-76.254-35.869-108.096-52.265c-31.244-16.086-58.055-15.373-92.156-23.278
				C2665.248,5153.448,2635.664,5132.174,2610.4,5104.543z"/>
			<path id="_x31_80610970_1_" fill="#62D09F" stroke="#000000" d="M3454.092,4355.152c15.186,20.1,31.648,38.873,50.893,54.605
				c52.766,43.125,114.932,94.049,187.965,82.927c0,0-0.617-18.54-0.924-25.713c-0.555-12.716-0.361-25.431-0.146-38.149
				c0.385-23.891-0.021-47.777-0.096-71.658c-0.057-20.403,1.26-41.423,1.018-61.567c-1.098-91.166-1.074-183.981-0.359-277.49
				c0.625-83.878-7.443-165.545-21.268-248.297c-2.313-13.884-5.668-46.771-5.668-46.771
				c-70.645-55.058-60.709-53.082-108.719-85.904c-92.973-63.553-156.867-91.939-268.76-53.88
				c-14.432,4.912-29.303,8.973-44.295,12.178c46.98,36.227,107.816,49.286,146.979,99.015
				c73.289,93.054,80.244,213.548,75.174,327.25c-2.67,59.875-9.234,119.505-12.309,179.366
				C3450.957,4252.026,3458.154,4304.626,3454.092,4355.152z"/>
			<path id="_x31_80610969_1_" fill="#62D09F" stroke="#000000" d="M3211.744,3992.813c3.186,38.821,2.379,78.048,3.414,117.089
				c70.912,47.525,138.348,98.657,188.051,171.363c16.816,24.594,32.959,50.164,50.883,73.886
				c4.063-50.525-3.135-103.125-0.516-154.089c3.074-59.858,9.639-119.489,12.309-179.365c5.072-113.7-1.887-234.193-75.174-327.251
				c-39.162-49.729-99.998-62.789-146.979-99.015c-5.955,1.271-11.928,2.424-17.9,3.414c-28.785,4.788-58.145,7.129-87.414,6.943
				c-57.104,76.82,33.162,141.516,59.744,216.671C3218.045,3878.682,3207.072,3935.94,3211.744,3992.813z"/>
			<path id="_x31_80610968_1_" fill="#62D09F" stroke="#000000" d="M2779.014,3851.639c-14.006,19.373-62.215,69.586-60.979,94.545
				c1.781,35.93,32.1,21.115,59.531,22.905c10.295,0.67,21.1,1.878,30.381,6.761c9.063,4.764,2.387-4.135,18.836,19.862
				c9.033-5.781,32.324-9.431,45.875,4.122c24.939-9.226,54.008-13.568,80.408-14.815c50.639-2.377,106.113,20.337,147.188,48.758
				c37.836,26.184,76.871,50.637,114.906,76.128c-1.035-39.04-0.227-78.269-3.414-117.091
				c-4.672-56.873,6.301-114.132-13.582-170.354c-26.582-75.155-116.85-139.851-59.746-216.671
				c-12.473-0.079-24.932-0.607-37.324-1.614c-19.988-1.619-40.328-3.864-60.447-7.371c-22.254-3.869-45.539-6.387-65.08-17.083
				c-13.074-7.152-41.131,52.503-51.871,70.414C2881.158,3721.04,2827.361,3784.76,2779.014,3851.639z"/>
			<path id="_x31_80610967_1_" fill="#62D09F" stroke="#000000" d="M2952.74,5353.262c5.215,17.14,61.691,189.22,64.316,261.729
				c41.498-9.621,121.74-40.04,137.922-47.869c32.586-15.763,65.697-34.709,95.6-54.934
				c58.975-39.887,112.355-87.504,161.154-139.25c75.746-80.321,126.799-178.163,171.32-277.56
				c18.473-41.24,59.027-162.72,71.605-235.357c-18.074-28.812-103.184-106.604-178.955-169.487
				c-7.859,88.262-25.957,175.394-44.736,261.883c-22.939,105.623-64.457,214.476-148.619,286.068
				c-43.885,37.324-100.807,69.957-159.854,71.689c-79.01,2.291-141.334-35.614-183.961-96.783
				C2934.752,5257.128,2937.172,5302.073,2952.74,5353.262z"/>
			<path id="_x31_80610966_1_" fill="#62D09F" stroke="#000000" d="M3430.967,4952.415c18.781-86.489,36.879-173.619,44.736-261.881
				c-45.418-37.696-87.479-70.032-109.738-83.253c-47.773-28.367-92.191-31.583-134.178-17.558
				c0.932,67.893-20.121,129.646,4.879,199.32c19.363,53.968,59.914,100.923,58.162,161.058
				c-2.244,77.669-120.006,231.073-207.387,165.098c-25.727-19.426-26.107-60.194-42.443-86.365
				c-11.563-18.529-43.207-42.64-68.873-36.595c-0.773,5.785-1.549,11.617-2.348,17.515
				c-10.283,76.242-29.625,138.606-35.244,203.638c42.627,61.169,104.953,99.074,183.961,96.783
				c59.047-1.732,115.969-34.361,159.854-71.689C3366.51,5166.893,3408.027,5058.038,3430.967,4952.415z"/>
			<path id="_x31_80610965_1_" fill="#62D09F" stroke="#000000" d="M3231.787,4589.722c-6.135,2.048-12.217,4.459-18.25,7.217
				c-25.461,11.645-154.625,152.522-184.666,206.115c-35.246,62.857-43.848,122.606-52.746,189.184
				c25.668-6.045,57.311,18.065,68.873,36.595c16.336,26.173,16.717,66.941,42.443,86.365
				c87.381,65.978,205.143-87.429,207.387-165.096c1.752-60.137-38.799-107.092-58.162-161.06
				C3211.666,4719.367,3232.719,4657.616,3231.787,4589.722z"/>
			<path id="_x31_80610964_1_" fill="#6ACBBA" stroke="#000000" d="M2514.113,5023.517c17.693,20.672,15.891,63.144,21.693,88.72
				c12.545,55.331,20.609,91.537,26.85,171.049c3.879,49.41-3.021,102.314-23.92,147.376
				c-29.43,63.447-69.789,88.781-130.684,50.177c-65.777-41.7-128.09-83.942-188.938-129.12l1.758-2.393
				c-75.172-64.747-81.443-185.462-138.398-268.385c-45.707-66.512-136.666-185.461-196.658-239.711
				c-77.557-70.155-156.205-138.854-239.553-201.779c-34.621-26.146-67.232-56.586-106.022-76.52
				c-58.646-30.14-155.053-9.461-200.24-67.895l-12.127-10.301c-6.777-15.077-13.27-30.816-19.635-47.454
				c-19.854-51.932-33.086-109.127-40.451-164.223c-4.516-33.788-9.902-65.976-8.732-100.22c0.553-16.268-3.051-35.726,0.775-51.292
				c5.002-20.271,18.449-39.452,33.82-53.285c42.68-38.395,107.895-77.391,159.561-102.3
				c80.666-38.81,160.632-73.849,236.739-117.974c48.248-27.905,95.643-55.287,145.992-79.213
				c95.805-45.522,191.43-86.194,284.014-138.632c121.486-68.81,247.848-140.21,374.896-198.08
				c62.109-28.295,108.84-30.236,149.955-31.435c29.309-0.854,76.16,13.828,97.74,21.905c10.508,3.931,48.926,27.641,55.313,36.286
				c15.73,21.294-29.879,35.028-49.023,41.888c-26.814,9.605-54.754,16.572-80.332,29.373
				c-11.404,5.709-22.801,12.232-33.807,18.639c-74.098,43.122-148.105,84.636-226.773,119.066
				c-128.248,56.128-261.666,99.308-393.908,144.821c-127.736,43.953-262.311,87.061-375.525,162.725
				c-66.549,44.478-133.038,109.897-131.739,195.864c2.301,151.594,141.181,164.248,251.534,206.563
				c40.795,15.645,81.814,33.832,120.348,55.925c49.709,28.493,96.221,64.073,131.953,109.213
				c45.365,57.304,46.602,99.657,67.588,166.604c14.291,45.547,49.033,74.694,73.557,113.62c20.252,32.14,32.795,62.3,61.463,90.343
				c12.928,12.643,25.793,25.354,39.074,37.625c10.375,9.583,20.529,19.859,32.193,27.646c20.389,13.609,39.855,30.12,62.609,39.879
				c26.004,11.149,53.908,20.261,82.557,16.625c12.119-1.536,26.584-6.583,37.473-12.043c11.201-5.62,19.906-15.995,33.184-10.582
				C2504.725,5014.424,2509.283,5017.863,2514.113,5023.517z"/>
			<path id="_x31_80610963_1_" fill="#6ACBBA" stroke="#000000" d="M2514.408,4982.686
				c-95.252,120.854-219.99,10.175-301.207-69.231c-28.67-28.04-41.213-58.203-61.465-90.341
				c-24.525-38.927-59.266-68.072-73.557-113.62c-20.986-66.946-22.223-109.302-67.586-166.604
				c-35.734-45.14-82.244-80.721-131.955-109.214c-38.533-22.093-79.557-40.28-120.348-55.926
				c-110.355-42.315-249.231-54.969-251.534-206.563c-1.299-85.967,65.187-151.387,131.739-195.865
				c113.217-75.663,247.797-118.772,375.525-162.723c132.242-45.515,265.656-88.694,393.908-144.822
				c78.668-34.429,152.68-75.943,226.773-119.066c67.887-39.512,148.428-51.389,215.699-91.934l3.389-1.18
				c10.758-8.593,14.807,18.175,14.217,23.702c-1.293,12.148-4.926,23.453-11.684,33.669
				c-26.955,40.784-73.24,67.527-110.135,98.222c-31.738,26.4-56.119,60.438-87.99,86.721
				c-64.207,52.954-133.955,100.901-202.902,148.14c-66.684,45.689-124.674,87.927-203.523,111.526
				c-76.16,22.804-155.781,31.817-230.797,59.064c-37.83,13.749-111.074,31.278-131.455,69.4
				c-49.553,92.727,196.541,198.338,259.916,203.32c46.074,3.621,67.895,21.232,86.094,64.496
				c19.682,46.818,33.691,94.209,56.449,139.908c35.379,71.113,53.885,162.978,55.432,242.336
				c0.391,20.126,5.533,39.785,14.08,57.955c15.551,33.053,41.885,60.65,71.016,82.192c14.416,10.659,30.268,21.824,46.861,28.807
				c16.105,6.774,27.215,20.474,29.523,38.632c1.176,9.246,2.607,18.436,4.246,27.58L2514.408,4982.686z"/>
			<path id="_x31_80610962_1_" fill="#6ACBBA" stroke="#000000" d="M2493.844,4905.885c-1.207-58.251,9.455-121.576,47.115-167.325
				c46.824-56.884,50.984-74.91,118.088-141.985c-17.338-17.338-17.328-43.202-21.24-61.753
				c-6.143-29.056-14.195-57.125-25.611-84.591c-27.24-65.55-65.508-126.396-102.477-187.103
				c-27.719-45.499-97.568-129.873-73.199-186.914c9.775-22.905,28.148-25.474,50.656-36.183
				c14.096-6.704,100.486-36.872,177.936-55.588c0,0,29.121-71.558,51.123-102.922c50.078-71.34,107.76-133.379,154.236-208.33
				c20.668-33.314,55.156-69.488,74.02-104.097c0,0-49.438-26.993-67.33-43.968c-4.971-4.716-9.822-9.585-14.643-14.503
				c0,0-3.051-2.068-3.053-2.069c0.625,0.423-17.107,23.252-18.764,25.095c-10.5,11.7-23.307,21.809-35.281,31.808
				c-12.623,10.543-26.486,19.919-39.535,30.042c-6.631,5.146-13.242,10.324-19.695,15.693
				c-31.736,26.4-56.119,60.438-87.988,86.721c-64.209,52.954-133.957,100.901-202.902,148.14
				c-66.684,45.689-124.674,87.925-203.523,111.526c-76.162,22.804-155.783,31.817-230.797,59.063
				c-37.832,13.748-111.074,31.279-131.457,69.401c-49.551,92.727,196.541,198.338,259.916,203.318
				c46.076,3.623,67.895,21.234,86.094,64.496c19.684,46.82,33.691,94.211,56.449,139.91
				c35.379,71.113,53.887,162.978,55.434,242.336c1.502,77.188,70.172,139.77,138.797,172.382L2493.844,4905.885z"/>
			<path id="_x31_80611005_1_" fill="#CCCCCC" stroke="#000000" d="M1943.957,5111.421
				c26.576,21.926,175.313,182.252,209.121,149.602c24.404-23.568-52.943-154.379-70.609-180.098
				c-45.703-66.504-136.664-185.455-196.654-239.705c-77.557-70.155-156.205-138.854-239.553-201.779
				c-43.908-33.16-173.231-150.057-235.126-92.291c-46.23,43.141,45.406,125.598,70.201,154.752
				c23.725,27.902,52.92,51.807,78.302,78.341c35.383,36.985,73.85,69.422,112.139,103.177
				c40.814,35.984,82.184,71.141,123.713,106.27c9.27,7.836,18.566,15.602,27.889,23.319
				C1863.434,5046.148,1903.98,5078.427,1943.957,5111.421z"/>
			<path id="_x31_80611006_1_" fill="#CCCCCC" stroke="#000000" d="M2487.172,4040.027c-22.51,10.708-40.881,13.277-50.658,36.183
				c-24.369,57.04,45.484,141.413,73.199,186.914c36.971,60.704,75.238,121.552,102.477,187.103
				c11.42,27.466,19.469,55.536,25.611,84.591c3.916,18.549,5.289,52.411,23.828,63.607c38.053,22.985,74.502-41.049,91.807-63.99
				c56.299-74.646,98.648-156.54,49.057-246.781c-22.391-40.721-64.01-68.609-73.4-116.597
				c-11.666-59.688,3.201-127.059,59.795-158.145c4.047-2.218,34.701-15.779,32.816-22.206
				c-8.553-29.131-71.807-24.633-141.234-9.713C2596.123,3999.125,2502.691,4032.657,2487.172,4040.027z"/>
			<path id="_x31_80611004_1_" fill="#AAAAAA" stroke="#000000" d="M2852.063,3991.539c-19.023-1.483-35.078,8.164-51.904,15.337
				c-47.041,20.047-71.436,66.427-73.91,116.29c-0.842,16.757-0.033,38.259,5.85,54.156c4.297,11.633,13.57,25.455,25.219,31.034
				c38.049,18.232,73.328-84.554,81.891-105.78c5.379-13.302,28.031-48.203,34.348-75.392
				C2877.9,4008.384,2874.443,3993.283,2852.063,3991.539z"/>
		</g>
	</g>
</g>
</svg>
