<?xml version="1.0" encoding="utf-8"?>
<!-- Generator: Adobe Illustrator 16.0.0, SVG Export Plug-In . SVG Version: 6.00 Build 0)  -->
<!DOCTYPE svg PUBLIC "-//W3C//DTD SVG 1.1//EN" "http://www.w3.org/Graphics/SVG/1.1/DTD/svg11.dtd">
<svg version="1.1" id="Layer_1" xmlns="http://www.w3.org/2000/svg" xmlns:xlink="http://www.w3.org/1999/xlink" x="0px" y="0px"
	 width="6144px" height="5376px" viewBox="0 0 6144 5376" enable-background="new 0 0 6144 5376" xml:space="preserve">
<g>
	<g transform="scale(1.0)">
		<g id="_x31_80609911" transform=" scale(1.0, 1.0)">
			<path id="_x31_80609913" fill="#BFDAE3" stroke="#000000" d="M4079.715,2481.636c8.334-2.313-70.752,25.854-168.283,25.48
				c-75.961-0.289-166.795-4.698-261.23-14.109c-76.42-7.622-163.023-30.869-233.254-53.674
				c-14.706-4.777-31.216-12.329-44.884-17.426c-41.007-15.287-74.875-35.876-106.023-58.685
				c-65.382-47.888-105.804-97.451-119.901-175.354c-32.061-177.181-46.882-393.591-12.723-650.428
				c42.279-317.944,80.562-607.867,358.897-708.684c167.397-60.635,355.384-98.237,592.927-55.062
				c498.072,90.531,1083.982,413.605,1242.328,763.895c117.031,258.894,98.223,652.556,17.342,908.995
				c-59.713,189.306-222.877,470.873-398.453,595.834c-91.703,65.268-201.703-61.492-313.006-165.839
				c-57.326-53.749-107.656-89.304-138.41-115.106c-30.756-25.802-41.938-41.851-52.291-43.297
				c-17.5-2.446,181.883,135.411,331.85,323.35c69.729,87.385,107.314,192.962,120.938,277.305
				c47.148,291.97-98.828,692.847-282.041,912.928c-258.324,310.304-580.285,461.345-1059.369,355.443
				c-187.552-41.456-360.286-144.269-423.047-355.451c-117.106-394.11-52.47-1150.169,126.444-1423.858
				c186.65-285.521,509.97-5.265,741.995-221.684C3999.521,2586.215,4064.316,2485.887,4079.715,2481.636z"/>
			<path id="_x31_80609914" fill="#B0FFB8" stroke="#000000" d="M5327.566,1537.582
				c-158.342-350.291-744.252-673.357-1242.33-763.884c-237.543-43.177-425.525-5.573-592.927,55.063
				c-278.33,100.816-316.616,390.734-358.893,708.678c-34.146,256.831-19.333,473.243,12.727,650.42
				c14.101,77.903,54.523,127.464,119.896,175.351c31.148,22.807,65.022,43.398,106.032,58.685
				c13.663,5.099,30.441,15.395,45.151,20.17c70.224,22.807,156.565,43.307,232.983,50.927
				c94.438,9.41,185.268,13.819,261.229,14.11c83.605,0.321,155.195-20.793,168.693-25.379c0.619-0.346,1.193-0.602,1.705-0.743
				c1.188-0.33,0.543-0.021-1.705,0.743c-18.068,10.106-80.604,104.474-80.604,104.474
				c-232.023,216.418-555.343-63.831-741.995,221.686c-178.921,273.688-243.549,1029.74-126.439,1423.842
				c62.762,211.181,235.492,313.994,423.048,355.448c479.084,105.896,801.047-45.144,1059.369-355.442
				c183.213-220.076,329.189-620.955,282.039-912.922c-13.627-84.338-51.211-189.918-120.945-277.299
				c-149.965-187.936-349.348-325.792-331.852-323.351c10.361,1.446,21.543,17.498,52.301,43.303
				c30.756,25.799,81.084,61.351,138.41,115.099c111.303,104.343,221.297,231.106,313.002,165.839
				c175.584-124.967,338.742-406.525,398.453-595.833C5425.799,2190.128,5444.602,1796.473,5327.566,1537.582z M3851.211,3656.934
				c-16.592-0.24-80.539-88.405-46.592-125.874c61.855-68.277,197.637-125.893,206.986-58.575
				C4019.502,3529.417,3906.113,3653.731,3851.211,3656.934z"/>
			<path id="_x31_80609943" fill="#1F9D5A" stroke="#000000" d="M5232.154,2065.555l176.541,1.476
				c-6.307,137.371-29.484,270.762-63.762,379.505c-12.271,39.003-28.996,81.925-49.314,126.621l-3.219-1.454l-116.221-102.705
				c6.643-17.334,12.459-34.849,17.441-52.292C5223.355,2312.047,5236.594,2188.97,5232.154,2065.555z"/>
			<path id="_x31_80609942" fill="#1F9D5A" stroke="#000000" d="M5232.154,2065.555c4.439,123.414-8.799,246.491-38.535,351.149
				c-4.984,17.443-10.797,34.956-17.439,52.292l-242.115-213.931c15.779-69.249,20.936-133.009,16.973-191.918L5232.154,2065.555z"
				/>
			<path id="_x31_80609941" fill="#1F9D5A" stroke="#000000" d="M4951.037,2063.147c3.963,58.909-1.195,122.67-16.973,191.918
				l-214.74-189.71l-0.604-4.159L4951.037,2063.147z"/>
			<path id="_x31_80609940" fill="#1F9D5A" stroke="#000000" d="M5327.535,1537.589c67.406,149.063,89.754,342.881,81.16,529.442
				l-176.541-1.476c-5.436-152.068-37.594-304.605-98.541-423.774c-106.963-209.068-331.43-391.864-538.527-501.694
				c-93.748-49.666-189.639-88.656-288.699-126.615c-111.445-42.7-235.227-53.293-354.809-67.058
				c-152.318-17.561-304.914,1.314-441.994,89.646c-4.356,2.759-8.632,5.686-12.825,8.613l-117.696-155.85
				c32.56-24.182,70.038-44.391,113.265-60.035c167.396-60.664,355.374-98.286,592.905-55.088
				C4583.303,864.246,5169.24,1187.327,5327.535,1537.589z"/>
			<path id="_x31_80609939" fill="#1F9D5A" stroke="#000000" d="M5133.611,1641.782c60.947,119.169,93.107,271.707,98.543,423.774
				l-281.119-2.408c-21.939-336.751-336.416-517.778-624.898-693.863c-89.689-54.672-286.682-134.389-390.68-152.247
				c-73.861-12.688-198.252-4.114-281.102,36.442l-157.601-208.808c4.193-2.927,8.471-5.854,12.825-8.613
				c137.08-88.33,289.676-107.206,441.994-89.646c119.582,13.767,243.363,24.357,354.809,67.058
				c99.061,37.957,194.955,76.948,288.699,126.615C4802.18,1249.917,5026.65,1432.712,5133.611,1641.782z"/>
			<path id="_x31_80609938" fill="#1F9D5A" stroke="#000000" d="M4326.135,1369.285
				c288.482,176.084,602.961,357.112,624.898,693.863l-232.314-1.951l-94.486-84.625l-115.762-100.038l-101.461-73.022
				l-122.523-74.488l-108.053-53.361l-136.098-60.075l-136.277-47.626l-12.447-0.181l-237.254-314.302
				c82.85-40.556,207.238-49.13,281.1-36.442C4039.457,1234.895,4236.447,1314.612,4326.135,1369.285z"/>
			<path id="_x31_80609958" fill="#2FA850" stroke="#000000" d="M3379.061,888.822l117.694,155.851
				c-93.757,65.797-166.337,176.892-187.548,288.896c-3.779,20.2-6.483,40.746-8.361,61.389l-140.77-41.135l-0.25-0.003
				C3192.362,1159.22,3243.294,989.623,3379.061,888.822z"/>
			<path id="_x31_80609957" fill="#2FA850" stroke="#000000" d="M3496.755,1044.672l157.601,208.807
				c-23.156,11.287-43.029,25.109-57.631,41.666c-23.205,26.227-46.957,90.132-66.166,167.052l-229.71-67.238
				c1.877-20.644,4.579-41.189,8.36-61.389C3330.417,1221.564,3402.998,1110.47,3496.755,1044.672z"/>
			<path id="_x31_80609956" fill="#2FA850" stroke="#000000" d="M3654.357,1253.479l237.258,314.298l-361.059-105.581
				c19.209-76.919,42.961-140.826,66.168-167.053C3611.326,1278.588,3631.201,1264.764,3654.357,1253.479z"/>
			<path id="_x31_80609949" fill="#248A5E" stroke="#000000" d="M4090.215,2471.296l-78.037-355.162
				c24.25-0.729,47.168-1.227,66.855-2.187c82.318-3.872,154.428,26.555,211.85,85.492
				c122.117,125.534,299.418,315.284,406.824,453.553c40.828,52.552,83.469,83.053,125.943,96.12l46.701,306.23l-0.27,1.572
				c-77.207-16.64-163.688-109.617-236.623-180.398c-49.691-48.116-106.916-86.217-159.561-130.889
				c-14.105-11.992-30.66-20.864-36.768-34.814c-22.902-52.212-36.482-100.387-42.473-110.85
				c-36.43-64.029-80.346-126.755-145.467-141.145c-39.141-8.618-103.264-11.537-137.303,6.147
				c-6.525,3.391-13.375,6.532-20.391,9.334L4090.215,2471.296z"/>
			<path id="_x31_80609948" fill="#248A5E" stroke="#000000" d="M4760.344,2333.985l63.307,415.129
				c-42.477-13.066-85.119-43.569-125.945-96.122c-107.404-138.269-284.705-328.019-406.822-453.551
				c-57.42-58.938-129.529-89.367-211.85-85.493c-19.688,0.959-42.604,1.458-66.855,2.187l-75.002-341.006
				c7.432-2.966,14.273-5.44,20.691-7.171c140.426-38.475,251.732,36.763,373.504,117.3
				c32.561,21.556,127.752,143.378,234.949,261.722C4634.787,2222.514,4702.088,2292.799,4760.344,2333.985z"/>
			<path id="_x31_80609947" fill="#248A5E" stroke="#000000" d="M3904.064,1567.96l136.275,47.626l136.098,60.075l108.053,53.361
				l122.525,74.489l101.459,73.021l115.764,100.039l94.484,84.625l-4.148-0.059l4.754,4.218l41.02,268.629
				c-58.256-41.185-125.557-111.47-194.023-187.003c-107.195-118.345-202.389-240.167-234.949-261.722
				c-121.771-80.537-233.078-155.777-373.506-117.3c-6.416,1.733-13.26,4.208-20.691,7.17l-45.559-207.352L3904.064,1567.96z"/>
			<path id="_x31_80609955" fill="#248A5E" stroke="#000000" d="M3160.078,1353.823l140.77,41.135
				c-8.267,89.363-2.883,181.995-21.193,271.38c-15.013,73.743-29.88,137.446-22.758,213.169c3.021,32.169,7.135,69,13.637,107.361
				l-137.563,92.888l-3.243,0.451c-19.587-155.094-23.863-335.783,3.701-542.739c8.379-62.714,16.493-124.355,26.397-183.648
				L3160.078,1353.823z"/>
			<path id="_x31_80609954" fill="#248A5E" stroke="#000000" d="M3300.847,1394.957l229.71,67.238
				c-31.451,125.635-50.955,286.059-36.618,373.922l-223.405,150.749c-6.499-38.362-10.615-75.193-13.637-107.361
				c-7.122-75.723,7.745-139.426,22.759-213.17C3297.965,1576.952,3292.581,1484.32,3300.847,1394.957z"/>
			<path id="_x31_80609953" fill="#248A5E" stroke="#000000" d="M3891.615,1567.779l-397.678,268.34
				c-14.335-87.864,5.168-248.287,36.619-373.921L3891.615,1567.779z"/>
			<path id="_x31_80609952" fill="#248A5E" stroke="#000000" d="M4090.215,2471.296l1.283,3.006
				c-121.672,50.453-314.953,29.808-441.299,18.683c-125.268-11.026-275.886-48.486-393.644-136.686
				c-56.827-42.576-97.772-98.369-110.371-168.444c-6.229-34.373-11.851-70.23-16.456-107.651l3.244-0.451l137.564-92.889
				c20.275,118.913,64.097,251.364,172.028,296.008c133.755,55.393,271.247-95.686,385.642-142.092
				c46.844-18.995,120.029-22.749,183.973-24.647L4090.215,2471.296z"/>
			<path id="_x31_80609951" fill="#248A5E" stroke="#000000" d="M3937.176,1775.129l75.002,341.007
				c-63.943,1.897-137.129,5.652-183.973,24.647c-114.395,46.407-251.887,197.484-385.642,142.091
				c-107.932-44.643-151.753-177.093-172.03-296.008l223.405-150.749c3.425,21.466,8.986,38.646,16.793,49.884
				C3594.73,2006.748,3822.441,1821.946,3937.176,1775.129z"/>
			<path id="_x31_80609950" fill="#248A5E" stroke="#000000" d="M3891.615,1567.779l45.561,207.351
				c-114.734,46.817-342.445,231.62-426.446,110.873c-7.806-11.237-13.37-28.417-16.792-49.884L3891.615,1567.779z"/>
			<path id="_x31_80609946" fill="#219866" stroke="#000000" d="M5292.398,2571.702l3.217,1.457
				c-78.195,172.106-209.725,370.085-349.121,469.258c-23.736,16.839-49.52,20.285-76.412,14.498l0.27-1.572l-46.699-306.229
				c144.535,44.673,287.492-111.14,352.525-280.118L5292.398,2571.702z"/>
			<path id="_x31_80609945" fill="#219866" stroke="#000000" d="M4934.063,2255.066l242.113,213.931
				c-65.035,168.978-207.99,324.791-352.525,280.117l-63.307-415.128c76.086,53.895,136.707,58.175,163.943-40.129
				C4927.967,2280.71,4931.223,2267.809,4934.063,2255.066z"/>
			<path id="_x31_80609944" fill="#219866" stroke="#000000" d="M4719.324,2065.357l214.74,189.71
				c-2.84,12.743-6.098,25.645-9.773,38.79c-27.238,98.303-87.859,94.022-163.945,40.129L4719.324,2065.357z"/>
			<path id="_x31_80609915" fill="#9AD2BD" stroke="#000000" d="M4895.545,3318.804c-13.625-84.336-51.209-189.918-120.943-277.297
				c-145.123-181.866-336.52-316.836-332.873-323.147c-1.855-2.365-3.42-4.863-4.598-7.546
				c-22.902-52.212-36.482-100.387-42.473-110.85c-36.43-64.029-80.346-126.755-145.467-141.145
				c-39.141-8.619-103.264-11.538-137.303,6.146c-6.525,3.391-13.377,6.532-20.391,9.334l-0.26-0.609l-10.195,7.572
				c0.275-0.12,0.539-0.219,0.789-0.287c1.08-0.298,0.631-0.068-1.145,0.549l-6.117,4.542
				c-22.768,21.237-75.045,100.125-75.045,100.125c-232.025,216.418-555.345-63.832-741.996,221.684
				c-178.922,273.688-243.548,1029.74-126.438,1423.842c62.761,211.181,235.491,313.996,423.048,355.45
				c479.08,105.894,801.045-45.144,1059.367-355.443C4796.721,4011.65,4942.697,3610.773,4895.545,3318.804z M3851.211,3656.934
				c-16.592-0.24-80.539-88.405-46.592-125.874c61.855-68.277,197.637-125.893,206.986-58.575
				C4019.502,3529.417,3906.113,3653.731,3851.211,3656.934z"/>
			<path id="_x31_80609916" fill="#9AD2BD" stroke="#000000" d="M3823.602,2718.143c-52.426,67.236-100.42,143.923-130.004,224.058
				c-52.096,141.069,7.689,397.507,77.984,577.306c45.383,116.102,32.041,207.968,64.395,330.204
				c37.27,140.801,33.748,290.65,66.611,434.909c7.115,31.218,32.92,164.767,78.455,247.861
				c27.061,49.362,81.398,63.442,81.398,63.442c-83.492,18.537-157.646,25.968-239.01,24.895
				c-78.25-1.024-163.154-9.73-269.291-33.644c-187.378-42.224-360.287-144.267-423.048-355.45
				c-117.11-394.102-52.485-1150.154,126.438-1423.843c152.755-233.65,397.02-88.408,607.883-146.553
				C3865.414,2661.328,3834.252,2704.483,3823.602,2718.143z"/>
			<path id="_x31_80609917" fill="#82C7AE" stroke="#000000" d="M3374.035,2700.352c-42.547,102.957-93.88,202.62-123.972,310.281
				c-48.429,173.317-32.438,349.609-30.745,527.205c0.916,96.775-5.677,194.259-0.551,290.928
				c3.906,73.855,29.337,139.585,55.601,207.958c42.559,110.766,79.279,224.01,124.794,333.598
				c17.149,41.317,40.937,101.947,79.515,128.226c42.925,29.235,97.317,37.457,139.458,71.319
				c15.592,12.53,15.26,24.152-2.828,28.739c-28.541,7.237-83.34-20.341-111.832-27.828
				c-42.196-11.101-84.453-23.603-123.236-43.978c-67.851-35.635-128.37-84.314-175.081-145.316
				c-33.849-44.205-58.219-96.434-74.065-149.758c-117.109-394.102-52.483-1150.154,126.438-1423.842
				C3288.853,2759.973,3327.203,2731.557,3374.035,2700.352z"/>
			<path id="_x31_80609921" fill="#82C7AE" stroke="#000000" d="M3823.602,2718.143c-52.426,67.236-100.42,143.923-130.004,224.058
				c-52.096,141.069,7.689,397.507,77.984,577.306c45.383,116.102,32.041,207.968,64.395,330.204
				c17.283,65.295,26.893,134.418,34.25,201.467c6.75,61.437,9.857,123.546,21.654,184.317
				c11.166,57.481,25.184,112.46,36.32,170.331c4.709,24.442,17.523,39.374-2.578,59.728c-33.24,33.646-92.436,18.319-131.68,5.684
				c-45.824-14.753-82.416-63.773-103.936-103.821c-49.637-92.313-96.658-186.995-126.338-287.749
				c-31.953-108.478-52.708-219.592-76.113-330.086c-32.082-151.443-58.259-305.76-62.946-460.798
				c-4.43-145.746,28.971-281.705,95.599-411.243c19.305-37.522,37.021-80.327,66.533-110.904
				c30.828-31.94,67.486-50.346,104.941-72.565c36.748-21.802,69.455-16.578,111.256-20.57c11.197-1.069,55.584-2.63,62.479-12.172
				C3865.414,2661.335,3834.252,2704.483,3823.602,2718.143z"/>
			<path id="_x31_80609920" fill="#9AD2BD" stroke="#000000" d="M3770.016,4460.121c-34.643-21.08-62.383-59.903-80.01-92.706
				c-49.637-92.313-96.658-186.993-126.338-287.749c-31.953-108.478-52.706-219.591-76.114-330.084
				c-32.081-151.443-58.258-305.76-62.945-460.8c-4.431-145.744,28.97-281.705,95.601-411.241
				c16.248-31.587,31.377-66.916,53.359-95.544c1.994-2.595,1.225-8.915-2.768-9.295c-4.287-0.406-11.898,5.228-11.898,5.228
				c-22.084,18.613-43.732,38.001-58.277,60.945c-23.953,37.75-30.909,74.155-46.66,114.978
				c-11.712,30.368-27.716,58.929-37.581,90.035c-58.429,184.237-5.952,381.607,12.646,567.084
				c9.653,96.311,30.413,188.377,49.8,282.48c2.913,14.154,5.806,28.348,8.61,42.617c11.809,59.887,34.383,114.32,56.236,170.905
				c21.762,56.371,35.236,113.944,63.941,167.716c32.184,60.279,63.811,113.309,109.188,164.865
				c6.072,6.895,16.174,16.115,24.207,26.062c4.02,4.973,20.672,12.955,27.875,10.92
				C3776.088,4474.501,3773.84,4462.449,3770.016,4460.121z"/>
			<path id="_x31_80609919" fill="#82C7AE" stroke="#000000" d="M3478.825,3893.448c-19.384-94.104-40.144-186.17-49.8-282.479
				c-18.597-185.477-71.074-382.848-12.644-567.084c9.863-31.109,25.869-59.668,37.581-90.036
				c15.749-40.819,22.705-77.225,46.658-114.977c24.549-38.719,69.326-67.32,102.273-99.13c8.732-8.419,20.072-16.731,17.264-30.009
				c-16.699,0.486-31.92,13.11-45.6,21.802c-43.518,27.637-75.504,51.461-104.493,93.896
				c-41.187,60.293-61.239,128.72-80.47,198.328c-14.697,53.167-26.469,107.726-30.919,162.755
				c-9.758,120.633,5.852,236.107,24.033,354.756c17.979,117.276,32.658,235.115,55.464,351.602
				c12.903,65.971,28.405,131.499,48.493,195.67c22.049,70.371,44.136,153.386,81.132,217.416
				c31.596,54.7,63.143,114.684,113.248,155.521c17.414,14.188,48.486,33.784,71.775,34.533
				c4.391-19.571-23.875-42.676-36.018-56.463c-45.379-51.557-77.004-104.586-109.188-164.864
				c-28.707-53.769-42.18-111.346-63.943-167.715c-21.852-56.587-44.427-111.019-56.235-170.907
				C3484.633,3921.796,3481.741,3907.603,3478.825,3893.448z"/>
			<path id="_x31_80609918" fill="#9AD2BD" stroke="#000000" d="M3369.168,2712.026c-41.536,98.835-90.152,195.019-119.106,298.606
				c-48.429,173.317-32.438,349.611-30.747,527.206c0.916,96.774-5.677,194.258-0.549,290.927
				c3.905,73.856,29.337,139.585,55.599,207.958c42.559,110.766,79.279,224.01,124.794,333.598
				c17.151,41.317,40.937,101.947,79.516,128.226c42.926,29.235,173.445,58.505,173.445,58.505s70.799,11.987,82.545-0.261
				c11.746-12.249-36.207-81.123-53.621-95.311c-50.105-40.837-81.648-100.823-113.248-155.521
				c-36.996-64.03-59.083-147.045-81.132-217.415c-20.088-64.17-35.59-129.7-48.493-195.671
				c-22.805-116.485-37.482-234.325-55.464-351.601c-18.18-118.649-33.788-234.123-24.033-354.756
				c4.452-55.028,16.222-109.591,30.919-162.756c19.232-69.606,39.283-138.034,80.47-198.326
				c18.142-26.562,37.459-45.83,60.044-63.307c6.346-4.911,53.725-58.586-14.596-73.159c-31.285-6.672-88.831,1.731-120.021,7.264
				C3382.468,2698.542,3370.802,2708.139,3369.168,2712.026z"/>
			<path id="_x31_80609922" fill="#54BF94" stroke="#000000" d="M3885.844,4018.878c14.018,66.588,15.564,85.481,28.676,152.248
				c7.441,37.908,17.379,77.194,25.965,114.859c11.33,49.759,49.146,284.111,167.211,289.832
				c90.965,4.402,187.154-62.874,296.736-142.01c94.379-68.157,170.629-155.905,209.072-202.081
				c183.213-220.076,329.191-620.956,282.037-912.922c-13.623-84.337-51.209-189.919-120.943-277.298
				c-35.984-45.107-87.852-100.358-144.92-154.626c-38.043-36.17-77.283-73.07-116.541-106.438
				c-48.973-41.628-46.063-45.972-102.498-80.391c-143.139-87.286-430.211-131.062-542.697,13.19
				c-52.424,67.235-105.174,145.2-138.309,223.935c-76.805,182.481,9.85,451.506,56.492,564.426
				c30.406-22.989,97.479-71.277,152.439-94.955c41.121-17.719,83.287-30.938,121.996-36.918
				c41.311-6.389,127.354-22.314,140.156,35.84c9.738,44.214-32.525,96.456-56.389,130.36
				c-66.104,93.944-130.666,187.787-211.773,269.755c-30.941,31.261-47.838,72.307-45.906,116.43
				c0.338,7.593,7.959,98.283-2.576,97.677L3885.844,4018.878z"/>
			<path id="_x31_80609927" fill="#54BF94" stroke="#000000" d="M4062.775,3363.242c-16.217-36.195-54.41-54.719-76.807-86.345
				c-1.098-1.546-2.104-3.162-3.148-4.744c-9.031-13.656-17.381-27.663-24.566-42.382c-7.629-15.621-14.322-31.718-20.396-48.002
				c-6.154-16.514-11.467-33.317-15.994-50.345c-4.369-16.434-8.227-33.036-11.244-49.771c-1.416-7.857-2.6-15.752-3.52-23.681
				c-0.443-3.831-0.832-7.67-1.18-11.508c-0.172-1.9-0.336-3.803-0.494-5.703c-0.084-1.027-1.018-4.896-0.467-5.688
				c1.596-2.285,5.344-2.486,7.83-2.854c6.502-0.967,12.807-2.714,19.275-3.816c13.049-2.221,26.113-4.201,39.197-6.194
				c13.113-2.002,26.324-3.491,39.496-5.036c13.059-1.535,26.113-3.121,39.166-4.688c12.783-1.534,25.557-3.162,38.295-5.053
				c1.541-0.229,3.082-0.46,4.627-0.695c57.25-8.733,116.322-6.31,173.066,4.848c29.393,5.779,58.414,14.156,86.412,24.785
				c18.766,7.125,77.645,24.927,54.719,55.852c-56.029,105.694-138.91,197.951-215.832,287.403l-3.953,1.145
				c-27.832-26.732-87.615-17.166-122.32-11.719L4062.775,3363.242z"/>
			<path id="_x31_80609923" fill="#54BF94" stroke="#000000" d="M4193.148,2911.343c55.492,7.995,129.799,9.728,182.135,33.074
				c38.537,17.184,139.891,97.61,181.396,89.305c81.799-16.868-88.738-110.208-104.111-119.055
				c-84.268-48.501-199.502-152.804-303.25-85.408C4084.301,2871.505,4151.254,2905.304,4193.148,2911.343z"/>
			<path id="_x31_80609924" fill="#54BF94" stroke="#000000" d="M3889.627,3987.434c-0.01,17.096-3.189,34.05,0.242,50.791
				c3.096,15.106,5.945,30.273,8.697,45.447c5.287,29.162,10.242,58.373,15.955,87.456c4.285,21.832,9.402,44.121,14.605,66.294
				l4.764,1.77c53.682,35.733,248.193,178.315,255.23,11.856c2.188-51.743-46.393-77.499-82.531-101.957
				c-20.428-13.824-40.094-28.816-58.238-45.556c-47.725-44.034-102.992-77.328-155.807-114.658L3889.627,3987.434z"/>
			<path id="_x31_80609926" fill="#54BF94" stroke="#000000" d="M4191.207,3379.624c76.914-89.443,159.783-181.69,215.814-287.37
				c13.523-25.51,29.625-14.502,49.162-0.496c20.656,14.81,39.953,31.8,57.24,50.427c35.795,38.573,62.332,85.273,76.422,136.009
				c49.813,179.352-47.219,330.954-159.508,461.398c-28.146,32.697-55.441,66.062-81.879,100.191
				c-11.484,14.827-25.947,34.55-37.664,49.734c-10.549,13.67-25.467-1.938-37.742-12.042
				c-34.918-28.737-62.633-63.466-101.143-88.835c-37.535-24.716-92.551-77.269-136.875-85.467l-11.652-1.151
				c42.352-53.645,81.375-109.85,120.947-166.09c23.863-33.905,66.129-86.146,56.389-130.361
				c-2.32-10.532-7.039-18.635-13.461-24.804L4191.207,3379.624z"/>
			<path id="_x31_80609928" fill="#54BF94" stroke="#000000" d="M4062.775,3363.242c-16.217-36.195-54.41-54.719-76.807-86.345
				c-43.945-62.048-73.799-160.13-80.434-233.44c-0.383-1.889-0.203-6.267-1.375-7.684c-1.436-1.743-6.217,0.891-7.898,1.394
				c-3.969,1.19-8.076,1.833-12.09,2.856c-4.852,1.232-9.682,2.533-14.484,3.945c-8.945,2.635-17.781,5.667-26.391,9.255
				c-8.465,3.524-16.705,7.58-24.664,12.132c-7.91,4.522-15.545,9.525-22.883,14.931c-7.352,5.418-14.412,11.238-21.096,17.465
				c-6.773,6.313-13.158,13.056-18.965,20.272c-6.053,7.525-11.455,15.568-16.092,24.041c-5.035,9.196-9.156,18.862-12.564,28.771
				c-3.76,10.928-6.666,22.13-9.156,33.411c-2.625,11.911-5.66,24.216-7.02,36.343l-0.096,0.023
				c17.68,106.07,51.68,203.66,75.363,260.999c30.408-22.988,97.48-71.276,152.441-94.956
				c41.119-17.717,124.861-37.365,126.367-37.602L4062.775,3363.242z"/>
			<path id="_x31_80609925" fill="#54BF94" stroke="#000000" d="M4023.334,3702.024c-28.377,35.646-58.248,70.151-90.781,102.76
				c-30.926,30.988-47.813,71.679-45.877,115.425c0.201,4.492,3,38.328,2.988,64.753l2.918,1.434
				c52.799,37.014,108.053,70.024,155.766,113.689c26.73,24.463,56.631,45.104,87.963,64.064l19.367-9.366
				c84.059-30.299,93.842-103.219,116.625-179.001c5.801-19.292,20.508-41.27,23.141-60.419
				c2.123-15.447-11.037-30.007-22.496-39.358c-34.912-28.497-62.623-62.933-101.125-88.091
				c-37.525-24.507-92.525-76.614-136.836-84.748L4023.334,3702.024z"/>
			<path id="_x31_80609937" fill="#54BF94" stroke="#000000" d="M4774.529,3167.803c-45.422-98.516-107.068-188.229-189.922-258.934
				c-49.09-41.899-105.717-80.865-167.412-100.802c-41.352-13.358-119.738-30.793-100.346-50.396
				c28.334-19.038,87.15,4.933,120.322,14.866c60.633,18.151,119.539,52.7,174.215,97c-32.271-30.506-65.254-61.049-98.252-89.093
				c-48.973-41.628-46.063-45.972-102.498-80.391c-143.137-87.286-430.211-131.06-542.695,13.19
				c-52.424,67.235-105.176,145.203-138.311,223.935c-37.805,89.821-36.006,200.611-18.869,303.428l0.094-0.021
				c1.361-12.128,4.395-24.432,7.021-36.344c2.486-11.279,5.393-22.482,9.154-33.411c3.408-9.908,7.529-19.574,12.563-28.771
				c4.639-8.473,10.041-16.515,16.096-24.04c5.807-7.218,12.188-13.959,18.965-20.272c6.684-6.226,13.742-12.048,21.096-17.464
				c7.336-5.406,14.971-10.408,22.881-14.933c7.961-4.554,16.201-8.607,24.664-12.13c8.613-3.588,17.445-6.621,26.391-9.255
				c4.803-1.413,9.635-2.714,14.484-3.947c4.016-1.021,8.121-1.663,12.09-2.854c1.682-0.504,6.461-3.137,7.9-1.395
				c1.17,1.419,0.99,5.797,1.375,7.684c0.398,4.414,0.887,8.922,1.451,13.501c-0.396-3.494-0.75-6.992-1.07-10.491
				c-0.174-1.9-0.336-3.804-0.494-5.703c-0.084-1.027-1.018-4.896-0.469-5.688c1.598-2.284,5.346-2.486,7.832-2.854
				c6.502-0.967,12.805-2.715,19.277-3.817c13.047-2.221,26.113-4.201,39.197-6.194c13.111-2.002,26.324-3.491,39.496-5.037
				c13.059-1.534,26.111-3.12,39.166-4.688c12.783-1.536,25.557-3.162,38.295-5.053c1.541-0.229,3.082-0.461,4.625-0.697
				c57.252-8.731,116.322-6.309,173.068,4.849c29.393,5.779,58.414,14.157,86.41,24.786c17.688,6.714,71.01,22.922,57.869,50.656
				c12.855-18.544,27.961-8.195,45.996,4.732c20.656,14.81,39.953,31.8,57.24,50.427c35.795,38.572,62.332,85.272,76.422,136.008
				c49.814,179.352-47.221,330.954-159.508,461.399c-28.145,32.696-55.441,66.062-81.879,100.19
				c-11.484,14.828-25.947,34.551-37.664,49.734c-7.488,9.706-17.178,4.651-26.564-2.711c7.193,8.254,12.635,18.202,11.211,28.553
				c-2.633,19.15-17.34,41.127-23.141,60.419c-22.783,75.781-32.564,148.699-116.625,179.001l-19.369,9.367
				c-1.117-0.673-2.221-1.355-3.334-2.036l-0.775,3.999c29.85,20.37,58.619,44.857,56.924,84.936
				c-7.039,166.459-201.553,23.875-255.232-11.854l-4.76-1.77c3.832,16.327,7.717,32.593,11.357,48.563
				c11.332,49.76,49.148,284.113,167.211,289.832c22.055,1.067,44.418-2.088,67.205-8.596l-1.014-5.258
				c-9.555,1.032-21.203-2.098-21.203-2.098c-53.434-15.768-94.854-74.221-55.094-112.851
				c60.34-58.617,183.117-103.039,280.162-191.022c94.623-85.79,132.754-139.196,190.299-244.198
				c84.609-154.367,153.832-292.485,200.154-463.773c17.51-64.745,27.045-130.111,29.354-194.896
				C4800.074,3282.663,4807.447,3239.231,4774.529,3167.803z M4556.684,3033.723c-41.508,8.305-142.859-72.122-181.398-89.306
				c-52.336-23.347-126.643-25.079-182.133-33.073c-41.895-6.039-108.848-39.837-43.83-82.083
				c103.752-67.396,218.982,36.906,303.252,85.408C4467.943,2923.514,4638.48,3016.854,4556.684,3033.723z"/>
			<path id="_x31_80609960" fill="#CCCCCC" stroke="#000000" d="M3804.619,3531.06c61.854-68.277,197.637-125.893,206.984-58.575
				c7.896,56.935-105.492,181.249-160.393,184.451C3834.619,3656.692,3770.672,3568.528,3804.619,3531.06z M3938.564,3406.651
				c-54.955,23.68-102.15,58.897-148.494,88.538c-27.363,17.493-6.654,49.617-0.855,75.724
				c23.402,105.508,26.943,214.201,53.756,319.13c8.477,33.146,10.049,67.928,20.629,100.792
				c2.902,9.005,8.072,28.246,20.477,28.959c10.535,0.607,2.912-90.083,2.576-97.678c-1.93-44.123,14.965-85.168,45.906-116.428
				c81.107-81.968,145.672-175.811,211.771-269.755c23.863-33.905,66.129-86.146,56.389-130.362
				c-12.803-58.151-98.846-42.228-140.154-35.838C4021.852,3375.716,3979.688,3388.935,3938.564,3406.651z"/>
			<path id="_x31_80609961" fill="#CCCCCC" stroke="#000000" d="M4179.961,4560.509c168.822-71.129,307.732-177.644,433.547-328.781
				c50.146-60.233,93.449-128.682,130.223-197.719c73.527-138.041,121.258-288.193,147.244-442.184
				c12.955-76.741,22.248-152.613,11.203-230.203c-10.871-76.479-25.416-153.936-70.285-230.051
				c-90.086-152.821-236.539-311.684-394.713-359.034c-33.172-9.935-91.992-33.904-120.324-14.868
				c-19.395,19.604,58.994,37.04,100.346,50.396c61.695,19.938,118.322,58.902,167.412,100.803
				c82.854,70.703,144.5,160.416,189.922,258.933c32.918,71.431,25.543,114.859,23.029,185.321
				c-2.309,64.785-11.842,130.149-29.354,194.895c-46.32,171.287-115.545,309.409-200.154,463.774
				c-57.545,105-95.676,158.408-190.299,244.197c-97.041,87.986-219.822,132.405-280.162,191.023
				c-39.764,38.629,1.658,97.083,55.094,112.851C4152.682,4559.863,4170.285,4564.595,4179.961,4560.509z"/>
			<path id="_x31_80609959" fill="#AAAAAA" stroke="#000000" d="M3804.619,3531.06c61.854-68.277,197.637-125.893,206.984-58.575
				c7.896,56.935-105.492,181.249-160.393,184.451C3834.619,3656.692,3770.672,3568.528,3804.619,3531.06z"/>
		</g>
	</g>
	<g transform="scale(1.0)">
		<g id="_x31_80609911_1_" transform=" scale(1.0, 1.0)">
			<path id="_x31_80609913_1_" fill="#BFDAE3" stroke="#000000" d="M2144.479,2586.209
				c232.025,216.419,555.346-63.836,741.996,221.684c178.914,273.689,243.551,1029.748,126.444,1423.858
				c-62.761,211.183-235.495,313.995-423.047,355.451c-479.085,105.901-801.045-45.14-1059.37-355.443
				c-183.213-220.081-329.189-620.958-282.04-912.928c13.622-84.343,51.209-189.92,120.938-277.305
				c149.966-187.938,349.349-325.796,331.849-323.35c-10.353,1.446-21.535,17.495-52.29,43.297
				c-30.755,25.803-81.085,61.357-138.411,115.106c-111.303,104.347-221.303,231.106-313.005,165.839
				c-175.577-124.961-338.741-406.528-398.454-595.834c-80.881-256.439-99.688-650.102,17.342-908.995
				c158.346-350.29,744.256-673.364,1242.329-763.895c237.542-43.175,425.529-5.573,592.927,55.062
				c278.336,100.817,316.618,390.739,358.897,708.684c34.159,256.836,19.338,473.247-12.723,650.428
				c-14.098,77.903-54.52,127.466-119.901,175.354c-31.148,22.809-65.017,43.398-106.023,58.685
				c-13.668,5.097-30.178,12.649-44.884,17.426c-70.23,22.806-156.835,46.052-233.254,53.674
				c-94.437,9.412-185.271,13.821-261.23,14.109c-97.532,0.374-176.618-27.794-168.284-25.48
				C2079.684,2485.887,2144.479,2586.215,2144.479,2586.209z"/>
			<path id="_x31_80609914_1_" fill="#B0FFB8" stroke="#000000" d="M799.083,2446.565
				c59.712,189.308,222.87,470.866,398.453,595.833c91.705,65.268,201.7-61.496,313.002-165.839
				c57.327-53.748,107.655-89.3,138.41-115.099c30.758-25.805,41.94-41.856,52.301-43.303
				c17.497-2.441-181.887,135.415-331.852,323.351c-69.733,87.381-107.317,192.961-120.944,277.299
				c-47.15,291.967,98.825,692.846,282.039,912.922c258.321,310.299,580.285,461.338,1059.368,355.442
				c187.557-41.454,360.287-144.268,423.049-355.448c117.109-394.102,52.481-1150.154-126.439-1423.842
				c-186.652-285.517-509.972-5.268-741.996-221.686c0,0-62.534-94.368-80.604-104.474c-2.248-0.764-2.892-1.073-1.704-0.743
				c0.512,0.142,1.085,0.397,1.704,0.743c13.498,4.586,85.089,25.701,168.693,25.379c75.962-0.291,166.791-4.7,261.229-14.11
				c76.417-7.621,162.76-28.121,232.983-50.927c14.71-4.776,31.488-15.071,45.151-20.17c41.01-15.287,74.884-35.878,106.032-58.685
				c65.373-47.887,105.796-97.448,119.896-175.351c32.06-177.177,46.873-393.589,12.727-650.42
				c-42.276-317.943-80.563-607.862-358.893-708.678c-167.402-60.636-355.385-98.24-592.927-55.063
				c-498.078,90.527-1083.989,413.593-1242.331,763.884C699.398,1796.473,718.201,2190.128,799.083,2446.565z M2132.395,3472.484
				c9.349-67.317,145.131-9.702,206.985,58.575c33.948,37.469-30,125.634-46.592,125.874
				C2237.886,3653.731,2124.498,3529.417,2132.395,3472.484z"/>
			<path id="_x31_80609943_1_" fill="#1F9D5A" stroke="#000000" d="M950.378,2416.707c4.982,17.443,10.799,34.958,17.441,52.292
				l-116.221,102.705l-3.218,1.454c-20.319-44.696-37.044-87.618-49.314-126.621c-34.278-108.743-57.456-242.135-63.763-379.505
				l176.542-1.476C907.405,2188.97,920.644,2312.047,950.378,2416.707z"/>
			<path id="_x31_80609942_1_" fill="#1F9D5A" stroke="#000000" d="M1192.963,2063.148c-3.963,58.909,1.193,122.669,16.972,191.918
				l-242.115,213.931c-6.642-17.336-12.455-34.849-17.439-52.292c-29.736-104.658-42.975-227.736-38.534-351.149L1192.963,2063.148z
				"/>
			<path id="_x31_80609941_1_" fill="#1F9D5A" stroke="#000000" d="M1425.278,2061.196l-0.604,4.159l-214.74,189.71
				c-15.776-69.248-20.935-133.009-16.972-191.918L1425.278,2061.196z"/>
			<path id="_x31_80609940_1_" fill="#1F9D5A" stroke="#000000" d="M2058.768,773.699c237.53-43.198,425.51-5.576,592.905,55.088
				c43.227,15.644,80.705,35.854,113.265,60.035l-117.696,155.85c-4.193-2.927-8.469-5.854-12.825-8.613
				c-137.081-88.331-289.677-107.207-441.995-89.646c-119.581,13.765-243.362,24.358-354.808,67.058
				c-99.061,37.959-194.952,76.95-288.699,126.615c-207.099,109.83-431.564,292.625-538.527,501.694
				c-60.947,119.169-93.105,271.707-98.541,423.774l-176.542,1.476c-8.593-186.561,13.754-380.379,81.16-529.442
				C974.759,1187.327,1560.696,864.246,2058.768,773.699z"/>
			<path id="_x31_80609939_1_" fill="#1F9D5A" stroke="#000000" d="M1548.918,1140.088
				c93.743-49.667,189.638-88.658,288.699-126.615c111.445-42.701,235.226-53.292,354.808-67.058
				c152.318-17.56,304.914,1.316,441.995,89.646c4.354,2.759,8.632,5.686,12.825,8.613l-157.602,208.808
				c-82.85-40.556-207.239-49.13-281.101-36.442c-103.999,17.858-300.991,97.575-390.681,152.247
				c-288.482,176.084-602.959,357.111-624.897,693.863l-281.119,2.408c5.436-152.068,37.596-304.605,98.543-423.774
				C1117.35,1432.712,1341.819,1249.917,1548.918,1140.088z"/>
			<path id="_x31_80609938_1_" fill="#1F9D5A" stroke="#000000" d="M2208.542,1217.037c73.861-12.688,198.251-4.114,281.101,36.442
				l-237.254,314.302l-12.448,0.181l-136.277,47.626l-136.097,60.075l-108.053,53.361l-122.523,74.488l-101.461,73.022
				l-115.763,100.038l-94.485,84.625l-232.314,1.951c21.937-336.75,336.415-517.778,624.897-693.863
				C1907.552,1314.612,2104.542,1234.895,2208.542,1217.037z"/>
			<path id="_x31_80609958_1_" fill="#2FA850" stroke="#000000" d="M2984.174,1353.819l-0.25,0.003l-140.77,41.135
				c-1.878-20.643-4.582-41.189-8.361-61.389c-21.211-112.004-93.791-223.099-187.548-288.896l117.694-155.851
				C2900.706,989.623,2951.638,1159.22,2984.174,1353.819z"/>
			<path id="_x31_80609957_1_" fill="#2FA850" stroke="#000000" d="M2834.791,1333.569c3.781,20.2,6.483,40.745,8.36,61.389
				l-229.71,67.238c-19.209-76.919-42.961-140.825-66.167-167.052c-14.601-16.556-34.475-30.378-57.631-41.666l157.602-208.807
				C2741.002,1110.47,2813.583,1221.564,2834.791,1333.569z"/>
			<path id="_x31_80609956_1_" fill="#2FA850" stroke="#000000" d="M2547.275,1295.143c23.206,26.227,46.958,90.134,66.168,167.053
				l-361.06,105.581l237.259-314.298C2512.799,1264.764,2532.674,1278.588,2547.275,1295.143z"/>
			<path id="_x31_80609949_1_" fill="#248A5E" stroke="#000000" d="M2052.501,2474.3c-7.015-2.803-13.865-5.943-20.39-9.334
				c-34.039-17.684-98.163-14.765-137.303-6.147c-65.122,14.389-109.038,77.116-145.467,141.145
				c-5.991,10.463-19.571,58.638-42.474,110.85c-6.106,13.95-22.662,22.822-36.767,34.814
				c-52.646,44.672-109.87,82.772-159.561,130.889c-72.937,70.781-159.416,163.759-236.623,180.398l-0.271-1.572l46.701-306.23
				c42.476-13.066,85.116-43.567,125.943-96.12c107.406-138.27,284.707-328.019,406.825-453.553
				c57.422-58.937,129.531-89.364,211.85-85.492c19.688,0.96,42.604,1.458,66.854,2.187l-78.036,355.162L2052.501,2474.3z"/>
			<path id="_x31_80609948_1_" fill="#248A5E" stroke="#000000" d="M1577.68,2146.98
				c107.196-118.344,202.389-240.167,234.948-261.722c121.771-80.537,233.078-155.775,373.505-117.3
				c6.417,1.731,13.26,4.206,20.691,7.171l-75.003,341.006c-24.251-0.729-47.167-1.228-66.854-2.187
				c-82.32-3.874-154.43,26.555-211.85,85.493c-122.118,125.532-299.419,315.283-406.823,453.551
				c-40.826,52.552-83.468,83.055-125.945,96.122l63.308-415.129C1441.912,2292.799,1509.212,2222.514,1577.68,2146.98z"/>
			<path id="_x31_80609947_1_" fill="#248A5E" stroke="#000000" d="M2252.381,1567.777l-45.56,207.352
				c-7.431-2.963-14.274-5.437-20.691-7.17c-140.427-38.477-251.733,36.763-373.506,117.3
				c-32.561,21.555-127.753,143.377-234.948,261.722c-68.468,75.533-135.768,145.818-194.024,187.003l41.02-268.629l4.754-4.218
				l-4.148,0.059l94.485-84.625l115.763-100.039l101.46-73.021l122.524-74.489l108.053-53.361l136.098-60.075l136.276-47.626
				L2252.381,1567.777z"/>
			<path id="_x31_80609955_1_" fill="#248A5E" stroke="#000000" d="M2984.174,1353.818c9.904,59.293,18.019,120.934,26.397,183.648
				c27.564,206.957,23.288,387.645,3.701,542.739l-3.243-0.451l-137.563-92.888c6.502-38.361,10.616-75.192,13.637-107.361
				c7.122-75.723-7.745-139.426-22.758-213.169c-18.311-89.385-12.927-182.017-21.193-271.38l140.77-41.135L2984.174,1353.818z"/>
			<path id="_x31_80609954_1_" fill="#248A5E" stroke="#000000" d="M2864.345,1666.334c15.014,73.744,29.881,137.447,22.759,213.17
				c-3.021,32.168-7.138,68.999-13.637,107.361l-223.405-150.749c14.337-87.863-5.167-248.287-36.619-373.922l229.711-67.238
				C2851.419,1484.32,2846.035,1576.952,2864.345,1666.334z"/>
			<path id="_x31_80609953_1_" fill="#248A5E" stroke="#000000" d="M2613.443,1462.198
				c31.451,125.634,50.954,286.057,36.619,373.921l-397.679-268.34L2613.443,1462.198z"/>
			<path id="_x31_80609952_1_" fill="#248A5E" stroke="#000000" d="M2131.819,2116.133c63.943,1.898,137.13,5.653,183.974,24.647
				c114.395,46.407,251.886,197.485,385.642,142.092c107.932-44.644,151.753-177.095,172.028-296.008l137.564,92.889l3.244,0.451
				c-4.605,37.42-10.227,73.278-16.456,107.651c-12.599,70.076-53.544,125.869-110.371,168.444
				c-117.758,88.2-268.376,125.66-393.645,136.686c-126.346,11.125-319.626,31.77-441.299-18.683l1.284-3.006L2131.819,2116.133z"/>
			<path id="_x31_80609951_1_" fill="#248A5E" stroke="#000000" d="M2633.269,1886.002c7.807-11.238,13.368-28.418,16.793-49.884
				l223.405,150.749c-20.277,118.915-64.099,251.365-172.03,296.008c-133.756,55.393-271.247-95.685-385.642-142.091
				c-46.844-18.996-120.03-22.75-183.974-24.647l75.003-341.007C2321.558,1821.946,2549.27,2006.748,2633.269,1886.002z"/>
			<path id="_x31_80609950_1_" fill="#248A5E" stroke="#000000" d="M2650.063,1836.119c-3.422,21.467-8.986,38.647-16.792,49.884
				c-84.001,120.747-311.713-64.056-426.446-110.873l45.56-207.351L2650.063,1836.119z"/>
			<path id="_x31_80609946_1_" fill="#219866" stroke="#000000" d="M967.821,2468.995
				c65.033,168.978,207.99,324.791,352.525,280.118l-46.699,306.229l0.271,1.572c-26.894,5.787-52.677,2.341-76.412-14.498
				c-139.397-99.173-270.927-297.152-349.121-469.258l3.216-1.457L967.821,2468.995z"/>
			<path id="_x31_80609945_1_" fill="#219866" stroke="#000000" d="M1219.712,2293.857c27.237,98.304,87.857,94.023,163.944,40.129
				l-63.308,415.128c-144.535,44.674-287.49-111.139-352.525-280.117l242.113-213.931
				C1212.776,2267.809,1216.033,2280.71,1219.712,2293.857z"/>
			<path id="_x31_80609944_1_" fill="#219866" stroke="#000000" d="M1383.653,2333.986
				c-76.086,53.894-136.706,58.174-163.944-40.129c-3.677-13.145-6.935-26.047-9.774-38.79l214.74-189.71L1383.653,2333.986z"/>
			<path id="_x31_80609915_1_" fill="#9AD2BD" stroke="#000000" d="M1530.493,4231.725
				c258.322,310.3,580.287,461.337,1059.368,355.443c187.557-41.454,360.287-144.27,423.048-355.45
				c117.109-394.102,52.483-1150.154-126.438-1423.842c-186.651-285.516-509.972-5.266-741.996-221.684
				c0,0-52.278-78.889-75.046-100.125l-6.117-4.542c-1.775-0.618-2.224-0.848-1.144-0.549c0.249,0.068,0.514,0.167,0.789,0.287
				l-10.196-7.572l-0.26,0.609c-7.014-2.803-13.865-5.943-20.39-9.334c-34.04-17.684-98.163-14.765-137.303-6.146
				c-65.122,14.389-109.038,77.116-145.467,141.145c-5.991,10.463-19.571,58.638-42.474,110.85
				c-1.178,2.683-2.741,5.181-4.597,7.546c3.646,6.312-187.751,141.281-332.874,323.147
				c-69.734,87.379-107.317,192.961-120.943,277.297C1201.303,3610.773,1347.278,4011.65,1530.493,4231.725z M2132.395,3472.484
				c9.349-67.317,145.131-9.702,206.985,58.575c33.948,37.469-30,125.634-46.592,125.874
				C2237.886,3653.731,2124.498,3529.417,2132.395,3472.484z"/>
			<path id="_x31_80609916_1_" fill="#9AD2BD" stroke="#000000" d="M2278.585,2661.328
				c210.863,58.145,455.129-87.097,607.884,146.553c178.924,273.688,243.549,1029.741,126.438,1423.843
				c-62.761,211.184-235.67,313.227-423.049,355.45c-106.137,23.913-191.041,32.619-269.291,33.644
				c-81.362,1.073-155.518-6.357-239.009-24.895c0,0,54.337-14.08,81.397-63.442c45.535-83.095,71.34-216.644,78.456-247.861
				c32.862-144.259,29.342-294.108,66.61-434.909c32.354-122.236,19.012-214.103,64.395-330.204
				c70.295-179.799,130.08-436.236,77.985-577.306c-29.585-80.135-77.579-156.821-130.005-224.058
				C2309.747,2704.483,2278.585,2661.328,2278.585,2661.328z"/>
			<path id="_x31_80609917_1_" fill="#82C7AE" stroke="#000000" d="M2886.47,2807.884
				c178.922,273.688,243.548,1029.74,126.438,1423.842c-15.847,53.324-40.217,105.553-74.065,149.758
				c-46.711,61.002-107.23,109.682-175.081,145.316c-38.783,20.375-81.04,32.877-123.236,43.978
				c-28.493,7.487-83.291,35.065-111.832,27.828c-18.089-4.587-18.42-16.209-2.829-28.739
				c42.141-33.862,96.533-42.084,139.459-71.319c38.578-26.278,62.365-86.908,79.515-128.226
				c45.515-109.588,82.235-222.832,124.794-333.598c26.264-68.373,51.694-134.103,55.601-207.958
				c5.126-96.669-1.467-194.152-0.551-290.928c1.693-177.596,17.684-353.888-30.745-527.205
				c-30.092-107.661-81.425-207.324-123.972-310.281C2816.797,2731.557,2855.147,2759.973,2886.47,2807.884z"/>
			<path id="_x31_80609921_1_" fill="#82C7AE" stroke="#000000" d="M2278.581,2661.328c6.895,9.542,51.282,11.103,62.479,12.172
				c41.8,3.992,74.508-1.232,111.256,20.57c37.455,22.22,74.112,40.625,104.94,72.565c29.512,30.577,47.229,73.382,66.533,110.904
				c66.629,129.538,100.029,265.497,95.6,411.243c-4.688,155.038-30.864,309.354-62.946,460.798
				c-23.405,110.494-44.16,221.608-76.113,330.086c-29.681,100.754-76.701,195.437-126.338,287.749
				c-21.52,40.048-58.112,89.068-103.936,103.821c-39.244,12.636-98.44,27.962-131.681-5.684
				c-20.102-20.354-7.287-35.285-2.577-59.728c11.136-57.871,25.153-112.85,36.32-170.331
				c11.796-60.771,14.904-122.881,21.654-184.317c7.356-67.049,16.967-136.172,34.249-201.467
				c32.354-122.236,19.012-214.103,64.395-330.204c70.295-179.799,130.08-436.236,77.985-577.306
				c-29.585-80.135-77.579-156.821-130.005-224.058C2309.747,2704.483,2278.585,2661.335,2278.581,2661.328z"/>
			<path id="_x31_80609920_1_" fill="#9AD2BD" stroke="#000000" d="M2375.113,4476.537c7.202,2.035,23.855-5.947,27.874-10.92
				c8.034-9.946,18.136-19.167,24.207-26.062c45.377-51.557,77.005-104.586,109.188-164.865
				c28.706-53.771,42.181-111.345,63.942-167.716c21.853-56.585,44.428-111.019,56.236-170.905
				c2.805-14.27,5.697-28.463,8.61-42.617c19.387-94.104,40.146-186.17,49.8-282.48c18.598-185.477,71.074-382.847,12.646-567.084
				c-9.865-31.106-25.869-59.667-37.581-90.035c-15.751-40.822-22.707-77.228-46.66-114.978
				c-14.546-22.944-36.194-42.332-58.278-60.945c0,0-7.611-5.634-11.897-5.228c-3.992,0.38-4.762,6.7-2.768,9.295
				c21.982,28.628,37.11,63.957,53.359,95.544c66.631,129.536,100.031,265.497,95.601,411.241
				c-4.688,155.04-30.864,309.356-62.945,460.8c-23.408,110.493-44.162,221.606-76.115,330.084
				c-29.68,100.756-76.701,195.437-126.338,287.749c-17.627,32.803-45.367,71.626-80.01,92.706
				C2370.159,4462.449,2367.912,4474.501,2375.113,4476.537z"/>
			<path id="_x31_80609919_1_" fill="#82C7AE" stroke="#000000" d="M2656.562,3936.062c-11.809,59.889-34.385,114.32-56.236,170.907
				c-21.763,56.369-35.235,113.946-63.942,167.715c-32.184,60.278-63.81,113.308-109.188,164.864
				c-12.143,13.787-40.409,36.892-36.019,56.463c23.29-0.749,54.362-20.346,71.775-34.533
				c50.106-40.837,81.653-100.82,113.248-155.521c36.996-64.03,59.084-147.045,81.133-217.416
				c20.088-64.171,35.59-129.699,48.493-195.67c22.806-116.486,37.484-234.325,55.464-351.602
				c18.182-118.648,33.791-234.123,24.033-354.756c-4.45-55.029-16.222-109.588-30.919-162.755
				c-19.23-69.608-39.283-138.035-80.47-198.328c-28.989-42.435-60.976-66.259-104.493-93.896
				c-13.681-8.691-28.901-21.315-45.6-21.802c-2.809,13.277,8.53,21.59,17.264,30.009c32.947,31.81,77.724,60.411,102.273,99.13
				c23.953,37.752,30.909,74.157,46.658,114.977c11.712,30.368,27.718,58.927,37.581,90.036
				c58.431,184.236,5.953,381.607-12.644,567.084c-9.656,96.31-30.416,188.375-49.8,282.479
				C2662.259,3907.603,2659.367,3921.796,2656.562,3936.062z"/>
			<path id="_x31_80609918_1_" fill="#9AD2BD" stroke="#000000" d="M2748.512,2696.232c-31.19-5.532-88.736-13.936-120.021-7.264
				c-68.32,14.573-20.941,68.248-14.596,73.159c22.585,17.477,41.902,36.745,60.044,63.307
				c41.187,60.292,61.237,128.72,80.47,198.326c14.697,53.165,26.467,107.728,30.919,162.756
				c9.755,120.633-5.854,236.106-24.033,354.756c-17.981,117.275-32.659,235.115-55.464,351.601
				c-12.903,65.971-28.405,131.501-48.493,195.671c-22.049,70.37-44.137,153.385-81.133,217.415
				c-31.599,54.698-63.142,114.685-113.248,155.521c-17.413,14.188-65.367,83.062-53.62,95.311
				c11.746,12.248,82.545,0.261,82.545,0.261s130.519-29.27,173.445-58.505c38.579-26.278,62.364-86.908,79.516-128.226
				c45.515-109.588,82.235-222.832,124.794-333.598c26.262-68.373,51.693-134.102,55.599-207.958
				c5.128-96.669-1.465-194.152-0.549-290.927c1.691-177.595,17.682-353.889-30.747-527.206
				c-28.954-103.588-77.57-199.771-119.106-298.606C2773.198,2708.139,2761.532,2698.542,2748.512,2696.232z"/>
			<path id="_x31_80609922_1_" fill="#54BF94" stroke="#000000" d="M2259.927,4019.791c-10.534,0.606-2.913-90.084-2.575-97.677
				c1.931-44.123-14.966-85.169-45.906-116.43c-81.108-81.968-145.671-175.811-211.774-269.755
				c-23.862-33.904-66.127-86.146-56.388-130.36c12.803-58.154,98.845-42.229,140.155-35.84
				c38.71,5.98,80.875,19.199,121.997,36.918c54.961,23.678,122.033,71.966,152.439,94.955
				c46.642-112.92,133.296-381.944,56.491-564.426c-33.135-78.734-85.884-156.699-138.309-223.935
				c-112.486-144.252-399.559-100.476-542.697-13.19c-56.435,34.419-53.524,38.763-102.497,80.391
				c-39.258,33.368-78.499,70.269-116.542,106.438c-57.068,54.268-108.936,109.519-144.92,154.626
				c-69.734,87.379-107.319,192.961-120.943,277.298c-47.153,291.966,98.824,692.846,282.038,912.922
				c38.443,46.176,114.693,133.924,209.071,202.081c109.582,79.136,205.771,146.412,296.737,142.01
				c118.063-5.721,155.88-240.073,167.21-289.832c8.586-37.665,18.523-76.951,25.965-114.859
				c13.111-66.767,14.658-85.66,28.676-152.248L2259.927,4019.791z"/>
			<path id="_x31_80609927_1_" fill="#54BF94" stroke="#000000" d="M2079.063,3369.05c-34.706-5.447-94.488-15.014-122.321,11.719
				l-3.952-1.145c-76.922-89.452-159.803-181.709-215.832-287.403c-22.927-30.925,35.953-48.727,54.719-55.852
				c27.997-10.629,57.019-19.006,86.411-24.785c56.745-11.157,115.816-13.581,173.067-4.848c1.544,0.235,3.085,0.466,4.627,0.695
				c12.737,1.891,25.511,3.519,38.294,5.053c13.054,1.567,26.107,3.153,39.166,4.688c13.172,1.545,26.384,3.034,39.496,5.036
				c13.084,1.993,26.148,3.974,39.197,6.194c6.47,1.103,12.774,2.85,19.276,3.816c2.486,0.368,6.234,0.569,7.829,2.854
				c0.552,0.791-0.383,4.66-0.467,5.688c-0.158,1.9-0.321,3.803-0.494,5.703c-0.348,3.838-0.735,7.677-1.18,11.508
				c-0.919,7.929-2.104,15.823-3.52,23.681c-3.017,16.735-6.875,33.338-11.244,49.771c-4.526,17.027-9.839,33.831-15.994,50.345
				c-6.073,16.284-12.768,32.381-20.396,48.002c-7.186,14.719-15.535,28.726-24.565,42.382c-1.045,1.582-2.052,3.198-3.148,4.744
				c-22.396,31.626-60.59,50.149-76.808,86.345L2079.063,3369.05z"/>
			<path id="_x31_80609923_1_" fill="#54BF94" stroke="#000000" d="M1994.682,2829.259
				c-103.749-67.396-218.982,36.907-303.251,85.408c-15.372,8.847-185.91,102.187-104.111,119.055
				c41.506,8.306,142.859-72.121,181.396-89.305c52.336-23.347,126.643-25.079,182.135-33.074
				C1992.746,2905.304,2059.699,2871.505,1994.682,2829.259z"/>
			<path id="_x31_80609924_1_" fill="#54BF94" stroke="#000000" d="M2251.454,3988.877
				c-52.814,37.33-108.081,70.624-155.807,114.658c-18.144,16.739-37.81,31.731-58.238,45.556
				c-36.139,24.458-84.718,50.214-82.531,101.957c7.038,166.459,201.55,23.877,255.231-11.856l4.764-1.77
				c5.203-22.173,10.319-44.462,14.604-66.294c5.713-29.083,10.669-58.294,15.956-87.456c2.751-15.174,5.601-30.341,8.696-45.447
				c3.433-16.741,0.252-33.695,0.242-50.791L2251.454,3988.877z"/>
			<path id="_x31_80609926_1_" fill="#54BF94" stroke="#000000" d="M1956.742,3380.768c-6.422,6.169-11.142,14.271-13.461,24.804
				c-9.74,44.215,32.525,96.456,56.388,130.361c39.573,56.24,78.596,112.445,120.948,166.09l-11.653,1.151
				c-44.324,8.198-99.339,60.751-136.874,85.467c-38.511,25.369-66.225,60.098-101.143,88.835
				c-12.276,10.104-27.193,25.712-37.743,12.042c-11.716-15.185-26.179-34.907-37.663-49.734
				c-26.438-34.13-53.733-67.494-81.88-100.191c-112.288-130.444-209.319-282.047-159.507-461.398
				c14.09-50.735,40.626-97.436,76.421-136.009c17.287-18.627,36.584-35.617,57.24-50.427c19.537-14.006,35.64-25.014,49.163,0.496
				c56.031,105.68,138.899,197.927,215.814,287.37L1956.742,3380.768z"/>
			<path id="_x31_80609928_1_" fill="#54BF94" stroke="#000000" d="M2079.066,3369.054c1.506,0.236,85.247,19.885,126.367,37.602
				c54.96,23.68,122.033,71.968,152.44,94.956c23.684-57.339,57.685-154.929,75.363-260.999l-0.096-0.023
				c-1.359-12.127-4.394-24.432-7.02-36.343c-2.489-11.281-5.396-22.483-9.156-33.411c-3.408-9.908-7.528-19.574-12.563-28.771
				c-4.638-8.473-10.039-16.516-16.093-24.041c-5.807-7.217-12.191-13.96-18.965-20.272c-6.684-6.227-13.744-12.047-21.096-17.465
				c-7.338-5.405-14.972-10.408-22.882-14.931c-7.96-4.552-16.2-8.607-24.664-12.132c-8.61-3.588-17.445-6.62-26.392-9.255
				c-4.803-1.412-9.633-2.713-14.483-3.945c-4.015-1.023-8.121-1.666-12.091-2.856c-1.682-0.503-6.462-3.137-7.898-1.394
				c-1.171,1.417-0.991,5.795-1.375,7.684c-6.634,73.311-36.487,171.393-80.433,233.44c-22.396,31.626-60.59,50.149-76.808,86.345
				L2079.066,3369.054z"/>
			<path id="_x31_80609925_1_" fill="#54BF94" stroke="#000000" d="M2109.014,3703.166c-44.311,8.134-99.312,60.241-136.836,84.748
				c-38.503,25.158-66.214,59.594-101.125,88.091c-11.46,9.352-24.619,23.911-22.496,39.358
				c2.632,19.149,17.339,41.127,23.14,60.419c22.784,75.782,32.566,148.702,116.625,179.001l19.368,9.366
				c31.331-18.961,61.232-39.602,87.963-64.064c47.713-43.665,102.966-76.676,155.766-113.689l2.918-1.434
				c-0.013-26.425,2.786-60.261,2.988-64.753c1.935-43.746-14.951-84.437-45.877-115.425
				c-32.534-32.608-62.405-67.113-90.781-102.76L2109.014,3703.166z"/>
			<path id="_x31_80609937_1_" fill="#54BF94" stroke="#000000" d="M1346.437,3353.122c2.309,64.784,11.845,130.15,29.354,194.896
				c46.322,171.288,115.545,309.406,200.154,463.773c57.545,105.002,95.676,158.408,190.299,244.198
				c97.045,87.983,219.822,132.405,280.162,191.022c39.76,38.63-1.659,97.083-55.093,112.851c0,0-11.649,3.13-21.203,2.098
				l-1.014,5.258c22.786,6.508,45.15,9.663,67.204,8.596c118.063-5.719,155.88-240.072,167.211-289.832
				c3.641-15.971,7.525-32.236,11.358-48.563l-4.761,1.77c-53.68,35.729-248.193,178.313-255.232,11.854
				c-1.694-40.078,27.075-64.565,56.924-84.936l-0.775-3.999c-1.113,0.681-2.217,1.363-3.334,2.036l-19.369-9.367
				c-84.06-30.302-93.842-103.22-116.625-179.001c-5.8-19.292-20.508-41.269-23.141-60.419
				c-1.423-10.351,4.019-20.299,11.211-28.553c-9.386,7.362-19.075,12.417-26.564,2.711c-11.716-15.184-26.179-34.906-37.663-49.734
				c-26.438-34.129-53.735-67.494-81.88-100.19c-112.287-130.445-209.321-282.048-159.507-461.399
				c14.09-50.735,40.626-97.436,76.421-136.008c17.287-18.627,36.584-35.617,57.24-50.427c18.035-12.928,33.142-23.276,45.997-4.732
				c-13.141-27.734,40.181-43.942,57.868-50.656c27.997-10.629,57.019-19.007,86.41-24.786
				c56.746-11.157,115.816-13.58,173.069-4.849c1.542,0.236,3.083,0.468,4.625,0.697c12.737,1.891,25.511,3.517,38.295,5.053
				c13.054,1.567,26.106,3.153,39.166,4.688c13.172,1.546,26.385,3.035,39.496,5.037c13.083,1.993,26.149,3.974,39.197,6.194
				c6.472,1.103,12.775,2.851,19.277,3.817c2.486,0.367,6.234,0.569,7.831,2.854c0.55,0.791-0.384,4.66-0.468,5.688
				c-0.158,1.899-0.321,3.803-0.495,5.703c-0.32,3.499-0.674,6.997-1.07,10.491c0.565-4.579,1.053-9.087,1.452-13.501
				c0.384-1.887,0.205-6.265,1.375-7.684c1.439-1.742,6.218,0.891,7.899,1.395c3.969,1.191,8.075,1.833,12.09,2.854
				c4.851,1.233,9.682,2.534,14.484,3.947c8.946,2.634,17.778,5.667,26.392,9.255c8.463,3.522,16.703,7.576,24.663,12.13
				c7.91,4.524,15.546,9.526,22.882,14.933c7.353,5.416,14.411,11.238,21.095,17.464c6.777,6.313,13.159,13.055,18.966,20.272
				c6.054,7.525,11.457,15.567,16.095,24.04c5.033,9.196,9.154,18.862,12.563,28.771c3.761,10.929,6.667,22.132,9.154,33.411
				c2.626,11.912,5.66,24.216,7.021,36.344l0.094,0.021c17.136-102.816,18.935-213.606-18.87-303.428
				c-33.135-78.731-85.886-156.699-138.31-223.935c-112.485-144.25-399.56-100.476-542.696-13.19
				c-56.435,34.419-53.524,38.763-102.498,80.391c-32.997,28.044-65.979,58.587-98.251,89.093
				c54.675-44.3,113.581-78.849,174.215-97c33.172-9.934,91.987-33.904,120.321-14.866c19.394,19.604-58.994,37.038-100.346,50.396
				c-61.694,19.937-118.321,58.902-167.412,100.802c-82.854,70.704-144.499,160.418-189.921,258.934
				C1336.552,3239.231,1343.926,3282.663,1346.437,3353.122z M1691.425,2914.669c84.271-48.502,199.5-152.804,303.252-85.408
				c65.018,42.246-1.935,76.044-43.83,82.083c-55.49,7.994-129.797,9.727-182.133,33.073
				c-38.538,17.184-139.891,97.61-181.397,89.306C1505.519,3016.854,1676.057,2923.514,1691.425,2914.669z"/>
			<path id="_x31_80609960_1_" fill="#CCCCCC" stroke="#000000" d="M2292.788,3656.936c-54.9-3.202-168.289-127.517-160.393-184.451
				c9.349-67.317,145.131-9.702,206.985,58.575C2373.328,3568.528,2309.38,3656.692,2292.788,3656.936z M2083.436,3369.733
				c-41.31-6.39-127.353-22.313-140.155,35.838c-9.74,44.216,32.525,96.457,56.389,130.362
				c66.101,93.944,130.665,187.787,211.772,269.755c30.94,31.26,47.835,72.305,45.906,116.428
				c-0.337,7.595-7.959,98.285,2.576,97.678c12.403-0.713,17.573-19.954,20.477-28.959c10.579-32.864,12.151-67.646,20.628-100.792
				c26.813-104.929,30.354-213.622,53.756-319.13c5.799-26.106,26.508-58.23-0.855-75.724
				c-46.344-29.641-93.538-64.858-148.494-88.538C2164.313,3388.935,2122.147,3375.716,2083.436,3369.733z"/>
			<path id="_x31_80609961_1_" fill="#CCCCCC" stroke="#000000" d="M1991.311,4559.862c53.435-15.768,94.856-74.222,55.094-112.851
				c-60.341-58.618-183.121-103.037-280.163-191.023c-94.623-85.789-132.754-139.197-190.299-244.197
				c-84.608-154.365-153.833-292.487-200.153-463.774c-17.513-64.745-27.046-130.109-29.354-194.895
				c-2.514-70.462-9.889-113.891,23.03-185.321c45.422-98.517,107.067-188.229,189.921-258.933
				c49.091-41.9,105.717-80.864,167.412-100.803c41.352-13.356,119.741-30.793,100.346-50.396
				c-28.331-19.036-87.151,4.934-120.323,14.868c-158.175,47.351-304.627,206.213-394.714,359.034
				c-44.869,76.115-59.414,153.572-70.284,230.051c-11.045,77.59-1.753,153.462,11.202,230.203
				c25.987,153.99,73.717,304.143,147.245,442.184c36.773,69.037,80.075,137.485,130.223,197.719
				c125.814,151.138,264.725,257.652,433.546,328.781C1973.715,4564.595,1991.318,4559.863,1991.311,4559.862z"/>
			<path id="_x31_80609959_1_" fill="#AAAAAA" stroke="#000000" d="M2292.788,3656.936c-54.9-3.202-168.289-127.517-160.393-184.451
				c9.349-67.317,145.131-9.702,206.985,58.575C2373.328,3568.528,2309.38,3656.692,2292.788,3656.936z"/>
		</g>
	</g>
</g>
</svg>
