<?xml version="1.0" encoding="utf-8"?>
<!-- Generator: Adobe Illustrator 16.0.0, SVG Export Plug-In . SVG Version: 6.00 Build 0)  -->
<!DOCTYPE svg PUBLIC "-//W3C//DTD SVG 1.1//EN" "http://www.w3.org/Graphics/SVG/1.1/DTD/svg11.dtd">
<svg version="1.1" id="Layer_1" xmlns="http://www.w3.org/2000/svg" xmlns:xlink="http://www.w3.org/1999/xlink" x="0px" y="0px"
	 width="4992px" height="4816px" viewBox="0 0 4992 4816" enable-background="new 0 0 4992 4816" xml:space="preserve">
<g>
	<g transform="scale(1.0)">
		<g id="_x31_80606872" transform=" scale(1.0, 1.0)">
			<path id="_x31_80606874" fill="#BFDAE3" stroke="#000000" d="M4297.303,3337.085c-43.422,67.218-93.121,129.196-140.934,181.706
				c-178.744,196.275-523.68,315.545-782.057,298.982c-312.342-20.012-562.195-209.224-697.852-486.224
				c-79.883-163.114-164.377-383.012-178.67-565.213c-12.341-157.285,42.635-311.822,70.523-464.83
				c56.932-312.378,50.637-648.517,227.758-923.005c58.354-90.446,112.191-197.908,197.033-266.758
				c101.016-81.973,236.201-109.934,364.154-114.652c165.914-6.11,363.342,58.027,497.807,153.841
				c81.289,57.922,186.404,132.777,250.402,208.556c186.098,220.367,287.73,476.01,297.488,766.142
				c3.775,112.23,6.867,224.924-1.725,337.031c-7.111,92.786-37.861,172.87-24.193,267.086
				c12.773,87.991,50.586,175.142,46.871,265.103C4419.127,3110.888,4366.1,3230.57,4297.303,3337.085z"/>
			<path id="_x31_80606875" fill="#B0FFB8" stroke="#000000" d="M4105.467,1359.489c-63.996-75.779-169.113-150.634-250.4-208.557
				c-134.467-95.813-331.893-159.95-497.809-153.839c-127.951,4.717-263.139,32.678-364.154,114.651
				c-84.842,68.85-138.678,176.311-197.033,266.758c-177.119,274.487-170.824,610.626-227.758,923.005
				c-27.887,153.009-82.864,307.546-70.523,464.831c14.295,182.2,98.787,402.099,178.67,565.212
				c135.656,277,385.51,466.214,697.852,486.224c258.377,16.564,603.313-102.706,782.059-298.982
				c47.813-52.51,97.51-114.488,140.932-181.706c68.797-106.516,121.824-226.197,126.607-342.235
				c3.715-89.96-34.098-177.11-46.871-265.102c-13.668-94.216,17.082-174.3,24.193-267.086c8.59-112.108,5.5-224.802,1.725-337.031
				C4393.199,1835.498,4291.566,1579.855,4105.467,1359.489z M3485.578,2035.636c1.125,30.588-5.527,45.994-20.754,71.14
				c-23.537,38.855-33.486,82.334-42.367,126.462c-7.266,36.108-11.031,76.895-34.348,106.989
				c-7.193-23.848,5.002-55.771,8.525-80.582c3.789-26.757,6.461-53.771,9.709-81.146c7.082-59.926,13.348-116.261,14.461-175.461
				l-3.971,54.065c0.443-20.882-3.766-120.703,33.592-120.174C3481.777,1937.366,3484.818,2015.506,3485.578,2035.636z"/>
			<path id="_x31_80606876" fill="#9AD2BD" stroke="#000000" d="M4105.467,1359.489c-63.996-75.779-169.113-150.634-250.4-208.557
				c-134.467-95.813-331.893-159.95-497.809-153.839c-127.951,4.717-263.139,32.678-364.154,114.651
				c-84.842,68.85-138.678,176.311-197.033,266.758c-177.119,274.487-170.824,610.626-227.758,923.005
				c-27.887,153.009-82.864,307.546-70.523,464.831c14.295,182.2,98.787,402.099,178.67,565.212
				c135.656,277,385.51,466.214,697.852,486.224c258.377,16.564,603.313-102.706,782.059-298.982
				c47.813-52.51,97.51-114.488,140.932-181.706c68.797-106.516,121.824-226.197,126.607-342.235
				c3.715-89.96-34.098-177.11-46.871-265.102c-13.668-94.216,17.082-174.3,24.193-267.086c8.59-112.108,5.5-224.802,1.725-337.031
				C4393.199,1835.498,4291.566,1579.855,4105.467,1359.489z M3485.578,2035.636c1.125,30.588-5.527,45.994-20.754,71.14
				c-23.537,38.855-33.486,82.334-42.367,126.462c-7.266,36.108-11.031,76.895-34.348,106.989
				c-7.193-23.848,5.002-55.771,8.525-80.582c3.789-26.757,6.461-53.771,9.709-81.146c7.082-59.926,13.348-116.261,14.461-175.461
				l-3.971,54.065c0.443-20.882-3.766-120.703,33.592-120.174C3481.777,1937.366,3484.818,2015.506,3485.578,2035.636z"/>
			<path id="_x31_80606877" fill="#9AD2BD" stroke="#000000" d="M4105.467,1359.489c-63.996-75.779-169.113-150.634-250.4-208.557
				c-134.467-95.813-331.893-159.95-497.809-153.839c-127.951,4.717-263.139,32.678-364.154,114.651
				c-84.842,68.85-138.678,176.311-197.033,266.758c-177.119,274.487-170.824,610.626-227.758,923.005
				c-27.887,153.009-82.864,307.546-70.523,464.831c14.295,182.2,98.787,402.099,178.67,565.212
				c135.656,277,385.51,466.214,697.852,486.224c258.377,16.564,603.313-102.706,782.059-298.982
				c47.813-52.51,97.51-114.488,140.932-181.706c68.797-106.516,121.824-226.197,126.607-342.235
				c3.715-89.96-34.098-177.11-46.871-265.102c-13.668-94.216,17.082-174.3,24.193-267.086c8.59-112.108,5.5-224.802,1.725-337.031
				C4393.199,1835.498,4291.566,1579.855,4105.467,1359.489z M3485.578,2035.636c1.125,30.588-5.527,45.994-20.754,71.14
				c-23.537,38.855-33.486,82.334-42.367,126.462c-7.266,36.108-11.031,76.895-34.348,106.989
				c-7.193-23.848,5.002-55.771,8.525-80.582c3.789-26.757,6.461-53.771,9.709-81.146c7.082-59.926,13.348-116.261,14.461-175.461
				l-3.971,54.065c0.443-20.882-3.766-120.703,33.592-120.174C3481.777,1937.366,3484.818,2015.506,3485.578,2035.636z"/>
			<path id="_x31_80606878" fill="#82C7AE" stroke="#000000" d="M2726.439,1792.61c-11.715,150.578-5.143,301.529-19.586,452.268
				c-16.834,175.81-49.807,353.283-38.115,530.446c4.607,69.824,17.824,141.262,34.703,209.064
				c32.813,131.863,92.16,251.127,162.559,366.604c33.768,55.402,68.152,111.031,109.092,161.504
				c39.363,48.537,89.799,103.846,143.512,136.771c66.09,40.521,142.521,83.911,222.205,83.872
				c56.625-0.026,125.523-15.443,174.508-44.776c39.615-23.721,70.574-58.799,98.293-95.183
				c30.494-40.035,62.551-78.793,90.102-121.112c95.078-146.043,128.824-320.675,184.445-483.283
				c37.348-109.177,106.51-183.19,184.295-264.547c85.828-89.772,163.176-225.159,217.012-337.185
				c52.322-108.867,44.234-241.996,45.514-359.912c1.307-121.002-3.455-250.064-41.271-366.152
				c-3.547-10.876-7.51-21.691-11.838-32.435c-46.105-94.831-105.033-184.526-176.396-269.026
				c-63.994-75.776-169.117-150.63-250.406-208.55c-134.467-95.809-331.895-159.947-497.814-153.834
				c-127.951,4.717-263.141,32.678-364.156,114.653c-1.863,1.509-3.695,3.05-5.531,4.587
				c-50.385,42.549-89.77,98.706-125.947,156.263c-19.145,34.169-35.783,70.402-50.205,107.891
				C2759.801,1514.699,2736.385,1664.784,2726.439,1792.61z M2914.75,1539.024c28.666-60.042,17.166-126.262,43.633-187.039
				c26.908-61.804,73.77-113.75,120.484-160.861c35.645-35.944,87.129-94.081,142.561-94.146
				c22.172-0.023,41.406,12.563,64.5,11.622c30.047-1.23,57.533-15.21,87.123-18.886c30.439-3.779,60.979-7.606,91.686-4.805
				c134.26,12.249,213.449,68.404,303.582,161.283c43.639,44.961,84.57,86.599,133.121,126.071
				c35.041,28.477,88.127,66.584,111.246,106.116c22.303,38.122,28.678,84.746,48.957,124.729
				c38.641,76.188,89.02,146.291,112.473,229.23c25.545,90.317,49.064,199.163,15.018,290.375
				c-19.887,53.254-44.797,101.9-61.486,157.347c-45.205,150.13-123.75,282.601-244.861,384.919
				c-77.99,65.904-139.021,122.785-176.887,221.491c-78.982,205.947-29.08,549.42-273.078,656.504
				c-163.639,71.819-364.418-19.042-459.279-155.964c-103.676-149.632-149.857-303.004-178.367-480.819
				c-18.461-115.107,25.16-249.329,47.867-362.427c14.266-71.043,69.074-101.305,88.594-167.26
				c29.746-100.575-49.363-204.724-36.086-304.424c7.172-53.821,22.326-92.561,15.451-149.459
				C2895.371,1793.23,2855.352,1663.435,2914.75,1539.024z"/>
			<path id="_x31_80606882" fill="#82C7AE" stroke="#000000" d="M3843.238,1833.958c34.484,61.72,62.377,127.617,71.244,198.276
				c31.959,254.861-252.123,334.227-362.354,511.972c-40.662,65.568-77.764,134.229-101.18,208.025
				c-20.342,64.127-20.635,125.794-25.938,191.762c-9.129,113.644-7.752,278.539-98.195,364.015
				c-85.23,80.539-203.592-19.71-237.674-106.935c-28.393-72.656-53.424-151.634-60.742-229.732
				c-7.543-80.591,13.641-159.687,25.119-238.843c15.289-105.546,88.818-199.03,117.33-301.545
				c34.674-124.631,44.813-258.683,18.557-385.944c-22.967-111.283-63.414-218.733-60.574-332.466
				c2.842-113.947,50.063-246.375,143.545-316.626c128.393-96.502,247.113-6.579,334.813,93.014
				c45.656,51.853,87.248,107.015,125.834,164.252C3772.494,1711.717,3808.846,1772.416,3843.238,1833.958z M3420.791,2003.013
				c-1.105,59.197-7.371,115.537-14.461,175.464c-3.244,27.37-5.918,54.386-9.699,81.143c-3.523,24.814-15.727,56.736-8.531,80.584
				c23.314-30.094,27.08-70.881,34.346-106.991c8.881-44.125,18.828-87.604,42.367-126.466
				c15.234-25.143,21.879-40.546,20.752-71.136c-0.75-20.136-3.793-98.277-35.15-98.713c-37.357-0.523-33.15,99.295-33.592,120.179"
				/>
			<path id="_x31_80606881" fill="#9AD2BD" stroke="#000000" d="M3296.111,3387.89c98.316-1.787,130.102-106.554,139.105-187.446
				c13.729-123.148,9.348-244.075,38.947-366.246c25.787-106.459,71.838-204.558,145.006-286.435
				c41.061-45.947,73.707-88.039,126.047-119.434c29.061-17.436,57.898-38.556,84.918-62.619
				c75.924-67.606,137.438-158.442,148.951-255.919c7.295-61.781,1.611-125.828-17.146-185.036
				c-34.436-108.682-99.756-200.646-168.152-290.192c-73.301-95.968-138.688-195.89-233.668-273.036
				c-88.807-72.13-210.258-100.942-314.945-43.071c-116.545,64.436-137.98,196.183-149.555,315.809
				c-3.65,37.843-13.326,72.719-11.686,111.32c6.09,142.42,76.07,271.093,86.709,412.613c7.025,93.569-4.641,188.107-30.43,278.192
				c-34.434,120.296-108.461,225.602-134.727,348.617c-28.064,131.436,5.855,280.214,50.945,403.973
				C3094.713,3294.002,3173.926,3390.107,3296.111,3387.89z M3028.412,2971.35c-7.545-80.584,13.639-159.681,25.119-238.835
				c15.289-105.544,88.818-199.028,117.332-301.538c34.672-124.628,44.803-258.676,18.549-385.934
				c-22.957-111.281-63.406-218.728-60.568-332.459c2.846-113.943,50.064-246.372,143.539-316.616
				c128.404-96.502,247.121-6.583,334.813,93.006c45.658,51.85,87.25,107.016,125.844,164.25
				c39.469,58.532,75.818,119.228,110.203,180.767c34.492,61.716,62.385,127.613,71.242,198.27
				c31.967,254.855-252.117,334.218-362.346,511.964c-40.66,65.568-77.766,134.227-101.182,208.017
				c-20.342,64.126-20.635,125.794-25.938,191.762c-9.129,113.641-7.744,278.531-98.195,364.006
				c-85.23,80.535-203.592-19.708-237.672-106.931C3060.76,3128.424,3035.729,3049.447,3028.412,2971.35z"/>
			<path id="_x31_80606880" fill="#82C7AE" stroke="#000000" d="M3860.58,2375.956c-80.744,64.279-171.061,111.67-235.984,194.322
				c-101.076,128.719-141.031,276.128-151.297,437.121c-8.104,127.151-2.203,409.214-187.479,410.59
				c-212,1.579-303.26-246.519-318.83-422.507c-3.98-45.006-14.623-91.276-12.521-136.497
				c7.32-156.91,109.191-279.384,151.875-425.665c37.588-128.835,44.975-265.411,11.998-394.795
				c-33.025-129.578-82.537-265-57.918-399.988c18.592-101.965,31.854-224.405,108.996-301.227
				c100.936-100.507,249.346-102.825,362.912-30.658c145.334,92.342,266.957,224.717,353.184,373.316
				c78.371,135.063,168.293,322.379,126.555,482.502C3986.299,2261.322,3936.977,2315.135,3860.58,2375.956z M3979.074,2109.768
				c7.305-61.782,1.617-125.832-17.146-185.04c-34.438-108.685-99.75-200.653-168.154-290.2
				c-73.293-95.972-138.678-195.895-233.662-273.045c-88.813-72.136-210.258-100.948-314.953-43.076
				c-116.545,64.438-137.971,196.188-149.545,315.816c-3.66,37.845-13.332,72.721-11.684,111.323
				c6.086,142.424,76.07,271.101,86.701,412.626c7.027,93.572-4.639,188.109-30.428,278.197
				c-34.432,120.303-108.463,225.608-134.727,348.626c-28.063,131.441,5.855,280.222,50.947,403.978
				c38.271,105.033,117.494,201.139,239.67,198.923c98.324-1.787,130.102-106.556,139.113-187.449
				c13.729-123.149,9.348-244.078,38.939-366.255c25.797-106.462,71.844-204.559,145.012-286.443
				c41.063-45.946,73.709-88.036,126.051-119.433c29.059-17.438,57.896-38.559,84.916-62.621
				C3906.047,2298.085,3967.563,2207.249,3979.074,2109.768z"/>
			<path id="_x31_80606879" fill="#9AD2BD" stroke="#000000" d="M2911,1922.619c6.871,56.898-8.281,95.638-15.453,149.459
				c-13.277,99.7,65.834,203.849,36.086,304.424c-19.52,65.955-74.328,96.216-88.594,167.26
				c-22.707,113.098-66.328,247.32-47.869,362.427c28.512,177.815,74.693,331.187,178.369,480.819
				c94.863,136.922,295.641,227.782,459.279,155.964c244-107.084,194.096-450.557,273.078-656.504
				c37.867-98.706,98.896-155.587,176.887-221.491c121.113-102.32,199.656-234.791,244.861-384.919
				c16.688-55.446,41.6-104.092,61.486-157.348c34.049-91.21,10.527-200.057-15.016-290.374
				c-23.455-82.939-73.834-153.042-112.475-229.231c-20.279-39.981-26.652-86.605-48.957-124.729
				c-23.119-39.531-76.205-77.639-111.246-106.115c-48.551-39.472-89.482-81.109-133.119-126.071
				c-90.133-92.878-169.322-149.034-303.584-161.282c-30.707-2.803-61.246,1.027-91.686,4.805
				c-29.588,3.674-57.074,17.656-87.123,18.885c-23.092,0.942-42.328-11.645-64.502-11.622
				c-55.43,0.066-106.914,58.204-142.559,94.147c-46.713,47.11-93.576,99.057-120.484,160.861
				c-26.467,60.777-14.967,126.998-43.633,187.04C2855.352,1663.435,2895.371,1793.23,2911,1922.619z M3106.346,2433.344
				c37.596-128.833,44.975-265.404,12-394.785c-33.025-129.577-82.537-264.995-57.918-399.978
				c18.594-101.962,31.857-224.404,108.998-301.22c100.936-100.506,249.348-102.823,362.92-30.663
				c145.334,92.343,266.949,224.716,353.182,373.306c78.371,135.061,168.291,322.371,126.547,482.492
				c-25.77,98.846-75.088,152.659-151.482,213.478c-80.742,64.278-171.064,111.669-235.986,194.324
				c-101.074,128.715-141.029,276.119-151.297,437.109c-8.105,127.148-2.203,409.202-187.479,410.584
				c-211.994,1.575-303.26-246.513-318.832-422.498c-3.979-45.002-14.619-91.272-12.518-136.492
				C2961.799,2702.091,3063.67,2579.619,3106.346,2433.344z"/>
			<path id="_x31_80606884" fill="#CCCCCC" stroke="#000000" d="M4281.869,1628.556c4.326,10.745,8.291,21.559,11.836,32.435
				c37.818,116.088,42.58,245.15,41.271,366.152c-1.277,117.916,6.809,251.045-45.512,359.912
				c-53.838,112.025-131.186,247.412-217.012,337.186c-77.787,81.354-146.947,155.369-184.297,264.547
				c-55.621,162.608-89.367,337.239-184.443,483.282c-27.551,42.319-59.609,81.078-90.102,121.112
				c-27.719,36.383-58.68,71.461-98.295,95.183c-48.982,29.333-117.883,44.752-174.508,44.776
				c-79.684,0.037-156.113-43.35-222.205-83.87c-53.713-32.927-104.148-88.235-143.512-136.772
				c-40.938-50.473-75.324-106.103-109.092-161.505c-70.398-115.476-129.746-234.739-162.557-366.603
				c-16.881-67.804-30.096-139.241-34.705-209.064c-11.691-177.164,21.283-354.637,38.115-530.445
				c14.443-150.739,7.873-301.69,19.588-452.269c9.943-127.826,33.359-277.911,84.969-412.07
				c14.422-37.49,31.061-73.723,50.207-107.891c-22.465,35.741-43.695,72.017-65.557,105.905
				c-177.119,274.487-170.83,610.615-227.758,922.992c-27.891,153.004-82.868,307.541-70.525,464.821
				c14.291,182.198,98.787,402.094,178.672,565.2c135.66,276.995,385.514,466.204,697.859,486.213
				c258.377,16.56,603.32-102.712,782.068-298.984c47.813-52.513,97.512-114.486,140.932-181.704
				c68.801-106.513,121.828-226.198,126.609-342.23c3.719-89.957-34.1-177.109-46.865-265.099
				c-13.678-94.213,17.08-174.296,24.191-267.081c8.59-112.105,5.492-224.801,1.721-337.027
				C4396.949,1946.782,4355.994,1781.026,4281.869,1628.556z"/>
			<path id="_x31_80606883" fill="#AAAAAA" stroke="#000000" d="M3416.836,2057.104c0.441-20.883-3.768-120.703,33.59-120.174
				c31.352,0.436,34.393,78.576,35.152,98.706c1.127,30.588-5.527,45.994-20.754,71.14c-23.537,38.855-33.486,82.334-42.367,126.462
				c-7.266,36.108-11.031,76.895-34.348,106.989c-7.193-23.848,5.002-55.771,8.525-80.582c3.791-26.757,6.461-53.771,9.709-81.146
				c7.082-59.926,13.348-116.261,14.461-175.461"/>
		</g>
	</g>
	<g transform="scale(1.0)">
		<g id="_x31_80606872_1_" transform=" scale(1.0, 1.0)">
			<path id="_x31_80606874_1_" fill="#BFDAE3" stroke="#000000" d="M568.089,2994.851c-3.715-89.961,34.098-177.111,46.871-265.103
				c13.668-94.216-17.081-174.3-24.192-267.086c-8.593-112.107-5.5-224.801-1.725-337.031
				c9.757-290.131,111.391-545.774,297.488-766.142c63.997-75.779,169.112-150.634,250.402-208.556
				c134.465-95.814,331.892-159.951,497.807-153.841c127.952,4.718,263.139,32.679,364.153,114.652
				c84.843,68.85,138.68,176.312,197.034,266.758c177.12,274.488,170.825,610.626,227.758,923.005
				c27.887,153.008,82.864,307.545,70.522,464.83c-14.293,182.201-98.787,402.099-178.669,565.213
				c-135.657,277-385.511,466.212-697.852,486.224c-258.377,16.563-603.313-102.707-782.058-298.982
				c-47.813-52.51-97.511-114.488-140.933-181.706C625.9,3230.57,572.873,3110.888,568.089,2994.851z"/>
			<path id="_x31_80606875_1_" fill="#B0FFB8" stroke="#000000" d="M589.045,2125.631c-3.775,112.229-6.866,224.923,1.725,337.031
				c7.111,92.786,37.86,172.87,24.192,267.086c-12.773,87.991-50.586,175.142-46.871,265.102
				c4.783,116.038,57.812,235.72,126.608,342.235c43.421,67.218,93.118,129.196,140.932,181.706
				c178.746,196.276,523.682,315.547,782.058,298.982c312.342-20.01,562.195-209.224,697.852-486.224
				c79.883-163.113,164.376-383.012,178.67-565.212c12.342-157.285-42.637-311.822-70.522-464.831
				c-56.935-312.378-50.639-648.518-227.759-923.005c-58.354-90.447-112.191-197.908-197.033-266.758
				c-101.016-81.973-236.202-109.934-364.154-114.651c-165.915-6.111-363.341,58.027-497.808,153.839
				c-81.288,57.923-186.405,132.778-250.4,208.557C700.434,1579.855,598.8,1835.498,589.045,2125.631z M1541.575,1936.929
				c37.356-0.529,33.148,99.292,33.591,120.174l-3.971-54.065c1.113,59.2,7.38,115.535,14.462,175.461
				c3.247,27.375,5.919,54.389,9.708,81.146c3.524,24.811,15.719,56.734,8.525,80.582c-23.316-30.095-27.081-70.881-34.348-106.989
				c-8.88-44.128-18.83-87.606-42.367-126.462c-15.227-25.146-21.879-40.552-20.753-71.14
				C1507.182,2015.506,1510.223,1937.366,1541.575,1936.929z"/>
			<path id="_x31_80606876_1_" fill="#9AD2BD" stroke="#000000" d="M589.045,2125.631c-3.775,112.229-6.866,224.923,1.725,337.031
				c7.111,92.786,37.86,172.87,24.192,267.086c-12.773,87.991-50.586,175.142-46.871,265.102
				c4.783,116.038,57.812,235.72,126.608,342.235c43.421,67.218,93.118,129.196,140.932,181.706
				c178.746,196.276,523.682,315.547,782.058,298.982c312.342-20.01,562.195-209.224,697.852-486.224
				c79.883-163.113,164.376-383.012,178.67-565.212c12.342-157.285-42.637-311.822-70.522-464.831
				c-56.935-312.378-50.639-648.518-227.759-923.005c-58.354-90.447-112.191-197.908-197.033-266.758
				c-101.016-81.973-236.202-109.934-364.154-114.651c-165.915-6.111-363.341,58.027-497.808,153.839
				c-81.288,57.923-186.405,132.778-250.4,208.557C700.434,1579.855,598.8,1835.498,589.045,2125.631z M1541.575,1936.929
				c37.356-0.529,33.148,99.292,33.591,120.174l-3.971-54.065c1.113,59.2,7.38,115.535,14.462,175.461
				c3.247,27.375,5.919,54.389,9.708,81.146c3.524,24.811,15.719,56.734,8.525,80.582c-23.316-30.095-27.081-70.881-34.348-106.989
				c-8.88-44.128-18.83-87.606-42.367-126.462c-15.227-25.146-21.879-40.552-20.753-71.14
				C1507.182,2015.506,1510.223,1937.366,1541.575,1936.929z"/>
			<path id="_x31_80606877_1_" fill="#9AD2BD" stroke="#000000" d="M589.045,2125.631c-3.775,112.229-6.866,224.923,1.725,337.031
				c7.111,92.786,37.86,172.87,24.192,267.086c-12.773,87.991-50.586,175.142-46.871,265.102
				c4.783,116.038,57.812,235.72,126.608,342.235c43.421,67.218,93.118,129.196,140.932,181.706
				c178.746,196.276,523.682,315.547,782.058,298.982c312.342-20.01,562.195-209.224,697.852-486.224
				c79.883-163.113,164.376-383.012,178.67-565.212c12.342-157.285-42.637-311.822-70.522-464.831
				c-56.935-312.378-50.639-648.518-227.759-923.005c-58.354-90.447-112.191-197.908-197.033-266.758
				c-101.016-81.973-236.202-109.934-364.154-114.651c-165.915-6.111-363.341,58.027-497.808,153.839
				c-81.288,57.923-186.405,132.778-250.4,208.557C700.434,1579.855,598.8,1835.498,589.045,2125.631z M1541.575,1936.929
				c37.356-0.529,33.148,99.292,33.591,120.174l-3.971-54.065c1.113,59.2,7.38,115.535,14.462,175.461
				c3.247,27.375,5.919,54.389,9.708,81.146c3.524,24.811,15.719,56.734,8.525,80.582c-23.316-30.095-27.081-70.881-34.348-106.989
				c-8.88-44.128-18.83-87.606-42.367-126.462c-15.227-25.146-21.879-40.552-20.753-71.14
				C1507.182,2015.506,1510.223,1937.366,1541.575,1936.929z"/>
			<path id="_x31_80606878_1_" fill="#82C7AE" stroke="#000000" d="M2180.59,1380.539c-14.423-37.489-31.061-73.722-50.206-107.891
				c-36.177-57.557-75.563-113.714-125.947-156.263c-1.835-1.538-3.667-3.078-5.53-4.587
				c-101.017-81.975-236.206-109.936-364.157-114.653c-165.92-6.113-363.348,58.025-497.814,153.834
				c-81.288,57.92-186.412,132.774-250.406,208.55c-71.363,84.5-130.291,174.195-176.396,269.026
				c-4.329,10.744-8.292,21.559-11.838,32.435c-37.817,116.088-42.579,245.15-41.271,366.152
				c1.279,117.916-6.81,251.044,45.513,359.912c53.836,112.025,131.184,247.412,217.012,337.185
				c77.786,81.356,146.948,155.37,184.295,264.547c55.622,162.608,89.367,337.24,184.445,483.283
				c27.552,42.319,59.607,81.077,90.102,121.112c27.719,36.384,58.679,71.462,98.293,95.183
				c48.984,29.333,117.884,44.75,174.509,44.776c79.683,0.039,156.114-43.351,222.205-83.872
				c53.713-32.925,104.148-88.233,143.512-136.771c40.938-50.473,75.323-106.102,109.092-161.504
				c70.398-115.477,129.745-234.74,162.558-366.604c16.879-67.803,30.096-139.24,34.704-209.064
				c11.69-177.163-21.282-354.637-38.115-530.446c-14.443-150.738-7.871-301.69-19.587-452.268
				C2255.615,1664.784,2232.2,1514.699,2180.59,1380.539z M2081,1922.621c-6.875,56.898,8.279,95.638,15.451,149.459
				c13.277,99.7-65.832,203.849-36.086,304.424c19.521,65.955,74.329,96.217,88.595,167.26
				c22.707,113.098,66.328,247.319,47.867,362.427c-28.511,177.815-74.692,331.188-178.367,480.819
				c-94.862,136.922-295.641,227.783-459.279,155.964c-243.999-107.084-194.097-450.557-273.078-656.504
				c-37.866-98.706-98.896-155.587-176.888-221.491c-121.111-102.318-199.655-234.789-244.86-384.919
				c-16.689-55.446-41.601-104.093-61.487-157.347c-34.047-91.211-10.526-200.057,15.018-290.375
				c23.454-82.939,73.832-153.042,112.473-229.23c20.28-39.983,26.654-86.607,48.958-124.729
				c23.119-39.532,76.204-77.64,111.246-106.116c48.55-39.472,89.481-81.109,133.12-126.071
				c90.133-92.878,169.322-149.034,303.583-161.283c30.707-2.802,61.246,1.026,91.685,4.805
				c29.591,3.675,57.077,17.656,87.123,18.886c23.094,0.941,42.329-11.646,64.501-11.622
				c55.431,0.065,106.915,58.203,142.561,94.146c46.714,47.111,93.576,99.057,120.484,160.861
				c26.467,60.777,14.967,126.998,43.633,187.039C2136.649,1663.435,2096.628,1793.23,2081,1922.621z"/>
			<path id="_x31_80606882_1_" fill="#82C7AE" stroke="#000000" d="M1258.976,1653.184
				c38.586-57.237,80.178-112.399,125.835-164.252c87.699-99.593,206.419-189.516,334.813-93.014
				c93.482,70.251,140.702,202.679,143.545,316.626c2.839,113.732-37.607,221.183-60.574,332.466
				c-26.257,127.262-16.118,261.313,18.556,385.944c28.513,102.515,102.041,195.999,117.33,301.545
				c11.479,79.156,32.663,158.252,25.119,238.843c-7.318,78.099-32.349,157.076-60.742,229.732
				c-34.082,87.225-152.443,187.474-237.674,106.935c-90.443-85.476-89.065-250.371-98.195-364.015
				c-5.302-65.968-5.596-127.635-25.938-191.762c-23.415-73.797-60.518-142.457-101.18-208.025
				c-110.229-177.745-394.312-257.111-362.354-511.972c8.867-70.66,36.761-136.557,71.244-198.276
				C1183.155,1772.416,1219.505,1711.717,1258.976,1653.184z M1575.177,2057.077c-0.441-20.884,3.767-120.703-33.592-120.179
				c-31.357,0.437-34.399,78.577-35.15,98.713c-1.127,30.59,5.519,45.993,20.753,71.136c23.538,38.861,33.485,82.341,42.366,126.466
				c7.266,36.11,11.031,76.897,34.347,106.991c7.195-23.848-5.009-55.77-8.531-80.584c-3.782-26.757-6.455-53.772-9.7-81.143
				c-7.09-59.928-13.355-116.268-14.461-175.464"/>
			<path id="_x31_80606881_1_" fill="#9AD2BD" stroke="#000000" d="M1935.568,3188.979
				c45.091-123.759,79.011-272.537,50.946-403.973c-26.267-123.016-100.294-228.321-134.727-348.617
				c-25.79-90.085-37.456-184.623-30.43-278.192c10.638-141.52,80.619-270.193,86.709-412.613
				c1.64-38.601-8.035-73.477-11.686-111.32c-11.575-119.625-33.01-251.373-149.556-315.809
				c-104.688-57.871-226.138-29.059-314.944,43.071c-94.981,77.146-160.368,177.068-233.668,273.036
				c-68.397,89.547-133.717,181.51-168.153,290.192c-18.757,59.208-24.441,123.255-17.146,185.036
				c11.514,97.477,73.028,188.313,148.952,255.919c27.019,24.063,55.856,45.184,84.917,62.619
				c52.341,31.395,84.987,73.486,126.048,119.434c73.168,81.877,119.218,179.976,145.005,286.435
				c29.601,122.171,25.219,243.098,38.947,366.246c9.005,80.893,40.789,185.659,139.106,187.446
				C1818.074,3390.107,1897.288,3294.002,1935.568,3188.979z M1902.847,3201.078c-34.079,87.223-152.44,187.466-237.672,106.931
				c-90.451-85.475-89.066-250.365-98.195-364.006c-5.303-65.968-5.596-127.636-25.937-191.762
				c-23.416-73.79-60.521-142.448-101.183-208.017c-110.229-177.746-394.313-257.109-362.345-511.964
				c8.857-70.657,36.75-136.554,71.241-198.27c34.385-61.539,70.735-122.235,110.204-180.767
				c38.593-57.234,80.185-112.4,125.843-164.25c87.691-99.59,206.409-189.509,334.813-93.006
				c93.475,70.244,140.694,202.673,143.539,316.616c2.838,113.731-37.61,221.178-60.568,332.459
				c-26.254,127.258-16.123,261.306,18.55,385.934c28.514,102.51,102.043,195.994,117.332,301.538
				c11.479,79.154,32.664,158.251,25.119,238.835C1956.272,3049.447,1931.24,3128.424,1902.847,3201.078z"/>
			<path id="_x31_80606880_1_" fill="#82C7AE" stroke="#000000" d="M979.93,2162.471
				c-41.738-160.123,48.183-347.438,126.555-482.502c86.227-148.599,207.85-280.974,353.183-373.316
				c113.566-72.167,261.977-69.85,362.913,30.658c77.142,76.821,90.403,199.262,108.996,301.227
				c24.619,134.988-24.893,270.411-57.918,399.988c-32.977,129.384-25.59,265.96,11.998,394.795
				c42.684,146.281,144.554,268.755,151.874,425.665c2.102,45.221-8.54,91.491-12.521,136.497
				c-15.57,175.988-106.831,424.086-318.831,422.507c-185.274-1.376-179.374-283.438-187.478-410.59
				c-10.267-160.993-50.222-308.402-151.297-437.121c-64.924-82.652-155.241-130.043-235.985-194.322
				C1055.024,2315.135,1005.701,2261.322,979.93,2162.471z M1161.875,2365.693c27.02,24.063,55.856,45.184,84.916,62.621
				c52.342,31.396,84.987,73.486,126.05,119.433c73.168,81.885,119.216,179.981,145.012,286.443
				c29.593,122.177,25.211,243.105,38.939,366.255c9.012,80.894,40.789,185.662,139.114,187.449
				c122.175,2.216,201.398-93.89,239.669-198.923c45.092-123.756,79.011-272.536,50.948-403.978
				c-26.265-123.018-100.295-228.323-134.727-348.626c-25.789-90.088-37.456-184.625-30.429-278.197
				c10.631-141.525,80.615-270.202,86.702-412.626c1.648-38.602-8.024-73.478-11.684-111.323
				c-11.575-119.628-33-251.378-149.546-315.816c-104.695-57.872-226.14-29.06-314.953,43.076
				c-94.983,77.15-160.369,177.073-233.661,273.045c-68.405,89.547-133.717,181.516-168.155,290.2
				c-18.763,59.208-24.45,123.258-17.146,185.04C1024.438,2207.249,1085.954,2298.085,1161.875,2365.693z"/>
			<path id="_x31_80606879_1_" fill="#9AD2BD" stroke="#000000" d="M2077.252,1539.022c-28.667-60.042-17.167-126.263-43.634-187.04
				c-26.907-61.804-73.771-113.751-120.484-160.861c-35.645-35.943-87.129-94.081-142.559-94.147
				c-22.173-0.023-41.41,12.564-64.502,11.622c-30.048-1.229-57.534-15.21-87.122-18.885c-30.439-3.778-60.979-7.607-91.686-4.805
				c-134.262,12.248-213.451,68.404-303.584,161.282c-43.638,44.962-84.569,86.599-133.12,126.071
				c-35.041,28.477-88.126,66.584-111.245,106.115c-22.306,38.124-28.678,84.748-48.958,124.729
				c-38.641,76.188-89.019,146.292-112.474,229.231c-25.543,90.316-49.064,199.163-15.017,290.374
				c19.887,53.256,44.799,101.901,61.487,157.348c45.204,150.128,123.747,282.599,244.86,384.919
				c77.991,65.904,139.021,122.785,176.888,221.491c78.981,205.947,29.078,549.42,273.078,656.504
				c163.638,71.818,364.416-19.042,459.278-155.964c103.676-149.633,149.858-303.004,178.369-480.819
				c18.459-115.106-25.162-249.329-47.868-362.427c-14.266-71.044-69.075-101.305-88.595-167.26
				c-29.747-100.575,49.364-204.724,36.087-304.424c-7.173-53.821-22.325-92.561-15.453-149.459
				C2096.628,1793.23,2136.649,1663.435,2077.252,1539.022z M2037.519,2859.001c2.103,45.22-8.538,91.49-12.517,136.492
				c-15.573,175.985-106.838,424.073-318.833,422.498c-185.274-1.382-179.372-283.436-187.479-410.584
				c-10.268-160.99-50.223-308.395-151.297-437.109c-64.922-82.655-155.243-130.046-235.986-194.324
				c-76.395-60.818-125.713-114.632-151.481-213.478c-41.745-160.121,48.175-347.431,126.546-482.492
				c86.233-148.59,207.849-280.963,353.182-373.306c113.573-72.16,261.984-69.843,362.92,30.663
				c77.142,76.815,90.405,199.258,108.998,301.22c24.62,134.983-24.892,270.401-57.917,399.978
				c-32.976,129.381-25.597,265.952,12,394.785C1928.33,2579.619,2030.201,2702.091,2037.519,2859.001z"/>
			<path id="_x31_80606884_1_" fill="#CCCCCC" stroke="#000000" d="M589.035,2125.656c-3.771,112.227-6.869,224.922,1.722,337.027
				c7.111,92.785,37.868,172.868,24.191,267.081c-12.767,87.989-50.585,175.142-46.865,265.099
				c4.781,116.032,57.808,235.718,126.609,342.23c43.42,67.218,93.118,129.191,140.931,181.704
				c178.749,196.272,523.691,315.544,782.068,298.984c312.346-20.009,562.199-209.218,697.859-486.213
				c79.886-163.106,164.383-383.002,178.672-565.2c12.342-157.28-42.635-311.817-70.524-464.821
				c-56.928-312.377-50.639-648.505-227.758-922.992c-21.861-33.888-43.092-70.164-65.557-105.905
				c19.146,34.168,35.784,70.401,50.207,107.891c51.608,134.159,75.024,284.244,84.969,412.07
				c11.715,150.579,5.145,301.529,19.587,452.269c16.832,175.809,49.807,353.281,38.115,530.445
				c-4.608,69.823-17.824,141.261-34.704,209.064c-32.812,131.863-92.158,251.127-162.558,366.603
				c-33.768,55.402-68.153,111.032-109.091,161.505c-39.363,48.537-89.8,103.846-143.513,136.772
				c-66.091,40.521-142.521,83.907-222.204,83.87c-56.626-0.024-125.525-15.443-174.509-44.776
				c-39.614-23.722-70.576-58.8-98.294-95.183c-30.493-40.034-62.551-78.793-90.102-121.112
				c-95.077-146.043-128.822-320.674-184.444-483.282c-37.349-109.178-106.509-183.192-184.297-264.547
				c-85.826-89.773-163.174-225.16-217.011-337.186c-52.32-108.866-44.234-241.996-45.513-359.912
				c-1.309-121.002,3.454-250.064,41.271-366.152c3.545-10.875,7.51-21.69,11.837-32.435
				C636.006,1781.026,595.051,1946.782,589.035,2125.656z"/>
			<path id="_x31_80606883_1_" fill="#AAAAAA" stroke="#000000" d="M1571.195,2003.038c1.113,59.2,7.38,115.535,14.462,175.461
				c3.247,27.375,5.918,54.389,9.708,81.146c3.524,24.811,15.719,56.734,8.525,80.582c-23.316-30.095-27.082-70.881-34.348-106.989
				c-8.88-44.128-18.83-87.606-42.367-126.462c-15.227-25.146-21.88-40.552-20.753-71.14c0.76-20.13,3.801-98.27,35.152-98.706
				c37.356-0.529,33.148,99.292,33.59,120.174"/>
		</g>
	</g>
</g>
</svg>
