<?xml version="1.0" encoding="utf-8"?>
<!-- Generator: Adobe Illustrator 16.0.0, SVG Export Plug-In . SVG Version: 6.00 Build 0)  -->
<!DOCTYPE svg PUBLIC "-//W3C//DTD SVG 1.1//EN" "http://www.w3.org/Graphics/SVG/1.1/DTD/svg11.dtd">
<svg version="1.1" id="Layer_1" xmlns="http://www.w3.org/2000/svg" xmlns:xlink="http://www.w3.org/1999/xlink" x="0px" y="0px"
	 width="9616px" height="7760px" viewBox="0 0 9616 7760" enable-background="new 0 0 9616 7760" xml:space="preserve">
<g>
	<g transform="scale(1.0)">
		<g id="_x31_80623684" transform=" scale(1.0, 1.0)">
			<path id="_x31_80623686" fill="#BFDAE3" stroke="#000000" d="M4810.507,2731.314l1.13,3505.811
				c181.363,2.342,357.143,58.996,527.649,116.891c295.147,100.266,439.702,388.777,696.154,543.543
				c420.223,253.58,938.539,15.254,1220.07-331.895c63.531-78.309,105.062-168.701,158.76-253.215
				c66.033-103.889,139.378-194.037,237.671-267.088c97.585-72.523,201.34-135.67,299.325-208.324
				c250.261-185.549,414.479-526.564,548.279-799.973c171.136-349.682,273.549-704.77,370.418-1322.373
				c26.62-169.646,41.291-353.985,28.712-525.375c-4.521-61.491-13.749-123.314-20.759-183.914
				c-33.051-285.197-137.342-580.831-280.623-829.305c-233.455-404.834-648.392-657.149-1048.24-873.145
				c-126.504-68.33-262.258-103.711-390.604-163.348c-153.628-71.407-309.323-139.854-472.365-187.046
				c-97.633-28.256-197.11-56.942-295.371-81.648c-168.072-42.256-344.677-49.61-514.574-79.497
				c-177.608-31.245-360.414-52.077-539.007-15.148c-191.896,39.686-313.794,132.758-437.669,277.503
				c-27.891,32.607-67.649,78.129-89.463,107.117L4810.507,2731.314"/>
			<path id="_x31_80623687" fill="#B0FFB8" stroke="#000000" d="M7651.939,6045.361c97.585-72.523,201.34-135.67,299.327-208.324
				c250.259-185.549,414.479-526.564,548.277-799.973c171.138-349.682,273.549-704.77,370.418-1322.373
				c26.622-169.646,41.289-353.985,28.71-525.374c-4.519-61.492-13.747-123.315-20.757-183.915
				c-33.053-285.196-137.344-580.832-280.623-829.305c-233.455-404.834-648.392-657.149-1048.24-873.145
				c-126.504-68.33-262.258-103.711-390.604-163.348c-153.628-71.407-309.323-139.854-472.365-187.046
				c-97.633-28.256-197.11-56.942-295.371-81.648c-168.072-42.256-344.677-49.61-514.574-79.497
				c-177.606-31.245-360.414-52.076-539.007-15.148c-191.898,39.677-313.794,132.758-437.669,277.503
				c-27.891,32.608-67.649,78.13-89.463,107.117l0.508,1570.428c95.913,0.007,173.704-15.583,267.295-34.366
				c254.567-51.091,453.18-188.902,594.78-404.424c30.222-45.99,68.894-76.735,121.843-91.346
				c66.522-18.366,113.958-7.167,181.365,3.57c193.55,30.833,380.265,97.19,557.244,180.124
				c47.91,22.46,96.674,38.045,145.352,58.554c82.037,34.541,162.939,73.029,238.441,120.409
				c42.891,26.932,84.234,56.262,122.97,88.939c59.238,49.994,125.21,94.935,181.264,148.329
				c63.161,60.174,115.647,120.203,167.204,190.221c80.775,109.659,154.137,226.307,207.012,352.158
				c77.994,185.622,147.417,406.296,151.222,608.871c0.273,14.313,0.29,28.637,0.083,42.959
				c-2.987,204.191-51.609,409.393-61.208,613.313c-0.18,3.971-3.767,74.602-8.411,69.656
				c-7.386,110.32-21.731,250.537-82.7,344.373c-145.361,223.719-812.779,484.117-565.854,837.379
				c97.572,139.584,323.305,255.289,470.552,333.59C7544.995,6137.174,7601.751,6082.658,7651.939,6045.361z"/>
			<path id="_x31_80623767" fill="#1F9D5A" stroke="#000000" d="M6554.406,1064.437c-210.175-64.042-522.354-173.931-810.78-198.896
				l-0.283-94.669c44.549,5.646,88.842,12.792,132.811,20.526c169.861,29.917,346.461,37.27,514.498,79.513
				c67.945,17.042,136.56,36.091,204.672,55.552L6554.406,1064.437z"/>
			<path id="_x31_80623766" fill="#1F9D5A" stroke="#000000" d="M6415.545,1386.622c-141.644-52.824-286.281-98.737-428.007-147.649
				c-81.438-28.117-161.298-61.979-242.902-83.435l-1.01-289.998c288.426,24.967,600.607,134.854,810.78,198.896l-99.891,336.827
				C6441.528,1396.356,6428.538,1391.448,6415.545,1386.622z"/>
			<path id="_x31_80623765" fill="#1F9D5A" stroke="#000000" d="M6353.965,1740.419c-107.588-42.927-215.673-84.773-325.094-122.454
				c-79.854-27.535-183.861-65.053-283.028-78.343l-1.207-384.087c81.604,21.457,161.461,55.317,242.904,83.435
				c141.726,48.913,286.363,94.824,428.007,147.649c12.991,4.827,25.981,9.735,38.971,14.642l0.004,0.083L6353.965,1740.419z"/>
			<path id="_x31_80623764" fill="#1F9D5A" stroke="#000000" d="M6234.617,2142.862c-69.534-25.124-136.4-46.999-198.353-64.716
				c-80.102-22.953-200.516-72.539-288.855-70.26l-1.568-468.264c99.167,13.29,203.174,50.809,283.028,78.343
				c109.419,37.681,217.504,79.527,325.092,122.455L6234.617,2142.862z"/>
			<path id="_x31_80623763" fill="#1F9D5A" stroke="#000000" d="M6200.933,2256.523c-73.862-21.956-148.966-39.583-225.068-51.716
				c-67.448-10.801-114.91-21.942-181.43-3.604c-16.569,4.502-31.722,10.669-45.622,18.332l-0.749-5.329l-0.652-206.319
				c88.34-2.277,208.754,47.307,288.857,70.259c61.952,17.719,128.818,39.593,198.353,64.716L6200.933,2256.523z"/>
			<path id="_x31_80623772" fill="#1F9D5A" stroke="#000000" d="M5743.626,865.54c-260.035-22.651-500.814,23.721-630.217,234.913
				c-80.89,132.08-102.063,295.364-100.684,454.892l-202.641-205.339l-0.061-189.087c21.805-28.986,61.591-74.54,89.474-107.105
				c123.845-144.748,245.795-237.873,437.698-277.568c134.374-27.77,271.094-22.819,406.15-5.377L5743.626,865.54z"/>
			<path id="_x31_80623771" fill="#1F9D5A" stroke="#000000" d="M5744.636,1155.537c-84.521-22.117-170.781-30.917-262.28-6.159
				c-235.021,63.855-235.593,358.016-255.851,557.102c-2.07,20.316-3.647,40.549-4.803,60.698l-208.979-211.832
				c-1.38-159.528,19.796-322.811,100.682-454.892c129.402-211.193,370.184-257.564,630.219-234.913L5744.636,1155.537z"/>
			<path id="_x31_80623770" fill="#1F9D5A" stroke="#000000" d="M5745.841,1539.624c-133.89-18.274-258.943,7.408-304.019,160.293
				c-24.122,81.852-27.839,172.609-25.644,264.364l-194.477-197.101c1.157-20.149,2.732-40.384,4.805-60.7
				c20.254-199.086,20.825-493.245,255.849-557.102c91.499-24.758,177.761-15.96,262.28,6.159L5745.841,1539.624z"/>
			<path id="_x31_80623769" fill="#1F9D5A" stroke="#000000" d="M5416.179,1964.28c-2.195-91.754,1.521-182.511,25.644-264.363
				c45.076-152.884,170.127-178.567,304.019-160.293l1.568,468.264c-55.536,1.434-98.406,23.261-110.709,84.961
				c-4.906,24.733-10.145,51.46-15.715,78.938L5416.179,1964.28z"/>
			<path id="_x31_80623768" fill="#1F9D5A" stroke="#000000" d="M5748.809,2219.535c-16.73,9.249-31.716,20.747-45.197,34.404
				l-7.911-6.411l-74.713-75.742c5.568-27.479,10.807-54.204,15.713-78.938c12.305-61.7,55.173-83.526,110.711-84.96l0.652,206.319
				L5748.809,2219.535z"/>
			<path id="_x31_80623744" fill="#188064" stroke="#000000" d="M8482.044,2253.873l115.213-77.72
				c136.619,236.834,237.709,516.562,275.437,789.23l-134.794,36.347C8712.178,2749.622,8615.255,2486.211,8482.044,2253.873z"/>
			<path id="_x31_80623743" fill="#188064" stroke="#000000" d="M8436.188,3083.007c-8.258-48.872-16.519-95.993-24.439-140.457
				c-34.623-195.07-108.356-356.905-208.317-500.834l278.613-187.844c133.211,232.338,230.134,495.75,255.855,747.856
				L8436.188,3083.007z"/>
			<path id="_x31_80623742" fill="#188064" stroke="#000000" d="M8203.024,2731.634c-31.249-74.758-68.986-146.101-112.057-214.112
				l112.463-75.807c99.961,143.929,173.694,305.765,208.317,500.834c7.921,44.462,16.182,91.585,24.439,140.457l-125.047,33.763
				C8288.451,2982.39,8253.355,2852.015,8203.024,2731.634z"/>
			<path id="_x31_80623741" fill="#188064" stroke="#000000" d="M7968.914,3048.022c-45.833-122.296-102.406-233.351-168.3-334.742
				l290.354-195.757c43.07,68.011,80.808,139.355,112.057,214.112c50.329,120.38,85.427,250.756,108.116,385.135l-286.563,77.189
				C8006.496,3145.76,7987.414,3097.389,7968.914,3048.022z"/>
			<path id="_x31_80623740" fill="#188064" stroke="#000000" d="M7666.171,3290.576c-46.66-105.563-101.482-206.373-173.368-311.345
				c-9.162-13.401-18.571-26.553-28.069-39.456l335.881-226.496c65.894,101.392,122.465,212.442,168.3,334.741
				c18.498,49.368,37.582,97.738,55.666,145.939L7666.171,3290.576z"/>
			<path id="_x31_80623739" fill="#188064" stroke="#000000" d="M7581.997,3313.251
				c-51.572-114.387-119.469-221.106-193.766-321.909l76.414-51.565l0.084,0.002c9.498,12.9,18.909,26.054,28.069,39.456
				c71.888,104.967,126.71,205.781,173.368,311.342v0.083L7581.997,3313.251z"/>
			<path id="_x31_80623762" fill="#188064" stroke="#000000" d="M6595.323,926.459c30.397,8.649,60.621,17.382,90.684,26.117
				c140.476,40.669,275.545,97.074,408.529,157.561v0.084l-47.251,120.413c0,0,0,0-0.086-0.002
				c-70.111-21.959-140.476-44.83-211.174-71.286c-79.938-29.947-156.965-58.149-239.899-82.434
				c-13.408-3.911-27.316-8.068-41.72-12.477L6595.323,926.459z"/>
			<path id="_x31_80623761" fill="#188064" stroke="#000000" d="M6679.238,1395.029c-54.874-14.052-185.618-84.284-156.768,30.774
				l-0.667,1.666c-22.486-8.9-44.885-17.638-67.284-26.121l-0.004-0.083l99.891-336.827c14.399,4.408,28.308,8.566,41.718,12.477
				c82.937,24.285,159.963,52.488,239.901,82.435c70.697,26.455,141.061,49.326,211.174,71.285l-103.574,263.976
				c-8.909-3.578-17.903-7.072-27.063-10.649C6831.373,1450.765,6767.836,1417.816,6679.238,1395.029z"/>
			<path id="_x31_80623760" fill="#188064" stroke="#000000" d="M6905.605,1591.284
				c-126.245-57.072-255.569-113.064-383.802-163.815l0.665-1.666c-28.849-115.059,101.894-44.827,156.768-30.774
				c88.6,22.787,152.137,55.736,237.324,88.931c9.159,3.576,18.153,7.071,27.063,10.648l-37.938,96.675L6905.605,1591.284z"/>
			<path id="_x31_80623759" fill="#188064" stroke="#000000" d="M6587.876,1834.096c-77.941-31.029-155.803-62.644-233.913-93.677
				l100.555-339.071c22.399,8.483,44.8,17.221,67.284,26.121c128.232,50.75,257.557,106.745,383.802,163.816l-126.868,323.181
				C6716.193,1886.511,6652.409,1859.804,6587.876,1834.096z"/>
			<path id="_x31_80623758" fill="#188064" stroke="#000000" d="M6624.413,2307.678c-130.24-63.154-264.395-119.479-389.798-164.815
				l119.346-402.443c78.11,31.034,155.974,62.648,233.913,93.678c64.533,25.707,128.317,52.413,190.863,80.368l-0.002,0.083
				L6624.413,2307.678z"/>
			<path id="_x31_80623757" fill="#188064" stroke="#000000" d="M6533.019,2384.89c-107.34-50.336-218.259-94.514-332.086-128.367
				l33.685-113.662c125.403,45.337,259.56,101.66,389.798,164.815l-39.016,99.429l-0.082-0.002
				C6567.835,2400.284,6550.341,2393.045,6533.019,2384.89z"/>
			<path id="_x31_80623750" fill="#188064" stroke="#000000" d="M8227.647,1897.346c-114.694-129.1-249.444-237.214-394.431-329.753
				l49.178-72.868l0.169-0.168c283.479,176.838,546.32,389.567,714.693,681.597l-115.213,77.72
				C8406.734,2122.511,8319.852,2001.144,8227.647,1897.346z"/>
			<path id="_x31_80623749" fill="#188064" stroke="#000000" d="M7718.772,1947.133c-29.654-24.884-61.133-48.52-93.531-71.075
				l207.976-308.467c144.984,92.539,279.736,200.654,394.431,329.753c92.204,103.798,179.087,225.165,254.396,356.526
				l-278.613,187.845C8075.813,2258.086,7905.409,2103.688,7718.772,1947.133z"/>
			<path id="_x31_80623748" fill="#188064" stroke="#000000" d="M8090.968,2517.522
				c-136.369-214.771-325.931-395.972-530.639-545.193l64.912-96.27c32.398,22.558,63.877,46.192,93.531,71.075
				c186.635,156.554,357.041,310.952,484.656,494.583L8090.968,2517.522z"/>
			<path id="_x31_80623747" fill="#188064" stroke="#000000" d="M7800.614,2713.28c-117.205-180.471-263.712-330.377-431.024-458.05
				l190.739-282.903c204.71,149.224,394.271,330.424,530.641,545.194L7800.614,2713.28z"/>
			<path id="_x31_80623746" fill="#188064" stroke="#000000" d="M7464.647,2939.777
				c-94.877-128.275-208.979-234.063-334.981-328.773l-0.004-0.083l239.846-355.689c0.084,0,0.084,0,0.084,0
				c167.311,127.671,313.819,277.578,431.024,458.05l-335.881,226.496H7464.647z"/>
			<path id="_x31_80623745" fill="#188064" stroke="#000000" d="M7221.063,2801.141c-43.729-41.698-93.529-78.235-141.418-116.02
				l50.02-74.118c126.003,94.71,240.108,200.499,334.983,328.773l-76.414,51.566
				C7336.667,2921.334,7284.192,2861.321,7221.063,2801.141z"/>
			<path id="_x31_80623756" fill="#188064" stroke="#000000" d="M7574.393,1422.135c-173.882-86.621-349.661-136.022-527.107-191.5
				l47.251-120.413c21.319,9.653,42.636,19.473,63.871,29.37c128.326,59.658,264.139,95.083,390.632,163.399
				c111.422,60.166,224.015,123.158,333.524,191.48l0.002,0.083l-0.169,0.168l-49.18,72.868
				C7749.683,1514.249,7662.828,1466.151,7574.393,1422.135z"/>
			<path id="_x31_80623755" fill="#188064" stroke="#000000" d="M7371.828,1714.113
				c-147.156-93.539-271.323-156.942-428.203-219.504l103.574-263.976c0.086,0.003,0.086,0.003,0.086,0.003
				c177.444,55.478,353.226,104.879,527.107,191.5c88.436,44.014,175.292,92.112,258.826,145.457l-207.976,308.467
				C7542.879,1818.3,7454.271,1766.542,7371.828,1714.113z"/>
			<path id="_x31_80623754" fill="#188064" stroke="#000000" d="M7028.936,1647.699c-40.641-18.805-81.777-37.689-123.246-56.415
				l37.936-96.675c156.88,62.562,281.045,125.967,428.201,219.504c82.442,52.429,171.053,104.186,253.413,161.945l-64.912,96.271
				c-6.91-5.076-13.824-10.071-20.817-15.064C7380.861,1843.833,7206.222,1729.739,7028.936,1647.699z"/>
			<path id="_x31_80623753" fill="#188064" stroke="#000000" d="M7369.506,2255.23
				c-177.063-135.071-377.422-245.332-590.771-340.682l0.002-0.083l126.868-323.182h0.084
				c41.469,18.726,82.605,37.609,123.246,56.415c177.286,82.04,351.926,196.134,510.576,309.567
				c6.995,4.994,13.905,9.989,20.817,15.063l-190.741,282.902C7369.59,2255.231,7369.59,2255.231,7369.506,2255.23z"/>
			<path id="_x31_80623752" fill="#188064" stroke="#000000" d="M6984.091,2509.053c-108.1-71.155-232.014-139.553-359.676-201.375
				l154.322-393.129c213.349,95.35,413.706,205.61,590.771,340.682l-239.844,355.689
				C7082.689,2575.714,7034.054,2541.926,6984.091,2509.053z"/>
			<path id="_x31_80623751" fill="#188064" stroke="#000000" d="M6678.331,2443.46c-30.979-13.062-62.121-24.21-92.934-36.354
				l39.016-99.428c127.662,61.821,251.578,130.22,359.678,201.375c49.963,32.873,98.599,66.662,145.569,101.868l0.004,0.083
				l-50.02,74.118c-13.577-10.569-26.899-21.305-39.893-32.292c-38.728-32.71-80.114-62.004-123.005-88.969
				C6841.296,2516.507,6760.356,2477.984,6678.331,2443.46z"/>
			<path id="_x31_80623738" fill="#188064" stroke="#000000" d="M8878.077,3642.546l-137.553-3.536
				c10.766-177.767,6.79-358.94,4.077-526.212c-0.597-36.719-2.855-73.771-6.702-111.07l134.794-36.347
				c1.918,13.405,3.666,26.727,5.173,40.049c7.012,60.612,16.275,122.39,20.788,183.918
				c10.789,147.451,1.438,304.485-18.335,453.531l-2.162-0.33L8878.077,3642.546z"/>
			<path id="_x31_80623737" fill="#188064" stroke="#000000" d="M8740.524,3639.011l-243.298-6.248
				c-4.221-180.093-32.007-376.165-61.039-549.755l301.712-81.277c3.847,37.302,6.105,74.351,6.702,111.071
				C8747.314,3280.071,8751.29,3461.244,8740.524,3639.011z"/>
			<path id="_x31_80623736" fill="#188064" stroke="#000000" d="M8497.227,3632.763l-153.865-3.947
				c5.104-169.439-3.856-343.951-32.221-512.045l125.047-33.764C8465.22,3256.598,8493.006,3452.67,8497.227,3632.763z"/>
			<path id="_x31_80623735" fill="#188064" stroke="#000000" d="M8119.454,3573.437c-8.705-134.633-48.709-256.597-94.874-379.476
				l286.563-77.191c28.362,168.093,37.325,342.607,32.219,512.045l-221.642-5.672
				C8121.296,3606.574,8120.542,3590.002,8119.454,3573.437z"/>
			<path id="_x31_80623734" fill="#188064" stroke="#000000" d="M7666.171,3290.576l358.409-96.617
				c46.167,122.88,86.169,244.845,94.874,379.477c1.088,16.566,1.842,33.138,2.264,49.708l-336.213-8.552l-0.082-0.001
				c-1.588-5.327-3.252-10.74-5.003-16.067c-35.836-111.059-71.587-211.38-114.249-307.865V3290.576z"/>
			<path id="_x31_80623733" fill="#188064" stroke="#000000" d="M7581.997,3313.251l84.172-22.593
				c42.662,96.485,78.413,196.807,114.249,307.867c1.751,5.327,3.415,10.737,5.003,16.066l-85.508-2.221l-8.578,2.419
				c-26.678-94.411-60.428-186.487-96.09-271.318c-4.25-10.075-8.666-20.146-13.25-30.137L7581.997,3313.251z"/>
			<path id="_x31_80623726" fill="#009C75" stroke="#000000" d="M8544.259,4356.373c52.174-94.102,99.187-190.365,130.123-293.623
				l128.9,21.109l0.082-0.002l1.75,0.332c-22.444,112.83-45.727,215.746-70.59,311.422l-0.084,0.002L8544.259,4356.373z"/>
			<path id="_x31_80623725" fill="#009C75" stroke="#000000" d="M8333.095,4312.73c32.379-33.318,72.061-123.586,91.69-189.701
				c9.484-31.727,18.793-64.037,27.525-96.678l222.069,36.396c-30.935,103.258-77.949,199.521-130.125,293.623L8333.095,4312.73z"/>
			<path id="_x31_80623724" fill="#009C75" stroke="#000000" d="M8333.095,4312.73h-0.082l-69.115-14.301
				c0.959-3.988,2.771-14.803,5.198-22.406c2.143-6.713,6.021-30.514,8.263-39.799c2.662-11.023-0.965,3.707,3.097-14.732
				l1.48-9.992c11.97-66.613,19.528-132.479,28.742-208.332l141.633,23.184c-8.732,32.641-18.041,64.953-27.523,96.678
				C8405.155,4189.145,8365.474,4279.412,8333.095,4312.73z"/>
			<path id="_x31_80623723" fill="#009C75" stroke="#000000" d="M8263.897,4298.43l-228.732-47.305
				c6.233-29.557,12.386-58.117,18.789-85.1c15.38-65.277,29.354-131.475,40.65-198.174l216.075,35.316
				c-9.214,75.854-16.772,141.721-28.742,208.332C8276.866,4240.059,8271.049,4268.783,8263.897,4298.43z"/>
			<path id="_x31_80623722" fill="#009C75" stroke="#000000" d="M7842.855,4072.762c-17.576-15.982-96.354-60-96.36-73.658
				l0.002-0.082c0.08-1.246,0.082-2.412,0.084-3.66c0.079-6.746,0.079-13.572,0.076-20.316
				c36.479,30.709,64.879,57.006,130.991,70.229c17.485,3.488,4.561-58.287-9.947-114.568l226.903,37.143
				c-11.297,66.701-25.269,132.896-40.648,198.178c-6.405,26.982-12.556,55.543-18.791,85.098l-0.082,0.004l-115.241-23.777
				C7930.222,4162.904,7891.996,4117.457,7842.855,4072.762z"/>
			<path id="_x31_80623721" fill="#009C75" stroke="#000000" d="M7877.648,4045.275c-66.116-13.223-94.515-39.521-130.993-70.229
				c-0.002-7.58-0.007-15.072-0.178-22.646c-0.25-13.908-0.837-27.814-1.758-41.883l122.981,20.193
				C7882.207,3986.988,7895.134,4048.762,7877.648,4045.275z"/>
			<path id="_x31_80623732" fill="#11AD83" stroke="#000000" d="M8740.524,3639.011l137.553,3.536l0.082,0.001l2.16,0.331
				c-3.238,24.232-6.646,48.212-10.383,71.858c-21.107,134.809-42.545,257.046-64.822,369.453l-1.75-0.332l-0.082,0.002
				l-128.9-21.109c3.994-12.99,7.654-26.146,11.064-39.387C8716.458,3902.043,8732.569,3771.481,8740.524,3639.011z"/>
			<path id="_x31_80623731" fill="#11AD83" stroke="#000000" d="M8497.227,3632.763l243.298,6.248
				c-7.955,132.47-24.066,263.032-55.078,384.353c-3.41,13.24-7.07,26.396-11.064,39.387l-222.071-36.398
				c15.388-57.957,28.607-116.99,35.915-175.524C8496.61,3782.966,8499.087,3709.279,8497.227,3632.763z"/>
			<path id="_x31_80623730" fill="#11AD83" stroke="#000000" d="M8343.361,3628.815l153.865,3.947
				c1.862,76.517-0.616,150.204-9.001,218.065c-7.308,58.536-20.527,117.569-35.915,175.526l-141.633-23.186
				c2.577-21.23,5.232-43.213,8.221-66.275C8331.604,3838.057,8340.233,3734.394,8343.361,3628.815z"/>
			<path id="_x31_80623729" fill="#11AD83" stroke="#000000" d="M8094.604,3967.852c19.112-113.988,30.313-229.561,27.113-344.707
				l221.644,5.672c-3.128,105.58-11.757,209.241-24.463,308.076c-2.988,23.063-5.644,45.045-8.221,66.277L8094.604,3967.852z"/>
			<path id="_x31_80623728" fill="#11AD83" stroke="#000000" d="M7785.505,3614.592l336.213,8.55
				c3.2,115.147-8,230.718-27.115,344.708l-226.901-37.145c-8.584-33.385-17.754-64.772-21.504-79.589
				C7826.104,3771.857,7809.509,3692.683,7785.505,3614.592z"/>
			<path id="_x31_80623727" fill="#11AD83" stroke="#000000" d="M7699.913,3612.371l85.508,2.221l0.082,0.001
				c24.004,78.091,40.6,157.265,60.692,236.525c3.752,14.817,12.92,46.205,21.502,79.589l-122.981-20.193
				c-5.858-97.163-25.709-197.652-53.383-295.723L7699.913,3612.371z"/>
			<path id="_x31_80623777" fill="#40A666" stroke="#000000" d="M5026.707,1789.807c4.681,48.123,4.277,94.335,1.21,140.379
				l-214.939-120.827h-2.748l-0.146-459.354l202.641,205.341C5013.166,1635.946,5019.438,1715.624,5026.707,1789.807z"/>
			<path id="_x31_80623776" fill="#40A666" stroke="#000000" d="M5027.917,1930.187c3.067-46.044,3.471-92.256-1.21-140.379
				c-7.269-74.184-13.541-153.862-13.983-234.461l208.977,211.834c-5.467,92.003-2.441,182.01,1.004,272.514L5027.917,1930.187z"/>
			<path id="_x31_80623775" fill="#40A666" stroke="#000000" d="M5222.704,2039.695c-3.445-90.504-6.471-180.51-1.002-272.517
				l194.477,197.102c1.521,63.28,5.787,127.056,8.057,188.669L5222.704,2039.695z"/>
			<path id="_x31_80623774" fill="#40A666" stroke="#000000" d="M5603.613,2253.72l-179.376-100.771
				c-2.27-61.613-6.536-125.389-8.057-188.669l204.807,207.507C5615.587,2198.598,5609.766,2226.243,5603.613,2253.72z"/>
			<path id="_x31_80623773" fill="#40A666" stroke="#000000" d="M5703.611,2253.938c-11.237,11.41-21.475,24.319-30.963,38.644
				l-69.035-38.861c6.152-27.479,11.974-55.122,17.374-81.936l74.713,75.743L5703.611,2253.938z"/>
			<path id="_x31_80623782" fill="#40A666" stroke="#000000" d="M5073.386,2697.924c21.561-10.58,28.379-27.566-4.767-55.364
				c-39.23-32.958-82.272-21.955-122.15-3.457c-37.209,17.413-92.823,35.581-113.21,74.305
				c11.579,11.236,28.146,15.061,46.133,15.22c-22.146,1.755-44.959,2.679-68.855,2.688l-0.305-921.956l2.748-0.001l214.939,120.828
				c-5.55,83.763-19.928,167.196-28.805,262.116c-12.366,131.224-38.363,298.339,44.51,410.714
				c25.159,34.047,74.279,30.036,77.71,74.912l2.086,8.823c-14.986,3.751-30.142,7.172-45.541,10.258
				C5076.382,2697.343,5074.881,2697.593,5073.386,2697.924z"/>
			<path id="_x31_80623781" fill="#40A666" stroke="#000000" d="M5121.334,2677.928c-3.43-44.876-52.551-40.864-77.71-74.911
				c-82.879-112.376-56.876-279.491-44.512-410.715c8.877-94.92,23.255-178.354,28.805-262.116l194.789,109.508
				c7.556,193.666,17.774,389.326-45.843,610.488l6.166,19.731c-19.479,6.249-39.38,11.837-59.611,16.836L5121.334,2677.928z"/>
			<path id="_x31_80623780" fill="#40A666" stroke="#000000" d="M5424.235,2152.949c1.258,32.64,1.931,64.777,1.278,95.835
				c-1.97,94.085-3.415,258.111-65.502,337.479l2.75,4.747c-55.854,32.322-115.798,58.738-179.732,78.908l-6.166-19.731
				c63.617-221.164,53.398-416.824,45.843-610.488L5424.235,2152.949z"/>
			<path id="_x31_80623779" fill="#40A666" stroke="#000000" d="M5603.613,2253.72c-14.382,62.699-31.184,124.651-52.148,174.284
				l7.998,7.572c-58.683,61.549-124.274,113.526-196.701,155.431l-2.75-4.747c62.091-79.367,63.534-243.394,65.502-337.479
				c0.654-31.057-0.022-63.195-1.278-95.834L5603.613,2253.72z"/>
			<path id="_x31_80623778" fill="#40A666" stroke="#000000" d="M5559.463,2435.577l-7.998-7.573
				c20.965-49.63,37.765-111.583,52.148-174.284l69.035,38.862C5638.28,2344.88,5600.576,2392.603,5559.463,2435.577z"/>
			<path id="_x31_80623720" fill="#219866" stroke="#000000" d="M8477.121,4782.613c-53.123-13.807-107.08-22.779-160.955-32.504
				l16.897-16.662c62.155-129.238,141.213-251.16,211.195-377.074l190.182,39.24c-49.395,189.85-105.043,351.398-172.104,505.701
				c3.908-12.322,6.898-24.732,8.561-37.219C8578.874,4806.059,8522.086,4794.254,8477.121,4782.613z"/>
			<path id="_x31_80623719" fill="#219866" stroke="#000000" d="M7975.117,4725.24c171.984-108.297,227.32-216.387,266.245-344.209
				c8.731-28.727,16.135-56.037,22.535-82.6l27.395,5.65c14.956,3.1,15.916,3.607,22.851,4.738c7.234,1.176,8.046,1.666,18.87,3.91
				h0.082l211.164,43.643c-69.982,125.914-149.04,247.836-211.194,377.076l-16.898,16.66c-0.082,0.002-0.082,0.002-0.082,0.002
				c-24.484-4.408-48.963-8.979-73.358-14.301c-57.706-12.553-123.152-20.027-178.096,8.799l-6.326-6.906L7975.117,4725.24z"/>
			<path id="_x31_80623718" fill="#219866" stroke="#000000" d="M7970.208,4726.658c-15.913-21.146-45.642-40.537-80.368-55.344
				l1.919-4.33c79.311-109.6,113.061-273.551,143.324-415.854l0.084-0.004l228.732,47.305c-6.4,26.566-13.804,53.873-22.535,82.602
				c-38.927,127.82-94.261,235.912-266.245,344.207l-0.084-0.002L7970.208,4726.658z"/>
			<path id="_x31_80623717" fill="#219866" stroke="#000000" d="M7683.45,4639.197l0.346-4.604c1.83-10.826-0.368,5.48,0.624-8.756
				c0.003,0.5,0.001,0.998,0.002,1.5c0,3.91,77.755-23.754,88.498-28.42c37.462-16.334,57.26-67.793,73.486-104.521
				c42.764-96.596,60.966-190.023,73.432-267.041l115.241,23.775c-30.26,142.307-64.01,306.258-143.324,415.855l-1.919,4.328
				c-36.639-15.641-78.774-26.203-116.073-28.523c-7.745-0.414-84.512-9.297-86.093-1.719
				C7685.597,4650.979,7685.115,4629.289,7683.45,4639.197z"/>
			<path id="_x31_80623688" fill="#9AD2BD" stroke="#000000" d="M8477.172,4782.566c-54.978-14.264-110.78-23.313-166.446-33.432
				c-22.693-4.127-45.358-8.43-67.943-13.338c-19.047-4.143-38.938-7.727-59.021-9.637c-42.812-4.074-86.479-0.531-124.635,21.502
				c-22.711,13.111-29.701,39.859-39.673,63.254c-24.772,58.063-45.013,111.953-90.202,157.604
				c-65.88,66.523-154.471,114.445-229.422,170.129c-54.369,40.402-132.546,94.691-194.989,121.68
				c-94.458,40.834-248.233,55.592-248.233,55.592c-210.172,164.283-370.352,340.734-228.191,544.109
				c43.897,62.801,113.75,120.77,190.713,172.666c14.435,9.734,29.111,19.252,43.92,28.547
				c81.746,51.326,167.345,95.908,235.921,132.375c3.946-4.84,7.978-9.666,12.075-14.465c24.673-28.939,51.81-57.006,79.025-82.105
				c20.938-19.311,41.92-36.859,61.872-51.688c97.585-72.523,201.34-135.67,299.327-208.322
				c126.611-93.875,226.44-221.443,309.345-353.871c84.235-134.553,156.422-274.996,222.631-419.15
				c28.741-62.607,78.188-130.459,87.688-199.928C8578.88,4806,8522.095,4794.213,8477.172,4782.566z"/>
			<path id="_x31_80623716" fill="#6ACBBA" stroke="#000000" d="M8477.172,4782.566c-54.978-14.264-110.78-23.313-166.446-33.432
				c8.09,30.09,9.492,72.715,0.408,98.002c-12.062,33.557-55.017,50.551-64.992,85.896
				c-14.313,50.727,26.061,107.473,10.095,161.594c-22.829,77.346-48.658,155.631-98.778,220.096
				c-67.584,86.912-150.988,156.627-248.837,207.211c-62.899,32.518-129.964,55.854-193.755,86.445
				c-52.792,25.313-100.837,59.111-149.776,90.939c-43.078,28.021-84.146,62.684-124.047,94.996
				c-38.928,31.523-75.865,65.475-103.958,107.301c-32.99,49.111-58.087,102.898-74.035,159.631
				c81.744,51.326,167.343,95.908,235.919,132.375c3.946-4.84,7.979-9.666,12.075-14.465c-0.01,0.01-0.02,0.02-0.031,0.029
				c-6.229-3.322-22.903-8.604-30.254-12.533c-60.777-32.557-139.482-78.336-87.391-148.869
				c41.854-56.691,108.266-83.121,167.705-115.73c86.563-47.477,176.802-37.576,249.291,33.184
				c-36.398,21.092,42.923-25.545,140.906-98.201c126.611-93.873,226.44-221.443,309.345-353.869
				c84.235-134.553,156.422-274.996,222.632-419.152c28.742-62.605,78.186-130.457,87.688-199.928
				C8578.88,4806,8522.095,4794.213,8477.172,4782.566z"/>
			<path id="_x31_80623715" fill="#6ACBBA" stroke="#000000" d="M7441.039,5794.314c39.903-32.313,80.969-66.977,124.049-94.996
				c48.939-31.828,96.984-65.625,149.776-90.938c63.791-30.592,130.854-53.93,193.755-86.445
				c97.849-50.586,181.253-120.301,248.835-207.213c50.122-64.465,75.949-142.748,98.778-220.096
				c15.966-54.123-24.407-110.867-10.095-161.592c9.976-35.348,52.931-52.34,64.992-85.896c9.084-25.287,7.682-67.912-0.408-98.004
				c-22.693-4.125-45.358-8.428-67.943-13.338c-19.047-4.143-38.938-7.727-59.021-9.637c-12.662,18.73-25.211,37.596-38.832,55.533
				c-26.91,35.426-46.919,69.24-53.913,114.127c-9.695,62.174,19.673,139.115-23.771,190.273
				c-57.359,67.527-137.571,107.889-212.799,153.938c-150.678,92.215-286.557,220.094-406.92,348.443
				c-103.516,110.373-185.533,244.137-219.074,392.613c-3.781,16.73-6.284,34.211-9.326,51.613
				c14.433,9.732,29.111,19.25,43.92,28.545c15.948-56.73,41.045-110.52,74.035-159.631
				C7365.174,5859.791,7402.111,5825.838,7441.039,5794.314z"/>
			<path id="_x31_80623714" fill="#6ACBBA" stroke="#000000" d="M7447.526,5588.473c120.361-128.348,256.24-256.227,406.918-348.443
				c75.228-46.047,155.441-86.408,212.799-153.936c43.443-51.158,14.077-128.098,23.771-190.273
				c6.994-44.887,27.005-78.703,53.913-114.127c13.621-17.938,26.172-36.803,38.834-55.533
				c-42.813-4.074-86.479-0.529-124.635,21.502c-22.713,13.113-29.701,39.861-39.673,63.254
				c-24.772,58.063-45.013,111.955-90.204,157.604c-65.878,66.523-154.469,114.447-229.422,170.131
				c-54.369,40.402-132.546,94.689-194.987,121.68c-94.46,40.832-248.235,55.592-248.235,55.592
				c-210.172,164.281-370.35,340.734-228.191,544.109c43.899,62.801,113.75,120.768,190.715,172.666
				c3.04-17.398,5.545-34.881,9.326-51.613C7261.993,5832.609,7344.011,5698.848,7447.526,5588.473z"/>
			<path id="_x31_80623713" fill="#7ED04B" stroke="#000000" d="M5073.386,2697.924c-32.811,6.589-63.695,12.677-94.252,17.85
				c-0.084,0-0.084,0-0.084,0c-5.245,0.419-9.741,0.754-13.069,1.086c-11.907,1.171-27.227,4.506-43.542,7.341
				c-14.236,1.837-28.476,3.256-43.047,4.426c-17.987-0.16-34.552-3.986-46.133-15.22c20.385-38.723,76.001-56.891,113.21-74.305
				c39.878-18.498,82.92-29.5,122.15,3.457C5101.765,2670.358,5094.946,2687.344,5073.386,2697.924z"/>
			<path id="_x31_80623712" fill="#8ADA87" stroke="#000000" d="M7772.92,4598.914c-10.741,4.664-88.496,32.334-88.496,28.42
				c-0.003-0.5-0.003-0.998-0.004-1.498c0-0.336,0-0.584,0.004-0.916c0.578-8.662,0.828-15.158,0.909-16.238
				c2.065-44.133,5.967-88.346,10.861-132.557c0.082-0.504,0.085-0.918,0.17-1.414c7.391-58.205,16.523-116.818,21.674-169.861
				l0.084,0.002c13.623-102,26.572-204.002,28.373-305.748c0.006,13.656,78.786,57.674,96.36,73.658
				c49.139,44.693,87.366,90.143,76.984,154.592c-12.468,77.02-30.67,170.447-73.432,267.041
				C7830.182,4531.121,7810.382,4582.582,7772.92,4598.914z"/>
			<path id="_x31_80623711" fill="#A0EE9D" stroke="#000000" d="M7398.21,5271.705c-31.47,7.256-66.188,11.764-96.744,8.025
				c11.824,1.246,52.939-41.98,62.512-49.145c27.474-20.49,55.691-39.816,83.242-61.809
				c75.75-60.551,146.498-124.523,182.52-215.119c36.694-92.184,36.16-187.354,52.363-282.941c1.663-9.91,3.494-19.736,5.571-29.643
				c1.583-7.58,78.348,1.307,86.095,1.719c37.299,2.32,79.433,12.883,116.071,28.523c34.729,14.809,64.457,34.201,80.37,55.344
				c2.164,2.912,4.082,5.824,5.744,8.822c29.492,53.691-16.175,185.928-75.523,231.238l-0.082-0.002
				c-87.155,66.477-177.639,130.363-270.791,188.012c-67.262,41.654-131.189,89.133-208.448,111.059
				C7413.779,5267.871,7406.124,5269.873,7398.21,5271.705z"/>
			<path id="_x31_80623697" fill="#98D6F9" stroke="#000000" d="M5631.104,3962.068c12.069,98.229,3.646,252.123,2.656,396.713
				c60.616,26.748,141.479,10.863,166.577,24.945c130.62,73.373,236.46,310.934,312.983,433.666
				c49.179,78.85,97.087,154.602,150.582,230.939c120.426,171.813,322.093,438.322,541.5,479.785
				c122.348,23.129,188.58-30.316,280.188-110.992c173.5-152.801,401.501-300.006,487.134-423.184
				c106.061-152.574,53.474-240.979,96.427-326.938c-14.438-28.621-1.996-77.523-0.543-108.346
				c5.641-177.746,36.835-353.924,37.675-531.684c0.3-65.219-15.267-130.258-24.132-194.762
				c-15.258-110.866-45.434-239.23-90.986-341.191c-74.788-167.428-173.803-335.494-299.133-470.185
				c-91.518-98.353-200.924-178.459-317.394-244.724c-112.794-64.164-241.276-135.013-365.007-174.41
				c-138.436-44.084-286.52-64.369-432.682-56.084c-1.415,10.228-16.386,18.021-18.469,19.274
				c-10.741,6.42-22.482,9.934-33.742,12.158c-27.104,5.375-57.413,11.696-84.225,18.541
				c-126.41,32.26-243.728,73.756-335.949,171.453c-64.636,68.51-89.888,143.5-114.945,231.755
				c-18.275,64.272-41.856,129.225-43.915,196.639c-1.819,58.805,3.344,115.343,12.012,173.462
				c5.782,38.833,8.061,78.274,13.4,117.244c11.303,82.414,24.759,164.146,33.972,246.805
				C5613.643,3809.676,5621.646,3885.066,5631.104,3962.068z"/>
			<path id="_x31_80623696" fill="#80CDF8" stroke="#000000" d="M7004.774,5521.877c-28.197,49.682-51.356,100.232-60.575,157.367
				c-5.058,31.359-2.887,65.568,4.87,96.275c9.697,38.363,43.596,79.906,64.779,113.072
				c11.458,17.926-103.799,128.086-126.865,136.145c-52.828,18.467-123.78-0.74-167.072,43.344
				c-34.593,35.232-20.508,88.758-83.471,96.137c-45.464,5.334-69.905-19.193-96.031-50.908
				c-36.328-44.152-56.209-114.699-105.669-147.268c-57.549-37.895-123.955-12.637-187.036-21.271
				c-116.315-15.906-150.91-152.557-205.715-239.83c-35.774-56.98-111.029-130.15-117.313-199.348
				c-7.46-82.518,13.724-162.072-1.819-247.766c-14.234-78.533-108.516-305.43-112.522-321.357
				c-10.603-42.332-1.379-36.672-12.384-80.709c-9.222-36.883-27.392-72.051-71.808-116.438
				c-21.637-21.637,13.996-19.805,43.697-53.096c40.85-45.803,39.531-62.463,28.605-139.896
				c-4.12-29.236-52.175-117.621-34.942-134.863c37.104-37.123,140.567,141.775,162.022,172.063
				c66.777,94.217,127.139,192.094,188.284,290.143c49.183,78.846,97.079,154.594,150.589,230.932
				c120.423,171.816,312.66,421.654,532.08,463.127C6874.743,5582.504,6935.702,5551.035,7004.774,5521.877z"/>
			<path id="_x31_80623707" fill="#80CDF8" stroke="#000000" d="M5939.313,6407.809c-68.668,31.51,10.819,100.516,60.712,75.391
				C6063.283,6451.336,5988.288,6385.332,5939.313,6407.809z"/>
			<path id="_x31_80623708" fill="#80CDF8" stroke="#000000" d="M6232.206,6479.182c3.665,46.221,80.887,33.369,99.631,5.129
				C6369.326,6427.836,6228.18,6428.273,6232.206,6479.182z"/>
			<path id="_x31_80623709" fill="#80CDF8" stroke="#000000" d="M6935.214,6283.436c-54.722-2.793-28.124,102.033,24.742,75.98
				C6998.353,6340.492,6969.827,6285.188,6935.214,6283.436z"/>
			<path id="_x31_80623710" fill="#80CDF8" stroke="#000000" d="M6603.642,6427.881c-48.898-33.977-208.359-15.992-194.588,70.084
				c13.613,85.225,187.979,124.4,241.059,60.232C6686.318,6514.424,6642.046,6454.58,6603.642,6427.881z"/>
			<path id="_x31_80623706" fill="#80CDF8" stroke="#000000" d="M7290.538,6118.123c-10.197,36.084-23.803,70.781-33.301,106.576
				c-13.032,49.115,26.584,95.428,36.261,140.912c18.819,88.449-38.576,109.682-106.233,138.822
				c-58.943,25.404-105.563,66.244-154.652,104.436c-20.991,16.33-42.43,32.18-65.492,46.125
				c-63.078,38.164-143.76,47.691-213.982,66.146c-72.078,18.947-145.677,33.879-219.853,41.512
				c-121.429,12.486-257.629,19.734-379.699,11.064c-69.752-4.951-114.415,2.207-177.466-35.959
				c-81.629-49.42-135.832-138.146-164.97-228.75c-48.352,45.613-99.471,98.006-91.325,105.906
				c96.373,93.42,184.757,203.686,315.609,282.643c420.24,253.584,938.541,15.256,1220.072-331.883
				c41.258-50.855,74.445-108.793,106.836-165.639c24.072-42.299,70.915-121.592,108.346-169.99
				C7447.258,6212.25,7353.551,6155.805,7290.538,6118.123z"/>
			<path id="_x31_80623705" fill="#80CDF8" stroke="#000000" d="M5976.124,6737.754c63.047,38.168,107.712,31.01,177.464,35.961
				c122.072,8.674,258.271,1.422,379.699-11.063c74.174-7.633,147.776-22.564,219.854-41.512
				c70.219-18.455,150.9-27.984,213.98-66.146c23.063-13.947,44.499-29.795,65.492-46.127
				c49.09-38.193,95.711-79.031,154.652-104.436c67.657-29.143,125.053-50.375,106.231-138.82
				c-9.675-45.484-49.293-91.799-36.261-140.912c9.5-35.797,23.105-70.492,33.303-106.576
				c-28.715-17.172-51.051-30.445-57.462-34.395c-7.239-4.451-14.188-7.58-20.892-9.551c4.506,20.125,7.48,42.145,5.65,61.346
				c-3.358,35.211-35.219,55.912-48.387,86.719c-28.633,67.025,50.714,81.018,62.521,133.377
				c16.658,73.904-103.754,86.441-144.313,114.371c-30.995,21.334-54.118,51.51-85.728,73.193
				c-62.918,43.158-140.068,61.949-214.083,75.516c-78.56,14.402-155.539,6.719-234.304,17.072
				c-172.912,22.748-314.233,50.588-477.6-35.207c-72.643-38.15-153.399-80.834-196.663-153.16
				c-14.343,12.184-40.792,35.809-68.129,61.598C5840.29,6599.609,5894.495,6688.336,5976.124,6737.754z"/>
			<path id="_x31_80623704" fill="#80CDF8" stroke="#000000" d="M7217.837,6135.521c1.83-19.201-1.145-41.219-5.65-61.344
				c-87.301-25.648-132.921,145.998-222.041,172.469c-65.973,19.598-117.984,31.102-140.586,104.895
				c-27.181,88.75-74.168,153.83-175.016,112.313c-72.767-29.965-127.31-108.809-217.064-90.975
				c-50.685,10.084-99.11,28.92-146.841,48.309c-48.313,19.621-88.828,42.559-141.648,32.076
				c-49.589-9.82-92.047-51.094-140.984-63.455c-58.38-14.756-92.331,17.092-138.798,49.557c-1.668,1.166-5.117,3.963-9.923,8.039
				c43.264,72.326,124.022,115.01,196.663,153.16c163.364,85.795,304.684,57.955,477.6,35.209
				c78.763-10.359,155.744-2.676,234.302-17.074c74.015-13.566,151.165-32.357,214.083-75.516
				c31.607-21.684,54.732-51.859,85.729-73.191c40.558-27.93,160.97-40.465,144.312-114.371
				c-11.808-52.363-91.154-66.354-62.521-133.379C7182.616,6191.436,7214.48,6170.736,7217.837,6135.521z M6000.023,6483.199
				c-49.893,25.127-129.378-43.881-60.71-75.391C5988.288,6385.332,6063.283,6451.336,6000.023,6483.199z M6331.837,6484.309
				c-18.744,28.24-95.966,41.094-99.631-5.129C6228.18,6428.273,6369.326,6427.836,6331.837,6484.309z M6650.112,6558.199
				c-53.082,64.164-227.445,24.992-241.061-60.232c-13.768-86.074,145.689-104.061,194.59-70.084
				C6642.046,6454.58,6686.318,6514.424,6650.112,6558.199z M6959.956,6359.416c-52.868,26.053-79.466-78.773-24.742-75.98
				C6969.827,6285.188,6998.353,6340.492,6959.956,6359.416z"/>
			<path id="_x31_80623700" fill="#90CBED" stroke="#000000" d="M5442.909,3212.659c-40.75-61.991-72.405-129.571-125.149-182.373
				c-30.756-30.791-64.262-103.161-127.005-105.69l-1.565,0.354c-40.089,9.3-80.502,17.321-120.699,24.548
				c-20.86,3.746-42.045,8.41-63.411,13.223l-44.633,9.429c50.18,32.679,88.277,80.585,137.394,115.105
				c62.256,43.78,123.247,89.952,187.415,130.881c82.028,52.314,220.931,156.271,235.965,181.236
				C5503.149,3300.86,5442.909,3212.659,5442.909,3212.659z"/>
			<path id="_x31_80623699" fill="#90CBED" stroke="#000000" d="M5532.142,3432.775c18.615,81.198,31.913,167.935,43.7,250.815
				c18.372,129.215,34.108,263.591,39.511,393.798c1.578,37.666-5.16,77.539-5.277,115.738
				c-0.119,44.232-0.054,84.596-4.727,130.781c-0.511,5.088-6.019,39.496-7.846,60.346
				c-109.262,22.699-126.813,61.467-188.224,84.971c-50.507,19.328-139.365-50.664-164.24-86.635
				c-38.25-55.301-38.563-119.389-54.858-183.02c-29.278-114.244-106.495-218.484-166.334-318.863
				c-57.812-96.97-115.195-222.187-204.739-293.107L4808,3571.681l2.588-583.168c45.131,3.043,91.084-3.773,136.664-13.103
				l13.194-3.26c50.18,32.68,88.277,80.585,137.394,115.106c62.256,43.78,123.247,89.952,187.415,130.881
				c82.028,52.313,220.931,156.271,235.965,181.235L5532.142,3432.775z"/>
			<path id="_x31_80623695" fill="#A2B1D8" stroke="#000000" d="M5463.056,5914.576c157.838,80.449,294.898,114.85,437.193,168.238
				c109.465,41.072,239.843,85.334,270.947,213.041c8.053,33.105,6.797,54.809-38.024,99.658
				c110.347,69.896,216.976-38.662,330.242-61.207c89.764-17.834,136.084,62.34,208.866,92.299
				c100.857,41.521,129.397-11.695,156.592-100.451c22.588-73.793,78.564-92.887,144.533-112.486
				c87.214-25.928,109.971-146.846,205.667-168.213c-54.402-16.342-118.967-85.494-156.466-111.365
				c-54.154,46.602-43.572,88.287-119.258,114.738c-52.822,18.469-111.584-3.676-154.876,40.406
				c-34.589,35.236-32.698,100.023-95.667,107.406c-45.464,5.332-110.359-35.543-136.469-67.262
				c-36.344-44.146-55.768-103.838-105.242-136.418c-57.546-37.887-101.576-3.354-164.658-11.986
				c-116.311-15.916-198.302-205.813-253.1-293.092c-41.517-66.107-134.897-201.539-253.089-260.959
				c-62.589-31.461-133.088-27.008-197.385-54.875c-64.607-28.012-121.094-54.25-168.135-109.096
				c-91.222-106.307-137.384,53.514-142.776,122.309c-10.949,139.734,29.612,285.521,101.096,405.123
				C5366.695,5846.697,5403.394,5884.17,5463.056,5914.576z"/>
			<path id="_x31_80623698" fill="#96A7D3" stroke="#000000" d="M5019.415,5067.537c142.154-169.389,49.092-407.014,68.621-599.674
				c7.773-76.645,70.586-140.389,68.076-217.824c-4.436-136.346-92.447-238.369-157.859-348.105
				c-57.81-96.954-102.728-204.489-187.457-281.902l-2.278,1530.834C4858.274,5181.852,4989.13,5103.621,5019.415,5067.537z"/>
			<path id="_x31_80623694" fill="#96A7D3" stroke="#000000" d="M5142.116,6289.031c-30.695-8.863,14.969-313.92,44.103-345.225
				c83.645-89.848,173.9-29.842,254.726-3.445c153.418,50.096,300.307,118.234,451.291,174.887
				c57.988,21.76,99.164,29.039,151.828,62.568c63.714,40.576,145.776,155.918,53.619,192.465
				c-28.584,11.342-55.33-13.475-79.66-16.699c-144.98-19.266-245.955,167.707-330.868,237.285
				c-88.854-86.242-197.924-185.912-347.869-236.85C5278.533,6333.395,5204.208,6306.938,5142.116,6289.031z"/>
			<path id="_x31_80623702" fill="#B3C0DF" stroke="#000000" d="M5626.339,4651.256c-1.623,16.277-1.562,37.326-3.755,55.816
				c15.188-4.354,30.733-4.717,45.269-1.035c40.919,10.355,73.043-13.035,91.572-42.703c30.968-49.598,20.027-82.977,4.122-131.139
				c-14.726-44.635-34.153-105.242-66.642-122.791c-29.632-15.998-64.021-17.775-98.72-8.678
				c5.137,54.846,19.073,108.463,25.786,163.113C5627.532,4592.797,5629.245,4622.154,5626.339,4651.256z"/>
			<path id="_x31_80623703" fill="#B3C0DF" stroke="#000000" d="M5886.593,5241.957c-17.449-91.857-54.174-171.701-60.427-193.564
				c-3.212-11.234-13.869-44.752-15.623-33.295c-11.424,74.936-33.078,104.645-71.774,114.504
				c-18.82,4.801-40.283,1.314-59.93-5.021c19.437,44.234,42.84,85.879,56.813,132.738c10.044,33.666,31.484,112.621,1.897,145.551
				c94.119,40.58,136.937,96.566,149.129,82.627C5908.485,5460.557,5904.051,5333.807,5886.593,5241.957z"/>
			<path id="_x31_80623701" fill="#B3C0DF" stroke="#000000" d="M5735.65,5257.316c-13.974-46.859-37.377-88.504-56.813-132.738
				c-33.962-10.959-62.485-30.434-62.485-30.434c-41.286-28.602-75.904-69.641-91.773-113.91
				c-25.144-70.203-4.275-159.539,32.957-220.863c16.884-27.807,40.5-45.268,65.049-52.299c2.193-18.49,2.132-39.539,3.755-55.816
				c2.904-29.1,1.195-58.457-2.367-87.416c-6.709-54.648-20.647-108.268-25.786-163.113c-42.288,11.084-85.029,38.324-120.149,75.68
				c-35.227,37.527-70.37,81.695-96.656,125.57c-56.621,94.594-71.076,209.635-67.674,318.336
				c3.041,96.678,12.908,239.365,75.544,319.09c56.078,71.391,195.474,117.119,287.15,142.09
				c22.444,6.113,42.767,13.451,61.142,21.379C5767.135,5369.939,5745.694,5290.984,5735.65,5257.316z"/>
			<path id="_x31_80623689" fill="#E64438" stroke="#000000" d="M5184.586,4311.135c-86.06,103.145-62.258,249.725-57.055,375.449
				c6.298,151.945,0.089,278.922-88.678,403.15c-27.375,38.322-177.801,128.201-227.551,97.209l1.146,316.391l3.92,547.086
				c-0.471-0.102-0.941-0.18-1.417-0.23c-1.104-0.604-2.225-1.189-3.372-1.748l0.062,188.684c2.02-0.002,4.045,0.016,6.069,0.035
				l0.003,0.086c0,0,45.138,1.277,64.91,3.49c-0.007-0.117-0.017-0.248-0.024-0.367c69.528,6.154,143.981,20.844,227.4,42.172
				c-3.916-55.604,6.781-123.088,13.833-178.438c12.461-97.836,4.836-154.57,66.55-201.928
				c44.554-34.189,93.982-31.797,145.696-18.779c22.897-2.096-19.606-80.986-39.585-114.475
				c-64.563-108.215-80-203.781-89.61-320.525c-8.05-97.799,26.998-179.018,72.776-241.477
				c28.724-39.193,32.107-62.75,27.034-89.521c-14.597-77.006-21.354-138.898-24.436-212.398
				c-4.045-96.389,8.445-182.324,44.082-269.09c15.342-37.361,61.384-112.559,96.339-144.605
				C5299.368,4520.701,5213.814,4419.076,5184.586,4311.135z"/>
			<path id="_x31_80623693" fill="#FF5547" stroke="#000000" d="M4981.612,6003.287c-4.006-109.242-10.475-232.193-62.29-330.717
				c-14.46-27.492-72.697-72.01-107.891-74.887l0.146,450.756c64.118,31.184,61.323,131.121,68.769,191.727
				c34.397,2.957,70.001,8.023,107.292,14.955C5004.692,6175.982,4984.522,6082.34,4981.612,6003.287z"/>
			<path id="_x31_80623691" fill="#FF5547" stroke="#000000" d="M5076.653,5555.297c-34.44-51.77-70.392-103.195-114.753-147.029
				c-22.142-21.879-46.169-42.096-73.622-56.982c-13.552-7.355-27.456-13.412-42.267-17.729c-11.483-3.354-23.539-1.24-34.665-2.342
				l0.085,266.473c35.193,2.877,93.435,47.395,107.893,74.887c51.813,98.523,58.286,221.475,62.29,330.717
				c2.909,79.053,23.078,172.695,6.025,251.832c38.771,7.211,79.376,16.432,122.355,27.424
				c3.446-103.5,13.801-295.002,55.408-355.381c19.853-28.809,49.338-45.291,84.822-50.072
				c-27.802-34.691-48.214-86.701-68.217-124.781C5138.255,5669.061,5127.725,5632.061,5076.653,5555.297z"/>
			<path id="_x31_80623690" fill="#FF5547" stroke="#000000" d="M4811.577,6048.439l0.062,188.684
				c22.449-0.008,45.301,1.031,68.707,3.043C4872.9,6179.561,4875.694,6079.621,4811.577,6048.439z"/>
			<path id="_x31_80623692" fill="#F2483B" stroke="#000000" d="M5184.594,4311.123c-58.04,69.553-63.242,149.486-62.2,235.613
				c2.092,170.922,35.984,400.553-83.54,542.998c-30.267,36.09-177.801,128.201-227.549,97.209l0.044,144.27
				c11.124,1.104,23.18-1.01,34.665,2.344c14.811,4.316,28.715,10.373,42.267,17.727c27.451,14.889,51.479,35.107,73.62,56.982
				c44.363,43.836,80.314,95.264,114.753,147.031c51.071,76.764,61.604,113.764,105.352,197.014
				c20.001,38.078,40.415,90.086,68.217,124.779c24.142-3.248,51.054-1.088,79.605,6.307
				c56.207,14.557-66.22-152.557-81.247-203.963c-37.456-128.125-68.002-262.385-18.86-389.24
				c22.031-56.879,88.733-96.129,76.969-158.223c-14.597-77.014-21.362-153.473-24.442-226.973
				c-4.045-96.389,8.447-182.324,44.084-269.09c15.341-37.363,61.384-112.559,96.339-144.605
				C5299.368,4520.701,5213.814,4419.076,5184.594,4311.123z"/>
			<path id="_x31_80623784" fill="#CCCCCC" stroke="#000000" d="M6609.608,2601.761c-138.48-44.082-286.521-64.435-432.643-56.145
				c-62.946,3.602-132.299,12.368-196.739,27.042c-84.009,19.092-163.173,62-234.514,109.316
				c-30.217,19.993-54.521,48.558-83.653,70.3c-109.217,81.549-236.098,104.152-363.393,143.41
				c-35.882,11.085-72.515,20.757-109.481,29.258c-40.041,9.34-80.506,17.345-120.637,24.605
				c-35.13,6.254-71.181,15.176-107.482,23.01c-50.119,10.759-100.737,19.352-150.448,15.955l-0.082-257.196
				c23.895-0.008,46.707-0.933,68.855-2.687c13.989,0.078,28.895-2.009,43.045-4.426c18.985-2.338,37.716-5.173,56.615-8.428
				c0,0,0,0,0.084,0c25.479-2.006,69.609-5.768,94.25-17.85c1.499-0.331,2.996-0.582,4.495-0.914
				c15.399-3.086,30.555-6.508,45.539-10.258c20.231-5,40.136-10.585,59.611-16.835c63.937-20.171,123.881-46.584,179.734-78.907
				c72.423-41.906,138.019-93.883,196.699-155.432c41.115-42.974,78.815-90.697,113.186-142.996
				c9.488-14.324,19.726-27.231,30.963-38.643c13.483-13.66,28.467-25.154,45.197-34.403c13.902-7.662,29.055-13.831,45.624-18.331
				c66.518-18.34,113.981-7.198,181.428,3.604c76.103,12.132,151.21,29.76,225.072,51.717
				c113.825,33.852,224.744,78.029,332.084,128.367c17.322,8.154,34.816,15.394,52.295,22.215h0.084
				c30.811,12.144,61.955,23.291,92.936,36.355c82.021,34.525,162.961,73.047,238.416,120.401
				c42.891,26.963,84.275,56.257,123.003,88.969c12.993,10.986,26.317,21.721,39.893,32.292
				c47.891,37.784,97.689,74.319,141.416,116.02c63.132,60.18,115.606,120.192,167.171,190.2
				c74.297,100.803,142.195,207.522,193.768,321.909l-0.002,0.083c4.586,9.99,9.002,20.063,13.25,30.139
				c35.662,84.832,69.412,176.908,96.09,271.316c27.674,98.072,47.525,198.563,53.383,295.723
				c0.921,14.074,1.508,27.98,1.758,41.883c0.169,7.576,0.176,15.068,0.176,22.648c0.005,6.744,0.005,13.57-0.076,20.314
				c0,1.248-0.002,2.416-0.082,3.662l-0.002,0.082c-2.873,113.984-17.089,179.104-27.129,292.592
				c-0.414,4.328-0.832,8.74-1.246,13.158l-0.084-0.002c-7.56,56.619-15.447,113.236-21.674,169.859
				c-0.083,0.496-0.086,0.912-0.168,1.416c-6.563,51.375-11.708,102.414-11.772,148.791c-0.002,0.332-0.004,0.582-0.004,0.916
				c-0.992,14.238-2.402,33.723-4.232,44.547c-0.996,5.826-2.079,9.16-3.243,7.912c-26.82-28.389-9.438-85.008-8.365-119.65
				c5.602-177.68,36.851-353.871,37.632-531.637c0.31-65.193-15.202-130.297-24.128-194.737
				c-15.188-110.902-45.367-239.282-90.949-341.261c-74.823-167.414-173.789-335.49-299.146-470.166
				c-91.533-98.299-200.885-178.444-317.39-244.685C6861.841,2712.002,6733.347,2641.105,6609.608,2601.761z"/>
			<path id="_x31_80623785" fill="#CCCCCC" stroke="#000000" d="M5811.093,4947.34c-2.014-35.553-7.44-68.742-13.123-91.502
				c-5.468-21.865-14.865-48.738-26.677-67.846c-54.427-88.02-154.511-126.203-213.758-28.625
				c-37.231,61.324-58.101,150.66-32.957,220.863c24.936,69.58,96.199,131.188,166.903,149.059
				C5797.125,5156.02,5816.488,5043.055,5811.093,4947.34z"/>
			<path id="_x31_80623786" fill="#CCCCCC" stroke="#000000" d="M7561.067,5902.053c-59.439,32.609-125.849,59.039-167.703,115.73
				c-52.094,70.531,26.611,116.313,87.391,148.869c7.349,3.928,24.025,9.209,30.254,12.531c0.012-0.012,0.02-0.021,0.031-0.031
				c24.673-28.939,51.81-57.006,79.025-82.105c48.888-48.5,183.895-140.719,220.293-161.809
				C7737.871,5864.479,7647.63,5854.576,7561.067,5902.053z"/>
			<path id="_x31_80623783" fill="#AAAAAA" stroke="#000000" d="M5631.104,3962.068c11.923,97.117,10.365,198.65,8.291,296.102
				c-0.787,36.088-4.946,72.461-6.611,108.473c-0.963,21.025,0.331,65.41-20.965,78.148c-25.599-31.914-10.907-81.844-6.613-118.313
				c5.243-44.25,4.754-88.861,4.87-133.35c0.12-38.197,6.856-78.072,5.28-115.736c-5.406-130.211-21.141-264.584-39.513-393.8
				c-11.785-82.877-25.085-169.615-43.698-250.815c-17.782-77.506-45.372-153.393-89.232-220.117
				c-40.752-61.989-72.407-129.569-125.149-182.374c-30.756-30.791-64.262-103.158-127.007-105.689
				c36.264-8.45,72.314-17.93,107.918-28.911c127.275-39.262,254.17-61.854,363.367-143.408
				c29.143-21.782,53.385-50.343,83.641-70.37c71.355-47.241,150.516-90.165,234.528-109.295
				c22.65-5.163,101.47-22.259,196.741-26.998c-1.415,10.229-16.384,18.022-18.469,19.275c-10.741,6.419-22.482,9.934-33.742,12.159
				c-27.104,5.375-57.413,11.696-84.225,18.541c-126.41,32.259-243.726,73.756-335.949,171.453
				c-64.636,68.51-89.888,143.5-114.945,231.755c-18.275,64.271-41.854,129.225-43.915,196.639
				c-1.817,58.805,3.344,115.343,12.012,173.462c5.784,38.833,8.061,78.274,13.4,117.244
				c11.303,82.414,24.759,164.146,33.972,246.806C5613.643,3809.676,5621.646,3885.066,5631.104,3962.068z"/>
		</g>
	</g>
	<g transform="scale(1.0)">
		<g id="_x31_80623684_1_" transform=" scale(1.0, 1.0)">
			<path id="_x31_80623686_1_" fill="#BFDAE3" stroke="#000000" d="M4805.493,2731.314l0.506-1570.428
				c-21.813-28.988-61.572-74.51-89.463-107.117c-123.875-144.745-245.772-237.817-437.669-277.503
				c-178.593-36.929-361.398-16.097-539.007,15.148c-169.897,29.887-346.502,37.241-514.574,79.497
				c-98.261,24.707-197.738,53.393-295.371,81.648c-163.042,47.191-318.737,115.639-472.365,187.046
				c-128.346,59.637-264.1,95.018-390.604,163.348c-399.849,215.996-814.785,468.311-1048.24,873.145
				c-143.281,248.474-247.572,544.108-280.623,829.305c-7.01,60.6-16.238,122.423-20.759,183.914
				c-12.579,171.39,2.092,355.729,28.712,525.375c96.869,617.603,199.282,972.691,370.418,1322.374
				c133.8,273.407,298.019,614.423,548.279,799.973c97.985,72.654,201.74,135.8,299.325,208.324
				c98.293,73.05,171.638,163.198,237.671,267.087c53.698,84.514,95.229,174.906,158.76,253.215
				c281.531,347.148,799.848,585.475,1220.07,331.895c256.452-154.766,401.007-443.277,696.154-543.543
				c170.507-57.895,346.286-114.549,527.649-116.891L4805.493,2731.314"/>
			<path id="_x31_80623687_1_" fill="#B0FFB8" stroke="#000000" d="M2117.041,6193.622
				c147.247-78.301,372.979-194.007,470.552-333.59c246.925-353.262-420.493-613.66-565.854-837.38
				c-60.969-93.836-75.314-234.052-82.7-344.373c-4.645,4.946-8.231-65.685-8.411-69.656
				c-9.599-203.919-58.221-409.121-61.208-613.313c-0.207-14.321-0.19-28.646,0.083-42.959
				c3.805-202.575,73.228-423.249,151.222-608.871c52.875-125.851,126.236-242.499,207.012-352.158
				c51.557-70.018,104.043-130.047,167.204-190.221c56.054-53.394,122.025-98.334,181.264-148.329
				c38.735-32.677,80.079-62.007,122.97-88.939c75.502-47.379,156.404-85.868,238.441-120.409
				c48.678-20.509,97.441-36.094,145.352-58.554c176.979-82.934,363.694-149.291,557.244-180.124
				c67.407-10.736,114.843-21.936,181.365-3.57c52.949,14.61,91.621,45.355,121.843,91.346
				c141.601,215.522,340.213,353.333,594.78,404.424c93.591,18.784,171.382,34.373,267.295,34.366l0.508-1570.428
				c-21.813-28.987-61.572-74.509-89.463-107.117c-123.875-144.745-245.771-237.826-437.669-277.503
				c-178.593-36.928-361.4-16.097-539.007,15.148c-169.897,29.887-346.502,37.241-514.574,79.497
				c-98.261,24.707-197.738,53.393-295.371,81.648c-163.042,47.191-318.737,115.639-472.365,187.046
				c-128.346,59.637-264.1,95.018-390.604,163.348c-399.849,215.996-814.785,468.311-1048.24,873.145
				c-143.279,248.473-247.57,544.109-280.623,829.305c-7.01,60.6-16.238,122.423-20.757,183.915
				c-12.579,171.389,2.088,355.728,28.71,525.374c96.869,617.603,199.28,972.691,370.418,1322.374
				c133.798,273.407,298.019,614.423,548.277,799.973c97.987,72.654,201.742,135.8,299.327,208.324
				C2014.249,6082.658,2071.005,6137.175,2117.041,6193.622z"/>
			<path id="_x31_80623767_1_" fill="#1F9D5A" stroke="#000000" d="M3020.677,926.462c68.112-19.461,136.727-38.509,204.672-55.552
				c168.037-42.243,344.637-49.596,514.498-79.513c43.969-7.734,88.262-14.879,132.811-20.526l-0.283,94.669
				c-288.426,24.966-600.605,134.854-810.78,198.896L3020.677,926.462z"/>
			<path id="_x31_80623766_1_" fill="#1F9D5A" stroke="#000000" d="M3161.484,1401.263l-99.891-336.827
				c210.173-64.042,522.354-173.93,810.78-198.896l-1.01,289.998c-81.604,21.457-161.465,55.318-242.902,83.435
				c-141.726,48.913-286.363,94.825-428.007,147.649C3187.462,1391.448,3174.472,1396.356,3161.484,1401.263z"/>
			<path id="_x31_80623765_1_" fill="#1F9D5A" stroke="#000000" d="M3161.479,1401.345l0.004-0.083
				c12.989-4.906,25.979-9.815,38.971-14.642c141.644-52.825,286.281-98.737,428.007-147.649
				c81.443-28.118,161.3-61.979,242.904-83.435l-1.207,384.087c-99.167,13.29-203.174,50.808-283.028,78.343
				c-109.421,37.68-217.506,79.526-325.094,122.454L3161.479,1401.345z"/>
			<path id="_x31_80623764_1_" fill="#1F9D5A" stroke="#000000" d="M3262.039,1740.419
				c107.588-42.927,215.673-84.773,325.092-122.455c79.854-27.534,183.861-65.053,283.028-78.343l-1.568,468.264
				c-88.34-2.279-208.754,47.307-288.855,70.26c-61.952,17.717-128.818,39.592-198.353,64.716L3262.039,1740.419z"/>
			<path id="_x31_80623763_1_" fill="#1F9D5A" stroke="#000000" d="M3381.379,2142.862c69.534-25.123,136.4-46.997,198.353-64.716
				c80.104-22.952,200.518-72.536,288.857-70.259l-0.652,206.319l-0.749,5.329c-13.9-7.663-29.053-13.83-45.622-18.332
				c-66.52-18.338-113.981-7.197-181.43,3.604c-76.103,12.132-151.206,29.76-225.068,51.716L3381.379,2142.862z"/>
			<path id="_x31_80623772_1_" fill="#1F9D5A" stroke="#000000" d="M3872.653,770.868c135.057-17.442,271.776-22.393,406.15,5.377
				c191.903,39.696,313.854,132.821,437.698,277.568c27.883,32.566,67.669,78.12,89.474,107.105l-0.061,189.087l-202.641,205.339
				c1.38-159.527-19.794-322.812-100.684-454.892c-129.402-211.192-370.182-257.564-630.217-234.913L3872.653,770.868z"/>
			<path id="_x31_80623771_1_" fill="#1F9D5A" stroke="#000000" d="M3872.376,865.542c260.035-22.651,500.816,23.72,630.219,234.913
				c80.886,132.081,102.062,295.363,100.682,454.892l-208.979,211.832c-1.155-20.149-2.732-40.382-4.803-60.698
				c-20.258-199.086-20.829-493.246-255.851-557.102c-91.499-24.758-177.759-15.958-262.28,6.159L3872.376,865.542z"/>
			<path id="_x31_80623770_1_" fill="#1F9D5A" stroke="#000000" d="M3871.364,1155.537c84.52-22.119,170.781-30.917,262.28-6.159
				c235.023,63.856,235.595,358.016,255.849,557.102c2.072,20.316,3.647,40.551,4.805,60.7l-194.477,197.101
				c2.195-91.755-1.521-182.512-25.644-264.364c-45.075-152.885-170.129-178.567-304.019-160.293L3871.364,1155.537z"/>
			<path id="_x31_80623769_1_" fill="#1F9D5A" stroke="#000000" d="M3995.015,2171.787c-5.57-27.478-10.809-54.205-15.715-78.938
				c-12.303-61.7-55.173-83.527-110.709-84.961l1.568-468.264c133.892-18.274,258.942,7.409,304.019,160.293
				c24.122,81.852,27.839,172.609,25.644,264.363L3995.015,2171.787z"/>
			<path id="_x31_80623768_1_" fill="#1F9D5A" stroke="#000000" d="M3867.937,2214.208l0.652-206.319
				c55.538,1.434,98.406,23.26,110.711,84.96c4.906,24.734,10.145,51.459,15.713,78.938l-74.713,75.742l-7.911,6.411
				c-13.481-13.658-28.467-25.155-45.197-34.404L3867.937,2214.208z"/>
			<path id="_x31_80623744_1_" fill="#188064" stroke="#000000" d="M878.101,3001.729l-134.794-36.347
				c37.728-272.668,138.817-552.396,275.437-789.23l115.213,77.72C1000.745,2486.211,903.822,2749.622,878.101,3001.729z"/>
			<path id="_x31_80623743_1_" fill="#188064" stroke="#000000" d="M878.101,3001.728
				c25.722-252.107,122.645-515.518,255.855-747.856l278.613,187.844c-99.961,143.929-173.694,305.765-208.317,500.834
				c-7.921,44.464-16.182,91.585-24.439,140.457L878.101,3001.728z"/>
			<path id="_x31_80623742_1_" fill="#188064" stroke="#000000" d="M1304.859,3116.77l-125.047-33.763
				c8.258-48.872,16.519-95.995,24.439-140.457c34.623-195.07,108.356-356.905,208.317-500.834l112.463,75.807
				c-43.07,68.011-80.808,139.354-112.057,214.112C1362.645,2852.015,1327.549,2982.39,1304.859,3116.77z"/>
			<path id="_x31_80623741_1_" fill="#188064" stroke="#000000" d="M1591.422,3193.959l-286.563-77.189
				c22.689-134.379,57.787-264.754,108.116-385.135c31.249-74.757,68.986-146.101,112.057-214.112l290.354,195.757
				c-65.894,101.391-122.467,212.445-168.3,334.742C1628.586,3097.389,1609.504,3145.76,1591.422,3193.959z"/>
			<path id="_x31_80623740_1_" fill="#188064" stroke="#000000" d="M1591.42,3193.958c18.084-48.201,37.168-96.571,55.666-145.939
				c45.835-122.298,102.406-233.349,168.3-334.741l335.881,226.496c-9.498,12.903-18.907,26.055-28.069,39.456
				c-71.886,104.972-126.708,205.782-173.368,311.345L1591.42,3193.958z"/>
			<path id="_x31_80623739_1_" fill="#188064" stroke="#000000" d="M1949.833,3290.661v-0.083
				c46.658-105.561,101.48-206.375,173.368-311.342c9.16-13.402,18.571-26.556,28.069-39.456l0.084-0.002l76.414,51.565
				c-74.297,100.803-142.193,207.522-193.766,321.909L1949.833,3290.661z"/>
			<path id="_x31_80623762_1_" fill="#188064" stroke="#000000" d="M3061.594,1064.436c-14.403,4.408-28.312,8.565-41.72,12.477
				c-82.935,24.285-159.961,52.487-239.899,82.434c-70.698,26.456-141.063,49.327-211.174,71.286
				c-0.086,0.002-0.086,0.002-0.086,0.002l-47.251-120.413v-0.084c132.984-60.487,268.054-116.892,408.529-157.561
				c30.063-8.735,60.286-17.468,90.684-26.117L3061.594,1064.436z"/>
			<path id="_x31_80623761_1_" fill="#188064" stroke="#000000" d="M2699.438,1483.961c-9.159,3.577-18.153,7.071-27.063,10.649
				l-103.574-263.976c70.113-21.959,140.477-44.83,211.174-71.285c79.938-29.947,156.965-58.15,239.901-82.435
				c13.41-3.91,27.318-8.068,41.718-12.477l99.891,336.827l-0.004,0.083c-22.399,8.483-44.798,17.221-67.284,26.121l-0.667-1.666
				c28.851-115.059-101.894-44.827-156.768-30.774C2848.164,1417.816,2784.627,1450.765,2699.438,1483.961z"/>
			<path id="_x31_80623760_1_" fill="#188064" stroke="#000000" d="M2710.314,1591.282l-37.938-96.675
				c8.909-3.577,17.903-7.072,27.063-10.648c85.188-33.194,148.725-66.144,237.324-88.931
				c54.874-14.052,185.616-84.284,156.768,30.774l0.665,1.666c-128.232,50.751-257.557,106.743-383.802,163.815L2710.314,1591.282z"
				/>
			<path id="_x31_80623759_1_" fill="#188064" stroke="#000000" d="M2837.265,1914.466l-126.868-323.181
				c126.245-57.071,255.569-113.066,383.802-163.816c22.484-8.9,44.885-17.638,67.284-26.121l100.555,339.071
				c-78.11,31.033-155.972,62.647-233.913,93.677C2963.591,1859.804,2899.807,1886.511,2837.265,1914.466z"/>
			<path id="_x31_80623758_1_" fill="#188064" stroke="#000000" d="M2837.265,1914.548l-0.002-0.083
				c62.546-27.956,126.33-54.661,190.863-80.368c77.939-31.029,155.803-62.644,233.913-93.678l119.346,402.443
				c-125.403,45.336-259.558,101.661-389.798,164.815L2837.265,1914.548z"/>
			<path id="_x31_80623757_1_" fill="#188064" stroke="#000000" d="M3030.683,2407.104l-0.082,0.002l-39.016-99.429
				c130.238-63.155,264.395-119.478,389.798-164.815l33.685,113.662c-113.827,33.853-224.746,78.03-332.086,128.367
				C3065.659,2393.045,3048.165,2400.284,3030.683,2407.104z"/>
			<path id="_x31_80623750_1_" fill="#188064" stroke="#000000" d="M1133.956,2253.874l-115.213-77.72
				c168.373-292.03,431.215-504.759,714.693-681.597l0.169,0.168l49.178,72.868c-144.986,92.539-279.736,200.653-394.431,329.753
				C1296.148,2001.144,1209.266,2122.511,1133.956,2253.874z"/>
			<path id="_x31_80623749_1_" fill="#188064" stroke="#000000" d="M1412.569,2441.716l-278.613-187.845
				c75.31-131.361,162.192-252.728,254.396-356.526c114.694-129.099,249.446-237.214,394.431-329.753l207.976,308.467
				c-32.398,22.556-63.877,46.191-93.531,71.075C1710.591,2103.688,1540.187,2258.086,1412.569,2441.716z"/>
			<path id="_x31_80623748_1_" fill="#188064" stroke="#000000" d="M1412.571,2441.717
				c127.615-183.631,298.021-338.028,484.656-494.583c29.654-24.883,61.133-48.518,93.531-71.075l64.912,96.27
				c-204.708,149.222-394.27,330.422-530.639,545.193L1412.571,2441.717z"/>
			<path id="_x31_80623747_1_" fill="#188064" stroke="#000000" d="M1525.03,2517.521
				c136.369-214.771,325.931-395.971,530.641-545.194l190.739,282.903c-167.313,127.672-313.819,277.579-431.024,458.05
				L1525.03,2517.521z"/>
			<path id="_x31_80623746_1_" fill="#188064" stroke="#000000" d="M2151.265,2939.777l-335.881-226.496
				c117.205-180.472,263.714-330.378,431.024-458.05c0,0,0,0,0.084,0l239.846,355.689l-0.004,0.083
				c-126.003,94.71-240.104,200.499-334.981,328.773H2151.265z"/>
			<path id="_x31_80623745_1_" fill="#188064" stroke="#000000" d="M2227.767,2991.343l-76.414-51.566
				c94.875-128.275,208.98-234.063,334.983-328.773l50.02,74.118c-47.889,37.785-97.689,74.322-141.418,116.02
				C2331.808,2861.321,2279.333,2921.334,2227.767,2991.343z"/>
			<path id="_x31_80623756_1_" fill="#188064" stroke="#000000" d="M1782.783,1567.591l-49.18-72.868l-0.169-0.168l0.002-0.083
				c109.51-68.322,222.103-131.314,333.524-191.48c126.493-68.317,262.306-103.741,390.632-163.399
				c21.235-9.897,42.552-19.717,63.871-29.37l47.251,120.413c-177.446,55.478-353.226,104.879-527.107,191.5
				C1953.172,1466.151,1866.317,1514.249,1782.783,1567.591z"/>
			<path id="_x31_80623755_1_" fill="#188064" stroke="#000000" d="M1990.757,1876.059l-207.976-308.467
				c83.534-53.345,170.391-101.443,258.826-145.457c173.882-86.621,349.663-136.022,527.107-191.5c0,0,0,0,0.086-0.003
				l103.574,263.976c-156.88,62.563-281.047,125.965-428.203,219.504C2161.729,1766.542,2073.121,1818.3,1990.757,1876.059z"/>
			<path id="_x31_80623754_1_" fill="#188064" stroke="#000000" d="M2076.49,1957.265c-6.993,4.994-13.907,9.989-20.817,15.064
				l-64.912-96.271c82.36-57.76,170.971-109.516,253.413-161.945c147.156-93.537,271.321-156.943,428.201-219.504l37.936,96.675
				c-41.469,18.726-82.605,37.61-123.246,56.415C2409.778,1729.739,2235.139,1843.833,2076.49,1957.265z"/>
			<path id="_x31_80623753_1_" fill="#188064" stroke="#000000" d="M2246.412,2255.231l-190.741-282.902
				c6.912-5.075,13.822-10.07,20.817-15.063c158.65-113.433,333.29-227.527,510.576-309.567
				c40.641-18.806,81.777-37.689,123.246-56.415h0.084l126.868,323.182l0.002,0.083c-213.349,95.35-413.708,205.61-590.771,340.682
				C2246.41,2255.231,2246.41,2255.231,2246.412,2255.231z"/>
			<path id="_x31_80623752_1_" fill="#188064" stroke="#000000" d="M2486.336,2610.919l-239.844-355.689
				c177.064-135.071,377.422-245.332,590.771-340.682l154.322,393.129c-127.662,61.822-251.576,130.221-359.676,201.375
				C2581.946,2541.926,2533.311,2575.714,2486.336,2610.919z"/>
			<path id="_x31_80623751_1_" fill="#188064" stroke="#000000" d="M2699.253,2563.86c-42.891,26.964-84.277,56.258-123.005,88.969
				c-12.993,10.987-26.315,21.723-39.893,32.292l-50.02-74.118l0.004-0.083c46.971-35.206,95.606-68.995,145.569-101.868
				c108.1-71.155,232.016-139.553,359.678-201.375l39.016,99.428c-30.813,12.144-61.955,23.292-92.934,36.354
				C2855.644,2477.984,2774.704,2516.507,2699.253,2563.86z"/>
			<path id="_x31_80623738_1_" fill="#188064" stroke="#000000" d="M737.843,3642.55l-2.162,0.33
				c-19.773-149.045-29.124-306.08-18.335-453.531c4.513-61.528,13.776-123.306,20.788-183.918
				c1.507-13.322,3.255-26.644,5.173-40.049l134.794,36.347c-3.847,37.299-6.105,74.351-6.702,111.07
				c-2.713,167.272-6.688,348.445,4.077,526.212l-137.553,3.536L737.843,3642.55z"/>
			<path id="_x31_80623737_1_" fill="#188064" stroke="#000000" d="M871.398,3112.801c0.597-36.72,2.855-73.769,6.702-111.071
				l301.712,81.277c-29.032,173.591-56.818,369.663-61.039,549.755l-243.298,6.248
				C864.71,3461.244,868.686,3280.071,871.398,3112.801z"/>
			<path id="_x31_80623736_1_" fill="#188064" stroke="#000000" d="M1179.813,3083.006l125.047,33.764
				c-28.364,168.094-37.325,342.606-32.221,512.045l-153.865,3.947C1122.994,3452.67,1150.78,3256.598,1179.813,3083.006z"/>
			<path id="_x31_80623735_1_" fill="#188064" stroke="#000000" d="M1494.28,3623.143l-221.642,5.672
				c-5.106-169.438,3.856-343.952,32.219-512.045l286.563,77.191c-46.165,122.879-86.169,244.843-94.874,379.476
				C1495.458,3590.002,1494.704,3606.574,1494.28,3623.143z"/>
			<path id="_x31_80623734_1_" fill="#188064" stroke="#000000" d="M1949.829,3290.659
				c-42.662,96.485-78.413,196.806-114.249,307.865c-1.751,5.327-3.415,10.74-5.003,16.067l-0.082,0.001l-336.213,8.552
				c0.422-16.57,1.176-33.142,2.264-49.708c8.705-134.632,48.707-256.597,94.874-379.477l358.409,96.617V3290.659z"/>
			<path id="_x31_80623733_1_" fill="#188064" stroke="#000000" d="M2034.005,3313.334c-4.584,9.991-9,20.062-13.25,30.137
				c-35.662,84.832-69.412,176.908-96.09,271.318l-8.578-2.419l-85.508,2.221c1.588-5.329,3.252-10.739,5.003-16.066
				c35.836-111.06,71.587-211.382,114.249-307.867l84.172,22.593L2034.005,3313.334z"/>
			<path id="_x31_80623726_1_" fill="#009C75" stroke="#000000" d="M881.56,4395.613l-0.084-0.002
				c-24.863-95.675-48.146-198.592-70.59-311.421l1.75-0.333l0.082,0.003l128.9-21.11
				c30.937,103.258,77.949,199.521,130.123,293.623L881.56,4395.613z"/>
			<path id="_x31_80623725_1_" fill="#009C75" stroke="#000000" d="M1071.745,4356.371
				c-52.176-94.102-99.19-190.365-130.125-293.623l222.069-36.396c8.732,32.642,18.041,64.951,27.525,96.679
				c19.63,66.115,59.312,156.383,91.69,189.701L1071.745,4356.371z"/>
			<path id="_x31_80623724_1_" fill="#009C75" stroke="#000000" d="M1191.213,4123.03c-9.482-31.726-18.791-64.037-27.523-96.679
				l141.633-23.183c9.214,75.854,16.772,141.719,28.742,208.331l1.48,9.992c4.062,18.439,0.435,3.71,3.097,14.733
				c2.242,9.285,6.12,33.086,8.263,39.798c2.428,7.604,4.239,18.418,5.198,22.406l-69.115,14.301l-0.082,0.001
				C1250.526,4279.413,1210.845,4189.146,1191.213,4123.03z"/>
			<path id="_x31_80623723_1_" fill="#009C75" stroke="#000000" d="M1334.063,4211.501c-11.97-66.611-19.528-132.479-28.742-208.332
				l216.075-35.317c11.297,66.699,25.271,132.896,40.65,198.174c6.403,26.982,12.556,55.543,18.789,85.101l-228.732,47.304
				C1344.951,4268.784,1339.134,4240.059,1334.063,4211.501z"/>
			<path id="_x31_80623722_1_" fill="#009C75" stroke="#000000" d="M1696.158,4227.35l-115.241,23.777l-0.082-0.003
				c-6.235-29.556-12.386-58.116-18.791-85.099c-15.38-65.281-29.352-131.477-40.648-198.178l226.903-37.142
				c-14.508,56.281-27.433,118.057-9.947,114.567c66.112-13.223,94.513-39.52,130.991-70.229c-0.003,6.744-0.003,13.57,0.076,20.316
				c0.002,1.248,0.004,2.414,0.084,3.661l0.002,0.082c-0.006,13.657-78.784,57.675-96.36,73.657
				C1724.004,4117.458,1685.778,4162.904,1696.158,4227.35z"/>
			<path id="_x31_80623721_1_" fill="#009C75" stroke="#000000" d="M1748.299,3930.712l122.981-20.193
				c-0.921,14.068-1.508,27.975-1.758,41.883c-0.171,7.573-0.176,15.065-0.178,22.646c-36.479,30.707-64.877,57.006-130.993,70.229
				C1720.866,4048.763,1733.793,3986.989,1748.299,3930.712z"/>
			<path id="_x31_80623732_1_" fill="#11AD83" stroke="#000000" d="M930.554,4023.364c3.41,13.239,7.07,26.396,11.064,39.386
				l-128.9,21.11l-0.082-0.003l-1.75,0.333c-22.277-112.407-43.715-234.645-64.822-369.454
				c-3.737-23.646-7.145-47.626-10.383-71.858l2.16-0.331l0.082-0.001l137.553-3.536
				C883.431,3771.481,899.542,3902.043,930.554,4023.364z"/>
			<path id="_x31_80623731_1_" fill="#11AD83" stroke="#000000" d="M1127.774,3850.828c7.308,58.534,20.527,117.567,35.915,175.524
				l-222.071,36.398c-3.994-12.989-7.654-26.146-11.064-39.386c-31.012-121.321-47.123-251.883-55.078-384.354l243.298-6.248
				C1116.913,3709.279,1119.39,3782.966,1127.774,3850.828z"/>
			<path id="_x31_80623730_1_" fill="#11AD83" stroke="#000000" d="M1297.102,3936.893c2.988,23.063,5.644,45.045,8.221,66.276
				l-141.633,23.185c-15.388-57.957-28.607-116.99-35.915-175.526c-8.385-67.861-10.863-141.548-9.001-218.065l153.865-3.947
				C1275.767,3734.394,1284.396,3838.057,1297.102,3936.893z"/>
			<path id="_x31_80623729_1_" fill="#11AD83" stroke="#000000" d="M1305.322,4003.171c-2.577-21.233-5.232-43.215-8.221-66.278
				c-12.706-98.835-21.335-202.497-24.463-308.076l221.644-5.672c-3.2,115.146,8.001,230.719,27.113,344.707L1305.322,4003.171z"/>
			<path id="_x31_80623728_1_" fill="#11AD83" stroke="#000000" d="M1769.803,3851.116c-3.75,14.817-12.92,46.205-21.504,79.59
				l-226.901,37.144c-19.115-113.99-30.315-229.561-27.115-344.708l336.213-8.55
				C1806.491,3692.683,1789.896,3771.857,1769.803,3851.116z"/>
			<path id="_x31_80623727_1_" fill="#11AD83" stroke="#000000" d="M1924.667,3614.791
				c-27.674,98.071-47.524,198.561-53.383,295.724l-122.981,20.193c8.582-33.386,17.75-64.773,21.502-79.59
				c20.093-79.26,36.688-158.434,60.692-236.525l0.082-0.001l85.508-2.221L1924.667,3614.791z"/>
			<path id="_x31_80623777_1_" fill="#40A666" stroke="#000000" d="M4603.276,1555.346l202.641-205.341l-0.146,459.354h-2.748
				l-214.939,120.827c-3.067-46.043-3.471-92.256,1.21-140.379C4596.562,1715.624,4602.834,1635.946,4603.276,1555.346z"/>
			<path id="_x31_80623776_1_" fill="#40A666" stroke="#000000" d="M4393.296,2039.695c3.445-90.504,6.471-180.51,1.004-272.514
				l208.977-211.834c-0.442,80.599-6.715,160.277-13.983,234.461c-4.681,48.123-4.277,94.334-1.21,140.379L4393.296,2039.695z"/>
			<path id="_x31_80623775_1_" fill="#40A666" stroke="#000000" d="M4191.765,2152.949c2.27-61.613,6.536-125.389,8.057-188.669
				l194.477-197.102c5.469,92.006,2.443,182.013-1.002,272.517L4191.765,2152.949z"/>
			<path id="_x31_80623774_1_" fill="#40A666" stroke="#000000" d="M3995.013,2171.787l204.807-207.507
				c-1.521,63.28-5.787,127.056-8.057,188.669l-179.376,100.771C4006.234,2226.243,4000.413,2198.598,3995.013,2171.787z"/>
			<path id="_x31_80623773_1_" fill="#40A666" stroke="#000000" d="M3920.3,2247.527l74.713-75.743
				c5.4,26.814,11.222,54.458,17.374,81.936l-69.035,38.861c-9.488-14.324-19.726-27.234-30.963-38.644L3920.3,2247.527z"/>
			<path id="_x31_80623782_1_" fill="#40A666" stroke="#000000" d="M4538.121,2697.011c-15.399-3.086-30.555-6.507-45.541-10.258
				l2.086-8.823c3.431-44.876,52.551-40.864,77.71-74.912c82.873-112.375,56.876-279.491,44.51-410.714
				c-8.877-94.92-23.255-178.354-28.805-262.116l214.939-120.828l2.748,0.001l-0.305,921.956
				c-23.896-0.009-46.709-0.933-68.855-2.688c17.987-0.159,34.554-3.984,46.133-15.22c-20.387-38.724-76.001-56.892-113.21-74.305
				c-39.878-18.498-82.92-29.501-122.15,3.457c-33.146,27.798-26.327,44.784-4.767,55.364
				C4541.119,2697.593,4539.618,2697.343,4538.121,2697.011z"/>
			<path id="_x31_80623781_1_" fill="#40A666" stroke="#000000" d="M4492.582,2686.75c-20.231-4.999-40.132-10.587-59.611-16.836
				l6.166-19.731c-63.617-221.162-53.398-416.823-45.843-610.488l194.789-109.508c5.55,83.763,19.928,167.196,28.805,262.116
				c12.364,131.225,38.367,298.339-44.512,410.715c-25.159,34.046-74.28,30.035-77.71,74.911L4492.582,2686.75z"/>
			<path id="_x31_80623780_1_" fill="#40A666" stroke="#000000" d="M4393.294,2039.698
				c-7.556,193.665-17.774,389.324,45.843,610.488l-6.166,19.731c-63.935-20.17-123.879-46.586-179.732-78.908l2.75-4.747
				c-62.087-79.367-63.532-243.394-65.502-337.479c-0.652-31.058,0.021-63.195,1.278-95.835L4393.294,2039.698z"/>
			<path id="_x31_80623779_1_" fill="#40A666" stroke="#000000" d="M4191.765,2152.947c-1.256,32.639-1.933,64.777-1.278,95.834
				c1.968,94.086,3.411,258.112,65.502,337.479l-2.75,4.747c-72.427-41.905-138.019-93.882-196.701-155.431l7.998-7.572
				c-20.965-49.632-37.767-111.584-52.148-174.284L4191.765,2152.947z"/>
			<path id="_x31_80623778_1_" fill="#40A666" stroke="#000000" d="M3943.352,2292.582l69.035-38.862
				c14.384,62.701,31.184,124.653,52.148,174.284l-7.998,7.573C4015.424,2392.603,3977.72,2344.88,3943.352,2292.582z"/>
			<path id="_x31_80623720_1_" fill="#219866" stroke="#000000" d="M1045.103,4864.096c1.662,12.487,4.652,24.896,8.561,37.219
				c-67.061-154.303-122.709-315.852-172.104-505.701l190.182-39.24c69.982,125.914,149.04,247.837,211.195,377.075l16.897,16.661
				c-53.875,9.726-107.832,18.697-160.955,32.504C1093.914,4794.255,1037.126,4806.06,1045.103,4864.096z"/>
			<path id="_x31_80623719_1_" fill="#219866" stroke="#000000" d="M1557.696,4737.704l-6.326,6.905
				c-54.943-28.826-120.39-21.352-178.096-8.799c-24.396,5.322-48.874,9.893-73.358,14.301c0,0,0,0-0.082-0.002l-16.898-16.659
				c-62.154-129.24-141.212-251.163-211.194-377.077l211.164-43.642l0.082-0.001c10.824-2.244,11.636-2.734,18.87-3.909
				c6.935-1.131,7.895-1.639,22.851-4.738l27.395-5.651c6.4,26.563,13.804,53.873,22.535,82.601
				c38.925,127.821,94.261,235.911,266.245,344.208L1557.696,4737.704z"/>
			<path id="_x31_80623718_1_" fill="#219866" stroke="#000000" d="M1640.965,4725.239l-0.084,0.001
				c-171.984-108.295-227.318-216.387-266.245-344.206c-8.731-28.729-16.135-56.036-22.535-82.603l228.732-47.304l0.084,0.003
				c30.264,142.304,64.014,306.255,143.324,415.854l1.919,4.331c-34.727,14.807-64.455,34.196-80.368,55.344L1640.965,4725.239z"/>
			<path id="_x31_80623717_1_" fill="#219866" stroke="#000000" d="M1928.33,4641.072c-1.581-7.578-78.348,1.305-86.093,1.719
				c-37.299,2.32-79.435,12.883-116.073,28.524l-1.919-4.329c-79.314-109.597-113.064-273.548-143.324-415.855l115.241-23.775
				c12.466,77.018,30.668,170.446,73.432,267.041c16.227,36.729,36.024,88.188,73.486,104.521
				c10.743,4.667,88.498,32.33,88.498,28.42c0.001-0.502-0.001-1,0.002-1.5c0.992,14.236-1.206-2.069,0.624,8.756l0.346,4.604
				C1930.885,4629.29,1930.403,4650.979,1928.33,4641.072z"/>
			<path id="_x31_80623688_1_" fill="#9AD2BD" stroke="#000000" d="M1045.067,4864.088c9.5,69.469,58.947,137.32,87.688,199.929
				c66.209,144.153,138.396,284.598,222.631,419.15c82.904,132.427,182.733,259.996,309.345,353.87
				c97.987,72.653,201.742,135.799,299.327,208.323c19.952,14.827,40.935,32.377,61.872,51.687
				c27.216,25.1,54.353,53.166,79.025,82.106c4.098,4.799,8.129,9.625,12.075,14.464c68.576-36.467,154.175-81.049,235.921-132.375
				c14.809-9.295,29.485-18.813,43.92-28.546c76.963-51.897,146.815-109.865,190.713-172.666
				c142.16-203.375-18.02-379.827-228.191-544.109c0,0-153.775-14.759-248.233-55.592c-62.443-26.988-140.62-81.277-194.989-121.68
				c-74.951-55.685-163.542-103.605-229.422-170.13c-45.189-45.649-65.43-99.541-90.202-157.604
				c-9.972-23.394-16.962-50.142-39.673-63.254c-38.155-22.033-81.823-25.575-124.635-21.501
				c-20.083,1.91-39.975,5.494-59.021,9.637c-22.585,4.908-45.25,9.21-67.943,13.338c-55.666,10.118-111.469,19.167-166.446,33.431
				C1093.905,4794.214,1037.12,4806.001,1045.067,4864.088z"/>
			<path id="_x31_80623716_1_" fill="#6ACBBA" stroke="#000000" d="M1045.065,4864.086c9.502,69.471,58.945,137.322,87.688,199.929
				c66.21,144.155,138.396,284.6,222.632,419.152c82.904,132.425,182.733,259.996,309.345,353.868
				c97.983,72.657,177.305,119.294,140.906,98.201c72.489-70.76,162.729-80.66,249.291-33.184
				c59.439,32.609,125.851,59.04,167.705,115.731c52.092,70.532-26.613,116.313-87.391,148.868
				c-7.351,3.931-24.025,9.211-30.254,12.534c-0.012-0.01-0.021-0.02-0.031-0.029c4.096,4.799,8.129,9.625,12.075,14.464
				c68.576-36.467,154.175-81.049,235.919-132.375c-15.948-56.731-41.045-110.52-74.035-159.631
				c-28.093-41.826-65.03-75.776-103.958-107.301c-39.901-32.313-80.969-66.974-124.047-94.995
				c-48.939-31.828-96.984-65.628-149.776-90.94c-63.791-30.592-130.855-53.927-193.755-86.445
				c-97.849-50.584-181.253-120.298-248.837-207.21c-50.12-64.466-75.949-142.75-98.778-220.097
				c-15.966-54.12,24.407-110.867,10.095-161.594c-9.976-35.346-52.931-52.34-64.992-85.896
				c-9.084-25.287-7.682-67.912,0.408-98.002c-55.666,10.118-111.469,19.167-166.446,33.431
				C1093.905,4794.214,1037.12,4806.001,1045.065,4864.086z"/>
			<path id="_x31_80623715_1_" fill="#6ACBBA" stroke="#000000" d="M2278.923,5901.615c32.99,49.111,58.087,102.901,74.035,159.631
				c14.809-9.295,29.487-18.813,43.92-28.544c-3.042-17.402-5.545-34.883-9.326-51.614
				c-33.541-148.476-115.559-282.239-219.074-392.612c-120.363-128.351-256.242-256.229-406.92-348.444
				c-75.228-46.048-155.439-86.41-212.799-153.938c-43.443-51.157-14.075-128.1-23.771-190.273
				c-6.994-44.886-27.003-78.701-53.913-114.127c-13.621-17.937-26.17-36.802-38.832-55.532c-20.083,1.91-39.975,5.494-59.021,9.637
				c-22.585,4.909-45.25,9.212-67.943,13.338c-8.09,30.092-9.492,72.717-0.408,98.003c12.062,33.557,55.017,50.549,64.992,85.896
				c14.313,50.725-26.061,107.47-10.095,161.592c22.829,77.349,48.656,155.631,98.778,220.097
				c67.582,86.912,150.986,156.626,248.835,207.212c62.901,32.517,129.964,55.854,193.755,86.445
				c52.792,25.313,100.837,59.11,149.776,90.938c43.08,28.02,84.146,62.683,124.049,94.995
				C2213.889,5825.839,2250.826,5859.791,2278.923,5901.615z"/>
			<path id="_x31_80623714_1_" fill="#6ACBBA" stroke="#000000" d="M2387.546,5981.084c3.781,16.733,6.286,34.216,9.326,51.614
				c76.965-51.899,146.815-109.865,190.715-172.666c142.158-203.375-18.02-379.829-228.191-544.109
				c0,0-153.775-14.761-248.235-55.592c-62.441-26.99-140.618-81.277-194.987-121.68
				c-74.953-55.685-163.544-103.607-229.422-170.132c-45.191-45.647-65.432-99.541-90.204-157.604
				c-9.972-23.392-16.96-50.14-39.673-63.254c-38.155-22.031-81.821-25.575-124.635-21.501
				c12.662,18.73,25.213,37.596,38.834,55.532c26.908,35.424,46.919,69.241,53.913,114.127
				c9.693,62.176-19.673,139.116,23.771,190.273c57.357,67.527,137.571,107.889,212.799,153.936
				c150.678,92.217,286.557,220.096,406.918,348.444C2271.989,5698.849,2354.007,5832.61,2387.546,5981.084z"/>
			<path id="_x31_80623713_1_" fill="#7ED04B" stroke="#000000" d="M4547.381,2642.56c39.23-32.957,82.272-21.955,122.15-3.457
				c37.209,17.414,92.825,35.582,113.21,74.305c-11.581,11.234-28.146,15.06-46.133,15.22c-14.571-1.17-28.811-2.589-43.047-4.426
				c-16.315-2.835-31.635-6.17-43.542-7.341c-3.328-0.333-7.824-0.667-13.069-1.086c0,0,0,0-0.084,0
				c-30.557-5.173-61.441-11.261-94.252-17.85C4521.054,2687.344,4514.235,2670.358,4547.381,2642.56z"/>
			<path id="_x31_80623712_1_" fill="#8ADA87" stroke="#000000" d="M1769.592,4494.395
				c-42.762-96.593-60.964-190.021-73.432-267.041c-10.382-64.449,27.846-109.897,76.984-154.592
				c17.574-15.984,96.354-60.002,96.36-73.657c1.801,101.745,14.75,203.747,28.373,305.747l0.084-0.001
				c5.15,53.042,14.283,111.656,21.674,169.86c0.085,0.497,0.088,0.911,0.17,1.415c4.895,44.21,8.796,88.424,10.861,132.556
				c0.081,1.081,0.331,7.577,0.909,16.238c0.004,0.332,0.004,0.58,0.004,0.916c-0.001,0.5-0.001,0.998-0.004,1.498
				c0,3.914-77.755-23.755-88.496-28.42C1805.618,4582.583,1785.818,4531.121,1769.592,4494.395z"/>
			<path id="_x31_80623711_1_" fill="#A0EE9D" stroke="#000000" d="M2194.891,5265.789
				c-77.259-21.926-141.187-69.404-208.448-111.058c-93.152-57.648-183.636-121.535-270.791-188.012l-0.082,0.002
				c-59.349-45.311-105.016-177.547-75.523-231.239c1.662-2.997,3.58-5.909,5.744-8.821c15.913-21.144,45.642-40.535,80.37-55.344
				c36.639-15.642,78.772-26.203,116.071-28.524c7.747-0.412,84.512-9.298,86.095-1.719c2.077,9.906,3.908,19.732,5.571,29.643
				c16.203,95.589,15.669,190.758,52.363,282.941c36.021,90.597,106.77,154.568,182.52,215.119
				c27.551,21.993,55.769,41.319,83.242,61.809c9.572,7.164,50.688,50.391,62.512,49.145c-30.557,3.739-65.274-0.77-96.744-8.025
				C2209.876,5269.873,2202.221,5267.871,2194.891,5265.789z"/>
			<path id="_x31_80623697_1_" fill="#98D6F9" stroke="#000000" d="M4010.911,3732.949c9.213-82.658,22.669-164.391,33.972-246.805
				c5.34-38.969,7.618-78.411,13.4-117.244c8.668-58.12,13.831-114.657,12.012-173.462c-2.059-67.415-25.64-132.367-43.915-196.639
				c-25.058-88.254-50.31-163.245-114.945-231.755c-92.222-97.697-209.539-139.193-335.949-171.453
				c-26.812-6.845-57.121-13.165-84.225-18.541c-11.26-2.224-23.001-5.738-33.742-12.158c-2.083-1.252-17.054-9.046-18.469-19.274
				c-146.162-8.285-294.246,12-432.682,56.084c-123.73,39.397-252.213,110.247-365.007,174.41
				c-116.47,66.265-225.876,146.371-317.394,244.724c-125.33,134.691-224.345,302.756-299.133,470.185
				c-45.553,101.961-75.729,230.325-90.986,341.191c-8.865,64.505-24.432,129.543-24.132,194.763
				c0.84,177.76,32.034,353.938,37.675,531.684c1.453,30.821,13.895,79.725-0.543,108.345
				c42.953,85.959-9.634,174.363,96.427,326.938c85.633,123.178,313.634,270.383,487.134,423.184
				c91.607,80.676,157.84,134.122,280.188,110.992c219.407-41.462,421.074-307.973,541.5-479.785
				c53.495-76.337,101.403-152.089,150.582-230.939c76.523-122.731,182.363-360.293,312.983-433.665
				c25.098-14.083,105.961,1.802,166.577-24.946c-0.99-144.589-9.413-298.484,2.656-396.713
				C3994.354,3885.066,4002.357,3809.676,4010.911,3732.949z"/>
			<path id="_x31_80623696_1_" fill="#80CDF8" stroke="#000000" d="M2819.521,5567.73c219.42-41.472,411.657-291.31,532.08-463.126
				c53.51-76.339,101.406-152.086,150.589-230.933c61.146-98.048,121.507-195.926,188.284-290.143
				c21.455-30.287,124.919-209.186,162.022-172.062c17.232,17.241-30.822,105.627-34.942,134.863
				c-10.926,77.433-12.244,94.094,28.605,139.896c29.701,33.29,65.334,31.458,43.697,53.096
				c-44.416,44.387-62.586,79.554-71.808,116.438c-11.005,44.037-1.781,38.376-12.384,80.709
				c-4.007,15.927-98.288,242.824-112.522,321.356c-15.543,85.694,5.641,165.248-1.819,247.767
				c-6.283,69.196-81.538,142.366-117.313,199.347c-54.805,87.274-89.399,223.924-205.715,239.831
				c-63.081,8.634-129.487-16.623-187.036,21.271c-49.46,32.567-69.341,103.114-105.669,147.267
				c-26.126,31.715-50.567,56.243-96.031,50.909c-62.963-7.38-48.878-60.904-83.471-96.138
				c-43.292-44.084-114.244-24.877-167.072-43.344c-23.066-8.058-138.323-118.218-126.865-136.145
				c21.184-33.166,55.082-74.709,64.779-113.072c7.757-30.707,9.928-64.915,4.87-96.275
				c-9.219-57.134-32.378-107.686-60.575-157.366C2680.298,5551.036,2741.257,5582.505,2819.521,5567.73z"/>
			<path id="_x31_80623707_1_" fill="#80CDF8" stroke="#000000" d="M3615.975,6483.199c49.893,25.125,129.38-43.881,60.712-75.391
				C3627.712,6385.332,3552.717,6451.336,3615.975,6483.199z"/>
			<path id="_x31_80623708_1_" fill="#80CDF8" stroke="#000000" d="M3284.163,6484.311c18.744,28.24,95.966,41.092,99.631-5.129
				C3387.82,6428.273,3246.674,6427.836,3284.163,6484.311z"/>
			<path id="_x31_80623709_1_" fill="#80CDF8" stroke="#000000" d="M2656.044,6359.416c52.866,26.053,79.464-78.773,24.742-75.98
				C2646.173,6285.188,2617.647,6340.492,2656.044,6359.416z"/>
			<path id="_x31_80623710_1_" fill="#80CDF8" stroke="#000000" d="M2965.888,6558.197c53.08,64.168,227.445,24.992,241.059-60.232
				c13.771-86.076-145.689-104.061-194.588-70.084C2973.954,6454.58,2929.682,6514.424,2965.888,6558.197z"/>
			<path id="_x31_80623706_1_" fill="#80CDF8" stroke="#000000" d="M2145.312,6230.045c37.431,48.398,84.273,127.691,108.346,169.99
				c32.391,56.846,65.578,114.783,106.836,165.639c281.531,347.139,799.832,585.467,1220.072,331.883
				c130.853-78.957,219.236-189.223,315.609-282.643c8.146-7.9-42.974-60.293-91.325-105.906
				c-29.138,90.604-83.341,179.33-164.97,228.75c-63.051,38.166-107.714,31.008-177.466,35.959
				c-122.07,8.67-258.271,1.422-379.699-11.064c-74.176-7.633-147.774-22.564-219.853-41.512
				c-70.223-18.455-150.904-27.982-213.982-66.146c-23.063-13.945-44.501-29.795-65.492-46.125
				c-49.09-38.191-95.709-79.031-154.652-104.436c-67.657-29.141-125.053-50.373-106.233-138.822
				c9.677-45.484,49.293-91.797,36.261-140.912c-9.498-35.794-23.104-70.492-33.301-106.576
				C2262.449,6155.805,2168.742,6212.25,2145.312,6230.045z"/>
			<path id="_x31_80623705_1_" fill="#80CDF8" stroke="#000000" d="M3804.848,6509.002c-27.337-25.789-53.786-49.414-68.129-61.598
				c-43.264,72.326-124.021,115.01-196.663,153.16c-163.366,85.795-304.688,57.955-477.6,35.207
				c-78.765-10.354-155.744-2.67-234.304-17.072c-74.015-13.566-151.165-32.357-214.083-75.516
				c-31.609-21.684-54.732-51.859-85.728-73.193c-40.56-27.93-160.972-40.467-144.313-114.371
				c11.808-52.359,91.154-66.352,62.521-133.377c-13.168-30.807-45.028-51.508-48.387-86.719c-1.83-19.2,1.145-41.221,5.65-61.345
				c-6.704,1.971-13.652,5.099-20.892,9.55c-6.411,3.949-28.747,17.223-57.462,34.395c10.197,36.084,23.803,70.78,33.303,106.576
				c13.032,49.113-26.586,95.428-36.261,140.912c-18.821,88.445,38.574,109.678,106.231,138.82
				c58.941,25.404,105.563,66.242,154.652,104.436c20.993,16.332,42.43,32.18,65.492,46.127
				c63.08,38.162,143.762,47.691,213.98,66.146c72.078,18.947,145.681,33.879,219.854,41.512
				c121.429,12.484,257.627,19.736,379.699,11.063c69.752-4.951,114.417,2.207,177.464-35.961
				C3721.505,6688.336,3775.71,6599.609,3804.848,6509.002z"/>
			<path id="_x31_80623704_1_" fill="#80CDF8" stroke="#000000" d="M2446.548,6222.242c28.633,67.025-50.714,81.016-62.521,133.379
				c-16.658,73.906,103.754,86.441,144.312,114.371c30.997,21.332,54.122,51.508,85.729,73.191
				c62.918,43.158,140.068,61.949,214.083,75.516c78.558,14.398,155.539,6.715,234.302,17.074
				c172.916,22.746,314.235,50.586,477.6-35.209c72.641-38.15,153.399-80.834,196.663-153.16c-4.806-4.076-8.255-6.873-9.923-8.039
				c-46.467-32.465-80.418-64.313-138.798-49.557c-48.938,12.361-91.396,53.635-140.984,63.455
				c-52.82,10.482-93.335-12.455-141.648-32.076c-47.73-19.389-96.156-38.225-146.841-48.309
				c-89.755-17.834-144.298,61.01-217.064,90.975c-100.848,41.518-147.835-23.563-175.016-112.313
				c-22.602-73.793-74.613-85.297-140.586-104.895c-89.12-26.471-134.74-198.116-222.041-172.468
				c-4.506,20.124-7.48,42.143-5.65,61.343C2401.52,6170.736,2433.384,6191.436,2446.548,6222.242z M3676.687,6407.809
				c68.668,31.51-10.817,100.518-60.71,75.391C3552.717,6451.336,3627.712,6385.332,3676.687,6407.809z M3383.794,6479.18
				c-3.665,46.223-80.887,33.369-99.631,5.129C3246.674,6427.836,3387.82,6428.273,3383.794,6479.18z M3012.358,6427.883
				c48.9-33.977,208.357-15.99,194.59,70.084c-13.615,85.225-187.979,124.396-241.061,60.232
				C2929.682,6514.424,2973.954,6454.58,3012.358,6427.883z M2680.786,6283.436c54.724-2.793,28.126,102.033-24.742,75.98
				C2617.647,6340.492,2646.173,6285.188,2680.786,6283.436z"/>
			<path id="_x31_80623700_1_" fill="#90CBED" stroke="#000000" d="M4094.78,3399.373
				c15.034-24.965,153.937-128.922,235.965-181.236c64.168-40.929,125.159-87.101,187.415-130.881
				c49.116-34.52,87.214-82.427,137.394-115.105l-44.633-9.429c-21.366-4.813-42.551-9.477-63.411-13.223
				c-40.197-7.227-80.61-15.248-120.699-24.548l-1.565-0.354c-62.743,2.529-96.249,74.899-127.005,105.69
				c-52.744,52.802-84.399,120.381-125.149,182.373C4173.091,3212.659,4112.851,3300.86,4094.78,3399.373z"/>
			<path id="_x31_80623699_1_" fill="#90CBED" stroke="#000000" d="M4094.78,3399.373
				c15.034-24.965,153.937-128.922,235.965-181.235c64.168-40.929,125.159-87.101,187.415-130.881
				c49.116-34.521,87.214-82.427,137.394-115.106l13.194,3.26c45.58,9.33,91.533,16.146,136.664,13.103l2.588,583.168
				l-11.107,15.919c-89.544,70.921-146.928,196.137-204.739,293.108c-59.839,100.379-137.056,204.618-166.334,318.863
				c-16.296,63.631-16.608,127.718-54.858,183.019c-24.875,35.971-113.733,105.963-164.24,86.635
				c-61.411-23.504-78.962-62.271-188.224-84.97c-1.827-20.85-7.335-55.258-7.846-60.347c-4.673-46.186-4.607-86.548-4.727-130.781
				c-0.117-38.199-6.855-78.072-5.277-115.738c5.402-130.206,21.139-264.583,39.511-393.798
				c11.787-82.88,25.085-169.617,43.7-250.815L4094.78,3399.373z"/>
			<path id="_x31_80623695_1_" fill="#A2B1D8" stroke="#000000" d="M4282.952,5790.386
				c71.483-119.602,112.045-265.389,101.096-405.124c-5.393-68.795-51.555-228.614-142.776-122.309
				c-47.041,54.846-103.527,81.085-168.135,109.096c-64.297,27.867-134.796,23.415-197.385,54.875
				c-118.191,59.42-211.572,194.852-253.089,260.96c-54.798,87.278-136.789,277.175-253.1,293.091
				c-63.082,8.633-107.112-25.899-164.658,11.986c-49.475,32.58-68.898,92.272-105.242,136.419
				c-26.109,31.718-91.005,72.594-136.469,67.261c-62.969-7.383-61.078-72.169-95.667-107.406
				c-43.292-44.081-102.054-21.938-154.876-40.405c-75.686-26.452-65.104-68.137-119.258-114.739
				c-37.499,25.872-102.063,95.024-156.466,111.366c95.696,21.366,118.453,142.284,205.667,168.213
				c65.969,19.599,121.945,38.692,144.533,112.485c27.194,88.756,55.734,141.973,156.592,100.451
				c72.782-29.959,119.103-110.133,208.866-92.299c113.267,22.545,219.896,131.104,330.242,61.207
				c-44.821-44.85-46.077-66.553-38.024-99.658c31.104-127.706,161.482-171.968,270.947-213.04
				c142.295-53.39,279.355-87.789,437.193-168.239C4212.606,5884.171,4249.305,5846.698,4282.952,5790.386z"/>
			<path id="_x31_80623698_1_" fill="#96A7D3" stroke="#000000" d="M4807.482,5150.865l-2.278-1530.834
				c-84.729,77.414-129.647,184.949-187.457,281.902c-65.412,109.737-153.424,211.761-157.859,348.106
				c-2.51,77.436,60.303,141.18,68.076,217.824c19.529,192.659-73.533,430.284,68.621,599.674
				C4626.87,5103.622,4757.726,5181.852,4807.482,5150.865z"/>
			<path id="_x31_80623694_1_" fill="#96A7D3" stroke="#000000" d="M4276.715,6354.018
				c-149.945,50.938-259.016,150.607-347.869,236.85c-84.913-69.578-185.888-256.551-330.868-237.285
				c-24.33,3.225-51.076,28.041-79.66,16.699c-92.157-36.547-10.095-151.889,53.619-192.465
				c52.664-33.529,93.84-40.809,151.828-62.567c150.984-56.653,297.873-124.792,451.291-174.887
				c80.825-26.396,171.081-86.403,254.726,3.445c29.134,31.305,74.798,336.36,44.103,345.224
				C4411.792,6306.938,4337.467,6333.395,4276.715,6354.018z"/>
			<path id="_x31_80623702_1_" fill="#B3C0DF" stroke="#000000" d="M3992.028,4563.841c6.713-54.65,20.649-108.268,25.786-163.114
				c-34.698-9.097-69.088-7.319-98.72,8.679c-32.488,17.549-51.916,78.156-66.642,122.79c-15.905,48.163-26.846,81.541,4.122,131.14
				c18.529,29.667,50.653,53.058,91.572,42.702c14.535-3.682,30.081-3.318,45.269,1.036c-2.193-18.49-2.132-39.54-3.755-55.816
				C3986.755,4622.155,3988.468,4592.797,3992.028,4563.841z"/>
			<path id="_x31_80623703_1_" fill="#B3C0DF" stroke="#000000" d="M3729.321,5485.497c12.192,13.938,55.01-42.047,149.129-82.628
				c-29.587-32.929-8.146-111.884,1.897-145.551c13.974-46.859,37.377-88.504,56.813-132.738
				c-19.646,6.337-41.109,9.822-59.93,5.022c-38.696-9.86-60.351-39.568-71.774-114.505c-1.754-11.457-12.411,22.061-15.623,33.296
				c-6.253,21.862-42.978,101.706-60.427,193.564C3711.949,5333.807,3707.515,5460.558,3729.321,5485.497z"/>
			<path id="_x31_80623701_1_" fill="#B3C0DF" stroke="#000000" d="M3878.458,5402.871c18.375-7.927,38.697-15.266,61.142-21.379
				c91.677-24.97,231.072-70.699,287.15-142.09c62.636-79.725,72.503-222.412,75.544-319.09
				c3.402-108.701-11.053-223.742-67.674-318.335c-26.286-43.875-61.43-88.043-96.656-125.571
				c-35.12-37.355-77.861-64.596-120.149-75.68c-5.139,54.847-19.077,108.466-25.786,163.114
				c-3.563,28.958-5.271,58.316-2.367,87.416c1.623,16.276,1.562,37.326,3.755,55.816c24.549,7.03,48.165,24.491,65.049,52.298
				c37.232,61.324,58.101,150.661,32.957,220.864c-15.869,44.269-50.487,85.308-91.773,113.909c0,0-28.523,19.475-62.485,30.434
				c-19.437,44.234-42.84,85.879-56.813,132.738C3870.306,5290.985,3848.865,5369.94,3878.458,5402.871z"/>
			<path id="_x31_80623689_1_" fill="#E64438" stroke="#000000" d="M4193.321,4491.306c34.955,32.047,80.997,107.243,96.339,144.604
				c35.637,86.766,48.127,172.702,44.082,269.09c-3.082,73.501-9.839,135.394-24.436,212.399
				c-5.073,26.771-1.689,50.327,27.034,89.521c45.778,62.458,80.826,143.678,72.776,241.476
				c-9.61,116.745-25.047,212.311-89.61,320.525c-19.979,33.488-62.482,112.38-39.585,114.475
				c51.714-13.017,101.143-15.41,145.696,18.78c61.714,47.356,54.089,104.091,66.55,201.928
				c7.052,55.349,17.749,122.833,13.833,178.437c83.419-21.328,157.872-36.018,227.4-42.172c-0.008,0.119-0.018,0.25-0.024,0.367
				c19.772-2.213,64.91-3.49,64.91-3.49l0.003-0.086c2.024-0.02,4.05-0.037,6.069-0.035l0.062-188.684
				c-1.147,0.56-2.268,1.146-3.372,1.748c-0.476,0.051-0.946,0.13-1.417,0.231l3.92-547.086l1.146-316.392
				c-49.75,30.993-200.176-58.886-227.551-97.209c-88.767-124.229-94.976-251.204-88.678-403.15
				c5.203-125.724,29.005-272.305-57.055-375.448C4402.186,4419.077,4316.632,4520.701,4193.321,4491.306z"/>
			<path id="_x31_80623693_1_" fill="#FF5547" stroke="#000000" d="M4628.362,6255.121c37.291-6.932,72.895-11.998,107.292-14.955
				c7.445-60.604,4.65-160.542,68.769-191.727l0.146-450.755c-35.193,2.876-93.431,47.395-107.891,74.887
				c-51.815,98.523-58.284,221.475-62.29,330.716C4631.478,6082.341,4611.308,6175.983,4628.362,6255.121z"/>
			<path id="_x31_80623691_1_" fill="#FF5547" stroke="#000000" d="M4433.991,5752.313c-20.003,38.079-40.415,90.089-68.217,124.781
				c35.484,4.78,64.97,21.264,84.822,50.071c41.607,60.38,51.962,251.882,55.408,355.381
				c42.979-10.992,83.585-20.213,122.355-27.424c-17.053-79.136,3.116-172.778,6.025-251.832
				c4.004-109.241,10.477-232.192,62.29-330.716c14.458-27.492,72.699-72.011,107.893-74.887l0.085-266.474
				c-11.126,1.103-23.182-1.011-34.665,2.343c-14.811,4.315-28.715,10.372-42.267,17.728c-27.453,14.887-51.48,35.104-73.622,56.983
				c-44.361,43.833-80.313,95.259-114.753,147.029C4488.275,5632.061,4477.745,5669.061,4433.991,5752.313z"/>
			<path id="_x31_80623690_1_" fill="#FF5547" stroke="#000000" d="M4735.654,6240.166c23.406-2.012,46.258-3.051,68.707-3.043
				l0.062-188.684C4740.306,6079.622,4743.1,6179.562,4735.654,6240.166z"/>
			<path id="_x31_80623692_1_" fill="#F2483B" stroke="#000000" d="M4193.331,4491.304c34.955,32.047,80.998,107.241,96.339,144.604
				c35.637,86.766,48.129,172.702,44.084,269.09c-3.08,73.501-9.846,149.96-24.442,226.974
				c-11.765,62.093,54.938,101.344,76.969,158.222c49.142,126.855,18.596,261.115-18.86,389.24
				c-15.027,51.406-137.454,218.52-81.247,203.963c28.552-7.395,55.464-9.555,79.605-6.306
				c27.802-34.694,48.216-86.702,68.217-124.779c43.748-83.251,54.28-120.251,105.352-197.014
				c34.438-51.769,70.39-103.196,114.753-147.031c22.142-21.876,46.169-42.095,73.62-56.983
				c13.552-7.354,27.456-13.41,42.267-17.726c11.485-3.354,23.541-1.24,34.665-2.345l0.044-144.27
				c-49.748,30.993-197.282-61.119-227.549-97.209c-119.524-142.444-85.632-372.075-83.54-542.997
				c1.042-86.128-4.16-166.061-62.2-235.613C4402.186,4419.077,4316.632,4520.701,4193.331,4491.304z"/>
			<path id="_x31_80623784_1_" fill="#CCCCCC" stroke="#000000" d="M2641.406,2776.159
				c-116.505,66.241-225.856,146.386-317.39,244.685c-125.357,134.676-224.323,302.752-299.146,470.166
				c-45.582,101.979-75.762,230.359-90.949,341.261c-8.926,64.44-24.438,129.544-24.128,194.738
				c0.781,177.766,32.03,353.957,37.632,531.637c1.073,34.642,18.455,91.262-8.365,119.649c-1.164,1.248-2.247-2.086-3.243-7.911
				c-1.83-10.825-3.24-30.31-4.232-44.548c0-0.334-0.002-0.584-0.004-0.916c-0.064-46.377-5.21-97.416-11.772-148.79
				c-0.082-0.504-0.085-0.92-0.168-1.417c-6.227-56.622-14.114-113.24-21.674-169.858l-0.084,0.001
				c-0.414-4.417-0.832-8.829-1.246-13.158c-10.04-113.487-24.256-178.606-27.129-292.591l-0.002-0.082
				c-0.08-1.247-0.082-2.415-0.082-3.663c-0.081-6.744-0.081-13.57-0.076-20.314c0-7.58,0.007-15.072,0.176-22.647
				c0.25-13.902,0.837-27.809,1.758-41.883c5.857-97.162,25.709-197.652,53.383-295.724c26.678-94.409,60.428-186.485,96.09-271.316
				c4.248-10.076,8.664-20.148,13.25-30.139l-0.002-0.083c51.572-114.387,119.471-221.106,193.768-321.909
				c51.564-70.007,104.039-130.02,167.171-190.2c43.727-41.701,93.525-78.236,141.416-116.02
				c13.575-10.571,26.899-21.306,39.893-32.292c38.728-32.711,80.112-62.005,123.003-88.969
				c75.455-47.354,156.395-85.875,238.416-120.401c30.98-13.064,62.125-24.211,92.936-36.355h0.084
				c17.479-6.822,34.973-14.061,52.295-22.215c107.34-50.337,218.259-94.515,332.084-128.367
				c73.862-21.957,148.97-39.584,225.072-51.717c67.446-10.802,114.91-21.944,181.428-3.604c16.569,4.5,31.722,10.669,45.624,18.331
				c16.73,9.249,31.714,20.744,45.197,34.403c11.237,11.412,21.475,24.318,30.963,38.643
				c34.37,52.299,72.07,100.022,113.186,142.996c58.681,61.549,124.276,113.526,196.699,155.432
				c55.854,32.323,115.798,58.736,179.734,78.907c19.476,6.25,39.38,11.835,59.611,16.835c14.984,3.75,30.14,7.172,45.539,10.258
				c1.499,0.332,2.996,0.583,4.495,0.914c24.641,12.082,68.771,15.844,94.25,17.85c0.084,0,0.084,0,0.084,0
				c18.899,3.255,37.63,6.09,56.615,8.428c14.15,2.417,29.056,4.504,43.045,4.426c22.148,1.754,44.961,2.679,68.855,2.687
				l-0.082,257.196c-49.711,3.397-100.329-5.196-150.448-15.955c-36.302-7.834-72.353-16.756-107.482-23.01
				c-40.131-7.26-80.596-15.266-120.637-24.605c-36.967-8.501-73.6-18.173-109.481-29.258
				c-127.295-39.258-254.176-61.861-363.393-143.41c-29.133-21.742-53.437-50.307-83.653-70.3
				c-71.341-47.316-150.505-90.224-234.514-109.316c-64.44-14.674-133.793-23.44-196.739-27.042
				c-146.121-8.29-294.162,12.063-432.643,56.145C2882.653,2641.105,2754.159,2712.002,2641.406,2776.159z"/>
			<path id="_x31_80623785_1_" fill="#CCCCCC" stroke="#000000" d="M3924.519,5129.29c70.704-17.871,141.968-79.479,166.903-149.059
				c25.144-70.203,4.274-159.54-32.957-220.864c-59.247-97.577-159.331-59.394-213.758,28.625
				c-11.812,19.108-21.209,45.981-26.677,67.847c-5.683,22.759-11.109,55.949-13.123,91.501
				C3799.512,5043.056,3818.875,5156.021,3924.519,5129.29z"/>
			<path id="_x31_80623786_1_" fill="#CCCCCC" stroke="#000000" d="M1805.642,5935.238
				c36.398,21.091,171.405,113.31,220.293,161.809c27.216,25.1,54.353,53.166,79.025,82.106c0.012,0.01,0.02,0.02,0.031,0.031
				c6.229-3.323,22.905-8.604,30.254-12.532c60.779-32.556,139.484-78.338,87.391-148.868
				c-41.854-56.691-108.264-83.122-167.703-115.731C1968.37,5854.576,1878.129,5864.479,1805.642,5935.238z"/>
			<path id="_x31_80623783_1_" fill="#AAAAAA" stroke="#000000" d="M4010.909,3732.949c9.213-82.659,22.669-164.392,33.972-246.806
				c5.34-38.969,7.616-78.411,13.4-117.244c8.668-58.12,13.829-114.657,12.012-173.462c-2.061-67.415-25.64-132.368-43.915-196.639
				c-25.058-88.254-50.31-163.245-114.945-231.755c-92.224-97.697-209.539-139.194-335.949-171.453
				c-26.812-6.845-57.121-13.165-84.225-18.541c-11.26-2.225-23.001-5.74-33.742-12.159c-2.085-1.252-17.054-9.046-18.469-19.275
				c95.271,4.739,174.091,21.835,196.741,26.998c84.013,19.131,163.173,62.055,234.528,109.295
				c30.256,20.027,54.498,48.588,83.641,70.37c109.197,81.555,236.092,104.146,363.367,143.408
				c35.604,10.98,71.654,20.461,107.918,28.911c-62.745,2.531-96.251,74.898-127.007,105.689
				c-52.742,52.805-84.397,120.384-125.149,182.374c-43.86,66.725-71.45,142.611-89.232,220.117
				c-18.613,81.2-31.913,167.938-43.698,250.815c-18.372,129.215-34.106,263.59-39.513,393.8
				c-1.576,37.664,5.16,77.539,5.28,115.736c0.116,44.489-0.373,89.101,4.87,133.35c4.294,36.469,18.985,86.398-6.613,118.313
				c-21.296-12.739-20.002-57.123-20.965-78.149c-1.665-36.011-5.824-72.385-6.611-108.473
				c-2.074-97.45-3.632-198.984,8.291-296.102C3994.354,3885.066,4002.357,3809.676,4010.909,3732.949z"/>
		</g>
	</g>
</g>
</svg>
