<?xml version="1.0" encoding="utf-8"?>
<!-- Generator: Adobe Illustrator 16.0.0, SVG Export Plug-In . SVG Version: 6.00 Build 0)  -->
<!DOCTYPE svg PUBLIC "-//W3C//DTD SVG 1.1//EN" "http://www.w3.org/Graphics/SVG/1.1/DTD/svg11.dtd">
<svg version="1.1" id="Layer_1" xmlns="http://www.w3.org/2000/svg" xmlns:xlink="http://www.w3.org/1999/xlink" x="0px" y="0px"
	 width="9312px" height="7024px" viewBox="0 0 9312 7024" enable-background="new 0 0 9312 7024" xml:space="preserve">
<g>
	<g transform="scale(1.0)">
		<g id="_x31_80623432" transform=" scale(1.0, 1.0)">
			<path id="_x31_80623434" fill="#BFDAE3" stroke="#000000" d="M4664.58,5506.289c77.285,4.266,167.686,65.689,233.422,102.111
				c82.761,45.855,162.674,96.59,243.865,145.111c63.137,37.719,129.195,77.877,183.998,127.461
				c66.302,60.033,127.148,132.264,182.666,202.725c44.454,56.424,101.473,101.502,156.621,147.816
				c119.667,100.5,256.019,196.555,408.329,238.852c154.687,42.951,285.071-7.234,430.3-56.799
				c187.314-63.932,376.6-153.422,526.275-284.836c144.549-126.92,223.215-303.199,313.635-468.66
				c102.246-187.098,296.23-315.615,437.943-472.559c52.879-58.566,114.42-108.305,168.738-165.689
				c117.736-124.408,211.07-303.389,285.82-456.287c82.805-169.365,145.682-347.779,202.045-527.434
				c138.848-442.644,257.59-940.168,206.049-1404.717c-11.176-100.789-16.684-194.606-35.313-294.984
				c-14.646-78.883-34.381-146.134-65.334-219.83c-22.492-53.562-40.744-108.12-74.34-156.334
				c-71.213-102.21-133.105-212.845-216.807-305.84c-168.154-186.814-320.605-384.494-535.695-521.031
				c-165.654-105.162-335.965-218.708-519.844-288.485c-179.871-68.254-369.834-107.425-558.453-142.686
				c-251.238-46.969-506.4-73.458-758.149-117.683c-217.472-38.215-445.522-55.333-666.571-47.123
				c-234.27,8.71-523.388,97.806-549.334,378.252c-0.198,171.67-1.571,1375.797-1.693,1481.149L4664.58,5506.289z"/>
			<path id="_x31_80623435" fill="#B0FFB8" stroke="#000000" d="M7406.701,5564.576c107.113-138.611,258.627-248.27,374.932-377.068
				c52.881-58.566,114.42-108.303,168.738-165.688c117.736-124.408,211.07-303.389,285.82-456.289
				c82.807-169.365,145.684-347.777,202.045-527.434c138.85-442.644,257.59-940.167,206.049-1404.717
				c-11.174-100.788-16.682-194.605-35.309-294.984c-14.648-78.882-34.385-146.133-65.338-219.829
				c-22.492-53.562-40.744-108.12-74.34-156.334c-71.213-102.21-133.104-212.845-216.807-305.84
				c-168.154-186.813-320.604-384.494-535.693-521.031c-165.654-105.162-335.965-218.708-519.846-288.485
				c-179.871-68.254-369.834-107.426-558.453-142.686c-251.236-46.969-506.398-73.458-758.147-117.683
				c-217.472-38.215-445.522-55.333-666.571-47.123c-234.27,8.71-523.382,97.805-549.334,378.252
				c-0.198,171.67-1.573,1375.798-1.693,1481.149c231.257,3.189,447.112-64.187,628.039-208.666
				c45.346-36.207,85.787-77.495,124.795-120.393c37.535-41.293,66.598-101.033,109.937-135.539
				c80.151-63.806,228.887-61.055,324.025-45.943c45.755,7.265,87.214,19.871,133.038,29.958
				c338.789,74.579,690.832,218.373,954.949,452.267c158.984,140.793,264.377,260.33,372.467,446.516
				c49.578,85.403,74.168,197.249,96.865,288.917c60.668,245.064,94.613,532.712,62.869,784.553
				c-15.15,120.195-31.449,240.34-55.656,359.113c-9.361,45.938-31.027,229.949-90.188,247.078
				c-41.258,92.049-109.68,177.172-183.355,249.623c-110.563,108.732-161.395,212.682-202.477,347.453
				c-53.029,173.947-109.268,330.25,118.973,377.811c83.678,17.432,192.484,23.188,248.496,41.938
				C7338.844,5524.625,7384.654,5539.947,7406.701,5564.576z"/>
			<path id="_x31_80623499" fill="#1F9D5A" stroke="#000000" d="M6575.195,692.825l-19.648,134.607
				c-87.127-13.18-174.512-21.278-260.82-24.459c-137.707-5.071-264.202-52.621-397.465-81.764
				c-85.623-18.761-172.74-41.936-260.608-63.282l-3.383-100.31l0.419-4.831c83.053,8.176,165.6,19.434,246.646,33.691
				C6110.977,627.062,6344.469,652.654,6575.195,692.825z"/>
			<path id="_x31_80623498" fill="#1F9D5A" stroke="#000000" d="M6555.547,827.433l-51.979,356.346c-6.486-0.94,0,0,0,0
				c-38.227-11.538-181.055-54.443-218.948-66.567c-236.933-75.834-405.767-180.582-640.473-238.335l-7.496-220.949
				c87.868,21.346,174.985,44.521,260.608,63.282c133.263,29.143,259.758,76.693,397.465,81.764
				C6381.033,806.154,6468.418,814.253,6555.547,827.433z"/>
			<path id="_x31_80623497" fill="#1F9D5A" stroke="#000000" d="M6503.568,1183.778l-59.196,406.323
				c-247.004-84.761-559.34-156.265-783.622-220.003l-16.603-491.221c234.704,57.755,403.54,162.502,640.473,238.335
				c37.894,12.124,75.953,23.748,114.179,35.287C6433.611,1162.952,6468.59,1173.324,6503.568,1183.778z"/>
			<path id="_x31_80623496" fill="#1F9D5A" stroke="#000000" d="M6444.372,1590.101l-54.667,374.837
				c-149.881-69.153-309.195-120.321-469.601-163.909c-68.045-18.488-126.339-38.051-201.299-54.799
				c-14.16-3.182-29.653-6.783-45.729-9.967l-12.326-366.167C5885.032,1433.837,6197.368,1505.34,6444.372,1590.101z"/>
			<path id="_x31_80623495" fill="#1F9D5A" stroke="#000000" d="M6389.705,1964.938l-10.326,70.886l-0.919,2.332
				c-129.99-51.384-263.909-90.859-395.842-119.92c-45.892-10.134-87.28-22.761-133.096-29.979
				c-48.477-7.72-110.791-12.207-170.948-6.277l-0.823-7.998l-4.675-137.719c16.076,3.185,31.569,6.785,45.729,9.967
				c74.959,16.748,133.255,36.311,201.298,54.799C6080.51,1844.617,6239.824,1895.785,6389.705,1964.938z"/>
			<path id="_x31_80623504" fill="#1F9D5A" stroke="#000000" d="M5633.269,557.617l3.383,100.31
				c-148.503-36.076-299.259-66.99-448.642-62.746c-320.258,9.131-379.162,305.901-388.633,571.736l-135.075-122.707
				c0.069-58.483,0.118-102.554,0.147-126.548c25.979-280.479,315.086-369.541,549.371-378.271
				c138.631-5.174,280.007-0.343,419.869,13.396L5633.269,557.617z"/>
			<path id="_x31_80623503" fill="#1F9D5A" stroke="#000000" d="M5636.651,657.927l7.496,220.949
				c-16.906-4.185-34.232-8.12-51.888-11.804c-142.428-29.488-395.469-155.745-511.168-24.079
				c-103.856,118.265-90.775,333.306-82.225,505.104l-199.49-181.179c9.467-265.835,68.373-562.605,388.633-571.736
				C5337.393,590.937,5488.148,621.851,5636.651,657.927z"/>
			<path id="_x31_80623502" fill="#1F9D5A" stroke="#000000" d="M5644.147,878.877l16.603,491.22
				c-20.989-5.938-41.309-11.793-60.633-17.648c-103.351-31.192-317.191-121.579-395.226-0.036
				c-27.376,42.708-33.103,98.102-29.755,155.757l-176.268-160.075c-8.553-171.798-21.636-386.838,82.223-505.104
				c115.699-131.666,368.74-5.41,511.168,24.079C5609.915,870.756,5627.241,874.69,5644.147,878.877z"/>
			<path id="_x31_80623501" fill="#1F9D5A" stroke="#000000" d="M5660.75,1370.097l12.326,366.165
				c-48.893-9.552-103.787-14.947-145.887,9.749c-18.007,10.561-32.27,24.956-43.951,41.938l-308.1-279.776
				c-3.35-57.657,2.375-113.05,29.753-155.758c78.036-121.544,291.873-31.156,395.226,0.036
				C5619.439,1358.304,5639.759,1364.158,5660.75,1370.097z"/>
			<path id="_x31_80623500" fill="#1F9D5A" stroke="#000000" d="M5677.752,1873.982l0.822,7.998
				c-26.994,2.634-53.576,7.436-78.244,14.907l-1.161-3.584l-115.931-105.355c11.682-16.982,25.944-31.378,43.951-41.938
				c42.1-24.695,96.994-19.301,145.889-9.749L5677.752,1873.982z"/>
			<path id="_x31_80623482" fill="#188064" stroke="#000000" d="M8656.578,2860.457l-1.002-0.002l-129.311,13.849
				c5.158-67.56,7.566-134.956,6.977-201.688c-1.531-192.116-60.096-412.626-155.674-613.43l115.197-54.271l1.586-0.832
				c19.117,36.846,33.154,75.934,49.273,114.442c30.988,73.766,50.74,141.021,65.395,219.851
				c18.631,100.411,24.109,194.223,35.238,295.043C8652.586,2708.411,8656.496,2784.227,8656.578,2860.457z"/>
			<path id="_x31_80623481" fill="#188064" stroke="#000000" d="M8533.242,2672.616c0.59,66.732-1.82,134.128-6.977,201.688
				l-269.047,28.768c5.482-132.375,5.279-245.595,4.48-273.171c-4.576-153.131-60.051-309.571-139.203-450.542l255.07-120.175
				C8473.146,2259.992,8531.711,2480.5,8533.242,2672.616z"/>
			<path id="_x31_80623480" fill="#188064" stroke="#000000" d="M8261.699,2629.901c0.799,27.576,1.002,140.795-4.48,273.172
				l-109.986,11.788c-3.195-45.743-8.561-90.653-16.258-134.316c-31.951-181.821-75.314-364.822-158.684-530.374l150.205-70.81
				C8201.648,2320.332,8257.123,2476.77,8261.699,2629.901z"/>
			<path id="_x31_80623479" fill="#188064" stroke="#000000" d="M8147.234,2914.86l-281.957,30.169
				c-30.162-142.58-86.902-284.274-161.83-402.244c-28.273-44.438-56.471-86.374-84.832-125.98l353.684-166.633
				c83.367,165.551,126.727,348.552,158.682,530.374C8138.674,2824.208,8144.037,2869.119,8147.234,2914.86z"/>
			<path id="_x31_80623478" fill="#188064" stroke="#000000" d="M7865.275,2945.03l-328.451,35.196
				c-2.162-3.251-4.41-6.587-6.738-10.005c-88.99-130.9-177.902-260.883-276.156-381.546l364.686-171.872
				c28.359,39.605,56.557,81.544,84.832,125.98C7778.375,2660.757,7835.115,2802.45,7865.275,2945.03z"/>
			<path id="_x31_80623477" fill="#188064" stroke="#000000" d="M7530.084,2970.222c2.328,3.418,4.576,6.753,6.738,10.005
				l-157.396,16.815c-17.09-62.752-38.344-126.591-69.443-180.03c-42.404-73.109-84.404-135.893-129.408-193.764l73.352-34.573
				C7352.182,2709.34,7441.094,2839.322,7530.084,2970.222z"/>
			<path id="_x31_80623488" fill="#188064" stroke="#000000" d="M8494.352,2004.084l-1.586,0.833l-115.197,54.269
				c-78.209-164.378-181.176-315.371-298.182-426.892c-123.832-117.944-254.102-218.566-390.543-310.78l110.537-128.257l0.248-0.25
				c173.219,131.33,307.074,301.436,452.852,463.395c83.703,92.988,145.643,203.61,216.84,305.832
				C8478.717,1975.741,8486.951,1989.747,8494.352,2004.084z"/>
			<path id="_x31_80623487" fill="#188064" stroke="#000000" d="M8377.568,2059.186l-255.07,120.177
				c-79.482-141.553-182.727-267.388-282.18-358.478c-107.859-98.846-224.559-189.871-347.014-272.489l195.541-226.882
				c136.441,92.213,266.711,192.836,390.541,310.78C8196.393,1743.814,8299.359,1894.808,8377.568,2059.186z"/>
			<path id="_x31_80623486" fill="#188064" stroke="#000000" d="M7840.316,1820.884c99.453,91.091,202.697,216.924,282.182,358.479
				l-150.205,70.808c-10.229-20.506-21.201-40.679-32.76-60.604c-124.307-213.502-314.209-398.169-522.229-553.032l75.996-88.139
				C7615.76,1631.014,7732.459,1722.039,7840.316,1820.884z"/>
			<path id="_x31_80623485" fill="#188064" stroke="#000000" d="M7972.293,2250.171l-353.682,166.634
				c-146.063-203.695-295.941-346.662-470.924-467.496l269.617-312.775c208.02,154.863,397.922,339.53,522.229,553.032
				C7951.094,2209.493,7962.066,2229.666,7972.293,2250.171z"/>
			<path id="_x31_80623484" fill="#188064" stroke="#000000" d="M7618.613,2416.805l-364.684,171.872
				c-105.322-129.419-221.324-248.103-359.424-345.653l253.182-293.714C7322.67,2070.143,7472.549,2213.11,7618.613,2416.805z"/>
			<path id="_x31_80623483" fill="#188064" stroke="#000000" d="M7253.93,2588.676l-73.354,34.573
				c-69.627-89.554-146.436-167.287-243.061-252.792c-28.883-25.528-58.762-50.054-89.559-73.334l46.551-54.099
				C7032.605,2340.573,7148.607,2459.256,7253.93,2588.676z"/>
			<path id="_x31_80623494" fill="#188064" stroke="#000000" d="M7799.627,1193.009l-0.248,0.25l-110.535,128.257
				c-128.281-86.874-262.074-166.423-400.945-246.227c-221.465-127.302-476.051-209.238-732.354-247.855l19.648-134.607
				c21.156,3.606,42.23,7.463,63.303,11.402c188.662,35.206,378.566,74.413,558.439,142.684
				c183.871,69.776,354.197,183.274,519.863,288.434C7745.439,1153.538,7772.992,1172.814,7799.627,1193.009z"/>
			<path id="_x31_80623493" fill="#188064" stroke="#000000" d="M7688.844,1321.515l-195.539,226.882
				c-208.033-140.449-432.676-256.426-658.6-344.995c-36.557-14.286-203.346-85.793-319.045-102.42l39.885-273.549
				c256.305,38.616,510.889,120.553,732.355,247.854C7426.771,1155.091,7560.563,1234.641,7688.844,1321.515z"/>
			<path id="_x31_80623492" fill="#188064" stroke="#000000" d="M7493.305,1548.396l-75.998,88.14
				c-120.611-89.865-247.238-169.654-370.709-239.36c-176.67-99.759-360.473-158.537-543.025-213.398l12.09-82.796
				c115.701,16.627,282.49,88.135,319.047,102.42C7060.629,1291.971,7285.271,1407.947,7493.305,1548.396z"/>
			<path id="_x31_80623491" fill="#188064" stroke="#000000" d="M7417.307,1636.536l-269.617,312.774
				c-146.428-101.142-310.287-186.889-504.043-279.75c-57.953-27.729-125.738-54.213-199.271-79.458l59.196-406.322
				c182.557,54.86,366.355,113.638,543.025,213.398C7170.066,1466.881,7296.693,1546.671,7417.307,1636.536z"/>
			<path id="_x31_80623490" fill="#188064" stroke="#000000" d="M7147.688,1949.31l-253.182,293.714
				c-29.053-20.611-59.107-40.224-90.244-58.838c-127.129-75.875-259.68-145.925-393.32-209.394
				c-7.079-3.34-14.072-6.679-21.236-9.854l54.667-374.837c73.536,25.246,141.317,51.73,199.271,79.458
				C6837.4,1762.42,7001.262,1848.168,7147.688,1949.31z"/>
			<path id="_x31_80623489" fill="#188064" stroke="#000000" d="M6894.506,2243.024l-46.551,54.099
				c-141.426-107.631-302.199-193.042-469.495-258.966l0.919-2.332l10.326-70.886c7.164,3.175,14.157,6.514,21.236,9.854
				c133.641,63.469,266.191,133.519,393.32,209.394C6835.4,2202.8,6865.453,2222.413,6894.506,2243.024z"/>
			<path id="_x31_80623476" fill="#188064" stroke="#000000" d="M8656.578,2860.457c0.156,154.543-15.27,310.982-41.104,466.411
				l-159.111-14.178c34.738-143.423,58.816-291.355,69.902-438.387l129.311-13.849L8656.578,2860.457z"/>
			<path id="_x31_80623475" fill="#188064" stroke="#000000" d="M8257.219,2903.073l269.047-28.769
				c-11.086,147.031-35.164,294.964-69.902,438.387l-238.078-21.183C8240.398,3187.478,8251.736,3035.696,8257.219,2903.073z"/>
			<path id="_x31_80623474" fill="#188064" stroke="#000000" d="M8147.234,2914.86l109.986-11.789
				c-5.484,132.623-16.822,284.405-38.934,388.435l-81.889-7.342C8150.287,3159.632,8155.848,3034.337,8147.234,2914.86z"/>
			<path id="_x31_80623473" fill="#188064" stroke="#000000" d="M8147.234,2914.86c8.613,119.476,3.053,244.77-10.836,369.305
				l-236.914-21.098c-3.764-60.488-8.689-123.396-13.373-178.552c-3.863-46.076-10.973-92.821-20.834-139.485L8147.234,2914.86z"/>
			<path id="_x31_80623472" fill="#188064" stroke="#000000" d="M7899.486,3263.067L7648.41,3240.7
				c-9.063-88.153-39.561-153.419-111.59-260.472l328.453-35.197c9.861,46.666,16.971,93.411,20.832,139.486
				C7890.797,3139.672,7895.723,3202.579,7899.486,3263.067z"/>
			<path id="_x31_80623471" fill="#188064" stroke="#000000" d="M7648.414,3240.701l-201.262-17.891l-13.584,2.734
				c-8.117-40.749-17.068-80.748-26.686-119.665c-8.459-34.25-17.248-71.334-27.451-108.836l157.395-16.815
				C7608.85,3087.281,7639.348,3152.548,7648.414,3240.701z"/>
			<path id="_x31_80623470" fill="#009C75" stroke="#000000" d="M8456.363,3312.691l159.111,14.178
				c-18.205,110.365-41.742,220.228-68.693,328.5l-3.166-0.836l-182.5-30.618c12.705-33.309,24.654-66.869,35.689-100.849
				C8419.127,3454.525,8439.121,3384.152,8456.363,3312.691z"/>
			<path id="_x31_80623469" fill="#009C75" stroke="#000000" d="M8218.285,3291.506l238.078,21.184
				c-17.242,71.461-37.234,141.835-59.559,210.375c-11.035,33.979-22.984,67.54-35.689,100.849l-271.125-45.548
				c10.813-54.641,20.789-110.445,29.432-166.921l20.406,3.108C8174.971,3429.088,8200.191,3376.048,8218.285,3291.506z"/>
			<path id="_x31_80623468" fill="#009C75" stroke="#000000" d="M8136.398,3284.165l81.887,7.341
				c-18.094,84.541-43.314,137.582-78.455,123.046l-20.408-3.108C8125.889,3369.213,8131.688,3326.732,8136.398,3284.165z"/>
			<path id="_x31_80623467" fill="#009C75" stroke="#000000" d="M7899.486,3263.067l236.912,21.098
				c-4.711,42.567-10.51,85.048-16.975,127.28c-8.641,56.476-18.621,112.282-29.43,166.921l-188.248-31.539
				c4.225-49.231,4.445-98.97,3.422-154.038C7904.381,3353.882,7902.348,3309.225,7899.486,3263.067z"/>
			<path id="_x31_80623466" fill="#009C75" stroke="#000000" d="M7455.834,3353.284c39.254,61.612,190.34,97.026,193.926,22.549
				c2.559-53.148,2.688-96.387-1.346-135.132l251.072,22.367c2.863,46.158,4.895,90.813,5.684,129.722
				c1.021,55.069,0.801,104.807-3.422,154.038l-257.713-43.284l-0.502,0.415c-30.033-37.44-68.074-65.809-113.961-79.691
				c-22.654-6.859-47.473-12.553-56.232-4.231c-3.334,3.16-5.588,7.326-7.012,12.323
				C7463.271,3405.863,7459.805,3379.532,7455.834,3353.284z"/>
			<path id="_x31_80623465" fill="#009C75" stroke="#000000" d="M7648.414,3240.701c4.033,38.746,3.904,81.983,1.346,135.132
				c-3.586,74.478-154.672,39.063-193.926-22.549c-6.447-43.161-13.898-85.909-22.266-127.74l13.584-2.734L7648.414,3240.701z"/>
			<path id="_x31_80623509" fill="#40A666" stroke="#000000" d="M4806.861,1615.72l-137.56-57.391l-5.584-0.005
				c0.231-199.03,0.446-389.313,0.588-514.113l135.075,122.706c-1.635,47.152-1.773,93.39-1.488,136.878
				C4798.587,1420.098,4802.145,1516.743,4806.861,1615.72z"/>
			<path id="_x31_80623508" fill="#40A666" stroke="#000000" d="M5008.046,1699.679l-201.185-83.958
				c-4.715-98.977-8.271-195.624-8.973-311.925c-0.285-43.488-0.146-89.726,1.488-136.877l199.49,181.179
				c2.117,41.158,3.907,79.816,3.785,114.058C5002.398,1540.549,5005.054,1619.864,5008.046,1699.679z"/>
			<path id="_x31_80623507" fill="#40A666" stroke="#000000" d="M5213.061,1785.307l-205.015-85.628
				c-2.992-79.814-5.647-159.131-5.394-237.525c0.124-34.239-1.668-72.899-3.783-114.058l176.268,160.075
				c4.084,72.985,22.657,149.486,29.924,207.98C5207.865,1739.064,5210.673,1762.144,5213.061,1785.307z"/>
			<path id="_x31_80623506" fill="#40A666" stroke="#000000" d="M5175.137,1508.171l308.1,279.777
				c-18.279,26.389-30.396,58.952-40.766,93.096l-229.41-95.738c-2.39-23.163-5.195-46.243-8-69.156
				C5197.794,1657.657,5179.221,1581.156,5175.137,1508.171z"/>
			<path id="_x31_80623505" fill="#40A666" stroke="#000000" d="M5599.169,1893.303l1.161,3.584
				c-22.003,6.64-42.422,15.529-60.349,27.007l-1.913-2.917l-95.598-39.931c10.372-34.146,22.488-66.708,40.768-93.096
				L5599.169,1893.303z"/>
			<path id="_x31_80623514" fill="#40A666" stroke="#000000" d="M4904.403,2359.05c7.491-65.223-67.538-95.884-91.422-191.721
				c-19.988-80.083,9.496-220.928,5.928-302.661c-4.062-91.562-8.386-170.963-12.048-248.947l-137.56-57.391l-5.584-0.005
				c-0.43,374.981-0.894,781.289-0.958,840.441c84.057,1.178,166.045-6.977,245.129-24.799L4904.403,2359.05z M4827.978,2386.705
				c-43.833,6.7-93.073,11.641-136.725,11.674c-4.5-0.004-15.162-0.35-15.162-0.35s12.754-7.899,18.755-10.891
				c18.676-9.644,45.357-29.523,75.033-45.82c38.768-21.282,75.361-39.821,97.083-22.548
				C4900.256,2345.133,4864.14,2381.248,4827.978,2386.705z"/>
			<path id="_x31_80623513" fill="#40A666" stroke="#000000" d="M4904.403,2359.05c7.491-65.223-67.538-95.884-91.422-191.721
				c-19.988-80.083,9.496-220.928,5.928-302.661c-4.062-91.562-8.386-170.963-12.048-248.947l201.185,83.958
				c8.005,214.536,18.335,432.238-20.312,642.804l2.818,8.917c-27.168,8.8-54.751,16.266-82.668,22.565L4904.403,2359.05z"/>
			<path id="_x31_80623512" fill="#40A666" stroke="#000000" d="M5218.862,1883.787c0.679,135.796-7.589,297.162-97.771,406.114
				l3.411,6.835c-43.345,21.862-88.023,40.056-133.943,54.666l-2.82-8.918c38.646-210.564,28.314-428.269,20.312-642.804
				l205.017,85.629C5216.354,1818.137,5218.734,1851.046,5218.862,1883.787z"/>
			<path id="_x31_80623511" fill="#40A666" stroke="#000000" d="M5213.061,1785.307l229.41,95.738
				c-16.722,55.299-28.79,114.519-54.498,157.812c-28.047,47.122-86.205,126.283-127.913,173.391l0.664,0.917
				c-43.609,32.191-89.128,59.964-136.226,83.571l-3.409-6.835c90.185-108.952,98.45-270.316,97.77-406.114
				C5218.734,1851.046,5216.354,1818.137,5213.061,1785.307z"/>
			<path id="_x31_80623510" fill="#40A666" stroke="#000000" d="M5442.471,1881.044l95.598,39.931l1.913,2.918
				c-5.003,3.244-9.839,6.652-14.424,10.313c-43.361,34.526-72.423,94.226-109.962,135.505
				c-39.034,42.946-79.49,84.22-124.768,120.408c-9.921,7.903-19.928,15.642-30.101,23.043l-0.664-0.917
				c41.708-47.107,99.866-126.268,127.913-173.391C5413.681,1995.563,5425.749,1936.344,5442.471,1881.044z"/>
			<path id="_x31_80623464" fill="#219866" stroke="#000000" d="M8543.615,3654.532l3.166,0.837
				c-30.465,122.85-65.26,243.609-101.637,360.619l-1.914-0.582l-235.125-55.508c10.271-19.898,20.459-39.801,30.396-59.783
				c44.926-90.258,86.77-182.02,122.613-276.201L8543.615,3654.532z"/>
			<path id="_x31_80623463" fill="#219866" stroke="#000000" d="M8089.99,3578.366l271.125,45.548
				c-35.844,94.182-77.688,185.945-122.615,276.203c-9.936,19.982-20.123,39.879-30.395,59.781l-187.814-44.285
				c11.377-41.891,10.914-73.301,25.398-134.604C8061.008,3716.298,8076.082,3648.332,8089.99,3578.366z"/>
			<path id="_x31_80623462" fill="#219866" stroke="#000000" d="M7901.744,3546.827l188.246,31.539
				c-13.906,69.966-28.98,137.932-44.301,202.646c-14.484,61.301-14.02,92.711-25.398,134.604l-198.811-46.967
				c17.973-52.131,30.859-103.188,44.486-145.492C7886.201,3660.194,7896.682,3603.887,7901.744,3546.827z"/>
			<path id="_x31_80623461" fill="#219866" stroke="#000000" d="M7644.031,3503.545l257.713,43.284
				c-5.063,57.062-15.543,113.367-35.775,176.327c-13.629,42.305-26.516,93.361-44.488,145.494l-102.361-24.111
				c20.877-116.193-5.291-253.102-75.59-340.578L7644.031,3503.545z"/>
			<path id="_x31_80623460" fill="#219866" stroke="#000000" d="M8445.145,4015.988c-2.338,7.412-4.6,14.738-6.936,22.07
				c-44.402,141.578-92.801,282.316-151.938,418.461c25.154-70.453,17.055-125.693-94.127-160.396
				c-44.973-13.965-90.275-30.012-135.91-45.645l0.752-2.244c1.693-22.828,29.387-55.039,39.908-75.273
				c15.865-30.471,31.73-60.861,47.76-91.336c21.291-40.551,42.58-81.014,63.453-121.729l235.125,55.506L8445.145,4015.988z"/>
			<path id="_x31_80623459" fill="#219866" stroke="#000000" d="M8020.291,3915.611l187.814,44.287
				c-20.873,40.713-42.162,81.18-63.453,121.729c-16.029,30.471-31.896,60.865-47.76,91.336
				c-10.521,20.232-38.215,52.445-39.908,75.27l-0.752,2.248c-72.119-24.826-145.072-49.068-218.785-64.064l1.59-7.83
				c18.76-10.395,102.828-90.109,141.822-166.461C8002.234,3970.078,8013.514,3940.93,8020.291,3915.611z"/>
			<path id="_x31_80623458" fill="#219866" stroke="#000000" d="M7766.896,4175.172c-9.416-1.01-23.158-2.861-34.742-0.459
				l0.014-10.16l-131.936-26.564l1.424-6.916c126.438-48.094,183.549-157.248,219.826-262.426l198.811,46.965
				c-6.777,25.316-18.057,54.465-39.432,96.514c-38.992,76.352-123.063,156.066-141.822,166.461l-1.59,7.83
				C7814.041,4181.641,7790.471,4177.779,7766.896,4175.172z"/>
			<path id="_x31_80623457" fill="#219866" stroke="#000000" d="M7601.656,4131.076l-1.424,6.914l-34.65-6.955l-0.586,1.5
				c-41.469-16.875-86.949-24.508-126.361-18.889c1.85-11.994,3.773-23.99,5.541-35.982c4.916-1.162,183.004-47.279,220.887-99.055
				c27.117-36.959,45-83.51,54.057-134.07l102.361,24.111C7785.205,3973.826,7728.094,4082.982,7601.656,4131.076z"/>
			<path id="_x31_80623436" fill="#9AD2BD" stroke="#000000" d="M8290.334,4362.916c-0.768-1.621-1.602-3.225-2.494-4.813
				c-0.129-0.229-0.268-0.461-0.402-0.689c-0.266-0.467-0.539-0.928-0.816-1.393c-0.213-0.35-0.426-0.703-0.645-1.051
				c-0.186-0.297-0.377-0.59-0.566-0.885c-1.012-1.568-2.084-3.123-3.246-4.682c-15.674-21.006-44.039-38.879-90.053-53.244
				c-40.834-12.74-81.969-27.084-123.393-41.389c-4.162-1.432-8.32-2.865-12.486-4.293c-1.516-0.52-3.035-1.039-4.553-1.563
				c-29.883-10.27-59.9-20.41-90.064-29.801c-0.572-0.176-1.146-0.352-1.717-0.531c-3.658-1.135-7.32-2.26-10.984-3.375
				c-1.377-0.416-2.748-0.826-4.123-1.24c-2.604-0.785-5.209-1.559-7.816-2.33c-2.281-0.672-4.564-1.342-6.848-2.006
				c-1.674-0.486-3.354-0.971-5.029-1.451c-3.109-0.893-6.217-1.773-9.328-2.645c-0.754-0.209-1.51-0.42-2.27-0.629
				c-10.52-2.924-21.059-5.719-31.613-8.359c-1.779-0.443-3.561-0.881-5.34-1.316c-0.77-0.186-1.539-0.379-2.309-0.563
				c-2.381-0.58-4.762-1.146-7.148-1.709c-33.248-7.83-66.66-14.018-100.232-17.764c-7.857-0.877-18.744-2.279-28.84-1.338
				c-0.326,0.031-0.654,0.063-0.98,0.098c-0.305,0.035-0.605,0.07-0.904,0.107c-0.463,0.059-0.926,0.123-1.385,0.191
				c-0.191,0.027-0.379,0.059-0.568,0.088c-0.898,0.145-1.787,0.311-2.66,0.506c-0.352,0.08-0.699,0.154-1.047,0.24
				c-0.096,0.021-0.191,0.051-0.285,0.072c-4.979,1.271-9.445,3.414-12.838,6.863c-0.109,0.113-0.219,0.232-0.332,0.35
				c-0.195,0.211-0.387,0.426-0.574,0.643c-0.178,0.207-0.35,0.41-0.516,0.625c-0.041,0.047-0.074,0.1-0.115,0.148
				c-0.225,0.293-0.445,0.586-0.658,0.9c-6.523,9.391-3.883,21.803,0.275,33.285c2.027,5.588,4.404,10.965,6.258,15.658
				c0.381,0.959,0.74,1.896,1.07,2.801c13.299,36.518,18.902,74.914,17.025,113.189c-1.098,22.438-4.754,44.83-10.957,66.768
				c-5.613,19.848-12.838,38.018-21.484,54.703c-46.656,90.227-134.541,136.904-232.736,171.529
				c-17.031,5.979-34.518,10.9-52.256,15.162c-44.879,10.801-91.424,17.332-136.592,25.914c-7.396,1.41-14.758,2.873-22.066,4.422
				c-8.34,1.756-16.697,3.734-24.99,6.002c-0.084,0.023-0.166,0.047-0.25,0.068c-0.078,0.02-0.154,0.043-0.234,0.064
				c-16.254,4.477-32.248,10.076-47.355,17.293c-18.498,8.844-35.656,20.117-50.285,34.748
				c-33.689,33.58-63.404,69.57-89.521,107.689c-31.732,46.332-58.172,95.842-79.99,147.955
				c-12.455,29.762-23.426,60.377-32.996,91.779c-53.02,173.979-109.264,330.205,118.951,377.787
				c6.012,1.248,12.158,2.439,18.4,3.582c35.533,6.49,74.322,11.336,111.055,16.205c46.656,6.189,89.992,12.426,119.096,22.152
				c33.309,11.199,79.104,26.494,101.152,51.092c7.086-9.166,14.363-18.205,21.814-27.125
				c54.594-64.355,121.768-130.162,189.316-190.055c15.496-13.76,30.633-28.758,46.285-42.699
				c14.678-13.08,29.811-25.367,41.758-40.912c14.189-18.459,31.428-29.326,46.979-45.459c9.785-10.154,19.389-20.406,28.758-30.785
				c52.881-58.566,114.42-108.305,168.74-165.689c117.734-124.408,211.066-303.379,285.82-456.287
				C8275.824,4484.453,8315.236,4415.268,8290.334,4362.916z"/>
			<path id="_x31_80623456" fill="#6ACBBA" stroke="#000000" d="M8290.334,4362.916c12.779,26.955,8.514,58.379-4.063,93.604
				c-11.703,33.146-30.906,69.695-50.115,108.998c19.209-39.301,38.412-75.852,50.115-108.998
				C8298.848,4421.295,8303.113,4389.871,8290.334,4362.916L8290.334,4362.916c-0.768-1.621-1.602-3.225-2.494-4.811
				c-0.129-0.23-0.268-0.461-0.402-0.691c-0.266-0.465-0.539-0.928-0.816-1.393c-0.213-0.35-0.426-0.703-0.645-1.053
				c-0.186-0.297-0.377-0.588-0.566-0.883c-1.012-1.568-2.084-3.123-3.229-4.66c-0.006-0.008-0.012-0.016-0.018-0.021
				c-15.674-21.008-44.039-38.881-90.053-53.244c-40.834-12.74-81.969-27.084-123.393-41.391c-4.162-1.432-8.32-2.865-12.486-4.291
				c-1.516-0.52-3.035-1.041-4.553-1.563c-6.982,29.066-9.398,60.232-14.529,89.094c-12.67,71.191-19.42,212.793-49.629,273.613
				c-28.498,57.307-92.598,79.502-132.146,126.813c-33.871,40.516-65.209,88.59-88.039,136.049
				c-31.508,65.506-67.172,137.711-133.957,173.039c-47.662,25.213-90.203,46.771-129.734,68.436
				c-89.766,49.219-168.408,108.316-237.809,183.762c-46.859,50.953-79.209,122.02-79.359,191.578
				c46.654,6.189,89.992,12.424,119.096,22.15c33.309,11.199,79.104,26.496,101.152,51.094c7.086-9.168,14.363-18.207,21.809-27.133
				l0.006,0.006c-66.596-77.82-49.58-171.422,25.543-234.35c58.766-49.236,165.908-116.033,246.99-102.398
				c13.869,2.334,21.451,7.234,24.553,13.721l14.904,16.549c4.172-4.244,8.26-8.404,12.346-12.645
				c9.785-10.156,19.389-20.408,28.756-30.787c52.881-58.566,114.42-108.305,168.74-165.689
				c117.736-124.408,211.068-303.379,285.82-456.287C8275.824,4484.453,8315.236,4415.268,8290.334,4362.916z"/>
			<path id="_x31_80623455" fill="#6ACBBA" stroke="#000000" d="M7871.746,4249.826c-4.311,29.244-6.855,59.678-14.135,88.365
				c-14.158,55.795-25.939,113.973-44.361,168.832c-17.83,53.113-37.277,120.684-75.137,163.219
				c-27.064,30.396-68.344,51.135-101.412,74.697c-81.508,58.076-167.059,97.539-243.756,163.094
				c-68.863,58.855-150.572,125.855-213.336,190.178c-42.148,43.334-62.531,109.926-79.023,166.475
				c-20.498,70.268-21.92,137.971-25.172,210.41c35.537,6.49,74.326,11.336,111.059,16.205
				c0.15-69.559,32.502-140.625,79.359-191.578c69.4-75.445,148.043-134.543,237.809-183.758
				c39.533-21.668,82.074-43.227,129.734-68.438c66.789-35.328,102.449-107.537,133.959-173.039
				c22.828-47.459,54.166-95.535,88.035-136.051c39.551-47.309,103.648-69.504,132.148-126.813
				c30.209-60.818,36.961-202.422,49.627-273.613c5.135-28.857,7.551-60.023,14.531-89.094c-29.883-10.271-59.9-20.41-90.063-29.801
				c-0.574-0.176-1.146-0.352-1.719-0.531c-3.656-1.137-7.318-2.26-10.984-3.373c-1.375-0.418-2.746-0.828-4.121-1.24
				c-2.605-0.787-5.209-1.559-7.816-2.33c-2.283-0.674-4.564-1.344-6.848-2.008c-1.676-0.486-3.355-0.971-5.031-1.451
				c-3.109-0.893-6.217-1.773-9.326-2.645c-0.756-0.209-1.512-0.42-2.271-0.629c-10.52-2.924-21.059-5.719-31.613-8.361
				C7878.92,4214.727,7874.068,4234.074,7871.746,4249.826z"/>
			<path id="_x31_80623454" fill="#6ACBBA" stroke="#000000" d="M7057.021,5471.51c6.01,1.25,12.156,2.441,18.398,3.582
				c3.248-72.441,4.67-140.141,25.168-210.408c16.492-56.549,36.873-123.143,79.021-166.477
				c62.766-64.32,144.471-131.32,213.336-190.178c76.699-65.553,162.25-105.018,243.756-163.094
				c33.072-23.561,74.348-44.297,101.414-74.697c37.859-42.535,57.305-110.107,75.137-163.217
				c18.42-54.861,30.201-113.035,44.361-168.834c7.279-28.686,9.822-59.121,14.135-88.365c2.322-15.752,7.176-35.1,10.141-53.273
				c-1.779-0.443-3.563-0.881-5.34-1.314c-0.77-0.188-1.539-0.379-2.309-0.566c-2.381-0.578-4.762-1.143-7.148-1.705
				c-33.248-7.832-66.66-14.02-100.232-17.766c-7.859-0.875-18.744-2.279-28.84-1.338c-0.326,0.031-0.654,0.063-0.98,0.098
				c-0.305,0.035-0.605,0.07-0.904,0.109c-0.463,0.059-0.926,0.121-1.385,0.189c-0.191,0.029-0.379,0.059-0.568,0.09
				c-0.898,0.145-1.787,0.311-2.66,0.506c-0.352,0.078-0.699,0.154-1.045,0.24c-0.098,0.021-0.191,0.049-0.289,0.07
				c-4.979,1.271-9.443,3.416-12.834,6.865c-0.113,0.113-0.223,0.232-0.334,0.35c-0.193,0.209-0.385,0.424-0.576,0.643
				c-0.174,0.207-0.348,0.41-0.516,0.623c-0.039,0.049-0.072,0.1-0.113,0.148c-0.225,0.295-0.445,0.59-0.658,0.9
				c-6.523,9.393-3.883,21.803,0.275,33.285c2.027,5.59,4.406,10.965,6.258,15.66c0.381,0.959,0.742,1.896,1.07,2.801
				c13.301,36.518,18.902,74.914,17.025,113.189c-1.098,22.438-4.758,44.83-10.957,66.766c-5.613,19.85-12.836,38.02-21.484,54.705
				c-46.656,90.225-134.541,136.904-232.736,171.529c-17.031,5.977-34.518,10.9-52.256,15.16
				c-44.877,10.803-91.424,17.332-136.594,25.914c-7.395,1.412-14.756,2.873-22.063,4.422c-8.34,1.758-16.699,3.734-24.992,6.002
				c-0.084,0.025-0.166,0.047-0.25,0.068c-0.078,0.02-0.154,0.043-0.234,0.064c-16.254,4.479-32.25,10.078-47.357,17.293
				c-18.496,8.844-35.652,20.117-50.285,34.75c-33.688,33.58-63.402,69.568-89.521,107.689
				c-31.732,46.334-58.168,95.842-79.988,147.955c-12.457,29.762-23.426,60.377-32.998,91.779
				C6885.053,5267.703,6828.803,5423.93,7057.021,5471.51z"/>
			<path id="_x31_80623453" fill="#7ED04B" stroke="#000000" d="M4866.958,2318.769c-21.724-17.27-58.315,1.266-97.083,22.548
				c-29.676,16.297-56.359,36.177-75.033,45.821c-6.001,2.992-18.755,10.891-18.755,10.891s10.662,0.346,15.162,0.35
				c43.651-0.034,92.894-4.974,136.725-11.674C4864.14,2381.248,4900.256,2345.133,4866.958,2318.769z"/>
			<path id="_x31_80623452" fill="#8ADA87" stroke="#000000" d="M7719.119,3844.537c-9.057,50.561-26.939,97.109-54.057,134.07
				c-37.883,51.775-215.971,97.893-220.887,99.053c9.486-62.225,17.639-124.695,25.541-187.17
				c3.277-25.742,5.809-51.813,7.67-78.137c0.084-0.334,0.086-0.582,0.086-0.916c7.85-90.219,7.789-182.857-0.273-273.011
				c-0.49-5.166-1.154-10.582-1.979-16.083c-0.002-0.25-0.082-0.414-0.084-0.665c-2.297-29.828-5.262-59.658-8.813-89.32
				c1.426-4.998,3.678-9.16,7.012-12.322c8.76-8.322,33.578-2.627,56.232,4.231c45.887,13.882,83.928,42.25,113.961,79.69
				C7713.828,3591.435,7739.998,3728.344,7719.119,3844.537z"/>
			<path id="_x31_80623451" fill="#A0EE9D" stroke="#000000" d="M7659.814,4197.293c43.516,49.953,53.68,122.527,43.775,186.168
				c-19.721,128.025-134.529,203.207-252.783,234.729c-53.584,14.188-108.412,22.707-163.324,29.891
				c-22.58,2.973-39.828,4.953-62.486,5.594c15.266-18.227,25.943-30.795,38.879-51.607c11.604-18.646,57.27-102.822,57.27-102.822
				s6.668-3.242,13.088-7.482c1.004-0.58,1.92-1.332,2.836-1.998c2.168-1.496,4.17-3.16,5.67-4.742
				c0.586-0.664,1.166-1.332,1.666-1.996c1.168-1.334,2.422-2.746,3.674-4.246c11.678-14.48,21.365-36.049,29.475-60.449
				c0.17-0.502,0.336-1.002,0.504-1.5c9.947-27.816,16.559-56.799,21.924-85.787c13.416-72.631,29.324-144.26,38.654-217.398
				c39.412-5.619,84.895,2.014,126.361,18.889C7602.221,4147.656,7636.27,4170.271,7659.814,4197.293z"/>
			<path id="_x31_80623439" fill="#98D6F9" stroke="#000000" d="M5492.119,3928.488c78.055,0.383,173.296,100.93,221.724,151.527
				c83.902,87.65,156.782,164.09,236.464,246.113c102.63,105.643,216.345,236.295,327.311,330.838
				c133.66,113.875,271.506,187.289,438.5,244.889c36.18,12.48,142.07,33.576,210.99,47.447
				c41.65,8.375,80.65-97.104,122.355-144.268c110.521-124.977,235.613-233.598,293.387-394.697
				c14.092-65.863,16.27-55.896,31.238-127.586c46.623-223.176,63.102-471.748,63.684-699.325
				c0.293-115.576-14.867-235.135-49.566-345.748c-32.283-102.907-52.145-211.194-106.352-306.068
				c-37.248-65.186-88.66-132.113-133.268-192.681c-106.199-144.206-257.602-252.577-402.051-355.149
				c-160.541-114-362.867-176.95-559.074-182.786c-48.45-1.442-96.445,11.224-145.234,14.104
				c-55.676,3.289-111.167,10.704-165.585,22.945c-47.931,10.792-94.786,25.29-140.435,42.934
				c17.311,45.859-100.415,64.8-123.908,78.725c-104.204,61.743-172.923,152.092-207.449,267.644
				c-14.176,47.419-29.277,93.561-36.971,142.679c-7.969,50.879-5.633,101.956-4.497,153.176
				c1.965,88.544,36.889,171.75,49.381,258.705c5.56,38.688,3.972,77.678,7.256,116.308c3.009,35.485,14.796,68.978,17.917,105.111
				c7.802,90.09,45.747,172.774,54.008,262.766C5498.267,3734.881,5490.944,3896.338,5492.119,3928.488z"/>
			<path id="_x31_80623440" fill="#80CDF8" stroke="#000000" d="M5492.784,3962.174c97.366,0.379,187.34,133.957,246.655,194.32
				c85.066,86.553,163.861,167.012,249.637,252.986c118.412,118.674,247.9,286.43,397.635,366
				c145.184,77.119,292.379,159.973,455.506,191.783c37.307,7.273,68.592,1.707,80.387,47.848
				c8.328,32.654-11.125,73.154-23.332,102.539c-33.367,80.365-28.459,162.662-47.605,245.342
				c-17.678,76.313-69.248,113.178-125.127,135.938c-75.232,30.645-161.754,27.381-240.451,42.604
				c-71.95,13.912-160.654,52.617-217.922,98.502c-57.602,46.152-168.709,192.332-236.188,124.699
				c-24.049-24.1-18.811-62.639-20.748-93.514c-3.973-62.998-49.112-123.516-93.078-165.74
				c-35.632-34.23-104.073-53.16-127.579-95.898c-19.887-36.17-39.438-77.291-33.612-118.313
				c6.763-47.602,39.111-110.264,14.539-158.582c-22.638-44.342-114.593-70.75-157.138-82.768
				c-65.794-18.578-123.544-27.529-170.214-80.098c-108.652-122.389-192.494-291.08-247.345-443.914
				c-37.519-104.551-58.085-209.514-29.751-314.162c47.079-173.875,147.453-223.096,290.541-314.609
				c-12.771,87.457-2.24,180.117,12.924,267.416c2.092,12.053,9.139,88.221,26.877,88.135c9.725-0.045,14.447-18.539,15.39-25.613
				c2.177-16.527-3.814-30.113-4.541-45.98c-0.946-20.311,0.168-40.652-1.21-61.02c-3.199-47.354-9.594-95.176-13.459-142.76
				C5493.492,3976.205,5492.979,3962.174,5492.784,3962.174z"/>
			<path id="_x31_80623449" fill="#80CDF8" stroke="#000000" d="M6486.922,5856.564c-6.357-3.678-13.428-6.686-21.273-8.859
				c-51.577-14.33-83.545,18.133-96.422,60.525c-9.69,31.887-8.58,69.393,3.125,96.842c19.224,45.094,65.341,71.082,108.994,40.639
				C6540.594,6004.379,6552.221,5894.344,6486.922,5856.564z"/>
			<path id="_x31_80623450" fill="#80CDF8" stroke="#000000" d="M5822.122,5939.916c-20.396,33.271-8.829,120.947,48.167,109.197
				c42.686-8.801,53.128-74.674,40.315-108.393C5892.793,5893.881,5844.374,5903.615,5822.122,5939.916z"/>
			<path id="_x31_80623448" fill="#80CDF8" stroke="#000000" d="M7214.207,5514.465c-6.314,73.246-29.73,147.156-52.385,215.109
				c-36.363,109.047-96.174,209.947-187.924,281.393c-43.914,34.193-88.273,71.072-135.182,100.908
				c-52.762,33.549-103.641,52.162-161.275,73.893c-25.09,9.455-49.518,27.914-67.656,47.641
				c-16.494,17.932-16.762,50.076-39.41,57.262c-22.402,7.105-56.834,6.916-81.156,10.553
				c-64.861,9.695-125.539,27.912-188.379,43.354c-33.623,8.262-68.134,23.211-101.668,29.521
				c-33.154,6.236-75.008-10-107.646-16.621c-57.745-11.719-115.336-26.203-169.689-49.242
				c-47.852-20.275-91.497-55.688-132.592-88.02c-27.401-21.557-54.094-45.271-79.119-69.553
				c-47.825-46.389-92.924-93.725-131.704-148.309c-25.294-35.605-46.985-87.297-57.156-133.773
				c-1.129,0.412-2.187,0.781-3.163,1.088c-66.118,20.955-92.04,86.234-57.501,149.328c12.075,22.066,30.312,41.604,47.931,64.701
				c44.452,56.422,101.471,101.502,156.621,147.814c119.667,100.502,256.017,196.557,408.329,238.854
				c154.685,42.951,285.071-7.236,430.3-56.801c187.313-63.932,376.6-153.422,526.275-284.836
				c144.549-126.92,223.213-303.197,313.635-468.652c7.375-13.484,40.1-65.689,48.676-76.379
				C7363.779,5562.111,7322.604,5533.287,7214.207,5514.465z"/>
			<path id="_x31_80623447" fill="#80CDF8" stroke="#000000" d="M5710.125,6150.662c25.027,24.277,51.719,47.994,79.119,69.551
				c41.095,32.332,84.74,67.744,132.592,88.02c54.355,23.039,111.948,37.523,169.691,49.24
				c32.637,6.621,74.49,22.859,107.645,16.623c33.534-6.311,68.047-21.262,101.668-29.521
				c62.84-15.441,123.518-33.658,188.381-43.355c24.322-3.633,58.752-3.441,81.154-10.551c22.65-7.186,22.916-39.33,39.412-57.262
				c18.135-19.725,42.564-38.184,67.656-47.639c57.635-21.73,108.514-40.344,161.275-73.893
				c46.908-29.836,91.268-66.715,135.182-100.91c91.748-71.445,151.561-172.348,187.924-281.391
				c22.654-67.955,46.072-141.865,52.385-215.111c-26.855-4.662-57.838-8.709-93.771-11.883
				c-0.652,15.648-1.902,31.197-6.287,45.232c-26.979,86.359-45.539,171.598-106.869,242.348
				c-42.613,49.16-93.213,90.137-145.113,129.041c-43.113,32.316-84.078,71.195-131.242,97.582
				c-38.285,21.416-77.787,46.811-118.494,63.166c-36.063,14.49-74.211,39.645-108.902,58.789
				c-36.555,20.172-62.113,49.67-106.027,49.926c-33.875,0.195-57.83,3.479-90.142,17.877c-0.742,0.332-1.48,0.66-2.218,0.996
				c-51.775,23.242-89.718,45.666-149.394,45.537c-53.842-0.117-114.703-8.766-164.12-31.365
				c-66.226-30.291-144.065-56.941-198.998-105.346c-35.069-30.904-66.186-64.393-96.837-99.541
				c-25.493-29.23-57.319-59.383-73.719-95.131c-11.89-25.92-25.628-54.783-35.159-83.311
				c-28.879,13.529-52.398,25.34-65.644,30.197c10.171,46.479,31.864,98.17,57.156,133.771
				C5617.201,6056.938,5662.3,6104.275,5710.125,6150.662z"/>
			<path id="_x31_80623446" fill="#80CDF8" stroke="#000000" d="M7120.438,5502.582c-14.135-1.248-29.012-2.365-44.729-3.328
				c5.557,34.789,5.355,69.023-0.77,105.6c-20.219,120.721-118.486,215.176-207.871,290.104
				c-50.789,42.574-213.414,200.951-296.607,95.322c-26.043-33.084-26.693-79.232-53.127-111.746
				c-9.424-11.592-19.697-18.537-30.414-21.971c65.299,37.781,53.672,147.816-5.572,189.148
				c-43.653,30.443-89.771,4.457-108.994-40.639c-11.707-27.451-12.815-64.955-3.127-96.842
				c-29.223,27.221-60.105,59.891-99.912,62.166c-30.375,1.74-55.619-21.42-80.639-34.361
				c-25.694-13.287-51.488-33.385-81.287-35.295c-30.475-1.955-64.709,0.668-85.594,25.697
				c-21.05,25.234-39.873,53.799-78.914,38.129c-50.869-20.41-55.307-120.021-88.695-158.396
				c-53.331-61.287-183.072-7.238-267.277,32.213c9.531,28.529,23.271,57.391,35.159,83.313
				c16.397,35.748,48.226,65.898,73.719,95.131c30.651,35.146,61.766,68.635,96.837,99.539
				c54.931,48.404,132.772,75.053,198.996,105.346c49.417,22.6,110.28,31.248,164.122,31.365
				c59.672,0.129,97.616-22.295,149.394-45.537c0.737-0.332,1.476-0.66,2.218-0.996c32.31-14.396,56.265-17.682,90.142-17.877
				c43.914-0.254,69.473-29.754,106.027-49.926c34.693-19.143,72.84-44.297,108.902-58.787
				c40.707-16.355,80.209-41.75,118.494-63.168c47.164-26.387,88.131-65.266,131.242-97.582
				c51.902-38.904,102.5-79.883,145.113-129.041c61.328-70.75,79.889-155.986,106.869-242.346
				C7118.535,5533.779,7119.783,5518.23,7120.438,5502.582z M5870.289,6049.113c-56.996,11.748-68.563-75.926-48.167-109.197
				c22.252-36.301,70.671-46.035,88.484,0.805C5923.419,5974.439,5912.975,6040.313,5870.289,6049.113z"/>
			<path id="_x31_80623445" fill="#90CBED" stroke="#000000" d="M5353.344,3170.463c-142.423-0.715-288.578-98.789-406.604-169.397
				c-78.956-47.248-221.705-91.28-253.92-186.829l11.744-2.314c39.214-8.091,67.719-25.517,109.535-46.993
				c49.414-25.381,99.389-49.745,150.716-71.296c70.277,2.829,127.246,70.164,171.822,117.473
				c31.049,32.938,60.394,62.642,84,101.478c29.831,49.076,73.305,85.673,99.34,139.035c16.82,34.473,27.644,70.314,37.134,106.694
				L5353.344,3170.463z"/>
			<path id="_x31_80623444" fill="#90CBED" stroke="#000000" d="M5353.344,3170.463c-142.423-0.715-288.578-98.789-406.604-169.397
				c-78.956-47.248-219.775-85.941-251.992-181.49l-32.48,1.573l-0.694,608.088c47.526,111.613,112.334,235.244,161.514,347.678
				c79.481,181.701,128.282,479.195,133.589,479.65c35.859,3.09,172.322-38.633,184.298-82.703
				c47.071-173.881,176.758-217.83,319.842-309.342c0.03-27.686,0.96-31.996,1.37-64.904c1.196-95.02-14.821-186.083-28.711-279.633
				c-14.399-96.914-32.216-192.749-57.499-287.338L5353.344,3170.463z"/>
			<path id="_x31_80623441" fill="#A2B1D8" stroke="#000000" d="M7053.557,5516.221c0.041-31.324-60.584-32.426-102.035-57.305
				c-40.443-24.275-64.293-64.932-72.838-52.154c-33.379,49.949-75.02,96.205-135.523,122.73
				c-84.779,37.182-210.193,44.619-257.117,53.695c-71.955,13.91-143.229,44.586-200.607,90.549
				c-58.334,46.795-124.442,128.797-203.342,137.441c-119.828,13.123-94.182-150.184-140.28-219.816
				c-39.624-59.842-109.709-85.791-157.031-137.443c-37.653-41.096-68.651-92.689-66.544-147.518
				c1.935-50.33,44.539-108.621,19.945-157.041c-22.803-44.893-151.404-57.658-193.489-74.496
				c-73.104-29.248-106.25-62.176-173.356-103.434c-53.072,37.418-115.45,65.141-175.835,88.361
				c-54.579,20.982-133.313,34.576-173.58,9.521c-30.857-19.205-38.343,53.84-36.187,72.828
				c12.929,113.406,124.781,147.67,205.863,200.482c124.268,80.932,210.607,200.701,339.248,277.105
				c109.548,65.059,236.16,42.254,348.211,167.547c26.898,30.076,36.76,132.527,70.994,143.426
				c52.515,16.613,83.39-88.879,146.243-84.551c53.321,3.764,86.051,66.352,129.813,86.57
				c101.094,46.715,144.846-160.625,269.419-110.008c54.926,22.316,84.744,120.426,123.857,159.629
				c43.436,43.539,190.822-85.709,236.498-126.084C6970.588,5754.846,7053.379,5676.096,7053.557,5516.221z"/>
			<path id="_x31_80623442" fill="#96A7D3" stroke="#000000" d="M5002.73,4637.18c42.722-63.58,27.406-133.959-22.248-185.943
				c-60.503-63.342-57.148-170.666-70.064-251.707c-17.457-109.553-57.884-218.301-93.24-323.572
				c-45.604-135.771-99.351-250.111-155.678-380.071l1.957,1277.157l0.112,74.477c123.337-21.188,204.782-50.822,252.183-72.512
				C4939.849,4725.461,4974.854,4678.668,5002.73,4637.18z"/>
			<path id="_x31_80623443" fill="#96A7D3" stroke="#000000" d="M5703.644,5713.668c-77.135-22.59-142.755-47.115-181.12-64.771
				c-149.704-68.904-211.902-194.721-296.768-245.096c-171.241-101.645-265.816-107.717-265.565-326.576
				c0.089-80.123-73.327-111.578-72.825-196.066c0-0.418,0.019-0.84,0.023-1.258c0.469-35.713,11.86-70.951,28.365-104.891
				c-47.4,21.689-128.846,51.322-252.183,72.51l1.011,658.77c77.283,4.266,167.686,65.691,233.422,102.113
				c82.759,45.854,162.672,96.59,243.865,145.111c169.844,101.473,197.135,136.496,276.143,220.18
				c-16.325-92.584,47.201-125.566,125.148-158.152c44.501-18.602,139.897-51.551,193.767-62.26
				C5778.595,5744.998,5753.615,5728.311,5703.644,5713.668z"/>
			<path id="_x31_80623437" fill="#E64438" stroke="#000000" d="M5132.573,4238.414c8.157-2.604-4.79,58.059-6.394,120.791
				c-1.143,45.16,17.27,102.861,20.705,112.49c42.344,118.516,86.354,248.406,157.886,352.172
				c17.57,25.479,45.038,79.197,64.446,108.377c6.109,9.201-15.971,18.314-22.943,22.889
				c-50.831,33.311-127.219,67.906-188.236,86.568c-44.527,13.613-105.554,21.395-164.107-28.729
				c-28.189-24.146-53.381-45.795-69.767-79.949c-26.286-54.77,7.311-110.273,31.452-160.934
				c23.118-48.512,49.111-92.324,79.029-136.836c42.746-63.59,21.591-141.697-28.077-193.689
				c-37.173-38.924-44.79-100.805-42.072-152.666C4998.404,4284.52,5080.488,4255.018,5132.573,4238.414z"/>
			<path id="_x31_80623438" fill="#F2483B" stroke="#000000" d="M5132.573,4238.414c8.157-2.604-4.79,58.059-6.394,120.791
				c-1.143,45.16,17.27,102.861,20.705,112.49c42.344,118.516,86.354,248.406,157.886,352.172
				c17.57,25.479,45.038,79.197,64.446,108.377c6.109,9.201-15.971,18.314-22.943,22.889
				c-50.831,33.311-127.219,67.906-188.236,86.568c-44.527,13.613-105.554,21.395-164.107-28.729
				c-28.189-24.146-53.381-45.795-69.767-79.949c-26.286-54.77,7.311-110.273,31.452-160.934
				c23.118-48.512,49.111-92.324,79.029-136.836c42.746-63.59,21.591-141.697-28.077-193.689
				c-37.173-38.924-44.79-100.805-42.072-152.666C4998.404,4284.52,5080.488,4255.018,5132.573,4238.414z"/>
			<path id="_x31_80623516" fill="#CCCCCC" stroke="#000000" d="M4662.758,2398.763c84.057,1.18,166.045-6.975,245.129-24.797
				c27.917-6.3,55.502-13.765,82.668-22.565c45.924-14.609,90.599-32.803,133.941-54.665c47.1-23.607,92.616-51.38,136.228-83.571
				c10.173-7.403,20.18-15.142,30.101-23.044c45.277-36.188,85.733-77.464,124.768-120.408
				c37.539-41.279,66.601-100.979,109.96-135.506c4.585-3.661,9.423-7.07,14.424-10.313c17.925-11.478,38.347-20.368,60.349-27.008
				c24.67-7.47,51.25-12.272,78.246-14.906c60.159-5.93,122.472-1.444,170.948,6.277c45.815,7.218,87.204,19.843,133.095,29.978
				c131.932,29.061,265.851,68.535,395.841,119.919c167.296,65.925,328.071,151.335,469.495,258.968
				c30.799,23.28,60.678,47.806,89.559,73.334c96.625,85.503,173.436,163.237,243.061,252.792
				c45.008,57.868,87.004,120.651,129.41,193.763c31.096,53.438,52.352,117.279,69.443,180.032
				c10.203,37.5,18.994,74.584,27.451,108.835c9.621,38.917,18.568,78.917,26.684,119.666c8.367,41.832,15.82,84.578,22.268,127.74
				c3.969,26.248,7.436,52.578,10.488,79.074c-6.021,21.321,3.768,57.073,8.816,89.319c0,0.25,0.082,0.416,0.08,0.666
				c7.635,97.484,9.023,195.127,2.254,289.094c0.002,0.334,0,0.582-0.086,0.918c-7.684,88.715-21.859,177.592-33.297,265.387
				c0,0,0,0,0.084-0.082c-1.764,11.994-3.689,23.99-5.539,35.982c-7.297,45.482-15.35,90.793-24.563,135.938
				c-5.701,27.738-15.783,105.953-36.014,167.248c-0.17,0.498-0.336,1.002-0.508,1.5c-2.004,5.662-4.094,11.24-6.434,16.734
				c-6.35,15.324-12.947,30.645-23.043,43.713c-1.252,1.502-2.502,2.91-3.672,4.246c-2.418,2.494-4.838,4.742-7.338,6.738
				c-0.918,0.666-1.838,1.416-2.836,1.998c-3.336,2.244-6.752,3.908-10.338,4.902c13.496-71.299,35.236-142.256,50.232-213.885
				c46.58-223.221,63.104-471.801,63.613-699.322c0.299-115.634-14.809-235.122-49.506-345.798
				c-32.291-102.843-52.164-211.169-106.373-306.039c-37.248-65.192-88.66-132.152-133.244-192.685
				c-106.225-144.165-257.641-252.56-402.068-355.114c-160.576-114.069-362.868-176.952-559.061-182.841
				c-48.486-1.388-96.484,11.22-145.227,14.165c-55.738,3.268-111.231,10.701-165.647,22.885
				c-47.918,10.776-94.755,25.303-140.43,42.995c-56.008,21.597-110.189,48.028-162.292,78.126
				c-44.102,25.441-87.709,53.551-128.98,83.329c-57.78,41.758-109.401,84.354-174,115.772
				c-99.949,48.539-203.721,92.408-306.075,135.361c-51.345,21.604-101.36,45.955-150.706,71.312
				c-55.353,28.426-87.454,49.802-151.853,51.728L4662.758,2398.763z"/>
			<path id="_x31_80623517" fill="#CCCCCC" stroke="#000000" d="M5682.56,4706.955c-73.194-57.268-100.749-102.602-135.163-175.107
				c-31.594-66.527-62.467-201.559,9.813-253.678c64.387-46.404,135.041,17.816,173.573,63.873
				c42.279,50.545,48.977,97.459,59.428,161.031c9.457,57.473,72.093,153.338,34.796,210.043
				C5794.205,4759.934,5718.021,4734.693,5682.56,4706.955z"/>
			<path id="_x31_80623518" fill="#CCCCCC" stroke="#000000" d="M7428.539,5537.42c54.594-64.355,121.768-130.162,189.316-190.055
				c15.494-13.76,30.631-28.758,46.283-42.699c20.471-18.217,105.467-92.469,36.934-103.992
				c-81.082-13.637-188.225,53.162-246.99,102.398C7378.959,5365.996,7361.945,5459.598,7428.539,5537.42z"/>
			<path id="_x31_80623515" fill="#AAAAAA" stroke="#000000" d="M5736.207,2280.979c-56.019,21.661-110.204,48.067-162.342,78.172
				c-44.082,25.461-87.656,53.532-128.92,83.316c-57.847,41.752-109.437,84.37-174.064,115.763
				c-99.898,48.518-203.645,92.414-306.063,135.403c70.275,2.827,127.244,70.162,171.822,117.471
				c31.049,32.938,60.392,62.642,84,101.48c29.829,49.076,73.305,85.672,99.338,139.034
				c28.203,57.794,39.529,119.452,56.004,181.027c25.283,94.59,43.098,190.425,57.499,287.338
				c13.89,93.55,29.907,184.615,28.711,279.634c-0.41,32.91,0.149,65.137-4.596,97.518c-12.77,87.455-2.238,180.119,12.926,267.418
				c2.092,12.051,9.141,88.219,26.877,88.133c9.723-0.045,14.449-18.539,15.388-25.613c2.181-16.527-3.811-30.113-4.541-45.98
				c-0.944-20.309,0.172-40.65-1.206-61.02c-2.702-39.984-8.341-79.695-11.783-119.627c-3.596-41.674-4.116-84.119-4.729-126.08
				c-1.015-69.094,7.74-139.482,1.419-208.271c-8.263-89.991-46.206-172.677-54.008-262.767
				c-3.121-36.133-14.908-69.627-17.917-105.111c-3.284-38.63-1.696-77.62-7.256-116.308
				c-12.494-86.952-47.418-170.161-49.381-258.704c-1.136-51.218-3.476-102.296,4.497-153.177
				c7.695-49.118,22.795-95.258,36.971-142.679c34.526-115.55,103.245-205.897,207.449-267.644
				C5635.795,2345.781,5753.518,2326.839,5736.207,2280.979z"/>
		</g>
	</g>
	<g transform="scale(1.0)">
		<g id="_x31_80623432_1_" transform=" scale(1.0, 1.0)">
			<path id="_x31_80623434_1_" fill="#BFDAE3" stroke="#000000" d="M4649.246,2398.791
				c-0.121-105.352-1.494-1309.479-1.693-1481.149c-25.945-280.447-315.064-369.542-549.334-378.252
				c-221.049-8.21-449.1,8.908-666.57,47.123c-251.75,44.224-506.912,70.714-758.151,117.683
				c-188.619,35.261-378.581,74.432-558.453,142.686c-183.879,69.776-354.189,183.323-519.844,288.485
				c-215.09,136.538-367.541,334.217-535.695,521.031c-83.701,92.995-145.594,203.63-216.807,305.84
				c-33.596,48.214-51.848,102.773-74.34,156.334c-30.953,73.696-50.688,140.946-65.334,219.83
				c-18.629,100.378-24.137,194.195-35.313,294.984c-51.541,464.548,67.201,962.073,206.049,1404.717
				c56.363,179.654,119.24,358.068,202.045,527.434c74.75,152.898,168.084,331.879,285.82,456.287
				c54.318,57.385,115.859,107.123,168.738,165.689c141.713,156.943,335.697,285.461,437.943,472.559
				c90.42,165.461,169.086,341.74,313.634,468.66c149.677,131.414,338.961,220.904,526.276,284.836
				c145.229,49.564,275.613,99.75,430.3,56.799c152.311-42.297,288.662-138.352,408.328-238.852
				c55.148-46.314,112.168-91.393,156.621-147.816c55.518-70.461,116.365-142.691,182.666-202.725
				c54.803-49.584,120.861-89.742,183.998-127.461c81.191-48.521,161.105-99.256,243.865-145.111
				c65.736-36.422,156.137-97.846,233.422-102.111L4649.246,2398.791z"/>
			<path id="_x31_80623435_1_" fill="#B0FFB8" stroke="#000000" d="M2006.469,5513.475c56.012-18.75,164.819-24.506,248.497-41.938
				c228.239-47.561,172.001-203.863,118.973-377.811c-41.082-134.771-91.914-238.721-202.477-347.453
				c-73.676-72.451-142.098-157.574-183.356-249.623c-59.16-17.129-80.826-201.141-90.188-247.078
				c-24.207-118.773-40.506-238.918-55.656-359.113c-31.744-251.841,2.201-539.489,62.869-784.553
				c22.697-91.669,47.287-203.515,96.865-288.917c108.09-186.186,213.483-305.722,372.467-446.516
				c264.117-233.895,616.16-377.688,954.949-452.267c45.824-10.087,87.283-22.693,133.039-29.958
				c95.139-15.112,243.873-17.863,324.025,45.943c43.338,34.505,72.4,94.246,109.936,135.539
				c39.008,42.898,79.449,84.186,124.795,120.393c180.928,144.479,396.783,211.855,628.039,208.666
				c-0.119-105.351-1.494-1309.479-1.693-1481.149c-25.951-280.447-315.064-369.542-549.334-378.252
				c-221.049-8.21-449.1,8.908-666.57,47.123c-251.75,44.224-506.912,70.714-758.149,117.683
				c-188.619,35.26-378.581,74.432-558.453,142.686c-183.881,69.776-354.191,183.323-519.846,288.485
				c-215.09,136.538-367.539,334.218-535.693,521.031c-83.703,92.995-145.594,203.63-216.807,305.84
				c-33.596,48.214-51.848,102.773-74.34,156.334c-30.953,73.696-50.689,140.946-65.338,219.829
				c-18.627,100.379-24.135,194.196-35.309,294.984c-51.541,464.549,67.199,962.073,206.049,1404.717
				c56.361,179.656,119.238,358.068,202.045,527.434c74.75,152.9,168.084,331.881,285.82,456.289
				c54.318,57.385,115.857,107.121,168.738,165.688c116.305,128.799,267.818,238.457,374.932,377.068
				C1927.346,5539.947,1973.156,5524.625,2006.469,5513.475z"/>
			<path id="_x31_80623499_1_" fill="#1F9D5A" stroke="#000000" d="M3431.666,586.478c81.045-14.257,163.592-25.515,246.645-33.691
				l0.42,4.831l-3.383,100.31c-87.869,21.346-174.986,44.521-260.609,63.282c-133.262,29.143-259.757,76.693-397.464,81.764
				c-86.309,3.181-173.694,11.28-260.82,24.459l-19.648-134.607C2967.532,652.654,3201.023,627.062,3431.666,586.478z"/>
			<path id="_x31_80623498_1_" fill="#1F9D5A" stroke="#000000" d="M3017.276,802.972c137.707-5.071,264.203-52.621,397.464-81.764
				c85.623-18.76,172.74-41.936,260.609-63.282l-7.496,220.949c-234.707,57.754-403.541,162.501-640.473,238.335
				c-37.894,12.124-180.723,55.029-218.948,66.567c0,0,6.486-0.94,0,0l-51.979-356.346
				C2843.582,814.253,2930.967,806.154,3017.276,802.972z"/>
			<path id="_x31_80623497_1_" fill="#1F9D5A" stroke="#000000" d="M2913.202,1152.499c38.226-11.539,76.285-23.163,114.179-35.287
				c236.932-75.833,405.768-180.581,640.473-238.335l-16.604,491.221c-224.281,63.738-536.618,135.243-783.622,220.003
				l-59.196-406.323C2843.411,1173.324,2878.389,1162.952,2913.202,1152.499z"/>
			<path id="_x31_80623496_1_" fill="#1F9D5A" stroke="#000000" d="M3651.25,1370.096l-12.326,366.167
				c-16.076,3.185-31.568,6.785-45.729,9.967c-74.961,16.748-133.254,36.311-201.299,54.799
				c-160.406,43.588-319.72,94.756-469.601,163.909l-54.667-374.837C3114.632,1505.34,3426.969,1433.837,3651.25,1370.096z"/>
			<path id="_x31_80623495_1_" fill="#1F9D5A" stroke="#000000" d="M3391.898,1801.03c68.043-18.488,126.338-38.051,201.297-54.799
				c14.16-3.182,29.652-6.783,45.729-9.967l-4.674,137.719l-0.824,7.998c-60.156-5.93-122.471-1.443-170.947,6.277
				c-45.816,7.217-87.205,19.844-133.096,29.979c-131.934,29.061-265.852,68.536-395.842,119.92l-0.919-2.332l-10.326-70.886
				C3072.176,1895.785,3231.49,1844.617,3391.898,1801.03z"/>
			<path id="_x31_80623504_1_" fill="#1F9D5A" stroke="#000000" d="M3678.311,552.787c139.863-13.739,281.238-18.569,419.869-13.396
				c234.285,8.73,523.393,97.792,549.371,378.271c0.029,23.994,0.078,68.064,0.148,126.548l-135.076,122.707
				c-9.471-265.834-68.375-562.605-388.633-571.736c-149.383-4.244-300.139,26.67-448.641,62.746l3.383-100.31L3678.311,552.787z"/>
			<path id="_x31_80623503_1_" fill="#1F9D5A" stroke="#000000" d="M4123.99,595.182c320.26,9.131,379.166,305.9,388.633,571.736
				l-199.49,181.179c8.551-171.798,21.633-386.839-82.225-505.104c-115.699-131.667-368.74-5.41-511.168,24.079
				c-17.654,3.684-34.98,7.619-51.887,11.804l7.496-220.949C3823.852,621.851,3974.607,590.937,4123.99,595.182z"/>
			<path id="_x31_80623502_1_" fill="#1F9D5A" stroke="#000000" d="M3719.74,867.07c142.428-29.488,395.469-155.744,511.168-24.079
				c103.859,118.266,90.775,333.306,82.223,505.104l-176.268,160.075c3.348-57.655-2.379-113.049-29.754-155.757
				c-78.035-121.543-291.875-31.157-395.227,0.036c-19.324,5.855-39.643,11.71-60.633,17.648l16.604-491.22
				C3684.76,874.69,3702.086,870.756,3719.74,867.07z"/>
			<path id="_x31_80623501_1_" fill="#1F9D5A" stroke="#000000" d="M3711.883,1352.449c103.354-31.191,317.189-121.58,395.227-0.036
				c27.377,42.708,33.102,98.101,29.752,155.758l-308.1,279.776c-11.682-16.982-25.943-31.377-43.951-41.938
				c-42.1-24.696-96.994-19.301-145.887-9.749l12.326-366.165C3672.242,1364.158,3692.561,1358.304,3711.883,1352.449z"/>
			<path id="_x31_80623500_1_" fill="#1F9D5A" stroke="#000000" d="M3638.922,1736.262c48.895-9.552,103.789-14.946,145.889,9.749
				c18.008,10.56,32.27,24.956,43.951,41.938l-115.93,105.355l-1.162,3.584c-24.668-7.471-51.25-12.273-78.244-14.907l0.822-7.998
				L3638.922,1736.262z"/>
			<path id="_x31_80623482_1_" fill="#188064" stroke="#000000" d="M667.742,2633.42c11.129-100.82,16.607-194.632,35.238-295.043
				c14.654-78.83,34.406-146.085,65.395-219.851c16.119-38.508,30.156-77.596,49.273-114.442l1.586,0.832l115.197,54.271
				c-95.578,200.804-154.143,421.314-155.674,613.43c-0.59,66.731,1.818,134.127,6.977,201.688l-129.311-13.849l-1.002,0.002
				C655.504,2784.227,659.414,2708.411,667.742,2633.42z"/>
			<path id="_x31_80623481_1_" fill="#188064" stroke="#000000" d="M934.434,2059.184l255.07,120.175
				c-79.152,140.971-134.627,297.41-139.203,450.542c-0.799,27.576-1.002,140.796,4.48,273.171l-269.047-28.768
				c-5.156-67.559-7.566-134.955-6.977-201.688C780.289,2480.5,838.854,2259.992,934.434,2059.184z"/>
			<path id="_x31_80623480_1_" fill="#188064" stroke="#000000" d="M1189.504,2179.362l150.205,70.81
				c-83.369,165.552-126.732,348.553-158.684,530.374c-7.697,43.663-13.063,88.573-16.258,134.316l-109.986-11.788
				c-5.482-132.376-5.279-245.596-4.48-273.172C1054.877,2476.77,1110.352,2320.332,1189.504,2179.362z"/>
			<path id="_x31_80623479_1_" fill="#188064" stroke="#000000" d="M1181.02,2780.545
				c31.955-181.822,75.314-364.823,158.682-530.374l353.684,166.633c-28.361,39.606-56.559,81.542-84.832,125.98
				c-74.928,117.97-131.668,259.665-161.83,402.244l-281.957-30.169C1167.963,2869.119,1173.326,2824.208,1181.02,2780.545z"/>
			<path id="_x31_80623478_1_" fill="#188064" stroke="#000000" d="M1608.553,2542.783c28.275-44.437,56.473-86.375,84.832-125.98
				l364.686,171.872c-98.254,120.664-187.166,250.646-276.156,381.546c-2.328,3.418-4.576,6.754-6.738,10.005l-328.451-35.196
				C1476.885,2802.45,1533.625,2660.757,1608.553,2542.783z"/>
			<path id="_x31_80623477_1_" fill="#188064" stroke="#000000" d="M2058.074,2588.676l73.352,34.573
				c-45.004,57.871-87.004,120.654-129.408,193.764c-31.1,53.439-52.354,117.278-69.443,180.03l-157.396-16.815
				c2.162-3.252,4.41-6.587,6.738-10.005C1870.906,2839.322,1959.818,2709.34,2058.074,2588.676z"/>
			<path id="_x31_80623488_1_" fill="#188064" stroke="#000000" d="M842.68,1962.233c71.197-102.222,133.137-212.844,216.84-305.832
				c145.777-161.959,279.633-332.064,452.852-463.395l0.248,0.25l110.537,128.257c-136.441,92.214-266.711,192.836-390.543,310.78
				c-117.006,111.521-219.973,262.514-298.182,426.892l-115.197-54.269l-1.586-0.833
				C825.049,1989.747,833.283,1975.741,842.68,1962.233z"/>
			<path id="_x31_80623487_1_" fill="#188064" stroke="#000000" d="M1232.613,1632.295c123.83-117.944,254.1-218.567,390.541-310.78
				l195.541,226.882c-122.455,82.618-239.154,173.643-347.014,272.489c-99.453,91.09-202.697,216.924-282.18,358.478
				l-255.07-120.177C1012.641,1894.808,1115.607,1743.814,1232.613,1632.295z"/>
			<path id="_x31_80623486_1_" fill="#188064" stroke="#000000" d="M1818.699,1548.396l75.996,88.139
				c-208.02,154.863-397.922,339.53-522.229,553.032c-11.559,19.926-22.531,40.099-32.76,60.604l-150.205-70.808
				c79.484-141.554,182.729-267.388,282.182-358.479C1579.541,1722.039,1696.24,1631.014,1818.699,1548.396z"/>
			<path id="_x31_80623485_1_" fill="#188064" stroke="#000000" d="M1372.467,2189.566
				c124.307-213.502,314.209-398.169,522.229-553.032l269.617,312.775c-174.982,120.833-324.861,263.8-470.923,467.496
				l-353.682-166.634C1349.934,2229.666,1360.906,2209.493,1372.467,2189.566z"/>
			<path id="_x31_80623484_1_" fill="#188064" stroke="#000000" d="M2164.312,1949.31l253.183,293.714
				c-138.1,97.55-254.102,216.233-359.424,345.653l-364.684-171.872C1839.451,2213.11,1989.33,2070.143,2164.312,1949.31z"/>
			<path id="_x31_80623483_1_" fill="#188064" stroke="#000000" d="M2417.493,2243.024l46.55,54.099
				c-30.797,23.28-60.676,47.806-89.558,73.334c-96.625,85.504-173.434,163.238-243.061,252.792l-73.354-34.573
				C2163.393,2459.256,2279.395,2340.573,2417.493,2243.024z"/>
			<path id="_x31_80623494_1_" fill="#188064" stroke="#000000" d="M1595.201,1135.347
				c165.666-105.16,335.992-218.658,519.863-288.434c179.874-68.271,369.777-107.479,558.439-142.684
				c21.073-3.939,42.147-7.796,63.304-11.402l19.648,134.607c-256.303,38.617-510.89,120.554-732.354,247.855
				c-138.871,79.804-272.664,159.353-400.945,246.227l-110.535-128.257l-0.248-0.25
				C1539.008,1172.814,1566.561,1153.538,1595.201,1135.347z"/>
			<path id="_x31_80623493_1_" fill="#188064" stroke="#000000" d="M2024.1,1075.287
				c221.466-127.302,476.051-209.238,732.356-247.854l39.884,273.549c-115.699,16.627-282.488,88.135-319.045,102.42
				c-225.923,88.569-450.566,204.545-658.599,344.995l-195.539-226.882C1751.438,1234.641,1885.229,1155.091,2024.1,1075.287z"/>
			<path id="_x31_80623492_1_" fill="#188064" stroke="#000000" d="M2477.291,1203.402c36.557-14.286,203.346-85.793,319.047-102.42
				l12.091,82.796c-182.553,54.861-366.355,113.639-543.025,213.398c-123.472,69.706-250.098,149.495-370.709,239.36l-75.998-88.14
				C2026.729,1407.947,2251.372,1291.971,2477.291,1203.402z"/>
			<path id="_x31_80623491_1_" fill="#188064" stroke="#000000" d="M2265.403,1397.177
				c176.67-99.76,360.469-158.538,543.025-213.398l59.196,406.322c-73.532,25.245-141.318,51.73-199.271,79.458
				c-193.756,92.862-357.615,178.608-504.044,279.75l-269.617-312.774C2015.307,1546.671,2141.933,1466.881,2265.403,1397.177z"/>
			<path id="_x31_80623490_1_" fill="#188064" stroke="#000000" d="M2668.358,1669.56c57.952-27.729,125.734-54.212,199.271-79.458
				l54.667,374.837c-7.164,3.175-14.157,6.514-21.236,9.854c-133.641,63.468-266.192,133.519-393.321,209.394
				c-31.136,18.614-61.19,38.227-90.243,58.838l-253.183-293.714C2310.739,1848.168,2474.6,1762.42,2668.358,1669.56z"/>
			<path id="_x31_80623489_1_" fill="#188064" stroke="#000000" d="M2507.738,2184.187
				c127.129-75.875,259.681-145.924,393.321-209.394c7.079-3.34,14.072-6.679,21.236-9.854l10.326,70.886l0.919,2.332
				c-167.296,65.924-328.07,151.335-469.495,258.966l-46.551-54.099C2446.547,2222.413,2476.6,2202.8,2507.738,2184.187z"/>
			<path id="_x31_80623476_1_" fill="#188064" stroke="#000000" d="M656.424,2860.455l129.311,13.849
				c11.086,147.031,35.164,294.963,69.902,438.387l-159.111,14.178c-25.834-155.429-41.26-311.868-41.104-466.411L656.424,2860.455z
				"/>
			<path id="_x31_80623475_1_" fill="#188064" stroke="#000000" d="M1093.715,3291.509l-238.078,21.183
				c-34.738-143.422-58.816-291.355-69.902-438.387l269.047,28.769C1060.264,3035.696,1071.602,3187.478,1093.715,3291.509z"/>
			<path id="_x31_80623474_1_" fill="#188064" stroke="#000000" d="M1175.602,3284.164l-81.889,7.342
				c-22.111-104.029-33.449-255.812-38.934-388.435l109.986,11.789C1156.152,3034.337,1161.713,3159.632,1175.602,3284.164z"/>
			<path id="_x31_80623473_1_" fill="#188064" stroke="#000000" d="M1446.723,2945.03c-9.861,46.664-16.971,93.409-20.834,139.485
				c-4.684,55.156-9.609,118.063-13.373,178.552l-236.914,21.098c-13.889-124.535-19.449-249.829-10.836-369.305L1446.723,2945.03z"
				/>
			<path id="_x31_80623472_1_" fill="#188064" stroke="#000000" d="M1425.895,3084.516c3.861-46.075,10.971-92.82,20.832-139.486
				l328.453,35.197c-72.029,107.053-102.527,172.319-111.59,260.472l-251.076,22.367
				C1416.277,3202.579,1421.203,3139.672,1425.895,3084.516z"/>
			<path id="_x31_80623471_1_" fill="#188064" stroke="#000000" d="M1775.174,2980.229l157.395,16.815
				c-10.203,37.501-18.992,74.585-27.451,108.836c-9.617,38.917-18.568,78.916-26.686,119.665l-13.584-2.734l-201.262,17.891
				C1672.652,3152.548,1703.15,3087.281,1775.174,2980.229z"/>
			<path id="_x31_80623470_1_" fill="#009C75" stroke="#000000" d="M915.195,3523.066c11.035,33.979,22.984,67.54,35.689,100.849
				l-182.5,30.618l-3.166,0.836c-26.951-108.272-50.488-218.135-68.693-328.5l159.111-14.178
				C872.879,3384.152,892.873,3454.525,915.195,3523.066z"/>
			<path id="_x31_80623469_1_" fill="#009C75" stroke="#000000" d="M1172.172,3414.552l20.406-3.108
				c8.643,56.476,18.619,112.281,29.432,166.921l-271.125,45.548c-12.705-33.309-24.654-66.869-35.689-100.849
				c-22.324-68.54-42.316-138.914-59.559-210.375l238.078-21.184C1111.809,3376.048,1137.029,3429.088,1172.172,3414.552z"/>
			<path id="_x31_80623468_1_" fill="#009C75" stroke="#000000" d="M1192.578,3411.444l-20.408,3.108
				c-35.141,14.536-60.361-38.505-78.455-123.046l81.887-7.341C1180.313,3326.732,1186.111,3369.213,1192.578,3411.444z"/>
			<path id="_x31_80623467_1_" fill="#009C75" stroke="#000000" d="M1406.832,3392.789c-1.023,55.068-0.803,104.807,3.422,154.038
				l-188.248,31.539c-10.809-54.64-20.789-110.445-29.43-166.921c-6.465-42.231-12.264-84.712-16.975-127.28l236.912-21.098
				C1409.652,3309.225,1407.619,3353.882,1406.832,3392.789z"/>
			<path id="_x31_80623466_1_" fill="#009C75" stroke="#000000" d="M1845.672,3432.36c-1.424-4.997-3.678-9.163-7.012-12.323
				c-8.76-8.322-33.578-2.627-56.232,4.231c-45.887,13.882-83.928,42.251-113.961,79.691l-0.502-0.415l-257.713,43.284
				c-4.223-49.231-4.443-98.969-3.422-154.038c0.789-38.909,2.82-83.564,5.684-129.722l251.072-22.367
				c-4.033,38.745-3.904,81.983-1.346,135.132c3.586,74.477,154.672,39.063,193.926-22.549
				C1852.195,3379.532,1848.729,3405.863,1845.672,3432.36z"/>
			<path id="_x31_80623465_1_" fill="#009C75" stroke="#000000" d="M1864.848,3222.809l13.584,2.734
				c-8.367,41.831-15.818,84.579-22.266,127.74c-39.254,61.612-190.34,97.027-193.926,22.549
				c-2.559-53.148-2.688-96.386,1.346-135.132L1864.848,3222.809z"/>
			<path id="_x31_80623509_1_" fill="#40A666" stroke="#000000" d="M4514.107,1303.795c0.285-43.488,0.146-89.726-1.488-136.878
				l135.076-122.706c0.141,124.801,0.355,315.083,0.588,514.113l-5.584,0.005l-137.561,57.391
				C4509.855,1516.743,4513.414,1420.098,4514.107,1303.795z"/>
			<path id="_x31_80623508_1_" fill="#40A666" stroke="#000000" d="M4309.348,1462.154c-0.121-34.241,1.668-72.899,3.785-114.058
				l199.49-181.179c1.635,47.152,1.773,93.389,1.488,136.877c-0.701,116.302-4.258,212.948-8.973,311.925l-201.184,83.958
				C4306.947,1619.864,4309.602,1540.549,4309.348,1462.154z"/>
			<path id="_x31_80623507_1_" fill="#40A666" stroke="#000000" d="M4106.939,1716.151c7.268-58.494,25.84-134.995,29.924-207.98
				l176.268-160.075c-2.115,41.158-3.906,79.818-3.783,114.058c0.254,78.395-2.4,157.711-5.393,237.525l-205.016,85.628
				C4101.328,1762.144,4104.135,1739.064,4106.939,1716.151z"/>
			<path id="_x31_80623506_1_" fill="#40A666" stroke="#000000" d="M4106.939,1716.151c-2.805,22.913-5.609,45.993-8,69.156
				l-229.41,95.738c-10.369-34.145-22.486-66.708-40.766-93.096l308.1-279.777
				C4132.779,1581.156,4114.207,1657.657,4106.939,1716.151z"/>
			<path id="_x31_80623505_1_" fill="#40A666" stroke="#000000" d="M3828.762,1787.949c18.279,26.388,30.396,58.951,40.768,93.096
				l-95.598,39.931l-1.912,2.917c-17.928-11.478-38.346-20.367-60.35-27.007l1.162-3.584L3828.762,1787.949z"/>
			<path id="_x31_80623514_1_" fill="#40A666" stroke="#000000" d="M4404.111,2373.968c79.084,17.822,161.072,25.977,245.129,24.799
				c-0.064-59.152-0.527-465.46-0.957-840.441l-5.584,0.005l-137.561,57.391c-3.662,77.984-7.986,157.385-12.047,248.947
				c-3.568,81.733,25.916,222.578,5.928,302.661c-23.885,95.837-98.914,126.498-91.422,191.721L4404.111,2373.968z
				 M4445.039,2318.77c21.721-17.272,58.314,1.266,97.082,22.548c29.676,16.296,56.357,36.176,75.033,45.82
				c6.002,2.992,18.756,10.891,18.756,10.891s-10.662,0.346-15.162,0.35c-43.652-0.033-92.893-4.974-136.725-11.674
				C4447.861,2381.248,4411.744,2345.133,4445.039,2318.77z"/>
			<path id="_x31_80623513_1_" fill="#40A666" stroke="#000000" d="M4404.115,2373.966c-27.916-6.3-55.5-13.765-82.668-22.565
				l2.818-8.917c-38.646-210.566-28.316-428.268-20.311-642.804l201.184-83.958c-3.662,77.984-7.986,157.385-12.047,248.947
				c-3.568,81.733,25.916,222.578,5.928,302.661c-23.885,95.837-98.914,126.498-91.422,191.721L4404.115,2373.966z"/>
			<path id="_x31_80623512_1_" fill="#40A666" stroke="#000000" d="M4098.934,1785.309l205.018-85.629
				c-8.004,214.535-18.336,432.24,20.311,642.804l-2.82,8.918c-45.92-14.609-90.598-32.804-133.943-54.666l3.412-6.835
				c-90.184-108.952-98.451-270.317-97.771-406.114C4093.266,1851.046,4095.646,1818.137,4098.934,1785.309z"/>
			<path id="_x31_80623511_1_" fill="#40A666" stroke="#000000" d="M4093.143,1883.787c-0.682,135.797,7.584,297.162,97.77,406.114
				l-3.41,6.835c-47.098-23.607-92.615-51.38-136.225-83.571l0.664-0.917c-41.709-47.108-99.867-126.269-127.914-173.391
				c-25.707-43.293-37.775-102.513-54.498-157.812l229.41-95.738C4095.646,1818.137,4093.266,1851.046,4093.143,1883.787z"/>
			<path id="_x31_80623510_1_" fill="#40A666" stroke="#000000" d="M3924.023,2038.856
				c28.047,47.123,86.205,126.284,127.914,173.391l-0.664,0.917c-10.174-7.401-20.18-15.141-30.102-23.043
				c-45.277-36.188-85.732-77.462-124.768-120.408c-37.539-41.279-66.6-100.979-109.961-135.505
				c-4.586-3.661-9.422-7.069-14.424-10.313l1.912-2.918l95.598-39.931C3886.252,1936.344,3898.32,1995.563,3924.023,2038.856z"/>
			<path id="_x31_80623464_1_" fill="#219866" stroke="#000000" d="M950.885,3623.914c35.844,94.182,77.688,185.943,122.613,276.201
				c9.938,19.982,20.125,39.885,30.396,59.783l-235.125,55.508l-1.914,0.582c-36.377-117.01-71.172-237.77-101.637-360.619
				l3.166-0.837L950.885,3623.914z"/>
			<path id="_x31_80623463_1_" fill="#219866" stroke="#000000" d="M1266.311,3781.01c14.484,61.303,14.021,92.713,25.398,134.604
				l-187.814,44.285c-10.271-19.902-20.459-39.799-30.395-59.781c-44.928-90.258-86.771-182.021-122.615-276.203l271.125-45.548
				C1235.918,3648.332,1250.992,3716.298,1266.311,3781.01z"/>
			<path id="_x31_80623462_1_" fill="#219866" stroke="#000000" d="M1446.033,3723.156c13.627,42.305,26.514,93.361,44.486,145.492
				l-198.811,46.967c-11.379-41.893-10.914-73.303-25.398-134.604c-15.32-64.714-30.395-132.68-44.301-202.646l188.246-31.539
				C1415.318,3603.887,1425.799,3660.194,1446.033,3723.156z"/>
			<path id="_x31_80623461_1_" fill="#219866" stroke="#000000" d="M1668.471,3503.961c-70.299,87.477-96.467,224.385-75.59,340.578
				l-102.361,24.111c-17.973-52.133-30.859-103.189-44.488-145.494c-20.232-62.96-30.713-119.266-35.775-176.327l257.713-43.284
				L1668.471,3503.961z"/>
			<path id="_x31_80623460_1_" fill="#219866" stroke="#000000" d="M868.768,4015.402l235.125-55.506
				c20.873,40.715,42.162,81.178,63.453,121.729c16.029,30.475,31.895,60.865,47.76,91.336
				c10.521,20.234,38.215,52.445,39.908,75.273l0.752,2.244c-45.635,15.633-90.938,31.68-135.91,45.645
				c-111.182,34.703-119.281,89.943-94.127,160.396c-59.137-136.145-107.535-276.883-151.938-418.461
				c-2.336-7.332-4.598-14.658-6.936-22.07L868.768,4015.402z"/>
			<path id="_x31_80623459_1_" fill="#219866" stroke="#000000" d="M1331.141,4012.125
				c38.994,76.352,123.063,156.066,141.822,166.461l1.59,7.83c-73.713,14.996-146.666,39.238-218.785,64.064l-0.752-2.248
				c-1.693-22.824-29.387-55.037-39.908-75.27c-15.863-30.471-31.73-60.865-47.76-91.336
				c-21.291-40.549-42.58-81.016-63.453-121.729l187.814-44.287C1298.486,3940.93,1309.766,3970.078,1331.141,4012.125z"/>
			<path id="_x31_80623458_1_" fill="#219866" stroke="#000000" d="M1474.551,4186.416l-1.59-7.83
				c-18.76-10.395-102.83-90.109-141.822-166.461c-21.375-42.049-32.654-71.197-39.432-96.514l198.811-46.965
				c36.277,105.178,93.389,214.332,219.826,262.426l1.424,6.916l-131.936,26.564l0.014,10.16
				c-11.584-2.402-25.326-0.551-34.742,0.459C1521.529,4177.779,1497.959,4181.641,1474.551,4186.416z"/>
			<path id="_x31_80623457_1_" fill="#219866" stroke="#000000" d="M1490.52,3868.65l102.361-24.111
				c9.057,50.561,26.939,97.111,54.057,134.07c37.883,51.775,215.971,97.893,220.887,99.055c1.768,11.992,3.691,23.988,5.541,35.982
				c-39.412-5.619-84.893,2.014-126.361,18.889l-0.586-1.5l-34.65,6.955l-1.424-6.914
				C1583.906,4082.982,1526.795,3973.826,1490.52,3868.65z"/>
			<path id="_x31_80623436_1_" fill="#9AD2BD" stroke="#000000" d="M1075.807,4565.529
				c74.754,152.908,168.086,331.879,285.82,456.287c54.32,57.385,115.859,107.123,168.74,165.689
				c9.369,10.379,18.973,20.631,28.758,30.785c15.551,16.133,32.789,27,46.979,45.459c11.947,15.545,27.08,27.832,41.758,40.912
				c15.652,13.941,30.789,28.939,46.285,42.699c67.549,59.893,134.723,125.699,189.316,190.055
				c7.451,8.92,14.729,17.959,21.814,27.125c22.049-24.598,67.844-39.893,101.152-51.092c29.104-9.727,72.439-15.963,119.096-22.152
				c36.732-4.869,75.522-9.715,111.054-16.205c6.243-1.143,12.389-2.334,18.4-3.582c228.216-47.582,171.972-203.809,118.952-377.787
				c-9.571-31.402-20.541-62.018-32.996-91.779c-21.819-52.113-48.258-101.623-79.991-147.955
				c-26.117-38.119-55.831-74.109-89.521-107.689c-14.629-14.631-31.787-25.904-50.285-34.748
				c-15.107-7.217-31.102-12.816-47.355-17.293c-0.08-0.021-0.156-0.045-0.234-0.064c-0.084-0.021-0.166-0.045-0.25-0.068
				c-8.293-2.268-16.65-4.246-24.99-6.002c-7.309-1.549-14.67-3.012-22.066-4.422c-45.168-8.582-91.713-15.113-136.592-25.914
				c-17.738-4.262-35.225-9.184-52.256-15.162c-98.195-34.625-186.08-81.303-232.736-171.529
				c-8.646-16.686-15.871-34.855-21.484-54.703c-6.203-21.938-9.859-44.33-10.957-66.768c-1.877-38.275,3.727-76.672,17.025-113.189
				c0.33-0.904,0.689-1.842,1.07-2.801c1.854-4.693,4.23-10.07,6.258-15.658c4.158-11.482,6.799-23.895,0.275-33.285
				c-0.213-0.314-0.434-0.607-0.658-0.9c-0.041-0.049-0.074-0.102-0.115-0.148c-0.166-0.215-0.338-0.418-0.516-0.625
				c-0.188-0.217-0.379-0.432-0.574-0.643c-0.113-0.117-0.223-0.236-0.332-0.35c-3.393-3.449-7.859-5.592-12.838-6.863
				c-0.094-0.021-0.189-0.051-0.285-0.072c-0.348-0.086-0.695-0.16-1.047-0.24c-0.873-0.195-1.762-0.361-2.66-0.506
				c-0.189-0.029-0.377-0.061-0.568-0.088c-0.459-0.068-0.922-0.133-1.385-0.191c-0.299-0.037-0.6-0.072-0.904-0.107
				c-0.326-0.035-0.654-0.066-0.98-0.098c-10.096-0.941-20.982,0.461-28.84,1.338c-33.572,3.746-66.984,9.934-100.232,17.764
				c-2.387,0.563-4.768,1.129-7.148,1.709c-0.77,0.184-1.539,0.377-2.309,0.563c-1.779,0.436-3.561,0.873-5.34,1.316
				c-10.555,2.641-21.094,5.436-31.613,8.359c-0.76,0.209-1.516,0.42-2.27,0.629c-3.111,0.871-6.219,1.752-9.328,2.645
				c-1.676,0.48-3.355,0.965-5.029,1.451c-2.283,0.664-4.566,1.334-6.848,2.006c-2.607,0.771-5.213,1.545-7.816,2.33
				c-1.375,0.414-2.746,0.824-4.123,1.24c-3.664,1.115-7.326,2.24-10.984,3.375c-0.57,0.18-1.145,0.355-1.717,0.531
				c-30.164,9.391-60.182,19.531-90.064,29.801c-1.518,0.523-3.037,1.043-4.553,1.563c-4.166,1.428-8.324,2.861-12.486,4.293
				c-41.424,14.305-82.559,28.648-123.393,41.389c-46.014,14.365-74.379,32.238-90.053,53.244c-1.162,1.559-2.234,3.113-3.246,4.682
				c-0.189,0.295-0.381,0.588-0.566,0.885c-0.219,0.348-0.432,0.701-0.645,1.051c-0.277,0.465-0.551,0.926-0.816,1.393
				c-0.135,0.229-0.273,0.461-0.402,0.689c-0.893,1.588-1.727,3.191-2.494,4.813
				C996.764,4415.268,1036.176,4484.453,1075.807,4565.529z"/>
			<path id="_x31_80623456_1_" fill="#6ACBBA" stroke="#000000" d="M1075.809,4565.529
				c74.752,152.908,168.084,331.879,285.82,456.287c54.32,57.385,115.859,107.123,168.74,165.689
				c9.367,10.379,18.971,20.631,28.756,30.787c4.086,4.24,8.174,8.4,12.346,12.645l14.904-16.549
				c3.102-6.486,10.684-11.387,24.553-13.721c81.082-13.635,188.225,53.162,246.99,102.398
				c75.123,62.928,92.139,156.529,25.543,234.35l0.006-0.006c7.445,8.926,14.723,17.965,21.809,27.133
				c22.049-24.598,67.844-39.895,101.152-51.094c29.104-9.727,72.441-15.961,119.096-22.15
				c-0.15-69.559-32.5-140.625-79.359-191.578c-69.4-75.445-148.043-134.543-237.809-183.762
				c-39.531-21.664-82.072-43.223-129.734-68.436c-66.785-35.328-102.449-107.533-133.957-173.039
				c-22.83-47.459-54.168-95.533-88.039-136.049c-39.549-47.311-103.648-69.506-132.146-126.813
				c-30.209-60.82-36.959-202.422-49.629-273.613c-5.131-28.861-7.547-60.027-14.529-89.094c-1.518,0.521-3.037,1.043-4.553,1.563
				c-4.166,1.426-8.324,2.859-12.486,4.291c-41.424,14.307-82.559,28.65-123.393,41.391c-46.014,14.363-74.379,32.236-90.053,53.244
				c-0.006,0.006-0.012,0.014-0.018,0.021c-1.145,1.537-2.217,3.092-3.229,4.66c-0.189,0.295-0.381,0.586-0.566,0.883
				c-0.219,0.35-0.432,0.703-0.645,1.053c-0.277,0.465-0.551,0.928-0.816,1.393c-0.135,0.23-0.273,0.461-0.402,0.691
				c-0.893,1.586-1.727,3.189-2.494,4.811l0,0c-12.779,26.955-8.514,58.379,4.063,93.604
				c11.703,33.146,30.906,69.697,50.115,108.998c-19.209-39.303-38.412-75.852-50.115-108.998
				c-12.576-35.225-16.842-66.648-4.063-93.604C996.764,4415.268,1036.176,4484.453,1075.809,4565.529z"/>
			<path id="_x31_80623455_1_" fill="#6ACBBA" stroke="#000000" d="M1430.117,4196.549c-10.555,2.643-21.094,5.438-31.613,8.361
				c-0.76,0.209-1.516,0.42-2.271,0.629c-3.109,0.871-6.217,1.752-9.326,2.645c-1.676,0.48-3.355,0.965-5.031,1.451
				c-2.283,0.664-4.564,1.334-6.848,2.008c-2.607,0.771-5.211,1.543-7.816,2.33c-1.375,0.412-2.746,0.822-4.121,1.24
				c-3.666,1.113-7.328,2.236-10.984,3.373c-0.572,0.18-1.145,0.355-1.719,0.531c-30.162,9.391-60.18,19.529-90.063,29.801
				c6.98,29.07,9.396,60.236,14.531,89.094c12.666,71.191,19.418,212.795,49.627,273.613c28.5,57.309,92.598,79.504,132.148,126.813
				c33.869,40.516,65.207,88.592,88.035,136.051c31.51,65.502,67.17,137.711,133.959,173.039
				c47.66,25.211,90.201,46.77,129.734,68.438c89.766,49.215,168.408,108.313,237.809,183.758
				c46.857,50.953,79.209,122.02,79.359,191.578c36.732-4.869,75.522-9.715,111.058-16.205
				c-3.251-72.439-4.673-140.143-25.171-210.41c-16.493-56.549-36.876-123.141-79.024-166.475
				c-62.764-64.322-144.473-131.322-213.336-190.178c-76.697-65.555-162.248-105.018-243.756-163.094
				c-33.068-23.563-74.348-44.301-101.412-74.697c-37.859-42.535-57.307-110.105-75.137-163.219
				c-18.422-54.859-30.203-113.037-44.361-168.832c-7.279-28.688-9.824-59.121-14.135-88.365
				C1437.932,4234.074,1433.08,4214.727,1430.117,4196.549z"/>
			<path id="_x31_80623454_1_" fill="#6ACBBA" stroke="#000000" d="M2373.932,5093.725c-9.573-31.402-20.541-62.018-32.998-91.779
				c-21.821-52.113-48.256-101.621-79.989-147.955c-26.119-38.121-55.833-74.109-89.521-107.689
				c-14.633-14.633-31.789-25.906-50.285-34.75c-15.107-7.215-31.104-12.814-47.357-17.293c-0.08-0.021-0.156-0.045-0.234-0.064
				c-0.084-0.021-0.166-0.043-0.25-0.068c-8.293-2.268-16.652-4.244-24.992-6.002c-7.307-1.549-14.668-3.01-22.063-4.422
				c-45.17-8.582-91.717-15.111-136.594-25.914c-17.738-4.26-35.225-9.184-52.256-15.16
				c-98.195-34.625-186.08-81.305-232.736-171.529c-8.648-16.686-15.871-34.855-21.484-54.705
				c-6.199-21.936-9.859-44.328-10.957-66.766c-1.877-38.275,3.725-76.672,17.025-113.189c0.328-0.904,0.689-1.842,1.07-2.801
				c1.852-4.695,4.23-10.07,6.258-15.66c4.158-11.482,6.799-23.893,0.275-33.285c-0.213-0.311-0.434-0.605-0.658-0.9
				c-0.041-0.049-0.074-0.1-0.113-0.148c-0.168-0.213-0.342-0.416-0.516-0.623c-0.191-0.219-0.383-0.434-0.576-0.643
				c-0.111-0.117-0.221-0.236-0.334-0.35c-3.391-3.449-7.855-5.594-12.834-6.865c-0.098-0.021-0.191-0.049-0.289-0.07
				c-0.346-0.086-0.693-0.162-1.045-0.24c-0.873-0.195-1.762-0.361-2.66-0.506c-0.189-0.031-0.377-0.061-0.568-0.09
				c-0.459-0.068-0.922-0.131-1.385-0.189c-0.299-0.039-0.6-0.074-0.904-0.109c-0.326-0.035-0.654-0.066-0.98-0.098
				c-10.096-0.941-20.98,0.463-28.84,1.338c-33.572,3.746-66.984,9.934-100.232,17.766c-2.387,0.563-4.768,1.127-7.148,1.705
				c-0.77,0.188-1.539,0.379-2.309,0.566c-1.777,0.434-3.561,0.871-5.34,1.314c2.965,18.174,7.818,37.521,10.141,53.273
				c4.313,29.244,6.855,59.68,14.135,88.365c14.16,55.799,25.941,113.973,44.361,168.834
				c17.832,53.109,37.277,120.682,75.137,163.217c27.066,30.4,68.342,51.137,101.414,74.697
				c81.506,58.076,167.057,97.541,243.756,163.094c68.865,58.857,150.57,125.857,213.336,190.178
				c42.148,43.334,62.529,109.928,79.022,166.477c20.498,70.268,21.92,137.967,25.167,210.408
				c6.243-1.141,12.389-2.332,18.399-3.582C2483.197,5423.93,2426.948,5267.703,2373.932,5093.725z"/>
			<path id="_x31_80623453_1_" fill="#7ED04B" stroke="#000000" d="M4484.027,2386.705c43.83,6.7,93.072,11.64,136.725,11.674
				c4.5-0.004,15.162-0.35,15.162-0.35s-12.754-7.899-18.756-10.891c-18.674-9.644-45.357-29.524-75.033-45.821
				c-38.768-21.282-75.359-39.818-97.082-22.548C4411.744,2345.133,4447.861,2381.248,4484.027,2386.705z"/>
			<path id="_x31_80623452_1_" fill="#8ADA87" stroke="#000000" d="M1668.471,3503.958c30.033-37.44,68.074-65.809,113.961-79.69
				c22.654-6.859,47.473-12.553,56.232-4.231c3.334,3.162,5.586,7.324,7.012,12.322c-3.551,29.663-6.516,59.492-8.813,89.32
				c-0.002,0.251-0.082,0.415-0.084,0.665c-0.824,5.501-1.488,10.917-1.979,16.083c-8.063,90.153-8.123,182.792-0.273,273.011
				c0,0.334,0.002,0.582,0.086,0.916c1.861,26.324,4.393,52.395,7.67,78.137c7.902,62.475,16.055,124.945,25.541,187.17
				c-4.916-1.16-183.004-47.277-220.887-99.053c-27.117-36.961-45-83.51-54.057-134.07
				C1572.002,3728.344,1598.172,3591.435,1668.471,3503.958z"/>
			<path id="_x31_80623451_1_" fill="#A0EE9D" stroke="#000000" d="M1747.004,4132.533c41.467-16.875,86.949-24.508,126.361-18.889
				c9.33,73.139,25.238,144.768,38.654,217.398c5.365,28.988,11.977,57.971,21.924,85.787c0.168,0.498,0.334,0.998,0.504,1.5
				c8.109,24.4,17.797,45.969,29.475,60.449c1.252,1.5,2.506,2.912,3.674,4.246c0.5,0.664,1.08,1.332,1.666,1.996
				c1.5,1.582,3.502,3.246,5.67,4.742c0.916,0.666,1.832,1.418,2.836,1.998c6.42,4.24,13.088,7.482,13.088,7.482
				s45.666,84.176,57.27,102.822c12.936,20.813,23.613,33.381,38.879,51.607c-22.658-0.641-39.906-2.621-62.486-5.594
				c-54.912-7.184-109.74-15.703-163.324-29.891c-118.254-31.521-233.063-106.703-252.783-234.729
				c-9.904-63.641,0.26-136.215,43.775-186.168C1675.73,4170.271,1709.779,4147.656,1747.004,4132.533z"/>
			<path id="_x31_80623439_1_" fill="#98D6F9" stroke="#000000" d="M3820.057,3666.091c8.262-89.992,46.207-172.676,54.008-262.766
				c3.121-36.133,14.908-69.626,17.918-105.111c3.283-38.63,1.695-77.62,7.256-116.308c12.492-86.955,47.416-170.161,49.381-258.705
				c1.135-51.22,3.471-102.296-4.498-153.176c-7.693-49.118-22.795-95.26-36.971-142.679
				c-34.525-115.551-103.244-205.9-207.449-267.644c-23.492-13.925-141.219-32.866-123.908-78.725
				c-45.648-17.644-92.504-32.142-140.434-42.934c-54.418-12.241-109.91-19.656-165.586-22.945
				c-48.789-2.88-96.783-15.546-145.234-14.104c-196.207,5.835-398.534,68.785-559.075,182.786
				c-144.448,102.572-295.851,210.943-402.051,355.149c-44.607,60.567-96.019,127.495-133.267,192.681
				c-54.207,94.874-74.068,203.162-106.352,306.068c-34.699,110.613-49.859,230.172-49.566,345.748
				c0.582,227.577,17.061,476.149,63.684,699.325c14.969,71.689,17.146,61.723,31.238,127.586
				c57.773,161.1,182.866,269.721,293.387,394.697c41.704,47.164,80.704,152.643,122.354,144.268
				c68.92-13.871,174.811-34.967,210.99-47.447c166.994-57.6,304.841-131.014,438.501-244.889
				c110.966-94.543,224.681-225.195,327.31-330.838c79.682-82.023,152.563-158.463,236.465-246.113
				c48.428-50.598,143.668-151.145,221.723-151.527C3821.057,3896.338,3813.734,3734.881,3820.057,3666.091z"/>
			<path id="_x31_80623440_1_" fill="#80CDF8" stroke="#000000" d="M3818.426,3977.314c-3.865,47.584-10.26,95.406-13.459,142.76
				c-1.377,20.367-0.264,40.709-1.209,61.02c-0.727,15.867-6.719,29.453-4.541,45.98c0.941,7.074,5.664,25.568,15.389,25.613
				c17.738,0.086,24.785-76.082,26.877-88.135c15.164-87.299,25.695-179.959,12.924-267.416
				c143.088,91.514,243.463,140.734,290.541,314.609c28.334,104.648,7.768,209.611-29.75,314.162
				c-54.852,152.834-138.693,321.525-247.346,443.914c-46.67,52.568-104.42,61.52-170.213,80.098
				c-42.545,12.018-134.5,38.426-157.139,82.768c-24.572,48.318,7.777,110.98,14.539,158.582
				c5.826,41.021-13.725,82.143-33.611,118.313c-23.506,42.738-91.947,61.668-127.58,95.898
				c-43.965,42.225-89.105,102.742-93.078,165.74c-1.938,30.875,3.301,69.414-20.748,93.514
				c-67.479,67.633-178.585-78.547-236.187-124.699c-57.268-45.885-145.972-84.59-217.922-98.502
				c-78.697-15.223-165.219-11.959-240.452-42.604c-55.878-22.76-107.448-59.625-125.126-135.938
				c-19.146-82.68-14.239-164.977-47.606-245.342c-12.207-29.385-31.66-69.885-23.331-102.539
				c11.794-46.141,43.079-40.574,80.386-47.848c163.127-31.811,310.323-114.664,455.507-191.783
				c149.734-79.57,279.222-247.326,397.634-366c85.775-85.975,164.57-166.434,249.637-252.986
				c59.316-60.363,149.289-193.941,246.656-194.32C3819.021,3962.174,3818.508,3976.205,3818.426,3977.314z"/>
			<path id="_x31_80623449_1_" fill="#80CDF8" stroke="#000000" d="M2830.655,6045.711c43.653,30.443,89.771,4.455,108.994-40.639
				c11.705-27.449,12.815-64.955,3.125-96.842c-12.877-42.393-44.845-74.855-96.423-60.525c-7.845,2.174-14.915,5.182-21.273,8.859
				C2759.78,5894.344,2771.407,6004.379,2830.655,6045.711z"/>
			<path id="_x31_80623450_1_" fill="#80CDF8" stroke="#000000" d="M3401.396,5940.721c-12.813,33.719-2.371,99.592,40.314,108.393
				c56.996,11.75,68.563-75.926,48.168-109.197C3467.627,5903.615,3419.207,5893.881,3401.396,5940.721z"/>
			<path id="_x31_80623448_1_" fill="#80CDF8" stroke="#000000" d="M1919.633,5583.697c8.576,10.689,41.301,62.895,48.676,76.379
				c90.422,165.455,169.086,341.732,313.634,468.652c149.677,131.414,338.963,220.904,526.276,284.836
				c145.229,49.564,275.615,99.752,430.3,56.801c152.313-42.297,288.662-138.352,408.328-238.854
				c55.15-46.313,112.17-91.393,156.621-147.814c17.619-23.098,35.855-42.635,47.932-64.701
				c34.539-63.094,8.617-128.373-57.502-149.328c-0.977-0.307-2.033-0.676-3.162-1.088c-10.172,46.477-31.863,98.168-57.156,133.773
				c-38.781,54.584-83.879,101.92-131.705,148.309c-25.025,24.281-51.717,47.996-79.119,69.553
				c-41.094,32.332-84.74,67.744-132.592,88.02c-54.354,23.039-111.943,37.523-169.689,49.242
				c-32.639,6.621-74.492,22.857-107.646,16.621c-33.534-6.311-68.045-21.26-101.668-29.521
				c-62.84-15.441-123.518-33.658-188.379-43.354c-24.323-3.637-58.754-3.447-81.157-10.553
				c-22.647-7.186-22.915-39.33-39.409-57.262c-18.14-19.727-42.567-38.186-67.656-47.641
				c-57.635-21.73-108.514-40.344-161.275-73.893c-46.909-29.836-91.269-66.715-135.183-100.908
				c-91.75-71.445-151.56-172.346-187.924-281.393c-22.654-67.953-46.07-141.863-52.384-215.109
				C1989.396,5533.287,1948.221,5562.111,1919.633,5583.697z"/>
			<path id="_x31_80623447_1_" fill="#80CDF8" stroke="#000000" d="M3733.572,6002.35c25.291-35.602,46.984-87.293,57.156-133.771
				c-13.246-4.857-36.766-16.668-65.645-30.197c-9.531,28.527-23.27,57.391-35.158,83.311c-16.4,35.748-48.227,65.9-73.719,95.131
				c-30.652,35.148-61.768,68.637-96.838,99.541c-54.932,48.404-132.771,75.055-198.998,105.346
				c-49.416,22.6-110.277,31.248-164.12,31.365c-59.676,0.129-97.618-22.295-149.394-45.537c-0.737-0.336-1.476-0.664-2.218-0.996
				c-32.312-14.398-56.267-17.682-90.142-17.877c-43.914-0.256-69.474-29.754-106.028-49.926
				c-34.691-19.145-72.84-44.299-108.901-58.789c-40.707-16.355-80.21-41.75-118.495-63.166
				c-47.164-26.387-88.128-65.266-131.242-97.582c-51.9-38.904-102.499-79.881-145.112-129.041
				c-61.33-70.75-79.892-155.988-106.87-242.348c-4.384-14.035-5.634-29.584-6.286-45.232c-35.935,3.174-66.917,7.221-93.772,11.883
				c6.313,73.246,29.73,147.156,52.384,215.111c36.364,109.043,96.176,209.945,187.924,281.391
				c43.914,34.195,88.273,71.074,135.183,100.91c52.761,33.549,103.641,52.162,161.275,73.893
				c25.091,9.455,49.521,27.914,67.656,47.639c16.496,17.932,16.762,50.076,39.411,57.262c22.403,7.109,56.832,6.918,81.155,10.551
				c64.863,9.697,125.541,27.914,188.381,43.355c33.621,8.26,68.134,23.211,101.668,29.521
				c33.154,6.236,75.007-10.002,107.644-16.623c57.744-11.717,115.336-26.201,169.691-49.24
				c47.852-20.275,91.498-55.688,132.592-88.02c27.4-21.557,54.092-45.273,79.119-69.551
				C3649.701,6104.275,3694.799,6056.938,3733.572,6002.35z"/>
			<path id="_x31_80623446_1_" fill="#80CDF8" stroke="#000000" d="M2197.857,5547.816c26.98,86.359,45.542,171.596,106.87,242.346
				c42.613,49.158,93.21,90.137,145.113,129.041c43.111,32.316,84.077,71.195,131.241,97.582
				c38.285,21.418,77.788,46.813,118.495,63.168c36.062,14.49,74.208,39.645,108.901,58.787
				c36.555,20.172,62.114,49.672,106.028,49.926c33.877,0.195,57.832,3.48,90.142,17.877c0.742,0.336,1.48,0.664,2.218,0.996
				c51.777,23.242,89.722,45.666,149.394,45.537c53.842-0.117,114.706-8.766,164.122-31.365
				c66.225-30.293,144.066-56.941,198.996-105.346c35.072-30.904,66.186-64.393,96.838-99.539
				c25.492-29.232,57.32-59.383,73.719-95.131c11.887-25.922,25.627-54.783,35.158-83.313
				c-84.205-39.451-213.945-93.5-267.277-32.213c-33.389,38.375-37.826,137.986-88.695,158.396
				c-39.041,15.67-57.863-12.895-78.914-38.129c-20.885-25.029-55.119-27.652-85.594-25.697
				c-29.799,1.91-55.592,22.008-81.287,35.295c-25.02,12.941-50.264,36.102-80.639,34.361
				c-39.807-2.275-70.689-34.945-99.912-62.166c9.688,31.887,8.58,69.391-3.127,96.842c-19.224,45.096-65.341,71.082-108.994,40.639
				c-59.244-41.332-70.871-151.367-5.572-189.148c-10.718,3.434-20.99,10.379-30.415,21.971
				c-26.434,32.514-27.084,78.662-53.126,111.746c-83.193,105.629-245.819-52.748-296.607-95.322
				c-89.385-74.928-187.652-169.383-207.872-290.104c-6.124-36.576-6.326-70.811-0.77-105.6c-15.717,0.963-30.593,2.08-44.728,3.328
				C2192.217,5518.23,2193.465,5533.779,2197.857,5547.816z M3401.395,5940.721c17.813-46.84,66.232-37.105,88.484-0.805
				c20.395,33.271,8.828,120.945-48.168,109.197C3399.025,6040.313,3388.582,5974.439,3401.395,5940.721z"/>
			<path id="_x31_80623445_1_" fill="#90CBED" stroke="#000000" d="M3954.889,3158.313c9.49-36.38,20.314-72.221,37.135-106.694
				c26.035-53.361,69.508-89.958,99.34-139.035c23.605-38.836,52.951-68.541,84-101.478
				c44.576-47.309,101.545-114.645,171.822-117.473c51.326,21.552,101.301,45.916,150.715,71.296
				c41.816,21.477,70.322,38.902,109.535,46.993l11.744,2.314c-32.215,95.549-174.963,139.582-253.92,186.829
				c-118.025,70.608-264.18,168.682-406.604,169.397L3954.889,3158.313z"/>
			<path id="_x31_80623444_1_" fill="#90CBED" stroke="#000000" d="M3936.025,3232.646c-25.283,94.589-43.1,190.424-57.5,287.338
				c-13.889,93.55-29.906,184.613-28.711,279.633c0.41,32.908,1.34,37.219,1.371,64.904
				c143.084,91.512,272.77,135.461,319.842,309.342c11.975,44.07,148.438,85.793,184.297,82.703
				c5.307-0.455,54.107-297.949,133.59-479.65c49.18-112.435,113.986-236.065,161.514-347.678l-0.695-608.088l-32.48-1.573
				c-32.217,95.549-173.035,134.242-251.992,181.49c-118.025,70.608-264.18,168.682-406.604,169.397L3936.025,3232.646z"/>
			<path id="_x31_80623441_1_" fill="#A2B1D8" stroke="#000000" d="M2456.117,5856.258
				c45.676,40.375,193.063,169.623,236.499,126.084c39.113-39.203,68.932-137.313,123.856-159.629
				c124.574-50.617,168.326,156.723,269.42,110.008c43.762-20.219,76.491-82.807,129.813-86.57
				c62.854-4.328,93.729,101.164,146.242,84.551c34.234-10.898,44.096-113.35,70.994-143.426
				c112.051-125.293,238.664-102.488,348.211-167.547c128.641-76.404,214.98-196.174,339.248-277.105
				c81.082-52.813,192.936-87.076,205.863-200.482c2.156-18.988-5.328-92.033-36.186-72.828
				c-40.268,25.055-119.002,11.461-173.58-9.521c-60.385-23.221-122.764-50.943-175.836-88.361
				c-67.105,41.258-100.252,74.186-173.355,103.434c-42.086,16.838-170.688,29.604-193.49,74.496
				c-24.594,48.42,18.012,106.711,19.945,157.041c2.107,54.828-28.891,106.422-66.543,147.518
				c-47.322,51.652-117.408,77.602-157.031,137.443c-46.1,69.633-20.453,232.939-140.281,219.816
				c-78.899-8.645-145.007-90.646-203.341-137.441c-57.379-45.963-128.652-76.639-200.607-90.549
				c-46.924-9.076-172.338-16.514-257.118-53.695c-60.503-26.525-102.145-72.781-135.522-122.73
				c-8.545-12.777-32.396,27.879-72.839,52.154c-41.45,24.879-102.076,25.98-102.035,57.305
				C2258.622,5676.096,2341.412,5754.846,2456.117,5856.258z"/>
			<path id="_x31_80623442_1_" fill="#96A7D3" stroke="#000000" d="M4396.248,4775.008c47.4,21.689,128.846,51.324,252.184,72.512
				l0.111-74.477l1.957-1277.157c-56.326,129.959-110.074,244.299-155.678,380.071c-35.355,105.271-75.783,214.02-93.24,323.572
				c-12.916,81.041-9.561,188.365-70.064,251.707c-49.654,51.984-64.969,122.363-22.248,185.943
				C4337.146,4678.668,4372.152,4725.461,4396.248,4775.008z"/>
			<path id="_x31_80623443_1_" fill="#96A7D3" stroke="#000000" d="M3575.074,5753.281c53.869,10.709,149.266,43.658,193.766,62.26
				c77.947,32.586,141.475,65.568,125.148,158.152c79.008-83.684,106.299-118.707,276.143-220.18
				c81.193-48.521,161.107-99.258,243.865-145.111c65.736-36.422,156.139-97.848,233.422-102.113l1.012-658.77
				c-123.338-21.188-204.783-50.82-252.184-72.51c16.506,33.939,27.896,69.178,28.365,104.891c0.006,0.418,0.023,0.84,0.023,1.258
				c0.502,84.488-72.914,115.943-72.824,196.066c0.25,218.859-94.324,224.932-265.566,326.576
				c-84.865,50.375-147.063,176.191-296.768,245.096c-38.365,17.656-103.984,42.182-181.119,64.771
				C3558.385,5728.311,3533.406,5744.998,3575.074,5753.281z"/>
			<path id="_x31_80623437_1_" fill="#E64438" stroke="#000000" d="M4347.506,4288.898c2.717,51.861-4.9,113.742-42.072,152.666
				c-49.668,51.992-70.824,130.1-28.078,193.689c29.918,44.512,55.912,88.324,79.029,136.836
				c24.143,50.66,57.738,106.164,31.453,160.934c-16.387,34.154-41.578,55.803-69.768,79.949
				c-58.553,50.123-119.58,42.342-164.107,28.729c-61.018-18.662-137.404-53.258-188.236-86.568
				c-6.973-4.574-29.053-13.688-22.943-22.889c19.408-29.18,46.877-82.898,64.447-108.377
				c71.531-103.766,115.541-233.656,157.885-352.172c3.436-9.629,21.848-67.33,20.705-112.49
				c-1.604-62.732-14.551-123.395-6.393-120.791C4231.512,4255.018,4313.596,4284.52,4347.506,4288.898z"/>
			<path id="_x31_80623438_1_" fill="#F2483B" stroke="#000000" d="M4347.506,4288.898c2.717,51.861-4.9,113.742-42.072,152.666
				c-49.668,51.992-70.824,130.1-28.078,193.689c29.918,44.512,55.912,88.324,79.029,136.836
				c24.143,50.66,57.738,106.164,31.453,160.934c-16.387,34.154-41.578,55.803-69.768,79.949
				c-58.553,50.123-119.58,42.342-164.107,28.729c-61.018-18.662-137.404-53.258-188.236-86.568
				c-6.973-4.574-29.053-13.688-22.943-22.889c19.408-29.18,46.877-82.898,64.447-108.377
				c71.531-103.766,115.541-233.656,157.885-352.172c3.436-9.629,21.848-67.33,20.705-112.49
				c-1.604-62.732-14.551-123.395-6.393-120.791C4231.512,4255.018,4313.596,4284.52,4347.506,4288.898z"/>
			<path id="_x31_80623516_1_" fill="#CCCCCC" stroke="#000000" d="M4649.736,2816.647c-64.398-1.926-96.5-23.302-151.854-51.728
				c-49.346-25.357-99.361-49.708-150.705-71.312c-102.355-42.954-206.127-86.822-306.076-135.361
				c-64.598-31.418-116.219-74.014-174-115.772c-41.271-29.778-84.879-57.888-128.98-83.329
				c-52.102-30.098-106.283-56.53-162.291-78.126c-45.676-17.692-92.512-32.219-140.43-42.995
				c-54.416-12.185-109.91-19.617-165.648-22.885c-48.742-2.944-96.74-15.553-145.226-14.165
				c-196.192,5.889-398.484,68.772-559.062,182.841c-144.427,102.554-295.843,210.949-402.068,355.114
				c-44.583,60.532-95.996,127.492-133.244,192.685c-54.209,94.869-74.082,203.196-106.373,306.039
				c-34.697,110.677-49.805,230.164-49.506,345.798c0.51,227.521,17.033,476.102,63.613,699.322
				c14.996,71.629,36.736,142.586,50.232,213.885c-3.586-0.994-7.002-2.658-10.338-4.902c-0.998-0.582-1.918-1.332-2.836-1.998
				c-2.5-1.996-4.92-4.244-7.338-6.738c-1.17-1.336-2.42-2.744-3.672-4.246c-10.096-13.068-16.693-28.389-23.043-43.713
				c-2.34-5.494-4.43-11.072-6.434-16.734c-0.172-0.498-0.338-1.002-0.508-1.5c-20.23-61.295-30.313-139.51-36.014-167.248
				c-9.213-45.145-17.266-90.455-24.563-135.938c-1.85-11.992-3.775-23.988-5.539-35.982c0.084,0.082,0.084,0.082,0.084,0.082
				c-11.438-87.795-25.613-176.672-33.297-265.387c-0.086-0.336-0.088-0.584-0.086-0.918c-6.77-93.967-5.381-191.609,2.254-289.094
				c-0.002-0.25,0.08-0.416,0.08-0.666c5.049-32.246,14.838-67.998,8.816-89.319c3.053-26.496,6.52-52.826,10.488-79.074
				c6.447-43.162,13.9-85.909,22.268-127.74c8.115-40.749,17.063-80.748,26.684-119.666c8.457-34.25,17.248-71.335,27.451-108.835
				c17.092-62.753,38.348-126.594,69.443-180.032c42.406-73.111,84.402-135.895,129.41-193.763
				c69.625-89.556,146.435-167.289,243.061-252.792c28.88-25.528,58.759-50.054,89.559-73.334
				c141.423-107.633,302.199-193.043,469.495-258.968c129.99-51.384,263.909-90.858,395.84-119.919
				c45.891-10.135,87.279-22.76,133.096-29.978c48.477-7.721,110.789-12.207,170.947-6.277c26.996,2.634,53.576,7.436,78.246,14.906
				c22.002,6.64,42.424,15.531,60.35,27.008c5,3.243,9.838,6.652,14.424,10.313c43.359,34.527,72.42,94.227,109.959,135.506
				c39.035,42.944,79.49,84.22,124.768,120.408c9.922,7.903,19.928,15.641,30.102,23.044
				c43.611,32.191,89.127,59.964,136.227,83.571c43.344,21.862,88.018,40.055,133.941,54.665
				c27.166,8.8,54.752,16.266,82.668,22.565c79.084,17.822,161.072,25.977,245.129,24.797L4649.736,2816.647z"/>
			<path id="_x31_80623517_1_" fill="#CCCCCC" stroke="#000000" d="M3486.994,4713.117c-37.297-56.705,25.34-152.57,34.797-210.043
				c10.451-63.572,17.148-110.486,59.428-161.031c38.531-46.057,109.186-110.277,173.572-63.873
				c72.279,52.119,41.406,187.15,9.813,253.678c-34.414,72.506-61.969,117.84-135.162,175.107
				C3593.979,4734.693,3517.795,4759.934,3486.994,4713.117z"/>
			<path id="_x31_80623518_1_" fill="#CCCCCC" stroke="#000000" d="M1857.918,5303.072
				c-58.766-49.236-165.908-116.035-246.99-102.398c-68.533,11.523,16.463,85.775,36.934,103.992
				c15.652,13.941,30.789,28.939,46.283,42.699c67.549,59.893,134.723,125.699,189.316,190.055
				C1950.055,5459.598,1933.041,5365.996,1857.918,5303.072z"/>
			<path id="_x31_80623515_1_" fill="#AAAAAA" stroke="#000000" d="M3699.699,2359.705
				c104.205,61.746,172.924,152.093,207.449,267.644c14.176,47.421,29.275,93.561,36.971,142.679
				c7.973,50.88,5.633,101.958,4.498,153.177c-1.963,88.543-36.887,171.752-49.381,258.704
				c-5.561,38.688-3.973,77.678-7.256,116.308c-3.01,35.484-14.797,68.978-17.918,105.111
				c-7.801,90.09-45.744,172.776-54.008,262.767c-6.32,68.789,2.434,139.178,1.42,208.271c-0.613,41.961-1.135,84.406-4.73,126.08
				c-3.441,39.932-9.08,79.643-11.783,119.627c-1.377,20.369-0.262,40.711-1.205,61.02c-0.73,15.867-6.723,29.453-4.541,45.98
				c0.938,7.074,5.664,25.568,15.387,25.613c17.736,0.086,24.785-76.082,26.877-88.133c15.164-87.299,25.695-179.963,12.926-267.418
				c-4.744-32.381-4.186-64.607-4.596-97.518c-1.195-95.019,14.822-186.084,28.711-279.634
				c14.402-96.913,32.217-192.748,57.5-287.338c16.475-61.575,27.801-123.232,56.004-181.027
				c26.033-53.361,69.508-89.958,99.338-139.034c23.607-38.838,52.951-68.542,84-101.48
				c44.578-47.309,101.547-114.645,171.822-117.471c-102.42-42.989-206.166-86.886-306.064-135.403
				c-64.627-31.393-116.217-74.011-174.064-115.763c-41.264-29.784-84.838-57.855-128.92-83.316
				c-52.137-30.104-106.322-56.511-162.342-78.172C3558.482,2326.839,3676.205,2345.781,3699.699,2359.705z"/>
		</g>
	</g>
</g>
</svg>
