<?xml version="1.0" encoding="utf-8"?>
<!-- Generator: Adobe Illustrator 16.0.0, SVG Export Plug-In . SVG Version: 6.00 Build 0)  -->
<!DOCTYPE svg PUBLIC "-//W3C//DTD SVG 1.1//EN" "http://www.w3.org/Graphics/SVG/1.1/DTD/svg11.dtd">
<svg version="1.1" id="Layer_1" xmlns="http://www.w3.org/2000/svg" xmlns:xlink="http://www.w3.org/1999/xlink" x="0px" y="0px"
	 width="6464px" height="5408px" viewBox="0 0 6464 5408" enable-background="new 0 0 6464 5408" xml:space="preserve">
<g>
	<g transform="scale(1.0)">
		<g id="_x31_80610081" transform=" scale(1.0, 1.0)">
			<path id="_x31_80610083" fill="#BFDAE3" stroke="#000000" d="M5720.551,1751.206
				c-122.311-339.96-401.795-625.379-703.762-812.276c-153.264-94.851-326.659-139.785-497.384-188.79
				c-184.509-52.961-379.408-75.336-570.039-45.827c-115.181,17.824-239.506,47.801-319.485,108.626
				c-94.92,72.188-163.095,186.294-220.815,315.606c-59.854,134.089-76.678,227.194-94.971,352.768
				c-16.53,113.467-26.871,255.815-43.398,367.222c-27.433,184.865-55.966,363.284-22.173,548.143
				c17.056,93.334,43.294,170.644,94.052,250.8c47.345,74.766,89.032,170.137,163.866,222.41
				c32.694,22.838,71.014,35.895,105.758,55.063c-73.139,24.213-128.19,69.064-169.527,126.86
				c-132.987,185.919-121.323,518.254-115.913,715.523c6.946,253.285,82.331,481.239,236.553,683.849
				c99.421,130.61,197.306,237.744,369.157,259.136c164.813,20.514,365.196-8.365,517.568-75.979
				c228.07-101.208,447.938-334.039,561.431-554.574c104.854-203.749,285.069-719.642,88.021-907.283l0.764,0.13
				c209.73,43.362,392.211-253.879,491.005-403.401c87.524-132.461,151.106-290.477,171.008-448.025
				C5786.492,2129.323,5786.814,1935.387,5720.551,1751.206z"/>
			<path id="_x31_80610084" fill="#B0FFB8" stroke="#000000" d="M5720.551,1751.206
				c-122.311-339.96-401.795-625.379-703.762-812.276c-153.264-94.851-326.659-139.785-497.384-188.79
				c-184.509-52.961-379.408-75.336-570.039-45.827c-115.181,17.824-239.506,47.801-319.485,108.626
				c-94.92,72.188-163.095,186.294-220.815,315.606c-59.854,134.089-76.678,227.194-94.971,352.768
				c-16.53,113.467-26.871,255.815-43.398,367.222c-27.433,184.865-55.966,363.284-22.173,548.143
				c17.056,93.334,43.294,170.644,94.052,250.8c47.345,74.766,89.032,170.137,163.866,222.41
				c26.324,18.391,56.298,30.438,85.116,44.44c6.972,3.388,13.877,6.892,20.644,10.621c-6.432,2.129-12.707,4.426-18.859,6.869
				c-63.843,25.341-112.961,67.273-150.666,119.991c-132.988,185.919-121.325,518.254-115.914,715.521
				c6.942,253.287,82.329,481.241,236.553,683.849c99.419,130.612,197.303,237.746,369.156,259.136
				c164.811,20.516,365.194-8.363,517.566-75.979c228.072-101.208,447.938-334.037,561.431-554.574
				c103.806-201.708,281.47-709.34,93.826-901.546c-1.897-1.942-3.829-3.853-5.804-5.735l0.761,0.13
				c2.347,0.482,4.689,0.91,7.027,1.313c206.772,35.408,386.294-256.864,483.979-404.715
				c87.522-132.461,151.104-290.476,171.008-448.024C5786.492,2129.323,5786.814,1935.387,5720.551,1751.206z M4277.693,3514.238
				c-3.904,8.887-34.339,44.584-41.271,53.632c-14.554,19.021-23.921,31.558-35.085,52.597
				c-8.397,15.839-17.567,39.498-31.992,55.699c-14.527,16.334-38.508,27.603-54.673,33c-22.772,7.595-42.851-3.295-65.199-37.659
				c-15.91-24.605-3.488-48.442,14.83-68.506c33.559-36.715,99.751-97.591,151.481-106.655
				C4246.776,3490.915,4290.492,3485.099,4277.693,3514.238z"/>
			<path id="_x31_80610114" fill="#1F9D5A" stroke="#000000" d="M5599.111,2160.29l174.28,48.311
				c-2.565,37.548-6.451,75.095-11.16,112.562c-19.84,157.613-83.419,315.634-171.002,448.068l-114.687-104.911
				c27.246-61.642,48.635-126.006,66.719-187.646c10.573-35.896,19.164-70.307,25.937-101.995
				C5584.227,2304.208,5594.227,2232.333,5599.111,2160.29z"/>
			<path id="_x31_80610113" fill="#1F9D5A" stroke="#000000" d="M5134.361,2031.376l464.75,128.914
				c-4.885,72.043-14.885,143.918-29.915,214.391c-6.776,31.686-15.365,66.098-25.937,101.994
				c-18.084,61.642-39.471,126.006-66.719,187.645l-368.313-336.851C5142.906,2241.978,5145.071,2129.004,5134.361,2031.376z"/>
			<path id="_x31_80610112" fill="#1F9D5A" stroke="#000000" d="M5134.361,2031.376c10.71,97.628,8.545,210.603-26.133,296.091
				l-358.087-327.525c30.285,5.945,51.083-0.65,55.46-32.092c1.159-8.171,0.25-17.741-2.552-28.388L5134.361,2031.376z"/>
			<path id="_x31_80610111" fill="#1F9D5A" stroke="#000000" d="M4803.05,1939.463c2.802,10.646,3.711,20.216,2.552,28.388
				c-4.377,31.44-25.175,38.037-55.46,32.092l-117.823-107.801L4803.05,1939.463z"/>
			<path id="_x31_80610118" fill="#1F9D5A" stroke="#000000" d="M5720.59,1751.245c53.276,148.144,63.479,302.627,52.802,457.358
				l-174.28-48.311c2.564-38.291,3.728-76.498,3.326-114.706c-1.293-137.897-65.142-261.945-117.107-386.485
				c-51.473-123.465-123.902-258.571-222.99-351.348c-129.207-121.088-258.509-187.132-385.01-247.648
				c-222.873-106.667-376.854-159.675-629.947-184.484c-168.592-16.538-297.989-17.635-448.695,71.789
				c-60.496,35.885-114.809,88.028-161.035,147.767l-134.65-138.831c30.132-45.383,62.814-83.008,102.108-118.649
				c84.685-76.814,202.534-111.447,344.231-133.37c190.636-29.505,385.554-7.103,570.065,45.833
				c170.732,48.971,344.104,93.898,497.413,188.75C5318.742,1125.8,5598.271,1411.222,5720.59,1751.245z"/>
			<path id="_x31_80610117" fill="#1F9D5A" stroke="#000000" d="M5602.438,2045.583c0.404,38.208-0.76,76.416-3.326,114.707
				l-464.75-128.914c-4.281-39.197-10.631-76.006-17.881-107.531c-16.655-72.87-65.406-181.069-104.512-244.784
				c-106.668-173.901-294.299-308.204-495.063-387.963c-143.91-57.216-326.44-109.082-484.732-62.403
				c-63.215,18.636-114.058,60.878-155.001,113.275l-239.518-246.795c46.225-59.739,100.539-111.88,161.034-147.767
				c150.707-89.424,280.109-88.323,448.698-71.787c253.093,24.807,407.072,77.815,629.945,184.481
				c126.497,60.516,255.801,126.562,385.008,247.648c99.088,92.776,171.517,227.882,222.992,351.348
				C5537.296,1783.639,5601.145,1907.687,5602.438,2045.583z"/>
			<path id="_x31_80610116" fill="#1F9D5A" stroke="#000000" d="M5134.361,2031.376l-331.312-91.914
				c-16.737-65.859-102.625-171.671-192.727-235.729c-105.862-75.286-209.011-110.128-324.54-115.599
				c-47.04-2.237-95.482,10.048-134.113,36.696l-274.496-282.861c40.946-52.396,91.79-94.64,155.003-113.274
				c158.29-46.679,340.82,5.184,484.729,62.4c200.763,79.761,388.395,214.064,495.064,387.963
				c39.104,63.715,87.856,171.913,104.51,244.784C5123.732,1955.37,5130.082,1992.179,5134.361,2031.376z"/>
			<path id="_x31_80610115" fill="#1F9D5A" stroke="#000000" d="M4273.947,1750.787l-122.277-125.956
				c38.629-26.647,87.071-38.933,134.113-36.696c115.531,5.471,218.68,40.315,324.54,115.598
				c90.105,64.055,175.988,169.869,192.725,235.729l-170.729-47.322c0,0-34.158-29.221-94.313-60.92
				c-60.07-31.784-146.137-65.967-249.783-76.057l-8.009,2.063L4273.947,1750.787z"/>
			<path id="_x31_80610122" fill="#2FA850" stroke="#000000" d="M3503.006,956.344l134.649,138.83
				c-56.952,73.683-101.698,158.92-130.35,239.457c-23.785,66.591-45.417,136.317-64.249,207.781l-131.123-33.614
				c3.06-25.829,5.869-49.762,8.351-70.805c16.534-140.288,55.173-228.085,107.352-342.451
				C3452.566,1040.917,3476.838,995.7,3503.006,956.344z"/>
			<path id="_x31_80610121" fill="#2FA850" stroke="#000000" d="M3637.655,1095.175l239.519,246.797
				c-46.723,59.655-80.656,132.265-105.423,198.033c-9.252,24.508-19.071,51.162-28.903,79.383l-299.791-76.973
				c18.828-71.464,40.461-141.191,64.246-207.783C3535.957,1254.097,3580.701,1168.856,3637.655,1095.175z"/>
			<path id="_x31_80610120" fill="#2FA850" stroke="#000000" d="M3877.174,1341.971l274.496,282.861
				c-22.28,15.346-41.351,35.395-55.055,60.231c-4.211,7.673-7.758,15.017-10.733,22.279l-343.032-87.958
				c9.825-28.221,19.649-54.875,28.9-79.383C3796.518,1474.235,3830.451,1401.626,3877.174,1341.971z"/>
			<path id="_x31_80610119" fill="#2FA850" stroke="#000000" d="M4151.67,1624.832l122.275,125.956l-4.375,3.714l-183.687-47.159
				c2.978-7.264,6.522-14.605,10.733-22.279C4110.319,1660.227,4129.39,1640.178,4151.67,1624.832z"/>
			<path id="_x31_80610106" fill="#248A5E" stroke="#000000" d="M5103.061,2982.949l81.74,189.491
				c-27.564,5.606-55.785,6.094-84.587,0.149l-2.229-1.569c0,0-160.15-139.909-242.497-195.135
				c-77.644-52.003-183.588-119.694-268.169-150.66c-105.541-38.64-203.816-86.854-304.986-95.872l0.493-5.196l-0.851-298.734
				c67.756-7.494,143.348,15.626,187.321,58.548c22.272,21.791,39.106,48.613,58.495,72.796
				c26.151,32.602,50.903,66.031,77.877,97.89C4712.269,2780.44,4911.606,2974.904,5103.061,2982.949z"/>
			<path id="_x31_80610105" fill="#248A5E" stroke="#000000" d="M4863.028,2426.857l240.03,556.092
				c-191.45-8.045-390.791-202.511-497.387-328.297c-26.975-31.857-51.728-65.285-77.881-97.887
				c-19.387-24.185-36.217-51.009-58.492-72.798c-43.976-42.921-119.564-66.044-187.319-58.548l-0.684-283.881
				c103.158-6.25,190.46,13.902,298.717,101.318C4647.173,2297.086,4758.48,2386.813,4863.028,2426.857z"/>
			<path id="_x31_80610104" fill="#248A5E" stroke="#000000" d="M4665.561,1969.226l197.468,457.631
				c-104.548-40.042-215.854-129.771-283.016-184.001c-108.257-87.416-195.559-107.567-298.719-101.317l-0.691-246.499
				c6.269-0.328,12.626-0.905,18.897-1.563c74.271-8.235,156.134,11.172,209.029,19.27
				C4558.207,1920.351,4614.976,1947.016,4665.561,1969.226z"/>
			<path id="_x31_80610103" fill="#248A5E" stroke="#000000" d="M4632.32,1892.141l33.24,77.085
				c-50.585-22.209-107.354-48.875-157.032-56.48c-52.895-8.097-134.757-27.504-209.028-19.27
				c-6.271,0.66-12.629,1.237-18.897,1.564l-0.389-137.815l8.009-2.062c103.646,10.089,189.713,44.27,249.783,76.056
				C4598.16,1862.918,4632.32,1892.141,4632.32,1892.141z"/>
			<path id="_x31_80610126" fill="#248A5E" stroke="#000000" d="M3311.934,1508.8l131.125,33.613
				c-55.749,211.581-86.985,438.843-75.893,648.787c4.442,83.101,5.321,219.183,40.376,312.44l-97.974,85.146
				c-30.025-60.246-48.168-121.649-61.024-192.127c-33.801-184.861-9.346-319.616,15.943-504.796
				C3279.694,1780.376,3298.212,1625.154,3311.934,1508.8z"/>
			<path id="_x31_80610125" fill="#248A5E" stroke="#000000" d="M3443.057,1542.412l299.795,76.972
				c-24.606,70.388-49.38,150.43-66.066,230.558c-19.742,94.239-28.264,188.562-12.35,267.374
				c10.883,54.223,38.441,83.688,75.408,97.559l-332.3,288.767c-35.053-93.26-35.934-229.341-40.378-312.441
				C3356.073,1981.257,3387.31,1753.994,3443.057,1542.412z"/>
			<path id="_x31_80610124" fill="#248A5E" stroke="#000000" d="M4139.987,1867.12l-400.144,347.756
				c-36.967-13.872-64.525-43.337-75.41-97.559c-15.911-78.812-7.388-173.136,12.352-267.374
				c16.685-80.128,41.46-160.171,66.066-230.556l343.036,87.958c-18.003,42.91-15.617,78.062-0.104,105.793
				C4098.731,1836.328,4117.464,1854.075,4139.987,1867.12z"/>
			<path id="_x31_80610123" fill="#248A5E" stroke="#000000" d="M4269.57,1754.501l-129.583,112.62
				c-22.523-13.046-41.259-30.791-54.207-53.983c-15.512-27.731-17.898-62.884,0.104-105.794L4269.57,1754.501z"/>
			<path id="_x31_80610102" fill="#248A5E" stroke="#000000" d="M4281.979,2425.42l0.848,298.737l-0.495,5.192
				c-61.895-5.451-124.856,3.693-191.298,38.585c-57.855,30.522-110.764,70.702-174.312,90.825
				c-32.102,10.224-65.771,13.022-98.041,22.341c-33.178,9.647-55.209,17.979-88.963,25.811
				c-32.518,7.592-80.383,9.724-114.139,18.214l-3.381-0.164c-34.74-19.153-73.111-32.2-105.783-55.065
				c-74.842-52.25-116.497-147.655-163.854-222.429c-12.372-19.646-23.343-39.121-32.997-58.682l97.973-85.146
				c8.825,23.523,19.798,44.319,33.575,60.827c106.346,127.933,296.983,102.555,454.77,94.829
				c142.355-6.903,193.116-47.001,265.925-164.994C4187.734,2452.385,4232.794,2430.776,4281.979,2425.42z"/>
			<path id="_x31_80610101" fill="#248A5E" stroke="#000000" d="M4281.294,2141.539l0.684,283.882
				c-49.186,5.355-94.243,26.966-120.166,68.883c-72.813,117.995-123.569,158.09-265.927,164.994
				c-157.782,7.727-348.419,33.104-454.768-94.829c-13.777-16.507-24.752-37.308-33.573-60.827l332.299-288.765
				c91.347,34.101,240.149-27.017,336.786-43.67C4155.198,2157.688,4220.972,2145.075,4281.294,2141.539z"/>
			<path id="_x31_80610100" fill="#248A5E" stroke="#000000" d="M4280.603,1895.04l0.691,246.499
				c-60.323,3.535-126.096,16.149-204.664,29.666c-96.636,16.652-245.442,77.769-336.786,43.669l400.144-347.756
				C4179.349,1889.822,4230.017,1898,4280.603,1895.04z"/>
			<path id="_x31_80610099" fill="#248A5E" stroke="#000000" d="M4280.214,1757.225l0.389,137.815
				c-50.586,2.96-101.256-5.219-140.615-27.921l129.583-112.62L4280.214,1757.225z"/>
			<path id="_x31_80610110" fill="#219866" stroke="#000000" d="M5476.543,2664.321l114.687,104.911
				c-85.189,129.047-232.79,368.006-406.429,403.209l-81.742-189.491c51.003,2.238,101.508-8.812,149.46-37.931
				C5357.334,2881.414,5426.758,2777.199,5476.543,2664.321z"/>
			<path id="_x31_80610109" fill="#219866" stroke="#000000" d="M5108.23,2327.466l368.313,336.854
				c-49.785,112.878-119.209,217.091-224.025,280.696c-47.951,29.121-98.456,40.169-149.459,37.931l-240.03-556.091
				c69.393,26.586,135.829,31.304,184.524-10.607C5074.214,2393.313,5094.025,2362.702,5108.23,2327.466z"/>
			<path id="_x31_80610108" fill="#219866" stroke="#000000" d="M4750.142,1999.941l358.089,327.526
				c-14.205,35.235-34.017,65.847-60.676,88.783c-48.695,41.913-115.132,37.194-184.526,10.607l-197.466-457.631
				C4697.328,1983.178,4726.622,1995.313,4750.142,1999.941z"/>
			<path id="_x31_80610107" fill="#219866" stroke="#000000" d="M4632.32,1892.141l117.821,107.801
				c-23.52-4.628-52.812-16.761-84.579-30.716L4632.32,1892.141z"/>
			<path id="_x31_80610085" fill="#9AD2BD" stroke="#000000" d="M5097.982,3171.035c0,0-160.115-139.965-242.515-195.152
				c-77.65-52.03-183.588-119.698-268.165-150.659c-170.027-62.242-321.224-149.389-496.255-57.258
				c-57.858,30.453-110.763,70.639-174.284,90.79c-32.126,10.188-65.834,13.004-98.099,22.355
				c-33.142,9.605-55.188,17.943-88.931,25.787c-32.566,7.574-80.402,9.726-114.163,18.187l-26.054-11.737
				c7.663,3.693,15.255,7.516,22.682,11.609c-73.139,24.21-128.19,69.063-169.527,126.86
				c-132.986,185.919-121.324,518.254-115.915,715.521c6.948,253.288,82.329,481.242,236.552,683.85
				c99.423,130.61,197.309,237.744,369.159,259.136c164.809,20.516,365.195-8.365,517.569-75.977
				c228.07-101.21,447.936-334.039,561.429-554.576C5116.588,3875.498,5297.48,3357.461,5097.982,3171.035z M4277.693,3514.238
				c-3.904,8.887-34.339,44.584-41.271,53.632c-14.554,19.021-23.921,31.558-35.085,52.597
				c-8.397,15.839-17.567,39.498-31.992,55.699c-14.527,16.334-38.508,27.603-54.673,33c-22.772,7.595-42.851-3.295-65.199-37.659
				c-15.91-24.605-3.488-48.442,14.83-68.506c33.559-36.715,99.751-97.591,151.481-106.655
				C4246.776,3490.915,4290.492,3485.099,4277.693,3514.238z"/>
			<path id="_x31_80610086" fill="#9AD2BD" stroke="#000000" d="M3680.158,4516.294c-25.375-30.953-46.658-64.597-65.329-99.839
				c114.027-57.102,273.493-44.071,293.929-202.924c5.74-44.609-0.675-89.242,7.242-134.011
				c25.113-141.963,98.581-311.491,41.884-452.403c-44.054-109.505-81.092-221.892-107.883-336.912
				c-24.437-104.944-60.256-183.901-126.478-272.087c-86.661-115.415-185.278-85.354-264.402,12.089
				c-6.212,7.323-12.059,15.005-17.562,22.979c-1.69,2.449-3.362,4.935-5.017,7.438c-0.017,0.017-0.024,0.028-0.033,0.044
				c-0.349,0.525-0.691,1.048-1.034,1.579c-83.571,124.853-106.567,305.667-111.031,469.727
				c-1.297,37.658-1.249,75.46-0.609,113.228c0.517,39.873,1.618,77.396,2.547,111.263c0.49,17.952,1.307,35.895,2.444,53.814
				c13.547,237.13,88.874,451.577,234.829,643.322c47.631,62.572,97.95,124.521,160.524,172.863
				c30.813,23.795,64.23,43.112,99.991,58.503c37.754,16.26,77.212,16.534,117.067,24.44
				C3845.577,4657.127,3750.296,4601.841,3680.158,4516.294z"/>
			<path id="_x31_80610091" fill="#82C7AE" stroke="#000000" d="M3441.56,3053.188c13.828-20.052,29.82-38.273,48.422-53.536
				c16.586-13.601,35.176-38.619,58.294-39.1c3.381,25.478-28.113,48.397-42.819,65.034c-21.872,24.746-32.756,55.847-45.013,86.296
				c-23.771,59.018-38.934,121.199-46.389,184.349c-18.787,159.039-5.852,323.68,1.318,483.263
				c5.954,132.4,40.424,246.485,89.221,368.817c49.897,125.088,88.858,262.225,175.566,367.983
				c70.138,85.543,165.417,140.833,261.08,193.12c-39.858-7.906-79.313-8.185-117.064-24.438
				c-35.764-15.398-69.182-34.711-99.994-58.505c-62.574-48.344-112.889-110.295-160.524-172.863
				c-154.223-202.613-229.606-430.565-236.552-683.854c-2.797-102.021-7.381-205.633,1.465-307.438
				c7.787-89.643,18.286-178.178,43.968-264.492C3387.036,3149.104,3411.563,3096.665,3441.56,3053.188z"/>
			<path id="_x31_80610087" fill="#82C7AE" stroke="#000000" d="M3635.639,3727.374c-5.511-59.425-9.893-118.962-13.806-178.382
				c-7.899-119.938-20.593-234.729-0.16-353.887c10.98-64.073,15.711-129.898,29.133-193.44
				c14.536-68.807,49.619-15.498,73.076,15.771c66.213,88.184,102.04,167.135,126.477,272.086
				c26.788,115.014,63.83,227.407,107.88,336.91c56.701,140.915-16.768,310.442-41.886,452.406
				c-7.916,44.767-1.501,89.394-7.241,134.011c-4.191,32.645-14.556,67.072-37.74,91.243
				c-58.216,60.695-94.264-11.96-123.371-63.447c-56.894-100.638-78.305-236.992-93.865-350.084
				C3646.686,3836.384,3640.683,3781.932,3635.639,3727.374z"/>
			<path id="_x31_80610089" fill="#9AD2BD" stroke="#000000" d="M3733.176,4304.706c-1.833-29.995-14.342-68.588-16.432-79.036
				c-14.419-71.983-43.435-139.427-62.157-210.041c-29.124-109.92-38.711-221.566-47.762-334.559
				c-3.554-44.369-6.387-88.788-8.806-133.229c-6.143-112.656-18.903-227.379-7.668-340.76c7.181-72.4,25.189-143.21,32.938-215.536
				c0.599-5.599,9.433-30.761,17.066-31.95c8.929-1.393,16.804,21.709,16.804,21.709c-2.396,5.064-4.533,11.761-6.352,20.36
				c-13.42,63.543-18.15,129.364-29.131,193.44c-20.433,119.155-7.737,233.95,0.156,353.885
				c3.917,59.42,8.297,118.961,13.806,178.384c5.049,54.56,11.049,109.012,18.498,163.186
				c15.557,113.096,36.972,249.448,93.869,350.086c8.827,15.612,18.291,33.179,28.826,48.377
				c3.521,5.091-3.056,37.782-14.707,42.759C3750.472,4336.753,3733.744,4314.012,3733.176,4304.706z"/>
			<path id="_x31_80610088" fill="#82C7AE" stroke="#000000" d="M3598.018,3547.842c-6.143-112.655-18.903-227.378-7.668-340.758
				c7.181-72.402,25.189-143.212,32.938-215.538c1.299-12.146,3.113-31.09-6.809-41.094c-20.325-20.484-20.442,12.396-18.567,26.171
				c10.461,76.836-27.961,144.981-35.126,219.412c-6.747,70.161-1.938,139.423-10.52,209.155
				c-5.345,43.411,5.877,80.297,10.831,122.315c7.473,63.281,11.908,129.658,11.854,193.378
				c-0.047,62.483,8.81,122.717,19.481,184.073c7.736,44.47,16.938,90.884,27.995,135.509
				c11.308,45.654,28.018,86.711,43.936,130.627c13.691,37.79,33.503,75.833,36.99,116.466c0.938,10.823-5.631,59.998,15.877,54.275
				c31.638-8.426,0.905-99.238-2.484-116.164c-14.419-71.985-43.435-139.428-62.159-210.045
				c-29.125-109.92-38.711-221.566-47.758-334.56C3603.273,3636.699,3600.437,3592.28,3598.018,3547.842z"/>
			<path id="_x31_80610090" fill="#9AD2BD" stroke="#000000" d="M3703.576,4320.906c-1.164-12.931,0.243-27.931-0.222-33.344
				c-3.489-40.635-23.299-78.676-36.994-116.466c-15.914-43.916-32.625-84.973-43.933-130.629
				c-11.058-44.625-20.259-91.039-27.997-135.51c-10.672-61.355-19.529-121.588-19.481-184.068
				c0.051-63.723-4.382-130.101-11.855-193.378c-4.955-42.024-16.175-78.908-10.832-122.319
				c8.58-69.73,3.769-138.992,10.523-209.154c7.159-74.432,45.585-142.577,35.124-219.412c-0.425-3.116-0.746-7.214-0.755-11.447
				c-0.016-5.645-2.885-8.624-7.615-10.054c-4.728-1.43-44.139,24.066-47.247,29.339c-9.34,15.806-26.916,29.895-36.837,41.128
				c-21.871,24.744-32.755,55.843-45.013,86.294c-23.769,59.016-38.933,121.199-46.388,184.347
				c-18.787,159.041-5.855,323.682,1.315,483.265c5.955,132.398,40.427,246.483,89.221,368.817
				c29.994,75.189,56.036,154.732,90.87,229.196c2.666,5.703,47.137,16.219,73.644,2.258
				C3695.611,4365.809,3704.156,4327.37,3703.576,4320.906z"/>
			<path id="_x31_80610092" fill="#54BF94" stroke="#000000" d="M5185.514,3383.705c-5.474-69.864-31.662-163.685-85.309-209.497
				c-44.166-37.716-89.354-80.482-135.283-115.957c-26.8-20.693-54.146-40.657-81.243-60.965
				c-26.333-19.738-53.556-37.195-80.873-55.507c-15.765-10.579-31.665-20.968-47.701-31.147
				c-52.879-33.547-108.844-63.823-167.808-85.403c-170.024-62.241-321.226-149.389-496.257-57.263
				c-57.858,30.457-110.766,70.646-174.284,90.795c-32.128,10.185-65.833,13.002-98.1,22.352
				c-33.143,9.607-55.189,17.936-88.929,25.789c-23.004,5.354-47.513,8.04-71.053,10.438c-9.063,0.925-17.98,2.822-26.908,4.069
				c-6.885,0.968-14.265,4.149-21.192,4.722c16.06-0.643,32.891,0.123,48.598,3.152c109.301,21.083,172.299,181.641,207.088,273.556
				c34.129,90.16,43.683,186.176,79.146,275.661c35.449,89.415,71.443,184.306,68.177,282.087
				c-3.933,117.537-57.031,225.703-68.916,341.254c-12.891,125.384-9.378,250.829-150.447,289.201
				c-37.98,10.334-77.758,21.336-115.604,32.319c-18.732,5.43-33.872,12.58-48.399,20.703c14.827,25.239,31.274,49.466,49.938,72.23
				c70.136,85.545,165.417,140.831,261.082,193.118c-23.73-4.703-47.316-6.71-70.487-10.989c11.876,3.253,23.966,5.956,36.278,8.026
				c26.752,4.515,49.768,8.023,76.891,8.892c175.693,5.622,304.464-9.677,464.78-80.812
				c228.074-101.205,451.341-334.042,561.434-554.574c34.874-69.863,67.488-141.036,92.312-215.102
				C5152.565,3715.258,5197.966,3542.572,5185.514,3383.705z M4277.693,3514.238c-3.904,8.887-34.339,44.584-41.271,53.632
				c-14.554,19.021-23.921,31.558-35.085,52.597c-8.397,15.839-17.567,39.498-31.992,55.699c-14.527,16.334-38.508,27.603-54.673,33
				c-22.772,7.595-42.851-3.295-65.199-37.659c-15.91-24.605-3.488-48.442,14.83-68.506
				c33.559-36.715,99.751-97.591,151.481-106.655C4246.776,3490.915,4290.492,3485.099,4277.693,3514.238z"/>
			<path id="_x31_80610095" fill="#54BF94" stroke="#000000" d="M4834.246,3163.045c-42.199,41.944-96.079,77.255-140.938,118.379
				c-50.59,46.39-127.401,116.006-195.397,131.184l-6.539,3.381c-0.419-1.651-0.979-3.291-1.696-4.913
				c-14.178-31.992-67.149-20.217-94.194-18.671c-19.084,1.087-41.568,3.058-65.321,6.569l-1.417-7.027
				c-32.192-121.204-66.511-276.406-61.809-402.313l3.641-5.568c199.413-9.665,434.821,31.097,568.895,174.382L4834.246,3163.045z"
				/>
			<path id="_x31_80610097" fill="#54BF94" stroke="#000000" d="M4244.463,4524.777c33.095-30.799,47.867-73.694,13.505-111.81
				c-19.846-22.013-43.985-39.481-68.941-55.233c-24.776-15.657-44.637-35.971-67.103-54.709
				c-20.612-17.194-43.292-33.728-70.299-38.577c-75.349-13.518-103.265,29.587-108.195,85.086
				c-10.837,122.187,63.748,184.617,177.587,214.54C4159.947,4574.305,4211.368,4555.588,4244.463,4524.777z"/>
			<path id="_x31_80610093" fill="#54BF94" stroke="#000000" d="M4497.91,3412.607c67.992-15.174,144.808-84.794,195.397-131.184
				c44.857-41.124,98.737-76.435,140.937-118.379l5.219-4.603c35.566,38.014,64.002,83.242,82.74,136.654
				c40.872,116.496-10.743,221.847-80.149,314.093c-81.564,108.389-159.423,216.267-229.092,332.904
				c-34.732,58.161-72.138,114.556-109.238,171.116l-1.834-1.211c-14.088-15.711-30.221-28.858-47.219-41.385
				c-99.233-73.13-215.274-126.036-278.687-239.262l-1.204-5.494c33.219-9.306,66.073-31.16,86.534-57.915
				c13.607-17.789,25.366-37.26,38.199-55.655c49.734-71.245,78.746-160.671,148.124-222.364
				c17.52-15.572,50.675-46.449,43.731-73.936L4497.91,3412.607z"/>
			<path id="_x31_80610096" fill="#54BF94" stroke="#000000" d="M3976.229,3555.667c28.27,18.617,80.927,7.398,108.845-7.102
				c23.008-11.953,33.216-32.293,47.706-52.515c45.416-63.39,123.617-86.196,197.373-97.077l-1.417-7.026
				c-32.194-121.201-66.506-276.405-61.809-402.313l-0.358-5.569c-30.633,1.485-56.419,4.161-84.858,7.839
				c-83.725,10.824-193.19,65.389-240.147,121.754c-25.571,30.695-33.176,47.651-46.261,91.992c-4.181,14.154-0.734,29.939-0.45,45
				c0.434,23.616,6.366,40.502,7.426,67.002l1.244,15.687c11.692,48.992,23.189,97.988,41.886,145.166
				c8.858,22.353,17.76,45.049,26.067,68.046L3976.229,3555.667z"/>
			<path id="_x31_80610094" fill="#54BF94" stroke="#000000" d="M4051.626,4264.448c-11.34-2.038-20.495-3.394-28.954-4.974
				c-13.124-2.446-28.54-1.434-43.918-8.309c-14.121-4.008-28.915-8.733-36.337-20.011c-12.81-19.461-3.018-59.465-1.719-86.991
				c1.244-26.217,5.958-72.52,12.077-95.305c15.563-57.938,35.107-149.077,62.729-202.52c18.289-35.392,53.756-25.23,89.563-18.402
				c18.831,3.599,38.028,3.885,54.269,1.313c5.127-0.81,10.29-1.949,15.442-3.391l1.204,5.492
				c63.414,113.226,179.453,166.132,278.685,239.258c17.002,12.53,33.135,25.678,47.221,41.391l1.834,1.211
				c-30.411,46.369-60.616,92.85-88.976,140.51c-19.965,33.548-41.869,68.19-74.039,91.387
				c-16.078,11.594-44.17,19.487-63.086,33.29l-5.886,5.026c-2.379,2.598-4.018,5.729-5.088,9.185l-21.647,7.13
				c-16.998-16.01-36.235-29.545-55.974-42.007c-24.784-15.657-44.639-35.971-67.106-54.709
				C4101.313,4285.829,4078.632,4269.298,4051.626,4264.448z"/>
			<path id="_x31_80610098" fill="#54BF94" stroke="#000000" d="M5064.624,3292.91c-0.36-0.902-0.733-1.824-1.12-2.761
				c-0.129-0.299-0.265-0.611-0.393-0.923c-0.268-0.635-0.531-1.272-0.812-1.922c-0.162-0.366-0.323-0.746-0.488-1.117
				c-0.256-0.601-0.52-1.202-0.795-1.813c-0.174-0.396-0.353-0.8-0.538-1.204c-0.268-0.602-0.545-1.212-0.823-1.825
				c-0.186-0.402-0.369-0.811-0.56-1.219c-0.299-0.646-0.597-1.294-0.903-1.945c-0.181-0.383-0.356-0.764-0.538-1.146
				c-0.348-0.742-0.709-1.492-1.065-2.244c-0.147-0.306-0.29-0.605-0.441-0.915c-0.515-1.065-1.04-2.145-1.57-3.23
				c-0.055-0.113-0.114-0.229-0.172-0.346c-0.476-0.974-0.96-1.953-1.458-2.941c-0.18-0.368-0.367-0.741-0.553-1.11
				c-0.375-0.74-0.748-1.48-1.127-2.23c-0.224-0.438-0.445-0.878-0.666-1.313c-0.357-0.693-0.715-1.397-1.071-2.098
				c-0.233-0.458-0.469-0.913-0.702-1.367c-0.368-0.712-0.739-1.431-1.11-2.148c-0.228-0.439-0.458-0.879-0.688-1.323
				c-0.395-0.758-0.792-1.519-1.191-2.28c-0.219-0.414-0.431-0.824-0.648-1.237c-0.462-0.875-0.934-1.764-1.4-2.649
				c-0.154-0.291-0.313-0.585-0.465-0.881c-0.633-1.189-1.271-2.394-1.914-3.597c-0.118-0.217-0.236-0.438-0.354-0.653
				c-0.526-0.98-1.059-1.966-1.586-2.952c-0.227-0.418-0.451-0.838-0.679-1.257c-0.436-0.808-0.869-1.605-1.308-2.416
				c-0.247-0.455-0.495-0.908-0.745-1.368c-0.421-0.775-0.842-1.557-1.268-2.336c-0.254-0.468-0.507-0.935-0.765-1.4
				c-0.432-0.788-0.856-1.575-1.29-2.364c-0.244-0.44-0.482-0.885-0.729-1.323c-0.489-0.9-0.977-1.793-1.47-2.69
				c-0.184-0.33-0.359-0.654-0.543-0.984c-0.632-1.148-1.265-2.304-1.897-3.456c-0.047-0.086-0.093-0.164-0.138-0.248
				c-2.391-4.345-4.794-8.709-7.193-13.056c-0.258-0.473-0.52-0.945-0.776-1.415c-0.386-0.703-0.769-1.4-1.148-2.094
				c-0.354-0.632-0.695-1.26-1.042-1.891c-0.319-0.585-0.642-1.175-0.968-1.759c-0.404-0.732-0.807-1.469-1.208-2.197
				c-0.271-0.5-0.549-0.999-0.815-1.495c-0.549-0.999-1.094-1.993-1.636-2.984c-0.127-0.229-0.253-0.465-0.376-0.685
				c-0.666-1.224-1.327-2.431-1.984-3.638c-0.194-0.361-0.389-0.724-0.584-1.085c-0.461-0.848-0.922-1.694-1.383-2.54
				c-0.246-0.453-0.488-0.905-0.732-1.36c-0.402-0.752-0.811-1.502-1.212-2.25c-0.265-0.486-0.521-0.971-0.785-1.456
				c-0.385-0.721-0.767-1.438-1.152-2.159c-0.253-0.475-0.507-0.945-0.762-1.424c-0.393-0.735-0.777-1.466-1.165-2.193
				c-0.242-0.457-0.48-0.91-0.721-1.364c-0.411-0.776-0.821-1.553-1.229-2.327c-0.2-0.39-0.41-0.778-0.612-1.166
				c-1.21-2.309-2.389-4.594-3.54-6.838c-0.17-0.336-0.337-0.667-0.507-1.001c-0.399-0.779-0.798-1.563-1.19-2.338
				c-0.203-0.403-0.404-0.813-0.608-1.22c-0.349-0.695-0.697-1.389-1.038-2.077c-0.211-0.423-0.422-0.846-0.627-1.267
				c-0.33-0.67-0.654-1.329-0.979-1.99c-0.202-0.417-0.407-0.841-0.612-1.256c-0.319-0.667-0.64-1.329-0.953-1.984
				c-0.188-0.392-0.377-0.783-0.561-1.169c-0.349-0.731-0.689-1.454-1.021-2.18c-0.143-0.299-0.283-0.601-0.42-0.895
				c-0.471-1.017-0.935-2.021-1.386-3.012c-0.042-0.099-0.08-0.188-0.124-0.28c-0.398-0.889-0.795-1.768-1.172-2.637
				c-0.137-0.308-0.267-0.606-0.396-0.913c-0.286-0.649-0.563-1.294-0.83-1.928c-0.148-0.352-0.293-0.696-0.437-1.04
				c-0.244-0.583-0.483-1.165-0.716-1.735c-0.146-0.351-0.288-0.695-0.424-1.048c-0.229-0.56-0.447-1.11-0.657-1.658
				c-0.131-0.335-0.266-0.674-0.393-1.004c-0.214-0.563-0.417-1.113-0.618-1.66c-0.113-0.3-0.228-0.603-0.335-0.897
				c-0.227-0.632-0.442-1.249-0.65-1.863c-0.067-0.194-0.143-0.392-0.201-0.585c-0.272-0.806-0.531-1.595-0.773-2.367
				c-0.041-0.134-0.078-0.26-0.114-0.393c-0.192-0.627-0.376-1.245-0.548-1.849c-0.062-0.238-0.129-0.479-0.186-0.714
				c-0.131-0.48-0.256-0.958-0.368-1.424c-0.066-0.263-0.125-0.516-0.185-0.773c-0.104-0.433-0.194-0.851-0.275-1.266
				c-0.053-0.255-0.103-0.508-0.148-0.751c-0.078-0.405-0.145-0.804-0.207-1.19c-0.032-0.23-0.075-0.468-0.105-0.694
				c-0.051-0.398-0.095-0.786-0.134-1.166c-0.02-0.195-0.041-0.396-0.06-0.584c-0.036-0.461-0.056-0.898-0.064-1.327
				c-0.002-0.098-0.014-0.199-0.016-0.297c-0.002-0.523,0.016-1.023,0.049-1.503c0.01-0.11,0.027-0.211,0.036-0.32
				c0.032-0.3,0.06-0.6,0.104-0.887l-15.962-52.615c-5.441-4.4-10.902-8.789-16.348-13.136
				c-20.502-15.481-41.207-30.7-61.771-46.112c-26.333-19.74-53.556-37.196-80.871-55.511c-7.292-4.887-14.612-9.73-21.958-14.541
				c-60.539-38.14-127.256-76.388-185.063-98.813c-2.822-1.077-5.65-2.154-8.494-3.193
				c-110.246-40.361-212.578-91.191-318.623-96.831c-0.014,0.002-0.023,0.002-0.035-0.001c-1.989-0.103-3.982-0.187-5.979-0.261
				c-0.796-0.03-1.599-0.059-2.399-0.082c-0.728-0.023-1.456-0.041-2.187-0.061c-1.601-0.038-3.21-0.068-4.816-0.09
				c-0.032,0.002-0.065,0.006-0.101,0.002c-1.837-0.021-3.673-0.02-5.503-0.009c-0.153-0.003-0.311,0.001-0.466-0.002
				c-36.868,0.264-74.277,6.371-112.703,20.603c-0.273,0.102-0.543,0.205-0.814,0.307c-1.631,0.605-3.262,1.233-4.897,1.872
				c-0.326,0.125-0.651,0.249-0.979,0.378c-1.62,0.636-3.233,1.296-4.854,1.963c-0.818,0.336-1.639,0.676-2.456,1.021
				c-0.8,0.336-1.599,0.68-2.398,1.02c-8.951,3.843-17.961,8.13-27.035,12.907c-14.84,7.809-29.353,16.263-43.798,24.852
				c-31.239,18.585-62.188,37.794-95.498,52.567c-0.095,0.038-0.188,0.086-0.284,0.125c-0.214,0.096-0.431,0.186-0.646,0.283
				c-11.059,4.874-22.379,9.265-34.061,12.967c-0.579,0.188-1.158,0.349-1.736,0.524c-1.334,0.414-2.684,0.823-4.039,1.224
				c-0.174,0.05-0.348,0.102-0.518,0.148c-59.024,17.248-139.457,22.567-180.152,75.553c1.369-1.491-4.189,0.793-4.803,1.188
				c-7.409,4.785-4.878,14.678,2.22,26.272c39.835,33.357,71.207,85.068,95.741,136.407c7.247,10.168,15.758,18.936,26.743,25.077
				c21.104-7.223,66.085-7.073,78.514-25.129c27.175,3.114,34.178-15.967,50.982-26.441c16.885-10.519,36.611-18.584,54.777-30.856
				c43.534-29.414,95.587-44.16,147.229-50.829c262.657-33.959,640.248,17.497,740.482,303.196
				c40.872,116.492-10.745,221.846-80.149,314.088c-81.564,108.39-159.423,216.27-229.089,332.911
				c-35.134,58.829-73.003,115.852-110.517,173.067c-1.292,1.971-2.586,3.939-3.872,5.91c-2.716,4.149-5.433,8.299-8.147,12.452
				c-1.585,2.43-3.168,4.86-4.755,7.291c-2.428,3.73-4.857,7.465-7.277,11.201c-1.684,2.594-3.359,5.185-5.038,7.782
				c-2.329,3.606-4.654,7.219-6.98,10.831c-1.698,2.648-3.396,5.293-5.086,7.937c-2.313,3.612-4.609,7.236-6.908,10.855
				c-1.659,2.623-3.326,5.24-4.982,7.865c-2.355,3.739-4.699,7.487-7.044,11.238c-1.563,2.501-3.128,5-4.681,7.505
				c-2.571,4.138-5.117,8.294-7.658,12.443c-1.295,2.121-2.604,4.23-3.896,6.352c-3.822,6.273-7.615,12.572-11.374,18.894
				c-19.964,33.548-41.866,68.19-74.037,91.387c-16.08,11.594-44.172,19.485-63.088,33.293l-5.884,5.025
				c-0.341,0.367-0.664,0.759-0.978,1.147c-0.1,0.124-0.192,0.256-0.291,0.392c-0.206,0.27-0.41,0.551-0.603,0.834
				c-0.103,0.151-0.201,0.3-0.298,0.453c-0.188,0.289-0.367,0.585-0.542,0.88c-0.08,0.144-0.166,0.277-0.245,0.421
				c-0.24,0.431-0.475,0.874-0.686,1.317c-0.023,0.056-0.047,0.112-0.072,0.163c-0.188,0.406-0.368,0.816-0.536,1.236
				c-0.067,0.161-0.129,0.327-0.195,0.496c-0.119,0.313-0.24,0.636-0.351,0.957c-0.065,0.179-0.124,0.364-0.184,0.551
				c-3.152,9.776-1.673,22.272,0.503,32.942c9.993,16.02,12.231,32.533,8.85,48.385c-3.967,18.611-15.671,36.3-31.655,51.174
				c-33.095,30.809-84.516,49.525-123.444,39.297c-113.835-29.921-188.42-92.354-177.585-214.536
				c1.701-19.174,6.087-39.447,17.021-55.641c9.456-14.016,37.695-22.415,25.649-40.126c-4.295-6.315-46.968-25.682-54.373-21.831
				c-8.649,4.494-8.1,27.748-10.53,35.906c-5.521,18.483-13.224,36.566-23.818,52.73c-23.987,36.591-61.47,59.121-103.157,70.46
				c-37.978,10.334-77.758,21.336-115.605,32.321c-18.729,5.43-33.87,12.582-48.399,20.703
				c14.828,25.239,31.275,49.464,49.938,72.232c27.897,34.022,60.484,63.935,95.486,90.51
				c34.964,26.543,72.262,49.827,110.271,71.716c10.109,5.819,20.272,11.547,30.472,17.212c5.189,2.88,10.396,5.751,15.601,8.613
				c4.423,2.431,9.516,5.994,14.371,7.327c11.982,3.287,25.13,3.268,37.565,3.663c175.687,5.626,304.455-9.671,464.762-80.804
				c9.638-4.269,32.059-9.094,36.861-19.58c9.046-19.724-15.37-15.291-27.977-20.154c-39.337-15.188-59.842-67.279-38.172-103.858
				c0.723-1.223,1.465-2.438,2.222-3.641c4.47-7.108,9.527-13.946,15.062-20.55c0.045-0.055,0.085-0.106,0.132-0.164
				c0.104-0.126,0.22-0.244,0.327-0.374c1.375-1.63,2.769-3.244,4.209-4.845c0.273-0.312,0.552-0.615,0.827-0.924
				c1.218-1.346,2.455-2.676,3.712-4c0.522-0.556,1.045-1.108,1.576-1.659c1.203-1.251,2.432-2.494,3.673-3.728
				c0.685-0.688,1.377-1.368,2.068-2.042c1.118-1.092,2.245-2.174,3.389-3.254c0.766-0.724,1.545-1.44,2.319-2.157
				c0.952-0.884,1.909-1.757,2.88-2.631c0.688-0.62,1.374-1.246,2.069-1.859c1.338-1.185,2.691-2.36,4.057-3.537
				c0.461-0.392,0.922-0.787,1.382-1.183c1.615-1.37,3.244-2.729,4.887-4.083c0.253-0.208,0.505-0.411,0.76-0.617
				c1.698-1.394,3.418-2.778,5.151-4.154c0.063-0.046,0.132-0.101,0.198-0.152c0.019-0.018,0.041-0.035,0.062-0.052
				c1.671-1.322,3.354-2.631,5.054-3.937c0.721-0.56,1.447-1.112,2.176-1.669c0.466-0.349,0.936-0.705,1.406-1.062
				c23.042-17.418,47.468-32.89,71.823-48.438c6.608-4.224,13.17-8.427,19.64-12.624c1.504-0.979,3.007-1.955,4.506-2.94
				c0.334-0.218,0.67-0.437,1.004-0.659c2.059-1.35,4.109-2.701,6.158-4.059c0.328-0.219,0.656-0.439,0.981-0.653
				c1.562-1.042,3.116-2.092,4.676-3.142c1.386-0.935,2.762-1.867,4.126-2.799c0.242-0.165,0.485-0.33,0.729-0.5
				c6.939-4.76,13.673-9.549,20.12-14.396c0.397-0.294,0.793-0.591,1.182-0.894c1.399-1.056,2.77-2.113,4.144-3.175
				c1.342-1.043,2.682-2.099,4.01-3.158c0.457-0.365,0.916-0.731,1.367-1.096c2.01-1.625,4.007-3.268,5.978-4.938
				c104.334-88.459,202.692-258.281,257.104-377.915C4979.613,3754.617,5148.797,3504.744,5064.624,3292.91z"/>
			<path id="_x31_80610128" fill="#CCCCCC" stroke="#000000" d="M5171.098,3610.077c-12.902,66.435-31.596,132.49-51.98,199.538
				c-19.584,64.429-43.407,128.261-70.16,190.064c-11.704,27.021-24.008,53.898-37.492,80.099
				c-53.934,104.81-124.322,200.884-204.081,287.477c-46.175,50.126-89.976,94.431-144.703,134.643
				c-48.973,35.974-113.193,94.576-176.182,98.308c-49.976,2.969-96.608-59.452-67.099-109.261
				c44.573-75.235,154.529-120.206,220.035-175.742c104.333-88.459,202.695-258.279,257.1-377.914
				c83.078-182.671,252.262-432.544,168.09-644.376c-24.407-61.423-112.774-189.674-79.762-189.668
				c88.708,12.399,180.806,135.873,194.74,220.396C5195.893,3422.422,5189.235,3516.629,5171.098,3610.077z"/>
			<path id="_x31_80610129" fill="#CCCCCC" stroke="#000000" d="M4268.39,3494.242c23.62,5.397,0.17,34.225-8.953,45.299
				c-20.363,24.722-39.923,48.967-55.351,77.154c-18.12,33.134-25.708,57.011-53.655,77.014
				c-31.974,22.898-119.009,9.296-112.918,66.542c6.406,59.767,70.718,77.079,121.825,69c38.174-6.031,78.343-30.404,101.979-61.306
				c13.607-17.789,25.366-37.26,38.199-55.655c49.734-71.247,78.746-160.673,148.124-222.366
				c18.568-16.509,54.712-50.21,42.033-78.847c-14.176-31.993-67.149-20.219-94.194-18.673
				c-83.595,4.77-232.515,26.547-267.496,119.533c-2.453,6.511-5.969,20.226,3.735,22.295c14.528,3.108,31.353-15.938,43.117-23.034
				c28.212-17.012,59.653-23.158,92.264-17.223C4267.542,3494.054,4267.973,3494.144,4268.39,3494.242z"/>
			<path id="_x31_80610127" fill="#AAAAAA" stroke="#000000" d="M4201.337,3620.467c-8.397,15.839-17.567,39.498-31.992,55.699
				c-14.527,16.334-38.508,27.606-54.673,33c-22.771,7.597-42.851-3.295-65.199-37.659c-15.91-24.605-3.488-48.442,14.83-68.504
				c33.559-36.717,99.752-97.591,151.481-106.657c30.988-5.43,74.704-11.253,61.907,17.891
				c-3.902,8.887-34.339,44.583-41.273,53.629C4221.868,3586.892,4212.505,3599.425,4201.337,3620.467z"/>
		</g>
	</g>
	<g transform="scale(1.0)">
		<g id="_x31_80610081_1_" transform=" scale(1.0, 1.0)">
			<path id="_x31_80610083_1_" fill="#BFDAE3" stroke="#000000" d="M701.735,2321.187
				c19.901,157.548,83.483,315.564,171.008,448.026c98.794,149.521,281.274,446.764,491.005,403.4l0.764-0.129
				c-197.049,187.641-16.834,703.533,88.021,907.283c113.493,220.535,333.36,453.365,561.431,554.574
				c152.372,67.613,352.756,96.492,517.567,75.979c171.852-21.393,269.736-128.525,369.158-259.137
				c154.221-202.609,229.605-430.563,236.553-683.848c5.41-197.27,17.074-529.605-115.914-715.523
				c-41.336-57.797-96.389-102.648-169.527-126.861c34.744-19.168,73.064-32.225,105.758-55.063
				c74.834-52.273,116.521-147.645,163.867-222.41c50.758-80.156,76.996-157.466,94.051-250.8
				c33.793-184.859,5.26-363.278-22.172-548.143c-16.527-111.407-26.869-253.754-43.398-367.222
				c-18.293-125.574-35.117-218.679-94.971-352.768c-57.721-129.313-125.896-243.419-220.816-315.606
				c-79.979-60.825-204.305-90.802-319.484-108.626c-190.631-29.509-385.53-7.134-570.039,45.827
				c-170.725,49.005-344.12,93.938-497.384,188.79c-301.967,186.897-581.451,472.316-703.762,812.276
				C677.186,1935.387,677.508,2129.323,701.735,2321.187z"/>
			<path id="_x31_80610084_1_" fill="#B0FFB8" stroke="#000000" d="M701.735,2321.186
				c19.903,157.548,83.485,315.563,171.008,448.025c97.685,147.85,277.206,440.123,483.979,404.715
				c2.338-0.404,4.681-0.832,7.027-1.314l0.761-0.129c-1.975,1.883-3.906,3.793-5.804,5.734
				c-187.644,192.207-9.979,699.838,93.826,901.547c113.493,220.537,333.358,453.365,561.431,554.574
				c152.372,67.615,352.756,96.494,517.565,75.979c171.854-21.391,269.738-128.523,369.156-259.137
				c154.225-202.607,229.611-430.561,236.553-683.848c5.412-197.268,17.074-529.604-115.914-715.521
				c-37.705-52.719-86.822-94.65-150.666-119.992c-6.152-2.443-12.428-4.74-18.859-6.869c6.768-3.729,13.672-7.232,20.645-10.621
				c28.818-14.002,58.791-26.049,85.115-44.439c74.834-52.273,116.521-147.645,163.867-222.41
				c50.758-80.156,76.996-157.466,94.051-250.8c33.793-184.859,5.26-363.278-22.172-548.143
				c-16.527-111.407-26.869-253.754-43.398-367.222c-18.293-125.574-35.117-218.679-94.971-352.768
				c-57.721-129.313-125.896-243.419-220.816-315.606c-79.979-60.825-204.305-90.802-319.484-108.626
				c-190.631-29.509-385.53-7.134-570.039,45.827c-170.725,49.005-344.12,93.938-497.384,188.79
				c-301.967,186.897-581.451,472.316-703.762,812.276C677.186,1935.387,677.508,2129.323,701.735,2321.186z M2248.216,3496.346
				c51.73,9.064,117.923,69.941,151.481,106.656c18.317,20.063,30.739,43.9,14.829,68.506
				c-22.348,34.363-42.426,45.254-65.198,37.658c-16.165-5.396-40.146-16.666-54.673-33c-14.425-16.201-23.595-39.859-31.992-55.699
				c-11.164-21.039-20.531-33.574-35.085-52.596c-6.933-9.049-37.367-44.746-41.271-53.633
				C2173.508,3485.1,2217.224,3490.916,2248.216,3496.346z"/>
			<path id="_x31_80610114_1_" fill="#1F9D5A" stroke="#000000" d="M894.802,2374.681c6.772,31.688,15.363,66.099,25.937,101.995
				c18.084,61.64,39.473,126.004,66.719,187.646l-114.687,104.911c-87.583-132.435-151.162-290.456-171.002-448.069
				c-4.709-37.467-8.595-75.014-11.16-112.562l174.28-48.311C869.773,2232.333,879.773,2304.209,894.802,2374.681z"/>
			<path id="_x31_80610113_1_" fill="#1F9D5A" stroke="#000000" d="M1355.771,2327.468l-368.313,336.851
				c-27.248-61.639-48.635-126.003-66.719-187.645c-10.571-35.896-19.16-70.308-25.937-101.994
				c-15.03-70.472-25.03-142.348-29.915-214.391l464.75-128.914C1318.929,2129.005,1321.094,2241.979,1355.771,2327.468z"/>
			<path id="_x31_80610112_1_" fill="#1F9D5A" stroke="#000000" d="M1660.95,1939.463c-2.802,10.646-3.711,20.216-2.552,28.388
				c4.377,31.442,25.175,38.037,55.46,32.092l-358.087,327.525c-34.678-85.489-36.843-198.463-26.133-296.091L1660.95,1939.463z"/>
			<path id="_x31_80610111_1_" fill="#1F9D5A" stroke="#000000" d="M1831.682,1892.142l-117.823,107.801
				c-30.285,5.945-51.083-0.652-55.46-32.092c-1.159-8.171-0.25-17.741,2.552-28.388L1831.682,1892.142z"/>
			<path id="_x31_80610118_1_" fill="#1F9D5A" stroke="#000000" d="M1447.18,938.911c153.309-94.852,326.681-139.779,497.413-188.75
				c184.512-52.936,379.43-75.337,570.064-45.833c141.697,21.922,259.547,56.555,344.232,133.37
				c39.293,35.642,71.977,73.266,102.107,118.649l-134.65,138.831c-46.227-59.739-100.539-111.882-161.035-147.767
				c-150.705-89.424-280.103-88.327-448.694-71.789c-253.094,24.809-407.074,77.816-629.947,184.484
				c-126.501,60.517-255.803,126.56-385.01,247.648c-99.088,92.777-171.518,227.883-222.99,351.348
				c-51.966,124.54-115.814,248.587-117.107,386.485c-0.401,38.208,0.762,76.415,3.326,114.706l-174.28,48.311
				c-10.678-154.731-0.475-309.214,52.802-457.358C865.729,1411.223,1145.258,1125.8,1447.18,938.911z"/>
			<path id="_x31_80610117_1_" fill="#1F9D5A" stroke="#000000" d="M978.668,1659.1c51.476-123.466,123.904-258.572,222.992-351.348
				c129.207-121.086,258.511-187.133,385.008-247.648c222.873-106.667,376.853-159.674,629.945-184.481
				c168.589-16.537,297.991-17.638,448.698,71.787c60.494,35.887,114.809,88.028,161.033,147.767l-239.518,246.795
				c-40.943-52.397-91.785-94.64-155-113.275c-158.292-46.679-340.822,5.187-484.732,62.403
				c-200.765,79.76-388.396,214.062-495.063,387.963c-39.105,63.715-87.856,171.915-104.512,244.784
				c-7.25,31.525-13.6,68.333-17.881,107.531l-464.75,128.914c-2.566-38.291-3.73-76.499-3.326-114.707
				C862.855,1907.688,926.704,1783.64,978.668,1659.1z"/>
			<path id="_x31_80610116_1_" fill="#1F9D5A" stroke="#000000" d="M1347.52,1923.844c16.653-72.872,65.406-181.069,104.51-244.784
				c106.67-173.899,294.302-308.203,495.064-387.963c143.909-57.216,326.439-109.079,484.729-62.4
				c63.213,18.635,114.057,60.878,155.002,113.274l-274.495,282.861c-38.631-26.648-87.073-38.934-134.113-36.696
				c-115.529,5.471-218.678,40.313-324.54,115.599c-90.102,64.057-175.989,169.869-192.727,235.729l-331.312,91.914
				C1333.918,1992.18,1340.268,1955.37,1347.52,1923.844z"/>
			<path id="_x31_80610115_1_" fill="#1F9D5A" stroke="#000000" d="M2183.786,1757.226l-8.009-2.063
				c-103.646,10.09-189.713,44.273-249.783,76.057c-60.154,31.699-94.313,60.92-94.313,60.92l-170.729,47.322
				c16.736-65.859,102.619-171.674,192.725-235.729c105.86-75.283,209.009-110.127,324.54-115.598
				c47.042-2.236,95.484,10.049,134.113,36.696l-122.277,125.956L2183.786,1757.226z"/>
			<path id="_x31_80610122_1_" fill="#2FA850" stroke="#000000" d="M3036.364,1095.543
				c52.178,114.366,90.816,202.164,107.352,342.451c2.48,21.043,5.291,44.976,8.35,70.805l-131.123,33.614
				c-18.832-71.464-40.463-141.19-64.248-207.781c-28.652-80.537-73.398-165.774-130.35-239.457l134.648-138.83
				C2987.161,995.701,3011.433,1040.918,3036.364,1095.543z"/>
			<path id="_x31_80610121_1_" fill="#2FA850" stroke="#000000" d="M2956.696,1334.632c23.785,66.592,45.418,136.319,64.246,207.783
				l-299.791,76.973c-9.832-28.222-19.65-54.875-28.902-79.383c-24.768-65.768-58.701-138.377-105.424-198.033l239.52-246.797
				C2883.298,1168.857,2928.042,1254.097,2956.696,1334.632z"/>
			<path id="_x31_80610120_1_" fill="#2FA850" stroke="#000000" d="M2692.249,1540.001c9.252,24.509,19.076,51.163,28.9,79.383
				l-343.031,87.958c-2.976-7.262-6.522-14.605-10.733-22.279c-13.704-24.836-32.774-44.885-55.055-60.231l274.495-282.861
				C2633.548,1401.626,2667.481,1474.236,2692.249,1540.001z"/>
			<path id="_x31_80610119_1_" fill="#2FA850" stroke="#000000" d="M2367.383,1685.064c4.211,7.674,7.756,15.015,10.733,22.279
				l-183.687,47.159l-4.375-3.714l122.275-125.956C2334.61,1640.178,2353.681,1660.228,2367.383,1685.064z"/>
			<path id="_x31_80610106_1_" fill="#248A5E" stroke="#000000" d="M1858.332,2654.658c26.974-31.859,51.726-65.288,77.877-97.89
				c19.389-24.183,36.223-51.006,58.495-72.796c43.974-42.922,119.565-66.042,187.321-58.548l-0.851,298.735l0.493,5.195
				c-101.17,9.02-199.445,57.232-304.986,95.873c-84.581,30.965-190.525,98.656-268.169,150.66
				c-82.347,55.225-242.497,195.135-242.497,195.135l-2.229,1.568c-28.802,5.945-57.022,5.457-84.587-0.148l81.74-189.492
				C1552.394,2974.904,1751.731,2780.441,1858.332,2654.658z"/>
			<path id="_x31_80610105_1_" fill="#248A5E" stroke="#000000" d="M1883.987,2242.856
				c108.257-87.416,195.559-107.568,298.717-101.318l-0.684,283.881c-67.755-7.496-143.344,15.627-187.319,58.548
				c-22.275,21.79-39.105,48.614-58.492,72.798c-26.153,32.602-50.906,66.03-77.881,97.887
				c-106.596,125.787-305.937,320.251-497.387,328.296l240.03-556.092C1705.52,2386.813,1816.827,2297.086,1883.987,2242.856z"/>
			<path id="_x31_80610104_1_" fill="#248A5E" stroke="#000000" d="M1955.471,1912.747c52.896-8.097,134.758-27.505,209.029-19.27
				c6.271,0.658,12.629,1.235,18.897,1.563l-0.691,246.499c-103.16-6.25-190.462,13.901-298.719,101.317
				c-67.162,54.23-178.468,143.959-283.016,184.001l197.468-457.631C1849.024,1947.017,1905.793,1920.351,1955.471,1912.747z"/>
			<path id="_x31_80610103_1_" fill="#248A5E" stroke="#000000" d="M1925.994,1831.22c60.07-31.786,146.137-65.967,249.783-76.056
				l8.009,2.062l-0.389,137.815c-6.269-0.327-12.626-0.904-18.897-1.564c-74.271-8.234-156.134,11.172-209.028,19.27
				c-49.679,7.605-106.447,34.271-157.032,56.48l33.24-77.085C1831.68,1892.141,1865.84,1862.919,1925.994,1831.22z"/>
			<path id="_x31_80610126_1_" fill="#248A5E" stroke="#000000" d="M3199.513,1891.864c25.289,185.18,49.744,319.936,15.943,504.796
				c-12.857,70.478-31,131.881-61.025,192.127l-97.973-85.146c35.055-93.258,35.934-229.34,40.375-312.44
				c11.094-209.944-20.143-437.207-75.893-648.787l131.125-33.613C3165.788,1625.155,3184.306,1780.377,3199.513,1891.864z"/>
			<path id="_x31_80610125_1_" fill="#248A5E" stroke="#000000" d="M3096.833,2191.2c-4.443,83.101-5.324,219.182-40.377,312.441
				l-332.301-288.767c36.967-13.87,64.525-43.335,75.408-97.559c15.914-78.812,7.393-173.134-12.35-267.374
				c-16.686-80.128-41.459-160.17-66.066-230.558l299.795-76.972C3076.69,1753.994,3107.927,1981.257,3096.833,2191.2z"/>
			<path id="_x31_80610124_1_" fill="#248A5E" stroke="#000000" d="M2378.216,1813.14c15.514-27.732,17.899-62.884-0.104-105.793
				l343.035-87.958c24.607,70.385,49.383,150.428,66.066,230.556c19.74,94.237,28.264,188.562,12.352,267.374
				c-10.885,54.221-38.443,83.687-75.41,97.559l-400.143-347.756C2346.536,1854.075,2365.269,1836.329,2378.216,1813.14z"/>
			<path id="_x31_80610123_1_" fill="#248A5E" stroke="#000000" d="M2378.116,1707.344c18.002,42.91,15.615,78.063,0.104,105.794
				c-12.948,23.193-31.684,40.938-54.207,53.983l-129.583-112.62L2378.116,1707.344z"/>
			<path id="_x31_80610102_1_" fill="#248A5E" stroke="#000000" d="M2302.192,2494.301
				c72.809,117.993,123.568,158.091,265.924,164.994c157.787,7.726,348.424,33.104,454.77-94.829
				c13.777-16.507,24.75-37.304,33.576-60.827l97.973,85.146c-9.654,19.562-20.625,39.037-32.998,58.682
				c-47.355,74.773-89.012,170.18-163.854,222.43c-32.672,22.865-71.043,35.912-105.783,55.064l-3.381,0.164
				c-33.756-8.49-81.621-10.621-114.139-18.213c-33.754-7.832-55.785-16.164-88.963-25.811
				c-32.27-9.318-65.939-12.117-98.041-22.342c-63.547-20.123-116.455-60.303-174.311-90.824
				c-66.441-34.893-129.403-44.037-191.298-38.586l-0.495-5.191l0.848-298.738
				C2231.206,2430.776,2276.266,2452.386,2302.192,2494.301z"/>
			<path id="_x31_80610101_1_" fill="#248A5E" stroke="#000000" d="M2387.371,2171.207c96.636,16.653,245.438,77.771,336.786,43.67
				l332.299,288.765c-8.822,23.519-19.797,44.32-33.574,60.827c-106.348,127.933-296.984,102.555-454.768,94.829
				c-142.357-6.904-193.113-46.999-265.926-164.994c-25.923-41.917-70.98-63.528-120.166-68.883l0.684-283.882
				C2243.028,2145.075,2308.802,2157.688,2387.371,2171.207z"/>
			<path id="_x31_80610100_1_" fill="#248A5E" stroke="#000000" d="M2324.013,1867.118l400.143,347.756
				c-91.344,34.1-240.15-27.017-336.785-43.669c-78.568-13.517-144.341-26.131-204.664-29.666l0.691-246.499
				C2233.983,1898.001,2284.651,1889.823,2324.013,1867.118z"/>
			<path id="_x31_80610099_1_" fill="#248A5E" stroke="#000000" d="M2194.43,1754.5l129.583,112.62
				c-39.359,22.703-90.029,30.882-140.615,27.921l0.389-137.815L2194.43,1754.5z"/>
			<path id="_x31_80610110_1_" fill="#219866" stroke="#000000" d="M1211.481,2945.02c47.952,29.119,98.457,40.168,149.46,37.93
				l-81.742,189.492c-173.639-35.203-321.239-274.162-406.429-403.209l114.687-104.911
				C1037.242,2777.199,1106.666,2881.414,1211.481,2945.02z"/>
			<path id="_x31_80610109_1_" fill="#219866" stroke="#000000" d="M1416.447,2416.249c48.695,41.912,115.132,37.194,184.524,10.607
				l-240.03,556.091c-51.003,2.238-101.508-8.809-149.459-37.93c-104.816-63.605-174.24-167.818-224.025-280.696l368.313-336.854
				C1369.975,2362.703,1389.786,2393.314,1416.447,2416.249z"/>
			<path id="_x31_80610108_1_" fill="#219866" stroke="#000000" d="M1798.438,1969.227l-197.466,457.631
				c-69.395,26.586-135.831,31.305-184.526-10.607c-26.659-22.936-46.471-53.548-60.676-88.783l358.089-327.526
				C1737.378,1995.313,1766.672,1983.179,1798.438,1969.227z"/>
			<path id="_x31_80610107_1_" fill="#219866" stroke="#000000" d="M1798.438,1969.226c-31.768,13.955-61.06,26.087-84.579,30.716
				l117.821-107.801L1798.438,1969.226z"/>
			<path id="_x31_80610085_1_" fill="#9AD2BD" stroke="#000000" d="M1452.534,4079.771
				c113.493,220.537,333.358,453.365,561.429,554.576c152.374,67.611,352.761,96.492,517.569,75.977
				c171.85-21.393,269.736-128.525,369.158-259.137c154.223-202.607,229.604-430.561,236.553-683.85
				c5.408-197.266,17.07-529.602-115.916-715.52c-41.336-57.799-96.389-102.65-169.527-126.861
				c7.428-4.094,15.02-7.916,22.682-11.609l-26.053,11.738c-33.762-8.461-81.598-10.613-114.164-18.188
				c-33.742-7.844-55.789-16.182-88.93-25.787c-32.266-9.352-65.973-12.166-98.1-22.355
				c-63.521-20.15-116.426-60.336-174.283-90.789c-175.031-92.131-326.228-4.984-496.255,57.258
				c-84.577,30.961-190.515,98.629-268.165,150.658c-82.399,55.188-242.515,195.152-242.515,195.152
				C1166.52,3357.461,1347.412,3875.498,1452.534,4079.771z M2248.216,3496.346c51.73,9.064,117.923,69.941,151.481,106.656
				c18.317,20.063,30.739,43.9,14.829,68.506c-22.348,34.363-42.426,45.254-65.198,37.658c-16.165-5.396-40.146-16.666-54.673-33
				c-14.425-16.201-23.595-39.859-31.992-55.699c-11.164-21.039-20.531-33.574-35.085-52.596
				c-6.933-9.049-37.367-44.746-41.271-53.633C2173.508,3485.1,2217.224,3490.916,2248.216,3496.346z"/>
			<path id="_x31_80610086_1_" fill="#9AD2BD" stroke="#000000" d="M2522.761,4709.406c39.855-7.906,79.314-8.18,117.068-24.439
				c35.76-15.391,69.178-34.709,99.99-58.504c62.574-48.342,112.895-110.291,160.525-172.863
				c145.955-191.744,221.281-406.191,234.828-643.322c1.139-17.92,1.955-35.861,2.445-53.814
				c0.928-33.867,2.029-71.389,2.547-111.262c0.639-37.768,0.688-75.57-0.609-113.229
				c-4.465-164.059-27.461-344.873-111.031-469.727c-0.344-0.531-0.686-1.053-1.035-1.578c-0.008-0.016-0.016-0.027-0.033-0.045
				c-1.654-2.502-3.326-4.988-5.016-7.438c-5.504-7.973-11.35-15.654-17.563-22.979c-79.123-97.441-177.74-127.504-264.402-12.088
				c-66.221,88.186-102.041,167.143-126.477,272.086c-26.791,115.021-63.83,227.408-107.883,336.912
				c-56.697,140.912,16.77,310.441,41.883,452.404c7.918,44.768,1.502,89.4,7.242,134.01
				c20.436,158.854,179.902,145.822,293.93,202.924c-18.672,35.242-39.955,68.887-65.33,99.84
				C2713.704,4601.842,2618.423,4657.127,2522.761,4709.406z"/>
			<path id="_x31_80610091_1_" fill="#82C7AE" stroke="#000000" d="M3091.462,3197.822c25.682,86.314,36.18,174.85,43.967,264.492
				c8.846,101.807,4.262,205.418,1.465,307.439c-6.945,253.289-82.328,481.24-236.551,683.854
				c-47.637,62.568-97.951,124.52-160.525,172.863c-30.813,23.795-64.23,43.107-99.994,58.506
				c-37.75,16.254-77.205,16.531-117.064,24.438c95.664-52.287,190.943-107.576,261.08-193.119
				c86.709-105.76,125.67-242.896,175.566-367.984c48.797-122.332,83.268-236.416,89.221-368.816
				c7.17-159.584,20.105-324.225,1.318-483.264c-7.455-63.148-22.617-125.33-46.389-184.348
				c-12.256-30.449-23.141-61.551-45.012-86.297c-14.707-16.637-46.201-39.557-42.82-65.033c23.119,0.48,41.709,25.498,58.295,39.1
				c18.602,15.262,34.594,33.484,48.422,53.535C3052.437,3096.666,3076.964,3149.104,3091.462,3197.822z"/>
			<path id="_x31_80610087_1_" fill="#82C7AE" stroke="#000000" d="M2809.864,3890.563
				c-15.561,113.092-36.971,249.445-93.865,350.084c-29.107,51.486-65.154,124.143-123.371,63.447
				c-23.184-24.172-33.549-58.6-37.74-91.244c-5.74-44.617,0.676-89.244-7.24-134.01c-25.119-141.965-98.588-311.492-41.887-452.406
				c44.051-109.504,81.092-221.896,107.881-336.91c24.436-104.951,60.264-183.902,126.477-272.086
				c23.457-31.27,58.539-84.578,73.076-15.771c13.422,63.541,18.152,129.367,29.133,193.439
				c20.432,119.158,7.738,233.949-0.16,353.887c-3.914,59.42-8.295,118.957-13.807,178.383
				C2823.317,3781.932,2817.313,3836.385,2809.864,3890.563z"/>
			<path id="_x31_80610089_1_" fill="#9AD2BD" stroke="#000000" d="M2701.874,4331.781c-11.65-4.977-18.229-37.668-14.707-42.758
				c10.535-15.199,20-32.766,28.826-48.377c56.898-100.639,78.313-236.99,93.869-350.086
				c7.449-54.174,13.449-108.627,18.498-163.186c5.51-59.424,9.889-118.965,13.807-178.385
				c7.893-119.934,20.588-234.729,0.156-353.885c-10.98-64.076-15.711-129.896-29.131-193.439c-1.818-8.6-3.955-15.297-6.352-20.361
				c0,0,7.875-23.102,16.803-21.709c7.635,1.189,16.469,26.352,17.066,31.951c7.748,72.326,25.758,143.135,32.938,215.535
				c11.236,113.381-1.525,228.104-7.668,340.76c-2.418,44.441-5.252,88.859-8.805,133.229
				c-9.051,112.992-18.639,224.639-47.762,334.559c-18.723,70.615-47.738,138.059-62.158,210.041
				c-2.09,10.449-14.598,49.041-16.432,79.037C2730.255,4314.012,2713.528,4336.754,2701.874,4331.781z"/>
			<path id="_x31_80610088_1_" fill="#82C7AE" stroke="#000000" d="M2857.171,3681.066
				c-9.047,112.992-18.633,224.639-47.758,334.559c-18.725,70.617-47.74,138.061-62.16,210.045
				c-3.389,16.926-34.121,107.738-2.484,116.164c21.508,5.723,14.939-43.451,15.877-54.275
				c3.488-40.633,23.299-78.676,36.99-116.465c15.918-43.916,32.629-84.973,43.936-130.627
				c11.057-44.625,20.26-91.039,27.996-135.51c10.672-61.355,19.527-121.59,19.48-184.072
				c-0.053-63.721,4.383-130.098,11.855-193.379c4.953-42.018,16.176-78.904,10.83-122.314
				c-8.582-69.732-3.771-138.994-10.52-209.156c-7.164-74.43-45.586-142.576-35.125-219.412c1.875-13.773,1.758-46.654-18.568-26.17
				c-9.922,10.004-8.107,28.947-6.809,41.094c7.748,72.326,25.758,143.135,32.938,215.537
				c11.236,113.381-1.525,228.104-7.668,340.758C2863.563,3592.281,2860.726,3636.699,2857.171,3681.066z"/>
			<path id="_x31_80610090_1_" fill="#9AD2BD" stroke="#000000" d="M2794.896,4379.77c26.506,13.961,70.977,3.445,73.643-2.258
				c34.834-74.465,60.877-154.008,90.871-229.197c48.793-122.334,83.266-236.418,89.221-368.816
				c7.17-159.584,20.102-324.225,1.314-483.266c-7.455-63.146-22.619-125.33-46.387-184.346
				c-12.258-30.451-23.143-61.551-45.014-86.295c-9.92-11.232-27.496-25.322-36.836-41.127c-3.109-5.273-42.52-30.77-47.248-29.34
				c-4.73,1.43-7.6,4.41-7.615,10.055c-0.008,4.232-0.33,8.33-0.754,11.447c-10.461,76.834,27.965,144.98,35.123,219.412
				c6.756,70.162,1.943,139.424,10.523,209.154c5.344,43.41-5.877,80.295-10.832,122.318
				c-7.473,63.277-11.906,129.656-11.855,193.379c0.049,62.48-8.809,122.713-19.48,184.068
				c-7.738,44.471-16.939,90.885-27.998,135.51c-11.307,45.656-28.018,86.713-43.932,130.629
				c-13.695,37.789-33.506,75.83-36.994,116.465c-0.465,5.414,0.941,20.414-0.223,33.344
				C2759.843,4327.371,2768.388,4365.809,2794.896,4379.77z"/>
			<path id="_x31_80610092_1_" fill="#54BF94" stroke="#000000" d="M1361.557,3864.854c24.823,74.066,57.438,145.238,92.312,215.102
				c110.093,220.533,333.359,453.369,561.434,554.574c160.316,71.135,289.087,86.434,464.779,80.813
				c27.123-0.869,50.139-4.377,76.891-8.893c12.313-2.07,24.402-4.773,36.279-8.025c-23.172,4.279-46.758,6.285-70.488,10.988
				c95.666-52.287,190.947-107.572,261.082-193.117c18.664-22.766,35.111-46.992,49.939-72.23
				c-14.527-8.123-29.668-15.273-48.4-20.703c-37.846-10.984-77.623-21.986-115.604-32.32
				c-141.07-38.371-137.557-163.816-150.447-289.201c-11.885-115.551-64.984-223.717-68.916-341.254
				c-3.268-97.781,32.727-192.672,68.176-282.086c35.465-89.486,45.018-185.502,79.146-275.662
				c34.789-91.914,97.787-252.473,207.088-273.555c15.707-3.029,32.539-3.795,48.598-3.152c-6.928-0.572-14.307-3.754-21.191-4.723
				c-8.928-1.246-17.846-3.145-26.908-4.068c-23.541-2.398-48.049-5.084-71.053-10.438c-33.74-7.854-55.787-16.182-88.93-25.789
				c-32.266-9.35-65.971-12.168-98.1-22.352c-63.518-20.15-116.426-60.338-174.283-90.795
				c-175.031-92.127-326.232-4.979-496.257,57.262c-58.964,21.58-114.929,51.857-167.808,85.404
				c-16.036,10.18-31.937,20.568-47.701,31.146c-27.317,18.313-54.54,35.77-80.873,55.508
				c-27.097,20.307-54.443,40.271-81.243,60.965c-45.93,35.475-91.117,78.24-135.283,115.957
				c-53.646,45.813-79.835,139.633-85.309,209.496C1266.034,3542.572,1311.435,3715.258,1361.557,3864.854z M2248.216,3496.346
				c51.73,9.064,117.923,69.941,151.481,106.656c18.317,20.063,30.739,43.9,14.829,68.506
				c-22.348,34.363-42.426,45.254-65.198,37.658c-16.165-5.396-40.146-16.666-54.673-33c-14.425-16.201-23.595-39.859-31.992-55.699
				c-11.164-21.039-20.531-33.574-35.085-52.596c-6.933-9.049-37.367-44.746-41.271-53.633
				C2173.508,3485.1,2217.224,3490.916,2248.216,3496.346z"/>
			<path id="_x31_80610095_1_" fill="#54BF94" stroke="#000000" d="M1624.531,3158.447
				c134.073-143.285,369.481-184.047,568.895-174.383l3.641,5.568c4.702,125.908-29.616,281.109-61.809,402.314l-1.417,7.027
				c-23.753-3.512-46.237-5.482-65.321-6.57c-27.045-1.545-80.017-13.32-94.194,18.672c-0.717,1.621-1.277,3.262-1.696,4.912
				l-6.539-3.381c-67.996-15.178-144.808-84.793-195.397-131.184c-44.859-41.123-98.739-76.434-140.938-118.379L1624.531,3158.447z"
				/>
			<path id="_x31_80610097_1_" fill="#54BF94" stroke="#000000" d="M2342.983,4564.074
				c113.838-29.922,188.424-92.354,177.586-214.539c-4.93-55.5-32.846-98.604-108.195-85.086
				c-27.006,4.85-49.686,21.383-70.298,38.576c-22.466,18.738-42.326,39.053-67.103,54.709
				c-24.956,15.752-49.096,33.221-68.941,55.234c-34.362,38.115-19.59,81.01,13.505,111.809
				C2252.632,4555.588,2304.053,4574.305,2342.983,4564.074z"/>
			<path id="_x31_80610093_1_" fill="#54BF94" stroke="#000000" d="M1972.631,3415.988c-6.943,27.486,26.212,58.363,43.731,73.936
				c69.378,61.693,98.39,151.119,148.124,222.365c12.833,18.395,24.592,37.865,38.199,55.654
				c20.461,26.756,53.315,48.609,86.534,57.916l-1.204,5.494c-63.412,113.225-179.453,166.131-278.687,239.262
				c-16.998,12.525-33.131,25.674-47.219,41.385l-1.834,1.211c-37.101-56.561-74.506-112.955-109.238-171.117
				c-69.669-116.637-147.527-224.516-229.092-332.904c-69.406-92.246-121.021-197.596-80.149-314.092
				c18.738-53.412,47.174-98.641,82.74-136.654l5.219,4.602c42.199,41.945,96.079,77.256,140.937,118.379
				c50.59,46.391,127.405,116.01,195.397,131.184L1972.631,3415.988z"/>
			<path id="_x31_80610096_1_" fill="#54BF94" stroke="#000000" d="M2492.524,3546.551c8.307-22.998,17.209-45.693,26.066-68.047
				c18.697-47.178,30.193-96.174,41.887-145.166l1.244-15.686c1.059-26.5,6.992-43.387,7.426-67.002
				c0.283-15.061,3.73-30.846-0.451-45c-13.084-44.342-20.689-61.297-46.26-91.992c-46.957-56.365-156.423-110.93-240.147-121.754
				c-28.439-3.678-54.226-6.354-84.858-7.84l-0.358,5.57c4.697,125.908-29.614,281.111-61.809,402.313l-1.417,7.027
				c73.756,10.881,151.957,33.688,197.373,97.076c14.49,20.223,24.698,40.563,47.706,52.516
				c27.917,14.5,80.575,25.719,108.845,7.102L2492.524,3546.551z"/>
			<path id="_x31_80610094_1_" fill="#54BF94" stroke="#000000" d="M2342.08,4303.023c-22.468,18.738-42.322,39.053-67.106,54.709
				c-19.738,12.463-38.976,25.998-55.974,42.008l-21.647-7.131c-1.07-3.455-2.709-6.586-5.088-9.184l-5.886-5.027
				c-18.916-13.803-47.008-21.695-63.086-33.289c-32.17-23.197-54.074-57.84-74.039-91.387
				c-28.359-47.66-58.564-94.141-88.976-140.51l1.834-1.211c14.086-15.713,30.219-28.861,47.221-41.391
				c99.231-73.127,215.271-126.033,278.685-239.258l1.204-5.492c5.152,1.441,10.315,2.58,15.442,3.391
				c16.24,2.57,35.438,2.285,54.269-1.314c35.807-6.828,71.273-16.988,89.563,18.402c27.621,53.443,47.166,144.582,62.729,202.52
				c6.119,22.785,10.834,69.088,12.078,95.305c1.299,27.527,11.09,67.531-1.719,86.992c-7.422,11.277-22.217,16.002-36.338,20.01
				c-15.377,6.875-30.793,5.863-43.918,8.309c-8.459,1.58-17.613,2.936-28.953,4.975
				C2385.368,4269.299,2362.687,4285.83,2342.08,4303.023z"/>
			<path id="_x31_80610098_1_" fill="#54BF94" stroke="#000000" d="M1567.459,3937.279
				c54.412,119.635,152.771,289.457,257.104,377.916c1.971,1.67,3.968,3.313,5.978,4.938c0.451,0.365,0.91,0.73,1.367,1.096
				c1.328,1.061,2.668,2.115,4.01,3.158c1.374,1.063,2.744,2.119,4.144,3.176c0.389,0.303,0.784,0.6,1.182,0.893
				c6.447,4.848,13.181,9.637,20.12,14.396c0.243,0.17,0.486,0.336,0.729,0.5c1.364,0.932,2.74,1.865,4.126,2.799
				c1.56,1.051,3.114,2.1,4.676,3.143c0.325,0.213,0.653,0.434,0.981,0.652c2.049,1.357,4.1,2.709,6.158,4.059
				c0.334,0.223,0.67,0.441,1.004,0.66c1.499,0.984,3.002,1.961,4.506,2.939c6.47,4.197,13.031,8.4,19.64,12.625
				c24.355,15.549,48.781,31.02,71.823,48.438c0.471,0.357,0.94,0.713,1.406,1.063c0.729,0.557,1.455,1.109,2.176,1.668
				c1.7,1.307,3.383,2.615,5.054,3.938c0.021,0.016,0.043,0.033,0.062,0.051c0.066,0.053,0.135,0.107,0.198,0.152
				c1.733,1.377,3.453,2.762,5.151,4.154c0.255,0.207,0.507,0.41,0.76,0.617c1.643,1.354,3.271,2.713,4.887,4.084
				c0.46,0.395,0.921,0.791,1.382,1.182c1.365,1.178,2.719,2.354,4.057,3.537c0.695,0.613,1.381,1.24,2.069,1.859
				c0.971,0.875,1.928,1.748,2.88,2.631c0.774,0.717,1.554,1.434,2.319,2.158c1.144,1.08,2.271,2.162,3.389,3.254
				c0.691,0.674,1.384,1.354,2.068,2.041c1.241,1.234,2.47,2.477,3.673,3.729c0.531,0.551,1.054,1.104,1.576,1.658
				c1.257,1.324,2.494,2.654,3.712,4c0.275,0.309,0.554,0.613,0.827,0.924c1.44,1.602,2.834,3.215,4.209,4.846
				c0.107,0.129,0.223,0.248,0.327,0.373c0.047,0.059,0.087,0.109,0.132,0.164c5.534,6.604,10.592,13.441,15.062,20.551
				c0.757,1.203,1.499,2.418,2.222,3.641c21.67,36.578,1.165,88.67-38.172,103.857c-12.606,4.863-37.022,0.432-27.977,20.154
				c4.803,10.486,27.224,15.313,36.861,19.58c160.307,71.133,289.075,86.43,464.762,80.805c12.436-0.396,25.582-0.377,37.564-3.664
				c4.855-1.332,9.949-4.896,14.371-7.326c5.205-2.863,10.412-5.734,15.602-8.613c10.199-5.666,20.361-11.393,30.471-17.213
				c38.01-21.889,75.309-45.172,110.271-71.715c35.002-26.576,67.59-56.488,95.486-90.51c18.664-22.77,35.111-46.994,49.939-72.232
				c-14.529-8.121-29.67-15.273-48.4-20.703c-37.848-10.986-77.627-21.988-115.605-32.322
				c-41.688-11.338-79.17-33.869-103.156-70.459c-10.596-16.164-18.297-34.248-23.818-52.73
				c-2.432-8.158-1.881-31.412-10.531-35.906c-7.404-3.852-50.078,15.516-54.373,21.83c-12.045,17.711,16.193,26.111,25.65,40.127
				c10.934,16.193,15.318,36.467,17.02,55.641c10.836,122.182-63.75,184.615-177.584,214.535
				c-38.929,10.229-90.35-8.488-123.444-39.297c-15.984-14.873-27.688-32.563-31.655-51.174c-3.382-15.852-1.144-32.365,8.85-48.385
				c2.176-10.67,3.655-23.166,0.503-32.941c-0.06-0.188-0.118-0.373-0.184-0.551c-0.11-0.322-0.231-0.645-0.351-0.957
				c-0.066-0.17-0.128-0.336-0.195-0.496c-0.168-0.42-0.349-0.83-0.536-1.236c-0.025-0.051-0.049-0.107-0.072-0.164
				c-0.211-0.443-0.445-0.887-0.686-1.316c-0.079-0.145-0.165-0.277-0.245-0.422c-0.175-0.295-0.354-0.59-0.542-0.879
				c-0.097-0.154-0.195-0.303-0.298-0.453c-0.192-0.283-0.396-0.564-0.603-0.834c-0.099-0.137-0.191-0.268-0.291-0.393
				c-0.313-0.389-0.637-0.779-0.978-1.146l-5.884-5.025c-18.916-13.809-47.008-21.699-63.088-33.293
				c-32.171-23.197-54.073-57.84-74.037-91.387c-3.759-6.322-7.552-12.621-11.374-18.895c-1.292-2.121-2.602-4.23-3.896-6.352
				c-2.541-4.148-5.087-8.305-7.658-12.443c-1.553-2.504-3.118-5.004-4.681-7.504c-2.345-3.752-4.688-7.5-7.044-11.238
				c-1.656-2.625-3.323-5.242-4.982-7.865c-2.299-3.619-4.596-7.244-6.908-10.855c-1.69-2.645-3.388-5.289-5.086-7.938
				c-2.326-3.611-4.651-7.225-6.98-10.83c-1.679-2.598-3.354-5.189-5.038-7.783c-2.42-3.736-4.85-7.471-7.277-11.201
				c-1.587-2.43-3.17-4.861-4.755-7.291c-2.715-4.152-5.432-8.303-8.147-12.451c-1.286-1.971-2.58-3.939-3.872-5.91
				c-37.514-57.217-75.383-114.238-110.517-173.068c-69.666-116.641-147.524-224.521-229.089-332.91
				c-69.404-92.242-121.021-197.596-80.149-314.088c100.234-285.699,477.825-337.156,740.482-303.197
				c51.643,6.67,103.695,21.416,147.229,50.83c18.166,12.271,37.893,20.338,54.777,30.855
				c16.805,10.475,23.807,29.557,50.982,26.441c12.428,18.057,57.41,17.906,78.514,25.129c10.984-6.141,19.496-14.908,26.742-25.076
				c24.535-51.34,55.906-103.051,95.742-136.408c7.098-11.594,9.629-21.486,2.219-26.271c-0.613-0.396-6.172-2.68-4.803-1.189
				c-40.695-52.984-121.127-58.305-180.152-75.553c-0.17-0.047-0.344-0.098-0.518-0.148c-1.355-0.4-2.705-0.809-4.039-1.223
				c-0.578-0.176-1.156-0.338-1.736-0.525c-11.682-3.701-23.002-8.092-34.061-12.967c-0.215-0.098-0.432-0.188-0.645-0.283
				c-0.096-0.039-0.189-0.086-0.285-0.125c-33.309-14.773-64.258-33.982-95.498-52.566c-14.444-8.59-28.957-17.043-43.797-24.852
				c-9.074-4.777-18.084-9.064-27.035-12.908c-0.8-0.34-1.599-0.684-2.398-1.02c-0.817-0.346-1.638-0.686-2.456-1.021
				c-1.621-0.666-3.234-1.326-4.854-1.963c-0.327-0.129-0.652-0.252-0.979-0.377c-1.636-0.639-3.267-1.268-4.897-1.873
				c-0.271-0.102-0.541-0.205-0.814-0.307c-38.426-14.23-75.835-20.338-112.703-20.602c-0.155,0.002-0.313-0.002-0.466,0.002
				c-1.83-0.012-3.666-0.014-5.503,0.008c-0.035,0.004-0.068,0-0.101-0.002c-1.606,0.021-3.216,0.053-4.816,0.09
				c-0.73,0.02-1.459,0.037-2.187,0.061c-0.801,0.023-1.604,0.053-2.399,0.082c-1.997,0.074-3.99,0.158-5.979,0.262
				c-0.012,0.002-0.021,0.002-0.035,0c-106.045,5.641-208.377,56.471-318.623,96.832c-2.844,1.039-5.672,2.115-8.494,3.193
				c-57.807,22.424-124.523,60.672-185.063,98.813c-7.346,4.811-14.666,9.654-21.958,14.541
				c-27.315,18.314-54.538,35.77-80.871,55.51c-20.564,15.412-41.27,30.631-61.771,46.113c-5.445,4.346-10.906,8.734-16.348,13.135
				l-15.962,52.615c0.045,0.287,0.072,0.588,0.104,0.887c0.009,0.109,0.026,0.211,0.036,0.32c0.033,0.48,0.051,0.98,0.049,1.504
				c-0.002,0.098-0.014,0.199-0.016,0.297c-0.009,0.428-0.028,0.865-0.064,1.326c-0.019,0.188-0.04,0.389-0.06,0.584
				c-0.039,0.381-0.083,0.768-0.134,1.166c-0.03,0.227-0.073,0.465-0.105,0.695c-0.063,0.387-0.129,0.785-0.207,1.189
				c-0.046,0.244-0.096,0.496-0.148,0.752c-0.081,0.414-0.172,0.832-0.275,1.266c-0.06,0.258-0.118,0.51-0.185,0.773
				c-0.112,0.465-0.237,0.943-0.368,1.424c-0.057,0.234-0.124,0.475-0.186,0.713c-0.172,0.604-0.355,1.223-0.548,1.85
				c-0.036,0.133-0.073,0.258-0.114,0.393c-0.242,0.771-0.501,1.561-0.773,2.367c-0.059,0.193-0.134,0.391-0.201,0.584
				c-0.208,0.615-0.424,1.232-0.65,1.863c-0.107,0.295-0.222,0.598-0.335,0.898c-0.201,0.547-0.404,1.096-0.618,1.66
				c-0.127,0.33-0.262,0.668-0.393,1.004c-0.21,0.547-0.429,1.098-0.657,1.658c-0.136,0.352-0.277,0.697-0.424,1.047
				c-0.232,0.57-0.472,1.152-0.716,1.736c-0.144,0.344-0.288,0.688-0.437,1.039c-0.267,0.635-0.544,1.279-0.83,1.928
				c-0.129,0.307-0.259,0.605-0.396,0.914c-0.377,0.869-0.773,1.748-1.172,2.637c-0.044,0.092-0.082,0.182-0.124,0.279
				c-0.451,0.99-0.915,1.996-1.386,3.012c-0.137,0.295-0.277,0.596-0.42,0.895c-0.332,0.727-0.673,1.449-1.021,2.18
				c-0.184,0.387-0.372,0.777-0.561,1.17c-0.313,0.654-0.634,1.316-0.953,1.984c-0.205,0.414-0.41,0.838-0.612,1.256
				c-0.325,0.66-0.649,1.32-0.979,1.99c-0.205,0.42-0.416,0.844-0.627,1.266c-0.341,0.689-0.689,1.383-1.038,2.078
				c-0.204,0.406-0.405,0.816-0.608,1.219c-0.393,0.775-0.791,1.559-1.19,2.338c-0.17,0.334-0.337,0.666-0.507,1.002
				c-1.151,2.244-2.33,4.529-3.54,6.838c-0.202,0.387-0.412,0.775-0.612,1.166c-0.407,0.773-0.817,1.551-1.229,2.326
				c-0.24,0.455-0.479,0.908-0.721,1.365c-0.388,0.727-0.772,1.457-1.165,2.193c-0.255,0.479-0.509,0.949-0.762,1.424
				c-0.386,0.721-0.768,1.438-1.152,2.158c-0.264,0.486-0.521,0.971-0.785,1.457c-0.401,0.748-0.81,1.498-1.212,2.25
				c-0.244,0.455-0.486,0.906-0.732,1.359c-0.461,0.846-0.922,1.693-1.383,2.541c-0.195,0.361-0.39,0.723-0.584,1.084
				c-0.657,1.207-1.318,2.414-1.984,3.639c-0.123,0.219-0.249,0.455-0.376,0.684c-0.542,0.992-1.087,1.986-1.636,2.984
				c-0.267,0.496-0.544,0.996-0.815,1.496c-0.401,0.729-0.804,1.465-1.208,2.197c-0.326,0.584-0.648,1.174-0.968,1.758
				c-0.347,0.631-0.688,1.26-1.042,1.891c-0.38,0.693-0.763,1.391-1.148,2.094c-0.257,0.471-0.519,0.943-0.776,1.416
				c-2.399,4.346-4.803,8.711-7.193,13.055c-0.045,0.084-0.091,0.162-0.138,0.248c-0.633,1.152-1.266,2.309-1.897,3.457
				c-0.184,0.33-0.359,0.654-0.543,0.984c-0.493,0.896-0.98,1.789-1.47,2.689c-0.246,0.439-0.484,0.883-0.729,1.324
				c-0.434,0.789-0.858,1.576-1.29,2.363c-0.258,0.467-0.511,0.934-0.765,1.4c-0.426,0.779-0.847,1.561-1.268,2.336
				c-0.25,0.461-0.498,0.914-0.745,1.369c-0.438,0.811-0.872,1.607-1.308,2.416c-0.228,0.418-0.452,0.838-0.679,1.256
				c-0.527,0.986-1.06,1.973-1.586,2.953c-0.118,0.215-0.236,0.436-0.354,0.652c-0.644,1.203-1.281,2.408-1.914,3.598
				c-0.152,0.295-0.311,0.59-0.465,0.881c-0.467,0.885-0.938,1.773-1.4,2.648c-0.218,0.414-0.43,0.824-0.648,1.238
				c-0.399,0.762-0.797,1.521-1.191,2.279c-0.23,0.445-0.461,0.885-0.688,1.324c-0.371,0.717-0.742,1.436-1.11,2.148
				c-0.233,0.453-0.469,0.908-0.702,1.367c-0.356,0.699-0.714,1.404-1.071,2.098c-0.221,0.436-0.442,0.875-0.666,1.313
				c-0.379,0.75-0.752,1.49-1.127,2.23c-0.186,0.369-0.373,0.742-0.553,1.111c-0.498,0.988-0.982,1.967-1.458,2.941
				c-0.058,0.117-0.117,0.232-0.172,0.346c-0.53,1.086-1.056,2.164-1.57,3.23c-0.151,0.309-0.294,0.609-0.441,0.914
				c-0.356,0.752-0.718,1.502-1.065,2.244c-0.182,0.383-0.357,0.764-0.538,1.146c-0.307,0.652-0.604,1.301-0.903,1.945
				c-0.19,0.408-0.374,0.816-0.56,1.219c-0.278,0.613-0.556,1.225-0.823,1.826c-0.186,0.404-0.364,0.807-0.538,1.203
				c-0.275,0.611-0.539,1.213-0.795,1.813c-0.165,0.371-0.326,0.752-0.488,1.117c-0.28,0.65-0.544,1.287-0.812,1.922
				c-0.128,0.313-0.264,0.625-0.393,0.924c-0.387,0.936-0.76,1.857-1.12,2.76
				C1315.203,3504.744,1484.387,3754.617,1567.459,3937.279z"/>
			<path id="_x31_80610128_1_" fill="#CCCCCC" stroke="#000000" d="M1284.396,3323.641
				c13.935-84.523,106.032-207.996,194.74-220.396c33.013-0.006-55.354,128.246-79.762,189.668
				c-84.172,211.832,85.012,461.705,168.09,644.377c54.404,119.635,152.767,289.455,257.1,377.914
				c65.506,55.535,175.462,100.506,220.035,175.742c29.51,49.809-17.123,112.229-67.099,109.26
				c-62.988-3.73-127.209-62.334-176.182-98.307c-54.728-40.213-98.528-84.518-144.703-134.643
				c-79.759-86.594-150.147-182.668-204.081-287.477c-13.484-26.201-25.788-53.078-37.492-80.1
				c-26.753-61.803-50.576-125.635-70.16-190.064c-20.385-67.047-39.078-133.104-51.98-199.537
				C1274.765,3516.629,1268.107,3422.422,1284.396,3323.641z"/>
			<path id="_x31_80610129_1_" fill="#CCCCCC" stroke="#000000" d="M2196.901,3493.977c32.61-5.936,64.052,0.211,92.264,17.223
				c11.765,7.096,28.589,26.143,43.117,23.033c9.704-2.068,6.188-15.783,3.735-22.295
				c-34.981-92.986-183.901-114.764-267.496-119.533c-27.045-1.545-80.019-13.32-94.194,18.674
				c-12.679,28.637,23.465,62.338,42.033,78.846c69.378,61.693,98.39,151.119,148.124,222.367
				c12.833,18.395,24.592,37.865,38.199,55.654c23.636,30.902,63.805,55.275,101.979,61.307c51.107,8.078,115.419-9.234,121.825-69
				c6.09-57.246-80.944-43.645-112.918-66.543c-27.947-20.002-35.535-43.879-53.655-77.014
				c-15.428-28.188-34.987-52.432-55.351-77.154c-9.123-11.074-32.573-39.9-8.953-45.299
				C2196.027,3494.145,2196.458,3494.055,2196.901,3493.977z"/>
			<path id="_x31_80610127_1_" fill="#AAAAAA" stroke="#000000" d="M2227.582,3567.865c-6.935-9.045-37.371-44.742-41.273-53.629
				c-12.797-29.143,30.919-23.32,61.907-17.891c51.729,9.066,117.923,69.941,151.481,106.658
				c18.317,20.061,30.739,43.898,14.829,68.504c-22.348,34.363-42.428,45.256-65.198,37.658c-16.165-5.393-40.146-16.666-54.673-33
				c-14.425-16.201-23.595-39.859-31.992-55.699C2251.495,3599.426,2242.132,3586.893,2227.582,3567.865z"/>
		</g>
	</g>
</g>
</svg>
