<?xml version="1.0" encoding="utf-8"?>
<!-- Generator: Adobe Illustrator 16.0.0, SVG Export Plug-In . SVG Version: 6.00 Build 0)  -->
<!DOCTYPE svg PUBLIC "-//W3C//DTD SVG 1.1//EN" "http://www.w3.org/Graphics/SVG/1.1/DTD/svg11.dtd">
<svg version="1.1" id="Layer_1" xmlns="http://www.w3.org/2000/svg" xmlns:xlink="http://www.w3.org/1999/xlink" x="0px" y="0px"
	 width="5280px" height="4848px" viewBox="0 0 5280 4848" enable-background="new 0 0 5280 4848" xml:space="preserve">
<g>
	<g transform="scale(1.0)">
		<g id="_x31_80609323" transform=" scale(1.0, 1.0)">
			<path id="_x31_80609325" fill="#BFDAE3" stroke="#000000" d="M4518.078,1661.018c25.889,57.914,44.707,122.998,54.676,194.024
				c31.367,223.478-69.965,427.579-160.997,663.283c-18.016,46.644-84.897,218.524-167.525,380.679
				c-94.725,185.894-205.709,361.52-212.355,363.747c-13,4.358-125.28,194.388-297.272,326.744
				c-114.257,87.926-264.94,135.576-393.808,140.241c-168.215,6.093-357.8-110.242-495.322-196.512
				c-95.74-60.06-141.494-180.392-160.532-287.827c-48.109-271.486-54.038-434.37-34.498-691.465
				c14.469-190.383,41.998-412.481,57.996-593.861c29.11-330.049,176.636-653.111,468.894-774.929
				c74.141-30.903,214.537-67.808,294.641-67.098c115.896,1.029,235.778,32.926,346.181,65.793
				c176.022,52.407,374.591,115.495,517.037,235.813C4409.573,1482.487,4478.168,1571.736,4518.078,1661.018z"/>
			<path id="_x31_80609326" fill="#B0FFB8" stroke="#000000" d="M4572.754,1855.043c-10.014-71.365-28.66-135.832-54.676-194.024
				c-40.098-89.71-108.153-178.229-182.89-241.365c-143.126-120.895-340.177-183.156-517.037-235.813
				c-110.936-33.025-229.735-64.761-346.181-65.793c-80.494-0.716-176.521,27.751-253.423,52.252
				c-325.353,103.689-477.332,458.963-508.584,774.463c-18.039,182.063-41.316,372.576-55.852,563.868
				c-19.627,258.327-22.007,518.201,38.383,761.584c26.399,106.406,57.574,201.726,153.771,262.071
				c138.188,86.682,328.679,203.575,497.699,197.45c324.396-11.74,516.9-227.496,690.153-472.358
				c162.181-229.211,276.775-487.602,382.167-746.498C4499.109,2307.43,4604.271,2079.594,4572.754,1855.043z M3768.425,2131.376
				c-1.859,25.315-33.555,46.917-46.605,65.989c-40.617,59.374-66.386,121.265-82.522,191.331
				c-2.832,12.295-7.14,72.376-23.304,76.809c-17.588,4.832-21.256-29.688-22.646-40.95c-6.397-51.992,7.958-82.822,9.945-134.58
				c0.512-13.435-5.451-85.739-10.278-141.761c-3.702-42.832-8.675-109.129-5.834-147.779
				c19.404-67.184,113.229,47.519,136.055,67.775C3738.947,2082.161,3770.249,2106.445,3768.425,2131.376z"/>
			<path id="_x31_80609327" fill="#9AD2BD" stroke="#000000" d="M4572.754,1855.043c-10.014-71.365-28.66-135.832-54.676-194.024
				c-40.098-89.71-108.153-178.229-182.89-241.365c-143.126-120.895-340.177-183.156-517.037-235.813
				c-110.936-33.025-229.735-64.761-346.181-65.793c-80.494-0.716-176.521,27.751-253.423,52.252
				c-325.353,103.689-477.332,458.963-508.584,774.463c-42.399,427.916-122.586,901.84-17.469,1325.453
				c26.399,106.405,57.574,201.725,153.771,262.07c138.188,86.682,328.679,203.575,497.699,197.45
				c324.396-11.74,516.9-227.496,690.153-472.358c162.181-229.211,276.775-487.602,382.167-746.498
				C4499.109,2307.43,4604.271,2079.594,4572.754,1855.043z M3768.425,2131.376c-1.859,25.315-33.555,46.917-46.605,65.989
				c-40.617,59.374-66.386,121.265-82.522,191.331c-2.832,12.295-7.14,72.376-23.304,76.809
				c-17.588,4.832-21.256-29.688-22.646-40.95c-6.397-51.992,7.958-82.822,9.945-134.58c0.512-13.435-5.451-85.739-10.278-141.761
				c-3.702-42.832-8.675-109.129-5.834-147.779c19.404-67.184,113.229,47.519,136.055,67.775
				C3738.947,2082.161,3770.249,2106.445,3768.425,2131.376z"/>
			<path id="_x31_80609328" fill="#9AD2BD" stroke="#000000" d="M4558.221,1778.982c-9.861-40.413-23.168-79.979-40.143-117.964
				c-21.332-47.724-50.57-95.113-84.526-138.521l-13.895-16.164c-19.517,25.201-41.334,49.896-61.098,75.913
				c-15.822,20.843-30.34,42.529-41.301,66.002c-22.023,47.179-34.945,104.002-70.906,143.312
				c-24.215,26.467-66.599,38.403-101.672,43.068c-30.646,4.077-62.99-2.456-92.214,10.172
				c-53.164,22.963-100.034,56.149-150.776,83.297c-56.491,30.202-131.373,53.877-188.351,11.207
				c-45.812-34.302-90.584-104.397-111.916-156.44c-6.149-15.017-10.713-30.271-14.68-45.958c-4.23-16.773-9.988-33.09-9.066-50.674
				c1.126-21.617,13.007-40.161,19.396-60.406c11.959-37.884,5.852-78.425,15.063-116.77c9.152-38.133,20.353-77.77,33.939-114.813
				c28.813-78.553,44.874-159.312,64.057-240.598l-22.126-5.48c-71.298-17.136-144.115-29.481-216.036-30.118
				c-80.493-0.716-176.52,27.751-253.422,52.252c-325.353,103.689-477.332,458.963-508.584,774.463
				c-42.399,427.916-122.587,901.84-17.469,1325.453c26.398,106.405,57.573,201.725,153.771,262.07
				c138.188,86.682,328.68,203.575,497.7,197.45c324.396-11.74,502.903-215.798,670.81-447.508c0,0-2.509-10.986-48.286-47.04
				c-30.289-23.854-76.74-65.823-86.899-104.53c-17.554-66.966,35.875-108.519-17.494-178.579
				c-21.162-27.785-55.127-40.029-76.92-66.092c-15.002-17.934-28.975-39.688-44.771-66.231
				c4.812-95.25-41.428-183.355-51.271-242.125c-11.207-66.927-11.821-131.064,3.274-201.719
				c13.238-61.946,56.193-116.254,96.154-162.467c33.034-38.191,50.87-87.71,69.849-126.485
				c19.157-39.155,48.508-75.128,78.779-106.39c54.947-56.76,117.742-74.795,196.913-69.711
				c23.09,1.479,47.971-20.264,68.271-29.723c29.283-13.646,62.711-15.75,94.287-20.295c53.685-7.736,106.1-18.787,160.22-23.166
				c26.186-2.125,54.426-15.938,80.705-8.101c15.85,4.729,21.828,16.172,25.539,29.252c3.045,10.692,8.238,18.867,13.236,28.682
				C4572.141,1850.792,4566.656,1813.561,4558.221,1778.982z M3768.425,2131.376c-1.859,25.315-33.555,46.917-46.605,65.989
				c-40.617,59.374-66.386,121.265-82.522,191.331c-2.832,12.295-7.14,72.376-23.304,76.809
				c-17.588,4.832-21.256-29.688-22.646-40.95c-6.397-51.992,7.958-82.822,9.945-134.58c0.512-13.435-5.451-85.739-10.278-141.761
				c-3.702-42.832-8.675-109.129-5.834-147.779c19.404-67.184,113.229,47.519,136.055,67.775
				C3738.947,2082.161,3770.249,2106.445,3768.425,2131.376z"/>
			<path id="_x31_80609329" fill="#82C7AE" stroke="#000000" d="M3492.52,1188.783c37.214,1.834,68.467-1.616,102.695,19.136
				c14.185,8.606,34.817,30.732,25.162,48.926c-10.67,20.065-44.669,9.25-60.278,2.272
				c-87.539-39.104-169.056-54.231-262.011-28.604c-80.357,22.147-155.375,60.479-190.143,141.344
				c-20.957,48.747-60.415,87.943-83.598,136.725c-19.233,40.447-34.511,82.511-51.349,123.956
				c-16.31,40.132-4.358,77.688-14.952,118.972c-7.207,28.078-33.104,46.174-34.963,78.084
				c-2.234,38.045,16.872,75.516,3.65,113.209c-13.784,39.266-13.042,59.063-8.581,98.836c5.145,45.696-1.74,88.369,11.745,133.057
				c8.632,28.612,25.111,76.093,17.784,105.916c-7.369,29.973-38.35,47.714-29.257,83.181c9.604,37.543,31.362,66.096,34.46,106.887
				c2.822,37.25-0.657,74.925-8.188,111.162c-6.704,32.25,4.923,55.664,9.81,88c4.197,27.856-5.194,47.182,6.781,73.811
				c10.832,24.102,22.748,42.26,27.916,69.196c6.936,36.021,15.841,71.261,23.271,107.332c8.068,39.176,21.033,78.059,44.37,110.944
				c24.778,34.906,65.645,44.511,80.852,87.49c17.58,49.711,38.025,99.217,49.644,150.786c9.853,43.761,5.05,88.332,11.217,132.354
				c5.562,39.688,27.106,53.843,44.072,86.724c14.653,28.387,16.854,77.662,38.724,100.444
				c20.711,21.57,61.694,13.076,87.445,24.519c31.491,13.997,61.941,28.259,97.527,26.791c31.047-1.278,56.354-14.315,85.628-23.276
				c38.597-11.81,83.862-13.48,119.192-33.576c46.912-26.678,84.731-67.057,122.773-104.561
				c39.355-38.813,80.92-83.125,114.434-126.967c16.273-21.307,28.521-46.214,49.838-63.128
				c32.217-25.584,60.68-9.894,36.132,27.248c-33.966,51.392-79.624,100.67-121.146,146.095
				c-96.93,106.062-220.455,200.594-359.104,243.753c-161.507,50.278-435.229-23.141-459.871-217.922
				c-7.574-59.83-18.586-121.414-49.574-174.108c-31.32-53.246-85.168-83.096-115.883-136.357
				c-56.97-98.828-61.165-225.104-56.9-336.172c1.767-45.996,0.759-83.283-12.411-127.619
				c-12.248-41.224-40.232-73.229-63.545-108.236c-23.968-36.012-34.459-74.02-42.45-116.479
				c-17.076-90.724-13.485-185.048,2.294-275.685c28.07-161.152,25.06-324.682,64.287-485.063
				c13.716-56.052,31.32-112.33,52.729-165.909c37.273-93.282,93.654-179.223,161.466-253.194
				c28.069-30.621,59.101-58.459,94.729-80.024c68.194-41.274,146.521-53.591,226.204-47.736
				C3374.077,1185.644,3433.331,1185.866,3492.52,1188.783z"/>
			<path id="_x31_80609333" fill="#82C7AE" stroke="#000000" d="M3603.421,2291.694c-21.641,16.031-33.846,46.58-40.243,70.65
				c-23.565,88.72-26.126,205.289-14.329,273.304c13.579,78.344,22.885,145.445,90.925,232.229
				c18.271,23.315,55.57,45.186,81.604,16.095c8.862-9.906,18.373-45.291,18.305-64.273c15.788,26.544,30.493,48.354,45.496,66.287
				c21.793,26.063,55.758,38.307,76.92,66.092c53.369,70.063-0.06,111.613,17.494,178.588
				c10.814,41.262,11.097,29.107,43.561,60.799c0.699,0.684-87.804,66.506-97.278,71.418
				c-83.139,43.108-207.567,137.664-306.375,82.584c-59.041-32.92-60.115-139.728-84.016-195.311
				c-22.434-52.15-44.013-104.283-64.996-157.025c-72.586-182.426-100.052-361.219-96.93-556.608
				c1.629-102.811-2.2-204.112-15.687-306.143c-15.089-114.207-37.743-229.189-27.841-344.897
				c7.839-91.646,43.895-181.791,91.896-259.571c39.168-63.438,45.488-137.305,123.1-169.926
				c42.469-17.848,85.398-25.857,130.759-21.388c21.733,2.141,82.226,23.269,91.438-5.459
				c-14.8,46.157-33.267,91.343-44.379,138.528c-6.159,26.151-10.671,52.619-16.897,78.569c0.469-1.961-13.792-3.155-14.927-3.045
				c-21.912,2.104-31.722,20.979-37.862,39.471c-8.684,26.148-12.581,53.302-13.835,80.768
				c-1.672,36.554-0.922,73.188-3.097,109.729c-1.355,22.591,1.434,44.997,1.852,67.55c0.93,50.969-7.43,105.102,15.617,152.727
				c6.823,14.069,18.108,28.127,30.084,38.191L3603.421,2291.694z"/>
			<path id="_x31_80609334" fill="#82C7AE" stroke="#000000" d="M4246.354,1791.559c35.961-39.31,48.883-96.133,70.905-143.312
				c10.961-23.473,25.479-45.159,41.301-66.002c19.764-26.019,41.582-50.712,61.098-75.913l13.895,16.164
				c33.956,43.407,63.196,90.798,84.528,138.521c16.973,37.986,30.279,77.551,40.141,117.964
				c8.436,34.579,13.92,71.81,18.143,108.526c-4.998-9.814-10.193-17.989-13.238-28.683c-3.711-13.08-9.688-24.521-25.537-29.252
				c-26.279-7.838-54.521,5.976-80.707,8.101c-54.118,4.379-106.534,15.43-160.219,23.166c-31.576,4.546-65.004,6.647-94.286,20.296
				l-42.869,23.993c49.395-33.104,27.936-70.677-16.505-69.984C4216.15,1827.106,4246.354,1791.559,4246.354,1791.559z"/>
			<path id="_x31_80609332" fill="#9AD2BD" stroke="#000000" d="M3333.485,1437.526c-69.156,93.659-137.548,234.133-147.007,344.757
				c-9.903,115.708,12.752,230.69,27.84,344.897c13.479,102.029,17.315,203.332,15.688,306.142
				c-3.122,195.396,15.626,373.544,88.221,555.971c35.144,88.319,73.252,176.644,106.705,265.637
				c17.281,45.979,34.187,104.043,80.204,130.199c51.049,29.03,109.237,10.738,159.033-4.641
				c38.443-11.891,121.211-66.772,149.064-64.267l25.559-61.952c-6.407,4.508-11.108,7.675-12.919,8.612
				c-83.138,43.108-207.567,137.663-306.374,82.583c-59.042-32.92-60.116-139.727-84.017-195.31
				c-22.434-52.15-44.013-104.283-64.996-157.025c-72.586-182.426-100.052-361.219-96.93-556.608
				c1.629-102.812-2.2-204.112-15.687-306.144c-15.089-114.206-37.742-229.189-27.841-344.896
				c7.839-91.646,43.895-181.791,91.897-259.571c39.168-63.439,45.488-137.306,123.099-169.927
				c25.817-10.85,51.807-18.056,78.406-21.041l-86.025-11.97C3434.565,1339.15,3379.622,1375.04,3333.485,1437.526z"/>
			<path id="_x31_80609331" fill="#82C7AE" stroke="#000000" d="M3437.29,1320.07c4.443,14.534-54.676,50.917-103.806,117.456
				c-69.157,93.659-137.548,234.133-147.007,344.757c-9.903,115.708,12.752,230.69,27.84,344.897
				c13.479,102.029,17.315,203.332,15.688,306.142c-3.122,195.396,15.626,373.544,88.221,555.971
				c35.143,88.319,73.252,176.644,106.705,265.637c17.281,45.979,34.188,104.043,80.204,130.199
				c51.049,29.03,109.237,10.738,159.033-4.641c41.548-12.851,134.87-75.922,154.691-62.492
				c-59.008,41.876-82.089,59.631-113.357,75.832c-49.472,25.628-84.179,41.146-129.521,48.727
				c-65.602,10.961-116.564-13.161-150.974-65.285c-25.47-38.598-39.525-84.57-53.14-128.357
				c-11.378-36.57-17.17-77.841-35.858-111.311c-29.613-53.046-62.47-104.756-80.382-163.286
				c-18.065-59.024-25.358-120.872-37.521-181.231c-20.763-102.998-39.391-205.887-36.142-311.39
				c3.318-107.57,19.038-216.727-6.712-322.847c-5.264-21.699-5.178-44.179-12.078-65.209
				c-55.639-169.699-25.555-375.429,51.825-533.013C3248.155,1493.087,3333.426,1354.534,3437.29,1320.07z"/>
			<path id="_x31_80609330" fill="#9AD2BD" stroke="#000000" d="M3838.79,3254.271l-25.558,61.952c-0.002,0-0.004,0-0.006,0
				c2.251,0.201,4.15,0.77,5.633,1.772c-59.008,41.876-82.089,59.631-113.358,75.832c-49.471,25.628-84.178,41.147-129.521,48.726
				c-65.603,10.961-116.565-13.16-150.974-65.284c-25.471-38.597-39.526-84.57-53.141-128.357
				c-11.378-36.569-17.17-77.841-35.857-111.311c-29.614-53.046-62.471-104.757-80.383-163.286
				c-18.065-59.023-25.357-120.872-37.521-181.23c-20.762-103-39.39-205.888-36.142-311.391
				c3.318-107.57,19.039-216.728-6.711-322.847c-5.265-21.699-5.179-44.18-12.078-65.209
				c-55.639-169.699-25.555-375.43,51.824-533.012c33.154-67.538,118.426-206.093,222.289-240.557
				c0.271,0.885,0.303,1.854,0.117,2.902l86.025,11.97c-0.008,0.001-0.017,0.002-0.023,0.003c17.164-1.928,34.582-2.103,52.376-0.35
				c21.733,2.141,78.707,21.893,91.438-5.459c-2.052,4.409-1.759,6.123,0,0c15.155-52.772,12.989-46.131,26.125-102.797
				c-35.181-11.988-72.31-26.911-105.074-32.11c-14.789-2.349-28.91-3.478-42.758-3.981l-0.288,1.039
				c16.66,1.975,32.956,6.307,49.988,16.633c14.185,8.605,34.817,30.731,25.162,48.925c-10.67,20.065-44.67,9.25-60.278,2.272
				c-87.539-39.104-169.056-54.23-262.011-28.604c-80.357,22.146-155.375,60.479-190.143,141.343
				c-20.957,48.747-60.415,87.944-83.598,136.725c-19.234,40.447-34.512,82.512-51.35,123.956
				c-16.309,40.133-4.357,77.688-14.951,118.972c-7.207,28.079-33.104,46.174-34.963,78.084
				c-2.234,38.046,16.872,75.516,3.65,113.209c-13.783,39.266-13.042,59.063-8.581,98.836c5.145,45.696-1.739,88.37,11.745,133.057
				c8.633,28.612,25.111,76.093,17.784,105.916c-7.369,29.973-38.349,47.714-29.257,83.181
				c9.604,37.543,31.363,66.095,34.46,106.888c2.823,37.248-0.657,74.924-8.188,111.162c-6.704,32.25,4.922,55.664,9.81,87.998
				c4.196,27.857-5.194,47.183,6.78,73.812c10.834,24.101,22.75,42.26,27.918,69.196c6.935,36.021,15.84,71.261,23.27,107.332
				c8.068,39.176,21.033,78.059,44.37,110.943c24.778,34.907,65.644,44.512,80.853,87.491
				c17.58,49.711,38.024,99.216,49.643,150.786c9.852,43.761,5.05,88.332,11.217,132.354c5.562,39.688,27.106,53.844,44.072,86.725
				c14.653,28.387,16.854,77.662,38.725,100.444c20.709,21.571,61.693,13.075,87.444,24.519
				c31.491,13.997,61.941,28.26,97.527,26.791c31.047-1.279,56.354-14.315,85.628-23.277
				c38.597-11.809,83.862-13.479,119.191-33.575c46.912-26.677,84.732-67.056,122.774-104.561
				c39.354-38.813,80.92-83.125,114.433-126.967c16.274-21.307,28.522-46.214,49.838-63.128c21.809-17.316,41.89-15.72,44.979-1.362
				l9.029-9.645c-4.317-6.067-15.74-18.927-45.709-42.528c-13.661-10.759-30.604-25.208-46.028-41.376
				c-11.65,9.318-58.223,43.968-81.712,60.488C3838.764,3254.29,3838.777,3254.28,3838.79,3254.271z"/>
			<path id="_x31_80609335" fill="#9DF0D2" stroke="#000000" d="M4403.52,1487.633c-19.524,25.2-41.343,49.895-61.099,75.918
				c-15.821,20.838-30.338,42.523-41.299,65.996c-22.023,47.179-34.945,104.002-70.916,143.312
				c-13.596,14.866-32.063,24.567-50.845,31.223c-19.626,6.947-39.894,8.524-59.801,13.873
				c-23.439,6.291-44.959,17.285-67.095,26.847c-53.164,22.962-100.033,56.149-150.775,83.296
				c-56.492,30.203-131.373,53.877-188.352,11.207c-45.812-34.301-90.584-104.396-111.916-156.439
				c-12.461-30.421-24.914-67.227-23.422-100.504c0.588-13.075,5.33-24.944,12.7-35.638c7.199-10.447,18.458-17.431,25.019-28.267
				c7.438-12.262,8.28-29.529,10.694-43.395c3.736-21.4,6.772-42.946,11.849-64.087c9.16-38.132,20.352-77.772,33.947-114.813
				c28.813-78.554,44.797-154.42,63.979-235.707c96.188,26.271,69.175,19.588,81.961,23.384
				c176.86,52.657,373.911,114.919,517.036,235.813C4358.219,1439.104,4403.52,1487.633,4403.52,1487.633z"/>
			<path id="_x31_80609338" fill="#9DF0D2" stroke="#000000" d="M3824.644,1423.581c-14.979-4.67-29.648-10.462-42.946-18.553
				c-20.939-12.734-32.421-25.869-55.938-35.695c-37.104-15.503-32.565-84.388-9.093-109.898
				c23.884-25.964,53.455-7.469,79.026-0.623c11.601,3.113,19.608,3.011,31.474,2.363c24.388-1.332,36.764-0.713,54.42,14.418
				c24.188,20.748,30.441-10.541,57.693-16.035c36.26-7.314,89.022,9.451,123.746,20.858c41.6,13.668,81.253,32.954,117.026,58.304
				c19.056,13.507,66.13,35.688,76.331,57.729c8.154,17.627-19.047,28.535-36.422,30.301c-13.383,1.361-27.637-5.168-40.813-6.807
				c-109.827-13.664-220.047,38.103-328.936,10.709C3841.72,1428.514,3833.13,1426.229,3824.644,1423.581z"/>
			<path id="_x31_80609336" fill="#95E4C8" stroke="#000000" d="M3691.966,1920.743c7.046,6.926,14.193,13.184,21.375,18.561
				c56.978,42.67,131.857,18.996,188.351-11.207c89.757-47.991,167.418-106.207,269.798-121.428
				c32.523-4.836,96.078-46.361,52.049-85.248c-22.586-19.941-54.096-26.664-83.429-23.363
				c-57.83,6.521-106.219,46.461-165.013,50.449c-99.003,6.721-204.667-29.77-293.494-75.961c-22.39-11.643-71-44.669-91.633-24.245
				c-26.28,26.012,0.512,107.874,11.455,134.567C3619.413,1826.748,3654.079,1883.473,3691.966,1920.743z"/>
			<path id="_x31_80609337" fill="#9DF0D2" stroke="#000000" d="M3747.306,1628.174c94.559,38.605,211.115,43.117,303.984,16.151
				c15.021-4.358,278.319-92.371,164.16-158.463c-53.914-31.188-125.409,16.301-179.657,25.479
				c-69.337,11.729-139.724,14.556-207.771-5.921c-33.257-10.005-69.542-22.049-92.64-49.395
				c-12.684-15.025-26.553-94.222-51.996-72.245c-14.287,12.329-24.591,51.318-30.775,73.64c-9.739,35.154-23.84,73.789-15.65,90.96
				c10.628,22.287,27.576,33.41,61.327,53.297C3703.063,1604.484,3742.171,1626.081,3747.306,1628.174z"/>
			<path id="_x31_80609339" fill="#54BF94" stroke="#000000" d="M4535.666,1855.709c-26.277-7.839-54.52,5.976-80.707,8.096
				c-54.118,4.384-106.532,15.43-160.218,23.166c-31.577,4.545-65.004,6.648-94.286,20.295c-20.301,9.465-37.743,5.203-60.815,3.511
				c-84.631-6.213-147.502,13.032-202.448,69.793c-30.271,31.262-58.027,68.059-78.779,106.39
				c-24.182,44.674-36.421,88.104-69.849,126.485c-40.123,46.081-82.481,100.61-96.154,162.467
				c-15.934,72.057-14.482,134.792-3.275,201.719c9.844,58.77,52.662,143.702,50.395,215.223
				c15.788,26.545,57.421,68.411,72.424,86.346c21.793,26.058,55.749,38.302,76.911,66.087
				c53.378,70.065-0.052,111.618,17.503,178.579c10.149,38.712,56.609,80.677,86.898,104.529
				c45.771,36.06,39.696,32.736,69.234-12.97c42.527-65.853,83.871-133.452,120.796-202.614
				c45.188-84.64,90.446-171.15,129.743-258.959c36.25-81.021,69.789-160.729,103.25-242.964
				c45.974-112.952,94.071-223.803,125.837-341.933c21.783-81.054,45.486-176.384,32.336-260.431
				C4572.207,1894.174,4549.486,1859.833,4535.666,1855.709z"/>
			<path id="_x31_80609341" fill="#54BF94" stroke="#000000" d="M4131.836,2669.109c47.885-104.001,104.513-203.993,126.987-316.911
				c22.483-112.966,42.854-227.019,44.722-342.501c0.599-37.112,0.456-80.461-5.058-123.281c-1.248,0.185-2.494,0.373-3.746,0.555
				c-31.576,4.545-65.004,6.648-94.285,20.295c-20.301,9.465-37.744,5.203-60.815,3.511c-1.979-0.146-3.933-0.263-5.888-0.379
				c-9.953,0.555-20.249,0.153-30.1,0.58c-9.063,0.393-18.158,1.059-27.207,2.086c-22.457,58.717,38.044,134.598,27.488,200.798
				c-10.679,66.896-41.063,152.33-70.659,212.992c-32.522,66.68-70.966,138.553-111.319,201.08
				c-31.942,49.506-69.925,74.89-81.722,129.699c-13.385,62.17-62.48,110.948-68.844,176.363
				c15.744,17.963,32.243,35.26,40.56,45.201c21.793,26.059,55.75,38.302,76.911,66.087c16.115,21.154,22.487,39.707,24.023,57.146
				c25.905-36.425,62.676-68.618,86.512-101.85C4051.316,2828.199,4094.612,2749.948,4131.836,2669.109z"/>
			<path id="_x31_80609340" fill="#54BF94" stroke="#000000" d="M3921.956,2527.933c40.354-62.526,78.797-134.4,111.319-201.08
				c29.599-60.662,59.98-146.095,70.659-212.992c10.556-66.2-49.945-142.081-27.488-200.798
				c-28.438,3.229-56.427,10.024-81.637,23.092c-8.071,4.354-15.931,9.279-23.605,14.806c-1.215,0.914-2.42,1.847-3.613,2.802
				c-21.396,17.089-40.467,36.887-58.083,57.834c-18.327,22.289-34.983,46.382-48.777,71.18
				c-14.057,27.1-25.728,55.646-40.132,82.475c-8.705,16.708-18.676,32.855-32.035,48.194
				c-35.949,41.287-73.677,89.361-90.975,143.406c-1.787,5.935-3.42,11.901-4.904,17.896c-0.09,0.39-0.189,0.773-0.275,1.163
				c-8.957,40.51-12.42,78.072-11.744,115.089c0.013,0.504,0.023,1.009,0.036,1.513c0.023,1.077,0.05,2.153,0.079,3.229
				c0.778,24.831,3.283,49.659,7.112,74.206c0.022,0.143,0.043,0.283,0.065,0.426c0.379,2.422,0.771,4.842,1.176,7.259
				c0.248,1.479,0.527,2.952,0.798,4.427c10.95,57.514,50.37,138.128,49.67,207.069c0.083,1.397,0.151,2.802,0.22,4.205
				c7.076,11.752,19.08,26.414,31.57,40.665c6.362-65.415,55.459-114.194,68.844-176.363
				C3852.032,2602.822,3890.014,2577.438,3921.956,2527.933z"/>
			<path id="_x31_80609342" fill="#54BF94" stroke="#000000" d="M4574.459,1908.524c-2.252-14.352-24.975-48.69-38.793-52.814
				c-26.277-7.839-54.52,5.976-80.707,8.096c-15.086,1.222-30.038,2.974-44.925,5.015c13.793,182.343-57.403,379.11-99.846,548.48
				c-48.329,192.909-141.232,352.881-239.451,522.978c-29.888,51.753-48.779,104.85-89.149,150.989
				c-16.763,19.168-48.331,45.243-71.328,43.834c15.047,35.377,55.628,71.731,83.005,93.293
				c45.77,36.059,39.696,32.735,69.234-12.971c42.527-65.853,83.871-133.453,120.795-202.615
				c45.189-84.639,90.447-171.149,129.744-258.957c36.25-81.021,69.789-160.73,103.25-242.965
				c45.974-112.953,94.071-223.803,125.835-341.933C4563.908,2087.901,4587.613,1992.571,4574.459,1908.524z"/>
			<path id="_x31_80609344" fill="#CCCCCC" stroke="#000000" d="M3583.777,2031.624c-37.496-36.949-48.389-69.789-46.93-121.443
				c2.081-73.648-2.96-146.756,2.081-220.289c2.566-37.386,1.194-75.462,14.577-111.161c21.972-58.604,61.268-32.303,102.354-5.388
				c36.37,23.828,76.222,53.469,118.554,65.367c21.646,6.085,43.738,11.544,65.848,15.604c44.32,8.143,91.42,8.534,136.141,3.735
				c25.171-2.703,50.394-7.331,74.891-13.724c56.091-14.624,104.914-50.333,160.61-65.354
				c63.64-17.156,90.371,15.493,123.466,64.919c155.374,232.099,35.604,530.851-25.18,773.409
				c-48.328,192.909-141.232,352.88-239.45,522.978c-29.888,51.753-48.78,104.85-89.15,150.99
				c-25.845,29.551-86.892,75.555-97.441,11.864c-14.134-85.186,71.93-142.153,115.252-202.552
				c51.919-72.382,95.215-150.633,132.438-231.472c47.886-104.001,104.513-203.993,126.988-316.911
				c22.483-112.966,42.853-227.02,44.722-342.501c1.535-95.236-1.801-231.539-88.266-294.615
				c-75.775-55.28-159.033,27.918-240.176,33.429c-107.873,7.317-207.807-34.323-304.914-79.724
				c-31.329-14.69-69.219-51.062-87.045-5.51c-13.178,33.688,5.331,87.996,18.279,119.59
				c21.332,52.038,66.104,122.136,111.916,156.437c56.978,42.67,131.857,18.996,188.351-11.207
				c50.759-27.154,97.654-60.364,150.845-83.33c27.491-11.873,172.604-28.131,126.647,43.377
				c-17.29,26.906-48.142,21.647-75.529,22.834c-48.295,2.094-97.441,11.949-136.063,42.783
				c-29.999,23.961-55.442,53.233-78.687,83.557c-42.604,55.596-56.918,128.574-104.486,180.793
				c-21.086,23.145-41.539,47.476-58.053,74.154c-9.502,15.346-17.58,31.611-23.585,48.642
				c-26.766,75.942-26.843,157.938-13.646,236.725c6.585,39.287,20.982,76.526,32.651,114.453
				c12.282,39.944,18.576,79.696,18.534,121.509c-0.018,24.493-6.875,61.123-21.307,73.005
				c-41.011,33.747-84.094-20.94-104.761-54.862c-80.783-132.507-89.696-324.004-51.075-469.399
				c6.397-24.062,18.604-54.609,40.243-70.642c-2.32,18.91-12.078,87.795-11.779,115.699c0.145,13.413,1.245,55.646,20.002,57.22
				c18.773,1.578,22.611-51.041,24.932-62.841c14.235-72.607,43.501-143.392,85.244-204.406
				c13.051-19.072,46.357-40.608,46.605-65.989c0.332-34.65-46.146-61.102-66.063-84.404c-15.37-17.988-33.077-34.416-51.825-48.806
				c-14.253-10.938-43.834-27.329-60.397-10.718C3585.381,1992.229,3586.694,2034.498,3583.777,2031.624z"/>
			<path id="_x31_80609345" fill="#CCCCCC" stroke="#000000" d="M3054.202,3487.896c-7.573-59.83-18.586-121.414-49.573-174.109
				c-31.32-53.246-85.168-83.095-115.884-136.356c-56.969-98.828-61.164-225.104-56.899-336.173
				c1.767-45.996,0.759-83.282-12.411-127.618c-12.248-41.224-40.232-73.23-63.545-108.236
				c-23.968-36.012-34.459-74.021-42.451-116.479c-17.075-90.724-13.484-185.048,2.295-275.684
				c28.07-161.153,25.06-324.683,64.287-485.063c58.105-237.517,185.448-470.928,426.588-553.916
				c-317.129,108.492-465.773,458.893-496.642,770.504c-18.04,182.063-41.317,372.575-55.853,563.867
				c-19.627,258.327-22.007,518.201,38.384,761.584c26.398,106.406,57.573,201.726,153.771,262.071
				c138.188,86.682,328.68,203.575,497.7,197.45c33.778-1.223,66.122-4.664,97.167-10.113
				C3281.235,3733.32,3075.415,3655.584,3054.202,3487.896z"/>
			<path id="_x31_80609346" fill="#CCCCCC" stroke="#000000" d="M3563.502,1125.676c-64.884-8.679-129.624-9.438-197.341,3.293
				c-18.729,3.521-79.888,13.898-47.714,45.159c12.794,12.437,26.193,7.314,41.438,8.884c26.885,2.768,53.915,4.115,80.868,6.014
				c52.185,3.672,95.777-3.015,147.52,5.203c41.709,6.619,90.49,28.996,133.316,41.014c138.162,38.768,231.459,17.196,227.278-2.128
				c-6.602-30.515-241.805-78.076-266.327-84.097C3642.341,1139.149,3602.892,1130.952,3563.502,1125.676z"/>
			<path id="_x31_80609343" fill="#AAAAAA" stroke="#000000" d="M3593.015,2148.215c-3.702-42.832-8.675-109.129-5.834-147.779
				c19.404-67.184,113.229,47.519,136.055,67.775c15.712,13.949,47.016,38.233,45.189,63.166
				c-1.859,25.314-33.555,46.916-46.605,65.988c-40.617,59.374-66.386,121.266-82.522,191.331
				c-2.832,12.295-7.14,72.376-23.304,76.809c-17.588,4.832-21.256-29.688-22.646-40.95c-6.397-51.992,7.958-82.822,9.945-134.58
				C3603.805,2276.542,3597.842,2204.236,3593.015,2148.215z"/>
		</g>
	</g>
	<g transform="scale(1.0)">
		<g id="_x31_80609323_1_" transform=" scale(1.0, 1.0)">
			<path id="_x31_80609325_1_" fill="#BFDAE3" stroke="#000000" d="M944.809,1419.652
				c142.446-120.318,341.015-183.406,517.037-235.813c110.402-32.867,230.284-64.764,346.181-65.793
				c80.104-0.71,220.5,36.194,294.641,67.098c292.258,121.817,439.783,444.88,468.894,774.929
				c15.998,181.38,43.527,403.478,57.996,593.861c19.54,257.095,13.611,419.979-34.498,691.465
				c-19.038,107.436-64.792,227.768-160.532,287.827c-137.522,86.27-327.107,202.604-495.322,196.512
				c-128.867-4.665-279.551-52.315-393.808-140.241c-171.992-132.356-284.272-322.386-297.272-326.744
				c-6.646-2.228-117.631-177.854-212.355-363.747c-82.628-162.154-149.51-334.035-167.525-380.679
				c-91.033-235.704-192.365-439.805-160.998-663.283c9.969-71.026,28.787-136.11,54.676-194.024
				C801.832,1571.736,870.427,1482.487,944.809,1419.652z"/>
			<path id="_x31_80609326_1_" fill="#B0FFB8" stroke="#000000" d="M863.714,2510.879
				c105.392,258.896,219.986,517.287,382.167,746.498c173.253,244.862,365.757,460.618,690.153,472.358
				c169.021,6.125,359.512-110.769,497.699-197.45c96.197-60.346,127.372-155.665,153.771-262.071
				c60.39-243.383,58.01-503.257,38.383-761.584c-14.535-191.292-37.813-381.804-55.852-563.868
				c-31.252-315.5-183.231-670.773-508.584-774.463c-76.902-24.501-172.929-52.968-253.423-52.252
				c-116.445,1.032-235.245,32.768-346.181,65.793c-176.86,52.657-373.911,114.919-517.037,235.813
				c-74.736,63.136-142.793,151.655-182.891,241.365c-26.016,58.192-44.661,122.659-54.676,194.024
				C675.729,2079.594,780.89,2307.43,863.714,2510.879z M1556.765,2068.211c22.826-20.257,116.65-134.959,136.055-67.775
				c2.841,38.65-2.132,104.947-5.834,147.779c-4.827,56.021-10.79,128.326-10.278,141.761c1.987,51.758,16.343,82.588,9.945,134.58
				c-1.39,11.262-5.058,45.782-22.646,40.95c-16.164-4.433-20.472-64.514-23.304-76.809
				c-16.137-70.066-41.905-131.957-82.522-191.331c-13.051-19.072-44.746-40.674-46.605-65.989
				C1509.751,2106.445,1541.053,2082.161,1556.765,2068.211z"/>
			<path id="_x31_80609327_1_" fill="#9AD2BD" stroke="#000000" d="M863.714,2510.879
				c105.392,258.896,219.986,517.287,382.167,746.498c173.253,244.862,365.757,460.618,690.153,472.358
				c169.021,6.125,359.512-110.769,497.699-197.45c96.197-60.346,127.372-155.665,153.771-262.07
				c105.118-423.612,24.931-897.537-17.469-1325.453c-31.252-315.5-183.231-670.773-508.584-774.463
				c-76.902-24.501-172.929-52.968-253.423-52.252c-116.445,1.032-235.245,32.768-346.181,65.793
				c-176.86,52.657-373.911,114.919-517.037,235.813c-74.736,63.136-142.793,151.655-182.891,241.365
				c-26.016,58.192-44.661,122.659-54.676,194.024C675.729,2079.594,780.89,2307.43,863.714,2510.879z M1556.765,2068.211
				c22.826-20.257,116.65-134.959,136.055-67.775c2.841,38.65-2.132,104.947-5.834,147.779
				c-4.827,56.021-10.79,128.326-10.278,141.761c1.987,51.758,16.343,82.588,9.945,134.58c-1.39,11.262-5.058,45.782-22.646,40.95
				c-16.164-4.433-20.472-64.514-23.304-76.809c-16.137-70.066-41.905-131.957-82.522-191.331
				c-13.051-19.072-44.746-40.674-46.605-65.989C1509.751,2106.445,1541.053,2082.161,1556.765,2068.211z"/>
			<path id="_x31_80609328_1_" fill="#9AD2BD" stroke="#000000" d="M703.636,1887.505c4.998-9.814,10.192-17.989,13.237-28.682
				c3.711-13.08,9.688-24.522,25.538-29.252c26.279-7.838,54.52,5.976,80.706,8.101c54.12,4.379,106.535,15.43,160.22,23.166
				c31.576,4.545,65.004,6.648,94.287,20.295c20.3,9.459,45.181,31.201,68.271,29.723c79.171-5.084,141.966,12.951,196.913,69.711
				c30.271,31.262,59.622,67.234,78.779,106.39c18.979,38.775,36.814,88.294,69.849,126.485
				c39.961,46.213,82.916,100.521,96.154,162.467c15.096,70.655,14.481,134.792,3.274,201.719
				c-9.843,58.77-56.082,146.875-51.271,242.125c-15.796,26.543-29.769,48.298-44.771,66.231
				c-21.793,26.063-55.758,38.307-76.92,66.092c-53.369,70.061,0.06,111.613-17.494,178.579
				c-10.159,38.707-56.61,80.676-86.899,104.53c-45.777,36.054-48.286,47.04-48.286,47.04
				c167.906,231.71,346.414,435.768,670.81,447.508c169.021,6.125,359.512-110.769,497.7-197.45
				c96.197-60.346,127.372-155.665,153.771-262.07c105.119-423.612,24.931-897.537-17.469-1325.453
				c-31.252-315.5-183.231-670.773-508.584-774.463c-76.902-24.501-172.929-52.968-253.422-52.252
				c-71.921,0.637-144.738,12.982-216.036,30.118l-22.126,5.48c19.183,81.286,35.244,162.045,64.057,240.598
				c13.587,37.044,24.787,76.681,33.939,114.813c9.211,38.345,3.104,78.886,15.063,116.77c6.39,20.245,18.271,38.789,19.396,60.406
				c0.922,17.584-4.836,33.9-9.066,50.674c-3.967,15.688-8.53,30.941-14.68,45.958c-21.332,52.043-66.104,122.139-111.916,156.44
				c-56.978,42.67-131.859,18.995-188.351-11.207c-50.742-27.147-97.612-60.334-150.776-83.297
				c-29.224-12.628-61.567-6.095-92.214-10.172c-35.073-4.665-77.457-16.602-101.672-43.068
				c-35.961-39.31-48.883-96.133-70.906-143.312c-10.961-23.473-25.479-45.159-41.301-66.002
				c-19.764-26.018-41.581-50.712-61.098-75.913l-13.895,16.164c-33.956,43.408-63.195,90.798-84.527,138.521
				c-16.975,37.985-30.281,77.551-40.142,117.964C713.343,1813.561,707.86,1850.792,703.636,1887.505z M1556.765,2068.211
				c22.826-20.257,116.65-134.959,136.055-67.775c2.841,38.65-2.132,104.947-5.834,147.779
				c-4.827,56.021-10.79,128.326-10.278,141.761c1.987,51.758,16.343,82.588,9.945,134.58c-1.39,11.262-5.058,45.782-22.646,40.95
				c-16.164-4.433-20.472-64.514-23.304-76.809c-16.137-70.066-41.905-131.957-82.522-191.331
				c-13.051-19.072-44.746-40.674-46.605-65.989C1509.751,2106.445,1541.053,2082.161,1556.765,2068.211z"/>
			<path id="_x31_80609329_1_" fill="#82C7AE" stroke="#000000" d="M1964.854,1181.314c79.683-5.854,158.01,6.462,226.204,47.736
				c35.628,21.565,66.659,49.403,94.729,80.024c67.812,73.972,124.192,159.912,161.466,253.194
				c21.409,53.579,39.014,109.857,52.729,165.909c39.228,160.381,36.217,323.91,64.287,485.063
				c15.779,90.637,19.37,184.961,2.294,275.685c-7.991,42.459-18.482,80.467-42.45,116.479
				c-23.313,35.007-51.297,67.013-63.545,108.236c-13.17,44.336-14.178,81.623-12.411,127.619
				c4.265,111.068,0.069,237.344-56.9,336.172c-30.715,53.262-84.563,83.111-115.883,136.357
				c-30.988,52.694-42,114.278-49.574,174.108c-24.642,194.781-298.364,268.2-459.871,217.922
				c-138.648-43.159-262.174-137.691-359.104-243.753c-41.522-45.425-87.181-94.703-121.146-146.095
				c-24.548-37.142,3.915-52.832,36.132-27.248c21.316,16.914,33.564,41.821,49.838,63.128
				c33.514,43.842,75.078,88.153,114.434,126.967c38.042,37.504,75.861,77.883,122.773,104.561
				c35.33,20.096,80.596,21.767,119.192,33.576c29.274,8.961,54.581,21.998,85.628,23.276c35.586,1.468,66.036-12.794,97.527-26.791
				c25.751-11.442,66.734-2.948,87.445-24.519c21.869-22.782,24.07-72.058,38.724-100.444
				c16.966-32.881,38.511-47.036,44.072-86.724c6.167-44.022,1.364-88.594,11.217-132.354
				c11.618-51.569,32.063-101.075,49.644-150.786c15.207-42.979,56.073-52.584,80.852-87.49
				c23.337-32.886,36.302-71.769,44.37-110.944c7.43-36.071,16.335-71.312,23.271-107.332c5.168-26.937,17.084-45.095,27.916-69.196
				c11.976-26.629,2.584-45.954,6.781-73.811c4.887-32.336,16.514-55.75,9.81-88c-7.531-36.237-11.011-73.912-8.188-111.162
				c3.098-40.791,24.856-69.344,34.46-106.887c9.093-35.467-21.888-53.208-29.257-83.181c-7.327-29.823,9.152-77.304,17.784-105.916
				c13.485-44.688,6.601-87.36,11.745-133.057c4.461-39.773,5.203-59.57-8.581-98.836c-13.222-37.693,5.885-75.164,3.65-113.209
				c-1.858-31.91-27.756-50.006-34.963-78.084c-10.594-41.283,1.357-78.84-14.952-118.972
				c-16.838-41.445-32.115-83.509-51.349-123.956c-23.183-48.781-62.641-87.978-83.598-136.725
				c-34.768-80.864-109.785-119.196-190.143-141.344c-92.955-25.627-174.472-10.5-262.011,28.604
				c-15.609,6.978-49.608,17.793-60.278-2.272c-9.655-18.193,10.978-40.319,25.162-48.926
				c34.229-20.752,65.481-17.302,102.695-19.136C1846.669,1185.866,1905.923,1185.644,1964.854,1181.314z"/>
			<path id="_x31_80609333_1_" fill="#82C7AE" stroke="#000000" d="M1696.222,2031.625c11.976-10.064,23.261-24.122,30.084-38.191
				c23.047-47.625,14.688-101.758,15.617-152.727c0.418-22.553,3.207-44.959,1.852-67.55c-2.175-36.541-1.425-73.175-3.097-109.729
				c-1.254-27.466-5.151-54.619-13.835-80.768c-6.141-18.491-15.95-37.366-37.862-39.471c-1.135-0.11-15.396,1.084-14.927,3.045
				c-6.227-25.95-10.738-52.418-16.897-78.569c-11.112-47.186-29.579-92.371-44.379-138.528c9.212,28.728,69.704,7.6,91.438,5.459
				c45.36-4.47,88.29,3.54,130.759,21.388c77.611,32.621,83.932,106.487,123.1,169.926c48.002,77.78,84.058,167.926,91.896,259.571
				c9.902,115.708-12.752,230.69-27.841,344.897c-13.486,102.031-17.315,203.332-15.687,306.143
				c3.122,195.39-24.344,374.183-96.93,556.608c-20.983,52.742-42.563,104.875-64.996,157.025
				c-23.9,55.583-24.975,162.391-84.016,195.311c-98.808,55.08-223.236-39.476-306.375-82.584
				c-9.475-4.912-97.978-70.734-97.278-71.418c32.464-31.691,32.746-19.537,43.561-60.799
				c17.554-66.975-35.875-108.525,17.494-178.588c21.162-27.785,55.127-40.029,76.92-66.092
				c15.003-17.934,29.708-39.743,45.496-66.287c-0.068,18.982,9.442,54.367,18.305,64.273c26.033,29.091,63.332,7.221,81.604-16.095
				c68.04-86.784,77.346-153.886,90.925-232.229c11.797-68.016,9.236-184.584-14.329-273.304
				c-6.397-24.07-18.603-54.619-40.243-70.65L1696.222,2031.625z"/>
			<path id="_x31_80609334_1_" fill="#82C7AE" stroke="#000000" d="M1136.999,1835.145c-44.44-0.692-65.899,36.88-16.505,69.984
				l-42.869-23.993c-29.282-13.648-62.71-15.75-94.286-20.296c-53.685-7.736-106.101-18.787-160.22-23.166
				c-26.186-2.125-54.428-15.938-80.707-8.101c-15.849,4.731-21.826,16.172-25.537,29.252c-3.045,10.693-8.239,18.868-13.237,28.683
				c4.222-36.717,9.706-73.947,18.142-108.526c9.861-40.413,23.168-79.978,40.142-117.964
				c21.332-47.724,50.571-95.114,84.528-138.521l13.895-16.164c19.516,25.201,41.334,49.895,61.098,75.913
				c15.821,20.843,30.34,42.529,41.301,66.002c22.022,47.179,34.944,104.002,70.905,143.312
				C1033.647,1791.559,1063.85,1827.106,1136.999,1835.145z"/>
			<path id="_x31_80609332_1_" fill="#9AD2BD" stroke="#000000" d="M1842.594,1322.972l-86.025,11.97
				c26.6,2.985,52.589,10.191,78.406,21.041c77.61,32.621,83.931,106.487,123.099,169.927
				c48.003,77.78,84.059,167.925,91.897,259.571c9.901,115.707-12.752,230.69-27.841,344.896
				c-13.486,102.032-17.315,203.332-15.687,306.144c3.122,195.39-24.344,374.183-96.93,556.608
				c-20.983,52.742-42.563,104.875-64.996,157.025c-23.9,55.583-24.975,162.39-84.017,195.31
				c-98.807,55.08-223.236-39.475-306.374-82.583c-1.811-0.938-6.512-4.104-12.919-8.612l25.559,61.952
				c27.854-2.506,110.621,52.376,149.064,64.267c49.796,15.379,107.984,33.671,159.033,4.641
				c46.018-26.156,62.923-84.221,80.204-130.199c33.453-88.993,71.562-177.317,106.705-265.637
				c72.595-182.427,91.343-360.574,88.221-555.971c-1.628-102.81,2.209-204.113,15.688-306.142
				c15.088-114.207,37.743-229.189,27.84-344.897c-9.459-110.624-77.851-251.098-147.007-344.757
				C1900.378,1375.04,1845.435,1339.15,1842.594,1322.972z"/>
			<path id="_x31_80609331_1_" fill="#82C7AE" stroke="#000000" d="M2065,1560.625c77.38,157.584,107.464,363.313,51.825,533.013
				c-6.9,21.03-6.814,43.51-12.078,65.209c-25.75,106.12-10.03,215.277-6.712,322.847c3.249,105.503-15.379,208.392-36.142,311.39
				c-12.162,60.359-19.455,122.207-37.521,181.231c-17.912,58.53-50.769,110.24-80.382,163.286
				c-18.688,33.47-24.48,74.74-35.858,111.311c-13.614,43.787-27.67,89.76-53.14,128.357
				c-34.409,52.124-85.372,76.246-150.974,65.285c-45.343-7.58-80.05-23.099-129.521-48.727
				c-31.269-16.201-54.35-33.956-113.357-75.832c19.821-13.43,113.144,49.642,154.691,62.492
				c49.796,15.379,107.984,33.671,159.033,4.641c46.017-26.156,62.923-84.221,80.204-130.199
				c33.453-88.993,71.563-177.317,106.705-265.637c72.595-182.427,91.343-360.574,88.221-555.971
				c-1.628-102.81,2.209-204.113,15.688-306.142c15.088-114.207,37.743-229.189,27.84-344.897
				c-9.459-110.624-77.85-251.098-147.007-344.757c-49.13-66.539-108.249-102.922-103.806-117.456
				C1946.575,1354.534,2031.845,1493.087,2065,1560.625z"/>
			<path id="_x31_80609330_1_" fill="#9AD2BD" stroke="#000000" d="M1441.252,3254.3c-23.489-16.521-70.062-51.17-81.712-60.488
				c-15.424,16.168-32.367,30.617-46.028,41.376c-29.969,23.602-41.392,36.461-45.709,42.528l9.029,9.645
				c3.09-14.357,23.171-15.954,44.979,1.362c21.315,16.914,33.563,41.821,49.838,63.128
				c33.513,43.842,75.078,88.153,114.433,126.967c38.042,37.505,75.862,77.884,122.774,104.561
				c35.329,20.096,80.595,21.767,119.191,33.575c29.273,8.962,54.581,21.998,85.628,23.277
				c35.586,1.469,66.036-12.794,97.527-26.791c25.751-11.443,66.735-2.947,87.444-24.519
				c21.871-22.782,24.071-72.058,38.725-100.444c16.966-32.881,38.511-47.036,44.072-86.725
				c6.167-44.021,1.365-88.593,11.217-132.354c11.618-51.57,32.063-101.075,49.643-150.786
				c15.209-42.979,56.074-52.584,80.853-87.491c23.337-32.885,36.302-71.768,44.37-110.943c7.43-36.071,16.335-71.312,23.27-107.332
				c5.168-26.937,17.084-45.096,27.918-69.196c11.975-26.629,2.584-45.954,6.78-73.812c4.888-32.334,16.514-55.748,9.81-87.998
				c-7.531-36.238-11.012-73.914-8.188-111.162c3.097-40.793,24.856-69.345,34.46-106.888c9.092-35.467-21.888-53.208-29.257-83.181
				c-7.327-29.823,9.151-77.304,17.784-105.916c13.484-44.687,6.601-87.36,11.745-133.057c4.461-39.773,5.202-59.57-8.581-98.836
				c-13.222-37.693,5.885-75.163,3.65-113.209c-1.858-31.91-27.756-50.005-34.963-78.084
				c-10.594-41.283,1.357-78.839-14.951-118.972c-16.838-41.444-32.115-83.509-51.35-123.956
				c-23.183-48.78-62.641-87.978-83.598-136.725c-34.768-80.864-109.785-119.196-190.143-141.343
				c-92.955-25.627-174.472-10.5-262.011,28.604c-15.608,6.978-49.608,17.793-60.278-2.272
				c-9.655-18.193,10.978-40.319,25.162-48.925c17.032-10.326,33.328-14.658,49.988-16.633l-0.288-1.039
				c-13.848,0.504-27.969,1.633-42.758,3.981c-32.765,5.199-69.894,20.122-105.074,32.11c13.136,56.666,10.97,50.024,26.125,102.797
				c1.759,6.123,2.052,4.409,0,0c12.73,27.352,69.704,7.6,91.438,5.459c17.794-1.753,35.212-1.578,52.376,0.35
				c-0.007-0.001-0.016-0.002-0.023-0.003l86.025-11.97c-0.186-1.049-0.154-2.018,0.117-2.902
				c103.863,34.464,189.135,173.019,222.289,240.557c77.379,157.582,107.463,363.313,51.824,533.012
				c-6.899,21.029-6.813,43.51-12.078,65.209c-25.75,106.119-10.029,215.277-6.711,322.847
				c3.248,105.503-15.38,208.391-36.142,311.391c-12.163,60.358-19.455,122.207-37.521,181.23
				c-17.912,58.529-50.769,110.24-80.383,163.286c-18.688,33.47-24.479,74.741-35.857,111.311
				c-13.614,43.787-27.67,89.761-53.141,128.357c-34.408,52.124-85.371,76.245-150.974,65.284
				c-45.343-7.578-80.05-23.098-129.521-48.726c-31.27-16.201-54.351-33.956-113.358-75.832c1.482-1.003,3.382-1.571,5.633-1.772
				c-0.002,0-0.004,0-0.006,0l-25.558-61.952C1441.223,3254.28,1441.237,3254.29,1441.252,3254.3z"/>
			<path id="_x31_80609335_1_" fill="#9DF0D2" stroke="#000000" d="M944.814,1419.653
				c143.125-120.895,340.176-183.156,517.036-235.813c12.786-3.796-14.227,2.888,81.961-23.384
				c19.183,81.287,35.166,157.153,63.979,235.707c13.596,37.04,24.787,76.681,33.947,114.813
				c5.076,21.141,8.112,42.687,11.849,64.087c2.414,13.865,3.257,31.133,10.694,43.395c6.561,10.836,17.819,17.819,25.019,28.267
				c7.37,10.693,12.112,22.563,12.7,35.638c1.492,33.277-10.961,70.083-23.422,100.504
				c-21.332,52.043-66.104,122.139-111.916,156.439c-56.979,42.67-131.859,18.996-188.352-11.207
				c-50.742-27.146-97.611-60.334-150.775-83.296c-22.136-9.562-43.655-20.556-67.095-26.847
				c-19.907-5.349-40.175-6.926-59.801-13.873c-18.782-6.655-37.249-16.356-50.845-31.223
				c-35.971-39.31-48.893-96.133-70.916-143.312c-10.961-23.473-25.478-45.158-41.299-65.996
				c-19.756-26.023-41.574-50.718-61.099-75.918C876.481,1487.633,921.782,1439.104,944.814,1419.653z"/>
			<path id="_x31_80609338_1_" fill="#9DF0D2" stroke="#000000" d="M1429.787,1430.651
				c-108.889,27.394-219.108-24.373-328.936-10.709c-13.176,1.639-27.43,8.168-40.813,6.807
				c-17.375-1.766-44.576-12.674-36.422-30.301c10.201-22.041,57.275-44.222,76.331-57.729
				c35.773-25.35,75.427-44.636,117.026-58.304c34.724-11.407,87.486-28.173,123.746-20.858
				c27.252,5.494,33.505,36.783,57.693,16.035c17.656-15.131,30.032-15.75,54.42-14.418c11.865,0.647,19.873,0.75,31.474-2.363
				c25.571-6.846,55.143-25.341,79.026,0.623c23.473,25.511,28.012,94.396-9.093,109.898c-23.517,9.826-34.998,22.961-55.938,35.695
				c-13.298,8.091-27.968,13.883-42.946,18.553C1446.871,1426.229,1438.281,1428.514,1429.787,1430.651z"/>
			<path id="_x31_80609336_1_" fill="#95E4C8" stroke="#000000" d="M1678.576,1782.868c10.943-26.693,37.735-108.556,11.455-134.567
				c-20.633-20.424-69.243,12.603-91.633,24.245c-88.827,46.191-194.491,82.682-293.494,75.961
				c-58.794-3.988-107.183-43.928-165.013-50.449c-29.333-3.301-60.843,3.422-83.429,23.363
				c-44.029,38.887,19.525,80.412,52.049,85.248c102.38,15.221,180.041,73.437,269.798,121.428
				c56.493,30.203,131.373,53.877,188.351,11.207c7.182-5.377,14.329-11.635,21.375-18.561
				C1625.921,1883.473,1660.587,1826.748,1678.576,1782.868z"/>
			<path id="_x31_80609337_1_" fill="#9DF0D2" stroke="#000000" d="M1581.713,1601.678c33.751-19.887,50.699-31.01,61.327-53.297
				c8.189-17.171-5.911-55.806-15.65-90.96c-6.185-22.321-16.488-61.311-30.775-73.64c-25.443-21.977-39.313,57.22-51.996,72.245
				c-23.098,27.346-59.383,39.39-92.64,49.395c-68.048,20.477-138.435,17.649-207.771,5.921
				c-54.248-9.179-125.743-56.668-179.657-25.479c-114.159,66.092,149.139,154.104,164.16,158.463
				c92.869,26.966,209.426,22.454,303.984-16.151C1537.83,1626.081,1576.938,1604.484,1581.713,1601.678z"/>
			<path id="_x31_80609339_1_" fill="#54BF94" stroke="#000000" d="M705.54,1908.524c-13.151,84.047,10.552,179.377,32.336,260.431
				c31.765,118.13,79.862,228.981,125.837,341.933c33.461,82.234,67,161.943,103.25,242.964
				c39.297,87.809,84.555,174.319,129.743,258.959c36.925,69.162,78.269,136.762,120.796,202.614
				c29.538,45.706,23.464,49.029,69.234,12.97c30.289-23.853,76.749-65.817,86.898-104.529
				c17.555-66.961-35.875-108.514,17.503-178.579c21.162-27.785,55.118-40.029,76.911-66.087
				c15.003-17.935,56.636-59.801,72.424-86.346c-2.268-71.521,40.551-156.453,50.395-215.223
				c11.207-66.927,12.658-129.662-3.275-201.719c-13.673-61.856-56.031-116.386-96.154-162.467
				c-33.428-38.382-45.667-81.812-69.849-126.485c-20.752-38.331-48.508-75.128-78.779-106.39
				c-54.946-56.761-117.817-76.006-202.448-69.793c-23.072,1.692-40.515,5.954-60.815-3.511
				c-29.282-13.646-62.709-15.75-94.286-20.295c-53.686-7.736-106.1-18.782-160.219-23.166c-26.187-2.12-54.429-15.935-80.707-8.096
				C730.513,1859.833,707.792,1894.174,705.54,1908.524z"/>
			<path id="_x31_80609341_1_" fill="#54BF94" stroke="#000000" d="M1280.604,2900.58c23.836,33.231,60.606,65.425,86.512,101.85
				c1.536-17.438,7.908-35.991,24.023-57.146c21.161-27.785,55.118-40.028,76.911-66.087c8.316-9.941,24.815-27.238,40.56-45.201
				c-6.363-65.415-55.459-114.193-68.844-176.363c-11.797-54.81-49.779-80.193-81.722-129.699
				c-40.354-62.526-78.797-134.4-111.319-201.08c-29.597-60.662-59.98-146.096-70.659-212.992
				c-10.556-66.2,49.945-142.081,27.488-200.798c-9.049-1.027-18.144-1.693-27.207-2.086c-9.851-0.427-20.146-0.025-30.1-0.58
				c-1.955,0.116-3.908,0.233-5.888,0.379c-23.071,1.692-40.515,5.954-60.815-3.511c-29.281-13.646-62.709-15.75-94.285-20.295
				c-1.252-0.182-2.498-0.37-3.746-0.555c-5.514,42.82-5.656,86.169-5.058,123.281c1.868,115.482,22.238,229.535,44.722,342.501
				c22.475,112.917,79.103,212.91,126.987,316.911C1185.388,2749.948,1228.684,2828.199,1280.604,2900.58z"/>
			<path id="_x31_80609340_1_" fill="#54BF94" stroke="#000000" d="M1439.765,2657.635c13.385,62.169,62.481,110.948,68.844,176.363
				c12.49-14.251,24.494-28.913,31.57-40.665c0.068-1.403,0.137-2.808,0.22-4.205c-0.7-68.941,38.72-149.556,49.67-207.069
				c0.271-1.475,0.55-2.947,0.798-4.427c0.405-2.417,0.797-4.837,1.176-7.259c0.022-0.143,0.043-0.283,0.065-0.426
				c3.829-24.547,6.334-49.375,7.112-74.206c0.029-1.075,0.056-2.151,0.079-3.229c0.013-0.504,0.023-1.009,0.036-1.513
				c0.676-37.018-2.787-74.58-11.744-115.089c-0.086-0.39-0.186-0.773-0.275-1.163c-1.484-5.995-3.117-11.962-4.904-17.896
				c-17.298-54.045-55.025-102.119-90.975-143.406c-13.359-15.339-23.33-31.486-32.035-48.194
				c-14.404-26.828-26.075-55.375-40.132-82.475c-13.794-24.798-30.45-48.891-48.777-71.18
				c-17.616-20.947-36.687-40.745-58.083-57.834c-1.193-0.955-2.398-1.888-3.613-2.802c-7.675-5.526-15.534-10.452-23.605-14.806
				c-25.21-13.067-53.199-19.863-81.637-23.092c22.457,58.717-38.044,134.598-27.488,200.798
				c10.679,66.897,41.061,152.33,70.659,212.992c32.522,66.68,70.965,138.553,111.319,201.08
				C1389.987,2577.438,1427.968,2602.822,1439.765,2657.635z"/>
			<path id="_x31_80609342_1_" fill="#54BF94" stroke="#000000" d="M737.876,2168.954c31.765,118.13,79.861,228.98,125.836,341.933
				c33.461,82.234,67,161.943,103.25,242.965c39.297,87.808,84.555,174.318,129.744,258.957
				c36.924,69.162,78.268,136.763,120.795,202.615c29.538,45.706,23.465,49.029,69.234,12.971
				c27.377-21.562,67.958-57.916,83.005-93.293c-22.997,1.409-54.565-24.666-71.328-43.834
				c-40.37-46.14-59.262-99.236-89.149-150.989c-98.219-170.097-191.122-330.069-239.451-522.978
				c-42.442-169.37-113.639-366.138-99.846-548.48c-14.887-2.041-29.84-3.793-44.926-5.015c-26.187-2.12-54.429-15.935-80.707-8.096
				c-13.818,4.124-36.541,38.463-38.793,52.814C692.386,1992.571,716.091,2087.901,737.876,2168.954z"/>
			<path id="_x31_80609344_1_" fill="#CCCCCC" stroke="#000000" d="M1689.861,1987.45c-16.563-16.611-46.145-0.221-60.397,10.718
				c-18.748,14.39-36.455,30.817-51.825,48.806c-19.917,23.303-66.395,49.754-66.063,84.404
				c0.248,25.381,33.555,46.917,46.605,65.989c41.743,61.015,71.009,131.799,85.244,204.406c2.32,11.801,6.158,64.419,24.932,62.841
				c18.757-1.574,19.857-43.807,20.002-57.22c0.299-27.904-9.459-96.789-11.779-115.699c21.639,16.032,33.846,46.58,40.243,70.642
				c38.621,145.395,29.708,336.892-51.075,469.399c-20.667,33.922-63.75,88.609-104.761,54.862
				c-14.432-11.882-21.289-48.512-21.307-73.005c-0.042-41.813,6.252-81.564,18.534-121.509
				c11.669-37.927,26.066-75.166,32.651-114.453c13.196-78.787,13.119-160.783-13.646-236.725
				c-6.005-17.03-14.083-33.296-23.585-48.642c-16.514-26.679-36.967-51.01-58.053-74.154
				c-47.568-52.219-61.882-125.197-104.486-180.793c-23.244-30.323-48.688-59.596-78.687-83.557
				c-38.621-30.834-87.768-40.689-136.063-42.783c-27.388-1.187-58.239,4.072-75.529-22.834
				c-45.957-71.508,99.156-55.25,126.647-43.377c53.19,22.966,100.086,56.176,150.845,83.33
				c56.493,30.203,131.373,53.877,188.351,11.207c45.813-34.301,90.584-104.398,111.916-156.437
				c12.948-31.594,31.457-85.901,18.279-119.59c-17.826-45.552-55.716-9.181-87.045,5.51
				c-97.107,45.4-197.041,87.041-304.914,79.724c-81.143-5.511-164.4-88.709-240.176-33.429
				c-86.465,63.076-89.801,199.379-88.266,294.615c1.869,115.481,22.238,229.535,44.722,342.501
				c22.476,112.917,79.103,212.91,126.988,316.911c37.223,80.839,80.519,159.09,132.438,231.472
				c43.322,60.398,129.386,117.366,115.252,202.552c-10.55,63.69-71.597,17.687-97.441-11.864
				c-40.37-46.141-59.263-99.237-89.15-150.99c-98.218-170.098-191.122-330.069-239.45-522.978
				c-60.783-242.559-180.555-541.311-25.18-773.409c33.095-49.426,59.826-82.075,123.466-64.919
				c55.696,15.021,104.52,50.73,160.61,65.354c24.497,6.393,49.72,11.021,74.891,13.724c44.721,4.799,91.82,4.407,136.141-3.735
				c22.109-4.061,44.201-9.52,65.848-15.604c42.332-11.898,82.184-41.539,118.554-65.367c41.086-26.915,80.382-53.216,102.354,5.388
				c13.383,35.699,12.011,73.775,14.577,111.161c5.041,73.533,0,146.641,2.081,220.289c1.459,51.654-9.434,84.494-46.93,121.443
				C1693.306,2034.498,1694.62,1992.229,1689.861,1987.45z"/>
			<path id="_x31_80609345_1_" fill="#CCCCCC" stroke="#000000" d="M1838.865,3719.623c31.045,5.449,63.389,8.891,97.167,10.113
				c169.021,6.125,359.512-110.769,497.7-197.45c96.197-60.346,127.372-155.665,153.771-262.071
				c60.391-243.383,58.011-503.257,38.384-761.584c-14.535-191.292-37.813-381.804-55.853-563.867
				c-30.868-311.611-179.513-662.012-496.642-770.504c241.14,82.988,368.482,316.399,426.588,553.916
				c39.228,160.381,36.217,323.91,64.287,485.063c15.779,90.636,19.37,184.96,2.295,275.684
				c-7.992,42.459-18.483,80.468-42.451,116.479c-23.313,35.006-51.297,67.013-63.545,108.236
				c-13.17,44.336-14.178,81.622-12.411,127.618c4.265,111.068,0.069,237.345-56.899,336.173
				c-30.716,53.262-84.563,83.11-115.884,136.356c-30.987,52.695-42,114.279-49.573,174.109
				C2204.585,3655.584,1998.765,3733.32,1838.865,3719.623z"/>
			<path id="_x31_80609346_1_" fill="#CCCCCC" stroke="#000000" d="M1597.46,1149.018c-24.522,6.021-259.726,53.582-266.327,84.097
				c-4.181,19.324,89.116,40.896,227.278,2.128c42.826-12.018,91.607-34.395,133.316-41.014c51.742-8.218,95.335-1.531,147.52-5.203
				c26.953-1.898,53.983-3.246,80.868-6.014c15.244-1.569,28.644,3.553,41.438-8.884c32.174-31.261-28.984-41.638-47.714-45.159
				c-67.717-12.73-132.457-11.972-197.341-3.293C1677.109,1130.952,1637.66,1139.149,1597.46,1149.018z"/>
			<path id="_x31_80609343_1_" fill="#AAAAAA" stroke="#000000" d="M1676.708,2289.976c1.987,51.758,16.343,82.588,9.945,134.58
				c-1.39,11.262-5.058,45.782-22.646,40.95c-16.164-4.433-20.472-64.514-23.304-76.809
				c-16.137-70.065-41.905-131.957-82.522-191.331c-13.051-19.072-44.746-40.674-46.605-65.988
				c-1.826-24.933,29.478-49.217,45.189-63.166c22.826-20.257,116.65-134.959,136.055-67.775
				c2.841,38.65-2.132,104.947-5.834,147.779C1682.159,2204.236,1676.196,2276.542,1676.708,2289.976z"/>
		</g>
	</g>
</g>
</svg>
