<?xml version="1.0" encoding="utf-8"?>
<!-- Generator: Adobe Illustrator 16.0.0, SVG Export Plug-In . SVG Version: 6.00 Build 0)  -->
<!DOCTYPE svg PUBLIC "-//W3C//DTD SVG 1.1//EN" "http://www.w3.org/Graphics/SVG/1.1/DTD/svg11.dtd">
<svg version="1.1" id="Layer_1" xmlns="http://www.w3.org/2000/svg" xmlns:xlink="http://www.w3.org/1999/xlink" x="0px" y="0px"
	 width="4800px" height="4416px" viewBox="0 0 4800 4416" enable-background="new 0 0 4800 4416" xml:space="preserve">
<g>
	<g transform="scale(1.0)">
		<g id="_x31_80608816" transform=" scale(1.0, 1.0)">
			<path id="_x31_80608818" fill="#BFDAE3" stroke="#000000" d="M4391.201,1442.224c29.782,77.725,51.308,158.341,64.694,237.177
				c19.174,113.047,42.01,250.626,21.248,363.532c-24.02,130.697-80.781,253.597-90.883,387.155
				c-14.634,193.395-50.329,392.067-141.023,564.433c-95.32,181.184-219.284,356.15-382.156,482.787
				c-145.264,112.938-357.396,242.665-547.613,230.594c-170.599-10.828-334.799-107.122-484.491-181.98
				c-181.579-90.807-323.395-235.166-382.313-434.855c-38.038-128.958-49.344-282.195-45.966-438.559
				c2.174-100.732,16.528-200.354,13.477-303.656c-2.983-101.033,12.392-199.897,16.07-300.2
				c3.181-86.868,7.835-171.469,15.059-258.879c15.388-186.52,60.102-369.549,108.731-549.811
				c38.78-143.757,117.149-253.784,216.441-362.141c160.51-175.191,409.375-187.529,632.337-158.212
				c136.595,17.955,307.825,41.763,423.464,120.854c129.769,88.761,265.795,172.879,373.894,288.675
				C4283.854,1216.622,4346.724,1326.192,4391.201,1442.224z"/>
			<path id="_x31_80608819" fill="#B0FFB8" stroke="#000000" d="M4455.897,1679.403c-13.383-78.837-34.904-159.455-64.687-237.177
				c-44.479-116.035-107.361-225.606-189.037-313.091c-108.1-115.793-244.122-199.912-373.9-288.675
				c-115.639-79.088-286.871-102.898-423.455-120.855c-222.967-29.315-471.823-16.979-632.342,158.211
				c-99.283,108.36-177.651,218.386-216.438,362.144c-48.628,180.259-93.34,363.292-108.733,549.808
				c-7.214,87.41-11.877,172.016-15.061,258.878c-3.679,100.305-10.734,226.361-18.87,331.271
				c-18.59,239.748-15.899,483.073,35.293,711.146c45.599,203.146,200.729,344.051,382.313,434.858
				c149.692,74.859,313.891,171.152,484.484,181.98c190.222,12.072,402.362-117.656,547.618-230.593
				c162.879-126.64,286.834-301.604,382.163-482.792c90.682-172.365,126.385-371.036,141.019-564.428
				c10.102-133.56,66.861-256.461,90.883-387.156C4497.896,1930.028,4475.072,1792.45,4455.897,1679.403z M3453.251,1858.881
				c-21.514,52.874-40.627,105.293-58.334,158.189c-25.361,75.735-68.518,158.639-59.432,240.534
				c1.472,13.196,8.234,44.457-10.749,50.349c-33.317,10.287-12.234-76.169-11.143-87.436
				c16.924-174.179,73.789-360.551,27.321-534.282c-8.115-30.314-29.211-63.796,13.917-66.89
				c44.661-3.203,112.127,51.042,130.164,88.713C3506.975,1753.951,3470.858,1815.63,3453.251,1858.881z"/>
			<path id="_x31_80608820" fill="#9AD2BD" stroke="#000000" d="M4455.897,1679.403c-13.385-78.837-34.904-159.455-64.688-237.177
				c-44.478-116.034-107.361-225.606-189.033-313.091c-108.102-115.793-244.126-199.912-373.902-288.675
				c-115.64-79.088-286.871-102.898-423.455-120.852c-222.969-29.318-471.823-16.983-632.342,158.208
				c-99.283,108.358-177.66,218.388-216.439,362.145c-48.628,180.263-93.339,363.29-108.731,549.811
				c-17.03,206.201-9.542,416.666-31.392,622.204c-22.7,213.589-28.397,471.813,32.752,679.091
				c58.915,199.686,200.73,344.046,382.313,434.857c149.694,74.859,313.892,171.148,484.484,181.977
				c190.222,12.073,402.36-117.656,547.625-230.595c162.872-126.634,286.826-301.602,382.154-482.789
				c90.685-172.366,126.388-371.033,141.02-564.427c10.102-133.562,66.861-256.462,90.883-387.157
				C4497.896,1930.028,4475.072,1792.45,4455.897,1679.403z M3453.251,1858.881c-21.514,52.874-40.627,105.293-58.334,158.189
				c-25.361,75.735-68.518,158.639-59.432,240.534c1.472,13.196,8.234,44.457-10.749,50.349
				c-33.317,10.287-12.234-76.169-11.143-87.436c16.924-174.179,73.789-360.551,27.321-534.282
				c-8.115-30.314-29.211-63.796,13.917-66.89c44.661-3.203,112.127,51.042,130.164,88.713
				C3506.975,1753.951,3470.858,1815.63,3453.251,1858.881z"/>
			<path id="_x31_80608821" fill="#9AD2BD" stroke="#000000" d="M4455.897,1679.403c-13.383-78.837-34.904-159.455-64.687-237.177
				c-44.479-116.035-107.361-225.606-189.037-313.091c-108.1-115.793-244.122-199.912-373.9-288.675
				c-115.639-79.088-286.871-102.898-423.455-120.855c-222.967-29.315-471.823-16.979-632.342,158.211
				c-99.283,108.36-177.651,218.386-216.438,362.144c-48.628,180.259-93.34,363.292-108.733,549.808
				c-7.214,87.41-11.877,172.016-15.061,258.878c-3.679,100.305-19.058,199.171-16.074,300.202
				c2.896,98.033-10.575,200.648-13.468,303.656c-4.214,149.563,5.089,299.975,45.966,438.557
				c58.915,199.692,200.729,344.051,382.313,434.858c149.693,74.86,313.891,171.153,484.484,181.98
				c190.222,12.073,402.36-117.655,547.619-230.593c162.879-126.639,286.832-301.603,382.16-482.79
				c90.685-172.367,126.388-371.037,141.02-564.429c10.102-133.56,66.863-256.46,90.883-387.156
				C4497.896,1930.028,4475.072,1792.45,4455.897,1679.403z M3453.251,1858.881c-21.514,52.874-40.627,105.293-58.334,158.189
				c-25.361,75.735-68.518,158.639-59.432,240.534c1.472,13.196,8.234,44.457-10.749,50.349
				c-33.317,10.287-12.234-76.169-11.143-87.436c16.924-174.179,73.789-360.551,27.321-534.282
				c-8.115-30.314-29.211-63.796,13.917-66.89c44.661-3.203,112.127,51.042,130.164,88.713
				C3506.975,1753.951,3470.858,1815.63,3453.251,1858.881z"/>
			<path id="_x31_80608822" fill="#82C7AE" stroke="#000000" d="M2640.811,1152.547c-40.745,115.346-68.107,236.386-69.539,359.12
				c-0.501,42.825,6.256,84.277,2.004,127.24c-6.312,63.846-19.084,126.939-23.926,190.56
				c-7.896,103.784-4.438,206.502-8.502,310.316c-6.172,157.555-2.229,315.243-2.469,472.859
				c-0.271,175.414,48.477,346.869,127.076,502.751c94.829,188.055,240.97,382.222,431.989,480.275
				c75.301,38.655,192.062,51.441,275.449,48.4c109.807-4.009,215.947-46.714,304.521-110.443
				c126.092-90.712,232.438-176.251,280.146-329.823c40.387-129.985,42.191-268.015,74.648-399.813
				c30.878-125.368,76.542-250.863,143.766-361.473c56.297-92.652,114.399-184.828,160.133-283.338
				c37.801-81.43,82.084-136.089,82.083-230.221c-0.006-165.001,11.215-319.43-39.355-482.864
				c-36.817-118.984-95.394-229.838-176.649-316.868c-108.104-115.79-244.12-199.906-373.9-288.662
				c-115.639-79.086-286.869-102.891-423.453-120.848c-222.968-29.316-471.822-16.975-632.342,158.209
				C2702.841,953.937,2675.024,1055.683,2640.811,1152.547z M2872.836,1018.896c42.416-94.875,101.707-166.204,192.128-218.861
				c59.331-34.552,127.181-48.994,195.527-46.216c65.733,2.672,97.275,0.693,157.396,30.45
				c46.679,23.106,119.886,29.645,171.396,32.956c48.894,3.142,95.363,44.239,137.31,65.858
				c82.675,42.61,160.797,95.99,231.39,156.489c39.016,33.44,68.201,83.291,104.08,121.243
				c47.899,50.678,94.256,104.868,123.457,168.829c31.519,69.062,63.831,157.075,76.904,231.973
				c32.437,185.882-11.797,377.887-115.146,534.528c-26.757,40.554-61.551,67.049-92.911,102.95
				c-45.332,51.896-71.926,110.991-98.396,173.131c-0.838,1.951-1.728,3.867-2.662,5.746
				c-24.228,48.398-83.591,72.626-132.933,91.68c-68.621,26.498-89.519,77.336-92.188,149.688
				c-2.143,58.039,17.157,116.405,35.08,171.064c37.293,113.742,20.56,246.075-3.17,361.172
				c-23.12,112.147-72.166,220.726-163.705,293.573c-91.714,73.003-187.074,68.371-296.756,58.865
				c-100.15-8.667-135.884-60.979-210.759-118.419c-39.461-30.281-54.354-66.199-83.034-107.079
				c-17.781-25.377-45.862-41.392-63.735-66.356c-16.548-23.121-28.104-51.999-44.451-76.266
				c-27.713-41.133-65.354-74.583-92.348-116.263c-40.482-62.519-54.412-150.87-68.397-222.973
				c-13.768-71.006-24.398-141.733-31.338-213.767c-7.732-80.201,54.727-137.702,49.46-217.558
				c-2.999-45.421-19.011-79.818,4.061-123.945c17.323-33.116,25.267-71.348,28.246-108.991
				c5.57-70.538-15.329-140.98-10.296-211.884c3.587-50.55,17.068-100.301,12.796-151.285
				c-6.126-73.195-39.483-141.435-43.71-214.93c-3.799-66.128,0.319-136.648,10.68-202.007
				C2775.227,1236.279,2825.188,1125.486,2872.836,1018.896z"/>
			<path id="_x31_80608826" fill="#82C7AE" stroke="#000000" d="M3306.394,2275.669c-1.413-19.133,5.362-36.373,7.196-55.192
				c16.921-174.19,73.782-360.573,27.315-534.315c-8.106-30.312-29.21-63.794,13.916-66.888l-5.053-1.612
				c-27.304-3.317-40.046-19.979-46.279-47.146c-9.719-42.365-10.918-92.388,12.864-130.747
				c16.552-26.692,55.145-50.773,86.781-53.802c114.151-10.924,211.728,98.918,236.146,201.611
				c9.092,38.229,13.224,78.489-13.87,109.833c-30.42,35.188-56.396,66.792-80.239,107.075
				c-25.668,43.359-46.717,89.087-67.146,135.08c-29.029,65.376-64.827,128.188-84.744,197.257
				c-8.479,29.393-11.61,61.637-19.334,91.908c-9.108,35.772-18.727,71.419-26.809,107.435
				c-16.114,71.781-37.884,145.794-30.621,220.064c5.543,56.633,11.845,114,12.007,170.956c0.246,82.762-35.606,71.854-62.911,3.403
				c-33.854-84.89-31.382-177.335,1.284-262.267c12.728-33.093,24.557-66.551,34.297-100.647
				c3.359-11.749,8.812-24.159,10.565-36.15C3314.304,2314.094,3306.512,2277.165,3306.394,2275.669z M3887.891,1915.585
				c76.762-91.559,130.445-206.484,108.632-328.137c-13.451-75.019-67.101-158.195-109.389-220.368
				c-45.224-66.506-105.925-136.33-169.393-186.224c-109.164-85.807-212.47-229.757-368.141-222.541
				c-110.751,5.126-184.439,95.745-237.091,182.761c-50.85,84.041-92.925,152.074-105.812,252.429
				c-23.912,186.055,75.595,324.529,129.374,493.484c38.76,121.77,3.098,244.494-46.162,357.409
				c-25.096,57.525-52.549,114.618-72.879,174.035c-92.687,270.918,5.374,561.185,202.144,757.64
				c40.522,40.461,108.302,90.225,167.88,77.923c41.687-8.605,103.026-58.229,119.781-97.625
				c31.315-73.628,44.208-177.473,24.449-254.917c-20.45-80.153-21.938-163.081-40.716-244.419
				c-19.654-85.158-2.924-183.469,17.674-267.032c13.811-56.063,52.874-116.742,86.081-163.265
				c14.936-20.918,32.763-39.814,51.881-57.802C3729.897,2090.188,3813.754,2004.008,3887.891,1915.585z"/>
			<path id="_x31_80608825" fill="#9AD2BD" stroke="#000000" d="M3025.021,2330.798c-65.025,107.568-102.386,202.335-90.143,327.62
				c6.577,67.311,20.737,144.956,42.179,209.033c30.522,91.2,78.875,176.558,140.111,250.632
				c45.9,55.507,102.777,112.81,163.079,152.845c71.476,47.453,186.55,63.46,249.358-8.672
				c34.184-39.242,52.907-106.426,55.638-154.895c3.155-55.898,4.699-94.634,1.589-150.797
				c-4.761-86.19-29.107-164.451-42.013-249.693c-11.843-78.29-25.58-151.614-14.839-233.014
				c14.231-107.807,102.409-195.214,175.777-273.193c65.558-69.684,142.01-133.212,204.91-214.755
				c144.135-186.845,198.838-438.903,47.738-639.735c-27.593-36.675-71.797-61.384-104.582-93.848
				c-54.393-53.867-107.005-111.958-163.898-163.47c-49.75-45.063-101.947-84.431-158.566-120.605
				c-44.494-28.425-95.24-55.187-147.695-61.373c-119.846-14.141-209.779,50.932-278.287,140.936
				c-56.292,73.97-97.049,155.585-124.818,244.06c-40.15,127.928-12.162,283.725,47.956,401.155
				c59.19,115.601,89.063,237.073,71.982,368.129C3088.269,2154.996,3073.658,2250.341,3025.021,2330.798z M3136.081,1887.056
				c-53.785-168.949-153.285-307.419-129.371-493.467c12.889-100.351,54.964-168.383,105.814-252.421
				c52.65-87.013,126.341-177.625,237.092-182.755c155.669-7.211,258.973,136.727,368.136,222.534
				c63.471,49.887,124.17,119.713,169.394,186.215c42.288,62.171,95.935,145.339,109.384,220.354
				c21.806,121.651-31.869,236.576-108.631,328.125c-74.135,88.425-157.992,174.601-241.688,253.343
				c-19.117,17.987-36.945,36.884-51.882,57.802c-33.213,46.519-72.27,107.2-86.089,163.258
				c-20.597,83.562-37.32,181.869-17.666,267.025c18.774,81.331,20.263,164.257,40.707,244.412
				c19.757,77.437,6.864,181.279-24.443,254.902c-16.757,39.394-78.096,89.019-119.789,97.623
				c-59.572,12.302-127.35-37.46-167.873-77.919c-196.768-196.448-294.827-486.704-202.137-757.609
				c20.329-59.416,47.783-116.502,72.879-174.025C3139.168,2131.541,3174.839,2008.818,3136.081,1887.056z"/>
			<path id="_x31_80608824" fill="#82C7AE" stroke="#000000" d="M3705.75,2200.609c-73.366,77.986-161.543,165.396-175.774,273.205
				c-10.741,81.399,2.996,154.73,14.848,233.018c12.898,85.25,37.243,163.512,42.014,249.704
				c3.104,56.167,1.558,94.906-1.595,150.808c-2.724,48.465-21.453,115.656-55.628,154.898
				c-62.812,72.131-177.885,56.123-249.366,8.674c-60.305-40.038-117.183-97.348-163.073-152.858
				c-61.246-74.07-109.599-159.431-140.119-250.636c-21.437-64.082-35.604-141.73-42.174-209.043
				c-12.254-125.291,25.108-220.063,90.133-327.637c48.645-80.454,63.255-175.805,75.484-269.644
				c17.07-131.063-12.802-252.538-71.984-368.144c-60.13-117.439-88.119-273.236-47.968-401.173
				c27.771-88.474,68.526-170.097,124.816-244.066c68.507-90.005,158.441-155.08,278.286-140.942
				c52.454,6.186,103.201,32.949,147.699,61.378c56.618,36.178,108.813,75.544,158.563,120.61
				c56.896,51.516,109.516,109.609,163.903,163.479c32.781,32.459,76.986,57.174,104.58,93.852
				c151.098,200.836,96.396,452.907-47.735,639.759C3847.761,2067.396,3771.308,2130.927,3705.75,2200.609z M3949.3,1986.137
				c101.693-125.232,166.661-271.688,133.336-428.331c-15.674-73.702-36.106-146.417-77.302-210.351
				c-79.232-122.947-208.853-198.258-316.336-292.989c-88.294-77.807-197.438-160.517-314.201-186.667
				c-116.231-26.026-189.606,38.089-263.413,113.71c-141.538,144.996-235.223,327.863-184.365,535.697
				c18.485,75.528,56.808,142.696,77.629,216.793c28.82,102.559,87.087,220.275,71.971,327.166
				c-11.762,83.23-25.548,157.212-71.805,228.697c-46.387,71.696-73.973,150.678-100.063,231.296
				c-19.789,61.104-12.224,95.706,2.191,156.973c9.023,38.372,1.635,77.893,12.317,115.612
				c10.145,35.826,23.872,73.271,36.748,108.627c27.994,76.804,63.649,151.536,108.768,219.819
				c37.906,57.384,79.438,89.472,128.224,133.942c42.953,39.151,90.991,110.265,153.314,116.154
				c55.783,5.28,132.308-20.988,178.143-50.147c32.381-20.598,60.973-59.765,75.21-94.731
				c29.433-72.273,23.27-160.097,12.632-235.725c-12.995-92.435-34.403-183.95-50.031-276.004
				c-13.041-76.782-24.842-155.266-11.323-232.853c17.422-100.019,103.417-188.381,172.823-261.249
				c34.506-36.227,74.659-61.692,108.563-100.229C3868.805,2079.895,3909.941,2034.608,3949.3,1986.137z"/>
			<path id="_x31_80608823" fill="#9AD2BD" stroke="#000000" d="M2746.134,1554.296c4.223,73.495,37.582,141.735,43.706,214.929
				c4.273,50.985-9.207,100.736-12.795,151.285c-5.031,70.902,15.868,141.345,10.297,211.884
				c-2.978,37.646-10.922,75.875-28.245,108.991c-23.072,44.129-7.061,78.524-4.062,123.944
				c5.269,79.856-57.193,137.357-49.46,217.557c6.941,72.034,17.568,142.762,31.34,213.768
				c13.984,72.104,27.912,160.455,68.396,222.973c26.995,41.682,64.636,75.132,92.348,116.264
				c16.349,24.266,27.903,53.145,44.45,76.265c17.874,24.966,45.954,40.98,63.735,66.355c28.681,40.883,43.573,76.8,83.036,107.081
				c74.872,57.439,110.607,109.753,210.758,118.418c109.683,9.507,205.043,14.14,296.755-58.863
				c91.541-72.849,140.588-181.427,163.706-293.574c23.731-115.098,40.463-247.43,3.166-361.172
				c-17.921-54.659-37.219-113.024-35.076-171.064c2.669-72.354,23.569-123.19,92.189-149.688
				c49.34-19.054,108.703-43.282,132.932-91.679c0.934-1.881,1.82-3.798,2.662-5.747c26.471-62.14,53.065-121.235,98.396-173.131
				c31.36-35.901,66.154-62.398,92.911-102.95c103.351-156.642,147.584-348.645,115.146-534.528
				c-13.071-74.898-45.384-162.91-76.902-231.972c-29.203-63.959-75.558-118.151-123.46-168.829
				c-35.876-37.95-65.062-87.802-104.077-121.242c-70.593-60.5-148.715-113.878-231.39-156.489
				c-41.947-21.62-88.416-62.717-137.308-65.858c-51.513-3.311-124.719-9.851-171.396-32.957
				c-60.123-29.756-91.663-27.776-157.399-30.45c-68.345-2.777-136.194,11.666-195.526,46.217
				c-90.421,52.656-149.71,123.985-192.128,218.86c-47.646,106.587-97.609,217.382-116.025,333.393
				C2746.452,1417.647,2742.332,1488.167,2746.134,1554.296z M3004.657,1734.074c-20.822-74.098-59.151-141.264-77.629-216.79
				c-50.855-207.826,42.824-390.686,184.369-535.674c73.809-75.616,147.184-139.736,263.414-113.705
				c116.762,26.142,225.907,108.853,314.199,186.657c107.486,94.723,237.104,170.033,316.336,292.973
				c41.192,63.933,61.627,136.643,77.299,210.345c33.325,156.637-31.645,303.088-133.34,428.317
				c-39.357,48.465-80.494,93.751-116.969,135.204c-33.904,38.538-74.058,64.002-108.566,100.229
				c-69.406,72.863-155.402,161.222-172.822,261.237c-13.52,77.584-1.718,156.067,11.321,232.845
				c15.626,92.054,37.027,183.566,50.029,275.992c10.641,75.627,16.802,163.442-12.634,235.716
				c-14.245,34.968-42.831,74.131-75.219,94.73c-45.824,29.161-122.35,55.424-178.141,50.146
				c-62.313-5.89-110.354-76.998-153.305-116.152c-48.795-44.467-90.316-76.556-128.234-133.931
				c-45.109-68.287-80.769-143.015-108.755-219.816c-12.887-35.354-26.612-72.796-36.747-108.623
				c-10.692-37.72-3.297-77.239-12.324-115.604c-14.41-61.271-21.974-95.871-2.185-156.975
				c26.09-80.609,53.667-159.59,100.063-231.284c46.256-71.484,60.041-145.462,71.807-228.69
				C3091.743,1954.336,3033.478,1836.629,3004.657,1734.074z"/>
			<path id="_x31_80608828" fill="#CCCCCC" stroke="#000000" d="M4455.905,1679.467c-13.381-78.833-34.9-159.444-64.688-237.168
				c-44.475-116.027-107.356-225.593-189.029-313.075c81.256,87.03,139.832,197.884,176.65,316.868
				c50.569,163.435,39.349,317.864,39.354,482.864c0.001,94.131-44.282,148.791-82.083,230.221
				c-45.735,98.509-103.84,190.687-160.133,283.336c-67.224,110.611-112.888,236.106-143.766,361.473
				c-32.459,131.801-34.261,269.83-74.648,399.814c-47.708,153.571-154.055,239.114-280.146,329.824
				c-88.574,63.729-194.715,106.435-304.521,110.441c-83.388,3.043-200.151-9.744-275.45-48.399
				c-191.019-98.053-337.161-292.221-431.986-480.275c-78.602-155.881-127.351-327.335-127.079-502.753
				c0.24-157.613-3.703-315.302,2.468-472.856c4.064-103.813,0.607-206.533,8.503-310.315
				c4.843-63.62,17.614-126.714,23.927-190.561c4.252-42.963-2.505-84.415-2.005-127.242
				c1.432-122.732,28.794-243.771,69.54-359.118c34.213-96.866,62.028-198.61,131.679-274.624
				c-99.281,108.355-177.659,218.38-216.44,362.131c-48.628,180.253-84.398,352.477-106.91,545.034
				c-10.181,87.11-10.933,182.279-14.122,269.137c-3.682,100.297-8.024,187.711-18.842,294.676
				c-8.669,85.803-10.559,173.872-13.519,264.313c-5.311,161.73,1.736,327.783,46.021,477.873
				c58.905,199.686,200.722,344.04,382.303,434.841c149.691,74.855,313.889,171.142,484.482,181.972
				c190.222,12.071,402.36-117.656,547.625-230.589c162.875-126.634,286.829-301.595,382.155-482.773
				c90.685-172.36,126.391-371.024,141.021-564.412c10.11-133.552,66.865-256.451,90.888-387.139
				C4497.91,1930.083,4475.083,1792.514,4455.905,1679.467z"/>
			<path id="_x31_80608829" fill="#CCCCCC" stroke="#000000" d="M3394.917,2017.072c-15.565,46.458-30.087,93.216-46.365,139.081
				c-10.054,28.333-12.281,58.772-12.11,88.627c0.084,14.896,2.662,31.511-0.903,46.111c-2.833,11.569-17.445,33.396-26.155,12.399
				c7.695,18.538-4.317,47.499-8.677,65.724c-8.344,34.839-21.045,66.162-33.808,99.349
				c-32.667,84.929-35.137,177.372-1.285,262.257c27.305,68.448,63.157,79.355,62.912-3.404
				c-0.16-56.949-6.462-114.316-12.007-170.943c-7.259-74.27,14.51-148.281,30.616-220.054
				c8.09-36.021,17.701-71.667,26.815-107.439c7.725-30.269,10.856-62.512,19.336-91.903
				c19.92-69.065,55.715-131.872,84.747-197.244c20.427-45.997,41.477-91.724,67.146-135.078
				c23.843-40.286,49.816-71.883,80.24-107.071c27.093-31.348,22.959-71.606,13.867-109.833
				c-24.416-102.69-121.999-212.522-236.144-201.599c-31.644,3.025-70.228,27.11-86.779,53.794
				c-23.783,38.359-22.586,88.38-12.865,130.749c6.231,27.164,18.976,43.822,46.279,47.14
				c57.412,6.978,125.57,52.776,139.688,102.755c13.67,48.395-18.671,95.284-36.216,138.391
				C3431.739,1911.755,3412.624,1964.175,3394.917,2017.072z"/>
			<path id="_x31_80608827" fill="#AAAAAA" stroke="#000000" d="M3394.917,2017.072c-25.361,75.734-68.518,158.638-59.432,240.533
				c1.472,13.196,8.234,44.457-10.749,50.349c-33.317,10.287-12.234-76.169-11.143-87.436
				c16.924-174.179,73.79-360.551,27.321-534.282c-8.116-30.313-29.211-63.796,13.917-66.89
				c44.662-3.203,112.127,51.042,130.164,88.713c21.979,45.892-14.14,107.571-31.745,150.821
				C3431.739,1911.755,3412.624,1964.175,3394.917,2017.072z"/>
		</g>
	</g>
	<g transform="scale(1.0)">
		<g id="_x31_80608816_1_" transform=" scale(1.0, 1.0)">
			<path id="_x31_80608818_1_" fill="#BFDAE3" stroke="#000000" d="M597.829,1129.138
				c108.099-115.795,244.125-199.914,373.894-288.675c115.639-79.091,286.869-102.899,423.464-120.854
				c222.962-29.317,471.827-16.979,632.337,158.212c99.292,108.356,177.661,218.384,216.441,362.141
				c48.63,180.261,93.344,363.291,108.731,549.811c7.224,87.411,11.878,172.011,15.059,258.879
				c3.679,100.303,19.053,199.167,16.07,300.2c-3.052,103.303,11.303,202.924,13.477,303.656
				c3.379,156.363-7.928,309.601-45.966,438.559c-58.918,199.689-200.733,344.049-382.313,434.855
				c-149.692,74.858-313.893,171.152-484.491,181.98c-190.218,12.071-402.35-117.656-547.613-230.594
				c-162.872-126.637-286.836-301.604-382.156-482.787c-90.694-172.365-126.39-371.038-141.023-564.433
				c-10.102-133.559-66.863-256.458-90.883-387.155c-20.762-112.906,2.074-250.485,21.248-363.532
				c13.387-78.836,34.912-159.452,64.694-237.177C453.276,1326.192,516.146,1216.622,597.829,1129.138z"/>
			<path id="_x31_80608819_1_" fill="#B0FFB8" stroke="#000000" d="M322.853,2042.934c24.021,130.695,80.781,253.597,90.883,387.156
				c14.634,193.392,50.337,392.063,141.019,564.428c95.329,181.188,219.284,356.152,382.163,482.792
				c145.256,112.937,357.396,242.665,547.618,230.593c170.594-10.828,334.792-107.121,484.484-181.98
				c181.584-90.808,336.715-231.713,382.313-434.858c51.191-228.072,53.883-471.397,35.293-711.146
				c-8.137-104.91-15.191-230.967-18.87-331.271c-3.185-86.862-7.847-171.468-15.062-258.878
				c-15.393-186.516-60.104-369.549-108.732-549.808c-38.787-143.758-117.155-253.784-216.438-362.144
				c-160.519-175.191-409.375-187.526-632.342-158.211c-136.584,17.958-307.816,41.767-423.455,120.855
				c-129.778,88.763-265.801,172.881-373.9,288.675c-81.676,87.485-144.558,197.056-189.037,313.091
				c-29.782,77.722-51.304,158.34-64.687,237.177C324.928,1792.45,302.104,1930.028,322.853,2042.934z M1315.004,1708.059
				c18.037-37.67,85.503-91.916,130.164-88.713c43.128,3.093,22.032,36.576,13.917,66.89
				c-46.468,173.73,10.397,360.103,27.321,534.282c1.092,11.267,22.175,97.723-11.143,87.436
				c-18.983-5.892-12.221-37.152-10.749-50.349c9.086-81.896-34.07-164.799-59.432-240.534
				c-17.707-52.896-36.82-105.315-58.334-158.189C1329.142,1815.63,1293.025,1753.951,1315.004,1708.059z"/>
			<path id="_x31_80608820_1_" fill="#9AD2BD" stroke="#000000" d="M322.854,2042.933c24.021,130.695,80.781,253.596,90.883,387.157
				c14.632,193.394,50.335,392.061,141.02,564.427c95.328,181.188,219.282,356.155,382.154,482.789
				c145.265,112.938,357.403,242.668,547.625,230.595c170.593-10.828,334.79-107.117,484.484-181.977
				c181.583-90.812,323.398-235.172,382.313-434.857c61.149-207.277,55.452-465.502,32.751-679.091
				c-21.849-205.538-14.361-416.003-31.391-622.204c-15.393-186.521-60.104-369.548-108.731-549.811
				c-38.779-143.757-117.156-253.787-216.439-362.145c-160.519-175.191-409.373-187.525-632.342-158.208
				c-136.584,17.954-307.815,41.763-423.455,120.852c-129.776,88.763-265.801,172.881-373.902,288.675
				c-81.672,87.485-144.556,197.057-189.033,313.091c-29.784,77.722-51.304,158.34-64.688,237.177
				C324.928,1792.45,302.104,1930.028,322.854,2042.933z M1315.004,1708.059c18.037-37.67,85.503-91.916,130.164-88.713
				c43.128,3.093,22.032,36.576,13.917,66.89c-46.468,173.73,10.397,360.103,27.321,534.282
				c1.092,11.267,22.175,97.723-11.143,87.436c-18.983-5.892-12.221-37.152-10.749-50.349
				c9.086-81.896-34.07-164.799-59.432-240.534c-17.707-52.896-36.82-105.315-58.334-158.189
				C1329.142,1815.63,1293.025,1753.951,1315.004,1708.059z"/>
			<path id="_x31_80608821_1_" fill="#9AD2BD" stroke="#000000" d="M322.853,2042.933c24.02,130.696,80.781,253.597,90.883,387.156
				c14.632,193.392,50.335,392.062,141.02,564.429c95.328,181.188,219.281,356.151,382.16,482.79
				c145.259,112.938,357.397,242.666,547.619,230.593c170.594-10.827,334.791-107.12,484.484-181.98
				c181.584-90.808,323.398-235.166,382.313-434.858c40.878-138.582,50.181-288.994,45.967-438.557
				c-2.893-103.008-16.364-205.623-13.468-303.656c2.983-101.031-12.396-199.897-16.074-300.202
				c-3.185-86.862-7.847-171.468-15.062-258.878c-15.393-186.516-60.104-369.549-108.732-549.808
				c-38.787-143.758-117.155-253.784-216.438-362.144c-160.519-175.191-409.375-187.526-632.342-158.211
				c-136.584,17.958-307.816,41.767-423.455,120.855c-129.778,88.763-265.801,172.881-373.9,288.675
				c-81.676,87.485-144.558,197.056-189.037,313.091c-29.782,77.722-51.304,158.34-64.687,237.177
				C324.928,1792.45,302.104,1930.028,322.853,2042.933z M1315.004,1708.059c18.037-37.67,85.503-91.916,130.164-88.713
				c43.128,3.093,22.032,36.576,13.917,66.89c-46.468,173.73,10.397,360.103,27.321,534.282
				c1.092,11.267,22.175,97.723-11.143,87.436c-18.983-5.892-12.221-37.152-10.749-50.349
				c9.086-81.896-34.07-164.799-59.432-240.534c-17.707-52.896-36.82-105.315-58.334-158.189
				C1329.142,1815.63,1293.025,1753.951,1315.004,1708.059z"/>
			<path id="_x31_80608822_1_" fill="#82C7AE" stroke="#000000" d="M2027.509,877.925
				c-160.52-175.184-409.374-187.526-632.342-158.209c-136.584,17.958-307.814,41.762-423.453,120.848
				c-129.78,88.755-265.797,172.872-373.9,288.662c-81.256,87.03-139.832,197.884-176.649,316.868
				c-50.57,163.435-39.35,317.863-39.355,482.864c-0.001,94.132,44.282,148.791,82.083,230.221
				c45.733,98.51,103.836,190.686,160.133,283.338c67.224,110.609,112.888,236.104,143.766,361.473
				c32.457,131.799,34.262,269.828,74.648,399.813c47.709,153.572,154.055,239.111,280.146,329.823
				c88.574,63.729,194.715,106.435,304.521,110.443c83.388,3.041,200.148-9.745,275.449-48.4
				c191.02-98.054,337.16-292.221,431.989-480.275c78.6-155.882,127.348-327.337,127.076-502.751
				c-0.24-157.616,3.703-315.305-2.469-472.859c-4.063-103.813-0.606-206.532-8.502-310.316
				c-4.842-63.621-17.614-126.714-23.926-190.56c-4.252-42.963,2.505-84.416,2.004-127.24
				c-1.432-122.733-28.794-243.773-69.539-359.12C2124.976,1055.683,2097.159,953.937,2027.509,877.925z M2043.19,1352.293
				c10.36,65.358,14.479,135.878,10.68,202.007c-4.227,73.495-37.584,141.735-43.71,214.93
				c-4.272,50.983,9.209,100.735,12.796,151.285c5.033,70.903-15.866,141.346-10.296,211.884
				c2.979,37.644,10.923,75.875,28.246,108.991c23.071,44.127,7.06,78.524,4.061,123.945
				c-5.267,79.855,57.192,137.356,49.46,217.558c-6.939,72.033-17.57,142.761-31.338,213.767
				c-13.985,72.103-27.915,160.454-68.397,222.973c-26.993,41.68-64.635,75.13-92.348,116.263
				c-16.347,24.267-27.903,53.145-44.451,76.266c-17.873,24.965-45.954,40.979-63.735,66.356
				c-28.68,40.88-43.573,76.798-83.034,107.079c-74.875,57.44-110.608,109.752-210.759,118.419
				c-109.682,9.506-205.042,14.138-296.756-58.865c-91.539-72.848-140.585-181.426-163.705-293.573
				c-23.729-115.097-40.463-247.43-3.17-361.172c17.923-54.659,37.223-113.025,35.08-171.064
				c-2.67-72.353-23.567-123.19-92.188-149.688c-49.342-19.054-108.705-43.281-132.933-91.68c-0.935-1.879-1.824-3.795-2.662-5.746
				c-26.471-62.14-53.064-121.235-98.396-173.131c-31.36-35.901-66.154-62.396-92.911-102.95
				c-103.35-156.642-147.583-348.646-115.146-534.528c13.073-74.897,45.386-162.911,76.904-231.973
				c29.201-63.96,75.558-118.151,123.457-168.829c35.879-37.952,65.064-87.802,104.08-121.243
				c70.593-60.499,148.715-113.879,231.39-156.489c41.946-21.619,88.416-62.716,137.31-65.858
				c51.51-3.311,124.717-9.85,171.396-32.956c60.121-29.757,91.663-27.778,157.396-30.45
				c68.347-2.778,136.196,11.664,195.527,46.216c90.421,52.657,149.712,123.986,192.128,218.861
				C1974.812,1125.486,2024.773,1236.279,2043.19,1352.293z"/>
			<path id="_x31_80608826_1_" fill="#82C7AE" stroke="#000000" d="M1488.241,2331.523c1.754,11.991,7.206,24.401,10.565,36.15
				c9.74,34.097,21.569,67.555,34.297,100.647c32.666,84.932,35.138,177.377,1.284,262.267
				c-27.305,68.45-63.157,79.358-62.911-3.403c0.162-56.956,6.464-114.323,12.007-170.956
				c7.263-74.271-14.507-148.283-30.621-220.064c-8.082-36.016-17.7-71.662-26.809-107.435
				c-7.724-30.271-10.855-62.516-19.334-91.908c-19.917-69.069-55.715-131.881-84.744-197.257
				c-20.43-45.993-41.479-91.721-67.146-135.08c-23.844-40.283-49.819-71.887-80.239-107.075
				c-27.094-31.343-22.962-71.604-13.87-109.833c24.418-102.693,121.994-212.535,236.146-201.611
				c31.637,3.029,70.229,27.11,86.781,53.802c23.782,38.359,22.583,88.382,12.864,130.747
				c-6.233,27.167-18.976,43.829-46.279,47.146l-5.053,1.612c43.126,3.094,22.022,36.577,13.916,66.888
				c-46.467,173.742,10.395,360.125,27.315,534.315c1.834,18.819,8.609,36.06,7.196,55.192
				C1493.488,2277.165,1485.696,2314.094,1488.241,2331.523z M1153.795,2168.937c19.118,17.987,36.945,36.884,51.881,57.802
				c33.207,46.522,72.271,107.201,86.081,163.265c20.598,83.563,37.328,181.874,17.674,267.032
				c-18.777,81.338-20.266,164.266-40.716,244.419c-19.759,77.444-6.866,181.289,24.449,254.917
				c16.755,39.396,78.095,89.02,119.781,97.625c59.578,12.302,127.357-37.462,167.88-77.923
				c196.77-196.455,294.83-486.722,202.144-757.64c-20.33-59.417-47.783-116.51-72.879-174.035
				c-49.26-112.915-84.922-235.639-46.162-357.409c53.779-168.955,153.286-307.429,129.374-493.484
				c-12.887-100.355-54.962-168.388-105.812-252.429c-52.651-87.016-126.34-177.634-237.091-182.761
				c-155.671-7.216-258.977,136.734-368.141,222.541c-63.468,49.894-124.169,119.718-169.393,186.224
				c-42.288,62.173-95.938,145.349-109.389,220.368c-21.813,121.652,31.87,236.578,108.632,328.137
				C986.246,2004.008,1070.103,2090.188,1153.795,2168.937z"/>
			<path id="_x31_80608825_1_" fill="#9AD2BD" stroke="#000000" d="M1699.502,2061.158
				c-17.081-131.057,12.792-252.528,71.982-368.129c60.118-117.43,88.106-273.227,47.956-401.155
				c-27.77-88.475-68.526-170.09-124.818-244.06c-68.508-90.004-158.441-155.077-278.287-140.936
				c-52.455,6.186-103.201,32.948-147.695,61.373c-56.619,36.175-108.816,75.542-158.566,120.605
				c-56.894,51.513-109.506,109.604-163.898,163.47c-32.785,32.464-76.989,57.173-104.582,93.848
				c-151.1,200.832-96.396,452.891,47.738,639.735c62.9,81.543,139.353,145.071,204.91,214.755
				c73.368,77.979,161.546,165.387,175.777,273.193c10.741,81.399-2.996,154.724-14.839,233.014
				c-12.905,85.242-37.252,163.503-42.013,249.693c-3.11,56.163-1.566,94.898,1.589,150.797
				c2.73,48.469,21.454,115.652,55.638,154.895c62.809,72.132,177.883,56.125,249.358,8.672
				c60.302-40.035,117.179-97.338,163.079-152.845c61.236-74.074,109.589-159.432,140.111-250.632
				c21.441-64.077,35.602-141.723,42.179-209.033c12.243-125.285-25.117-220.052-90.143-327.62
				C1726.342,2250.341,1711.731,2154.996,1699.502,2061.158z M1710.083,2244.454c25.096,57.523,52.55,114.609,72.879,174.025
				c92.69,270.905-5.369,561.161-202.137,757.609c-40.523,40.459-108.301,90.221-167.873,77.919
				c-41.693-8.604-103.032-58.229-119.789-97.623c-31.308-73.623-44.2-177.466-24.443-254.902
				c20.444-80.155,21.933-163.081,40.707-244.412c19.654-85.156,2.931-183.464-17.666-267.025
				c-13.819-56.058-52.876-116.739-86.089-163.258c-14.937-20.918-32.765-39.814-51.882-57.802
				c-83.696-78.742-167.554-164.918-241.688-253.343c-76.762-91.55-130.437-206.474-108.631-328.125
				c13.449-75.015,67.096-158.184,109.384-220.354c45.224-66.502,105.923-136.329,169.394-186.215
				c109.163-85.808,212.467-229.746,368.136-222.534c110.751,5.13,184.441,95.743,237.092,182.755
				c50.851,84.038,92.926,152.07,105.814,252.421c23.914,186.048-75.586,324.518-129.371,493.467
				C1625.161,2008.818,1660.832,2131.541,1710.083,2244.454z"/>
			<path id="_x31_80608824_1_" fill="#82C7AE" stroke="#000000" d="M889.34,1985.852
				C745.208,1799,690.507,1546.929,841.604,1346.093c27.594-36.678,71.799-61.392,104.58-93.852
				c54.388-53.871,107.008-111.963,163.903-163.479c49.751-45.066,101.945-84.432,158.563-120.61
				c44.498-28.429,95.245-55.193,147.699-61.378c119.845-14.138,209.779,50.937,278.286,140.942
				c56.29,73.969,97.045,155.592,124.816,244.066c40.151,127.937,12.162,283.734-47.968,401.173
				c-59.183,115.606-89.055,237.081-71.984,368.144c12.229,93.839,26.84,189.189,75.484,269.644
				c65.024,107.573,102.387,202.346,90.133,327.637c-6.57,67.313-20.737,144.961-42.174,209.043
				c-30.521,91.205-78.873,176.565-140.119,250.636c-45.891,55.511-102.769,112.82-163.073,152.858
				c-71.481,47.449-186.555,63.457-249.366-8.674c-34.175-39.242-52.904-106.434-55.628-154.898
				c-3.152-55.901-4.698-94.641-1.595-150.808c4.771-86.192,29.115-164.454,42.014-249.704
				c11.852-78.287,25.589-151.618,14.848-233.018c-14.231-107.809-102.408-195.219-175.774-273.205
				C1028.692,2130.927,952.239,2067.396,889.34,1985.852z M967.67,2121.347c33.904,38.537,74.058,64.003,108.563,100.229
				c69.406,72.868,155.401,161.23,172.823,261.249c13.519,77.587,1.718,156.07-11.323,232.853
				c-15.628,92.054-37.036,183.569-50.031,276.004c-10.638,75.628-16.801,163.451,12.632,235.725
				c14.237,34.967,42.829,74.134,75.21,94.731c45.835,29.159,122.359,55.428,178.143,50.147
				c62.323-5.89,110.361-77.003,153.314-116.154c48.786-44.471,90.317-76.559,128.224-133.942
				c45.118-68.283,80.773-143.016,108.768-219.819c12.876-35.355,26.604-72.801,36.748-108.627
				c10.683-37.72,3.294-77.24,12.317-115.612c14.415-61.267,21.98-95.868,2.191-156.973c-26.09-80.618-53.676-159.6-100.063-231.296
				c-46.257-71.485-60.043-145.467-71.805-228.697c-15.116-106.891,43.15-224.606,71.971-327.166
				c20.821-74.097,59.144-141.265,77.629-216.793c50.857-207.833-42.827-390.701-184.365-535.697
				c-73.807-75.621-147.182-139.736-263.413-113.71c-116.763,26.15-225.907,108.86-314.201,186.667
				c-107.483,94.731-237.104,170.042-316.336,292.989c-41.195,63.934-61.628,136.649-77.302,210.351
				c-33.325,156.642,31.643,303.098,133.336,428.331C890.059,2034.608,931.195,2079.895,967.67,2121.347z"/>
			<path id="_x31_80608823_1_" fill="#9AD2BD" stroke="#000000" d="M2043.188,1352.285
				c-18.416-116.011-68.379-226.805-116.025-333.393c-42.418-94.875-101.707-166.205-192.128-218.86
				c-59.332-34.552-127.182-48.994-195.526-46.217c-65.736,2.673-97.276,0.693-157.399,30.45
				c-46.677,23.105-119.883,29.646-171.396,32.957c-48.892,3.142-95.36,44.239-137.308,65.858
				c-82.675,42.611-160.797,95.99-231.39,156.489c-39.016,33.44-68.201,83.292-104.077,121.242
				c-47.902,50.678-94.257,104.87-123.46,168.829c-31.519,69.062-63.831,157.074-76.902,231.972
				c-32.438,185.883,11.795,377.887,115.146,534.528c26.757,40.552,61.551,67.049,92.911,102.95
				c45.33,51.896,71.925,110.991,98.396,173.131c0.842,1.949,1.729,3.866,2.662,5.747c24.229,48.396,83.592,72.625,132.932,91.679
				c68.62,26.498,89.521,77.335,92.189,149.688c2.143,58.04-17.155,116.405-35.076,171.064
				c-37.297,113.742-20.565,246.074,3.166,361.172c23.118,112.147,72.165,220.726,163.706,293.574
				c91.712,73.003,187.072,68.37,296.755,58.863c100.15-8.665,135.886-60.979,210.758-118.418
				c39.463-30.281,54.355-66.198,83.036-107.081c17.781-25.375,45.861-41.39,63.735-66.355c16.547-23.12,28.102-51.999,44.45-76.265
				c27.712-41.132,65.353-74.582,92.348-116.264c40.483-62.518,54.411-150.869,68.396-222.973
				c13.771-71.006,24.398-141.733,31.34-213.768c7.733-80.199-54.729-137.7-49.46-217.557c2.999-45.42,19.011-79.815-4.062-123.944
				c-17.323-33.116-25.268-71.346-28.245-108.991c-5.571-70.539,15.328-140.981,10.297-211.884
				c-3.588-50.549-17.068-100.3-12.795-151.285c6.124-73.194,39.483-141.435,43.706-214.929
				C2057.668,1488.167,2053.548,1417.647,2043.188,1352.285z M1723.374,2061.223c11.766,83.229,25.551,157.206,71.807,228.69
				c46.396,71.694,73.974,150.675,100.063,231.284c19.789,61.104,12.226,95.704-2.185,156.975
				c-9.027,38.364-1.632,77.884-12.324,115.604c-10.135,35.827-23.86,73.27-36.747,108.623
				c-27.986,76.802-63.646,151.529-108.755,219.816c-37.918,57.375-79.439,89.464-128.234,133.931
				c-42.951,39.154-90.991,110.263-153.305,116.152c-55.791,5.277-132.316-20.985-178.141-50.146
				c-32.388-20.6-60.974-59.763-75.219-94.73c-29.436-72.273-23.274-160.089-12.634-235.716
				c13.002-92.426,34.403-183.938,50.029-275.992c13.039-76.777,24.841-155.261,11.321-232.845
				c-17.42-100.016-103.416-188.374-172.822-261.237c-34.509-36.228-74.662-61.691-108.566-100.229
				c-36.475-41.453-77.611-86.739-116.969-135.204c-101.695-125.229-166.665-271.68-133.34-428.317
				c15.672-73.702,36.106-146.412,77.299-210.345c79.232-122.94,208.85-198.25,316.336-292.973
				c88.292-77.804,197.438-160.515,314.199-186.657c116.23-26.031,189.605,38.089,263.414,113.705
				c141.545,144.988,235.225,327.849,184.369,535.674c-18.478,75.526-56.807,142.692-77.629,216.79
				C1766.522,1836.629,1708.257,1954.336,1723.374,2061.223z"/>
			<path id="_x31_80608828_1_" fill="#CCCCCC" stroke="#000000" d="M322.847,2042.987c24.022,130.688,80.777,253.587,90.888,387.139
				c14.631,193.388,50.337,392.052,141.021,564.412c95.326,181.179,219.28,356.14,382.155,482.773
				c145.265,112.933,357.403,242.66,547.625,230.589c170.594-10.83,334.791-107.116,484.482-181.972
				c181.581-90.801,323.397-235.155,382.303-434.841c44.283-150.09,51.331-316.143,46.02-477.873
				c-2.959-90.441-4.85-178.511-13.518-264.313c-10.818-106.965-15.16-194.379-18.842-294.676
				c-3.189-86.857-3.941-182.026-14.122-269.137c-22.512-192.558-58.282-364.781-106.91-545.034
				c-38.781-143.751-117.159-253.776-216.44-362.131c69.65,76.013,97.466,177.757,131.679,274.624
				c40.746,115.347,68.108,236.385,69.54,359.118c0.5,42.827-6.257,84.278-2.005,127.242c6.313,63.846,19.084,126.94,23.927,190.561
				c7.896,103.782,4.438,206.502,8.503,310.315c6.171,157.555,2.228,315.243,2.468,472.856
				c0.271,175.418-48.478,346.872-127.079,502.753c-94.825,188.055-240.968,382.223-431.986,480.275
				c-75.299,38.655-192.063,51.442-275.45,48.399c-109.807-4.007-215.947-46.713-304.521-110.441
				c-126.092-90.71-232.438-176.253-280.146-329.824c-40.388-129.984-42.189-268.014-74.648-399.814
				c-30.878-125.366-76.542-250.861-143.766-361.473c-56.293-92.649-114.397-184.827-160.133-283.336
				c-37.801-81.43-82.084-136.09-82.083-230.221c0.006-165-11.215-319.429,39.354-482.864
				c36.818-118.984,95.395-229.838,176.65-316.868c-81.673,87.481-144.555,197.048-189.029,313.075
				c-29.787,77.724-51.307,158.335-64.688,237.168C324.917,1792.514,302.09,1930.083,322.847,2042.987z"/>
			<path id="_x31_80608829_1_" fill="#CCCCCC" stroke="#000000" d="M1346.749,1858.882c-17.545-43.107-49.886-89.997-36.216-138.391
				c14.118-49.979,82.276-95.777,139.688-102.755c27.304-3.318,40.048-19.977,46.279-47.14
				c9.721-42.369,10.918-92.389-12.865-130.749c-16.552-26.685-55.136-50.769-86.779-53.794
				c-114.145-10.924-211.728,98.909-236.144,201.599c-9.092,38.226-13.226,78.485,13.867,109.833
				c30.424,35.188,56.397,66.785,80.24,107.071c25.67,43.354,46.72,89.081,67.146,135.078
				c29.032,65.372,64.827,128.179,84.747,197.244c8.479,29.392,11.611,61.635,19.336,91.903
				c9.114,35.772,18.726,71.419,26.815,107.439c16.106,71.772,37.875,145.784,30.616,220.054
				c-5.545,56.627-11.847,113.994-12.007,170.943c-0.245,82.76,35.607,71.853,62.912,3.404
				c33.852-84.885,31.382-177.328-1.285-262.257c-12.763-33.187-25.464-64.51-33.808-99.349
				c-4.359-18.225-16.372-47.186-8.677-65.724c-8.71,20.997-23.322-0.83-26.155-12.399c-3.565-14.601-0.987-31.215-0.903-46.111
				c0.171-29.854-2.057-60.294-12.11-88.627c-16.278-45.865-30.8-92.623-46.365-139.081
				C1387.376,1964.175,1368.261,1911.755,1346.749,1858.882z"/>
			<path id="_x31_80608827_1_" fill="#AAAAAA" stroke="#000000" d="M1346.749,1858.881c-17.605-43.25-53.724-104.93-31.745-150.821
				c18.037-37.67,85.502-91.916,130.164-88.713c43.128,3.093,22.033,36.577,13.917,66.89
				c-46.469,173.73,10.397,360.103,27.321,534.282c1.092,11.267,22.175,97.723-11.143,87.436
				c-18.983-5.892-12.221-37.152-10.749-50.349c9.086-81.896-34.07-164.799-59.432-240.533
				C1387.376,1964.175,1368.261,1911.755,1346.749,1858.881z"/>
		</g>
	</g>
</g>
</svg>
