<?xml version="1.0" encoding="utf-8"?>
<!-- Generator: Adobe Illustrator 16.0.0, SVG Export Plug-In . SVG Version: 6.00 Build 0)  -->
<!DOCTYPE svg PUBLIC "-//W3C//DTD SVG 1.1//EN" "http://www.w3.org/Graphics/SVG/1.1/DTD/svg11.dtd">
<svg version="1.1" id="Layer_1" xmlns="http://www.w3.org/2000/svg" xmlns:xlink="http://www.w3.org/1999/xlink" x="0px" y="0px"
	 width="7424px" height="6336px" viewBox="0 0 7424 6336" enable-background="new 0 0 7424 6336" xml:space="preserve">
<g>
	<g transform="scale(1.0)">
		<g id="_x31_80611098" transform=" scale(1.0, 1.0)">
			<path id="_x31_80611100" fill="#BFDAE3" stroke="#000000" d="M3717.602,2811.726c-0.609-175.783-8.233-360.276-4.627-537.48
				c4.741-232.745,1.18-479.368,0.453-670.482c-1.121-293.036-6.659-494.453,25.799-551.435
				c191.065-335.369,671.366-545.345,934.696-513.008c271.299,33.317,763.273,181.021,1065.096,345.416
				c297.703,162.151,661.051,537.407,884.156,900.15c231.25,376.002,252.787,735.694,236.205,1007.677
				c-17.404,285.433-56.924,363.151-133.529,646.016c-49.418,182.488-144.352,469.693-291.613,599.455
				c-33.148,29.198-84.188,15.674-85.783,28.001c-3.311,25.438,70.773,37.147,53.193,163.277
				c-22.623,162.339-84.74,329.988-291.861,524.653c-103.676,97.437-273.457,239.21-403.344,339.393
				c-73.971,57.079-70.227,99.711-135.213,154.239c-52.172,43.767-124.258,120.95-182.283,166.869
				c-263.309,208.362-541.211,406.136-810.466,383.762c-150.742-12.554-301.434-58.981-410.676-186.979
				c-75.831-88.847-130.052-219.764-178.55-354.032c-34.548-95.631-238.568-369.374-256.522-470.108
				c-2.454-13.791-4.632-27.626-6.514-41.506c-1.54-11.283-4.202-23.461-4.047-34.857c0.9-68.068-0.428-136.174-0.666-204.219
				c2.292-44.08,2.428-375.906-2.634-525.612C3712.694,3798.078,3719.774,3440.646,3717.602,2811.726z"/>
			<path id="_x31_80611101" fill="#B0FFB8" stroke="#000000" d="M6623.194,1790.422
				c-223.105-362.742-586.457-737.993-884.158-900.152c-301.832-164.391-793.816-312.09-1065.117-345.41
				c-263.331-32.333-743.641,177.646-934.711,513.014c-32.455,56.985-26.91,258.399-25.789,551.439
				c0.728,191.11,4.282,437.733-0.451,670.48c-3.614,177.201,4.018,361.697,4.629,537.477
				c2.171,628.927-4.903,986.353,1.269,1169.188c5.14,151.873,3.704,500.777,2.687,513.882c-2.56,32.919-0.129,65.939,0.717,98.876
				c0.805,32.031-1.127,64.045-0.286,96.079c0.491,18.591,1.72,37.194,4.211,55.632c1.881,13.962,4.072,27.861,6.538,41.727
				c17.953,100.73,221.975,374.477,256.524,470.109c19.48,53.906,26.552,75.151,48.898,125.473
				c1.366-0.892,64.98-45.912,114.771-68.25c18.089-8.109,80.339-29.042,99.643-29.91c132.967-6.005,169.694-4.318,260.407-6.446
				c97.725-2.293,187.83-36.903,276.824-72.994c87.697-35.562,199.791-85.616,294.879-52.274
				c77.037,27.014,149.379,82.891,213.797,132.244c10.139,7.778,112.084,103.892,113.281,105.194
				c-0.1,0.093,107.326-98.896,159.498-142.665c64.994-54.525,61.242-97.155,135.221-154.237
				c129.875-100.183,299.664-241.958,403.336-339.392c207.129-194.666,269.248-362.316,291.869-524.655
				c17.584-126.134-56.506-137.84-53.199-163.271c1.604-12.329,52.633,1.195,85.783-28.006
				c147.264-129.765,242.199-416.963,291.613-599.463c76.604-282.863,116.133-360.578,133.533-646.011
				C6875.993,2526.113,6854.456,2166.42,6623.194,1790.422z M4725.628,4127.967c-0.914,5.107-1.691,10.238-2.889,15.291
				c-2.141,9.063-3.738,18.377-11.449,24.636c-4.115,3.343-13.631,4.679-18.629,3.277c-9.934-2.795-15.352-14.042-19.803-22.443
				c-6.498-12.268-11.109-27.08-16.525-39.94c-13.106-31.162-23.546-64.495-46.83-89.761c-20.782-22.564-87.733-59.643-87.16-97.583
				c0.024-1.807,0.202-3.606,0.552-5.417c5.956-31.268,54.862-34.892,79.261-29.108c16.896,4,29.979,16.799,42.409,28.182
				c6.104,5.595,11.526,12.217,16.815,18.592c17.85,21.533,30.531,45.759,45.547,69.122
				C4729.079,4037.299,4732.583,4088.841,4725.628,4127.967z"/>
			<path id="_x31_80611138" fill="#1F9D5A" stroke="#000000" d="M6623.149,1784.891
				c231.285,375.975,252.813,735.715,236.215,1007.65c-13.293,217.814-39.471,314.734-85.135,474.061l-170.615-87.928
				c2.195-14.553,4.389-28.44,6.424-41.498c38.465-245.329,84.488-468.74,68-717.54c-14.025-211.487-142.469-482.922-250.557-660.75
				c-91.037-149.879-195.723-305.692-323.973-426.103c-157.523-147.819-335.965-288.669-533.857-380.328
				c-59.938-27.719-121.957-55.183-185.553-81.061l44.117-126.413l0.244-0.577c113.195,43.578,220.33,91.166,310.514,140.307
				C6036.687,1046.929,6400.052,1422.11,6623.149,1784.891z"/>
			<path id="_x31_80611137" fill="#1F9D5A" stroke="#000000" d="M6678.04,2419.636c16.486,248.801-29.537,472.212-68.002,717.541
				c-2.031,13.058-4.232,26.948-6.424,41.498l-408.678-210.701c12.861-78.757,14.486-161.049,21.383-233.969
				c30.783-329.752-152.951-677.959-354.98-932.1c-111.361-140.084-277.43-259.115-427.951-353.182
				c-64.391-40.258-133.617-84.649-206.074-128.45l156.785-448.878c63.592,25.876,125.609,53.343,185.551,81.06
				c197.889,91.662,376.334,232.51,533.855,380.328c128.254,120.413,232.938,276.227,323.973,426.105
				C6535.569,1936.716,6664.013,2208.149,6678.04,2419.636z"/>
			<path id="_x31_80611136" fill="#1F9D5A" stroke="#000000" d="M5861.339,1801.906c202.029,254.14,385.764,602.349,354.98,932.1
				c-6.893,72.917-8.52,155.21-21.383,233.968L5773.11,2750.5c1.072-2.166,1.973-4.414,2.887-6.662
				c93.781-231.639-83.035-456.276-227.637-617.855c-130.752-146.084-300.559-264.519-486.396-332.034l165.352-473.674
				c72.459,43.8,141.68,88.192,206.074,128.45C5583.913,1542.79,5749.979,1661.822,5861.339,1801.906z"/>
			<path id="_x31_80611135" fill="#1F9D5A" stroke="#000000" d="M5548.36,2125.983c144.604,161.578,321.42,386.218,227.637,617.856
				c-0.914,2.249-1.814,4.495-2.887,6.66l-881.967-454.593l-3.422-3.063l174.24-498.892
				C5247.802,1861.462,5417.608,1979.898,5548.36,2125.983z"/>
			<path id="_x31_80611142" fill="#1F9D5A" stroke="#000000" d="M5428.462,744.404l-0.244,0.577l-44.113,126.412
				c-342.686-139.532-730.926-234.023-1082.194-91.095c-153.387,62.452-256.504,167.37-325.383,295.112l-127.01-169.783
				l-1.251-1.161c227.142-247.312,603.58-392.41,825.6-365.163C4864.122,562.666,5162.88,642.254,5428.462,744.404z"/>
			<path id="_x31_80611141" fill="#1F9D5A" stroke="#000000" d="M5384.099,871.396l-156.785,448.878
				c-216.227-130.413-461.529-254.827-695.884-243.789c-211.5,9.96-307.842,104.459-369.776,246.224l-185.124-247.299
				c68.877-127.742,171.996-232.658,325.383-295.11C4653.177,637.37,5041.417,731.861,5384.099,871.396z"/>
			<path id="_x31_80611140" fill="#1F9D5A" stroke="#000000" d="M5227.313,1320.274l-165.35,473.673
				c-110.186-40.014-226.049-62.057-342.662-61.316c-71.395,0.411-139.875,26.498-200.164,67.681l-357.485-477.604
				c61.936-141.765,158.273-236.267,369.777-246.225C4765.786,1065.448,5011.087,1189.861,5227.313,1320.274z"/>
			<path id="_x31_80611139" fill="#1F9D5A" stroke="#000000" d="M5061.964,1793.949l-174.242,498.893l-368.584-492.529
				c60.293-41.184,128.77-67.27,200.168-67.681C4835.915,1731.893,4951.778,1753.935,5061.964,1793.949z"/>
			<path id="_x31_80611146" fill="#40A666" stroke="#000000" d="M3871.658,1395.608c-6.274,35.681-11.307,71.771-15.42,108.025
				l-143.593-109.882l-0.334-0.001c-0.366-178.372,2.956-299.318,26.916-341.455c29.906-52.466,66.888-101.969,109.039-147.829
				l1.249,1.161l127.01,169.784C3924.329,1171.923,3891.713,1281.587,3871.658,1395.608z"/>
			<path id="_x31_80611145" fill="#40A666" stroke="#000000" d="M3976.527,1075.411l185.126,247.299
				c-24.983,57.021-44.378,121.671-63.421,191.555c-12.471,45.844-17.932,101.466-20.061,159.159l-170.928-130.819
				c-47.9-35.04-29.063-22.205-51.006-38.97c4.262-24.21,7.573-58.885,12.363-90.001c6.389-41.563,14.886-81.512,26.79-127.335
				C3916.533,1204.873,3950.22,1124.059,3976.527,1075.411z"/>
			<path id="_x31_80611144" fill="#40A666" stroke="#000000" d="M4161.653,1322.709l357.484,477.604
				c-46.437,31.58-88.021,72.12-122.444,116.787l-318.521-243.678c2.127-57.693,7.59-113.315,20.061-159.157
				C4117.275,1444.381,4136.668,1379.73,4161.653,1322.709z"/>
			<path id="_x31_80611143" fill="#40A666" stroke="#000000" d="M4519.138,1800.313l368.584,492.529l-12.914-9.932l-478.114-365.81
				C4431.117,1872.433,4472.701,1831.893,4519.138,1800.313z"/>
			<path id="_x31_80611151" fill="#2FA850" stroke="#000000" d="M3712.645,1393.75l143.594,109.882
				c-12.896,116.657-15.396,235.11-14.505,346.649c0.891,113.951,11.318,221.224-6.497,334.072
				c-10.334,65.529-14.925,129.631-16.04,192.971l-103.036,8.755l-4.153,0.013c-0.048-37.486,0.155-74.89,0.942-111.88
				c4.766-232.745,1.17-479.342,0.425-670.427c-0.269-76.549-0.842-146.866-1.061-210.034L3712.645,1393.75z"/>
			<path id="_x31_80611150" fill="#2FA850" stroke="#000000" d="M3907.244,1542.604c3.423,100.48-2.576,217.779-3.357,232.326
				c-6.813,119.63,0.744,238.628-8.899,358.185c-6.291,78.404-6.764,157.946-4.164,238.064l-71.625,6.148
				c1.113-63.34,5.704-127.44,16.04-192.972c17.813-112.849,7.386-220.119,6.495-334.071c-0.889-111.54,1.61-229.99,14.505-346.649
				L3907.244,1542.604z"/>
			<path id="_x31_80611149" fill="#2FA850" stroke="#000000" d="M3907.244,1542.604l170.928,130.819
				c-3.196,84.539,0.68,173.546-0.742,242.707c-2.344,114.708-18.411,228.053-27.164,340.79
				c-2.623,33.425-4.749,67.176-6.55,101.263l-152.895,12.997c-2.602-80.119-2.129-159.662,4.162-238.064
				c9.646-119.555,2.088-238.554,8.901-358.185C3904.67,1760.382,3910.667,1643.084,3907.244,1542.604z"/>
			<path id="_x31_80611148" fill="#2FA850" stroke="#000000" d="M4078.172,1673.422l318.521,243.678
				c-37.816,49.004-66.97,102.884-84.325,155.224c-28.378,85.71-43.615,175.695-51.026,267.316l-217.623,18.54
				c1.8-34.084,3.926-67.836,6.551-101.26c8.755-112.738,24.82-226.082,27.162-340.792
				C4078.852,1846.968,4074.976,1757.962,4078.172,1673.422z"/>
			<path id="_x31_80611147" fill="#2FA850" stroke="#000000" d="M4874.808,2282.911l-3.721,4.833l-609.745,51.897
				c7.413-91.62,22.648-181.605,51.023-267.317c17.358-52.339,46.512-106.219,84.328-155.223L4874.808,2282.911z"/>
			<path id="_x31_80611161" fill="#59B363" stroke="#000000" d="M3718.31,3031.81l116.861-73.88
				c-3.551,78.972-10.568,116.816-1.058,246.949c8.114,111.598,77.487,198.134,83.361,311.316
				c-65.094-3.513-131.261-5.114-198.108-10.618c-0.206-132.323-0.499-289.166-1.137-473.766L3718.31,3031.81z"/>
			<path id="_x31_80611160" fill="#59B363" stroke="#000000" d="M4399.383,3584.428l-26.519,70.077
				c-17.576-9.576-34.652-20.326-51.979-31.649c-78.476-51.511-160.347-77.247-244.852-91.164
				c-51.975-8.549-104.854-12.687-158.563-15.495c-5.876-113.186-75.249-199.719-83.361-311.316
				c-9.511-130.129-2.493-167.977,1.057-246.949l84.851-53.573c0.386,17.703,0.535,35.326,0.513,52.945
				c-0.142,102.82-5.844,185.454,54.868,265.953c68.135,90.362,131.45,85.321,214.289,124.264
				c11.819,5.613,24.061,12.054,36.805,19.822c80.631,49.264,93.72,156.687,161.492,212.805L4399.383,3584.428z"/>
			<path id="_x31_80611159" fill="#59B363" stroke="#000000" d="M4230.315,3341.896c-8.162-3.712-16.153-7.675-23.984-11.971
				c-13.069-7.268-25.814-15.288-38.067-24.139c-127.15-91.986-130.283-227.29-131.616-372.741
				c-0.364-33.581-0.652-67.655-0.854-101.899l-115.777,73.211c0.39,17.703,0.537,35.323,0.517,52.947
				c-0.144,102.817-5.844,185.453,54.866,265.951c68.135,90.363,131.452,85.32,214.291,124.263
				c11.819,5.615,24.061,12.057,36.806,19.824c80.63,49.262,93.719,156.686,161.491,212.805l11.397,4.28l93.322-246.848
				C4410.409,3383.582,4314.393,3380.175,4230.315,3341.896z"/>
			<path id="_x31_80611158" fill="#59B363" stroke="#000000" d="M4729.337,2711.635l-236.632,625.945
				c-82.296,46.002-178.313,42.595-262.39,4.316c-8.162-3.712-16.153-7.675-23.984-11.971
				c-13.071-7.268-25.815-15.288-38.067-24.139c-127.152-91.986-130.283-227.29-131.618-372.741
				c-0.362-33.581-0.652-67.655-0.854-101.899l223.934-141.492c1.825,46.456,3.973,92.414,5.548,137.624
				c1.559,43.132-0.044,83.781-1.24,123.433c-2.083,69.493-4.103,206.563,96.198,201.727
				c102.229-4.927,97.606-138.565,117.472-210.693c31.77-115.066,115.342-199.383,234.188-227.141
				C4717.706,2713.255,4723.524,2712.237,4729.337,2711.635z"/>
			<path id="_x31_80611157" fill="#59B363" stroke="#000000" d="M4887.722,2292.842l-158.385,418.793
				c-5.813,0.601-11.631,1.62-17.445,2.97c-118.847,27.759-202.419,112.075-234.187,227.142
				c-19.866,72.128-15.245,205.766-117.472,210.693c-100.301,4.835-98.283-132.235-96.198-201.727
				c1.19-39.651,2.798-80.298,1.238-123.433c-1.573-45.21-3.721-91.168-5.548-137.624L4887.722,2292.842z"/>
			<path id="_x31_80611126" fill="#248A5E" stroke="#000000" d="M5851.405,3736.09l125.322,187.665l-0.738,1.579
				c-55.357-24.333-110.713-48.821-167.721-69.822c-104.783-38.705-209.318-78.567-311.709-123.35
				c-89.402-39.174-164.502-99.168-245.229-152.421c91.441-21.262,190.523-44.212,278.035-22.905
				c105.318,25.656,196.879,110.701,291.477,162.404C5830.669,3724.604,5840.829,3730.219,5851.405,3736.09z"/>
			<path id="_x31_80611125" fill="#248A5E" stroke="#000000" d="M5497.735,3206.354l353.672,529.734
				c-10.574-5.871-20.738-11.485-30.561-16.852c-94.598-51.704-186.158-136.749-291.477-162.405
				c-87.514-21.305-186.594,1.644-278.035,22.906c-4.414-2.895-8.828-5.787-13.326-8.682
				c-19.744-12.733-40.152-25.296-61.141-36.857l0.58-1.085l-118.197-506.192c99.789,36.809,192.199,80.792,245.713,102.297
				C5359.649,3151.225,5425.993,3179.755,5497.735,3206.354z"/>
			<path id="_x31_80611124" fill="#248A5E" stroke="#000000" d="M5286.683,2890.322l211.051,316.032
				c-71.742-26.6-138.088-55.13-192.771-77.132c-53.52-21.506-145.928-65.49-245.715-102.296l-47.16-201.815
				c3.494,1.984,6.906,3.8,10.322,5.534C5109.841,2875.807,5192.985,2883.995,5286.683,2890.322z"/>
			<path id="_x31_80611123" fill="#248A5E" stroke="#000000" d="M4887.722,2292.842l398.961,597.481
				c-93.695-6.327-176.842-14.516-264.273-59.679c-3.414-1.733-6.83-3.551-10.322-5.534L4887.722,2292.842z"/>
			<path id="_x31_80611156" fill="#248A5E" stroke="#000000" d="M3836.942,2869.986c0.122,35.739-0.611,63.835-1.771,87.944
				l-116.861,73.88l-0.082,0.001c-0.16-69.404-0.409-142.714-0.679-220.094c-0.48-139.051-5.384-283.58-5.544-425.626l4.155-0.013
				l103.036-8.754C3816.358,2541.495,3836.358,2701.092,3836.942,2869.986z"/>
			<path id="_x31_80611155" fill="#248A5E" stroke="#000000" d="M3920.017,2904.357l-84.847,53.573
				c1.161-24.109,1.895-52.205,1.771-87.945c-0.585-168.893-20.586-328.489-17.745-492.66l71.625-6.148
				C3896.504,2547.949,3916.664,2727.577,3920.017,2904.357z"/>
			<path id="_x31_80611154" fill="#248A5E" stroke="#000000" d="M3890.821,2371.178l152.894-12.997
				c-8.268,155.458-8.874,316.792-7.923,472.966l-115.775,73.211C3916.664,2727.577,3896.504,2547.949,3890.821,2371.178z"/>
			<path id="_x31_80611153" fill="#248A5E" stroke="#000000" d="M4043.715,2358.181l217.625-18.541
				c-9.406,115.901-6.253,234.41-1.614,350.013l-223.932,141.49C4034.841,2674.972,4035.446,2513.642,4043.715,2358.181z"/>
			<path id="_x31_80611152" fill="#248A5E" stroke="#000000" d="M4887.722,2292.842l-627.996,396.812
				c-4.639-115.603-7.792-234.113,1.614-350.013l609.747-51.897l3.721-4.833L4887.722,2292.842z"/>
			<path id="_x31_80611122" fill="#248A5E" stroke="#000000" d="M5059.247,3026.925l118.197,506.191l-0.58,1.086
				c-48.633-26.766-100.49-47.944-155.867-53.491c-33.008-3.305-82.879,0.335-130.967,16.01
				c-44.314,14.451-86.98,39.93-116.648,61.327l-21.594,24.216l-50.557,63.296l-0.482,5.4
				c-66.513-5.834-201.484,45.331-230.014,39.944c-36.095-6.686-67.646-19.796-97.871-36.399l26.519-70.077l93.322-246.848
				c14.766-8.196,29.025-17.971,42.704-29.405c99.7-83.546,47.831-205.631,124.158-292.419
				C4734.413,2930.634,4905.694,2970.354,5059.247,3026.925z"/>
			<path id="_x31_80611121" fill="#248A5E" stroke="#000000" d="M5012.087,2825.11l47.16,201.814
				c-153.555-56.571-324.834-96.291-399.678-11.169c-76.331,86.786-24.46,208.872-124.158,292.417
				c-13.681,11.436-27.94,21.211-42.704,29.407l236.63-625.945C4824.554,2701.417,4931.558,2781.419,5012.087,2825.11z"/>
			<path id="_x31_80611120" fill="#248A5E" stroke="#000000" d="M4887.722,2292.842l124.365,532.268
				c-80.531-43.69-187.533-123.693-282.75-113.475L4887.722,2292.842z"/>
			<path id="_x31_80611134" fill="#219866" stroke="#000000" d="M6603.614,3178.676l170.615,87.928
				c-14.217,49.509-30.229,104.921-48.363,171.974c-28.148,104.082-71.146,242.122-130.145,365.67l-119.563-105.809
				C6544.142,3549.918,6580.192,3328.369,6603.614,3178.676z"/>
			<path id="_x31_80611133" fill="#219866" stroke="#000000" d="M6194.938,2967.973l408.676,210.701
				c-23.422,149.697-59.473,371.246-127.455,519.765l-490.904-434.424c33.461-12.003,64.648-29.483,92.662-53.768
				C6149.597,3148.161,6179.882,3060.534,6194.938,2967.973z"/>
			<path id="_x31_80611132" fill="#219866" stroke="#000000" d="M5773.11,2750.499l421.826,217.474
				c-15.055,92.561-45.34,180.189-117.021,242.276c-28.014,24.285-59.199,41.765-92.662,53.769l-422.365-373.737
				C5653.685,2876.005,5734.429,2838.49,5773.11,2750.499z"/>
			<path id="_x31_80611131" fill="#219866" stroke="#000000" d="M4891.144,2295.905l881.965,454.593
				c-38.68,87.992-119.422,125.505-210.221,139.781L4891.144,2295.905z"/>
			<path id="_x31_80611130" fill="#219866" stroke="#000000" d="M6476.159,3698.438l119.563,105.809
				c-44.479,93.079-98.133,177.96-161.439,233.789c-33.148,29.201-84.232,15.663-85.852,27.972c-0.729,5.57,2.281,10.464,7.291,16.1
				c-24.764-20.946-56.887-33.135-86.932-44.167c-41.531-15.232-83.885-28.135-125.416-43.285
				c-56.918-20.753-112.111-44.913-167.387-69.32l0.74-1.58l-125.322-187.665c161.979,89.789,405.813,225.502,554.32,72.557
				C6432.478,3781.122,6455.784,3743.058,6476.159,3698.438z"/>
			<path id="_x31_80611129" fill="#219866" stroke="#000000" d="M5985.255,3264.017l490.904,434.422
				c-20.375,44.619-43.682,82.684-70.434,110.208c-148.508,152.945-392.342,17.232-554.32-72.558l-353.672-529.734
				C5656.78,3265.485,5842.138,3315.375,5985.255,3264.017z"/>
			<path id="_x31_80611128" fill="#219866" stroke="#000000" d="M5562.888,2890.28l422.367,373.736
				c-143.115,51.36-328.475,1.469-487.52-57.662l-211.051-316.032c11.555,0.792,23.365,1.499,35.334,2.287
				C5395.591,2897.427,5483.136,2902.859,5562.888,2890.28z"/>
			<path id="_x31_80611127" fill="#219866" stroke="#000000" d="M4891.144,2295.905l671.744,594.375
				c-79.75,12.579-167.295,7.146-240.869,2.329c-11.969-0.789-23.781-1.495-35.332-2.287l-398.963-597.481L4891.144,2295.905z"/>
			<path id="_x31_80611102" fill="#9AD2BD" stroke="#000000" d="M6348.54,4075.241c-34.285-17.302-66.607-32.476-79.748-37.302
				c-41.533-15.229-83.885-28.134-125.416-43.284c-56.92-20.753-112.111-44.913-167.387-69.321
				c-55.355-24.333-110.713-48.821-167.719-69.822c-104.783-38.707-209.318-78.567-311.711-123.348
				c-89.4-39.177-164.5-99.17-245.227-152.423c-4.414-2.894-8.828-5.787-13.326-8.683c-19.746-12.732-40.154-25.294-61.139-36.855
				c-48.633-26.765-100.492-47.943-155.867-53.492c-33.01-3.302-82.879,0.335-130.967,16.012
				c-44.314,14.448-86.98,39.927-116.648,61.325l-21.596,24.217l-50.559,63.296l-0.48,5.401
				c-66.515-5.836-201.484,45.331-230.014,39.943c-36.097-6.685-67.646-19.796-97.871-36.398
				c-17.576-9.577-34.654-20.327-51.981-31.65c-78.476-51.511-160.349-77.247-244.851-91.164
				c-51.976-8.55-104.855-12.687-158.562-15.495c-65.094-3.512-131.26-5.114-198.108-10.618
				c0.164,95.352,0.202,178.01,0.115,249.206l2.907,0.14l-2.909,0.005c0-0.048,0-0.097,0-0.146l-3.202-0.149
				c0.025,94.553,0.659,168.988,2.595,226.277c5.061,149.703,4.926,481.532,2.634,525.612c0.104,29.604,0.41,59.214,0.652,88.839
				c0.037,1.278,0.076,2.565,0.107,3.848c0.252,10.01,0.237,20.018,0.122,30.021c0.128,24.668,0.124,49.331-0.146,73.998
				c0.355,9.297,0.917,18.593,1.746,27.865c0.75,4.91,1.585,9.785,2.23,14.504c1.884,13.878,4.058,27.717,6.516,41.506
				c17.952,100.734,221.975,374.478,256.521,470.109c15.958,44.174,32.534,87.986,50.295,130.058
				c31.929,75.632,67.689,145.623,110.565,201.985c-0.056-0.07-0.108-0.139-0.163-0.219c-0.486-0.635-0.965-1.273-1.447-1.914
				c-32.361-43.126-58.003-91.075-81.85-139.291c-5.178-10.878-10.213-21.909-15.162-33.057
				c1.364-0.889,96.879-63.504,143.48-79.655c16.665-5.772,33.384-10.442,50.173-14.207c2.093-0.476,4.184-0.939,6.277-1.381
				c88.183-18.649,178.043-13.436,268.767-15.555c97.722-2.294,186.482-42.6,275.477-78.691
				c87.697-35.563,183.178-80.364,278.268-47.026c58.438,20.488,112.203,53.865,162.885,90.333
				c16.123,11.606,31.943,23.524,47.494,35.439c10.143,7.774,103.43,109.115,104.623,110.416c-0.09,0.085-0.184,0.149-0.266,0.23
				c0.088-0.071,0.186-0.144,0.275-0.215c7.346-5.816,14.924-12.133,22.65-18.815c2.176-1.885,4.359-3.799,6.553-5.731
				c7.143-6.555,19.734-18.095,35.082-32.056c41.52-39.012,83.994-81.735,117.998-110.267
				c64.986-54.526,61.246-97.158,135.215-154.239c129.889-100.183,299.668-241.956,403.344-339.393
				c207.121-194.665,269.236-362.313,291.863-524.652c1.797-12.93,2.625-24.632,2.682-35.299
				C6402.62,4110.643,6351.782,4095.497,6348.54,4075.241z M5261.819,4238.566c2.152,119.894-59.025,233.155-148.201,309.032
				c-64.563,54.934-146.059,104.356-235.426,88.908c-59.705-10.325-114.379-54.332-147.748-103.127
				c-22.525-32.95-23.391-65.792-28.178-102.772c-7.973-12.642-13.844-27.916-16.469-42.22c-5.82-31.644-0.307-66.487,8.104-97.155
				c8.369-30.501,22.764-57.639,21.24-90.224c-0.15-3.302-0.434-30.704-6.717-31.435c-4.707,2.07-11.719,2.729-15.76,1.593
				c-9.934-2.789-15.35-14.04-19.803-22.443c-6.494-12.268-11.109-27.075-16.527-39.94c-13.104-31.158-23.544-64.495-46.827-89.761
				c-20.784-22.565-87.735-59.644-87.161-97.584c0.024-1.806,0.202-3.605,0.552-5.416c5.956-31.266,54.863-34.89,79.261-29.108
				c2.899,0.689,5.675,1.649,8.356,2.798c-7.458-4.956-14.984-10.018-22.387-15.842c-11.57-9.097-5.981-15.775,3.018-19.943
				c1.941-0.902,3.877-1.646,5.806-2.269c-7.497,2.106-14.953,5.154-14.769,8.469c-2.775-51.046,87.798-91.596,126.265-104.019
				c57.145-18.458,122.678-13.279,180.465-0.863c117.629,25.291,225.742,76.29,296.607,183.215
				C5246.772,4030.93,5259.913,4132.133,5261.819,4238.566z"/>
			<path id="_x31_80611104" fill="#54BF94" stroke="#000000" d="M4363.918,4040.334c72.241-57.199,156.318-95.441,234.706-31.98
				c20.94,16.957,35.141,41.238,44.403,66.224c0.016,0.032,0.029,0.063,0.04,0.108c9.188,24.76,15.006,55.379,31.17,76.814
				c22.66,30.056,44.475,29.729,39.449,70.27c-4.701,37.859-24.27,72.299-28.752,110.448
				c-39.647,337.562,149.574,218.724,259.318,477.027c51.371,120.942,125.84,336.191,59.34,334.347
				c-98.586-2.727-321.889,120.462-408.918,128.163c-58.03,5.137-97.011,15.612-135.077-3.69
				c-37.877-19.186-62.308-68.5-85.626-122.298c-20.992-48.404-41.929-100.183-56.586-141.105
				c-41.854-116.821-54.698-193.061-80.275-329.939C4199.408,4472.908,4166.743,4196.475,4363.918,4040.334z"/>
			<path id="_x31_80611106" fill="#54BF94" stroke="#000000" d="M4585.027,4585.815c30.75-17.669,89.39-32.407,110.685-66.38
				c-15.756-40.83-21.236-98.127-10.777-187.22c3.705-31.59,15.992-60.922,24.859-91.209c15.682-53.419-12.01-55.544-37.045-93.462
				c-13.766-20.846-21.064-49.635-29.698-72.918c-0.008-0.018-0.018-0.034-0.023-0.052c-9.267-24.984-23.463-49.267-44.403-66.224
				c-78.388-63.459-162.467-25.221-234.706,31.98c-197.175,156.143-164.51,432.574-126.804,634.39
				c8.977,48.04,16.387,88.608,24.03,126.085c55.919-40.72,108.387-86.893,165.604-125.884
				C4477.592,4640.286,4531.776,4616.421,4585.027,4585.815z"/>
			<path id="_x31_80611105" fill="#54BF94" stroke="#000000" d="M4944.253,4809.243
				c-80.779-190.128-204.605-175.936-248.543-289.808c-21.293,33.973-79.935,48.711-110.683,66.38
				c-53.251,30.605-107.438,54.471-158.28,89.107c-57.219,38.989-109.686,85.164-165.603,125.882
				c14.131,69.306,29.075,128.029,56.243,203.854c14.653,40.925,35.59,92.703,56.584,141.105
				c23.318,53.798,47.747,103.112,85.624,122.298c38.068,19.303,77.049,8.829,135.079,3.69
				c87.029-7.703,310.33-130.892,408.916-128.163C5070.093,5145.435,4995.624,4930.186,4944.253,4809.243z"/>
			<path id="_x31_80611116" fill="#62D09F" stroke="#000000" d="M3867.003,4490.371c-26.816-122.797,15.12-231.708,20.022-353.869
				c4.454-110.966,4.021-224.151-2.357-335.277c-3.125-0.502-6.255-1.001-9.385-1.476c-11.118-1.688-160.128-20.144-159.541-14.099
				l0.569-0.009c0.149,80.001,0.841,144.396,2.563,195.27c5.061,149.704,4.926,481.53,2.634,525.612
				c0.224,64.32,1.425,128.699,0.793,193.056l0.354,1.773c52.87,13.438,106.934,21.5,160.378,32.126
				c0.282-22.069,1.904-44.321,2.938-66.7C3888.79,4605.795,3879.967,4549.703,3867.003,4490.371z"/>
			<path id="_x31_80611115" fill="#62D09F" stroke="#000000" d="M4089.081,3966.172c-2.2-40.854-6.681-81.174-14.229-121.212
				c-6.504-1.747-13.011-3.467-19.521-5.163c-56.412-14.708-113.066-29.266-170.664-38.572
				c6.379,111.128,6.812,224.312,2.358,335.279c-4.904,122.161-46.838,231.072-20.023,353.867
				c12.966,59.332,21.788,115.422,18.966,176.411c-1.033,22.377-2.653,44.629-2.936,66.7c14.524,2.889,29.008,5.958,43.403,9.386
				c43.855,10.45,91.743,14.222,136.073,1.401c-4.642-86.452,11.317-179.317,15.479-253.711
				C4087.743,4316.385,4098.481,4140.574,4089.081,3966.172z"/>
			<path id="_x31_80611114" fill="#62D09F" stroke="#000000" d="M4181.054,4558.902c-2.365-155.747-25.57-301.663,63.563-437.107
				c23.744-36.071,54.529-69.649,87.468-97.567c10.228-8.685,63.749-39.759,43.395-56.717
				c-26.268-21.856-65.792-37.257-96.527-51.631c-65.449-30.62-134.428-52.241-204.099-70.922
				c7.548,40.038,12.03,80.358,14.229,121.21c9.402,174.405-1.34,350.215-11.09,524.389c-4.164,74.394-20.123,167.259-15.48,253.711
				c11.63-3.363,23.028-7.851,34.032-13.686C4155.703,4699.241,4182.017,4622.642,4181.054,4558.902z"/>
			<path id="_x31_80611119" fill="#62D09F" stroke="#000000" d="M4090.76,5099.417c-76.435-63.867-157.337-173.616-193.045-266.804
				c-8.156-21.291-12.108-42.817-13.742-64.544c-54.867-9.294-109.648-24.318-159.492-35.863l-0.314,0.052
				c0.702,4.515,1.466,8.997,2.059,13.344c1.88,13.88,4.058,27.716,6.514,41.504c13.32,74.755,129.104,244.771,202.06,366.585
				c2.349,3.827,4.645,7.688,6.885,11.565c9.388,15.882,17.913,30.814,25.244,44.46c1.032,1.728,2.059,3.461,3.114,5.184
				c7.454,12.147,12.976,25.331,17.9,38.802c0.462,1.19,0.905,2.37,1.323,3.518c6.832,18.908,13.789,37.75,20.891,56.425
				c9.618,23.612,24.689,61.968,27.358,68.773c0.081,0.188,0.157,0.377,0.233,0.562c0.412-0.289,105.944-75.453,175.459-90.946
				c63.636-14.188,126.816-12.004,189.628-12.213c-15.142-6.856-27.353-22.419-37.592-41.589c-0.89-0.227-1.786-0.446-2.681-0.677
				C4264.994,5212.253,4168.411,5164.3,4090.76,5099.417z"/>
			<path id="_x31_80611118" fill="#62D09F" stroke="#000000" d="M3883.973,4768.069c1.636,21.724,5.588,43.253,13.742,64.544
				c35.708,93.189,116.61,202.937,193.045,266.804c77.653,64.883,174.234,112.834,271.797,138.127
				c0.893,0.231,1.79,0.454,2.678,0.679c-19.646-36.792-32.054-86.888-44.093-114.3c-16.31-37.11-32.22-75.186-46.057-114.003
				c-30.864-6.5-113.522-55.143-129.34-68.367c-53.772-44.957-75.329-108.508-81.792-177.496
				C4008.564,4781.751,3946.217,4778.606,3883.973,4768.069z"/>
			<path id="_x31_80611117" fill="#62D09F" stroke="#000000" d="M4145.742,4941.557c15.818,13.223,98.479,61.865,129.341,68.365
				c-16.887-47.347-30.69-95.813-38.342-145.021c-8.788-56.465-20.951-206.577-102.112-139.238
				c-21.663,17.979-45.449,30.338-70.679,38.399C4070.414,4833.047,4091.973,4896.598,4145.742,4941.557z"/>
			<path id="_x31_80611164" fill="#A4DAA4" stroke="#000000" d="M3917.473,3516.195c0.446,7.646,0.556,15.457,0.334,23.354
				c-2.141,78.307-23.568,155.35-40.339,232.62c-61.866-6.683-154.991-16.59-155.077-17.246l-2.909,0.005
				c0.086-71.232,0.049-153.935-0.115-249.351C3786.213,3511.079,3852.381,3512.68,3917.473,3516.195z"/>
			<path id="_x31_80611163" fill="#A4DAA4" stroke="#000000" d="M4074.734,3539.677c29.688,77.773,18.221,174.145-3.279,253.519
				l-17.746,11.281c-40.938-10.832-82.271-19.745-123.769-26.256c-5.071-0.813-25.865-3.068-52.471-6.052
				c16.771-77.271,38.198-154.314,40.339-232.619c0.224-7.896,0.113-15.711-0.332-23.355c53.708,2.804,106.584,6.944,158.561,15.493
				L4074.734,3539.677z"/>
			<path id="_x31_80611162" fill="#A4DAA4" stroke="#000000" d="M4372.863,3654.503c30.227,16.604,61.776,29.714,97.874,36.399
				c28.527,5.387,163.499-45.778,230.012-39.944c31.016,2.722,47.111,17.712,30.949,56.419
				c-18.297,43.697-93.13,59.826-126.191,90.199c-6.298,5.762-12.265,11.436-17.98,17.017
				c-40.257,39.122-70.811,73.472-131.903,97.79c-40.417,16.101-85.846,4.366-124.713-10.959
				c-40.613-15.986-81.401-31.554-122.35-46.95c-50.519-19.026-102.357-36.05-154.854-49.999l17.748-11.281
				c21.498-79.374,32.969-175.745,3.279-253.519l1.299-7.985c84.503,13.917,166.376,39.653,244.852,91.164
				C4338.212,3634.179,4355.288,3644.927,4372.863,3654.503z"/>
			<path id="_x31_80611112" fill="#6ACBBA" stroke="#000000" d="M6361.298,4087.11c-25.434-24.089-60.148-37.298-92.49-49.18
				c-41.504-15.238-83.861-28.105-125.408-43.253c-113.947-41.546-221.369-97.155-335.141-139.172
				c-104.813-38.709-209.281-78.535-311.668-123.342c-94.404-41.319-172.754-105.817-258.627-161.156
				c-30.832-19.876-61.523-38.207-92.891-53.176c-2.211-1.057-4.426-2.092-6.648-3.118
				c12.447,108.172,84.482,165.297,164.824,234.164c88.471,75.821,184.482,126.044,290.563,172.92
				c103.383,45.687,212.332,76.248,315.525,121.652c97.262,42.794,206.557,108.067,218.582,225.389
				c10.375,101.203-73.535,139.089-156.803,160.399c-43.844,11.226-88.604,20.933-131.234,36.391
				c-115.5,41.878-234.227,52.844-295.939,173.349c-18.629,36.371-27.986,77.686-52.111,110.816
				c-21.008,28.861-49.205,54.021-74.914,78.55c-77.684,74.115-147.553,153.266-242.299,206.374
				c-14.379,8.062-84.559,40.763-119.473,39.004c0.486,4.14,0.938,8.259,1.299,12.319c1.033,11.631,1.529,22.943,1.4,33.81
				c-0.223,19.772,5.137,21.606,21.658,30.487c53.309,28.656,87.996,49.922,134.229,77.515
				c70.713,42.202,142.416,118.239,198.023,167.942c5.313-6.216,55.844-45.84,49.521-50.152
				c-27.17-18.523-49.102-40.113-50.654-85.665c-1.148-33.706,25.012-90.603,43.084-118.975
				c56.334-88.454,152.689-142.916,235.982-202.269c128.955-91.891,240.662-214.67,389.896-274.826
				c23.98-9.669,50.064-25.481,76.256-27.669c3.943-0.33,7.504-0.373,10.697-0.166l46.883,9.063
				c125.799-149.738,169.938-284.512,188.24-415.813C6408.997,4176.726,6401.194,4124.926,6361.298,4087.11z"/>
			<path id="_x31_80611113" fill="#6ACBBA" stroke="#000000" d="M5174.618,5034.718c94.746-53.108,164.617-132.261,242.299-206.374
				c25.707-24.531,53.906-49.688,74.914-78.55c24.125-33.131,33.48-74.443,52.111-110.816
				c61.715-120.507,180.439-131.471,295.938-173.349c42.633-15.456,87.391-25.164,131.236-36.391
				c83.268-21.311,167.176-59.199,156.803-160.399c-12.027-117.319-121.32-182.597-218.584-225.391
				c-103.193-45.404-212.141-75.965-315.523-121.652c-106.082-46.875-202.094-97.095-290.563-172.918
				c-80.342-68.867-152.379-125.992-164.824-234.165c-40.025-18.43-82.795-32.817-126.758-34.608
				c-23.918-0.972-47.379-0.944-73.326,3.365c-25.086,4.16-47.293,11.946-68.854,22.021
				c-11.715,95.614,121.279,171.807,188.201,213.423c83.539,51.955,174.617,91.915,256.639,146.181
				c132.34,87.574,382.971,176.551,412.625,306.448c35.4,155.006-189.555,128.66-273.875,154.334
				c-75.021,22.846-92.652,92.918-118.926,161.007c-34.283,88.781-66.973,190.861-120.797,270.116
				c-44.945,66.168-166.063,96.831-192.154,176.281c15.939,46.563,28.633,95.517,33.945,140.446
				C5090.06,5075.48,5160.239,5042.779,5174.618,5034.718z"/>
			<path id="_x31_80611111" fill="#6ACBBA" stroke="#000000" d="M5213.354,4756.996c53.824-79.255,86.516-181.336,120.799-270.117
				c26.273-68.088,43.904-138.158,118.926-161.006c84.316-25.676,309.275,0.672,273.877-154.334
				c-29.654-129.899-280.289-218.876-412.627-306.449c-82.021-54.265-173.1-94.226-256.639-146.18
				c-66.922-41.616-199.914-117.81-188.199-213.424c-29.625,13.846-58.025,32.027-90.951,51.153
				c-43.451,25.236-38.922,95.47-15.322,128.152c10.354,14.326,26.797,25.561,50.699,31.97
				c54.111,14.514,120.215,10.312,171.258,32.095c100.668,42.967,194.373,119.133,241.494,219.602
				c45.871,97.809,68.193,207.33,52.018,314.876c-13.963,92.886-40.781,170.35-110.277,236.873
				c-37.264,35.664-75.25,69.778-118.873,97.591c-60.869,38.813-119.949,52.104-189.604,35.921
				c53.461,15.974,91.037,119.952,111.713,161.037c17.082,33.933,34.717,75.186,49.555,118.518
				C5047.292,4853.827,5168.409,4823.164,5213.354,4756.996z"/>
			<path id="_x31_80611103" fill="#A0EE9D" stroke="#000000" d="M4864.036,4013.459c-58.244-62.85-160.197-167.267-252.647-164.688
				c-4.293,0.123-29.538,5.297-29.205,11.36c-2.775-51.044,87.8-91.593,126.265-104.015c57.145-18.46,122.678-13.283,180.469-0.863
				c117.629,25.289,225.74,76.29,296.604,183.215c61.252,92.462,74.393,193.663,76.299,300.099
				c2.152,119.894-59.025,233.155-148.201,309.032c-64.563,54.934-146.059,104.356-235.426,88.908
				c-59.705-10.325-114.379-54.332-147.748-103.127c-22.771-33.302-23.398-66.491-28.322-103.952
				c3.947,7.273,9.715,14.391,15.252,20.193c19.662,20.64,50.957,33.138,79.529,27.684c63.545-12.102,117.398-61.702,145.34-117.912
				c17.877-35.972,25.313-75.194,23.248-115.119C4961.778,4172.057,4913.601,4066.949,4864.036,4013.459z"/>
			<path id="_x31_80611110" fill="#80CDF8" stroke="#000000" d="M5048.188,5373.4c-6.674-18.327-24.859-32.607-48.607-32.988
				c-32.477-0.504-111.408,26.502-110.754,69.923c1.176,77.872,128.922,46.931,155.357,2.654
				C5051.958,5399.961,5052.69,5385.767,5048.188,5373.4z"/>
			<path id="_x31_80611109" fill="#80CDF8" stroke="#000000" d="M5284.315,5304.031c-15.551-11.914-31.371-23.832-47.496-35.44
				c-11.174,9.871-25.777,18.056-39.836,24.965c0.004,0.007,0.016,0.011,0.023,0.019c1.262,0.93,2.518,1.864,3.758,2.84
				c1.354,1.053,2.693,2.122,4.014,3.235c134.928,113.443-134.084,197.365-211.322,206.69
				c-85.705,10.343-159.883,73.988-241.557,98.479c-64.883,19.454-156.143,11.068-187.582-58.73
				c-0.542-1.194-1.044-2.368-1.524-3.54c-0.061-0.148-0.126-0.301-0.191-0.453c-0.438-1.089-0.852-2.166-1.249-3.229
				c-0.08-0.231-0.165-0.463-0.251-0.688c-0.365-1.017-0.712-2.027-1.037-3.026c-0.092-0.265-0.175-0.533-0.258-0.808
				c-0.305-0.96-0.598-1.912-0.859-2.87c-0.083-0.288-0.158-0.575-0.234-0.869c-0.225-0.82-0.435-1.643-0.628-2.454
				c-0.09-0.397-0.184-0.779-0.271-1.179c-0.146-0.69-0.296-1.375-0.426-2.061c-0.089-0.454-0.176-0.906-0.255-1.354
				c-0.125-0.685-0.232-1.364-0.332-2.037c-0.064-0.43-0.129-0.853-0.184-1.275c-0.092-0.719-0.173-1.433-0.24-2.145
				c-0.045-0.455-0.086-0.903-0.118-1.354c-0.058-0.667-0.105-1.333-0.134-1.99c0-0.018,0-0.035-0.002-0.051
				c-43.802-8.105-83.207-35.41-122.726-54.071c-62.037-29.277-156.936-70.938-188.25-139.713
				c-16.792,3.765-33.513,8.435-50.176,14.207c-46.602,16.151-142.118,78.769-143.48,79.655
				c4.951,11.148,9.984,22.179,15.165,33.059c23.845,48.214,49.492,96.165,81.847,139.289c0.482,0.641,0.963,1.281,1.449,1.916
				c0.056,0.078,0.111,0.145,0.161,0.217c0.778,1.018,1.553,2.025,2.334,3.033c0.81,1.045,1.619,2.094,2.433,3.126
				c0.65,0.839,1.308,1.664,1.962,2.497c0.751,0.936,1.498,1.885,2.259,2.815c0.831,1.04,1.675,2.069,2.514,3.095
				c0.591,0.725,1.181,1.451,1.772,2.168c1.468,1.768,2.938,3.515,4.416,5.256c1.31,1.532,2.631,3.052,3.955,4.56
				c0.49,0.56,0.973,1.121,1.463,1.68c0.405,0.45,0.811,0.899,1.215,1.354c0.643,0.718,1.285,1.444,1.93,2.159
				c1.306,1.444,2.613,2.895,3.942,4.322c0.498,0.545,1,1.095,1.505,1.636c33.683,36.09,72.419,66.362,114.568,90.98
				c0.006,0,0.014,0.002,0.018,0.01c18.906,10.867,38.351,20.438,58.216,28.829c0.018,0.008,0.033,0.014,0.052,0.02
				c8.477,3.579,17.032,6.946,25.659,10.112c0.078,0.031,0.154,0.059,0.231,0.085c8.583,3.153,17.242,6.097,25.955,8.859
				c0.104,0.035,0.204,0.062,0.306,0.098c2.771,0.873,5.545,1.728,8.324,2.563c0.167,0.055,0.329,0.105,0.5,0.151
				c5.803,1.746,11.624,3.406,17.475,4.986c0.072,0.019,0.146,0.046,0.225,0.06c2.729,0.741,5.471,1.46,8.21,2.167
				c0.354,0.08,0.712,0.18,1.066,0.268c2.789,0.71,5.575,1.406,8.369,2.08c0.028,0.008,0.062,0.018,0.087,0.017
				c5.757,1.402,11.531,2.71,17.322,3.966c0.495,0.1,0.991,0.209,1.486,0.313c2.447,0.53,4.896,1.032,7.349,1.539
				c0.424,0.081,0.845,0.176,1.268,0.255c5.687,1.146,11.383,2.224,17.091,3.238c0.583,0.109,1.165,0.213,1.744,0.314
				c2.267,0.396,4.537,0.789,6.802,1.172c0.667,0.106,1.331,0.217,1.999,0.328c2.599,0.428,5.195,0.846,7.8,1.248
				c0.193,0.036,0.394,0.062,0.586,0.094c2.834,0.439,5.68,0.864,8.525,1.271c0.601,0.082,1.198,0.161,1.797,0.249
				c2.203,0.315,4.409,0.615,6.613,0.908c0.811,0.106,1.621,0.218,2.436,0.323c2.17,0.283,4.336,0.559,6.506,0.825
				c0.651,0.085,1.303,0.168,1.949,0.247c2.785,0.336,5.566,0.657,8.348,0.978c0.5,0.052,0.996,0.101,1.498,0.158
				c2.283,0.258,4.559,0.5,6.842,0.734c0.882,0.087,1.762,0.18,2.639,0.261c2.003,0.205,4.008,0.4,6.011,0.59
				c0.832,0.078,1.669,0.158,2.506,0.231c2.763,0.256,5.532,0.501,8.298,0.734c2.466,0.202,4.936,0.388,7.404,0.555
				c0.207,0.014,0.418,0.024,0.627,0.036c2.375,0.16,4.764,0.303,7.147,0.428c0.004,0,0.006,0,0.01-0.002
				c55.12,1.402,110.178-3.928,162.871-15.834c0.004-0.002,0.008-0.002,0.01-0.002c0.104-0.017,0.199-0.051,0.297-0.071
				c2.24-0.532,4.48-1.074,6.723-1.625c0.617-0.151,1.225-0.308,1.844-0.46c1.752-0.437,3.502-0.882,5.256-1.33
				c0.725-0.186,1.443-0.374,2.162-0.563c1.678-0.434,3.357-0.878,5.037-1.328c0.715-0.189,1.436-0.389,2.15-0.582
				c1.779-0.482,3.557-0.976,5.328-1.473c0.59-0.162,1.172-0.325,1.762-0.491c4.777-1.348,9.563-2.748,14.344-4.196
				c0.408-0.123,0.818-0.253,1.223-0.375c1.947-0.592,3.902-1.195,5.852-1.81c0.668-0.207,1.332-0.424,1.992-0.63
				c1.721-0.546,3.434-1.092,5.148-1.651c0.723-0.229,1.443-0.461,2.158-0.702c1.721-0.559,3.443-1.131,5.158-1.707
				c0.656-0.222,1.318-0.438,1.975-0.659c1.947-0.656,3.896-1.324,5.846-1.997c0.408-0.143,0.816-0.276,1.234-0.42
				c4.801-1.664,9.602-3.38,14.402-5.141c0.521-0.189,1.053-0.389,1.578-0.584c1.842-0.677,3.686-1.366,5.529-2.057
				c0.674-0.259,1.355-0.512,2.033-0.773c1.725-0.649,3.449-1.311,5.174-1.977c0.684-0.26,1.373-0.527,2.059-0.793
				c1.803-0.697,3.605-1.411,5.414-2.122c0.564-0.224,1.129-0.446,1.697-0.673c2.313-0.922,4.625-1.848,6.934-2.788
				c0.041-0.019,0.082-0.028,0.117-0.05c2.473-1,4.943-2.021,7.412-3.053c0.213-0.082,0.422-0.174,0.627-0.262
				c2.154-0.896,4.309-1.804,6.459-2.713c0.578-0.25,1.164-0.506,1.74-0.75c1.803-0.77,3.602-1.551,5.41-2.328
				c0.658-0.292,1.32-0.578,1.979-0.864c1.773-0.78,3.553-1.559,5.334-2.347c0.609-0.273,1.23-0.542,1.85-0.82
				c1.975-0.881,3.949-1.769,5.922-2.661c0.393-0.172,0.777-0.354,1.168-0.53c4.842-2.199,9.688-4.439,14.537-6.727
				c0.369-0.176,0.74-0.353,1.119-0.53c1.996-0.942,3.99-1.889,5.988-2.858c0.594-0.281,1.182-0.563,1.773-0.854
				c1.818-0.874,3.633-1.753,5.455-2.637c0.607-0.301,1.217-0.599,1.828-0.9c1.881-0.92,3.762-1.851,5.646-2.783
				c0.498-0.25,0.998-0.499,1.496-0.742c2.301-1.15,4.6-2.297,6.902-3.46c0.059-0.035,0.119-0.071,0.176-0.095
				c4.885-2.472,9.758-4.979,14.635-7.519c0.436-0.233,0.879-0.464,1.324-0.695c1.945-1.024,3.889-2.044,5.834-3.072
				c0.559-0.304,1.119-0.6,1.682-0.898c1.885-1.005,3.766-2.005,5.648-3.019c0.525-0.286,1.049-0.562,1.566-0.844
				c2.068-1.115,4.135-2.234,6.199-3.363c0.301-0.16,0.615-0.331,0.922-0.496c4.91-2.682,9.813-5.402,14.723-8.157
				c0.119-0.063,0.236-0.134,0.352-0.2c2.254-1.265,4.512-2.539,6.77-3.823c0.428-0.249,0.867-0.497,1.303-0.747
				c1.977-1.127,3.957-2.259,5.932-3.397c0.482-0.283,0.969-0.56,1.453-0.841c2.008-1.158,4.023-2.322,6.029-3.492
				c0.385-0.224,0.775-0.449,1.154-0.675c7.318-4.269,14.635-8.619,21.947-13.04c0.213-0.123,0.43-0.254,0.643-0.386
				c2.178-1.314,4.352-2.644,6.539-3.973c0.385-0.237,0.779-0.476,1.168-0.712c2.059-1.258,4.113-2.521,6.174-3.787
				c0.373-0.237,0.752-0.471,1.139-0.707c2.195-1.36,4.393-2.725,6.598-4.1c0.184-0.119,0.369-0.23,0.557-0.349
				c7.373-4.595,14.736-9.268,22.096-13.999c0.213-0.143,0.43-0.276,0.639-0.41c2.205-1.423,4.414-2.843,6.611-4.274
				c0.307-0.201,0.617-0.397,0.918-0.595c2.199-1.427,4.395-2.861,6.588-4.293c0.219-0.141,0.439-0.292,0.658-0.434
				c9.816-6.432,19.635-12.977,29.436-19.613c0.168-0.117,0.328-0.229,0.496-0.341c2.283-1.55,4.568-3.101,6.85-4.659
				c0.189-0.128,0.385-0.258,0.568-0.387c12.326-8.415,24.633-16.977,36.924-25.676c0.043-0.028,0.082-0.06,0.127-0.087
				c14.85-10.506,29.67-21.206,44.463-32.056c2.863-2.104,5.725-4.229,8.582-6.343c16.268-12.134,56.299-42.43,62.6-47.145
				c0.701-0.535,1.408-1.06,2.111-1.594c6.572-5.046,13.137-10.104,19.691-15.181c0.086-0.07,0.162-0.131,0.246-0.201
				c6.477-5.011,12.943-10.043,19.398-15.088c0.146-0.11,0.293-0.227,0.441-0.338c6.416-5.017,12.828-10.041,19.229-15.075
				c0.154-0.124,0.307-0.241,0.463-0.366c6.389-5.032,12.771-10.061,19.148-15.111c0.098-0.079,0.199-0.158,0.301-0.237
				c0.082-0.081,0.178-0.146,0.264-0.229C5387.745,5413.146,5294.46,5311.805,5284.315,5304.031z"/>
			<path id="_x31_80611108" fill="#80CDF8" stroke="#000000" d="M5204.78,5299.646c-1.318-1.111-2.662-2.177-4.014-3.235
				c-1.246-0.968-2.494-1.908-3.76-2.84c-0.012-0.008-0.021-0.019-0.029-0.024c-28.641-21.049-63.924-31.777-100.082-36.546
				c-0.174-0.022-0.346-0.045-0.521-0.074c-1.768-0.228-3.541-0.441-5.311-0.646c-0.307-0.034-0.611-0.07-0.92-0.103
				c-1.662-0.188-3.338-0.355-5.002-0.521c-0.418-0.036-0.836-0.082-1.25-0.121c-1.576-0.149-3.156-0.282-4.742-0.41
				c-0.506-0.043-1.018-0.086-1.523-0.121c-1.504-0.111-3.008-0.22-4.51-0.313c-0.592-0.038-1.172-0.075-1.758-0.113
				c-1.439-0.091-2.873-0.171-4.313-0.246c-0.652-0.025-1.309-0.057-1.953-0.088c-1.375-0.059-2.742-0.118-4.109-0.166
				c-0.73-0.025-1.449-0.051-2.172-0.077c-1.307-0.032-2.604-0.079-3.908-0.103c-0.787-0.021-1.572-0.028-2.357-0.048
				c-1.24-0.022-2.479-0.04-3.713-0.048c-0.85-0.008-1.695-0.01-2.543-0.018c-1.17-0.001-2.344-0.011-3.51-0.01
				c-0.916,0.007-1.83,0.017-2.744,0.02c-1.1,0.009-2.193,0.02-3.281,0.031c-1,0.02-1.992,0.042-2.994,0.063
				c-1,0.023-2.006,0.038-3.004,0.065c-1.1,0.028-2.191,0.064-3.285,0.102c-0.891,0.026-1.789,0.047-2.678,0.084
				c-1.27,0.047-2.531,0.103-3.795,0.157c-0.703,0.027-1.414,0.059-2.121,0.088c-1.963,0.096-3.918,0.196-5.861,0.3
				c-71.984,4.042-106.828,39.078-160.143,81.382c-46.859,37.187-91.285,55.804-148.842,73.654
				c-33.014,10.234-83.208,22.875-115.809,46.685c-0.775,0.566-1.524,1.134-2.281,1.711c-0.21,0.163-0.419,0.337-0.636,0.492
				c-0.579,0.451-1.146,0.903-1.709,1.363c-0.188,0.144-0.375,0.301-0.564,0.449c-0.711,0.586-1.412,1.174-2.102,1.769
				c-0.157,0.135-0.313,0.277-0.471,0.412c-0.544,0.473-1.07,0.949-1.604,1.433c-0.22,0.205-0.438,0.407-0.651,0.612
				c-0.527,0.481-1.041,0.972-1.546,1.472c-0.153,0.14-0.306,0.283-0.452,0.431c-0.613,0.603-1.21,1.215-1.804,1.837
				c-0.217,0.229-0.429,0.455-0.64,0.679c-0.4,0.428-0.799,0.863-1.191,1.298c-0.223,0.25-0.449,0.506-0.668,0.755
				c-0.492,0.566-0.984,1.14-1.461,1.723c-0.215,0.261-0.425,0.526-0.641,0.794c-0.366,0.457-0.723,0.912-1.077,1.374
				c-0.229,0.306-0.457,0.607-0.685,0.915c-0.293,0.396-0.581,0.8-0.865,1.207c-0.217,0.309-0.436,0.606-0.645,0.917
				c-0.427,0.625-0.842,1.255-1.242,1.894c-0.219,0.34-0.424,0.688-0.634,1.037c-0.23,0.369-0.447,0.74-0.67,1.112
				c-0.214,0.377-0.43,0.755-0.644,1.131c-0.202,0.373-0.399,0.753-0.587,1.122c-0.343,0.639-0.661,1.28-0.974,1.926
				c-0.177,0.373-0.358,0.742-0.533,1.12c-0.189,0.421-0.375,0.852-0.561,1.28c-0.139,0.325-0.28,0.662-0.413,0.988
				c-0.183,0.452-0.358,0.895-0.529,1.346c-0.114,0.301-0.217,0.604-0.325,0.911c-0.302,0.828-0.576,1.664-0.836,2.509
				c-0.092,0.308-0.192,0.616-0.279,0.921c-0.141,0.488-0.279,0.99-0.406,1.48c-0.079,0.301-0.15,0.605-0.221,0.91
				c-0.259,1.046-0.482,2.102-0.682,3.169c-0.025,0.146-0.049,0.286-0.08,0.427c-0.09,0.534-0.176,1.077-0.246,1.613
				c-0.049,0.308-0.09,0.613-0.129,0.911c-0.072,0.541-0.137,1.087-0.19,1.637c-0.024,0.264-0.043,0.528-0.069,0.794
				c-0.088,1.026-0.15,2.072-0.188,3.118c-0.014,0.293-0.025,0.579-0.032,0.868c-0.008,0.568-0.012,1.13-0.01,1.704
				c0.004,0.326,0.009,0.651,0.015,0.981c0.01,0.575,0.025,1.152,0.053,1.738c0.006,0.018,0.004,0.033,0.004,0.051
				c0.029,0.658,0.08,1.323,0.136,1.99c0.03,0.451,0.071,0.897,0.118,1.354c0.065,0.71,0.146,1.428,0.242,2.145
				c0.053,0.421,0.121,0.85,0.182,1.275c0.098,0.673,0.208,1.351,0.33,2.037c0.081,0.448,0.168,0.9,0.255,1.353
				c0.134,0.688,0.281,1.372,0.429,2.061c0.086,0.401,0.179,0.781,0.269,1.179c0.194,0.812,0.401,1.634,0.629,2.456
				c0.075,0.292,0.152,0.581,0.237,0.869c0.258,0.956,0.551,1.91,0.855,2.87c0.084,0.272,0.168,0.541,0.262,0.808
				c0.321,1.001,0.667,2.012,1.037,3.026c0.082,0.226,0.167,0.457,0.252,0.687c0.395,1.064,0.811,2.142,1.249,3.23
				c0.063,0.15,0.128,0.305,0.192,0.452c0.479,1.171,0.977,2.347,1.521,3.541c31.44,69.801,122.701,78.187,187.586,58.73
				c81.672-24.493,155.848-88.139,241.553-98.481C5070.698,5497.015,5339.71,5413.091,5204.78,5299.646z M5044.185,5412.993
				c-26.438,44.276-154.182,75.218-155.357-2.656c-0.656-43.419,78.277-70.429,110.754-69.923
				c23.748,0.383,41.934,14.661,48.605,32.988C5052.69,5385.767,5051.958,5399.961,5044.185,5412.993z"/>
			<path id="_x31_80611107" fill="#80CDF8" stroke="#000000" d="M4433.399,5460.626c39.518,18.659,78.924,45.964,122.724,54.069
				c-0.029-0.586-0.041-1.161-0.053-1.738c-0.008-0.33-0.008-0.658-0.015-0.981c-0.006-0.57-0.001-1.14,0.012-1.704
				c0.003-0.291,0.017-0.577,0.03-0.868c0.035-1.046,0.098-2.092,0.186-3.118c0.028-0.264,0.047-0.532,0.071-0.796
				c0.054-0.55,0.12-1.093,0.188-1.635c0.041-0.298,0.08-0.605,0.129-0.911c0.07-0.534,0.157-1.075,0.246-1.611
				c0.029-0.141,0.055-0.285,0.082-0.429c0.197-1.067,0.421-2.123,0.682-3.173c0.068-0.301,0.14-0.605,0.219-0.904
				c0.125-0.49,0.266-0.994,0.406-1.48c0.087-0.309,0.186-0.617,0.279-0.921c0.26-0.846,0.532-1.683,0.834-2.509
				c0.108-0.307,0.211-0.612,0.327-0.913c0.167-0.447,0.347-0.896,0.527-1.344c0.133-0.328,0.276-0.661,0.415-0.99
				c0.186-0.429,0.371-0.857,0.561-1.28c0.173-0.378,0.356-0.745,0.535-1.12c0.313-0.644,0.629-1.287,0.972-1.926
				c0.189-0.373,0.389-0.747,0.589-1.122c0.214-0.378,0.43-0.75,0.642-1.127c0.219-0.374,0.441-0.745,0.672-1.116
				c0.208-0.35,0.415-0.693,0.632-1.034c0.402-0.642,0.817-1.275,1.242-1.893c0.211-0.313,0.428-0.61,0.645-0.921
				c0.286-0.404,0.572-0.811,0.867-1.207c0.226-0.309,0.453-0.607,0.685-0.915c0.353-0.46,0.711-0.917,1.077-1.374
				c0.216-0.265,0.426-0.531,0.643-0.797c0.475-0.578,0.969-1.151,1.461-1.72c0.217-0.252,0.445-0.501,0.668-0.754
				c0.391-0.434,0.79-0.869,1.191-1.295c0.213-0.228,0.421-0.456,0.636-0.682c0.594-0.621,1.194-1.236,1.806-1.836
				c0.143-0.149,0.297-0.293,0.452-0.433c0.507-0.497,1.019-0.989,1.546-1.472c0.215-0.201,0.434-0.403,0.651-0.61
				c0.532-0.483,1.062-0.956,1.604-1.433c0.158-0.137,0.313-0.279,0.473-0.414c0.686-0.597,1.387-1.181,2.1-1.769
				c0.189-0.147,0.377-0.305,0.564-0.449c0.563-0.458,1.13-0.912,1.709-1.361c0.217-0.157,0.424-0.331,0.634-0.492
				c0.757-0.579,1.51-1.145,2.281-1.713c32.601-23.808,82.799-36.451,115.811-46.685c57.555-17.853,101.982-36.468,148.842-73.652
				c53.313-42.304,88.156-77.344,160.143-81.384c1.941-0.104,3.895-0.204,5.861-0.302c0.707-0.027,1.416-0.055,2.119-0.084
				c1.268-0.059,2.525-0.11,3.795-0.159c0.893-0.035,1.787-0.06,2.68-0.084c1.094-0.033,2.186-0.075,3.285-0.104
				c0.996-0.027,2.004-0.04,3.004-0.062c1.002-0.021,1.994-0.043,2.994-0.064c1.088-0.014,2.184-0.021,3.279-0.029
				c0.916-0.007,1.828-0.015,2.746-0.021c1.166,0.001,2.338,0.007,3.51,0.008c0.848,0.01,1.691,0.01,2.543,0.018
				c1.234,0.01,2.473,0.027,3.711,0.05c0.785,0.016,1.57,0.028,2.359,0.05c1.305,0.021,2.6,0.064,3.908,0.102
				c0.723,0.023,1.441,0.05,2.166,0.074c1.367,0.048,2.74,0.107,4.115,0.168c0.646,0.029,1.301,0.06,1.953,0.088
				c1.439,0.077,2.873,0.155,4.313,0.245c0.586,0.037,1.166,0.072,1.756,0.11c1.502,0.096,3.01,0.204,4.512,0.317
				c0.504,0.035,1.016,0.078,1.523,0.119c1.586,0.13,3.164,0.262,4.74,0.41c0.416,0.041,0.832,0.083,1.252,0.125
				c1.664,0.159,3.336,0.331,5,0.519c0.309,0.034,0.613,0.07,0.92,0.103c1.775,0.204,3.545,0.417,5.313,0.646
				c0.176,0.025,0.348,0.048,0.52,0.074c36.168,4.758,71.443,15.492,100.082,36.544c0.004,0.004,0.008,0.005,0.012,0.009
				c14.059-6.907,28.662-15.096,39.832-24.964c-50.678-36.468-104.443-69.845-162.883-90.337
				c-95.086-33.337-190.566,11.469-278.268,47.03c-88.99,36.09-177.751,76.396-275.473,78.688
				c-90.724,2.126-180.586-3.09-268.768,15.557c-2.095,0.442-4.186,0.903-6.276,1.378
				C4276.464,5389.686,4371.367,5431.341,4433.399,5460.626z"/>
			<path id="_x31_80611166" fill="#CCCCCC" stroke="#000000" d="M4591.146,3853.933c-8.997,4.168-14.584,10.847-3.018,19.944
				c22.396,17.618,45.914,28.282,65.315,49.971c23.324,26.082,45.057,58.709,59.363,90.762
				c17.613,39.452,24.816,101.35,6.33,142.258c-1.814,4.013-6.857,11.64-11.535,12.743c7.08-1.65,7.381,27.965,7.543,31.402
				c1.518,32.583-12.877,59.723-21.246,90.222c-8.41,30.669-13.924,65.512-8.102,97.157c2.969,16.207,10.107,33.663,19.752,47.118
				c56.898,79.302,157.684,36.888,214.414-39.688c87.648-118.32,30.771-267.754-44.918-369.715
				c-20.725-27.934-45.459-50.971-71.328-74.095c-34.031-30.43-75.729-60.86-115.02-84.168c-13.67-8.113-29.717-11.505-45.286-14.51
				C4625.362,3849.844,4608.566,3845.853,4591.146,3853.933z"/>
			<path id="_x31_80611167" fill="#CCCCCC" stroke="#000000" d="M5442.286,5336.293c-1.295-1.287-2.539-2.596-3.75-3.927
				c-27.762-30.666-33.1-74.036-23.525-107.237c40.098-139.008,164.32-207.754,274.674-286.393
				c128.957-91.891,240.664-214.67,389.904-274.825c23.977-9.672,50.063-25.482,76.254-27.67
				c45.348-3.783,39.818,30.063,17.695,53.754c-86.82,93.045-180.781,170.028-285.408,257.544
				c-74.041,61.93-174.859,136.52-225.066,187.072c-28.105,28.298-43.004,64.353-70.629,93.288
				c-34.834,36.49-81.555,71.07-119.205,108.99C5467.538,5342.617,5448.235,5342.204,5442.286,5336.293z"/>
			<path id="_x31_80611165" fill="#AAAAAA" stroke="#000000" d="M4522.345,3921.444c-0.573,37.939,66.378,75.02,87.16,97.582
				c23.284,25.268,33.722,58.601,46.83,89.761c5.416,12.866,10.029,27.675,16.525,39.942c4.455,8.401,9.869,19.648,19.803,22.441
				c4.998,1.401,14.512,0.065,18.631-3.274c7.713-6.26,9.307-15.574,11.447-24.639c1.195-5.053,1.975-10.182,2.891-15.291
				c6.951-39.124,3.449-90.666-18.697-125.148c-15.02-23.364-27.699-47.59-45.551-69.123c-5.289-6.377-10.711-12.999-16.815-18.594
				c-12.43-11.381-25.512-24.182-42.407-28.182c-24.4-5.779-73.303-2.155-79.261,29.108
				C4522.547,3917.837,4522.371,3919.637,4522.345,3921.444z"/>
		</g>
	</g>
	<g transform="scale(1.0)">
		<g id="_x31_80611098_1_" transform=" scale(1.0, 1.0)">
			<path id="_x31_80611100_1_" fill="#BFDAE3" stroke="#000000" d="M3705.128,3980.915c-5.062,149.706-4.926,481.532-2.634,525.612
				c-0.238,68.045-1.566,136.15-0.666,204.219c0.155,11.396-2.507,23.574-4.047,34.857c-1.882,13.88-4.06,27.715-6.514,41.506
				c-17.954,100.734-221.975,374.478-256.522,470.108c-48.498,134.269-102.719,265.186-178.55,354.032
				c-109.242,127.998-259.934,174.426-410.676,186.979c-269.256,22.374-547.158-175.399-810.467-383.762
				c-58.025-45.919-130.111-123.103-182.283-166.869c-64.986-54.528-61.241-97.16-135.213-154.239
				c-129.886-100.183-299.668-241.956-403.344-339.393c-207.12-194.665-269.238-362.314-291.86-524.653
				c-17.581-126.13,56.503-137.839,53.192-163.277c-1.596-12.327-52.635,1.197-85.782-28.001
				C842.5,3908.273,747.566,3621.068,698.148,3438.58c-76.605-282.865-116.125-360.583-133.529-646.016
				c-16.581-271.982,4.955-631.675,236.205-1007.677c223.106-362.744,586.453-737.999,884.156-900.15
				c301.822-164.395,793.797-312.099,1065.096-345.416c263.331-32.337,743.632,177.639,934.697,513.008
				c32.458,56.981,26.92,258.398,25.799,551.435c-0.727,191.114-4.288,437.737,0.453,670.482
				c3.606,177.204-4.018,361.697-4.627,537.48C3704.226,3440.646,3711.306,3798.078,3705.128,3980.915z"/>
			<path id="_x31_80611101_1_" fill="#B0FFB8" stroke="#000000" d="M564.588,2798.097c17.4,285.433,56.93,363.148,133.533,646.011
				c49.414,182.5,144.35,469.698,291.614,599.463c33.149,29.201,84.179,15.677,85.783,28.006
				c3.306,25.432-70.783,37.138-53.2,163.271c22.621,162.339,84.741,329.989,291.869,524.655
				c103.672,97.434,273.461,239.209,403.336,339.392c73.979,57.082,70.227,99.712,135.222,154.237
				c52.171,43.77,159.597,142.758,159.497,142.665c1.197-1.303,103.144-97.416,113.281-105.194
				c64.418-49.354,136.76-105.23,213.798-132.244c95.087-33.342,207.181,16.713,294.878,52.274
				c88.994,36.091,179.101,70.701,276.825,72.994c90.713,2.128,127.44,0.441,260.407,6.446c19.304,0.868,81.554,21.801,99.643,29.91
				c49.791,22.338,113.405,67.358,114.771,68.25c22.347-50.321,29.418-71.566,48.898-125.473
				c34.55-95.633,238.571-369.379,256.524-470.109c2.466-13.865,4.657-27.765,6.538-41.727c2.491-18.438,3.72-37.041,4.211-55.632
				c0.841-32.034-1.091-64.048-0.286-96.079c0.846-32.937,3.276-65.957,0.717-98.876c-1.018-13.104-2.453-362.009,2.687-513.882
				c6.172-182.835-0.902-540.261,1.269-1169.188c0.611-175.779,8.243-360.275,4.629-537.477
				c-4.733-232.747-1.179-479.37-0.451-670.48c1.121-293.04,6.666-494.454-25.789-551.439
				c-191.07-335.369-671.38-545.347-934.712-513.014c-271.3,33.32-763.285,181.02-1065.117,345.41
				c-297.701,162.159-661.053,537.41-884.158,900.152C569.543,2166.42,548.007,2526.113,564.588,2798.097z M2717.072,4002.813
				c15.016-23.363,27.697-47.589,45.547-69.122c5.289-6.375,10.711-12.997,16.816-18.592c12.43-11.383,25.514-24.182,42.409-28.182
				c24.398-5.783,73.305-2.159,79.261,29.108c0.35,1.811,0.527,3.61,0.552,5.417c0.573,37.94-66.378,75.019-87.16,97.583
				c-23.284,25.266-33.724,58.599-46.831,89.761c-5.415,12.86-10.027,27.673-16.524,39.94c-4.452,8.401-9.869,19.648-19.804,22.443
				c-4.998,1.401-14.514,0.065-18.628-3.277c-7.712-6.259-9.31-15.573-11.45-24.636c-1.196-5.053-1.975-10.184-2.888-15.291
				C2691.416,4088.841,2694.92,4037.299,2717.072,4002.813z"/>
			<path id="_x31_80611138_1_" fill="#1F9D5A" stroke="#000000" d="M1685.025,884.713c90.184-49.141,197.318-96.729,310.514-140.307
				l0.244,0.577l44.117,126.413c-63.596,25.878-125.615,53.342-185.553,81.061c-197.893,91.658-376.334,232.509-533.856,380.328
				c-128.251,120.411-232.937,276.223-323.974,426.103c-108.088,177.829-236.531,449.263-250.557,660.75
				c-16.488,248.799,29.535,472.211,68,717.54c2.035,13.057,4.229,26.945,6.425,41.498l-170.616,87.928
				c-45.664-159.327-71.842-256.247-85.135-474.061c-16.598-271.935,4.931-631.675,236.215-1007.65
				C1023.947,1422.11,1387.313,1046.929,1685.025,884.713z"/>
			<path id="_x31_80611137_1_" fill="#1F9D5A" stroke="#000000" d="M996.521,1758.887
				c91.035-149.878,195.719-305.693,323.974-426.105c157.521-147.818,335.966-288.666,533.854-380.328
				c59.941-27.717,121.959-55.184,185.551-81.06l156.786,448.878c-72.458,43.801-141.685,88.192-206.075,128.45
				c-150.521,94.066-316.59,213.097-427.951,353.182c-202.029,254.14-385.764,602.348-354.98,932.1
				c6.896,72.92,8.521,155.211,21.383,233.969l-408.677,210.701c-2.192-14.55-4.394-28.44-6.425-41.498
				c-38.465-245.329-84.488-468.739-68.002-717.541C759.986,2208.149,888.43,1936.716,996.521,1758.887z"/>
			<path id="_x31_80611136_1_" fill="#1F9D5A" stroke="#000000" d="M1990.609,1448.725c64.395-40.258,133.615-84.65,206.074-128.45
				l165.353,473.674c-185.839,67.515-355.646,185.949-486.397,332.034c-144.602,161.579-321.417,386.217-227.637,617.855
				c0.914,2.248,1.814,4.496,2.887,6.662l-421.826,217.473c-12.863-78.757-14.49-161.05-21.383-233.968
				c-30.783-329.751,152.951-677.959,354.98-932.1C1674.02,1661.822,1840.086,1542.79,1990.609,1448.725z"/>
			<path id="_x31_80611135_1_" fill="#1F9D5A" stroke="#000000" d="M2362.038,1793.951l174.239,498.892l-3.422,3.063
				l-881.967,454.593c-1.072-2.165-1.973-4.411-2.887-6.66c-93.782-231.638,83.033-456.278,227.637-617.856
				C2006.391,1979.898,2176.197,1861.462,2362.038,1793.951z"/>
			<path id="_x31_80611142_1_" fill="#1F9D5A" stroke="#000000" d="M2750.133,539.303
				c222.021-27.247,598.459,117.851,825.601,365.163l-1.251,1.161l-127.01,169.783c-68.879-127.742-171.996-232.66-325.383-295.112
				c-351.27-142.929-739.51-48.438-1082.195,91.095l-44.113-126.412l-0.244-0.577
				C2261.119,642.254,2559.878,562.666,2750.133,539.303z"/>
			<path id="_x31_80611141_1_" fill="#1F9D5A" stroke="#000000" d="M3122.088,780.3c153.387,62.452,256.506,167.368,325.383,295.11
				l-185.124,247.299c-61.935-141.765-158.276-236.264-369.776-246.224c-234.355-11.038-479.658,113.376-695.885,243.789
				L2039.9,871.396C2382.582,731.861,2770.822,637.37,3122.088,780.3z"/>
			<path id="_x31_80611140_1_" fill="#1F9D5A" stroke="#000000" d="M2892.57,1076.484
				c211.504,9.958,307.842,104.459,369.777,246.225l-357.485,477.604c-60.289-41.183-128.77-67.27-200.164-67.681
				c-116.614-0.741-232.478,21.302-342.662,61.316l-165.351-473.673C2412.912,1189.861,2658.213,1065.448,2892.57,1076.484z"/>
			<path id="_x31_80611139_1_" fill="#1F9D5A" stroke="#000000" d="M2704.694,1732.632c71.398,0.411,139.875,26.497,200.168,67.681
				l-368.585,492.529l-174.241-498.893C2472.221,1753.935,2588.084,1731.893,2704.694,1732.632z"/>
			<path id="_x31_80611146_1_" fill="#40A666" stroke="#000000" d="M3447.475,1075.411l127.01-169.784l1.249-1.161
				c42.151,45.86,79.133,95.363,109.039,147.829c23.96,42.137,27.282,163.083,26.916,341.455l-0.334,0.001l-143.593,109.882
				c-4.113-36.253-9.146-72.344-15.42-108.025C3532.287,1281.587,3499.671,1171.923,3447.475,1075.411z"/>
			<path id="_x31_80611145_1_" fill="#40A666" stroke="#000000" d="M3528.608,1286.299c11.904,45.823,20.401,85.772,26.79,127.335
				c4.79,31.116,8.102,65.791,12.363,90.001c-21.942,16.765-3.105,3.93-51.006,38.97l-170.928,130.819
				c-2.129-57.693-7.59-113.315-20.061-159.159c-19.043-69.883-38.438-134.533-63.421-191.555l185.126-247.299
				C3473.78,1124.059,3507.467,1204.873,3528.608,1286.299z"/>
			<path id="_x31_80611144_1_" fill="#40A666" stroke="#000000" d="M3325.768,1514.265c12.471,45.842,17.934,101.464,20.061,159.157
				L3027.307,1917.1c-34.424-44.667-76.008-85.208-122.444-116.787l357.484-477.604
				C3287.332,1379.73,3306.725,1444.381,3325.768,1514.265z"/>
			<path id="_x31_80611143_1_" fill="#40A666" stroke="#000000" d="M3027.307,1917.101l-478.115,365.81l-12.914,9.932
				l368.585-492.529C2951.299,1831.893,2992.883,1872.433,3027.307,1917.101z"/>
			<path id="_x31_80611151_1_" fill="#2FA850" stroke="#000000" d="M3711.687,1393.751c-0.219,63.168-0.792,133.485-1.061,210.034
				c-0.745,191.085-4.341,437.682,0.425,670.427c0.787,36.99,0.99,74.394,0.942,111.88l-4.153-0.013l-103.036-8.755
				c-1.115-63.34-5.706-127.441-16.04-192.971c-17.815-112.849-7.388-220.122-6.497-334.072
				c0.892-111.539-1.608-229.992-14.505-346.649l143.594-109.882L3711.687,1393.751z"/>
			<path id="_x31_80611150_1_" fill="#2FA850" stroke="#000000" d="M3567.762,1503.635
				c12.895,116.659,15.394,235.109,14.505,346.649c-0.891,113.952-11.318,221.222,6.495,334.071
				c10.336,65.532,14.927,129.632,16.04,192.972l-71.625-6.148c2.6-80.118,2.127-159.66-4.164-238.064
				c-9.644-119.556-2.086-238.554-8.899-358.185c-0.781-14.547-6.78-131.846-3.357-232.326L3567.762,1503.635z"/>
			<path id="_x31_80611149_1_" fill="#2FA850" stroke="#000000" d="M3520.115,1774.931c6.813,119.63-0.744,238.629,8.901,358.185
				c6.291,78.403,6.764,157.945,4.162,238.064l-152.895-12.997c-1.801-34.086-3.927-67.838-6.55-101.263
				c-8.753-112.737-24.82-226.083-27.164-340.79c-1.422-69.161,2.454-158.168-0.742-242.707l170.928-130.819
				C3513.333,1643.084,3519.33,1760.382,3520.115,1774.931z"/>
			<path id="_x31_80611148_1_" fill="#2FA850" stroke="#000000" d="M3346.568,1916.128c2.342,114.71,18.407,228.054,27.162,340.792
				c2.625,33.424,4.751,67.176,6.551,101.26l-217.623-18.54c-7.411-91.621-22.648-181.605-51.026-267.316
				c-17.355-52.34-46.509-106.22-84.325-155.224l318.521-243.678C3349.024,1757.962,3345.148,1846.968,3346.568,1916.128z"/>
			<path id="_x31_80611147_1_" fill="#2FA850" stroke="#000000" d="M3027.307,1917.101c37.816,49.004,66.97,102.884,84.328,155.223
				c28.375,85.711,43.61,175.697,51.023,267.317l-609.746-51.897l-3.721-4.833L3027.307,1917.101z"/>
			<path id="_x31_80611161_1_" fill="#59B363" stroke="#000000" d="M3705.771,3031.811c-0.638,184.6-0.931,341.442-1.137,473.766
				c-66.848,5.504-133.015,7.105-198.108,10.618c5.874-113.183,75.247-199.719,83.361-311.316
				c9.511-130.132,2.493-167.977-1.058-246.949l116.861,73.88L3705.771,3031.811z"/>
			<path id="_x31_80611160_1_" fill="#59B363" stroke="#000000" d="M3036.017,3580.147
				c67.772-56.118,80.861-163.541,161.492-212.805c12.744-7.769,24.985-14.209,36.805-19.822
				c82.839-38.942,146.154-33.901,214.289-124.264c60.712-80.499,55.01-163.133,54.868-265.953
				c-0.022-17.62,0.127-35.242,0.513-52.945l84.851,53.573c3.55,78.972,10.567,116.819,1.057,246.949
				c-8.112,111.598-77.485,198.131-83.361,311.316c-53.708,2.809-106.588,6.946-158.563,15.495
				c-84.505,13.917-166.376,39.653-244.852,91.164c-17.327,11.323-34.403,22.073-51.979,31.649l-26.519-70.077L3036.017,3580.147z"
				/>
			<path id="_x31_80611159_1_" fill="#59B363" stroke="#000000" d="M2931.293,3337.579l93.322,246.848l11.397-4.28
				c67.772-56.119,80.861-163.543,161.491-212.805c12.745-7.768,24.986-14.209,36.806-19.824
				c82.839-38.942,146.156-33.899,214.291-124.263c60.71-80.498,55.01-163.133,54.866-265.951
				c-0.021-17.624,0.127-35.244,0.517-52.947l-115.777-73.211c-0.201,34.244-0.489,68.319-0.854,101.899
				c-1.333,145.451-4.466,280.755-131.616,372.741c-12.253,8.851-24.998,16.871-38.067,24.139
				c-7.831,4.296-15.822,8.259-23.984,11.971C3109.607,3380.175,3013.591,3383.582,2931.293,3337.579z"/>
			<path id="_x31_80611158_1_" fill="#59B363" stroke="#000000" d="M2712.107,2714.604
				c118.848,27.758,202.42,112.075,234.189,227.141c19.865,72.128,15.243,205.766,117.472,210.693
				c100.301,4.836,98.281-132.233,96.198-201.727c-1.196-39.652-2.799-80.301-1.24-123.433c1.575-45.209,3.723-91.168,5.548-137.624
				l223.934,141.492c-0.201,34.244-0.491,68.319-0.854,101.899c-1.335,145.451-4.466,280.755-131.618,372.741
				c-12.252,8.851-24.996,16.871-38.067,24.139c-7.831,4.296-15.822,8.259-23.984,11.971
				c-84.077,38.278-180.094,41.686-262.39-4.316l-236.633-625.945C2700.475,2712.237,2706.293,2713.255,2712.107,2714.604z"/>
			<path id="_x31_80611157_1_" fill="#59B363" stroke="#000000" d="M3164.274,2689.656c-1.827,46.455-3.975,92.413-5.548,137.624
				c-1.56,43.135,0.048,83.782,1.238,123.433c2.085,69.492,4.103,206.562-96.198,201.727
				c-102.227-4.927-97.605-138.564-117.472-210.693c-31.768-115.066-115.34-199.382-234.188-227.142
				c-5.814-1.351-11.633-2.369-17.445-2.97l-158.385-418.793L3164.274,2689.656z"/>
			<path id="_x31_80611126_1_" fill="#248A5E" stroke="#000000" d="M1603.156,3719.24
				c94.598-51.703,186.158-136.748,291.477-162.404c87.512-21.307,186.594,1.644,278.035,22.905
				c-80.727,53.253-155.826,113.247-245.229,152.421c-102.391,44.782-206.925,84.645-311.709,123.35
				c-57.008,21.001-112.362,45.489-167.72,69.822l-0.739-1.579l125.322-187.665C1583.17,3730.219,1593.33,3724.604,1603.156,3719.24
				z"/>
			<path id="_x31_80611125_1_" fill="#248A5E" stroke="#000000" d="M2119.035,3129.219
				c53.514-21.505,145.925-65.488,245.713-102.297l-118.197,506.192l0.58,1.085c-20.988,11.562-41.396,24.124-61.14,36.857
				c-4.498,2.895-8.912,5.787-13.327,8.682c-91.441-21.263-190.521-44.211-278.035-22.906
				c-105.318,25.656-196.879,110.701-291.477,162.405c-9.822,5.366-19.986,10.98-30.561,16.852l353.672-529.734
				C1998.006,3179.755,2064.351,3151.225,2119.035,3129.219z"/>
			<path id="_x31_80611124_1_" fill="#248A5E" stroke="#000000" d="M2401.59,2830.645c3.416-1.734,6.829-3.55,10.322-5.534
				l-47.159,201.815c-99.787,36.807-192.196,80.791-245.716,102.296c-54.683,22.002-121.029,50.533-192.771,77.132l211.051-316.032
				C2231.014,2883.995,2314.158,2875.807,2401.59,2830.645z"/>
			<path id="_x31_80611123_1_" fill="#248A5E" stroke="#000000" d="M2411.912,2825.11c-3.491,1.983-6.908,3.801-10.322,5.534
				c-87.432,45.164-170.578,53.352-264.273,59.679l398.961-597.481L2411.912,2825.11z"/>
			<path id="_x31_80611156_1_" fill="#248A5E" stroke="#000000" d="M3604.804,2377.325l103.036,8.754l4.155,0.013
				c-0.16,142.046-5.063,286.575-5.544,425.626c-0.27,77.38-0.519,150.69-0.679,220.094l-0.082-0.001l-116.861-73.88
				c-1.16-24.108-1.894-52.205-1.771-87.944C3587.642,2701.092,3607.642,2541.495,3604.804,2377.325z"/>
			<path id="_x31_80611155_1_" fill="#248A5E" stroke="#000000" d="M3533.179,2371.177l71.625,6.148
				c2.841,164.171-17.16,323.768-17.745,492.66c-0.123,35.74,0.61,63.835,1.771,87.945l-84.847-53.573
				C3507.336,2727.577,3527.496,2547.949,3533.179,2371.177z"/>
			<path id="_x31_80611154_1_" fill="#248A5E" stroke="#000000" d="M3503.983,2904.357l-115.775-73.211
				c0.951-156.174,0.345-317.508-7.923-472.966l152.894,12.997C3527.496,2547.949,3507.336,2727.577,3503.983,2904.357z"/>
			<path id="_x31_80611153_1_" fill="#248A5E" stroke="#000000" d="M3388.206,2831.144l-223.932-141.49
				c4.639-115.604,7.792-234.112-1.614-350.013l217.625,18.541C3388.554,2513.642,3389.159,2674.972,3388.206,2831.144z"/>
			<path id="_x31_80611152_1_" fill="#248A5E" stroke="#000000" d="M2549.191,2282.911l3.721,4.833l609.748,51.897
				c9.406,115.9,6.253,234.411,1.614,350.013l-627.997-396.812L2549.191,2282.911z"/>
			<path id="_x31_80611122_1_" fill="#248A5E" stroke="#000000" d="M2764.432,3015.756
				c76.328,86.788,24.459,208.873,124.159,292.419c13.679,11.435,27.938,21.209,42.704,29.405l93.322,246.848l26.519,70.077
				c-30.226,16.604-61.776,29.714-97.871,36.399c-28.529,5.387-163.501-45.778-230.015-39.944l-0.481-5.4l-50.558-63.296
				l-21.593-24.216c-29.669-21.397-72.334-46.876-116.649-61.327c-48.088-15.675-97.958-19.314-130.967-16.01
				c-55.376,5.547-107.234,26.726-155.867,53.491l-0.58-1.086l118.198-506.191
				C2518.305,2970.354,2689.586,2930.634,2764.432,3015.756z"/>
			<path id="_x31_80611121_1_" fill="#248A5E" stroke="#000000" d="M2694.662,2711.634l236.631,625.945
				c-14.764-8.196-29.023-17.972-42.704-29.407c-99.698-83.545-47.827-205.631-124.159-292.417
				c-74.844-85.122-246.123-45.402-399.678,11.169l47.16-201.814C2492.441,2781.419,2599.445,2701.417,2694.662,2711.634z"/>
			<path id="_x31_80611120_1_" fill="#248A5E" stroke="#000000" d="M2694.662,2711.635
				c-95.217-10.218-202.219,69.784-282.75,113.475l124.365-532.268L2694.662,2711.635z"/>
			<path id="_x31_80611134_1_" fill="#219866" stroke="#000000" d="M947.84,3698.438l-119.562,105.809
				c-58.999-123.548-101.996-261.588-130.146-365.67c-18.134-67.053-34.146-122.465-48.363-171.974l170.616-87.928
				C843.807,3328.369,879.858,3549.918,947.84,3698.438z"/>
			<path id="_x31_80611133_1_" fill="#219866" stroke="#000000" d="M1346.083,3210.247c28.014,24.284,59.201,41.765,92.661,53.768
				L947.84,3698.438c-67.981-148.519-104.033-370.067-127.454-519.765l408.675-210.701
				C1244.117,3060.534,1274.402,3148.161,1346.083,3210.247z"/>
			<path id="_x31_80611132_1_" fill="#219866" stroke="#000000" d="M1861.112,2890.28l-422.366,373.737
				c-33.462-12.004-64.647-29.483-92.661-53.769c-71.683-62.087-101.968-149.715-117.022-242.276l421.826-217.474
				C1689.571,2838.49,1770.315,2876.005,1861.112,2890.28z"/>
			<path id="_x31_80611131_1_" fill="#219866" stroke="#000000" d="M1861.112,2890.279
				c-90.799-14.276-171.541-51.79-210.222-139.781l881.965-454.593L1861.112,2890.279z"/>
			<path id="_x31_80611130_1_" fill="#219866" stroke="#000000" d="M1018.273,3808.646
				c148.508,152.945,392.342,17.232,554.32-72.557l-125.322,187.665l0.741,1.58c-55.276,24.407-110.47,48.567-167.388,69.32
				c-41.53,15.15-83.885,28.053-125.415,43.285c-30.046,11.032-62.169,23.221-86.932,44.167c5.009-5.636,8.02-10.529,7.29-16.1
				c-1.619-12.309-52.703,1.229-85.852-27.972c-63.307-55.829-116.961-140.71-161.438-233.789l119.562-105.809
				C968.215,3743.058,991.521,3781.122,1018.273,3808.646z"/>
			<path id="_x31_80611129_1_" fill="#219866" stroke="#000000" d="M1926.266,3206.354l-353.672,529.734
				c-161.979,89.79-405.813,225.503-554.32,72.558c-26.752-27.524-50.059-65.589-70.434-110.208l490.904-434.422
				C1581.861,3315.375,1767.219,3265.485,1926.266,3206.354z"/>
			<path id="_x31_80611128_1_" fill="#219866" stroke="#000000" d="M2101.98,2892.609c11.969-0.789,23.779-1.495,35.334-2.287
				l-211.051,316.032c-159.045,59.131-344.404,109.022-487.52,57.662l422.368-373.736
				C1940.863,2902.859,2028.408,2897.427,2101.98,2892.609z"/>
			<path id="_x31_80611127_1_" fill="#219866" stroke="#000000" d="M2536.275,2292.84l-398.962,597.481
				c-11.552,0.792-23.364,1.499-35.333,2.287c-73.574,4.817-161.119,10.25-240.868-2.329l671.743-594.375L2536.275,2292.84z"/>
			<path id="_x31_80611102_1_" fill="#9AD2BD" stroke="#000000" d="M1019.669,4194.012c0.057,10.667,0.884,22.369,2.682,35.299
				c22.626,162.339,84.742,329.987,291.862,524.652c103.676,97.437,273.456,239.21,403.344,339.393
				c73.97,57.081,70.229,99.713,135.215,154.239c34.005,28.531,76.479,71.255,117.999,110.267
				c15.347,13.961,27.938,25.501,35.081,32.056c2.193,1.933,4.377,3.847,6.553,5.731c7.728,6.683,15.305,12.999,22.65,18.815
				c0.09,0.071,0.188,0.144,0.275,0.215c-0.082-0.081-0.176-0.146-0.266-0.23c1.194-1.301,94.48-102.642,104.624-110.416
				c15.55-11.915,31.371-23.833,47.493-35.439c50.682-36.468,104.447-69.845,162.886-90.333
				c95.089-33.338,190.569,11.463,278.267,47.026c88.994,36.092,177.756,76.397,275.478,78.691
				c90.724,2.119,180.584-3.095,268.767,15.555c2.094,0.441,4.185,0.905,6.277,1.381c16.789,3.765,33.508,8.435,50.173,14.207
				c46.602,16.151,142.116,78.767,143.48,79.655c-4.949,11.147-9.984,22.179-15.162,33.057
				c-23.847,48.216-49.488,96.165-81.85,139.291c-0.482,0.641-0.961,1.279-1.447,1.914c-0.055,0.08-0.107,0.148-0.163,0.219
				c42.876-56.362,78.637-126.354,110.565-201.985c17.761-42.071,34.337-85.884,50.295-130.058
				c34.546-95.632,238.568-369.375,256.521-470.109c2.458-13.789,4.632-27.628,6.516-41.506c0.646-4.719,1.48-9.594,2.23-14.504
				c0.829-9.272,1.391-18.568,1.746-27.865c-0.27-24.667-0.273-49.33-0.146-73.998c-0.115-10.003-0.13-20.011,0.122-30.021
				c0.031-1.282,0.07-2.569,0.107-3.848c0.242-29.625,0.549-59.235,0.652-88.839c-2.292-44.08-2.427-375.909,2.634-525.612
				c1.936-57.289,2.569-131.725,2.595-226.277l-3.202,0.149c0,0.05,0,0.099,0,0.146l-2.909-0.005l2.907-0.14
				c-0.087-71.196-0.049-153.854,0.115-249.206c-66.849,5.504-133.015,7.106-198.108,10.618
				c-53.706,2.809-106.586,6.945-158.562,15.495c-84.502,13.917-166.375,39.653-244.851,91.164
				c-17.327,11.323-34.405,22.073-51.981,31.65c-30.226,16.603-61.774,29.714-97.871,36.398
				c-28.529,5.388-163.499-45.779-230.015-39.943l-0.479-5.401l-50.56-63.296l-21.595-24.217
				c-29.669-21.398-72.334-46.877-116.649-61.325c-48.088-15.677-97.956-19.313-130.967-16.012
				c-55.375,5.549-107.234,26.728-155.867,53.492c-20.984,11.562-41.393,24.123-61.138,36.855
				c-4.498,2.896-8.913,5.789-13.327,8.683c-80.727,53.253-155.826,113.246-245.227,152.423
				c-102.393,44.78-206.927,84.641-311.711,123.348c-57.006,21.001-112.362,45.489-167.718,69.822
				c-55.276,24.408-110.468,48.568-167.388,69.321c-41.53,15.15-83.883,28.055-125.415,43.284
				c-13.142,4.826-45.463,20-79.749,37.302C1072.217,4095.497,1021.379,4110.643,1019.669,4194.012z M2238.479,3938.46
				c70.865-106.925,178.979-157.924,296.607-183.215c57.787-12.416,123.32-17.595,180.466,0.863
				c38.466,12.423,129.04,52.973,126.265,104.019c0.185-3.314-7.271-6.362-14.769-8.469c1.929,0.622,3.864,1.366,5.806,2.269
				c8.999,4.168,14.588,10.847,3.018,19.943c-7.402,5.824-14.929,10.886-22.387,15.842c2.682-1.148,5.457-2.108,8.356-2.798
				c24.397-5.781,73.305-2.157,79.261,29.108c0.35,1.811,0.527,3.61,0.552,5.416c0.574,37.94-66.377,75.019-87.161,97.584
				c-23.283,25.266-33.723,58.603-46.828,89.761c-5.417,12.865-10.033,27.673-16.526,39.94c-4.453,8.403-9.869,19.654-19.804,22.443
				c-4.041,1.137-11.053,0.478-15.76-1.593c-6.283,0.73-6.566,28.133-6.716,31.435c-1.524,32.585,12.87,59.723,21.239,90.224
				c8.41,30.668,13.924,65.512,8.104,97.155c-2.625,14.304-8.496,29.578-16.469,42.22c-4.787,36.98-5.651,69.822-28.178,102.772
				c-33.369,48.795-88.043,92.802-147.748,103.127c-89.367,15.448-170.863-33.975-235.425-88.908
				c-89.177-75.877-150.354-189.139-148.202-309.032C2164.086,4132.133,2177.227,4030.93,2238.479,3938.46z"/>
			<path id="_x31_80611104_1_" fill="#54BF94" stroke="#000000" d="M3186.89,4674.722
				c-25.577,136.879-38.422,213.118-80.275,329.939c-14.657,40.923-35.594,92.701-56.586,141.105
				c-23.318,53.798-47.749,103.112-85.626,122.298c-38.066,19.303-77.047,8.827-135.077,3.69
				c-87.03-7.701-310.333-130.89-408.918-128.163c-66.501,1.845,7.969-213.404,59.339-334.347
				c109.744-258.304,298.967-139.466,259.318-477.027c-4.482-38.149-24.051-72.589-28.752-110.448
				c-5.025-40.541,16.789-40.214,39.449-70.27c16.164-21.436,21.982-52.055,31.171-76.814c0.011-0.045,0.024-0.076,0.04-0.108
				c9.263-24.985,23.463-49.267,44.403-66.224c78.388-63.461,162.465-25.219,234.706,31.98
				C3257.257,4196.475,3224.592,4472.908,3186.89,4674.722z"/>
			<path id="_x31_80611106_1_" fill="#54BF94" stroke="#000000" d="M2997.251,4674.923
				c57.218,38.991,109.686,85.164,165.604,125.884c7.644-37.477,15.054-78.045,24.03-126.085
				c37.706-201.815,70.371-478.247-126.804-634.39c-72.239-57.201-156.318-95.439-234.706-31.98
				c-20.94,16.957-35.137,41.239-44.403,66.224c-0.006,0.018-0.016,0.034-0.023,0.052c-8.635,23.283-15.934,52.072-29.699,72.918
				c-25.035,37.918-52.727,40.043-37.045,93.462c8.867,30.287,21.154,59.619,24.859,91.209
				c10.459,89.093,4.979,146.39-10.777,187.22c21.295,33.973,79.936,48.711,110.686,66.38
				C2892.224,4616.421,2946.408,4640.286,2997.251,4674.923z"/>
			<path id="_x31_80611105_1_" fill="#54BF94" stroke="#000000" d="M2420.409,5143.59c98.585-2.729,321.886,120.46,408.916,128.163
				c58.03,5.139,97.011,15.612,135.079-3.69c37.877-19.186,62.306-68.5,85.624-122.298c20.994-48.402,41.931-100.181,56.584-141.105
				c27.168-75.825,42.112-134.549,56.243-203.854c-55.917-40.718-108.384-86.893-165.603-125.882
				c-50.843-34.637-105.029-58.502-158.28-89.107c-30.748-17.669-89.391-32.407-110.684-66.38
				c-43.937,113.872-167.764,99.68-248.543,289.808C2428.375,4930.186,2353.906,5145.435,2420.409,5143.59z"/>
			<path id="_x31_80611116_1_" fill="#62D09F" stroke="#000000" d="M3538.029,4666.778c1.033,22.379,2.655,44.631,2.938,66.7
				c53.444-10.626,107.508-18.688,160.378-32.126l0.354-1.773c-0.632-64.356,0.569-128.735,0.793-193.056
				c-2.292-44.082-2.427-375.908,2.634-525.612c1.722-50.874,2.413-115.269,2.563-195.27l0.569,0.009
				c0.587-6.045-148.423,12.411-159.541,14.099c-3.13,0.475-6.26,0.974-9.385,1.476c-6.379,111.126-6.812,224.312-2.357,335.277
				c4.902,122.161,46.839,231.072,20.022,353.869C3544.033,4549.703,3535.21,4605.795,3538.029,4666.778z"/>
			<path id="_x31_80611115_1_" fill="#62D09F" stroke="#000000" d="M3346.011,4490.559c4.162,74.394,20.121,167.259,15.479,253.711
				c44.33,12.82,92.218,9.049,136.073-1.401c14.396-3.428,28.879-6.497,43.403-9.386c-0.282-22.071-1.902-44.323-2.936-66.7
				c-2.822-60.989,6-117.079,18.966-176.411c26.814-122.795-15.119-231.706-20.023-353.867
				c-4.453-110.968-4.021-224.151,2.358-335.279c-57.598,9.307-114.252,23.864-170.664,38.572
				c-6.51,1.696-13.017,3.416-19.521,5.163c-7.548,40.038-12.028,80.358-14.229,121.212
				C3325.519,4140.574,3336.257,4316.385,3346.011,4490.559z"/>
			<path id="_x31_80611114_1_" fill="#62D09F" stroke="#000000" d="M3327.457,4730.582c11.004,5.835,22.402,10.322,34.032,13.686
				c4.643-86.452-11.316-179.317-15.48-253.711c-9.75-174.174-20.492-349.983-11.09-524.389
				c2.198-40.852,6.681-81.172,14.229-121.21c-69.671,18.681-138.649,40.302-204.099,70.922
				c-30.735,14.374-70.26,29.774-96.527,51.631c-20.354,16.958,33.167,48.032,43.395,56.717
				c32.938,27.918,63.724,61.496,87.468,97.567c89.133,135.444,65.928,281.36,63.563,437.107
				C3241.983,4622.642,3268.297,4699.241,3327.457,4730.582z"/>
			<path id="_x31_80611119_1_" fill="#62D09F" stroke="#000000" d="M3061.438,5237.554c-0.895,0.23-1.791,0.45-2.681,0.677
				c-10.239,19.17-22.45,34.732-37.592,41.589c62.812,0.209,125.992-1.975,189.628,12.213
				c69.515,15.493,175.047,90.657,175.459,90.946c0.076-0.185,0.152-0.374,0.233-0.562c2.669-6.806,17.74-45.161,27.358-68.773
				c7.102-18.675,14.059-37.517,20.891-56.425c0.418-1.147,0.861-2.327,1.323-3.518c4.925-13.471,10.446-26.654,17.9-38.802
				c1.056-1.723,2.082-3.456,3.114-5.184c7.331-13.646,15.856-28.578,25.244-44.46c2.24-3.878,4.536-7.738,6.885-11.565
				c72.956-121.813,188.739-291.83,202.06-366.585c2.456-13.788,4.634-27.624,6.514-41.504c0.593-4.347,1.356-8.829,2.059-13.344
				l-0.314-0.052c-49.844,11.545-104.625,26.569-159.492,35.863c-1.634,21.727-5.586,43.253-13.742,64.544
				c-35.708,93.188-116.61,202.937-193.045,266.804C3255.589,5164.3,3159.006,5212.253,3061.438,5237.554z"/>
			<path id="_x31_80611118_1_" fill="#62D09F" stroke="#000000" d="M3360.047,4764.057c-6.463,68.988-28.02,132.539-81.792,177.496
				c-15.817,13.225-98.476,61.867-129.34,68.367c-13.837,38.817-29.747,76.893-46.057,114.003
				c-12.039,27.412-24.447,77.508-44.093,114.3c0.888-0.225,1.785-0.447,2.678-0.679c97.563-25.293,194.144-73.244,271.797-138.127
				c76.435-63.867,157.337-173.614,193.045-266.804c8.154-21.291,12.106-42.82,13.742-64.544
				C3477.783,4778.606,3415.436,4781.751,3360.047,4764.057z"/>
			<path id="_x31_80611117_1_" fill="#62D09F" stroke="#000000" d="M3360.05,4764.063c-25.229-8.062-49.016-20.42-70.679-38.399
				c-81.161-67.339-93.324,82.773-102.112,139.238c-7.651,49.208-21.455,97.674-38.342,145.021
				c30.862-6.5,113.522-55.143,129.341-68.365C3332.027,4896.598,3353.586,4833.047,3360.05,4764.063z"/>
			<path id="_x31_80611164_1_" fill="#A4DAA4" stroke="#000000" d="M3704.634,3505.578c-0.164,95.416-0.201,178.118-0.115,249.351
				l-2.909-0.005c-0.086,0.656-93.211,10.563-155.077,17.246c-16.771-77.271-38.198-154.313-40.339-232.62
				c-0.222-7.897-0.112-15.708,0.334-23.354C3571.619,3512.68,3637.787,3511.079,3704.634,3505.578z"/>
			<path id="_x31_80611163_1_" fill="#A4DAA4" stroke="#000000" d="M3347.963,3531.688c51.977-8.549,104.853-12.689,158.561-15.493
				c-0.445,7.645-0.556,15.459-0.332,23.355c2.141,78.305,23.568,155.349,40.339,232.619c-26.605,2.983-47.399,5.239-52.471,6.052
				c-41.498,6.511-82.831,15.424-123.769,26.256l-17.746-11.281c-21.5-79.374-32.968-175.745-3.279-253.519L3347.963,3531.688z"/>
			<path id="_x31_80611162_1_" fill="#A4DAA4" stroke="#000000" d="M3103.115,3622.854c78.476-51.511,160.349-77.247,244.852-91.164
				l1.299,7.985c-29.689,77.773-18.219,174.145,3.279,253.519l17.748,11.281c-52.496,13.949-104.335,30.973-154.854,49.999
				c-40.948,15.396-81.736,30.964-122.35,46.95c-38.867,15.325-84.296,27.06-124.713,10.959
				c-61.093-24.318-91.646-58.668-131.903-97.79c-5.716-5.581-11.683-11.255-17.98-17.017
				c-33.062-30.373-107.896-46.502-126.191-90.199c-16.163-38.707-0.067-53.697,30.948-56.419
				c66.514-5.834,201.485,45.331,230.013,39.944c36.098-6.686,67.647-19.796,97.874-36.399
				C3068.712,3644.927,3085.788,3634.179,3103.115,3622.854z"/>
			<path id="_x31_80611112_1_" fill="#6ACBBA" stroke="#000000" d="M1022.339,4229.323
				c18.302,131.302,62.44,266.075,188.239,415.813l46.883-9.063c3.193-0.207,6.755-0.164,10.698,0.166
				c26.19,2.188,52.275,18,76.256,27.669c149.233,60.156,260.94,182.936,389.896,274.826
				c83.293,59.353,179.648,113.814,235.983,202.269c18.071,28.372,44.231,85.269,43.083,118.975
				c-1.552,45.552-23.484,67.142-50.654,85.665c-6.322,4.313,44.209,43.937,49.521,50.152
				c55.607-49.703,127.311-125.74,198.023-167.942c46.232-27.593,80.921-48.858,134.229-77.515
				c16.521-8.881,21.88-10.715,21.657-30.487c-0.129-10.866,0.368-22.179,1.4-33.81c0.361-4.061,0.813-8.18,1.299-12.319
				c-34.914,1.759-105.094-30.942-119.473-39.004c-94.746-53.108-164.614-132.259-242.298-206.374
				c-25.709-24.529-53.907-49.688-74.915-78.55c-24.125-33.131-33.482-74.445-52.111-110.816
				c-61.713-120.505-180.438-131.471-295.938-173.349c-42.632-15.458-87.392-25.165-131.234-36.391
				c-83.269-21.311-167.179-59.196-156.803-160.399c12.025-117.321,121.32-182.595,218.581-225.389
				c103.193-45.404,212.144-75.966,315.525-121.652c106.08-46.876,202.092-97.099,290.563-172.92
				c80.342-68.867,152.378-125.992,164.824-234.164c-2.223,1.026-4.438,2.062-6.647,3.118c-31.367,14.969-62.06,33.3-92.892,53.176
				c-85.872,55.339-164.223,119.837-258.627,161.156c-102.387,44.807-206.854,84.633-311.668,123.342
				c-113.771,42.017-221.193,97.626-335.141,139.172c-41.547,15.147-83.904,28.015-125.408,43.253
				c-32.342,11.882-67.057,25.091-92.49,49.18C1022.805,4124.926,1015.002,4176.726,1022.339,4229.323z"/>
			<path id="_x31_80611113_1_" fill="#6ACBBA" stroke="#000000" d="M2368.854,5073.728c5.313-44.93,18.007-93.883,33.946-140.446
				c-26.093-79.45-147.21-110.113-192.155-176.281c-53.823-79.255-86.514-181.335-120.796-270.116
				c-26.274-68.089-43.904-138.161-118.926-161.007c-84.32-25.674-309.275,0.672-273.875-154.334
				c29.654-129.897,280.284-218.874,412.624-306.448c82.022-54.266,173.1-94.226,256.639-146.181
				c66.922-41.616,199.917-117.809,188.201-213.423c-21.561-10.075-43.768-17.861-68.854-22.021
				c-25.947-4.31-49.408-4.337-73.326-3.365c-43.963,1.791-86.732,16.179-126.758,34.608
				c-12.444,108.173-84.482,165.298-164.824,234.165c-88.469,75.823-184.479,126.043-290.563,172.918
				c-103.382,45.688-212.33,76.248-315.523,121.652c-97.263,42.794-206.556,108.071-218.583,225.391
				c-10.374,101.2,73.534,139.089,156.803,160.399c43.845,11.227,88.603,20.935,131.236,36.391
				c115.498,41.878,234.222,52.842,295.937,173.349c18.631,36.373,27.986,77.686,52.111,110.816
				c21.008,28.861,49.208,54.019,74.915,78.55c77.682,74.113,147.552,153.266,242.298,206.374
				C2263.76,5042.779,2333.939,5075.48,2368.854,5073.728z"/>
			<path id="_x31_80611111_1_" fill="#6ACBBA" stroke="#000000" d="M2402.799,4933.273c14.838-43.332,32.473-84.585,49.555-118.518
				c20.676-41.085,58.252-145.063,111.713-161.037c-69.654,16.183-128.734,2.892-189.604-35.921
				c-43.623-27.813-81.608-61.927-118.873-97.591c-69.496-66.523-96.314-143.987-110.277-236.873
				c-16.176-107.546,6.146-217.067,52.018-314.876c47.121-100.469,140.826-176.635,241.494-219.602
				c51.043-21.783,117.147-17.581,171.258-32.095c23.903-6.409,40.346-17.644,50.7-31.97
				c23.599-32.683,28.128-102.916-15.323-128.152c-32.925-19.126-61.326-37.308-90.951-51.153
				c11.715,95.614-121.277,171.808-188.199,213.424c-83.539,51.954-174.616,91.915-256.639,146.18
				c-132.338,87.573-382.972,176.55-412.626,306.449c-35.398,155.006,189.561,128.658,273.877,154.334
				c75.021,22.848,92.651,92.918,118.926,161.006c34.282,88.781,66.974,190.862,120.798,270.117
				C2255.59,4823.164,2376.707,4853.827,2402.799,4933.273z"/>
			<path id="_x31_80611103_1_" fill="#A0EE9D" stroke="#000000" d="M2458.508,4244.273c-2.064,39.925,5.372,79.147,23.248,115.119
				c27.941,56.21,81.796,105.811,145.34,117.912c28.572,5.454,59.867-7.044,79.529-27.684c5.537-5.803,11.305-12.92,15.252-20.193
				c-4.923,37.461-5.551,70.65-28.322,103.952c-33.369,48.795-88.043,92.802-147.748,103.127
				c-89.367,15.448-170.863-33.975-235.425-88.908c-89.177-75.877-150.354-189.139-148.202-309.032
				c1.906-106.436,15.047-207.637,76.299-300.099c70.863-106.925,178.975-157.926,296.604-183.215
				c57.791-12.42,123.324-17.597,180.47,0.863c38.464,12.422,129.04,52.971,126.265,104.015c0.333-6.063-24.912-11.237-29.205-11.36
				c-92.45-2.578-194.404,101.839-252.648,164.688C2510.398,4066.949,2462.221,4172.057,2458.508,4244.273z"/>
			<path id="_x31_80611110_1_" fill="#80CDF8" stroke="#000000" d="M2379.814,5412.989c26.436,44.276,154.182,75.218,155.357-2.654
				c0.654-43.421-78.277-70.427-110.754-69.923c-23.748,0.381-41.934,14.661-48.606,32.988
				C2371.31,5385.767,2372.041,5399.961,2379.814,5412.989z"/>
			<path id="_x31_80611109_1_" fill="#80CDF8" stroke="#000000" d="M2035.059,5414.444c0.086,0.083,0.182,0.147,0.265,0.229
				c0.101,0.079,0.203,0.158,0.3,0.237c6.377,5.051,12.76,10.079,19.149,15.111c0.155,0.125,0.309,0.242,0.463,0.366
				c6.4,5.034,12.813,10.059,19.228,15.075c0.148,0.111,0.295,0.228,0.441,0.338c6.455,5.045,12.922,10.077,19.398,15.088
				c0.084,0.07,0.16,0.131,0.246,0.201c6.556,5.076,13.12,10.135,19.691,15.181c0.703,0.534,1.41,1.059,2.111,1.594
				c6.301,4.715,46.332,35.011,62.6,47.145c2.858,2.114,5.719,4.238,8.582,6.343c14.793,10.85,29.613,21.55,44.463,32.056
				c0.045,0.027,0.084,0.059,0.127,0.087c12.291,8.699,24.598,17.261,36.924,25.676c0.184,0.129,0.379,0.259,0.569,0.387
				c2.28,1.559,4.565,3.109,6.849,4.659c0.168,0.111,0.328,0.224,0.496,0.341c9.802,6.637,19.619,13.182,29.436,19.613
				c0.219,0.142,0.439,0.293,0.658,0.434c2.193,1.432,4.389,2.866,6.588,4.293c0.301,0.197,0.611,0.394,0.918,0.595
				c2.198,1.432,4.406,2.852,6.611,4.274c0.209,0.134,0.426,0.268,0.639,0.41c7.359,4.731,14.724,9.404,22.097,13.999
				c0.187,0.118,0.373,0.229,0.557,0.349c2.204,1.375,4.401,2.739,6.597,4.1c0.387,0.236,0.767,0.47,1.139,0.707
				c2.062,1.266,4.115,2.529,6.174,3.787c0.389,0.236,0.783,0.475,1.168,0.712c2.188,1.329,4.362,2.658,6.54,3.973
				c0.212,0.132,0.43,0.263,0.643,0.386c7.312,4.421,14.628,8.771,21.946,13.04c0.38,0.226,0.77,0.451,1.155,0.675
				c2.005,1.17,4.021,2.334,6.028,3.492c0.484,0.281,0.971,0.558,1.453,0.841c1.975,1.139,3.955,2.271,5.932,3.397
				c0.436,0.25,0.875,0.498,1.303,0.747c2.258,1.284,4.516,2.559,6.771,3.823c0.114,0.066,0.232,0.137,0.351,0.2
				c4.91,2.755,9.813,5.476,14.723,8.157c0.308,0.165,0.621,0.336,0.922,0.496c2.064,1.129,4.131,2.248,6.199,3.363
				c0.518,0.282,1.041,0.558,1.566,0.844c1.883,1.014,3.764,2.014,5.648,3.019c0.563,0.299,1.124,0.595,1.682,0.898
				c1.946,1.028,3.889,2.048,5.835,3.072c0.445,0.231,0.888,0.462,1.323,0.695c4.877,2.54,9.751,5.047,14.635,7.519
				c0.058,0.023,0.117,0.06,0.176,0.095c2.303,1.163,4.602,2.31,6.902,3.46c0.499,0.243,0.998,0.492,1.496,0.742
				c1.885,0.933,3.766,1.863,5.646,2.783c0.612,0.302,1.221,0.6,1.829,0.9c1.821,0.884,3.636,1.763,5.454,2.637
				c0.592,0.291,1.181,0.572,1.773,0.854c1.999,0.97,3.993,1.916,5.988,2.858c0.379,0.178,0.75,0.354,1.119,0.53
				c4.85,2.287,9.695,4.527,14.538,6.727c0.39,0.177,0.774,0.358,1.167,0.53c1.973,0.893,3.948,1.78,5.922,2.661
				c0.619,0.278,1.24,0.547,1.85,0.82c1.781,0.788,3.561,1.566,5.334,2.347c0.658,0.286,1.32,0.572,1.979,0.864
				c1.808,0.777,3.606,1.559,5.409,2.328c0.576,0.244,1.163,0.5,1.741,0.75c2.149,0.909,4.305,1.816,6.458,2.713
				c0.206,0.088,0.414,0.18,0.628,0.262c2.468,1.031,4.938,2.053,7.411,3.053c0.035,0.021,0.076,0.031,0.117,0.05
				c2.309,0.94,4.622,1.866,6.934,2.788c0.568,0.227,1.133,0.449,1.697,0.673c1.809,0.711,3.611,1.425,5.414,2.122
				c0.686,0.266,1.376,0.533,2.06,0.793c1.724,0.666,3.449,1.327,5.173,1.977c0.679,0.262,1.359,0.515,2.033,0.773
				c1.844,0.69,3.688,1.38,5.529,2.057c0.525,0.195,1.057,0.395,1.578,0.584c4.802,1.761,9.603,3.477,14.402,5.141
				c0.418,0.144,0.826,0.277,1.235,0.42c1.948,0.673,3.897,1.341,5.845,1.997c0.657,0.222,1.318,0.438,1.976,0.659
				c1.714,0.576,3.438,1.148,5.157,1.707c0.715,0.241,1.436,0.473,2.158,0.702c1.715,0.56,3.428,1.105,5.148,1.651
				c0.66,0.206,1.324,0.423,1.992,0.63c1.95,0.614,3.904,1.218,5.852,1.81c0.405,0.122,0.814,0.252,1.223,0.375
				c4.782,1.448,9.566,2.849,14.344,4.196c0.59,0.166,1.172,0.329,1.762,0.491c1.772,0.497,3.549,0.99,5.328,1.473
				c0.716,0.193,1.437,0.393,2.151,0.582c1.679,0.45,3.359,0.895,5.037,1.328c0.719,0.188,1.438,0.377,2.162,0.563
				c1.753,0.448,3.504,0.894,5.256,1.33c0.618,0.152,1.226,0.309,1.843,0.46c2.242,0.551,4.482,1.093,6.724,1.625
				c0.097,0.021,0.192,0.055,0.296,0.071c0.002,0,0.006,0,0.01,0.002c52.693,11.906,107.752,17.236,162.872,15.834
				c0.004,0.002,0.006,0.002,0.01,0.002c2.384-0.125,4.772-0.268,7.147-0.428c0.209-0.012,0.42-0.022,0.627-0.036
				c2.469-0.167,4.938-0.353,7.404-0.555c2.766-0.233,5.535-0.479,8.298-0.734c0.837-0.073,1.674-0.153,2.506-0.231
				c2.003-0.189,4.008-0.385,6.011-0.59c0.877-0.081,1.757-0.174,2.639-0.261c2.283-0.234,4.559-0.477,6.842-0.734
				c0.502-0.058,0.998-0.106,1.498-0.158c2.781-0.32,5.563-0.642,8.348-0.978c0.646-0.079,1.298-0.162,1.949-0.247
				c2.17-0.267,4.336-0.542,6.506-0.825c0.814-0.105,1.625-0.217,2.436-0.323c2.204-0.293,4.41-0.593,6.613-0.908
				c0.599-0.088,1.196-0.167,1.797-0.249c2.846-0.407,5.691-0.832,8.525-1.271c0.192-0.032,0.393-0.058,0.586-0.094
				c2.604-0.402,5.201-0.82,7.8-1.248c0.668-0.111,1.332-0.222,1.999-0.328c2.265-0.383,4.535-0.775,6.802-1.172
				c0.579-0.102,1.161-0.205,1.744-0.314c5.708-1.015,11.404-2.093,17.091-3.238c0.423-0.079,0.844-0.174,1.268-0.255
				c2.452-0.507,4.901-1.009,7.349-1.539c0.495-0.104,0.991-0.214,1.486-0.313c5.791-1.256,11.565-2.563,17.322-3.966
				c0.025,0.001,0.059-0.009,0.087-0.017c2.794-0.674,5.58-1.37,8.369-2.08c0.354-0.088,0.713-0.188,1.066-0.268
				c2.739-0.707,5.481-1.426,8.21-2.167c0.079-0.014,0.152-0.041,0.225-0.06c5.851-1.58,11.672-3.24,17.475-4.986
				c0.171-0.046,0.333-0.097,0.5-0.151c2.779-0.836,5.554-1.69,8.324-2.563c0.102-0.036,0.202-0.063,0.306-0.098
				c8.713-2.763,17.372-5.706,25.955-8.859c0.077-0.026,0.153-0.054,0.231-0.085c8.627-3.166,17.183-6.533,25.659-10.112
				c0.019-0.006,0.034-0.012,0.052-0.02c19.865-8.391,39.31-17.962,58.216-28.829c0.004-0.008,0.012-0.01,0.018-0.01
				c42.149-24.618,80.886-54.891,114.568-90.98c0.505-0.541,1.007-1.091,1.505-1.636c1.329-1.428,2.637-2.878,3.942-4.322
				c0.645-0.715,1.287-1.441,1.93-2.159c0.404-0.454,0.81-0.903,1.215-1.354c0.49-0.559,0.973-1.12,1.463-1.68
				c1.324-1.508,2.646-3.027,3.955-4.56c1.478-1.741,2.948-3.488,4.416-5.256c0.592-0.717,1.182-1.443,1.772-2.168
				c0.839-1.025,1.683-2.055,2.514-3.095c0.761-0.931,1.508-1.88,2.259-2.815c0.654-0.833,1.312-1.658,1.962-2.497
				c0.813-1.032,1.623-2.081,2.433-3.126c0.781-1.008,1.556-2.016,2.334-3.033c0.05-0.072,0.105-0.139,0.161-0.217
				c0.486-0.635,0.967-1.275,1.449-1.916c32.354-43.124,58.002-91.075,81.847-139.289c5.181-10.88,10.214-21.91,15.165-33.059
				c-1.362-0.887-96.879-63.504-143.48-79.655c-16.663-5.772-33.384-10.442-50.176-14.207
				c-31.314,68.775-126.213,110.436-188.25,139.713c-39.519,18.661-78.924,45.966-122.726,54.071
				c-0.002,0.016-0.002,0.033-0.002,0.051c-0.028,0.657-0.076,1.323-0.134,1.99c-0.032,0.451-0.073,0.899-0.118,1.354
				c-0.067,0.712-0.148,1.426-0.24,2.145c-0.055,0.423-0.119,0.846-0.184,1.275c-0.1,0.673-0.207,1.353-0.332,2.037
				c-0.079,0.448-0.166,0.9-0.255,1.354c-0.13,0.686-0.279,1.37-0.426,2.061c-0.088,0.399-0.182,0.781-0.271,1.179
				c-0.193,0.812-0.403,1.634-0.628,2.454c-0.076,0.294-0.151,0.581-0.234,0.869c-0.262,0.958-0.555,1.91-0.859,2.87
				c-0.083,0.274-0.166,0.543-0.258,0.808c-0.325,0.999-0.672,2.01-1.037,3.026c-0.086,0.226-0.171,0.457-0.251,0.688
				c-0.397,1.063-0.812,2.14-1.249,3.229c-0.065,0.152-0.131,0.305-0.191,0.453c-0.48,1.172-0.982,2.346-1.524,3.54
				c-31.439,69.799-122.7,78.185-187.583,58.73c-81.674-24.491-155.851-88.137-241.557-98.479
				c-77.238-9.325-346.25-93.247-211.321-206.69c1.32-1.113,2.659-2.183,4.013-3.235c1.24-0.976,2.497-1.91,3.759-2.84
				c0.008-0.008,0.019-0.012,0.023-0.019c-14.06-6.909-28.663-15.094-39.837-24.965c-16.124,11.608-31.945,23.526-47.495,35.44
				C2129.539,5311.805,2036.255,5413.146,2035.059,5414.444z"/>
			<path id="_x31_80611108_1_" fill="#80CDF8" stroke="#000000" d="M2430.543,5506.328c85.706,10.343,159.882,73.988,241.553,98.481
				c64.885,19.456,156.146,11.07,187.587-58.73c0.544-1.194,1.042-2.37,1.521-3.541c0.064-0.147,0.129-0.302,0.192-0.452
				c0.438-1.089,0.854-2.166,1.249-3.23c0.085-0.229,0.17-0.461,0.252-0.687c0.37-1.015,0.716-2.025,1.037-3.026
				c0.094-0.267,0.178-0.535,0.262-0.808c0.305-0.96,0.598-1.914,0.855-2.87c0.085-0.288,0.162-0.577,0.237-0.869
				c0.228-0.822,0.435-1.645,0.629-2.456c0.09-0.397,0.183-0.777,0.269-1.179c0.147-0.688,0.295-1.373,0.429-2.061
				c0.087-0.452,0.174-0.904,0.255-1.353c0.122-0.687,0.232-1.364,0.33-2.037c0.061-0.426,0.129-0.854,0.182-1.275
				c0.096-0.717,0.177-1.435,0.242-2.145c0.047-0.457,0.088-0.903,0.118-1.354c0.056-0.667,0.106-1.332,0.136-1.99
				c0-0.018-0.002-0.033,0.004-0.051c0.027-0.586,0.043-1.163,0.053-1.738c0.006-0.33,0.011-0.655,0.015-0.981
				c0.002-0.574-0.002-1.136-0.01-1.704c-0.007-0.289-0.019-0.575-0.032-0.868c-0.037-1.046-0.1-2.092-0.188-3.118
				c-0.026-0.266-0.045-0.53-0.069-0.794c-0.054-0.55-0.118-1.096-0.19-1.637c-0.039-0.298-0.08-0.604-0.129-0.911
				c-0.07-0.536-0.156-1.079-0.246-1.613c-0.031-0.141-0.055-0.281-0.08-0.427c-0.199-1.067-0.423-2.123-0.682-3.169
				c-0.07-0.305-0.142-0.609-0.221-0.91c-0.127-0.49-0.266-0.992-0.406-1.48c-0.087-0.305-0.188-0.613-0.279-0.921
				c-0.26-0.845-0.534-1.681-0.836-2.509c-0.108-0.307-0.211-0.61-0.325-0.911c-0.171-0.451-0.347-0.894-0.529-1.346
				c-0.133-0.326-0.274-0.663-0.413-0.988c-0.186-0.429-0.371-0.859-0.561-1.28c-0.175-0.378-0.356-0.747-0.533-1.12
				c-0.313-0.646-0.631-1.287-0.974-1.926c-0.188-0.369-0.385-0.749-0.587-1.122c-0.214-0.376-0.43-0.754-0.644-1.131
				c-0.223-0.372-0.439-0.743-0.67-1.112c-0.21-0.35-0.415-0.697-0.634-1.037c-0.4-0.639-0.815-1.269-1.242-1.894
				c-0.209-0.311-0.428-0.608-0.645-0.917c-0.284-0.407-0.572-0.811-0.865-1.207c-0.228-0.308-0.455-0.609-0.685-0.915
				c-0.354-0.462-0.711-0.917-1.077-1.374c-0.216-0.268-0.426-0.533-0.641-0.794c-0.477-0.583-0.969-1.156-1.461-1.723
				c-0.219-0.249-0.445-0.505-0.668-0.755c-0.393-0.435-0.791-0.87-1.191-1.298c-0.211-0.224-0.423-0.45-0.64-0.679
				c-0.594-0.622-1.19-1.234-1.804-1.837c-0.146-0.147-0.299-0.291-0.452-0.431c-0.505-0.5-1.019-0.99-1.546-1.472
				c-0.213-0.205-0.432-0.407-0.651-0.612c-0.534-0.483-1.061-0.96-1.604-1.433c-0.158-0.135-0.313-0.277-0.471-0.412
				c-0.689-0.595-1.391-1.183-2.102-1.769c-0.189-0.148-0.377-0.306-0.564-0.449c-0.563-0.46-1.13-0.912-1.709-1.363
				c-0.217-0.155-0.426-0.329-0.636-0.492c-0.757-0.577-1.506-1.145-2.281-1.711c-32.601-23.81-82.796-36.45-115.81-46.685
				c-57.556-17.851-101.982-36.468-148.841-73.654c-53.315-42.304-88.159-77.34-160.144-81.382c-1.942-0.104-3.898-0.204-5.861-0.3
				c-0.706-0.029-1.418-0.061-2.121-0.088c-1.263-0.055-2.525-0.11-3.795-0.157c-0.889-0.037-1.786-0.058-2.677-0.084
				c-1.095-0.037-2.187-0.073-3.286-0.102c-0.998-0.027-2.004-0.042-3.004-0.065c-1.001-0.021-1.994-0.043-2.993-0.063
				c-1.089-0.012-2.183-0.022-3.282-0.031c-0.914-0.003-1.828-0.013-2.744-0.02c-1.166-0.001-2.34,0.009-3.51,0.01
				c-0.848,0.008-1.693,0.01-2.543,0.018c-1.234,0.008-2.473,0.025-3.713,0.048c-0.785,0.02-1.57,0.026-2.356,0.048
				c-1.305,0.023-2.603,0.07-3.909,0.103c-0.723,0.026-1.441,0.052-2.171,0.077c-1.367,0.048-2.735,0.107-4.11,0.166
				c-0.645,0.031-1.301,0.063-1.952,0.088c-1.44,0.075-2.874,0.155-4.313,0.246c-0.586,0.038-1.166,0.075-1.757,0.113
				c-1.503,0.094-3.007,0.202-4.511,0.313c-0.506,0.035-1.017,0.078-1.523,0.121c-1.586,0.128-3.166,0.261-4.741,0.41
				c-0.415,0.039-0.833,0.085-1.251,0.121c-1.664,0.165-3.34,0.333-5.002,0.521c-0.309,0.032-0.612,0.068-0.919,0.103
				c-1.771,0.204-3.544,0.418-5.312,0.646c-0.176,0.029-0.348,0.052-0.521,0.074c-36.157,4.769-71.441,15.497-100.081,36.546
				c-0.008,0.006-0.019,0.017-0.029,0.024c-1.266,0.932-2.515,1.872-3.761,2.84c-1.352,1.059-2.694,2.124-4.013,3.235
				C2084.289,5413.091,2353.301,5497.015,2430.543,5506.328z M2375.813,5373.402c6.673-18.327,24.857-32.605,48.605-32.988
				c32.477-0.506,111.41,26.504,110.754,69.923c-1.176,77.874-128.92,46.933-155.357,2.656
				C2372.041,5399.961,2371.31,5385.767,2375.813,5373.402z"/>
			<path id="_x31_80611107_1_" fill="#80CDF8" stroke="#000000" d="M3178.844,5320.905c-2.091-0.475-4.182-0.936-6.276-1.378
				c-88.182-18.646-178.044-13.431-268.768-15.557c-97.722-2.292-186.483-42.599-275.474-78.688
				c-87.701-35.562-183.182-80.367-278.268-47.03c-58.439,20.492-112.205,53.869-162.883,90.337
				c11.17,9.868,25.773,18.057,39.833,24.964c0.004-0.004,0.008-0.005,0.012-0.009c28.638-21.052,63.913-31.786,100.081-36.544
				c0.172-0.026,0.344-0.049,0.52-0.074c1.768-0.229,3.537-0.441,5.313-0.646c0.307-0.032,0.61-0.068,0.919-0.103
				c1.664-0.188,3.336-0.359,5-0.519c0.42-0.042,0.836-0.084,1.253-0.125c1.575-0.148,3.153-0.28,4.739-0.41
				c0.509-0.041,1.02-0.084,1.523-0.119c1.503-0.113,3.01-0.222,4.513-0.317c0.589-0.038,1.169-0.073,1.755-0.11
				c1.439-0.09,2.873-0.168,4.313-0.245c0.651-0.028,1.306-0.059,1.952-0.088c1.375-0.061,2.749-0.12,4.116-0.168
				c0.724-0.024,1.442-0.051,2.165-0.074c1.309-0.037,2.604-0.08,3.908-0.102c0.789-0.021,1.574-0.034,2.359-0.05
				c1.238-0.022,2.477-0.04,3.711-0.05c0.852-0.008,1.695-0.008,2.543-0.018c1.172-0.001,2.344-0.007,3.51-0.008
				c0.918,0.007,1.83,0.015,2.746,0.021c1.096,0.009,2.191,0.016,3.28,0.029c0.999,0.021,1.992,0.043,2.993,0.064
				c1,0.021,2.008,0.034,3.004,0.062c1.1,0.028,2.191,0.07,3.286,0.104c0.892,0.024,1.786,0.049,2.679,0.084
				c1.27,0.049,2.528,0.101,3.795,0.159c0.703,0.029,1.413,0.057,2.119,0.084c1.967,0.098,3.921,0.198,5.861,0.302
				c71.987,4.04,106.83,39.08,160.144,81.384c46.858,37.185,91.287,55.8,148.841,73.652c33.012,10.233,83.211,22.877,115.812,46.685
				c0.771,0.568,1.524,1.134,2.281,1.713c0.21,0.161,0.417,0.335,0.634,0.492c0.579,0.449,1.146,0.903,1.709,1.361
				c0.188,0.145,0.375,0.302,0.564,0.449c0.713,0.588,1.414,1.172,2.1,1.769c0.159,0.135,0.314,0.277,0.473,0.414
				c0.543,0.477,1.072,0.949,1.604,1.433c0.218,0.207,0.437,0.409,0.651,0.61c0.527,0.482,1.039,0.975,1.546,1.472
				c0.155,0.14,0.31,0.283,0.452,0.433c0.611,0.6,1.212,1.215,1.806,1.836c0.215,0.226,0.423,0.454,0.636,0.682
				c0.401,0.426,0.801,0.861,1.191,1.295c0.223,0.253,0.451,0.502,0.668,0.754c0.492,0.568,0.986,1.142,1.461,1.72
				c0.217,0.266,0.427,0.532,0.643,0.797c0.366,0.457,0.725,0.914,1.077,1.374c0.231,0.308,0.459,0.606,0.685,0.915
				c0.295,0.396,0.581,0.803,0.867,1.207c0.217,0.311,0.434,0.608,0.645,0.921c0.425,0.617,0.84,1.251,1.242,1.893
				c0.217,0.341,0.424,0.685,0.632,1.034c0.23,0.371,0.453,0.742,0.672,1.116c0.212,0.377,0.428,0.749,0.642,1.127
				c0.2,0.375,0.399,0.749,0.589,1.122c0.343,0.639,0.659,1.282,0.972,1.926c0.179,0.375,0.362,0.742,0.535,1.12
				c0.189,0.423,0.375,0.852,0.561,1.28c0.139,0.329,0.282,0.662,0.415,0.99c0.181,0.448,0.36,0.896,0.527,1.344
				c0.116,0.301,0.219,0.606,0.327,0.913c0.302,0.826,0.574,1.663,0.834,2.509c0.094,0.304,0.192,0.612,0.279,0.921
				c0.141,0.486,0.281,0.99,0.406,1.48c0.079,0.299,0.15,0.604,0.219,0.904c0.261,1.05,0.484,2.105,0.682,3.173
				c0.027,0.144,0.053,0.288,0.082,0.429c0.089,0.536,0.176,1.077,0.246,1.611c0.049,0.306,0.088,0.613,0.129,0.911
				c0.068,0.542,0.135,1.085,0.188,1.635c0.024,0.264,0.043,0.532,0.071,0.796c0.088,1.026,0.15,2.072,0.186,3.118
				c0.014,0.291,0.027,0.577,0.03,0.868c0.013,0.564,0.018,1.134,0.012,1.704c-0.007,0.323-0.007,0.651-0.015,0.981
				c-0.012,0.577-0.023,1.152-0.053,1.738c43.8-8.105,83.206-35.41,122.724-54.069
				C3052.633,5431.341,3147.536,5389.686,3178.844,5320.905z"/>
			<path id="_x31_80611166_1_" fill="#CCCCCC" stroke="#000000" d="M2780.588,3853.334c-15.569,3.005-31.617,6.396-45.287,14.51
				c-39.291,23.308-80.988,53.738-115.019,84.168c-25.869,23.124-50.604,46.161-71.329,74.095
				c-75.689,101.961-132.565,251.395-44.917,369.715c56.73,76.576,157.515,118.99,214.413,39.688
				c9.645-13.455,16.783-30.911,19.752-47.118c5.822-31.646,0.309-66.488-8.102-97.157c-8.369-30.499-22.764-57.639-21.245-90.222
				c0.161-3.438,0.462-33.053,7.542-31.402c-4.678-1.104-9.72-8.73-11.535-12.743c-18.485-40.908-11.283-102.806,6.33-142.258
				c14.307-32.053,36.039-64.68,59.363-90.762c19.402-21.688,42.921-32.353,65.316-49.971c11.566-9.098,5.979-15.776-3.018-19.944
				C2815.434,3845.853,2798.638,3849.844,2780.588,3853.334z"/>
			<path id="_x31_80611167_1_" fill="#CCCCCC" stroke="#000000" d="M1950.77,5336.89c-37.649-37.92-84.371-72.5-119.204-108.99
				c-27.626-28.936-42.524-64.99-70.63-93.288c-50.207-50.553-151.025-125.143-225.065-187.072
				c-104.628-87.516-198.589-164.499-285.409-257.544c-22.122-23.691-27.652-57.537,17.696-53.754
				c26.19,2.188,52.277,17.998,76.254,27.67c149.239,60.155,260.946,182.935,389.903,274.825
				c110.354,78.639,234.577,147.385,274.674,286.393c9.574,33.201,4.236,76.571-23.525,107.237c-1.211,1.331-2.454,2.64-3.75,3.927
				C1975.764,5342.204,1956.462,5342.617,1950.77,5336.89z"/>
			<path id="_x31_80611165_1_" fill="#AAAAAA" stroke="#000000" d="M2901.1,3916.028c-5.958-31.264-54.86-34.888-79.261-29.108
				c-16.896,4-29.978,16.801-42.407,28.182c-6.105,5.595-11.527,12.217-16.816,18.594c-17.852,21.533-30.531,45.759-45.551,69.123
				c-22.146,34.482-25.648,86.024-18.696,125.148c0.915,5.109,1.695,10.238,2.89,15.291c2.141,9.064,3.734,18.379,11.448,24.639
				c4.118,3.34,13.632,4.676,18.63,3.274c9.935-2.793,15.349-14.04,19.804-22.441c6.495-12.268,11.109-27.076,16.524-39.942
				c13.109-31.16,23.547-64.493,46.831-89.761c20.782-22.563,87.733-59.643,87.16-97.582
				C2901.629,3919.637,2901.453,3917.837,2901.1,3916.028z"/>
		</g>
	</g>
</g>
</svg>
