<?xml version="1.0" encoding="utf-8"?>
<!-- Generator: Adobe Illustrator 16.0.0, SVG Export Plug-In . SVG Version: 6.00 Build 0)  -->
<!DOCTYPE svg PUBLIC "-//W3C//DTD SVG 1.1//EN" "http://www.w3.org/Graphics/SVG/1.1/DTD/svg11.dtd">
<svg version="1.1" id="Layer_1" xmlns="http://www.w3.org/2000/svg" xmlns:xlink="http://www.w3.org/1999/xlink" x="0px" y="0px"
	 width="4864px" height="4352px" viewBox="0 0 4864 4352" enable-background="new 0 0 4864 4352" xml:space="preserve">
<g>
	<g transform="scale(1.0)">
		<g id="_x31_80606943" transform=" scale(1.0, 1.0)">
			<path id="_x31_80606945" fill="#BFDAE3" stroke="#000000" d="M4456.947,1560.151c68.469,298.891,5.408,638.108-34.258,927.802
				c-24.094,175.998-10.506,360.453-81.461,527.302c-62.863,147.828-158.771,260.717-289.865,354.621
				c-243.09,174.137-537.422,341.037-847.837,250.034c-307.955-90.294-526.455-219.419-682.982-507.251
				c-110.698-203.575-98.577-449.835-65.175-672.864c24.065-160.675,26.294-320.772,49.005-481.444
				c38.796-274.503,81.396-536.899,167.19-801.108c79.365-244.412,213.277-378.042,471.944-431.909
				c231.38-48.188,435.763,1.304,655.435,85.587c172.789,66.295,331.504,229.617,456.668,362.212
				C4362.939,1286.832,4424.613,1418.996,4456.947,1560.151z"/>
			<path id="_x31_80606946" fill="#B0FFB8" stroke="#000000" d="M4456.947,1560.151c-32.334-141.155-94.008-273.319-201.334-387.018
				c-125.164-132.595-283.879-295.917-456.668-362.212c-219.672-84.283-424.057-133.773-655.436-85.587
				c-258.667,53.868-392.577,187.499-471.944,431.909c-85.794,264.208-128.395,526.605-167.19,801.108
				c-22.71,160.672-24.939,320.769-49.004,481.444c-33.403,223.028-45.524,469.289,65.174,672.864
				c156.528,287.832,375.028,416.957,682.983,507.251c310.413,91.003,604.747-75.898,847.835-250.034
				c131.096-93.904,227.004-206.793,289.867-354.621c70.955-166.849,57.367-351.303,81.461-527.302
				C4462.357,2198.26,4525.416,1859.042,4456.947,1560.151z M3520.484,1724.859c-10.957,39.883-34.004,67.183-57.604,98.867
				c-20.516,27.543-26.73,63.503-37.432,95.341c-10.953,32.579-18.813,65.974-27.889,98.956
				c-6.113,22.198-23.762,126.756-54.729,127.763c-5.869-27.398,16.357-66.111,23.441-93.017
				c9.186-34.867,16.723-70.771,20.859-106.575c8.043-69.664,26.969-137.858,34.262-207.057c4.65-44.193,7.633-85.25,7.727-129.619
				c0.055-23.202,5.104-71.05,36.668-38.353C3504.639,1611.41,3535.811,1669.099,3520.484,1724.859z"/>
			<path id="_x31_80606947" fill="#9AD2BD" stroke="#000000" d="M4456.947,1560.151c-32.334-141.155-94.008-273.319-201.334-387.018
				c-125.164-132.595-283.879-295.917-456.668-362.212c-219.672-84.283-424.057-133.773-655.436-85.587
				c-258.667,53.868-392.577,187.499-471.944,431.909c-85.794,264.208-128.395,526.605-167.19,801.108
				c-22.71,160.672-24.939,320.769-49.004,481.444c-33.403,223.028-45.524,469.289,65.174,672.864
				c156.528,287.832,375.028,416.957,682.983,507.251c310.413,91.003,604.747-75.898,847.835-250.034
				c131.096-93.904,227.004-206.793,289.867-354.621c70.955-166.849,57.367-351.303,81.461-527.302
				C4462.357,2198.26,4525.416,1859.042,4456.947,1560.151z M3520.484,1724.859c-10.957,39.883-34.004,67.183-57.604,98.867
				c-20.516,27.543-26.73,63.503-37.432,95.341c-10.953,32.579-18.813,65.974-27.889,98.956
				c-6.113,22.198-23.762,126.756-54.729,127.763c-5.869-27.398,16.357-66.111,23.441-93.017
				c9.186-34.867,16.723-70.771,20.859-106.575c8.043-69.664,26.969-137.858,34.262-207.057c4.65-44.193,7.633-85.25,7.727-129.619
				c0.055-23.202,5.104-71.05,36.668-38.353C3504.639,1611.41,3535.811,1669.099,3520.484,1724.859z"/>
			<path id="_x31_80606948" fill="#9AD2BD" stroke="#000000" d="M4456.947,1560.151c-32.334-141.155-94.008-273.319-201.334-387.018
				c-125.164-132.595-283.879-295.917-456.668-362.212c-219.672-84.283-424.057-133.773-655.436-85.587
				c-258.667,53.868-392.577,187.499-471.944,431.909c-85.794,264.208-128.395,526.605-167.19,801.108
				c-22.71,160.672-24.939,320.769-49.004,481.444c-33.403,223.028-45.524,469.289,65.174,672.864
				c156.528,287.832,375.028,416.957,682.983,507.251c310.413,91.003,604.747-75.898,847.835-250.034
				c131.096-93.904,227.004-206.793,289.867-354.621c70.955-166.849,57.367-351.303,81.461-527.302
				C4462.357,2198.26,4525.416,1859.042,4456.947,1560.151z M3520.484,1724.859c-10.957,39.883-34.004,67.183-57.604,98.867
				c-20.516,27.543-26.73,63.503-37.432,95.341c-10.953,32.579-18.813,65.974-27.889,98.956
				c-6.113,22.198-23.762,126.756-54.729,127.763c-5.869-27.398,16.357-66.111,23.441-93.017
				c9.186-34.867,16.723-70.771,20.859-106.575c8.043-69.664,26.969-137.858,34.262-207.057c4.65-44.193,7.633-85.25,7.727-129.619
				c0.055-23.202,5.104-71.05,36.668-38.353C3504.639,1611.41,3535.811,1669.099,3520.484,1724.859z"/>
			<path id="_x31_80606949" fill="#82C7AE" stroke="#000000" d="M4432.551,1561.334c10.584,176.972-42.32,352.122-106.279,520.819
				c-90.143,237.745-262.215,428.852-366.119,659.885c-32.625,72.556-71.16,147.364-95.504,223.489
				c-15.473,48.412-38.168,94.305-57.053,141.452c-16.506,41.195-22.723,91.853-45.666,129.596
				c-47.314,77.849-137.654,152.868-215.318,199.169c-355.07,211.68-707.006-108.276-831.247-425.889
				c-72.934-186.443-96.555-386.533-99.461-585.452c-1.433-97.757,1.511-196.163,6.353-293.8
				c5.054-102.271,32.021-202.621,36.706-305.464c5.482-120.398-28.401-238.576-14.371-359.423
				c19.976-172.008,39.229-370.908,130.473-523.218c74.276-123.988,231.103-188.575,368.457-217.178
				c231.374-48.186,435.763,1.308,655.433,85.591c172.783,66.297,331.496,229.624,456.666,362.223
				c58.283,61.739,118.682,134.338,144.986,216.145C4419.072,1446.71,4429.127,1504.123,4432.551,1561.334z M2857.761,1132.108
				c-35.608,50.833-34.812,108.833-38.957,168.417c-4.118,59.263,1.276,118.738,10.308,177.325
				c8.031,52.133,9.303,104.781,17.525,157.067c9.857,62.693,29.676,123.479,23.421,186.561
				c-7.02,70.8-23.946,140.311-27.739,211.499c-2.972,55.938-14.472,111.001-30.538,164.67
				c-13.433,44.844-41.008,79.825-54.078,124.041c-72.217,244.193,12.848,446.508,110.396,667.245
				c30.552,69.13,59.444,141.575,105.104,202.655c65.227,87.259,177.572,118.355,279.101,142.208
				c43.701,10.272,89.104,40.982,133.76,42.252c54.396,1.537,99.416-39.055,136.283-73.502
				c26.758-25.003,41.803-61.44,58.453-93.748c17.67-34.279,34.543-68.943,52.367-103.128
				c30.352-58.204,45.213-117.595,39.674-183.905c-2.521-30.122-14.752-61.243-12.918-91.67
				c1.854-30.831,14.83-65.292,26.023-94.123c30.795-79.288,15.604-171.051,81.746-236.149
				c42.764-42.081,61.082-67.135,81.063-123.775c33.551-95.132,144.797-133.534,203.963-210.134
				c79.055-102.354,164.504-199.697,195.809-328.653c15.385-63.366,7.41-151.353,6.879-216.964
				c-0.361-45.112-20.455-85.138-25.77-129.346c-3.949-32.89-13.203-63.617-33.451-90.267
				c-22.201-29.219-53.426-40.833-80.275-64.288c-12.168-10.63-23.445-22.971-32.863-36.089
				c-14.783-20.587-19.693-45.27-22.264-69.858c-2.725-26.084-14.895-49.292-26.555-73.271
				c-47.406-97.488-140.166-141.948-216.348-216.095c-42.752-41.613-71.584-78.123-130.59-90.223
				c-49.807-10.216-100.736-22.264-149.449-37.115c-108.014-32.93-226.793-59.12-338.888-28.887
				c-76.82,20.721-157.767,50.645-213.743,109.085C2921.851,960.07,2909.851,1057.74,2857.761,1132.108z"/>
			<path id="_x31_80606953" fill="#82C7AE" stroke="#000000" d="M3735.324,2059.833c-4.164,3.652-98.977,69.172-131.359,102.247
				c-115.311,117.771-139.439,313.128-148.799,475.338c-5.621,97.609,11.26,198.299,8.359,295.63
				c-2.949,98.342-6.17,191.15-105.639,201.763c-40.133,4.28-72.852-13.168-106.531-32.483
				c-86.534-49.639-143.566-120.14-192.268-216.87c-32.297-64.151-49.064-146.392-63.825-217.453
				c-22.393-107.959-10.647-212.634,33.005-315.046c56.446-132.42,148.023-271.858,150.065-421.021
				c0.788-57.91,6.193-134.155-8.642-189.381c-14.666-54.553-51.516-155.462-63.34-211.218
				c-37.484-176.85,2.068-414.506,163.24-499.825c105.689-55.927,219.717-26.681,307.932,44.492
				c63.691,51.375,135.969,114.936,178.996,189.593c42.508,73.745,86.807,115.111,130.676,187.816
				c37.984,62.937,76.848,145.18,84.389,222.316C3988.467,1848.67,3845.549,1962.935,3735.324,2059.833z M3429.117,1609.501
				c-0.092,44.365-3.076,85.425-7.727,129.621c-7.293,69.2-26.227,137.393-34.262,207.061c-4.137,35.804-11.68,71.71-20.857,106.573
				c-7.086,26.909-29.322,65.62-23.449,93.021c30.977-1.007,48.623-105.569,54.727-127.765
				c9.086-32.982,16.938-66.377,27.889-98.957c10.711-31.838,16.926-67.803,37.434-95.342c23.607-31.687,46.652-58.991,57.611-98.87
				c15.324-55.763-15.855-113.454-54.697-153.697C3434.211,1538.445,3429.172,1586.293,3429.117,1609.501z"/>
			<path id="_x31_80606952" fill="#9AD2BD" stroke="#000000" d="M3030.628,2905.613c39.438,110.643,96.133,192.918,199.544,246.728
				c40.24,20.942,88.227,49.73,135.779,45.757c117.852-9.85,120.309-108.135,122.344-212.3
				c2.004-103.095,0.334-207.846,5.555-311.191c8.689-171.734,34.436-378.4,169.494-501.574
				c37.936-34.582,129.602-104.854,134.486-108.665c129.338-101.12,274.33-196.117,251.74-379.602
				c-10.088-81.839-38.572-158.619-84.574-225.824c-53.121-77.658-102.262-157.101-153.779-235.841
				c-52.143-79.719-118.984-145.904-195.309-201.239c-105.719-76.66-240.434-117.999-364.982-60.22
				c-189.945,88.131-251.921,399.361-204.827,587.275c14.856,59.243,46.274,112.038,64.464,170.034
				c18.432,58.744,24.638,140.707,24.558,202.055c-0.211,158.027-84.921,289.166-149.926,428.687
				c-50.272,107.896-52.747,219.741-24.581,334.441C2979.172,2759.645,3004.617,2832.629,3030.628,2905.613z M3028.275,2352.967
				c56.45-132.419,148.018-271.853,150.059-421.012c0.796-57.914,6.192-134.153-8.642-189.381
				c-14.665-54.552-51.515-155.458-63.34-211.212c-37.48-176.841,2.072-414.499,163.243-499.811
				c105.689-55.929,219.717-26.683,307.932,44.486c63.691,51.372,135.967,114.932,178.992,189.587
				c42.51,73.744,86.813,115.109,130.678,187.812c37.994,62.934,76.848,145.177,84.391,222.312
				c16.879,172.936-126.031,287.199-236.264,384.096c-4.162,3.655-98.977,69.175-131.355,102.244
				c-115.313,117.769-139.441,313.126-148.797,475.333c-5.619,97.605,11.26,198.288,8.357,295.618
				c-2.945,98.344-6.166,191.149-105.637,201.762c-40.139,4.282-72.85-13.166-106.539-32.485
				c-86.534-49.631-143.558-120.133-192.26-216.864c-32.304-64.147-49.061-146.387-63.822-217.445
				C2972.869,2560.05,2984.624,2455.378,3028.275,2352.967z"/>
			<path id="_x31_80606951" fill="#82C7AE" stroke="#000000" d="M3797.82,2064.362c-4.887,3.812-96.545,74.083-134.479,108.665
				c-135.066,123.174-160.803,329.843-169.5,501.587c-5.221,103.347-3.551,208.101-5.553,311.196
				c-2.035,104.161-4.494,202.451-122.346,212.301c-47.551,3.974-95.537-24.813-135.777-45.758
				c-103.413-53.813-160.108-136.09-199.546-246.735c-26.003-72.987-51.457-145.97-70.008-221.483
				c-28.175-114.702-25.698-226.547,24.575-334.444c65.003-139.525,149.721-270.667,149.923-428.698
				c0.09-61.347-6.13-143.314-24.549-202.057c-18.199-58-49.618-110.796-64.469-170.039
				c-47.09-187.92,14.882-499.158,204.829-587.288c124.551-57.78,259.264-16.439,364.982,60.223
				c76.324,55.339,143.158,121.524,195.311,201.244c51.518,78.742,100.66,158.188,153.779,235.848
				c46,67.206,74.484,143.987,84.566,225.829C4072.158,1868.24,3927.16,1963.24,3797.82,2064.362z M4089.285,1678.639
				c-11.07-84.2-41.721-163.253-90.943-232.545c-56.867-80.066-109.504-161.951-164.654-243.119
				c-55.84-82.178-127.252-150.499-208.711-207.711c-112.844-79.245-256.373-122.294-388.68-63.376
				c-201.786,89.855-275.332,408.646-224.413,602.059c16.058,60.989,49.713,115.388,69.315,175.11
				c19.86,60.473,19.876,126.803,20.056,189.883c0.447,162.495-73.345,315.941-141.936,459.143
				c-53.047,110.749-64.104,224.766-33.639,342.821c20.063,77.711,47.449,152.868,75.44,228.016
				c42.44,113.923,112.003,199.729,222.287,255.474c42.926,21.697,94.119,51.489,144.709,47.594
				c125.385-9.648,145.365-108.759,147.088-215.856c1.703-105.996-8.871-214.628-3.74-320.875
				c8.518-176.561,21.699-356.01,164.922-482.112c40.221-35.411,137.473-107.292,142.66-111.205
				C3956.277,1998.49,4114.1,1867.398,4089.285,1678.639z"/>
			<path id="_x31_80606950" fill="#9AD2BD" stroke="#000000" d="M2868.097,2988.928c30.552,69.129,59.454,141.571,105.113,202.649
				c65.225,87.255,177.568,118.352,279.099,142.199c43.699,10.272,89.102,40.981,133.758,42.25
				c54.395,1.535,99.418-39.054,136.283-73.502c26.76-24.998,41.801-61.438,58.455-93.741
				c17.662-34.281,34.541-68.942,52.365-103.131c30.354-58.197,45.215-117.594,39.676-183.896
				c-2.521-30.126-14.754-61.246-12.924-91.67c1.857-30.832,14.83-65.29,26.027-94.122c30.787-79.287,15.605-171.046,81.748-236.144
				c42.764-42.08,61.072-67.133,81.064-123.772c33.551-95.128,144.795-133.531,203.953-210.13
				c79.064-102.354,164.504-199.692,195.809-328.647c15.385-63.365,7.41-151.35,6.891-216.96
				c-0.371-45.108-20.461-85.135-25.773-129.343c-3.955-32.887-13.207-63.616-33.457-90.263
				c-22.191-29.221-53.418-40.838-80.273-64.287c-12.16-10.631-23.443-22.971-32.865-36.088
				c-14.771-20.588-19.684-45.273-22.262-69.856c-2.725-26.084-14.893-49.29-26.553-73.273
				c-47.406-97.483-140.17-141.941-216.348-216.085c-42.75-41.612-71.582-78.123-130.59-90.222
				c-49.807-10.215-100.727-22.26-149.449-37.112c-108.014-32.929-226.793-59.114-338.889-28.884
				c-76.818,20.724-157.765,50.643-213.743,109.087c-63.347,66.124-75.356,163.795-127.448,238.163
				c-35.606,50.831-34.81,108.83-38.954,168.411c-4.122,59.262,1.283,118.732,10.306,177.319
				c8.032,52.134,9.312,104.78,17.531,157.063c9.859,62.694,29.669,123.478,23.413,186.561
				c-7.02,70.799-23.937,140.306-27.731,211.49c-2.971,55.94-14.474,111.004-30.536,164.668
				c-13.433,44.845-41.009,79.824-54.089,124.042C2685.489,2565.886,2770.56,2768.193,2868.097,2988.928z M2959.329,2358.09
				c68.59-143.197,142.375-296.644,141.928-459.136c-0.168-63.077-0.193-129.403-20.054-189.874
				c-19.595-59.722-53.257-114.123-69.315-175.107c-50.909-193.41,22.635-512.199,224.415-602.05
				c132.311-58.914,275.838-15.867,388.68,63.379c81.457,57.206,152.871,125.526,208.711,207.702
				c55.148,81.165,107.795,163.045,164.652,243.112c49.23,69.289,79.871,148.341,90.941,232.539
				c24.816,188.756-133.008,319.846-270.23,423.298c-5.188,3.908-102.439,75.789-142.664,111.199
				c-143.219,126.104-156.402,305.55-164.93,482.109c-5.121,106.238,5.451,214.867,3.748,320.864
				c-1.721,107.091-21.703,206.202-147.09,215.854c-50.588,3.895-101.779-25.899-144.705-47.597
				c-110.283-55.739-179.848-141.544-222.29-255.465c-27.989-75.146-55.375-150.301-75.438-228.011
				C2895.217,2582.854,2906.282,2468.837,2959.329,2358.09z"/>
			<path id="_x31_80606955" fill="#CCCCCC" stroke="#000000" d="M4456.953,1560.166c-13.184-57.56-31.25-113.623-55.301-167.55
				c17.795,56.324,27.549,112.621,30.91,168.734c10.582,176.967-42.332,352.114-106.283,520.806
				c-90.143,237.741-262.223,428.845-366.127,659.873c-32.627,72.555-71.16,147.362-95.498,223.484
				c-15.473,48.41-38.176,94.306-57.051,141.452c-16.508,41.189-22.725,91.853-45.664,129.592
				c-47.316,77.851-137.658,152.867-215.32,199.162c-355.073,211.678-707.006-108.266-831.246-425.87
				c-72.933-186.439-96.554-386.528-99.468-585.438c-1.424-97.757,1.52-196.16,6.354-293.794
				c5.054-102.268,32.021-202.617,36.706-305.461c5.489-120.394-28.399-238.565-14.371-359.41
				c19.625-168.971,38.558-363.888,125.721-515.103c-40.508,57.588-72.587,126.087-98.74,206.622
				c-85.792,264.209-128.395,526.605-167.188,801.103c-22.713,160.671-24.947,320.765-49.016,481.44
				c-33.4,223.025-45.517,469.28,65.18,672.856c156.52,287.832,375.023,416.954,682.977,507.247
				c310.413,91.005,604.747-75.897,847.843-250.031c131.088-93.901,227-206.791,289.863-354.617
				c70.953-166.846,57.365-351.298,81.461-527.297C4462.359,2198.271,4525.424,1859.053,4456.953,1560.166z"/>
			<path id="_x31_80606954" fill="#AAAAAA" stroke="#000000" d="M3465.789,1571.167c38.85,40.243,70.021,97.933,54.695,153.692
				c-10.957,39.882-34.004,67.183-57.604,98.867c-20.516,27.542-26.73,63.503-37.432,95.34
				c-10.953,32.579-18.813,65.974-27.889,98.956c-6.113,22.199-23.762,126.757-54.729,127.764
				c-5.869-27.398,16.357-66.112,23.441-93.017c9.186-34.867,16.723-70.771,20.857-106.576
				c8.045-69.664,26.971-137.858,34.264-207.056c4.65-44.193,7.633-85.25,7.727-129.619
				C3429.176,1586.316,3434.225,1538.469,3465.789,1571.167z"/>
		</g>
	</g>
	<g transform="scale(1.0)">
		<g id="_x31_80606943_1_" transform=" scale(1.0, 1.0)">
			<path id="_x31_80606945_1_" fill="#BFDAE3" stroke="#000000" d="M608.388,1173.133
				c125.166-132.595,283.879-295.917,456.67-362.212c219.67-84.283,424.053-133.775,655.434-85.587
				c258.668,53.867,392.58,187.498,471.945,431.909c85.795,264.209,128.395,526.605,167.189,801.108
				c22.711,160.672,24.939,320.769,49.006,481.444c33.4,223.029,45.521,469.289-65.176,672.864
				c-156.527,287.832-375.027,416.957-682.982,507.251c-310.416,91.003-604.748-75.897-847.838-250.034
				c-131.092-93.904-227.002-206.793-289.865-354.621c-70.953-166.849-57.367-351.304-81.461-527.302
				c-39.666-289.694-102.725-628.912-34.258-927.802C439.388,1418.996,501.06,1286.832,608.388,1173.133z"/>
			<path id="_x31_80606946_1_" fill="#B0FFB8" stroke="#000000" d="M441.308,2487.953c24.094,175.999,10.508,360.453,81.461,527.302
				c62.863,147.828,158.773,260.717,289.867,354.621c243.088,174.136,537.422,341.037,847.836,250.034
				c307.955-90.294,526.455-219.419,682.984-507.251c110.697-203.575,98.576-449.836,65.174-672.864
				c-24.064-160.675-26.295-320.772-49.004-481.444c-38.797-274.503-81.396-536.9-167.191-801.108
				c-79.367-244.411-213.277-378.042-471.943-431.909c-231.381-48.187-435.766,1.304-655.436,85.587
				c-172.791,66.296-331.504,229.617-456.668,362.212c-107.328,113.699-169,245.863-201.336,387.018
				C338.585,1859.042,401.644,2198.26,441.308,2487.953z M1398.21,1571.166c31.565-32.697,36.613,15.15,36.668,38.353
				c0.094,44.369,3.077,85.426,7.727,129.619c7.292,69.198,26.218,137.394,34.263,207.057
				c4.135,35.805,11.672,71.708,20.857,106.575c7.084,26.905,29.313,65.618,23.441,93.017
				c-30.967-1.007-48.615-105.564-54.729-127.763c-9.074-32.982-16.934-66.377-27.888-98.956
				c-10.7-31.837-16.916-67.798-37.432-95.341c-23.599-31.685-46.647-58.984-57.604-98.867
				C1328.19,1669.099,1359.362,1611.41,1398.21,1571.166z"/>
			<path id="_x31_80606947_1_" fill="#9AD2BD" stroke="#000000" d="M441.308,2487.953c24.094,175.999,10.508,360.453,81.461,527.302
				c62.863,147.828,158.773,260.717,289.867,354.621c243.088,174.136,537.422,341.037,847.836,250.034
				c307.955-90.294,526.455-219.419,682.984-507.251c110.697-203.575,98.576-449.836,65.174-672.864
				c-24.064-160.675-26.295-320.772-49.004-481.444c-38.797-274.503-81.396-536.9-167.191-801.108
				c-79.367-244.411-213.277-378.042-471.943-431.909c-231.381-48.187-435.766,1.304-655.436,85.587
				c-172.791,66.296-331.504,229.617-456.668,362.212c-107.328,113.699-169,245.863-201.336,387.018
				C338.585,1859.042,401.644,2198.26,441.308,2487.953z M1398.21,1571.166c31.565-32.697,36.613,15.15,36.668,38.353
				c0.094,44.369,3.077,85.426,7.727,129.619c7.292,69.198,26.218,137.394,34.263,207.057
				c4.135,35.805,11.672,71.708,20.857,106.575c7.084,26.905,29.313,65.618,23.441,93.017
				c-30.967-1.007-48.615-105.564-54.729-127.763c-9.074-32.982-16.934-66.377-27.888-98.956
				c-10.7-31.837-16.916-67.798-37.432-95.341c-23.599-31.685-46.647-58.984-57.604-98.867
				C1328.19,1669.099,1359.362,1611.41,1398.21,1571.166z"/>
			<path id="_x31_80606948_1_" fill="#9AD2BD" stroke="#000000" d="M441.308,2487.953c24.094,175.999,10.508,360.453,81.461,527.302
				c62.863,147.828,158.773,260.717,289.867,354.621c243.088,174.136,537.422,341.037,847.836,250.034
				c307.955-90.294,526.455-219.419,682.984-507.251c110.697-203.575,98.576-449.836,65.174-672.864
				c-24.064-160.675-26.295-320.772-49.004-481.444c-38.797-274.503-81.396-536.9-167.191-801.108
				c-79.367-244.411-213.277-378.042-471.943-431.909c-231.381-48.187-435.766,1.304-655.436,85.587
				c-172.791,66.296-331.504,229.617-456.668,362.212c-107.328,113.699-169,245.863-201.336,387.018
				C338.585,1859.042,401.644,2198.26,441.308,2487.953z M1398.21,1571.166c31.565-32.697,36.613,15.15,36.668,38.353
				c0.094,44.369,3.077,85.426,7.727,129.619c7.292,69.198,26.218,137.394,34.263,207.057
				c4.135,35.805,11.672,71.708,20.857,106.575c7.084,26.905,29.313,65.618,23.441,93.017
				c-30.967-1.007-48.615-105.564-54.729-127.763c-9.074-32.982-16.934-66.377-27.888-98.956
				c-10.7-31.837-16.916-67.798-37.432-95.341c-23.599-31.685-46.647-58.984-57.604-98.867
				C1328.19,1669.099,1359.362,1611.41,1398.21,1571.166z"/>
			<path id="_x31_80606949_1_" fill="#82C7AE" stroke="#000000" d="M463.394,1389.279c26.305-81.807,86.703-154.405,144.986-216.145
				c125.17-132.599,283.883-295.926,456.666-362.223c219.672-84.283,424.061-133.777,655.434-85.591
				c137.355,28.603,294.182,93.19,368.457,217.178c91.244,152.31,110.498,351.21,130.473,523.218
				c14.031,120.847-19.854,239.024-14.371,359.423c4.686,102.843,31.652,203.193,36.707,305.464
				c4.842,97.637,7.785,196.043,6.352,293.8c-2.906,198.919-26.527,399.009-99.461,585.452
				c-124.24,317.612-476.176,637.568-831.246,425.889c-77.664-46.301-168.006-121.32-215.32-199.169
				c-22.941-37.743-29.158-88.4-45.666-129.596c-18.883-47.147-41.578-93.04-57.051-141.452
				c-24.344-76.125-62.881-150.934-95.506-223.489c-103.904-231.033-275.977-422.141-366.117-659.885
				c-63.959-168.697-116.865-343.847-106.281-520.819C434.874,1504.123,444.927,1446.71,463.394,1389.279z M1878.792,893.943
				c-55.977-58.44-136.924-88.364-213.744-109.085c-112.094-30.233-230.875-4.043-338.887,28.887
				c-48.715,14.851-99.645,26.898-149.451,37.115c-59.006,12.1-87.838,48.61-130.59,90.223
				c-76.18,74.147-168.941,118.607-216.348,216.095c-11.66,23.979-23.828,47.187-26.555,73.271
				c-2.57,24.588-7.479,49.271-22.262,69.858c-9.418,13.118-20.697,25.459-32.865,36.089
				c-26.848,23.455-58.074,35.069-80.275,64.288c-20.248,26.649-29.502,57.376-33.449,90.267
				c-5.314,44.208-25.41,84.234-25.771,129.346c-0.529,65.612-8.504,153.598,6.881,216.964
				c31.305,128.956,116.754,226.299,195.809,328.653c59.164,76.6,170.41,115.002,203.963,210.134
				c19.98,56.641,38.297,81.694,81.063,123.775c66.141,65.099,50.949,156.861,81.744,236.149
				c11.193,28.831,24.172,63.292,26.023,94.123c1.836,30.427-10.396,61.548-12.918,91.67
				c-5.539,66.311,9.322,125.701,39.674,183.905c17.826,34.185,34.697,68.849,52.369,103.128
				c16.65,32.308,31.693,68.745,58.451,93.748c36.868,34.447,81.888,75.039,136.285,73.502
				c44.654-1.27,90.059-31.979,133.758-42.252c101.529-23.853,213.875-54.949,279.102-142.208
				c45.66-61.08,74.553-133.525,105.104-202.655c97.549-220.737,182.613-423.052,110.396-667.245
				c-13.07-44.216-40.645-79.197-54.078-124.041c-16.066-53.669-27.566-108.732-30.537-164.67
				c-3.793-71.188-20.721-140.698-27.74-211.499c-6.254-63.081,13.564-123.867,23.422-186.561
				c8.223-52.287,9.494-104.934,17.525-157.067c9.031-58.587,14.426-118.062,10.307-177.325
				c-4.145-59.584-3.348-117.583-38.957-168.417C1954.149,1057.74,1942.149,960.07,1878.792,893.943z"/>
			<path id="_x31_80606953_1_" fill="#82C7AE" stroke="#000000" d="M892.415,1675.731c7.541-77.137,46.404-159.38,84.391-222.316
				c43.869-72.705,88.168-114.072,130.676-187.816c43.025-74.657,115.305-138.218,178.996-189.593
				c88.214-71.173,202.24-100.419,307.93-44.492c161.174,85.318,200.727,322.975,163.242,499.825
				c-11.824,55.756-48.674,156.666-63.34,211.218c-14.836,55.227-9.43,131.471-8.643,189.381
				c2.043,149.164,93.619,288.602,150.066,421.022c43.652,102.412,55.396,207.087,33.004,315.046
				c-14.76,71.062-31.527,153.302-63.824,217.453c-48.701,96.73-105.734,167.231-192.27,216.87
				c-33.68,19.315-66.398,36.764-106.531,32.483c-99.467-10.612-102.688-103.421-105.637-201.763
				c-2.901-97.331,13.98-198.021,8.359-295.63c-9.36-162.21-33.489-357.567-148.8-475.338
				c-32.383-33.075-127.193-98.595-131.357-102.247C1018.452,1962.935,875.534,1848.67,892.415,1675.731z M1398.215,1571.146
				c-38.841,40.243-70.023,97.934-54.699,153.697c10.959,39.879,34.005,67.184,57.613,98.87
				c20.507,27.539,26.723,63.504,37.433,95.342c10.951,32.58,18.802,65.975,27.888,98.957
				c6.105,22.195,23.752,126.758,54.727,127.765c5.873-27.4-16.363-66.111-23.449-93.021c-9.176-34.863-16.721-70.77-20.857-106.573
				c-8.035-69.667-26.969-137.86-34.261-207.061c-4.649-44.195-7.634-85.255-7.727-129.621
				C1434.828,1586.293,1429.789,1538.445,1398.215,1571.146z"/>
			<path id="_x31_80606952_1_" fill="#9AD2BD" stroke="#000000" d="M1903.388,2684.134c28.166-114.7,25.691-226.546-24.582-334.441
				c-65.004-139.521-149.715-270.66-149.926-428.687c-0.08-61.348,6.127-143.311,24.559-202.055
				c18.189-57.996,49.607-110.791,64.463-170.034c47.094-187.914-14.881-499.144-204.828-587.275
				c-124.549-57.779-259.264-16.44-364.982,60.22c-76.322,55.335-143.166,121.52-195.309,201.239
				c-51.516,78.74-100.658,158.183-153.779,235.841c-46,67.205-74.484,143.985-84.574,225.824
				c-22.588,183.485,122.402,278.481,251.742,379.602c4.885,3.812,96.551,74.083,134.486,108.665
				c135.059,123.173,160.803,329.839,169.493,501.574c5.222,103.346,3.552,208.097,5.556,311.191
				c2.034,104.165,4.491,202.45,122.344,212.3c47.553,3.974,95.539-24.814,135.777-45.757
				c103.412-53.81,160.107-136.085,199.545-246.728C1859.384,2832.629,1884.829,2759.645,1903.388,2684.134z M1868.729,2668.004
				c-14.762,71.059-31.52,153.298-63.822,217.445c-48.703,96.731-105.727,167.233-192.262,216.864
				c-33.688,19.319-66.398,36.768-106.539,32.485c-99.469-10.612-102.691-103.418-105.636-201.762
				c-2.902-97.33,13.977-198.013,8.357-295.618c-9.354-162.206-33.484-357.563-148.795-475.333
				c-32.381-33.069-127.193-98.589-131.357-102.244c-110.232-96.896-253.143-211.159-236.262-384.096
				c7.541-77.135,46.396-159.377,84.389-222.312c43.867-72.702,88.168-114.067,130.678-187.812
				c43.025-74.655,115.303-138.215,178.994-189.587c88.214-71.169,202.24-100.415,307.93-44.486
				c161.172,85.313,200.725,322.97,163.244,499.811c-11.824,55.754-48.674,156.661-63.34,211.212
				c-14.834,55.229-9.438,131.467-8.641,189.381c2.041,149.159,93.607,288.593,150.059,421.012
				C1879.376,2455.378,1891.132,2560.05,1868.729,2668.004z"/>
			<path id="_x31_80606951_1_" fill="#82C7AE" stroke="#000000" d="M814.44,1684.753c10.08-81.842,38.566-158.623,84.566-225.829
				c53.119-77.661,102.26-157.106,153.779-235.848c52.152-79.72,118.984-145.905,195.311-201.244
				c105.717-76.662,240.432-118.003,364.98-60.223c189.949,88.13,251.92,399.367,204.83,587.288
				c-14.85,59.242-46.27,112.038-64.469,170.039c-18.418,58.742-24.639,140.71-24.549,202.056
				c0.203,158.031,84.92,289.173,149.924,428.699c50.273,107.897,52.75,219.742,24.574,334.444
				c-18.551,75.514-44.004,148.496-70.008,221.483c-39.438,110.646-96.133,192.922-199.545,246.735
				c-40.24,20.945-88.229,49.731-135.779,45.758c-117.851-9.85-120.309-108.14-122.344-212.301
				c-2.002-103.096-0.333-207.85-5.554-311.196c-8.697-171.744-34.434-378.413-169.5-501.587
				c-37.932-34.582-129.59-104.854-134.479-108.665C936.841,1963.24,791.843,1868.24,814.44,1684.753z M1044.952,2101.938
				c5.188,3.912,102.441,75.793,142.662,111.205c143.221,126.103,156.404,305.552,164.922,482.112
				c5.129,106.247-5.445,214.879-3.74,320.875c1.721,107.098,21.702,206.208,147.088,215.856
				c50.59,3.896,101.783-25.896,144.707-47.594c110.285-55.744,179.848-141.551,222.289-255.474
				c27.99-75.147,55.377-150.305,75.439-228.016c30.465-118.056,19.408-232.072-33.639-342.821
				c-68.59-143.201-142.383-296.648-141.936-459.143c0.18-63.08,0.195-129.41,20.057-189.883
				c19.602-59.722,53.258-114.121,69.314-175.11c50.92-193.414-22.627-512.204-224.412-602.059
				c-132.309-58.918-275.838-15.869-388.68,63.376c-81.459,57.213-152.873,125.533-208.713,207.711
				c-55.148,81.168-107.787,163.053-164.654,243.119c-49.223,69.292-79.871,148.346-90.941,232.545
				C749.901,1867.398,907.724,1998.49,1044.952,2101.938z"/>
			<path id="_x31_80606950_1_" fill="#9AD2BD" stroke="#000000" d="M2106.298,2321.7c-13.08-44.218-40.656-79.197-54.09-124.042
				c-16.063-53.665-27.564-108.728-30.535-164.668c-3.795-71.184-20.713-140.691-27.732-211.49
				c-6.256-63.083,13.555-123.867,23.414-186.561c8.219-52.283,9.498-104.929,17.531-157.063
				c9.021-58.587,14.428-118.057,10.305-177.319c-4.145-59.581-3.348-117.581-38.953-168.411
				c-52.092-74.368-64.102-172.039-127.449-238.163c-55.979-58.444-136.924-88.363-213.742-109.087
				c-112.098-30.23-230.875-4.045-338.889,28.884c-48.725,14.853-99.645,26.897-149.449,37.112
				c-59.01,12.099-87.84,48.609-130.59,90.222c-76.18,74.145-168.943,118.602-216.348,216.085
				c-11.662,23.983-23.83,47.189-26.555,73.273c-2.578,24.583-7.488,49.268-22.262,69.856c-9.42,13.117-20.703,25.457-32.863,36.088
				c-26.857,23.449-58.084,35.066-80.275,64.287c-20.248,26.647-29.502,57.376-33.457,90.263
				c-5.311,44.208-25.402,84.235-25.771,129.343c-0.521,65.611-8.494,153.596,6.891,216.961
				c31.305,128.954,116.742,226.292,195.807,328.646c59.158,76.599,170.404,115.002,203.955,210.13
				c19.99,56.64,38.299,81.692,81.064,123.772c66.141,65.098,50.959,156.856,81.746,236.144
				c11.199,28.832,24.17,63.29,26.027,94.122c1.83,30.424-10.4,61.544-12.924,91.67c-5.539,66.303,9.322,125.699,39.678,183.896
				c17.822,34.188,34.703,68.85,52.363,103.131c16.654,32.304,31.695,68.743,58.457,93.741
				c36.864,34.448,81.887,75.037,136.281,73.502c44.658-1.269,90.061-31.978,133.76-42.25
				c101.529-23.848,213.873-54.944,279.098-142.199c45.66-61.078,74.563-133.521,105.113-202.649
				C2093.44,2768.193,2178.511,2565.886,2106.298,2321.7z M1938.312,2700.906c-20.063,77.71-47.447,152.864-75.438,228.011
				c-42.441,113.921-112.006,199.726-222.289,255.465c-42.928,21.697-94.117,51.491-144.707,47.597
				c-125.386-9.652-145.367-108.764-147.09-215.854c-1.701-105.997,8.869-214.626,3.748-320.864
				c-8.527-176.56-21.709-356.006-164.93-482.109c-40.225-35.41-137.477-107.291-142.662-111.199
				C907.72,1998.5,749.897,1867.41,774.712,1678.654c11.07-84.198,41.711-163.25,90.941-232.539
				c56.859-80.067,109.504-161.948,164.654-243.112c55.838-82.176,127.252-150.496,208.709-207.702
				c112.844-79.246,256.369-122.293,388.682-63.379c201.779,89.852,275.324,408.641,224.414,602.05
				c-16.059,60.984-49.721,115.385-69.314,175.107c-19.861,60.471-19.887,126.797-20.055,189.874
				c-0.447,162.492,73.338,315.939,141.928,459.136C1957.718,2468.837,1968.784,2582.854,1938.312,2700.906z"/>
			<path id="_x31_80606955_1_" fill="#CCCCCC" stroke="#000000" d="M441.306,2487.965c24.094,175.999,10.506,360.451,81.459,527.297
				c62.863,147.826,158.775,260.716,289.865,354.617c243.096,174.134,537.43,341.036,847.842,250.031
				c307.953-90.293,526.457-219.415,682.977-507.247c110.697-203.576,98.58-449.831,65.18-672.856
				c-24.068-160.675-26.303-320.769-49.016-481.44c-38.793-274.498-81.395-536.894-167.188-801.103
				c-26.152-80.534-58.232-149.033-98.74-206.622c87.164,151.214,106.096,346.132,125.721,515.103
				c14.029,120.845-19.859,239.017-14.371,359.41c4.686,102.845,31.652,203.193,36.707,305.461
				c4.834,97.634,7.777,196.038,6.354,293.794c-2.914,198.91-26.535,398.999-99.467,585.438
				c-124.24,317.604-476.174,637.548-831.246,425.87c-77.662-46.295-168.006-121.312-215.32-199.162
				c-22.941-37.739-29.156-88.402-45.664-129.592c-18.875-47.146-41.58-93.042-57.053-141.452
				c-24.338-76.122-62.871-150.93-95.498-223.484c-103.902-231.027-275.984-422.132-366.127-659.873
				c-63.951-168.691-116.865-343.839-106.281-520.806c3.359-56.113,13.113-112.41,30.908-168.734
				c-24.049,53.927-42.115,109.991-55.299,167.55C338.575,1859.053,401.642,2198.271,441.306,2487.965z"/>
			<path id="_x31_80606954_1_" fill="#AAAAAA" stroke="#000000" d="M1434.878,1609.518c0.094,44.369,3.077,85.426,7.727,129.619
				c7.292,69.198,26.22,137.392,34.263,207.056c4.135,35.806,11.672,71.709,20.857,106.576
				c7.084,26.904,29.313,65.618,23.441,93.017c-30.967-1.007-48.615-105.564-54.729-127.764
				c-9.074-32.982-16.934-66.377-27.888-98.956c-10.7-31.836-16.915-67.798-37.432-95.34
				c-23.599-31.685-46.647-58.985-57.604-98.867c-15.324-55.759,15.848-113.449,54.696-153.692
				C1429.776,1538.469,1434.824,1586.316,1434.878,1609.518z"/>
		</g>
	</g>
</g>
</svg>
