<?xml version="1.0" encoding="utf-8"?>
<!-- Generator: Adobe Illustrator 16.0.0, SVG Export Plug-In . SVG Version: 6.00 Build 0)  -->
<!DOCTYPE svg PUBLIC "-//W3C//DTD SVG 1.1//EN" "http://www.w3.org/Graphics/SVG/1.1/DTD/svg11.dtd">
<svg version="1.1" id="Layer_1" xmlns="http://www.w3.org/2000/svg" xmlns:xlink="http://www.w3.org/1999/xlink" x="0px" y="0px"
	 width="6128px" height="5472px" viewBox="0 0 6128 5472" enable-background="new 0 0 6128 5472" xml:space="preserve">
<g>
	<g transform="scale(1.0)">
		<g id="_x31_80609550" transform=" scale(1.0, 1.0)">
			<path id="_x31_80609552" fill="#BFDAE3" stroke="#000000" d="M3999.764,2647.591c34.887-23.388,59.74-60.259,91.529-88.761
				c-6.203,2.979-13.389,8.354-17.719,10.78c-6.408,3.583-12.973,5.994-19.977,8.16c-13.648,4.218-26.563,4.462-40.82,4.169
				c-7.346-0.145-15.234-0.504-23.949-0.813c-118.518-4.283-237.805,17.775-356.951,18.338
				c-119.549,0.568-245.857-14.202-354.383-68.387c-108.223-54.029-148.468-190.367-170.33-301.971
				c-34.781-177.521-52.818-394.697-22.24-653.195c22.843-193.105,38.273-399.31,148.003-566.604
				c97.518-148.671,255.706-224.797,427.438-251.646c98.223-15.354,208.709-25.916,308.041-17.619
				c207.984,17.37,404.561,87.581,583.721,192.396c146.285,85.581,315.793,147.013,444.732,259.063
				c252.512,219.44,411.174,580.323,387.486,916.562c-8.168,115.992-31.297,237.59-64.666,348.976
				c-57.23,191.032-217.041,476.249-391.6,604.333c-40.291,29.567-87.809,23.68-130.504,2.883
				c-41.854-20.398-78.451-54.551-111.561-84.137c-18.5-17.384-53.924-52.123-53.924-52.123
				c55.795,56.221,101.072,114.248,145.127,180.299c55.178,82.718,83.654,173.4,93.76,268.174
				c6.695,62.686,5.344,127.154-1.635,192.301c-6.484,60.496-14.814,120.762-23.105,181.188
				c-19.721,143.66-83.328,307.249-161.6,428.155c-52.338,80.844-102.035,157.779-171.439,225.5
				c-227.285,221.754-515.799,334.635-833.482,329.377c-123.906-2.057-240.217-35.75-350.248-91.467
				c-113.995-57.734-151.503-145.145-193.171-261.676c-42.622-119.18-68.787-251.479-69.51-377.532
				c-1.238-215.779-3.202-426.834,13.695-641.44c17.923-227.628,75.772-534.806,326.077-621.946
				C3596.391,2672.851,3834.297,2758.535,3999.764,2647.591z"/>
			<path id="_x31_80609553" fill="#B0FFB8" stroke="#000000" d="M4996.861,1191.502
				c-128.941-112.05-298.447-173.481-444.734-259.063c-179.158-104.815-375.734-175.026-583.719-192.396
				c-99.334-8.298-209.82,2.264-308.043,17.618c-171.729,26.849-329.92,102.975-427.437,251.646
				c-109.729,167.295-125.161,373.498-148.003,566.604c-30.578,258.499-12.541,475.674,22.239,653.195
				c21.862,111.604,62.107,247.941,170.33,301.971c108.524,54.185,234.833,68.956,354.384,68.387
				c119.145-0.563,238.434-22.621,356.949-18.338c8.715,0.309,16.605,0.668,23.949,0.813c14.26,0.293,27.174,0.049,40.822-4.169
				c7.004-2.166,13.566-4.577,19.975-8.16c4.332-2.427,11.518-7.801,17.721-10.78c-31.789,28.5-56.645,65.373-91.529,88.761
				c-165.469,110.945-403.373,25.26-593.199,91.333c-250.306,87.141-308.155,394.318-326.077,621.945
				c-16.898,214.607-14.936,425.662-13.696,641.441c0.724,126.056,26.888,258.353,69.511,377.532
				c41.668,116.531,79.176,203.939,193.17,261.676c110.032,55.717,226.343,89.412,350.249,91.467
				c317.684,5.258,606.197-107.623,833.482-329.377c69.402-67.721,119.102-144.656,171.438-225.5
				c78.271-120.906,141.881-284.495,161.602-428.156c8.289-60.425,16.619-120.689,23.104-181.187
				c6.98-65.146,8.33-129.615,1.637-192.301c-10.105-94.772-38.582-185.457-93.762-268.174
				c-44.053-66.051-89.332-124.078-145.125-180.299c0,0,35.422,34.739,53.922,52.123c33.109,29.586,69.707,63.737,111.563,84.137
				c42.695,20.796,90.213,26.686,130.504-2.883c174.559-128.085,334.369-413.3,391.598-604.333
				c33.371-111.386,56.498-232.983,64.666-348.976C5408.035,1771.825,5249.371,1410.943,4996.861,1191.502z M4000.857,3576.182
				c-5.889,20.438-17.189,38.688-28.346,56.596c-18.682,29.979-30.211,71.019-58.086,94.152
				c-11.018,9.145-35.969,36.814-51.791,27.716c-13.451-7.745-13.273-28.742-18.762-41.625
				c-7.965-18.713-18.363-35.883-25.105-55.264c-3.957-11.38-15.08-27.361-23.533-43.619c-8.551-16.449-14.373-33.163-7.289-45.671
				c11.572-20.452,51.564-19.121,71.539-21.657c25.732-3.249,51.123-11.177,76.994-13.086
				C3973.57,3530.991,4015.801,3524.306,4000.857,3576.182z"/>
			<path id="_x31_80609571" fill="#1F9D5A" stroke="#000000" d="M4996.873,1191.54c252.494,219.392,411.178,580.289,387.494,916.504
				c-8.172,115.991-31.354,237.652-64.707,348.974c-21.014,70.128-55.871,153.015-100.23,236.151l-143.508-149.597
				c93.059-147.928,82.219-379.743,64.709-534.175c-15.678-137.671-52.701-273.008-119.242-395.086
				c-35.273-64.625-83.721-127.248-135.086-179.782c-90.643-92.727-205.047-161.104-313.199-231.148
				c-119.744-77.466-245.156-147.596-382.578-188.538c-56.701-16.928-138.338-42.61-197.375-46.947
				c-59.537-4.42-120.91-12.508-185.535-6.254c-142.758,13.842-229.145,39.691-291.854,68.793
				c-23.016,10.673-43.943,23.015-63.039,36.857L3338.15,892.596c90.391-73.881,203.045-116.24,322.205-134.919
				c98.229-15.343,208.717-25.934,308.029-17.593c208.049,17.344,404.592,87.556,583.787,192.373
				C4698.434,1018.011,4867.957,1079.467,4996.873,1191.54z"/>
			<path id="_x31_80609570" fill="#1F9D5A" stroke="#000000" d="M5140.629,2009.397c17.512,154.432,28.352,386.248-64.709,534.175
				l-321.871-335.299l-0.334-3.418c79.551-6.004,110.154-111.655,103.234-197.626c-36.857-458.043-818.855-929.513-1244.043-695.531
				l-160.186-244.406c19.096-13.843,40.025-26.185,63.039-36.857c62.707-29.103,149.098-54.952,291.855-68.793
				c64.623-6.254,125.996,1.834,185.535,6.254c59.037,4.336,140.672,30.02,197.375,46.947
				c137.42,40.942,262.834,111.072,382.576,188.538c108.152,70.045,222.559,138.422,313.199,231.148
				c51.367,52.534,99.813,115.157,135.086,179.782C5087.93,1736.388,5124.953,1871.725,5140.629,2009.397z"/>
			<path id="_x31_80609569" fill="#1F9D5A" stroke="#000000" d="M4856.949,2007.228c6.922,85.972-23.682,191.623-103.232,197.626
				c-16.844,1.25-35.939-2.001-57.369-10.84c-34.939-14.426-67.627-39.442-99.23-66.126c-29.352-24.767-57.619-50.95-85.805-71.296
				c-66.875-48.531-137.42-92.144-212.301-126.832c-9.34-4.336-18.764-8.505-28.27-12.508l-417.266-238.486l-240.568-367.069
				C4038.096,1077.715,4820.094,1549.185,4856.949,2007.228z"/>
			<path id="_x31_80609585" fill="#2FA850" stroke="#000000" d="M3338.15,892.595l114.572,174.694
				c-118.325,85.722-166.272,228.479-188.287,377.158l-144.759-57.537l-11.342-1.668c19.431-132.418,50.533-263.001,124.58-375.906
				C3262.769,963.807,3298.292,925.116,3338.15,892.595z"/>
			<path id="_x31_80609584" fill="#2FA850" stroke="#000000" d="M3452.723,1067.292l160.186,244.406
				c-15.26,8.422-30.104,17.678-44.361,27.936c-43.695,31.353-64.541,114.156-76.467,195.375l-227.645-90.559
				C3286.449,1295.77,3334.397,1153.012,3452.723,1067.292z"/>
			<path id="_x31_80609583" fill="#2FA850" stroke="#000000" d="M3612.908,1311.697l240.568,367.069l-361.396-143.76
				c11.926-81.219,32.771-164.021,76.467-195.375C3582.805,1329.375,3597.648,1320.119,3612.908,1311.697z"/>
			<path id="_x31_80609576" fill="#248A5E" stroke="#000000" d="M4428.592,2356.951l168.439,530.923l-2.586,2.752
				c-12.924-12.008-24.932-22.432-35.771-30.103c-114.322-80.969-130.666-179.95-202.879-292.689
				c-29.27-45.695-111.404-92.977-166.939-83.721c-41.191,6.838-65.291,50.783-96.229,73.547
				c-30.186,22.099-50.781,24.85-79.883,24.267c-7.338-0.167-15.178-0.5-23.934-0.834c-18.762-0.667-37.439-0.667-56.201-0.25
				l-36.939-420.769c68.961-22.516,139.172-37.274,219.305-16.511c82.053,21.347,159.52,67.376,224.645,120.911
				C4370.139,2289.575,4399.406,2321.678,4428.592,2356.951z"/>
			<path id="_x31_80609575" fill="#248A5E" stroke="#000000" d="M4270.742,1917.252c9.506,4.003,18.93,8.172,28.27,12.508
				l-3.586,7.505l133.168,419.686c-29.188-35.272-58.455-67.376-88.975-92.476c-65.125-53.535-142.592-99.564-224.643-120.911
				c-80.135-20.764-150.346-6.004-219.307,16.51l-26.768-305.194c116.074-14.76,232.148-0.5,350.389,42.026
				C4236.721,1903.16,4253.814,1909.915,4270.742,1917.252z"/>
			<path id="_x31_80609574" fill="#248A5E" stroke="#000000" d="M3853.477,1678.766l417.266,238.486
				c-16.928-7.339-34.021-14.093-51.451-20.347c-118.24-42.526-234.314-56.787-350.389-42.026L3853.477,1678.766z"/>
			<path id="_x31_80609582" fill="#248A5E" stroke="#000000" d="M3272.356,2049.836l-176.279,112.57l-0.834,0.167
				c-26.517-164.438-37.105-359.563-10.339-586.625c7.421-62.79,14.093-126.915,23.433-190.706l11.341,1.668l144.759,57.537
				c-12.592,85.054-16.761,172.11-20.764,251.578C3238.085,1804.512,3231.497,1939.849,3272.356,2049.836z"/>
			<path id="_x31_80609581" fill="#248A5E" stroke="#000000" d="M3524.684,1888.733l-252.327,161.104
				c-40.858-109.987-34.271-245.324-28.685-353.811c4.003-79.468,8.172-166.523,20.764-251.578l227.645,90.559
				c-9.172,62.623-13.092,124.329-17.846,160.937C3463.229,1779.413,3480.072,1851.125,3524.684,1888.733z"/>
			<path id="_x31_80609580" fill="#248A5E" stroke="#000000" d="M3853.477,1678.766l-328.793,209.967
				c-44.611-37.607-61.455-109.32-50.449-192.79c4.754-36.606,8.674-98.313,17.846-160.937L3853.477,1678.766z"/>
			<path id="_x31_80609579" fill="#248A5E" stroke="#000000" d="M3895.67,2160.074l36.939,420.77
				c-99.98,2.418-200.379,18.178-300.691,18.595c-119.576,0.583-245.906-14.176-354.393-68.377
				c-108.235-54.035-148.512-190.372-170.357-301.944c-4.253-21.597-8.255-43.778-11.925-66.542l0.834-0.167l176.279-112.571
				c14.342,38.608,34.521,74.132,62.706,104.233c80.301,85.888,212.801,80.135,323.039,72.13
				C3743.656,2219.945,3818.871,2185.172,3895.67,2160.074z"/>
			<path id="_x31_80609578" fill="#248A5E" stroke="#000000" d="M3868.902,1854.879l26.768,305.194
				c-76.799,25.1-152.014,59.871-237.568,66.125c-110.236,8.005-242.738,13.759-323.038-72.13
				c-28.186-30.103-48.364-65.625-62.706-104.232l252.326-161.104c36.939,31.188,93.143,38.942,168.523,10.424
				C3751.912,1876.976,3810.449,1862.217,3868.902,1854.879z"/>
			<path id="_x31_80609577" fill="#248A5E" stroke="#000000" d="M3853.477,1678.766l15.426,176.113
				c-58.453,7.338-116.99,22.097-175.695,44.277c-75.381,28.519-131.584,20.764-168.523-10.424L3853.477,1678.766z"/>
			<path id="_x31_80609573" fill="#219866" stroke="#000000" d="M5075.92,2543.572l143.508,149.597
				c-76.381,143.259-180.949,287.184-291.354,368.235c-40.275,29.52-87.807,23.682-130.498,2.835
				c-42.945-20.93-80.385-56.286-114.074-86.389c-0.584-0.5-1.166-1.001-1.668-1.501c-17.176-16.344-33.771-33.021-49.447-48.614
				c-13.342-13.342-26.016-25.935-37.939-37.106l2.584-2.752l-168.439-530.924c129.75,156.935,256.58,376.075,477.805,314.035
				C4984.029,2649.139,5038.396,2603.193,5075.92,2543.572z"/>
			<path id="_x31_80609572" fill="#219866" stroke="#000000" d="M4754.051,2208.273l321.871,335.299
				c-37.525,59.622-91.895,105.567-169.525,127.414c-221.225,62.04-348.055-157.101-477.805-314.034l-133.168-419.687l3.586-7.505
				c74.881,34.688,145.426,78.3,212.303,126.832c28.184,20.346,56.453,46.529,85.805,71.296
				c31.604,26.684,64.291,51.7,99.229,66.126c21.432,8.839,40.525,12.091,57.371,10.84L4754.051,2208.273z"/>
			<path id="_x31_80609554" fill="#9AD2BD" stroke="#000000" d="M4870.982,3376.467c-10.105-94.772-38.584-185.456-93.762-268.173
				c-43.268-64.873-87.725-122.006-142.158-177.289l-40.617-40.379c-12.924-12.008-24.932-22.432-35.771-30.103
				c-114.322-80.969-130.666-179.95-202.879-292.689c-29.27-45.695-111.404-92.977-166.939-83.721
				c-41.191,6.838-65.291,50.783-96.229,73.547c-0.77,0.563-1.529,1.106-2.285,1.646c0.318-0.163,0.637-0.324,0.953-0.476
				c-31.791,28.5-56.645,65.373-91.531,88.76c-165.467,110.944-403.373,25.26-593.197,91.333
				c-250.306,87.141-308.156,394.317-326.078,621.946c-16.897,214.606-14.935,425.662-13.696,641.44
				c0.723,126.055,26.889,258.354,69.51,377.533c41.668,116.529,79.177,203.939,193.172,261.674
				c110.03,55.719,226.343,89.412,350.247,91.467c317.684,5.26,606.199-107.621,833.482-329.377
				c69.404-67.721,119.102-144.656,171.439-225.5c78.271-120.906,141.879-284.494,161.602-428.155
				c8.289-60.425,16.619-120.689,23.104-181.187C4876.324,3503.622,4877.676,3439.152,4870.982,3376.467z M4000.857,3576.182
				c-5.889,20.438-17.189,38.688-28.346,56.596c-18.682,29.979-30.211,71.019-58.086,94.152
				c-11.018,9.145-35.969,36.814-51.791,27.716c-13.451-7.745-13.273-28.742-18.762-41.625
				c-7.965-18.713-18.363-35.883-25.105-55.264c-3.957-11.38-15.08-27.361-23.533-43.619c-8.551-16.449-14.373-33.163-7.289-45.671
				c11.572-20.452,51.564-19.121,71.539-21.657c25.732-3.249,51.123-11.177,76.994-13.086
				C3973.57,3530.991,4015.801,3524.306,4000.857,3576.182z"/>
			<path id="_x31_80609555" fill="#9AD2BD" stroke="#000000" d="M3885.713,4309.695c13.736,69.824,44.273,147.129,19.381,218.137
				c-13.975,39.865-55.064,68.859-63.613,111.104c-12.322,60.83,26.352,78.379,71.113,77.738
				c-102.213,16.824-139.07,20.51-232.879,16.324c-120.268-5.367-239.525-35.402-351.062-91.893
				c-113.998-57.736-150.097-147.58-191.766-264.105c-42.622-119.188-67.719-251.492-69.511-377.54
				c-3.127-221.545-6.312-426.836,13.697-641.442c21.196-227.351,77.066-532.567,327.363-619.708
				c51.313-17.852,106.457-29.104,160.301-26.434c57.393,2.834,123.066,1.563,180.492-1.205
				c55.691-2.68,127.166-10.424,184.859-26.791c-27.516,19.707-54.885,55.211-79.664,79.698
				c-95.496,94.348-161.326,209.248-181.334,343.294c-7.043,47.265-8.916,97.431-6.197,145.153
				c4.244,74.38,21.572,147.034,44.211,217.791c17.621,55.072,52.555,94.885,83.842,141.898
				c9.445,14.207,18.119,30.944,24.584,46.791c8.119,19.938,18.314,38.994,26.189,59.043c24.363,62.057,10.594,126.195,4.82,190.73
				c-7.469,83.452-5.406,169.118,21.033,248.897c7.436,22.414,4.609,48.797,5.65,72.494L3885.713,4309.695z"/>
			<path id="_x31_80609556" fill="#82C7AE" stroke="#000000" d="M3679.715,4732.998c-123.908-2.057-240.219-35.754-350.247-91.471
				c-113.997-57.734-151.506-145.141-193.174-261.674c-42.621-119.186-68.077-251.479-69.502-377.536
				c-2.533-221.887-8.9-438.578,13.688-641.441c20.61-185.075,51.277-411.927,195.828-546.118
				c32.027-29.73,109.591-83.607,155.624-80.31c-194.402,208.057-252.072,529.881-236.34,808.299
				c2.842,50.26,16.222,98.532,21.155,148.459c7.41,74.804-6.181,148.476-8.812,223.056c-3.19,89.938,28.681,168.381,62.027,250.447
				c51.962,127.914,97.727,263.869,169.613,382.293c52.711,86.822,116.066,133.215,215.941,146.668
				c36.035,4.857,76.889,5.129,102.256,35.162c-0.18,0.117-0.172-0.627,0-0.428c-0.539,1.902-1.621,3.445-3.314,4.643
				C3731.252,4736.971,3703.256,4733.383,3679.715,4732.998z"/>
			<path id="_x31_80609560" fill="#82C7AE" stroke="#000000" d="M3711.105,3469.815c17.623,55.072,52.557,94.885,83.842,141.898
				c9.447,14.207,18.119,30.944,24.586,46.791c8.117,19.938,18.313,38.994,26.188,59.043c24.363,62.057,10.596,126.195,4.82,190.73
				c-7.467,83.452-5.406,169.118,21.033,248.897c7.436,22.414,4.609,48.797,5.652,72.494l8.484,80.023
				c12.451,63.236,43.705,137.633,23.926,201.027c-33.73,108.008-131.236,77.414-141.154,72.459
				c-41.939-20.938-58.299-70.908-78.795-114.014c-95.17-200.295-151.049-429.683-186.992-647.668
				c-18.898-114.604-58.412-225.254-75.309-340.685c-15.18-103.713-5.236-210.886,13.068-313.539
				c21.133-118.451,61.719-272.041,156.83-352.398c42.469-35.879,126.236-78.085,182.646-51.57
				c62.775,29.527-22.525,117.115-40.717,149.885c-33.314,59.998-55.984,125.793-66.123,193.679
				c-7.043,47.264-8.916,97.43-6.197,145.153C3671.139,3326.404,3688.467,3399.059,3711.105,3469.815z"/>
			<path id="_x31_80609559" fill="#9AD2BD" stroke="#000000" d="M3689.689,4469.168c-95.17-200.295-151.049-429.682-186.992-647.667
				c-18.9-114.604-58.412-225.254-75.309-340.686c-15.18-103.712-5.236-210.885,13.068-313.539
				c21.133-118.451,61.719-272.041,156.83-352.398c6.521-5.51,14.021-11.168,22.24-16.705c-0.33-1.089-0.652-2.172-0.957-3.248
				c-10.041-2.408-20.104-1.896-29.186,1.377c-7.727,18.832-27.186,32.84-41.381,47.438
				c-52.166,53.708-70.35,101.023-89.227,169.855c-19.34,70.508-27.313,132.367-48.646,208.345
				c-17.996,64.069-23.885,133.854-15.283,205.205c11.041,91.75,45.756,181.854,41.863,273.694
				c-4.486,106.528,39.764,187.205,60.699,286.771c22.947,109.135,50.463,217.66,89.168,322.379
				c23.844,64.498,51.074,127.9,74.779,192.316c9.951,27.027,14.705,38.764,35.105,60.84c12.488,13.514,31.834,29.752,41.834,48.184
				c21.191,3.344,27.982-13.141,32.477-27.17c-0.988-0.379-1.77-0.715-2.293-0.979
				C3726.547,4562.246,3710.186,4512.275,3689.689,4469.168z"/>
			<path id="_x31_80609558" fill="#82C7AE" stroke="#000000" d="M3394.848,3427.145c-8.6-71.351-2.711-141.135,15.285-205.205
				c21.334-75.978,29.307-137.837,48.646-208.345c18.875-68.831,37.061-116.147,89.227-169.855
				c15.104-15.533,36.172-30.396,42.719-51.115c-85.527,9.523-125.814,105.134-150.006,176
				c-32.135,94.092-63.663,185.111-76.701,284.004c-7.996,60.729-18.135,129.885-11.123,191.049
				c5.285,46.09,28.939,85.976,30.422,132.384c2.068,64.91,9.771,132.377,18.363,196.236c8.42,62.516,16.221,119.331,36.742,177.86
				c17.932,51.135,39.584,102.321,55.17,154.96c47.369,160.08,62.035,319.939,156.309,461.209
				c12.721,19.055,34.137,24.959,51.051,40.332c1.141,1.031,44.854,34.521,43.574,23.23c-2.979-26.201-31.531-48.855-48.061-66.742
				c-20.4-22.076-25.154-33.813-35.105-60.838c-23.705-64.418-50.936-127.82-74.779-192.318
				c-38.705-104.719-66.221-213.244-89.168-322.378c-20.938-99.566-65.188-180.242-60.699-286.771
				C3440.604,3608.999,3405.891,3518.895,3394.848,3427.145z"/>
			<path id="_x31_80609557" fill="#9AD2BD" stroke="#000000" d="M3700.951,4606.658c-16.914-15.373-38.33-21.277-51.051-40.332
				c-94.271-141.27-108.938-301.129-156.309-461.209c-15.586-52.639-37.238-103.825-55.17-154.96
				c-20.521-58.529-28.322-115.346-36.742-177.86c-8.592-63.859-16.295-131.326-18.363-196.236
				c-1.48-46.408-25.137-86.294-30.422-132.384c-7.012-61.164,3.127-130.32,11.123-191.049
				c13.038-98.893,44.568-189.912,76.701-284.004c23.027-67.457,60.641-157.33,137.975-174.035
				c5.201-11.268,6.391-23.307-0.025-33.442c-14.994-23.688-80.977-17.752-102.596-15.518c-23.139,2.391-46.164,7.169-67.516,15.194
				c-175.645,208.216-228.048,515.009-212.965,781.924c2.842,50.26,16.222,98.532,21.156,148.459
				c7.409,74.804-6.181,148.476-8.813,223.056c-3.19,89.938,28.681,168.381,62.027,250.447
				c51.962,127.914,97.728,263.869,169.615,382.293c52.711,86.822,116.064,133.215,215.939,146.668
				c21.201,2.857,44.066,4.135,64.467,10.813c9.25-3.758,17.686-9.117,24.375-16.898c23.941-27.842,15.311-40.35-1.256-55.418
				C3735.662,4633.406,3701.951,4607.563,3700.951,4606.658z"/>
			<path id="_x31_80609561" fill="#54BF94" stroke="#000000" d="M3910.135,4312.549c13.736,69.832,44.273,147.137,19.389,218.146
				c-16.564,47.219-122.426,141.207-29.594,172.16c41.367,13.795,105.365-5.818,147.953-20.586
				c107.58-37.289,214.158-83.082,307.961-148.018c55.732-38.582,108.826-83.289,157.352-130.637
				c69.404-67.715,119.111-144.652,171.439-225.498c78.271-120.908,141.879-284.492,161.602-428.155
				c8.291-60.427,16.629-120.69,23.104-181.19c6.979-65.143,8.338-129.611,1.637-192.304
				c-10.105-94.771-38.582-185.448-93.762-268.168c-44.047-66.05-93.5-129.295-149.289-185.512
				c-58.898-61.398-120.887-88.74-208.824-103.016c-74.006-12.027-181.275-28.778-255.705-40.305
				c-48.818-7.569-186.334-29.382-216.813-31.963c-79.689-6.746-98.32,63.31-143.613,117.809
				c-88.5,106.493-119.381,253.841-111.652,389.568c3.551,62.278,15.912,124.478,34.057,184.541
				c16.195,53.651,29.494,108.533,62.287,155.324c-21.182-30.224,26.262-42.378,46.344-45.74
				c-26.197-26.205-1.793-39.73,9.836-47.479c17.623-11.769,38.574-19.373,59.355-24.41c44.047-10.643,90.348-10.749,133.598-24.841
				c34.818-11.352,69.51-25.887,106.18-30.189c25.121-2.94,59.453-1.734,63.084,29.804c5.498,47.769-50.404,93.993-74.33,131.09
				c-24.121,37.438-52.883,71.478-74.396,109.877c-32.721,58.396-61.434,112.779-103.418,164.97
				c-19.756,24.568-39.73,55.676-43.6,87.438c-5.031,41.079,32.094,271.012-26.205,271.006L3910.135,4312.549z"/>
			<path id="_x31_80609566" fill="#54BF94" stroke="#000000" d="M4504.76,3303.742c13.811-7.138,27.652-14.4,40.813-22.561
				l0.92-0.936c-21.666-60.124-61.186-122.287-118.564-144.354c-82.584-31.757-180.912-64.561-276.943-83.201l-0.104,0.136
				c-37.646,59.523-70.74,121.086-70.781,194.033c-0.016,34.874,2.762,71.827-4.258,106.188
				c-6.941,34.01-33.055,63.133-34.688,97.791c33.359-11.109,66.682-24.627,101.82-28.752c22.527-2.637,52.447-1.922,61.006,20.996
				l1.104-0.69C4305.561,3395.337,4406.977,3354.283,4504.76,3303.742z"/>
			<path id="_x31_80609562" fill="#54BF94" stroke="#000000" d="M3941.941,2869.57c-25.568,29.688-5.885,47.453,21.318,50.271
				c37.613,3.888,87.824,10.817,125.348,21.962c53.975,16.029,104.967,26.563,159.559,40.568
				c40.285,10.338,299.441,132.052,290.094,41.597c-4.029-39.018-65.176-57.482-100.227-67.859
				c-0.002-0.001-0.006-0.001-0.008-0.002c-34.828-9.265-69.4-19.36-103.971-29.544c-35.814-9.704-71.705-19.122-107.525-28.785
				c-29.496-7.953-58.93-16.858-88.625-24.489c-30.629-6.814-61.607-12.664-93.113-17.045c-0.307-0.042-0.613-0.077-0.918-0.118
				c-3.553-0.296-7.111-0.554-10.68-0.749c-6.084-0.334-13.553-1.072-21.609-1.671c-11.223-0.333-22.623-0.303-34.014-0.3
				c-13.021,1.241-24.85,4.688-32.33,12.528C3944.063,2867.167,3942.971,2868.376,3941.941,2869.57"/>
			<path id="_x31_80609563" fill="#54BF94" stroke="#000000" d="M4191.551,4439.791c-29.566,13.139-68.498-1.633-96.695-12.479
				c-52.084-20.029-141.326-29.605-172.514-82.68l-6.891-7.635c-1.92-8.236-3.73-16.395-5.316-24.449l-26.025-96.277
				c28.811,0.002,34.314-56.152,33.121-117.92l1.563,1.406c22.58,22.857,96.715,66.053,166.703,116.42
				c94.955,68.334,182.283,149.867,122.895,211.734C4203.285,4433.23,4197.613,4437.096,4191.551,4439.791z"/>
			<path id="_x31_80609565" fill="#54BF94" stroke="#000000" d="M4149.854,3950.934c30.252,36.452,65.92,73.184,102.475,102.953
				l1.283,0.781c12.703-14.146,24.963-28.668,36.607-43.687c90.486-116.713,158.092-256.947,210.24-394.264
				c33.242-87.515,80.162-194.635,59.553-289.658c-3.238-14.929-7.746-30.799-13.52-46.813l-0.92,0.936
				c-13.16,8.158-27.002,15.423-40.813,22.561c-97.783,50.541-199.199,91.595-299.68,138.65l-1.102,0.689
				c0.984,2.638,1.703,5.553,2.078,8.809c5.498,47.77-50.406,93.993-74.33,131.091c-24.121,37.438-52.883,71.478-74.396,109.877
				c-21.313,38.037-40.93,74.371-63.617,109.507l1.508,1.363C4047.648,3852.815,4103.844,3895.499,4149.854,3950.934z"/>
			<path id="_x31_80609567" fill="#54BF94" stroke="#000000" d="M4080.1,3246.861c0.041-72.946,33.135-134.51,70.779-194.032
				l0.105-0.137c-48.648-9.443-96.705-15.257-141.83-15.449c-66.229-0.289-132.139,30.744-186.26,67.567
				c-36.303,24.69-121.521,84.816-132.033,130.504l-0.355,0.981c0.189,6.216,0.459,12.414,0.813,18.587
				c3.549,62.278,15.912,124.478,34.055,184.542c16.197,53.65,29.494,108.533,62.287,155.324
				c-21.18-30.225,26.262-42.379,46.344-45.741c-26.197-26.205-1.793-39.73,9.836-47.479c17.623-11.768,38.574-19.373,59.355-24.41
				c44.047-10.643,90.348-10.748,133.598-24.841c1.453-0.474,2.906-0.955,4.357-1.438c1.635-34.659,27.748-63.782,34.688-97.791
				C4082.859,3318.688,4080.082,3281.735,4080.1,3246.861z"/>
			<path id="_x31_80609564" fill="#54BF94" stroke="#000000" d="M4085.494,4216.18l2.848-2.465
				c55.895-51.557,114.242-102.223,165.27-159.045l-1.283-0.781c-36.555-29.771-72.223-66.501-102.475-102.954
				c-46.01-55.436-102.205-98.118-154.631-147.205l-1.51-1.363c-12.143,18.806-25.164,37.268-39.801,55.463
				c-19.756,24.568-39.73,55.675-43.6,87.438c-2.545,20.778,5.693,89.871,6.916,153.087l1.563,1.406
				C3941.371,4122.617,4015.504,4165.813,4085.494,4216.18z"/>
			<path id="_x31_80609568" fill="#54BF94" stroke="#000000" d="M4718.713,3286.91c-6.154-78.184-27.238-164.474-85.389-220.914
				c-5.148-4.997-10.277-9.784-15.404-14.395c-0.41-0.37-0.82-0.751-1.232-1.118c-8.387-7.494-16.77-14.471-25.215-21.01
				c-0.85-0.657-1.697-1.326-2.547-1.976c-0.203-0.153-0.408-0.304-0.611-0.458c-1.66-1.26-3.32-2.508-4.986-3.732
				c-1.021-0.753-2.051-1.484-3.076-2.226c-0.852-0.612-1.697-1.235-2.549-1.841c-0.424-0.301-0.852-0.59-1.273-0.888
				c-3.34-2.353-6.695-4.648-10.074-6.872c-0.137-0.09-0.273-0.176-0.412-0.268c-3.672-2.408-7.365-4.749-11.092-7.016
				c-0.506-0.309-1.018-0.604-1.523-0.909c-34.365-20.678-71.365-35.491-115.285-47.18c35.053,10.378,96.188,28.844,100.219,67.856
				c9.35,90.455-249.809-31.258-290.094-41.596c-54.592-14.006-105.584-24.539-159.559-40.569
				c-37.523-11.144-87.734-18.073-125.348-21.962c-27.203-2.818-46.887-20.585-21.318-50.271
				c-40.443-11.853-104.488-9.665-149.205,8.591c-0.008,0.011-0.018,0.021-0.023,0.033c-1.189,1.553-2.367,3.113-3.535,4.683
				c-0.006,0.009-0.012,0.017-0.018,0.023c-25.867,34.792-46.148,73.336-61.438,114.005c-0.025,0.068-0.053,0.138-0.078,0.207
				c-0.662,1.767-1.314,3.538-1.961,5.313c-0.041,0.113-0.082,0.229-0.123,0.342c-0.641,1.765-1.27,3.531-1.891,5.304
				c-0.033,0.096-0.066,0.189-0.102,0.286c-0.631,1.807-1.254,3.615-1.867,5.431c-0.004,0.013-0.008,0.023-0.012,0.037
				c-4.41,13.059-8.326,26.309-11.77,39.696c-0.023,0.089-0.047,0.177-0.068,0.266c-0.447,1.735-0.883,3.475-1.311,5.216
				c-0.064,0.254-0.127,0.509-0.189,0.763c-0.406,1.651-0.803,3.308-1.193,4.965c-0.08,0.337-0.16,0.675-0.238,1.012
				c-0.379,1.615-0.75,3.232-1.115,4.852c-0.084,0.367-0.166,0.735-0.248,1.104c-0.359,1.607-0.713,3.217-1.061,4.828
				c-0.076,0.363-0.154,0.727-0.23,1.09c-0.348,1.633-0.691,3.268-1.025,4.902c-0.061,0.3-0.121,0.6-0.182,0.897
				c-0.346,1.71-0.688,3.423-1.02,5.136c-0.023,0.121-0.047,0.241-0.07,0.362c-1.826,9.449-3.43,18.943-4.82,28.466
				c-0.039,0.267-0.078,0.532-0.117,0.801c-0.229,1.579-0.447,3.158-0.666,4.74c-0.063,0.471-0.129,0.94-0.193,1.412
				c-0.199,1.48-0.393,2.964-0.58,4.445c-0.074,0.569-0.146,1.141-0.219,1.71c-0.18,1.431-0.352,2.861-0.521,4.292
				c-0.072,0.616-0.146,1.232-0.217,1.85c-0.162,1.408-0.32,2.815-0.475,4.226c-0.068,0.634-0.137,1.265-0.203,1.897
				c-0.148,1.402-0.295,2.807-0.434,4.21c-0.064,0.627-0.123,1.254-0.186,1.881c-0.137,1.421-0.271,2.842-0.398,4.263
				c-0.053,0.575-0.102,1.149-0.152,1.725c-0.129,1.477-0.256,2.951-0.377,4.428c-0.035,0.451-0.068,0.9-0.104,1.352
				c-0.568,7.213-1.023,14.427-1.361,21.634c-0.018,0.36-0.037,0.72-0.053,1.079c-0.066,1.447-0.123,2.895-0.18,4.341
				c-0.023,0.614-0.051,1.229-0.072,1.843c-0.049,1.354-0.092,2.706-0.133,4.06c-0.021,0.705-0.043,1.409-0.063,2.114
				c-0.037,1.307-0.064,2.611-0.096,3.918c-0.016,0.748-0.031,1.498-0.045,2.248c-0.025,1.28-0.045,2.562-0.063,3.842
				c-0.01,0.767-0.018,1.531-0.025,2.299c-0.012,1.277-0.021,2.554-0.027,3.83c-0.002,0.755-0.004,1.51-0.004,2.265
				c-0.002,1.291-0.002,2.582,0.004,3.872c0.004,0.729,0.01,1.456,0.018,2.186c0.01,1.313,0.02,2.627,0.037,3.938
				c0.01,0.677,0.021,1.354,0.031,2.028c0.023,1.368,0.045,2.735,0.074,4.102c0.012,0.525,0.027,1.051,0.041,1.575
				c0.035,1.509,0.072,3.015,0.119,4.521l0.354-0.981c10.514-45.688,95.73-105.813,132.033-130.504
				c54.119-36.823,120.031-67.856,186.26-67.567c45.125,0.192,93.184,6.007,141.83,15.449
				c96.031,18.643,194.357,51.445,276.943,83.201c57.379,22.066,96.896,84.229,118.564,144.354
				c5.771,16.016,10.279,31.886,13.518,46.813c20.609,95.022-26.311,202.144-59.551,289.658
				c-52.148,137.314-119.754,277.55-210.242,394.263c-11.645,15.02-23.902,29.542-36.605,43.687
				c-51.029,56.824-109.377,107.49-165.271,159.047l-2.846,2.463c94.955,68.334,182.283,149.867,122.893,211.736
				c-5.104,5.314-10.773,9.182-16.836,11.875c-29.566,13.139-68.498-1.633-96.695-12.479
				c-52.084-20.027-141.326-29.604-172.514-82.678l-6.891-7.637c14.73,63.141,36.086,130.881,14.072,193.695
				c-16.563,47.219-122.426,141.209-29.594,172.16c41.369,13.795,105.365-5.818,147.955-20.586
				c47.373-16.42,94.549-34.492,140.527-55.117l-8.807-20.551c-26.053,0.053-47.197-10.592-58.955-37.979
				c-20.309-47.313,50.732-80.59,80.529-101.439c11.01-7.699,21.764-15.648,32.291-23.816c0.057-0.043,0.109-0.086,0.166-0.129
				c11.66-9.049,23.027-18.381,34.125-27.973c0.236-0.207,0.479-0.41,0.717-0.615c2.391-2.072,4.762-4.16,7.127-6.256
				c0.561-0.496,1.125-0.992,1.686-1.49c2.223-1.98,4.432-3.975,6.631-5.977c0.682-0.617,1.361-1.234,2.037-1.854
				c2.141-1.957,4.268-3.926,6.385-5.904c0.707-0.66,1.414-1.32,2.119-1.982c2.105-1.98,4.201-3.965,6.285-5.963
				c0.676-0.646,1.35-1.299,2.023-1.949c2.115-2.039,4.225-4.086,6.318-6.146c0.563-0.553,1.121-1.111,1.686-1.668
				c2.203-2.18,4.402-4.363,6.584-6.564c0.223-0.227,0.441-0.453,0.666-0.678c9.826-9.938,19.42-20.096,28.797-30.455
				c0.561-0.621,1.127-1.236,1.686-1.859c1.826-2.025,3.637-4.066,5.445-6.111c0.799-0.902,1.602-1.803,2.396-2.709
				c1.691-1.924,3.371-3.857,5.049-5.795c0.896-1.039,1.795-2.076,2.689-3.117c1.605-1.873,3.207-3.754,4.801-5.639
				c0.947-1.121,1.893-2.244,2.836-3.369c1.549-1.846,3.092-3.695,4.627-5.553c0.971-1.176,1.938-2.355,2.902-3.535
				c1.506-1.836,3.008-3.674,4.502-5.523c0.977-1.207,1.945-2.422,2.916-3.635c1.477-1.84,2.951-3.68,4.414-5.531
				c0.967-1.223,1.922-2.453,2.885-3.68c1.455-1.859,2.916-3.715,4.361-5.586c0.844-1.092,1.68-2.195,2.52-3.291
				c2.723-3.545,5.422-7.109,8.104-10.689c1.096-1.465,2.199-2.926,3.289-4.396c1.188-1.602,2.359-3.211,3.539-4.818
				c1.18-1.605,2.359-3.211,3.531-4.826c1.143-1.57,2.273-3.152,3.406-4.73c1.197-1.668,2.396-3.334,3.586-5.008
				c1.104-1.553,2.199-3.109,3.295-4.668c1.211-1.723,2.42-3.445,3.625-5.174c1.064-1.529,2.123-3.063,3.184-4.598
				c1.227-1.777,2.449-3.563,3.668-5.35c1.023-1.502,2.047-3.004,3.064-4.512c1.252-1.854,2.5-3.715,3.744-5.576
				c0.969-1.449,1.939-2.898,2.902-4.354c1.309-1.975,2.607-3.957,3.908-5.939c0.889-1.357,1.781-2.713,2.668-4.076
				c1.438-2.215,2.867-4.438,4.297-6.664c0.73-1.141,1.469-2.275,2.195-3.42c2.152-3.373,4.293-6.758,6.418-10.152
				c22.721-36.287,44.299-73.371,64.08-111.334c91.514-175.593,168.336-351.047,181.365-551.948
				C4719.602,3435.357,4724.65,3362.223,4718.713,3286.91z"/>
			<path id="_x31_80609587" fill="#CCCCCC" stroke="#000000" d="M3896.145,2846.78c45.545,11.674,100.852,2.817,148.645,9.463
				c136.393,18.965,263.02,65.228,393.236,99.864c79.24,21.087,135.975,52.308,195.299,109.889
				c58.148,56.44,79.232,142.73,85.389,220.914c5.938,75.313,0.889,148.447-3.99,223.684
				c-13.027,200.901-89.852,376.354-181.365,551.947c-19.779,37.963-41.357,75.047-64.078,111.334
				c-71.465,114.186-157.369,215.869-268.1,293.307c-29.797,20.852-100.838,54.129-80.529,101.439
				c48.51,112.996,256.822-58.98,310.289-91.668l82.256-73.338c69.404-67.715,119.111-144.65,171.439-225.498
				c78.271-120.906,141.879-284.49,161.602-428.153c8.289-60.428,16.629-120.691,23.104-181.191
				c6.979-65.142,8.338-129.611,1.637-192.303c-10.105-94.771-38.582-185.449-93.762-268.168
				c-58.076-87.068-127.945-185.088-220.086-238.931c-55.326-32.347-117.891-46.449-180.877-56.115
				c-64.258-9.861-128.842-17.537-193.012-27.997c-56.01-9.128-111.742-20.138-168.207-26.2
				c-47.719-5.122-94.127-20.811-133.629,13.375C3854.346,2795.841,3856.885,2836.71,3896.145,2846.78z"/>
			<path id="_x31_80609588" fill="#CCCCCC" stroke="#000000" d="M4003.912,3558.255c-1.133-8.381-1.369-20.103-11.986-23.132
				c-23.209-6.629-77.955,0.55-108.695,6.968c-13.307,2.775-49.643,13.92-59.25-2.154c-7.615-12.758,0.334-22.973,10.039-31.046
				c54.299-45.248,139.063-35.852,202.775-56.612c34.818-11.352,69.51-25.887,106.18-30.189c25.121-2.94,59.453-1.734,63.084,29.804
				c5.498,47.769-50.404,93.993-74.33,131.09c-24.121,37.438-52.883,71.478-74.396,109.877
				c-32.721,58.396-61.434,112.779-103.418,164.97c-19.756,24.568-39.73,55.676-43.6,87.438
				c-5.031,41.079,32.102,271.012-26.205,271.006c-7.035,0-8.184-37.137-8.574-41.457c-1.709-18.924-9.959-33.477-14.365-51.705
				c-11.465-47.463-14.723-96.687-13.225-145.372c0.773-24.638,0.555-49.674,3.682-74.148c3.266-25.564,5.172-51.303,5.627-77.074
				c0.406-23.938,4.25-48.88,3.371-72.603c27.979-0.68,53.371-22.048,69.232-44.438c16.84-23.754,30.357-55.302,45.758-80.138
				C3986.574,3611.662,4007.104,3581.988,4003.912,3558.255z"/>
			<path id="_x31_80609586" fill="#AAAAAA" stroke="#000000" d="M3795.232,3614.138c-8.549-16.449-14.371-33.163-7.287-45.671
				c11.57-20.452,51.563-19.121,71.537-21.657c25.732-3.249,51.123-11.177,76.994-13.086c37.094-2.732,79.324-9.418,64.381,42.458
				c-5.889,20.438-17.189,38.688-28.346,56.596c-18.682,29.979-30.211,71.019-58.086,94.152
				c-11.018,9.146-35.969,36.815-51.791,27.716c-13.451-7.745-13.273-28.742-18.762-41.625
				c-7.965-18.713-18.363-35.883-25.105-55.264C3814.809,3646.376,3803.686,3630.396,3795.232,3614.138z"/>
		</g>
	</g>
	<g transform="scale(1.0)">
		<g id="_x31_80609550_1_" transform=" scale(1.0, 1.0)">
			<path id="_x31_80609552_1_" fill="#BFDAE3" stroke="#000000" d="M2721.439,2738.929
				c250.306,87.141,308.155,394.318,326.078,621.946c16.897,214.606,14.934,425.661,13.695,641.44
				c-0.723,126.055-26.888,258.354-69.51,377.533c-41.668,116.531-79.176,203.941-193.171,261.675
				c-110.032,55.718-226.343,89.411-350.249,91.467c-317.684,5.259-606.197-107.622-833.482-329.377
				c-69.403-67.72-119.101-144.655-171.438-225.5c-78.272-120.905-141.88-284.495-161.601-428.155
				c-8.291-60.426-16.621-120.691-23.104-181.188c-6.979-65.146-8.33-129.615-1.636-192.301
				c10.105-94.773,38.582-185.456,93.761-268.174c44.054-66.051,89.332-124.078,145.126-180.299c0,0-35.423,34.739-53.923,52.123
				c-33.11,29.586-69.707,63.738-111.562,84.137c-42.695,20.797-90.213,26.685-130.504-2.883
				c-174.559-128.085-334.369-413.301-391.599-604.333c-33.37-111.386-56.498-232.983-64.666-348.976
				c-23.688-336.238,134.975-697.121,387.485-916.561c128.94-112.05,298.447-173.481,444.733-259.063
				c179.159-104.815,375.735-175.026,583.72-192.396c99.333-8.297,209.819,2.266,308.042,17.619
				c171.731,26.849,329.921,102.975,427.438,251.646c109.729,167.294,125.16,373.498,148.003,566.604
				c30.578,258.498,12.541,475.673-22.24,653.195c-21.862,111.604-62.107,247.941-170.33,301.971
				c-108.526,54.185-234.834,68.955-354.384,68.387c-119.146-0.563-238.434-22.621-356.95-18.338
				c-8.716,0.309-16.604,0.668-23.949,0.813c-14.259,0.293-27.173,0.049-40.821-4.169c-7.004-2.166-13.567-4.577-19.976-8.16
				c-4.331-2.426-11.517-7.801-17.72-10.78c31.789,28.502,56.643,65.373,91.529,88.761
				C2293.703,2758.535,2531.609,2672.851,2721.439,2738.929z"/>
			<path id="_x31_80609553_1_" fill="#B0FFB8" stroke="#000000" d="M743.65,2108.059c8.168,115.992,31.295,237.59,64.666,348.976
				c57.229,191.033,217.039,476.249,391.598,604.333c40.292,29.568,87.809,23.679,130.505,2.883
				c41.854-20.399,78.452-54.551,111.562-84.137c18.5-17.384,53.922-52.123,53.922-52.123
				c-55.793,56.221-101.071,114.248-145.125,180.299c-55.179,82.717-83.656,173.401-93.762,268.174
				c-6.693,62.686-5.343,127.154,1.637,192.301c6.484,60.497,14.814,120.762,23.104,181.187
				c19.721,143.661,83.33,307.251,161.602,428.156c52.336,80.844,102.035,157.78,171.438,225.5
				c227.284,221.755,515.799,334.636,833.481,329.377c123.906-2.055,240.218-35.749,350.25-91.467
				c113.994-57.735,151.502-145.144,193.17-261.675c42.623-119.18,68.787-251.477,69.511-377.533
				c1.239-215.779,3.202-426.834-13.696-641.441c-17.922-227.627-75.771-534.805-326.078-621.945
				c-189.826-66.074-427.73,19.611-593.199-91.333c-34.885-23.388-59.739-60.261-91.529-88.761
				c6.204,2.979,13.389,8.354,17.721,10.78c6.408,3.583,12.972,5.994,19.976,8.16c13.647,4.218,26.562,4.462,40.821,4.169
				c7.345-0.145,15.234-0.504,23.949-0.813c118.516-4.283,237.805,17.775,356.949,18.338
				c119.551,0.569,245.859-14.202,354.385-68.387c108.223-54.029,148.468-190.367,170.33-301.971
				c34.78-177.521,52.817-394.696,22.239-653.195c-22.842-193.105-38.273-399.309-148.003-566.604
				c-97.517-148.671-255.708-224.797-427.438-251.646c-98.223-15.354-208.709-25.916-308.042-17.618
				c-207.984,17.369-404.562,87.58-583.72,192.396c-146.287,85.582-315.793,147.014-444.733,259.063
				C878.629,1410.943,719.965,1771.825,743.65,2108.059z M2191.522,3533.724c25.871,1.909,51.262,9.837,76.994,13.086
				c19.975,2.536,59.967,1.205,71.538,21.657c7.084,12.508,1.262,29.222-7.288,45.671c-8.453,16.258-19.576,32.239-23.534,43.619
				c-6.742,19.381-17.141,36.551-25.105,55.264c-5.488,12.883-5.31,33.88-18.762,41.625c-15.822,9.099-40.772-18.571-51.791-27.716
				c-27.874-23.134-39.404-64.173-58.086-94.152c-11.156-17.908-22.457-36.157-28.346-56.596
				C2112.2,3524.306,2154.431,3530.991,2191.522,3533.724z"/>
			<path id="_x31_80609571_1_" fill="#1F9D5A" stroke="#000000" d="M1575.828,932.458
				c179.196-104.817,375.738-175.029,583.787-192.373c99.313-8.341,209.801,2.25,308.03,17.593
				c119.159,18.679,231.813,61.038,322.205,134.919l-114.572,174.695c-19.096-13.843-40.024-26.185-63.04-36.857
				c-62.708-29.102-149.096-54.951-291.854-68.793c-64.624-6.254-125.997,1.834-185.535,6.254
				c-59.037,4.337-140.673,30.02-197.375,46.947c-137.421,40.942-262.834,111.072-382.577,188.538
				c-108.152,70.045-222.558,138.422-313.199,231.148c-51.366,52.534-99.813,115.157-135.086,179.782
				c-66.542,122.078-103.565,257.415-119.242,395.085c-17.511,154.432-28.351,386.247,64.709,534.175l-143.508,149.597
				c-44.36-83.137-79.217-166.023-100.231-236.151c-33.354-111.321-56.535-232.982-64.707-348.974
				c-23.684-336.214,135-697.112,387.494-916.503C1260.043,1079.468,1429.567,1018.012,1575.828,932.458z"/>
			<path id="_x31_80609570_1_" fill="#1F9D5A" stroke="#000000" d="M1106.613,1614.312c35.273-64.625,83.72-127.248,135.086-179.782
				c90.641-92.727,205.047-161.104,313.199-231.148c119.743-77.466,245.156-147.596,382.577-188.538
				c56.702-16.928,138.338-42.611,197.375-46.947c59.538-4.42,120.911-12.508,185.535-6.254
				c142.758,13.841,229.147,39.69,291.854,68.793c23.015,10.673,43.943,23.015,63.039,36.857l-160.186,244.406
				c-425.188-233.981-1207.186,237.488-1244.042,695.531c-6.921,85.971,23.683,191.622,103.233,197.626l-0.334,3.418
				l-321.871,335.299c-93.061-147.927-82.221-379.743-64.709-534.175C1003.047,1871.726,1040.07,1736.389,1106.613,1614.312z"/>
			<path id="_x31_80609569_1_" fill="#1F9D5A" stroke="#000000" d="M2515.093,1311.697l-240.569,367.069l-417.266,238.486
				c-9.506,4.003-18.93,8.172-28.269,12.508c-74.881,34.688-145.426,78.3-212.302,126.832
				c-28.186,20.346-56.453,46.529-85.805,71.296c-31.604,26.684-64.291,51.7-99.229,66.126c-21.431,8.839-40.526,12.09-57.37,10.84
				c-79.55-6.003-110.154-111.654-103.232-197.626C1307.907,1549.186,2089.905,1077.716,2515.093,1311.697z"/>
			<path id="_x31_80609585_1_" fill="#2FA850" stroke="#000000" d="M2895.086,1009.337
				c74.047,112.905,105.149,243.488,124.58,375.906l-11.342,1.668l-144.759,57.537c-22.015-148.679-69.962-291.437-188.287-377.158
				l114.572-174.694C2829.709,925.116,2865.232,963.808,2895.086,1009.337z"/>
			<path id="_x31_80609584_1_" fill="#2FA850" stroke="#000000" d="M2863.565,1444.45l-227.646,90.559
				c-11.925-81.219-32.771-164.022-76.466-195.375c-14.259-10.258-29.102-19.514-44.362-27.936l160.187-244.406
				C2793.604,1153.013,2841.552,1295.771,2863.565,1444.45z"/>
			<path id="_x31_80609583_1_" fill="#2FA850" stroke="#000000" d="M2559.454,1339.632c43.695,31.354,64.541,114.156,76.466,195.375
				l-361.396,143.76l240.569-367.069C2530.353,1320.119,2545.195,1329.376,2559.454,1339.632z"/>
			<path id="_x31_80609576_1_" fill="#248A5E" stroke="#000000" d="M1788.382,2264.475
				c65.124-53.535,142.591-99.564,224.644-120.911c80.133-20.764,150.345-6.005,219.306,16.511l-36.939,420.769
				c-18.762-0.417-37.44-0.417-56.202,0.25c-8.756,0.334-16.595,0.667-23.933,0.834c-29.102,0.583-49.698-2.168-79.884-24.267
				c-30.938-22.764-55.036-66.709-96.229-73.547c-55.535-9.256-137.67,38.025-166.939,83.721
				c-72.213,112.739-88.556,211.72-202.879,292.689c-10.839,7.671-22.848,18.095-35.771,30.103l-2.586-2.752l168.439-530.923
				C1728.594,2321.678,1757.862,2289.575,1788.382,2264.475z"/>
			<path id="_x31_80609575_1_" fill="#248A5E" stroke="#000000" d="M1908.709,1896.906c118.24-42.526,234.314-56.786,350.389-42.026
				l-26.768,305.194c-68.961-22.514-139.171-37.273-219.306-16.51c-82.052,21.347-159.519,67.376-224.644,120.911
				c-30.52,25.1-59.787,57.203-88.974,92.476l133.168-419.685l-3.586-7.505c9.339-4.336,18.763-8.505,28.269-12.508
				C1874.186,1909.915,1891.28,1903.16,1908.709,1896.906z"/>
			<path id="_x31_80609574_1_" fill="#248A5E" stroke="#000000" d="M2259.098,1854.88c-116.074-14.761-232.148-0.5-350.389,42.026
				c-17.429,6.254-34.522,13.008-51.451,20.347l417.266-238.486L2259.098,1854.88z"/>
			<path id="_x31_80609582_1_" fill="#248A5E" stroke="#000000" d="M2884.328,1696.026c-4.003-79.468-8.172-166.524-20.764-251.578
				l144.759-57.537l11.341-1.668c9.34,63.791,16.012,127.916,23.433,190.706c26.767,227.063,16.178,422.188-10.339,586.625
				l-0.834-0.167l-176.279-112.57C2896.504,1939.85,2889.916,1804.513,2884.328,1696.026z"/>
			<path id="_x31_80609581_1_" fill="#248A5E" stroke="#000000" d="M2653.766,1695.943c-4.753-36.607-8.673-98.313-17.846-160.937
				l227.646-90.559c12.592,85.055,16.761,172.11,20.764,251.578c5.586,108.486,12.174,243.823-28.685,353.81l-252.327-161.103
				C2647.929,1851.126,2664.772,1779.413,2653.766,1695.943z"/>
			<path id="_x31_80609580_1_" fill="#248A5E" stroke="#000000" d="M2635.92,1535.007c9.172,62.624,13.093,124.33,17.846,160.937
				c11.007,83.47-5.837,155.183-50.448,192.79l-328.794-209.967L2635.92,1535.007z"/>
			<path id="_x31_80609579_1_" fill="#248A5E" stroke="#000000" d="M2469.899,2226.2c110.237,8.005,242.737,13.758,323.039-72.13
				c28.185-30.102,48.364-65.625,62.706-104.233l176.279,112.571l0.834,0.167c-3.67,22.764-7.672,44.945-11.925,66.542
				c-21.846,111.572-62.122,247.909-170.357,301.944c-108.486,54.201-234.817,68.96-354.394,68.377
				c-100.313-0.417-200.711-16.177-300.69-18.595l36.938-420.77C2309.129,2185.172,2384.345,2219.945,2469.899,2226.2z"/>
			<path id="_x31_80609578_1_" fill="#248A5E" stroke="#000000" d="M2434.793,1899.157c75.381,28.519,131.584,20.764,168.523-10.424
				l252.327,161.103c-14.342,38.607-34.521,74.13-62.706,104.232c-80.301,85.889-212.802,80.135-323.039,72.13
				c-85.555-6.254-160.77-41.025-237.568-66.125l26.768-305.194C2317.552,1862.218,2376.088,1876.977,2434.793,1899.157z"/>
			<path id="_x31_80609577_1_" fill="#248A5E" stroke="#000000" d="M2603.316,1888.733c-36.939,31.188-93.142,38.942-168.523,10.424
				c-58.705-22.181-117.241-36.939-175.695-44.277l15.426-176.113L2603.316,1888.733z"/>
			<path id="_x31_80609573_1_" fill="#219866" stroke="#000000" d="M1221.604,2670.987
				c221.225,62.04,348.055-157.101,477.805-314.035l-168.439,530.924l2.585,2.752c-11.924,11.172-24.599,23.765-37.94,37.106
				c-15.676,15.593-32.271,32.271-49.447,48.614c-0.501,0.5-1.084,1.001-1.668,1.501c-33.688,30.103-71.129,65.459-114.073,86.389
				c-42.692,20.847-90.224,26.685-130.499-2.835c-110.404-81.051-214.973-224.976-291.354-368.235l143.508-149.597
				C1089.604,2603.193,1143.972,2649.139,1221.604,2670.987z"/>
			<path id="_x31_80609572_1_" fill="#219866" stroke="#000000" d="M1374.284,2204.854c16.845,1.251,35.938-2.001,57.37-10.84
				c34.938-14.426,67.625-39.442,99.229-66.126c29.353-24.767,57.621-50.95,85.806-71.296
				c66.876-48.532,137.421-92.143,212.302-126.832l3.586,7.505l-133.168,419.686c-129.749,156.934-256.579,376.074-477.805,314.034
				c-77.631-21.847-132-67.792-169.524-127.414l321.871-335.299L1374.284,2204.854z"/>
			<path id="_x31_80609554_1_" fill="#9AD2BD" stroke="#000000" d="M1258.652,3568.766c6.485,60.497,14.815,120.762,23.104,181.187
				c19.722,143.661,83.33,307.25,161.601,428.156c52.338,80.844,102.035,157.779,171.439,225.5
				c227.284,221.755,515.799,334.636,833.482,329.377c123.905-2.055,240.217-35.749,350.248-91.467
				c113.995-57.734,151.504-145.145,193.172-261.675c42.621-119.179,68.787-251.478,69.51-377.533
				c1.238-215.778,3.201-426.834-13.696-641.44c-17.922-227.629-75.772-534.806-326.078-621.946
				c-189.825-66.074-427.73,19.61-593.198-91.333c-34.887-23.387-59.74-60.26-91.53-88.76c0.315,0.151,0.634,0.313,0.953,0.476
				c-0.757-0.539-1.517-1.082-2.286-1.646c-30.938-22.764-55.036-66.709-96.229-73.547c-55.535-9.256-137.67,38.025-166.939,83.721
				c-72.213,112.739-88.556,211.72-202.879,292.689c-10.839,7.671-22.848,18.095-35.771,30.103l-40.617,40.379
				c-54.433,55.283-98.89,112.416-142.158,177.289c-55.178,82.717-83.656,173.4-93.761,268.173
				C1250.324,3439.152,1251.676,3503.622,1258.652,3568.766z M2191.522,3533.724c25.871,1.909,51.262,9.837,76.994,13.086
				c19.975,2.536,59.967,1.205,71.538,21.657c7.084,12.508,1.262,29.222-7.288,45.671c-8.453,16.258-19.576,32.239-23.534,43.619
				c-6.742,19.381-17.141,36.551-25.105,55.264c-5.488,12.883-5.31,33.88-18.762,41.625c-15.822,9.099-40.772-18.571-51.791-27.716
				c-27.874-23.134-39.404-64.173-58.086-94.152c-11.156-17.908-22.457-36.157-28.346-56.596
				C2112.2,3524.306,2154.431,3530.991,2191.522,3533.724z"/>
			<path id="_x31_80609555_1_" fill="#9AD2BD" stroke="#000000" d="M2250.775,4229.671c1.042-23.697-1.784-50.08,5.65-72.494
				c26.44-79.779,28.502-165.446,21.034-248.898c-5.774-64.535-19.544-128.674,4.82-190.73c7.875-20.049,18.07-39.104,26.188-59.043
				c6.466-15.847,15.139-32.584,24.584-46.791c31.287-47.014,66.221-86.826,83.843-141.898
				c22.639-70.757,39.967-143.411,44.21-217.791c2.72-47.723,0.847-97.889-6.197-145.153
				c-20.008-134.046-85.838-248.946-181.333-343.294c-24.779-24.486-52.149-59.991-79.665-79.698
				c57.693,16.367,129.168,24.111,184.859,26.791c57.426,2.768,123.1,4.039,180.493,1.205c53.843-2.67,108.988,8.582,160.3,26.434
				c250.298,87.141,306.168,392.357,327.364,619.708c20.009,214.606,16.824,419.897,13.697,641.442
				c-1.792,126.049-26.889,258.353-69.511,377.541c-41.669,116.524-77.768,206.369-191.766,264.104
				c-111.537,56.49-230.795,86.526-351.062,91.894c-93.81,4.186-130.666,0.5-232.88-16.324c44.763,0.64,83.436-16.909,71.114-77.738
				c-8.55-42.244-49.64-71.238-63.614-111.104c-24.893-71.009,5.645-148.313,19.381-218.137L2250.775,4229.671z"/>
			<path id="_x31_80609556_1_" fill="#82C7AE" stroke="#000000" d="M2373.541,4733.048c-1.692-1.198-2.775-2.741-3.313-4.643
				c0.172-0.199,0.18,0.545,0,0.428c25.366-30.033,66.221-30.306,102.255-35.162c99.876-13.453,163.23-59.846,215.941-146.668
				c71.888-118.424,117.652-254.379,169.614-382.293c33.347-82.066,65.218-160.511,62.027-250.448
				c-2.631-74.58-16.222-148.252-8.812-223.056c4.934-49.927,18.313-98.199,21.155-148.459
				c15.732-278.418-41.938-600.242-236.341-808.299c46.034-3.297,123.598,50.58,155.625,80.31
				c144.551,134.191,175.218,361.043,195.828,546.118c22.588,202.863,16.221,419.555,13.688,641.441
				c-1.425,126.059-26.881,258.352-69.502,377.537c-41.668,116.533-79.177,203.939-193.174,261.674
				c-110.029,55.717-226.34,89.413-350.247,91.471C2424.744,4733.384,2396.748,4736.972,2373.541,4733.048z"/>
			<path id="_x31_80609560_1_" fill="#82C7AE" stroke="#000000" d="M2461.105,3252.022c2.72-47.724,0.847-97.89-6.197-145.153
				c-10.139-67.886-32.809-133.681-66.123-193.679c-18.191-32.77-103.492-120.357-40.716-149.885
				c56.409-26.515,140.178,15.691,182.646,51.57c95.111,80.357,135.697,233.947,156.83,352.398
				c18.305,102.653,28.248,209.826,13.068,313.539c-16.896,115.431-56.409,226.08-75.309,340.685
				c-35.943,217.985-91.822,447.373-186.992,647.668c-20.496,43.106-36.855,93.077-78.794,114.015
				c-9.918,4.955-107.425,35.549-141.154-72.459c-19.78-63.395,11.475-137.791,23.925-201.027l8.485-80.023
				c1.042-23.697-1.784-50.08,5.651-72.494c26.439-79.779,28.501-165.446,21.033-248.898c-5.774-64.535-19.543-128.674,4.82-190.73
				c7.875-20.049,18.07-39.104,26.188-59.043c6.466-15.847,15.139-32.584,24.585-46.791c31.286-47.014,66.22-86.826,83.842-141.898
				C2439.533,3399.059,2456.861,3326.404,2461.105,3252.022z"/>
			<path id="_x31_80609559_1_" fill="#9AD2BD" stroke="#000000" d="M2359.52,4583.181c-0.523,0.263-1.305,0.599-2.293,0.979
				c4.495,14.029,11.286,30.514,32.478,27.169c10-18.431,29.345-34.669,41.834-48.183c20.399-22.077,25.154-33.813,35.105-60.84
				c23.705-64.416,50.935-127.819,74.778-192.317c38.705-104.718,66.222-213.243,89.168-322.379
				c20.937-99.565,65.187-180.242,60.699-286.771c-3.892-91.841,30.822-181.944,41.864-273.694
				c8.601-71.352,2.712-141.136-15.284-205.205c-21.334-75.978-29.307-137.837-48.646-208.345
				c-18.876-68.832-37.061-116.147-89.227-169.855c-14.195-14.598-33.653-28.605-41.38-47.438
				c-9.082-3.273-19.145-3.785-29.186-1.377c-0.306,1.076-0.628,2.159-0.958,3.248c8.22,5.537,15.72,11.195,22.24,16.705
				c95.112,80.357,135.698,233.947,156.83,352.398c18.306,102.654,28.248,209.827,13.069,313.539
				c-16.896,115.432-56.409,226.081-75.309,340.686c-35.943,217.985-91.822,447.373-186.992,647.668
				C2417.815,4512.275,2401.454,4562.247,2359.52,4583.181z"/>
			<path id="_x31_80609558_1_" fill="#82C7AE" stroke="#000000" d="M2691.287,3700.841c4.488,106.529-39.762,187.205-60.699,286.771
				c-22.946,109.135-50.463,217.66-89.168,322.379c-23.843,64.498-51.073,127.9-74.778,192.317
				c-9.951,27.026-14.706,38.762-35.105,60.839c-16.53,17.887-45.082,40.541-48.062,66.741
				c-1.279,11.291,42.434-22.199,43.574-23.229c16.914-15.373,38.33-21.277,51.051-40.332
				c94.273-141.27,108.939-301.129,156.309-461.209c15.586-52.639,37.239-103.826,55.17-154.961
				c20.521-58.529,28.322-115.345,36.742-177.86c8.592-63.859,16.295-131.326,18.363-196.236
				c1.482-46.408,25.138-86.294,30.423-132.384c7.012-61.164-3.127-130.32-11.123-191.049
				c-13.038-98.893-44.567-189.912-76.701-284.004c-24.192-70.866-64.479-166.477-150.006-176
				c6.547,20.72,27.614,35.582,42.719,51.115c52.166,53.708,70.351,101.024,89.227,169.855
				c19.339,70.508,27.312,132.367,48.646,208.345c17.996,64.07,23.884,133.854,15.284,205.205
				C2722.11,3518.895,2687.396,3608.999,2691.287,3700.841z"/>
			<path id="_x31_80609557_1_" fill="#9AD2BD" stroke="#000000" d="M2384.896,4632.167c-16.565,15.067-25.196,27.576-1.256,55.418
				c6.69,7.78,15.125,13.14,24.375,16.898c20.4-6.678,43.267-7.956,64.467-10.813c99.876-13.453,163.229-59.846,215.94-146.668
				c71.888-118.424,117.653-254.379,169.615-382.293c33.347-82.066,65.218-160.511,62.027-250.448
				c-2.632-74.58-16.222-148.252-8.813-223.056c4.935-49.927,18.314-98.199,21.156-148.459
				c15.083-266.915-37.32-573.708-212.966-781.924c-21.352-8.025-44.376-12.804-67.516-15.194
				c-21.618-2.234-87.601-8.17-102.596,15.518c-6.416,10.136-5.227,22.175-0.024,33.442
				c77.333,16.705,114.946,106.578,137.975,174.035c32.133,94.092,63.663,185.111,76.701,284.004
				c7.996,60.729,18.135,129.885,11.123,191.049c-5.285,46.09-28.941,85.976-30.423,132.384
				c-2.068,64.91-9.771,132.377-18.363,196.236c-8.42,62.515-16.221,119.331-36.742,177.86
				c-17.931,51.135-39.584,102.322-55.17,154.961c-47.37,160.08-62.036,319.939-156.309,461.209
				c-12.721,19.055-34.137,24.959-51.051,40.332C2426.049,4607.563,2392.338,4633.406,2384.896,4632.167z"/>
			<path id="_x31_80609561_1_" fill="#54BF94" stroke="#000000" d="M2243.891,4216.272c-58.298,0.005-21.173-229.928-26.205-271.007
				c-3.869-31.763-23.844-62.87-43.599-87.438c-41.985-52.19-70.698-106.574-103.419-164.97
				c-21.514-38.399-50.275-72.438-74.396-109.877c-23.925-37.097-79.828-83.321-74.33-131.09
				c3.631-31.538,37.963-32.744,63.084-29.804c36.67,4.303,71.361,18.838,106.181,30.189c43.249,14.092,89.55,14.198,133.597,24.841
				c20.781,5.037,41.733,12.642,59.355,24.41c11.629,7.749,36.034,21.274,9.837,47.479c20.081,3.362,67.524,15.517,46.344,45.74
				c32.792-46.791,46.091-101.673,62.287-155.324c18.144-60.063,30.505-122.263,34.056-184.541
				c7.729-135.728-23.151-283.075-111.651-389.568c-45.293-54.499-63.925-124.555-143.613-117.809
				c-30.479,2.581-167.995,24.394-216.813,31.963c-74.429,11.526-181.699,28.277-255.705,40.305
				c-87.938,14.275-149.925,41.617-208.824,103.016c-55.789,56.217-105.242,119.462-149.289,185.512
				c-55.18,82.72-83.656,173.397-93.762,268.168c-6.701,62.692-5.342,127.161,1.637,192.304
				c6.475,60.5,14.813,120.764,23.104,181.19c19.723,143.663,83.33,307.248,161.602,428.155
				c52.328,80.847,102.035,157.783,171.439,225.498c48.525,47.349,101.62,92.056,157.352,130.638
				c93.803,64.936,200.381,110.729,307.961,148.017c42.588,14.769,106.586,34.381,147.953,20.586
				c92.832-30.952-13.029-124.94-29.593-172.16c-24.885-71.009,5.651-148.313,19.389-218.146L2243.891,4216.272z"/>
			<path id="_x31_80609566_1_" fill="#54BF94" stroke="#000000" d="M1922.917,3442.393l1.103,0.69
				c8.56-22.918,38.479-23.633,61.006-20.996c35.139,4.125,68.461,17.643,101.821,28.752c-1.633-34.658-27.747-63.781-34.688-97.791
				c-7.02-34.36-4.241-71.313-4.258-106.188c-0.041-72.947-33.135-134.51-70.781-194.033l-0.104-0.136
				c-96.031,18.641-194.358,51.444-276.943,83.201c-57.378,22.066-96.898,84.229-118.564,144.354l0.92,0.936
				c13.16,8.16,27.002,15.423,40.813,22.561C1721.024,3354.283,1822.44,3395.337,1922.917,3442.393z"/>
			<path id="_x31_80609562_1_" fill="#54BF94" stroke="#000000" d="M2186.059,2869.57c-1.028-1.194-2.121-2.403-3.299-3.636
				c-7.48-7.84-19.309-11.287-32.33-12.528c-11.39-0.003-22.791-0.033-34.013,0.3c-8.057,0.599-15.526,1.337-21.61,1.671
				c-3.568,0.195-7.127,0.453-10.679,0.749c-0.306,0.041-0.612,0.076-0.918,0.118c-31.506,4.381-62.485,10.23-93.114,17.045
				c-29.695,7.631-59.129,16.536-88.625,24.489c-35.82,9.663-71.711,19.081-107.524,28.785
				c-34.571,10.184-69.144,20.279-103.972,29.544c-0.002,0.001-0.006,0.001-0.008,0.002
				c-35.051,10.377-96.197,28.842-100.227,67.859c-9.348,90.455,249.809-31.259,290.094-41.597
				c54.592-14.006,105.585-24.539,159.559-40.568c37.523-11.145,87.734-18.074,125.348-21.962
				C2191.944,2917.023,2211.627,2899.258,2186.059,2869.57"/>
			<path id="_x31_80609563_1_" fill="#54BF94" stroke="#000000" d="M1919.61,4427.913c-59.39-61.867,27.938-143.401,122.894-211.734
				c69.988-50.367,144.123-93.563,166.703-116.42l1.563-1.406c-1.193,61.767,4.311,117.922,33.121,117.92l-26.025,96.276
				c-1.586,8.056-3.396,16.214-5.316,24.449l-6.89,7.636c-31.188,53.074-120.431,62.65-172.515,82.679
				c-28.197,10.847-67.129,25.618-96.695,12.479C1930.387,4437.097,1924.715,4433.231,1919.61,4427.913z"/>
			<path id="_x31_80609565_1_" fill="#54BF94" stroke="#000000" d="M2132.779,3803.729l1.508-1.363
				c-22.688-35.136-42.304-71.47-63.617-109.507c-21.514-38.399-50.275-72.439-74.396-109.877
				c-23.925-37.098-79.828-83.321-74.331-131.091c0.375-3.256,1.094-6.171,2.079-8.809l-1.103-0.689
				c-100.479-47.056-201.896-88.109-299.679-138.65c-13.812-7.138-27.653-14.402-40.813-22.561l-0.92-0.936
				c-5.772,16.014-10.281,31.884-13.519,46.813c-20.61,95.023,26.311,202.144,59.552,289.658
				c52.148,137.316,119.754,277.551,210.241,394.264c11.644,15.019,23.903,29.541,36.606,43.688l1.283-0.781
				c36.556-29.771,72.223-66.502,102.475-102.954C2024.156,3895.499,2080.353,3852.815,2132.779,3803.729z"/>
			<path id="_x31_80609567_1_" fill="#54BF94" stroke="#000000" d="M2052.162,3353.049c6.94,34.009,33.054,63.132,34.688,97.791
				c1.452,0.482,2.904,0.964,4.357,1.438c43.25,14.093,89.551,14.198,133.598,24.841c20.781,5.037,41.732,12.643,59.355,24.41
				c11.629,7.749,36.033,21.274,9.836,47.479c20.082,3.362,67.524,15.517,46.345,45.741c32.792-46.791,46.09-101.674,62.287-155.324
				c18.143-60.064,30.505-122.264,34.055-184.542c0.353-6.173,0.622-12.371,0.812-18.587l-0.354-0.981
				c-10.513-45.688-95.731-105.813-132.034-130.504c-54.12-36.823-120.031-67.856-186.26-67.567
				c-45.124,0.192-93.182,6.006-141.829,15.449l0.104,0.137c37.646,59.522,70.739,121.086,70.78,194.032
				C2047.918,3281.735,2045.141,3318.688,2052.162,3353.049z"/>
			<path id="_x31_80609564_1_" fill="#54BF94" stroke="#000000" d="M2209.21,4099.761l1.562-1.406
				c1.224-63.217,9.461-132.31,6.916-153.088c-3.868-31.763-23.844-62.869-43.599-87.438
				c-14.638-18.195-27.659-36.657-39.802-55.463l-1.509,1.363c-52.426,49.087-108.622,91.77-154.632,147.205
				c-30.252,36.453-65.919,73.184-102.475,102.955l-1.283,0.78c51.028,56.823,109.375,107.489,165.271,159.046l2.847,2.464
				C2112.496,4165.813,2186.629,4122.618,2209.21,4099.761z"/>
			<path id="_x31_80609568_1_" fill="#54BF94" stroke="#000000" d="M1413.275,3510.597
				c13.029,200.901,89.853,376.355,181.365,551.948c19.781,37.964,41.359,75.048,64.08,111.334c2.125,3.396,4.267,6.78,6.418,10.153
				c0.727,1.145,1.465,2.278,2.196,3.42c1.429,2.226,2.858,4.449,4.297,6.664c0.886,1.363,1.778,2.719,2.668,4.076
				c1.3,1.982,2.599,3.965,3.908,5.939c0.963,1.455,1.933,2.904,2.901,4.354c1.244,1.861,2.492,3.722,3.744,5.576
				c1.019,1.507,2.041,3.01,3.065,4.512c1.218,1.787,2.44,3.571,3.668,5.35c1.06,1.535,2.119,3.068,3.183,4.598
				c1.205,1.729,2.414,3.451,3.625,5.174c1.096,1.559,2.191,3.115,3.295,4.667c1.189,1.674,2.389,3.341,3.586,5.009
				c1.134,1.578,2.265,3.159,3.406,4.73c1.172,1.615,2.352,3.22,3.531,4.826s2.352,3.217,3.539,4.818
				c1.091,1.471,2.193,2.932,3.29,4.396c2.681,3.58,5.381,7.144,8.103,10.689c0.84,1.096,1.676,2.198,2.521,3.291
				c1.444,1.87,2.905,3.727,4.36,5.585c0.963,1.228,1.918,2.458,2.885,3.681c1.463,1.851,2.938,3.691,4.414,5.531
				c0.972,1.213,1.939,2.428,2.916,3.635c1.494,1.849,2.996,3.688,4.502,5.523c0.965,1.18,1.932,2.359,2.903,3.534
				c1.535,1.858,3.078,3.707,4.626,5.554c0.943,1.125,1.889,2.248,2.836,3.369c1.595,1.885,3.195,3.765,4.802,5.638
				c0.894,1.041,1.792,2.079,2.688,3.117c1.678,1.938,3.358,3.872,5.049,5.796c0.795,0.906,1.598,1.807,2.397,2.709
				c1.808,2.044,3.618,4.085,5.444,6.111c0.56,0.623,1.125,1.238,1.687,1.858c9.377,10.36,18.97,20.519,28.797,30.456
				c0.224,0.225,0.442,0.451,0.665,0.677c2.182,2.202,4.381,4.386,6.585,6.565c0.563,0.557,1.122,1.114,1.685,1.668
				c2.094,2.06,4.204,4.106,6.319,6.146c0.673,0.649,1.347,1.303,2.022,1.949c2.084,1.997,4.181,3.982,6.285,5.962
				c0.705,0.662,1.412,1.323,2.119,1.983c2.117,1.978,4.244,3.946,6.385,5.903c0.677,0.62,1.356,1.237,2.037,1.854
				c2.199,2.002,4.408,3.996,6.631,5.977c0.562,0.498,1.125,0.993,1.687,1.49c2.364,2.096,4.735,4.184,7.127,6.255
				c0.237,0.206,0.479,0.409,0.717,0.616c11.097,9.592,22.465,18.924,34.124,27.973c0.057,0.043,0.109,0.086,0.166,0.129
				c10.527,8.168,21.282,16.116,32.292,23.815c29.796,20.851,100.837,54.128,80.528,101.44
				c-11.758,27.386-32.901,38.031-58.955,37.979l-8.807,20.55c45.979,20.626,93.154,38.698,140.527,55.118
				c42.59,14.768,106.587,34.381,147.955,20.586c92.832-30.952-13.03-124.941-29.594-172.16
				c-22.014-62.814-0.658-130.556,14.072-193.695l-6.89,7.636c-31.188,53.074-120.431,62.65-172.515,82.679
				c-28.197,10.846-67.129,25.617-96.695,12.479c-6.063-2.693-11.732-6.561-16.836-11.876
				c-59.391-61.868,27.938-143.401,122.893-211.735l-2.846-2.463c-55.895-51.558-114.242-102.223-165.271-159.047
				c-12.703-14.146-24.961-28.668-36.605-43.688c-90.487-116.713-158.094-256.948-210.241-394.263
				c-33.241-87.515-80.161-194.636-59.552-289.658c3.238-14.928,7.747-30.798,13.518-46.813
				c21.668-60.125,61.187-122.287,118.565-144.354c82.585-31.756,180.912-64.559,276.942-83.201
				c48.647-9.442,96.705-15.257,141.83-15.449c66.229-0.289,132.141,30.744,186.26,67.567
				c36.303,24.691,121.521,84.816,132.033,130.504l0.354,0.981c0.046-1.506,0.083-3.012,0.119-4.521
				c0.013-0.524,0.028-1.05,0.04-1.575c0.029-1.366,0.052-2.733,0.074-4.102c0.011-0.675,0.022-1.352,0.031-2.028
				c0.018-1.312,0.028-2.626,0.038-3.938c0.007-0.729,0.013-1.456,0.017-2.186c0.006-1.29,0.006-2.581,0.005-3.872
				c-0.001-0.755-0.002-1.51-0.005-2.265c-0.006-1.276-0.016-2.553-0.027-3.83c-0.007-0.768-0.016-1.532-0.025-2.299
				c-0.018-1.28-0.037-2.562-0.062-3.842c-0.014-0.75-0.03-1.5-0.046-2.248c-0.03-1.307-0.059-2.611-0.095-3.918
				c-0.02-0.705-0.042-1.409-0.063-2.114c-0.041-1.354-0.084-2.705-0.133-4.06c-0.021-0.613-0.049-1.229-0.072-1.843
				c-0.057-1.446-0.113-2.894-0.18-4.341c-0.016-0.359-0.035-0.719-0.053-1.079c-0.338-7.207-0.792-14.421-1.361-21.634
				c-0.035-0.451-0.068-0.9-0.104-1.352c-0.12-1.477-0.248-2.951-0.377-4.428c-0.051-0.575-0.099-1.149-0.151-1.725
				c-0.128-1.421-0.263-2.842-0.399-4.263c-0.062-0.627-0.121-1.254-0.185-1.881c-0.14-1.403-0.286-2.808-0.435-4.21
				c-0.066-0.633-0.135-1.264-0.202-1.897c-0.155-1.41-0.313-2.817-0.476-4.226c-0.07-0.617-0.144-1.233-0.217-1.85
				c-0.169-1.431-0.342-2.861-0.521-4.292c-0.071-0.569-0.145-1.141-0.218-1.71c-0.188-1.481-0.382-2.965-0.581-4.445
				c-0.064-0.472-0.13-0.941-0.193-1.412c-0.218-1.582-0.437-3.161-0.666-4.74c-0.038-0.269-0.078-0.534-0.117-0.801
				c-1.391-9.522-2.994-19.017-4.82-28.466c-0.023-0.121-0.046-0.241-0.069-0.362c-0.332-1.713-0.674-3.426-1.021-5.136
				c-0.061-0.298-0.12-0.598-0.182-0.897c-0.334-1.635-0.677-3.27-1.024-4.902c-0.077-0.363-0.154-0.727-0.231-1.09
				c-0.347-1.611-0.701-3.221-1.061-4.828c-0.082-0.368-0.164-0.736-0.247-1.104c-0.365-1.619-0.737-3.236-1.115-4.852
				c-0.079-0.337-0.159-0.675-0.239-1.012c-0.39-1.657-0.787-3.313-1.192-4.965c-0.063-0.254-0.126-0.509-0.189-0.763
				c-0.429-1.741-0.864-3.48-1.311-5.216c-0.022-0.089-0.046-0.177-0.068-0.266c-3.443-13.388-7.36-26.638-11.771-39.696
				c-0.004-0.014-0.008-0.024-0.012-0.037c-0.613-1.815-1.235-3.624-1.867-5.431c-0.035-0.097-0.067-0.19-0.101-0.286
				c-0.621-1.772-1.251-3.539-1.892-5.304c-0.041-0.113-0.082-0.229-0.123-0.342c-0.646-1.774-1.299-3.546-1.961-5.313
				c-0.025-0.069-0.053-0.139-0.078-0.207c-15.288-40.669-35.57-79.213-61.438-114.005c-0.006-0.007-0.012-0.015-0.018-0.023
				c-1.167-1.569-2.346-3.13-3.534-4.683c-0.007-0.012-0.016-0.022-0.024-0.033c-44.716-18.256-108.761-20.443-149.205-8.591
				c25.569,29.686,5.886,47.452-21.318,50.271c-37.613,3.889-87.824,10.818-125.348,21.962
				c-53.974,16.03-104.967,26.563-159.559,40.569c-40.285,10.338-299.443,132.051-290.094,41.596
				c4.031-39.013,65.167-57.479,100.219-67.856c-43.919,11.688-80.919,26.502-115.284,47.18c-0.506,0.305-1.019,0.601-1.524,0.909
				c-3.727,2.267-7.42,4.607-11.092,7.016c-0.138,0.092-0.275,0.178-0.412,0.268c-3.379,2.224-6.734,4.52-10.074,6.872
				c-0.422,0.298-0.85,0.587-1.273,0.888c-0.852,0.605-1.697,1.229-2.548,1.841c-1.026,0.741-2.056,1.473-3.077,2.226
				c-1.666,1.225-3.326,2.473-4.986,3.732c-0.202,0.154-0.407,0.305-0.61,0.458c-0.851,0.649-1.698,1.318-2.547,1.976
				c-8.446,6.539-16.829,13.516-25.216,21.01c-0.411,0.367-0.822,0.748-1.232,1.118c-5.127,4.61-10.256,9.397-15.403,14.395
				c-58.151,56.44-79.234,142.73-85.39,220.914C1403.35,3362.223,1408.398,3435.357,1413.275,3510.597z"/>
			<path id="_x31_80609587_1_" fill="#CCCCCC" stroke="#000000" d="M2246.596,2772.434c-39.502-34.186-85.91-18.497-133.629-13.375
				c-56.465,6.063-112.197,17.072-168.207,26.2c-64.169,10.46-128.753,18.136-193.011,27.997
				c-62.987,9.666-125.552,23.769-180.877,56.115c-92.142,53.843-162.01,151.862-220.087,238.931
				c-55.18,82.719-83.656,173.396-93.762,268.168c-6.701,62.691-5.342,127.161,1.638,192.303
				c6.474,60.5,14.813,120.764,23.103,181.191c19.724,143.663,83.33,307.248,161.603,428.154
				c52.328,80.847,102.035,157.783,171.438,225.498l82.256,73.338c53.468,32.688,261.779,204.664,310.289,91.668
				c20.309-47.311-50.732-80.588-80.528-101.439c-110.731-77.438-196.636-179.122-268.101-293.307
				c-22.72-36.287-44.299-73.371-64.078-111.334c-91.513-175.594-168.337-351.047-181.365-551.948
				c-4.879-75.236-9.928-148.37-3.99-223.684c6.156-78.184,27.24-164.474,85.39-220.914
				c59.323-57.581,116.058-88.802,195.299-109.889c130.217-34.637,256.844-80.899,393.235-99.864
				c47.793-6.646,103.101,2.211,148.646-9.463C2271.115,2836.71,2273.655,2795.841,2246.596,2772.434z"/>
			<path id="_x31_80609588_1_" fill="#CCCCCC" stroke="#000000" d="M2152.385,3629.339c15.4,24.836,28.918,56.384,45.758,80.138
				c15.862,22.39,41.254,43.758,69.232,44.438c-0.879,23.723,2.965,48.664,3.372,72.603c0.455,25.771,2.361,51.51,5.627,77.074
				c3.127,24.475,2.907,49.511,3.681,74.148c1.498,48.686-1.76,97.91-13.225,145.373c-4.406,18.229-12.655,32.78-14.365,51.705
				c-0.39,4.32-1.539,41.457-8.574,41.457c-58.306,0.005-21.173-229.928-26.205-271.007c-3.869-31.763-23.844-62.87-43.599-87.438
				c-41.985-52.19-70.698-106.574-103.419-164.97c-21.514-38.399-50.275-72.438-74.396-109.877
				c-23.925-37.097-79.828-83.321-74.33-131.09c3.631-31.538,37.963-32.744,63.084-29.804c36.67,4.303,71.361,18.838,106.181,30.189
				c63.712,20.761,148.476,11.364,202.774,56.612c9.706,8.073,17.654,18.288,10.04,31.046c-9.608,16.074-45.943,4.93-59.25,2.154
				c-30.74-6.418-85.487-13.597-108.695-6.968c-10.618,3.029-10.854,14.751-11.987,23.132
				C2120.897,3581.988,2141.426,3611.662,2152.385,3629.339z"/>
			<path id="_x31_80609586_1_" fill="#AAAAAA" stroke="#000000" d="M2309.232,3657.757c-6.742,19.381-17.141,36.551-25.105,55.264
				c-5.488,12.883-5.31,33.88-18.762,41.625c-15.822,9.1-40.772-18.57-51.791-27.716c-27.874-23.134-39.404-64.173-58.086-94.152
				c-11.156-17.907-22.457-36.157-28.346-56.596c-14.942-51.876,27.288-45.19,64.381-42.458
				c25.871,1.909,51.262,9.837,76.994,13.086c19.975,2.536,59.967,1.205,71.538,21.657c7.084,12.508,1.262,29.222-7.288,45.671
				C2324.314,3630.396,2313.191,3646.376,2309.232,3657.757z"/>
		</g>
	</g>
</g>
</svg>
