<?xml version="1.0" encoding="utf-8"?>
<!-- Generator: Adobe Illustrator 16.0.0, SVG Export Plug-In . SVG Version: 6.00 Build 0)  -->
<!DOCTYPE svg PUBLIC "-//W3C//DTD SVG 1.1//EN" "http://www.w3.org/Graphics/SVG/1.1/DTD/svg11.dtd">
<svg version="1.1" id="Layer_1" xmlns="http://www.w3.org/2000/svg" xmlns:xlink="http://www.w3.org/1999/xlink" x="0px" y="0px"
	 width="4416px" height="4160px" viewBox="0 0 4416 4160" enable-background="new 0 0 4416 4160" xml:space="preserve">
<g>
	<g transform="scale(1.0)">
		<g id="_x31_80606826" transform=" scale(1.0, 1.0)">
			<path id="_x31_80606828" fill="#BFDAE3" stroke="#000000" d="M3924.222,2996.845c-55.563,55.692-115.248,106.116-159.809,145.322
				c-155.415,136.677-393.859,206.423-603.611,214.414c-262.864,10.01-459.563-129.291-624.56-318.188
				c-137.332-157.214-254.049-319.098-302.088-524.875c-21.781-93.291-34.806-193.742-19.486-287.44
				c13.789-84.331,31.191-168.111,49.795-250.75c18.436-81.849,40.588-160.11,65.115-240.283
				c89.99-294.151,154.328-733.965,484.479-860.59c128.948-49.455,215.2-84.248,355.311-67.1
				c148.938,18.229,302.683,106.903,421.869,191.553c144.357,102.523,280.028,237.127,343.361,405.567
				c68.523,182.254,101.93,348.271,118.467,540.079c12.22,141.721-28.246,270.84-27.529,410.786
				c0.701,136.504,81.174,268.631,52.343,409.904C4062.075,2842.638,3996.65,2924.225,3924.222,2996.845z"/>
			<path id="_x31_80606829" fill="#B0FFB8" stroke="#000000" d="M4025.538,2355.335c-0.72-139.943,39.747-269.063,27.53-410.785
				c-16.539-191.807-49.949-357.821-118.473-540.073c-63.33-168.441-199-303.046-343.36-405.567
				c-119.184-84.646-272.931-173.324-421.867-191.552c-140.111-17.147-226.363,17.646-355.306,67.102
				c-330.154,126.625-394.488,566.437-484.48,860.587c-24.527,80.168-46.676,158.437-65.111,240.284
				c-18.607,82.636-36.01,166.418-49.797,250.748c-15.315,93.697-2.293,194.148,19.486,287.44
				c48.041,205.775,164.756,367.659,302.086,524.871c164.999,188.896,361.697,328.196,624.564,318.187
				c209.746-7.994,448.194-77.74,603.604-214.414c44.563-39.205,104.242-89.631,159.813-145.322
				c72.429-72.621,137.85-154.205,153.647-231.603C4106.713,2623.966,4026.239,2491.84,4025.538,2355.335z M3182.992,1827.899
				c-2.297,20.676-15.792,42.656-25.506,60.691c-17.557,32.609-20.459,71.163-33.177,105.66
				c-2.388,6.481-26.937,64.603-33.772,35.938c-4.697-19.692,12.706-50.521,18.397-69.353
				c16.625-55.013,19.341-112.136,13.562-169.111c-1.255-12.351-11.236-104.609,18.113-96.797
				c26.634,7.096,31.289,65.112,34.633,86.241C3177.662,1796.557,3184.723,1812.27,3182.992,1827.899z"/>
			<path id="_x31_80606830" fill="#9AD2BD" stroke="#000000" d="M4025.538,2355.335c-0.72-139.943,39.747-269.063,27.53-410.785
				c-16.539-191.807-49.949-357.821-118.473-540.073c-63.33-168.441-199-303.046-343.36-405.567
				c-119.184-84.646-272.931-173.324-421.867-191.552c-140.111-17.147-226.363,17.646-355.306,67.102
				c-330.154,126.625-394.488,566.437-484.48,860.587c-24.527,80.168-46.676,158.437-65.111,240.284
				c-18.607,82.636-36.01,166.418-49.797,250.748c-15.315,93.697-2.293,194.148,19.486,287.44
				c48.041,205.775,164.756,367.659,302.086,524.871c164.999,188.896,361.697,328.196,624.564,318.187
				c209.746-7.994,448.194-77.74,603.604-214.414c44.563-39.205,104.242-89.631,159.813-145.322
				c72.429-72.621,137.85-154.205,153.647-231.603C4106.713,2623.966,4026.239,2491.84,4025.538,2355.335z M3182.992,1827.899
				c-2.297,20.676-15.792,42.656-25.506,60.691c-17.557,32.609-20.459,71.163-33.177,105.66
				c-2.388,6.481-26.937,64.603-33.772,35.938c-4.697-19.692,12.706-50.521,18.397-69.353
				c16.625-55.013,19.341-112.136,13.562-169.111c-1.255-12.351-11.236-104.609,18.113-96.797
				c26.634,7.096,31.289,65.112,34.633,86.241C3177.662,1796.557,3184.723,1812.27,3182.992,1827.899z"/>
			<path id="_x31_80606831" fill="#9AD2BD" stroke="#000000" d="M4025.535,2355.339c-0.717-139.944,39.749-269.064,27.529-410.786
				c-16.537-191.808-49.942-357.826-118.467-540.079c-63.333-168.441-199.004-303.043-343.361-405.568
				c-119.188-84.648-272.931-173.323-421.869-191.552c-140.109-17.147-226.361,17.646-355.311,67.099
				c-330.148,126.625-394.488,566.439-484.479,860.591c-24.527,80.173-46.68,158.435-65.115,240.282
				c-18.604,82.639-36.006,166.418-49.795,250.75c-15.32,93.698-2.295,194.149,19.486,287.44
				c48.039,205.777,164.756,367.661,302.088,524.875c164.994,188.897,361.694,328.198,624.56,318.188
				c209.752-7.991,448.196-77.737,603.611-214.414c44.561-39.207,104.243-89.631,159.809-145.322
				c72.431-72.62,137.854-154.207,153.656-231.603C4106.709,2623.97,4026.236,2491.843,4025.535,2355.339z M3182.992,1827.899
				c-2.297,20.676-15.792,42.656-25.506,60.691c-17.557,32.609-20.459,71.163-33.177,105.66
				c-2.388,6.481-26.937,64.603-33.772,35.938c-4.697-19.692,12.706-50.521,18.397-69.353
				c16.625-55.013,19.341-112.136,13.562-169.111c-1.255-12.351-11.236-104.609,18.113-96.797
				c26.634,7.096,31.289,65.112,34.633,86.241C3177.662,1796.557,3184.723,1812.27,3182.992,1827.899z"/>
			<path id="_x31_80606832" fill="#82C7AE" stroke="#000000" d="M3861.77,1904.47c-15.651,103.109-55.713,200.264-105.444,291.301
				c-42.327,77.475-119.521,126.389-179.649,192.152c-47.8,52.279-96.191,96.797-130.434,158.838
				c-25.137,45.553-64.137,76.006-81.879,128.044c-18.764,55.044-22.538,97.372-57.729,146.378
				c-35.598,49.584-73.819,99.322-97.208,156.328c-7.941,19.322-10.326,44.018-25.888,58.953
				c-15.282,14.685-43.683,19.566-61.839,30.996c-151.162,95.148-302.906,16.502-424.104-88.651
				c-102.083-88.583-115.854-204.464-138.964-331.028c-14.223-77.806-22.514-145.197-14.674-224.261
				c5.023-50.601,41.281-87.007,52.119-135.598c8.219-36.796-1.938-76.362-5.453-113.061c-5.848-60.756,47.6-109.014,55.699-172.462
				c7.229-56.667-24.484-111.372-14.75-168.641c5.271-30.994,30.354-48.515,40.789-76.707
				c16.545-44.733-28.936-72.739-29.539-116.385c-0.346-24.082,5.516-38.364-0.262-62.702
				c-14.297-60.255-22.773-106.852-12.949-169.652c7.297-46.632,1.801-92.063,7.32-138.237
				c4.662-39.021,20.139-84.453,32.438-121.844c15.274-46.415,53.765-73.963,82.223-111.913
				c62.24-82.993,182.605-122.239,282.566-130.734c249.563-21.213,492.889,161.514,638.666,347.51
				C3816.621,1436.563,3897.215,1671.034,3861.77,1904.47z M3672.318,2638.019c23.472-38.729,43.373-79.991,66.076-123.827
				c52.276-100.933,118.778-192.808,169.648-294.695c33.494-67.084,54.141-143.711,76.956-215.083
				c20.312-63.536,0.972-123.962-3.367-188.79c-4.912-73.232,3.892-146.28-7.565-219.143
				c-18.731-119.149-52.36-247.438-122.639-346.476c-70.178-98.899-161.707-181.151-260.193-251.104
				c-119.184-84.651-272.929-173.332-421.867-191.559c-140.111-17.149-226.354,17.642-355.306,67.098
				c-207.69,79.658-280.011,261.845-311.716,466.65c-10.721,69.287-32.137,137.013-35.76,207.34
				c-2.568,49.747,2.541,99.416,3.211,149.14c0.605,45.567-12.957,89.303-17.742,134.363c-5.322,50.169-7.143,98.315,0.258,147.51
				c13.83,91.995-8.615,184.053-28.822,273.315c-10.371,45.851-27.445,91.61-23.488,138.298
				c3.127,36.827,1.539,73.675,2.898,110.145c4.074,108.956,16.191,223.69,60.982,323.938
				c18.934,42.373,22.24,78.027,30.723,124.096c14.705,79.862,96.793,152.982,153.959,204.018
				c52.646,46.991,110.971,82.687,171.535,118.226c52.323,30.705,112.007,56.985,173.784,59.228
				c34.702,1.26,56.82-15.614,71.902-43.742c18.06-33.664,45.104-58.237,75.454-80.824
				c48.508-36.075,110.887-64.102,153.934-106.063c37.192-36.271,76.84-74.43,108.237-116.368
				c37.966-50.718,74.263-102.663,112.443-153.22C3565.661,2764.555,3629.768,2708.213,3672.318,2638.019z"/>
			<path id="_x31_80606836" fill="#82C7AE" stroke="#000000" d="M3321.895,2206.451c-71.313,68.26-125.925,152.021-163.424,243.131
				c-38.463,93.421-41.831,194.043-75.527,287.603c-32.098,89.128-82.565,175.358-193.032,149.372
				c-143.427-33.753-192.513-214.32-164.151-342.566c23.071-104.321,75.582-199.94,121.207-295.538
				c91.809-192.336,81.674-416.807,34.491-619.851c-37.288-160.435-68.854-462.666,161.512-495.246
				c97.306-13.754,155.93,61.42,212.45,127.51c141.093,165.021,293.688,353.061,329.764,574.069
				c7.159,43.853,19.634,100.341-0.18,142.497c-32.356,68.84-96.385,109.535-158.633,148.458
				C3386.765,2150.658,3352.868,2176.794,3321.895,2206.451z M3122.496,1791.727c5.779,56.974,3.064,114.099-13.561,169.111
				c-5.692,18.833-23.097,49.66-18.398,69.353c6.837,28.663,31.386-29.457,33.773-35.938c12.717-34.497,15.619-73.051,33.176-105.66
				c9.714-18.035,23.209-40.016,25.506-60.691c1.73-15.63-5.33-31.343-7.75-46.729c-3.343-21.129-7.999-79.146-34.632-86.241
				C3111.26,1687.116,3121.241,1779.376,3122.496,1791.727z"/>
			<path id="_x31_80606835" fill="#9AD2BD" stroke="#000000" d="M2860.743,2894.128c92.821,46.334,186.991,12.42,232.052-79.776
				c24.541-50.225,37.544-104.957,47.648-159.602c13.741-74.293,34.662-150.021,66.143-218.775
				c34.701-75.813,83.762-149.271,145.335-207.188c21.292-20.026,44.085-38.197,68.291-53.961
				c44.828-29.207,94.51-51.847,137.47-83.511c56.055-41.315,92.801-107.772,94.948-178.939
				c2.93-96.606-25.469-201.462-72.435-285.73c-45.859-82.265-112.841-149.941-164.625-228.19
				c-23.736-35.856-45.11-72.649-72.821-104.872c-27.371-31.825-41.902-72.701-72.518-102.461
				c-42.426-41.23-87.012-88.786-143.474-110.345c-71.416-27.266-146.174-12.479-203.303,38.037
				c-67.063,59.304-84.117,150.035-95.031,233.958c-7.208,55.502-2.854,111.312,6.068,166.314
				c9.638,59.503,22.215,118.604,33.704,177.764c19.751,101.658,35.644,205.478,21.674,309.034
				c-13.646,101.115-47.598,197-92.866,288c-46.596,93.663-101.226,188.686-104.248,296.048
				C2689.364,2710.239,2749.919,2838.805,2860.743,2894.128z M2725.759,2543.988c23.071-104.32,75.582-199.939,121.207-295.538
				c91.809-192.336,81.675-416.806,34.491-619.85c-37.288-160.436-68.854-462.666,161.512-495.246
				c97.307-13.754,155.93,61.419,212.45,127.509c141.093,165.022,293.688,353.062,329.764,574.069
				c7.159,43.854,19.634,100.341-0.18,142.498c-32.356,68.839-96.385,109.535-158.633,148.458
				c-39.605,24.77-73.502,50.906-104.478,80.563c-71.312,68.26-125.924,152.021-163.423,243.131
				c-38.463,93.422-41.831,194.043-75.527,287.604c-32.098,89.128-82.565,175.357-193.032,149.372
				C2746.484,2852.803,2697.398,2672.235,2725.759,2543.988z"/>
			<path id="_x31_80606834" fill="#82C7AE" stroke="#000000" d="M3319.216,2307.423c-46.871,60.22-80.63,132.368-109.041,205.713
				c-31.727,81.917-51.726,161.735-71.354,246.848c-15.929,69.104-28.852,127.163-87.709,172.571
				c-64.914,50.082-132.613,26.765-201.765,0.167c-60.596-23.306-109.134-67.72-144.072-121.742
				c-36.616-56.616-41.352-129.535-44.855-195.298c-9.477-178.317,111.898-328.522,168.35-490.37
				c17.422-49.972,22.739-106.603,30.528-158.799c6.646-44.498,14.709-98.808,6.663-143.533
				c-7.529-41.821-20.535-86.554-31.224-128.029c-7.94-30.771-18.319-61.299-24.528-92.42
				c-10.23-51.344-27.555-99.235-28.107-152.31c-1.021-97.922,9.406-198.101,59.532-284.053
				c73.595-126.188,210.515-174.59,338.117-96.033c37.782,23.257,78.606,53.367,108.706,86.138
				c64.221,69.928,115.487,148.093,171.928,224.052c55.428,74.613,115.646,145.837,159.043,228.552
				c55.068,104.963,105.658,244.133,71.905,361.762c-14.001,48.793-37.383,94.888-71.321,132.864
				c-34.135,38.213-77.934,56.969-125.553,73.918C3419.855,2203.968,3363.636,2250.339,3319.216,2307.423z M3420.212,2174.826
				c44.828-29.207,94.51-51.847,137.47-83.511c56.055-41.315,92.801-107.772,94.948-178.939
				c2.93-96.606-25.469-201.462-72.435-285.73c-45.859-82.265-112.841-149.941-164.625-228.19
				c-23.736-35.856-45.11-72.649-72.821-104.872c-27.371-31.825-41.902-72.701-72.518-102.461
				c-42.426-41.23-87.012-88.786-143.474-110.345c-71.416-27.266-146.174-12.479-203.303,38.037
				c-67.063,59.304-84.117,150.035-95.031,233.958c-7.208,55.502-2.854,111.312,6.068,166.314
				c9.638,59.503,22.215,118.604,33.704,177.764c19.751,101.658,35.644,205.478,21.674,309.034
				c-13.646,101.115-47.598,197-92.866,288c-46.596,93.663-101.226,188.686-104.248,296.048
				c-3.393,120.308,57.162,248.873,167.986,304.196c92.822,46.334,186.992,12.42,232.052-79.776
				c24.541-50.224,37.544-104.957,47.648-159.603c13.741-74.291,34.662-150.021,66.143-218.774
				c34.701-75.813,83.763-149.271,145.335-207.188C3373.213,2208.76,3396.006,2190.589,3420.212,2174.826z"/>
			<path id="_x31_80606833" fill="#9AD2BD" stroke="#000000" d="M2697.594,2978.81c121.198,105.153,272.942,183.801,424.104,88.651
				c18.155-11.43,46.557-16.313,61.839-30.996c15.563-14.937,17.945-39.631,25.888-58.953
				c23.39-57.006,61.61-106.744,97.208-156.328c35.191-49.007,38.967-91.334,57.729-146.379
				c17.741-52.037,56.741-82.49,81.879-128.043c34.241-62.041,82.634-106.559,130.434-158.838
				c60.128-65.765,137.322-114.68,179.649-192.152c49.731-91.037,89.793-188.192,105.445-291.301
				c35.444-233.437-45.148-467.907-188.946-651.375c-145.777-185.996-389.103-368.723-638.665-347.511
				c-99.961,8.496-220.327,47.742-282.567,130.735c-28.458,37.949-66.946,65.498-82.223,111.913
				c-12.3,37.392-27.772,82.821-32.437,121.844c-5.521,46.175-0.023,91.605-7.32,138.237
				c-9.826,62.801-1.348,109.397,12.949,169.651c5.775,24.338-0.084,38.621,0.26,62.703c0.605,43.646,46.086,71.651,29.54,116.385
				c-10.435,28.192-35.519,45.712-40.788,76.707c-9.736,57.27,21.979,111.974,14.75,168.641
				c-8.102,63.448-61.547,111.707-55.701,172.462c3.518,36.697,13.674,76.264,5.455,113.06
				c-10.838,48.592-47.096,84.998-52.121,135.599c-7.84,79.063,0.453,146.455,14.674,224.261
				C2581.74,2774.346,2595.51,2890.227,2697.594,2978.81z M2828.771,2125.312c17.42-49.972,22.738-106.603,30.527-158.799
				c6.646-44.498,14.709-98.808,6.663-143.533c-7.53-41.821-20.534-86.554-31.224-128.029c-7.94-30.771-18.319-61.299-24.528-92.42
				c-10.229-51.344-27.555-99.235-28.108-152.31c-1.02-97.922,9.407-198.101,59.533-284.053
				c73.594-126.188,210.514-174.59,338.117-96.033c37.782,23.257,78.605,53.367,108.706,86.138
				c64.221,69.928,115.487,148.093,171.928,224.052c55.427,74.613,115.646,145.837,159.043,228.552
				c55.068,104.963,105.658,244.133,71.905,361.762c-14.001,48.793-37.383,94.888-71.321,132.864
				c-34.135,38.213-77.934,56.969-125.553,73.918c-74.604,26.549-130.824,72.92-175.244,130.004
				c-46.871,60.22-80.63,132.367-109.041,205.713c-31.727,81.916-51.726,161.735-71.354,246.848
				c-15.929,69.104-28.852,127.163-87.709,172.57c-64.914,50.082-132.613,26.766-201.765,0.168
				c-60.596-23.307-109.134-67.721-144.072-121.742c-36.616-56.616-41.352-129.535-44.855-195.299
				C2650.943,2437.364,2772.319,2287.16,2828.771,2125.312z"/>
			<path id="_x31_80606838" fill="#CCCCCC" stroke="#000000" d="M4025.521,2355.334c-0.713-139.946,39.746-269.065,27.528-410.784
				c-16.539-191.809-49.939-357.825-118.462-540.077c-28.684-76.289-72.209-145.637-124.658-208.207
				c14.517,17.351,28.381,35.254,41.498,53.741c70.277,99.037,103.906,227.326,122.639,346.475
				c11.457,72.862,2.654,145.91,7.565,219.144c4.339,64.828,23.679,125.251,3.367,188.79
				c-22.815,71.371-43.462,147.998-76.956,215.082c-50.87,101.889-117.372,193.764-169.648,294.696
				c-22.703,43.836-42.604,85.097-66.076,123.826c-42.553,70.194-106.657,126.536-156.463,192.473
				c-38.182,50.557-74.479,102.502-112.443,153.22c-31.398,41.938-71.045,80.099-108.237,116.368
				c-43.047,41.961-105.426,69.987-153.934,106.063c-30.35,22.587-57.396,47.16-75.454,80.824
				c-15.082,28.128-37.2,45.002-71.902,43.742c-61.778-2.241-121.461-28.521-173.785-59.228
				c-60.563-35.539-118.89-71.233-171.533-118.226c-2.764-2.466-5.584-4.983-8.451-7.551
				c143.066,131.646,310.775,218.859,520.679,210.864c209.755-7.988,448.195-77.733,603.612-214.412
				c44.555-39.206,104.242-89.626,159.803-145.323c72.429-72.615,137.857-154.204,153.656-231.597
				C4106.695,2623.966,4026.222,2491.838,4025.521,2355.334z"/>
			<path id="_x31_80606839" fill="#CCCCCC" stroke="#000000" d="M2463.883,2825.144c-44.791-100.248-56.906-214.981-60.982-323.938
				c-1.359-36.47,0.229-73.316-2.898-110.145c-3.957-46.688,13.117-92.447,23.49-138.298c20.207-89.261,42.652-181.32,28.82-273.315
				c-7.398-49.194-5.58-97.341-0.258-147.51c4.785-45.06,18.35-88.796,17.742-134.363c-0.67-49.724-5.779-99.394-3.211-149.14
				c3.623-70.328,25.039-138.053,35.762-207.339c26.25-169.567,80.342-323.629,216.051-416.834
				c-248.299,167.706-308.295,547.559-388.824,810.786c-24.529,80.167-46.684,158.433-65.113,240.279
				c-18.605,82.637-36.008,166.417-49.795,250.749c-15.324,93.697-2.299,194.148,19.486,287.44
				c48.033,205.775,164.756,367.658,302.086,524.871c1.377,1.575,2.762,3.139,4.143,4.707
				c-22.352-29.442-39.738-61.08-45.773-93.854C2486.125,2903.172,2482.816,2867.517,2463.883,2825.144z"/>
			<path id="_x31_80606837" fill="#AAAAAA" stroke="#000000" d="M3124.311,1994.25c12.718-34.497,15.621-73.051,33.177-105.66
				c9.714-18.035,23.209-40.016,25.506-60.691c1.729-15.63-5.33-31.343-7.75-46.729c-3.343-21.129-7.999-79.146-34.632-86.241
				c-29.352-7.813-19.369,84.447-18.114,96.797c5.779,56.974,3.063,114.099-13.562,169.111
				c-5.691,18.833-23.096,49.66-18.397,69.353C3097.374,2058.853,3121.923,2000.733,3124.311,1994.25z"/>
		</g>
	</g>
	<g transform="scale(1.0)">
		<g id="_x31_80606826_1_" transform=" scale(1.0, 1.0)">
			<path id="_x31_80606828_1_" fill="#BFDAE3" stroke="#000000" d="M338.122,2765.244c-28.831-141.273,51.642-273.4,52.343-409.904
				c0.717-139.945-39.749-269.064-27.529-410.785c16.537-191.807,49.943-357.824,118.467-540.078
				c63.333-168.441,199.004-303.045,343.361-405.568c119.187-84.649,272.931-173.324,421.869-191.553
				c140.11-17.148,226.362,17.645,355.311,67.1c330.149,126.625,394.488,566.439,484.479,860.591
				c24.527,80.173,46.68,158.434,65.114,240.282c18.604,82.639,36.007,166.418,49.795,250.749
				c15.32,93.698,2.295,194.149-19.485,287.44c-48.039,205.777-164.756,367.661-302.088,524.875
				c-164.996,188.897-361.695,328.198-624.56,318.188c-209.752-7.991-448.196-77.737-603.611-214.414
				c-44.561-39.206-104.245-89.63-159.809-145.322C419.35,2924.225,353.925,2842.638,338.122,2765.244z"/>
			<path id="_x31_80606829_1_" fill="#B0FFB8" stroke="#000000" d="M338.126,2765.237c15.798,77.397,81.219,158.981,153.647,231.603
				c55.57,55.691,115.25,106.117,159.813,145.322c155.409,136.674,393.857,206.42,603.604,214.414
				c262.867,10.01,459.565-129.291,624.563-318.187c137.33-157.212,254.046-319.096,302.087-524.871
				c21.778-93.292,34.801-193.743,19.486-287.44c-13.788-84.329-31.189-168.111-49.797-250.747
				c-18.437-81.847-40.584-160.115-65.112-240.283c-89.991-294.15-154.325-733.963-484.479-860.588
				c-128.942-49.455-215.194-84.249-355.306-67.102c-148.937,18.228-302.684,106.906-421.867,191.552
				c-144.36,102.521-280.03,237.126-343.36,405.568c-68.523,182.252-101.934,348.266-118.473,540.072
				c-12.217,141.722,28.25,270.841,27.53,410.784C389.761,2491.84,309.287,2623.966,338.126,2765.237z M1240.758,1781.171
				c3.344-21.129,7.999-79.146,34.633-86.241c29.35-7.813,19.368,84.446,18.113,96.797c-5.779,56.975-3.063,114.098,13.562,169.11
				c5.691,18.832,23.095,49.66,18.397,69.353c-6.836,28.664-31.385-29.457-33.772-35.938c-12.718-34.497-15.62-73.051-33.177-105.66
				c-9.714-18.035-23.209-40.015-25.506-60.69C1231.277,1812.271,1238.338,1796.558,1240.758,1781.171z"/>
			<path id="_x31_80606830_1_" fill="#9AD2BD" stroke="#000000" d="M338.126,2765.237c15.798,77.397,81.219,158.981,153.647,231.603
				c55.57,55.691,115.25,106.117,159.813,145.322c155.409,136.674,393.857,206.42,603.604,214.414
				c262.867,10.01,459.565-129.291,624.563-318.187c137.33-157.212,254.046-319.096,302.087-524.871
				c21.778-93.292,34.801-193.743,19.486-287.44c-13.788-84.329-31.189-168.111-49.797-250.747
				c-18.437-81.847-40.584-160.115-65.112-240.283c-89.991-294.15-154.325-733.963-484.479-860.588
				c-128.942-49.455-215.194-84.249-355.306-67.102c-148.937,18.228-302.684,106.906-421.867,191.552
				c-144.36,102.521-280.03,237.126-343.36,405.568c-68.523,182.252-101.934,348.266-118.473,540.072
				c-12.217,141.722,28.25,270.841,27.53,410.784C389.761,2491.84,309.287,2623.966,338.126,2765.237z M1240.758,1781.171
				c3.344-21.129,7.999-79.146,34.633-86.241c29.35-7.813,19.368,84.446,18.113,96.797c-5.779,56.975-3.063,114.098,13.562,169.11
				c5.691,18.832,23.095,49.66,18.397,69.353c-6.836,28.664-31.385-29.457-33.772-35.938c-12.718-34.497-15.62-73.051-33.177-105.66
				c-9.714-18.035-23.209-40.015-25.506-60.69C1231.277,1812.271,1238.338,1796.558,1240.758,1781.171z"/>
			<path id="_x31_80606831_1_" fill="#9AD2BD" stroke="#000000" d="M338.122,2765.241c15.802,77.396,81.226,158.982,153.656,231.603
				c55.565,55.691,115.248,106.115,159.809,145.322c155.415,136.677,393.859,206.423,603.611,214.414
				c262.865,10.01,459.565-129.291,624.56-318.188c137.331-157.214,254.049-319.098,302.088-524.875
				c21.78-93.291,34.806-193.742,19.485-287.44c-13.788-84.332-31.19-168.111-49.795-250.75
				c-18.435-81.847-40.587-160.108-65.114-240.281c-89.99-294.151-154.33-733.967-484.479-860.592
				c-128.949-49.453-215.201-84.246-355.311-67.099c-148.938,18.229-302.682,106.903-421.869,191.552
				c-144.357,102.525-280.028,237.127-343.361,405.569c-68.524,182.253-101.93,348.271-118.467,540.078
				c-12.22,141.721,28.246,270.841,27.529,410.785C389.764,2491.843,309.291,2623.97,338.122,2765.241z M1240.758,1781.171
				c3.344-21.129,7.999-79.146,34.633-86.241c29.35-7.813,19.368,84.446,18.113,96.797c-5.779,56.975-3.063,114.098,13.562,169.11
				c5.691,18.832,23.095,49.66,18.397,69.353c-6.836,28.664-31.385-29.457-33.772-35.938c-12.718-34.497-15.62-73.051-33.177-105.66
				c-9.714-18.035-23.209-40.015-25.506-60.69C1231.277,1812.271,1238.338,1796.558,1240.758,1781.171z"/>
			<path id="_x31_80606832_1_" fill="#82C7AE" stroke="#000000" d="M743.176,1253.094
				c145.777-185.996,389.103-368.723,638.666-347.51c99.961,8.495,220.326,47.741,282.566,130.734
				c28.458,37.95,66.948,65.498,82.223,111.913c12.299,37.391,27.774,82.822,32.437,121.844
				c5.521,46.175,0.023,91.606,7.321,138.238c9.824,62.801,1.347,109.397-12.95,169.652c-5.776,24.338,0.084,38.62-0.261,62.702
				c-0.604,43.646-46.084,71.651-29.539,116.385c10.435,28.192,35.518,45.713,40.789,76.707
				c9.734,57.269-21.979,111.974-14.75,168.641c8.099,63.448,61.547,111.706,55.699,172.462
				c-3.516,36.698-13.673,76.265-5.454,113.061c10.839,48.591,47.097,84.997,52.12,135.598
				c7.84,79.063-0.452,146.455-14.674,224.261c-23.11,126.564-36.881,242.445-138.964,331.028
				c-121.198,105.153-272.942,183.8-424.104,88.651c-18.156-11.43-46.557-16.312-61.839-30.996
				c-15.562-14.936-17.946-39.631-25.888-58.953c-23.389-57.006-61.61-106.744-97.208-156.328
				c-35.191-49.006-38.966-91.334-57.729-146.378c-17.742-52.038-56.742-82.491-81.879-128.044
				c-34.242-62.041-82.634-106.559-130.434-158.838c-60.128-65.764-137.322-114.678-179.649-192.152
				c-49.731-91.037-89.793-188.191-105.444-291.301C518.785,1671.035,599.379,1436.564,743.176,1253.094z M900.146,2830.49
				c38.181,50.557,74.478,102.502,112.443,153.22c31.397,41.938,71.045,80.098,108.237,116.368
				c43.047,41.961,105.426,69.987,153.934,106.063c30.35,22.587,57.395,47.16,75.454,80.824
				c15.082,28.128,37.2,45.002,71.902,43.742c61.777-2.242,121.461-28.522,173.784-59.228
				c60.564-35.539,118.89-71.234,171.534-118.226c57.167-51.035,139.254-124.155,153.96-204.018
				c8.481-46.068,11.788-81.723,30.723-124.096c44.791-100.248,56.907-214.982,60.982-323.938
				c1.359-36.47-0.229-73.317,2.898-110.145c3.957-46.688-13.117-92.447-23.489-138.298
				c-20.207-89.262-42.652-181.319-28.821-273.314c7.399-49.195,5.58-97.341,0.258-147.51
				c-4.785-45.061-18.349-88.796-17.742-134.363c0.67-49.724,5.779-99.393,3.211-149.14
				c-3.623-70.327-25.039-138.053-35.761-207.341c-31.705-204.806-104.024-386.992-311.715-466.65
				c-128.951-49.456-215.194-84.247-355.306-67.098c-148.938,18.227-302.684,106.907-421.867,191.559
				c-98.486,69.952-190.016,152.204-260.193,251.104c-70.278,99.039-103.907,227.327-122.639,346.477
				c-11.457,72.862-2.653,145.91-7.565,219.143c-4.339,64.827-23.679,125.253-3.367,188.789
				c22.815,71.371,43.462,147.998,76.956,215.082c50.87,101.888,117.372,193.763,169.648,294.695
				c22.703,43.836,42.604,85.098,66.076,123.827C786.232,2708.213,850.339,2764.555,900.146,2830.49z"/>
			<path id="_x31_80606836_1_" fill="#82C7AE" stroke="#000000" d="M989.629,2125.89c-62.248-38.924-126.276-79.618-158.633-148.458
				c-19.813-42.155-7.339-98.644-0.18-142.496c36.076-221.009,188.671-409.048,329.764-574.07
				c56.521-66.09,115.145-141.264,212.45-127.51c230.366,32.58,198.8,334.813,161.512,495.247
				c-47.183,203.044-57.317,427.514,34.491,619.85c45.625,95.598,98.136,191.217,121.207,295.538
				c28.361,128.246-20.725,308.813-164.151,342.566c-110.467,25.986-160.935-60.244-193.032-149.372
				c-33.696-93.56-37.064-194.182-75.527-287.603c-37.499-91.11-92.111-174.871-163.424-243.131
				C1063.132,2176.794,1029.235,2150.658,989.629,2125.89z M1275.39,1694.932c-26.633,7.095-31.289,65.112-34.632,86.241
				c-2.42,15.386-9.48,31.099-7.75,46.729c2.297,20.675,15.792,42.655,25.506,60.69c17.557,32.609,20.459,71.163,33.176,105.66
				c2.388,6.481,26.937,64.602,33.773,35.938c4.698-19.692-12.706-50.52-18.398-69.353c-16.625-55.012-19.34-112.137-13.561-169.11
				C1294.759,1779.377,1304.74,1687.117,1275.39,1694.932z"/>
			<path id="_x31_80606835_1_" fill="#9AD2BD" stroke="#000000" d="M1723.244,2589.933
				c-3.022-107.362-57.652-202.385-104.248-296.048c-45.269-91-79.221-186.885-92.866-287.999
				c-13.97-103.556,1.923-207.375,21.674-309.033c11.489-59.16,24.066-118.261,33.704-177.764
				c8.922-55.003,13.276-110.813,6.068-166.314c-10.914-83.924-27.968-174.655-95.031-233.959
				c-57.129-50.517-131.887-65.303-203.303-38.037c-56.462,21.559-101.048,69.114-143.474,110.345
				c-30.615,29.76-45.146,70.636-72.518,102.461c-27.711,32.223-49.085,69.017-72.821,104.873
				c-51.784,78.249-118.766,145.926-164.625,228.19c-46.966,84.268-75.364,189.124-72.435,285.729
				c2.147,71.167,38.894,137.624,94.948,178.938c42.96,31.664,92.642,54.304,137.47,83.511
				c24.206,15.764,46.999,33.935,68.291,53.961c61.573,57.916,110.634,131.375,145.335,207.188
				c31.48,68.754,52.401,144.482,66.143,218.775c10.104,54.645,23.107,109.377,47.648,159.602
				c45.061,92.196,139.23,126.11,232.052,79.776C1666.081,2838.805,1726.636,2710.239,1723.244,2589.933z M1526.09,2886.558
				c-110.467,25.985-160.935-60.244-193.032-149.372c-33.696-93.561-37.064-194.182-75.527-287.604
				c-37.499-91.109-92.111-174.871-163.423-243.131c-30.976-29.656-64.872-55.793-104.478-80.563
				c-62.248-38.924-126.276-79.619-158.633-148.458c-19.813-42.156-7.339-98.644-0.18-142.497
				c36.075-221.008,188.671-409.047,329.764-574.07c56.521-66.09,115.144-141.263,212.45-127.509
				c230.365,32.58,198.8,334.812,161.512,495.247c-47.184,203.044-57.317,427.513,34.491,619.849
				c45.625,95.599,98.136,191.218,121.207,295.538C1718.602,2672.235,1669.516,2852.803,1526.09,2886.558z"/>
			<path id="_x31_80606834_1_" fill="#82C7AE" stroke="#000000" d="M921.541,2177.42c-47.619-16.949-91.418-35.705-125.553-73.918
				c-33.938-37.976-57.32-84.07-71.321-132.863c-33.753-117.629,16.837-256.799,71.905-361.762
				c43.396-82.715,103.615-153.938,159.043-228.552c56.44-75.96,107.707-154.125,171.928-224.053
				c30.1-32.771,70.924-62.881,108.706-86.138c127.603-78.557,264.522-30.154,338.117,96.033
				c50.126,85.952,60.553,186.132,59.532,284.054c-0.553,53.074-17.877,100.966-28.107,152.31
				c-6.209,31.121-16.588,61.648-24.528,92.42c-10.688,41.476-23.694,86.208-31.224,128.029
				c-8.046,44.725,0.018,99.034,6.663,143.532c7.789,52.196,13.106,108.827,30.528,158.799
				c56.451,161.848,177.826,312.053,168.349,490.37c-3.504,65.763-8.238,138.682-44.854,195.298
				c-34.938,54.022-83.477,98.437-144.072,121.742c-69.151,26.598-136.851,49.915-201.765-0.167
				c-58.857-45.408-71.78-103.467-87.709-172.571c-19.628-85.112-39.627-164.931-71.354-246.848
				c-28.411-73.345-62.17-145.493-109.041-205.713C1052.364,2250.339,996.145,2203.968,921.541,2177.42z M1064.08,2228.787
				c61.572,57.918,110.634,131.375,145.335,207.188c31.48,68.754,52.401,144.483,66.143,218.774
				c10.104,54.646,23.107,109.379,47.648,159.603c45.06,92.196,139.229,126.11,232.052,79.776
				c110.824-55.323,171.379-183.889,167.986-304.196c-3.022-107.362-57.652-202.385-104.248-296.048
				c-45.269-91-79.221-186.885-92.866-287.999c-13.97-103.556,1.923-207.375,21.674-309.033
				c11.489-59.16,24.066-118.261,33.704-177.764c8.922-55.003,13.276-110.813,6.068-166.314
				c-10.914-83.924-27.968-174.655-95.031-233.959c-57.129-50.517-131.887-65.303-203.303-38.037
				c-56.462,21.559-101.048,69.114-143.474,110.345c-30.615,29.76-45.146,70.636-72.518,102.461
				c-27.711,32.223-49.085,69.017-72.821,104.873c-51.784,78.249-118.766,145.926-164.625,228.19
				c-46.966,84.268-75.364,189.124-72.435,285.729c2.147,71.167,38.894,137.624,94.948,178.938
				c42.96,31.664,92.642,54.304,137.47,83.511C1019.994,2190.589,1042.787,2208.76,1064.08,2228.787z"/>
			<path id="_x31_80606833_1_" fill="#9AD2BD" stroke="#000000" d="M1857.37,2647.783c14.222-77.806,22.514-145.198,14.674-224.261
				c-5.024-50.601-41.282-87.007-52.12-135.599c-8.219-36.796,1.938-76.362,5.454-113.06c5.847-60.756-47.6-109.014-55.7-172.462
				c-7.229-56.667,24.485-111.371,14.75-168.641c-5.271-30.995-30.354-48.515-40.788-76.707
				c-16.546-44.733,28.935-72.738,29.539-116.385c0.345-24.082-5.515-38.365,0.261-62.703
				c14.297-60.254,22.774-106.851,12.949-169.651c-7.297-46.632-1.8-92.063-7.32-138.238
				c-4.664-39.022-20.138-84.452-32.437-121.844c-15.276-46.415-53.765-73.964-82.223-111.913
				c-62.24-82.993-182.606-122.239-282.567-130.735c-249.563-21.212-492.888,161.515-638.665,347.511
				c-143.798,183.469-224.391,417.938-188.946,651.375c15.652,103.109,55.714,200.264,105.445,291.301
				c42.327,77.473,119.521,126.388,179.649,192.152c47.8,52.279,96.192,96.797,130.434,158.838
				c25.138,45.553,64.138,76.006,81.879,128.043c18.763,55.045,22.538,97.372,57.729,146.379
				c35.598,49.584,73.818,99.322,97.208,156.328c7.942,19.322,10.325,44.017,25.888,58.953
				c15.282,14.684,43.684,19.566,61.839,30.996c151.162,95.149,302.906,16.502,424.104-88.651
				C1820.489,2890.227,1834.26,2774.346,1857.37,2647.783z M1755.579,2615.682c-3.504,65.764-8.238,138.683-44.854,195.299
				c-34.938,54.021-83.477,98.436-144.072,121.742c-69.151,26.598-136.851,49.914-201.765-0.168
				c-58.857-45.407-71.78-103.467-87.709-172.57c-19.628-85.112-39.627-164.932-71.354-246.848
				c-28.411-73.346-62.17-145.493-109.041-205.713c-44.42-57.084-100.64-103.455-175.244-130.004
				c-47.619-16.949-91.418-35.705-125.553-73.918c-33.938-37.976-57.32-84.07-71.321-132.863
				c-33.753-117.629,16.837-256.799,71.905-361.762c43.396-82.715,103.616-153.938,159.043-228.552
				c56.44-75.96,107.707-154.125,171.928-224.053c30.101-32.771,70.924-62.881,108.706-86.138
				c127.604-78.557,264.523-30.154,338.117,96.033c50.126,85.952,60.553,186.132,59.533,284.054
				c-0.554,53.074-17.879,100.966-28.108,152.31c-6.209,31.121-16.588,61.648-24.528,92.42
				c-10.689,41.476-23.693,86.208-31.224,128.029c-8.046,44.725,0.018,99.034,6.663,143.532
				c7.789,52.196,13.107,108.827,30.527,158.799C1643.681,2287.16,1765.056,2437.364,1755.579,2615.682z"/>
			<path id="_x31_80606838_1_" fill="#CCCCCC" stroke="#000000" d="M338.135,2765.237c15.799,77.393,81.228,158.981,153.656,231.597
				c55.561,55.697,115.248,106.117,159.803,145.323c155.417,136.679,393.857,206.424,603.612,214.412
				c209.903,7.995,377.612-79.219,520.679-210.864c-2.867,2.567-5.688,5.085-8.451,7.551
				c-52.644,46.992-110.97,82.687-171.533,118.226c-52.324,30.706-112.007,56.986-173.785,59.228
				c-34.702,1.26-56.82-15.614-71.902-43.742c-18.059-33.664-45.104-58.237-75.454-80.824
				c-48.508-36.075-110.887-64.102-153.934-106.063c-37.192-36.27-76.839-74.43-108.237-116.368
				c-37.964-50.718-74.262-102.663-112.443-153.22c-49.806-65.937-113.91-122.278-156.463-192.473
				c-23.472-38.729-43.373-79.99-66.076-123.826c-52.276-100.933-118.778-192.808-169.648-294.696
				c-33.494-67.084-54.141-143.71-76.956-215.081c-20.312-63.538-0.972-123.962,3.367-188.789
				c4.911-73.233-3.892-146.281,7.565-219.144c18.732-119.148,52.361-247.438,122.639-346.476
				c13.117-18.487,26.981-36.391,41.498-53.741c-52.449,62.57-95.975,131.918-124.658,208.208
				c-68.522,182.252-101.923,348.268-118.462,540.076c-12.218,141.718,28.241,270.837,27.528,410.783
				C389.778,2491.838,309.305,2623.966,338.135,2765.237z"/>
			<path id="_x31_80606839_1_" fill="#CCCCCC" stroke="#000000" d="M1921.393,2949.24c-6.035,32.773-23.422,64.411-45.773,93.854
				c1.381-1.568,2.766-3.132,4.142-4.707c137.33-157.213,254.054-319.096,302.086-524.871
				c21.786-93.292,34.811-193.743,19.486-287.44c-13.787-84.331-31.189-168.111-49.795-250.748
				c-18.429-81.846-40.584-160.111-65.113-240.278c-80.529-263.228-140.524-643.081-388.823-810.787
				c135.709,93.205,189.801,247.267,216.051,416.834c10.722,69.287,32.138,137.012,35.762,207.34
				c2.568,49.746-2.542,99.416-3.212,149.14c-0.607,45.567,12.957,89.304,17.743,134.363c5.321,50.169,7.14,98.315-0.259,147.51
				c-13.831,91.995,8.614,184.054,28.821,273.314c10.372,45.851,27.447,91.61,23.489,138.298
				c-3.127,36.828-1.538,73.675-2.898,110.145c-4.075,108.957-16.19,223.69-60.982,323.938
				C1933.184,2867.517,1929.875,2903.172,1921.393,2949.24z"/>
			<path id="_x31_80606837_1_" fill="#AAAAAA" stroke="#000000" d="M1325.462,2030.19c4.698-19.692-12.706-50.52-18.397-69.353
				c-16.625-55.012-19.341-112.137-13.562-169.11c1.255-12.35,11.237-104.61-18.114-96.797
				c-26.633,7.095-31.289,65.112-34.632,86.241c-2.42,15.386-9.479,31.099-7.75,46.729c2.297,20.675,15.792,42.655,25.506,60.69
				c17.556,32.609,20.459,71.163,33.177,105.66C1294.077,2000.733,1318.626,2058.854,1325.462,2030.19z"/>
		</g>
	</g>
</g>
</svg>
