<?xml version="1.0" encoding="utf-8"?>
<!-- Generator: Adobe Illustrator 16.0.0, SVG Export Plug-In . SVG Version: 6.00 Build 0)  -->
<!DOCTYPE svg PUBLIC "-//W3C//DTD SVG 1.1//EN" "http://www.w3.org/Graphics/SVG/1.1/DTD/svg11.dtd">
<svg version="1.1" id="Layer_1" xmlns="http://www.w3.org/2000/svg" xmlns:xlink="http://www.w3.org/1999/xlink" x="0px" y="0px"
	 width="4608px" height="4416px" viewBox="0 0 4608 4416" enable-background="new 0 0 4608 4416" xml:space="preserve">
<g>
	<g transform="scale(1.0)">
		<g id="_x31_80606903" transform=" scale(1.0, 1.0)">
			<path id="_x31_80606905" fill="#BFDAE3" stroke="#000000" d="M4197.236,3011.687c-86.051,287.962-346.1,456.477-611.861,559.681
				c-150.988,58.643-323.576,115.909-484.309,71.359c-121.244-33.604-256.764-98.485-368.4-158.717
				c-137.896-74.398-242.006-201.924-318.17-336.938c-101.311-179.596-113.246-422.721-110.054-625.173
				c1.072-67.773,3.896-136.144,8.15-203.808c10.391-165.085,40.607-327.158,62.428-491.209
				c26.686-200.659,60.447-438.316,154.42-619.82c49.717-96.032,93.287-208.65,171.555-285.619
				c93.186-91.636,225.713-132.523,353.201-149.471c89.646-11.916,166.186-24.15,266.01-3.345
				c85.883,17.903,171.182,66.063,246.574,109.611c86.836,50.157,199.117,114.971,270.363,184.64
				c207.184,202.597,333.262,448.547,370.758,737.772c14.502,111.881,28.367,224.291,30.494,337.226
				c2.094,111.436-36.361,194.557-48.416,302.657c-14.277,128.122,31.838,250.394,33.955,377.015
				C4225.061,2885.03,4215.645,2950.083,4197.236,3011.687z"/>
			<path id="_x31_80606906" fill="#B0FFB8" stroke="#000000" d="M3837.141,1062.878c-71.244-69.669-183.525-134.482-270.361-184.639
				c-75.395-43.547-160.693-91.708-246.574-109.611c-99.824-20.805-176.365-8.57-266.01,3.346
				c-127.49,16.948-260.018,57.833-353.203,149.471c-78.268,76.967-121.838,189.585-171.553,285.618
				c-93.975,181.504-127.736,419.163-154.42,619.82c-21.82,164.052-52.037,326.125-62.428,491.209
				c-4.254,67.664-7.078,136.036-8.15,203.809c-3.194,202.45,8.742,445.577,110.052,625.172
				c76.164,135.015,180.275,262.539,318.172,336.938c111.637,60.231,247.154,125.112,368.4,158.717
				c160.732,44.55,333.318-12.718,484.309-71.358c265.76-103.204,525.809-271.719,611.861-559.682
				c18.406-61.602,27.822-126.656,26.695-194.137c-2.115-126.623-48.232-248.894-33.955-377.017
				c12.055-108.1,50.51-191.224,48.416-302.656c-2.127-112.935-15.99-225.345-30.494-337.226
				C4170.402,1511.426,4044.324,1265.475,3837.141,1062.878z M3280.021,1842.425c-9.129,29.455-24.672,56.721-34.672,85.939
				c-10.973,32.047-18.723,65.162-30.4,96.979c-9.268,25.228-16.393,52.686-23.467,78.66c-7.654,28.106-18.932,53.973-24.088,83.296
				c-2.604,14.806-1.893,50.43-16.455,58.247c-8.451-10.303,2.699-33.675,5.779-45.396c17.945-68.209,34.979-139.172,38.953-210.033
				c2.383-42.349,6.395-84.589,10.412-126.818c3.498-36.852,12.842-71.272,12.988-108.928c0.076-18.458-0.426-37.837,22.65-29.661
				C3290.602,1742.037,3293.148,1800.061,3280.021,1842.425z"/>
			<path id="_x31_80606907" fill="#9AD2BD" stroke="#000000" d="M3837.141,1062.878c-71.244-69.669-183.525-134.482-270.361-184.639
				c-75.395-43.547-160.693-91.708-246.574-109.611c-99.824-20.805-176.365-8.57-266.01,3.346
				c-127.49,16.948-260.018,57.833-353.203,149.471c-78.268,76.967-121.838,189.585-171.553,285.618
				c-93.975,181.504-127.736,419.163-154.42,619.82c-21.82,164.052-52.037,326.125-62.428,491.209
				c-4.254,67.664-7.078,136.036-8.15,203.809c-3.194,202.45,8.742,445.577,110.052,625.172
				c76.164,135.015,180.275,262.539,318.172,336.938c111.637,60.231,247.154,125.112,368.4,158.717
				c160.732,44.55,333.318-12.718,484.309-71.358c265.76-103.204,525.809-271.719,611.861-559.682
				c18.406-61.602,27.822-126.656,26.695-194.137c-2.115-126.623-48.232-248.894-33.955-377.017
				c12.055-108.1,50.51-191.224,48.416-302.656c-2.127-112.935-15.99-225.345-30.494-337.226
				C4170.402,1511.426,4044.324,1265.475,3837.141,1062.878z M3280.021,1842.425c-9.129,29.455-24.672,56.721-34.672,85.939
				c-10.973,32.047-18.723,65.162-30.4,96.979c-9.268,25.228-16.393,52.686-23.467,78.66c-7.654,28.106-18.932,53.973-24.088,83.296
				c-2.604,14.806-1.893,50.43-16.455,58.247c-8.451-10.303,2.699-33.675,5.779-45.396c17.945-68.209,34.979-139.172,38.953-210.033
				c2.383-42.349,6.395-84.589,10.412-126.818c3.498-36.852,12.842-71.272,12.988-108.928c0.076-18.458-0.426-37.837,22.65-29.661
				C3290.602,1742.037,3293.148,1800.061,3280.021,1842.425z"/>
			<path id="_x31_80606908" fill="#9AD2BD" stroke="#000000" d="M3837.141,1062.878c-71.244-69.669-183.525-134.482-270.361-184.639
				c-75.395-43.547-160.693-91.708-246.574-109.611c-99.824-20.805-176.365-8.57-266.01,3.346
				c-127.49,16.948-260.018,57.833-353.203,149.471c-78.268,76.967-121.838,189.585-171.553,285.618
				c-93.975,181.504-127.736,419.163-154.42,619.82c-21.82,164.052-52.037,326.125-62.428,491.209
				c-4.254,67.664-7.078,136.036-8.15,203.809c-3.194,202.45,8.742,445.577,110.052,625.172
				c76.164,135.015,180.275,262.539,318.172,336.938c111.637,60.231,247.154,125.112,368.4,158.717
				c160.732,44.55,333.318-12.718,484.309-71.358c265.76-103.204,525.809-271.719,611.861-559.682
				c18.406-61.602,27.822-126.656,26.695-194.137c-2.115-126.623-48.232-248.894-33.955-377.017
				c12.055-108.1,50.51-191.224,48.416-302.656c-2.127-112.935-15.99-225.345-30.494-337.226
				C4170.402,1511.426,4044.324,1265.475,3837.141,1062.878z M3280.021,1842.425c-9.129,29.455-24.672,56.721-34.672,85.939
				c-10.973,32.047-18.723,65.162-30.4,96.979c-9.268,25.228-16.393,52.686-23.467,78.66c-7.654,28.106-18.932,53.973-24.088,83.296
				c-2.604,14.806-1.893,50.43-16.455,58.247c-8.451-10.303,2.699-33.675,5.779-45.396c17.945-68.209,34.979-139.172,38.953-210.033
				c2.383-42.349,6.395-84.589,10.412-126.818c3.498-36.852,12.842-71.272,12.988-108.928c0.076-18.458-0.426-37.837,22.65-29.661
				C3290.602,1742.037,3293.148,1800.061,3280.021,1842.425z"/>
			<path id="_x31_80606909" fill="#82C7AE" stroke="#000000" d="M2453.322,1919.5c-8.531,107.093-12.387,208.382-11.445,315.613
				c1.529,174.086-36.33,351.491,0.049,524.068c24.5,116.262,88.723,208.626,143.299,310.798c0.795,1.479,1.582,2.954,2.361,4.432
				c88.52,167.066,217.5,339.014,386.416,427.715c86.717,45.543,188.463,68.104,286.816,60.716
				c137.148-10.294,206.973-119.976,269.68-227.234c81.357-139.144,138.145-281.02,172.898-439.251
				c32.291-147.08,153.832-257.287,234.168-377.36c83.967-125.451,118.684-301.585,165.129-443.837
				c26.732-81.864,70.811-164.646,76.244-251.578c6.572-105.141-7.852-205.069-38.408-299.344
				c-63.855-172.899-165.705-326.683-303.385-461.312c-71.242-69.667-183.518-134.478-270.357-184.634
				c-75.396-43.544-160.693-91.706-246.568-109.605c-99.826-20.806-176.361-8.569-266.008,3.342
				c-127.486,16.951-260.016,57.835-353.201,149.471c-78.27,76.967-121.838,189.58-171.549,285.61
				c-1.295,2.502-2.574,5.017-3.846,7.54c-0.77,1.525-1.527,3.054-2.285,4.583c-0.355,0.715-0.711,1.428-1.063,2.144
				c-69.816,142.105-93.377,302.062-90.449,460.415C2433.318,1763.157,2459.996,1835.867,2453.322,1919.5z M2570.244,2465.165
				c31.523-110.089,106.107-270.589,85.867-386.059c-8.658-49.391-18.844-64.777-5.512-115.147
				c11.957-45.143,2.992-89.924,2.59-135.593c-0.371-41.15,11.564-78.492,13.465-119.049
				c3.211-68.677-25.873-135.925-17.418-203.952c8.357-67.341,39.801-133.677,58.504-198.624
				c26.754-92.981,37.029-204.345,99.102-280.693c62.918-77.39,145.809-141.746,242.799-169.079
				c177.43-49.994,358.449,29.736,491.904,146.823c57.207,50.189,109.691,104.13,170.969,149.62
				c111.322,82.636,185.076,203.034,235.613,330.076c40.941,102.95,61.99,218.557,74.082,328.365
				c21.037,190.905-113.602,301.175-177.369,463.114c-8.805,22.382-19.75,43.697-32.311,64.188
				c-69.254,113.023-187.465,201.026-266.51,305.341c-47.416,62.565-91.078,140.812-99.023,220.5
				c-8.889,89.134-15.395,171.855-34.09,259.037c-11.016,51.344-32.561,99.203-50.676,148.229
				c-15.695,42.49-17.857,99.676-56.48,127.329c-72.381,51.835-157.023,29.081-231.453-3.356
				c-71.855-31.305-142.918-41.211-202.643-97.621c-81.742-77.188-127.342-172.157-185.564-265.751
				c-63.314-101.777-58.775-186.769-80.02-298.367C2587.076,2634.631,2540.566,2568.811,2570.244,2465.165z"/>
			<path id="_x31_80606913" fill="#82C7AE" stroke="#000000" d="M3580.893,2123.111c-55.969,48.278-114.518,95.219-167.146,147.127
				c-147.635,145.596-185.568,375.195-193.361,574.346c-3.172,80.851,6.65,167.474-13.482,246.656
				c-54.758,215.343-298.125-38.653-343.869-127.595c-43.496-84.587-68.91-159.664-62.799-255.256
				c5.676-88.731,16.393-168.688,60.813-247.148c102.215-180.544,129.863-362.401,113.313-569.007
				c-8.408-104.908-58.842-200.304-63.145-307.28c-5.789-143.775,23.383-463.195,227.273-465.26
				c70.682-0.717,156.764,60.159,208.479,104.644c168.209,144.737,372.377,351.268,387.885,585.94
				C3743.207,1936.928,3673.869,2042.916,3580.893,2123.111z M3206.078,1863.274c-4.016,42.232-8.039,84.474-10.412,126.825
				c-3.98,70.868-21.008,141.828-38.955,210.033c-3.086,11.731-14.236,35.104-5.777,45.401
				c14.555-7.812,13.852-43.441,16.453-58.252c5.15-29.318,16.436-55.19,24.084-83.294c7.082-25.973,14.207-53.432,23.475-78.661
				c11.68-31.82,19.42-64.927,30.393-96.979c10-29.214,25.553-56.488,34.682-85.942c13.119-42.367,10.57-100.393-38.311-117.718
				c-23.078-8.176-22.576,11.199-22.648,29.662C3218.922,1792.007,3209.578,1826.42,3206.078,1863.274z"/>
			<path id="_x31_80606912" fill="#9AD2BD" stroke="#000000" d="M2931.721,3106.428c50.672,69.055,125.371,124.396,210.125,123.737
				c98.9-0.773,110.982-100.296,116.436-190.308c3.855-63.683-1.859-115.049-0.494-178.518
				c1.174-54.929,2.438-102.641,9.762-155.962c15.094-109.831,32.299-220.061,93.479-312.063
				c14.473-21.757,44.699-52.56,61.313-72.389c58.191-69.429,136.672-135.892,204.115-193.792
				c62.172-53.378,108.186-132.28,135.746-211.478c50.793-145.933-53.641-357.38-137.188-466.277
				c-45.047-58.72-88.734-118.552-139.703-171.552c-118.891-123.638-338.355-325.632-490.895-141.228
				c-66.977,80.965-115.635,226.271-117.785,334.694c-1.48,74.823,1.82,151.112,13.41,224.795
				c9.939,63.109,35.191,122.888,44.359,187.351c21.637,152.405,9.205,339.78-63.709,478.248
				c-99.244,188.444-137.053,389.137-48.258,584.494C2848.73,3004.022,2894.777,3056.099,2931.721,3106.428z M2800.25,2708.393
				c5.676-88.73,16.4-168.685,60.813-247.146c102.211-180.532,129.857-362.395,113.307-568.993
				c-8.398-104.907-58.832-200.3-63.135-307.274c-5.781-143.772,23.383-463.184,227.279-465.247
				c70.668-0.716,156.754,60.155,208.463,104.642c168.213,144.733,372.373,351.259,387.875,585.933
				c8.354,126.639-60.982,232.627-153.965,312.819c-55.959,48.271-114.508,95.216-167.143,147.124
				c-147.631,145.589-185.57,375.188-193.355,574.333c-3.172,80.849,6.641,167.472-13.482,246.654
				c-54.756,215.331-298.115-38.657-343.861-127.601C2819.553,2879.054,2794.139,2803.982,2800.25,2708.393z"/>
			<path id="_x31_80606911" fill="#82C7AE" stroke="#000000" d="M3422.334,2320.913c-16.605,19.832-46.842,50.637-61.314,72.389
				c-61.174,92.005-78.379,202.24-93.465,312.072c-7.332,53.323-8.588,101.034-9.768,155.967
				c-1.359,63.469,4.355,114.835,0.5,178.52c-5.451,90.017-17.543,189.539-116.447,190.313
				c-84.746,0.661-159.455-54.682-210.123-123.744c-36.941-50.321-82.99-102.401-109.289-160.241
				c-88.803-195.361-51.002-396.055,48.252-584.504c72.916-138.477,85.342-325.851,63.703-478.26
				c-9.166-64.467-34.412-124.248-44.361-187.356c-11.598-73.679-14.898-149.971-13.416-224.795
				c2.148-108.429,50.816-253.738,117.797-334.707c152.533-184.409,372.012,17.585,490.896,141.227
				c50.969,53,94.658,112.834,139.707,171.551c83.557,108.9,187.994,320.355,137.199,466.287
				c-27.561,79.203-73.574,158.107-135.748,211.489C3559.016,2185.009,3480.527,2251.485,3422.334,2320.913z M3673.539,2135.6
				c69.225-54.893,120.949-144.988,151.211-226.941c55.748-151.005-62.869-371.185-157.289-484.808
				c-50.908-61.268-100.305-123.679-157.803-179.063c-134.127-129.187-382.297-331.854-551.697-141.725
				c-74.396,83.483-126.98,225.258-128.547,337.725c-1.074,77.615,3.225,156.786,16.775,233.317
				c11.631,65.556,40.379,127.771,51.125,194.72c25.439,158.278,22.254,353.438-58.35,496.53
				c-109.684,194.74-141.182,403.518-40.217,606.879c29.906,60.207,63.309,112.864,105.066,165.361
				c57.301,72.034,141.393,130.031,236.314,130.006c110.77-0.036,132.811-102.331,138.229-195.669
				c3.822-66.04-5.34-131.5-4.322-197.328c0.896-56.973,11.219-105.607,19.014-160.862
				c16.045-113.831,43.756-227.192,111.566-322.163c16.037-22.465,33.455-43.795,51.9-64.232
				C3521.148,2255.757,3598.461,2195.135,3673.539,2135.6z"/>
			<path id="_x31_80606910" fill="#9AD2BD" stroke="#000000" d="M2686.088,3032.863c58.221,93.594,103.822,188.563,185.564,265.75
				c59.727,56.41,130.787,66.317,202.643,97.621c74.43,32.438,159.072,55.191,231.451,3.356
				c38.623-27.653,40.785-84.839,56.482-127.329c18.115-49.025,39.66-96.885,50.676-148.227
				c18.695-87.183,25.201-169.905,34.09-259.039c7.943-79.688,51.607-157.935,99.023-220.5
				c79.045-104.313,197.256-192.317,266.51-305.341c12.561-20.49,23.506-41.805,32.311-64.188
				c63.768-161.938,198.406-272.208,177.369-463.113c-12.094-109.809-33.141-225.417-74.082-328.366
				c-50.537-127.043-124.291-247.44-235.613-330.075c-61.279-45.49-113.762-99.432-170.969-149.621
				c-133.453-117.086-314.475-196.817-491.904-146.824c-96.99,27.333-179.881,91.689-242.799,169.079
				c-62.074,76.348-72.348,187.711-99.102,280.693c-18.703,64.946-50.148,131.284-58.504,198.624
				c-8.455,68.027,20.631,135.273,17.418,203.952c-1.898,40.557-13.834,77.899-13.465,119.049
				c0.402,45.669,9.367,90.45-2.59,135.593c-13.332,50.37-3.146,65.757,5.51,115.147c20.24,115.47-54.344,275.969-85.865,386.058
				c-29.678,103.646,16.832,169.465,35.822,269.331C2627.311,2846.094,2622.773,2931.085,2686.088,3032.863z M2838.986,2365.358
				c80.602-143.089,83.779-338.24,58.355-496.521c-10.754-66.942-39.5-129.158-51.123-194.711
				c-13.559-76.529-17.857-155.697-16.775-233.312c1.568-112.465,54.15-254.241,128.535-337.721
				c169.406-190.122,417.57,12.545,551.695,141.732c57.492,55.38,106.881,117.793,157.789,179.059
				c94.416,113.625,213.033,333.797,157.275,484.799c-30.252,81.955-81.975,172.043-151.205,226.937
				c-75.074,59.539-152.377,120.152-217.008,191.736c-18.455,20.44-35.869,41.771-51.91,64.232
				c-67.814,94.968-95.516,208.325-111.563,322.158c-7.793,55.249-18.115,103.882-19.01,160.856
				c-1.029,65.823,8.141,131.284,4.311,197.324c-5.408,93.334-27.457,195.628-138.223,195.665
				c-94.92,0.021-179.012-57.976-236.303-130.01c-41.754-52.495-75.164-105.148-105.063-165.357
				C2697.799,2768.868,2729.289,2560.097,2838.986,2365.358z"/>
			<path id="_x31_80606914" fill="#CCCCCC" stroke="#000000" d="M4140.527,1524.236c30.557,94.275,44.98,194.203,38.408,299.343
				c-5.436,86.932-49.51,169.714-76.244,251.578c-46.445,142.253-81.162,318.387-165.129,443.838
				c-80.336,120.072-201.877,230.281-234.168,377.359c-34.754,158.233-91.541,300.107-172.898,439.252
				c-62.707,107.259-132.531,216.94-269.68,227.234c-98.352,7.387-200.098-15.174-286.816-60.718
				c-168.916-88.699-297.895-260.647-386.416-427.713c-0.779-1.477-1.566-2.953-2.363-4.432
				c-54.574-102.173-118.797-194.536-143.297-310.799c-36.379-172.576,1.48-349.982-0.049-524.067
				c-0.941-107.231,2.914-208.52,11.445-315.614c6.674-83.633-20.004-156.341-21.506-237.711
				c-2.926-158.354,20.633-318.311,90.449-460.414c-88.523,179.564-121.238,410.101-147.23,605.54
				c-21.822,164.043-52.033,326.116-62.422,491.193c-4.262,67.667-7.084,136.033-8.159,203.805
				c-3.188,202.445,8.749,445.563,110.057,625.155c76.164,135.009,180.271,262.531,318.17,336.93
				c111.633,60.229,247.15,125.106,368.393,158.712c160.732,44.548,333.313-12.719,484.307-71.359
				c265.758-103.201,525.801-271.714,611.854-559.666c18.402-61.603,27.818-126.655,26.695-194.136
				c-2.117-126.619-48.232-248.884-33.951-377.005c12.049-108.097,50.508-191.219,48.414-302.649
				c-2.127-112.932-15.99-225.338-30.492-337.216C4195.322,1703.657,4172.758,1611.514,4140.527,1524.236z"/>
			<path id="_x31_80606915" fill="#AAAAAA" stroke="#000000" d="M3219.07,1754.369c0.076-18.458-0.426-37.836,22.65-29.66
				c48.879,17.327,51.43,75.351,38.301,117.715c-9.129,29.454-24.672,56.721-34.672,85.939
				c-10.973,32.047-18.723,65.162-30.4,96.979c-9.268,25.228-16.393,52.686-23.467,78.659
				c-7.654,28.106-18.932,53.973-24.088,83.296c-2.604,14.806-1.893,50.43-16.455,58.247c-8.451-10.303,2.699-33.675,5.779-45.396
				c17.945-68.209,34.979-139.172,38.953-210.032c2.383-42.351,6.395-84.59,10.412-126.818
				C3209.58,1826.446,3218.924,1792.026,3219.07,1754.369z"/>
		</g>
	</g>
	<g transform="scale(1.0)">
		<g id="_x31_80606903_1_" transform=" scale(1.0, 1.0)">
			<path id="_x31_80606905_1_" fill="#BFDAE3" stroke="#000000" d="M384.067,2817.547c2.117-126.621,48.231-248.893,33.954-377.015
				c-12.054-108.101-50.509-191.222-48.415-302.657c2.126-112.936,15.991-225.345,30.494-337.226
				c37.496-289.225,163.574-535.176,370.758-737.772c71.246-69.669,183.527-134.482,270.362-184.64
				c75.394-43.548,160.692-91.708,246.574-109.611c99.824-20.805,176.364-8.57,266.01,3.345
				c127.488,16.948,260.017,57.834,353.202,149.471c78.268,76.969,121.837,189.587,171.554,285.619
				c93.973,181.504,127.736,419.162,154.42,619.82c21.821,164.051,52.037,326.125,62.427,491.209
				c4.255,67.664,7.078,136.034,8.15,203.808c3.192,202.452-8.743,445.577-110.053,625.173
				c-76.165,135.015-180.275,262.54-318.171,336.938c-111.636,60.231-247.155,125.112-368.399,158.717
				c-160.733,44.55-333.32-12.717-484.31-71.359c-265.762-103.204-525.81-271.719-611.861-559.681
				C392.356,2950.083,382.94,2885.03,384.067,2817.547z"/>
			<path id="_x31_80606906_1_" fill="#B0FFB8" stroke="#000000" d="M400.101,1800.652c-14.504,111.88-28.367,224.291-30.494,337.226
				c-2.093,111.433,36.362,194.557,48.416,302.656c14.278,128.123-31.839,250.394-33.954,377.017
				c-1.128,67.48,8.289,132.535,26.695,194.137c86.053,287.963,346.101,456.478,611.861,559.682
				c150.99,58.641,323.576,115.908,484.309,71.358c121.246-33.604,256.764-98.485,368.4-158.717
				c137.896-74.399,242.007-201.924,318.171-336.938c101.312-179.595,113.247-422.722,110.054-625.172
				c-1.072-67.772-3.896-136.145-8.15-203.809c-10.391-165.085-40.607-327.157-62.427-491.209
				c-26.684-200.657-60.447-438.316-154.42-619.82c-49.716-96.033-93.286-208.651-171.554-285.618
				c-93.186-91.637-225.712-132.523-353.202-149.471c-89.645-11.916-166.186-24.151-266.01-3.346
				c-85.881,17.902-171.181,66.063-246.574,109.611c-86.836,50.157-199.117,114.97-270.362,184.639
				C563.675,1265.475,437.597,1511.426,400.101,1800.652z M1366.277,1724.708c23.077-8.176,22.575,11.203,22.65,29.661
				c0.147,37.656,9.49,72.077,12.988,108.928c4.019,42.229,8.03,84.469,10.412,126.818c3.975,70.861,21.008,141.824,38.954,210.033
				c3.079,11.722,14.23,35.094,5.778,45.396c-14.562-7.816-13.852-43.441-16.454-58.246c-5.156-29.323-16.435-55.189-24.088-83.297
				c-7.075-25.973-14.199-53.432-23.467-78.659c-11.679-31.817-19.428-64.932-30.401-96.979
				c-9.999-29.218-25.543-56.485-34.671-85.939C1314.851,1800.061,1317.399,1742.037,1366.277,1724.708z"/>
			<path id="_x31_80606907_1_" fill="#9AD2BD" stroke="#000000" d="M400.101,1800.652c-14.504,111.88-28.367,224.291-30.494,337.226
				c-2.093,111.433,36.362,194.557,48.416,302.656c14.278,128.123-31.839,250.394-33.954,377.017
				c-1.128,67.48,8.289,132.535,26.695,194.137c86.053,287.963,346.101,456.478,611.861,559.682
				c150.99,58.641,323.576,115.908,484.309,71.358c121.246-33.604,256.764-98.485,368.4-158.717
				c137.896-74.399,242.007-201.924,318.171-336.938c101.312-179.595,113.247-422.722,110.054-625.172
				c-1.072-67.772-3.896-136.145-8.15-203.809c-10.391-165.085-40.607-327.157-62.427-491.209
				c-26.684-200.657-60.447-438.316-154.42-619.82c-49.716-96.033-93.286-208.651-171.554-285.618
				c-93.186-91.637-225.712-132.523-353.202-149.471c-89.645-11.916-166.186-24.151-266.01-3.346
				c-85.881,17.902-171.181,66.063-246.574,109.611c-86.836,50.157-199.117,114.97-270.362,184.639
				C563.675,1265.475,437.597,1511.426,400.101,1800.652z M1366.277,1724.708c23.077-8.176,22.575,11.203,22.65,29.661
				c0.147,37.656,9.49,72.077,12.988,108.928c4.019,42.229,8.03,84.469,10.412,126.818c3.975,70.861,21.008,141.824,38.954,210.033
				c3.079,11.722,14.23,35.094,5.778,45.396c-14.562-7.816-13.852-43.441-16.454-58.246c-5.156-29.323-16.435-55.189-24.088-83.297
				c-7.075-25.973-14.199-53.432-23.467-78.659c-11.679-31.817-19.428-64.932-30.401-96.979
				c-9.999-29.218-25.543-56.485-34.671-85.939C1314.851,1800.061,1317.399,1742.037,1366.277,1724.708z"/>
			<path id="_x31_80606908_1_" fill="#9AD2BD" stroke="#000000" d="M400.101,1800.652c-14.504,111.88-28.367,224.291-30.494,337.226
				c-2.093,111.433,36.362,194.557,48.416,302.656c14.278,128.123-31.839,250.394-33.954,377.017
				c-1.128,67.48,8.289,132.535,26.695,194.137c86.053,287.963,346.101,456.478,611.861,559.682
				c150.99,58.641,323.576,115.908,484.309,71.358c121.246-33.604,256.764-98.485,368.4-158.717
				c137.896-74.399,242.007-201.924,318.171-336.938c101.312-179.595,113.247-422.722,110.054-625.172
				c-1.072-67.772-3.896-136.145-8.15-203.809c-10.391-165.085-40.607-327.157-62.427-491.209
				c-26.684-200.657-60.447-438.316-154.42-619.82c-49.716-96.033-93.286-208.651-171.554-285.618
				c-93.186-91.637-225.712-132.523-353.202-149.471c-89.645-11.916-166.186-24.151-266.01-3.346
				c-85.881,17.902-171.181,66.063-246.574,109.611c-86.836,50.157-199.117,114.97-270.362,184.639
				C563.675,1265.475,437.597,1511.426,400.101,1800.652z M1366.277,1724.708c23.077-8.176,22.575,11.203,22.65,29.661
				c0.147,37.656,9.49,72.077,12.988,108.928c4.019,42.229,8.03,84.469,10.412,126.818c3.975,70.861,21.008,141.824,38.954,210.033
				c3.079,11.722,14.23,35.094,5.778,45.396c-14.562-7.816-13.852-43.441-16.454-58.246c-5.156-29.323-16.435-55.189-24.088-83.297
				c-7.075-25.973-14.199-53.432-23.467-78.659c-11.679-31.817-19.428-64.932-30.401-96.979
				c-9.999-29.218-25.543-56.485-34.671-85.939C1314.851,1800.061,1317.399,1742.037,1366.277,1724.708z"/>
			<path id="_x31_80606909_1_" fill="#82C7AE" stroke="#000000" d="M2176.181,1681.79c2.928-158.353-20.632-318.31-90.448-460.415
				c-0.353-0.716-0.707-1.429-1.063-2.144c-0.757-1.53-1.517-3.058-2.285-4.583c-1.272-2.523-2.552-5.038-3.847-7.54
				c-49.711-96.03-93.278-208.643-171.548-285.61c-93.186-91.635-225.716-132.52-353.202-149.471
				c-89.646-11.912-166.181-24.148-266.008-3.342c-85.875,17.899-171.172,66.061-246.567,109.605
				c-86.841,50.156-199.116,114.967-270.357,184.634c-137.681,134.629-239.53,288.413-303.385,461.312
				c-30.558,94.275-44.981,194.203-38.408,299.344c5.434,86.932,49.511,169.713,76.244,251.578
				c46.444,142.252,81.162,318.386,165.129,443.837c80.336,120.073,201.877,230.28,234.167,377.36
				c34.754,158.231,91.542,300.107,172.899,439.251c62.706,107.259,132.531,216.94,269.679,227.234
				c98.354,7.389,200.1-15.173,286.817-60.716c168.915-88.701,297.896-260.648,386.416-427.715c0.779-1.478,1.565-2.953,2.361-4.432
				c54.577-102.172,118.798-194.536,143.299-310.798c36.379-172.577-1.481-349.982,0.049-524.068
				c0.94-107.23-2.914-208.52-11.446-315.613C2148.005,1835.867,2174.682,1763.157,2176.181,1681.79z M2001.93,2734.495
				c-21.244,111.599-16.706,196.59-80.021,298.367c-58.222,93.594-103.822,188.563-185.563,265.751
				c-59.726,56.41-130.787,66.316-202.643,97.621c-74.43,32.438-159.072,55.191-231.453,3.356
				c-38.623-27.653-40.785-84.839-56.48-127.329c-18.115-49.025-39.661-96.885-50.677-148.229
				c-18.694-87.182-25.201-169.903-34.089-259.037c-7.945-79.688-51.607-157.935-99.023-220.5
				c-79.046-104.314-197.257-192.317-266.511-305.341c-12.56-20.49-23.506-41.806-32.311-64.188
				c-63.768-161.938-198.406-272.209-177.369-463.114c12.093-109.808,33.142-225.416,74.082-328.365
				c50.538-127.042,124.291-247.44,235.614-330.076c61.277-45.49,113.762-99.43,170.968-149.62
				c133.455-117.087,314.475-196.817,491.904-146.823c96.99,27.333,179.882,91.688,242.799,169.079
				c62.072,76.348,72.348,187.712,99.102,280.693c18.703,64.947,50.147,131.283,58.505,198.624
				c8.454,68.027-20.63,135.275-17.419,203.952c1.9,40.557,13.836,77.899,13.466,119.049c-0.403,45.669-9.368,90.45,2.589,135.593
				c13.333,50.37,3.147,65.756-5.511,115.147c-20.241,115.47,54.344,275.97,85.866,386.059
				C2067.435,2568.811,2020.924,2634.631,2001.93,2734.495z"/>
			<path id="_x31_80606913_1_" fill="#82C7AE" stroke="#000000" d="M873.148,1810.278
				c15.509-234.672,219.676-441.203,387.885-585.94c51.716-44.485,137.798-105.361,208.479-104.644
				c203.891,2.065,233.063,321.485,227.274,465.26c-4.303,106.976-54.736,202.372-63.145,307.28
				c-16.551,206.606,11.097,388.463,113.312,569.007c44.421,78.46,55.137,158.417,60.813,247.148
				c6.11,95.592-19.304,170.669-62.799,255.256c-45.745,88.941-289.112,342.938-343.869,127.595
				c-20.133-79.183-10.311-165.806-13.482-246.656c-7.794-199.15-45.728-428.75-193.361-574.346
				c-52.63-51.908-111.178-98.849-167.146-147.127C934.131,2042.916,864.792,1936.928,873.148,1810.278z M1388.939,1754.348
				c-0.072-18.463,0.43-37.838-22.648-29.662c-48.88,17.325-51.429,75.352-38.31,117.718c9.128,29.454,24.681,56.728,34.681,85.942
				c10.973,32.052,18.714,65.159,30.394,96.979c9.268,25.229,16.392,52.688,23.474,78.66c7.649,28.105,18.935,53.977,24.084,83.295
				c2.602,14.811,1.898,50.44,16.453,58.252c8.46-10.298-2.69-33.67-5.777-45.401c-17.947-68.206-34.975-139.165-38.955-210.033
				c-2.373-42.351-6.396-84.592-10.412-126.825C1398.422,1826.42,1389.078,1792.007,1388.939,1754.348z"/>
			<path id="_x31_80606912_1_" fill="#9AD2BD" stroke="#000000" d="M1785.567,2946.183c88.794-195.357,50.986-396.05-48.259-584.494
				c-72.913-138.468-85.346-325.843-63.708-478.248c9.167-64.463,34.42-124.242,44.358-187.351
				c11.591-73.683,14.892-149.972,13.41-224.795c-2.149-108.423-50.808-253.729-117.785-334.694
				c-152.538-184.404-372.003,17.59-490.895,141.228c-50.968,53-94.655,112.832-139.702,171.552
				c-83.547,108.897-187.981,320.344-137.188,466.277c27.561,79.198,73.574,158.1,135.747,211.478
				c67.443,57.9,145.924,124.363,204.114,193.792c16.613,19.829,46.841,50.632,61.313,72.389
				c61.18,92.002,78.385,202.231,93.479,312.063c7.324,53.321,8.588,101.033,9.762,155.962
				c1.366,63.469-4.349,114.835-0.493,178.518c5.452,90.012,17.534,189.534,116.436,190.308
				c84.753,0.659,159.453-54.683,210.125-123.737C1713.222,3056.099,1759.27,3004.022,1785.567,2946.183z M1744.955,2963.639
				c-45.745,88.943-289.105,342.932-343.861,127.601c-20.123-79.183-10.311-165.806-13.482-246.654
				c-7.785-199.145-45.725-428.744-193.354-574.333c-52.636-51.908-111.184-98.854-167.144-147.124
				c-92.981-80.192-162.317-186.181-153.965-312.819c15.502-234.674,219.662-441.2,387.876-585.933
				c51.708-44.487,137.795-105.358,208.463-104.642c203.896,2.063,233.06,321.474,227.279,465.247
				c-4.304,106.974-54.736,202.367-63.136,307.274c-16.55,206.598,11.096,388.461,113.308,568.993
				c44.411,78.461,55.136,158.415,60.812,247.146C1813.861,2803.982,1788.447,2879.054,1744.955,2963.639z"/>
			<path id="_x31_80606911_1_" fill="#82C7AE" stroke="#000000" d="M981.543,2127.121
				c-62.175-53.383-108.188-132.287-135.749-211.49c-50.795-145.932,53.643-357.387,137.2-466.287
				c45.048-58.717,88.738-118.551,139.707-171.551c118.885-123.642,338.363-325.636,490.896-141.227
				c66.98,80.968,115.648,226.278,117.796,334.707c1.483,74.824-1.818,151.116-13.416,224.795
				c-9.948,63.108-35.194,122.89-44.36,187.356c-21.639,152.408-9.213,339.783,63.702,478.26
				c99.255,188.449,137.056,389.143,48.252,584.504c-26.298,57.84-72.347,109.92-109.289,160.241
				c-50.667,69.063-125.377,124.405-210.123,123.744c-98.903-0.773-110.996-100.296-116.446-190.313
				c-3.856-63.685,1.859-115.051,0.5-178.52c-1.18-54.933-2.437-102.644-9.769-155.967
				c-15.085-109.832-32.291-220.067-93.464-312.072c-14.473-21.752-44.709-52.557-61.314-72.389
				C1127.473,2251.485,1048.985,2185.009,981.543,2127.121z M1151.484,2327.346c18.446,20.438,35.864,41.768,51.9,64.232
				c67.811,94.971,95.521,208.332,111.567,322.163c7.794,55.255,18.116,103.89,19.013,160.862
				c1.018,65.828-8.144,131.288-4.322,197.328c5.418,93.338,27.46,195.633,138.229,195.669
				c94.921,0.025,179.013-57.972,236.314-130.006c41.757-52.497,75.16-105.154,105.066-165.361
				c100.965-203.361,69.467-412.139-40.218-606.879c-80.604-143.092-83.788-338.253-58.35-496.53
				c10.746-66.949,39.494-129.164,51.126-194.72c13.551-76.531,17.85-155.703,16.775-233.317
				c-1.567-112.467-54.151-254.242-128.547-337.725c-169.401-190.129-417.571,12.538-551.698,141.725
				c-57.497,55.385-106.895,117.796-157.803,179.063c-94.419,113.623-213.037,333.803-157.288,484.808
				c30.262,81.953,81.985,172.049,151.21,226.941C1009.539,2195.135,1086.851,2255.757,1151.484,2327.346z"/>
			<path id="_x31_80606910_1_" fill="#9AD2BD" stroke="#000000" d="M2001.935,2734.496c18.991-99.866,65.501-165.685,35.822-269.331
				c-31.521-110.089-106.105-270.588-85.865-386.058c8.657-49.391,18.842-64.778,5.51-115.147
				c-11.957-45.144-2.992-89.924-2.589-135.593c0.369-41.15-11.566-78.493-13.466-119.049
				c-3.212-68.679,25.873-135.924,17.419-203.952c-8.355-67.34-39.802-133.678-58.505-198.624
				c-26.754-92.981-37.027-204.345-99.102-280.693c-62.917-77.39-145.809-141.746-242.798-169.079
				c-177.431-49.993-358.451,29.737-491.904,146.824c-57.207,50.189-109.689,104.13-170.969,149.621
				c-111.323,82.635-185.076,203.032-235.613,330.075c-40.941,102.949-61.989,218.557-74.082,328.366
				c-21.037,190.904,113.602,301.174,177.368,463.113c8.806,22.383,19.751,43.697,32.312,64.188
				c69.253,113.023,187.464,201.027,266.51,305.341c47.416,62.565,91.079,140.813,99.023,220.5
				c8.888,89.134,15.395,171.856,34.089,259.039c11.017,51.342,32.562,99.201,50.677,148.227
				c15.697,42.49,17.858,99.676,56.481,127.329c72.38,51.835,157.021,29.081,231.452-3.356
				c71.855-31.304,142.916-41.211,202.643-97.621c81.742-77.187,127.343-172.156,185.563-265.75
				C1985.227,2931.085,1980.689,2846.094,2001.935,2734.496z M1809.234,2972.227c-29.897,60.209-63.308,112.862-105.063,165.357
				c-57.291,72.034-141.382,130.03-236.302,130.01c-110.766-0.037-132.815-102.331-138.223-195.665
				c-3.831-66.04,5.34-131.501,4.311-197.324c-0.895-56.975-11.217-105.607-19.011-160.856
				c-16.046-113.833-43.747-227.19-111.563-322.158c-16.04-22.461-33.455-43.792-51.909-64.232
				c-64.631-71.584-141.934-132.197-217.009-191.736c-69.229-54.895-120.952-144.982-151.205-226.937
				c-55.757-151.002,62.859-371.174,157.276-484.799c50.907-61.265,100.296-123.679,157.789-179.059
				c134.125-129.188,382.288-331.854,551.694-141.732c74.386,83.479,126.968,225.255,128.536,337.721
				c1.081,77.614-3.218,156.782-16.776,233.312c-11.622,65.553-40.369,127.769-51.122,194.711
				c-25.425,158.281-22.246,353.433,58.354,496.521C1878.71,2560.097,1910.201,2768.868,1809.234,2972.227z"/>
			<path id="_x31_80606914_1_" fill="#CCCCCC" stroke="#000000" d="M400.101,1800.676
				c-14.502,111.878-28.364,224.285-30.492,337.216c-2.094,111.431,36.366,194.553,48.415,302.649
				c14.281,128.121-31.834,250.386-33.951,377.005c-1.124,67.48,8.292,132.533,26.695,194.136
				c86.053,287.952,346.096,456.465,611.854,559.666c150.993,58.641,323.574,115.907,484.307,71.359
				c121.241-33.605,256.76-98.482,368.393-158.712c137.897-74.398,242.006-201.921,318.17-336.93
				c101.309-179.592,113.246-422.71,110.057-625.155c-1.075-67.771-3.896-136.138-8.158-203.805
				c-10.389-165.077-40.6-327.15-62.421-491.193c-25.993-195.439-58.708-425.976-147.231-605.54
				c69.817,142.104,93.375,302.061,90.449,460.414c-1.502,81.37-28.179,154.079-21.506,237.711
				c8.532,107.093,12.386,208.382,11.446,315.614c-1.53,174.085,36.331,351.491-0.049,524.067
				c-24.5,116.263-88.722,208.626-143.298,310.799c-0.797,1.479-1.583,2.955-2.362,4.432
				c-88.522,167.065-217.501,339.014-386.416,427.713c-86.719,45.544-188.465,68.104-286.817,60.718
				c-137.148-10.294-206.972-119.976-269.679-227.234c-81.357-139.145-138.146-281.019-172.898-439.252
				c-32.291-147.078-153.832-257.287-234.168-377.359c-83.967-125.451-118.684-301.585-165.129-443.839
				c-26.734-81.863-70.81-164.646-76.244-251.577c-6.573-105.141,7.851-205.068,38.408-299.343
				C435.242,1611.514,412.678,1703.657,400.101,1800.676z"/>
			<path id="_x31_80606915_1_" fill="#AAAAAA" stroke="#000000" d="M1401.916,1863.297c4.019,42.229,8.03,84.467,10.412,126.818
				c3.975,70.86,21.008,141.822,38.953,210.032c3.08,11.722,14.231,35.094,5.779,45.396c-14.562-7.816-13.852-43.44-16.454-58.247
				c-5.156-29.322-16.435-55.189-24.088-83.295c-7.075-25.975-14.199-53.432-23.467-78.66c-11.679-31.817-19.428-64.932-30.4-96.979
				c-10-29.218-25.544-56.486-34.672-85.939c-13.129-42.364-10.579-100.388,38.301-117.715c23.076-8.176,22.574,11.202,22.649,29.66
				C1389.077,1792.026,1398.419,1826.446,1401.916,1863.297z"/>
		</g>
	</g>
</g>
</svg>
