<?xml version="1.0" encoding="utf-8"?>
<!-- Generator: Adobe Illustrator 16.0.0, SVG Export Plug-In . SVG Version: 6.00 Build 0)  -->
<!DOCTYPE svg PUBLIC "-//W3C//DTD SVG 1.1//EN" "http://www.w3.org/Graphics/SVG/1.1/DTD/svg11.dtd">
<svg version="1.1" id="Layer_1" xmlns="http://www.w3.org/2000/svg" xmlns:xlink="http://www.w3.org/1999/xlink" x="0px" y="0px"
	 width="5488px" height="5312px" viewBox="0 0 5488 5312" enable-background="new 0 0 5488 5312" xml:space="preserve">
<g transform="scale(1.0)">
	<g id="_x31_80609405" transform=" scale(1.0, 1.0)">
		<path id="_x31_80609407" fill="#BFDAE3" stroke="#000000" d="M2985.431,819.935c37.633-10.973,76.188-19.173,112.947-27.386
			c158.849-35.498,319.593-39.54,480.172-11.192c435.847,76.937,820.283,257.328,942.824,718.575
			c37.421,140.805,62.363,327.829-14.858,459.779c-69.765,119.194-244.701,191.967-372.732,115.794
			c-119.006-70.802-203.056-189.64-316.152-268.825c-175.395-122.798-440.641-63.353-635.763-32.999
			c-77.5,12.061-160.942,35.48-238.12,9.522c-152.941-51.431-215.527-241.879-210.039-388.761
			C2741.556,1184.464,2745.154,889.975,2985.431,819.935z"/>
		<path id="_x31_80609408" fill="#BFDAE3" stroke="#000000" d="M4313.221,2601.973c23.613,72.696,40.245,149.371,39.283,223.856
			c-6.246,483.506-179.246,909.154-476.546,1286.104c-114.86,145.632-231.744,305.914-401.448,389.959
			c-231.25,114.533-525.459,7.833-687.814-172.166c-131.734-146.063-134.544-361.301-127.575-547.479
			c1.883-50.206-3.945-99.257,0.859-149.358c5.67-59.002-0.132-114.424-0.296-174.816c-0.474-167.57,4.914-346.356,11.555-514.631
			c4.59-115.978,21.982-232.594,54.985-343.967c35.278-119.025,72.731-251.899,150.124-351.7
			c73.77-95.126,220.768-144.65,331.536-181.853c171.81-57.7,362.255-47.768,537.134-11.575
			c107.927,22.344,236.131,58.897,300.099,156.938c23.395,35.846,20.678,76.105,41.616,112.624
			c30.963,53.988,86.437,75.148,133.216,111.834C4281.17,2483.764,4290.483,2531.993,4313.221,2601.973z"/>
		<path id="_x31_80609409" fill="#B0FFB8" stroke="#000000" d="M4313.221,2601.973c-22.735-69.98-32.051-118.21-93.271-166.229
			c-46.779-36.687-102.252-57.845-133.216-111.834c-20.938-36.518-18.222-76.777-41.616-112.623
			c-63.967-98.04-192.17-134.594-300.098-156.938c-174.881-36.194-365.326-46.126-537.135,11.574
			c-110.768,37.203-257.766,86.728-331.536,181.854c-77.393,99.799-114.845,232.675-150.124,351.7
			c-33.002,111.373-50.394,227.989-54.985,343.967c-6.641,168.275-12.028,347.062-11.554,514.631
			c0.164,60.394,5.965,115.814,0.295,174.816c-4.806,50.101,1.023,99.15-0.86,149.358c-6.971,186.179-4.158,401.415,127.576,547.479
			c162.356,179.997,456.564,286.698,687.813,172.165c169.706-84.046,286.59-244.328,401.448-389.96
			c297.3-376.949,470.3-802.597,476.546-1286.103C4353.465,2751.345,4336.833,2674.67,4313.221,2601.973z M3608.942,3044.059
			c-8.582,32.153-27.341,62.504-41.459,92.398c-16.28,34.45-23.963,72.128-34.594,108.505
			c-6.942,23.771-24.119,85.865-52.216,40.356c-14.228-23.038-15.736-56.901-19.678-82.936
			c-5.207-34.491-9.021-68.31-17.573-101.321c-3.906-15.078-8.804-29.982-15.284-44.714c-8.268-18.785-32.729-52.919-15.023-71.211
			c17.176-17.729,69.62,3.58,88.461,8.36C3534.284,3001.809,3621.007,2998.825,3608.942,3044.059z"/>
		<path id="_x31_80609410" fill="#B0FFB8" stroke="#000000" d="M2985.431,819.935c37.633-10.973,76.188-19.173,112.947-27.386
			c158.849-35.498,319.593-39.54,480.172-11.192c435.847,76.937,820.283,257.328,942.824,718.575
			c37.421,140.805,62.363,327.829-14.858,459.779c-69.765,119.194-244.701,191.967-372.732,115.794
			c-119.006-70.802-203.056-189.64-316.152-268.825c-175.395-122.798-440.641-63.353-635.763-32.999
			c-77.5,12.061-160.942,35.48-238.12,9.522c-152.941-51.431-215.527-241.879-210.039-388.761
			C2741.556,1184.464,2745.154,889.975,2985.431,819.935z"/>
		<path id="_x31_80609426" fill="#268F45" stroke="#000000" d="M3808.4,1506.89c130.845,5.917,186.738-96.54,123.271-223.541
			c-99.769-199.418-295.897-244.662-496.35-266.106c-97.53-10.438-426.136-63.615-459.554,71.995
			c-20.631,83.669-23.897,197.426,16.289,277.546c1.62,3.016,3.155,6.029,4.859,9.047c51.9,92.255,142.29,60.859,232.032,63.455
			c87.58,2.647,203.076,0.535,286.064,22.238C3611.252,1486.737,3708.542,1502.407,3808.4,1506.89z M3578.553,781.347
			c435.839,76.969,820.26,257.373,942.857,718.635c37.418,140.765,62.297,327.821-14.877,459.739
			c-69.764,119.22-244.694,191.986-372.803,115.781c-118.958-70.757-202.986-189.651-316.09-268.805
			c-175.416-122.842-440.686-63.403-635.803-32.985c-77.478,12.042-160.937,35.471-238.133,9.527
			c-152.896-51.451-215.467-241.947-209.99-388.758c7.782-210.039,11.435-504.511,251.667-574.527
			c37.647-11.024,76.25-19.209,112.942-27.421C3257.186,757.034,3417.931,752.981,3578.553,781.347z"/>
		<path id="_x31_80609425" fill="#268F45" stroke="#000000" d="M3931.671,1283.35c63.466,127,7.574,229.458-123.271,223.54
			c-99.858-4.484-197.148-20.152-293.388-45.367c-82.988-21.702-198.484-19.589-286.064-22.238
			c-89.743-2.595-180.132,28.8-232.033-63.456c-1.704-3.017-3.24-6.03-4.858-9.045c-40.187-80.121-36.922-193.877-16.29-277.546
			c33.417-135.61,362.024-82.433,459.553-71.996C3635.773,1038.688,3831.902,1083.931,3931.671,1283.35z"/>
		<path id="_x31_80609411" fill="#9AD2BD" stroke="#000000" d="M4313.216,2601.987c-22.736-69.985-32.048-118.214-93.276-166.237
			c-46.773-36.687-102.253-57.844-133.21-111.836c-20.941-36.517-18.225-76.775-41.618-112.624
			c-63.969-98.039-192.172-134.591-300.103-156.933c-174.886-36.196-365.329-46.131-537.141,11.563
			c-110.769,37.209-257.771,86.735-331.54,181.858c-77.388,99.799-114.845,232.676-150.126,351.698
			c-33.001,111.378-50.396,227.992-54.983,343.974c-6.642,168.275-12.026,347.062-11.561,514.633
			c0.169,60.389,5.964,115.813,0.295,174.816c-4.806,50.101,1.021,99.15-0.86,149.357c-6.965,186.181-4.158,401.421,127.583,547.482
			c162.354,180.002,456.568,286.7,687.819,172.171c169.699-84.049,286.591-244.332,401.448-389.966
			c297.309-376.952,470.305-802.597,476.553-1286.109C4353.455,2751.354,4336.822,2674.681,4313.216,2601.987z M3608.942,3044.059
			c-8.582,32.153-27.341,62.504-41.459,92.398c-16.28,34.45-23.963,72.128-34.594,108.505
			c-6.942,23.771-24.119,85.865-52.216,40.356c-14.228-23.038-15.736-56.901-19.678-82.936
			c-5.207-34.491-9.021-68.31-17.573-101.321c-3.906-15.078-8.804-29.982-15.284-44.714c-8.268-18.785-32.729-52.919-15.023-71.211
			c17.176-17.729,69.62,3.58,88.461,8.36C3534.284,3001.809,3621.007,2998.825,3608.942,3044.059z"/>
		<path id="_x31_80609412" fill="#9AD2BD" stroke="#000000" d="M3336.097,2873.584c-12.674-63.762-0.818-120.808,21.757-187.726
			c38.135-113.096,96.227-230.578,131.678-348.281c8.541-28.365,39.283-123.643,49.882-151.069
			c13.568-35.13-11.84-115.206,14.083-155.766c-121.085-27.22-288.89,16.118-345.631,35.178
			c-110.769,37.21-257.771,86.734-331.541,181.859c-77.388,99.799-114.845,232.676-150.125,351.697
			c-33,111.377-50.396,227.992-54.984,343.975c-6.641,168.274-13.067,347.049-11.561,514.632
			c0.974,107.485,3.468,216.799-0.564,324.174c-6.965,186.18-4.158,401.421,127.582,547.482
			c162.356,180.001,456.569,286.7,687.819,172.171c115.236-57.076,206.223-150.093,287.893-247.472
			c38.788-46.262,113.159-141.987,113.556-142.493c37.163-46.706,34.216-44.347,69.647-92.399
			c-61.979,52.355-109.156,55.093-193.493,37.25c-19.89-4.207-41.145-9.004-57.76-20.668
			c-67.957-47.719-138.613-117.7-168.401-197.862c-18.264-49.179-16.802-97.232-29.093-147.355
			c-10.999-44.847-13.508-87.677-15.868-132.832c-5.192-99.503-11.232-230.197-18.979-329.541
			c-6.682-85.715-15.235-138.926-57.138-215.844C3382.464,2971.588,3344.592,2916.313,3336.097,2873.584z"/>
		<path id="_x31_80609413" fill="#82C7AE" stroke="#000000" d="M3605.475,4367.911c-50.502,33.674-98.795,71.375-153.465,98.304
			c-49.103,24.183-90.986,51.36-148.128,37.211c-65.783-16.296-118.39-83.021-148.315-140.763
			c-37.452-72.292-68.332-150.39-83.839-230.465c-8.949-46.171-16.531-93.251-37.242-135.951
			c-22.174-45.683-56.046-84.285-80.712-128.557c-38.204-68.575-72.861-143.936-98.827-217.707
			c-13.005-36.943-5.11-86.737-4.412-125.353c0.79-43.164,1.431-86.487-4.543-129.36c-9.581-68.714-25.138-136.662-30.327-205.959
			c-4.818-64.313,2.463-130.09,5.094-194.5c7.248-177.572,28.898-359.441,85.639-528.759
			c29.682-88.563,93.392-128.592,155.016-193.769c55.423-58.616,96.569-127.145,130.021-200.111
			c-1.234,0.161-2.468,0.347-3.702,0.53c-107.868,36.482-242.024,85.612-311.403,175.078
			c-36.501,47.071-64.114,101.506-86.81,158.371c-53.872,142.588-65.678,304.712-80.51,452.123
			c-6.258,62.273-17.181,123.803-19.488,186.246c-2.457,66.306-0.651,132.637-1.677,198.971
			c-1.2,77.447-4.329,154.849-5.122,232.297c-0.752,72.478-9.429,145.749-1.74,218.09c5.44,51.107,18.558,113.582,42.285,159.459
			c25.406,49.129,63.549,92.808,93.884,139.095c18.611,28.4,27.196,70.814,39.862,102.484
			c14.563,36.413,29.624,72.619,45.292,108.568c28.849,66.161,58.98,132.164,93.566,195.559
			c39.396,72.194,88.51,119.01,159.861,139.457c45.871,8.979,92.454,12.627,138.538,10.026
			c62.725-5.201,128.91-21.202,180.225-46.613c39.002-19.318,75.221-42.764,109.246-69.091
			c10.627-10.321,20.953-21.103,33.628-31.767c3.964-3.34,11.419-6.752,17.011-10.814c1.633-1.484,3.27-2.962,4.895-4.457
			c0.71-0.888,1.281-1.806,1.675-2.761C3653.319,4352.88,3619.516,4358.563,3605.475,4367.911z"/>
		<path id="_x31_80609417" fill="#82C7AE" stroke="#000000" d="M3336.097,2873.584c-12.674-63.762-0.818-120.808,21.757-187.726
			c38.135-113.096,96.227-230.578,131.678-348.281c7.07-23.481,36.13-73.481,13.059-95.033
			c-17.561-16.412-64.341-2.115-84.379,4.106c-224.157,69.6-300.489,321.77-307.574,530.079
			c-2.488,72.989,0.42,145.813,2.141,218.762c5.979,252.724,51.186,502.505,113.757,746.862
			c22.838,89.154,44.942,179.138,72.412,267.016c20.505,65.639,48.597,145.458,111.781,181.91
			c99.067,57.139,244.717-49.919,228.929-159.601c-5.119-35.535-29.517-62.865-50.784-90.159
			c-26.4-33.859-48.841-69.115-65.204-108.943c-18.729-45.598-15.11-93.853-26.828-141.663
			c-10.999-44.848-13.51-87.678-15.867-132.833c-5.193-99.503-11.233-230.195-18.979-329.542
			c-6.682-85.713-15.237-138.925-57.14-215.843C3382.464,2971.588,3344.592,2916.313,3336.097,2873.584z"/>
		<path id="_x31_80609416" fill="#9AD2BD" stroke="#000000" d="M3369.398,2224.466c-0.08,2.301-1.27,5.642-3.906,10.292
			c-7.655,13.514-27.771,20.114-40.303,27.571c-79.924,47.555-145.585,125.628-190.296,213.292
			c-63.04,123.582-50.812,251.476-69.922,384.47c-15.464,107.615,8.271,205.582,24.122,311.001
			c13.402,89.193,18.145,179.514,33.881,268.389c13.528,76.376,25.729,152.994,40.537,229.14
			c12.617,64.838,28.876,124.817,56.837,183.989c15.345,32.49,19.793,73.439,29.05,108.244
			c15.73,59.102,27.654,119.929,58.075,172.855c28.252,49.148,74.161,103.761,130.899,115.213c5.811,1.172,24.353,2.75,37.895,5.764
			c28.354-10.108,66.368-40.911,50.17-58.12c-38.115,14.564-79.947,15.339-115.709-5.288
			c-63.185-36.449-91.277-116.271-111.781-181.908c-27.471-87.879-49.574-177.861-72.413-267.017
			c-62.571-244.355-107.778-494.138-113.757-746.861c-1.721-72.949-4.63-145.772-2.141-218.762
			c6.817-200.412,77.731-441.417,282.715-521.383C3392.984,2238.614,3383.825,2224.005,3369.398,2224.466z"/>
		<path id="_x31_80609415" fill="#82C7AE" stroke="#000000" d="M3134.894,2475.622c44.711-87.663,110.372-165.737,190.295-213.293
			c12.533-7.456,32.648-14.057,40.304-27.571c19.21-33.888-38.001,1.398-46.492,6.768c-34.923,22.094-69.206,42.761-100.378,70.239
			c-146.286,128.91-201.08,353.579-204.256,541.453c-1.055,61.821,3.403,124.899,10.835,186.266
			c4.706,38.92,16.468,76.313,20.832,115.502c4.88,43.866,6.107,88.056,11.029,131.914
			c13.826,123.256,32.349,243.027,57.293,364.573c17.363,84.649,42.968,167.315,70.047,249.291
			c24.147,73.104,39.4,153.749,75.497,221.671c21.881,41.148,35.342,83.538,69.568,117.224
			c31.934,31.402,100.056,55.085,143.806,43.438c12.582-3.354,28.953-9.457,17.325-22.708c-6.19-7.044-43.517-9.712-52.226-11.468
			c-56.738-11.452-102.645-66.065-130.898-115.212c-30.422-52.928-42.345-113.755-58.074-172.858
			c-9.258-34.803-13.707-75.753-29.051-108.242c-27.961-59.174-44.22-119.153-56.837-183.99
			c-14.808-76.146-27.008-152.764-40.537-229.139c-15.736-88.875-20.479-179.196-33.881-268.391
			c-15.853-105.417-39.587-203.385-24.122-311C3084.082,2727.097,3071.854,2599.204,3134.894,2475.622z"/>
		<path id="_x31_80609414" fill="#9AD2BD" stroke="#000000" d="M3494.396,4267.129c1.813,8.708-10.903,13.245-21.123,15.97
			c-43.75,11.646-111.874-12.036-143.806-43.438c-34.226-33.688-47.687-76.075-69.568-117.224
			c-36.095-67.922-51.349-148.567-75.497-221.671c-27.079-81.978-52.684-164.644-70.047-249.291
			c-24.944-121.547-43.467-241.318-57.293-364.573c-4.922-43.86-6.147-88.048-11.03-131.914
			c-4.363-39.19-16.125-76.582-20.831-115.502c-7.432-61.366-11.89-124.445-10.835-186.266
			c3.176-187.874,57.97-412.542,204.256-541.454c31.172-27.478,65.455-48.144,100.378-70.239
			c7.232-4.573,49.796-30.838,50.395-17.592c54.785-31.943,81.762-108.998,0.814-136.692
			c-45.647-15.618-160.738,5.811-207.42,42.448c-27.859,51.414-60.785,99.663-101.375,142.593
			c-61.625,65.177-125.336,105.205-155.018,193.769c-56.739,169.316-78.391,351.187-85.639,528.758
			c-2.631,64.412-9.912,130.188-5.094,194.501c5.189,69.296,20.745,137.244,30.327,205.959c5.975,42.872,5.333,86.196,4.543,129.359
			c-0.699,38.615-8.594,88.411,4.412,125.354c25.966,73.771,60.623,149.132,98.827,217.706
			c24.666,44.272,58.538,82.876,80.711,128.557c20.713,42.701,28.294,89.78,37.243,135.952
			c15.507,80.074,46.386,158.174,83.839,230.465c29.924,57.743,82.53,124.467,148.315,140.762
			c57.142,14.149,99.025-13.028,148.128-37.21c42.395-20.884,80.954-48.244,119.686-75.181
			C3598.18,4335.57,3561.661,4272.054,3494.396,4267.129z"/>
		<path id="_x31_80609418" fill="#9DF0D2" stroke="#000000" d="M3832.018,2072.545c-32.955-9.127-65.541-13.179-99.216-19.005
			c-34.608-5.982-189.209-55.452-170.606,26.301c14.883,65.378-6.809,132.41-30.467,192.647
			c-23.808,60.598-38.701,127.384-64.02,188.457c-12.266,29.568-72.526,122.386-33.934,152.914
			c19.447,15.372,63.463-16.674,81.261-23.998c109.836-45.194,226.8-16.903,340.559-38.193
			c61.834-11.574,128.639-38.046,187.953-59.76c31.459-11.512,79.48-32.484,91.725-67.157
			c15.362-43.48-29.729-68.029-48.545-100.835c-20.939-36.516-19.041-76.255-41.617-112.625
			C3997.4,2134.452,3889.979,2088.607,3832.018,2072.545z"/>
		<path id="_x31_80609419" fill="#9DF0D2" stroke="#000000" d="M3746.365,2331.1c-22.513-2.193-44.215-6.857-62.302-17.771
			c-40.132-24.224-77.072-58.327-104.626-96.142c-13.792-18.926-17.005-44.403-13.301-67.529
			c2.036-12.719,3.776-25.743,22.973-30.008c66.573-14.791,110.506,54.211,171.281,65.044c37.402,6.662,73.924,2.551,110.412,10.824
			c54.235,12.293,109.783-10.538,147.058,39.767c21.688,29.266,26.688,64.388-9.108,86.444
			C3930.962,2369.662,3830.81,2339.323,3746.365,2331.1z"/>
		<path id="_x31_80609421" fill="#95E4C8" stroke="#000000" d="M3459.363,2478.254c-14.715,29.784-61.25,107.417-25.586,135.605
			c19.447,15.372,63.462-16.673,81.26-23.997c109.83-45.192,229.854-15.652,350.489-40.178c-0.222-0.029-0.443-0.059-0.665-0.088
			c-4.761-0.582-33.866-4.139-55.95-6.837c-8.716-1.036-17.245-2.063-25.519-3.119c-39.205-4.996-85.394-5.733-130.384-11.295
			c-11.755-1.296-23.467-2.989-35.104-5.349c-20.639-4.186-43.223-10.056-65.257-21.348c-20.836-10.343-39.364-24.298-54.24-43.363
			c-6.831-8.754-14.079-18.483-18.511-27.353c-0.008-0.014-0.016-0.025-0.022-0.039
			C3473.084,2448.871,3461.796,2473.335,3459.363,2478.254z"/>
		<path id="_x31_80609420" fill="#9DF0D2" stroke="#000000" d="M4043.548,2491.909c31.459-11.512,79.48-32.484,91.725-67.157
			c9.152-25.903-9.819-75.694-39.245-80.389c-30.633-4.887-66.163,26.47-92.278,38.195c-43.307,19.46-86.022,29.345-133.769,26.962
			c-59.067-2.947-112.175-24.313-165.854-47.241c-43.478-18.57-67.257-48.272-92.871-86.92
			c-7.147-10.77-16.251-38.155-27.413-44.847c-52.009-31.207-84.117,139.325-90.814,169.363l3.454,2.407
			c28.772-1.714,77.262,26.734,103.702,37.786c39.566,16.524,77.862,35.322,120.474,42.726c43.308,7.528,88.658,3.708,132.756,5.82
			c59.854,2.863,121.627,0.508,181.015,8.326L4043.548,2491.909z"/>
		<path id="_x31_80609422" fill="#54BF94" stroke="#000000" d="M3452.912,2953.298c34.273-40.679,106.607-30.47,152.619-25.749
			c46.82,4.81,125.21,19.829,132.789,78.645c7.029,54.626-54.499,115.675-80.205,160.15
			c-21.534,37.265-42.269,75.153-57.832,115.376c-31.182,80.601-48.365,180.838-40.026,265.984
			c4.948,50.222,10.913,100.485,11.86,150.999c0.175,9.137,0.678,18.223,0.64,27.371c-0.089,21.351,3.227,40.444-11.111,57.849
			c-40.319,48.954,27.207,114.654,56.687,150.504c40.511,49.261,93.427,87.528,156.501,102.073
			c179.585,41.417,283.308-173.574,353.552-312.721c89.883-178.063,153.014-358.43,190.51-554.958
			c21.495-112.738,32.119-228.196,33.6-342.969c0.961-74.491-15.672-151.164-39.286-223.862
			c-26.306-81.032-42.343-144.336-136.772-196.336c7.72,2.959-67.969,67.47-76.7,73.992c-35.319,26.396-94.26,43.678-140.228,57.786
			c-117.078,35.943-190.842,41.969-313.356,40.24c-85.175-1.198-169.263,38.712-227.719,77.332
			c-59.396,39.248-71.701,110.305-65.623,172.234c3.397,34.516,10.7,131.061,52.508,144.387
			C3427.622,2978.731,3452.912,2953.298,3452.912,2953.298z"/>
		<path id="_x31_80609423" fill="#54BF94" stroke="#000000" d="M4034.269,2590.12c-41.237-17.955-88.704-28.381-135.699-35.716
			c-50.283,9.711-78.438,19.661-153.45,21.156c-43.282,5.479-105.344-0.397-128.105,2.656
			c-69.228,9.285-101.015,25.328-99.95,25.193c99.411-12.529,226.353-6.623,320.896,26.797c0.012,0.002,0.022,0.01,0.034,0.012
			c61.854,21.886,136.558,35.459,187.772,86.082c119.478,118.098,60.47,328.498,14.47,465.84
			c-48.191,143.885-87.393,304.627-185.479,423.568c-57.347,69.543-116.238,113.481-199.158,141.275
			c-25.252,8.465-69.491,24.288-101.155,48.022c-18.668,37.889,15.885,83.077,44.453,116.645
			c17.309-11.698,79.614,34.186,108.98,38.535c33.111,4.908,101.782,3.512,158.676-51.799
			c62.154-60.43,110.836-155.561,152.874-230.604c41.611-74.246,78.963-157.414,103.828-238.92
			c45.021-147.605,82.337-310.35,98.406-396.24C4255.679,2850.822,4256.702,2686.954,4034.269,2590.12z"/>
		<path id="_x31_80609424" fill="#54BF94" stroke="#000000" d="M3832.661,3385.138c72.763-137.983,167.156-305.357,179.349-463.846
			c20.182-262.357-348.24-290.25-530.915-272.004c-11.581,1.155-38.683,4.84-69.612,10.657
			c-76.414,58-75.632,190.079-30.327,267.118c22.372,38.033,43.188,35.975,69.752,22.22c5.98-3.096,12.26-6.79,18.917-10.757
			c40.01-23.807,91.838-15.477,135.709-10.978c46.82,4.811,125.21,19.829,132.787,78.645c7.029,54.626-54.498,115.675-80.203,160.15
			c-21.534,37.265-42.27,75.153-57.832,115.376c-31.182,80.601-48.367,180.838-40.026,265.983
			c4.948,50.224,10.912,100.486,11.86,151c0.175,9.136,0.676,18.223,0.64,27.371c-0.014,3.485,0.061,6.907,0.138,10.276
			c16.822-28.175,42.979-54.933,60.49-79.089C3697.898,3568.265,3781.362,3482.414,3832.661,3385.138z"/>
		<path id="_x31_80609428" fill="#CCCCCC" stroke="#000000" d="M3604.539,3020.34c-11.472-14.562-30.813-17.344-48.058-19.211
			c-15.912-1.727-135.49-9.952-103.569-47.831c34.275-40.679,106.609-30.47,152.621-25.749
			c46.82,4.811,125.21,19.829,132.787,78.645c7.029,54.626-54.498,115.675-80.203,160.15
			c-21.534,37.265-42.27,75.153-57.832,115.376c-31.182,80.601-48.367,180.838-40.026,265.983
			c4.948,50.224,10.912,100.486,11.86,151c0.175,9.136,0.676,18.223,0.64,27.371c-0.068,16.304,4.409,46.996-11.491,57.747
			c-24.686,16.693-34.786-14.416-41.803-31.56c-13.51-33.011-23.49-64.917-29.615-100.172
			c-6.091-35.001-9.398-70.426-12.103-105.826c-3.425-44.867-5.624-88.864-6.523-133.932c-0.939-47.223-4.91-93.477-5.967-140.571
			c-0.165-7.34,2.794-15.643,0.878-22.722c13.354,34.217,18.865,48.281,30.04,51.42c16.597,4.657,22.682-17.995,27.833-29.871
			c7.64-17.591,12.594-34.935,16.967-53.854c6.77-29.273,13.71-58.864,29.257-84.948c11.351-19.045,20.753-40.773,29.446-61.165
			C3600.427,3068.854,3614.938,3033.549,3604.539,3020.34z"/>
		<path id="_x31_80609429" fill="#CCCCCC" stroke="#000000" d="M2995.868,4399.04c-34.586-63.395-64.717-129.397-93.566-195.559
			c-15.667-35.949-30.729-72.156-45.292-108.568c-12.665-31.67-21.251-74.084-39.862-102.485
			c-30.335-46.286-68.479-89.965-93.884-139.094c-23.727-45.877-36.843-108.351-42.285-159.459
			c-7.688-72.34,0.989-145.612,1.74-218.089c0.793-77.45,3.922-154.851,5.122-232.298c1.024-66.335-0.779-132.665,1.677-198.971
			c2.308-62.442,13.23-123.973,19.487-186.246c14.833-147.408,26.641-309.536,80.511-452.123
			c-25.423,63.697-44.676,130.444-63.316,193.327c-33,111.378-50.396,227.992-54.983,343.974
			c-6.642,168.275-13.068,347.05-11.561,514.633c0.974,107.485,3.467,216.8-0.566,324.175
			c-6.964,186.18-4.157,401.419,127.583,547.481c92.322,102.356,227.283,181.007,369.056,208.757
			C3084.377,4518.051,3035.264,4471.233,2995.868,4399.04z"/>
		<path id="_x31_80609430" fill="#CCCCCC" stroke="#000000" d="M4034.269,2590.12c222.436,96.835,221.41,260.702,187.393,442.505
			c-16.069,85.892-53.386,248.635-98.406,396.24c-24.864,81.507-62.218,164.674-103.827,238.92
			c-42.039,75.043-90.722,170.175-152.874,230.604c-56.893,55.311-125.565,56.706-158.678,51.799
			c-36.423-5.394-123.554-74.723-112.583-18.746c9.563,48.855,90.679,107.702,136.596,115.675
			c59.89,10.396,127.674,3.202,179.645-30.387c118.293-76.452,176.805-209.578,235.773-332.554
			c68.896-143.681,123.911-299.681,159.347-454.902c57.605-252.396,69.02-687.411-272.222-732.334
			c-59.389-7.82-121.162-5.464-181.015-8.328c-44.099-2.111-89.449,1.708-132.757-5.82c-42.609-7.403-80.908-26.202-120.473-42.726
			c-26.443-11.051-74.931-39.5-103.703-37.786c-37.598,2.238-16.329,32.615,1.925,56.006c63.436,81.3,193.305,69.67,284.983,81.354
			C3859.971,2549.402,3957.819,2556.835,4034.269,2590.12z"/>
		<path id="_x31_80609431" fill="#CCCCCC" stroke="#000000" d="M3562.508,2025.796c-18.667-0.818-54.209-6.927-68.542,9.248
			c-13.605,15.345,3.133,33.846,15.423,43.796c39.346,31.854,93.804,37.194,142.195,43.107
			c54.791,6.696,108.432,24.388,163.797,25.573c22.176,0.477,61.595,9.128,80.796-6.429c44.427-36.006-86.59-75.926-104.685-80.146
			c-88.518-20.644-177.669-32.491-268.463-35.706"/>
		<path id="_x31_80609427" fill="#AAAAAA" stroke="#000000" d="M3443.422,3101.062c-3.905-15.077-8.803-29.982-15.283-44.714
			c-8.269-18.784-32.729-52.918-15.024-71.211c17.177-17.729,69.621,3.58,88.461,8.36c32.709,8.312,119.432,5.328,107.364,50.563
			c-8.581,32.152-27.338,62.502-41.456,92.396c-16.28,34.45-23.963,72.128-34.594,108.505
			c-6.942,23.771-24.119,85.865-52.216,40.356c-14.228-23.038-15.736-56.901-19.678-82.936
			C3455.789,3167.891,3451.975,3134.073,3443.422,3101.062z"/>
	</g>
</g>
<g transform="scale(1.0)">
	<g id="_x31_80609405_1_" transform=" scale(1.0, 1.0)">
		<path id="_x31_80609407_1_" fill="#BFDAE3" stroke="#000000" d="M2580.229,1394.442c5.488,146.881-57.097,337.33-210.038,388.761
			c-77.178,25.958-160.62,2.538-238.12-9.522c-195.122-30.354-460.368-89.8-635.763,32.999
			c-113.097,79.185-197.146,198.023-316.152,268.825c-128.031,76.173-302.968,3.4-372.732-115.794
			c-77.222-131.95-52.279-318.974-14.858-459.779c122.541-461.247,506.978-641.638,942.824-718.575
			c160.579-28.347,321.323-24.305,480.172,11.192c36.759,8.213,75.314,16.413,112.947,27.386
			C2568.784,889.975,2572.382,1184.464,2580.229,1394.442z"/>
		<path id="_x31_80609408_1_" fill="#BFDAE3" stroke="#000000" d="M1093.99,2435.743c46.779-36.686,102.253-57.846,133.216-111.834
			c20.938-36.518,18.222-76.777,41.616-112.624c63.968-98.04,192.172-134.594,300.099-156.938
			c174.879-36.193,365.324-46.125,537.134,11.575c110.769,37.203,257.767,86.726,331.536,181.853
			c77.393,99.8,114.846,232.675,150.123,351.7c33.003,111.373,50.396,227.989,54.985,343.967
			c6.641,168.274,12.028,347.061,11.555,514.631c-0.164,60.393-5.966,115.814-0.296,174.816
			c4.805,50.102-1.023,99.152,0.859,149.358c6.97,186.178,4.159,401.415-127.574,547.479
			c-162.355,179.999-456.564,286.699-687.814,172.166c-169.704-84.045-286.588-244.327-401.448-389.959
			c-297.3-376.949-470.3-802.598-476.546-1286.104c-0.962-74.485,15.67-151.16,39.283-223.856
			C1023.455,2531.993,1032.769,2483.764,1093.99,2435.743z"/>
		<path id="_x31_80609409_1_" fill="#B0FFB8" stroke="#000000" d="M961.435,2825.83c6.246,483.506,179.246,909.153,476.546,1286.103
			c114.858,145.632,231.742,305.914,401.448,389.96c231.249,114.533,525.457,7.832,687.813-172.165
			c131.733-146.064,134.546-361.301,127.575-547.479c-1.884-50.208,3.945-99.258-0.86-149.358
			c-5.67-59.002,0.131-114.423,0.295-174.816c0.475-167.569-4.913-346.355-11.554-514.631
			c-4.592-115.978-21.983-232.594-54.985-343.967c-35.278-119.025-72.73-251.9-150.123-351.7
			c-73.771-95.125-220.769-144.651-331.536-181.854c-171.809-57.7-362.254-47.768-537.135-11.574
			c-107.928,22.343-236.131,58.897-300.098,156.938c-23.395,35.846-20.678,76.104-41.616,112.623
			c-30.964,53.989-86.437,75.147-133.216,111.834c-61.221,48.02-70.536,96.25-93.271,166.229
			C977.105,2674.67,960.474,2751.345,961.435,2825.83z M1812.362,2993.497c18.841-4.78,71.285-26.09,88.461-8.36
			c17.706,18.292-6.756,52.426-15.023,71.211c-6.48,14.731-11.378,29.636-15.284,44.714c-8.552,33.012-12.366,66.83-17.573,101.321
			c-3.941,26.034-5.45,59.897-19.678,82.936c-28.097,45.509-45.273-16.586-52.216-40.356
			c-10.631-36.377-18.313-74.055-34.594-108.505c-14.118-29.895-32.877-60.245-41.459-92.398
			C1692.932,2998.825,1779.654,3001.809,1812.362,2993.497z"/>
		<path id="_x31_80609410_1_" fill="#B0FFB8" stroke="#000000" d="M2580.229,1394.442c5.488,146.881-57.097,337.33-210.038,388.761
			c-77.178,25.958-160.62,2.538-238.12-9.522c-195.122-30.354-460.368-89.8-635.763,32.999
			c-113.097,79.185-197.146,198.023-316.152,268.825c-128.031,76.173-302.968,3.4-372.732-115.794
			c-77.222-131.95-52.279-318.974-14.858-459.779c122.541-461.247,506.978-641.638,942.824-718.575
			c160.579-28.347,321.323-24.305,480.172,11.192c36.759,8.213,75.314,16.413,112.947,27.386
			C2568.784,889.975,2572.382,1184.464,2580.229,1394.442z"/>
		<path id="_x31_80609426_1_" fill="#268F45" stroke="#000000" d="M1798.926,1461.523c82.988-21.703,198.484-19.59,286.064-22.238
			c89.742-2.595,180.132,28.8,232.032-63.455c1.704-3.018,3.239-6.032,4.859-9.047c40.187-80.12,36.92-193.876,16.289-277.546
			c-33.418-135.609-362.023-82.432-459.554-71.995c-200.452,21.444-396.581,66.688-496.35,266.106
			c-63.468,127-7.574,229.458,123.271,223.541C1605.396,1502.407,1702.687,1486.737,1798.926,1461.523z M2215.614,792.533
			c36.692,8.212,75.295,16.396,112.942,27.421c240.231,70.016,243.884,364.488,251.666,574.527
			c5.478,146.812-57.094,337.307-209.989,388.758c-77.196,25.944-160.655,2.515-238.133-9.527
			c-195.117-30.418-460.387-89.856-635.803,32.985c-113.104,79.154-197.132,198.047-316.09,268.805
			c-128.108,76.206-303.039,3.439-372.803-115.781c-77.174-131.918-52.295-318.974-14.877-459.739
			c122.598-461.262,507.019-641.666,942.857-718.635C1896.008,752.981,2056.753,757.034,2215.614,792.533z"/>
		<path id="_x31_80609425_1_" fill="#268F45" stroke="#000000" d="M1878.619,1017.242c97.528-10.437,426.136-63.615,459.553,71.996
			c20.632,83.669,23.896,197.426-16.29,277.546c-1.618,3.015-3.154,6.028-4.858,9.045c-51.901,92.256-142.29,60.86-232.033,63.456
			c-87.58,2.648-203.076,0.536-286.064,22.238c-96.239,25.215-193.529,40.883-293.388,45.367
			c-130.845,5.918-186.736-96.54-123.271-223.54C1482.036,1083.931,1678.165,1038.688,1878.619,1017.242z"/>
		<path id="_x31_80609411_1_" fill="#9AD2BD" stroke="#000000" d="M961.443,2825.835
			c6.248,483.513,179.244,909.157,476.553,1286.109c114.857,145.634,231.749,305.917,401.448,389.966
			c231.251,114.529,525.465,7.831,687.819-172.171c131.74-146.062,134.547-361.302,127.582-547.482
			c-1.882-50.207,3.945-99.257-0.86-149.357c-5.669-59.003,0.126-114.428,0.295-174.816c0.466-167.571-4.919-346.357-11.561-514.633
			c-4.587-115.981-21.982-232.596-54.983-343.974c-35.281-119.022-72.738-251.899-150.126-351.698
			c-73.77-95.123-220.771-144.649-331.54-181.858c-171.812-57.694-362.255-47.76-537.141-11.563
			c-107.931,22.341-236.134,58.894-300.103,156.933c-23.394,35.849-20.677,76.107-41.618,112.624
			c-30.957,53.992-86.437,75.149-133.21,111.836c-61.229,48.023-70.54,96.252-93.276,166.237
			C977.116,2674.681,960.483,2751.354,961.443,2825.835z M1812.362,2993.497c18.841-4.78,71.285-26.09,88.461-8.36
			c17.706,18.292-6.756,52.426-15.023,71.211c-6.48,14.731-11.378,29.636-15.284,44.714c-8.552,33.012-12.366,66.83-17.573,101.321
			c-3.941,26.034-5.45,59.897-19.678,82.936c-28.097,45.509-45.273-16.586-52.216-40.356
			c-10.631-36.377-18.313-74.055-34.594-108.505c-14.118-29.895-32.877-60.245-41.459-92.398
			C1692.932,2998.825,1779.654,3001.809,1812.362,2993.497z"/>
		<path id="_x31_80609412_1_" fill="#9AD2BD" stroke="#000000" d="M1909.085,3012.693c-41.902,76.918-50.456,130.129-57.138,215.844
			c-7.747,99.344-13.787,230.038-18.979,329.541c-2.36,45.155-4.869,87.985-15.868,132.832
			c-12.291,50.123-10.829,98.177-29.093,147.355c-29.788,80.162-100.444,150.144-168.401,197.862
			c-16.615,11.664-37.87,16.461-57.76,20.668c-84.337,17.843-131.515,15.105-193.493-37.25
			c35.432,48.053,32.484,45.693,69.647,92.399c0.396,0.506,74.768,96.231,113.556,142.493
			c81.67,97.379,172.656,190.396,287.893,247.472c231.25,114.529,525.463,7.83,687.819-172.171
			c131.739-146.062,134.546-361.303,127.581-547.482c-4.032-107.375-1.538-216.688-0.564-324.174
			c1.507-167.583-4.92-346.357-11.561-514.632c-4.588-115.982-21.984-232.598-54.984-343.975
			c-35.28-119.021-72.737-251.898-150.125-351.697c-73.77-95.125-220.772-144.649-331.541-181.859
			c-56.741-19.06-224.546-62.397-345.631-35.178c25.923,40.561,0.515,120.636,14.083,155.766
			c10.599,27.426,41.341,122.704,49.882,151.069c35.451,117.703,93.543,235.186,131.678,348.281
			c22.575,66.918,34.431,123.964,21.757,187.726C1969.347,2916.313,1931.475,2971.588,1909.085,3012.693z"/>
		<path id="_x31_80609413_1_" fill="#82C7AE" stroke="#000000" d="M1672.99,4383.022c0.394,0.955,0.965,1.873,1.675,2.761
			c1.625,1.495,3.262,2.973,4.895,4.457c5.592,4.063,13.047,7.475,17.011,10.814c12.675,10.664,23.001,21.445,33.628,31.767
			c34.025,26.327,70.244,49.772,109.246,69.091c51.314,25.411,117.5,41.412,180.225,46.613
			c46.084,2.601,92.667-1.048,138.538-10.026c71.352-20.447,120.466-67.263,159.861-139.457
			c34.586-63.395,64.718-129.397,93.566-195.559c15.668-35.949,30.729-72.155,45.292-108.568
			c12.666-31.67,21.251-74.084,39.862-102.484c30.335-46.287,68.479-89.966,93.884-139.095
			c23.728-45.877,36.845-108.352,42.285-159.459c7.688-72.341-0.988-145.612-1.74-218.09c-0.793-77.448-3.922-154.85-5.122-232.297
			c-1.025-66.334,0.78-132.665-1.677-198.971c-2.308-62.443-13.23-123.973-19.488-186.246
			c-14.832-147.41-26.639-309.535-80.51-452.123c-22.695-56.864-50.309-111.299-86.81-158.371
			c-69.379-89.465-203.535-138.595-311.403-175.078c-1.234-0.183-2.468-0.369-3.702-0.53
			c33.451,72.966,74.598,141.495,130.021,200.111c61.624,65.177,125.334,105.206,155.016,193.769
			c56.74,169.318,78.391,351.187,85.639,528.759c2.631,64.41,9.912,130.187,5.094,194.5
			c-5.189,69.297-20.746,137.245-30.327,205.959c-5.974,42.873-5.333,86.196-4.543,129.36c0.698,38.615,8.593,88.409-4.412,125.353
			c-25.966,73.771-60.623,149.132-98.827,217.707c-24.666,44.271-58.538,82.874-80.712,128.557
			c-20.711,42.7-28.293,89.78-37.242,135.951c-15.507,80.075-46.387,158.173-83.839,230.465
			c-29.926,57.742-82.532,124.467-148.315,140.763c-57.142,14.149-99.025-13.028-148.128-37.211
			c-54.67-26.929-102.963-64.63-153.465-98.304C1694.423,4358.563,1660.619,4352.88,1672.99,4383.022z"/>
		<path id="_x31_80609417_1_" fill="#82C7AE" stroke="#000000" d="M1909.085,3012.695c-41.902,76.918-50.458,130.13-57.14,215.843
			c-7.746,99.347-13.786,230.039-18.979,329.542c-2.357,45.155-4.868,87.985-15.867,132.833
			c-11.718,47.811-8.099,96.065-26.828,141.663c-16.363,39.828-38.804,75.084-65.204,108.943
			c-21.268,27.294-45.665,54.624-50.784,90.159c-15.788,109.682,129.861,216.739,228.929,159.601
			c63.185-36.452,91.276-116.271,111.781-181.91c27.47-87.878,49.574-177.861,72.412-267.016
			c62.571-244.357,107.778-494.139,113.757-746.862c1.721-72.948,4.629-145.772,2.141-218.762
			c-7.085-208.309-83.417-460.479-307.574-530.079c-20.038-6.222-66.818-20.519-84.379-4.106
			c-23.071,21.551,5.988,71.551,13.059,95.033c35.451,117.703,93.543,235.186,131.678,348.281
			c22.575,66.918,34.431,123.964,21.757,187.726C1969.347,2916.313,1931.475,2971.588,1909.085,3012.695z"/>
		<path id="_x31_80609416_1_" fill="#9AD2BD" stroke="#000000" d="M1920.587,2255.347
			c204.983,79.967,275.897,320.971,282.715,521.383c2.489,72.989-0.42,145.813-2.141,218.762
			c-5.979,252.724-51.186,502.506-113.757,746.861c-22.839,89.155-44.942,179.138-72.413,267.017
			c-20.504,65.638-48.597,145.459-111.781,181.908c-35.762,20.627-77.594,19.853-115.709,5.288
			c-16.198,17.209,21.816,48.012,50.17,58.12c13.542-3.014,32.084-4.592,37.895-5.764c56.738-11.452,102.647-66.064,130.899-115.213
			c30.421-52.927,42.345-113.754,58.075-172.855c9.257-34.805,13.705-75.754,29.05-108.244
			c27.961-59.172,44.22-119.151,56.837-183.989c14.809-76.146,27.009-152.764,40.537-229.14
			c15.736-88.875,20.479-179.195,33.881-268.389c15.852-105.419,39.586-203.386,24.122-311.001
			c-19.11-132.994-6.882-260.888-69.922-384.47c-44.711-87.664-110.372-165.737-190.296-213.292
			c-12.532-7.457-32.647-14.057-40.303-27.571c-2.637-4.651-3.826-7.992-3.906-10.292
			C1930.113,2224.005,1920.954,2238.614,1920.587,2255.347z"/>
		<path id="_x31_80609415_1_" fill="#82C7AE" stroke="#000000" d="M2248.966,2860.089c15.465,107.615-8.27,205.583-24.122,311
			c-13.402,89.194-18.145,179.516-33.881,268.391c-13.529,76.375-25.729,152.992-40.537,229.139
			c-12.617,64.837-28.876,124.816-56.837,183.99c-15.344,32.489-19.793,73.439-29.051,108.242
			c-15.729,59.104-27.652,119.931-58.074,172.858c-28.254,49.146-74.16,103.76-130.898,115.212
			c-8.709,1.756-46.035,4.424-52.226,11.468c-11.628,13.251,4.743,19.354,17.325,22.708c43.75,11.646,111.872-12.036,143.806-43.438
			c34.227-33.686,47.688-76.075,69.568-117.224c36.097-67.922,51.35-148.566,75.497-221.671
			c27.079-81.976,52.684-164.642,70.047-249.291c24.944-121.546,43.467-241.317,57.293-364.573
			c4.922-43.858,6.149-88.048,11.029-131.914c4.364-39.189,16.126-76.582,20.832-115.502c7.432-61.366,11.89-124.444,10.835-186.266
			c-3.176-187.874-57.97-412.542-204.256-541.453c-31.172-27.479-65.455-48.146-100.378-70.239
			c-8.491-5.37-65.702-40.656-46.492-6.768c7.655,13.515,27.771,20.115,40.304,27.571c79.923,47.556,145.584,125.63,190.295,213.293
			C2242.085,2599.204,2229.856,2727.097,2248.966,2860.089z"/>
		<path id="_x31_80609414_1_" fill="#9AD2BD" stroke="#000000" d="M1742.243,4391.035c38.731,26.937,77.291,54.297,119.686,75.181
			c49.103,24.182,90.986,51.359,148.128,37.21c65.785-16.295,118.392-83.019,148.315-140.762
			c37.453-72.291,68.332-150.391,83.839-230.465c8.949-46.172,16.53-93.251,37.243-135.952
			c22.173-45.681,56.045-84.284,80.711-128.557c38.204-68.574,72.861-143.936,98.827-217.706
			c13.006-36.942,5.111-86.738,4.412-125.354c-0.79-43.163-1.432-86.487,4.543-129.359c9.582-68.715,25.138-136.663,30.327-205.959
			c4.818-64.313-2.463-130.089-5.094-194.501c-7.248-177.571-28.899-359.442-85.639-528.758
			c-29.682-88.564-93.393-128.592-155.018-193.769c-40.59-42.93-73.516-91.179-101.375-142.593
			c-46.682-36.638-161.772-58.066-207.42-42.448c-80.947,27.694-53.971,104.749,0.814,136.692
			c0.599-13.246,43.162,13.019,50.395,17.592c34.923,22.096,69.206,42.762,100.378,70.239
			c146.286,128.911,201.08,353.58,204.256,541.454c1.055,61.82-3.403,124.899-10.835,186.266
			c-4.706,38.92-16.468,76.312-20.831,115.502c-4.883,43.866-6.108,88.054-11.03,131.914
			c-13.826,123.255-32.349,243.026-57.293,364.573c-17.363,84.647-42.968,167.313-70.047,249.291
			c-24.148,73.104-39.402,153.749-75.497,221.671c-21.882,41.148-35.343,83.536-69.568,117.224
			c-31.932,31.402-100.056,55.084-143.806,43.438c-10.22-2.725-22.937-7.262-21.123-15.97
			C1752.277,4272.054,1715.759,4335.57,1742.243,4391.035z"/>
		<path id="_x31_80609418_1_" fill="#9DF0D2" stroke="#000000" d="M1268.828,2211.292c-22.576,36.369-20.678,76.108-41.617,112.625
			c-18.815,32.806-63.907,57.355-48.545,100.835c12.244,34.672,60.266,55.645,91.725,67.157
			c59.314,21.713,126.119,48.186,187.953,59.76c113.759,21.29,230.723-7.001,340.559,38.193
			c17.798,7.324,61.813,39.37,81.261,23.998c38.593-30.528-21.668-123.346-33.934-152.914
			c-25.318-61.073-40.212-127.859-64.02-188.457c-23.658-60.237-45.35-127.269-30.467-192.647
			c18.603-81.753-135.998-32.283-170.606-26.301c-33.675,5.826-66.261,9.878-99.216,19.005
			C1423.96,2088.607,1316.538,2134.452,1268.828,2211.292z"/>
		<path id="_x31_80609419_1_" fill="#9DF0D2" stroke="#000000" d="M1305.187,2321.729c-35.796-22.057-30.797-57.178-9.108-86.444
			c37.274-50.305,92.822-27.473,147.058-39.767c36.488-8.273,73.01-4.162,110.412-10.824
			c60.775-10.833,104.708-79.835,171.281-65.044c19.196,4.266,20.937,17.289,22.973,30.008c3.704,23.126,0.491,48.603-13.301,67.529
			c-27.554,37.815-64.494,71.918-104.626,96.142c-18.087,10.914-39.789,15.577-62.302,17.771
			C1483.129,2339.323,1382.977,2369.662,1305.187,2321.729z"/>
		<path id="_x31_80609421_1_" fill="#95E4C8" stroke="#000000" d="M1834.064,2430.895c-0.007,0.014-0.015,0.025-0.022,0.039
			c-4.432,8.87-11.68,18.599-18.511,27.353c-14.876,19.064-33.404,33.02-54.24,43.363c-22.034,11.292-44.618,17.162-65.257,21.348
			c-11.638,2.36-23.35,4.053-35.104,5.349c-44.99,5.562-91.179,6.299-130.384,11.295c-8.273,1.056-16.803,2.083-25.519,3.119
			c-22.084,2.699-51.189,6.255-55.95,6.837c-0.222,0.029-0.443,0.059-0.665,0.088c120.635,24.525,240.659-5.014,350.489,40.178
			c17.798,7.324,61.813,39.369,81.26,23.997c35.664-28.188-10.871-105.821-25.586-135.605
			C1852.143,2473.335,1840.854,2448.871,1834.064,2430.895z"/>
		<path id="_x31_80609420_1_" fill="#9DF0D2" stroke="#000000" d="M1279.51,2496.938c59.388-7.818,121.161-5.463,181.015-8.326
			c44.098-2.111,89.448,1.708,132.756-5.82c42.611-7.403,80.907-26.202,120.474-42.726c26.44-11.051,74.93-39.5,103.702-37.786
			l3.454-2.407c-6.697-30.038-38.806-200.569-90.814-169.363c-11.162,6.692-20.266,34.077-27.413,44.847
			c-25.614,38.648-49.394,68.35-92.871,86.92c-53.679,22.929-106.786,44.294-165.854,47.241
			c-47.746,2.383-90.462-7.501-133.769-26.962c-26.115-11.725-61.646-43.082-92.278-38.195
			c-29.426,4.695-48.397,54.486-39.245,80.389c12.244,34.672,60.266,55.645,91.725,67.157L1279.51,2496.938z"/>
		<path id="_x31_80609422_1_" fill="#54BF94" stroke="#000000" d="M1908.621,2971.625c41.808-13.326,49.11-109.871,52.508-144.387
			c6.078-61.93-6.227-132.986-65.623-172.234c-58.456-38.62-142.544-78.53-227.719-77.332
			c-122.515,1.729-196.278-4.297-313.356-40.24c-45.968-14.108-104.908-31.39-140.228-57.786c-8.731-6.522-84.42-71.033-76.7-73.992
			c-94.43,52-110.467,115.304-136.772,196.336c-23.614,72.698-40.247,149.371-39.286,223.862
			c1.48,114.772,12.104,230.23,33.6,342.969c37.496,196.528,100.627,376.895,190.51,554.958
			c70.244,139.146,173.967,354.138,353.552,312.721c63.074-14.545,115.99-52.813,156.501-102.073
			c29.479-35.85,97.006-101.55,56.687-150.504c-14.338-17.404-11.022-36.498-11.111-57.849c-0.038-9.148,0.465-18.234,0.64-27.371
			c0.947-50.514,6.912-100.777,11.86-150.999c8.339-85.146-8.845-185.384-40.026-265.984
			c-15.563-40.223-36.298-78.111-57.832-115.376c-25.706-44.476-87.234-105.524-80.205-160.15
			c7.579-58.815,85.969-73.835,132.789-78.645c46.012-4.721,118.346-14.93,152.619,25.749
			C1861.026,2953.298,1886.316,2978.731,1908.621,2971.625z"/>
		<path id="_x31_80609423_1_" fill="#54BF94" stroke="#000000" d="M1092.277,3032.624c16.069,85.891,53.386,248.635,98.406,396.24
			c24.865,81.506,62.217,164.674,103.828,238.92c42.038,75.043,90.72,170.174,152.874,230.604
			c56.894,55.311,125.564,56.707,158.676,51.799c29.366-4.35,91.672-50.233,108.98-38.535
			c28.568-33.567,63.121-78.756,44.453-116.645c-31.664-23.734-75.903-39.558-101.155-48.022
			c-82.92-27.794-141.812-71.732-199.158-141.275c-98.087-118.941-137.288-279.684-185.479-423.568
			c-46-137.342-105.008-347.742,14.47-465.84c51.215-50.623,125.918-64.196,187.772-86.082c0.012-0.002,0.022-0.01,0.034-0.012
			c94.544-33.42,221.485-39.326,320.896-26.797c1.064,0.135-30.723-15.908-99.95-25.193c-22.762-3.054-84.823,2.823-128.105-2.656
			c-75.013-1.495-103.167-11.445-153.45-21.156c-46.995,7.334-94.462,17.761-135.699,35.716
			C1057.236,2686.954,1058.26,2850.822,1092.277,3032.624z"/>
		<path id="_x31_80609424_1_" fill="#54BF94" stroke="#000000" d="M1680.552,3657.262c17.512,24.156,43.668,50.914,60.49,79.089
			c0.077-3.369,0.151-6.791,0.138-10.276c-0.036-9.148,0.465-18.235,0.64-27.371c0.948-50.514,6.912-100.776,11.86-151
			c8.341-85.146-8.845-185.383-40.026-265.983c-15.563-40.223-36.298-78.111-57.832-115.376
			c-25.705-44.476-87.232-105.524-80.203-160.15c7.577-58.815,85.967-73.834,132.787-78.645
			c43.871-4.499,95.699-12.829,135.709,10.978c6.657,3.967,12.937,7.661,18.917,10.757c26.564,13.755,47.38,15.813,69.752-22.22
			c45.305-77.039,46.087-209.118-30.327-267.118c-30.93-5.817-58.031-9.502-69.612-10.657
			c-182.675-18.246-551.097,9.646-530.915,272.004c12.192,158.488,106.586,325.862,179.349,463.846
			C1532.576,3482.414,1616.04,3568.265,1680.552,3657.262z"/>
		<path id="_x31_80609428_1_" fill="#CCCCCC" stroke="#000000" d="M1714.261,3070.62c8.693,20.392,18.096,42.12,29.446,61.165
			c15.547,26.084,22.487,55.675,29.257,84.948c4.373,18.92,9.327,36.264,16.967,53.854c5.151,11.876,11.236,34.528,27.833,29.871
			c11.175-3.139,16.686-17.203,30.04-51.42c-1.916,7.079,1.043,15.382,0.878,22.722c-1.057,47.095-5.027,93.349-5.967,140.571
			c-0.899,45.067-3.099,89.064-6.523,133.932c-2.704,35.4-6.012,70.825-12.103,105.826c-6.125,35.255-16.105,67.161-29.615,100.172
			c-7.017,17.144-17.117,48.253-41.803,31.56c-15.9-10.751-11.423-41.443-11.491-57.747c-0.036-9.148,0.465-18.235,0.64-27.371
			c0.948-50.514,6.912-100.776,11.86-151c8.341-85.146-8.845-185.383-40.026-265.983c-15.563-40.223-36.298-78.111-57.832-115.376
			c-25.705-44.476-87.232-105.524-80.203-160.15c7.577-58.815,85.967-73.834,132.787-78.645
			c46.012-4.721,118.346-14.93,152.621,25.749c31.921,37.879-87.657,46.104-103.569,47.831
			c-17.244,1.867-36.586,4.649-48.058,19.211C1699.001,3033.549,1713.512,3068.854,1714.261,3070.62z"/>
		<path id="_x31_80609429_1_" fill="#CCCCCC" stroke="#000000" d="M2158.211,4538.495c141.772-27.75,276.733-106.4,369.056-208.757
			c131.739-146.063,134.546-361.302,127.582-547.481c-4.033-107.375-1.54-216.689-0.566-324.175
			c1.508-167.583-4.919-346.357-11.561-514.633c-4.588-115.981-21.983-232.596-54.983-343.974
			c-18.64-62.882-37.893-129.63-63.315-193.327c53.87,142.587,65.678,304.714,80.511,452.123
			c6.257,62.273,17.18,123.804,19.487,186.246c2.456,66.306,0.652,132.636,1.677,198.971c1.2,77.447,4.329,154.848,5.122,232.298
			c0.751,72.477,9.428,145.749,1.74,218.089c-5.442,51.108-18.559,113.582-42.285,159.459
			c-25.405,49.129-63.549,92.808-93.884,139.094c-18.611,28.401-27.197,70.815-39.862,102.485
			c-14.563,36.412-29.625,72.619-45.292,108.568c-28.85,66.161-58.98,132.164-93.566,195.559
			C2278.675,4471.233,2229.562,4518.051,2158.211,4538.495z"/>
		<path id="_x31_80609430_1_" fill="#CCCCCC" stroke="#000000" d="M1530.546,2539.64c91.679-11.683,221.548-0.053,284.983-81.354
			c18.254-23.391,39.522-53.769,1.925-56.006c-28.772-1.714-77.26,26.735-103.703,37.786
			c-39.564,16.524-77.863,35.323-120.473,42.726c-43.308,7.527-88.658,3.708-132.757,5.82
			c-59.853,2.864-121.626,0.508-181.015,8.328c-341.241,44.923-329.827,479.939-272.222,732.334
			c35.436,155.222,90.451,311.222,159.347,454.902c58.969,122.976,117.48,256.102,235.773,332.554
			c51.971,33.589,119.755,40.783,179.645,30.387c45.917-7.973,127.033-66.819,136.596-115.675
			c10.971-55.977-76.16,13.353-112.583,18.746c-33.112,4.907-101.785,3.512-158.678-51.799
			c-62.152-60.429-110.835-155.561-152.874-230.604c-41.609-74.246-78.963-157.413-103.827-238.92
			c-45.021-147.605-82.337-310.349-98.406-396.24c-34.018-181.803-35.043-345.67,187.393-442.505
			C1356.119,2556.835,1453.968,2549.402,1530.546,2539.64z"/>
		<path id="_x31_80609431_1_" fill="#CCCCCC" stroke="#000000" d="M1790.909,2025.24c-90.794,3.214-179.945,15.062-268.463,35.706
			c-18.095,4.219-149.111,44.14-104.685,80.146c19.201,15.557,58.62,6.906,80.796,6.429c55.365-1.185,109.006-18.877,163.797-25.573
			c48.392-5.914,102.85-11.253,142.195-43.107c12.29-9.95,29.028-28.451,15.423-43.796c-14.333-16.175-49.875-10.066-68.542-9.248"
			/>
		<path id="_x31_80609427_1_" fill="#AAAAAA" stroke="#000000" d="M1852.942,3202.383c-3.941,26.034-5.45,59.897-19.678,82.936
			c-28.097,45.509-45.273-16.586-52.216-40.356c-10.631-36.377-18.313-74.055-34.594-108.505
			c-14.118-29.895-32.875-60.244-41.456-92.396c-12.067-45.235,74.655-42.252,107.364-50.563c18.84-4.78,71.284-26.09,88.461-8.36
			c17.705,18.293-6.756,52.427-15.024,71.211c-6.48,14.731-11.378,29.637-15.283,44.714
			C1861.964,3134.073,1858.149,3167.891,1852.942,3202.383z"/>
	</g>
</g>
</svg>
