<?xml version="1.0" encoding="utf-8"?>
<!-- Generator: Adobe Illustrator 16.0.0, SVG Export Plug-In . SVG Version: 6.00 Build 0)  -->
<!DOCTYPE svg PUBLIC "-//W3C//DTD SVG 1.1//EN" "http://www.w3.org/Graphics/SVG/1.1/DTD/svg11.dtd">
<svg version="1.1" id="Layer_1" xmlns="http://www.w3.org/2000/svg" xmlns:xlink="http://www.w3.org/1999/xlink" x="0px" y="0px"
	 width="7584px" height="6400px" viewBox="0 0 7584 6400" enable-background="new 0 0 7584 6400" xml:space="preserve">
<g>
	<g transform="scale(1.0)">
		<g id="_x31_80611026" transform=" scale(1.0, 1.0)">
			<path id="_x31_80611028" fill="#BFDAE3" stroke="#000000" d="M6341.527,4026.188c-26.129,10.025-54.502,16.665-85.457,19.214
				c136.697-11.247,123.811,251.061,91.199,323.932c-54.393,121.519-129.885,229.226-220.703,326.315
				c-88.715,94.83-191.818,171.04-294.602,247.819c-129.119,96.447-240.406,221.76-364.9,324.898
				c-143.228,118.652-238.028,261.631-415.09,339.369c-160.349,70.391-341.439,80.201-504.784,13.689
				c-107.364-43.702-199.898-71.322-284.061-155.999c-77.98-78.471-137.242-173.515-207.116-258.799
				c-115.796-141.308-177.846-320.669-224.683-495.759c-6.357-23.861-11.857-47.948-16.482-72.206
				c-16.213-84.901-18.911-169.13-21.869-255.032c-1.091-31.672,0.132-63.519-0.188-95.071c-0.337-32.328-0.982-64.674-0.611-97.007
				c0.358-32.092,0.732-64.187,0.752-96.281c0.062-93.874,11.944-192.709,11.906-285.99c-0.04-89.269,34.187-177.199,26.903-266.346
				c-15.115-185.01-38.226-358.334-38.107-543.531c0.052-83.146,0.092-142.546,0.141-220.337
				c0.167-257.754,0.346-536.296,0.519-798.188c0.067-113.093-0.355-211.211,0.204-324.29c0.421-84.079,0.152-234.61,0.27-415.085
				c0.065-104.171,82.758-152.417,150.426-225.794c102.493-111.133,235.246-192.125,380.625-232.608
				c233.876-65.129,476.034-55.716,715.143-29.305c336.217,37.137,605.07,199.5,901.887,351.708
				c103.734,53.194,236.795,114.899,316.311,201.806c270.133,295.205,580.545,743.916,601.016,1156.274
				c13.834,278.626-29.186,560.6-108.881,826.9c-34.861,116.462-73.74,249.139-125.932,372.114
				C6564.746,3805.416,6489,3969.63,6341.527,4026.188z"/>
			<path id="_x31_80611029" fill="#B0FFB8" stroke="#000000" d="M6860.168,2463.585
				c-20.471-412.355-330.879-861.068-601.008-1156.274c-79.516-86.909-212.578-148.614-316.311-201.805
				c-296.809-152.211-565.658-314.575-901.868-351.709c-239.111-26.415-481.26-35.83-715.133,29.297
				c-145.373,40.485-278.131,121.479-380.625,232.611c-67.669,73.376-141.298,121.707-145.354,225.795
				c-7.027,180.471-4.918,331.005-5.336,415.082c-0.564,113.081-1.93,211.217-0.207,324.293
				c3.988,261.892,3.815,540.436,3.642,798.191c-0.047,77.788-4.243,137.19-4.291,220.335
				c-0.121,185.194,22.993,358.517,38.099,543.53c7.285,89.146-26.938,177.077-26.9,266.347
				c0.045,93.281-3.485,186.401-6.15,280.242c-5.884,206.97-21.664,418.304,32.642,621.348
				c46.839,175.093,108.887,354.454,224.681,495.767c69.871,85.287,129.133,180.324,207.113,258.795
				c84.165,84.676,176.689,112.297,284.055,155.999c162.856,66.313,343.355,56.755,503.341-13.069v-0.006
				c-0.501,0.216-1.003,0.434-1.502,0.648c-9.661-23.806-11.843-47.959-20.583-72.102c-6.396-17.637-12.733-35.296-18.804-53.041
				c-5.798-16.954-11.354-33.99-16.475-51.17c-2.704-9.066-5.518-18.503-8.308-28.218c-17.316-60.363-33.487-131.361-14.566-189.878
				c26.591-82.223,81.611-71.506,139.791-26.561c28.401,21.949,57.557,52.06,84.527,83.502c15.186,17.7,29.679,35.824,42.953,53.152
				c32.605,42.569,57.874,80.342,68.026,95.27c-1.174,1.107-2.317,2.225-3.459,3.346l0.99-0.043l0.012,0.261
				c52.543-51.603,103.994-105.503,163.92-155.146c124.49-103.137,235.781-228.454,364.898-324.899
				c102.775-76.777,205.883-152.991,294.596-247.819c90.809-97.085,166.303-204.796,220.695-326.313
				c32.615-72.871,45.496-335.18-91.193-323.934c30.947-2.548,59.326-9.186,85.455-19.214
				c147.473-56.555,223.217-220.774,283.826-363.59c52.197-122.973,91.074-255.652,125.934-372.117
				C6830.982,3024.185,6874.006,2742.211,6860.168,2463.585z M4810.222,4113.119c-2.46,9.563-12.699,22.126-20.507,27.911
				c-23.267,17.24-55.54-1.207-67.495-22.438c-8.669-15.383-8.028-34.381-11.791-51.222c-5.638-25.233-16.561-47.271-27.212-70.664
				c-9.728-21.402-21.116-43.104-36.969-60.809c-3.919-4.38-8.112-8.506-12.62-12.332c-4.516-3.835-10.484-7.447-10.763-14.11
				c-0.835-19.892,25.197-22.218,40.497-18.406c50.608,12.633,92.129,45.042,113.665,92.413
				C4792.827,4018.202,4820.328,4073.791,4810.222,4113.119z"/>
			<path id="_x31_80611063" fill="#1F9D5A" stroke="#000000" d="M6860.174,2463.582c13.871,278.636-29.213,560.64-108.873,826.908
				c-19.912,66.588-41.162,138.413-65.484,210.735l-7.316-2.499l-136.041-105.184c13.84-58.444,24.936-116.806,36.443-172.01
				c45.955-220.31,99.959-413.924,109.082-640.242c8.955-220.334-23.1-412.09-116.596-606.962
				c-100.387-209.262-233.293-407.071-402.723-566.739c-173.002-163.161-410.816-264.422-627.687-351.284
				c-54.615-21.904-100.748-41.143-142.477-58.295l61.445-131.415c163.171,67.455,318.767,154.776,482.921,238.941
				c103.73,53.198,236.809,114.897,316.322,201.754C6529.309,1602.552,6839.734,2051.244,6860.174,2463.582z"/>
			<path id="_x31_80611062" fill="#1F9D5A" stroke="#000000" d="M6571.391,1974.328c93.494,194.873,125.553,386.63,116.596,606.963
				c-9.127,226.318-63.129,419.933-109.082,640.242c-11.51,55.202-22.604,113.563-36.443,172.01l-475.605-367.734
				c136.643-183.083,157.59-431.845,80.268-696.301c-47.453-162.331-24.813-203.06-166.043-383.247
				c-189.334-241.663-427.517-417.09-692.487-568.671c-18.202-10.405-36.237-20.061-54.025-29.055l163.936-350.523
				c41.73,17.155,87.861,36.392,142.477,58.296c216.87,86.861,454.683,188.12,627.687,351.283
				C6338.096,1567.257,6471,1765.066,6571.391,1974.328z"/>
			<path id="_x31_80611061" fill="#1F9D5A" stroke="#000000" d="M6147.121,2329.507c77.32,264.457,56.377,513.218-80.268,696.301
				l-401.229-310.313c24.875-20.687,41.275-53.853,44.551-104.487c13.1-202.619-174.739-439.128-328.816-552.473
				c-65.82-48.35-126.317-103.764-193.303-150.369c-46.29-32.209-99.307-77.971-156.147-126.4l202.654-433.23
				c17.786,8.992,35.823,18.648,54.027,29.054c264.971,151.582,503.153,327.007,692.485,568.67
				C6122.309,2126.446,6099.666,2167.173,6147.121,2329.507z"/>
			<path id="_x31_80611060" fill="#1F9D5A" stroke="#000000" d="M5381.359,2058.537
				c154.077,113.346,341.918,349.853,328.816,552.472c-3.275,50.634-19.676,83.799-44.551,104.487l-300.088-232.005l-6.155,2.573
				l-2.24-5.324c0,0-193.963-152.531-520.901-268.317l-8.647,0.66l0.335-6.238l8.31,5.327l-4.07-5.075l1.33-1.081l198.408-424.255
				c56.843,48.429,109.857,94.194,156.148,126.401C5255.044,1954.772,5315.539,2010.186,5381.359,2058.537z"/>
			<path id="_x31_80611067" fill="#1F9D5A" stroke="#000000" d="M5459.947,866.596l-61.445,131.415
				c-105.233-43.386-182.373-73.619-294.936-100.214c-209.412-49.441-474.289-85.947-693.251-22.397
				c-168.901,49.03-310.401,157.695-395.396,319.777l-106.342-131.606l-8.893-2.499c15.141-14.459,30.699-29.333,45.508-45.371
				c102.506-111.101,235.259-192.083,380.624-232.566c233.929-65.202,476.043-55.732,715.152-29.304
				C5191.283,770.389,5328.114,812.052,5459.947,866.596z"/>
			<path id="_x31_80611066" fill="#1F9D5A" stroke="#000000" d="M5398.502,998.012l-163.938,350.524
				c-115.534-58.609-224.182-92.603-337.89-151.626c-251.848-130.787-604.401-105.323-722.076,196.011l-159.681-197.743
				c84.995-162.082,226.495-270.747,395.396-319.777c218.964-63.549,483.839-27.042,693.251,22.398
				C5216.129,924.393,5293.269,954.625,5398.502,998.012z"/>
			<path id="_x31_80611065" fill="#1F9D5A" stroke="#000000" d="M5234.563,1348.535l-202.654,433.23
				c-138.693-118.157-300.576-252.128-444.671-243.822c-89.133,5.096-164.977,25.919-206.271,110.535l-206.37-255.56
				c117.677-301.332,470.23-326.797,722.077-196.011C5010.381,1255.933,5119.029,1289.926,5234.563,1348.535z"/>
			<path id="_x31_80611064" fill="#1F9D5A" stroke="#000000" d="M4828.267,2202.274l-447.299-553.795
				c41.294-84.617,117.136-105.438,206.271-110.535c144.095-8.305,305.978,125.666,444.671,243.822l-198.408,424.253l-1.329,1.082
				L4828.267,2202.274z"/>
			<path id="_x31_80611071" fill="#40A666" stroke="#000000" d="M3920.655,1546.245c-2.76,24.611-4.938,49.303-6.698,74.08
				l-119.183-76.489c0.052-81.734-0.047-185.833,0.028-302.322c0.051-81.398,50.551-128.677,104.88-180.441l8.893,2.499
				l106.342,131.606c-25.308,48.042-45.546,100.744-60.131,158.024C3938.699,1416.464,3927.932,1480.979,3920.655,1546.245z"/>
			<path id="_x31_80611070" fill="#40A666" stroke="#000000" d="M4174.598,1392.92c-0.918,2.16-1.749,4.322-2.581,6.483
				c-19.656,52.452-18.116,113.565-26.135,167.441c-9.267,62.521-6.9,131.117-2.124,200.963l-147.189-94.468
				c-50.526-32.426-27.88-17.89-58.883-37.788l-23.728-15.229c3.44-30.859,3.804-52.907,13.125-124.89
				c6.931-53.526,19.223-108.882,27.706-142.234c14.585-57.28,34.824-109.981,60.131-158.023L4174.598,1392.92z"/>
			<path id="_x31_80611069" fill="#40A666" stroke="#000000" d="M4174.598,1392.92l206.371,255.559
				c-5.58,11.304-10.576,23.856-14.826,37.573c-20.081,64.841-26.194,135.346-28.071,206.437l-194.313-124.68
				c-4.778-69.845-7.145-138.444,2.124-200.963c8.019-53.875,6.479-114.987,26.135-167.441
				C4172.849,1397.242,4173.68,1395.08,4174.598,1392.92z"/>
			<path id="_x31_80611068" fill="#40A666" stroke="#000000" d="M4828.267,2202.274l-0.337,4.572l-489.856-314.358
				c1.875-71.091,7.988-141.596,28.069-206.436c4.251-13.719,9.245-26.269,14.827-37.573L4828.267,2202.274z"/>
			<path id="_x31_80611076" fill="#2FA850" stroke="#000000" d="M3794.774,1543.835l119.184,76.49
				c-11.912,162.458-5.783,327.925-7.463,487.4c-0.621,59.865-2.073,119.396-4.108,178.763l-105.517,8.329l-2.742-0.001
				c0.067-105.68,0.134-211.108,0.202-313.962c0.072-113.08-0.364-211.191,0.208-324.271
				C3794.639,1626.816,3794.746,1588.651,3794.774,1543.835z"/>
			<path id="_x31_80611075" fill="#2FA850" stroke="#000000" d="M3996.568,1673.342c8.291,166.382-21.16,454.548-22.174,607.372
				l-72.008,5.774c2.033-59.366,3.487-118.896,4.108-178.762c1.682-159.475-4.447-324.94,7.464-487.401L3996.568,1673.342z"/>
			<path id="_x31_80611074" fill="#2FA850" stroke="#000000" d="M4143.758,1767.808c5.519,82.983,14.276,167.799,10.817,246.536
				c-3.713,84.477-8.923,168.868-14.629,253.257l-165.551,13.111c1.013-152.823,30.464-440.989,22.174-607.372L4143.758,1767.808z"
				/>
			<path id="_x31_80611073" fill="#2FA850" stroke="#000000" d="M4143.758,1767.808l194.315,124.68
				c-2.129,76.657,0.814,153.987-3.39,225.905c-2.774,48.224-5.961,92.29-9.4,134.527l-185.341,14.681
				c5.707-84.39,10.917-168.781,14.63-253.257C4158.034,1935.606,4149.276,1850.792,4143.758,1767.808z"/>
			<path id="_x31_80611072" fill="#2FA850" stroke="#000000" d="M4821.108,2213.66l-495.821,39.26
				c3.439-42.237,6.624-86.301,9.4-134.527c4.204-71.92,1.261-149.247,3.39-225.906l489.856,314.358l-0.337,6.236L4821.108,2213.66z
				"/>
			<path id="_x31_80611086" fill="#59B363" stroke="#000000" d="M4025.278,3446.631c1.413,2.496,2.826,4.906,4.069,7.401
				c-78.648-10.11-203.536-25.827-200.767-25.437c0.001,0.083-5.213-0.441-7.08-1.166
				c-11.176-118.343-23.373-238.874-26.872-358.185l77.949-64.97c0.546,59.2,2.999,117.737,8.037,174.612
				C3891.261,3299.374,3969.22,3348.896,4025.278,3446.631z"/>
			<path id="_x31_80611085" fill="#59B363" stroke="#000000" d="M4325.504,3467.443l-4.752,23.111
				c-69.584-14.677-142.334-21.043-234.285-29.501c-7.065-0.67-28.849-3.345-57.117-7.021c-1.244-2.495-2.656-4.907-4.069-7.401
				c-56.059-97.734-134.018-147.257-144.667-267.743c-5.036-56.875-7.491-115.413-8.035-174.612l96.915-80.756
				c-0.762,20.452-2.188,41.072-4.361,62.107c-8.453,82.31-38.631,204.432,65.284,231.524
				c78.478,20.506,149.347-29.089,197.93,64.15C4258.985,3340.187,4286.876,3412.957,4325.504,3467.443z"/>
			<path id="_x31_80611084" fill="#59B363" stroke="#000000" d="M4785.763,2873.573l-53.844,851.138l5.233,9.647
				c-3.495,2.909-6.822,5.983-10.069,9.393l-44.226-12.086l-1.993-0.083c2.257-19.455,2.767-36.585-0.055-45.647
				c-31.363-100.212-165.456-133.227-257.644-166.459c-34.662-12.495-68.165-21.745-102.415-28.92l4.753-23.111
				c-38.628-54.486-66.518-127.255-97.16-186.145c-48.581-93.239-119.452-43.646-197.93-64.151
				c-103.914-27.091-73.739-149.214-65.286-231.523c2.175-21.035,3.602-41.655,4.363-62.108l104.482-87.152
				c-3.341,28.019-4.355,55.54-1.299,81.815c4.716,40.163,18.993,77.423,49.402,108.788c41.962,43.43,116.686,78.981,177.807,67.548
				c61.035-11.438,92.417-65.877,135.511-104.595c92.429-82.921,213.592-113.523,335.403-116.357
				C4775.784,2873.484,4780.774,2873.404,4785.763,2873.573z"/>
			<path id="_x31_80611083" fill="#59B363" stroke="#000000" d="M4806.593,2544.741l-20.832,328.832
				c-4.988-0.169-9.977-0.089-14.965-0.01c-121.81,2.832-242.972,33.436-335.402,116.355
				c-43.095,38.719-74.473,93.159-135.511,104.595c-61.118,11.435-135.846-24.115-177.806-67.546
				c-30.411-31.368-44.688-68.625-49.402-108.788c-3.059-26.276-2.042-53.797,1.299-81.815l220.955-184.111
				c-3.692,54.21-5.229,115.655,8.136,147.924c44.414,107.037,111.476,40.812,166.887-18.6
				C4574.371,2669.645,4651.85,2559.691,4806.593,2544.741z"/>
			<path id="_x31_80611082" fill="#59B363" stroke="#000000" d="M4827.593,2213.083l-21,331.658
				c-154.743,14.95-232.222,124.903-336.641,236.835c-55.412,59.415-122.472,125.639-166.886,18.6
				c-13.365-32.269-11.828-93.713-8.137-147.922l526.177-438.594L4827.593,2213.083z"/>
			<path id="_x31_80611055" fill="#248A5E" stroke="#000000" d="M5895.516,3762.628l55.457,131.988
				c-23.52-12.488-47.209-24.808-71.316-36.798c-134.736-66.854-267.223-137.529-391.554-222.501
				c-34.24-23.387-68.311-49.184-103.719-72.49l2.582-3.906l-57.199-139.804c0.416,0.167,0.748,0.33,1.084,0.499
				c158.178,73.686,334.884,165.844,471.841,274.854C5831.938,3717.771,5863.104,3741.073,5895.516,3762.628z"/>
			<path id="_x31_80611054" fill="#248A5E" stroke="#000000" d="M5679.75,3248.891l215.768,513.737
				c-32.414-21.557-63.576-44.857-92.83-68.157c-136.955-109.01-313.662-201.167-471.841-274.854
				c-0.334-0.168-0.666-0.332-1.082-0.499l-171.84-420.251c97.245,54.937,190.078,117.776,273.609,166.468
				C5503.675,3207.454,5593.533,3243.349,5679.75,3248.891z"/>
			<path id="_x31_80611053" fill="#248A5E" stroke="#000000" d="M5461.08,2728.168l218.67,520.723
				c-86.219-5.541-176.075-41.436-248.217-83.555c-83.531-48.694-176.363-111.53-273.609-166.469l-180.06-440.045
				c120.546,26.186,232.756,80.304,348.965,124.278C5363.903,2697.093,5411.782,2715.25,5461.08,2728.168z"/>
			<path id="_x31_80611052" fill="#248A5E" stroke="#000000" d="M5359.381,2486.063l101.699,242.106
				c-49.298-12.92-97.177-31.077-134.251-45.069c-116.209-43.975-228.421-98.093-348.965-124.278l-141.624-346.397
				c326.94,115.786,520.903,268.317,520.903,268.317L5359.381,2486.063z"/>
			<path id="_x31_80611081" fill="#248A5E" stroke="#000000" d="M3796.87,2294.818l105.517-8.33
				c-4.324,126.713-11.469,252.759-19.116,380.385c-6.556,108.836-11.952,224.155-10.693,337.404l-77.95,64.969
				c-0.651-23.116-0.97-46.397-0.953-69.844c0.054-83.146,0.092-142.514,0.142-220.338c0.102-156.564,0.207-320.781,0.312-484.247
				L3796.87,2294.818z"/>
			<path id="_x31_80611080" fill="#248A5E" stroke="#000000" d="M3974.395,2280.714c-0.085,2.659-0.087,5.322-0.089,7.898
				c-0.086,132.618-8.463,230.062-8.557,376.98c-0.056,88.8,7.04,171.289,3.742,257.923l-96.915,80.757
				c-1.259-113.246,4.137-228.567,10.692-337.404c7.648-127.626,14.795-253.671,19.118-380.384L3974.395,2280.714z"/>
			<path id="_x31_80611079" fill="#248A5E" stroke="#000000" d="M3974.395,2280.714l165.55-13.112
				c-7.554,111.411-15.941,222.822-23.08,334.233c-4.367,69.093-33.19,153.718-42.889,234.53l-104.484,87.154
				c3.298-86.637-3.8-169.123-3.744-257.923c0.098-146.921,8.473-244.362,8.559-376.982
				C3974.308,2286.035,3974.31,2283.374,3974.395,2280.714z"/>
			<path id="_x31_80611078" fill="#248A5E" stroke="#000000" d="M4139.946,2267.601l185.341-14.681
				c-8.214,104.676-17.421,198.71-24.148,318.602c-1.093,19.54-4.023,48.888-6.204,80.731l-220.955,184.112
				c9.699-80.813,38.522-165.438,42.889-234.53C4124.005,2490.424,4132.392,2379.012,4139.946,2267.601z"/>
			<path id="_x31_80611077" fill="#248A5E" stroke="#000000" d="M4821.108,2213.66l-526.177,438.594
				c2.183-31.844,5.11-61.193,6.204-80.731c6.728-119.892,15.936-213.926,24.149-318.602L4821.108,2213.66z"/>
			<path id="_x31_80611051" fill="#248A5E" stroke="#000000" d="M5329.767,3419.119l57.197,139.803l-2.58,3.906
				c-43.3-28.714-88.764-53.686-139.143-66.189c-80.475-19.925-171.775-5.017-249.036,20.959c-3.242,1.079-7.567,2.488-12.643,4.066
				l-4.062-15.72c-46.779-49.667,83.879-103.711,116.893-110.925C5162.002,3380.511,5269.171,3391.308,5329.767,3419.119z"/>
			<path id="_x31_80611050" fill="#248A5E" stroke="#000000" d="M5157.925,2998.867l171.84,420.252
				c-60.596-27.813-167.765-38.606-233.373-24.098c-33.014,7.212-163.671,61.256-116.893,110.925l4.062,15.718
				c-35.428,11.284-107.612,35.104-106.886,68.278c0.483,23.864-72.893,89.587-139.526,144.419l-5.232-9.646l53.844-851.138
				C4910.231,2875.067,5037.407,2930.856,5157.925,2998.867z"/>
			<path id="_x31_80611049" fill="#248A5E" stroke="#000000" d="M4977.864,2558.821l180.06,440.045
				c-120.519-68.009-247.694-123.8-372.163-125.293l20.832-328.832c15.717-1.568,32.179-2.057,49.556-1.546
				C4897.889,2544.468,4938.376,2550.148,4977.864,2558.821z"/>
			<path id="_x31_80611048" fill="#248A5E" stroke="#000000" d="M4836.24,2212.424l141.622,346.397
				c-39.486-8.673-79.978-14.353-121.714-15.627c-17.375-0.51-33.841-0.023-49.556,1.546l21-331.659L4836.24,2212.424z"/>
			<path id="_x31_80611059" fill="#219866" stroke="#000000" d="M6678.5,3498.726l7.316,2.499
				c-18.162,54.199-38.068,108.646-60.469,161.349c-60.621,142.807-136.309,307.056-283.844,363.584
				c-26.115,10.044-54.469,16.677-85.402,19.235c23.033-1.897,41.82,4.019,56.945,15.42c-16.877-8.658-65.842-15.092-78.145-20.421
				c-99.828-43.716-190.422-96.157-283.932-145.771l-55.457-131.988c139.957,92.715,304.215,151.356,448.057,24.068
				c113.889-100.702,164.619-247.34,198.889-393.155L6678.5,3498.726z"/>
			<path id="_x31_80611058" fill="#219866" stroke="#000000" d="M6066.854,3025.808l475.605,367.735
				c-34.268,145.813-84.998,292.451-198.889,393.155c-143.842,127.288-308.1,68.645-448.057-24.068l-215.766-513.737
				c48.555,3.109,95.951-3.347,138.369-23.689C5924.414,3174.301,6006.854,3106.423,6066.854,3025.808z"/>
			<path id="_x31_80611057" fill="#219866" stroke="#000000" d="M5665.625,2715.496l401.229,310.312
				c-60,80.615-142.439,148.493-248.73,199.394c-42.416,20.344-89.814,26.798-138.371,23.69l-218.668-520.722
				C5537.561,2748.173,5617.375,2755.542,5665.625,2715.496z"/>
			<path id="_x31_80611056" fill="#219866" stroke="#000000" d="M5365.537,2483.49l300.088,232.006
				c-48.252,40.045-128.064,32.677-204.545,12.672l-101.699-242.106L5365.537,2483.49z"/>
			<path id="_x31_80611030" fill="#9AD2BD" stroke="#000000" d="M6303.75,4054.772c-10.92-5.418-23.723-8.588-38.236-9.444
				c-5.385-0.317-12.063,1.811-17.309,0.422c-7.674-2.041-15.887-6.734-23.215-9.923c-21.133-9.212-41.729-18.778-62.521-28.72
				c-10.031-4.799-19.502-10.565-29.816-14.811c-13.41-5.518-25.205-13.836-38.053-20.113c-14.172-6.922-28.32-14.032-42.309-21.431
				c-29.105-15.39-57.959-31.232-87.047-46.63c-28.174-14.896-56.367-29.709-84.971-43.742
				c-135.098-66.256-267.938-136.23-392.681-220.669c-76.424-51.723-151.891-115.197-243.49-137.448
				c-73.171-17.757-164.03-2.871-235.249,17.741c-42.881,12.416-83.457,37.172-125.866,52.629
				c-4.104,5.44-6.438,11.217-6.304,17.308c0.482,23.864-72.893,89.587-139.527,144.422c66.635-54.833,181.184-12.604,272.01,66.111
				c29.168,25.378,55.34,53.748,78.021,81.532c39.63,48.748,68.783,95.829,85.396,122.529
				c29.899,48.078,54.646,98.731,66.001,154.612c11.106,54.549,19.219,109.27,5.88,164.051
				c-14.59,59.773-44.141,114.713-88.236,157.922c-19.637,19.277-40.348,33.482-62.556,45.69
				c-17.301,9.468-35.516,17.604-54.894,25.99c-15.719,6.724-52.232,25.823-69.77,18.579c-5.237-2.164-12.215-13.643-16.617-17.637
				c-17.783-16.225-36.229-32.031-53.764-48.259c-19.029-17.722-33.398-39.683-55.423-54.413
				c33.013-6.629,60.214-24.986,81.93-50.25c23.132-26.923,36.541-62.835,47.954-96.005
				c23.407-67.582,59.615-127.757,55.502-201.178c-5.094-91.798-45.717-148.197-112.379-182.247
				c-27.179-13.902-58.683-23.982-93.849-31.324c-18.125-3.836-35.498-10.914-53.62-14.664
				c-56.532-11.511-94.851-27.833-67.205-91.758c6.992-16.125,15.566-29.34,25.551-39.894l-44.226-12.085l-1.995-0.083
				c2.259-19.455,2.769-36.584-0.055-45.646c-31.362-100.212-165.455-133.228-257.642-166.459
				c-34.664-12.497-68.166-21.747-102.417-28.922l0.383-1.86c-113.543-7.498-189.352-22.498-299.006-35.592
				c-16.016-1.916-194.037-24.555-199.959-24.895c0,0,1.091,14.307,2.546,34.42c2.45,26.57,4.829,53.313,7.035,80.307
				c1.344,16.46,1.271,32.879,0.263,49.271c-0.901,77.406-27.166,151.665-26.762,229.597c0.485,93.281-10.95,186.42-10.555,280.295
				c0.4,96.324,1,192.044,1.883,288.244c0.804,88.009,5.834,174.717,22.814,261.325c2.397,12.266,5.025,24.492,7.864,36.668
				c17.204,73.651,40.646,147.253,65.982,218.468c22.126,62.17,49.675,123.38,81.275,180.152
				c23.867,42.042,50.795,82.193,81.507,119.67c69.872,85.285,129.135,180.328,207.115,258.799
				c84.162,84.678,176.697,112.297,284.061,156.001c162.353,66.105,342.236,56.806,501.858-12.425
				c-9.663-23.806-11.843-47.959-20.583-72.102c-6.398-17.637-12.733-35.296-18.806-53.041c-5.798-16.954-11.354-33.99-16.473-51.17
				c-2.706-9.064-5.52-18.503-8.308-28.219c-17.316-60.363-33.489-131.36-14.568-189.877
				c26.591-82.223,81.611-71.506,139.791-26.561c28.403,21.949,57.557,52.06,84.527,83.502c15.184,17.7,29.677,35.824,42.951,53.152
				c32.607,42.569,57.876,80.342,68.028,95.27c-7.117,6.723-13.515,13.733-20.222,20.83
				c58.851-56.724,115.024-117.2,181.677-172.418c124.492-103.138,235.781-228.452,364.902-324.9
				c102.781-76.775,205.885-152.989,294.6-247.817c90.816-97.091,166.311-204.796,220.705-326.317
				C6375.459,4306.346,6388.902,4101.826,6303.75,4054.772z M4810.222,4113.119c-2.46,9.563-12.699,22.126-20.507,27.911
				c-23.267,17.24-55.54-1.207-67.495-22.438c-8.669-15.383-8.028-34.381-11.791-51.222c-5.638-25.233-16.561-47.271-27.212-70.664
				c-9.728-21.402-21.116-43.104-36.969-60.809c-3.919-4.38-8.112-8.506-12.62-12.332c-4.516-3.835-10.484-7.447-10.763-14.11
				c-0.835-19.892,25.197-22.218,40.497-18.406c50.608,12.633,92.129,45.042,113.665,92.413
				C4792.827,4018.202,4820.328,4073.791,4810.222,4113.119z"/>
			<path id="_x31_80611031" fill="#54BF94" stroke="#000000" d="M4179.242,4262.247c17.818-67.332,54.055-131.465,103.695-186.802
				c67.342-75.079,183.78-176.924,291.025-173.675c16.71,0.507,61.298,24.37,68.445,31.272
				c22.29,21.599,56.498,99.73,61.447,111.242c11.28,26.188,4.751,59.653,23.83,82.653c5.801,6.993,13.734,12.852,21.953,16.663
				c7.626,3.538,18.48,6.789,26.487,2.772c2.031-1.023,7.207,11.096,7.622,12.952c3.034,13.256-5.983,27.881-13.889,38.035
				c-65.044,83.524-58.734,188.325,43.482,264.018c132.831,98.376,311.497,275.98,292.808,458.292
				c-5.688,55.585-37.103,114.458-71.195,157.958c-31.687,40.406-67.372,80.691-85.943,129.301
				c-29.201,76.479-3.12,167.711,19.942,242.218c3.884,12.55,55.958,169.805,58.016,169.027c0,0-58.855,22.172-77.572,26.313
				c-36.927,8.172-72.713,14.951-110.368,18.688c-16.795,1.67-78.231,3.593-95.059,2.417c-59.598-4.184-65.163-6.166-119.457-18.633
				c-41.281-9.477-80.658-28.575-120.522-42.736c-20.152-7.169-36.979-15.16-56.544-23.076
				c-25.004-10.107-50.023-20.565-73.248-34.377c-3.603-2.13-7.478-6.264-11.842-6.233c41.926-31.316,76.992-70.593,112.981-108.313
				c70.981-74.402,157.358-173.66,154.377-283.116c-2.022-74.217-45.541-134.638-92.447-188.603
				c-52.403-60.271-102.068-121.765-141.687-191.399c-46.568-81.866-119.026-144.536-170.55-222.876
				C4165.28,4455.383,4154.51,4355.731,4179.242,4262.247z"/>
			<path id="_x31_80611032" fill="#54BF94" stroke="#000000" d="M4450.527,4665.47c24.842-32.036,45.36-67.676,73.56-97.037
				c36.169-37.66,78.461-68.295,122.103-96.652c37.105-24.108,74.843-42.682,112.727-64.962
				c-47.029-66.923-39.556-144.602,10.947-209.457c7.905-10.154,16.923-24.78,13.889-38.035c-0.415-1.856-5.591-13.977-7.622-12.952
				c-8.008,4.014-18.861,0.766-26.487-2.772c-8.219-3.812-16.152-9.67-21.953-16.664c-19.079-22.999-12.55-56.465-23.83-82.652
				c-4.949-11.512-9.841-23.012-14.869-34.495c-12.316-28.108-24.288-55.146-46.579-76.746
				c-7.146-6.905-12.017-13.526-20.829-18.557c-14.556-8.324-30.905-12.208-47.615-12.719
				c-107.245-3.247-223.684,98.597-291.025,173.677c-51.042,56.904-90.575,117.957-108.353,185.549
				c-9.319,35.443-12.649,72.679-8.503,112.064c6.292,59.909,27.848,125.89,58.953,173.167
				c20.504,31.166,87.806,103.735,144.465,182.174C4403.261,4711.829,4424.538,4698.985,4450.527,4665.47z"/>
			<path id="_x31_80611033" fill="#54BF94" stroke="#000000" d="M5113.444,4878.221c-5.678-92.069-52.535-159.768-109.006-226.541
				c-59.466-70.313-116.453-135.026-191.097-190.303c-22.846-16.918-40.888-35.294-54.426-54.559
				c-37.884,22.28-75.623,40.852-112.728,64.962c-43.641,28.355-85.933,58.992-122.102,96.65
				c-28.202,29.361-48.718,64.998-73.56,97.037c-25.991,33.516-47.266,46.361-81.027,62.929c1.702,2.355,3.394,4.713,5.076,7.084
				c18.509,26.057,26.873,58.353,45.759,83.939c36.917,50.016,77.025,86.822,117.21,134.043
				c22.277,26.174,43.593,53.536,60.064,83.813c7.532,13.847,23.864,91.527,31.084,95.855
				c44.498,26.679,72.116,67.711,130.607,75.297c47.761,6.193,93.719-6.032,137.238-24.949
				c23.131-10.055,57.339-21.763,84.796-36.11c16.625-24.214,35.757-46.958,53.623-69.741c9.949-12.699,19.729-25.595,29.208-38.681
				c16.553-22.854,32.081-46.919,40.661-74.032C5113.509,4937.433,5115.212,4906.885,5113.444,4878.221z"/>
			<path id="_x31_80611034" fill="#54BF94" stroke="#000000" d="M4759.301,5208.426c-58.493-7.584-86.109-48.616-130.607-75.295
				c0.525,5.231,0.877,10.552,1.024,15.974c2.98,109.454-83.396,208.714-154.376,283.116
				c-35.99,37.722-71.057,76.997-112.981,108.315c4.36-0.032,8.239,4.102,11.841,6.233c23.226,13.81,48.245,24.268,73.249,34.375
				c19.561,7.914,36.39,15.907,56.543,23.076c39.861,14.162,79.238,33.26,120.522,42.736
				c54.293,12.467,59.856,14.451,119.456,18.633c16.827,1.176,78.268-0.745,95.061-2.417c37.655-3.734,73.441-10.516,110.367-18.686
				c18.715-4.145,77.572-26.315,77.572-26.315c-2.354,0.894-34.653-99.301-37.718-106.896
				c-6.412-15.893-25.864-89.951-31.644-110.312c-3.927-13.806-8.819-27.271-12.313-41.219
				c-12.422-49.478-14.771-104.438,3.721-152.835c8.098-21.193,19.456-40.81,32.314-59.544
				c-27.456,14.348-61.665,26.056-84.797,36.11C4853.02,5202.396,4807.062,5214.621,4759.301,5208.426z"/>
			<path id="_x31_80611044" fill="#62D09F" stroke="#000000" d="M3970.946,4284.661c-1.964-243.076,52.842-504.695,62.477-576.633
				c-66.408-0.037-139.659,4.646-187.188,15.013c-61.394,13.389-39.714,101.813-42.519,151.957
				c-2.822,50.374-5.798,100.571-8.6,150.95c-1.123,20.331-2.104,40.186-2.109,60.597c-0.021,98.038,0.545,197.749,0.483,295.146
				c-0.039,57.433,4.352,114.89,8.96,172.164c1.279,15.938,3.597,31.782,6.543,47.494c1.268,6.807,1.471,13.424,2.557,20.117
				c1.286,7.899,3.347,15.648,4.909,23.495c2.016,10.134,3.325,20.194,5.986,30.198c10.273,38.684,17.886,79.811,32.074,117.124
				c-5.292-13.912,96.508-66.149,155.57-95.361C3991.314,4584.782,3972.153,4434.161,3970.946,4284.661z"/>
			<path id="_x31_80611043" fill="#62D09F" stroke="#000000" d="M4100.157,4149.529c9.169-69.701,5.753-141.204,15.008-211.236
				c10.069-76.172,42.879-147.145,68.752-219.058c-24.787-4.064-49.219-7.081-72.67-8.727c-23.105-1.617-49.858-2.469-77.823-2.483
				c-9.638,71.935-64.442,333.558-62.477,576.634c1.208,149.5,20.367,300.121,39.142,412.261
				c19.653-9.721,34.576-16.893,39.246-19.252c7.67-3.88,45.252-18.675,84.646-33.223c-4.927-83.271-26.381-164.779-36.738-246.922
				C4086.283,4310.672,4088.685,4236.726,4100.157,4149.529z"/>
			<path id="_x31_80611042" fill="#62D09F" stroke="#000000" d="M4572.606,3856.317c-22.794-28.184-158.997-75.827-193.252-87.431
				c-59.632-20.173-128.818-38.724-195.437-49.649c-25.874,71.914-58.684,142.886-68.753,219.058
				c-9.253,70.033-5.838,141.536-15.008,211.235c-11.472,87.197-13.874,161.142-2.92,247.996
				c10.361,82.142,31.812,163.649,36.74,246.921c47.977-17.718,98.642-35.068,101.258-31.891
				c-103.805-126.148-136.73-337.798-38.961-473.278c46.098-63.874,101.281-132.068,162.114-181.098
				c22.162-17.867,90.947-46.23,143.524-70.73C4533.104,3872.918,4590.471,3878.405,4572.606,3856.317z"/>
			<path id="_x31_80611047" fill="#62D09F" stroke="#000000" d="M4518.86,5165.145c-36.278-1.332-45.039,2.484-76.143,20.16
				c-56.746,32.245-124.332,44.397-184.242,13.061c-112.945-59.078-177.995-205.405-212.061-321.273
				c-2.777-9.443-16.511-67.147-31.521-152.2c-53.343,28.512-102.627,56.784-152.612,93.401
				c20.861,66.09,44.669,131.974,74.115,194.825c32.23,68.795,71.431,134.673,119.645,193.517
				c48.783,59.547,91.912,123.462,140.349,183.271c21.715,26.8,46.148,53.69,69.78,78.514
				c19.592,20.581,73.339,59.232,74.387,59.301c71.799-77.247,141.779-141.642,207.038-224.821
				c28.333-36.119,44.796-92.597,46.957-144.71C4571.159,5168.086,4543.716,5166.061,4518.86,5165.145z"/>
			<path id="_x31_80611046" fill="#62D09F" stroke="#000000" d="M4485.913,4956.508c-15.778-20.427-31.816-42.643-47.9-65.811
				c-111.611-42.626-11.08,186.336-134.95,166.007c-106.713-17.527-142.69-185.15-153.01-268.033
				c-4.777-38.347-10.775-76.439-11.997-114.979c-32.011,9.988-65.019,20.506-99.991,38.919c-7.813,4.114-15.53,8.198-23.166,12.278
				c15.009,85.053,28.744,142.761,31.521,152.2c34.065,115.867,99.115,262.195,212.061,321.273
				c59.91,31.337,127.496,19.188,184.243-13.059c31.104-17.675,39.865-21.491,76.142-20.16c24.856,0.916,52.299,2.941,75.697-6.961
				c0.919-22.189-0.75-43.588-5.204-62.284C4574.129,5032.029,4523.112,5004.64,4485.913,4956.508z"/>
			<path id="_x31_80611045" fill="#62D09F" stroke="#000000" d="M4150.051,4788.671c10.319,82.883,46.297,250.506,153.01,268.033
				c123.87,20.329,23.339-208.633,134.95-166.007c-48.226-69.471-96.876-147.492-140.308-211.406
				c-31.232-45.955-64.419-39.538-101.839-25.01c-19.045,7.395-38.243,13.305-57.812,19.41
				C4139.275,4712.231,4145.273,4750.324,4150.051,4788.671z"/>
			<path id="_x31_80611088" fill="#A4DAA4" stroke="#000000" d="M4029.348,3454.032c44.765,81.846,49.621,156.766,27.536,234.159
				c-76.074-2.294-148.417,3.395-239.879,11.317c1.25-7.397,2.587-14.798,3.838-22.28c0.169-1.08,0.417-2.164,0.583-3.326
				c6.258-34.003,11.77-72.413,11.375-103.925c0.001-1.083,0.002-2.164-0.08-3.242c0.004-7.984-0.323-15.799-0.983-23.782
				c-0.33-4.073-0.66-8.148-0.99-12.14c-3.13-44.152-8.582-102.527-8.58-102.61
				C3822.084,3426.876,3950.699,3443.922,4029.348,3454.032z"/>
			<path id="_x31_80611087" fill="#A4DAA4" stroke="#000000" d="M4680.81,3685.934c2.822,9.063,2.312,26.194,0.055,45.647
				c-4.012,36.08-13.771,80.227-18.687,96.271c-20.997,69.164-76.164,5.691-120.8-16.706
				c-87.44-43.792-188.354-81.106-290.862-100.546c-73.823-14.015-134.764-20.621-193.63-22.406
				c22.083-77.396,17.227-152.313-27.537-234.159c28.268,3.677,50.051,6.354,57.117,7.021
				c91.952,8.458,164.701,14.826,234.285,29.501c34.251,7.174,67.753,16.424,102.417,28.921
				C4515.354,3552.707,4649.445,3585.722,4680.81,3685.934z"/>
			<path id="_x31_80611041" fill="#6ACBBA" stroke="#000000" d="M6347.525,4108.942c-6.592-17.154-16.59-34.308-31.002-45.937
				c-12.078-9.752-68.307-16.846-81.594-22.658c-124.945-54.687-235.6-123.119-355.244-182.507
				c-134.771-66.909-267.275-137.522-391.614-222.56c-76.165-52.09-151.334-115.928-242.827-138.614
				c-80.435-19.948-171.757-5.058-249.013,20.922c-34.684,11.657-23.484,7.519-8.166,2.646
				c16.121,6.663,30.993,16.557,45.606,27.316c52.923,38.96,99.847,85.386,152.722,124.396
				c49.249,36.332,102.568,52.972,155.995,80.212c80.301,40.947,165.227,75.298,247.918,111.143
				c108.836,47.181,220.701,87.107,327.117,139.718c82.621,40.848,120.93,89.206,154.014,175.014
				c23.609,61.248,15.857,140.701-40.643,177.368c-164.135,106.515-392.443,36.64-505.366,229.559
				c-36.27,61.962-53.289,133.804-89.111,195.662c-38.623,66.701-93.301,127.077-153.345,175.103
				c-27.431,21.94-60.156,56.535-95.695,75.778c-58.41,31.626-76.362,12.153-76.576-23.515
				c-5.665,10.459-12.205,20.819-19.661,31.058c-29.16,40.039-42.039,68.253,0.415,106.385
				c64.921,58.317,142.144,119.192,193.756,192.035c14.502,20.482,29.237,41.578,41.036,63.351
				c14.156-14.145,83.854-82.03,64.34-62.558c-20.122,20.093-46.106,30.878-69.211,7.355
				c-35.704-36.353-0.646-98.651,20.067-133.041c57.508-95.501,152.677-167.34,236.267-239.022
				c63.825-54.759,131.19-105.204,194.964-160.059c69.932-60.121,138.652-122.272,215.678-173.371
				c60.166-39.911,121.674-77.871,179.768-120.829c16.494-12.197,71.502-63.115,95.186-43.289
				c18.387,15.392-10.189,63.034,2.885,42.565c12.566-19.682,24.977-39.956,36.178-60.397
				c21.316-38.871,45.012-79.803,55.479-123.237c2.695-11.178,10.25-90.608,10.512-104.795
				C6369.137,4187.826,6362.76,4148.538,6347.525,4108.942z"/>
			<path id="_x31_80611040" fill="#6ACBBA" stroke="#000000" d="M5187.277,5031.502c35.539-19.241,68.265-53.838,95.695-75.778
				c60.044-48.021,114.724-108.399,153.345-175.103c35.82-61.858,52.843-133.699,89.112-195.661
				c112.922-192.918,341.23-123.043,505.365-229.56c56.5-36.667,64.252-116.117,40.643-177.368
				c-33.084-85.808-71.393-134.164-154.014-175.014c-106.416-52.61-218.283-92.535-327.117-139.718
				c-82.689-35.845-167.617-70.195-247.918-111.143c-53.427-27.24-106.746-43.88-155.995-80.212
				c-52.877-39.01-99.801-85.437-152.722-124.395c-14.613-10.759-29.487-20.652-45.606-27.315
				c-15.318,4.869-40.109,12.629-62.43,22.938c39.218,88.745,125.509,140.167,190.758,209.644
				c69.372,73.864,155.017,139.202,233.246,203.393c36.516,29.96,70.337,30.04,111.629,50.081
				c64.018,31.066,131.229,56.816,193.2,91.643c18.059,10.143,65.475,32.601,67.453,57.175
				c2.785,34.526-59.693,34.179-82.514,37.818c-131.873,21.066-240.452,66.169-282.341,205.228
				c-12.061,40.031-20.196,76.065-39,113.672c-19.554,39.098-24.806,87.741-48.44,124.396c-0.008,0.011-0.014,0.022-0.021,0.028
				c-32.599,45.981-57.807,92.745-79.544,145.674c-12.031,29.298-29.914,55.989-41.71,85.48c-2.335,5.837-5.37,13.503-8.706,22.376
				c0.84,40.108-8.155,79.833-28.94,118.206C5110.915,5043.655,5128.867,5063.128,5187.277,5031.502z"/>
			<path id="_x31_80611039" fill="#6ACBBA" stroke="#000000" d="M5147.022,4851.299c27.845-22.505,40.893-71.719,56.865-102.725
				c19.928-38.682,40.91-76.523,65.715-112.321c0.005-0.01,0.011-0.018,0.017-0.027c23.637-36.655,28.893-85.299,48.442-124.399
				c18.804-37.604,26.938-73.637,39-113.668c41.891-139.061,150.471-184.162,282.343-205.229
				c22.82-3.639,85.297-3.293,82.512-37.818c-1.98-24.575-49.396-47.03-67.453-57.174c-61.971-34.827-129.181-60.576-193.198-91.642
				c-41.291-20.042-75.113-20.12-111.631-50.082c-78.229-64.191-163.875-129.526-233.246-203.393
				c-65.231-69.455-151.488-120.87-190.723-209.565c-2.402-5.432-45.254,30.688-47.276,39.251
				c-4.198,17.767,12.096,40.39,22.511,54.749c21.581,29.752,49.119,57.345,74.699,83.622
				c72.606,74.578,137.628,164.912,198.244,249.449c63.205,88.147,110.786,186.742,103.862,297.741
				c-5.083,81.388-34.647,161.791-94.062,218.027c-55.833,52.85-131.327,85.585-168.768,104.271
				c-11.605,5.898,42.082,113.732,46.621,123.596c9.662,20.98,67.605,151.383,85.48,137.368
				C5146.995,4851.32,5147.009,4851.311,5147.022,4851.299z"/>
			<path id="_x31_80611035" fill="#A0EE9D" stroke="#000000" d="M4727.085,3743.75c3.247-3.408,6.573-6.484,10.069-9.393
				c66.634-54.833,181.182-12.604,272.008,66.111c29.17,25.38,55.34,53.749,78.021,81.534
				c39.63,48.748,68.784,95.829,85.397,122.528c29.9,48.078,54.646,98.731,66.001,154.612
				c11.107,54.55,19.219,109.269,5.879,164.052c-14.59,59.772-44.141,114.713-88.236,157.922
				c-19.635,19.277-40.348,33.481-62.554,45.689c-17.302,9.467-35.517,17.605-54.895,25.991
				c-15.719,6.724-52.232,25.823-69.77,18.579c-5.237-2.164-12.214-13.644-16.619-17.637
				c-17.782-16.225-36.229-32.032-53.763-48.259c-19.028-17.724-33.397-39.685-55.423-54.414
				c33.013-6.63,60.215-24.987,81.931-50.25c23.131-26.924,36.54-62.834,47.953-96.003c23.407-67.584,59.615-127.76,55.502-201.179
				c-5.093-91.798-45.717-148.197-112.379-182.247c-27.179-13.904-58.684-23.984-93.849-31.323
				c-18.125-3.838-35.499-10.917-53.621-14.667c-56.531-11.51-94.85-27.832-67.206-91.756
				C4708.528,3767.518,4717.101,3754.303,4727.085,3743.75z"/>
			<path id="_x31_80611038" fill="#80CDF8" stroke="#000000" d="M5237.583,5324.687c-27.834,37.406-66.684,74.479-103.258,102.083
				c-20.373,15.379-42.465,24.779-65.04,35.262c-17.335,8.045-41.87,13.064-59.621,21.826c6.07,17.745,12.405,35.404,18.803,53.039
				c8.741,24.145,10.923,48.298,20.584,72.104c0.975-0.424,1.952-0.838,2.927-1.265c1.539-0.677,3.062-1.365,4.588-2.051
				c16.771-9.216,34.513-16.773,51.305-26.052c26.504-16.99,54.739-34.854,66.046-42.892c2.023-1.484,4.032-2.978,6.035-4.479
				c0.571-0.426,1.145-0.855,1.715-1.284c3.641-2.764,7.958-6.083,12.789-9.827c2.675-2.099,5.326-4.215,7.968-6.34
				c0.441-0.355,0.887-0.707,1.331-1.064c2.086-1.686,4.159-3.39,6.229-5.093c1.159-0.952,2.32-1.904,3.476-2.863
				c1.625-1.345,3.236-2.705,4.845-4.061c1.604-1.349,3.205-2.7,4.802-4.061c1.318-1.122,2.633-2.251,3.942-3.381
				c1.826-1.575,3.652-3.155,5.472-4.743c1.209-1.055,2.416-2.111,3.619-3.172c1.762-1.552,3.515-3.106,5.27-4.668
				c1.399-1.249,2.797-2.494,4.189-3.75c1.229-1.104,2.455-2.214,3.677-3.323c12.22-11.081,24.224-22.39,36.116-33.853
				c6.709-7.097,13.106-14.106,20.224-20.832C5295.457,5405.027,5270.19,5367.254,5237.583,5324.687z"/>
			<path id="_x31_80611037" fill="#80CDF8" stroke="#000000" d="M5134.327,5426.77c36.572-27.604,75.422-64.678,103.256-102.083
				c-13.274-17.33-27.768-35.452-42.951-53.153c-43.086,0.512-97.125,44.226-130.91,66.424
				c-20.068,13.187-61.31,38.741-78.84,66.513c2.786,9.712,5.602,19.151,8.308,28.219c5.118,17.179,10.674,34.211,16.473,51.171
				c17.752-8.762,42.286-13.783,59.619-21.828C5091.862,5451.549,5113.952,5442.148,5134.327,5426.77z"/>
			<path id="_x31_80611036" fill="#80CDF8" stroke="#000000" d="M5063.722,5337.957c33.785-22.199,87.824-65.911,130.91-66.424
				c-26.972-31.442-56.124-61.555-84.526-83.502c-58.179-44.946-113.201-55.664-139.792,26.56
				c-18.918,58.517-2.748,129.514,14.568,189.878C5002.413,5376.697,5043.653,5351.144,5063.722,5337.957z"/>
			<path id="_x31_80611090" fill="#CCCCCC" stroke="#000000" d="M6263.309,4476.002c-23.684-19.827-78.693,31.092-95.186,43.289
				c-58.094,42.958-119.602,80.918-179.768,120.829c-77.025,51.101-145.746,113.25-215.678,173.371
				c-63.777,54.854-131.139,105.299-194.964,160.059c-83.592,71.681-178.76,143.521-236.269,239.022
				c-20.712,34.39-55.769,96.687-20.065,133.041c23.104,23.521,49.088,12.735,69.211-7.355
				c19.514-19.473,39.684-37.823,60.122-56.006c1.203-1.087,2.346-2.112,3.399-3.048c1.791-1.597,3.603-3.175,5.402-4.765
				c2.605-2.307,5.214-4.612,7.826-6.92c47.86-42.266,94.492-84.293,140.995-127.767c30.203-28.225,60.939-57.03,91.713-85.148
				c9.26-8.508,18.574-16.955,27.951-25.327c36.1-32.358,66.771-58.039,106.061-87.367
				c26.992-20.264,131.715-100.281,146.119-112.092c51.188-41.953,101.09-85.737,146.393-134.166
				c9.184-9.822,37.184-43.426,66.252-79.768c18.779-24.667,37.479-49.398,55.453-74.668
				C6258.191,4527.272,6281.695,4491.394,6263.309,4476.002z"/>
			<path id="_x31_80611091" fill="#CCCCCC" stroke="#000000" d="M4916.209,3921.398c-27.161-13.873-58.649-24.034-93.836-31.37
				c-55.56-11.592-136.023-49.865-186.229-1.43c19.781,4.407,38.238,4.037,57.291,12.421c19.938,8.771,40.832,23.614,55.325,39.749
				c24.938,27.762,38.614,65.431,53.249,100.986c3.604,8.739,5.646,20.563,7.482,30.039c2.841,14.588,5.396,31.493-0.801,45.53
				c-5.908,13.401-17.432,25.078-31.462,29.68c3.127-1.033,7.707,14.932,7.652,16.814c-0.174,5.953-3.616,13.857-6.107,19.249
				c-6.46,13.96-18.395,24.802-25.948,38.193c-20.862,36.981-31.18,79.637-21.834,121.565c5.214,23.403,14.622,44.831,27.864,64.846
				c3.136,4.736,7.165,8.224,10.736,12.607c10.094,12.376,16.065,18.953,31.049,25.491c15.164,6.622,32.087,7.329,48.191,4.021
				c71.048-14.604,102.79-82.806,124.274-144.943c23.385-67.589,59.587-127.83,55.495-201.219
				C5023.477,4011.842,4982.895,3955.446,4916.209,3921.398z"/>
			<path id="_x31_80611089" fill="#AAAAAA" stroke="#000000" d="M4646.251,3935.895c15.854,17.704,27.243,39.406,36.97,60.809
				c10.649,23.394,21.573,45.43,27.21,70.663c3.762,16.843,3.12,35.841,11.791,51.223c11.955,21.234,44.229,39.682,67.497,22.438
				c7.808-5.787,18.047-18.345,20.506-27.913c10.106-39.327-17.394-94.916-33.188-129.661
				c-21.536-47.367-63.058-79.775-113.667-92.411c-15.299-3.812-41.333-1.486-40.496,18.404c0.278,6.664,6.248,10.277,10.763,14.113
				C4638.137,3927.388,4642.333,3931.516,4646.251,3935.895z"/>
		</g>
	</g>
	<g transform="scale(1.0)">
		<g id="_x31_80611026_1_" transform=" scale(1.0, 1.0)">
			<path id="_x31_80611028_1_" fill="#BFDAE3" stroke="#000000" d="M958.638,3662.598
				c-52.191-122.976-91.07-255.652-125.932-372.114c-79.695-266.3-122.715-548.273-108.88-826.9
				c20.471-412.358,330.882-861.069,601.015-1156.274c79.516-86.907,212.576-148.611,316.311-201.806
				c296.816-152.208,565.671-314.571,901.888-351.708c239.108-26.411,481.267-35.824,715.143,29.305
				c145.379,40.483,278.132,121.476,380.625,232.608c67.668,73.378,150.36,121.623,150.426,225.794
				c0.117,180.475-0.151,331.006,0.27,415.085c0.56,113.079,0.137,211.197,0.204,324.29c0.173,261.893,0.352,540.434,0.519,798.188
				c0.049,77.792,0.089,137.191,0.141,220.337c0.118,185.197-22.992,358.521-38.107,543.531
				c-7.283,89.146,26.943,177.077,26.903,266.346c-0.038,93.281,11.845,192.116,11.906,285.99
				c0.021,32.095,0.395,64.189,0.752,96.281c0.371,32.333-0.273,64.679-0.61,97.007c-0.32,31.553,0.902,63.399-0.188,95.071
				c-2.958,85.902-5.656,170.131-21.869,255.032c-4.625,24.258-10.125,48.345-16.482,72.206
				c-46.837,175.09-108.887,354.451-224.683,495.759c-69.874,85.284-129.136,180.328-207.116,258.799
				c-84.162,84.677-176.696,112.297-284.061,155.999c-163.345,66.512-344.436,56.701-504.784-13.689
				c-177.062-77.738-271.862-220.717-415.09-339.369c-124.495-103.139-235.782-228.451-364.901-324.898
				c-102.782-76.779-205.886-152.989-294.602-247.819c-90.817-97.09-166.311-204.797-220.703-326.315
				c-32.611-72.871-45.497-335.179,91.199-323.932c-30.955-2.549-59.328-9.188-85.457-19.214
				C1095,3969.63,1019.254,3805.416,958.638,3662.598z"/>
			<path id="_x31_80611029_1_" fill="#B0FFB8" stroke="#000000" d="M832.709,3290.487
				c34.859,116.465,73.735,249.145,125.933,372.117c60.61,142.815,136.354,307.035,283.826,363.59
				c26.129,10.028,54.508,16.666,85.456,19.214c-136.69-11.246-123.81,251.063-91.194,323.934
				c54.393,121.518,129.887,229.229,220.695,326.313c88.713,94.828,191.82,171.042,294.596,247.819
				c129.117,96.445,240.408,221.763,364.899,324.899c59.926,49.644,111.377,103.544,163.92,155.146l0.012-0.261l0.99,0.043
				c-1.142-1.121-2.285-2.238-3.459-3.346c10.152-14.928,35.421-52.7,68.026-95.27c13.274-17.328,27.768-35.452,42.953-53.152
				c26.971-31.442,56.126-61.553,84.527-83.502c58.18-44.945,113.2-55.662,139.791,26.561
				c18.921,58.517,2.75,129.515-14.566,189.878c-2.79,9.715-5.604,19.151-8.308,28.218c-5.12,17.18-10.677,34.216-16.475,51.17
				c-6.07,17.745-12.407,35.404-18.804,53.041c-8.74,24.143-10.922,48.296-20.583,72.102c-0.499-0.215-1.001-0.433-1.502-0.648
				v0.006c159.985,69.824,340.484,79.383,503.341,13.069c107.365-43.702,199.89-71.323,284.055-155.999
				c77.98-78.471,137.242-173.508,207.113-258.795c115.794-141.313,177.842-320.674,224.681-495.767
				c54.305-203.044,38.525-414.378,32.642-621.348c-2.665-93.841-6.195-186.961-6.15-280.242c0.038-89.27-34.186-177.2-26.9-266.347
				c15.105-185.014,38.22-358.336,38.099-543.53c-0.048-83.146-4.244-142.547-4.291-220.335
				c-0.174-257.755-0.347-536.299,3.642-798.191c1.723-113.076,0.357-211.212-0.207-324.293
				c-0.418-84.076,1.691-234.61-5.336-415.082c-4.056-104.088-77.685-152.418-145.354-225.795
				c-102.494-111.132-235.252-192.126-380.625-232.611c-233.873-65.127-476.021-55.712-715.133-29.297
				c-336.21,37.134-605.061,199.498-901.869,351.709c-103.732,53.19-236.795,114.896-316.311,201.805
				c-270.129,295.206-580.536,743.919-601.007,1156.274C709.995,2742.211,753.017,3024.185,832.709,3290.487z M2806.973,3983.462
				c21.536-47.371,63.057-79.78,113.665-92.413c15.3-3.812,41.332-1.485,40.497,18.406c-0.278,6.663-6.247,10.275-10.763,14.11
				c-4.508,3.826-8.701,7.952-12.62,12.332c-15.853,17.705-27.241,39.406-36.969,60.809c-10.651,23.394-21.574,45.431-27.212,70.664
				c-3.763,16.841-3.122,35.839-11.791,51.222c-11.955,21.231-44.229,39.679-67.495,22.438
				c-7.808-5.785-18.047-18.348-20.507-27.911C2763.672,4073.791,2791.173,4018.202,2806.973,3983.462z"/>
			<path id="_x31_80611063_1_" fill="#1F9D5A" stroke="#000000" d="M1324.808,1307.292
				c79.514-86.857,212.592-148.556,316.323-201.754c164.154-84.166,319.749-171.486,482.921-238.941l61.445,131.415
				c-41.729,17.152-87.861,36.391-142.477,58.295c-216.87,86.861-454.686,188.123-627.687,351.284
				c-169.43,159.667-302.337,357.477-402.724,566.739c-93.496,194.872-125.55,386.628-116.596,606.962
				c9.123,226.318,63.127,419.932,109.082,640.242c11.508,55.204,22.604,113.565,36.443,172.01L905.5,3498.726l-7.315,2.499
				c-24.323-72.322-45.573-144.147-65.485-210.735c-79.659-266.268-122.743-548.272-108.872-826.908
				C744.266,2051.244,1054.691,1602.552,1324.808,1307.292z"/>
			<path id="_x31_80611062_1_" fill="#1F9D5A" stroke="#000000" d="M1415.334,1407.589
				c173.003-163.163,410.816-264.421,627.687-351.283c54.615-21.904,100.746-41.141,142.477-58.296l163.936,350.523
				c-17.788,8.994-35.823,18.649-54.025,29.055c-264.971,151.581-503.153,327.008-692.487,568.671
				c-141.231,180.188-118.59,220.916-166.044,383.247c-77.322,264.457-56.374,513.219,80.268,696.301l-475.604,367.734
				c-13.84-58.446-24.935-116.808-36.444-172.01c-45.953-220.309-99.955-413.924-109.081-640.242
				c-8.957-220.333,23.101-412.09,116.595-606.963C1113,1765.066,1245.905,1567.257,1415.334,1407.589z"/>
			<path id="_x31_80611061_1_" fill="#1F9D5A" stroke="#000000" d="M1602.924,1946.26
				c189.332-241.663,427.515-417.088,692.485-568.67c18.204-10.405,36.241-20.062,54.027-29.054l202.654,433.23
				c-56.841,48.429-109.857,94.19-156.147,126.4c-66.985,46.605-127.482,102.019-193.303,150.369
				c-154.077,113.345-341.917,349.854-328.816,552.473c3.274,50.634,19.676,83.8,44.55,104.487l-401.229,310.313
				c-136.644-183.083-157.588-431.845-80.268-696.301C1484.334,2167.173,1461.692,2126.446,1602.924,1946.26z"/>
			<path id="_x31_80611060_1_" fill="#1F9D5A" stroke="#000000" d="M2395.947,1908.164c46.291-32.207,99.306-77.972,156.148-126.401
				l198.408,424.255l1.33,1.081l-4.07,5.075l8.31-5.327l0.335,6.238l-8.647-0.66c-326.938,115.786-520.901,268.317-520.901,268.317
				l-2.24,5.324l-6.155-2.573l-300.089,232.005c-24.874-20.688-41.275-53.853-44.551-104.487
				c-13.102-202.619,174.74-439.126,328.817-552.472C2268.461,2010.186,2328.957,1954.772,2395.947,1908.164z"/>
			<path id="_x31_80611067_1_" fill="#1F9D5A" stroke="#000000" d="M2543.032,753.83c239.109-26.428,481.224-35.897,715.152,29.304
				c145.365,40.483,278.118,121.466,380.624,232.566c14.809,16.038,30.367,30.912,45.508,45.371l-8.893,2.499l-106.342,131.606
				c-84.995-162.082-226.495-270.747-395.396-319.777c-218.962-63.55-483.839-27.044-693.251,22.397
				c-112.563,26.595-189.702,56.828-294.936,100.214l-61.445-131.415C2255.886,812.052,2392.717,770.389,2543.032,753.83z"/>
			<path id="_x31_80611066_1_" fill="#1F9D5A" stroke="#000000" d="M2480.436,897.799c209.412-49.44,474.287-85.947,693.251-22.398
				c168.901,49.03,310.401,157.695,395.396,319.777l-159.681,197.743c-117.675-301.334-470.229-326.798-722.076-196.011
				c-113.708,59.023-222.355,93.017-337.89,151.626l-163.938-350.524C2290.732,954.625,2367.872,924.393,2480.436,897.799z"/>
			<path id="_x31_80611065_1_" fill="#1F9D5A" stroke="#000000" d="M2687.326,1196.908
				c251.847-130.786,604.4-105.321,722.077,196.011l-206.37,255.56c-41.294-84.616-117.138-105.439-206.271-110.535
				c-144.095-8.306-305.978,125.666-444.671,243.822l-202.654-433.23C2464.971,1289.926,2573.62,1255.933,2687.326,1196.908z"/>
			<path id="_x31_80611064_1_" fill="#1F9D5A" stroke="#000000" d="M2751.829,2207.102l-1.329-1.082l-198.408-424.253
				c138.693-118.157,300.576-252.127,444.671-243.822c89.135,5.097,164.977,25.918,206.271,110.535l-447.299,553.795
				L2751.829,2207.102z"/>
			<path id="_x31_80611071_1_" fill="#40A666" stroke="#000000" d="M3629.214,1353.203
				c-14.585-57.281-34.823-109.982-60.131-158.024l106.342-131.606l8.893-2.499c54.329,51.765,104.829,99.043,104.88,180.441
				c0.075,116.488-0.023,220.588,0.028,302.322l-119.183,76.489c-1.761-24.777-3.938-49.469-6.698-74.08
				C3656.069,1480.979,3645.301,1416.464,3629.214,1353.203z"/>
			<path id="_x31_80611070_1_" fill="#40A666" stroke="#000000" d="M3569.081,1195.176c25.307,48.042,45.546,100.744,60.131,158.023
				c8.483,33.352,20.775,88.708,27.706,142.234c9.321,71.983,9.685,94.031,13.125,124.89l-23.728,15.229
				c-31.003,19.898-8.356,5.362-58.883,37.788l-147.189,94.468c4.776-69.846,7.143-138.443-2.124-200.963
				c-8.019-53.876-6.479-114.989-26.135-167.441c-0.832-2.161-1.663-4.323-2.581-6.483L3569.081,1195.176z"/>
			<path id="_x31_80611069_1_" fill="#40A666" stroke="#000000" d="M3411.984,1399.403c19.656,52.454,18.116,113.566,26.135,167.441
				c9.269,62.52,6.902,131.118,2.124,200.963l-194.313,124.68c-1.877-71.091-7.99-141.596-28.071-206.437
				c-4.25-13.717-9.246-26.269-14.826-37.573l206.371-255.559C3410.321,1395.08,3411.152,1397.242,3411.984,1399.403z"/>
			<path id="_x31_80611068_1_" fill="#40A666" stroke="#000000" d="M3203.031,1648.48c5.582,11.304,10.576,23.854,14.827,37.573
				c20.081,64.84,26.194,135.345,28.069,206.436l-489.856,314.358l-0.337-4.572L3203.031,1648.48z"/>
			<path id="_x31_80611076_1_" fill="#2FA850" stroke="#000000" d="M3789.462,1656.582c0.572,113.081,0.136,211.192,0.208,324.271
				c0.068,102.854,0.135,208.282,0.202,313.962l-2.742,0.001l-105.517-8.329c-2.035-59.367-3.487-118.898-4.108-178.763
				c-1.68-159.475,4.449-324.942-7.463-487.4l119.184-76.49C3789.254,1588.651,3789.362,1626.816,3789.462,1656.582z"/>
			<path id="_x31_80611075_1_" fill="#2FA850" stroke="#000000" d="M3670.042,1620.325c11.911,162.461,5.782,327.926,7.464,487.401
				c0.621,59.866,2.075,119.396,4.108,178.762l-72.008-5.774c-1.014-152.823-30.465-440.989-22.174-607.372L3670.042,1620.325z"/>
			<path id="_x31_80611074_1_" fill="#2FA850" stroke="#000000" d="M3587.431,1673.34c-8.29,166.382,21.161,454.548,22.174,607.372
				l-165.551-13.111c-5.706-84.389-10.916-168.78-14.629-253.257c-3.459-78.736,5.299-163.553,10.817-246.536L3587.431,1673.34z"/>
			<path id="_x31_80611073_1_" fill="#2FA850" stroke="#000000" d="M3429.428,2014.345c3.713,84.476,8.923,168.867,14.63,253.257
				l-185.341-14.681c-3.439-42.237-6.626-86.303-9.4-134.527c-4.204-71.918-1.261-149.249-3.39-225.905l194.315-124.68
				C3434.724,1850.792,3425.966,1935.606,3429.428,2014.345z"/>
			<path id="_x31_80611072_1_" fill="#2FA850" stroke="#000000" d="M2756.404,2213.081l-0.337-6.236l489.856-314.358
				c2.129,76.66-0.814,153.986,3.39,225.906c2.776,48.226,5.961,92.29,9.4,134.527l-495.821-39.26L2756.404,2213.081z"/>
			<path id="_x31_80611086_1_" fill="#59B363" stroke="#000000" d="M3703.385,3178.887c5.038-56.875,7.491-115.412,8.037-174.612
				l77.949,64.97c-3.499,119.311-15.696,239.842-26.872,358.185c-1.867,0.725-7.081,1.249-7.08,1.166
				c2.77-0.391-122.118,15.326-200.767,25.437c1.243-2.495,2.656-4.905,4.069-7.401
				C3614.781,3348.896,3692.74,3299.374,3703.385,3178.887z"/>
			<path id="_x31_80611085_1_" fill="#59B363" stroke="#000000" d="M3355.655,3281.301c48.583-93.239,119.452-43.645,197.93-64.15
				c103.915-27.092,73.737-149.214,65.284-231.524c-2.173-21.035-3.6-41.656-4.361-62.107l96.915,80.756
				c-0.544,59.2-2.999,117.737-8.035,174.612c-10.649,120.486-88.608,170.009-144.667,267.743c-1.413,2.494-2.825,4.906-4.069,7.401
				c-28.269,3.677-50.052,6.352-57.117,7.021c-91.951,8.458-164.701,14.824-234.285,29.501l-4.752-23.111
				C3297.125,3412.957,3325.015,3340.187,3355.655,3281.301z"/>
			<path id="_x31_80611084_1_" fill="#59B363" stroke="#000000" d="M2813.203,2873.564
				c121.812,2.833,242.975,33.436,335.403,116.357c43.094,38.718,74.476,93.158,135.511,104.595
				c61.121,11.433,135.845-24.118,177.807-67.548c30.409-31.365,44.687-68.625,49.402-108.788
				c3.057-26.276,2.042-53.797-1.299-81.815l104.482,87.152c0.762,20.454,2.188,41.073,4.363,62.108
				c8.453,82.309,38.628,204.432-65.286,231.523c-78.478,20.506-149.349-29.088-197.93,64.151
				c-30.643,58.89-58.532,131.658-97.16,186.145l4.753,23.111c-34.25,7.175-67.753,16.425-102.415,28.92
				c-92.188,33.232-226.28,66.247-257.644,166.459c-2.821,9.063-2.312,26.192-0.055,45.647l-1.993,0.083l-44.226,12.086
				c-3.247-3.409-6.574-6.483-10.069-9.393l5.233-9.647l-53.844-851.138C2803.226,2873.404,2808.216,2873.484,2813.203,2873.564z"/>
			<path id="_x31_80611083_1_" fill="#59B363" stroke="#000000" d="M3114.049,2781.577c55.411,59.412,122.473,125.637,166.887,18.6
				c13.365-32.269,11.828-93.714,8.136-147.924l220.955,184.111c3.341,28.019,4.357,55.54,1.299,81.815
				c-4.715,40.163-18.991,77.419-49.402,108.788c-41.96,43.431-116.688,78.981-177.806,67.546
				c-61.038-11.436-92.416-65.875-135.511-104.595c-92.431-82.919-213.593-113.524-335.402-116.355
				c-4.988-0.08-9.977-0.16-14.965,0.01l-20.832-328.832C2932.151,2559.691,3009.629,2669.645,3114.049,2781.577z"/>
			<path id="_x31_80611082_1_" fill="#59B363" stroke="#000000" d="M2762.894,2213.66l526.177,438.594
				c3.691,54.209,5.229,115.653-8.137,147.922c-44.414,107.039-111.474,40.814-166.886-18.6
				c-104.419-111.932-181.897-221.885-336.641-236.835l-21-331.658L2762.894,2213.66z"/>
			<path id="_x31_80611055_1_" fill="#248A5E" stroke="#000000" d="M1781.309,3694.471
				c136.956-109.011,313.663-201.169,471.841-274.854c0.336-0.169,0.668-0.332,1.084-0.499l-57.199,139.804l2.582,3.906
				c-35.408,23.307-69.479,49.104-103.719,72.49c-124.331,84.972-256.818,155.647-391.555,222.501
				c-24.107,11.99-47.796,24.31-71.316,36.798l55.457-131.988C1720.896,3741.073,1752.063,3717.771,1781.309,3694.471z"/>
			<path id="_x31_80611054_1_" fill="#248A5E" stroke="#000000" d="M2152.466,3165.334
				c83.531-48.692,176.364-111.531,273.609-166.468l-171.84,420.251c-0.416,0.167-0.748,0.331-1.082,0.499
				c-158.179,73.688-334.886,165.845-471.841,274.854c-29.254,23.3-60.417,46.601-92.83,68.157l215.768-513.737
				C1990.467,3243.349,2080.326,3207.454,2152.466,3165.334z"/>
			<path id="_x31_80611053_1_" fill="#248A5E" stroke="#000000" d="M2257.171,2683.101
				c116.209-43.975,228.419-98.092,348.965-124.278l-180.06,440.045c-97.246,54.939-190.078,117.775-273.609,166.469
				c-72.142,42.119-161.999,78.014-248.217,83.555l218.67-520.723C2172.218,2715.25,2220.097,2697.093,2257.171,2683.101z"/>
			<path id="_x31_80611052_1_" fill="#248A5E" stroke="#000000" d="M2226.857,2480.741c0,0,193.963-152.531,520.903-268.317
				l-141.624,346.397c-120.544,26.185-232.756,80.304-348.965,124.278c-37.074,13.993-84.953,32.149-134.251,45.069l101.699-242.106
				L2226.857,2480.741z"/>
			<path id="_x31_80611081_1_" fill="#248A5E" stroke="#000000" d="M3789.874,2294.817c0.104,163.466,0.21,327.683,0.312,484.247
				c0.05,77.824,0.088,137.191,0.142,220.338c0.017,23.447-0.302,46.729-0.953,69.844l-77.95-64.969
				c1.259-113.249-4.138-228.568-10.693-337.404c-7.647-127.625-14.792-253.672-19.116-380.385l105.517,8.33L3789.874,2294.817z"/>
			<path id="_x31_80611080_1_" fill="#248A5E" stroke="#000000" d="M3681.614,2286.485c4.323,126.713,11.47,252.758,19.118,380.384
				c6.556,108.836,11.951,224.158,10.692,337.404l-96.915-80.757c-3.298-86.634,3.798-169.123,3.742-257.923
				c-0.094-146.919-8.471-244.362-8.557-376.98c-0.002-2.576-0.004-5.239-0.089-7.898L3681.614,2286.485z"/>
			<path id="_x31_80611079_1_" fill="#248A5E" stroke="#000000" d="M3609.695,2288.613c0.086,132.62,8.461,230.062,8.559,376.982
				c0.056,88.8-7.042,171.286-3.744,257.923l-104.484-87.154c-9.698-80.813-38.521-165.438-42.889-234.53
				c-7.139-111.411-15.526-222.822-23.08-334.233l165.55,13.112C3609.691,2283.374,3609.693,2286.035,3609.695,2288.613z"/>
			<path id="_x31_80611078_1_" fill="#248A5E" stroke="#000000" d="M3467.132,2601.834c4.366,69.092,33.189,153.717,42.889,234.53
				l-220.955-184.112c-2.181-31.843-5.111-61.191-6.204-80.731c-6.728-119.892-15.935-213.926-24.148-318.602l185.341,14.681
				C3451.609,2379.012,3459.996,2490.424,3467.132,2601.834z"/>
			<path id="_x31_80611077_1_" fill="#248A5E" stroke="#000000" d="M3258.715,2252.92c8.214,104.676,17.422,198.71,24.149,318.602
				c1.094,19.539,4.021,48.887,6.204,80.731l-526.177-438.594L3258.715,2252.92z"/>
			<path id="_x31_80611051_1_" fill="#248A5E" stroke="#000000" d="M2487.607,3395.02c33.014,7.214,163.672,61.258,116.893,110.925
				l-4.062,15.72c-5.075-1.578-9.4-2.987-12.643-4.066c-77.261-25.976-168.562-40.884-249.036-20.959
				c-50.379,12.504-95.843,37.476-139.143,66.189l-2.58-3.906l57.197-139.803C2314.83,3391.308,2421.999,3380.511,2487.607,3395.02z
				"/>
			<path id="_x31_80611050_1_" fill="#248A5E" stroke="#000000" d="M2798.241,2873.578l53.844,851.138l-5.232,9.646
				c-66.634-54.832-140.01-120.555-139.526-144.419c0.727-33.175-71.458-56.994-106.886-68.278l4.062-15.718
				c46.778-49.669-83.879-103.713-116.893-110.925c-65.608-14.509-172.777-3.715-233.373,24.098l171.84-420.252
				C2546.593,2930.856,2673.769,2875.067,2798.241,2873.578z"/>
			<path id="_x31_80611049_1_" fill="#248A5E" stroke="#000000" d="M2727.852,2543.194c17.377-0.51,33.839-0.022,49.556,1.546
				l20.832,328.832c-124.469,1.493-251.645,57.284-372.163,125.293l180.06-440.045
				C2645.625,2550.148,2686.112,2544.468,2727.852,2543.194z"/>
			<path id="_x31_80611048_1_" fill="#248A5E" stroke="#000000" d="M2756.408,2213.082l21,331.659
				c-15.715-1.569-32.181-2.057-49.556-1.546c-41.736,1.274-82.228,6.954-121.714,15.627l141.622-346.397L2756.408,2213.082z"/>
			<path id="_x31_80611059_1_" fill="#219866" stroke="#000000" d="M1041.542,3393.545c34.27,145.815,85,292.453,198.889,393.155
				c143.841,127.288,308.099,68.646,448.056-24.068l-55.457,131.988c-93.509,49.614-184.103,102.056-283.932,145.771
				c-12.302,5.329-61.268,11.763-78.145,20.421c15.125-11.401,33.912-17.317,56.945-15.42c-30.934-2.559-59.287-9.191-85.401-19.235
				c-147.535-56.528-223.223-220.777-283.845-363.584c-22.4-52.703-42.306-107.149-60.468-161.349l7.315-2.499L1041.542,3393.545z"
				/>
			<path id="_x31_80611058_1_" fill="#219866" stroke="#000000" d="M1765.882,3225.203c42.418,20.343,89.815,26.799,138.37,23.689
				l-215.767,513.737c-139.957,92.713-304.215,151.356-448.056,24.068c-113.892-100.704-164.621-247.342-198.889-393.155
				l475.604-367.735C1577.146,3106.423,1659.586,3174.301,1765.882,3225.203z"/>
			<path id="_x31_80611057_1_" fill="#219866" stroke="#000000" d="M2122.917,2728.17l-218.668,520.722
				c-48.557,3.107-95.956-3.347-138.371-23.69c-106.291-50.901-188.731-118.779-248.731-199.394l401.229-310.312
				C1966.625,2755.542,2046.44,2748.173,2122.917,2728.17z"/>
			<path id="_x31_80611056_1_" fill="#219866" stroke="#000000" d="M2224.62,2486.063l-101.699,242.106
				c-76.48,20.005-156.294,27.373-204.546-12.672l300.089-232.006L2224.62,2486.063z"/>
			<path id="_x31_80611030_1_" fill="#9AD2BD" stroke="#000000" d="M1236.716,4369.334
				c54.395,121.521,129.89,229.227,220.705,326.317c88.716,94.828,191.818,171.042,294.6,247.817
				c129.121,96.448,240.41,221.763,364.903,324.9c66.652,55.218,122.826,115.694,181.677,172.418
				c-6.707-7.097-13.104-14.107-20.222-20.83c10.152-14.928,35.421-52.7,68.028-95.27c13.274-17.328,27.768-35.452,42.951-53.152
				c26.971-31.442,56.124-61.553,84.527-83.502c58.18-44.945,113.2-55.662,139.791,26.561
				c18.921,58.517,2.748,129.514-14.568,189.877c-2.788,9.716-5.602,19.154-8.308,28.219c-5.118,17.18-10.675,34.216-16.473,51.17
				c-6.072,17.745-12.407,35.404-18.806,53.041c-8.74,24.143-10.92,48.296-20.583,72.102
				c159.622,69.23,339.506,78.53,501.858,12.425c107.363-43.704,199.898-71.323,284.061-156.001
				c77.98-78.471,137.243-173.514,207.115-258.799c30.712-37.477,57.64-77.628,81.507-119.67
				c31.601-56.772,59.149-117.982,81.275-180.152c25.337-71.215,48.778-144.816,65.982-218.468
				c2.839-12.176,5.467-24.402,7.864-36.668c16.98-86.608,22.011-173.316,22.814-261.325c0.883-96.2,1.482-191.92,1.883-288.244
				c0.396-93.875-11.04-187.014-10.555-280.295c0.404-77.932-25.86-152.19-26.762-229.597c-1.008-16.392-1.081-32.811,0.263-49.271
				c2.206-26.994,4.585-53.736,7.035-80.307c1.455-20.113,2.546-34.42,2.546-34.42c-5.922,0.34-183.943,22.979-199.959,24.895
				c-109.654,13.094-185.463,28.094-299.006,35.592l0.383,1.86c-34.251,7.175-67.753,16.425-102.417,28.922
				c-92.187,33.231-226.279,66.247-257.642,166.459c-2.823,9.063-2.313,26.191-0.055,45.646l-1.995,0.083l-44.226,12.085
				c9.984,10.554,18.559,23.769,25.551,39.894c27.646,63.925-10.673,80.247-67.205,91.758c-18.122,3.75-35.495,10.828-53.62,14.664
				c-35.166,7.342-66.67,17.422-93.849,31.324c-66.662,34.05-107.285,90.449-112.379,182.247
				c-4.113,73.421,32.095,133.596,55.502,201.178c11.413,33.17,24.822,69.082,47.954,96.005
				c21.716,25.264,48.917,43.621,81.93,50.25c-22.024,14.73-36.394,36.691-55.423,54.413c-17.535,16.228-35.98,32.034-53.764,48.259
				c-4.402,3.994-11.38,15.473-16.617,17.637c-17.537,7.244-54.051-11.855-69.77-18.579c-19.378-8.386-37.593-16.522-54.894-25.99
				c-22.208-12.208-42.919-26.413-62.556-45.69c-44.096-43.209-73.646-98.148-88.236-157.922
				c-13.339-54.781-5.227-109.502,5.88-164.051c11.355-55.881,36.102-106.534,66.001-154.612
				c16.613-26.7,45.767-73.781,85.396-122.529c22.681-27.784,48.853-56.154,78.021-81.532
				c90.826-78.716,205.375-120.944,272.01-66.111c-66.635-54.835-140.01-120.558-139.527-144.422
				c0.135-6.091-2.2-11.867-6.304-17.308c-42.409-15.457-82.985-40.213-125.866-52.629
				c-71.219-20.612-162.078-35.498-235.249-17.741c-91.6,22.251-167.066,85.726-243.49,137.448
				c-124.744,84.438-257.583,154.413-392.681,220.669c-28.604,14.033-56.798,28.847-84.971,43.742
				c-29.088,15.397-57.941,31.24-87.048,46.63c-13.987,7.398-28.136,14.509-42.309,21.431
				c-12.848,6.277-24.642,14.596-38.053,20.113c-10.314,4.245-19.785,10.012-29.816,14.811
				c-20.792,9.941-41.389,19.508-62.521,28.72c-7.327,3.188-15.541,7.882-23.214,9.923c-5.247,1.389-11.925-0.739-17.31-0.422
				c-14.513,0.856-27.315,4.026-38.236,9.444C1195.097,4101.826,1208.542,4306.346,1236.716,4369.334z M2806.973,3983.462
				c21.536-47.371,63.057-79.78,113.665-92.413c15.3-3.812,41.332-1.485,40.497,18.406c-0.278,6.663-6.247,10.275-10.763,14.11
				c-4.508,3.826-8.701,7.952-12.62,12.332c-15.853,17.705-27.241,39.406-36.969,60.809c-10.651,23.394-21.574,45.431-27.212,70.664
				c-3.763,16.841-3.122,35.839-11.791,51.222c-11.955,21.231-44.229,39.679-67.495,22.438
				c-7.808-5.785-18.047-18.348-20.507-27.911C2763.672,4073.791,2791.173,4018.202,2806.973,3983.462z"/>
			<path id="_x31_80611031_1_" fill="#54BF94" stroke="#000000" d="M3358.969,4546.229c-51.523,78.34-123.981,141.01-170.55,222.876
				c-39.618,69.635-89.283,131.128-141.687,191.399c-46.906,53.965-90.425,114.386-92.447,188.603
				c-2.981,109.456,83.396,208.714,154.377,283.116c35.989,37.721,71.056,76.997,112.981,108.313
				c-4.364-0.03-8.239,4.104-11.842,6.233c-23.225,13.812-48.244,24.27-73.248,34.377c-19.564,7.916-36.392,15.907-56.544,23.076
				c-39.864,14.161-79.241,33.26-120.522,42.736c-54.294,12.467-59.859,14.449-119.457,18.633
				c-16.827,1.176-78.264-0.747-95.059-2.417c-37.655-3.736-73.441-10.516-110.368-18.688
				c-18.717-4.141-77.572-26.313-77.572-26.313c2.058,0.777,54.132-156.478,58.016-169.027
				c23.063-74.507,49.144-165.739,19.942-242.218c-18.571-48.609-54.257-88.895-85.943-129.301
				c-34.093-43.5-65.507-102.373-71.195-157.958c-18.689-182.312,159.977-359.916,292.808-458.292
				c102.217-75.692,108.526-180.493,43.482-264.018c-7.905-10.154-16.923-24.779-13.889-38.035
				c0.415-1.856,5.591-13.976,7.622-12.952c8.007,4.017,18.861,0.766,26.487-2.772c8.219-3.812,16.152-9.67,21.953-16.663
				c19.079-23,12.55-56.466,23.83-82.653c4.949-11.512,39.157-89.644,61.447-111.242c7.147-6.902,51.735-30.766,68.445-31.272
				c107.245-3.249,223.684,98.596,291.025,173.675c49.641,55.337,85.877,119.47,103.695,186.802
				C3429.491,4355.731,3418.72,4455.383,3358.969,4546.229z"/>
			<path id="_x31_80611032_1_" fill="#54BF94" stroke="#000000" d="M3214.497,4728.399
				c56.659-78.438,123.961-151.008,144.465-182.174c31.105-47.277,52.661-113.258,58.953-173.167
				c4.146-39.386,0.816-76.621-8.503-112.064c-17.777-67.592-57.311-128.645-108.353-185.549
				c-67.342-75.08-183.78-176.924-291.025-173.677c-16.71,0.511-33.06,4.395-47.615,12.719c-8.813,5.03-13.683,11.651-20.829,18.557
				c-22.291,21.6-34.263,48.638-46.579,76.746c-5.028,11.483-9.92,22.983-14.869,34.495c-11.28,26.188-4.751,59.653-23.83,82.652
				c-5.801,6.994-13.734,12.853-21.953,16.664c-7.626,3.538-18.479,6.786-26.487,2.772c-2.031-1.024-7.207,11.096-7.622,12.952
				c-3.034,13.255,5.983,27.881,13.889,38.035c50.503,64.855,57.977,142.534,10.947,209.457
				c37.884,22.28,75.621,40.854,112.727,64.962c43.642,28.357,85.934,58.992,122.103,96.652
				c28.199,29.361,48.718,65.001,73.56,97.037C3159.462,4698.985,3180.74,4711.829,3214.497,4728.399z"/>
			<path id="_x31_80611033_1_" fill="#54BF94" stroke="#000000" d="M2479.173,4964.914c8.58,27.113,24.108,51.179,40.661,74.032
				c9.479,13.086,19.259,25.981,29.208,38.681c17.866,22.783,36.998,45.527,53.623,69.741c27.457,14.348,61.665,26.056,84.796,36.11
				c43.52,18.917,89.478,31.143,137.238,24.949c58.491-7.586,86.109-48.618,130.607-75.297c7.22-4.328,23.552-82.009,31.084-95.855
				c16.472-30.276,37.787-57.639,60.064-83.813c40.185-47.221,80.293-84.027,117.21-134.043
				c18.886-25.587,27.25-57.883,45.759-83.939c1.683-2.371,3.374-4.729,5.076-7.084c-33.762-16.567-55.036-29.413-81.027-62.929
				c-24.842-32.039-45.357-67.676-73.56-97.037c-36.169-37.658-78.461-68.295-122.102-96.65
				c-37.104-24.11-74.844-42.682-112.728-64.962c-13.538,19.265-31.58,37.641-54.426,54.559
				c-74.644,55.276-131.631,119.989-191.097,190.303c-56.471,66.773-103.328,134.472-109.006,226.541
				C2468.789,4906.885,2470.492,4937.433,2479.173,4964.914z"/>
			<path id="_x31_80611034_1_" fill="#54BF94" stroke="#000000" d="M2687.464,5183.477c-23.132-10.055-57.341-21.763-84.797-36.11
				c12.858,18.734,24.217,38.351,32.314,59.544c18.492,48.397,16.143,103.357,3.721,152.835
				c-3.493,13.947-8.386,27.413-12.313,41.219c-5.779,20.36-25.231,94.419-31.644,110.312
				c-3.064,7.596-35.363,107.79-37.718,106.896c0,0,58.857,22.171,77.572,26.315c36.926,8.17,72.712,14.951,110.367,18.686
				c16.793,1.672,78.233,3.593,95.061,2.417c59.6-4.182,65.163-6.166,119.456-18.633c41.284-9.477,80.661-28.574,120.522-42.736
				c20.153-7.169,36.982-15.162,56.543-23.076c25.004-10.107,50.023-20.565,73.249-34.375c3.602-2.132,7.48-6.266,11.841-6.233
				c-41.925-31.318-76.991-70.594-112.981-108.315c-70.979-74.402-157.356-173.662-154.376-283.116
				c0.147-5.422,0.499-10.742,1.024-15.974c-44.498,26.679-72.114,67.711-130.607,75.295
				C2776.939,5214.621,2730.981,5202.396,2687.464,5183.477z"/>
			<path id="_x31_80611044_1_" fill="#62D09F" stroke="#000000" d="M3573.911,4696.923c59.063,29.212,160.862,81.449,155.57,95.361
				c14.188-37.313,21.801-78.44,32.074-117.124c2.661-10.004,3.971-20.064,5.986-30.198c1.563-7.847,3.623-15.596,4.909-23.495
				c1.086-6.693,1.289-13.311,2.557-20.117c2.946-15.712,5.264-31.556,6.543-47.494c4.608-57.274,8.999-114.731,8.96-172.164
				c-0.062-97.397,0.504-197.108,0.483-295.146c-0.006-20.411-0.986-40.266-2.109-60.597c-2.802-50.379-5.777-100.576-8.6-150.95
				c-2.805-50.144,18.875-138.568-42.519-151.957c-47.529-10.367-120.78-15.05-187.188-15.013
				c9.635,71.938,64.44,333.557,62.477,576.633C3611.847,4434.161,3592.686,4584.782,3573.911,4696.923z"/>
			<path id="_x31_80611043_1_" fill="#62D09F" stroke="#000000" d="M3486.757,4397.523
				c-10.357,82.143-31.812,163.651-36.738,246.922c39.395,14.548,76.977,29.343,84.646,33.223
				c4.67,2.359,19.593,9.531,39.246,19.252c18.774-112.14,37.934-262.761,39.142-412.261
				c1.966-243.076-52.839-504.699-62.477-576.634c-27.965,0.015-54.718,0.866-77.823,2.483c-23.451,1.646-47.883,4.662-72.67,8.727
				c25.873,71.913,58.683,142.886,68.752,219.058c9.255,70.032,5.839,141.535,15.008,211.236
				C3495.316,4236.726,3497.717,4310.672,3486.757,4397.523z"/>
			<path id="_x31_80611042_1_" fill="#62D09F" stroke="#000000" d="M3082.087,3887.45c52.577,24.5,121.362,52.863,143.524,70.73
				c60.833,49.029,116.017,117.224,162.114,181.098c97.77,135.48,64.844,347.13-38.961,473.278
				c2.616-3.178,53.281,14.173,101.258,31.891c4.929-83.271,26.379-164.779,36.74-246.921c10.954-86.854,8.552-160.799-2.92-247.996
				c-9.17-69.699-5.755-141.202-15.008-211.235c-10.069-76.172-42.879-147.144-68.753-219.058
				c-66.618,10.926-135.805,29.477-195.437,49.649c-34.255,11.604-170.458,59.247-193.252,87.431
				C2993.53,3878.405,3050.897,3872.918,3082.087,3887.45z"/>
			<path id="_x31_80611047_1_" fill="#62D09F" stroke="#000000" d="M2989.448,5158.188c2.161,52.113,18.624,108.591,46.957,144.71
				c65.259,83.18,135.239,147.574,207.038,224.821c1.048-0.068,54.795-38.72,74.387-59.301
				c23.632-24.823,48.065-51.714,69.78-78.514c48.437-59.809,91.565-123.724,140.349-183.271
				c48.214-58.844,87.414-124.722,119.645-193.517c29.446-62.852,53.254-128.735,74.115-194.825
				c-49.985-36.617-99.27-64.89-152.612-93.401c-15.01,85.053-28.743,142.757-31.521,152.2
				c-34.065,115.868-99.115,262.195-212.061,321.273c-59.91,31.337-127.496,19.185-184.242-13.061
				c-31.104-17.676-39.864-21.492-76.143-20.16C3040.285,5166.061,3012.841,5168.086,2989.448,5158.188z"/>
			<path id="_x31_80611046_1_" fill="#62D09F" stroke="#000000" d="M2994.643,5095.899c-4.454,18.696-6.123,40.095-5.204,62.284
				c23.398,9.902,50.841,7.877,75.697,6.961c36.276-1.331,45.038,2.485,76.142,20.16c56.747,32.246,124.333,44.396,184.243,13.059
				c112.945-59.078,177.995-205.406,212.061-321.273c2.776-9.439,16.512-67.147,31.521-152.2
				c-7.636-4.08-15.353-8.164-23.166-12.278c-34.973-18.413-67.98-28.931-99.991-38.919c-1.222,38.539-7.22,76.632-11.997,114.979
				c-10.319,82.883-46.297,250.506-153.01,268.033c-123.87,20.329-23.339-208.633-134.95-166.007
				c-16.084,23.168-32.122,45.384-47.9,65.811C3060.888,5004.64,3009.872,5032.029,2994.643,5095.899z"/>
			<path id="_x31_80611045_1_" fill="#62D09F" stroke="#000000" d="M3445.948,4673.691c-19.568-6.105-38.767-12.016-57.812-19.41
				c-37.42-14.528-70.606-20.945-101.839,25.01c-43.432,63.914-92.082,141.936-140.308,211.406
				c111.611-42.626,11.08,186.336,134.95,166.007c106.713-17.527,142.69-185.15,153.01-268.033
				C3438.727,4750.324,3444.725,4712.231,3445.948,4673.691z"/>
			<path id="_x31_80611088_1_" fill="#A4DAA4" stroke="#000000" d="M3761.833,3428.203c0.002,0.083-5.45,58.458-8.58,102.61
				c-0.33,3.991-0.66,8.066-0.99,12.14c-0.66,7.983-0.987,15.798-0.983,23.782c-0.082,1.078-0.081,2.159-0.08,3.242
				c-0.395,31.512,5.117,69.922,11.375,103.925c0.166,1.162,0.414,2.246,0.583,3.326c1.251,7.482,2.588,14.883,3.838,22.28
				c-91.462-7.923-163.805-13.611-239.879-11.317c-22.085-77.394-17.229-152.313,27.536-234.159
				C3633.301,3443.922,3761.917,3426.876,3761.833,3428.203z"/>
			<path id="_x31_80611087_1_" fill="#A4DAA4" stroke="#000000" d="M3160.833,3519.478c34.664-12.497,68.166-21.747,102.417-28.921
				c69.584-14.675,142.333-21.043,234.285-29.501c7.066-0.668,28.85-3.345,57.117-7.021
				c-44.764,81.846-49.62,156.763-27.537,234.159c-58.866,1.785-119.807,8.392-193.63,22.406
				c-102.508,19.439-203.422,56.754-290.862,100.546c-44.636,22.397-99.803,85.87-120.8,16.706
				c-4.915-16.044-14.675-60.19-18.687-96.271c-2.257-19.453-2.768-36.584,0.055-45.647
				C2934.555,3585.722,3068.647,3552.707,3160.833,3519.478z"/>
			<path id="_x31_80611041_1_" fill="#6ACBBA" stroke="#000000" d="M1215.642,4230.138c0.262,14.187,7.817,93.617,10.512,104.795
				c10.467,43.435,34.162,84.366,55.479,123.237c11.201,20.441,23.611,40.716,36.179,60.397
				c13.074,20.469-15.503-27.174,2.884-42.565c23.684-19.826,78.691,31.092,95.186,43.289
				c58.094,42.958,119.602,80.918,179.768,120.829c77.025,51.099,145.747,113.25,215.678,173.371
				c63.773,54.854,131.139,105.3,194.965,160.059c83.59,71.683,178.759,143.521,236.267,239.022
				c20.713,34.39,55.771,96.688,20.067,133.041c-23.104,23.522-49.089,12.737-69.211-7.355
				c-19.514-19.473,50.184,48.413,64.34,62.558c11.799-21.772,26.534-42.868,41.036-63.351
				c51.612-72.843,128.835-133.718,193.756-192.035c42.454-38.132,29.575-66.346,0.415-106.385
				c-7.456-10.238-13.996-20.599-19.661-31.058c-0.214,35.668-18.166,55.141-76.576,23.515
				c-35.539-19.243-68.265-53.838-95.695-75.778c-60.044-48.025-114.722-108.401-153.345-175.103
				c-35.822-61.858-52.842-133.7-89.111-195.662c-112.923-192.919-341.231-123.044-505.367-229.559
				c-56.5-36.667-64.251-116.12-40.643-177.368c33.084-85.808,71.394-134.166,154.014-175.014
				c106.416-52.61,218.282-92.537,327.118-139.718c82.691-35.845,167.617-70.195,247.918-111.143
				c53.427-27.24,106.746-43.88,155.995-80.212c52.875-39.01,99.799-85.436,152.722-124.396
				c14.613-10.76,29.485-20.653,45.606-27.316c15.318,4.873,26.518,9.012-8.166-2.646c-77.256-25.979-168.578-40.87-249.013-20.922
				c-91.493,22.687-166.662,86.524-242.827,138.614c-124.34,85.037-256.844,155.65-391.615,222.56
				c-119.645,59.388-230.299,127.82-355.243,182.507c-13.288,5.813-69.517,12.906-81.595,22.658
				c-14.412,11.629-24.41,28.782-31.002,45.937C1221.241,4148.538,1214.863,4187.826,1215.642,4230.138z"/>
			<path id="_x31_80611040_1_" fill="#6ACBBA" stroke="#000000" d="M2473.294,5007.987c-20.785-38.373-29.78-78.098-28.94-118.206
				c-3.336-8.873-6.371-16.539-8.706-22.376c-11.796-29.491-29.679-56.183-41.71-85.48c-21.737-52.929-46.945-99.692-79.544-145.674
				c-0.007-0.006-0.013-0.018-0.021-0.028c-23.635-36.655-28.887-85.299-48.44-124.396c-18.804-37.606-26.939-73.641-39-113.672
				c-41.889-139.059-150.468-184.161-282.342-205.228c-22.819-3.64-85.299-3.292-82.513-37.818
				c1.979-24.574,49.395-47.032,67.452-57.175c61.971-34.826,129.184-60.576,193.201-91.643
				c41.292-20.041,75.113-20.121,111.629-50.081c78.229-64.19,163.874-129.528,233.246-203.393
				c65.249-69.477,151.54-120.898,190.758-209.644c-22.32-10.309-47.111-18.068-62.43-22.938
				c-16.119,6.663-30.993,16.557-45.606,27.315c-52.921,38.958-99.845,85.385-152.722,124.395
				c-49.249,36.332-102.568,52.972-155.995,80.212c-80.301,40.947-165.229,75.298-247.918,111.143
				c-108.835,47.183-220.702,87.107-327.118,139.718c-82.62,40.85-120.93,89.206-154.014,175.014
				c-23.608,61.251-15.857,140.701,40.643,177.368c164.136,106.517,392.444,36.642,505.366,229.56
				c36.27,61.962,53.292,133.803,89.112,195.661c38.621,66.703,93.301,127.081,153.345,175.103
				c27.431,21.94,60.156,56.537,95.695,75.778C2455.133,5063.128,2473.085,5043.655,2473.294,5007.987z"/>
			<path id="_x31_80611039_1_" fill="#6ACBBA" stroke="#000000" d="M2437.023,4851.33c17.875,14.015,75.818-116.388,85.48-137.368
				c4.539-9.863,58.227-117.697,46.621-123.596c-37.44-18.687-112.935-51.422-168.768-104.271
				c-59.414-56.236-88.979-136.64-94.062-218.027c-6.924-110.999,40.657-209.594,103.862-297.741
				c60.616-84.537,125.638-174.871,198.244-249.449c25.58-26.277,53.118-53.87,74.699-83.622
				c10.415-14.359,26.709-36.982,22.511-54.749c-2.022-8.563-44.874-44.683-47.276-39.251
				c-39.234,88.695-125.491,140.11-190.723,209.565c-69.371,73.866-155.017,139.201-233.246,203.393
				c-36.518,29.962-70.34,30.04-111.631,50.082c-64.018,31.065-131.229,56.814-193.199,91.642
				c-18.056,10.144-65.472,32.599-67.452,57.174c-2.786,34.525,59.69,34.18,82.511,37.818
				c131.873,21.067,240.453,66.169,282.344,205.229c12.062,40.031,20.196,76.063,39,113.668
				c19.55,39.101,24.806,87.744,48.442,124.399c0.006,0.01,0.012,0.018,0.017,0.027c24.805,35.798,45.787,73.64,65.715,112.321
				c15.973,31.006,29.021,80.22,56.865,102.725C2436.992,4851.311,2437.005,4851.32,2437.023,4851.33z"/>
			<path id="_x31_80611035_1_" fill="#A0EE9D" stroke="#000000" d="M2882.468,3783.643c27.644,63.924-10.675,80.246-67.206,91.756
				c-18.122,3.75-35.496,10.829-53.621,14.667c-35.165,7.339-66.67,17.419-93.849,31.323
				c-66.662,34.05-107.286,90.449-112.379,182.247c-4.113,73.419,32.095,133.595,55.502,201.179
				c11.413,33.169,24.822,69.079,47.953,96.003c21.716,25.263,48.918,43.62,81.931,50.25c-22.025,14.729-36.395,36.69-55.423,54.414
				c-17.534,16.227-35.98,32.034-53.763,48.259c-4.405,3.993-11.382,15.473-16.619,17.637c-17.537,7.244-54.051-11.855-69.77-18.579
				c-19.378-8.386-37.593-16.524-54.895-25.991c-22.206-12.208-42.919-26.412-62.554-45.689
				c-44.096-43.209-73.646-98.149-88.236-157.922c-13.34-54.783-5.229-109.502,5.879-164.052
				c11.354-55.881,36.101-106.534,66.001-154.612c16.613-26.699,45.768-73.78,85.397-122.528
				c22.681-27.785,48.851-56.154,78.021-81.534c90.826-78.715,205.374-120.944,272.008-66.111c3.496,2.908,6.822,5.984,10.069,9.393
				C2866.9,3754.303,2875.472,3767.518,2882.468,3783.643z"/>
			<path id="_x31_80611038_1_" fill="#80CDF8" stroke="#000000" d="M2278.387,5419.947c7.117,6.726,13.515,13.735,20.224,20.832
				c11.893,11.463,23.896,22.771,36.116,33.853c1.222,1.109,2.448,2.22,3.677,3.323c1.393,1.256,2.79,2.501,4.189,3.75
				c1.755,1.562,3.508,3.116,5.27,4.668c1.203,1.061,2.41,2.117,3.619,3.172c1.819,1.588,3.646,3.168,5.472,4.743
				c1.31,1.13,2.624,2.259,3.942,3.381c1.597,1.36,3.198,2.712,4.802,4.061c1.608,1.355,3.22,2.716,4.845,4.061
				c1.155,0.959,2.316,1.911,3.476,2.863c2.069,1.703,4.143,3.407,6.229,5.093c0.444,0.357,0.89,0.709,1.331,1.064
				c2.642,2.125,5.293,4.241,7.968,6.34c4.831,3.744,9.148,7.063,12.789,9.827c0.57,0.429,1.144,0.858,1.715,1.284
				c2.003,1.502,4.012,2.995,6.035,4.479c11.307,8.038,39.542,25.901,66.046,42.892c16.792,9.278,34.533,16.836,51.305,26.052
				c1.526,0.686,3.049,1.374,4.588,2.051c0.975,0.427,1.952,0.841,2.927,1.265c9.661-23.806,11.843-47.959,20.584-72.104
				c6.397-17.635,12.732-35.294,18.803-53.039c-17.751-8.762-42.286-13.781-59.621-21.826
				c-22.575-10.482-44.667-19.883-65.04-35.262c-36.574-27.604-75.424-64.677-103.258-102.083
				C2313.81,5367.254,2288.543,5405.027,2278.387,5419.947z"/>
			<path id="_x31_80611037_1_" fill="#80CDF8" stroke="#000000" d="M2514.719,5462.031c17.333,8.045,41.867,13.066,59.619,21.828
				c5.799-16.96,11.354-33.992,16.473-51.171c2.706-9.067,5.521-18.507,8.308-28.219c-17.53-27.771-58.771-53.326-78.84-66.513
				c-33.785-22.198-87.824-65.912-130.91-66.424c-15.184,17.701-29.677,35.823-42.951,53.153
				c27.834,37.405,66.684,74.479,103.256,102.083C2470.048,5442.148,2492.138,5451.549,2514.719,5462.031z"/>
			<path id="_x31_80611036_1_" fill="#80CDF8" stroke="#000000" d="M2599.119,5404.469c17.316-60.364,33.486-131.361,14.568-189.878
				c-26.591-82.224-81.613-71.506-139.792-26.56c-28.402,21.947-57.555,52.06-84.526,83.502
				c43.086,0.513,97.125,44.225,130.91,66.424C2540.347,5351.144,2581.587,5376.697,2599.119,5404.469z"/>
			<path id="_x31_80611090_1_" fill="#CCCCCC" stroke="#000000" d="M1335.723,4541.217c17.975,25.27,36.673,50.001,55.453,74.668
				c29.067,36.342,57.067,69.945,66.251,79.768c45.303,48.429,95.206,92.213,146.394,134.166
				c14.403,11.811,119.126,91.828,146.118,112.092c39.289,29.328,69.961,55.009,106.061,87.367
				c9.377,8.372,18.691,16.819,27.952,25.327c30.773,28.118,61.509,56.924,91.712,85.148
				c46.504,43.474,93.136,85.501,140.996,127.767c2.612,2.308,5.221,4.613,7.826,6.92c1.8,1.59,3.611,3.168,5.402,4.765
				c1.054,0.936,2.196,1.961,3.399,3.048c20.438,18.183,40.608,36.533,60.122,56.006c20.123,20.091,46.107,30.877,69.211,7.355
				c35.703-36.354,0.646-98.651-20.065-133.041c-57.509-95.502-152.677-167.342-236.269-239.022
				c-63.826-54.76-131.188-105.204-194.965-160.059c-69.932-60.121-138.652-122.271-215.678-173.371
				c-60.166-39.911-121.674-77.871-179.768-120.829c-16.492-12.197-71.502-63.116-95.185-43.289
				C1302.304,4491.394,1325.809,4527.272,1335.723,4541.217z"/>
			<path id="_x31_80611091_1_" fill="#CCCCCC" stroke="#000000" d="M2555.398,4103.63c-4.092,73.389,32.11,133.63,55.495,201.219
				c21.484,62.138,53.227,130.34,124.274,144.943c16.104,3.308,33.027,2.601,48.191-4.021c14.983-6.538,20.955-13.115,31.049-25.491
				c3.571-4.384,7.601-7.871,10.736-12.607c13.242-20.015,22.65-41.442,27.864-64.846c9.346-41.929-0.972-84.584-21.834-121.565
				c-7.554-13.392-19.488-24.233-25.948-38.193c-2.491-5.392-5.934-13.296-6.107-19.249c-0.055-1.883,4.525-17.848,7.652-16.814
				c-14.03-4.602-25.554-16.278-31.462-29.68c-6.197-14.037-3.642-30.942-0.801-45.53c1.837-9.477,3.879-21.3,7.482-30.039
				c14.635-35.556,28.312-73.225,53.249-100.986c14.493-16.135,35.387-30.978,55.325-39.749c19.053-8.384,37.51-8.014,57.291-12.421
				c-50.205-48.436-130.669-10.162-186.229,1.43c-35.187,7.336-66.675,17.497-93.836,31.37
				C2601.106,3955.446,2560.524,4011.842,2555.398,4103.63z"/>
			<path id="_x31_80611089_1_" fill="#AAAAAA" stroke="#000000" d="M2950.365,3923.56c4.515-3.836,10.484-7.449,10.763-14.113
				c0.837-19.891-25.197-22.216-40.496-18.404c-50.609,12.636-92.131,45.044-113.667,92.411
				c-15.795,34.745-43.295,90.334-33.188,129.661c2.459,9.568,12.698,22.126,20.506,27.913
				c23.268,17.243,55.542-1.204,67.497-22.438c8.671-15.382,8.029-34.38,11.791-51.223c5.637-25.233,16.561-47.27,27.21-70.663
				c9.727-21.402,21.115-43.104,36.97-60.809C2941.667,3931.516,2945.864,3927.388,2950.365,3923.56z"/>
		</g>
	</g>
</g>
</svg>
