<?xml version="1.0" encoding="utf-8"?>
<!-- Generator: Adobe Illustrator 16.0.0, SVG Export Plug-In . SVG Version: 6.00 Build 0)  -->
<!DOCTYPE svg PUBLIC "-//W3C//DTD SVG 1.1//EN" "http://www.w3.org/Graphics/SVG/1.1/DTD/svg11.dtd">
<svg version="1.1" id="Layer_1" xmlns="http://www.w3.org/2000/svg" xmlns:xlink="http://www.w3.org/1999/xlink" x="0px" y="0px"
	 width="8192px" height="7072px" viewBox="0 0 8192 7072" enable-background="new 0 0 8192 7072" xml:space="preserve">
<g>
	<g transform="scale(1.0)">
		<g id="_x31_80611356" transform=" scale(1.0, 1.0)">
			<path id="_x31_80611358" fill="#BFDAE3" stroke="#000000" d="M4097.757,1264.404c26.656-153.258,155.461-315.885,202.551-355.052
				c324.235-269.656,823.519-161.743,1198.5-92.8c185.069,34.033,354.108,125.881,525.157,200.796
				c181.647,79.559,358.344,172.438,519.334,288.802c136.92,98.971,248.087,232.713,364.008,355.241
				c198.971,210.309,402.363,452.562,482.691,737.04c114.713,406.257,89.744,867.269-21.675,1271.407
				c-53.259,193.172-137.18,426.439-287.355,620.137c5.317,94.266-27.768,265.514-65.028,348.207
				c-50.931,113.023-123.097,215.623-197.18,314.465c-77.948,103.998-170.505,186.598-263.489,275.955
				c-102.634,98.643-230.918,154.176-298.175,286.678c-58.204,114.67-157.212,243.773-242.546,339.717
				c-169.066,190.059-413.545,384.387-659.027,457.404c-330.169,98.189-675.963-124.205-867.065-381.924
				c-84.529-113.996-152.253-240.781-193.032-377.072c-30.494-101.934-55.006-201.309-44.413-307.26
				c13.508-135.051-61.448-245.416-78.962-374.305c-17.982-132.318-34.688-269.387-51.785-403.504
				c-27.327-214.369-32.786-407.453-28.336-635.902C4096.352,3605.088,4085.104,1337.148,4097.757,1264.404z"/>
			<path id="_x31_80611359" fill="#B0FFB8" stroke="#000000" d="M7389.996,2398.443
				c-80.329-284.479-283.723-526.738-482.688-737.047c-115.917-122.53-227.086-256.276-364.006-355.245
				c-160.994-116.364-337.683-209.247-519.332-288.807c-171.05-74.92-340.087-166.766-525.157-200.797
				c-374.979-68.946-874.261-176.86-1198.49,92.792c-47.097,39.166-175.899,201.795-202.558,355.057
				c-12.654,72.742-1.409,2340.704-5.83,2568.059c-0.934,48.309-1.461,96.633-1.367,144.951
				c0.15,80.555,2.242,163.016,6.816,243.443c0.943,16.451,16.364,193.088,16.364,193.088s37.412-8.295,56.593-13.795
				c40.088-11.49,64.426-17.236,87.581-23.201c36.583-9.414,72.708-19.012,113.385-28.543c24.22-5.676,56.471-19.129,81.242-20.273
				c-5.333,37.473,1.003,76.627,12.875,112.213c7.688,23.021,27.536,56.322,26.113,80.943c-4.343,74.834-7.511,149.49-0.453,187.115
				c2.365,12.584,30.14,77.549,83.027,58.412c53.918-19.494,60.583-68.463,70.906-87.148c13.2-23.926,22.124-50.375,33.462-81.008
				c37.671-101.795,5.676-147.709,73.347-234.775c21.066-27.107,66.09-64.559,79.243-95.447
				c25.229-59.248,32.106-130.213,74.091-181.072c-10.826,10.906-20.486,22.244-28.212,33.543
				c-9.405,13.768-15.727,38.66-29.283,48.857c-7.149,5.359-15.462,8.969-19.103-1.744c-3.606-10.576,13.492-26.561,18.564-34.029
				c12.246-17.982,17.53-53.244,19.422-74.941c1.111-12.531,1.985-26.535,1.478-39.102c-1.074-26.504-4.846-42.467,1.959-69.035
				c5.854-22.859,15.357-45.783,34.519-60.674c16.43-12.771,39.596-11.973,58.569-4.592c27.503,10.705,57.427,24.699,78.528,45.957
				c35.525,35.795-20.863,78.115-49.525,92.268c-15.104,7.455-31.061,17.346-46.507,28.74
				c59.336-34.85,144.102-19.395,187.66,31.574c55.972,65.543,45.896,170.082,36.036,249.453
				c-3.05,24.521-8.177,57.402-4.015,81.873c5.677,33.447,25.928,61.611,34.485,94.037c4.226,15.961,1.519,33.877,1.469,50.258
				c-0.126,51.912,6.823,97.785,30.753,144.184c8.493,16.475,20.582,30.646,30.78,46.031c10.788,16.275,21.606,32.404,29.897,50.141
				c51.473,110.199,13.867,230.799,61.88,347.152c22.048,53.412,91.202,116.656,153.558,125.129
				c20.91,2.832,43.997,7.545,65.135,6.287c17.037-1.01,34.662-7.158,51.546-7.84c51.463-2.074,79.757,15.348,124.85,39.402
				c35.513,18.93,70.853,62.738,99.712,89.756c57.693,54.006,116.157,99.869,161.323,163.828
				c12.854,18.191,89.471,126.174,98.569,165.539l1.732,9.207c52.961-69.352,110.959-153.975,146.146-223.287
				c67.261-132.502,195.539-188.033,298.176-286.678c92.984-89.361,185.539-171.969,263.489-275.965
				c74.087-98.846,146.249-201.438,197.175-314.465c37.271-82.697,70.351-253.939,65.027-348.209
				c150.186-193.699,234.104-426.971,287.362-620.145C7479.739,3265.722,7504.71,2804.708,7389.996,2398.443z M5393.414,2851.352
				c-24.259,90.846-125.48,59.576-198.67,60.229c-28.279,0.266-55.58,8.764-81.063,22.838
				c-62.295,34.115-113.854,101.27-142.781,162.162c-5.768,12.211-10.132,62.936-29.509,62.887
				c-2.411-0.005-5.073-0.759-8.063-2.598c-29.148-17.869-28.973-90.725-28.565-119.832c0.214-20.127,1.348-41,4.637-60.869
				c2.281-13.717,5.144-28.181,8.422-43.062c8.65-34.744,18.288-64.161,22.738-82.449c0.086-0.415,0.169-0.829,0.337-1.247
				c41.391-124.735,117.964-251.713,243.567-259.474c2.827-0.161,5.74-0.235,8.65-0.23c0.166,0.001,0.334,0.001,0.498,0.086
				c45.066,5.682,95.736,30.34,127.923,64.269c15.182,16.006,34.486,47.158,56.444,78.401
				C5396.268,2771.102,5403.738,2812.871,5393.414,2851.352z"/>
			<path id="_x31_80611414" fill="#1F9D5A" stroke="#000000" d="M6868.416,1619.729l-4.336,4.066l-107.311,78.166
				c-167.889-181.22-412.791-329.359-629.096-438.341c-131.91-66.44-264.462-141.116-398.878-202.658
				c-88.144-40.304-183.37-74.72-281.359-103.068l26.643-145.897c8.313,1.517,16.545,3.033,24.771,4.55
				c185.049,34.05,354.072,125.868,525.13,200.806c181.614,79.533,358.371,172.45,519.348,288.782
				C6664.868,1394.01,6766.058,1509.28,6868.416,1619.729z"/>
			<path id="_x31_80611413" fill="#1F9D5A" stroke="#000000" d="M6756.77,1701.96l-274.448,200.015l-27.493,19.978
				c-49.854-52.602-97.728-98.462-137.322-130.411c-211.494-170.849-466.979-277.264-717.039-389.904
				c-57.984-26.091-133.84-58.05-217.77-88.942l64.741-354.806c97.985,28.348,193.214,62.764,281.359,103.067
				c134.414,61.542,266.966,136.218,398.876,202.658C6343.979,1372.6,6588.879,1520.738,6756.77,1701.96z"/>
			<path id="_x31_80611412" fill="#1F9D5A" stroke="#000000" d="M6454.828,1921.954l-464.238,338.194
				c-148.95-138.009-315.991-256.935-513.385-345.908c-39.876-17.978-109.999-46.428-190.94-73.821l96.435-527.721
				c83.926,30.893,159.781,62.85,217.77,88.941c250.061,112.639,505.545,219.054,717.039,389.902
				C6357.101,1823.49,6404.975,1869.352,6454.828,1921.954z"/>
			<path id="_x31_80611411" fill="#1F9D5A" stroke="#000000" d="M5990.592,2260.148l-458.823,334.301
				c-68.455-98.723-217.227-174.687-302.696-185.293c-15.881-1.952-31.265-2.985-46.067-3.188l103.261-565.549
				c80.94,27.394,151.063,55.842,190.939,73.821C5674.599,2003.214,5841.643,2122.14,5990.592,2260.148z"/>
			<path id="_x31_80611410" fill="#1F9D5A" stroke="#000000" d="M5531.767,2594.451l-161.881,117.954l-1.833,1.075
				c-39.506-68.127-111.392-122.364-174.436-123.683c-0.166-0.085-0.332-0.083-0.498-0.086c-15.712-1.95-30.684-1.573-43.999,1.557
				l33.886-185.301c14.804,0.202,30.186,1.235,46.068,3.191C5314.542,2419.763,5463.313,2495.727,5531.767,2594.451z"/>
			<path id="_x31_80611419" fill="#1F9D5A" stroke="#000000" d="M5474.077,811.995l-26.641,145.896
				c-105.133-30.615-213.443-54.252-319.192-70.891c-213.496-33.623-477.46-3.33-619.051,79.494
				c-52.306,30.644-127.464,89.512-181.661,145.851l-76.149-149.225l-0.915-0.751c20.021-24.403,37.699-42.908,49.866-53.024
				C4617.435,645.56,5102.147,743.054,5474.077,811.995z"/>
			<path id="_x31_80611418" fill="#1F9D5A" stroke="#000000" d="M5447.438,957.891l-64.741,354.806
				c-201.33-74.263-448.425-142.4-602.366-109.175c-178.655,38.569-230.975,141.737-247.768,310.448l-205.03-401.625
				c54.197-56.336,129.358-115.208,181.663-145.852c141.588-82.823,405.554-113.116,619.05-79.494
				C5233.997,903.641,5342.308,927.276,5447.438,957.891z"/>
			<path id="_x31_80611417" fill="#1F9D5A" stroke="#000000" d="M5382.697,1312.698l-96.433,527.722
				c-114.759-38.786-251.396-75.467-354.772-77.217c-103.125-1.749-156.201,72.558-186.205,167.548l-212.726-416.781
				c16.795-168.71,69.11-271.877,247.768-310.446C4934.272,1170.297,5181.365,1238.435,5382.697,1312.698z"/>
			<path id="_x31_80611416" fill="#1F9D5A" stroke="#000000" d="M5028.061,2441.434c-5.748,3.063-11.411,6.375-16.99,10.024
				l-265.781-520.708c30.005-94.989,83.081-169.296,186.205-167.547c103.374,1.749,240.012,38.429,354.773,77.216l-103.261,565.549
				C5123.375,2404.99,5072.029,2417.672,5028.061,2441.434z"/>
			<path id="_x31_80611415" fill="#1F9D5A" stroke="#000000" d="M5028.061,2441.434c-5.748,3.063-11.411,6.375-16.99,10.024
				l81.86,160.464l1.821,2.834c17.076-10.936,35.229-19.044,54.367-23.488l33.887-185.301
				C5123.375,2404.99,5072.029,2417.672,5028.061,2441.434z"/>
			<path id="_x31_80611409" fill="#188064" stroke="#000000" d="M7389.972,2398.468c65.058,230.54,85.245,478.681,70.091,723.994
				l-3.661-0.177l-129.06-7.384c7.676-43.479,12.613-89.459,14.146-139.273c6.061-199.592-14.504-395.254-93.811-580.582
				c-112.629-263.008-280.094-449.633-464.205-663.246c-8.627-10.083-17.58-20.002-26.707-29.838l107.313-78.17l4.334-4.063
				c12.858,14.004,25.876,27.924,38.902,41.679C7106.24,1871.728,7309.664,2114,7389.972,2398.468z"/>
			<path id="_x31_80611408" fill="#188064" stroke="#000000" d="M7247.68,2395.044c79.305,185.329,99.871,380.991,93.809,580.581
				c-1.531,49.817-6.469,95.796-14.146,139.274l-265.766-15.288c11.82-141.355,6.545-296.563-28.235-424.728
				c-41.215-151.885-177.994-403.639-253.708-527.331c-57.24-93.538-238.428-278.201-291.92-238.16l-5.389-7.415l274.445-200.017
				c9.123,9.837,18.08,19.757,26.708,29.842C6967.588,1945.412,7135.049,2132.037,7247.68,2395.044z"/>
			<path id="_x31_80611407" fill="#188064" stroke="#000000" d="M6487.715,1909.392c53.49-40.041,234.68,144.623,291.92,238.16
				c75.712,123.69,212.491,375.446,253.708,527.331c34.78,128.167,40.058,283.372,28.233,424.729l-91.137-5.214
				c6.659-105.524,1.256-210.581-19.155-297.042c-49.72-210.373-116.833-347.518-227.407-532.838
				c-62.209-104.198-169.337-237.114-269.049-342.565l27.495-19.977L6487.715,1909.392z"/>
			<path id="_x31_80611406" fill="#188064" stroke="#000000" d="M6951.286,2797.357c20.411,86.461,25.811,191.518,19.153,297.042
				l-474.907-27.274c0.007-2.246-0.07-4.491-0.15-6.82c-6.225-209.354-170.587-439.966-304.278-592.657
				c-63.612-72.68-130.059-142.205-200.51-207.499l464.236-338.194c99.714,105.453,206.842,238.368,269.051,342.565
				C6834.453,2449.84,6901.566,2586.985,6951.286,2797.357z"/>
			<path id="_x31_80611405" fill="#188064" stroke="#000000" d="M6495.38,3060.305c0.078,2.326,0.157,4.572,0.148,6.818
				l-150.591-8.599l-2.666,1.155c-19.684-45.126-56.164-91.788-77.461-123.277c-133.67-197.939-295.502-168.642-465.537-84.309
				c-77.523,38.402-182.599,86.051-192.94,132.767l-97.995,10.573l-114.922-144.08c10.324-38.484,2.855-80.253-15.43-118.887
				c49.977,71.231,113.427,142.661,171.993,34.438c32.249-59.638,18.673-119.303-18.209-172.455l458.823-334.3
				c70.453,65.293,136.899,134.82,200.51,207.499C6324.795,2620.338,6489.155,2850.952,6495.38,3060.305z"/>
			<path id="_x31_80611404" fill="#188064" stroke="#000000" d="M5531.767,2594.451c36.881,53.15,50.46,112.817,18.209,172.453
				c-58.564,108.223-122.015,36.794-171.993-34.438c-2.977-6.411-6.368-12.742-9.93-18.986l1.833-1.077L5531.767,2594.451z"/>
			<path id="_x31_80611403" fill="#009C75" stroke="#000000" d="M7456.401,3122.285l3.661,0.177
				c-11.519,187.1-43.575,372.574-91.736,547.445c-7.809,28.174-16.192,56.1-25.074,83.771l-196.763-107.354
				c10.908-39.811,24.229-79.203,40.044-118.582c60.247-149.643,115.512-268.106,140.809-412.843L7456.401,3122.285z"/>
			<path id="_x31_80611402" fill="#009C75" stroke="#000000" d="M7061.576,3099.612l265.766,15.288
				c-25.301,144.735-80.563,263.198-140.809,412.841c-15.817,39.38-29.136,78.771-40.044,118.582l-238.706-130.246
				c99.525,42.916,128.713-225.817,140.884-306.131C7054.075,3174.696,7058.404,3137.614,7061.576,3099.612z"/>
			<path id="_x31_80611401" fill="#009C75" stroke="#000000" d="M6895.238,3509.229l-19.188-10.439
				c10.029-20.523,19.313-42.039,27.685-64.725c35.245-95.142,59.001-217.675,66.701-339.666l91.139,5.215
				c-3.174,38-7.499,75.084-12.909,110.334c-12.173,80.313-41.358,349.046-140.884,306.133L6895.238,3509.229z"/>
			<path id="_x31_80611400" fill="#009C75" stroke="#000000" d="M6495.528,3067.124l474.911,27.275
				c-7.7,121.991-31.456,244.526-66.703,339.664c-8.371,22.688-17.655,44.203-27.685,64.725l-450.419-245.703
				C6468.76,3200.048,6495.773,3136.491,6495.528,3067.124z"/>
			<path id="_x31_80611399" fill="#009C75" stroke="#000000" d="M6495.528,3067.124c0.245,69.365-26.769,132.924-69.896,185.961
				l-128.157-69.926c68.002-22.788,67.206-72.107,44.794-123.48l2.666-1.156L6495.528,3067.124z"/>
			<path id="_x31_80611424" fill="#40A666" stroke="#000000" d="M4251.386,963.119l76.147,149.226
				c-19.759,20.41-36.691,40.496-48.878,58.764c-43.742,65.765-62.923,155.458-70.546,246.091
				c-4.625,54.215-5.007,108.856-4.046,158.844l-110.608-138.496c0.993-99.134,2.394-162.006,4.333-173.146
				c19.736-113.563,95.543-232.226,152.684-302.034L4251.386,963.119z"/>
			<path id="_x31_80611423" fill="#40A666" stroke="#000000" d="M4327.535,1112.345l205.028,401.625
				c-2.472,24.944-4.203,51.306-5.434,79.164c-5.191,116.425-17.363,232.082-31.786,347.57l-216.74-271.329
				c-74.54-93.332-42.416-53.113-74.54-93.332l-0.037-79.279l4.084-79.563c7.623-90.634,26.807-180.329,70.547-246.093
				C4290.844,1152.839,4307.776,1132.754,4327.535,1112.345z"/>
			<path id="_x31_80611422" fill="#40A666" stroke="#000000" d="M4532.563,1513.969l212.726,416.781
				c-27.073,85.598-35.389,187.958-44.815,266.781l-205.128-256.829c14.419-115.488,26.593-231.145,31.784-347.57
				C4528.358,1565.275,4530.092,1538.914,4532.563,1513.969z"/>
			<path id="_x31_80611421" fill="#40A666" stroke="#000000" d="M4745.287,1930.75l265.781,520.706
				c-23.659,14.831-45.076,33.242-64.258,54.486l-246.338-308.41C4709.898,2118.709,4718.214,2016.349,4745.287,1930.75z"/>
			<path id="_x31_80611420" fill="#40A666" stroke="#000000" d="M5092.929,2611.923l1.821,2.833
				c-13.41,8.535-26.079,18.734-38.081,30.097l-5.387-8.081l-104.472-130.831c19.182-21.244,40.599-39.655,64.258-54.485
				L5092.929,2611.923z"/>
			<path id="_x31_80611430" fill="#2FA850" stroke="#000000" d="M4210.001,2038.643c3.771,125.097,3.942,259.582-3.769,385.396
				c-4.071,66.941-7.675,146.028-10.624,229.438l-103.682-10.481c-0.6-469.491-0.834-954.201,1.528-1205.452l110.608,138.498
				c0.373,17.134,0.833,33.687,1.375,49.573C4210.1,1761.941,4205.844,1902.236,4210.001,2038.643z"/>
			<path id="_x31_80611429" fill="#2FA850" stroke="#000000" d="M4388.6,2671.166l-0.172,1.83l-192.822-19.518
				c2.948-83.412,6.553-162.497,10.624-229.438c7.711-125.817,7.538-260.299,3.77-385.396
				c-4.159-136.407,0.095-276.704-4.563-413.027c-0.544-15.888-1.002-32.439-1.375-49.574l74.539,93.332
				c-0.373,153.363-14.138,339.96-12.572,449.582c1.422,97.646-8.547,195.258,0.116,292.754
				C4270.27,2458.129,4359.827,2669.682,4388.6,2671.166z"/>
			<path id="_x31_80611428" fill="#2FA850" stroke="#000000" d="M4278.602,1669.374l216.74,271.329
				c-17.476,140.016-38.276,279.688-53.756,419.873c-11.22,100.605-33.271,206.678-47.502,313.014l-5.654-0.596l0.172-1.83
				c-28.772-1.485-118.33-213.035-122.458-259.456c-8.657-97.497,1.309-195.111-0.114-292.754
				C4264.464,2009.335,4278.229,1822.737,4278.602,1669.374z"/>
			<path id="_x31_80611427" fill="#2FA850" stroke="#000000" d="M4495.342,1940.702l205.131,256.829
				c-2.805,23.696-5.766,45.229-9.302,63.519c-27.543,141.32-36.011,271.375-55.82,414.212c-1.017,7.482-2.033,14.964-3.053,22.447
				l-238.216-24.12c14.234-106.337,36.283-212.407,47.502-313.014C4457.065,2220.39,4477.865,2080.716,4495.342,1940.702z"/>
			<path id="_x31_80611426" fill="#2FA850" stroke="#000000" d="M4700.473,2197.531l246.338,308.41
				c-39.443,43.485-70.018,99.299-93.131,163.616c-5.609,15.704-10.808,32.077-15.423,49.032l-205.959-20.88
				c1.018-7.481,2.032-14.964,3.053-22.447c19.811-142.836,28.277-272.892,55.82-414.212
				C4694.709,2242.76,4697.67,2221.226,4700.473,2197.531z"/>
			<path id="_x31_80611425" fill="#2FA850" stroke="#000000" d="M5051.284,2636.772l5.385,8.081
				c-26.591,25.468-49.622,57.015-68.243,89.49l-1.161-0.667l-149.002-15.088c4.613-16.954,9.81-33.328,15.423-49.031
				c23.111-64.316,53.689-120.132,93.131-163.617L5051.284,2636.772z"/>
			<path id="_x31_80611435" fill="#59B363" stroke="#000000" d="M4309.993,3460.249c-75.62,8.385-216.709-11.508-216.709-11.508
				l-0.265,74.605c-0.022-228.633-0.646-550.748-1.092-880.349l103.681,10.482c-6.261,180.628-9.412,381.39-7.843,521.783
				C4189.005,3281.389,4296.259,3362.907,4309.993,3460.249z"/>
			<path id="_x31_80611434" fill="#59B363" stroke="#000000" d="M4495.184,3334.949c2.799,45.337-8.539,88.89-22.285,132.522
				c-3.161-0.676-6.397-1.266-9.558-1.773c-47.301-8.018-101.102-12.137-148.937-5.938c-1.418,0.164-2.916,0.326-4.411,0.488
				c-13.736-97.34-120.99-178.859-122.229-284.984c-1.567-140.395,1.584-341.155,7.843-521.785l192.823,19.518l5.653,0.598
				c-18.382,136.686-23.788,273.652,23.39,399.851C4447.883,3154.69,4489.82,3247.942,4495.184,3334.949z"/>
			<path id="_x31_80611433" fill="#59B363" stroke="#000000" d="M4648.391,3227.788c21.914,84.719,65.172,148.863,54.975,237.912
				c-3.484,30.35-7.96,58.115-14.596,84.462c-68.527-35.843-139.721-68.291-215.871-82.691
				c13.746-43.635,25.084-87.186,22.285-132.522c-5.363-87.007-47.303-180.259-77.709-261.507
				c-47.178-126.199-41.771-263.167-23.391-399.852l238.216,24.12C4609.924,2870.979,4605.052,3060.426,4648.391,3227.788z"/>
			<path id="_x31_80611432" fill="#59B363" stroke="#000000" d="M4950.19,3166.064l59.47,646.12l-1.082,0.082
				c-3.1-24.297-15.836-53.52-21.299-64.594c-15.146-30.475-40.87-53.08-69.103-71.195c-19.603-12.523-40.616-23.305-60.463-35.164
				c-6.646-4.006-13.537-7.85-20.263-11.775c-13.29-7.766-91.617-48.877-117.113-62.662c-10.468-5.6-21.016-11.199-31.568-16.713
				c6.639-26.345,11.112-54.113,14.598-84.462c10.199-89.049-33.059-153.194-54.974-237.914
				c-43.338-167.361-38.466-356.809-16.09-530.078l205.959,20.88c-22.068,79.373-34.1,169.914-41.443,248.161
				c-2.816,30.6-18.382,273.416,73.305,224.734c38.802-20.531,26.685-96.576,32.603-170.416
				c2.485-30.599,8.466-60.859,15.102-87.955c-3.279,14.878-6.143,29.343-8.422,43.06c-3.289,19.869-4.425,40.742-4.637,60.87
				c-0.409,29.109-0.584,101.967,28.564,119.834c2.99,1.838,5.65,2.593,8.062,2.598L4950.19,3166.064z"/>
			<path id="_x31_80611431" fill="#59B363" stroke="#000000" d="M4987.261,2733.675l1.163,0.668
				c-22.971,40.03-39.209,81.576-47.524,115.072c-9.549,28.505-17.102,56.845-23.075,83.696
				c-6.634,27.095-12.613,57.354-15.102,87.956c-5.914,73.84,6.203,149.884-32.603,170.417
				c-91.687,48.68-76.123-194.137-73.303-224.737c7.342-78.243,19.373-168.783,41.443-248.158L4987.261,2733.675z"/>
			<path id="_x31_80611390" fill="#248A5E" stroke="#000000" d="M6535.973,4284.402l0.74,3.578
				c-62.738,13.072-126.139,23.729-189.864,30.479c-134.685,14.389-301.535,56.15-428.487,0.449
				c-150.533-66.072-291.836-170.877-435.513-253.646l3.008-5.234l-79.749-241.303c54.935-52.26,160.224-50.758,222.127-27.734
				c80.438,29.807,147.507,82.617,232.363,104.035c107.473,27.041,237.229,21.037,363.287-2.025L6535.973,4284.402z"/>
			<path id="_x31_80611389" fill="#248A5E" stroke="#000000" d="M5745.551,3293.094l478.334,599.904
				c-126.061,23.061-255.813,29.064-363.287,2.023c-84.86-21.42-151.931-74.227-232.362-104.035
				c-61.904-23.021-167.195-24.525-222.128,27.734l-95.356-288.248c2.437-9.557,4.953-18.949,7.306-28.094
				c22.834-87.77,84.783-149.994,162.571-194.966C5571.325,3254.991,5659.125,3264.356,5745.551,3293.094z"/>
			<path id="_x31_80611388" fill="#248A5E" stroke="#000000" d="M5508.336,2995.434l237.215,297.66
				c-86.424-28.738-174.226-38.104-264.925,14.322c-77.786,44.971-139.736,107.195-162.573,194.967
				c-2.347,9.139-4.868,18.537-7.304,28.094l-197.065-596.057c25.48-14.076,52.781-22.576,81.063-22.838
				c73.189-0.654,174.409,30.616,198.668-60.229L5508.336,2995.434z"/>
			<path id="_x31_80611387" fill="#248A5E" stroke="#000000" d="M5406.105,3818.723l79.749,241.305l-3.008,5.232
				c-10.547-6.102-21.094-12.029-31.643-17.793c-10.797-5.936-21.594-11.615-32.478-16.967l-32.402-81.586
				c-9.836-24.473-15.505-51.932-10.455-77.617c1.602-7.896,4.197-15.547,7.956-22.936
				C5389.678,3836.982,5397.268,3827.186,5406.105,3818.723z"/>
			<path id="_x31_80611386" fill="#248A5E" stroke="#000000" d="M5310.749,3530.477l95.356,288.246
				c-8.836,8.463-16.428,18.26-22.278,29.639c-3.761,7.393-6.354,15.041-7.956,22.936l-0.498-0.088l-33.207-25.027
				C5256.886,3756.232,5283.968,3633.625,5310.749,3530.477z"/>
			<path id="_x31_80611385" fill="#248A5E" stroke="#000000" d="M5386.324,3948.916l32.402,81.586
				c-99.012-49.645-198.914-78.912-305.274-115.02c-31.499-10.723-65.218-29.02-99.116-43.572l0.669-1.578l-5.347-58.15
				l-59.468-646.118l-8.799-6.593c19.377,0.049,23.743-50.676,29.509-62.886c28.929-60.894,80.488-128.05,142.782-162.163
				l197.064,596.057c-26.781,103.148-53.861,225.755,31.415,315.707l33.205,25.027l0.498,0.086
				C5370.817,3896.984,5376.488,3924.443,5386.324,3948.916z"/>
			<path id="_x31_80611398" fill="#219866" stroke="#000000" d="M7146.487,3646.324l196.763,107.354
				c-37.46,116.344-84.313,228.594-134.319,341c-18.393,41.289-64.304,107.963-95.095,150.801l-146.793-136.176
				c85.294-86.455,132.989-206.016,150.835-326.566C7124.809,3736.26,7134.151,3691.037,7146.487,3646.324z"/>
			<path id="_x31_80611397" fill="#219866" stroke="#000000" d="M7146.487,3646.324c-12.334,44.713-21.679,89.938-28.609,136.412
				c-17.846,120.551-65.541,240.113-150.835,326.566l-364.697-338.143c121.658-62.41,212.688-147.521,273.704-272.371l19.188,10.439
				c4.316,2.922,8.472,5.178,12.543,6.85L7146.487,3646.324z"/>
			<path id="_x31_80611396" fill="#219866" stroke="#000000" d="M6425.633,3253.086l450.419,245.701
				c-61.016,124.853-152.046,209.962-273.706,272.373l-403.617-374.246C6285.278,3373.838,6369.24,3322.478,6425.633,3253.086z"/>
			<path id="_x31_80611395" fill="#219866" stroke="#000000" d="M6297.476,3183.161l128.157,69.926
				c-56.393,69.392-140.354,120.752-226.904,143.83l-285.952-265.097C6052.4,3174.995,6210.156,3212.389,6297.476,3183.161z"/>
			<path id="_x31_80611394" fill="#219866" stroke="#000000" d="M6967.043,4109.303l146.793,136.178
				c-17.525,24.238-30.124,40.926-30.124,40.926s-125.537-51.371-210.785-51.58c-38.093-0.094-76.938,3.473-115.628,9.033
				l-2.209-14.393c37.195-7.979,78.408-26.758,113.137-45.633C6905.615,4163.543,6938.447,4138.262,6967.043,4109.303z"/>
			<path id="_x31_80611393" fill="#219866" stroke="#000000" d="M6602.346,3771.16l364.697,338.143
				c-28.594,28.959-61.428,54.24-98.819,74.531c-34.725,18.873-75.938,37.654-113.136,45.633l2.211,14.393
				c-63.977,9.16-127.721,23.975-187.637,37.133c-10.984,2.385-21.969,4.77-32.951,6.988l-0.74-3.578l-312.09-391.406
				c107.503-19.615,212.292-51.549,298.369-85.768C6550.309,3796.07,6576.948,3784.074,6602.346,3771.16z"/>
			<path id="_x31_80611392" fill="#219866" stroke="#000000" d="M6198.729,3396.915l403.617,374.246
				c-25.397,12.914-52.037,24.91-80.096,36.068c-86.075,34.219-190.866,66.152-298.367,85.768l-478.334-599.904
				c100.722,33.431,199.377,93.135,298.221,112.008C6092.646,3414.454,6146.133,3410.924,6198.729,3396.915z"/>
			<path id="_x31_80611391" fill="#219866" stroke="#000000" d="M5912.778,3131.82l285.95,265.095
				c-52.596,14.01-106.082,17.539-154.963,8.188c-98.84-18.875-197.495-78.579-298.219-112.01l-237.213-297.659l97.994-10.574
				c-5.881,25.768,17.259,51.36,89.891,74.907C5747.575,3076.444,5826.766,3105.247,5912.778,3131.82z"/>
			<path id="_x31_80611360" fill="#9AD2BD" stroke="#000000" d="M6984.811,4281.73c-69.302-8.523-140.248-24.605-209.663-16.23
				c-70.521,8.512-138.789,29.332-207.558,46.283c-10.37,2.557-21.184,4.842-32.359,6.93
				c-34.572,6.439-72.614,10.957-111.891,15.648c-127.898,15.289-268.822,32.459-345.214,124.242
				c-47.931,57.592-72.519,134.893-123.424,192.445c-50.854,57.492-114.313,102.363-169.727,155.145
				c-10.282,9.793-20.339,19.539-29.357,29.742c-4.861,5.512-9.419,11.15-13.564,17.006c-6.11,4.244-13.067,7.881-17.335,10.586
				c-38.557,24.398-61.872-12.631-76.215-43.551c-34.669-102.5-109.812-286.477-240.416-43.334
				c-43.407,80.834-69.854,240.234-49.287,334.127c17.047,77.799,106.313,155.576,189.288,145.875
				c41.163-4.811,89.092-3.486,127.438-8.158c24.315,5.086,48.48,7.773,71.557,17.373c17.375,7.23,31.043,22.926,45.895,34.609
				c11.664,13.307,23.197,25.373,34.635,36.652c53.058,52.309,104.258,87.627,158.588,150.477
				c29.608,34.244,53.385,50.316,76.822,89.029c6.52,10.77,76.801,126.072,72.703,129.488c23.605-19.713,35.926-49.867,51.8-75.174
				c23.981-38.252,49.013-75.131,69.567-115.613c37.049-72.992,92.615-122.623,152.214-168.973
				c43.412-33.76,88.956-65.783,131.047-103.816c2.181-1.984,4.366-3.971,6.526-5.979c0.194-0.18,0.383-0.357,0.576-0.539
				c2.981-2.775,5.941-5.568,8.875-8.391c4.544-4.367,9.092-8.719,13.638-13.055c1.192-1.141,2.391-2.287,3.585-3.426
				c3.173-3.025,6.342-6.045,9.514-9.063c21.496-20.465,43.049-40.867,64.402-61.48c0.059-0.064,0.122-0.121,0.186-0.18
				c4.831-4.666,9.65-9.344,14.455-14.033c0.369-0.357,0.736-0.721,1.109-1.08c4.684-4.574,9.355-9.166,14.006-13.77
				c25.395-25.129,50.248-50.719,74.249-77.395c23.335-25.93,45.86-52.887,67.283-81.467
				c74.089-98.842,146.249-201.438,197.177-314.463c33.535-74.422,42.24-139.029,57.594-225.408
				c4.795-27.016,8.471-82.738,8.471-82.738S7013.855,4285.309,6984.811,4281.73z"/>
			<path id="_x31_80611361" fill="#9AD2BD" stroke="#000000" d="M5008.576,3812.266c-3.102-24.295-15.836-53.52-21.301-64.594
				c-15.145-30.475-40.87-53.08-69.103-71.195c-19.601-12.523-40.614-23.303-60.463-35.162c-6.646-4.008-13.537-7.854-20.263-11.777
				c-13.29-7.766-91.615-48.877-117.113-62.662c-10.466-5.6-21.014-11.197-31.566-16.713
				c-68.526-35.843-139.719-68.292-215.869-82.693c-3.161-0.676-6.399-1.266-9.559-1.771c-47.301-8.02-101.101-12.141-148.938-5.939
				c-1.416,0.164-2.915,0.326-4.411,0.49c-75.619,8.383-216.706-11.51-216.706-11.51l-0.267,74.604
				c-0.006,70.695-0.078,132.488-0.197,182.722c2.267-0.4,4.526-0.814,6.784-1.24c-3.014,0.787-6.024,1.57-9.028,2.355l0.786,10.469
				c2.865,38.055,1.318,76.664,0.564,114.83c-1.993,101.375-2.243,202.93,1.5,304.234c1.879,48.912,5.502,97.738,9.042,146.57
				c1.854,25.035,2.875,50.236,5.473,75.195c2.034,19.549,6.686,55.24,6.686,55.24s105.355-26.691,118.836-30.564
				c1.435-0.408,2.883-0.816,4.321-1.221c9.61-2.707,19.388-5.352,29.302-7.932c16.864-4.373,34.034-8.607,51.063-12.895
				c26.051-6.559,51.698-13.529,77.802-19.809c15.283-3.68,30.079-11.229,42.899,1.166c17.904,17.311,13.859,44.379,19.016,66.92
				c4.166,18.219,10.651,35.723,17.869,52.93c26.542,63.252,13.26,87.416,10.713,152.498c-1.232,31.357-2.25,81.254,13.793,115.922
				c6.555,14.152,15.945,25.766,29.34,32.539c26.675,13.51,62.05,1.439,82.435-18.939c16.679-16.682,23.349-41.678,32.981-62.602
				c25.261-54.93,43.34-108.424,54.572-167.828c3.75-19.797,2.264-40.234,6.495-59.928c4.365-20.363,14.85-42.029,25.21-60.025
				c33.504-58.201,119.081-106.885,110.551-180.346c-2.751-23.744-13.992-40.203-22.691-61.461
				c-9.853-24.08-0.318-38.355,13.048-57.375c29.392-20.615,7.157-106.844,8.682-130.051
				c3.879-56.381,35.555-120.178,101.16-113.945c10.993,1.045,23.675,6.158,33.938,5.178c0.124-1.314,0.053-2.609-0.195-3.887
				c-0.481-2.512-1.661-4.951-3.334-7.301c8.176,3.676,15.956,5.467,22.411,3.393
				C5008.084,3843.867,5010.698,3829.318,5008.576,3812.266z"/>
			<path id="_x31_80611374" fill="#54BF94" stroke="#000000" d="M5662.931,4863.199c-24.775-69.359-101.666-371.73-254.845-86.557
				c-43.406,80.832-69.855,240.232-49.287,334.125c17.049,77.799,106.313,155.578,189.288,145.875
				c92.495-10.813,219.21,9.391,194.473-77.203C5736.068,5156.705,5677.885,4905.051,5662.931,4863.199z"/>
			<path id="_x31_80611375" fill="#54BF94" stroke="#000000" d="M4500.249,4730.738c6.553,14.152,15.944,25.766,29.34,32.539
				c26.674,13.506,62.049,1.439,82.433-18.939c16.68-16.684,23.35-41.678,32.982-62.602c25.261-54.928,43.34-108.422,54.574-167.828
				c3.748-19.797,2.262-40.236,6.492-59.93c4.364-20.361,14.853-42.029,25.21-60.023c33.504-58.203,119.082-106.883,110.551-180.344
				c-9.355-80.719-81.989-122.055-168.586-114.174c-76.311,6.934-125.331,50.467-170.176,109.225
				c-59.622,78.119-66.528,160.246-27.325,253.66c26.536,63.248,13.258,87.412,10.711,152.494
				C4485.227,4646.172,4484.208,4696.072,4500.249,4730.738z"/>
			<path id="_x31_80611377" fill="#54BF94" stroke="#000000" d="M4500.249,4730.738c6.553,14.152,15.944,25.766,29.34,32.539
				c26.674,13.506,62.049,1.439,82.433-18.939c16.68-16.684,23.35-41.678,32.982-62.602c25.261-54.928,43.34-108.422,54.574-167.828
				c3.748-19.797,2.262-40.236,6.492-59.93c4.364-20.361,14.853-42.029,25.21-60.023c33.504-58.203,119.082-106.883,110.551-180.344
				c-9.355-80.719-81.989-122.055-168.586-114.174c-76.311,6.934-125.331,50.467-170.176,109.225
				c-59.622,78.119-66.528,160.246-27.325,253.66c26.536,63.248,13.258,87.412,10.711,152.494
				C4485.227,4646.172,4484.208,4696.072,4500.249,4730.738z"/>
			<path id="_x31_80611376" fill="#54BF94" stroke="#000000" d="M5662.931,4863.199c-24.775-69.359-101.666-371.73-254.845-86.557
				c-43.406,80.832-69.855,240.232-49.287,334.125c17.049,77.799,106.313,155.578,189.288,145.875
				c92.495-10.813,219.21,9.391,194.473-77.203C5736.068,5156.705,5677.885,4905.051,5662.931,4863.199z"/>
			<path id="_x31_80611384" fill="#62D09F" stroke="#000000" d="M4217.859,4195.867c9.225-182.781,20.895-354.631,48.693-526.393
				c-6.058,0.766-12.047,1.527-17.957,2.371c-52.915,7.523-106.323,21.861-158.019,35.336l0.786,10.469
				c2.864,38.055,1.32,76.664,0.564,114.828c-1.994,101.377-2.244,202.932,1.5,304.236c1.88,48.912,5.502,97.738,9.042,146.568
				c1.854,25.039,2.875,50.238,5.473,75.195c2.035,19.553,6.687,55.244,6.687,55.244s105.356-26.691,118.835-30.566
				c1.435-0.408,2.884-0.814,4.32-1.221C4224.012,4338.971,4214.407,4264.17,4217.859,4195.867z"/>
			<path id="_x31_80611383" fill="#62D09F" stroke="#000000" d="M4421.951,3661.67c-51.966-1.172-104.419,1.641-154.138,7.648
				c-0.422,0.049-0.837,0.105-1.261,0.156c-27.799,171.762-39.469,343.611-48.693,526.393c-3.452,68.303,6.152,143.104,19.93,186.07
				c9.609-2.709,19.388-5.352,29.303-7.934c16.862-4.371,34.033-8.607,51.058-12.893c4.832-11.695,9.692-25.4,14.546-41.275
				C4386.839,4142.16,4372.742,3843.664,4421.951,3661.67z"/>
			<path id="_x31_80611382" fill="#62D09F" stroke="#000000" d="M4605.678,3689.188c-17.614-6.779-35.814-12.314-55.101-15.604
				c-37.657-6.498-77.239-10.252-117.325-11.596c-3.764-0.131-7.531-0.234-11.301-0.318
				c-49.209,181.996-35.111,480.494-89.254,658.166c-4.85,15.879-9.71,29.582-14.548,41.275c18.6-4.684,37.032-9.424,54.718-14.461
				c49.104-13.936,50.147-33.561,63.899-78.605c3.838-12.582,8.48-24.869,13.853-36.787
				c18.594-130.123,110.009-421.596,181.465-530.879C4623.394,3696.41,4614.613,3692.631,4605.678,3689.188z"/>
			<path id="_x31_80611381" fill="#62D09F" stroke="#000000" d="M4975.772,3852.064c-3.351-17.33-38.879-31.111-52.031-37.514
				c-51.421-25.074-108.773-38.521-163.04-55.785c-45.629-14.553-86.012-38.893-128.619-58.381
				c-71.456,109.279-162.872,400.75-181.466,530.877c49.856-110.684,163.038-188.834,290.607-159.162
				c23.438,5.463,52.494,27.326,75.946,27.131c50.901-0.459,21.969-108.146,23.703-134.512
				c3.878-56.377,35.553-120.176,101.157-113.943c10.997,1.047,23.677,6.158,33.939,5.176
				C4976.092,3854.639,4976.021,3853.342,4975.772,3852.064z"/>
			<path id="_x31_80611439" fill="#A4DAA4" stroke="#000000" d="M4309.993,3460.249c2.699,19.219,1.732,39.096-4.389,59.871
				c-14.761,50.031-27.192,99.652-37.791,149.199c-6.489,0.813-12.894,1.631-19.218,2.527
				c-52.995,7.523-103.271,25.031-155.771,34.221c0.12-50.234,0.192-112.029,0.195-182.72l0.265-74.605
				C4093.285,3448.739,4234.373,3468.633,4309.993,3460.249z"/>
			<path id="_x31_80611438" fill="#A4DAA4" stroke="#000000" d="M4463.34,3465.696c3.161,0.508,6.399,1.098,9.559,1.773
				c-19.946,62.988-44.887,126.054-39.65,194.515c-55.631-1.885-112.105,0.893-165.436,7.334
				c10.6-49.547,23.031-99.168,37.791-149.199c6.12-20.775,7.089-40.652,4.39-59.871c1.495-0.162,2.993-0.326,4.411-0.49
				C4362.239,3453.557,4416.036,3457.678,4463.34,3465.696z"/>
			<path id="_x31_80611437" fill="#A4DAA4" stroke="#000000" d="M4688.768,3550.162c-11.676,47.629-30.158,90.668-61.458,136.25
				l-21.632,2.775c-17.614-6.779-35.814-12.314-55.101-15.604c-37.657-6.498-77.239-10.252-117.325-11.596
				c-5.238-68.463,19.702-131.529,39.649-194.517C4549.049,3481.87,4620.242,3514.319,4688.768,3550.162z"/>
			<path id="_x31_80611436" fill="#A4DAA4" stroke="#000000" d="M5008.576,3812.266c2.122,17.053-0.492,31.604-13.729,35.895
				c-20.307,6.521-53.746-25.164-71.108-33.609c-51.423-25.076-108.774-38.523-163.042-55.787
				c-54.932-17.518-102.256-49.236-155.021-69.576l21.632-2.775c31.298-45.584,49.782-88.621,61.458-136.25
				c10.551,5.516,21.101,11.113,31.568,16.713c25.5,13.783,103.823,54.895,117.113,62.662c6.726,3.924,13.617,7.77,20.263,11.777
				c19.847,11.857,40.864,22.639,60.463,35.162c28.232,18.115,53.956,40.721,69.103,71.195
				C4992.74,3758.746,5005.477,3787.969,5008.576,3812.266z"/>
			<path id="_x31_80611380" fill="#6ACBBA" stroke="#000000" d="M6984.811,4281.73c-69.302-8.523-140.248-24.605-209.663-16.23
				c-70.521,8.512-138.789,29.332-207.558,46.283c-10.37,2.557-21.184,4.842-32.359,6.93c19.133,10.855,45.579,9.043,66.117,14.195
				c30.593,7.674,59.323,21.379,85.313,39.15c59.953,40.998,113.766,118.023,108.712,194.777
				c-7.579,115.156-93.392,189.598-189.772,239.145c-99.404,51.104-209.065,81.611-312.555,123.25
				c-48.425,19.482-115.445,35.09-141.584,85.553c-14.069,27.168-6.894,56.107-21.508,84.346
				c-17.974,34.729-38.088,68.266-66.066,95.965c-35.015,34.68-71.014,69.295-112.4,96.375
				c-33.599,21.982-80.698,40.676-123.871,45.65c53.058,52.307,104.258,87.629,158.588,150.477
				c29.604,34.246,53.383,50.316,76.82,89.029c6.521,10.77,76.801,126.072,72.707,129.486
				c23.604-19.711,35.924-49.865,51.795-75.172c23.984-38.252,49.016-75.133,69.572-115.613
				c37.047-72.992,92.615-122.623,152.21-168.973l0.007-0.004c-4.182,3.051-8.359,6.09-12.537,9.125
				c-6.101,4.432-93.297,78.68-89.557,83.188c-24.92-23.895-2.558-73.844,9.219-97.887c15.707-32.086,39.234-59.627,61.176-87.564
				c51.858-66.008,109.227-132.379,173.465-186.799c51.248-43.416,93.975-89.963,166.046-95.373
				c69.866-5.248,61.538,27.328,34.342,63.115c0.002,0,0.002-0.002,0.004-0.004c23.335-25.928,45.86-52.887,67.283-81.463
				c74.089-98.846,146.251-201.439,197.177-314.469c33.534-74.422,42.24-139.027,57.592-225.406
				c4.797-27.016,8.473-82.738,8.473-82.738S7013.855,4285.309,6984.811,4281.73z"/>
			<path id="_x31_80611379" fill="#6ACBBA" stroke="#000000" d="M6063.885,5195.096c27.979-27.701,48.091-61.236,66.064-95.965
				c14.616-28.24,7.44-57.18,21.51-84.342c26.139-50.467,93.155-66.074,141.584-85.557
				c103.487-41.641,213.152-72.145,312.555-123.25c96.377-49.547,182.191-123.988,189.771-239.145
				c5.053-76.756-48.758-153.779-108.709-194.781c-25.991-17.77-54.724-31.475-85.314-39.146
				c-20.536-5.15-46.984-3.338-66.119-14.195c-34.572,6.439-72.612,10.957-111.889,15.648c-1.919,27.51,12.279,44.924,35.689,61.898
				c27.479,19.93,61.02,26.477,83.996,53.133c26.291,30.502,24.195,81.373,5.9,114.783c-34.291,62.611-81.985,26.424-135.014,14.762
				c-55.047-12.105-63.572,22.984-94.729,57.063c-21.929,23.988-55.802,44.422-89.246,43.973
				c-37.113-0.49-64.69,13.145-87.541,33.645c-33.736,30.293-57.139,75.582-85.609,112.557
				c-55.47,72.039-142.847,96.809-207.444,161.271c-32.808,32.752-54.75,76.988-68.094,120.951
				c-8.275,27.275-9.362,63.377-18.044,93.686c2.749,36.514,7.854,72.826,24.563,92.355c13.446,15.719,26.705,29.719,39.852,42.678
				c43.171-4.977,90.271-23.666,123.871-45.65C5992.873,5264.393,6028.87,5229.775,6063.885,5195.096z"/>
			<path id="_x31_80611378" fill="#6ACBBA" stroke="#000000" d="M5849.338,4987.449c64.598-64.465,151.975-89.232,207.444-161.271
				c28.469-36.975,51.871-82.264,85.609-112.557c22.851-20.502,50.43-34.137,87.541-33.646
				c33.442,0.447,67.317-19.984,89.246-43.971c31.154-34.078,39.681-69.168,94.729-57.063
				c53.028,11.66,100.725,47.848,135.012-14.762c18.295-33.408,20.391-84.285-5.9-114.783
				c-22.973-26.658-56.516-33.207-83.994-53.133c-23.41-16.977-37.61-34.391-35.691-61.898
				c-127.896,15.289-268.822,32.457-345.214,124.242c-47.933,57.59-72.517,134.891-123.424,192.447
				c-50.852,57.488-114.313,102.361-169.727,155.139c-10.282,9.799-20.341,19.545-29.355,29.746
				c-20.751,23.486-36.055,49.402-36.229,83.918c-0.349,65.287,21.546,134.705,35.977,197.852
				c4.83,21.141,5.453,52.836,7.831,84.381c8.686-30.309,9.772-66.41,18.043-93.68
				C5794.586,5064.438,5816.528,5020.201,5849.338,4987.449z"/>
			<path id="_x31_80611365" fill="#8ADA87" stroke="#000000" d="M5606.329,2984.861c10.342-46.716,115.419-94.364,192.94-132.765
				c170.037-84.334,331.869-113.631,465.537,84.307c21.299,31.49,57.779,78.154,77.461,123.279
				c22.414,51.371,23.21,100.69-44.795,123.48c-87.322,29.23-245.072-8.166-384.696-51.339
				c-86.013-26.575-165.204-55.378-216.56-72.053C5623.587,3036.219,5600.447,3010.628,5606.329,2984.861z"/>
			<path id="_x31_80611364" fill="#A0EE9D" stroke="#000000" d="M5911.011,4366.795c80.647,44.609,117.626,57.09,92.939,153.26
				c-12.514,48.789-43.412,102.359-86.563,130.195c-51.393,33.059-94.081,76.285-136.023,121.096
				c-17.094,18.254-43.312,59.193-70.185,64.203c-44.018,8.205-55.826-59.938-65.241-87.488
				c-21.554-62.682-53.727-101.186-67.541-167.254c-12.493-59.582-29.91-115.434-73.71-159.781
				c-88.275-89.539-255.312-177.941-311.486-297.26c-32.932-70.025,2.894-129.652,93.852-118.285
				c106.673,13.316,175.903,66.797,282.39,156.631c30.875,26.111,78.541,55,113.169,75.797
				C5757.521,4283.002,5834.601,4324.521,5911.011,4366.795z"/>
			<path id="_x31_80611363" fill="#80CDF8" stroke="#000000" d="M5238.171,5601.982c55.014-23.664,94.621-68.475,134.322-111.576
				c66.327-72,204.271-125.025,71.621-222.873c-47.868-35.271-79.454-45.469-104.833-103.359
				c-50.552-115.277,4.82-253.824-46.652-364.023c-8.846-18.934-20.549-37.107-32.28-54.354
				c-21.566-31.699-42.777-63.748-49.022-102.67c-4.905-30.543-11.229-58.998-9.456-90.023c1.419-24.98-0.319-46.434-10.235-69.654
				c-9.524-22.32-22.267-43.721-26.39-67.949c-4.161-24.471,0.964-57.354,4.012-81.873c9.862-79.373,19.937-183.914-36.036-249.453
				c-44.841-52.477-133.38-67.316-192.858-28.355c-75.003,49.111-56.808,151.648-87.836,224.533
				c-13.156,30.889-50.147,58.633-71.222,85.74c-67.664,87.066-50.418,138.486-77.577,242.07
				c-8.276,31.6-19.237,57.717-32.438,81.645c-20.435,37.006-46.271,68.732-75.972,107.303
				c-41.122,53.406-79.674,128.123-83.004,196.594c-4.055,83.162,32.606,164.014,70.261,235.969
				c97.125,185.586,254.157,382.604,482.08,395.969C5117.966,5628.773,5188.531,5623.334,5238.171,5601.982z"/>
			<path id="_x31_80611370" fill="#80CDF8" stroke="#000000" d="M5166.343,6249.885c21.235,14.631,116.222,0.451,140.68-4.992
				c48.145-10.719,86.169-42.986,61.123-97.982c-35.985-79-92.64-14.395-130.128,8.473
				C5216.728,6168.367,5085.672,6194.305,5166.343,6249.885z"/>
			<path id="_x31_80611371" fill="#80CDF8" stroke="#000000" d="M5700.621,6075.639c116.879-32.965,46.199-283.488-50.258-148.082
				C5612.116,5981.246,5599.187,6104.25,5700.621,6075.639z"/>
			<path id="_x31_80611372" fill="#80CDF8" stroke="#000000" d="M4425.23,5707.156c55.995-39.434-36.903-211.781-51.25-255.373
				c-27.687-84.105-52.321-173.445-75.585-259.4c-20.261-11.533-35.275-9.328-45.542,6.127l-0.598,0.354
				c0.215,5.008,0.327,10.039,0.32,15.107c0.581,32.061-2.538,57.826-3.969,77.908c-0.88,89.123,20.746,174.402,46.811,261.559
				c8.455,22.959,16.981,49.75,25.935,76.191c7.997,20.955,16.629,41.652,25.836,62.09
				C4374.799,5695.127,4400.398,5724.645,4425.23,5707.156z"/>
			<path id="_x31_80611373" fill="#80CDF8" stroke="#000000" d="M4804.238,6143.143c13.788-16.422,36.638-62.031,18.415-82.449
				c-19.729-22.1-41.204,4.336-63.089,0.025c-69.9-13.768-77.978-66.912-159.473-17.191l-10.448,5.037
				c44.973,45.707,94.606,88.484,147.713,126.354l3.8-0.055C4768.057,6176.629,4787.479,6163.102,4804.238,6143.143z"/>
			<path id="_x31_80611368" fill="#80CDF8" stroke="#000000" d="M6010.642,5563.869c-7.416-10.498-25.985-30.801-50.319-55.732
				c10.164,35.982,26.277,72.799,12.643,110.057c-13.697,37.424-55.75,56.758-82.652,83.318
				c-14.604,14.412-30.213,32.15-42.666,48.488c-11.721,15.381-15.902,31.34-30.373,43.66
				c-42.091,35.836-82.727,60.838-135.939,77.072c-15.132,4.617-32.432,9.082-47.957,14.289
				c-27.497,9.23-54.264,18.225-79.207,32.896c-29.275,17.225-46.519,47.25-74.924,65.221
				c-30.537,19.322-66.618,22.365-101.869,24.84c-61.122,4.283-51.167,7.598-91.399,38.896
				c-45.143,35.129-100.608,52.996-157.55,35.51c-36.786-11.295-66.563-44.459-107.601-54.172
				c-48.137-11.375-93.853,21.814-140.348,12.697c-34.013-6.666-58.608-33.334-83.297-55.51
				c-28.44-25.549-57.252-33.559-89.957-50.98c-58.917-31.396-100.844-98.832-136.421-152.607
				c-31.862-48.152-45.203-105.902-82.175-150.195c-30.104-36.082-63.604-52.188-77.415-101.225
				c-15.007-53.332-16.798-107.979-6.229-162.32c27.936-143.65-74.149-293.578-37.855-440.598
				c7.386-29.871,21.069-52.949,23.37-83.426c-77.452,50.938-184.154,118.889-197.803,117.445
				c5.815,20.764,7.753,26.107,14.495,46.523c7.079,20.445,14.759,43.262,21.812,67.605c11.992,39.982,21.446,80.559,23.255,123.238
				l0.598-0.354c10.267-15.455,25.278-17.662,45.54-6.125c23.266,85.953,47.898,175.295,75.585,259.398
				c14.349,43.592,107.247,215.943,51.252,255.373c-24.834,17.49-50.436-12.027-78.048-15.438
				c38.042,84.441,86.062,164.352,141.26,238.799c30.114,40.604,64.068,80.326,101.197,118.049l10.449-5.037
				c81.494-49.721,89.573,3.426,159.472,17.189c21.885,4.313,43.361-22.123,63.089-0.023c18.226,20.418-4.623,66.029-18.417,82.451
				c-16.757,19.955-36.182,33.482-63.08,31.717l-3.8,0.055c66.764,47.607,139.018,87.463,214.399,115.633
				c64.689,23.057,131.854,40.553,200.254,44.311c48.901,2.686,102.353,1.207,150.3-9.357c19.63-4.32,38.604-10.227,57.685-15.895
				c38.494-11.449,75.074-24.814,110.32-39.83c85.361-37.844,169.15-88.232,248.188-145.682
				c24.486-18.246,48.809-37.389,73.171-57.398c34.354-28.23,65.018-53.91,96.606-82.773c31.965-29.707,62.424-60.039,91.075-90.48
				c44.811-48.551,87.655-101.25,129.149-151.715C6123.692,5723.271,6025.365,5584.703,6010.642,5563.869z M5307.022,6244.895
				c-24.458,5.443-119.444,19.623-140.68,4.992c-80.669-55.582,50.385-81.52,71.673-94.504
				c37.49-22.861,94.143-87.469,130.128-8.471C5393.191,6201.908,5355.165,6234.174,5307.022,6244.895z M5700.621,6075.639
				c-101.435,28.611-88.505-94.393-50.258-148.082C5746.82,5792.15,5817.5,6042.674,5700.621,6075.639z"/>
			<path id="_x31_80611367" fill="#80CDF8" stroke="#000000" d="M4404.98,5368.074c-10.568,54.342-8.779,108.986,6.228,162.322
				c13.808,49.035,47.31,65.141,77.416,101.225c36.972,44.293,50.313,102.043,82.173,150.193
				c35.579,53.775,77.504,121.211,136.423,152.609c32.703,17.422,61.516,25.428,89.957,50.98
				c24.687,22.176,49.284,48.842,83.297,55.51c46.497,9.117,92.21-24.074,140.349-12.697c41.039,9.713,70.815,42.871,107.6,54.17
				c56.945,17.488,112.411-0.381,157.551-35.508c40.233-31.299,30.276-34.615,91.4-38.898c35.252-2.473,71.332-5.52,101.867-24.84
				c28.409-17.971,45.648-47.998,74.926-65.219c24.945-14.676,51.708-23.67,79.207-32.896c15.523-5.209,32.825-9.674,47.957-14.289
				c53.215-16.238,93.851-41.24,135.939-77.074c14.471-12.322,18.654-28.281,30.373-43.66
				c12.451-16.336,28.063-34.076,42.666-48.488c26.902-26.563,68.955-45.895,82.652-83.318
				c13.639-37.258-2.479-74.074-12.646-110.055c-15.342-15.729-32.989-33.291-51.577-51.4
				c-37.289-21.988-71.24-55.971-106.372-78.85c-16.933-11.029-69.41-48.35-87.728-21.65
				c-38.747,56.799,114.028,138.521,133.894,174.375c36.917,66.602,20.875,63.275-37.324,97.947
				c-35.592,21.211-95.117,32.33-129.058,55.822c-47.531,32.92-88.422,83.811-140.229,108.855
				c-49.992,24.154-110.576,21.973-162.697,35.332c-99.069,25.393-236.411,93.172-339.971,74
				c-63.186-11.699-100.918,23.707-152.629,13.762c-84.143-16.201-85.524-88.896-140.684-143.209
				c-43.683-43.025-114.078-73.426-148.737-123.146c-30.659-43.965-44.171-121.967-49.124-174.383
				c-7.365-77.818,5.93-145.959-16.739-224.422c-15.315-52.957-30.455-65.605-66.267-108.277
				c-29.109-34.674-24.084-51.633-29.355-93.574c-3.289-26.162,10.869-53.529,13.159-79.301
				c2.965-33.336,12.026-65.854,16.93-98.906c2.898-19.551,4.647-42.246-0.989-61.516c-1.174-4.002-2.553-8.186-4.029-12.422
				c-14.002,9.525-39.893,26.889-70.287,46.879c-2.302,30.473-15.987,53.553-23.37,83.424
				C4330.831,5074.498,4432.916,5224.422,4404.98,5368.074z"/>
			<path id="_x31_80611366" fill="#80CDF8" stroke="#000000" d="M4465.804,4871.111c-4.903,33.057-13.965,65.572-16.928,98.906
				c-2.29,25.77-16.452,53.139-13.162,79.301c5.271,41.939,0.245,58.896,29.354,93.572c35.813,42.672,50.952,55.32,66.267,108.277
				c22.669,78.467,9.375,146.602,16.74,224.424c4.956,52.412,18.465,130.418,49.124,174.381
				c34.66,49.719,105.055,80.125,148.739,123.148c55.158,54.313,56.542,127.01,140.683,143.209
				c51.71,9.945,89.444-25.461,152.63-13.764c103.555,19.17,240.897-48.609,339.968-73.998
				c52.123-13.361,112.707-11.182,162.699-35.334c51.805-25.045,92.699-75.938,140.229-108.854
				c33.938-23.494,93.464-34.613,129.056-55.824c58.203-34.672,74.243-31.348,37.326-97.947
				c-19.866-35.852-172.641-117.574-133.895-174.371c18.318-26.699,70.797,10.617,87.729,21.646
				c35.13,22.883,69.085,56.863,106.372,78.85c-69.624-67.838-152.518-143.314-177.823-158.281
				c-47.062-27.834-149.754-45.633-177.158-3.031c-49.187,76.508,104.928,117.316,147.634,182.006
				c37.525,56.859,37.052,88.201,15.175,128.885c-94.82,176.326-554.432,254.557-670.743,249.291
				c-66.03-2.994-154.993-10.488-213.744-41.83c-129.811-69.246-286.803-283.322-210.194-356.375
				c50.011-47.701,11.04-76.549-8.033-118.541c-33.087-72.854-95.25-160.328-121.319-267.824
				c-12.555-51.805-7.635-116.084,11.467-155.215c34.124-69.922,66.895-91.844,34.687-117.896
				c-18.24-14.75-41.519-27.83-66.95-8.326c-0.931,0.709-4.785,3.387-10.948,7.576c1.479,4.23,2.858,8.416,4.027,12.42
				C4470.448,4828.861,4468.704,4851.557,4465.804,4871.111z"/>
			<path id="_x31_80611369" fill="#90CBED" stroke="#000000" d="M4187.75,4945.375c-5.538-32.365-18.694-65.598-19.383-98.479
				c-0.408-19.08-4.885-38.463-7.316-57.584c-3.699-29.494-7.55-58.963-11.248-88.453c-5.649-45.135-11.845-90.215-17.186-135.393
				c-2.795-23.611-6.577-47.23-10.121-70.738c-2.894-19.191-3.891-39.613-7.775-59.139c48.479-7.59,95.367-24.379,143.103-34.734
				c22.355-4.854,44.887-8.486,66.926-14.686c25.32-7.127,104.941-31.057,106.045-31.396c1.313-0.393,6.869,50.383,7.336,53.09
				c2.32,13.729,5.581,28.076,9.816,41.357c11.604,36.43,24.943,65.33,22.802,104.193c-2.028,36.859-8.031,73.658-5.173,110.678
				c1.305,16.701,0.851,31.969,5.747,47.877c4.465,14.533,9.283,30.15,14.879,45.648c-22.652,16.207-44.377,24.639-61.468,38.996
				c-21.725,18.254-47.932,33.201-71.578,48.762c-32.913,21.654-62.824,44.953-97.706,63.512
				C4250.641,4911.439,4187.17,4941.996,4187.75,4945.375z"/>
			<path id="_x31_80611362" fill="#A2B1D8" stroke="#000000" d="M5236.348,5642.766c-72.178,24.465-153.635,26.523-227.748,9.486
				c-83.256-19.148-156.164-66.477-220.605-121.082c-36.781-31.172-119.536-139.1-158.388-50.289
				c-38.199,87.273,126.838,269.309,200.155,305.023c128.479,62.576,278.864,55.984,415.238,27.322
				c117.279-24.646,324.883-88.275,416.93-171.162c14.109-12.707,26.021-26.191,35.156-40.203
				c41.413-63.494-50.465-175.859-109.829-191.512c-58.699-15.48-127.097,45.832-169.763,79.002
				C5354.276,5538.482,5316.023,5615.76,5236.348,5642.766z"/>
			<path id="_x31_80611441" fill="#CCCCCC" stroke="#000000" d="M5113.685,2934.42c-62.295,34.115-113.854,101.27-142.782,162.164
				c-5.768,12.211-10.134,62.936-29.509,62.887c-2.409-0.008-5.073-0.761-8.063-2.598c-29.148-17.869-28.975-90.727-28.565-119.834
				c0.214-20.127,1.35-40.998,4.637-60.869c2.281-13.717,5.145-28.182,8.422-43.061c8.65-34.745,18.288-64.162,22.738-82.45
				c0.086-0.417,0.169-0.829,0.337-1.247c41.391-124.735,117.964-251.713,243.571-259.474c2.825-0.162,5.735-0.235,8.646-0.23
				c0.166,0,0.334,0.002,0.498,0.086c45.066,5.682,95.736,30.342,127.923,64.269c15.183,16.006,34.486,47.156,56.444,78.399
				c18.285,38.636,25.754,80.404,15.428,118.888c-24.255,90.847-125.48,59.575-198.667,60.229
				C5166.465,2911.846,5139.166,2920.346,5113.685,2934.42z"/>
			<path id="_x31_80611442" fill="#CCCCCC" stroke="#000000" d="M5225.136,4420.908c11.257-27.047,39.696-81.609,59.062-96.613
				c102.638-79.576,182.804,104.547,195.003,180.68c9.219,57.568-22.042,127.775-40.645,182.873
				c-21.865,64.783-95.805,125.016-166.531,66.713C5190.467,4687.33,5187.342,4511.781,5225.136,4420.908z"/>
			<path id="_x31_80611443" fill="#CCCCCC" stroke="#000000" d="M6556.441,5227.521c-49.16,47.246-104.698,88.006-159.664,127.951
				c-6.104,4.43-93.297,78.678-89.556,83.186c-24.923-23.895-2.562-73.844,9.215-97.889c15.706-32.08,39.239-59.627,61.177-87.563
				c51.858-66.006,109.225-132.377,173.465-186.801c51.246-43.416,93.975-89.959,166.046-95.369
				c129.262-9.717-9.119,110.047-39.487,140.096C6637.83,5150.539,6596.82,5188.717,6556.441,5227.521z"/>
			<path id="_x31_80611440" fill="#AAAAAA" stroke="#000000" d="M4963.066,3885.639c27.503,10.703,57.43,24.697,78.528,45.957
				c35.527,35.793-20.862,78.113-49.523,92.266c-41.343,20.408-89.108,59.002-115.13,97.039
				c-9.406,13.768-15.727,38.662-29.285,48.855c-7.147,5.361-15.46,8.971-19.101-1.742c-3.608-10.576,13.49-26.561,18.564-34.029
				c12.246-17.984,17.53-53.242,19.42-74.943c1.111-12.529,1.987-26.533,1.479-39.1c-1.075-26.504-4.848-42.467,1.957-69.033
				c5.855-22.861,15.357-45.785,34.521-60.676C4920.927,3877.457,4944.092,3878.26,4963.066,3885.639z"/>
		</g>
	</g>
	<g transform="scale(1.0)">
		<g id="_x31_80611356_1_" transform=" scale(1.0, 1.0)">
			<path id="_x31_80611358_1_" fill="#BFDAE3" stroke="#000000" d="M4089.071,3832.434c4.45,228.449-1.009,421.531-28.336,635.902
				c-17.098,134.115-33.803,271.186-51.785,403.504c-17.514,128.887-92.47,239.254-78.962,374.305
				c10.593,105.951-13.919,205.326-44.413,307.26c-40.779,136.291-108.503,263.076-193.032,377.072
				c-191.103,257.719-536.896,480.113-867.065,381.924c-245.482-73.018-489.961-267.346-659.027-457.406
				c-85.334-95.943-184.342-225.047-242.546-339.717c-67.257-132.502-195.541-188.035-298.175-286.678
				c-92.984-89.355-185.541-171.957-263.489-275.955c-74.083-98.842-146.249-201.439-197.18-314.463
				c-37.261-82.695-70.346-253.943-65.028-348.207c-150.176-193.699-234.097-426.965-287.355-620.139
				c-111.419-404.136-136.388-865.148-21.675-1271.405c80.328-284.479,283.721-526.731,482.691-737.04
				c115.921-122.528,227.088-256.271,364.008-355.241c160.99-116.364,337.687-209.243,519.334-288.802
				c171.049-74.915,340.088-166.763,525.157-200.796c374.981-68.943,874.265-176.856,1198.5,92.8
				c47.09,39.167,175.895,201.793,202.551,355.052C4095.896,1337.148,4084.648,3605.086,4089.071,3832.434z"/>
			<path id="_x31_80611359_1_" fill="#B0FFB8" stroke="#000000" d="M812.683,3669.869
				c53.259,193.174,137.177,426.443,287.362,620.143c-5.323,94.27,27.757,265.512,65.027,348.211
				c50.926,113.025,123.088,215.619,197.175,314.465c77.95,103.994,170.505,186.604,263.489,275.963
				c102.637,98.645,230.915,154.178,298.176,286.68c35.188,69.311,93.186,153.934,146.146,223.287l1.732-9.207
				c9.099-39.365,85.715-147.35,98.569-165.541c45.166-63.959,103.63-109.822,161.323-163.826
				c28.859-27.018,64.199-70.826,99.712-89.756c45.093-24.055,73.387-41.477,124.85-39.402c16.884,0.68,34.509,6.83,51.546,7.84
				c21.138,1.258,44.225-3.457,65.135-6.289c62.355-8.473,131.51-71.715,153.558-125.127
				c48.013-116.355,10.407-236.955,61.88-347.152c8.291-17.736,19.109-33.867,29.897-50.141
				c10.198-15.385,22.287-29.557,30.78-46.031c23.93-46.398,30.879-92.273,30.753-144.184c-0.05-16.383-2.757-34.297,1.469-50.258
				c8.558-32.428,28.809-60.592,34.485-94.037c4.162-24.473-0.965-57.354-4.015-81.875c-9.859-79.369-19.936-183.91,36.036-249.451
				c43.559-50.971,128.324-66.426,187.66-31.576c-15.446-11.395-31.403-21.283-46.507-28.738
				c-28.662-14.152-85.051-56.473-49.525-92.268c21.102-21.26,51.025-35.254,78.528-45.957c18.974-7.381,42.14-8.182,58.569,4.59
				c19.161,14.893,28.665,37.816,34.519,60.676c6.805,26.568,3.033,42.529,1.959,69.033c-0.508,12.568,0.366,26.57,1.478,39.102
				c1.892,21.697,7.176,56.959,19.422,74.943c5.072,7.469,22.171,23.451,18.564,34.027c-3.641,10.715-11.953,7.104-19.103,1.746
				c-13.557-10.197-19.878-35.092-29.283-48.859c-7.726-11.299-17.386-22.637-28.212-33.543
				c41.984,50.861,48.862,121.826,74.091,181.072c13.153,30.889,58.177,68.34,79.243,95.447
				c67.671,87.068,35.676,132.982,73.347,234.777c11.338,30.631,20.262,57.082,33.462,81.006
				c10.323,18.688,16.988,67.654,70.906,87.15c52.888,19.135,80.662-45.83,83.027-58.414c7.058-37.623,3.89-112.279-0.453-187.115
				c-1.423-24.621,18.425-57.92,26.113-80.943c11.872-35.586,18.208-74.74,12.875-112.213c24.771,1.146,57.022,14.598,81.242,20.273
				c40.677,9.531,76.802,19.131,113.385,28.545c23.155,5.965,47.493,11.709,87.581,23.201c19.181,5.498,56.593,13.795,56.593,13.795
				s15.421-176.639,16.364-193.09c4.574-80.428,6.666-162.889,6.816-243.441c0.094-48.318-0.434-96.645-1.367-144.951
				c-4.421-227.355,6.824-2495.317-5.83-2568.059c-26.658-153.262-155.461-315.891-202.558-355.057
				c-324.229-269.652-823.511-161.738-1198.49-92.792c-185.07,34.031-354.107,125.877-525.157,200.797
				c-181.649,79.56-358.338,172.443-519.332,288.807c-136.92,98.969-248.089,232.715-364.006,355.245
				c-198.965,210.309-402.358,452.567-482.688,737.047C676.29,2804.708,701.261,3265.722,812.683,3669.869z M2803.02,2732.462
				c21.958-31.243,41.263-62.395,56.444-78.401c32.187-33.929,82.856-58.587,127.923-64.269c0.164-0.085,0.332-0.085,0.498-0.086
				c2.91-0.005,5.823,0.07,8.65,0.23c125.604,7.761,202.177,134.738,243.567,259.474c0.168,0.418,0.251,0.832,0.337,1.247
				c4.45,18.288,14.088,47.705,22.738,82.449c3.278,14.881,6.141,29.345,8.422,43.062c3.289,19.869,4.423,40.742,4.637,60.869
				c0.407,29.107,0.583,101.963-28.565,119.832c-2.989,1.839-5.651,2.593-8.063,2.598c-19.377,0.049-23.741-50.676-29.509-62.887
				c-28.927-60.893-80.486-128.047-142.781-162.162c-25.482-14.074-52.783-22.572-81.063-22.838
				c-73.189-0.652-174.411,30.617-198.67-60.229C2777.262,2812.871,2784.732,2771.102,2803.02,2732.462z"/>
			<path id="_x31_80611414_1_" fill="#1F9D5A" stroke="#000000" d="M1637.672,1306.135
				c160.977-116.332,337.733-209.249,519.348-288.782c171.058-74.938,340.081-166.756,525.13-200.806
				c8.227-1.517,16.459-3.033,24.771-4.55l26.643,145.897c-97.989,28.348-193.216,62.764-281.359,103.068
				c-134.416,61.542-266.968,136.218-398.878,202.658c-216.305,108.982-461.207,257.122-629.096,438.341l-107.311-78.166
				l-4.336-4.066C1414.942,1509.28,1516.132,1394.01,1637.672,1306.135z"/>
			<path id="_x31_80611413_1_" fill="#1F9D5A" stroke="#000000" d="M2053.326,1263.616
				c131.91-66.44,264.462-141.116,398.876-202.658c88.146-40.304,183.374-74.719,281.359-103.067l64.741,354.806
				c-83.93,30.893-159.785,62.852-217.77,88.942c-250.061,112.64-505.545,219.055-717.039,389.904
				c-39.595,31.948-87.469,77.809-137.322,130.411l-27.493-19.978L1424.23,1701.96
				C1592.121,1520.738,1837.021,1372.6,2053.326,1263.616z"/>
			<path id="_x31_80611412_1_" fill="#1F9D5A" stroke="#000000" d="M1863.492,1791.541
				c211.494-170.848,466.979-277.263,717.039-389.902c57.988-26.092,133.844-58.049,217.77-88.941l96.435,527.721
				c-80.941,27.393-151.064,55.843-190.94,73.821c-197.394,88.974-364.435,207.899-513.385,345.908l-464.238-338.194
				C1776.025,1869.352,1823.899,1823.49,1863.492,1791.541z"/>
			<path id="_x31_80611411_1_" fill="#1F9D5A" stroke="#000000" d="M2703.795,1914.24c39.876-17.979,109.999-46.427,190.939-73.821
				l103.261,565.549c-14.803,0.203-30.187,1.236-46.067,3.188c-85.47,10.606-234.241,86.57-302.696,185.293l-458.823-334.301
				C2339.357,2122.14,2506.401,2003.214,2703.795,1914.24z"/>
			<path id="_x31_80611410_1_" fill="#1F9D5A" stroke="#000000" d="M2951.926,2409.159c15.883-1.956,31.265-2.989,46.068-3.191
				l33.886,185.301c-13.315-3.13-28.287-3.507-43.999-1.557c-0.166,0.003-0.332,0.001-0.498,0.086
				c-63.044,1.318-134.93,55.556-174.436,123.683l-1.833-1.075l-161.881-117.954
				C2717.687,2495.727,2866.458,2419.763,2951.926,2409.159z"/>
			<path id="_x31_80611419_1_" fill="#1F9D5A" stroke="#000000" d="M3880.666,909.345c12.167,10.117,29.845,28.621,49.866,53.024
				l-0.915,0.751l-76.149,149.225c-54.197-56.339-129.355-115.208-181.661-145.851C3530.216,883.67,3266.252,853.377,3052.756,887
				c-105.749,16.639-214.06,40.275-319.192,70.891l-26.641-145.896C3078.853,743.054,3563.565,645.56,3880.666,909.345z"/>
			<path id="_x31_80611418_1_" fill="#1F9D5A" stroke="#000000" d="M3052.754,886.999c213.496-33.622,477.462-3.329,619.05,79.494
				c52.305,30.645,127.466,89.516,181.663,145.852l-205.03,401.625c-16.793-168.711-69.112-271.879-247.768-310.448
				c-153.941-33.226-401.036,34.912-602.366,109.175l-64.741-354.806C2838.692,927.276,2947.003,903.641,3052.754,886.999z"/>
			<path id="_x31_80611417_1_" fill="#1F9D5A" stroke="#000000" d="M3400.671,1203.524
				c178.657,38.569,230.973,141.736,247.768,310.446l-212.726,416.781c-30.004-94.991-83.08-169.297-186.205-167.548
				c-103.376,1.75-240.014,38.431-354.772,77.217l-96.433-527.722C2999.635,1238.435,3246.728,1170.297,3400.671,1203.524z"/>
			<path id="_x31_80611416_1_" fill="#1F9D5A" stroke="#000000" d="M2997.993,2405.968l-103.261-565.549
				c114.762-38.787,251.399-75.467,354.773-77.216c103.124-1.749,156.2,72.558,186.205,167.547l-265.781,520.708
				c-5.579-3.649-11.242-6.962-16.99-10.024C3108.971,2417.672,3057.625,2404.99,2997.993,2405.968z"/>
			<path id="_x31_80611415_1_" fill="#1F9D5A" stroke="#000000" d="M2997.994,2405.968l33.887,185.301
				c19.139,4.444,37.291,12.552,54.367,23.488l1.821-2.834l81.86-160.464c-5.579-3.649-11.242-6.962-16.99-10.024
				C3108.971,2417.672,3057.625,2404.99,2997.994,2405.968z"/>
			<path id="_x31_80611409_1_" fill="#188064" stroke="#000000" d="M1273.686,1661.407c13.026-13.754,26.044-27.674,38.902-41.679
				l4.334,4.063l107.313,78.17c-9.127,9.835-18.08,19.754-26.707,29.838c-184.111,213.613-351.576,400.238-464.205,663.246
				c-79.307,185.328-99.871,380.99-93.811,580.582c1.533,49.814,6.471,95.795,14.146,139.273l-129.06,7.384l-3.661,0.177
				c-15.154-245.313,5.033-493.454,70.091-723.994C871.336,2114,1074.76,1871.728,1273.686,1661.407z"/>
			<path id="_x31_80611408_1_" fill="#188064" stroke="#000000" d="M1397.522,1731.803c8.628-10.085,17.585-20.005,26.708-29.842
				l274.445,200.017l-5.389,7.415c-53.492-40.041-234.68,144.623-291.92,238.16c-75.714,123.692-212.493,375.446-253.708,527.331
				c-34.78,128.165-40.056,283.372-28.235,424.728L853.658,3114.9c-7.678-43.479-12.615-89.457-14.146-139.274
				c-6.063-199.59,14.504-395.252,93.809-580.581C1045.951,2132.037,1213.412,1945.412,1397.522,1731.803z"/>
			<path id="_x31_80611407_1_" fill="#188064" stroke="#000000" d="M1698.677,1901.975l27.495,19.977
				c-99.712,105.451-206.84,238.368-269.049,342.565c-110.574,185.32-177.688,322.466-227.407,532.838
				c-20.411,86.461-25.814,191.518-19.155,297.042l-91.137,5.214c-11.824-141.357-6.547-296.563,28.233-424.729
				c41.217-151.885,177.996-403.64,253.708-527.331c57.24-93.538,238.43-278.201,291.92-238.16L1698.677,1901.975z"/>
			<path id="_x31_80611406_1_" fill="#188064" stroke="#000000" d="M1457.119,2264.52
				c62.209-104.197,169.337-237.112,269.051-342.565l464.236,338.194c-70.451,65.294-136.897,134.819-200.51,207.499
				c-133.691,152.691-298.054,383.304-304.278,592.657c-0.08,2.329-0.157,4.574-0.15,6.82l-474.907,27.274
				c-6.657-105.524-1.258-210.581,19.153-297.042C1279.434,2586.985,1346.547,2449.84,1457.119,2264.52z"/>
			<path id="_x31_80611405_1_" fill="#188064" stroke="#000000" d="M1989.896,2467.649c63.61-72.679,130.057-142.206,200.51-207.499
				l458.823,334.3c-36.882,53.152-50.458,112.817-18.209,172.455c58.566,108.223,122.017,36.793,171.993-34.438
				c-18.285,38.634-25.754,80.403-15.43,118.887l-114.922,144.08l-97.995-10.573c-10.342-46.716-115.417-94.364-192.94-132.767
				c-170.035-84.333-331.867-113.631-465.537,84.309c-21.297,31.489-57.777,78.151-77.461,123.277l-2.666-1.155l-150.591,8.599
				c-0.009-2.246,0.07-4.492,0.148-6.818C1691.845,2850.952,1856.205,2620.338,1989.896,2467.649z"/>
			<path id="_x31_80611404_1_" fill="#188064" stroke="#000000" d="M2811.114,2712.403l1.833,1.077
				c-3.562,6.244-6.953,12.575-9.93,18.986c-49.979,71.231-113.429,142.66-171.993,34.438
				c-32.251-59.636-18.672-119.303,18.209-172.453L2811.114,2712.403z"/>
			<path id="_x31_80611403_1_" fill="#009C75" stroke="#000000" d="M853.658,3114.9c25.297,144.736,80.562,263.2,140.809,412.843
				c15.815,39.378,29.136,78.771,40.044,118.58l-196.763,107.355c-8.882-27.672-17.266-55.6-25.074-83.773
				c-48.161-174.869-80.218-360.343-91.736-547.443l3.661-0.177L853.658,3114.9z"/>
			<path id="_x31_80611402_1_" fill="#009C75" stroke="#000000" d="M1132.333,3209.946
				c12.171,80.313,41.358,349.044,140.884,306.131l-238.706,130.244c-10.908-39.809-24.227-79.201-40.044-118.58
				c-60.245-149.643-115.508-268.105-140.809-412.841l265.766-15.288C1122.596,3137.614,1126.925,3174.696,1132.333,3209.946z"/>
			<path id="_x31_80611401_1_" fill="#009C75" stroke="#000000" d="M1273.219,3516.081
				c-99.525,42.914-128.711-225.82-140.884-306.133c-5.41-35.25-9.735-72.334-12.909-110.334l91.139-5.215
				c7.7,121.991,31.456,244.524,66.701,339.666c8.371,22.686,17.655,44.201,27.685,64.725l-19.188,10.439L1273.219,3516.081z"/>
			<path id="_x31_80611400_1_" fill="#009C75" stroke="#000000" d="M1755.367,3253.084l-450.419,245.703
				c-10.029-20.521-19.313-42.037-27.685-64.725c-35.247-95.138-59.003-217.673-66.703-339.664l474.911-27.275
				C1685.227,3136.491,1712.24,3200.048,1755.367,3253.084z"/>
			<path id="_x31_80611399_1_" fill="#009C75" stroke="#000000" d="M1836.064,3058.522l2.666,1.156
				c-22.412,51.373-23.208,100.692,44.794,123.48l-128.157,69.926c-43.127-53.037-70.141-116.596-69.896-185.961L1836.064,3058.522z
				"/>
			<path id="_x31_80611424_1_" fill="#40A666" stroke="#000000" d="M3930.528,962.368
				c57.141,69.808,132.947,188.471,152.684,302.034c1.939,11.14,3.34,74.012,4.333,173.146l-110.608,138.496
				c0.961-49.987,0.579-104.628-4.046-158.844c-7.623-90.633-26.804-180.326-70.546-246.091
				c-12.187-18.269-29.119-38.354-48.878-58.764l76.147-149.226L3930.528,962.368z"/>
			<path id="_x31_80611423_1_" fill="#40A666" stroke="#000000" d="M3902.343,1171.106c43.74,65.765,62.924,155.459,70.547,246.093
				l4.084,79.563l-0.037,79.279c-32.124,40.219,0,0-74.54,93.332l-216.74,271.329c-14.423-115.488-26.595-231.145-31.786-347.57
				c-1.23-27.857-2.962-54.219-5.434-79.164l205.028-401.625C3873.224,1132.754,3890.156,1152.839,3902.343,1171.106z"/>
			<path id="_x31_80611422_1_" fill="#40A666" stroke="#000000" d="M3653.87,1593.133c5.191,116.425,17.365,232.082,31.784,347.57
				l-205.128,256.829c-9.427-78.822-17.742-181.183-44.815-266.781l212.726-416.781
				C3650.908,1538.914,3652.642,1565.275,3653.87,1593.133z"/>
			<path id="_x31_80611421_1_" fill="#40A666" stroke="#000000" d="M3480.527,2197.532l-246.338,308.41
				c-19.182-21.244-40.599-39.655-64.258-54.486l265.781-520.706C3462.786,2016.349,3471.102,2118.709,3480.527,2197.532z"/>
			<path id="_x31_80611420_1_" fill="#40A666" stroke="#000000" d="M3169.932,2451.457c23.659,14.83,45.076,33.241,64.258,54.485
				l-104.472,130.831l-5.387,8.081c-12.002-11.363-24.671-21.562-38.081-30.097l1.821-2.833L3169.932,2451.457z"/>
			<path id="_x31_80611430_1_" fill="#2FA850" stroke="#000000" d="M3975.562,1625.615c0.542-15.887,1.002-32.439,1.375-49.573
				l110.608-138.498c2.362,251.251,2.128,735.961,1.528,1205.452l-103.682,10.481c-2.949-83.41-6.553-162.496-10.624-229.438
				c-7.711-125.815-7.54-260.3-3.769-385.396C3975.156,1902.236,3970.9,1761.941,3975.562,1625.615z"/>
			<path id="_x31_80611429_1_" fill="#2FA850" stroke="#000000" d="M3914.855,2411.71c8.663-97.496-1.306-195.108,0.116-292.754
				c1.565-109.622-12.199-296.219-12.572-449.582l74.539-93.332c-0.373,17.135-0.831,33.687-1.375,49.574
				c-4.657,136.323-0.403,276.621-4.563,413.027c-3.769,125.098-3.941,259.58,3.77,385.396
				c4.071,66.94,7.676,146.025,10.624,229.438l-192.822,19.518l-0.172-1.83C3821.173,2669.682,3910.73,2458.129,3914.855,2411.71z"
				/>
			<path id="_x31_80611428_1_" fill="#2FA850" stroke="#000000" d="M3914.971,2118.954c-1.423,97.643,8.543,195.257-0.114,292.754
				c-4.128,46.421-93.686,257.971-122.458,259.456l0.172,1.83l-5.654,0.596c-14.231-106.336-36.282-212.408-47.502-313.014
				c-15.479-140.186-36.28-279.857-53.756-419.873l216.74-271.329C3902.771,1822.737,3916.536,2009.335,3914.971,2118.954z"/>
			<path id="_x31_80611427_1_" fill="#2FA850" stroke="#000000" d="M3739.416,2360.575
				c11.219,100.606,33.268,206.677,47.502,313.014l-238.216,24.12c-1.02-7.482-2.036-14.965-3.053-22.447
				c-19.81-142.837-28.277-272.892-55.82-414.212c-3.536-18.29-6.497-39.823-9.302-63.519l205.131-256.829
				C3703.135,2080.716,3723.935,2220.39,3739.416,2360.575z"/>
			<path id="_x31_80611426_1_" fill="#2FA850" stroke="#000000" d="M3489.829,2261.049c27.543,141.32,36.01,271.376,55.82,414.212
				c1.021,7.482,2.035,14.965,3.053,22.447l-205.959,20.88c-4.615-16.955-9.813-33.328-15.423-49.032
				c-23.113-64.316-53.688-120.13-93.131-163.616l246.338-308.41C3483.33,2221.226,3486.291,2242.76,3489.829,2261.049z"/>
			<path id="_x31_80611425_1_" fill="#2FA850" stroke="#000000" d="M3234.184,2505.939c39.441,43.485,70.02,99.3,93.131,163.617
				c5.613,15.703,10.81,32.077,15.423,49.031l-149.002,15.088l-1.161,0.667c-18.621-32.475-41.652-64.022-68.243-89.49l5.385-8.081
				L3234.184,2505.939z"/>
			<path id="_x31_80611435_1_" fill="#59B363" stroke="#000000" d="M3993.234,3175.263c1.569-140.394-1.582-341.155-7.843-521.783
				l103.681-10.482c-0.445,329.601-1.069,651.716-1.092,880.349l-0.265-74.605c0,0-141.089,19.893-216.709,11.508
				C3884.741,3362.907,3991.995,3281.389,3993.234,3175.263z"/>
			<path id="_x31_80611434_1_" fill="#59B363" stroke="#000000" d="M3763.527,3073.445c47.178-126.198,41.771-263.165,23.39-399.851
				l5.653-0.598l192.823-19.518c6.259,180.63,9.41,381.391,7.843,521.785c-1.239,106.125-108.493,187.645-122.229,284.984
				c-1.495-0.162-2.993-0.324-4.411-0.488c-47.835-6.199-101.636-2.08-148.937,5.938c-3.16,0.508-6.396,1.098-9.558,1.773
				c-13.746-43.633-25.084-87.186-22.285-132.522C3691.18,3247.942,3733.117,3154.69,3763.527,3073.445z"/>
			<path id="_x31_80611433_1_" fill="#59B363" stroke="#000000" d="M3548.7,2697.71l238.216-24.12
				c18.381,136.685,23.787,273.652-23.391,399.852c-30.406,81.248-72.346,174.5-77.709,261.507
				c-2.799,45.337,8.539,88.888,22.285,132.522c-76.15,14.4-147.344,46.848-215.871,82.691
				c-6.636-26.347-11.111-54.113-14.596-84.462c-10.197-89.049,33.061-153.193,54.975-237.912
				C3575.948,3060.426,3571.076,2870.979,3548.7,2697.71z"/>
			<path id="_x31_80611432_1_" fill="#59B363" stroke="#000000" d="M3239.604,3159.473c2.411-0.005,5.071-0.76,8.062-2.598
				c29.148-17.867,28.974-90.725,28.564-119.834c-0.212-20.128-1.348-41.001-4.637-60.87c-2.279-13.717-5.143-28.182-8.422-43.06
				c6.636,27.096,12.616,57.356,15.102,87.955c5.918,73.84-6.199,149.885,32.603,170.416
				c91.687,48.682,76.121-194.135,73.305-224.734c-7.344-78.247-19.375-168.788-41.443-248.161l205.959-20.88
				c22.376,173.269,27.248,362.716-16.09,530.078c-21.915,84.72-65.173,148.865-54.974,237.914
				c3.485,30.35,7.959,58.117,14.598,84.46c-10.553,5.516-21.101,11.115-31.568,16.713
				c-25.496,13.785-103.823,54.896-117.113,62.664c-6.726,3.924-13.617,7.77-20.263,11.775
				c-19.847,11.859-40.86,22.641-60.463,35.164c-28.232,18.115-53.956,40.719-69.103,71.195
				c-5.463,11.074-18.199,40.295-21.299,64.592l-1.082-0.082l59.47-646.118L3239.604,3159.473z"/>
			<path id="_x31_80611431_1_" fill="#59B363" stroke="#000000" d="M3342.739,2718.59c22.07,79.375,34.102,169.915,41.443,248.158
				c2.82,30.601,18.384,273.417-73.303,224.737c-38.806-20.533-26.688-96.577-32.603-170.417
				c-2.488-30.602-8.468-60.861-15.102-87.956c-5.974-26.852-13.526-55.191-23.075-83.696
				c-8.315-33.496-24.554-75.042-47.524-115.072l1.163-0.668L3342.739,2718.59z"/>
			<path id="_x31_80611390_1_" fill="#248A5E" stroke="#000000" d="M1957.115,3893c126.059,23.063,255.814,29.066,363.287,2.023
				c84.856-21.418,151.926-74.229,232.363-104.033c61.903-23.025,167.192-24.527,222.127,27.732l-79.749,241.305l3.008,5.232
				c-143.677,82.77-284.979,187.574-435.513,253.648c-126.952,55.699-293.803,13.939-428.487-0.451
				c-63.726-6.75-127.126-17.404-189.864-30.477l0.74-3.58L1957.115,3893z"/>
			<path id="_x31_80611389_1_" fill="#248A5E" stroke="#000000" d="M2700.372,3307.414
				c77.788,44.972,139.737,107.196,162.571,194.966c2.353,9.145,4.869,18.537,7.306,28.094l-95.356,288.248
				c-54.933-52.26-160.224-50.758-222.128-27.734c-80.432,29.807-147.502,82.615-232.362,104.033
				c-107.475,27.043-237.227,21.037-363.287-2.021l478.334-599.904C2521.875,3264.356,2609.675,3254.991,2700.372,3307.414z"/>
			<path id="_x31_80611388_1_" fill="#248A5E" stroke="#000000" d="M2787.586,2851.354c24.259,90.845,125.479,59.574,198.668,60.229
				c28.281,0.262,55.582,8.762,81.063,22.838l-197.065,596.057c-2.436-9.557-4.957-18.955-7.304-28.094
				c-22.837-87.771-84.787-149.996-162.573-194.967c-90.699-52.426-178.501-43.061-264.925-14.322l237.215-297.66L2787.586,2851.354
				z"/>
			<path id="_x31_80611387_1_" fill="#248A5E" stroke="#000000" d="M2797.175,3848.359c3.759,7.391,6.354,15.039,7.956,22.936
				c5.05,25.688-0.619,53.146-10.455,77.619l-32.402,81.586c-10.884,5.35-21.681,11.031-32.478,16.967
				c-10.549,5.762-21.096,11.689-31.643,17.793l-3.008-5.232l79.749-241.305C2783.732,3827.186,2791.322,3836.982,2797.175,3848.359
				z"/>
			<path id="_x31_80611386_1_" fill="#248A5E" stroke="#000000" d="M2838.834,3846.18l-33.207,25.029l-0.498,0.088
				c-1.602-7.896-4.195-15.543-7.956-22.936c-5.851-11.379-13.442-21.176-22.278-29.639l95.356-288.246
				C2897.032,3633.623,2924.114,3756.232,2838.834,3846.18z"/>
			<path id="_x31_80611385_1_" fill="#248A5E" stroke="#000000" d="M2805.135,3871.299l0.498-0.086l33.205-25.029
				c85.276-89.949,58.196-212.557,31.415-315.705l197.064-596.057c62.294,34.113,113.854,101.27,142.782,162.163
				c5.766,12.21,10.132,62.935,29.509,62.886l-8.799,6.593l-59.468,646.118l-5.347,58.15l0.669,1.578
				c-33.898,14.553-67.617,32.85-99.116,43.572c-106.36,36.107-206.263,65.373-305.274,115.02l32.402-81.586
				C2804.512,3924.443,2810.183,3896.984,2805.135,3871.299z"/>
			<path id="_x31_80611398_1_" fill="#219866" stroke="#000000" d="M1063.122,3782.734
				c17.846,120.551,65.541,240.113,150.835,326.568l-146.793,136.176c-30.791-42.84-76.702-109.512-95.095-150.803
				c-50.006-112.406-96.859-224.654-134.319-341l196.763-107.354C1046.849,3691.037,1056.191,3736.258,1063.122,3782.734z"/>
			<path id="_x31_80611397_1_" fill="#219866" stroke="#000000" d="M1273.219,3516.079c4.071-1.672,8.227-3.928,12.543-6.85
				l19.188-10.439c61.016,124.849,152.046,209.958,273.704,272.369l-364.697,338.145
				c-85.294-86.453-132.989-206.018-150.835-326.568c-6.931-46.475-16.275-91.697-28.609-136.412L1273.219,3516.079z"/>
			<path id="_x31_80611396_1_" fill="#219866" stroke="#000000" d="M1982.271,3396.915l-403.617,374.244
				c-121.66-62.41-212.69-147.52-273.706-272.371l450.419-245.701C1811.76,3322.478,1895.722,3373.838,1982.271,3396.915z"/>
			<path id="_x31_80611395_1_" fill="#219866" stroke="#000000" d="M2268.224,3131.82l-285.952,265.097
				c-86.55-23.078-170.512-74.438-226.904-143.83l128.157-69.926C1970.844,3212.389,2128.6,3174.995,2268.224,3131.82z"/>
			<path id="_x31_80611394_1_" fill="#219866" stroke="#000000" d="M1312.773,4183.832c34.729,18.877,75.941,37.654,113.137,45.633
				l-2.209,14.395c-38.689-5.561-77.535-9.129-115.628-9.035c-85.248,0.211-210.785,51.58-210.785,51.58
				s-12.599-16.686-30.124-40.924l146.793-136.178C1242.553,4138.262,1275.385,4163.543,1312.773,4183.832z"/>
			<path id="_x31_80611393_1_" fill="#219866" stroke="#000000" d="M1658.75,3807.227c86.077,34.219,190.866,66.154,298.369,85.77
				l-312.09,391.406l-0.74,3.578c-10.982-2.219-21.967-4.604-32.951-6.99c-59.916-13.158-123.66-27.973-187.637-37.131l2.211-14.395
				c-37.197-7.979-78.411-26.758-113.136-45.631c-37.392-20.291-70.226-45.574-98.819-74.531l364.697-338.145
				C1604.052,3784.074,1630.691,3796.07,1658.75,3807.227z"/>
			<path id="_x31_80611392_1_" fill="#219866" stroke="#000000" d="M2137.23,3405.1c98.844-18.873,197.499-78.577,298.221-112.008
				l-478.334,599.904c-107.501-19.617-212.292-51.551-298.367-85.77c-28.059-11.156-54.698-23.152-80.096-36.068l403.617-374.244
				C2034.867,3410.924,2088.354,3414.454,2137.23,3405.1z"/>
			<path id="_x31_80611391_1_" fill="#219866" stroke="#000000" d="M2484.781,3059.766c72.632-23.547,95.771-49.14,89.891-74.907
				l97.994,10.574l-237.213,297.659c-100.724,33.431-199.379,93.135-298.219,112.01c-48.881,9.352-102.367,5.822-154.963-8.188
				l285.95-265.095C2354.234,3105.247,2433.425,3076.444,2484.781,3059.766z"/>
			<path id="_x31_80611360_1_" fill="#9AD2BD" stroke="#000000" d="M1099,4330.074c0,0,3.676,55.723,8.471,82.736
				c15.354,86.379,24.059,150.986,57.594,225.41c50.928,113.025,123.088,215.619,197.177,314.463
				c21.423,28.58,43.948,55.537,67.283,81.467c24.001,26.674,48.854,52.266,74.249,77.393c4.65,4.605,9.322,9.197,14.006,13.771
				c0.373,0.359,0.74,0.721,1.109,1.08c4.805,4.689,9.624,9.367,14.455,14.031c0.063,0.059,0.127,0.117,0.186,0.18
				c21.354,20.615,42.906,41.018,64.402,61.482c3.172,3.016,6.341,6.037,9.514,9.063c1.194,1.139,2.393,2.285,3.585,3.426
				c4.546,4.334,9.094,8.686,13.638,13.053c2.934,2.824,5.894,5.617,8.875,8.393c0.193,0.18,0.382,0.357,0.576,0.539
				c2.16,2.006,4.346,3.992,6.526,5.979c42.091,38.033,87.635,70.055,131.047,103.816c59.599,46.348,115.165,95.98,152.214,168.971
				c20.555,40.482,45.586,77.361,69.567,115.615c15.874,25.305,28.194,55.459,51.8,75.172
				c-4.098-3.414,66.184-118.717,72.703-129.486c23.438-38.713,47.214-54.785,76.822-89.029
				c54.33-62.85,105.53-98.168,158.588-150.477c11.438-11.279,22.971-23.348,34.635-36.654
				c14.852-11.682,28.52-27.377,45.895-34.607c23.076-9.602,47.241-12.289,71.557-17.373c38.347,4.672,86.275,3.346,127.438,8.156
				c82.975,9.703,172.241-68.076,189.288-145.875c20.566-93.893-5.88-253.291-49.287-334.125
				c-130.604-243.143-205.747-59.166-240.416,43.334c-14.343,30.92-37.658,67.949-76.215,43.551
				c-4.268-2.707-11.225-6.344-17.335-10.588c-4.146-5.854-8.703-11.494-13.564-17.006c-9.019-10.201-19.075-19.947-29.357-29.742
				c-55.413-52.781-118.873-97.652-169.727-155.145c-50.905-57.551-75.493-134.852-123.424-192.445
				c-76.392-91.781-217.315-108.951-345.214-124.24c-39.276-4.693-77.318-9.211-111.891-15.65
				c-11.176-2.086-21.989-4.371-32.359-6.928c-68.769-16.951-137.037-37.771-207.558-46.283
				c-69.415-8.375-140.361,7.707-209.663,16.229C1167.145,4285.309,1099,4330.074,1099,4330.074z"/>
			<path id="_x31_80611361_1_" fill="#9AD2BD" stroke="#000000" d="M3186.156,3848.156c6.455,2.074,14.235,0.281,22.411-3.393
				c-1.673,2.35-2.853,4.787-3.334,7.301c-0.248,1.275-0.319,2.57-0.195,3.885c10.263,0.98,22.944-4.133,33.938-5.176
				c65.605-6.234,97.281,57.563,101.16,113.943c1.524,23.207-20.71,109.436,8.682,130.051c13.366,19.02,22.9,33.295,13.048,57.375
				c-8.699,21.258-19.94,37.719-22.691,61.463c-8.53,73.461,77.047,122.145,110.551,180.346c10.36,17.996,20.845,39.66,25.21,60.023
				c4.231,19.693,2.745,40.133,6.495,59.93c11.232,59.404,29.312,112.898,54.572,167.826c9.633,20.926,16.303,45.922,32.981,62.604
				c20.385,20.379,55.76,32.447,82.435,18.939c13.395-6.775,22.785-18.389,29.34-32.541c16.043-34.668,15.025-84.564,13.793-115.92
				c-2.547-65.084-15.829-89.248,10.713-152.498c7.218-17.209,13.703-34.713,17.869-52.93c5.156-22.541,1.111-49.609,19.016-66.92
				c12.82-12.395,27.616-4.846,42.899-1.168c26.104,6.279,51.751,13.252,77.802,19.809c17.029,4.287,34.199,8.523,51.063,12.896
				c9.914,2.58,19.691,5.225,29.302,7.932c1.438,0.404,2.887,0.811,4.321,1.221c13.48,3.873,118.836,30.563,118.836,30.563
				s4.651-35.691,6.686-55.238c2.598-24.959,3.619-50.16,5.473-75.197c3.54-48.83,7.163-97.658,9.042-146.57
				c3.743-101.305,3.493-202.857,1.5-304.232c-0.754-38.168-2.301-76.775,0.564-114.832l0.786-10.467
				c-3.004-0.785-6.015-1.57-9.028-2.357c2.258,0.428,4.518,0.84,6.784,1.24c-0.119-50.234-0.191-112.027-0.197-182.72
				l-0.267-74.604c0,0-141.087,19.893-216.706,11.51c-1.496-0.164-2.995-0.326-4.411-0.49c-47.837-6.201-101.637-2.08-148.938,5.939
				c-3.159,0.506-6.397,1.096-9.559,1.771c-76.15,14.4-147.343,46.85-215.869,82.693c-10.553,5.514-21.101,11.113-31.566,16.713
				c-25.498,13.785-103.823,54.895-117.113,62.662c-6.726,3.924-13.617,7.77-20.263,11.777
				c-19.849,11.857-40.862,22.639-60.463,35.162c-28.232,18.115-53.958,40.719-69.103,71.195
				c-5.465,11.074-18.199,40.297-21.301,64.592C3170.302,3829.318,3172.916,3843.867,3186.156,3848.156z"/>
			<path id="_x31_80611374_1_" fill="#54BF94" stroke="#000000" d="M2438.44,5179.439c-24.737,86.592,101.978,66.391,194.473,77.201
				c82.975,9.705,172.239-68.076,189.288-145.875c20.568-93.893-5.881-253.291-49.287-334.123
				c-153.179-285.174-230.069,17.195-254.845,86.557C2503.115,4905.051,2444.932,5156.703,2438.44,5179.439z"/>
			<path id="_x31_80611375_1_" fill="#54BF94" stroke="#000000" d="M3694.545,4614.816c-2.547-65.082-15.825-89.248,10.711-152.496
				c39.203-93.412,32.297-175.541-27.325-253.658c-44.845-58.758-93.865-102.291-170.176-109.225
				c-86.597-7.883-159.23,33.455-168.586,114.172c-8.531,73.463,77.047,122.141,110.551,180.346
				c10.357,17.994,20.846,39.662,25.21,60.023c4.23,19.691,2.744,40.131,6.492,59.93c11.234,59.406,29.313,112.9,54.574,167.828
				c9.633,20.924,16.303,45.918,32.982,62.6c20.384,20.381,55.759,32.447,82.433,18.941c13.396-6.775,22.787-18.389,29.34-32.539
				C3696.792,4696.072,3695.773,4646.172,3694.545,4614.816z"/>
			<path id="_x31_80611377_1_" fill="#54BF94" stroke="#000000" d="M3694.545,4614.816c-2.547-65.082-15.825-89.248,10.711-152.496
				c39.203-93.412,32.297-175.541-27.325-253.658c-44.845-58.758-93.865-102.291-170.176-109.225
				c-86.597-7.883-159.23,33.455-168.586,114.172c-8.531,73.463,77.047,122.141,110.551,180.346
				c10.357,17.994,20.846,39.662,25.21,60.023c4.23,19.691,2.744,40.131,6.492,59.93c11.234,59.406,29.313,112.9,54.574,167.828
				c9.633,20.924,16.303,45.918,32.982,62.6c20.384,20.381,55.759,32.447,82.433,18.941c13.396-6.775,22.787-18.389,29.34-32.539
				C3696.792,4696.072,3695.773,4646.172,3694.545,4614.816z"/>
			<path id="_x31_80611376_1_" fill="#54BF94" stroke="#000000" d="M2438.44,5179.439c-24.737,86.592,101.978,66.391,194.473,77.201
				c82.975,9.705,172.239-68.076,189.288-145.875c20.568-93.893-5.881-253.291-49.287-334.123
				c-153.179-285.174-230.069,17.195-254.845,86.557C2503.115,4905.051,2444.932,5156.703,2438.44,5179.439z"/>
			<path id="_x31_80611384_1_" fill="#62D09F" stroke="#000000" d="M3943.216,4381.936c1.437,0.406,2.886,0.811,4.32,1.221
				c13.479,3.875,118.835,30.564,118.835,30.564s4.651-35.691,6.687-55.242c2.598-24.959,3.619-50.158,5.473-75.197
				c3.54-48.828,7.162-97.656,9.042-146.568c3.744-101.305,3.494-202.857,1.5-304.234c-0.756-38.166-2.3-76.773,0.564-114.83
				l0.786-10.467c-51.695-13.475-105.104-27.813-158.019-35.336c-5.91-0.844-11.899-1.607-17.957-2.373
				c27.799,171.764,39.469,343.613,48.693,526.393C3966.593,4264.17,3956.988,4338.969,3943.216,4381.936z"/>
			<path id="_x31_80611383_1_" fill="#62D09F" stroke="#000000" d="M3848.305,4319.836c4.854,15.875,9.714,29.58,14.546,41.273
				c17.024,4.287,34.195,8.523,51.058,12.895c9.915,2.582,19.693,5.223,29.303,7.934c13.777-42.969,23.382-117.768,19.93-186.072
				c-9.225-182.779-20.895-354.629-48.693-526.393c-0.424-0.051-0.839-0.105-1.261-0.156c-49.719-6.006-102.172-8.818-154.138-7.648
				C3808.258,3843.664,3794.161,4142.16,3848.305,4319.836z"/>
			<path id="_x31_80611382_1_" fill="#62D09F" stroke="#000000" d="M3548.916,3700.379
				c71.456,109.281,162.871,400.754,181.465,530.879c5.372,11.918,10.015,24.205,13.853,36.785
				c13.752,45.045,14.795,64.672,63.899,78.607c17.686,5.037,36.118,9.775,54.718,14.459c-4.838-11.693-9.698-25.396-14.548-41.275
				c-54.143-177.67-40.045-476.168-89.254-658.164c-3.77,0.084-7.537,0.186-11.301,0.316c-40.086,1.344-79.668,5.098-117.325,11.596
				c-19.286,3.291-37.486,8.824-55.101,15.604C3566.387,3692.629,3557.606,3696.408,3548.916,3700.379z"/>
			<path id="_x31_80611381_1_" fill="#62D09F" stroke="#000000" d="M3205.03,3855.951c10.263,0.982,22.942-4.129,33.939-5.176
				c65.604-6.232,97.279,57.564,101.157,113.943c1.734,26.363-27.198,134.053,23.703,134.51
				c23.452,0.195,52.508-21.668,75.946-27.131c127.569-29.672,240.751,48.479,290.607,159.164
				c-18.594-130.127-110.01-421.598-181.466-530.879c-42.607,19.49-82.99,43.83-128.619,58.383
				c-54.267,17.264-111.619,30.711-163.04,55.785c-13.152,6.4-48.681,20.182-52.031,37.514
				C3204.979,3853.34,3204.908,3854.639,3205.03,3855.951z"/>
			<path id="_x31_80611439_1_" fill="#A4DAA4" stroke="#000000" d="M4087.716,3448.741l0.265,74.605
				c0.003,70.689,0.075,132.484,0.195,182.718c-52.501-9.188-102.776-26.695-155.771-34.219c-6.324-0.898-12.729-1.717-19.218-2.529
				c-10.599-49.547-23.03-99.166-37.791-149.197c-6.121-20.775-7.088-40.652-4.389-59.871
				C3946.627,3468.633,4087.715,3448.739,4087.716,3448.741z"/>
			<path id="_x31_80611438_1_" fill="#A4DAA4" stroke="#000000" d="M3866.596,3459.758c1.418,0.164,2.916,0.328,4.411,0.49
				c-2.699,19.219-1.73,39.096,4.39,59.871c14.76,50.031,27.191,99.65,37.791,149.197c-53.33-6.441-109.805-9.219-165.436-7.332
				c5.236-68.463-19.704-131.527-39.65-194.515c3.159-0.676,6.397-1.266,9.559-1.773
				C3764.964,3457.678,3818.761,3453.557,3866.596,3459.758z"/>
			<path id="_x31_80611437_1_" fill="#A4DAA4" stroke="#000000" d="M3708.099,3467.471c19.947,62.988,44.888,126.052,39.649,194.515
				c-40.086,1.344-79.668,5.098-117.325,11.596c-19.286,3.291-37.486,8.824-55.101,15.604l-21.632-2.773
				c-31.3-45.584-49.782-88.623-61.458-136.252C3560.758,3514.319,3631.951,3481.87,3708.099,3467.471z"/>
			<path id="_x31_80611436_1_" fill="#A4DAA4" stroke="#000000" d="M3193.725,3747.672c15.146-30.475,40.87-53.08,69.103-71.195
				c19.599-12.523,40.616-23.307,60.463-35.164c6.646-4.006,13.537-7.852,20.263-11.775c13.29-7.768,91.613-48.881,117.113-62.662
				c10.468-5.6,21.018-11.199,31.568-16.713c11.676,47.627,30.16,90.666,61.458,136.25l21.632,2.773
				c-52.766,20.342-100.09,52.059-155.021,69.578c-54.268,17.264-111.619,30.711-163.042,55.785
				c-17.362,8.445-50.802,40.133-71.108,33.611c-13.236-4.291-15.851-18.842-13.729-35.896
				C3175.523,3787.969,3188.26,3758.746,3193.725,3747.672z"/>
			<path id="_x31_80611380_1_" fill="#6ACBBA" stroke="#000000" d="M1099.004,4330.074c0,0,3.676,55.721,8.473,82.736
				c15.352,86.381,24.058,150.984,57.592,225.408c50.926,113.027,123.088,215.621,197.177,314.467
				c21.423,28.578,43.948,55.537,67.283,81.465c0.002,0.002,0.002,0.004,0.004,0.004c-27.196-35.789-35.524-68.363,34.342-63.115
				c72.071,5.41,114.798,51.957,166.046,95.373c64.238,54.418,121.606,120.789,173.465,186.799
				c21.941,27.938,45.469,55.479,61.176,87.564c11.776,24.043,34.139,73.99,9.219,97.887c3.74-4.51-83.456-78.758-89.557-83.189
				c-4.178-3.035-8.355-6.072-12.537-9.125l0.007,0.006c59.595,46.348,115.163,95.98,152.21,168.971
				c20.557,40.482,45.588,77.361,69.572,115.615c15.871,25.305,28.191,55.461,51.795,75.17
				c-4.094-3.412,66.186-118.715,72.707-129.484c23.438-38.713,47.216-54.783,76.82-89.029
				c54.33-62.848,105.53-98.17,158.588-150.477c-43.173-4.975-90.272-23.67-123.871-45.652
				c-41.387-27.078-77.386-61.693-112.4-96.373c-27.979-27.699-48.093-61.238-66.066-95.967
				c-14.614-28.238-7.438-57.178-21.508-84.344c-26.139-50.463-93.159-66.072-141.584-85.555
				c-103.489-41.639-213.15-72.146-312.555-123.25c-96.381-49.547-182.193-123.986-189.772-239.145
				c-5.054-76.754,48.759-153.779,108.712-194.775c25.989-17.771,54.72-31.479,85.313-39.152
				c20.538-5.15,46.984-3.338,66.117-14.195c-11.176-2.086-21.989-4.371-32.359-6.928c-68.769-16.951-137.037-37.771-207.558-46.283
				c-69.415-8.375-140.361,7.707-209.663,16.229C1167.145,4285.309,1099.004,4330.074,1099.004,4330.074z"/>
			<path id="_x31_80611379_1_" fill="#6ACBBA" stroke="#000000" d="M2229.512,5291.465c33.601,21.984,80.7,40.676,123.871,45.652
				c13.146-12.961,26.405-26.959,39.852-42.68c16.709-19.527,21.814-55.84,24.563-92.354c-8.682-30.309-9.769-66.41-18.044-93.686
				c-13.344-43.965-35.286-88.199-68.094-120.951c-64.598-64.463-151.975-89.234-207.444-161.271
				c-28.471-36.977-51.873-82.266-85.609-112.559c-22.851-20.498-50.428-34.133-87.541-33.643
				c-33.444,0.447-67.317-19.984-89.246-43.973c-31.157-34.08-39.683-69.168-94.729-57.063
				c-53.028,11.662-100.723,47.85-135.014-14.762c-18.295-33.41-20.391-84.281,5.9-114.785
				c22.977-26.654,56.517-33.201,83.996-53.131c23.41-16.975,37.608-34.389,35.689-61.898c-39.276-4.691-77.316-9.211-111.889-15.65
				c-19.135,10.859-45.583,9.047-66.119,14.195c-30.591,7.672-59.323,21.379-85.314,39.148
				c-59.951,41-113.762,118.023-108.709,194.779c7.58,115.158,93.395,189.598,189.771,239.145
				c99.402,51.105,209.067,81.611,312.555,123.25c48.429,19.482,115.445,35.092,141.584,85.557
				c14.069,27.162,6.894,56.104,21.51,84.342c17.974,34.729,38.086,68.266,66.064,95.967
				C2152.13,5229.775,2188.127,5264.393,2229.512,5291.465z"/>
			<path id="_x31_80611378_1_" fill="#6ACBBA" stroke="#000000" d="M2399.765,5108.408c8.271,27.271,9.357,63.373,18.043,93.682
				c2.378-31.547,3.001-63.24,7.831-84.383c14.431-63.145,36.325-132.563,35.977-197.852c-0.175-34.516-15.479-60.43-36.229-83.918
				c-9.015-10.199-19.073-19.947-29.355-29.746c-55.413-52.775-118.875-97.648-169.727-155.139
				c-50.907-57.557-75.491-134.855-123.424-192.447c-76.392-91.783-217.317-108.951-345.214-124.24
				c1.919,27.508-12.281,44.92-35.691,61.896c-27.479,19.928-61.021,26.477-83.994,53.133c-26.291,30.5-24.195,81.375-5.9,114.785
				c34.287,62.609,81.983,26.422,135.012,14.76c55.049-12.105,63.575,22.984,94.729,57.064
				c21.929,23.986,55.804,44.416,89.246,43.971c37.111-0.49,64.69,13.145,87.541,33.645c33.738,30.293,57.141,75.582,85.609,112.557
				c55.47,72.039,142.847,96.809,207.444,161.273C2364.472,5020.201,2386.414,5064.436,2399.765,5108.408z"/>
			<path id="_x31_80611365_1_" fill="#8ADA87" stroke="#000000" d="M2484.783,3059.771c-51.355,16.675-130.547,45.478-216.56,72.053
				c-139.624,43.173-297.374,80.569-384.696,51.339c-68.005-22.79-67.209-72.109-44.795-123.48
				c19.682-45.125,56.162-91.789,77.461-123.279c133.668-197.938,295.5-168.641,465.537-84.307
				c77.521,38.4,182.599,86.049,192.94,132.765C2580.553,3010.628,2557.413,3036.219,2484.783,3059.771z"/>
			<path id="_x31_80611364_1_" fill="#A0EE9D" stroke="#000000" d="M2498.39,4237.906c34.628-20.795,82.294-49.686,113.169-75.795
				c106.486-89.834,175.717-143.314,282.39-156.633c90.958-11.365,126.783,48.26,93.852,118.287
				c-56.175,119.316-223.211,207.721-311.486,297.26c-43.8,44.348-61.217,100.199-73.71,159.779
				c-13.814,66.07-45.987,104.572-67.541,167.254c-9.415,27.551-21.224,95.695-65.241,87.488
				c-26.873-5.01-53.091-45.947-70.185-64.203c-41.942-44.809-84.631-88.035-136.023-121.094
				c-43.151-27.838-74.05-81.408-86.563-130.195c-24.687-96.17,12.292-108.65,92.939-153.262
				C2346.399,4324.521,2423.479,4283.002,2498.39,4237.906z"/>
			<path id="_x31_80611363_1_" fill="#80CDF8" stroke="#000000" d="M3116.346,5625.641
				c227.923-13.367,384.955-210.385,482.08-395.969c37.654-71.955,74.315-152.809,70.261-235.971
				c-3.33-68.469-41.882-143.186-83.004-196.594c-29.7-38.568-55.537-70.297-75.972-107.301
				c-13.201-23.928-24.162-50.045-32.438-81.645c-27.159-103.584-9.913-155.004-77.577-242.072
				c-21.074-27.107-58.065-54.852-71.222-85.738c-31.028-72.885-12.833-175.424-87.836-224.533
				c-59.479-38.961-148.018-24.121-192.858,28.354c-55.973,65.541-45.898,170.082-36.036,249.453
				c3.048,24.521,8.173,57.402,4.012,81.875c-4.123,24.229-16.865,45.629-26.39,67.947c-9.916,23.221-11.654,44.674-10.235,69.654
				c1.772,31.027-4.551,59.48-9.456,90.025c-6.245,38.92-27.456,70.969-49.022,102.67c-11.731,17.246-23.435,35.418-32.28,54.354
				c-51.473,110.197,3.899,248.744-46.652,364.023c-25.379,57.891-56.965,68.086-104.833,103.357
				c-132.65,97.848,5.294,150.875,71.621,222.875c39.701,43.1,79.309,87.91,134.322,111.574
				C2992.469,5623.334,3063.034,5628.773,3116.346,5625.641z"/>
			<path id="_x31_80611370_1_" fill="#80CDF8" stroke="#000000" d="M2942.982,6155.383c-37.488-22.867-94.143-87.473-130.128-8.473
				c-25.046,54.996,12.979,87.264,61.123,97.982c24.458,5.443,119.444,19.623,140.68,4.992
				C3095.328,6194.305,2964.272,6168.367,2942.982,6155.383z"/>
			<path id="_x31_80611371_1_" fill="#80CDF8" stroke="#000000" d="M2530.637,5927.557
				c-96.457-135.408-167.137,115.117-50.258,148.082C2581.813,6104.25,2568.884,5981.246,2530.637,5927.557z"/>
			<path id="_x31_80611372_1_" fill="#80CDF8" stroke="#000000" d="M3833.812,5691.719c9.207-20.438,17.839-41.137,25.836-62.09
				c8.953-26.441,17.479-53.232,25.935-76.191c26.064-87.158,47.69-172.436,46.811-261.559c-1.431-20.082-4.55-45.848-3.969-77.908
				c-0.007-5.068,0.105-10.1,0.32-15.109l-0.598-0.354c-10.267-15.453-25.281-17.658-45.542-6.125
				c-23.264,85.953-47.898,175.293-75.585,259.4c-14.347,43.592-107.245,215.939-51.25,255.373
				C3780.602,5724.643,3806.201,5695.127,3833.812,5691.719z"/>
			<path id="_x31_80611373_1_" fill="#80CDF8" stroke="#000000" d="M3439.844,6174.863l3.8,0.055
				c53.106-37.869,102.74-80.646,147.713-126.354l-10.448-5.037c-81.495-49.721-89.572,3.424-159.473,17.191
				c-21.885,4.311-43.359-22.125-63.089-0.025c-18.223,20.418,4.627,66.027,18.415,82.449
				C3393.521,6163.102,3412.943,6176.629,3439.844,6174.863z"/>
			<path id="_x31_80611368_1_" fill="#80CDF8" stroke="#000000" d="M2072.496,5741.729
				c41.494,50.465,84.339,103.162,129.149,151.715c28.651,30.441,59.11,60.773,91.075,90.48
				c31.589,28.863,62.253,54.543,96.606,82.773c24.362,20.01,48.685,39.152,73.171,57.398
				c79.037,57.449,162.826,107.838,248.188,145.682c35.246,15.016,71.826,28.381,110.32,39.83
				c19.08,5.668,38.055,11.574,57.685,15.895c47.947,10.564,101.398,12.043,150.3,9.357c68.4-3.758,135.564-21.254,200.254-44.311
				c75.382-28.17,147.636-68.025,214.399-115.633l-3.8-0.055c-26.898,1.766-46.323-11.762-63.08-31.717
				c-13.794-16.422-36.643-62.033-18.417-82.451c19.728-22.1,41.204,4.336,63.089,0.023c69.898-13.764,77.978-66.91,159.472-17.189
				l10.449,5.037c37.129-37.723,71.083-77.445,101.197-118.049c55.198-74.447,103.218-154.357,141.26-238.799
				c-27.612,3.41-53.214,32.926-78.048,15.438c-55.995-39.432,36.903-211.781,51.252-255.373
				c27.687-84.105,52.319-173.447,75.585-259.398c20.262-11.537,35.273-9.33,45.54,6.125l0.598,0.352
				c1.809-42.68,11.263-83.256,23.255-123.238c7.053-24.342,14.732-47.16,21.812-67.605c6.742-20.414,8.68-25.758,14.495-46.523
				c-13.648,1.443-120.351-66.506-197.803-117.445c2.301,30.477,15.984,53.557,23.37,83.426
				c36.294,147.02-65.791,296.949-37.855,440.598c10.569,54.342,8.778,108.99-6.229,162.322
				c-13.811,49.037-47.311,65.141-77.415,101.225c-36.972,44.291-50.313,102.043-82.175,150.195
				c-35.577,53.775-77.504,121.211-136.421,152.607c-32.705,17.422-61.517,25.432-89.957,50.98
				c-24.688,22.176-49.284,48.844-83.297,55.51c-46.495,9.117-92.211-24.072-140.348-12.697
				c-41.038,9.713-70.814,42.877-107.601,54.172c-56.941,17.486-112.407-0.381-157.55-35.51
				c-40.232-31.299-30.277-34.613-91.399-38.896c-35.251-2.475-71.332-5.518-101.869-24.84
				c-28.405-17.971-45.648-47.996-74.924-65.221c-24.943-14.672-51.71-23.666-79.207-32.896
				c-15.525-5.207-32.825-9.672-47.957-14.291c-53.213-16.234-93.849-41.236-135.939-77.072
				c-14.471-12.318-18.652-28.279-30.373-43.658c-12.453-16.338-28.063-34.076-42.666-48.49
				c-26.902-26.559-68.955-45.895-82.652-83.316c-13.635-37.258,2.479-74.074,12.643-110.059
				c-24.334,24.934-42.903,45.236-50.319,55.732C2155.635,5584.703,2057.308,5723.271,2072.496,5741.729z M2812.856,6146.912
				c35.985-78.998,92.638-14.391,130.128,8.471c21.288,12.984,152.342,38.922,71.673,94.504
				c-21.235,14.631-116.222,0.451-140.68-4.992C2825.835,6234.174,2787.809,6201.908,2812.856,6146.912z M2530.637,5927.557
				c38.247,53.689,51.177,176.693-50.258,148.082C2363.5,6042.674,2434.18,5792.148,2530.637,5927.557z"/>
			<path id="_x31_80611367_1_" fill="#80CDF8" stroke="#000000" d="M3813.87,4927.48c-7.383-29.871-21.068-52.951-23.37-83.426
				c-30.395-19.988-56.285-37.352-70.287-46.877c-1.477,4.234-2.855,8.418-4.029,12.42c-5.637,19.271-3.888,41.967-0.989,61.518
				c4.903,33.053,13.965,65.57,16.93,98.904c2.29,25.771,16.448,53.141,13.159,79.303c-5.271,41.939-0.246,58.898-29.355,93.574
				c-35.812,42.67-50.951,55.32-66.267,108.277c-22.669,78.463-9.374,146.602-16.739,224.422
				c-4.953,52.416-18.465,130.416-49.124,174.383c-34.659,49.719-105.055,80.121-148.737,123.146
				c-55.159,54.313-56.541,127.008-140.684,143.209c-51.711,9.945-89.443-25.461-152.629-13.762
				c-103.56,19.172-240.901-48.607-339.971-74c-52.121-13.359-112.705-11.18-162.697-35.334
				c-51.808-25.045-92.698-75.934-140.229-108.854c-33.94-23.494-93.466-34.611-129.058-55.822
				c-58.199-34.674-74.241-31.346-37.324-97.947c19.865-35.854,172.641-117.576,133.894-174.377
				c-18.317-26.699-70.795,10.621-87.728,21.65c-35.132,22.881-69.083,56.861-106.372,78.852
				c-18.588,18.107-36.235,35.67-51.577,51.398c-10.168,35.982-26.285,72.799-12.646,110.057
				c13.697,37.422,55.75,56.756,82.652,83.316c14.604,14.414,30.215,32.154,42.666,48.49c11.719,15.377,15.902,31.338,30.373,43.658
				c42.089,35.834,82.725,60.836,135.939,77.074c15.132,4.617,32.434,9.082,47.957,14.291c27.499,9.227,54.262,18.221,79.207,32.896
				c29.277,17.221,46.517,47.248,74.926,65.219c30.535,19.32,66.615,22.367,101.867,24.84c61.124,4.283,51.167,7.6,91.4,38.898
				c45.14,35.127,100.605,52.996,157.551,35.508c36.784-11.299,66.561-44.457,107.6-54.17
				c48.139-11.377,93.852,21.814,140.349,12.697c34.013-6.668,58.61-33.334,83.297-55.51c28.441-25.553,57.254-33.559,89.957-50.98
				c58.919-31.398,100.844-98.834,136.423-152.609c31.859-48.15,45.201-105.902,82.173-150.193
				c30.106-36.084,63.608-52.189,77.416-101.227c15.007-53.334,16.796-107.98,6.228-162.32
				C3748.084,5224.422,3850.169,5074.498,3813.87,4927.48z"/>
			<path id="_x31_80611366_1_" fill="#80CDF8" stroke="#000000" d="M3716.189,4809.59c1.169-4.004,2.549-8.189,4.027-12.418
				c-6.163-4.189-10.018-6.869-10.948-7.578c-25.432-19.502-48.71-6.424-66.95,8.328c-32.208,26.053,0.563,47.973,34.687,117.895
				c19.102,39.131,24.021,103.412,11.467,155.217c-26.069,107.496-88.232,194.971-121.319,267.824
				c-19.073,41.992-58.044,70.84-8.033,118.541c76.608,73.051-80.384,287.129-210.194,356.373
				c-58.751,31.344-147.714,38.838-213.744,41.832c-116.312,5.266-575.923-72.965-670.743-249.291
				c-21.877-40.684-22.351-72.025,15.175-128.885c42.706-64.689,196.82-105.498,147.634-182.008
				c-27.404-42.602-130.097-24.801-177.158,3.031c-25.306,14.967-108.199,90.445-177.823,158.283
				c37.287-21.988,71.242-55.969,106.372-78.852c16.932-11.029,69.41-48.344,87.729-21.646
				c38.746,56.799-114.028,138.521-133.895,174.373c-36.917,66.6-20.877,63.273,37.326,97.947
				c35.592,21.209,95.117,32.33,129.056,55.824c47.53,32.916,88.425,83.807,140.229,108.852
				c49.992,24.152,110.576,21.975,162.699,35.336c99.07,25.389,236.413,93.168,339.968,73.998
				c63.186-11.697,100.92,23.709,152.63,13.764c84.141-16.199,85.524-88.896,140.683-143.209
				c43.685-43.023,114.079-73.432,148.739-123.148c30.659-43.965,44.168-121.969,49.124-174.381
				c7.365-77.824-5.929-145.959,16.74-224.424c15.314-52.957,30.454-65.607,66.267-108.277
				c29.109-34.678,24.084-51.635,29.354-93.572c3.29-26.162-10.872-53.533-13.162-79.303c-2.963-33.332-12.024-65.85-16.928-98.904
				C3712.296,4851.557,3710.552,4828.861,3716.189,4809.59z"/>
			<path id="_x31_80611369_1_" fill="#90CBED" stroke="#000000" d="M3925.551,4908.885c-34.882-18.557-64.793-41.857-97.706-63.512
				c-23.646-15.561-49.854-30.508-71.578-48.76c-17.091-14.357-38.815-22.791-61.468-38.998
				c5.596-15.496,10.414-31.115,14.879-45.646c4.896-15.908,4.442-31.176,5.747-47.879c2.858-37.02-3.145-73.816-5.173-110.676
				c-2.142-38.865,11.198-67.764,22.802-104.195c4.235-13.281,7.496-27.627,9.816-41.355c0.467-2.707,6.022-53.482,7.336-53.09
				c1.104,0.34,80.725,24.268,106.045,31.396c22.039,6.199,44.57,9.83,66.926,14.684c47.735,10.357,94.623,27.145,143.103,34.734
				c-3.885,19.525-4.882,39.949-7.775,59.139c-3.544,23.51-7.326,47.127-10.121,70.738c-5.341,45.18-11.536,90.26-17.186,135.395
				c-3.698,29.49-7.549,58.957-11.248,88.453c-2.432,19.119-6.908,38.502-7.316,57.584c-0.688,32.879-13.845,66.111-19.383,98.477
				C3993.83,4941.996,3930.359,4911.438,3925.551,4908.885z"/>
			<path id="_x31_80611362_1_" fill="#A2B1D8" stroke="#000000" d="M2763.506,5489.35c-42.666-33.17-111.063-94.48-169.763-79
				c-59.364,15.65-151.242,128.018-109.829,191.51c9.135,14.014,21.047,27.498,35.156,40.205
				c92.047,82.885,299.65,146.514,416.93,171.162c136.374,28.662,286.759,35.254,415.238-27.324
				c73.317-35.713,238.354-217.748,200.155-305.023c-38.852-88.811-121.606,19.117-158.388,50.289
				c-64.441,54.605-137.35,101.936-220.605,121.082c-74.113,17.037-155.57,14.979-227.748-9.484
				C2864.977,5615.76,2826.724,5538.482,2763.506,5489.35z"/>
			<path id="_x31_80611441_1_" fill="#CCCCCC" stroke="#000000" d="M2986.257,2911.579c-73.187-0.653-174.412,30.618-198.667-60.229
				c-10.326-38.483-2.857-80.252,15.428-118.888c21.958-31.243,41.262-62.393,56.444-78.399
				c32.187-33.927,82.856-58.587,127.923-64.269c0.164-0.084,0.332-0.086,0.498-0.086c2.911-0.005,5.821,0.069,8.646,0.23
				c125.607,7.761,202.181,134.738,243.571,259.474c0.168,0.418,0.251,0.83,0.337,1.247c4.45,18.288,14.088,47.705,22.738,82.45
				c3.277,14.879,6.141,29.344,8.422,43.061c3.287,19.871,4.423,40.742,4.637,60.869c0.409,29.107,0.583,101.965-28.565,119.834
				c-2.989,1.837-5.653,2.59-8.063,2.598c-19.375,0.049-23.741-50.676-29.509-62.887c-28.929-60.895-80.487-128.049-142.782-162.164
				C3041.834,2920.346,3014.535,2911.846,2986.257,2911.579z"/>
			<path id="_x31_80611442_1_" fill="#CCCCCC" stroke="#000000" d="M2908.976,4754.559c-70.727,58.303-144.666-1.928-166.531-66.713
				c-18.603-55.096-49.863-125.305-40.645-182.873c12.199-76.133,92.365-260.254,195.003-180.68
				c19.365,15.004,47.805,69.568,59.062,96.613C2993.658,4511.779,2990.533,4687.328,2908.976,4754.559z"/>
			<path id="_x31_80611443_1_" fill="#CCCCCC" stroke="#000000" d="M1503.363,5111.133
				c-30.368-30.051-168.749-149.813-39.487-140.096c72.071,5.41,114.8,51.953,166.046,95.369
				c64.24,54.422,121.606,120.793,173.465,186.801c21.938,27.936,45.471,55.48,61.177,87.561
				c11.776,24.047,34.138,73.994,9.215,97.891c3.741-4.51-83.451-78.756-89.556-83.188
				c-54.966-39.945-110.504-80.705-159.664-127.951C1584.18,5188.715,1543.17,5150.539,1503.363,5111.133z"/>
			<path id="_x31_80611440_1_" fill="#AAAAAA" stroke="#000000" d="M3276.503,3890.232c19.163,14.891,28.665,37.813,34.521,60.676
				c6.805,26.566,3.032,42.529,1.957,69.033c-0.508,12.566,0.368,26.57,1.479,39.1c1.89,21.699,7.174,56.959,19.42,74.943
				c5.074,7.467,22.173,23.451,18.564,34.027c-3.641,10.713-11.953,7.105-19.101,1.744c-13.559-10.195-19.879-35.09-29.285-48.857
				c-26.021-38.035-73.787-76.629-115.13-97.039c-28.661-14.152-85.051-56.471-49.523-92.264
				c21.099-21.26,51.025-35.254,78.528-45.957C3236.908,3878.258,3260.073,3877.457,3276.503,3890.232z"/>
		</g>
	</g>
</g>
</svg>
