<?xml version="1.0" encoding="utf-8"?>
<!-- Generator: Adobe Illustrator 16.0.0, SVG Export Plug-In . SVG Version: 6.00 Build 0)  -->
<!DOCTYPE svg PUBLIC "-//W3C//DTD SVG 1.1//EN" "http://www.w3.org/Graphics/SVG/1.1/DTD/svg11.dtd">
<svg version="1.1" id="Layer_1" xmlns="http://www.w3.org/2000/svg" xmlns:xlink="http://www.w3.org/1999/xlink" x="0px" y="0px"
	 width="7232px" height="5776px" viewBox="0 0 7232 5776" enable-background="new 0 0 7232 5776" xml:space="preserve">
<g>
	<g transform="scale(1.0)">
		<g id="_x31_80610839" transform=" scale(1.0, 1.0)">
			<path id="_x31_80610841" fill="#BFDAE3" stroke="#000000" d="M5164.391,3203.229c-18.379-5.353-39.387-14.812-58.871-16.855
				C5120.836,3192.822,5148.425,3198.685,5164.391,3203.229c35.479,10.106,65.87,30.146,97.081,49.615
				c46.702,29.131,87.049,58.921,133.738,88.078c134.045,83.732,220.546,127.026,258.378,147.662
				c43,23.438,76.997,47.494,121.177,68.625c17.698,8.469,31.354,18.185,50.132,24.063c14.74,4.608,34.71,19.037,48.051,25.829
				c29.651,15.086,57.251,44.013,65.267,75.651c6.558,25.853,6.12,52.837,3.604,79.204c-2.711,28.499-7.117,57.428-13.188,85.413
				c-23.397,107.637-82.178,145.79-151.565,220.96c-198.176,214.611-411.4,428.615-592.25,657.198
				c-102.229,129.199-216.85,278.149-357.258,367.073c-257.572,163.145-609.958,38.892-830.06-133.842
				c-119.545-93.802-262.553-251.456-310.225-399.797c-51.529-160.327-41.029-333.611-53.264-499.418
				c-9.391-127.428,7.516-249.678,10.129-376.74c1.844-90.166,6.678-176.356,22.01-265.423
				c11.295-65.547,39.977-155.571,27.898-221.382c-7.072-38.481-43.707-76.953-54.773-116.305
				c-22.402-79.714-21.625-304.059-21.117-635.48c0.35-228.143-1.527-456.293-0.652-684.435
				c0.488-127.816,0.176-615.637,0.813-705.351c157.756-210.483,377.555-364.743,637.768-422.428
				c219.357-48.621,453.567-21.625,669.943,29.593c108.584,25.703,218.635,57.23,322.849,97.413
				c466.065,179.697,849.068,411.498,1073.57,878.072c108.754,226.044,213.738,474.987,198.672,730.706
				c-16.088,273.075-71.152,566.863-204.74,808.313c-64.658,116.865-96.917,252.888-187.659,354.611
				c-16.714,18.734-40.492,35.549-61.505,49.108c-20.091,12.966-42.036,22.923-65.464,28.05
				c-54.563,11.935-114.548-6.099-166.25-23.279c-26.724-8.88-49.59-21.113-74.195-34.349c-16.191-8.71-31.349-19.179-47.54-28.024
				c-25.836-14.115-51.275-28.961-77.146-43.028c-51.545-28.023-103.414-55.531-154.088-85.129
				c-27.962-16.33-55.628-33.174-82.582-51.128c-21.217-14.135-45.782-28.971-64.639-42.224
				c-11.846-8.321-19.575-13.754-29.959-20.812c-19.076-12.955-41.858-27.626-61.987-38.833
				C5217.025,3226.397,5193.477,3211.697,5164.391,3203.229z"/>
			<path id="_x31_80610842" fill="#B0FFB8" stroke="#000000" d="M6321.167,1636.826
				c-224.5-466.576-607.494-698.379-1073.563-878.072c-104.216-40.183-214.26-71.708-322.846-97.413
				c-216.371-51.22-450.583-78.214-669.941-29.594c-260.217,57.685-480.008,211.948-637.773,422.428
				c-0.638,89.715-0.311,577.542-0.806,705.351c-0.881,228.145,1.005,456.286,0.66,684.432
				c-0.51,331.42-1.289,555.77,21.117,635.483c11.064,39.35,47.699,77.823,54.77,116.302
				c12.076,65.813-16.322,154.072-27.629,219.622c-15.33,89.067-20.441,177.022-22.275,267.186
				c-2.625,127.062-19.531,249.313-10.131,376.74c12.227,165.804,1.727,339.086,53.258,499.419
				c47.672,148.335,190.674,305.991,310.225,399.795c220.105,172.732,572.483,296.983,830.058,133.844
				c140.407-88.922,255.024-237.879,357.258-367.075c180.845-228.584,394.066-442.584,592.247-657.198
				c69.389-75.171,128.171-113.318,151.56-220.959c6.079-27.984,10.48-56.915,13.191-85.411c2.516-26.368,2.949-53.353-3.602-79.205
				c-8.022-31.639-35.611-60.563-65.271-75.651c-13.339-6.789-33.305-21.223-48.045-25.832c-11.542-3.613-21.154-8.68-30.957-14.011
				c13.307,6.527,26.848,12.438,41.56,17.328c51.699,17.18,111.686,35.217,166.246,23.278c23.429-5.123,45.372-15.08,65.466-28.046
				c21.012-13.562,44.789-30.376,61.508-49.111c90.737-101.72,122.994-237.744,187.652-354.609
				c133.594-241.451,188.66-535.235,204.75-808.314C6534.909,2111.809,6429.925,1862.874,6321.167,1636.826z M4572.65,3880.973
				c-49.804,10.663-44.048-37.903-51.531-76.428c-9.567-49.222-24.367-97.351-32.598-146.854
				c-10.333-62.147,99.669,29.119,115.489,64.55C4623.896,3766.774,4647.911,3864.86,4572.65,3880.973z"/>
			<path id="_x31_80610884" fill="#1F9D5A" stroke="#000000" d="M5657.883,1105.318c-62.857-42.199-152.501-79.835-232.622-113.732
				l64.938-130.27c356.525,167.665,647.802,392.476,832.209,775.769c108.803,226.089,213.805,474.976,198.703,730.694
				c-15.18,258.557-65.387,535.717-184.209,769.351l-133.515-101.91c4.396-13.365,8.545-26.646,12.528-39.76
				c73.807-245.399,144.246-505.237,139.645-763.839c-3.1-173.125-36.564-295.603-117.525-459.64
				C6096.053,1484.687,5987.218,1326.129,5657.883,1105.318z"/>
			<path id="_x31_80610883" fill="#1F9D5A" stroke="#000000" d="M5425.261,991.585c80.121,33.899,169.765,71.535,232.622,113.732
				c329.335,220.811,438.168,379.367,580.149,666.664c80.961,164.037,114.428,286.514,117.525,459.64
				c4.602,258.601-65.838,518.437-139.645,763.838c-3.981,13.114-8.131,26.393-12.526,39.76l-368.692-281.587
				c108.257-217.756,83.918-619.396,20.447-761.766c-112.19-251.625-285.558-413.727-508.251-570.806
				c-30.511-21.561-65.031-43.946-102.557-66.66L5425.261,991.585z"/>
			<path id="_x31_80610882" fill="#1F9D5A" stroke="#000000" d="M5834.696,2753.632l-421.609-321.968
				c7.488-12.62,13.303-27.992,17.105-46.615c31.748-154.411-87.378-326.051-191.909-420.339
				c-63.975-57.723-136.381-116.182-213.954-169.287l220.007-441.025c37.525,22.716,72.046,45.101,102.557,66.661
				c222.691,157.079,396.061,319.183,508.251,570.806C5918.616,2134.235,5942.953,2535.876,5834.696,2753.632z"/>
			<path id="_x31_80610881" fill="#1F9D5A" stroke="#000000" d="M5174.145,2246.234c-31.534-31.66-129.552-124.791-270.295-209.91
				l1.832-2.924l118.649-237.977c77.571,53.104,149.979,111.563,213.952,169.288c104.531,94.287,223.657,265.928,191.909,420.339
				c-3.803,18.623-9.617,33.994-17.105,46.614l-227.985-174.097C5185.104,2257.565,5181.338,2253.565,5174.145,2246.234z"/>
			<path id="_x31_80610888" fill="#1F9D5A" stroke="#000000" d="M4926.003,661.588c108.654,25.746,218.653,57.249,322.912,97.445
				c83.205,32.058,163.826,65.789,241.283,102.28l-64.938,130.27c-27.066-11.467-53.052-22.517-76.529-33.154
				c-81.631-36.903-206.827-69.544-290.948-100.267c-196.728-71.901-493.771-88.675-701.365-84.173
				c-181.305,3.949-320.432,60.571-419.488,160.438l-82.703-114.949l-0.92-1.166c118.277-88.72,253.967-153.266,402.822-186.282
				C4475.41,583.345,4709.696,610.344,4926.003,661.588z"/>
			<path id="_x31_80610887" fill="#1F9D5A" stroke="#000000" d="M5244.336,1354.397
				c-208.942-126.303-510.139-259.771-726.637-282.297c-191.037-19.823-323.895-2.948-403.061,109.319L3936.93,934.429
				c99.057-99.868,238.182-156.489,419.488-160.438c207.595-4.501,504.638,12.273,701.365,84.173
				c84.123,30.72,209.317,63.363,290.948,100.267c23.478,10.638,49.463,21.688,76.529,33.155L5244.336,1354.397z"/>
			<path id="_x31_80610886" fill="#1F9D5A" stroke="#000000" d="M4517.699,1072.101c216.498,22.527,517.696,155.994,726.639,282.297
				l-220.005,441.025c-129.399-88.646-273.039-162.405-415.425-193.008c-69.567-14.889-128.737-6.758-178.691,17.634
				l-315.576-438.629C4193.805,1069.151,4326.662,1052.277,4517.699,1072.101z"/>
			<path id="_x31_80610885" fill="#1F9D5A" stroke="#000000" d="M4608.904,1602.414c142.386,30.604,286.029,104.364,415.425,193.008
				l-118.649,237.977l-1.832,2.925c-75.553-45.678-163.453-88.996-259.929-119.274l-213.708-297.003
				C4480.168,1595.656,4539.338,1587.525,4608.904,1602.414z"/>
			<path id="_x31_80610892" fill="#40A666" stroke="#000000" d="M3854.227,819.479l82.703,114.95
				c-74.563,75.028-126.453,174.464-156.686,294.313c-7.535,29.983-13.82,61.3-18.678,93.865l-143.02-96.384l-0.666,0.003
				c0.092-79.973,0.211-144.416,0.408-171.795c67.521-90.123,146.416-169.832,235.02-236.121L3854.227,819.479z"/>
			<path id="_x31_80610891" fill="#40A666" stroke="#000000" d="M3839.553,1375.129c-37.758-25.427-17.898-12.053-54.127-36.449
				l-23.861-16.07c2.893-18.24,6.125-37.583,10.336-57.662c3.734-17.817,8.883-37.756,14.182-58.136
				c9.652-37.125,22.648-70.987,39.178-108.084c7.781-17.459,20.902-43.104,33.277-63.246c8.023-13.054,17.555-29.022,25.008-37.913
				c6.73-8.032,16.314-22.045,23.543-30.373c12.99-14.967,17.836-20.684,29.842-32.766l177.709,246.987
				c-35.211,49.821-59.783,118.405-74.209,210.925c-5.357,34.654-11.043,70.475-16.65,106.883L3839.553,1375.129z"/>
			<path id="_x31_80610890" fill="#40A666" stroke="#000000" d="M4114.639,1181.418l315.576,438.629
				c-39.447,19.195-73.113,48.478-101.592,84.597l-304.844-205.416c5.605-36.408,11.293-72.231,16.65-106.883
				C4054.855,1299.824,4079.428,1231.24,4114.639,1181.418z"/>
			<path id="_x31_80610889" fill="#40A666" stroke="#000000" d="M4430.213,1620.048l213.706,297.003l-315.292-212.408
				C4357.102,1668.526,4390.771,1639.241,4430.213,1620.048z"/>
			<path id="_x31_80610897" fill="#2FA850" stroke="#000000" d="M3618.545,1226.226l143.02,96.383
				c-7.084,47.68-11.324,97.855-12.643,150.534c-4.414,173.138-17.768,342.288-31.865,514.779
				c-10.271,125.569,0.66,249.092,7.5,373.627l-106.332,51.383c0.154-217.708-1.531-435.411-0.711-653.119
				c0.326-88.82,0.309-351.438,0.365-533.584L3618.545,1226.226z"/>
			<path id="_x31_80610896" fill="#2FA850" stroke="#000000" d="M3761.564,1322.609l77.988,52.52
				c-2.639,101.095-17.242,230.931-22.488,320.928c-10.254,174.487-22.48,365.422-21.219,539.886
				c0.229,30.469-0.463,61.105-1.404,91.828l-69.885,33.778c-6.842-124.533-17.773-248.057-7.502-373.625
				c14.102-172.493,27.453-341.642,31.867-514.78C3750.24,1420.467,3754.48,1370.289,3761.564,1322.609z"/>
			<path id="_x31_80610895" fill="#2FA850" stroke="#000000" d="M3839.553,1375.129l184.227,124.099
				c-25.795,167.504-51.313,349.953-53.08,510.981c-0.779,70.289-4.543,151.521-4.961,234.747l-171.297,82.814
				c0.941-30.723,1.633-61.358,1.404-91.828c-1.262-174.464,10.965-365.398,21.221-539.886
				C3822.311,1606.06,3836.914,1476.224,3839.553,1375.129z"/>
			<path id="_x31_80610894" fill="#2FA850" stroke="#000000" d="M4023.779,1499.228l304.846,205.416
				c-88.1,111.533-126.482,287.578-131.713,428.496l-231.176,111.816c0.418-83.226,4.182-164.458,4.961-234.747
				C3972.467,1849.179,3997.982,1666.732,4023.779,1499.228z"/>
			<path id="_x31_80610893" fill="#2FA850" stroke="#000000" d="M4643.919,1917.051l-13.429,6.453l-433.576,209.634
				c5.23-140.918,43.613-316.962,131.711-428.495L4643.919,1917.051z"/>
			<path id="_x31_80610868" fill="#59B363" stroke="#000000" d="M3748.541,2965.12c37.76,97.594,115.627,175.238,177.23,258.342
				l0.34,3.003c-1.754,0.17-3.422,0.341-5.172,0.511c-69.773,6.733-177.361,14.96-237.369-64.224l-1.252,0.751
				c-12.32-24.517-30.313-49.105-39.799-74.048L3748.541,2965.12z"/>
			<path id="_x31_80610867" fill="#59B363" stroke="#000000" d="M4179.559,3149.251l0.861,12.854
				c-75.98,33.458-165.008,55.337-254.309,64.362l-0.34-3.002c-61.604-83.105-139.473-160.752-177.23-258.344l116.182-136.213
				c15.748,28.1,34.832,54.359,58.252,77.768C4003.855,2987.32,4127.346,3044.258,4179.559,3149.251z"/>
			<path id="_x31_80610866" fill="#59B363" stroke="#000000" d="M4198.35,3153.387l0.168,0.417
				c-5.922,2.852-11.926,5.616-18.098,8.301l-0.861-12.854c-52.213-104.993-175.703-161.931-256.586-242.576
				c-23.42-23.411-42.506-49.668-58.254-77.767l159.404-186.887c65.811,141.865,178.107,153.079,301.221,61.343
				c17.252-12.889,33.922-27.448,50.502-42.505L4198.35,3153.387z"/>
			<path id="_x31_80610865" fill="#59B363" stroke="#000000" d="M4538.816,2208.676l-162.971,452.181
				c-16.578,15.057-33.248,29.617-50.502,42.505c-123.111,91.737-235.41,80.524-301.223-61.343l208.209-244.248
				c11.967,14.585,28.178,24.153,50.221,25.528C4348.674,2427.509,4456.81,2276.287,4538.816,2208.676z"/>
			<path id="_x31_80610864" fill="#59B363" stroke="#000000" d="M4632.756,1928.174l-2.264-4.669l13.429-6.453l-105.104,291.625
				c-82.009,67.612-190.143,218.833-256.266,214.625c-22.041-1.376-38.254-10.941-50.221-25.528L4632.756,1928.174z"/>
			<path id="_x31_80610876" fill="#248A5E" stroke="#000000" d="M5119.666,3188.959c-55.64-22.179-120.747-105.025-173.746-142.566
				c-65.621-46.367-136.896-80.536-227.737-91.122l0.084-0.5l-8.928-124.447c30.659,12.044,60.829,30.097,92.92,48.314
				c72.121,40.928,152.569,71.069,222.859,114.258c172.924,106.091,337.539,274.553,525.966,369.759l29.053,85.925
				c-24.485-13.31-48.972-26.701-73.206-40.427c-3.342-1.913-6.684-3.826-9.944-5.74c-19.139-11.147-39.781-23.379-61.929-36.939
				c-1.083-0.667-2.256-1.331-3.427-2.08c-10.696-6.742-21.229-13.48-31.678-20.475c-21.23-14.146-45.804-28.958-64.611-42.195
				c-11.869-8.324-19.56-13.734-30.008-20.81c-19.059-12.985-41.793-27.634-61.934-38.862c-3.256-1.832-6.519-3.662-9.778-5.49
				c-0.166-0.085-0.333-0.167-0.415-0.25c-21.813-13.146-44.125-25.039-68.849-32.086c-1.004-0.332-2.005-0.58-3.092-0.912
				C5148.15,3198.252,5133.78,3192.438,5119.666,3188.959z"/>
			<path id="_x31_80610875" fill="#248A5E" stroke="#000000" d="M4922.486,2594.662c116.449,41.342,285.399,165.22,451.169,242.858
				l177.427,525.134c-188.427-95.208-353.042-263.67-525.966-369.759c-70.29-43.188-150.738-73.33-222.859-114.258
				c-32.093-18.218-62.261-36.271-92.92-48.314l-21.894-306.233C4768.021,2534.867,4849.06,2568.514,4922.486,2594.662z"/>
			<path id="_x31_80610874" fill="#248A5E" stroke="#000000" d="M5373.659,2837.52c-165.771-77.638-334.722-201.516-451.171-242.856
				c-73.425-26.149-154.465-59.796-235.041-70.573l-25.067-349.466c92.848,10.751,190.474,73.75,262.682,116.848
				c39.449,23.545,125.299,84.397,215.544,130.466c36.183,18.46,73.026,34.497,107.774,44.778L5373.659,2837.52z"/>
			<path id="_x31_80610873" fill="#248A5E" stroke="#000000" d="M4903.85,2036.325c140.745,85.118,238.761,178.249,270.295,209.909
				l-0.25,0.167l74.478,220.313c-34.748-10.282-71.592-26.318-107.773-44.78c-90.246-46.068-176.095-106.919-215.543-130.465
				c-72.21-43.098-169.835-106.097-262.682-116.847l-18.459-257.573C4740.395,1947.329,4828.297,1990.646,4903.85,2036.325z"/>
			<path id="_x31_80610902" fill="#248A5E" stroke="#000000" d="M3748.541,2965.12l-106.018,124.339
				c-1.26-3.253-2.352-6.505-3.277-9.759c-22.361-79.677-21.557-304.062-21.041-635.464c-0.023-10.435,0.041-20.87,0.021-31.303
				l106.332-51.384c2.076,37.894,3.738,75.958,4.314,114.188c2.219,149.836-32.52,313.269,9.596,459.688
				C3741.406,2945.516,3744.766,2955.443,3748.541,2965.12z"/>
			<path id="_x31_80610901" fill="#248A5E" stroke="#000000" d="M3864.723,2828.907l-116.182,136.213
				c-3.777-9.677-7.137-19.604-10.076-29.698c-42.111-146.419-7.377-309.852-9.596-459.687
				c-0.574-38.231-2.236-76.293-4.313-114.189l69.883-33.778c-3.121,109.861-9.246,220.896,11.67,328.54
				C3817.918,2716.557,3835.316,2776.124,3864.723,2828.907z"/>
			<path id="_x31_80610900" fill="#248A5E" stroke="#000000" d="M4024.121,2642.021l-159.4,186.888
				c-29.406-52.784-46.805-112.351-58.611-172.599c-20.918-107.642-14.791-218.679-11.67-328.54l171.299-82.814
				c-0.66,131.06,6.955,267.029,47.904,372.46C4016.998,2626.008,4020.436,2634.266,4024.121,2642.021z"/>
			<path id="_x31_80610899" fill="#248A5E" stroke="#000000" d="M4232.33,2397.772l-208.207,244.248
				c-3.686-7.755-7.125-16.013-10.48-24.604c-40.947-105.434-48.563-241.401-47.904-372.46l231.174-111.816
				c-0.871,24.127-0.742,47.249,0.221,68.867C4199.23,2250.002,4193.504,2350.434,4232.33,2397.772z"/>
			<path id="_x31_80610898" fill="#248A5E" stroke="#000000" d="M4630.491,1923.507l2.263,4.668l-400.424,469.599
				c-38.824-47.339-33.098-147.772-35.197-195.766c-0.961-21.618-1.09-44.739-0.221-68.867L4630.491,1923.507z"/>
			<path id="_x31_80610872" fill="#248A5E" stroke="#000000" d="M4709.337,2830.323l8.928,124.445l-0.084,0.501
				c-26.889-3.203-55.519-4.315-86.154-3.085c-76.793,3.153-141.851,28.247-202.308,61.42
				c-17.115-84.445,77.412-154.667,144.136-183.264C4624.316,2808.703,4667.315,2813.793,4709.337,2830.323z"/>
			<path id="_x31_80610871" fill="#248A5E" stroke="#000000" d="M4687.445,2524.09l21.892,306.233
				c-42.021-16.53-85.022-21.617-135.482,0.018c-66.724,28.597-161.249,98.821-144.136,183.266
				c-68.459,37.615-131.055,85.406-198.01,123.018c-10.676,5.95-21.766,11.732-33.191,17.18l-0.168-0.417l177.496-492.529
				c55.414-50.445,109.478-107.15,180.223-128.662C4598.864,2519.174,4643.107,2518.167,4687.445,2524.09z"/>
			<path id="_x31_80610870" fill="#248A5E" stroke="#000000" d="M4662.378,2174.623l25.067,349.467
				c-44.338-5.923-88.581-4.916-131.377,8.106c-70.743,21.51-124.809,78.215-180.223,128.661l162.971-452.181
				c19.001-15.732,36.677-26.953,52.026-30.657C4613.956,2172.382,4637.996,2171.666,4662.378,2174.623z"/>
			<path id="_x31_80610869" fill="#248A5E" stroke="#000000" d="M4643.919,1917.051l18.459,257.572
				c-24.382-2.957-48.42-2.241-71.533,3.397c-15.352,3.702-33.027,14.924-52.026,30.656L4643.919,1917.051z"/>
			<path id="_x31_80610880" fill="#219866" stroke="#000000" d="M6203.387,3035.219l133.513,101.911
				c-6.568,13.116-13.471,26.07-20.541,38.938c-64.627,116.913-96.914,252.96-187.622,354.648
				c-16.74,18.733-40.495,35.557-61.507,49.121c-20.09,12.98-42.024,22.871-65.473,28.014
				c-54.57,11.96-114.539-6.121-166.249-23.295c-2.087-0.665-4.176-1.412-6.18-2.16c-1.253-0.414-2.507-0.913-3.677-1.327
				c-8.771-3.235-17.125-6.894-25.396-10.803c-0.084,0-0.168-0.083-0.25-0.167c-8.271-4.157-16.463-8.733-25.234-12.89
				c-1.505-0.664-2.926-1.413-4.347-2.077c-0.249-0.166-0.5-0.248-0.752-0.418c-2.759-1.494-5.517-2.992-8.355-4.49
				c-16.214-8.732-31.342-19.137-47.554-28.037c-14.877-8.149-29.668-16.469-44.459-24.787c-2.59-1.497-5.183-2.994-7.772-4.409
				c-8.273-4.658-16.546-9.315-24.904-13.808c-18.802-10.232-37.687-20.379-56.49-30.607l-29.053-85.924
				c62.419,31.516,127.41,55.008,196.216,65.558C6006.402,3467.767,6134.181,3244.631,6203.387,3035.219z"/>
			<path id="_x31_80610879" fill="#219866" stroke="#000000" d="M5551.083,3362.654l-177.426-525.134
				c134.938,63.342,267.729,96.135,368.438,28.988c38.011-25.369,68.574-64.579,92.598-112.876l368.692,281.586
				c-69.208,209.412-196.984,432.548-456.089,392.993C5678.494,3417.662,5613.501,3394.17,5551.083,3362.654z"/>
			<path id="_x31_80610878" fill="#219866" stroke="#000000" d="M5248.376,2466.716c70.578,20.979,132.846,18.519,164.711-35.053
				l421.609,321.968c-24.027,48.298-54.587,87.508-92.598,112.877c-100.709,67.146-233.501,34.354-368.438-28.989L5248.376,2466.716
				z"/>
			<path id="_x31_80610877" fill="#219866" stroke="#000000" d="M5185.104,2257.565l227.983,174.097
				c-31.863,53.571-94.133,56.032-164.711,35.054l-74.478-220.314l0.248-0.168
				C5181.338,2253.565,5185.104,2257.565,5185.104,2257.565z"/>
			<path id="_x31_80610843" fill="#9AD2BD" stroke="#000000" d="M5938.216,3682.753c-8.016-31.637-35.613-60.563-65.267-75.651
				c-13.341-6.79-33.313-21.219-48.051-25.829c-11.547-3.613-21.158-8.684-30.966-14.017c-7.794-3.825-15.509-7.859-23.332-12.036
				c-0.061-0.027-0.116-0.055-0.179-0.085c-0.156-0.106-0.313-0.182-0.473-0.263c-35.901-17.633-65.345-37.167-99.127-56.616
				c-0.505-0.284-1.015-0.571-1.521-0.855c-2.59-1.497-5.183-2.994-7.772-4.409c-1.052-0.592-2.103-1.183-3.154-1.775
				c-1.585-0.88-3.181-1.758-4.789-2.634c-25.788-14.064-74.19-38.662-144.839-79.411c-0.604-0.342-1.211-0.679-1.815-1.021
				c-3.343-1.913-6.687-3.826-9.945-5.74c-0.577-0.334-1.166-0.681-1.745-1.017c-4.24-2.438-8.484-4.872-12.708-7.338
				c-15.965-9.326-31.831-18.826-47.526-28.598c-12.768-7.769-26.029-15.937-39.797-24.536
				c-46.689-29.156-87.036-58.95-133.74-88.078c-9.166-5.72-18.267-11.482-27.443-17.032
				c-22.307-12.608-43.278-24.676-68.285-32.165c-0.465-0.14-0.924-0.285-1.388-0.418c-0.189-0.061-0.377-0.111-0.565-0.168
				c-16.043-4.52-43.143-10.316-58.269-16.687c4.636,0.485,9.36,1.402,14.111,2.573c-55.633-22.197-120.724-105.02-173.715-142.556
				c-65.62-46.368-136.894-80.537-227.735-91.121c-26.889-3.204-55.521-4.316-86.155-3.087
				c-76.794,3.153-141.852,28.246-202.307,61.421c-68.459,37.616-131.057,85.406-198.01,123.018
				c-10.678,5.949-21.768,11.731-33.193,17.179c-5.92,2.853-11.924,5.616-18.098,8.302c-75.98,33.457-165.008,55.336-254.309,64.361
				c-1.752,0.171-3.422,0.342-5.172,0.512c-69.773,6.733-177.359,14.96-237.369-64.225l-1.25,0.753
				c-0.111-0.215-0.238-0.439-0.377-0.663c5.6,11.064,10.07,22.109,12.1,33.155c12.082,65.812-16.6,155.836-27.896,221.382
				c-15.33,89.066-20.162,175.261-22.008,265.425c-2.617,127.061-19.521,249.311-10.129,376.74
				c12.234,165.807,1.734,339.091,53.262,499.42c47.674,148.335,190.68,305.989,310.225,399.795
				c220.105,172.731,572.485,296.986,830.061,133.842c140.411-88.922,255.03-237.877,357.259-367.073
				c180.85-228.585,394.072-442.589,592.248-657.198c69.388-75.17,128.168-113.323,151.565-220.96
				c6.073-27.985,10.478-56.914,13.19-85.413C5944.336,3735.592,5944.772,3708.607,5938.216,3682.753z M4572.65,3880.973
				c-49.804,10.663-44.048-37.903-51.531-76.428c-9.567-49.222-24.367-97.351-32.598-146.854
				c-10.333-62.147,99.669,29.119,115.489,64.55C4623.896,3766.774,4647.911,3864.86,4572.65,3880.973z"/>
			<path id="_x31_80610844" fill="#54BF94" stroke="#000000" d="M3790.092,4243.56c15.162-5.224,95.742-28.094,111.234-32.217
				c30.756-8.195,83.426-26.604,134.951-4.444c32.018,13.774,58.469,20.758,80.047,29.755
				c93.686,39.085,278.982-88.79,231.773,66.319c-27.16,89.297-163.988,249.41-92.527,340.352
				c47.346,60.255,83.748,48.737,87.91,133.39c3.604,73.287-33.029,183.715-76.719,248.497
				c-16.143,23.924-38.371,38.094-53.494,64.157c130.738,57.644,286.461,100.582,439.654,70.549
				c120.202-23.573,158.648-57.635,226.942-103.965c32.146-21.813,46.812-38.667,58.82-57.117
				c20.646-31.701-12.544-90.071-15.951-170.653c-2.99-70.844-3.583-142.622-9.831-204.938
				c-14.688-146.571-47.112-299.854-110.076-433.863c-17.879-38.048-37.763-112.512-60.794-135.445l-7.241,24.146
				c-5.876,17.08-13.265,33.498-23.005,48.926c-21.313,33.771-52.618,60.237-76.34,92.284
				c-19.418,26.246-40.303,60.087-74.211,68.541c-41.239,10.289-48.892-52.874-51.521-80.847
				c-8.99-96.117-15.241-209.279,39.655-293.924c14.874-22.924,30.086-21.094,51.704-42.799c-9.297,3.832-18.752,8.657-36.061,11.42
				c-21.409,3.418-35.056-10.446-37.622-30.529c-3.086-24.173-6.097-46.387-11.347-70.225c-2.72-12.312-3.995-24.609-7.836-36.642
				c-1.583-4.972-2.947-11.449-5.691-15.876c-2.455-3.962-9.272-7.664-13.129-10.649c-0.113-0.098-70.886-56.048-114.302-65.682
				c-41.477-9.193-83.639,14.042-119.326,35.435c-58.332,34.976-102.416,84.724-159.064,121.357
				c-68.809,44.509-129.195,52.372-165.424,64.33c-75.256,24.845-155.043,47.641-233.605,58.896
				c-2.979,0.421-63.068,3.582-65.326,5.58c-0.063,1.781-0.121,3.56-0.186,5.343c-0.711,37.036-0.016,84.468,2.451,117.899
				c1.949,26.468,2.635,53.109,3.23,79.732c1.479,31.833,2.533,63.841,3.74,95.886c1.543,25.478,3.213,50.443,3.213,50.443
				S3771.822,4249.846,3790.092,4243.56z"/>
			<path id="_x31_80610845" fill="#54BF94" stroke="#000000" d="M5549.136,3432.438c-36.861-20.903-73.515-42.16-110.104-63.532
				c-31.864-18.609-62.462-39.808-93.849-59.574c-19.829-12.491-36.194-28.421-55.852-41.246
				c-34.83-22.729-73.996-39.129-111.949-56.263c-27.602-12.461-60.329-17.629-86.271-33.562
				c-28.362-17.425-107.99-102.589-132.447-123.487c2.634,2.255-16.906,42.066-18.496,47.401
				c-19.873,66.619-47.729,130.677-74.588,194.818c-4.543,10.846-9.057,21.696-13.503,32.563
				c-26.045,63.729-52.794,127.178-78.534,191.031c-15.109,37.451-25.475,60.946-43.128,97.236l117.81,0.914
				c49.325,3.457,222.089,5.974,290.329,52.302l56.102-19.194c79.597-38.941,169.047-71.849,242.919-123.695
				c11.931-8.373,23.471-17.221,34.481-26.687C5494.9,3481.815,5556.021,3436.347,5549.136,3432.438z"/>
			<path id="_x31_80610847" fill="#54BF94" stroke="#000000" d="M4865.581,3296.993c-4.543,10.846-9.057,21.696-13.503,32.563
				c-26.045,63.729-52.794,127.178-78.534,191.031c-15.109,37.452-25.475,60.946-43.128,97.236l117.81,0.914
				c49.325,3.457,222.089,5.974,290.329,52.303l56.102-19.195c79.597-38.939,169.047-71.848,242.919-123.693
				c-138.89-95.686-325.109-78.244-473.492-153.012C4927.523,3356.716,4892.759,3328.383,4865.581,3296.993z"/>
			<path id="_x31_80610848" fill="#54BF94" stroke="#000000" d="M4505.331,4151.416c-4.806-81.985-0.566-169.586,44.034-238.358
				c14.874-22.924,30.086-21.094,51.702-42.8c-9.295,3.834-18.75,8.658-36.059,11.422c-21.409,3.418-35.056-10.446-37.622-30.529
				c-3.087-24.174-6.097-46.388-11.347-70.226c-2.72-12.312-3.995-24.61-7.836-36.642c-1.583-4.969-2.947-11.449-5.692-15.877
				c-2.454-3.959-9.271-7.664-13.128-10.648c-0.113-0.097-70.886-56.048-114.302-65.682c-41.477-9.193-83.639,14.041-119.326,35.436
				c-58.332,34.975-102.418,84.723-159.064,121.356c-54.324,35.139-103.398,47.438-139.48,56.942l0.473,1.77
				c-17.721,119.182,124.84,208.262,44.477,325.469l-4.379,4.04c12.662,1.26,25.615,4.266,38.496,9.806
				c32.018,13.772,58.471,20.754,80.049,29.755c79.252,33.059,224.055-53.349,238.223,13.127l1.803-0.386
				c49.021-27.252,99.826-62.948,144.498-97.677L4505.331,4151.416z"/>
			<path id="_x31_80610846" fill="#54BF94" stroke="#000000" d="M4916.026,4661.685c-25.715,11.616-39.589,35.211-57.247,56.391
				c-16.889,20.258-41.476,32.663-62.428,49.756c-40.958,33.42-79.487,70.09-125.51,96.702
				c-53.296,30.813-113.356,44.369-174.574,35.93c-29.785-4.108-59.154-12.851-87.258-23.368
				c-12.512-4.68-52.438-30.366-70.793-34.374h0.006c4.258-23.625,6.23-46.178,5.254-66.007
				c-4.162-84.652-40.564-73.133-87.91-133.39c-71.457-90.943,65.369-251.055,92.529-340.352c7.273-23.901,9.029-41.082,6.449-53.19
				l1.805-0.386c49.021-27.252,99.824-62.948,144.498-97.675l4.483-0.306c1.107,18.922,2.698,37.543,4.383,55.564
				c2.628,27.973,10.282,91.135,51.519,80.847c33.908-8.454,54.794-42.295,74.212-68.541c23.72-32.044,55.025-58.515,76.34-92.282
				c9.738-15.43,17.129-31.85,23.005-48.928l7.24-24.146c23.032,22.935,42.915,97.396,60.793,135.449
				c62.966,134.008,95.393,287.289,110.077,433.86c1.25,12.459,2.272,25.303,3.135,38.44"/>
			<path id="_x31_80610849" fill="#54BF94" stroke="#000000" d="M4922.729,4828.179c-2.393-56.68-3.255-113.942-6.703-166.494
				c-25.717,11.614-39.591,35.209-57.248,56.389c-16.89,20.258-41.474,32.663-62.427,49.756
				c-40.958,33.42-79.489,70.09-125.51,96.702c-53.298,30.813-113.356,44.369-174.575,35.93
				c-29.784-4.106-59.155-12.851-87.257-23.368c-12.514-4.68-52.441-30.364-70.793-34.374
				c-11.48,63.701-39.59,135.238-71.461,182.488c-16.141,23.926-38.369,38.096-53.492,64.161
				c130.738,57.642,286.461,100.58,439.654,70.547c120.204-23.571,158.648-57.634,226.942-103.965
				c32.146-21.812,46.812-38.665,58.82-57.117C4959.329,4967.134,4926.137,4908.764,4922.729,4828.179z"/>
			<path id="_x31_80610850" fill="#54BF94" stroke="#000000" d="M5549.136,3432.438c-36.861-20.903-73.515-42.16-110.104-63.532
				c-31.864-18.609-62.462-39.808-93.849-59.574c-19.829-12.491-36.194-28.421-55.852-41.246
				c-34.83-22.729-73.996-39.129-111.949-56.263c-27.602-12.461-60.329-17.629-86.271-33.562
				c-28.362-17.425-107.99-102.589-132.447-123.487c2.634,2.255-16.906,42.066-18.496,47.401
				c-19.873,66.619-47.729,130.677-74.588,194.818c27.178,31.39,61.942,59.721,98.502,78.145
				c148.381,74.767,334.601,57.325,473.492,153.011c11.931-8.373,23.469-17.222,34.479-26.688
				C5494.9,3481.815,5556.021,3436.347,5549.136,3432.438z"/>
			<path id="_x31_80610851" fill="#54BF94" stroke="#000000" d="M3957.682,3867.584c-17.721,119.182,124.84,208.262,44.475,325.47
				l-4.377,4.039c-37.992-3.788-73.387,8.103-96.455,14.25c-15.492,4.123-96.07,26.993-111.232,32.217
				c-18.271,6.286-145.305,43.421-145.305,43.421s-4.666-69.674-5.598-95.012c-1.6-43.576-1.387-87.549-4.588-131.047
				c-2.586-35.024-3.229-85.429-2.34-123.132c0.053-1.991,62.363-5.262,65.396-5.694c78.563-11.253,158.352-34.051,233.605-58.896
				c7.627-2.517,16.324-4.852,25.947-7.386L3957.682,3867.584z"/>
			<path id="_x31_80610863" fill="#62D09F" stroke="#000000" d="M3881.934,3570.481c-0.545-64.209,19.834-125.327,34.99-186.966
				c12.035-48.941,22.273-107.736,21.029-159.955c-41.635,4.382-83.453,7.585-125.307,4.751
				c-26.107-1.757-52.414-6.168-75.861-18.299c-17.322-8.965-45.07-28.661-53.188-47.266
				c32.385,74.235,3.549,157.395-11.947,231.974c-24.715,118.994-25.084,239.634-31.018,360.054
				c-1.602,32.474-3.037,62.664-3.68,93.27c-0.477,22.841-4.51,70.063-4.51,70.063s70.203-4.001,76.537-5.408
				c81.58-18.101,161.512-42.769,241.254-67.491c-30.766-38.207-49.957-67.99-58.729-123.713
				C3883.652,3671.62,3882.361,3620.879,3881.934,3570.481z"/>
			<path id="_x31_80610862" fill="#62D09F" stroke="#000000" d="M4081.115,3405.124c4.928-55.941,13.375-147.385-6.322-206.615
				c-35.033,10.943-70.895,17.715-107.488,21.826c-9.773,1.098-19.555,2.194-29.354,3.225
				c1.246,52.219-8.992,111.014-21.029,159.954c-15.154,61.639-35.535,122.757-34.99,186.968
				c0.428,50.396,1.719,101.138,9.57,151.012c8.771,55.723,27.963,85.505,58.729,123.714c4.223-1.31,8.439-2.617,12.662-3.926
				c37.277-11.553,76.973-22.099,111.566-40.91C3982.822,3675.778,4069.115,3541.373,4081.115,3405.124z"/>
			<path id="_x31_80610861" fill="#62D09F" stroke="#000000" d="M4484.114,3603.766c-6.16-23.104,14.131-35.302,53.102-35.371
				c-48.959-48.767-142.394-147.823-218.263-216.735c-39.113-35.511-79.039-70.132-119.662-103.902
				c-27.682-23.022-52.67-41.545-78.1-67.092c1.807,1.813-23.904,10.211-27.055,11.353c-6.418,2.318-12.867,4.47-19.344,6.491
				c19.697,59.23,11.248,150.677,6.322,206.615c-12.002,136.249-98.293,270.652-6.654,395.247c2.373-1.29,4.727-2.619,7.051-3.992
				c57.088-33.704,99.783-86.412,157.623-119.114c51.947-29.37,116.473-60.704,174.607-29.027
				c10.406,5.668,83.949,42.33,84.009,55.284c-0.07-14.231-18.266-55.445-5.168-64.666c6.014-4.236,15.152-2.769,24.586,1.704
				C4500.881,3629.422,4488.115,3618.753,4484.114,3603.766z"/>
			<path id="_x31_80610860" fill="#62D09F" stroke="#000000" d="M4195.221,4970.062c-114.723-13.467-183.914-149.15-225.971-241.993
				c-72.672-160.421-43.426-355.008,34.203-508.479c-71.691-3.276-171.465,32.724-175.266,34.159
				c-63.484,23.951-166.174,52.255-182.65,56.886c0.168,85.564,29.713,204.396,33.291,219.054
				c15.969,65.378,51.5,133.703,90.631,188.163c64.764,90.117,139.027,169.966,226.381,238.506
				c61.469,48.225,123.203,87.631,196.939,123.778c2.508,1.234,30.137-34.396,32.176-36.892
				c16.051-19.712,33.18-39.489,46.012-61.542c4.32-7.431,8.445-14.979,12.354-22.634
				C4258.068,4970.03,4218.164,4972.752,4195.221,4970.062z"/>
			<path id="_x31_80610859" fill="#62D09F" stroke="#000000" d="M4219.363,4764.032c-43.34-49.335-93.643-96.05-118.596-158.222
				c-23.83-59.362-19.947-126.067-4.639-187.158c7.764-30.979,18.34-61.137,30.506-90.653c7.303-17.729,17.125-55.013,32.689-70.979
				c-38.83-2.218-77.139-10.987-112.332-28.026c-12.016-5.821-27.033-8.653-43.541-9.405
				c-77.631,153.472-106.873,348.059-34.203,508.48c42.057,92.843,111.25,228.526,225.973,241.993
				c22.941,2.692,62.848-0.031,88.098-10.994c6.904-13.522,13.104-27.392,18.465-41.582c-6.625-24.968-11.244-49.735-23.924-73.569
				C4262.303,4814.662,4241.141,4788.82,4219.363,4764.032z"/>
			<path id="_x31_80610858" fill="#62D09F" stroke="#000000" d="M4309.535,4345.147c8.762-22.687,38.369-68.568,21.088-90.919
				c-16.385-21.177-60.695-6.728-83.014-2.771c-28.969,5.146-58.779,7.243-88.285,5.563c-15.563,15.969-25.385,53.252-32.689,70.979
				c-12.164,29.517-22.742,59.675-30.506,90.653c-15.309,61.091-19.189,127.796,4.639,187.16
				c24.953,62.17,75.256,108.883,118.596,158.22c21.777,24.788,42.939,50.632,58.498,79.882
				c12.678,23.836,17.299,48.602,23.922,73.569c7.213-19.08,12.906-38.74,16.646-58.94c6.607-35.741,19.725-91.994,0.244-125.492
				c-19.697-33.891-65.957-48.231-87.879-84.446c-39.611-65.438-7.43-145.016,25.346-206.084
				C4273.482,4410.2,4296.275,4379.484,4309.535,4345.147z"/>
			<path id="_x31_80610854" fill="#6ACBBA" stroke="#000000" d="M5933.708,3669.598c-19.477-43.254-61.1-64.594-108.802-88.328
				c-37.602-18.707-72.684-34.752-108.032-55.642c-47.483-28.054-95.114-53.154-143.104-79.893
				c-6.316,7.247-65.598,51.137-93.336,73.607c-1.313,1.064-2.71,2.149-4.158,3.245c21.297,13.885,56.686,40.028,73.807,51.727
				c71.009,48.513,151.999,72.457,162.41,171.831c10.567,100.982-56.052,202.23-145.77,244.64
				c-72.927,34.463-158.926,22.437-228.808,64.527c-64.358,38.768-106.973,106.807-128.876,177.185
				c-20.848,66.974-44.334,133.157-72.616,197.358c-13.007,29.545-27.985,57.98-37.377,88.289
				c-22.827,73.695-80.444,165.122-164.596,183.806c1.398,22.253,2.833,44.458,4.703,66.544
				c4.565,54.077,3.909,107.523,16.885,160.691c3.497,14.35,5.309,35.052,14.597,46.925c-1.161-1.496,19.006-19.853,25.904-26.315
				c30.881-34.371,95.566-106.077,96.188-106.819c6.046-7.291,11.507-15.246,16.87-23.324
				c-9.955,11.008-23.264,21.457-38.079,16.422c-15.658-5.31-22.883-31.27-24.683-45.016c-0.405-3.136-0.775-6.326-1.064-9.561
				c-6.474-71.807,42.955-134.606,84.696-187.787c77.916-99.284,156.359-198.206,236.278-295.899
				c23.451-28.663,47.335-56.996,72.168-84.481c34.685-38.393,68.446-77.518,105.784-113.391
				c43.083-41.395,89.956-72.474,140.805-103.379c32.584-19.811,65.327-39.255,99.268-56.7
				c20.927-10.749,68.944-41.335,94.464-30.009c11.851,5.266,11.742,14.33,9.029,23.179c-5.386,17.567-17.871,35.543-25.698,43.713
				c-12.581,13.134,28.985-19.411,54.495-88.711c4.734-12.861,15.904-58.251,17.928-73.866
				C5941.923,3760.729,5948.839,3703.198,5933.708,3669.598z"/>
			<path id="_x31_80610857" fill="#6ACBBA" stroke="#000000" d="M4876.862,3003.718c-76.641-42.993-167.268-57.604-254.225-51.529
				c-95.014,6.635-179.235,55.625-258.759,103.977c-7.404,4.505-22.617,15.276-41.805,28.646
				c17.746,1.921,30.721-12.651,49.354-14.57c19.613-2.021,42.891,10.103,60.031,18.074c36.977,17.202,69.384,41.611,104.616,61.728
				c97.517,55.681,206.679,91.811,303.467,146.682c34.808-86.656,78.287-169.18,94.785-262.512
				C4934.328,3034.215,4891.095,3011.703,4876.862,3003.718z"/>
			<path id="_x31_80610853" fill="#6ACBBA" stroke="#000000" d="M5099.046,4518.141c9.393-30.305,24.371-58.74,37.378-88.287
				c28.284-64.201,51.769-130.387,72.617-197.36c21.902-70.374,64.516-138.415,128.875-177.185
				c69.884-42.091,155.879-30.064,228.808-64.527c89.721-42.409,156.337-143.657,145.77-244.64
				c-10.411-99.374-91.401-123.318-162.408-171.831c-17.123-11.696-52.512-37.84-73.809-51.726
				c-26.354,19.974-74.11,45.253-100.054,61.654c-77.892,49.24-109.309,63.479-224.008,105.445l6.814,22.592
				c2.42,35.298-48.579,49.975-111.466,57.757c-31.424,81.088-50.045,194.682-76.678,277.801
				c-18.6,58.055-51.064,213.368-109.561,247.694c18.646,56.506,34.603,114.837,46.731,171.934
				c5.464,25.719,8.254,52.318,12.214,78.355c7.861,51.69,10.914,104.036,14.183,156.127
				C5018.604,4683.263,5076.216,4591.838,5099.046,4518.141z"/>
			<path id="_x31_80610856" fill="#6ACBBA" stroke="#000000" d="M4431.459,3088.317c-17.141-7.973-40.416-20.096-60.029-18.075
				c-18.633,1.921-31.607,16.492-49.355,14.572c-57.709,40.204-151.387,103.898-176.893,91.255
				c26.15,12.967,44.664,38.195,65.982,58.02c23.52-26.475,98.217-24.45,126.377-19.4c42.32,7.593,79.846,29.261,113.521,55.404
				c74.192,57.6,131.745,134.227,210.189,186.785c31.407,21.045,61.65,35.12,96.781,46.357
				c25.042-57.458,47.711-115.937,69.381-175.039c3.873-10.568,7.94-21.048,12.13-31.472
				c-96.788-54.869-205.95-90.999-303.467-146.68C4500.845,3129.928,4468.437,3105.519,4431.459,3088.317z"/>
			<path id="_x31_80610852" fill="#6ACBBA" stroke="#000000" d="M4970.888,4047.84c26.633-83.119,45.252-196.715,76.679-277.801
				c-83.515,10.331-187.987,8.5-216.152,26.654c-14.471,9.311-24.917,21.421-32.68,35.222
				c-33.035,58.78-37.017,128.211-50.101,193.235l22.045,43.188c14.118,22.926,56.781,133.069,68.563,164.472
				c7.709,20.538,15.079,41.508,22.083,62.727C4919.821,4261.205,4952.286,4105.893,4970.888,4047.84z"/>
			<path id="_x31_80610855" fill="#6ACBBA" stroke="#000000" d="M4451.061,3270.092c-33.674-26.143-71.199-47.811-113.521-55.402
				c-28.16-5.051-102.857-7.075-126.375,19.399c0.34,0.32,0.684,0.642,1.029,0.956c78.064,71.605,165.336,131.431,237.314,209.746
				c20.744,22.581,40.834,45.766,61.162,68.729c17.775,20.07,38.569,55.348,65.496,62.658c14.923,4.055,28.944,11.342,43.002,18.348
				c26.132,13.033,56.407,17.676,84.772,22.973c19.4-37.542,37.274-75.675,54.092-114.263
				c-35.131-11.237-65.373-25.313-96.781-46.357C4582.806,3404.321,4525.253,3327.694,4451.061,3270.092z"/>
			<path id="_x31_80610904" fill="#CCCCCC" stroke="#000000" d="M5879.235,3909.851c-25.52-11.33-73.537,19.256-94.463,30.009
				c-33.941,17.441-66.688,36.892-99.269,56.7c-50.847,30.905-97.722,61.984-140.803,103.378
				c-37.34,35.878-71.102,74.999-105.786,113.392c-24.832,27.487-48.717,55.816-72.168,84.481
				c-79.919,97.691-158.362,196.613-236.278,295.899c-41.741,53.183-91.17,115.979-84.696,187.787
				c0.291,3.234,0.659,6.425,1.064,9.561c1.798,13.749,9.024,39.706,24.683,45.016c14.817,5.031,28.124-5.414,38.079-16.422
				c7.878-11.869,15.541-24.004,24.52-34.72c11.567-13.795,23.064-27.584,34.525-41.355c4.637-5.631,9.293-11.225,13.964-16.793
				c11.316-13.621,22.61-27.224,33.904-40.803c46.675-57.119,112.506-134.808,169.841-199.316
				c48.298-54.332,94.301-103.173,141.524-152.852c30.11-32.07,60.358-63.9,90.563-95.421c0.057-0.063,0.117-0.124,0.176-0.188
				c20.354-21.661,60.109-64.11,95.029-101.754c21.67-23.359,43.341-46.549,65.106-69.657c5.983-6.478,11.86-12.676,17.629-18.668
				c14.766-15.602,29.584-31.177,44.498-46.743C5852.972,3988.758,5912.841,3924.783,5879.235,3909.851z"/>
			<path id="_x31_80610905" fill="#CCCCCC" stroke="#000000" d="M4798.733,3831.913c7.766-13.8,18.21-25.911,32.683-35.222
				c49.372-31.822,333.25-2.237,327.616-84.411c-6.59-95.31-248.708-89.197-310.805-93.543
				c-74.58-5.216-134.774,9.192-206.035-16.897c-34.531-12.642-114.162-51.035-149.368-24.399
				c-32.44,24.556,19.816,60.988,37.419,73.256c25.234,17.583,49.188,37.018,67.526,61.975
				c17.736,24.153,19.822,55.599,24.848,84.112c4.573,26.037-2.426,54.296-21.548,73.475
				c-17.072,17.129-36.826,19.875-51.702,42.799c-54.896,84.645-48.645,197.807-39.653,293.925
				c2.627,27.972,10.282,91.134,51.52,80.847c33.909-8.455,54.795-42.296,74.211-68.54c23.718-32.046,55.024-58.515,76.34-92.284
				C4766.275,4040.662,4747.327,3923.386,4798.733,3831.913z"/>
			<path id="_x31_80610903" fill="#AAAAAA" stroke="#000000" d="M4604.009,3722.241c-15.82-35.431-125.822-126.698-115.491-64.552
				c8.234,49.501,23.03,97.632,32.6,146.855c7.483,38.524,1.729,87.091,51.53,76.428
				C4647.911,3864.86,4623.896,3766.774,4604.009,3722.241z"/>
		</g>
	</g>
	<g transform="scale(1.0)">
		<g id="_x31_80610839_1_" transform=" scale(1.0, 1.0)">
			<path id="_x31_80610841_1_" fill="#BFDAE3" stroke="#000000" d="M1988.639,3241.062c-20.129,11.207-42.911,25.878-61.987,38.833
				c-10.384,7.058-18.113,12.49-29.959,20.812c-18.856,13.253-43.422,28.089-64.639,42.224
				c-26.954,17.954-54.62,34.798-82.582,51.128c-50.674,29.598-102.543,57.105-154.088,85.129
				c-25.87,14.067-51.31,28.913-77.146,43.028c-16.191,8.846-31.349,19.314-47.54,28.024
				c-24.605,13.235-47.472,25.469-74.195,34.349c-51.702,17.181-111.687,35.214-166.25,23.279
				c-23.428-5.127-45.373-15.084-65.464-28.05c-21.013-13.56-44.791-30.374-61.505-49.108
				c-90.742-101.724-123.002-237.746-187.659-354.611c-133.589-241.449-188.653-535.237-204.741-808.313
				c-15.066-255.719,89.919-504.662,198.673-730.706c224.502-466.575,607.505-698.375,1073.57-878.072
				c104.214-40.183,214.265-71.71,322.849-97.413c216.376-51.218,450.586-78.214,669.942-29.593
				c260.214,57.686,480.012,211.945,637.768,422.428c0.638,89.714,0.324,577.535,0.813,705.351
				c0.874,228.142-1.003,456.292-0.653,684.435c0.508,331.422,1.285,555.767-21.117,635.48
				c-11.066,39.352-47.701,77.823-54.772,116.305c-12.079,65.811,16.603,155.835,27.898,221.382
				c15.331,89.066,20.165,175.257,22.009,265.423c2.614,127.063,19.52,249.313,10.129,376.74
				c-12.233,165.807-1.734,339.091-53.264,499.418c-47.672,148.341-190.679,305.995-310.225,399.797
				c-220.102,172.733-572.486,296.986-830.059,133.842c-140.408-88.924-255.029-237.874-357.258-367.073
				c-180.85-228.583-394.074-442.587-592.25-657.198c-69.388-75.17-128.168-113.323-151.565-220.96
				c-6.071-27.985-10.478-56.914-13.188-85.413c-2.517-26.367-2.954-53.352,3.604-79.204c8.016-31.639,35.615-60.565,65.267-75.651
				c13.341-6.792,33.311-21.221,48.051-25.829c18.778-5.879,32.434-15.595,50.132-24.063c44.18-21.131,78.177-45.187,121.177-68.625
				c37.832-20.636,124.333-63.93,258.378-147.662c46.689-29.157,87.036-58.947,133.738-88.078
				c31.211-19.469,61.603-39.509,97.081-49.615c15.966-4.544,43.555-10.406,58.871-16.855
				c-19.484,2.044-40.492,11.503-58.871,16.855C2038.524,3211.697,2014.976,3226.397,1988.639,3241.062z"/>
			<path id="_x31_80610842_1_" fill="#B0FFB8" stroke="#000000" d="M712.15,2367.53c16.09,273.079,71.156,566.863,204.749,808.314
				c64.659,116.865,96.916,252.89,187.653,354.609c16.719,18.735,40.496,35.55,61.508,49.111
				c20.094,12.966,42.037,22.923,65.466,28.046c54.561,11.938,114.547-6.099,166.246-23.278c14.712-4.89,28.253-10.801,41.56-17.328
				c-9.803,5.331-19.415,10.397-30.957,14.011c-14.74,4.609-34.706,19.043-48.045,25.832c-29.66,15.088-57.249,44.013-65.271,75.651
				c-6.551,25.853-6.117,52.837-3.602,79.205c2.711,28.496,7.112,57.427,13.191,85.411
				c23.389,107.641,82.171,145.788,151.56,220.959c198.181,214.614,411.402,428.614,592.247,657.198
				c102.233,129.196,216.851,278.153,357.258,367.075c257.574,163.14,609.952,38.889,830.058-133.844
				c119.55-93.804,262.553-251.46,310.225-399.795c51.53-160.333,41.031-333.615,53.257-499.419
				c9.4-127.428-7.506-249.679-10.131-376.74c-1.834-90.163-6.944-178.118-22.275-267.186
				c-11.306-65.55-39.704-153.809-27.628-219.622c7.07-38.479,43.705-76.952,54.77-116.302
				c22.405-79.713,21.627-304.063,21.117-635.483c-0.347-228.146,1.54-456.287,0.659-684.432
				c-0.496-127.809-0.168-615.636-0.806-705.351c-157.766-210.479-377.558-364.743-637.774-422.428
				c-219.357-48.62-453.569-21.626-669.94,29.594c-108.586,25.706-218.63,57.23-322.846,97.413
				c-466.069,179.692-849.063,411.496-1073.563,878.072C802.076,1862.874,697.092,2111.809,712.15,2367.53z M2627.99,3722.241
				c15.82-35.431,125.822-126.697,115.489-64.55c-8.23,49.503-23.03,97.632-32.598,146.854
				c-7.483,38.524-1.728,87.091-51.531,76.428C2584.09,3864.86,2608.104,3766.774,2627.99,3722.241z"/>
			<path id="_x31_80610884_1_" fill="#1F9D5A" stroke="#000000" d="M993.967,1771.981
				c-80.961,164.038-114.427,286.515-117.526,459.64c-4.602,258.602,65.839,518.439,139.646,763.839
				c3.983,13.114,8.133,26.395,12.528,39.76L895.1,3137.13c-118.823-233.634-169.029-510.794-184.21-769.351
				c-15.102-255.719,89.901-504.605,198.704-730.694c184.407-383.293,475.684-608.104,832.209-775.769l64.938,130.27
				c-80.121,33.897-169.765,71.534-232.622,113.732C1244.783,1326.129,1135.948,1484.687,993.967,1771.981z"/>
			<path id="_x31_80610883_1_" fill="#1F9D5A" stroke="#000000" d="M1987.667,1354.4c-37.525,22.714-72.046,45.099-102.557,66.66
				c-222.693,157.08-396.061,319.181-508.251,570.806c-63.471,142.369-87.81,544.01,20.447,761.766l-368.692,281.587
				c-4.396-13.367-8.545-26.646-12.526-39.76c-73.807-245.401-144.247-505.237-139.646-763.838
				c3.098-173.126,36.565-295.603,117.526-459.64c141.981-287.297,250.814-445.854,580.149-666.664
				c62.857-42.198,152.501-79.833,232.622-113.732L1987.667,1354.4z"/>
			<path id="_x31_80610882_1_" fill="#1F9D5A" stroke="#000000" d="M1376.857,1991.864
				c112.19-251.623,285.56-413.727,508.251-570.806c30.511-21.56,65.031-43.945,102.557-66.661l220.007,441.025
				c-77.573,53.104-149.979,111.563-213.954,169.287c-104.531,94.288-223.657,265.928-191.909,420.339
				c3.803,18.624,9.617,33.995,17.105,46.615l-421.609,321.968C1289.048,2535.876,1313.385,2134.235,1376.857,1991.864z"/>
			<path id="_x31_80610881_1_" fill="#1F9D5A" stroke="#000000" d="M2046.899,2257.567l-227.985,174.097
				c-7.488-12.62-13.303-27.992-17.105-46.614c-31.748-154.411,87.378-326.052,191.909-420.339
				c63.973-57.725,136.381-116.184,213.952-169.288l118.649,237.977l1.832,2.924c-140.743,85.119-238.761,178.25-270.295,209.91
				C2050.663,2253.565,2046.897,2257.565,2046.899,2257.567z"/>
			<path id="_x31_80610888_1_" fill="#1F9D5A" stroke="#000000" d="M2975.872,632.03c148.855,33.017,284.544,97.563,402.822,186.282
				l-0.92,1.166l-82.703,114.949c-99.057-99.867-238.185-156.489-419.488-160.438c-207.595-4.502-504.638,12.272-701.365,84.173
				c-84.121,30.723-209.317,63.363-290.948,100.267c-23.478,10.638-49.463,21.688-76.529,33.154l-64.938-130.27
				c77.457-36.491,158.078-70.223,241.283-102.28c104.259-40.196,214.258-71.699,322.912-97.445
				C2522.305,610.344,2756.591,583.345,2975.872,632.03z"/>
			<path id="_x31_80610887_1_" fill="#1F9D5A" stroke="#000000" d="M1806.74,991.586c27.066-11.467,53.052-22.518,76.529-33.155
				c81.631-36.903,206.825-69.547,290.948-100.267c196.728-71.9,493.771-88.674,701.365-84.173
				c181.306,3.949,320.432,60.57,419.488,160.438l-177.709,246.989c-79.166-112.267-212.024-129.142-403.061-109.319
				c-216.498,22.526-517.694,155.995-726.637,282.297L1806.74,991.586z"/>
			<path id="_x31_80610886_1_" fill="#1F9D5A" stroke="#000000" d="M3117.359,1181.419l-315.576,438.629
				c-49.953-24.392-109.123-32.522-178.69-17.634c-142.386,30.604-286.025,104.363-415.425,193.008l-220.005-441.025
				c208.942-126.304,510.141-259.77,726.639-282.297C2905.338,1052.277,3038.196,1069.151,3117.359,1181.419z"/>
			<path id="_x31_80610885_1_" fill="#1F9D5A" stroke="#000000" d="M2801.789,1620.048l-213.707,297.003
				c-96.476,30.278-184.376,73.596-259.929,119.274l-1.832-2.925l-118.649-237.977c129.396-88.645,273.039-162.405,415.425-193.008
				C2692.663,1587.525,2751.833,1595.656,2801.789,1620.048z"/>
			<path id="_x31_80610892_1_" fill="#40A666" stroke="#000000" d="M3378.692,818.311
				c88.604,66.289,167.498,145.998,235.019,236.121c0.197,27.379,0.317,91.823,0.409,171.795l-0.666-0.003l-143.02,96.384
				c-4.858-32.564-11.144-63.881-18.678-93.865c-30.233-119.849-82.124-219.286-156.686-294.313l82.703-114.95L3378.692,818.311z"/>
			<path id="_x31_80610891_1_" fill="#40A666" stroke="#000000" d="M3208.222,1499.227c-5.607-36.408-11.294-72.229-16.65-106.883
				c-14.427-92.52-38.999-161.104-74.209-210.925l177.708-246.987c12.006,12.082,16.852,17.798,29.843,32.766
				c7.229,8.328,16.813,22.341,23.543,30.373c7.453,8.89,16.983,24.859,25.007,37.913c12.376,20.142,25.497,45.787,33.277,63.246
				c16.529,37.097,29.526,70.959,39.179,108.084c5.298,20.379,10.447,40.319,14.182,58.136c4.21,20.079,7.442,39.422,10.336,57.662
				l-23.862,16.07c-36.229,24.396-16.368,11.021-54.126,36.449L3208.222,1499.227z"/>
			<path id="_x31_80610890_1_" fill="#40A666" stroke="#000000" d="M3191.571,1392.345c5.356,34.652,11.044,70.475,16.65,106.883
				l-304.845,205.416c-28.479-36.119-62.144-65.401-101.592-84.597l315.577-438.629
				C3152.573,1231.24,3177.146,1299.824,3191.571,1392.345z"/>
			<path id="_x31_80610889_1_" fill="#40A666" stroke="#000000" d="M2903.373,1704.643l-315.291,212.408l213.705-297.003
				C2841.229,1639.241,2874.898,1668.526,2903.373,1704.643z"/>
			<path id="_x31_80610897_1_" fill="#2FA850" stroke="#000000" d="M3614.122,1226.229c0.057,182.146,0.038,444.764,0.364,533.584
				c0.821,217.708-0.864,435.41-0.711,653.119l-106.332-51.383c6.841-124.535,17.771-248.058,7.501-373.627
				c-14.098-172.491-27.451-341.641-31.866-514.779c-1.317-52.678-5.558-102.854-12.642-150.534l143.02-96.383L3614.122,1226.229z"
				/>
			<path id="_x31_80610896_1_" fill="#2FA850" stroke="#000000" d="M3483.078,1473.143c4.415,173.138,17.767,342.288,31.867,514.78
				c10.271,125.569-0.659,249.092-7.502,373.625l-69.885-33.778c-0.94-30.722-1.633-61.358-1.404-91.828
				c1.263-174.464-10.965-365.398-21.219-539.886c-5.246-89.997-19.849-219.833-22.487-320.928l77.988-52.52
				C3477.521,1370.289,3481.761,1420.467,3483.078,1473.143z"/>
			<path id="_x31_80610895_1_" fill="#2FA850" stroke="#000000" d="M3414.935,1696.057c10.255,174.487,22.482,365.422,21.22,539.886
				c-0.229,30.469,0.464,61.104,1.404,91.828l-171.296-82.814c-0.419-83.226-4.183-164.458-4.962-234.747
				c-1.767-161.029-27.284-343.478-53.08-510.981l184.228-124.099C3395.087,1476.224,3409.689,1606.06,3414.935,1696.057z"/>
			<path id="_x31_80610894_1_" fill="#2FA850" stroke="#000000" d="M3261.303,2010.209c0.78,70.289,4.543,151.521,4.962,234.747
				l-231.176-111.816c-5.23-140.918-43.613-316.963-131.714-428.496l304.846-205.416
				C3234.018,1666.732,3259.534,1849.179,3261.303,2010.209z"/>
			<path id="_x31_80610893_1_" fill="#2FA850" stroke="#000000" d="M2903.375,1704.643
				c88.099,111.533,126.48,287.577,131.712,428.495l-433.576-209.634l-13.429-6.453L2903.375,1704.643z"/>
			<path id="_x31_80610868_1_" fill="#59B363" stroke="#000000" d="M3589.48,3089.455c-9.485,24.942-27.478,49.531-39.799,74.048
				l-1.252-0.751c-60.008,79.184-167.595,70.957-237.368,64.224c-1.751-0.17-3.419-0.341-5.173-0.511l0.34-3.003
				c61.604-83.104,139.472-160.748,177.23-258.342L3589.48,3089.455z"/>
			<path id="_x31_80610867_1_" fill="#59B363" stroke="#000000" d="M3309.025,2906.676c23.42-23.408,42.505-49.668,58.253-77.768
				l116.181,136.213c-37.758,97.592-115.627,175.238-177.23,258.344l-0.34,3.002c-89.301-9.025-178.328-30.904-254.309-64.362
				l0.861-12.854C3104.654,3044.258,3228.146,2987.32,3309.025,2906.676z"/>
			<path id="_x31_80610866_1_" fill="#59B363" stroke="#000000" d="M2856.154,2660.859c16.58,15.057,33.25,29.616,50.503,42.505
				c123.113,91.736,235.41,80.522,301.221-61.343l159.403,186.887c-15.747,28.099-34.833,54.355-58.253,77.767
				c-80.883,80.646-204.374,137.583-256.587,242.576l-0.86,12.854c-6.173-2.685-12.177-5.449-18.099-8.301l0.169-0.417
				L2856.154,2660.859z"/>
			<path id="_x31_80610865_1_" fill="#59B363" stroke="#000000" d="M2949.449,2423.3c22.043-1.375,38.254-10.943,50.222-25.528
				l208.208,244.248c-65.812,141.867-178.111,153.08-301.222,61.343c-17.255-12.888-33.925-27.448-50.503-42.505l-162.97-452.181
				C2775.191,2276.287,2883.327,2427.509,2949.449,2423.3z"/>
			<path id="_x31_80610864_1_" fill="#59B363" stroke="#000000" d="M2999.67,2397.772c-11.967,14.587-28.18,24.152-50.221,25.528
				c-66.122,4.208-174.256-147.013-256.265-214.625l-105.104-291.625l13.429,6.453l-2.264,4.669L2999.67,2397.772z"/>
			<path id="_x31_80610876_1_" fill="#248A5E" stroke="#000000" d="M2070.734,3202.313c-1.087,0.332-2.088,0.58-3.092,0.912
				c-24.724,7.047-47.035,18.939-68.849,32.086c-0.082,0.083-0.249,0.165-0.415,0.25c-3.26,1.828-6.522,3.658-9.778,5.49
				c-20.141,11.229-42.875,25.877-61.934,38.862c-10.448,7.075-18.139,12.485-30.008,20.81
				c-18.808,13.237-43.381,28.049-64.611,42.195c-10.448,6.994-20.981,13.732-31.678,20.475c-1.171,0.749-2.344,1.413-3.427,2.08
				c-22.147,13.561-42.79,25.792-61.929,36.939c-3.261,1.914-6.603,3.827-9.944,5.74c-24.234,13.726-48.721,27.117-73.206,40.427
				l29.053-85.925c188.427-95.206,353.042-263.668,525.966-369.759c70.29-43.188,150.738-73.33,222.859-114.258
				c32.091-18.218,62.261-36.271,92.92-48.314l-8.928,124.447l0.084,0.5c-90.842,10.586-162.116,44.755-227.737,91.122
				c-52.999,37.541-118.106,120.388-173.746,142.566C2098.221,3192.438,2083.851,3198.252,2070.734,3202.313z"/>
			<path id="_x31_80610875_1_" fill="#248A5E" stroke="#000000" d="M2544.558,2524.09l-21.894,306.233
				c-30.659,12.043-60.827,30.097-92.92,48.314c-72.121,40.928-152.569,71.07-222.859,114.258
				c-172.924,106.089-337.539,274.551-525.966,369.759l177.427-525.134c165.77-77.639,334.72-201.517,451.169-242.858
				C2382.941,2568.514,2463.979,2534.867,2544.558,2524.09z"/>
			<path id="_x31_80610874_1_" fill="#248A5E" stroke="#000000" d="M1983.621,2466.715c34.748-10.282,71.592-26.318,107.774-44.778
				c90.245-46.069,176.095-106.921,215.544-130.466c72.208-43.098,169.834-106.097,262.682-116.848l-25.067,349.466
				c-80.576,10.777-161.616,44.424-235.041,70.573c-116.449,41.341-285.399,165.219-451.171,242.856L1983.621,2466.715z"/>
			<path id="_x31_80610873_1_" fill="#248A5E" stroke="#000000" d="M2588.086,1917.048l-18.459,257.573
				c-92.847,10.75-190.472,73.75-262.682,116.847c-39.448,23.546-125.297,84.397-215.543,130.465
				c-36.182,18.462-73.025,34.499-107.773,44.78l74.478-220.313l-0.25-0.167c31.534-31.66,129.55-124.791,270.295-209.909
				C2403.704,1990.646,2491.606,1947.329,2588.086,1917.048z"/>
			<path id="_x31_80610902_1_" fill="#248A5E" stroke="#000000" d="M3493.531,2935.426c42.115-146.419,7.378-309.852,9.597-459.688
				c0.576-38.23,2.237-76.294,4.314-114.188l106.332,51.384c-0.02,10.433,0.044,20.869,0.021,31.303
				c0.515,331.402,1.32,555.787-21.042,635.464c-0.925,3.254-2.017,6.506-3.276,9.759l-106.019-124.339
				C3487.235,2955.443,3490.595,2945.516,3493.531,2935.426z"/>
			<path id="_x31_80610901_1_" fill="#248A5E" stroke="#000000" d="M3425.892,2656.308c20.915-107.644,14.79-218.679,11.669-328.54
				l69.884,33.778c-2.076,37.896-3.738,75.958-4.313,114.189c-2.219,149.835,32.517,313.268-9.596,459.687
				c-2.939,10.094-6.299,20.021-10.076,29.698l-116.181-136.213C3396.684,2776.124,3414.083,2716.557,3425.892,2656.308z"/>
			<path id="_x31_80610900_1_" fill="#248A5E" stroke="#000000" d="M3218.358,2617.416c40.949-105.432,48.564-241.401,47.904-372.46
				l171.298,82.814c3.121,109.861,9.248,220.897-11.67,328.54c-11.806,60.248-29.205,119.814-58.61,172.599l-159.401-186.888
				C3211.565,2634.266,3215.003,2626.008,3218.358,2617.416z"/>
			<path id="_x31_80610899_1_" fill="#248A5E" stroke="#000000" d="M3034.868,2202.007c0.962-21.618,1.092-44.74,0.221-68.867
				l231.174,111.816c0.658,131.06-6.957,267.027-47.904,372.46c-3.355,8.592-6.795,16.85-10.481,24.604l-208.207-244.248
				C3038.497,2350.434,3032.77,2250.002,3034.868,2202.007z"/>
			<path id="_x31_80610898_1_" fill="#248A5E" stroke="#000000" d="M3035.089,2133.142c0.869,24.128,0.739,47.249-0.222,68.867
				c-2.1,47.994,3.628,148.427-35.197,195.766l-400.423-469.599l2.263-4.668L3035.089,2133.142z"/>
			<path id="_x31_80610872_1_" fill="#248A5E" stroke="#000000" d="M2658.146,2830.341c66.724,28.597,161.25,98.818,144.135,183.264
				c-60.456-33.173-125.514-58.267-202.307-61.42c-30.636-1.23-59.266-0.118-86.154,3.085l-0.084-0.501l8.928-124.445
				C2564.686,2813.793,2607.685,2808.703,2658.146,2830.341z"/>
			<path id="_x31_80610871_1_" fill="#248A5E" stroke="#000000" d="M2675.933,2532.196
				c70.745,21.511,124.809,78.216,180.222,128.662l177.497,492.529l-0.169,0.417c-11.425-5.447-22.515-11.229-33.19-17.18
				c-66.956-37.611-129.551-85.402-198.011-123.018c17.113-84.444-77.411-154.669-144.135-183.266
				c-50.46-21.635-93.461-16.548-135.482-0.018l21.892-306.233C2588.894,2518.167,2633.137,2519.174,2675.933,2532.196z"/>
			<path id="_x31_80610870_1_" fill="#248A5E" stroke="#000000" d="M2641.158,2178.02c15.35,3.704,33.025,14.925,52.026,30.657
				l162.97,452.181c-55.413-50.445-109.479-107.151-180.222-128.661c-42.796-13.022-87.039-14.03-131.377-8.106l25.067-349.467
				C2594.005,2171.666,2618.045,2172.382,2641.158,2178.02z"/>
			<path id="_x31_80610869_1_" fill="#248A5E" stroke="#000000" d="M2693.183,2208.676c-18.999-15.732-36.675-26.954-52.026-30.656
				c-23.113-5.639-47.151-6.354-71.533-3.397l18.459-257.572L2693.183,2208.676z"/>
			<path id="_x31_80610880_1_" fill="#219866" stroke="#000000" d="M1484.701,3428.21c68.806-10.55,133.797-34.042,196.216-65.558
				l-29.053,85.924c-18.804,10.229-37.688,20.375-56.49,30.607c-8.358,4.492-16.631,9.149-24.904,13.808
				c-2.59,1.415-5.183,2.912-7.772,4.409c-14.791,8.318-29.582,16.638-44.459,24.787c-16.212,8.9-31.34,19.305-47.554,28.037
				c-2.839,1.498-5.597,2.996-8.355,4.49c-0.252,0.17-0.503,0.252-0.752,0.418c-1.421,0.664-2.842,1.413-4.347,2.077
				c-8.771,4.156-16.963,8.732-25.234,12.89c-0.082,0.084-0.166,0.167-0.25,0.167c-8.271,3.909-16.625,7.567-25.396,10.803
				c-1.17,0.414-2.424,0.913-3.677,1.327c-2.004,0.748-4.093,1.495-6.18,2.16c-51.71,17.174-111.679,35.255-166.249,23.295
				c-23.448-5.143-45.383-15.033-65.473-28.014c-21.012-13.564-44.767-30.388-61.507-49.121
				c-90.708-101.688-122.996-237.735-187.622-354.648c-7.071-12.868-13.973-25.822-20.541-38.938l133.513-101.911
				C1097.82,3244.631,1225.599,3467.767,1484.701,3428.21z"/>
			<path id="_x31_80610879_1_" fill="#219866" stroke="#000000" d="M1484.705,3428.212
				c-259.104,39.555-386.881-183.581-456.089-392.993l368.692-281.586c24.023,48.297,54.587,87.507,92.598,112.876
				c100.709,67.146,233.499,34.354,368.438-28.988l-177.426,525.134C1618.5,3394.17,1553.507,3417.662,1484.705,3428.212z"/>
			<path id="_x31_80610878_1_" fill="#219866" stroke="#000000" d="M1858.34,2837.52c-134.937,63.343-267.729,96.136-368.438,28.989
				c-38.011-25.369-68.57-64.579-92.598-112.877l421.609-321.968c31.865,53.571,94.133,56.032,164.711,35.053L1858.34,2837.52z"/>
			<path id="_x31_80610877_1_" fill="#219866" stroke="#000000" d="M2057.854,2246.234l0.248,0.168l-74.478,220.314
				c-70.578,20.978-132.848,18.518-164.711-35.054l227.983-174.097C2046.897,2257.565,2050.663,2253.565,2057.854,2246.234z"/>
			<path id="_x31_80610843_1_" fill="#9AD2BD" stroke="#000000" d="M1290.184,3761.955c2.713,28.499,7.117,57.428,13.19,85.413
				c23.397,107.637,82.178,145.79,151.565,220.96c198.176,214.609,411.398,428.613,592.248,657.198
				c102.229,129.196,216.848,278.151,357.259,367.073c257.575,163.145,609.955,38.89,830.06-133.842
				c119.546-93.806,262.551-251.46,310.225-399.795c51.528-160.329,41.028-333.613,53.262-499.42
				c9.393-127.43-7.512-249.68-10.129-376.74c-1.845-90.164-6.678-176.358-22.008-265.425
				c-11.297-65.546-39.978-155.57-27.896-221.382c2.029-11.046,6.501-22.091,12.1-33.155c-0.139,0.224-0.266,0.448-0.376,0.663
				l-1.251-0.753c-60.01,79.185-167.595,70.958-237.368,64.225c-1.751-0.17-3.421-0.341-5.173-0.512
				c-89.301-9.025-178.328-30.904-254.309-64.361c-6.173-2.686-12.178-5.449-18.098-8.302
				c-11.426-5.447-22.515-11.229-33.192-17.179c-66.954-37.611-129.551-85.401-198.01-123.018
				c-60.455-33.175-125.513-58.268-202.307-61.421c-30.635-1.229-59.267-0.117-86.155,3.087
				c-90.842,10.584-162.115,44.753-227.735,91.121c-52.991,37.536-118.082,120.358-173.715,142.556
				c4.751-1.171,9.476-2.088,14.111-2.573c-15.126,6.37-42.226,12.167-58.269,16.687c-0.188,0.057-0.376,0.107-0.565,0.168
				c-0.464,0.133-0.923,0.278-1.388,0.418c-25.007,7.489-45.979,19.557-68.285,32.165c-9.177,5.55-18.277,11.313-27.443,17.032
				c-46.704,29.128-87.051,58.922-133.74,88.078c-13.768,8.6-27.029,16.768-39.797,24.536
				c-15.695,9.771-31.562,19.271-47.526,28.598c-4.224,2.466-8.468,4.899-12.708,7.338c-0.579,0.336-1.168,0.683-1.745,1.017
				c-3.259,1.914-6.603,3.827-9.945,5.74c-0.604,0.342-1.212,0.679-1.815,1.021c-70.648,40.749-119.051,65.347-144.839,79.411
				c-1.608,0.876-3.204,1.754-4.789,2.634c-1.052,0.593-2.103,1.184-3.154,1.775c-2.59,1.415-5.183,2.912-7.772,4.409
				c-0.506,0.284-1.016,0.571-1.521,0.855c-33.782,19.449-63.226,38.983-99.127,56.616c-0.159,0.081-0.316,0.156-0.473,0.263
				c-0.063,0.03-0.118,0.058-0.179,0.085c-7.823,4.177-15.538,8.211-23.332,12.036c-9.808,5.333-19.419,10.403-30.966,14.017
				c-14.738,4.61-34.71,19.039-48.051,25.829c-29.653,15.088-57.251,44.015-65.267,75.651
				C1287.229,3708.607,1287.665,3735.592,1290.184,3761.955z M2627.99,3722.241c15.82-35.431,125.822-126.697,115.489-64.55
				c-8.23,49.503-23.03,97.632-32.598,146.854c-7.483,38.524-1.728,87.091-51.531,76.428
				C2584.09,3864.86,2608.104,3766.774,2627.99,3722.241z"/>
			<path id="_x31_80610844_1_" fill="#54BF94" stroke="#000000" d="M3587.211,4286.981c0,0,1.67-24.966,3.213-50.443
				c1.208-32.045,2.263-64.053,3.74-95.886c0.597-26.623,1.281-53.265,3.23-79.732c2.468-33.432,3.162-80.863,2.451-117.899
				c-0.063-1.783-0.123-3.562-0.185-5.343c-2.258-1.998-62.349-5.159-65.326-5.58c-78.563-11.256-158.351-34.052-233.606-58.896
				c-36.229-11.958-96.614-19.821-165.423-64.33c-56.648-36.634-100.733-86.382-159.065-121.357
				c-35.688-21.393-77.849-44.628-119.325-35.435c-43.416,9.634-114.188,65.584-114.302,65.682
				c-3.856,2.985-10.674,6.688-13.129,10.649c-2.744,4.427-4.108,10.904-5.691,15.876c-3.841,12.032-5.116,24.33-7.836,36.642
				c-5.25,23.838-8.261,46.052-11.347,70.225c-2.566,20.083-16.213,33.947-37.622,30.529c-17.309-2.763-26.764-7.588-36.061-11.42
				c21.618,21.705,36.83,19.875,51.704,42.799c54.896,84.645,48.646,197.807,39.655,293.924
				c-2.63,27.973-10.282,91.136-51.521,80.847c-33.908-8.454-54.793-42.295-74.211-68.541
				c-23.722-32.047-55.026-58.513-76.34-92.284c-9.74-15.428-17.129-31.846-23.005-48.926l-7.241-24.146
				c-23.031,22.934-42.915,97.397-60.794,135.445c-62.964,134.01-95.388,287.292-110.076,433.863
				c-6.248,62.316-6.841,134.095-9.831,204.938c-3.407,80.582-36.598,138.952-15.951,170.653
				c12.009,18.45,26.674,35.304,58.82,57.117c68.294,46.33,106.74,80.392,226.942,103.965
				c153.193,30.033,308.915-12.905,439.653-70.549c-15.123-26.063-37.352-40.233-53.493-64.157
				c-43.69-64.782-80.323-175.21-76.72-248.497c4.163-84.652,40.564-73.135,87.911-133.39
				c71.461-90.941-65.368-251.055-92.528-340.352c-47.208-155.109,138.088-27.234,231.773-66.319
				c21.578-8.997,48.03-15.98,80.048-29.755c51.524-22.16,104.194-3.751,134.951,4.444c15.492,4.123,96.071,26.993,111.233,32.217
				C3460.179,4249.846,3587.211,4286.981,3587.211,4286.981z"/>
			<path id="_x31_80610845_1_" fill="#54BF94" stroke="#000000" d="M1759.944,3501.464c11.011,9.466,22.551,18.313,34.481,26.687
				c73.872,51.847,163.322,84.754,242.919,123.695l56.102,19.194c68.24-46.328,241.004-48.845,290.329-52.302l117.81-0.914
				c-17.653-36.29-28.019-59.785-43.128-97.236c-25.74-63.854-52.489-127.303-78.534-191.031
				c-4.446-10.867-8.96-21.718-13.503-32.563c-26.859-64.142-54.715-128.199-74.588-194.818c-1.59-5.335-21.13-45.146-18.496-47.401
				c-24.457,20.898-104.085,106.063-132.447,123.487c-25.941,15.933-58.669,21.101-86.271,33.562
				c-37.953,17.134-77.119,33.533-111.949,56.263c-19.657,12.825-36.022,28.755-55.852,41.246
				c-31.387,19.767-61.984,40.965-93.849,59.574c-36.589,21.372-73.242,42.629-110.104,63.532
				C1675.98,3436.347,1737.101,3481.815,1759.944,3501.464z"/>
			<path id="_x31_80610847_1_" fill="#54BF94" stroke="#000000" d="M2267.918,3375.141
				c-148.383,74.768-334.603,57.326-473.492,153.012c73.872,51.846,163.322,84.754,242.919,123.693l56.102,19.195
				c68.24-46.329,241.004-48.846,290.329-52.303l117.81-0.914c-17.653-36.29-28.019-59.784-43.128-97.236
				c-25.74-63.854-52.489-127.303-78.534-191.031c-4.446-10.867-8.96-21.718-13.503-32.563
				C2339.242,3328.383,2304.478,3356.716,2267.918,3375.141z"/>
			<path id="_x31_80610848_1_" fill="#54BF94" stroke="#000000" d="M2731.151,4151.714c44.672,34.729,95.476,70.425,144.498,97.677
				l1.803,0.386c14.168-66.476,158.97,19.932,238.222-13.127c21.579-9.001,48.031-15.982,80.05-29.755
				c12.88-5.54,25.833-8.546,38.496-9.806l-4.38-4.04c-80.363-117.207,62.198-206.287,44.477-325.469l0.474-1.77
				c-36.083-9.505-85.156-21.804-139.48-56.942c-56.646-36.634-100.733-86.382-159.065-121.356
				c-35.688-21.395-77.849-44.629-119.325-35.436c-43.416,9.634-114.188,65.585-114.302,65.682
				c-3.856,2.984-10.674,6.689-13.128,10.648c-2.745,4.428-4.109,10.908-5.692,15.877c-3.841,12.031-5.116,24.33-7.836,36.642
				c-5.25,23.838-8.26,46.052-11.347,70.226c-2.566,20.083-16.213,33.947-37.622,30.529c-17.309-2.764-26.764-7.588-36.059-11.422
				c21.616,21.706,36.828,19.876,51.702,42.8c44.601,68.772,48.84,156.373,44.034,238.358L2731.151,4151.714z"/>
			<path id="_x31_80610846_1_" fill="#54BF94" stroke="#000000" d="M2315.967,4661.681c0.862-13.138,1.885-25.981,3.135-38.44
				c14.685-146.571,47.111-299.853,110.077-433.86c17.878-38.053,37.761-112.515,60.793-135.449l7.24,24.146
				c5.876,17.078,13.267,33.498,23.005,48.928c21.314,33.768,52.62,60.238,76.34,92.282c19.418,26.246,40.304,60.087,74.212,68.541
				c41.236,10.288,48.891-52.874,51.519-80.847c1.685-18.021,3.275-36.643,4.383-55.564l4.483,0.306
				c44.674,34.727,95.477,70.423,144.498,97.675l1.805,0.386c-2.581,12.108-0.825,29.289,6.449,53.19
				c27.159,89.297,163.986,249.408,92.528,340.352c-47.346,60.257-83.747,48.737-87.91,133.39
				c-0.977,19.829,0.996,42.382,5.254,66.007h0.006c-18.355,4.008-58.281,29.694-70.793,34.374
				c-28.104,10.518-57.472,19.26-87.257,23.368c-61.218,8.439-121.278-5.117-174.574-35.93
				c-46.022-26.612-84.552-63.282-125.51-96.702c-20.952-17.093-45.539-29.498-62.428-49.756
				c-17.658-21.18-31.532-44.774-57.247-56.391"/>
			<path id="_x31_80610849_1_" fill="#54BF94" stroke="#000000" d="M2293.32,4998.833c12.009,18.452,26.675,35.306,58.82,57.117
				c68.294,46.331,106.738,80.394,226.942,103.965c153.193,30.033,308.915-12.905,439.653-70.547
				c-15.123-26.065-37.352-40.235-53.492-64.161c-31.871-47.25-59.979-118.787-71.461-182.488
				c-18.352,4.01-58.279,29.694-70.793,34.374c-28.102,10.518-57.472,19.262-87.256,23.368
				c-61.219,8.439-121.277-5.117-174.575-35.93c-46.021-26.612-84.552-63.282-125.51-96.702
				c-20.953-17.093-45.537-29.498-62.427-49.756c-17.657-21.18-31.531-44.774-57.248-56.389
				c-3.448,52.552-4.311,109.814-6.703,166.494C2305.864,4908.764,2272.672,4967.134,2293.32,4998.833z"/>
			<path id="_x31_80610850_1_" fill="#54BF94" stroke="#000000" d="M1759.946,3501.46c11.011,9.467,22.549,18.315,34.479,26.688
				c138.892-95.686,325.111-78.244,473.492-153.011c36.56-18.424,71.324-46.755,98.502-78.145
				c-26.859-64.142-54.715-128.199-74.588-194.818c-1.59-5.335-21.13-45.146-18.496-47.401
				c-24.457,20.898-104.085,106.063-132.447,123.487c-25.941,15.933-58.669,21.101-86.271,33.562
				c-37.953,17.134-77.119,33.533-111.949,56.263c-19.657,12.825-36.022,28.755-55.852,41.246
				c-31.387,19.767-61.984,40.965-93.849,59.574c-36.589,21.372-73.242,42.629-110.104,63.532
				C1675.98,3436.347,1737.101,3481.815,1759.946,3501.46z"/>
			<path id="_x31_80610851_1_" fill="#54BF94" stroke="#000000" d="M3274.79,3865.814c9.623,2.534,18.319,4.869,25.946,7.386
				c75.255,24.845,155.044,47.643,233.605,58.896c3.034,0.433,65.345,3.703,65.396,5.694c0.89,37.703,0.246,88.107-2.339,123.132
				c-3.202,43.498-2.988,87.471-4.589,131.047c-0.931,25.338-5.597,95.012-5.597,95.012s-127.034-37.135-145.305-43.421
				c-15.163-5.224-95.74-28.094-111.233-32.217c-23.067-6.147-58.463-18.038-96.455-14.25l-4.377-4.039
				c-80.365-117.208,62.196-206.288,44.475-325.47L3274.79,3865.814z"/>
			<path id="_x31_80610863_1_" fill="#62D09F" stroke="#000000" d="M3340.495,3721.494c-8.771,55.723-27.963,85.506-58.729,123.713
				c79.742,24.723,159.675,49.391,241.255,67.491c6.334,1.407,76.537,5.408,76.537,5.408s-4.034-47.222-4.51-70.063
				c-0.644-30.605-2.079-60.796-3.681-93.27c-5.934-120.42-6.302-241.06-31.018-360.054
				c-15.496-74.579-44.331-157.738-11.947-231.974c-8.117,18.604-35.864,38.301-53.187,47.266
				c-23.448,12.131-49.755,16.542-75.861,18.299c-41.854,2.834-83.672-0.369-125.307-4.751
				c-1.244,52.219,8.993,111.014,21.029,159.955c15.156,61.639,35.535,122.757,34.99,186.966
				C3349.639,3620.879,3348.349,3671.62,3340.495,3721.494z"/>
			<path id="_x31_80610862_1_" fill="#62D09F" stroke="#000000" d="M3157.542,3800.371c34.593,18.812,74.288,29.357,111.565,40.91
				c4.223,1.309,8.439,2.616,12.662,3.926c30.766-38.209,49.958-67.991,58.729-123.714c7.852-49.874,9.142-100.615,9.569-151.012
				c0.545-64.211-19.835-125.329-34.99-186.968c-12.037-48.94-22.275-107.735-21.029-159.954c-9.798-1.03-19.58-2.127-29.354-3.225
				c-36.593-4.111-72.455-10.883-107.488-21.826c-19.696,59.23-11.25,150.674-6.322,206.615
				C3162.886,3541.373,3249.178,3675.778,3157.542,3800.371z"/>
			<path id="_x31_80610861_1_" fill="#62D09F" stroke="#000000" d="M2714.832,3640.56c9.434-4.473,18.572-5.94,24.586-1.704
				c13.098,9.221-5.098,50.435-5.168,64.666c0.06-12.954,73.603-49.616,84.008-55.284c58.136-31.677,122.661-0.343,174.607,29.027
				c57.841,32.702,100.535,85.41,157.623,119.114c2.325,1.373,4.678,2.702,7.052,3.992c91.639-124.595,5.348-258.998-6.655-395.247
				c-4.925-55.938-13.374-147.385,6.323-206.615c-6.478-2.021-12.927-4.173-19.344-6.491c-3.151-1.142-28.862-9.539-27.055-11.353
				c-25.43,25.547-50.419,44.069-78.101,67.092c-40.622,33.771-80.549,68.392-119.661,103.902
				c-75.87,68.912-169.304,167.969-218.263,216.735c38.971,0.069,59.262,12.268,53.102,35.371
				C2743.886,3618.753,2731.12,3629.422,2714.832,3640.56z"/>
			<path id="_x31_80610860_1_" fill="#62D09F" stroke="#000000" d="M2948.681,4959.067c3.907,7.654,8.032,15.203,12.354,22.634
				c12.832,22.053,29.961,41.83,46.011,61.542c2.039,2.495,29.668,38.126,32.176,36.892
				c73.736-36.147,135.472-75.554,196.939-123.778c87.354-68.54,161.618-148.389,226.382-238.506
				c39.13-54.46,74.661-122.785,90.631-188.163c3.577-14.658,33.122-133.489,33.291-219.054
				c-16.478-4.631-119.166-32.935-182.65-56.886c-3.802-1.436-103.574-37.436-175.267-34.159
				c77.629,153.472,106.876,348.059,34.203,508.479c-42.057,92.843-111.248,228.526-225.971,241.993
				C3013.837,4972.752,2973.933,4970.03,2948.681,4959.067z"/>
			<path id="_x31_80610859_1_" fill="#62D09F" stroke="#000000" d="M2954.141,4843.916c-12.679,23.834-17.299,48.602-23.924,73.569
				c5.361,14.19,11.561,28.06,18.466,41.582c25.25,10.963,65.156,13.687,88.097,10.994
				c114.723-13.467,183.916-149.15,225.973-241.993c72.671-160.422,43.428-355.009-34.203-508.48
				c-16.508,0.752-31.525,3.584-43.54,9.405c-35.194,17.039-73.502,25.809-112.333,28.026c15.564,15.967,25.388,53.25,32.69,70.979
				c12.166,29.517,22.742,59.675,30.506,90.653c15.309,61.091,19.19,127.796-4.64,187.158
				c-24.952,62.172-75.255,108.887-118.595,158.222C2990.86,4788.82,2969.698,4814.662,2954.141,4843.916z"/>
			<path id="_x31_80610858_1_" fill="#62D09F" stroke="#000000" d="M2975.86,4442.522c32.775,61.068,64.956,140.646,25.346,206.084
				c-21.923,36.215-68.182,50.556-87.88,84.446c-19.479,33.498-6.363,89.751,0.244,125.492c3.741,20.2,9.435,39.86,16.646,58.94
				c6.623-24.968,11.245-49.733,23.922-73.569c15.56-29.25,36.722-55.094,58.499-79.882c43.34-49.337,93.643-96.05,118.595-158.22
				c23.829-59.364,19.948-126.069,4.639-187.16c-7.763-30.979-18.341-61.137-30.505-90.653
				c-7.305-17.728-17.128-55.011-32.69-70.979c-29.506,1.68-59.316-0.417-88.285-5.563c-22.318-3.957-66.629-18.406-83.014,2.771
				c-17.281,22.351,12.327,68.232,21.089,90.919C2935.725,4379.484,2958.518,4410.2,2975.86,4442.522z"/>
			<path id="_x31_80610854_1_" fill="#6ACBBA" stroke="#000000" d="M1297.012,3814.165c2.023,15.615,13.193,61.005,17.928,73.866
				c25.51,69.3,67.076,101.845,54.495,88.711c-7.827-8.17-20.313-26.146-25.698-43.713c-2.713-8.849-2.821-17.913,9.029-23.179
				c25.52-11.326,73.537,19.26,94.464,30.009c33.94,17.445,66.684,36.89,99.268,56.7c50.849,30.905,97.722,61.984,140.805,103.379
				c37.338,35.873,71.1,74.998,105.784,113.391c24.833,27.485,48.717,55.818,72.168,84.481
				c79.919,97.693,158.362,196.615,236.278,295.899c41.741,53.181,91.17,115.98,84.696,187.787
				c-0.289,3.234-0.659,6.425-1.064,9.561c-1.8,13.746-9.024,39.706-24.683,45.016c-14.815,5.035-28.124-5.414-38.079-16.422
				c5.363,8.078,10.824,16.033,16.87,23.324c0.622,0.742,65.308,72.448,96.188,106.819c6.898,6.463,27.065,24.819,25.904,26.315
				c9.288-11.873,11.1-32.575,14.597-46.925c12.976-53.168,12.319-106.614,16.885-160.691c1.87-22.086,3.305-44.291,4.703-66.544
				c-84.151-18.684-141.769-110.11-164.596-183.806c-9.392-30.309-24.37-58.744-37.377-88.289
				c-28.282-64.201-51.769-130.385-72.616-197.358c-21.903-70.378-64.518-138.417-128.876-177.185
				c-69.882-42.091-155.881-30.064-228.808-64.527c-89.718-42.409-156.337-143.657-145.77-244.64
				c10.411-99.374,91.401-123.318,162.41-171.831c17.121-11.698,52.51-37.842,73.807-51.727c-1.448-1.096-2.846-2.181-4.158-3.245
				c-27.738-22.471-87.02-66.36-93.336-73.607c-47.989,26.738-95.62,51.839-143.104,79.893
				c-35.349,20.89-70.431,36.935-108.032,55.642c-47.702,23.734-89.325,45.074-108.802,88.328
				C1283.162,3703.198,1290.078,3760.729,1297.012,3814.165z"/>
			<path id="_x31_80610857_1_" fill="#6ACBBA" stroke="#000000" d="M2297.674,3034.213c16.498,93.332,59.978,175.855,94.785,262.512
				c96.788-54.871,205.95-91.001,303.467-146.682c35.232-20.116,67.64-44.525,104.615-61.728
				c17.141-7.972,40.419-20.095,60.031-18.074c18.634,1.919,31.607,16.491,49.354,14.57c-19.188-13.37-34.401-24.142-41.806-28.646
				c-79.523-48.352-163.744-97.342-258.758-103.977c-86.957-6.074-177.584,8.536-254.225,51.529
				C2340.906,3011.703,2297.673,3034.215,2297.674,3034.213z"/>
			<path id="_x31_80610853_1_" fill="#6ACBBA" stroke="#000000" d="M2297.548,4701.944c3.269-52.091,6.321-104.437,14.183-156.127
				c3.96-26.037,6.75-52.637,12.214-78.355c12.129-57.097,28.085-115.428,46.731-171.934
				c-58.496-34.326-90.961-189.64-109.561-247.694c-26.633-83.119-45.254-196.713-76.678-277.801
				c-62.887-7.782-113.886-22.459-111.466-57.757l6.814-22.592c-114.699-41.966-146.116-56.205-224.008-105.445
				c-25.943-16.401-73.699-41.681-100.054-61.654c-21.297,13.886-56.686,40.029-73.809,51.726
				c-71.007,48.513-151.997,72.457-162.408,171.831c-10.567,100.982,56.049,202.23,145.77,244.64
				c72.929,34.463,158.924,22.437,228.808,64.527c64.359,38.77,106.973,106.811,128.875,177.185
				c20.849,66.974,44.333,133.159,72.617,197.36c13.007,29.547,27.985,57.982,37.378,88.287
				C2155.785,4591.838,2213.397,4683.263,2297.548,4701.944z"/>
			<path id="_x31_80610856_1_" fill="#6ACBBA" stroke="#000000" d="M2695.924,3150.045
				c-97.517,55.681-206.679,91.811-303.467,146.68c4.189,10.424,8.257,20.903,12.13,31.472
				c21.67,59.103,44.339,117.581,69.381,175.039c35.131-11.237,65.374-25.313,96.781-46.357
				c78.444-52.559,135.997-129.186,210.189-186.785c33.676-26.144,71.201-47.812,113.521-55.404
				c28.16-5.05,102.858-7.074,126.378,19.4c21.317-19.824,39.832-45.053,65.981-58.02c-25.505,12.644-119.184-51.051-176.893-91.255
				c-17.748,1.92-30.722-12.651-49.355-14.572c-19.612-2.021-42.889,10.103-60.029,18.075
				C2763.564,3105.519,2731.156,3129.928,2695.924,3150.045z"/>
			<path id="_x31_80610852_1_" fill="#6ACBBA" stroke="#000000" d="M2370.676,4295.537c7.004-21.219,14.374-42.188,22.083-62.727
				c11.782-31.402,54.445-141.546,68.563-164.472l22.045-43.188c-13.084-65.024-17.065-134.455-50.101-193.235
				c-7.763-13.801-18.209-25.911-32.68-35.222c-28.165-18.154-132.638-16.323-216.152-26.654
				c31.427,81.086,50.046,194.682,76.679,277.801C2279.715,4105.893,2312.18,4261.205,2370.676,4295.537z"/>
			<path id="_x31_80610855_1_" fill="#6ACBBA" stroke="#000000" d="M2570.75,3456.878c-31.408,21.045-61.65,35.12-96.781,46.357
				c16.817,38.588,34.691,76.721,54.092,114.263c28.365-5.297,58.641-9.939,84.772-22.973c14.058-7.006,28.079-14.293,43.002-18.348
				c26.927-7.311,47.721-42.588,65.496-62.658c20.328-22.963,40.418-46.147,61.162-68.729
				c71.979-78.315,159.249-138.141,237.314-209.746c0.346-0.314,0.688-0.636,1.029-0.956
				c-23.519-26.475-98.216-24.45-126.376-19.399c-42.321,7.592-79.847,29.26-113.521,55.402
				C2706.748,3327.694,2649.195,3404.321,2570.75,3456.878z"/>
			<path id="_x31_80610904_1_" fill="#CCCCCC" stroke="#000000" d="M1391.122,4001.381c14.914,15.566,29.732,31.142,44.498,46.743
				c5.769,5.992,11.646,12.19,17.629,18.668c21.766,23.108,43.437,46.298,65.106,69.657c34.92,37.644,74.675,80.093,95.029,101.754
				c0.059,0.064,0.119,0.125,0.176,0.188c30.205,31.521,60.453,63.351,90.563,95.421c47.224,49.679,93.227,98.52,141.524,152.852
				c57.335,64.509,123.166,142.197,169.841,199.316c11.294,13.579,22.588,27.182,33.904,40.803
				c4.671,5.568,9.327,11.162,13.964,16.793c11.461,13.771,22.958,27.561,34.525,41.355c8.979,10.716,16.642,22.851,24.52,34.72
				c9.955,11.008,23.262,21.453,38.079,16.422c15.658-5.31,22.885-31.267,24.683-45.016c0.405-3.136,0.773-6.326,1.064-9.561
				c6.474-71.809-42.955-134.604-84.696-187.787c-77.916-99.286-156.359-198.208-236.278-295.899
				c-23.451-28.665-47.336-56.994-72.168-84.481c-34.685-38.393-68.446-77.514-105.786-113.392
				c-43.081-41.394-89.956-72.473-140.803-103.378c-32.581-19.809-65.327-39.259-99.269-56.7
				c-20.926-10.753-68.943-41.339-94.463-30.009C1319.16,3924.783,1379.029,3988.758,1391.122,4001.381z"/>
			<path id="_x31_80610905_1_" fill="#CCCCCC" stroke="#000000" d="M2520.217,4127.004c21.315,33.77,52.622,60.238,76.34,92.284
				c19.416,26.244,40.302,60.085,74.211,68.54c41.237,10.287,48.893-52.875,51.52-80.847c8.991-96.118,15.242-209.28-39.653-293.925
				c-14.876-22.924-34.63-25.67-51.702-42.799c-19.122-19.179-26.121-47.438-21.548-73.475c5.025-28.514,7.111-59.959,24.848-84.112
				c18.339-24.957,42.292-44.392,67.526-61.975c17.603-12.268,69.859-48.7,37.419-73.256
				c-35.206-26.636-114.837,11.758-149.368,24.399c-71.261,26.09-131.455,11.682-206.035,16.897
				c-62.097,4.346-304.215-1.767-310.805,93.543c-5.634,82.174,278.244,52.589,327.616,84.411
				c14.473,9.311,24.917,21.422,32.683,35.222C2484.674,3923.386,2465.726,4040.662,2520.217,4127.004z"/>
			<path id="_x31_80610903_1_" fill="#AAAAAA" stroke="#000000" d="M2659.354,3880.973c49.801,10.663,44.047-37.903,51.53-76.428
				c9.569-49.224,24.365-97.354,32.6-146.855c10.331-62.146-99.671,29.121-115.491,64.552
				C2608.104,3766.774,2584.09,3864.86,2659.354,3880.973z"/>
		</g>
	</g>
</g>
</svg>
