<?xml version="1.0" encoding="utf-8"?>
<!-- Generator: Adobe Illustrator 16.0.0, SVG Export Plug-In . SVG Version: 6.00 Build 0)  -->
<!DOCTYPE svg PUBLIC "-//W3C//DTD SVG 1.1//EN" "http://www.w3.org/Graphics/SVG/1.1/DTD/svg11.dtd">
<svg version="1.1" id="Layer_1" xmlns="http://www.w3.org/2000/svg" xmlns:xlink="http://www.w3.org/1999/xlink" x="0px" y="0px"
	 width="4288px" height="4032px" viewBox="0 0 4288 4032" enable-background="new 0 0 4288 4032" xml:space="preserve">
<g>
	<g>
		<path id="_x31_80606854" fill="#BFDAE3" stroke="#000000" d="M3849.197,3037.152c-61.262,57.496-126.352,109.15-175.07,149.384
			c-169.911,140.271-419.996,205.095-635.954,204.759c-254.527-0.408-445.354-139.603-605.338-328.607
			c-150.711-178.059-247.387-386.46-282.245-616.87c-15.302-101.183-2.114-213.848,20.709-313.896
			c20.532-90.048,37.069-170.85,62.432-258.865c23.173-80.403,40.123-195.755,97.734-356.846
			c105.6-295.29,196.393-667.967,512.186-811.965c143.416-65.397,287.53-91.456,432.979-23.985
			c170.104,78.906,324.271,154.131,454.837,293.407c295.27,314.965,413.338,806.673,304.934,1225.756
			c-12.555,48.569-31.348,102.313-34.641,152.604c-9.605,146.737,63.016,292.157,22.723,442.762
			C4002.402,2877.295,3929.058,2962.194,3849.197,3037.152z"/>
		<path id="_x31_80606855" fill="#B0FFB8" stroke="#000000" d="M4001.76,2352.027c3.293-50.292,22.086-104.034,34.641-152.604
			c108.404-419.083-9.664-910.791-304.934-1225.756c-130.566-139.276-284.733-214.5-454.837-293.407
			c-145.449-67.471-289.564-41.413-432.979,23.985c-315.794,143.998-406.586,516.676-512.186,811.965
			c-57.613,161.091-74.563,276.442-97.734,356.846c-25.363,88.015-41.898,168.818-62.432,258.865
			c-22.823,100.047-36.012,212.713-20.709,313.896c34.857,230.41,131.533,438.812,282.244,616.87
			c159.984,189.006,350.812,328.199,605.338,328.607c215.959,0.336,466.043-64.488,635.955-204.759
			c48.72-40.232,113.81-91.888,175.069-149.384c79.861-74.958,153.206-159.857,175.286-242.363
			C4064.775,2644.185,3992.154,2498.765,4001.76,2352.027z M3161.107,1764.713c-21.967,68.926-46.19,137.633-76.589,203.334
			c-13.771,29.767-25.325,61.429-37.049,92.076c-5.979,15.619-8.074,46.35-23.002,56.053c-9.038-24.519,5.38-60.57,13.099-83.541
			c9.969-29.688,17.438-60.032,27.566-89.701c27.687-81.055,46.207-172.771,32.881-257.708c-5.752-36.712,3.439-59.912,19.84-91.333
			c12.654-24.232,26.465-16.515,37.21,4.6C3183.002,1653.393,3179.32,1707.597,3161.107,1764.713z"/>
		<path id="_x31_80606856" fill="#9AD2BD" stroke="#000000" d="M4001.76,2352.027c3.293-50.292,22.086-104.034,34.641-152.604
			c108.404-419.083-9.664-910.791-304.934-1225.756c-130.566-139.276-284.733-214.5-454.837-293.407
			c-145.449-67.471-289.564-41.413-432.979,23.985c-315.794,143.998-406.586,516.676-512.186,811.965
			c-42.745,119.521-62.919,236.052-97.734,356.846c-25.363,88.015-41.843,162.27-62.378,252.314
			c-22.823,100.053-36.064,219.264-20.763,320.445c34.857,230.41,131.533,438.813,282.244,616.87
			c159.984,189.006,350.812,328.199,605.338,328.606c215.959,0.338,466.043-64.487,635.955-204.758
			c48.72-40.232,113.81-91.888,175.069-149.384c79.861-74.958,153.206-159.856,175.286-242.363
			C4064.775,2644.185,3992.154,2498.765,4001.76,2352.027z M3161.107,1764.713c-21.967,68.926-46.19,137.633-76.589,203.334
			c-13.771,29.767-25.325,61.429-37.049,92.076c-5.979,15.619-8.074,46.35-23.002,56.053c-9.038-24.519,5.38-60.57,13.099-83.541
			c9.969-29.688,17.438-60.032,27.566-89.701c27.687-81.055,46.207-172.771,32.881-257.708c-5.752-36.712,3.439-59.912,19.84-91.333
			c12.654-24.232,26.465-16.515,37.21,4.6C3183.002,1653.393,3179.32,1707.597,3161.107,1764.713z"/>
		<path id="_x31_80606857" fill="#9AD2BD" stroke="#000000" d="M4001.76,2352.027c3.293-50.292,22.086-104.034,34.641-152.604
			c108.404-419.083-9.664-910.791-304.934-1225.756c-130.566-139.276-284.733-214.5-454.837-293.407
			c-145.449-67.471-289.564-41.413-432.979,23.985c-315.794,143.998-406.586,516.676-512.186,811.965
			c-42.745,119.521-62.919,236.052-97.734,356.846c-25.363,88.015-41.898,168.818-62.432,258.865
			c-22.823,100.047-36.012,212.713-20.709,313.896c34.857,230.41,131.533,438.812,282.244,616.87
			c159.984,189.006,350.812,328.199,605.338,328.607c215.959,0.336,466.043-64.488,635.955-204.759
			c48.72-40.232,113.81-91.888,175.069-149.384c79.861-74.958,153.206-159.857,175.286-242.363
			C4064.775,2644.185,3992.154,2498.765,4001.76,2352.027z M3161.107,1764.713c-21.967,68.926-46.19,137.633-76.589,203.334
			c-13.771,29.767-25.325,61.429-37.049,92.076c-5.979,15.619-8.074,46.35-23.002,56.053c-9.038-24.519,5.38-60.57,13.099-83.541
			c9.969-29.688,17.438-60.032,27.566-89.701c27.687-81.055,46.207-172.771,32.881-257.708c-5.752-36.712,3.439-59.912,19.84-91.333
			c12.654-24.232,26.465-16.515,37.21,4.6C3183.002,1653.393,3179.32,1707.597,3161.107,1764.713z"/>
		<path id="_x31_80606858" fill="#82C7AE" stroke="#000000" d="M2669.672,836.89c-46.264,74.433-81.605,154.914-106.962,238.793
			c-43.345,143.373-95.328,278.201-98.742,429.956c-4.854,215.843-32.444,439.368-81.904,649.167
			c-10.825,45.96-28.196,87.18-25.803,135.196c2.654,52.923,15.843,105.068,23.69,157.364
			c21.806,145.358,18.106,271.214,85.188,406.458c37.308,75.21,68.798,145.335,124.091,210.459
			c40.204,47.356,87.182,72.835,138.008,105.512c63.781,41.013,133.89,91.537,208.455,111.407
			c64.851,17.291,159.789-31.604,211.198-69.125c65.213-47.587,122.537-106.646,162.733-177.026
			c24.199-42.355,31.175-93.508,59.93-131.309c31.74-41.727,73.968-74.902,91.646-126.014c14.57-42.121,27.273-85.295,53.416-122.08
			c47.42-66.764,110.108-116.852,172.571-168.563c56.847-47.062,81.67-120.482,128.088-177.598
			c75.02-92.326,105.927-212.076,148.112-321.151c17.703-45.771,35.721-93.123,39.443-142.481
			c3.357-44.396-13.643-86.509-10.689-132.041c5.844-90.024,1.725-189.119-13.965-277.78
			c-26.701-150.875-104.571-294.401-202.581-412.375c-0.697-0.837-1.394-1.674-2.093-2.509c-0.838-1.002-1.678-2.002-2.52-3.001
			c-12.795-15.169-25.964-29.994-39.51-44.443c-130.571-139.267-284.736-214.489-454.841-293.392
			c-145.442-67.469-289.56-41.413-432.972,23.981c-51.386,23.432-96.809,52.923-137.313,87.145
			C2692.514,805.07,2680.107,820.105,2669.672,836.89z M2854.721,831.218c29.087-12.562,65.989-12.941,93.458-27.389
			c18.464-9.709,30.899-29.346,49.177-40.888c53.578-33.828,86.622-15.243,142.441-5.134
			c55.285,10.017,111.146-26.854,160.007,15.58c26.158,22.715,35.552,58.465,58.861,83.592
			c25.315,27.279,52.551,54.383,78.691,81.954c27.479,28.978,68.167,31.793,99.624,55.884
			c33.278,25.487,55.164,63.664,83.701,93.827c22.679,23.97,39.938,55.973,67.947,73.223c27.542,16.963,54.048,8.258,67.261,44.473
			c7.146,19.563,7.524,36.377,9.409,52.09c2.088,17.396,6.027,33.444,23.06,50.391c32.081,31.923,50.311,29.653,56.677,80.631
			c9.5,75.963,19.127,151.472,31.118,226.754c14.378,90.287,21.498,184.409-13.688,270.4
			c-34.362,83.977-65.555,190.449-138.081,250.917c-44.524,37.118-91.824,69.959-134.392,109.451
			c-41.134,38.153-49.701,83.333-81.693,125.771c-39.299,52.144-106.963,61.338-141.607,118.067
			c-41.345,67.687-49.905,149.493-72.188,224.092c-25.746,86.227-77.899,161.067-122.772,238.018
			c-33.853,58.036-75.294,121.332-135.709,154.188c-91.719,49.873-122.149,12.63-205.445-23.738
			c-35.018-15.291-67.916-11.129-100.83-18.141c-9.102-37.319-40.898-62.39-72.932-82.306
			c-41.798-25.996-63.287-26.81-73.959-80.931c-14.078-71.293-71.144-122.613-89.203-187.051
			c-17.938-63.979,20.195-138.219,17.129-203.683c-3.487-74.382-49.42-117.882-38.384-194.602
			c11.449-79.534,40.293-162.661,77.706-233.627c32.428-61.495,68.999-121.125,68.237-194.062
			c-1.155-112.44-20.041-223.513-6.002-336.459c11.479-92.399,22.8-171.429,21.278-266.125
			c-0.623-39.623,15.655-55.821,25.082-92.894c7.993-31.369-5.454-60.513,6.464-91.558c11.968-31.215,44.484-46.374,58.879-75.606
			C2755.145,963.134,2781.562,862.797,2854.721,831.218z"/>
		<path id="_x31_80606862" fill="#82C7AE" stroke="#000000" d="M2845.011,1390.16c0.979-154.918,78.807-396.617,275.554-365.474
			c138.268,21.897,231.984,141.799,288.499,258.932c42.931,88.974,83.669,175.887,131.041,262.208
			c37.542,68.417,82.164,160.036,69.72,240.02c-12.638,81.147-56.037,155.687-124.252,202.243
			c-64.842,44.251-141.445,78.582-199.449,131.521c-47.753,43.574-92.585,91.153-123.792,148.255
			c-34.944,63.951-50.155,135.492-80.271,201.555c-18.553,40.71-27.849,81.529-34.239,125.697
			c-13.658,94.479-20.818,195.146-88.679,270.142c-56.952,62.933-165.379,19.27-218.682-26.254
			c-58.805-50.232-64.478-149.207-69.242-221.231c-6.142-92.779-10.139-161.549,20.906-249.744
			c44.104-125.316,135.37-227.422,176.626-354.145c19.095-58.676,25.35-118.801,29.814-179.903
			c7.492-102.69-21.117-203.464-39.396-305.001C2850.885,1482.947,2844.728,1436.759,2845.011,1390.16z M3098.007,1685.193
			c13.326,84.943-5.194,176.659-32.882,257.71c-10.13,29.67-17.59,60.011-27.565,89.708c-7.719,22.97-22.137,59.02-13.106,83.543
			c14.936-9.705,17.031-40.436,23.011-56.059c11.724-30.645,23.277-62.312,37.049-92.07c30.397-65.707,54.622-134.42,76.597-203.344
			c18.205-57.118,21.887-111.323-6.052-166.226c-10.745-21.113-24.557-28.832-37.211-4.6
			C3101.445,1625.276,3092.254,1648.48,3098.007,1685.193z"/>
		<path id="_x31_80606861" fill="#9AD2BD" stroke="#000000" d="M2850.617,2936.361c101.064,25.652,170.672-43.343,202.711-133.671
			c20.858-58.753,22.437-122.108,30.754-183.386c17.227-126.84,74.986-249.57,145.104-355.688
			c23.367-35.37,52.324-67.843,92.617-96.287c57.373-40.512,118.347-73.636,174.716-115.592
			c63.927-47.571,111.146-109.43,142.651-182.82c22.882-53.303,10.3-95.247,11.102-151.54
			c0.736-52.068-4.046-107.574-18.003-157.863c-10.202-36.74-34.969-61.527-52.396-94.861
			c-49.008-93.669-93.119-189.1-164.563-268.637c-49.322-54.906-102.957-105.969-158.565-154.453
			c-31.498-27.461-63.968-63.454-106.023-73.629c-221.264-53.5-333.824,193.371-334.65,372.967
			c-0.307,67.01,12.623,134.913,17.582,202.113c8.303,112.278,25.002,220.164,27.606,332.968
			c2.71,117.643-57.567,224.083-114.552,322.866c-55.277,95.83-100.708,199.011-105.094,311.692
			c-4.19,107.57-8.925,207.813,41.216,306.284C2715.619,2881.205,2782.687,2919.131,2850.617,2936.361z M2692.124,2368.027
			c44.104-125.316,135.37-227.422,176.626-354.146c19.095-58.676,25.349-118.8,29.814-179.902
			c7.492-102.69-21.117-203.464-39.396-305.001c-8.285-46.03-14.442-92.217-14.159-138.817
			c0.979-154.918,78.807-396.616,275.554-365.474c138.268,21.897,231.984,141.799,288.499,258.932
			c42.932,88.974,83.669,175.886,131.041,262.208c37.542,68.417,82.164,160.036,69.721,240.02
			c-8.754,56.184-37.519,111.817-73.15,155.768c-49.638,61.225-138.258,97.957-202.306,141.984
			c-80.287,55.195-153.21,123.562-189.636,215.977c-22.291,56.572-37.252,114.079-62.674,169.846
			c-18.553,40.711-27.849,81.529-34.24,125.697c-13.657,94.479-20.817,195.146-88.678,270.143
			c-56.951,62.932-165.379,19.269-218.682-26.255c-58.805-50.232-64.477-149.206-69.242-221.231
			C2665.076,2524.992,2661.078,2456.223,2692.124,2368.027z"/>
		<path id="_x31_80606860" fill="#82C7AE" stroke="#000000" d="M3445.691,2116.92c-85.926,58.604-164.9,121.341-224.953,210.955
			c-77.485,115.612-104.681,273.742-125.636,408.664c-7.938,51.095-25.269,111.672-56.338,153.685
			c-54.84,74.162-163.129,79.19-245.673,57.005c-111.138-29.876-161.002-155.594-179.134-260.044
			c-8.666-49.873-4.401-98.419-1.716-148.627c7.815-145.569,47.906-263.2,126.404-387.058
			c36.231-57.175,74.606-112.254,88.321-179.784c14.49-71.326,6.035-141.358,4.215-213.161
			c-3.438-135.562-48.196-266.187-50.858-401.754c-2.387-121.354,41.968-254.656,124.22-345.098
			c64.057-70.428,201.942-95.65,285.789-47.319c99.486,57.345,174.457,147.203,257.817,224.313
			c39.855,36.871,60.908,93.256,89.356,139.392c37.137,60.221,81.557,121.931,113.354,184.401
			c50.074,98.383,55.989,239.917,29.491,346.12c-15.43,61.855-58.878,122.234-100.725,169.397
			C3546.044,2065.849,3488.145,2087.965,3445.691,2116.92z M3321.803,2167.33c57.373-40.512,118.347-73.636,174.716-115.592
			c63.927-47.571,111.146-109.43,142.651-182.82c22.882-53.303,10.3-95.247,11.102-151.54
			c0.736-52.068-4.045-107.573-18.002-157.862c-10.202-36.741-34.97-61.528-52.396-94.862
			c-49.007-93.669-93.119-189.1-164.563-268.638c-49.322-54.905-102.957-105.968-158.566-154.452
			c-31.498-27.462-63.967-63.454-106.023-73.628c-221.264-53.502-333.823,193.37-334.649,372.966
			c-0.307,67.01,12.622,134.913,17.582,202.112c8.302,112.279,25.001,220.164,27.606,332.969
			c2.709,117.643-57.567,224.083-114.553,322.867c-55.277,95.828-100.708,199.01-105.094,311.691
			c-4.189,107.57-8.924,207.813,41.216,306.284c32.792,64.38,99.858,102.307,167.79,119.536
			c101.064,25.651,170.671-43.344,202.711-133.672c20.858-58.752,22.437-122.108,30.754-183.386
			c17.227-126.839,74.986-249.569,145.104-355.688C3252.553,2228.247,3281.51,2195.774,3321.803,2167.33z"/>
		<path id="_x31_80606859" fill="#9AD2BD" stroke="#000000" d="M2665.165,1101.938c-11.918,31.045,1.528,60.188-6.464,91.558
			c-9.428,37.073-25.705,53.271-25.082,92.894c1.521,94.696-9.8,173.726-21.279,266.125
			c-14.038,112.945,4.847,224.019,6.003,336.459c0.761,72.937-35.812,132.566-68.238,194.062
			c-37.413,70.966-66.257,154.093-77.706,233.627c-11.036,76.72,34.896,120.22,38.384,194.602
			c3.066,65.464-35.065,139.702-17.129,203.683c18.061,64.438,75.125,115.758,89.203,187.051
			c10.672,54.121,32.161,54.935,73.959,80.931c32.032,19.916,63.83,44.985,72.932,82.306c32.914,7.011,65.813,2.85,100.83,18.141
			c83.296,36.368,113.728,73.611,205.445,23.738c60.415-32.856,101.856-96.152,135.709-154.188
			c44.873-76.949,97.027-151.791,122.772-238.018c22.281-74.599,30.843-156.405,72.188-224.092
			c34.646-56.729,102.311-65.925,141.607-118.067c31.991-42.438,40.561-87.616,81.693-125.771
			c42.566-39.492,89.866-72.333,134.392-109.451c72.526-60.468,103.719-166.939,138.081-250.917
			c35.188-85.99,28.066-180.113,13.688-270.4c-11.991-75.282-21.618-150.792-31.118-226.754
			c-6.366-50.978-24.596-48.707-56.677-80.631c-17.03-16.946-20.972-32.995-23.06-50.391c-1.885-15.713-2.266-32.526-9.409-52.09
			c-13.213-36.215-39.719-27.509-67.261-44.473c-28.012-17.25-45.27-49.253-67.947-73.223
			c-28.537-30.163-50.423-68.34-83.701-93.827c-31.457-24.091-72.146-26.907-99.624-55.884
			c-26.142-27.57-53.376-54.675-78.691-81.954c-23.311-25.126-32.703-60.876-58.861-83.592
			c-48.861-42.433-104.722-5.563-160.007-15.58c-55.819-10.109-88.863-28.694-142.441,5.134
			c-18.277,11.542-30.713,31.18-49.177,40.889c-27.469,14.446-64.371,14.826-93.458,27.388
			c-73.159,31.579-99.576,131.916-130.678,195.114C2709.649,1055.564,2677.132,1070.724,2665.165,1101.938z M2738.647,2151.5
			c36.231-57.175,74.606-112.254,88.321-179.784c14.49-71.326,6.035-141.358,4.215-213.161
			c-3.438-135.562-48.197-266.187-50.858-401.754c-2.388-121.354,41.968-254.656,124.22-345.098
			c64.057-70.428,201.941-95.65,285.789-47.319c99.486,57.345,174.457,147.203,257.818,224.313
			c39.854,36.871,60.907,93.256,89.355,139.392c37.137,60.221,81.557,121.931,113.354,184.401
			c50.075,98.383,55.99,239.917,29.492,346.12c-15.43,61.855-58.878,122.234-100.725,169.397
			c-33.585,37.841-91.484,59.958-133.938,88.91c-85.926,58.604-164.901,121.342-224.952,210.957
			c-77.486,115.611-104.682,273.741-125.637,408.664c-7.938,51.094-25.269,111.67-56.338,153.684
			c-54.84,74.162-163.129,79.189-245.673,57.005c-111.138-29.876-161.002-155.594-179.134-260.044
			c-8.666-49.873-4.401-98.419-1.717-148.627C2620.059,2392.987,2660.149,2275.356,2738.647,2151.5z"/>
		<path id="_x31_80606864" fill="#CCCCCC" stroke="#000000" d="M4001.766,2352.034c3.301-50.3,22.088-104.034,34.646-152.607
			c102.828-397.52,1.863-860.383-260.813-1175.767c98.01,117.975,175.881,261.5,202.582,412.375
			c15.688,88.661,19.807,187.756,13.965,277.78c-2.953,45.532,14.045,87.646,10.688,132.041
			c-3.721,49.359-21.74,96.711-39.443,142.482c-42.186,109.075-73.093,228.825-148.111,321.151
			c-46.418,57.113-71.24,130.535-128.088,177.598c-62.463,51.713-125.15,101.801-172.572,168.563
			c-26.142,36.785-38.845,79.959-53.416,122.08c-17.679,51.111-59.905,84.288-91.646,126.014
			c-28.755,37.802-35.729,88.952-59.93,131.31c-40.196,70.379-97.521,129.438-162.733,177.026
			c-51.41,37.521-146.349,86.416-211.197,69.125c-74.566-19.871-144.675-70.396-208.455-111.408
			c-50.827-32.676-97.805-58.154-138.009-105.512c-55.293-65.123-86.782-135.248-124.091-210.459
			c-67.082-135.243-63.384-261.1-85.189-406.457c-7.848-52.297-21.035-104.442-23.689-157.365
			c-2.395-48.018,14.977-89.236,25.803-135.196c49.46-209.799,77.051-433.325,81.904-649.167
			c3.414-151.755,55.398-286.583,98.742-429.956c25.355-83.879,60.697-164.36,106.962-238.793
			c10.436-16.785,22.842-31.819,36.682-45.449c-208.412,176.091-286.456,477.568-374.868,724.802
			c-57.113,159.708-86.468,324.071-130.394,487.393c-32.606,121.191-54.437,262.205-52.025,388.45
			c4.661,242.756,129.715,488.569,283.791,670.583c159.981,189.005,350.808,328.193,605.332,328.604
			c215.956,0.336,466.039-64.486,635.949-204.754c48.716-40.234,113.807-91.883,175.071-149.38
			c79.857-74.957,153.201-159.854,175.281-242.354C4064.785,2644.181,3992.16,2498.765,4001.766,2352.034z"/>
		<path id="_x31_80606863" fill="#AAAAAA" stroke="#000000" d="M3117.854,1593.893c12.654-24.232,26.465-16.515,37.21,4.6
			c27.938,54.9,24.257,109.104,6.044,166.221c-21.967,68.926-46.19,137.633-76.589,203.333
			c-13.771,29.768-25.325,61.43-37.049,92.077c-5.979,15.619-8.074,46.35-23.002,56.053c-9.038-24.519,5.38-60.57,13.099-83.541
			c9.969-29.688,17.438-60.033,27.566-89.701c27.687-81.055,46.207-172.771,32.881-257.709
			C3092.262,1648.514,3101.453,1625.314,3117.854,1593.893z"/>
	</g>
	<g>
		<path id="_x31_80606854_1_" fill="#BFDAE3" stroke="#000000" d="M263.518,2794.789c-40.293-150.604,32.327-296.024,22.722-442.762
			c-3.293-50.291-22.085-104.034-34.64-152.604c-108.404-419.083,9.664-910.791,304.934-1225.756
			C687.1,834.392,841.266,759.167,1011.371,680.261c145.449-67.471,289.563-41.412,432.979,23.985
			c315.793,143.998,406.586,516.676,512.186,811.965c57.611,161.091,74.562,276.442,97.734,356.846
			c25.362,88.015,41.899,168.817,62.432,258.865c22.823,100.048,36.011,212.713,20.709,313.896
			c-34.858,230.41-131.534,438.812-282.245,616.87c-159.983,189.005-350.811,328.199-605.338,328.607
			c-215.958,0.336-466.043-64.488-635.954-204.759c-48.719-40.233-113.809-91.888-175.07-149.384
			C358.943,2962.194,285.598,2877.295,263.518,2794.789z"/>
		<path id="_x31_80606855_1_" fill="#B0FFB8" stroke="#000000" d="M263.518,2794.789c22.08,82.506,95.425,167.405,175.286,242.363
			c61.26,57.496,126.35,109.151,175.069,149.384c169.912,140.271,419.996,205.095,635.955,204.759
			c254.526-0.408,445.354-139.602,605.338-328.607c150.711-178.059,247.387-386.46,282.244-616.87
			c15.303-101.183,2.114-213.849-20.709-313.896c-20.533-90.047-37.068-170.851-62.432-258.865
			c-23.171-80.403-40.121-195.755-97.734-356.846c-105.6-295.289-196.392-667.967-512.186-811.965
			c-143.415-65.398-287.53-91.456-432.979-23.985C841.267,759.168,687.1,834.392,556.534,973.668
			C261.264,1288.633,143.196,1780.34,251.6,2199.424c12.555,48.569,31.347,102.312,34.64,152.604
			C295.846,2498.765,223.225,2644.185,263.518,2794.789z M1132.937,1598.492c10.745-21.114,24.556-28.832,37.21-4.6
			c16.4,31.421,25.592,54.621,19.84,91.333c-13.326,84.937,5.194,176.653,32.881,257.708c10.129,29.669,17.598,60.013,27.566,89.701
			c7.719,22.971,22.137,59.022,13.099,83.541c-14.928-9.703-17.022-40.434-23.002-56.053c-11.724-30.646-23.278-62.31-37.049-92.076
			c-30.398-65.701-54.622-134.408-76.589-203.334C1108.68,1707.597,1104.999,1653.393,1132.937,1598.492z"/>
		<path id="_x31_80606856_1_" fill="#9AD2BD" stroke="#000000" d="M263.518,2794.788c22.08,82.507,95.425,167.405,175.286,242.363
			c61.26,57.496,126.35,109.151,175.069,149.384c169.912,140.271,419.996,205.096,635.955,204.758
			c254.526-0.407,445.354-139.601,605.338-328.606c150.711-178.058,247.387-386.46,282.244-616.87
			c15.301-101.182,2.061-220.393-20.763-320.445c-20.535-90.044-37.015-164.3-62.378-252.314
			c-34.815-120.794-54.989-237.325-97.734-356.846c-105.6-295.289-196.392-667.967-512.186-811.965
			c-143.415-65.398-287.53-91.456-432.979-23.985C841.267,759.168,687.1,834.392,556.534,973.668
			C261.264,1288.633,143.196,1780.34,251.6,2199.424c12.555,48.569,31.347,102.312,34.64,152.604
			C295.846,2498.765,223.225,2644.185,263.518,2794.788z M1132.937,1598.492c10.745-21.114,24.556-28.832,37.21-4.6
			c16.4,31.421,25.592,54.621,19.84,91.333c-13.326,84.937,5.194,176.653,32.881,257.708c10.129,29.669,17.598,60.013,27.566,89.701
			c7.719,22.971,22.137,59.022,13.099,83.541c-14.928-9.703-17.022-40.434-23.002-56.053c-11.724-30.646-23.278-62.31-37.049-92.076
			c-30.398-65.701-54.622-134.408-76.589-203.334C1108.68,1707.597,1104.999,1653.393,1132.937,1598.492z"/>
		<path id="_x31_80606857_1_" fill="#9AD2BD" stroke="#000000" d="M263.518,2794.789c22.08,82.506,95.425,167.405,175.286,242.363
			c61.26,57.496,126.35,109.151,175.069,149.384c169.912,140.271,419.996,205.095,635.955,204.759
			c254.526-0.408,445.354-139.602,605.338-328.607c150.711-178.059,247.387-386.46,282.244-616.87
			c15.303-101.183,2.114-213.849-20.709-313.896c-20.533-90.047-37.068-170.851-62.432-258.865
			c-34.815-120.794-54.989-237.325-97.734-356.846c-105.6-295.289-196.392-667.967-512.186-811.965
			c-143.415-65.398-287.53-91.456-432.979-23.985C841.267,759.168,687.1,834.392,556.534,973.668
			C261.264,1288.633,143.196,1780.34,251.6,2199.424c12.555,48.569,31.347,102.312,34.64,152.604
			C295.846,2498.765,223.225,2644.185,263.518,2794.789z M1132.937,1598.492c10.745-21.114,24.556-28.832,37.21-4.6
			c16.4,31.421,25.592,54.621,19.84,91.333c-13.326,84.937,5.194,176.653,32.881,257.708c10.129,29.669,17.598,60.013,27.566,89.701
			c7.719,22.971,22.137,59.022,13.099,83.541c-14.928-9.703-17.022-40.434-23.002-56.053c-11.724-30.646-23.278-62.31-37.049-92.076
			c-30.398-65.701-54.622-134.408-76.589-203.334C1108.68,1707.597,1104.999,1653.393,1132.937,1598.492z"/>
		<path id="_x31_80606858_1_" fill="#82C7AE" stroke="#000000" d="M1581.651,791.439c-40.504-34.222-85.927-63.713-137.313-87.145
			c-143.412-65.395-287.529-91.45-432.972-23.981c-170.104,78.902-324.27,154.125-454.841,293.392
			c-13.546,14.449-26.715,29.274-39.51,44.443c-0.842,0.999-1.682,1.999-2.52,3.001c-0.699,0.835-1.396,1.672-2.093,2.509
			c-98.01,117.975-175.881,261.5-202.582,412.375c-15.688,88.661-19.808,187.756-13.965,277.78
			c2.953,45.532-14.046,87.646-10.688,132.041c3.722,49.358,21.74,96.711,39.443,142.481
			c42.186,109.075,73.093,228.825,148.112,321.151c46.418,57.115,71.241,130.536,128.088,177.598
			c62.463,51.712,125.151,101.8,172.571,168.563c26.143,36.785,38.846,79.959,53.416,122.08
			c17.679,51.111,59.906,84.287,91.646,126.014c28.755,37.801,35.73,88.953,59.93,131.309
			c40.196,70.38,97.521,129.439,162.733,177.026c51.409,37.521,146.348,86.416,211.198,69.125
			c74.565-19.87,144.674-70.395,208.455-111.407c50.826-32.677,97.804-58.155,138.008-105.512
			c55.293-65.124,86.783-135.249,124.091-210.459c67.082-135.244,63.383-261.1,85.188-406.458
			c7.848-52.296,21.036-104.441,23.69-157.364c2.394-48.017-14.978-89.236-25.803-135.196
			c-49.46-209.8-77.05-433.325-81.904-649.168c-3.414-151.755-55.397-286.582-98.742-429.955
			c-25.356-83.879-60.698-164.36-106.962-238.793C1607.893,820.105,1595.487,805.07,1581.651,791.439z M1563.958,1026.328
			c14.395,29.232,46.911,44.392,58.879,75.606c11.918,31.045-1.529,60.188,6.464,91.558c9.427,37.073,25.705,53.271,25.082,92.894
			c-1.521,94.696,9.799,173.726,21.278,266.125c14.039,112.946-4.847,224.019-6.002,336.459
			c-0.762,72.937,35.81,132.567,68.237,194.063c37.413,70.966,66.257,154.093,77.706,233.627
			c11.036,76.72-34.896,120.22-38.384,194.602c-3.066,65.464,35.067,139.704,17.129,203.683
			c-18.06,64.438-75.125,115.758-89.203,187.051c-10.672,54.121-32.161,54.935-73.959,80.931
			c-32.033,19.916-63.83,44.986-72.932,82.306c-32.914,7.012-65.813,2.85-100.83,18.141
			c-83.296,36.368-113.727,73.611-205.445,23.738c-60.415-32.856-101.856-96.152-135.709-154.188
			c-44.873-76.95-97.026-151.791-122.772-238.018c-22.282-74.599-30.843-156.405-72.188-224.092
			c-34.645-56.729-102.309-65.924-141.607-118.067c-31.992-42.438-40.56-87.617-81.693-125.771
			c-42.567-39.492-89.867-72.333-134.392-109.451c-72.526-60.468-103.719-166.94-138.081-250.917
			c-35.187-85.991-28.066-180.113-13.688-270.4c11.991-75.282,21.618-150.791,31.118-226.754
			c6.366-50.978,24.596-48.708,56.677-80.631c17.032-16.947,20.972-32.995,23.06-50.391c1.885-15.713,2.264-32.526,9.409-52.09
			c13.213-36.215,39.719-27.51,67.261-44.473c28.01-17.25,45.269-49.253,67.947-73.223c28.537-30.163,50.423-68.34,83.701-93.827
			c31.457-24.091,72.146-26.906,99.624-55.884c26.141-27.571,53.376-54.675,78.691-81.954c23.31-25.127,32.703-60.877,58.861-83.592
			c48.861-42.435,104.722-5.563,160.007-15.58c55.819-10.109,88.863-28.694,142.441,5.134
			c18.277,11.542,30.713,31.179,49.177,40.888c27.469,14.447,64.371,14.827,93.458,27.389
			C1506.439,862.797,1532.856,963.134,1563.958,1026.328z"/>
		<path id="_x31_80606862_1_" fill="#82C7AE" stroke="#000000" d="M1428.832,1528.979
			c-18.278,101.537-46.888,202.311-39.396,305.001c4.465,61.103,10.72,121.228,29.814,179.903
			c41.256,126.724,132.521,228.829,176.626,354.146c31.045,88.195,27.048,156.965,20.906,249.744
			c-4.765,72.024-10.438,170.999-69.242,221.231c-53.303,45.523-161.729,89.187-218.682,26.254
			c-67.86-74.996-75.021-175.662-88.679-270.142c-6.391-44.168-15.687-84.987-34.239-125.697
			c-30.116-66.063-45.327-137.604-80.271-201.555c-31.207-57.102-76.039-104.681-123.792-148.255
			c-58.004-52.939-134.607-87.27-199.449-131.521c-68.215-46.557-111.614-121.096-124.252-202.243
			c-12.444-79.983,32.178-171.603,69.72-240.02c47.372-86.321,88.11-173.234,131.041-262.208
			c56.515-117.133,150.231-237.034,288.499-258.932c196.747-31.143,274.574,210.556,275.554,365.474
			C1443.273,1436.759,1437.116,1482.946,1428.832,1528.979z M1170.154,1593.856c-12.654-24.232-26.466-16.514-37.211,4.6
			c-27.938,54.902-24.257,109.107-6.052,166.226c21.975,68.924,46.199,137.637,76.597,203.344
			c13.771,29.758,25.325,61.426,37.049,92.07c5.979,15.623,8.075,46.354,23.011,56.059c9.03-24.523-5.388-60.573-13.106-83.543
			c-9.976-29.698-17.436-60.039-27.565-89.709c-27.688-81.051-46.208-172.767-32.882-257.71
			C1195.747,1648.479,1186.555,1625.275,1170.154,1593.856z"/>
		<path id="_x31_80606861_1_" fill="#9AD2BD" stroke="#000000" d="M1605.171,2816.824c50.141-98.471,45.406-198.714,41.216-306.284
			c-4.386-112.682-49.816-215.862-105.094-311.692c-56.984-98.783-117.262-205.224-114.552-322.866
			c2.604-112.804,19.304-220.689,27.606-332.968c4.959-67.2,17.889-135.104,17.582-202.113
			c-0.826-179.596-113.387-426.467-334.65-372.967c-42.056,10.175-74.525,46.168-106.023,73.629
			c-55.608,48.484-109.243,99.547-158.565,154.453c-71.444,79.537-115.556,174.968-164.563,268.637
			c-17.427,33.334-42.193,58.121-52.396,94.861c-13.957,50.289-18.739,105.795-18.003,157.863
			c0.802,56.293-11.78,98.237,11.102,151.54c31.506,73.39,78.725,135.249,142.651,182.82
			c56.369,41.956,117.343,75.08,174.716,115.592c40.293,28.444,69.25,60.917,92.617,96.287
			c70.117,106.118,127.877,228.849,145.104,355.688c8.317,61.277,9.896,124.633,30.754,183.386
			c32.039,90.328,101.646,159.323,202.711,133.671C1505.314,2919.131,1572.381,2881.205,1605.171,2816.824z M1616.784,2617.773
			c-4.766,72.025-10.438,170.999-69.242,221.231c-53.303,45.523-161.73,89.187-218.682,26.255
			c-67.86-74.996-75.021-175.663-88.678-270.143c-6.392-44.168-15.688-84.986-34.24-125.697
			c-25.422-55.767-40.383-113.273-62.674-169.846c-36.426-92.415-109.349-160.781-189.636-215.977
			c-64.048-44.027-152.668-80.76-202.306-141.984c-35.632-43.95-64.396-99.584-73.15-155.768
			c-12.443-79.983,32.179-171.603,69.721-240.02c47.372-86.322,88.109-173.234,131.041-262.208
			c56.515-117.133,150.231-237.034,288.499-258.932c196.747-31.142,274.575,210.556,275.554,365.474
			c0.283,46.601-5.874,92.787-14.159,138.817c-18.278,101.537-46.888,202.311-39.396,305.001
			c4.466,61.103,10.72,121.227,29.814,179.902c41.256,126.725,132.522,228.83,176.626,354.146
			C1626.922,2456.223,1622.924,2524.992,1616.784,2617.773z"/>
		<path id="_x31_80606860_1_" fill="#82C7AE" stroke="#000000" d="M708.373,2028.008c-41.847-47.163-85.295-107.542-100.725-169.397
			c-26.498-106.203-20.583-247.737,29.491-346.12c31.798-62.471,76.218-124.181,113.354-184.401
			c28.448-46.136,49.501-102.521,89.356-139.392c83.36-77.11,158.331-166.969,257.817-224.313
			c83.847-48.331,221.732-23.108,285.789,47.319c82.252,90.442,126.606,223.744,124.22,345.098
			c-2.662,135.567-47.421,266.192-50.858,401.754c-1.82,71.803-10.275,141.835,4.215,213.161
			c13.715,67.53,52.09,122.609,88.321,179.784c78.498,123.857,118.589,241.488,126.404,387.058
			c2.686,50.208,6.95,98.754-1.716,148.627c-18.132,104.45-67.996,230.168-179.134,260.044
			c-82.544,22.186-190.833,17.157-245.673-57.005c-31.069-42.013-48.4-102.59-56.338-153.685
			c-20.955-134.922-48.15-293.052-125.636-408.664c-60.053-89.614-139.027-152.352-224.953-210.955
			C799.856,2087.965,741.957,2065.849,708.373,2028.008z M1058.813,2263.616c70.117,106.118,127.877,228.849,145.104,355.688
			c8.317,61.277,9.896,124.634,30.754,183.386c32.04,90.328,101.646,159.323,202.711,133.672
			c67.932-17.229,134.998-55.156,167.79-119.536c50.14-98.472,45.405-198.714,41.216-306.284
			c-4.386-112.682-49.816-215.863-105.094-311.691c-56.985-98.784-117.262-205.225-114.553-322.867
			c2.605-112.805,19.305-220.689,27.606-332.969c4.96-67.199,17.889-135.103,17.582-202.112
			c-0.826-179.596-113.386-426.468-334.649-372.966c-42.057,10.174-74.525,46.166-106.023,73.628
			c-55.609,48.484-109.244,99.547-158.566,154.452c-71.443,79.538-115.556,174.969-164.563,268.638
			c-17.427,33.334-42.194,58.121-52.396,94.862c-13.957,50.289-18.738,105.794-18.002,157.862
			c0.802,56.293-11.78,98.237,11.102,151.54c31.505,73.39,78.725,135.249,142.651,182.82
			c56.369,41.956,117.343,75.08,174.716,115.592C1006.491,2195.774,1035.448,2228.247,1058.813,2263.616z"/>
		<path id="_x31_80606859_1_" fill="#9AD2BD" stroke="#000000" d="M1563.958,1026.336
			c-31.102-63.198-57.519-163.535-130.678-195.114c-29.087-12.562-65.989-12.941-93.458-27.388
			c-18.464-9.709-30.899-29.347-49.177-40.889c-53.578-33.828-86.622-15.243-142.441-5.134
			c-55.285,10.017-111.146-26.853-160.007,15.58c-26.158,22.716-35.551,58.466-58.861,83.592
			c-25.315,27.279-52.55,54.384-78.691,81.954c-27.479,28.977-68.167,31.793-99.624,55.884
			c-33.278,25.487-55.164,63.664-83.701,93.827c-22.678,23.97-39.936,55.973-67.947,73.223
			c-27.542,16.964-54.048,8.258-67.261,44.473c-7.144,19.563-7.524,36.377-9.409,52.09c-2.088,17.396-6.029,33.444-23.06,50.391
			c-32.081,31.924-50.311,29.653-56.677,80.631c-9.5,75.962-19.127,151.472-31.118,226.754
			c-14.378,90.287-21.499,184.41,13.688,270.4c34.362,83.978,65.555,190.449,138.081,250.917
			c44.525,37.118,91.825,69.959,134.392,109.451c41.133,38.154,49.702,83.333,81.693,125.771
			c39.297,52.143,106.961,61.338,141.607,118.067c41.345,67.687,49.906,149.493,72.188,224.092
			c25.745,86.227,77.899,161.068,122.772,238.018c33.853,58.036,75.294,121.332,135.709,154.188
			c91.718,49.873,122.149,12.63,205.445-23.738c35.017-15.291,67.916-11.13,100.83-18.141c9.102-37.32,40.899-62.39,72.932-82.306
			c41.798-25.996,63.287-26.81,73.959-80.931c14.078-71.293,71.143-122.613,89.203-187.051
			c17.937-63.98-20.195-138.219-17.129-203.683c3.487-74.382,49.42-117.882,38.384-194.602
			c-11.449-79.534-40.293-162.661-77.706-233.627c-32.427-61.496-68.999-121.126-68.238-194.063
			c1.156-112.44,20.041-223.514,6.003-336.459c-11.479-92.399-22.8-171.429-21.279-266.125c0.623-39.622-15.654-55.82-25.082-92.894
			c-7.992-31.369,5.454-60.513-6.464-91.558C1610.869,1070.724,1578.351,1055.564,1563.958,1026.336z M1675.76,2538.557
			c2.685,50.208,6.949,98.754-1.717,148.627c-18.132,104.45-67.996,230.168-179.134,260.044
			c-82.544,22.185-190.833,17.157-245.673-57.005c-31.069-42.014-48.4-102.59-56.338-153.684
			c-20.955-134.923-48.15-293.053-125.637-408.664c-60.051-89.615-139.026-152.353-224.952-210.957
			c-42.454-28.952-100.354-51.069-133.938-88.91c-41.847-47.163-85.295-107.542-100.725-169.397
			c-26.498-106.203-20.583-247.737,29.492-346.12c31.797-62.471,76.217-124.181,113.354-184.401
			c28.448-46.136,49.501-102.521,89.355-139.392c83.361-77.11,158.332-166.969,257.818-224.313
			c83.848-48.331,221.732-23.108,285.789,47.319c82.252,90.442,126.607,223.744,124.22,345.098
			c-2.661,135.567-47.421,266.192-50.858,401.754c-1.82,71.803-10.275,141.835,4.215,213.161
			c13.715,67.53,52.09,122.609,88.321,179.784C1627.851,2275.356,1667.942,2392.987,1675.76,2538.557z"/>
		<path id="_x31_80606864_1_" fill="#CCCCCC" stroke="#000000" d="M263.505,2794.785c22.081,82.5,95.425,167.397,175.282,242.354
			c61.265,57.497,126.355,109.146,175.071,149.38c169.91,140.268,419.993,205.09,635.949,204.754
			c254.524-0.41,445.351-139.599,605.332-328.604c154.076-182.014,279.13-427.827,283.791-670.583
			c2.411-126.245-19.419-267.259-52.025-388.45c-43.926-163.321-73.28-327.685-130.394-487.393
			c-88.412-247.233-166.456-548.711-374.868-724.802c13.84,13.63,26.246,28.664,36.682,45.449
			c46.265,74.433,81.606,154.914,106.962,238.793c43.344,143.372,95.328,278.2,98.742,429.955
			c4.854,215.843,32.444,439.368,81.904,649.168c10.826,45.96,28.197,87.179,25.803,135.196
			c-2.654,52.923-15.842,105.068-23.689,157.365c-21.806,145.357-18.107,271.214-85.189,406.457
			c-37.309,75.211-68.798,145.336-124.091,210.459c-40.204,47.357-87.182,72.836-138.009,105.512
			c-63.78,41.012-133.889,91.537-208.455,111.408c-64.849,17.291-159.787-31.604-211.197-69.125
			c-65.212-47.588-122.537-106.647-162.733-177.026c-24.2-42.357-31.175-93.508-59.93-131.31
			c-31.74-41.726-73.967-74.902-91.646-126.014c-14.571-42.121-27.274-85.295-53.416-122.08
			c-47.422-66.762-110.109-116.85-172.572-168.563c-56.848-47.063-81.67-120.484-128.088-177.598
			c-75.019-92.326-105.926-212.076-148.112-321.151c-17.703-45.771-35.722-93.123-39.443-142.482
			c-3.357-44.395,13.642-86.509,10.688-132.041c-5.842-90.024-1.723-189.119,13.965-277.78
			c26.701-150.875,104.572-294.4,202.582-412.375c-262.677,315.383-363.641,778.246-260.813,1175.767
			c12.559,48.573,31.346,102.308,34.646,152.607C295.84,2498.765,223.215,2644.181,263.505,2794.785z"/>
		<path id="_x31_80606863_1_" fill="#AAAAAA" stroke="#000000" d="M1189.987,1685.225c-13.326,84.938,5.194,176.654,32.881,257.709
			c10.129,29.668,17.598,60.013,27.566,89.701c7.719,22.971,22.137,59.022,13.099,83.541c-14.928-9.703-17.022-40.434-23.002-56.053
			c-11.724-30.646-23.278-62.31-37.049-92.077c-30.398-65.7-54.622-134.407-76.589-203.333
			c-18.213-57.116-21.895-111.32,6.044-166.221c10.745-21.114,24.556-28.832,37.21-4.6
			C1186.547,1625.313,1195.739,1648.514,1189.987,1685.225z"/>
	</g>
</g>
</svg>
