<?xml version="1.0" encoding="utf-8"?>
<!-- Generator: Adobe Illustrator 16.0.0, SVG Export Plug-In . SVG Version: 6.00 Build 0)  -->
<!DOCTYPE svg PUBLIC "-//W3C//DTD SVG 1.1//EN" "http://www.w3.org/Graphics/SVG/1.1/DTD/svg11.dtd">
<svg version="1.1" id="Layer_1" xmlns="http://www.w3.org/2000/svg" xmlns:xlink="http://www.w3.org/1999/xlink" x="0px" y="0px"
	 width="7840px" height="6720px" viewBox="0 0 7840 6720" enable-background="new 0 0 7840 6720" xml:space="preserve">
<g>
	<g transform="scale(1.0)">
		<g id="_x31_80611177" transform=" scale(1.0, 1.0)">
			<path id="_x31_80611179" fill="#BFDAE3" stroke="#000000" d="M3920.911,2907.485c0.017-174.515,0.021-329,0.044-504.958
				c0.036-231.821,0.104-504.554,0.057-694.292c-0.08-290.917-4.874-490.895,27.55-547.359
				c87.705-152.748,207.852-304.595,358.903-398.878c77.332-48.271,156.094-54.976,243.771-69.805
				c106.437-17.994,217.919-51.135,327.066-37.339c269.233,34.03,757.128,182.396,1056.187,346.662
				c294.995,162.03,654.389,535.844,874.608,896.756c167.437,274.4,289.552,578.679,299.217,902.226
				c8.95,299.662-58.79,635.708-146.135,922.126c-31.434,103.061-60.077,202.063-87.007,304.095
				c-11.446,43.369-39.606,95.888-65.438,132.392c-4.857,6.851-85.474,81.625-86.035,70.229
				c15.556,316.158-242.136,568.846-435.409,781.071c-69.149,75.936-153.796,109.807-240.282,162.112
				c-211.483,127.899-295.955,378.829-494.119,521.317c-174.46,125.435-351.368,267.101-555.33,341.72
				c-208.884,76.422-392.512,13.457-559.483-123.807c-162.307-133.428-202.059-338.158-264.311-528.551
				c-29.136-89.145-47.975-173.806-100.34-253.412c-53.615-81.487-127.962-161.097-145.423-261.147
				c-30.247-173.288,25.374-288.532,26.788-414.679c1.421-126.124-30.473-237.076-34.974-385.737
				C3920.83,3887.67,3920.86,3531.88,3920.911,2907.485z"/>
			<path id="_x31_80611180" fill="#B0FFB8" stroke="#000000" d="M6809.095,1898.278
				c-220.214-360.915-579.611-734.738-874.604-896.769c-299.063-164.266-786.949-312.64-1056.185-346.67
				c-109.147-13.795-220.628,19.346-327.066,37.34c-87.676,14.829-166.435,21.532-243.765,69.803
				c-151.055,94.288-271.2,246.131-358.907,398.885c-32.425,56.463-27.631,256.442-27.554,547.361
				c0.048,189.737-0.035,463.246-0.055,694.295c-0.021,175.962-0.032,330.45-0.047,504.965
				c-0.058,624.398-0.088,980.194-0.097,1160.75c4.499,148.657,36.388,259.611,34.972,385.739
				c-1.415,126.143-57.037,241.389-26.796,414.683c17.465,100.051,91.81,179.658,145.426,261.148
				c24.568,37.34,46.128,80.396,58.332,123.18c68.913-60.435,122.603-106.653,188.769-149.402
				c8.793-5.681,115.41-65.824,113.575-71.451c14.374,44.158,28.874,107.274,64.622,144.412
				c50.696,52.667,103.037,88.458,170.523,116.916c17.769,6.797,54.663,26.08,72.889,31.635
				c96.747,29.494,165.947,34.079,258.549,1.402c23.382-8.251,84.25-45.34,127.911-79.76c13.43-10.596,50.885-44.002,64.636-56.379
				c14.77-13.288,41.267-33.004,55.029-56.379c4.296,2.611,55.753,38.438,60.5,39.886c6.253,1.922,91.303,47.342,177.405,100.417
				c108.151,66.668,226.898,226.943,239.279,242.068c110.323-133.189,169.399-251.776,321.571-343.806
				c86.483-52.31,171.135-86.177,240.281-162.116c193.267-212.227,450.963-464.914,435.403-781.077
				c0.566,11.393,81.182-63.379,86.041-70.229c25.826-36.503,53.987-89.023,65.435-132.394
				c26.936-102.031,55.568-201.035,87.008-304.102c87.341-286.416,155.089-622.46,146.135-922.126
				C7098.646,2476.963,6976.533,2172.68,6809.095,1898.278z M4956.897,4187.302c-53.151,31.037-107.392-71.325-138.764-98.404
				c-24.578-21.21-47.141-58.315-49.603-92.628c-1.944-27.058,8.619-52.396,40.571-66.834
				c68.953-31.164,117.725,54.92,140.681,104.979C4968.499,4075.259,5011.05,4155.669,4956.897,4187.302z"/>
			<path id="_x31_80611223" fill="#1F9D5A" stroke="#000000" d="M6259.981,1404.676
				c-186.559-128.168-424.44-285.548-679.654-410.092l40.609-134.995l0.248-0.58c114.199,44.158,222.456,92.605,313.303,142.455
				c294.982,162.09,654.396,535.929,874.602,896.798c167.403,274.387,289.584,578.724,299.211,902.279
				c4.034,133.514-7.285,274.289-28.668,414.729l-176.334-37.229c33.021-179.805,50.779-362.25,36.271-544.615
				C6906.188,2213.16,6613.218,1647.309,6259.981,1404.676z"/>
			<path id="_x31_80611222" fill="#1F9D5A" stroke="#000000" d="M6074.694,1855.372c-168.068-190.713-413.3-324.909-622.717-434.098
				l128.35-426.689c255.214,124.543,493.1,281.926,679.656,410.092c353.234,242.633,646.203,808.483,679.588,1228.751
				c14.505,182.364-3.25,364.811-36.273,544.614l-415.796-87.67c16.02-127.324,19.992-257.703,13.486-382.307
				C6480.967,2325.924,6325.936,2140.327,6074.694,1855.372z"/>
			<path id="_x31_80611221" fill="#1F9D5A" stroke="#000000" d="M5451.978,1421.273
				c209.417,109.188,454.648,243.386,622.717,434.099c251.24,284.957,406.272,470.551,426.293,852.695
				c6.509,124.602,2.534,254.979-13.485,382.306l-450.698-95.102c25.004-39.524,26.492-95.965-4.855-174.361
				c-80.766-201.763-204.275-418.961-346.191-583.349c-104.537-121.063-240.351-227.359-386.646-307.827L5451.978,1421.273z"/>
			<path id="_x31_80611220" fill="#1F9D5A" stroke="#000000" d="M5299.11,1929.734c146.296,80.468,282.109,186.764,386.646,307.827
				c141.916,164.388,265.426,381.586,346.191,583.349c31.35,78.395,29.859,134.837,4.855,174.361l-330.311-69.675l-14.275-3.054
				l-1.815,2.146l-9.155-7.673c0,0-213.279-325.306-529.637-480.882l-1.154-4.618l-1.567-2.146L5299.11,1929.734z"/>
			<path id="_x31_80611227" fill="#1F9D5A" stroke="#000000" d="M5621.185,859.009l-0.248,0.58l-40.609,134.995
				c-363.802-177.527-762.765-288.137-1098.123-151.599c-142.677,58.161-236.591,152.636-298.983,267.577l-103.71-141.608
				c65.688-80.697,141.779-153.224,227.931-206.935c77.32-48.349,156.126-55.026,243.76-69.872
				c106.45-17.98,217.932-51.14,327.102-37.351C5065.778,678.577,5359.202,757.656,5621.185,859.009z"/>
			<path id="_x31_80611226" fill="#1F9D5A" stroke="#000000" d="M5580.327,994.583l-128.35,426.689
				c-20.136-10.482-40.019-20.798-59.41-30.866c-268.579-139.398-458.516-370.383-759.141-200.833
				c-117.177,66.085-181.797,142.904-221.001,234l-229.203-313.011c62.395-114.942,156.306-209.416,298.983-267.576
				C4817.563,706.447,5216.526,817.056,5580.327,994.583z"/>
			<path id="_x31_80611225" fill="#1F9D5A" stroke="#000000" d="M5451.978,1421.273l-152.867,508.461
				c-75.17-41.431-153.062-75.931-230.955-102.096c-92.499-31.033-194.488-48.948-286.086-5.307
				c-16.011,7.592-34.414,19.058-53.558,33.003l-316.086-431.761c39.204-91.096,103.821-167.915,221.001-234
				c300.625-169.547,490.562,61.436,759.14,200.832C5411.959,1400.475,5431.842,1410.791,5451.978,1421.273z"/>
			<path id="_x31_80611224" fill="#1F9D5A" stroke="#000000" d="M5299.11,1929.734l-150.224,499.633l-420.375-574.033
				c19.144-13.944,37.547-25.411,53.556-33.003c91.598-43.644,193.587-25.726,286.086,5.307
				C5146.047,1853.804,5223.94,1888.303,5299.11,1929.734z"/>
			<path id="_x31_80611219" fill="#009C75" stroke="#000000" d="M7079.634,3215.271c-16.759,109.915-39.792,219.58-66.534,325.282
				l-172.372-80.8c23.44-92.914,45.154-186.901,62.572-281.712L7079.634,3215.271z"/>
			<path id="_x31_80611218" fill="#009C75" stroke="#000000" d="M6840.726,3459.753l-295.069-138.247
				c18.821-88.456,43.428-260.502-61.21-206.381l-0.248-0.002c1.24-8.167,2.313-16.421,3.305-24.754l415.795,87.67
				C6885.878,3272.853,6864.168,3366.839,6840.726,3459.753z"/>
			<path id="_x31_80611217" fill="#009C75" stroke="#000000" d="M6484.446,3115.125c104.636-54.123,80.031,117.925,61.21,206.381
				l-91.342-42.833c12.382-53.305,22.37-108.097,29.883-163.548H6484.446z"/>
			<path id="_x31_80611216" fill="#009C75" stroke="#000000" d="M5966.493,3050.139c30.86-12.707,55.042-30.609,70.31-54.869
				l450.699,95.101c-0.991,8.333-2.063,16.585-3.305,24.754c-7.512,55.452-17.501,110.243-29.883,163.548L5966.493,3050.139z"/>
			<path id="_x31_80611215" fill="#009C75" stroke="#000000" d="M5706.493,2925.595l330.31,69.675
				c-15.27,24.256-39.448,42.163-70.31,54.869l-260.496-122.069L5706.493,2925.595z"/>
			<path id="_x31_80611231" fill="#40A666" stroke="#000000" d="M4079.509,968.954l103.71,141.608
				c-55.622,102.318-86.25,220.891-104.083,344.42c-5.369,37.381-9.58,75.257-12.966,113.297l-145.304-115.704
				c0.922-151.254,5.964-253.824,27.668-291.699C3986.172,1095.28,4029.912,1029.765,4079.509,968.954z"/>
			<path id="_x31_80611230" fill="#40A666" stroke="#000000" d="M4183.223,1110.561l229.204,313.011
				c-43.577,101.328-55.553,220.318-73.389,361.918l-214.695-170.915c-38.822-30.9,0,0-33.584-26.73l-24.587-19.565
				c6.337-43.889,7.677-73.338,16.521-136.748c5.361-38.443,20.584-101.164,30.189-138.939
				C4131.023,1221.239,4159.773,1153.693,4183.223,1110.561z"/>
			<path id="_x31_80611229" fill="#40A666" stroke="#000000" d="M4412.426,1423.573l316.086,431.761
				c-48.521,35.562-101.587,87.709-130.47,136.391l-259.003-206.234C4356.874,1643.891,4368.85,1524.901,4412.426,1423.573z"/>
			<path id="_x31_80611228" fill="#40A666" stroke="#000000" d="M4728.512,1855.334l420.377,574.033l-0.25,0.66l-550.597-438.301
				C4626.925,1943.042,4679.99,1890.895,4728.512,1855.334z"/>
			<path id="_x31_80611236" fill="#2FA850" stroke="#000000" d="M3920.868,1452.576l145.304,115.704
				c-9.005,101.083-12.231,203.322-15.87,300.611c-11.496,307.543-35.123,625.07-35.398,937.482l-93.988,31.597
				c0.012-146.965,0.025-283.202,0.039-435.448c0.019-231.792,0.123-504.598,0.057-694.305
				C3921.021,1612.578,3920.45,1526.676,3920.868,1452.576z"/>
			<path id="_x31_80611235" fill="#2FA850" stroke="#000000" d="M4145.12,2762.565l-130.215,43.805
				c0.273-312.412,23.902-629.938,35.398-937.481c3.638-97.289,6.867-199.529,15.87-300.611l58.171,46.297
				c-3.963,32.016-8.587,62.715-9.416,84.911c-5.209,143.003,5.422,288.317-6.888,430.742
				C4095.156,2279.502,4071.444,2596.205,4145.12,2762.565z"/>
			<path id="_x31_80611234" fill="#2FA850" stroke="#000000" d="M4124.344,1614.576l214.695,170.915
				c-1.734,13.863-3.553,27.892-5.452,42.165c-26.339,199.197-48.307,398.309-66.973,598.332
				c-9.416,100.505-13.717,200.681-15.459,300.858l-106.038,35.72c-73.673-166.363-49.961-483.063-37.077-632.337
				c12.307-142.425,1.675-287.739,6.889-430.742C4115.756,1677.29,4120.378,1646.593,4124.344,1614.576z"/>
			<path id="_x31_80611233" fill="#2FA850" stroke="#000000" d="M4339.038,1785.49l259.004,206.234
				c-8.502,14.358-14.939,28.386-18.488,41.587c-37.643,139.535-80.149,271.395-100.129,415.552
				c-8.672,62.631-21.963,135.576-33.438,212.482l-194.829,65.501c1.742-100.177,6.042-200.355,15.458-300.858
				c18.665-200.024,40.633-399.136,66.974-598.332C4335.486,1813.38,4337.305,1799.353,4339.038,1785.49z"/>
			<path id="_x31_80611232" fill="#2FA850" stroke="#000000" d="M5135.603,2429.283l-689.616,232.063
				c11.476-76.907,24.767-149.851,33.438-212.48c19.979-144.158,62.488-276.018,100.128-415.553
				c3.55-13.202,9.987-27.23,18.489-41.587l550.596,438.301l1.816,1.487l1.154,4.618c-4.95-2.393-9.9-4.787-14.934-7.179
				L5135.603,2429.283z"/>
			<path id="_x31_80611240" fill="#59B363" stroke="#000000" d="M4099.662,3587.411l-178.813-9.01
				c0.017-177.826,0.035-398.892,0.058-670.954c0.003-23.518,0.005-46.622,0.008-69.48l93.988-31.596
				c-0.094,130.626,3.856,260.427,14.488,388.166c10.8,129.8,12.438,243.263,60.371,365.23
				C4093.559,3569.422,4096.858,3578.582,4099.662,3587.411z"/>
			<path id="_x31_80611239" fill="#59B363" stroke="#000000" d="M4251.285,3158.992c-0.012,135.99-1.113,475.387,185.128,485.799
				l-0.993,14.275c-42.167-3.137-85.319-4.463-127.654-8.51c-69.891-6.609-137.471-20.643-194.404-62.484l-13.697-0.661
				c-2.803-8.828-6.104-17.989-9.899-27.645c-47.932-121.968-49.573-235.428-60.371-365.231
				c-10.633-127.739-14.584-257.541-14.488-388.166l236.252-79.526c-0.751,56.48-0.621,43.467-0.974,89.411l-0.111,48.394
				C4250.063,2962.352,4251.294,3060.3,4251.285,3158.992z"/>
			<path id="_x31_80611238" fill="#59B363" stroke="#000000" d="M4973.906,2937.496l-154.598,486.017
				c-55.536,14.022-108.76,36.793-156.543,69.302c-66.432,45.295-104.559,136.227-187.821,149.751
				c-13.696,2.228-26.489,2.888-38.536,2.226c-186.242-10.414-185.141-349.809-185.127-485.798
				c0.009-98.693-1.221-196.642-1.212-294.343c0.004-45.964,0.256-91.923,1.084-137.804l194.829-65.503
				c-22.704,151.088-38.397,317.362,1.363,450.466c30.524,102.079,76.31,209.521,194.141,250.706
				c311.079,108.951,26.432-297.309,200.881-390.538C4884.044,2949.701,4929.1,2939.555,4973.906,2937.496z"/>
			<path id="_x31_80611237" fill="#59B363" stroke="#000000" d="M5135.603,2429.283l-161.694,508.211
				c-44.807,2.061-89.861,12.205-131.535,34.481c-174.447,93.229,110.198,499.49-200.881,390.54
				c-117.833-41.187-163.619-148.628-194.141-250.706c-39.763-133.105-24.067-299.376-1.361-450.465L5135.603,2429.283z"/>
			<path id="_x31_80611206" fill="#248A5E" stroke="#000000" d="M6268.583,4070.25c-123.193-60.992-254.968-129.329-388.23-165.316
				c-34.572-9.327-67.496-23.523-100.254-37.968l2.889-6.438c17.171-95.804,279.482,11.906,436.012,87.181l68.972,132.113
				C6281.536,4076.688,6275.101,4073.47,6268.583,4070.25z"/>
			<path id="_x31_80611205" fill="#248A5E" stroke="#000000" d="M5413.346,3477.367c183.017,49.278,369.005,108.71,556.646,127.375
				c24.673,2.476,48.77,3.802,72.12,3.967l176.887,339.001c-156.529-75.273-418.839-182.98-436.012-87.18l-2.889,6.437
				c-48.188-21.294-96.13-43.248-148.857-51.422c-30.367-4.706-60.648-2.48-89.367,8.657c-12.21,4.703-24.756,10.064-37.297,16.087
				L5413.346,3477.367z"/>
			<path id="_x31_80611204" fill="#248A5E" stroke="#000000" d="M5969.992,3604.742c-187.642-18.667-373.631-78.097-556.648-127.375
				l-120.352-478.862c141.762,34.011,321.563,71.82,470.836,76.867l278.284,533.338
				C6018.762,3608.542,5994.667,3607.218,5969.992,3604.742z"/>
			<path id="_x31_80611203" fill="#248A5E" stroke="#000000" d="M5151.608,2436.132c316.356,155.575,529.637,480.88,529.637,480.88
				l82.585,158.358c-149.271-5.046-329.076-42.855-470.835-76.867L5151.608,2436.132z"/>
			<path id="_x31_80611202" fill="#248A5E" stroke="#000000" d="M5413.346,3477.367c-22.445-6.026-44.807-11.97-67.086-17.58
				c-127.898-32.276-260.006-56.632-392.529-54.004c-45.219,0.905-90.524,6.593-134.42,17.729
				c-55.538,14.022-108.762,36.793-156.543,69.302c-66.432,45.295-104.559,136.227-187.821,149.751
				c-13.698,2.228-26.489,2.888-38.537,2.226l-0.993,14.275c95.636,7.104,186.24,23.616,250.102,102.345l0.578,9.902
				c8.335-1.98,16.671-3.713,24.921-5.279c39.608-7.342,77.814-8.74,106.942,0.09l-1.401-7.014l75.256-15.013l0.083-0.082
				c10.067-4.206,27.313-1.233,54.212,11.888c87.135,42.67,501.115,111.443,558.471,84.385L5413.346,3477.367z"/>
			<path id="_x31_80611201" fill="#248A5E" stroke="#000000" d="M5292.994,2998.505l120.352,478.862
				c-22.445-6.026-44.807-11.97-67.086-17.58c-127.898-32.276-260.006-56.632-392.529-54.004
				c-45.219,0.905-90.524,6.593-134.42,17.729l154.596-486.017c32.924-1.566,65.683,1.325,96.71,7.022
				C5107.417,2951.288,5190.264,2973.905,5292.994,2998.505z"/>
			<path id="_x31_80611200" fill="#248A5E" stroke="#000000" d="M5151.608,2436.132l141.386,562.373
				c-102.73-24.599-185.577-47.216-222.38-53.986c-31.027-5.697-63.784-8.588-96.708-7.023l161.692-508.211l1.074-0.333
				C5141.706,2431.345,5146.658,2433.739,5151.608,2436.132z"/>
			<path id="_x31_80611214" fill="#219866" stroke="#000000" d="M6840.726,3459.753l172.372,80.8
				c-15.849,62.298-33.021,123.278-50.93,182.112c-21.79,71.459-42.26,140.855-61.659,210.744l-14.605-4.043l-107.262-90.118
				c28.974-129.386,35.671-275.854,59.112-367.857C6838.744,3467.509,6839.735,3463.63,6840.726,3459.753z"/>
			<path id="_x31_80611213" fill="#219866" stroke="#000000" d="M6454.314,3278.673l386.411,181.08
				c-0.99,3.877-1.981,7.756-2.972,11.636c-23.443,92.004-30.141,238.472-59.112,367.857l-420.314-353.213
				c5.235-6.077,23.691-29.052,41.842-59.904c10.817-18.39,30.501-64.053,37.416-85.931
				C6449.991,3300.951,6451.875,3288.574,6454.314,3278.673C6454.314,3278.673,6450.353,3297.405,6454.314,3278.673z"/>
			<path id="_x31_80611212" fill="#219866" stroke="#000000" d="M5966.493,3050.139l487.821,228.535
				c-0.907,4.208-1.902,8.418-2.89,12.542c-12.465,51.985-29.715,96.792-51.255,134.912c-12.545,22.196-26.491,42.081-41.841,59.905
				l-491.848-413.293C5904.355,3069.03,5938.269,3061.77,5966.493,3050.139z"/>
			<path id="_x31_80611211" fill="#219866" stroke="#000000" d="M5705.997,2928.071l260.496,122.068
				c-28.223,11.633-62.137,18.89-100.013,22.601l-176.078-148.054l1.815-2.146l14.275,3.054L5705.997,2928.071z"/>
			<path id="_x31_80611210" fill="#219866" stroke="#000000" d="M6648.077,4079.609c70.556-45.627,107.613-137.631,130.564-240.363
				l107.26,90.12l14.605,4.043c-8.666,30.943-17.086,61.971-25.339,93.324c-11.475,43.405-39.616,95.885-65.45,132.353
				c-4.869,6.85-84.998,81.271-86.07,70.381c0-0.083,0-0.083,0-0.083c0.164,2.475-206.697-56.048-231.619-63.063
				c-71.954-20.224-137.139-52.99-204.058-86.498l-68.972-132.113c51.653,24.923,91.837,46.3,107.848,55.623
				C6413.73,4054.09,6544.264,4146.688,6648.077,4079.609z"/>
			<path id="_x31_80611209" fill="#219866" stroke="#000000" d="M6042.112,3608.709c131.615,1.166,240.54-34.884,316.215-122.675
				l420.314,353.214c-22.951,102.734-60.009,194.734-130.564,240.361c-103.813,67.078-234.347-25.519-321.23-76.275
				c-16.011-9.323-56.192-30.7-107.848-55.623L6042.112,3608.709z"/>
			<path id="_x31_80611208" fill="#219866" stroke="#000000" d="M6358.327,3486.032c-75.673,87.793-184.602,123.842-316.213,122.676
				L5763.83,3075.37c36.388,1.241,70.881,0.584,102.649-2.631L6358.327,3486.032z"/>
			<path id="_x31_80611207" fill="#219866" stroke="#000000" d="M5690.402,2924.686l176.077,148.055
				c-31.769,3.214-66.262,3.873-102.649,2.631l-82.585-158.358L5690.402,2924.686z"/>
			<path id="_x31_80611181" fill="#9AD2BD" stroke="#000000" d="M6723.652,4229.47c-0.003-0.084-0.003-0.084-0.003-0.084
				c0.166,2.476-206.697-56.047-231.617-63.064c-71.956-20.223-137.141-52.989-204.058-86.496
				c-6.435-3.133-12.87-6.355-19.392-9.573c-123.193-60.99-254.968-129.328-388.229-165.314
				c-34.574-9.329-67.497-23.524-100.254-37.97c-48.188-21.295-96.13-43.249-148.857-51.422c-30.368-4.705-60.65-2.48-89.368,8.657
				c-12.211,4.704-24.755,10.064-37.297,16.087c-57.353,27.061-471.335-41.713-558.47-84.385
				c87.135,42.672,106.854,94.162,181.521,189.808c71.371,91.353,227.242,113.976,284.668,173.313
				c29.212,30.204,57.266,44.895,85.4,76.171c6.602,7.345,12.788,14.934,18.399,22.693c37.54,51.82,52.469,113.139,31.01,178.653
				c-35.08,107.267-102.584,196.466-188.161,268.167c-9.323,7.839-131.703,91.747-134.758,85.643
				c-10.891-21.537-17.16-42.91-34.321-60.653c-25.741-26.572-91.173-77.824-132.681-61.9
				c39.28-15.097,81.942-52.228,105.301-86.636c31.44-46.123,43.329-100.255,44.075-155.375
				c0.498-34.741-5.109-71.212-15.422-104.386c-9.9-31.69-21.53-64.612-37.454-93.581c-16.42-29.79-34.9-58.59-56.603-84.833
				c-55.608-67.174-123.682-120.155-164.932-197.974c-31.434-59.166-72.934-147.219-40.339-160.915l-75.255,15.013l1.401,7.016
				c-29.126-8.833-67.334-7.432-106.943-0.092c-8.251,1.567-16.585,3.299-24.922,5.281l-0.577-9.903
				c-63.86-78.729-154.465-95.24-250.101-102.345c-42.168-3.137-85.32-4.463-127.654-8.511
				c-69.891-6.608-137.474-20.641-194.404-62.482l-13.697-0.663l-178.809-9.008c-0.019,230.253-0.03,387.939-0.039,489.824
				c4.499,148.66,36.395,259.609,34.975,385.736c-1.414,126.146-57.033,241.392-26.79,414.682
				c17.461,100.051,91.808,179.658,145.424,261.146c1.843,2.803,3.635,5.614,5.399,8.43c20.312,32.169,38.13,68.082,49.687,104.16
				c1.247,3.4,2.478,6.803,3.685,10.217c5.157,14.618,9.964,29.382,14.652,44.282c-4.009-14.737,67.267-74.281,76.632-82.53
				c21.41-18.856,44.337-35.955,67.278-53.027c16.465-12.261,32.94-24.503,48.865-37.373c16.662-13.484,58.206-58.655,73.074-24.08
				c16.339,37.977,38.934,83.366,65.481,114.991c79.811,95.07,220.051,148.913,340.01,166.489
				c134.506,19.741,242.269-30.201,345.311-111.48c30.613-24.146,73.289-84.268,117.895-65.335
				c37.508,15.925,74.856,34.721,110.625,56.032c32.15,19.156,63.026,40.346,91.586,63.323
				c20.568,16.548,42.22,34.188,63.192,52.551c0.529,0.463,1.06,0.918,1.588,1.381c20.64,18.142,40.572,36.981,58.087,56.189
				c6.482,7.113,72.953,77.374,94.656,115.791c106.347-129.284,191.079-278.922,335.445-370.785
				c0.553-0.354,1.107-0.699,1.662-1.054c1.571-0.981,3.154-1.96,4.748-2.936c1.346-0.831,2.674-1.679,4.03-2.5
				c86.486-52.308,171.135-86.179,240.282-162.113c123.809-135.948,274.051-288.502,361.969-463.708
				c0.153-0.308,0.305-0.612,0.457-0.92c0.911-1.82,1.817-3.642,2.715-5.469c0.354-0.717,0.698-1.436,1.048-2.151
				c0.692-1.419,1.384-2.832,2.066-4.253c0.554-1.15,1.1-2.309,1.647-3.462c0.473-0.985,0.945-1.973,1.411-2.963
				c0.714-1.524,1.424-3.05,2.129-4.577c0.29-0.625,0.583-1.247,0.871-1.875c0.877-1.902,1.742-3.811,2.601-5.717
				c0.113-0.248,0.23-0.499,0.342-0.75c39.998-88.956,63.073-183.666,58.15-284.879
				C6723.685,4229.614,6723.657,4229.552,6723.652,4229.47z M4956.897,4187.302c-53.151,31.037-107.392-71.325-138.764-98.404
				c-24.578-21.21-47.141-58.315-49.603-92.628c-1.944-27.058,8.619-52.396,40.571-66.834
				c68.953-31.164,117.725,54.92,140.681,104.979C4968.499,4075.259,5011.05,4155.669,4956.897,4187.302z"/>
			<path id="_x31_80611183" fill="#54BF94" stroke="#000000" d="M4977.722,4298.704c-4.175,39.649-15.773,80.123-30.856,116.804
				c-11.628,28.313-27.313,53.666-41.793,80.436c-7.524,13.899-13.116,29.001-15.866,44.554c-2.971,16.783-2.235,36.484,5.88,51.71
				c29.261,54.935,95.917,55.755,150.583,57.17c111.48,2.864,155.193,99.439,185.215,226.877
				c7.137,30.314,84.994,204.302-5.778,288.876c-35.245,32.824-151.26,132.612-208.371,154.701
				c-108.001,41.765-193.641,31.186-261.995,8.229c-70.047-23.519-131.011-56.21-210.406-109.356
				c-75.898-50.821-98.487-149.523-123.697-232.753c-14.313-47.274-22.611-96.204-30.734-144.83
				c-35.075-209.939-32.516-455.268,77.773-645.549c33.526-57.846,86.807-103.344,149.72-125.754
				c35.502-12.648,73.157-15.354,110.192-8.659c27.285,4.934,78.091,14.865,97.821,35.923c10.217,10.904,19.68,22.582,29.611,33.77
				c19.458,21.921,41.367,55.476,72.337,61.502c13.648,2.651,32.68-4.214,42.095-14.6c2.884-3.183,4.279-7.52,7.238-10.54
				c3.214,5.048,2.799,15.457,3.36,21.562c0.688,7.546,1.08,15.12,1.271,22.696c0.37,14.886-0.083,29.773-0.819,44.642
				C4979.811,4270.279,4979.206,4284.594,4977.722,4298.704z"/>
			<path id="_x31_80611184" fill="#54BF94" stroke="#000000" d="M4892.644,4525.898c3.047-10.387,7.285-20.451,12.431-29.955
				c5.315-9.826,12.552-19.928,17.682-30.132c8.284-16.484,17.13-33.317,24.111-50.304c15.081-36.683,26.68-77.156,30.856-116.804
				c1.484-14.11,2.089-28.425,2.783-42.587c0.737-14.87,1.188-29.758,0.82-44.644c-0.192-7.576-0.584-15.148-1.271-22.696
				c-0.562-6.104-0.146-16.516-3.361-21.563c-2.958,3.021-4.357,7.356-7.237,10.54c-9.413,10.386-28.445,17.251-42.093,14.601
				c-15.37-2.992-28.209-14.43-39.279-24.811c-6.13-5.742-12.085-11.748-18.019-17.703c-5.765-5.794-9.646-12.908-15.041-18.989
				c-9.934-11.187-19.393-22.864-29.613-33.769c-4.323-4.608-14.09-7.784-19.705-10.742c-6.773-3.563-13.621-6.97-20.599-10.115
				c-52.582-23.68-114.394-28.648-168.859-7.04c-5.652,2.242-11.147,4.578-16.498,6.977c-54.73,24.638-102.14,67.781-132.07,119.413
				c-109.244,188.474-112.785,430.946-78.756,639.551c87.824-52.255,162.87-112.081,242.233-178.179
				C4707.741,4593.159,4791.741,4536.723,4892.644,4525.898z"/>
			<path id="_x31_80611185" fill="#54BF94" stroke="#000000" d="M5230.886,4876.256c-30.021-127.439-73.733-224.015-185.213-226.877
				c-40.581-1.053-94.774-3.055-122.027-24.77c-6.947-5.526-12.542-10.404-18.606-16.83c-4.043-4.291-7.139-10.282-9.949-15.563
				c-8.116-15.226-8.851-34.935-5.88-51.718c0.869-4.922,2.024-9.794,3.434-14.599c-100.9,10.824-184.901,67.261-261.489,131.048
				c-79.365,66.096-154.409,125.926-242.231,178.179c0.326,2,0.649,4.005,0.979,6c8.126,48.623,16.424,97.556,30.738,144.829
				c25.208,83.23,47.799,181.932,123.695,232.753c79.395,53.145,140.36,85.837,210.405,109.355
				c68.359,22.958,153.996,33.534,261.998-8.23c57.11-22.084,173.127-121.872,208.369-154.699
				C5315.88,5080.556,5238.022,4906.569,5230.886,4876.256z"/>
			<path id="_x31_80611196" fill="#62D09F" stroke="#000000" d="M4091.834,4360.718c14.894-97.686-13.149-149.833-40.916-245.539
				c-23.835-82.152-13.85-169.322-1.161-253.278c-13.477,5.712-26.986,11.443-40.639,16.789
				c-14.608,5.61-86.151,21.697-86.729,41.004h-1.567c-0.005,59-0.009,108.18-0.013,148.533
				c4.524,148.697,36.365,259.604,34.952,385.775c-1.249,111.151-44.577,213.882-34.111,355.32l0.744-0.082
				c29.128-1.648,60.569-24.336,86.069-36.63c34.329-16.584,68.243-32.01,102.736-46.283c8.658-3.565,17.349-7.067,26.089-10.512
				c-4.392-24.197-9.92-48.554-18.124-73.158C4088.315,4550.143,4077.385,4455.48,4091.834,4360.718z"/>
			<path id="_x31_80611195" fill="#62D09F" stroke="#000000" d="M4251.165,4318.854c24.043-115.146,69.231-259.371,73.985-375.92
				c1.703-41.663-22.583-73.915-31.465-110.705c-3.87-0.756-7.745-1.492-11.681-2.115c-33.749-6.029-67.992-9.663-102.319-6.941
				c-41.755,3.215-79.631,17.653-117.342,33.411c-4.196,1.763-8.391,3.54-12.587,5.32c-12.688,83.954-22.672,171.125,1.161,253.276
				c27.767,95.708,55.81,147.854,40.916,245.541c-14.449,94.763-3.519,189.423,27.329,281.934
				c8.206,24.606,13.732,48.961,18.125,73.16c15.923-6.271,32.019-12.339,48.427-18.198c26.921-9.577,55.95-20.208,81.891-35.086
				C4220.62,4567.691,4231.262,4414.186,4251.165,4318.854z"/>
			<path id="_x31_80611194" fill="#62D09F" stroke="#000000" d="M4859.462,3795.093c-9.156-14.276-23.597-23.602-41.503-28.967
				c-29.126-8.832-67.334-7.432-106.942-0.09c-8.25,1.566-16.586,3.297-24.923,5.279c-37.38,8.99-74.679,22.355-105.294,36.3
				c-118.169,53.791-158.024,49.828-284.849,25.062c-0.755-0.149-1.511-0.296-2.265-0.443c8.881,36.789,33.167,69.04,31.464,110.703
				c-4.754,116.549-49.94,260.777-73.983,375.92c-19.906,95.329-30.547,248.835,16.438,343.673
				c23.443-13.448,44.358-30.355,58.89-53.112c22.448-35.066,15.521-84.001,16.926-123.445
				c2.73-77.896,19.075-154.389,53.079-224.609c33.594-69.561,76.591-151.166,145.745-191.842
				c83.098-48.926,122.865-8.652,166.605-61.953C4774.872,3927.115,4923.734,3894.699,4859.462,3795.093z"/>
			<path id="_x31_80611193" fill="#62D09F" stroke="#000000" d="M4142.702,4748.633c-42.05,16.394-83.996,33.616-124.936,52.473
				c-23.339,10.751-92.144,46.014-92.144,46.014s6.777,35.209,8.727,43.639c9.741,42.106,32.004,81.764,55.307,117.771
				c6.798,10.494,54.175,77.507,70.485,100.879c14.644,20.97,28.464,42.655,40.312,65.381c9.772,18.763,32.977,78.516,32.977,78.516
				s132.861-114.16,152.162-127.565c12.569-8.734,23.382-15.953,32.989-22.135c-57.413-60.112-118.616-127.145-146.376-209.201
				C4155.736,4845.736,4150.14,4797.413,4142.702,4748.633z"/>
			<path id="_x31_80611192" fill="#62D09F" stroke="#000000" d="M4243.804,4711.554c-37.312,14.71-74.419,26.776-81.998,29.684
				c-6.368,2.447-12.738,4.912-19.105,7.396c7.438,48.78,13.036,97.104,29.502,145.771
				c27.764,82.055,88.965,149.087,146.378,209.199c31.72-20.406,50.312-29.449,75.688-43.907
				C4339.364,4960.239,4220.337,4824.684,4243.804,4711.554z"/>
			<path id="_x31_80611191" fill="#62D09F" stroke="#000000" d="M4328.52,4659.339c3.149,13.93-40.284,34.654-83.8,51.855
				c-0.307,0.122-0.611,0.241-0.916,0.359c-23.467,113.13,95.561,248.686,150.469,348.143c2.42-1.379,4.898-2.803,7.459-4.296
				c-20.534-74.124-45.036-162.261-56.231-235.684C4337.422,4766.75,4340.346,4711.607,4328.52,4659.339z"/>
			<path id="_x31_80611243" fill="#A4DAA4" stroke="#000000" d="M4099.662,3587.411c39.352,122.378-7.359,174.358-37.317,269.171
				c-17.66,7.424-35.318,15.097-53.226,22.107c-14.608,5.61-86.15,21.697-86.729,41.004h-1.565
				c0.006-89.778,0.017-202.333,0.027-341.292L4099.662,3587.411z"/>
			<path id="_x31_80611242" fill="#A4DAA4" stroke="#000000" d="M4113.361,3588.072c56.936,41.842,124.514,55.876,194.404,62.484
				l-1.815,20.052c-24.181,36.389-42.753,112.714-22.046,148.528l-1.897,10.977c-33.749-6.028-67.992-9.664-102.322-6.942
				c-41.753,3.214-79.628,17.651-117.339,33.411c29.96-94.811,76.67-146.794,37.318-269.171L4113.361,3588.072z"/>
			<path id="_x31_80611241" fill="#A4DAA4" stroke="#000000" d="M4685.52,3761.411l0.576,9.902
				c-37.381,8.99-74.679,22.355-105.293,36.298c-118.169,53.791-158.026,49.83-284.85,25.063c-4.621-0.912-9.242-1.818-13.944-2.563
				l1.898-10.975c-20.71-35.813-2.136-112.139,22.045-148.528l1.813-20.051c42.333,4.045,85.487,5.371,127.654,8.51
				C4531.054,3666.171,4621.658,3682.684,4685.52,3761.411z"/>
			<path id="_x31_80611199" fill="#6ACBBA" stroke="#000000" d="M5840.247,5367.109c-22.893,26.956-48.781,76.697-89.217,78.436
				c-3.972,0.169-7.709,0.039-11.214-0.375c-62.259-7.265-51.743-102.118-29.57-142.327c10.788-19.549,24.815-39.829,40.139-56.116
				c66.389-70.585,148.21-120.137,227.934-173.46c99.634-66.635,192.376-148.76,288.011-220.902
				c30.557-23.053,57.762-50.295,88.786-72.695c26.953-19.465,64.405-46.476,98.269-50.559c11.951-1.449,36.514,4.768,41.514,18.021
				c9.032,23.934-8.576,37.866-20.521,55.486c-1.042,1.539-2.142,3.05-3.276,4.541c140.825-166.831,263.471-356.817,252.597-577.822
				l-435.727-149.516c-6.435-3.135-12.871-6.354-19.392-9.572c-123.193-60.991-254.967-129.329-388.23-165.316
				c-34.572-9.327-67.496-23.523-100.252-37.969c-47.839-21.139-95.439-42.923-147.717-51.234
				c22.419,36.001,55.322,67.429,79.641,102.682c0.006,0.009,0.016,0.02,0.025,0.032c79.024,114.636,236.777,144.105,357.534,202.72
				c125.304,60.827,253.998,106.879,340.895,221.452c60.175,79.339,161.526,258.359-10.103,288.352
				c-123.251,21.506-214.406-45.951-344.091,1.737c-151.43,55.668-244.137,158.922-331.519,288.303
				c-60.598,89.708-122.105,189.7-213.082,251.949c-36.86,25.222-86.146,27.488-129.387,40.26
				c42.16,22.823,84.036,46.171,123.721,73.111c90.269,61.319,152.976,145.741,222.61,229.831c0.049,0.101,0.124,0.174,0.196,0.247
				l0.02-0.099c-0.017-0.146,0.02-0.322,0.113-0.562l-0.113,0.562c0.002,0.031,0.008,0.062,0.016,0.09
				c49.508-63.377,95.635-129.903,147.335-190.973C5864.06,5339.194,5852.115,5353.131,5840.247,5367.109z"/>
			<path id="_x31_80611198" fill="#6ACBBA" stroke="#000000" d="M5724.763,4921.01c87.384-129.382,180.091-232.634,331.521-288.301
				c129.687-47.69,220.84,19.767,344.089-1.738c171.631-29.992,70.281-209.014,10.104-288.353
				c-86.896-114.572-215.593-160.628-340.895-221.451c-120.755-58.616-278.51-88.087-357.536-202.723
				c-0.008-0.012-0.016-0.021-0.023-0.03c-24.32-35.254-57.224-66.682-79.641-102.683c-0.382-0.062-0.761-0.127-1.141-0.188
				c-30.369-4.706-60.65-2.482-89.368,8.657c-12.211,4.702-24.757,10.064-37.298,16.085c-3.417,1.612-6.83,3.27-10.234,4.97
				c-16.747,33.082-18.912,72.743-0.173,106.032c100.77,178.995,598.108,136.205,650.7,373.099
				c28.004,126.641-269.983,71.177-335.505,79.446c-154.989,19.554-172.433,163.427-242.548,280.024
				c-38.939,64.733-102.951,116.192-153.371,171.637c-44.102,48.499-81.959,98.265-111.803,155.286
				c1.882,20.564,1.679,41.131-2.396,61.313c-2.807,13.7-26.497,75.834-15.191,87.221c32.318,18.623,65.365,36.105,98.239,53.9
				c43.237-12.77,92.524-15.038,129.385-40.258C5602.658,5110.714,5664.167,5010.719,5724.763,4921.01z"/>
			<path id="_x31_80611197" fill="#6ACBBA" stroke="#000000" d="M5413.448,4855.494c50.418-55.444,114.432-106.904,153.372-171.635
				c70.116-116.598,87.558-260.472,242.548-280.024c65.522-8.268,363.51,47.193,335.506-79.447
				c-52.592-236.89-549.935-194.103-650.7-373.099c-18.74-33.286-16.576-72.949,0.171-106.032
				c-53.737,26.811-104.814,64.282-118.09,110.3c-8.915,30.697-1.081,65.272,33.905,102.984
				c29.208,31.606,63.946,57.519,95.797,86.322c30.941,27.894,56.272,61.976,70.542,101.42c2.474,6.764,4.62,13.78,6.517,20.957
				c9.488,34.659,13.281,73.36,10.143,107.854c-12.722,138.711-132.215,252.16-236.854,330.792
				c-37.384,28.136-79.303,48.514-117.182,75.576c-3.715,2.64,44.796,133.188,47.52,145.73
				c5.913,27.199,12.426,55.392,15.007,83.589C5331.49,4953.761,5369.349,4903.994,5413.448,4855.494z"/>
			<path id="_x31_80611182" fill="#A0EE9D" stroke="#000000" d="M4891.896,3744.018c10.067-4.206,27.313-1.235,54.212,11.888
				c87.135,42.67,106.854,94.162,181.522,189.808c71.369,91.353,227.24,113.976,284.666,173.313
				c29.212,30.204,57.266,44.895,85.4,76.171c6.602,7.345,12.789,14.934,18.401,22.693c37.54,51.82,52.467,113.139,31.009,178.653
				c-35.081,107.267-102.585,196.466-188.16,268.167c-9.325,7.839-131.704,91.747-134.758,85.643
				c-10.891-21.537-17.16-42.91-34.321-60.653c-25.741-26.573-91.172-77.824-132.681-61.9
				c39.28-15.097,81.944-52.228,105.301-86.636c31.441-46.123,43.329-100.255,44.076-155.375
				c0.498-34.741-5.109-71.212-15.421-104.386c-9.902-31.69-21.532-64.612-37.456-93.581c-16.42-29.79-34.9-58.59-56.603-84.833
				c-55.608-67.174-123.682-120.155-164.932-197.974c-31.436-59.166-72.934-147.219-40.34-160.915"/>
			<path id="_x31_80611189" fill="#80CDF8" stroke="#000000" d="M4566.195,5803.867c-9.109,16.453-56.723,86.148-51.111,102.902
				c29.44,87.781,98.76-39.207,113.931-73.1C4666.491,5749.918,4608.146,5728.074,4566.195,5803.867z"/>
			<path id="_x31_80611190" fill="#80CDF8" stroke="#000000" d="M4353.811,5448.161c6.285-32.228,63.515-24.501,63.13-55.051
				c-0.317-26.104-32.257-42.486-55.116-44.638c-13.049,15.712-29.176,29.749-44.486,36.372
				c-26.463,11.448-68.467,5.63-74.853,42.262c-8.263,47.381,59.775,72.753,83.228,100.22
				c13.063,15.298,24.372,32.253,35.191,49.675l2.623-0.241C4464.749,5559.689,4347.446,5480.756,4353.811,5448.161z"/>
			<path id="_x31_80611188" fill="#80CDF8" stroke="#000000" d="M5607.468,5434.009c-17.516-19.21-37.448-38.049-58.088-56.19
				c-0.527-0.462-1.059-0.919-1.586-1.382c0.175,43.664,5.622,86.248-11.734,128.717c-18.761,45.901-59.968,70.138-107.285,78.927
				c-0.025,0.004-0.05,0.01-0.075,0.013c-0.028,0.006-0.058,0.01-0.086,0.016c-122.416,22.178-199.728,126.364-308.341,176.155
				c-51.475,23.598-104.985,25.721-156.792,48.756c-57.069,25.377-104.581,70.734-168.639,79.367
				c-71.947,9.689-81.213-32.863-115.841-83.096c-33.225-48.207-42.518-59.141-93.96-71.238
				c-62.54-14.709-94.288,2.02-148.749-50.241c-45.799-43.964-69.513-108.402-110.578-156.49
				c-23.451-27.465-91.489-52.838-83.227-100.218c6.388-36.629,48.389-30.813,74.853-42.261
				c26.77-11.578,56.049-45.813,66.979-72.069c5.85-14.062,7.694-28.925,8.83-43.945c-0.002,0-0.004-0.001-0.006-0.003
				c-13.11-6.834-25.775-14.09-37.451-21.844c-0.039-0.026-0.081-0.053-0.119-0.078c-0.634-0.422-1.265-0.847-1.893-1.27
				c-0.104-0.071-0.209-0.139-0.314-0.211c-0.573-0.388-1.143-0.777-1.71-1.17c-0.157-0.107-0.317-0.215-0.478-0.324
				c-0.538-0.372-1.07-0.746-1.603-1.12c-0.183-0.128-0.365-0.254-0.549-0.384c-0.505-0.359-1.011-0.717-1.515-1.078
				c-0.205-0.146-0.411-0.296-0.619-0.439c-0.473-0.343-0.943-0.685-1.414-1.029c-0.232-0.169-0.464-0.335-0.693-0.507
				c-0.456-0.335-0.909-0.672-1.36-1.011c-0.236-0.175-0.473-0.351-0.707-0.527c-0.442-0.332-0.881-0.664-1.318-0.999
				c-0.243-0.187-0.486-0.37-0.729-0.557c-0.419-0.324-0.835-0.646-1.249-0.967c-0.256-0.204-0.518-0.403-0.774-0.606
				c-0.399-0.314-0.798-0.634-1.191-0.947c-0.266-0.21-0.529-0.421-0.794-0.634c-0.389-0.313-0.773-0.628-1.159-0.942
				c-0.264-0.215-0.531-0.434-0.793-0.649c-0.381-0.313-0.754-0.629-1.131-0.941c-0.266-0.222-0.529-0.444-0.792-0.668
				c-0.367-0.309-0.731-0.622-1.094-0.934c-0.267-0.228-0.534-0.458-0.799-0.688c-0.353-0.309-0.702-0.615-1.05-0.921
				c-0.271-0.238-0.54-0.479-0.809-0.717c-0.339-0.305-0.679-0.607-1.014-0.912c-0.271-0.246-0.54-0.49-0.812-0.738
				c-0.331-0.301-0.655-0.604-0.982-0.908c-0.268-0.252-0.535-0.499-0.802-0.749c-0.32-0.304-0.641-0.609-0.961-0.914
				c-0.264-0.253-0.527-0.509-0.789-0.761c-0.313-0.303-0.621-0.607-0.93-0.914c-0.263-0.257-0.524-0.517-0.785-0.776
				c-0.301-0.301-0.602-0.606-0.899-0.91c-0.259-0.263-0.517-0.528-0.779-0.797c-0.291-0.303-0.584-0.605-0.876-0.912
				c-0.253-0.266-0.507-0.531-0.758-0.803c-0.287-0.304-0.569-0.608-0.85-0.915c-0.251-0.271-0.503-0.544-0.748-0.817
				c-0.277-0.303-0.55-0.609-0.825-0.918c-0.245-0.274-0.489-0.552-0.733-0.829c-0.267-0.302-0.534-0.611-0.797-0.919
				c-0.242-0.28-0.48-0.562-0.72-0.843c-0.255-0.304-0.515-0.609-0.765-0.915c-0.242-0.287-0.479-0.574-0.712-0.861
				c-0.247-0.305-0.494-0.61-0.738-0.913c-0.231-0.293-0.463-0.584-0.691-0.876c-0.241-0.305-0.479-0.614-0.716-0.919
				c-0.225-0.295-0.448-0.587-0.669-0.881c-0.232-0.309-0.463-0.616-0.689-0.926c-0.222-0.299-0.438-0.598-0.655-0.896
				c-0.223-0.306-0.442-0.615-0.662-0.922c-0.214-0.304-0.428-0.607-0.639-0.91c-0.211-0.31-0.424-0.619-0.634-0.928
				c-0.208-0.304-0.412-0.617-0.616-0.921c-0.205-0.31-0.407-0.62-0.611-0.933c-0.2-0.31-0.397-0.622-0.593-0.936
				c-0.197-0.309-0.392-0.62-0.583-0.932c-0.197-0.315-0.387-0.633-0.576-0.949c-0.186-0.313-0.375-0.623-0.556-0.936
				c-0.188-0.316-0.371-0.637-0.554-0.959c-0.177-0.313-0.357-0.624-0.531-0.939c-0.177-0.322-0.354-0.647-0.524-0.969
				c-0.171-0.314-0.342-0.628-0.506-0.947c-0.173-0.325-0.338-0.652-0.505-0.979c-0.162-0.315-0.324-0.631-0.48-0.95
				c-0.162-0.328-0.319-0.661-0.48-0.993c-0.15-0.313-0.303-0.631-0.452-0.949c-0.154-0.335-0.304-0.671-0.455-1.009
				c-0.143-0.315-0.285-0.631-0.423-0.951c-0.146-0.341-0.289-0.684-0.428-1.023c-0.136-0.317-0.271-0.637-0.397-0.955
				c-0.138-0.347-0.273-0.689-0.405-1.036c-0.126-0.318-0.25-0.637-0.369-0.956c-0.131-0.35-0.254-0.704-0.382-1.055
				c-0.111-0.318-0.228-0.635-0.336-0.957c-0.123-0.354-0.238-0.714-0.355-1.074c-0.101-0.318-0.206-0.635-0.308-0.954
				c-0.111-0.362-0.219-0.73-0.328-1.095c-0.094-0.314-0.19-0.63-0.279-0.947c-0.104-0.367-0.198-0.736-0.299-1.107
				c-0.084-0.316-0.17-0.635-0.252-0.953c-0.094-0.374-0.18-0.749-0.27-1.127c-0.074-0.314-0.15-0.636-0.224-0.951
				c-0.085-0.392-0.161-0.782-0.244-1.173c-0.061-0.306-0.129-0.609-0.188-0.918c-0.079-0.404-0.146-0.809-0.217-1.218
				c-0.053-0.299-0.108-0.596-0.158-0.896c-0.068-0.421-0.126-0.843-0.188-1.263c-0.042-0.288-0.089-0.574-0.125-0.863
				c-0.063-0.477-0.118-0.957-0.17-1.438c-0.027-0.232-0.058-0.47-0.083-0.703c-0.073-0.719-0.138-1.438-0.19-2.161
				c-22.942,17.075-45.866,34.172-67.279,53.027c-9.366,8.25-80.638,67.794-76.633,82.532c8.896,28.277,17.356,57.057,26.922,86.321
				c53.47,163.532,90.345,337.646,202.534,468.066c5.428,6.236,11.017,12.373,16.79,18.393c7.954,8.293,16.17,16.418,24.606,24.363
				c6.575,6.037,13.355,11.953,20.379,17.727c56.622,46.551,115.167,84.539,175.958,111.463
				c69.01,29.203,142.934,45.375,217.416,43.184c112.071-3.295,227.854-49.143,338.87-113.357
				c34.468-19.934,162.216-99.283,283.081-186.803c8.332-6.08,16.653-12.154,24.954-18.229
				c53.326-39.17,110.672-82.578,155.716-123.725c23.645-23.602,45.784-48.634,67.052-74.488
				C5680.423,5511.383,5613.95,5441.122,5607.468,5434.009z M4629.015,5833.672c-15.17,33.893-84.49,160.879-113.931,73.1
				c-5.611-16.756,42.002-86.447,51.111-102.902C4608.146,5728.074,4666.491,5749.918,4629.015,5833.672z"/>
			<path id="_x31_80611187" fill="#80CDF8" stroke="#000000" d="M5484.603,5323.886c-28.559-22.978-59.436-44.167-91.586-63.321
				c-46.021-3.683-94.318-19.71-137.213-0.254c-73.421,33.304-65.965,138.298,7.572,158.661
				c46.172,12.794,75.58-29.561,108.924,31.318c52.789,96.414-215.108,130.64-258.452,139.188
				c-122.472,24.117-253.037,8.591-353.567-69.141c-75.32-58.234-137.2-132.805-218.997-182.901
				c-0.967-0.591-1.967-1.185-2.992-1.781c-0.021-0.012-0.038-0.021-0.057-0.032c-1.01-0.582-2.045-1.175-3.11-1.763
				c-0.039-0.021-0.08-0.047-0.123-0.069c-1.045-0.576-2.118-1.161-3.214-1.742c-0.054-0.029-0.107-0.058-0.166-0.087
				c-1.085-0.577-2.193-1.156-3.326-1.737c-0.075-0.037-0.151-0.076-0.226-0.114c-1.12-0.573-2.262-1.15-3.427-1.727
				c-0.088-0.044-0.179-0.089-0.269-0.134c-1.152-0.571-2.327-1.146-3.522-1.723c-0.108-0.052-0.219-0.104-0.327-0.157
				c-1.184-0.568-2.383-1.142-3.604-1.716c-0.126-0.06-0.253-0.119-0.379-0.178c-1.211-0.571-2.438-1.141-3.688-1.715
				c-0.145-0.067-0.283-0.133-0.427-0.198c-1.234-0.569-2.485-1.143-3.758-1.715c-0.162-0.073-0.323-0.146-0.489-0.221
				c-1.257-0.565-2.521-1.135-3.808-1.706c-0.188-0.085-0.377-0.166-0.565-0.252c-1.271-0.563-2.548-1.128-3.842-1.696
				c-0.213-0.096-0.429-0.189-0.642-0.284c-1.271-0.557-2.551-1.115-3.845-1.678c-0.261-0.113-0.522-0.228-0.783-0.342
				c-1.255-0.543-2.521-1.093-3.8-1.644c-0.307-0.131-0.612-0.265-0.924-0.396c-1.2-0.519-2.413-1.039-3.635-1.564
				c-0.445-0.19-0.891-0.38-1.34-0.575c-1.065-0.452-2.141-0.916-3.221-1.375c-27.756-11.855-59.31-25.009-88.634-40.29l0,0
				c-1.137,15.021-2.979,29.886-8.833,43.943c-4.675,11.241-12.721,23.941-22.49,35.698c22.859,2.151,54.798,18.536,55.116,44.638
				c0.385,30.55-56.843,22.823-63.13,55.049c-6.364,32.597,110.938,111.532,9.715,128.597l-2.622,0.241
				c23.193,37.344,44.156,76.837,75.383,106.814c54.461,52.261,86.208,35.534,148.747,50.241
				c51.446,12.098,60.737,23.035,93.962,71.24c34.632,50.232,43.893,92.785,115.84,83.098
				c64.059-8.637,111.572-53.994,168.64-79.371c51.809-23.035,105.319-25.156,156.792-48.756
				c108.61-49.791,185.924-153.977,308.34-176.153c0.028-0.008,0.059-0.01,0.086-0.018c0.025-0.006,0.051-0.007,0.076-0.014
				c47.318-8.791,88.523-33.022,107.285-78.927c17.354-42.468,11.909-85.051,11.734-128.715
				C5526.822,5358.075,5505.168,5340.436,5484.603,5323.886z"/>
			<path id="_x31_80611186" fill="#80CDF8" stroke="#000000" d="M4292.026,5164.186c0.054,0.479,0.108,0.962,0.169,1.438
				c0.041,0.287,0.086,0.574,0.125,0.861c0.063,0.424,0.121,0.846,0.189,1.264c0.047,0.301,0.104,0.596,0.16,0.896
				c0.069,0.402,0.139,0.81,0.217,1.216c0.057,0.31,0.126,0.611,0.188,0.918c0.08,0.391,0.158,0.784,0.244,1.173
				c0.07,0.319,0.147,0.637,0.225,0.955c0.088,0.373,0.174,0.748,0.267,1.123c0.082,0.316,0.167,0.636,0.255,0.955
				c0.097,0.369,0.193,0.738,0.296,1.107c0.091,0.314,0.188,0.631,0.28,0.946c0.108,0.365,0.216,0.732,0.329,1.097
				c0.1,0.316,0.205,0.634,0.308,0.953c0.118,0.357,0.233,0.716,0.354,1.073c0.111,0.32,0.227,0.639,0.337,0.957
				c0.126,0.351,0.249,0.706,0.38,1.055c0.122,0.318,0.247,0.637,0.37,0.956c0.131,0.347,0.265,0.691,0.405,1.037
				c0.126,0.319,0.262,0.637,0.396,0.955c0.142,0.342,0.282,0.684,0.429,1.025c0.139,0.317,0.282,0.633,0.423,0.949
				c0.151,0.338,0.3,0.673,0.456,1.01c0.148,0.319,0.302,0.635,0.454,0.951c0.16,0.332,0.316,0.664,0.479,0.992
				c0.157,0.319,0.315,0.633,0.478,0.949c0.168,0.326,0.334,0.655,0.506,0.982c0.167,0.315,0.335,0.63,0.507,0.945
				c0.172,0.324,0.347,0.648,0.526,0.97c0.173,0.313,0.353,0.624,0.53,0.94c0.184,0.32,0.364,0.642,0.552,0.961
				c0.183,0.309,0.369,0.62,0.556,0.932c0.191,0.318,0.382,0.636,0.576,0.952c0.191,0.308,0.389,0.62,0.584,0.931
				c0.196,0.311,0.396,0.623,0.594,0.936c0.201,0.311,0.405,0.618,0.612,0.93c0.204,0.306,0.406,0.618,0.615,0.924
				c0.21,0.309,0.423,0.617,0.634,0.926c0.211,0.303,0.424,0.609,0.637,0.91c0.218,0.309,0.441,0.615,0.663,0.924
				c0.219,0.3,0.437,0.598,0.655,0.897c0.227,0.307,0.458,0.614,0.689,0.925c0.223,0.296,0.444,0.585,0.67,0.88
				c0.237,0.306,0.479,0.614,0.716,0.918c0.23,0.293,0.459,0.583,0.692,0.876c0.244,0.304,0.49,0.608,0.735,0.913
				c0.237,0.289,0.475,0.574,0.711,0.863c0.254,0.304,0.51,0.611,0.766,0.914c0.24,0.282,0.479,0.565,0.722,0.846
				c0.266,0.307,0.531,0.611,0.797,0.917c0.243,0.276,0.487,0.552,0.734,0.83c0.271,0.306,0.546,0.609,0.823,0.917
				c0.248,0.272,0.498,0.544,0.747,0.817c0.281,0.305,0.564,0.608,0.85,0.915c0.249,0.268,0.506,0.534,0.76,0.802
				c0.29,0.305,0.581,0.608,0.876,0.914c0.258,0.264,0.519,0.528,0.778,0.795c0.297,0.302,0.599,0.606,0.901,0.909
				c0.259,0.26,0.518,0.52,0.783,0.778c0.309,0.305,0.619,0.607,0.931,0.913c0.264,0.253,0.527,0.507,0.79,0.761
				c0.319,0.304,0.638,0.609,0.961,0.914c0.267,0.251,0.534,0.502,0.801,0.749c0.326,0.304,0.653,0.606,0.983,0.91
				c0.267,0.247,0.539,0.491,0.811,0.736c0.335,0.306,0.673,0.608,1.016,0.911c0.266,0.242,0.536,0.479,0.807,0.719
				c0.349,0.305,0.696,0.612,1.048,0.919c0.266,0.23,0.533,0.462,0.801,0.688c0.363,0.312,0.728,0.626,1.095,0.937
				c0.261,0.221,0.525,0.444,0.789,0.664c0.377,0.314,0.752,0.627,1.131,0.941c0.263,0.216,0.53,0.433,0.793,0.648
				c0.386,0.315,0.775,0.633,1.16,0.945c0.263,0.21,0.53,0.421,0.791,0.632c0.398,0.318,0.795,0.635,1.194,0.947
				c0.26,0.203,0.517,0.403,0.775,0.607c0.417,0.323,0.827,0.645,1.249,0.967c0.241,0.186,0.485,0.37,0.729,0.557
				c0.439,0.333,0.877,0.668,1.316,0.999c0.237,0.177,0.473,0.353,0.709,0.527c0.453,0.338,0.903,0.674,1.36,1.011
				c0.23,0.171,0.463,0.337,0.695,0.506c0.468,0.344,0.94,0.686,1.415,1.029c0.202,0.146,0.411,0.293,0.615,0.44
				c0.505,0.359,1.007,0.718,1.515,1.078c0.183,0.128,0.367,0.253,0.55,0.384c0.534,0.372,1.068,0.746,1.604,1.119
				c0.155,0.11,0.316,0.218,0.475,0.324c0.569,0.392,1.138,0.783,1.712,1.171c0.104,0.069,0.209,0.14,0.313,0.212
				c0.629,0.423,1.26,0.85,1.893,1.269c0.042,0.024,0.082,0.053,0.119,0.079c11.678,7.752,24.343,15.008,37.452,21.842
				c0.002,0.002,0.006,0.003,0.008,0.004c29.323,15.279,60.875,28.434,88.632,40.29c1.078,0.459,2.151,0.919,3.221,1.377
				c0.447,0.191,0.894,0.383,1.339,0.575c1.22,0.521,2.432,1.044,3.636,1.563c0.31,0.131,0.616,0.265,0.92,0.397
				c1.277,0.553,2.546,1.099,3.803,1.642c0.262,0.115,0.522,0.229,0.783,0.342c1.293,0.563,2.574,1.122,3.844,1.678
				c0.214,0.095,0.429,0.188,0.641,0.282c1.294,0.568,2.573,1.137,3.842,1.696c0.189,0.088,0.379,0.169,0.564,0.254
				c1.286,0.571,2.556,1.141,3.811,1.705c0.161,0.074,0.323,0.148,0.489,0.221c1.27,0.575,2.521,1.145,3.756,1.717
				c0.146,0.064,0.286,0.128,0.43,0.195c1.245,0.574,2.476,1.146,3.689,1.717c0.124,0.058,0.252,0.118,0.377,0.177
				c1.222,0.575,2.423,1.148,3.604,1.717c0.109,0.053,0.22,0.104,0.326,0.157c1.195,0.577,2.371,1.151,3.525,1.723
				c0.089,0.046,0.179,0.092,0.267,0.134c1.165,0.576,2.31,1.153,3.428,1.727c0.071,0.038,0.152,0.077,0.223,0.114
				c1.134,0.581,2.245,1.16,3.329,1.736c0.056,0.029,0.11,0.057,0.165,0.088c1.099,0.583,2.169,1.165,3.216,1.743
				c0.04,0.021,0.081,0.046,0.123,0.068c1.063,0.589,2.099,1.177,3.107,1.763c0.02,0.011,0.04,0.021,0.061,0.032
				c1.025,0.597,2.023,1.191,2.991,1.781c81.796,50.095,143.677,124.663,218.995,182.901
				c100.53,77.731,231.096,93.258,353.567,69.141c43.344-8.547,311.239-42.773,258.452-139.189
				c-33.345-60.875-62.753-18.522-108.924-31.316c-73.54-20.363-80.993-125.358-7.572-158.661
				c42.894-19.456,91.189-3.429,137.215,0.253c-35.771-21.314-73.118-40.107-110.627-56.031
				c-44.607-18.935-87.283,41.187-117.896,65.334c-103.043,81.279-210.802,131.219-345.312,111.479
				c-119.956-17.576-260.197-71.419-340.01-166.49c-26.548-31.624-49.14-77.014-65.479-114.99
				c-14.87-34.575-56.411,10.596-73.075,24.079c-15.923,12.871-32.399,25.115-48.863,37.374c0.05,0.724,0.116,1.44,0.188,2.161
				C4291.97,5163.717,4292.001,5163.95,4292.026,5164.186z"/>
			<path id="_x31_80611245" fill="#CCCCCC" stroke="#000000" d="M4886.317,3941.638c1.591,3.479,6.965,6.503,9.75,9.276
				c18.738,18.625,32.266,40.865,44.311,64.124c13.714,26.464,27.581,55.06,36.031,83.704c5.627,19.053,9.399,37.571,4.694,57.226
				c-0.7,2.954-2.395,5.47-3.217,8.402c-2.136,7.564,1.932,17.736,2.383,25.46c1.38,23.672,1.649,47.396,0.535,71.089
				c-0.586,12.621-1.624,25.24-3.084,37.785c-8.3,70.881-31.208,129.363-68.172,189.51c-35.037,57.02-32.423,120.907,37.944,148.889
				c59.195,23.536,132.604-13.557,176.611-53.151c117.157-105.38,94.189-271.141,29.705-396.29c-0.86-1.679-1.915-3.29-2.875-4.92
				c-9.772-16.666-20.205-32.879-31.457-48.584c-15.979-22.31-33.189-43.738-51.212-64.407
				c-19.367-22.22-39.665-43.704-61.213-63.826c-19.286-18.006-39.836-35.61-63.311-47.951
				C4925.595,3948.423,4906.486,3944.21,4886.317,3941.638z"/>
			<path id="_x31_80611246" fill="#CCCCCC" stroke="#000000" d="M6474.377,4802.621c11.944-17.624,29.553-31.555,20.522-55.486
				c-5-13.253-29.563-19.47-41.516-18.021c-33.863,4.081-71.315,31.092-98.269,50.559c-31.024,22.4-58.228,49.641-88.787,72.695
				c-95.636,72.143-188.377,154.268-288.01,220.902c-79.726,53.324-161.545,102.875-227.933,173.46
				c-15.322,16.283-29.354,36.567-40.14,56.116c-22.173,40.211-32.692,135.063,29.57,142.327c3.503,0.412,7.244,0.544,11.213,0.375
				c40.437-1.738,66.324-51.479,89.218-78.436c11.87-13.979,23.813-27.915,35.947-41.679
				c33.396-39.445,69.116-76.607,109.577-109.175c12.17-10.112,24.795-19.746,38.423-28.992
				c18.568-12.597,37.939-23.621,57.487-34.374c18.475-10.453,36.781-20.415,54.781-30.492
				c32.725-19.223,64.936-37.87,95.453-60.583c19.666-15.03,38.538-31.814,56.378-51.404
				c42.192-46.332,87.461-94.593,132.283-145.025c7.186-8.534,14.318-17.117,21.493-25.657c5.772-6.857,12.325-13.449,18.556-20.233
				c3.502-4.097,6.994-8.208,10.477-12.334C6472.237,4805.669,6473.337,4804.16,6474.377,4802.621z"/>
			<path id="_x31_80611244" fill="#AAAAAA" stroke="#000000" d="M4768.531,3996.269c2.462,34.313,25.024,71.419,49.603,92.629
				c31.372,27.079,85.612,129.441,138.764,98.404c54.152-31.633,11.602-112.043-7.114-152.887
				c-22.956-50.062-71.728-136.145-140.68-104.979C4777.15,3943.874,4766.587,3969.212,4768.531,3996.269z"/>
		</g>
	</g>
	<g transform="scale(1.0)">
		<g id="_x31_80611177_1_" transform=" scale(1.0, 1.0)">
			<path id="_x31_80611179_1_" fill="#BFDAE3" stroke="#000000" d="M3919.184,4068.225
				c-4.502,148.662-36.395,259.613-34.975,385.738c1.414,126.146,57.036,241.391,26.789,414.678
				c-17.461,100.051-91.809,179.66-145.424,261.148c-52.365,79.605-71.203,164.268-100.34,253.412
				c-62.252,190.393-102.004,395.123-264.311,528.551c-166.971,137.264-350.6,200.229-559.482,123.807
				c-203.963-74.619-380.871-216.285-555.33-341.721c-198.164-142.488-282.637-393.418-494.119-521.316
				c-86.486-52.307-171.133-86.178-240.283-162.113c-193.273-212.225-450.965-464.912-435.408-781.07
				c-0.563,11.395-81.178-63.379-86.035-70.23c-25.832-36.504-53.992-89.021-65.438-132.391
				c-26.93-102.033-55.574-201.035-87.008-304.096c-87.344-286.418-155.084-622.463-146.135-922.125
				c9.666-323.547,131.781-627.826,299.217-902.226c220.221-360.912,579.613-734.726,874.609-896.756
				c299.059-164.266,786.953-312.632,1056.186-346.662c109.148-13.796,220.631,19.346,327.066,37.339
				c87.678,14.829,166.439,21.534,243.771,69.805c151.051,94.284,271.197,246.13,358.902,398.878
				c32.424,56.464,27.631,256.443,27.551,547.359c-0.049,189.738,0.02,462.471,0.057,694.292
				c0.021,175.958,0.027,330.444,0.043,504.958C3919.139,3531.879,3919.17,3887.67,3919.184,4068.225z"/>
			<path id="_x31_80611180_1_" fill="#B0FFB8" stroke="#000000" d="M731.69,2800.506c-8.955,299.666,58.793,635.709,146.135,922.125
				c31.439,103.066,60.072,202.07,87.008,304.102c11.447,43.371,39.607,95.891,65.434,132.395
				c4.859,6.85,85.475,81.621,86.041,70.229c-15.559,316.162,242.137,568.85,435.404,781.076
				c69.146,75.939,153.797,109.807,240.281,162.117c152.172,92.029,211.248,210.615,321.57,343.805
				c12.381-15.125,131.129-175.4,239.279-242.068c86.104-53.074,171.152-98.494,177.406-100.416
				c4.746-1.449,56.203-37.275,60.5-39.887c13.762,23.375,40.26,43.092,55.029,56.379c13.75,12.377,51.205,45.783,64.635,56.379
				c43.662,34.42,104.529,71.51,127.912,79.76c92.602,32.678,161.801,28.092,258.549-1.402
				c18.225-5.555,55.119-24.838,72.889-31.635c67.486-28.457,119.826-64.248,170.523-116.916
				c35.748-37.137,50.248-100.254,64.621-144.412c-1.834,5.627,104.783,65.771,113.576,71.451
				c66.166,42.75,119.855,88.969,188.768,149.402c12.205-42.783,33.764-85.84,58.332-123.18
				c53.617-81.49,127.961-161.098,145.426-261.148c30.243-173.293-25.381-288.539-26.795-414.682
				c-1.416-126.129,30.473-237.082,34.971-385.74c-0.008-180.557-0.039-536.352-0.096-1160.75
				c-0.016-174.516-0.027-329.003-0.047-504.965c-0.02-231.049-0.104-504.558-0.055-694.295
				c0.076-290.919,4.872-490.898-27.555-547.361c-87.707-152.754-207.852-304.598-358.906-398.885
				c-77.33-48.271-156.09-54.974-243.766-69.803c-106.438-17.994-217.918-51.135-327.066-37.34
				c-269.234,34.03-757.121,182.404-1056.184,346.67c-294.994,162.031-654.391,535.854-874.605,896.769
				C863.467,2172.68,741.354,2476.963,731.69,2800.506z M2890.217,4034.414c22.955-50.059,71.727-136.143,140.68-104.979
				c31.953,14.438,42.516,39.775,40.572,66.834c-2.463,34.313-25.025,71.418-49.604,92.627
				c-31.371,27.08-85.611,129.441-138.764,98.404C2828.95,4155.668,2871.5,4075.258,2890.217,4034.414z"/>
			<path id="_x31_80611223_1_" fill="#1F9D5A" stroke="#000000" d="M900.432,2633.425c-14.51,182.365,3.248,364.81,36.27,544.615
				l-176.334,37.229c-21.383-140.44-32.701-281.215-28.668-414.729c9.627-323.555,131.809-627.892,299.211-902.279
				c220.205-360.869,579.619-734.708,874.602-896.798c90.848-49.849,199.104-98.296,313.303-142.455l0.248,0.58l40.609,134.995
				c-255.213,124.544-493.096,281.924-679.654,410.092C1226.782,1647.309,933.811,2213.16,900.432,2633.425z"/>
			<path id="_x31_80611222_1_" fill="#1F9D5A" stroke="#000000" d="M1339.012,2708.065c-6.506,124.604-2.533,254.982,13.486,382.307
				l-415.797,87.67c-33.023-179.804-50.777-362.25-36.273-544.614c33.385-420.268,326.354-986.118,679.588-1228.751
				c186.557-128.167,424.443-285.549,679.656-410.092l128.35,426.689c-209.416,109.189-454.648,243.385-622.717,434.098
				C1514.065,2140.327,1359.034,2325.924,1339.012,2708.065z"/>
			<path id="_x31_80611221_1_" fill="#1F9D5A" stroke="#000000" d="M2540.889,1929.734
				c-146.295,80.468-282.109,186.764-386.646,307.827c-141.916,164.388-265.426,381.586-346.191,583.349
				c-31.348,78.396-29.859,134.837-4.855,174.361l-450.697,95.102c-16.02-127.326-19.994-257.703-13.486-382.305
				c20.021-382.145,175.053-567.739,426.293-852.695c168.068-190.713,413.301-324.911,622.717-434.099L2540.889,1929.734z"/>
			<path id="_x31_80611220_1_" fill="#1F9D5A" stroke="#000000" d="M2691.112,2429.369l-1.568,2.146l-1.154,4.618
				c-316.357,155.576-529.637,480.882-529.637,480.882l-9.154,7.673l-1.816-2.146l-14.275,3.054l-330.311,69.675
				c-25.004-39.524-26.494-95.966,4.855-174.361c80.766-201.763,204.275-418.961,346.191-583.349
				c104.537-121.063,240.352-227.359,386.646-307.827L2691.112,2429.369z"/>
			<path id="_x31_80611227_1_" fill="#1F9D5A" stroke="#000000" d="M2961.698,654.797c109.17-13.789,220.65,19.371,327.102,37.351
				c87.633,14.845,166.439,21.523,243.76,69.872c86.15,53.711,162.242,126.238,227.93,206.935l-103.709,141.608
				c-62.393-114.941-156.307-209.416-298.984-267.577c-335.357-136.538-734.32-25.929-1098.123,151.599l-40.609-134.995l-0.248-0.58
				C2480.797,757.656,2774.221,678.577,2961.698,654.797z"/>
			<path id="_x31_80611226_1_" fill="#1F9D5A" stroke="#000000" d="M3357.793,842.987c142.678,58.16,236.59,152.634,298.984,267.576
				l-229.203,313.011c-39.205-91.096-103.824-167.915-221.002-234c-300.625-169.549-490.561,61.436-759.141,200.833
				c-19.391,10.067-39.273,20.384-59.41,30.866l-128.35-426.689C2623.473,817.056,3022.436,706.447,3357.793,842.987z"/>
			<path id="_x31_80611225_1_" fill="#1F9D5A" stroke="#000000" d="M2447.434,1390.405
				c268.578-139.396,458.514-370.379,759.139-200.832c117.18,66.085,181.797,142.904,221.002,234l-316.086,431.761
				c-19.145-13.945-37.547-25.411-53.559-33.003c-91.598-43.642-193.586-25.726-286.086,5.307
				c-77.893,26.166-155.785,60.666-230.955,102.096l-152.867-508.461C2408.159,1410.791,2428.042,1400.475,2447.434,1390.405z"/>
			<path id="_x31_80611224_1_" fill="#1F9D5A" stroke="#000000" d="M2771.846,1827.638c92.5-31.033,194.488-48.95,286.086-5.307
				c16.01,7.592,34.412,19.059,53.557,33.003l-420.375,574.033l-150.225-499.633
				C2616.059,1888.303,2693.954,1853.804,2771.846,1827.638z"/>
			<path id="_x31_80611219_1_" fill="#009C75" stroke="#000000" d="M936.7,3178.041c17.418,94.812,39.133,188.797,62.572,281.711
				l-172.371,80.801c-26.742-105.703-49.775-215.367-66.535-325.282L936.7,3178.041z"/>
			<path id="_x31_80611218_1_" fill="#009C75" stroke="#000000" d="M936.702,3178.04l415.795-87.671
				c0.992,8.334,2.064,16.588,3.305,24.755l-0.248,0.002c-104.637-54.121-80.031,117.925-61.209,206.381l-295.07,138.246
				C975.833,3366.838,954.122,3272.853,936.702,3178.04z"/>
			<path id="_x31_80611217_1_" fill="#009C75" stroke="#000000" d="M1355.803,3115.125c7.512,55.451,17.5,110.243,29.883,163.548
				l-91.342,42.833c-18.822-88.456-43.426-260.504,61.209-206.381H1355.803z"/>
			<path id="_x31_80611216_1_" fill="#009C75" stroke="#000000" d="M1385.686,3278.673
				c-12.383-53.305-22.371-108.096-29.883-163.548c-1.242-8.169-2.314-16.421-3.305-24.755l450.699-95.101
				c15.268,24.259,39.449,42.162,70.309,54.869L1385.686,3278.673z"/>
			<path id="_x31_80611215_1_" fill="#009C75" stroke="#000000" d="M2134.002,2928.07l-260.496,122.069
				c-30.861-12.706-55.039-30.612-70.309-54.869l330.309-69.675L2134.002,2928.07z"/>
			<path id="_x31_80611231_1_" fill="#40A666" stroke="#000000" d="M3891.465,1160.876c21.705,37.875,26.746,140.445,27.668,291.699
				l-145.303,115.704c-3.387-38.04-7.598-75.916-12.967-113.297c-17.832-123.529-48.461-242.102-104.082-344.42l103.709-141.608
				C3810.088,1029.765,3853.829,1095.28,3891.465,1160.876z"/>
			<path id="_x31_80611230_1_" fill="#40A666" stroke="#000000" d="M3727.118,1292.591c9.605,37.776,24.828,100.497,30.189,138.939
				c8.844,63.41,10.184,92.859,16.521,136.748l-24.588,19.565c-33.584,26.73,5.238-4.169-33.584,26.73l-214.695,170.915
				c-17.836-141.6-29.811-260.59-73.389-361.918l229.205-313.011C3680.227,1153.693,3708.977,1221.239,3727.118,1292.591z"/>
			<path id="_x31_80611229_1_" fill="#40A666" stroke="#000000" d="M3500.961,1785.491l-259.004,206.234
				c-28.883-48.682-81.947-100.829-130.469-136.391l316.086-431.761C3471.151,1524.901,3483.125,1643.891,3500.961,1785.491z"/>
			<path id="_x31_80611228_1_" fill="#40A666" stroke="#000000" d="M3241.958,1991.725l-550.596,438.301l-0.25-0.66l420.377-574.033
				C3160.01,1890.895,3213.075,1943.042,3241.958,1991.725z"/>
			<path id="_x31_80611236_1_" fill="#2FA850" stroke="#000000" d="M3918.989,1708.218c-0.066,189.707,0.039,462.512,0.057,694.305
				c0.014,152.246,0.027,288.483,0.039,435.448l-93.988-31.597c-0.275-312.412-23.902-629.939-35.398-937.482
				c-3.639-97.29-6.865-199.528-15.869-300.611l145.303-115.704C3919.549,1526.676,3918.979,1612.578,3918.989,1708.218z"/>
			<path id="_x31_80611235_1_" fill="#2FA850" stroke="#000000" d="M3731.959,2130.228c-12.311-142.425-1.68-287.739-6.889-430.742
				c-0.828-22.196-5.453-52.895-9.416-84.911l58.172-46.297c9.002,101.083,12.232,203.322,15.869,300.611
				c11.496,307.543,35.125,625.07,35.398,937.481l-130.215-43.805C3768.555,2596.205,3744.844,2279.502,3731.959,2130.228z"/>
			<path id="_x31_80611234_1_" fill="#2FA850" stroke="#000000" d="M3725.071,1699.487c5.215,143.003-5.418,288.317,6.889,430.742
				c12.885,149.274,36.596,465.974-37.076,632.337l-106.039-35.72c-1.742-100.178-6.043-200.354-15.459-300.858
				c-18.666-200.023-40.633-399.135-66.973-598.332c-1.898-14.273-3.717-28.302-5.451-42.165l214.695-170.915
				C3719.622,1646.593,3724.245,1677.29,3725.071,1699.487z"/>
			<path id="_x31_80611233_1_" fill="#2FA850" stroke="#000000" d="M3506.411,1827.657
				c26.342,199.196,48.309,398.308,66.975,598.332c9.416,100.503,13.715,200.681,15.457,300.858l-194.828-65.501
				c-11.477-76.906-24.768-149.851-33.439-212.482c-19.979-144.157-62.486-276.017-100.129-415.552
				c-3.549-13.202-9.986-27.229-18.488-41.587l259.004-206.234C3502.696,1799.353,3504.514,1813.38,3506.411,1827.657z"/>
			<path id="_x31_80611232_1_" fill="#2FA850" stroke="#000000" d="M2703.325,2428.953c-5.033,2.392-9.982,4.786-14.934,7.179
				l1.154-4.618l1.816-1.487l550.596-438.301c8.502,14.357,14.939,28.386,18.49,41.587
				c37.639,139.535,80.148,271.395,100.127,415.553c8.672,62.629,21.963,135.573,33.439,212.48l-689.617-232.063L2703.325,2428.953z
				"/>
			<path id="_x31_80611240_1_" fill="#59B363" stroke="#000000" d="M3750.237,3559.766
				c47.934-121.967,49.572-235.429,60.371-365.229c10.633-127.738,14.582-257.54,14.488-388.166l93.988,31.596
				c0.004,22.858,0.006,45.962,0.008,69.48c0.023,272.062,0.041,493.127,0.059,670.953l-178.813,9.01
				C3743.141,3578.582,3746.442,3569.422,3750.237,3559.766z"/>
			<path id="_x31_80611239_1_" fill="#59B363" stroke="#000000" d="M3589.928,2864.648l-0.111-48.394
				c-0.354-45.944-0.223-32.931-0.975-89.411l236.252,79.526c0.096,130.625-3.855,260.427-14.488,388.166
				c-10.797,129.803-12.439,243.263-60.371,365.23c-3.795,9.656-7.096,18.816-9.898,27.645l-13.697,0.662
				c-56.934,41.842-124.514,55.875-194.404,62.484c-42.336,4.047-85.488,5.373-127.654,8.51l-0.994-14.275
				c186.242-10.412,185.141-349.809,185.129-485.799C3588.706,3060.3,3589.936,2962.352,3589.928,2864.648z"/>
			<path id="_x31_80611238_1_" fill="#59B363" stroke="#000000" d="M2997.633,2971.977
				c174.449,93.229-110.199,499.488,200.881,390.537c117.83-41.184,163.615-148.625,194.141-250.705
				c39.76-133.104,24.066-299.378,1.363-450.466l194.828,65.503c0.828,45.88,1.08,91.84,1.084,137.804
				c0.01,97.701-1.221,195.65-1.211,294.343c0.014,135.989,1.115,475.384-185.127,485.798c-12.047,0.662-24.84,0.002-38.537-2.227
				c-83.262-13.523-121.389-104.455-187.82-149.75c-47.783-32.51-101.008-55.279-156.543-69.303l-154.598-486.016
				C2910.901,2939.555,2955.956,2949.701,2997.633,2971.977z"/>
			<path id="_x31_80611237_1_" fill="#59B363" stroke="#000000" d="M3394.01,2661.344c22.705,151.088,38.4,317.36-1.361,450.465
				c-30.521,102.077-76.309,209.519-194.141,250.705c-311.08,108.951-26.434-297.309-200.881-390.539
				c-41.674-22.276-86.729-32.42-131.535-34.481l-161.695-508.211L3394.01,2661.344z"/>
			<path id="_x31_80611206_1_" fill="#248A5E" stroke="#000000" d="M1552.03,4079.822L1621,3947.709
				c156.529-75.275,418.842-182.984,436.012-87.182l2.889,6.438c-32.758,14.445-65.682,28.641-100.254,37.969
				c-133.262,35.986-265.037,104.324-388.23,165.316C1564.899,4073.469,1558.463,4076.688,1552.03,4079.822z"/>
			<path id="_x31_80611205_1_" fill="#248A5E" stroke="#000000" d="M2335.422,3840.289c-12.541-6.023-25.086-11.385-37.297-16.088
				c-28.719-11.137-59-13.363-89.367-8.656c-52.727,8.174-100.67,30.127-148.857,51.422l-2.889-6.438
				c-17.172-95.801-279.482,11.906-436.012,87.18l176.887-339c23.352-0.166,47.447-1.492,72.121-3.967
				c187.641-18.666,373.629-78.098,556.646-127.375L2335.422,3840.289z"/>
			<path id="_x31_80611204_1_" fill="#248A5E" stroke="#000000" d="M1797.887,3608.709l278.285-533.337
				c149.271-5.046,329.074-42.855,470.836-76.867l-120.352,478.862c-183.018,49.277-369.008,108.707-556.648,127.375
				C1845.333,3607.217,1821.239,3608.541,1797.887,3608.709z"/>
			<path id="_x31_80611203_1_" fill="#248A5E" stroke="#000000" d="M2547.004,2998.504
				c-141.758,34.011-321.564,71.82-470.834,76.867l82.584-158.358c0,0,213.281-325.305,529.637-480.88L2547.004,2998.504z"/>
			<path id="_x31_80611202_1_" fill="#248A5E" stroke="#000000" d="M2335.42,3840.287c57.355,27.059,471.336-41.715,558.471-84.385
				c26.898-13.121,44.145-16.094,54.213-11.887l0.082,0.082l75.256,15.012l-1.4,7.014c29.127-8.83,67.334-7.432,106.941-0.09
				c8.25,1.566,16.586,3.299,24.922,5.279l0.578-9.902c63.861-78.729,154.465-95.24,250.102-102.344l-0.994-14.275
				c-12.047,0.662-24.838,0.002-38.537-2.227c-83.262-13.523-121.389-104.455-187.82-149.75
				c-47.781-32.51-101.006-55.279-156.543-69.303c-43.896-11.137-89.201-16.824-134.42-17.729
				c-132.523-2.629-264.631,21.727-392.529,54.004c-22.279,5.609-44.641,11.553-67.086,17.58L2335.42,3840.287z"/>
			<path id="_x31_80611201_1_" fill="#248A5E" stroke="#000000" d="M2769.383,2944.518c31.027-5.697,63.787-8.588,96.711-7.022
				l154.596,486.016c-43.896-11.137-89.201-16.824-134.42-17.729c-132.523-2.629-264.631,21.727-392.529,54.004
				c-22.279,5.609-44.641,11.553-67.086,17.58l120.352-478.862C2649.737,2973.905,2732.583,2951.288,2769.383,2944.518z"/>
			<path id="_x31_80611200_1_" fill="#248A5E" stroke="#000000" d="M2703.327,2428.952l1.074,0.333l161.693,508.211
				c-32.924-1.565-65.682,1.326-96.709,7.023c-36.803,6.771-119.648,29.387-222.379,53.986l141.385-562.373
				C2693.342,2433.739,2698.293,2431.345,2703.327,2428.952z"/>
			<path id="_x31_80611214_1_" fill="#219866" stroke="#000000" d="M1002.247,3471.391c23.441,92.004,30.139,238.471,59.111,367.857
				l-107.262,90.117l-14.605,4.043c-19.398-69.889-39.869-139.285-61.658-210.744c-17.91-58.834-35.082-119.814-50.93-182.111
				l172.371-80.801C1000.264,3463.629,1001.256,3467.508,1002.247,3471.391z"/>
			<path id="_x31_80611213_1_" fill="#219866" stroke="#000000" d="M1385.686,3278.673c2.439,9.9,4.322,22.277,16.729,61.524
				c6.916,21.878,26.6,67.541,37.416,85.931c18.15,30.852,36.607,53.826,41.842,59.904l-420.314,353.213
				c-28.971-129.387-35.668-275.854-59.111-367.857c-0.99-3.881-1.982-7.76-2.973-11.637L1385.686,3278.673
				C1389.647,3297.405,1385.686,3278.673,1385.686,3278.673z"/>
			<path id="_x31_80611212_1_" fill="#219866" stroke="#000000" d="M1973.518,3072.739l-491.848,413.292
				c-15.35-17.824-29.295-37.709-41.84-59.904c-21.541-38.119-38.791-82.926-51.256-134.912c-0.986-4.124-1.982-8.334-2.889-12.542
				l487.82-228.535C1901.731,3061.769,1935.645,3069.03,1973.518,3072.739z"/>
			<path id="_x31_80611211_1_" fill="#219866" stroke="#000000" d="M2133.506,2925.594l14.275-3.054l1.816,2.146L1973.52,3072.74
				c-37.877-3.711-71.791-10.969-100.014-22.601l260.496-122.068L2133.506,2925.594z"/>
			<path id="_x31_80611210_1_" fill="#219866" stroke="#000000" d="M1513.153,4003.332c16.012-9.324,56.195-30.701,107.848-55.623
				l-68.971,132.113c-66.92,33.508-132.104,66.273-204.059,86.498c-24.922,7.016-231.783,65.537-231.619,63.063c0,0,0,0,0,0.084
				c-1.072,10.891-81.201-63.531-86.07-70.381c-25.834-36.469-53.975-88.947-65.449-132.354
				c-8.254-31.354-16.674-62.381-25.34-93.324l14.605-4.043l107.26-90.119c22.951,102.732,60.01,194.736,130.564,240.363
				C1295.737,4146.688,1426.27,4054.09,1513.153,4003.332z"/>
			<path id="_x31_80611209_1_" fill="#219866" stroke="#000000" d="M1621,3947.711c-51.654,24.922-91.836,46.299-107.848,55.623
				c-86.883,50.756-217.416,143.354-321.23,76.275c-70.555-45.627-107.613-137.627-130.564-240.361l420.314-353.215
				c75.676,87.791,184.6,123.842,316.215,122.676L1621,3947.711z"/>
			<path id="_x31_80611208_1_" fill="#219866" stroke="#000000" d="M1973.52,3072.739c31.77,3.215,66.262,3.872,102.65,2.631
				l-278.285,533.337c-131.611,1.166-240.539-34.883-316.213-122.676L1973.52,3072.739z"/>
			<path id="_x31_80611207_1_" fill="#219866" stroke="#000000" d="M2158.754,2917.013l-82.584,158.358
				c-36.389,1.241-70.881,0.583-102.65-2.631l176.078-148.055L2158.754,2917.013z"/>
			<path id="_x31_80611181_1_" fill="#9AD2BD" stroke="#000000" d="M1116.301,4229.691c-4.922,101.213,18.152,195.924,58.15,284.879
				c0.111,0.252,0.229,0.502,0.342,0.75c0.859,1.906,1.725,3.814,2.602,5.717c0.287,0.629,0.58,1.25,0.871,1.875
				c0.705,1.527,1.414,3.053,2.129,4.578c0.465,0.99,0.938,1.977,1.41,2.963c0.549,1.152,1.094,2.311,1.648,3.461
				c0.682,1.422,1.373,2.834,2.066,4.254c0.35,0.715,0.693,1.434,1.047,2.15c0.898,1.828,1.805,3.648,2.715,5.469
				c0.152,0.309,0.305,0.613,0.457,0.92c87.918,175.207,238.16,327.76,361.969,463.709
				c69.148,75.934,153.797,109.805,240.283,162.113c1.355,0.82,2.684,1.668,4.029,2.5c1.594,0.975,3.178,1.953,4.748,2.936
				c0.555,0.354,1.109,0.699,1.662,1.053c144.367,91.863,229.1,241.502,335.445,370.785
				c21.703-38.416,88.174-108.678,94.656-115.791c17.516-19.207,37.447-38.047,58.088-56.189c0.527-0.463,1.059-0.918,1.588-1.381
				c20.973-18.361,42.623-36.002,63.191-52.551c28.561-22.977,59.436-44.166,91.586-63.322
				c35.77-21.313,73.117-40.107,110.625-56.033c44.605-18.932,87.281,41.189,117.895,65.336
				c103.043,81.279,210.805,131.221,345.311,111.48c119.959-17.576,260.199-71.42,340.01-166.49
				c26.549-31.625,49.143-77.014,65.482-114.99c14.867-34.576,56.412,10.596,73.074,24.08c15.924,12.869,32.4,25.111,48.865,37.373
				c22.941,17.072,45.867,34.17,67.277,53.027c9.365,8.248,80.641,67.793,76.633,82.529c4.688-14.9,9.494-29.664,14.652-44.281
				c1.207-3.414,2.438-6.816,3.684-10.217c11.557-36.078,29.375-71.992,49.688-104.16c1.764-2.816,3.557-5.627,5.398-8.43
				c53.617-81.488,127.963-161.096,145.424-261.146c30.245-173.289-25.375-288.535-26.789-414.682
				c-1.42-126.127,30.475-237.076,34.975-385.736c-0.01-101.885-0.021-259.57-0.039-489.824l-178.809,9.008l-13.697,0.664
				c-56.932,41.842-124.514,55.873-194.404,62.482c-42.334,4.047-85.486,5.373-127.654,8.51
				c-95.637,7.105-186.24,23.617-250.102,102.346l-0.576,9.902c-8.338-1.982-16.672-3.713-24.922-5.281
				c-39.609-7.34-77.818-8.74-106.943,0.092l1.4-7.016l-75.254-15.012c32.594,13.695-8.906,101.748-40.34,160.914
				c-41.25,77.818-109.322,130.801-164.932,197.975c-21.701,26.242-40.182,55.043-56.602,84.832
				c-15.924,28.969-27.555,61.891-37.455,93.582c-10.313,33.174-15.92,69.645-15.422,104.385
				c0.746,55.121,12.635,109.252,44.076,155.375c23.357,34.408,66.02,71.539,105.301,86.637
				c-41.508-15.924-106.939,35.328-132.682,61.9c-17.16,17.742-23.43,39.115-34.32,60.652
				c-3.055,6.105-125.436-77.803-134.758-85.643c-85.578-71.701-153.082-160.9-188.162-268.166
				c-21.459-65.516-6.529-126.834,31.01-178.654c5.611-7.76,11.799-15.348,18.4-22.693c28.135-31.275,56.188-45.967,85.4-76.17
				c57.426-59.338,213.297-81.961,284.668-173.313c74.666-95.646,94.385-147.137,181.52-189.809
				c-87.135,42.672-501.117,111.445-558.469,84.385c-12.543-6.021-25.086-11.383-37.297-16.086
				c-28.719-11.139-59-13.363-89.369-8.658c-52.727,8.174-100.67,30.127-148.857,51.422c-32.756,14.445-65.68,28.641-100.254,37.971
				c-133.26,35.986-265.035,104.324-388.229,165.314c-6.521,3.217-12.957,6.439-19.391,9.572
				c-66.918,33.508-132.102,66.273-204.059,86.496c-24.92,7.018-231.783,65.541-231.617,63.064c0,0,0,0-0.002,0.084
				C1116.342,4229.551,1116.315,4229.613,1116.301,4229.691z M2890.217,4034.414c22.955-50.059,71.727-136.143,140.68-104.979
				c31.953,14.438,42.516,39.775,40.572,66.834c-2.463,34.313-25.025,71.418-49.604,92.627
				c-31.371,27.08-85.611,129.441-138.764,98.404C2828.95,4155.668,2871.5,4075.258,2890.217,4034.414z"/>
			<path id="_x31_80611183_1_" fill="#54BF94" stroke="#000000" d="M2859.499,4256.113c-0.736-14.869-1.189-29.756-0.82-44.643
				c0.191-7.576,0.584-15.15,1.271-22.695c0.563-6.105,0.146-16.514,3.361-21.563c2.959,3.021,4.354,7.357,7.238,10.541
				c9.414,10.385,28.445,17.25,42.094,14.6c30.971-6.027,52.879-39.582,72.338-61.502c9.932-11.188,19.395-22.865,29.611-33.77
				c19.73-21.059,70.535-30.99,97.82-35.924c37.035-6.695,74.691-3.988,110.193,8.66c62.912,22.41,116.193,67.908,149.719,125.754
				c110.289,190.281,112.85,435.609,77.773,645.549c-8.123,48.625-16.422,97.555-30.734,144.83
				c-25.209,83.229-47.799,181.932-123.697,232.752c-79.395,53.146-140.359,85.838-210.406,109.357
				c-68.354,22.955-153.994,33.535-261.994-8.23c-57.111-22.088-173.127-121.877-208.371-154.701
				c-90.773-84.574-12.916-258.561-5.779-288.875c30.021-127.438,73.734-224.014,185.215-226.877
				c54.666-1.416,121.322-2.236,150.584-57.17c8.115-15.227,8.85-34.928,5.879-51.711c-2.75-15.553-8.342-30.654-15.865-44.553
				c-14.48-26.77-30.166-52.123-41.793-80.436c-15.084-36.682-26.682-77.154-30.857-116.805
				C2860.793,4284.594,2860.19,4270.279,2859.499,4256.113z"/>
			<path id="_x31_80611184_1_" fill="#54BF94" stroke="#000000" d="M3208.842,4656.947
				c79.363,66.098,154.408,125.924,242.232,178.18c34.029-208.605,30.488-451.078-78.756-639.551
				c-29.93-51.633-77.34-94.775-132.07-119.414c-5.35-2.398-10.846-4.734-16.498-6.977c-54.465-21.607-116.277-16.639-168.859,7.041
				c-6.977,3.145-13.824,6.553-20.598,10.115c-5.615,2.957-15.383,6.133-19.705,10.742c-10.221,10.904-19.68,22.582-29.613,33.768
				c-5.396,6.082-9.277,13.195-15.041,18.99c-5.934,5.955-11.889,11.961-18.02,17.703c-11.07,10.381-23.908,21.818-39.279,24.811
				c-13.646,2.65-32.68-4.215-42.092-14.602c-2.881-3.184-4.279-7.52-7.238-10.539c-3.215,5.047-2.799,15.457-3.361,21.563
				c-0.688,7.547-1.078,15.119-1.271,22.695c-0.367,14.887,0.084,29.773,0.82,44.645c0.695,14.162,1.299,28.477,2.783,42.586
				c4.178,39.648,15.775,80.121,30.857,116.805c6.98,16.986,15.826,33.818,24.111,50.303c5.129,10.205,12.365,20.307,17.682,30.133
				c5.145,9.504,9.383,19.568,12.43,29.955C3048.258,4536.723,3132.258,4593.158,3208.842,4656.947z"/>
			<path id="_x31_80611185_1_" fill="#54BF94" stroke="#000000" d="M2614.891,5165.135
				c35.242,32.826,151.26,132.615,208.369,154.699c108.002,41.764,193.639,31.188,261.998,8.23
				c70.045-23.52,131.012-56.211,210.406-109.355c75.896-50.822,98.486-149.523,123.695-232.754
				c14.314-47.273,22.611-96.205,30.738-144.828c0.33-1.996,0.652-4,0.979-6c-87.822-52.254-162.865-112.084-242.23-178.18
				c-76.588-63.787-160.59-120.223-261.49-131.047c1.41,4.805,2.564,9.676,3.434,14.598c2.971,16.783,2.236,36.492-5.879,51.719
				c-2.811,5.279-5.906,11.271-9.949,15.563c-6.064,6.426-11.66,11.303-18.607,16.83c-27.252,21.715-81.445,23.717-122.027,24.77
				c-111.479,2.861-155.191,99.438-185.213,226.877C2601.977,4906.568,2524.12,5080.555,2614.891,5165.135z"/>
			<path id="_x31_80611196_1_" fill="#62D09F" stroke="#000000" d="M3720.836,4642.656c-8.205,24.605-13.732,48.961-18.125,73.158
				c8.74,3.445,17.432,6.947,26.09,10.512c34.492,14.273,68.406,29.699,102.736,46.283c25.5,12.295,56.941,34.982,86.068,36.631
				l0.744,0.082c10.467-141.439-32.861-244.17-34.111-355.32c-1.412-126.172,30.428-237.078,34.953-385.775
				c-0.004-40.354-0.008-89.533-0.014-148.533h-1.566c-0.578-19.307-72.121-35.395-86.73-41.004
				c-13.652-5.346-27.162-11.078-40.639-16.789c12.689,83.955,22.674,171.125-1.16,253.277
				c-27.768,95.707-55.811,147.854-40.916,245.539C3762.616,4455.48,3751.684,4550.143,3720.836,4642.656z"/>
			<path id="_x31_80611195_1_" fill="#62D09F" stroke="#000000" d="M3572.395,4662.531c25.939,14.877,54.969,25.508,81.891,35.086
				c16.408,5.859,32.504,11.928,48.426,18.197c4.393-24.199,9.92-48.553,18.125-73.16c30.848-92.51,41.779-187.17,27.33-281.934
				c-14.895-97.686,13.148-149.832,40.916-245.541c23.832-82.15,13.85-169.322,1.16-253.275c-4.195-1.781-8.391-3.559-12.586-5.32
				c-37.711-15.758-75.588-30.197-117.342-33.412c-34.328-2.721-68.57,0.912-102.32,6.941c-3.936,0.623-7.811,1.359-11.68,2.115
				c-8.883,36.791-33.168,69.043-31.465,110.705c4.754,116.549,49.941,260.773,73.984,375.92
				C3608.739,4414.186,3619.379,4567.691,3572.395,4662.531z"/>
			<path id="_x31_80611194_1_" fill="#62D09F" stroke="#000000" d="M3131.149,4007.566c43.74,53.301,83.508,13.027,166.605,61.953
				c69.154,40.676,112.152,122.281,145.746,191.842c34.004,70.221,50.348,146.715,53.078,224.609
				c1.406,39.445-5.521,88.379,16.926,123.445c14.531,22.758,35.447,39.664,58.891,53.113
				c46.984-94.838,36.344-248.344,16.438-343.674c-24.043-115.143-69.229-259.371-73.982-375.92
				c-1.703-41.662,22.582-73.914,31.463-110.703c-0.754,0.148-1.51,0.295-2.264,0.443c-126.824,24.768-166.68,28.73-284.85-25.061
				c-30.615-13.945-67.914-27.311-105.293-36.301c-8.338-1.982-16.674-3.713-24.924-5.279c-39.607-7.342-77.816-8.742-106.941,0.09
				c-17.906,5.365-32.348,14.691-41.504,28.967C2916.266,3894.699,3065.127,3927.115,3131.149,4007.566z"/>
			<path id="_x31_80611193_1_" fill="#62D09F" stroke="#000000" d="M3667.795,4894.402
				c-27.76,82.057-88.963,149.088-146.377,209.201c9.607,6.182,20.42,13.4,32.99,22.135
				c19.301,13.404,152.162,127.564,152.162,127.564s23.203-59.752,32.977-78.516c11.848-22.725,25.668-44.41,40.311-65.381
				c16.311-23.371,63.688-90.385,70.486-100.879c23.303-36.006,45.564-75.664,55.307-117.77c1.949-8.43,8.727-43.639,8.727-43.639
				s-68.805-35.264-92.145-46.014c-40.939-18.857-82.885-36.08-124.936-52.473
				C3689.86,4797.412,3684.264,4845.736,3667.795,4894.402z"/>
			<path id="_x31_80611192_1_" fill="#62D09F" stroke="#000000" d="M3445.731,5059.695c25.377,14.459,43.969,23.502,75.689,43.908
				c57.412-60.113,118.613-127.145,146.377-209.199c16.467-48.668,22.064-96.992,29.502-145.771
				c-6.367-2.484-12.736-4.949-19.105-7.396c-7.578-2.906-44.686-14.973-81.998-29.684
				C3619.663,4824.684,3500.635,4960.238,3445.731,5059.695z"/>
			<path id="_x31_80611191_1_" fill="#62D09F" stroke="#000000" d="M3494.5,4819.717c-11.195,73.422-35.697,161.559-56.232,235.684
				c2.561,1.492,5.039,2.916,7.459,4.295c54.908-99.457,173.936-235.012,150.469-348.143c-0.305-0.117-0.609-0.236-0.916-0.359
				c-43.516-17.201-86.949-37.926-83.799-51.855C3499.655,4711.607,3502.579,4766.75,3494.5,4819.717z"/>
			<path id="_x31_80611243_1_" fill="#A4DAA4" stroke="#000000" d="M3919.149,3578.4c0.01,138.959,0.021,251.514,0.027,341.293
				h-1.566c-0.578-19.307-72.121-35.395-86.729-41.004c-17.908-7.012-35.566-14.684-53.227-22.107
				c-29.957-94.813-76.668-146.793-37.316-269.172L3919.149,3578.4z"/>
			<path id="_x31_80611242_1_" fill="#A4DAA4" stroke="#000000" d="M3740.336,3587.41c-39.352,122.377,7.357,174.361,37.318,269.172
				c-37.711-15.76-75.586-30.197-117.34-33.412c-34.33-2.721-68.572,0.914-102.322,6.943l-1.896-10.977
				c20.707-35.814,2.135-112.141-22.047-148.529l-1.814-20.051c69.891-6.609,137.469-20.643,194.404-62.484L3740.336,3587.41z"/>
			<path id="_x31_80611241_1_" fill="#A4DAA4" stroke="#000000" d="M3404.581,3659.068c42.166-3.139,85.32-4.465,127.654-8.51
				l1.813,20.051c24.182,36.389,42.756,112.715,22.045,148.527l1.898,10.975c-4.701,0.744-9.322,1.65-13.943,2.563
				c-126.824,24.768-166.682,28.729-284.85-25.063c-30.615-13.943-67.912-27.309-105.293-36.299l0.576-9.902
				C3218.342,3682.684,3308.946,3666.17,3404.581,3659.068z"/>
			<path id="_x31_80611199_1_" fill="#6ACBBA" stroke="#000000" d="M1963.809,5325.422c51.699,61.07,97.826,127.596,147.334,190.973
				c0.008-0.027,0.014-0.059,0.016-0.09l-0.113-0.561c0.094,0.238,0.131,0.416,0.113,0.561l0.02,0.1
				c0.072-0.074,0.148-0.146,0.197-0.248c69.635-84.09,132.342-168.512,222.609-229.83c39.686-26.941,81.561-50.289,123.721-73.111
				c-43.24-12.771-92.525-15.039-129.387-40.26c-90.977-62.25-152.484-162.242-213.082-251.949
				c-87.381-129.381-180.088-232.635-331.518-288.303c-129.686-47.689-220.84,19.768-344.092-1.738
				c-171.629-29.992-70.277-209.012-10.102-288.352c86.896-114.572,215.59-160.625,340.895-221.451
				c120.756-58.615,278.51-88.084,357.533-202.721c0.01-0.012,0.02-0.023,0.025-0.031c24.318-35.254,57.223-66.682,79.641-102.682
				c-52.277,8.311-99.877,30.096-147.717,51.234c-32.756,14.445-65.68,28.641-100.252,37.969
				c-133.264,35.986-265.037,104.324-388.23,165.316c-6.52,3.219-12.957,6.438-19.391,9.572l-435.727,149.516
				c-10.875,221.004,111.771,410.99,252.596,577.822c-1.135-1.492-2.234-3.002-3.275-4.541
				c-11.945-17.621-29.553-31.553-20.521-55.486c5-13.254,29.563-19.471,41.514-18.021c33.863,4.084,71.316,31.094,98.27,50.559
				c31.023,22.4,58.229,49.643,88.785,72.695c95.635,72.143,188.377,154.268,288.012,220.902
				c79.723,53.324,161.545,102.875,227.934,173.461c15.322,16.287,29.35,36.566,40.139,56.115
				c22.172,40.209,32.688,135.063-29.57,142.328c-3.506,0.414-7.242,0.543-11.215,0.375c-40.436-1.738-66.324-51.48-89.217-78.436
				C1987.885,5353.131,1975.94,5339.193,1963.809,5325.422z"/>
			<path id="_x31_80611198_1_" fill="#6ACBBA" stroke="#000000" d="M2328.321,5172.957c36.861,25.219,86.148,27.488,129.385,40.258
				c32.875-17.795,65.922-35.277,98.24-53.9c11.305-11.387-12.385-73.521-15.191-87.221c-4.074-20.184-4.277-40.75-2.396-61.314
				c-29.844-57.021-67.701-106.787-111.803-155.285c-50.42-55.445-114.432-106.904-153.371-171.637
				c-70.115-116.598-87.559-260.471-242.547-280.025c-65.521-8.27-363.51,47.195-335.506-79.445
				c52.592-236.895,549.932-194.104,650.701-373.1c18.738-33.289,16.574-72.949-0.174-106.031
				c-3.404-1.701-6.816-3.357-10.234-4.971c-12.541-6.02-25.086-11.383-37.297-16.084c-28.719-11.141-59-13.363-89.369-8.658
				c-0.379,0.061-0.758,0.127-1.141,0.188c-22.416,36.002-55.32,67.43-79.641,102.684c-0.008,0.008-0.016,0.018-0.023,0.029
				c-79.025,114.637-236.781,144.107-357.535,202.723c-125.303,60.824-253.998,106.879-340.895,221.451
				c-60.178,79.34-161.527,258.361,10.104,288.354c123.25,21.504,214.402-45.953,344.09,1.738
				c151.43,55.666,244.137,158.918,331.52,288.301C2175.833,5010.719,2237.342,5110.713,2328.321,5172.957z"/>
			<path id="_x31_80611197_1_" fill="#6ACBBA" stroke="#000000" d="M2538.35,5010.781c2.582-28.197,9.094-56.391,15.008-83.59
				c2.723-12.541,51.234-143.09,47.52-145.73c-37.879-27.063-79.799-47.439-117.182-75.576
				c-104.639-78.631-224.133-192.08-236.854-330.791c-3.139-34.494,0.654-73.195,10.143-107.854
				c1.896-7.178,4.043-14.193,6.516-20.957c14.27-39.445,39.602-73.527,70.543-101.42c31.85-28.805,66.588-54.717,95.797-86.322
				c34.986-37.713,42.82-72.287,33.904-102.984c-13.275-46.018-64.352-83.49-118.09-110.301
				c16.748,33.084,18.912,72.746,0.172,106.033c-100.766,178.996-598.109,136.209-650.701,373.098
				c-28.004,126.641,269.984,71.18,335.506,79.447c154.99,19.553,172.432,163.428,242.549,280.025
				c38.939,64.73,102.953,116.189,153.371,171.635C2470.651,4903.994,2508.51,4953.76,2538.35,5010.781z"/>
			<path id="_x31_80611182_1_" fill="#A0EE9D" stroke="#000000" d="M2948.186,3744.1c32.594,13.695-8.904,101.748-40.34,160.914
				c-41.25,77.818-109.322,130.801-164.932,197.975c-21.701,26.242-40.182,55.043-56.602,84.832
				c-15.924,28.969-27.555,61.891-37.457,93.582c-10.311,33.174-15.918,69.645-15.42,104.385
				c0.746,55.121,12.635,109.252,44.076,155.375c23.355,34.408,66.02,71.539,105.301,86.637
				c-41.51-15.924-106.939,35.326-132.682,61.9c-17.16,17.742-23.43,39.115-34.32,60.652
				c-3.055,6.105-125.434-77.803-134.758-85.643c-85.576-71.701-153.08-160.9-188.16-268.166
				c-21.459-65.516-6.531-126.834,31.008-178.654c5.613-7.76,11.801-15.348,18.402-22.693c28.135-31.275,56.188-45.967,85.4-76.17
				c57.426-59.338,213.297-81.961,284.666-173.313c74.668-95.646,94.387-147.139,181.521-189.809
				c26.898-13.123,44.145-16.094,54.213-11.887"/>
			<path id="_x31_80611189_1_" fill="#80CDF8" stroke="#000000" d="M3210.985,5833.67c15.172,33.893,84.49,160.881,113.932,73.1
				c5.611-16.754-42.002-86.449-51.111-102.902C3231.854,5728.074,3173.508,5749.918,3210.985,5833.67z"/>
			<path id="_x31_80611190_1_" fill="#80CDF8" stroke="#000000" d="M3476.473,5576.76l2.623,0.24
				c10.818-17.422,22.129-34.377,35.191-49.674c23.451-27.467,91.49-52.84,83.227-100.221
				c-6.385-36.631-48.389-30.813-74.852-42.262c-15.311-6.623-31.438-20.66-44.486-36.371c-22.859,2.15-54.799,18.533-55.117,44.637
				c-0.385,30.551,56.846,22.824,63.131,55.051C3492.553,5480.756,3375.25,5559.689,3476.473,5576.76z"/>
			<path id="_x31_80611188_1_" fill="#80CDF8" stroke="#000000" d="M2137.868,5549.779c21.268,25.854,43.408,50.887,67.053,74.488
				c45.043,41.146,102.389,84.555,155.715,123.725c8.301,6.074,16.623,12.148,24.955,18.229
				c120.865,87.52,248.613,166.869,283.08,186.803c111.016,64.215,226.799,110.063,338.871,113.357
				c74.482,2.191,148.406-13.98,217.416-43.184c60.791-26.924,119.336-64.912,175.957-111.463
				c7.023-5.773,13.805-11.689,20.379-17.727c8.438-7.945,16.652-16.07,24.607-24.363c5.773-6.02,11.361-12.156,16.789-18.393
				c112.189-130.42,149.064-304.535,202.535-468.066c9.564-29.266,18.025-58.045,26.922-86.322
				c4.004-14.738-67.268-74.281-76.633-82.531c-21.414-18.855-44.338-35.953-67.279-53.027c-0.053,0.723-0.117,1.441-0.191,2.16
				c-0.025,0.234-0.055,0.471-0.082,0.703c-0.053,0.48-0.107,0.961-0.17,1.438c-0.037,0.289-0.084,0.576-0.125,0.863
				c-0.063,0.42-0.119,0.842-0.188,1.264c-0.051,0.299-0.105,0.596-0.158,0.895c-0.07,0.41-0.139,0.814-0.217,1.219
				c-0.059,0.309-0.127,0.611-0.188,0.918c-0.084,0.391-0.16,0.781-0.244,1.172c-0.074,0.316-0.15,0.637-0.225,0.951
				c-0.09,0.379-0.176,0.754-0.27,1.127c-0.082,0.318-0.168,0.637-0.252,0.953c-0.1,0.371-0.195,0.74-0.299,1.107
				c-0.088,0.318-0.186,0.633-0.279,0.947c-0.109,0.365-0.217,0.732-0.328,1.096c-0.102,0.318-0.207,0.635-0.307,0.953
				c-0.117,0.361-0.232,0.721-0.355,1.074c-0.109,0.322-0.225,0.639-0.336,0.957c-0.129,0.352-0.252,0.705-0.383,1.055
				c-0.119,0.32-0.242,0.639-0.369,0.957c-0.131,0.346-0.268,0.689-0.404,1.035c-0.127,0.318-0.262,0.639-0.398,0.955
				c-0.139,0.34-0.281,0.684-0.428,1.023c-0.137,0.32-0.279,0.637-0.422,0.951c-0.152,0.338-0.301,0.674-0.455,1.01
				c-0.15,0.318-0.303,0.635-0.453,0.949c-0.16,0.332-0.318,0.664-0.48,0.992c-0.156,0.32-0.318,0.635-0.48,0.951
				c-0.166,0.326-0.332,0.654-0.504,0.979c-0.164,0.32-0.336,0.633-0.506,0.947c-0.172,0.322-0.348,0.646-0.525,0.969
				c-0.174,0.316-0.354,0.627-0.531,0.939c-0.182,0.322-0.365,0.643-0.553,0.959c-0.182,0.313-0.371,0.623-0.557,0.936
				c-0.189,0.316-0.379,0.635-0.576,0.949c-0.191,0.313-0.385,0.623-0.582,0.932c-0.195,0.314-0.393,0.627-0.594,0.936
				c-0.203,0.313-0.406,0.623-0.611,0.934c-0.203,0.303-0.408,0.617-0.615,0.92c-0.211,0.309-0.424,0.619-0.635,0.928
				c-0.211,0.303-0.424,0.607-0.639,0.91c-0.219,0.307-0.439,0.617-0.662,0.922c-0.217,0.299-0.434,0.598-0.654,0.896
				c-0.227,0.311-0.457,0.617-0.689,0.926c-0.221,0.295-0.445,0.586-0.67,0.881c-0.236,0.305-0.475,0.615-0.715,0.92
				c-0.229,0.291-0.461,0.582-0.691,0.875c-0.244,0.303-0.492,0.609-0.738,0.914c-0.234,0.287-0.471,0.574-0.713,0.861
				c-0.25,0.305-0.51,0.611-0.764,0.914c-0.24,0.281-0.479,0.563-0.721,0.844c-0.262,0.307-0.529,0.617-0.797,0.918
				c-0.244,0.277-0.488,0.555-0.732,0.83c-0.275,0.309-0.549,0.615-0.826,0.918c-0.244,0.273-0.496,0.545-0.748,0.816
				c-0.279,0.307-0.563,0.611-0.85,0.916c-0.25,0.271-0.504,0.537-0.758,0.803c-0.291,0.307-0.584,0.609-0.875,0.912
				c-0.264,0.268-0.521,0.533-0.779,0.797c-0.299,0.303-0.6,0.609-0.9,0.91c-0.26,0.26-0.521,0.52-0.785,0.775
				c-0.309,0.307-0.617,0.611-0.93,0.914c-0.262,0.252-0.525,0.508-0.789,0.762c-0.32,0.305-0.641,0.609-0.961,0.914
				c-0.266,0.25-0.533,0.496-0.801,0.748c-0.328,0.305-0.652,0.607-0.982,0.908c-0.271,0.248-0.541,0.492-0.813,0.738
				c-0.334,0.305-0.674,0.607-1.014,0.912c-0.268,0.238-0.537,0.479-0.809,0.717c-0.348,0.307-0.697,0.613-1.049,0.922
				c-0.266,0.229-0.533,0.459-0.799,0.688c-0.363,0.311-0.727,0.625-1.094,0.934c-0.264,0.223-0.527,0.445-0.793,0.668
				c-0.377,0.313-0.75,0.627-1.131,0.941c-0.262,0.215-0.529,0.434-0.793,0.648c-0.385,0.314-0.77,0.629-1.158,0.943
				c-0.266,0.213-0.529,0.424-0.795,0.633c-0.393,0.314-0.791,0.633-1.191,0.947c-0.256,0.203-0.518,0.402-0.773,0.607
				c-0.414,0.32-0.83,0.643-1.25,0.967c-0.242,0.186-0.486,0.369-0.729,0.557c-0.438,0.334-0.877,0.666-1.318,0.998
				c-0.234,0.178-0.471,0.354-0.707,0.527c-0.451,0.34-0.904,0.676-1.361,1.012c-0.229,0.172-0.461,0.338-0.693,0.506
				c-0.471,0.346-0.941,0.688-1.414,1.029c-0.207,0.145-0.414,0.293-0.619,0.439c-0.504,0.361-1.01,0.719-1.514,1.078
				c-0.184,0.131-0.367,0.256-0.549,0.385c-0.533,0.373-1.064,0.748-1.604,1.119c-0.16,0.109-0.32,0.217-0.477,0.324
				c-0.568,0.393-1.137,0.783-1.711,1.17c-0.105,0.072-0.211,0.141-0.314,0.211c-0.627,0.424-1.258,0.848-1.893,1.27
				c-0.037,0.025-0.08,0.053-0.119,0.078c-11.676,7.754-24.34,15.01-37.451,21.844c-0.002,0.002-0.004,0.004-0.006,0.004
				c1.137,15.02,2.98,29.883,8.83,43.945c10.932,26.256,40.211,60.49,66.98,72.068c26.463,11.449,68.465,5.633,74.852,42.262
				c8.264,47.379-59.775,72.752-83.227,100.217c-41.064,48.088-64.779,112.527-110.578,156.49
				c-54.461,52.262-86.209,35.533-148.748,50.242c-51.443,12.098-60.736,23.031-93.961,71.238
				c-34.627,50.232-43.893,92.785-115.84,83.096c-64.059-8.633-111.57-53.99-168.639-79.367
				c-51.807-23.035-105.318-25.158-156.793-48.756c-108.613-49.791-185.924-153.979-308.34-176.156
				c-0.029-0.006-0.059-0.01-0.086-0.016c-0.025-0.002-0.051-0.008-0.076-0.012c-47.316-8.789-88.523-33.025-107.285-78.928
				c-17.355-42.469-11.908-85.053-11.734-128.717c-0.527,0.463-1.059,0.92-1.586,1.383c-20.639,18.141-40.572,36.98-58.088,56.189
				C2226.049,5441.121,2159.577,5511.383,2137.868,5549.779z M3273.805,5803.869c9.109,16.455,56.723,86.146,51.111,102.902
				c-29.441,87.779-98.762-39.207-113.932-73.1C3173.508,5749.918,3231.854,5728.074,3273.805,5803.869z"/>
			<path id="_x31_80611187_1_" fill="#80CDF8" stroke="#000000" d="M2292.217,5376.432c-0.174,43.664-5.619,86.246,11.734,128.715
				c18.762,45.904,59.967,70.135,107.285,78.926c0.025,0.008,0.051,0.008,0.076,0.014c0.027,0.008,0.059,0.01,0.086,0.018
				c122.416,22.178,199.73,126.363,308.34,176.154c51.473,23.6,104.984,25.721,156.793,48.756
				c57.066,25.377,104.58,70.734,168.639,79.371c71.947,9.688,81.209-32.865,115.84-83.098
				c33.225-48.205,42.516-59.143,93.963-71.24c62.539-14.707,94.285,2.02,148.746-50.242
				c31.227-29.977,52.189-69.471,75.383-106.814l-2.621-0.24c-101.223-17.064,16.078-96,9.715-128.598
				c-6.287-32.225-63.516-24.498-63.131-55.049c0.318-26.102,32.258-42.486,55.117-44.637c-9.77-11.758-17.816-24.457-22.49-35.699
				c-5.854-14.057-7.697-28.922-8.834-43.943l0,0c-29.324,15.281-60.877,28.436-88.633,40.291c-1.08,0.459-2.156,0.922-3.221,1.375
				c-0.449,0.195-0.895,0.385-1.34,0.574c-1.223,0.525-2.436,1.047-3.635,1.564c-0.313,0.131-0.617,0.266-0.924,0.396
				c-1.279,0.551-2.545,1.1-3.801,1.643c-0.26,0.115-0.521,0.229-0.783,0.342c-1.293,0.563-2.574,1.121-3.844,1.678
				c-0.213,0.096-0.43,0.189-0.643,0.285c-1.293,0.568-2.57,1.133-3.842,1.695c-0.188,0.086-0.377,0.168-0.564,0.252
				c-1.287,0.572-2.551,1.141-3.809,1.707c-0.166,0.074-0.326,0.146-0.488,0.221c-1.273,0.572-2.523,1.145-3.758,1.715
				c-0.145,0.064-0.283,0.131-0.428,0.197c-1.25,0.574-2.477,1.145-3.688,1.715c-0.127,0.059-0.254,0.119-0.379,0.178
				c-1.223,0.574-2.422,1.148-3.605,1.717c-0.107,0.053-0.219,0.105-0.326,0.156c-1.195,0.576-2.371,1.152-3.523,1.723
				c-0.09,0.045-0.18,0.09-0.268,0.135c-1.166,0.576-2.307,1.152-3.428,1.727c-0.074,0.037-0.15,0.076-0.225,0.113
				c-1.133,0.582-2.242,1.16-3.326,1.738c-0.059,0.029-0.113,0.057-0.166,0.086c-1.096,0.582-2.17,1.166-3.215,1.742
				c-0.043,0.023-0.084,0.049-0.123,0.07c-1.064,0.588-2.1,1.18-3.109,1.762c-0.02,0.012-0.035,0.021-0.057,0.033
				c-1.025,0.596-2.025,1.189-2.992,1.781c-81.797,50.096-143.678,124.666-218.998,182.9
				c-100.529,77.732-231.096,93.258-353.566,69.141c-43.344-8.547-311.242-42.773-258.453-139.188
				c33.344-60.879,62.752-18.523,108.924-31.318c73.537-20.363,80.994-125.357,7.572-158.66
				c-42.895-19.457-91.191-3.43-137.213,0.254c-32.15,19.154-63.027,40.344-91.586,63.32
				C2334.833,5340.436,2313.178,5358.074,2292.217,5376.432z"/>
			<path id="_x31_80611186_1_" fill="#80CDF8" stroke="#000000" d="M3548.059,5163.502c0.072-0.721,0.139-1.438,0.188-2.16
				c-16.463-12.26-32.939-24.504-48.863-37.375c-16.664-13.482-58.205-58.654-73.074-24.078
				c-16.34,37.977-38.932,83.365-65.48,114.99c-79.813,95.07-220.053,148.914-340.01,166.49
				c-134.51,19.738-242.268-30.201-345.311-111.48c-30.613-24.146-73.289-84.268-117.896-65.334
				c-37.508,15.924-74.855,34.717-110.627,56.031c46.025-3.682,94.322-19.709,137.215-0.252
				c73.422,33.303,65.969,138.297-7.572,158.66c-46.17,12.795-75.578-29.559-108.924,31.316
				c-52.787,96.416,215.109,130.643,258.453,139.189c122.471,24.117,253.037,8.592,353.566-69.141
				c75.318-58.238,137.199-132.807,218.996-182.9c0.967-0.59,1.965-1.186,2.99-1.781c0.021-0.012,0.041-0.021,0.061-0.033
				c1.01-0.586,2.045-1.174,3.107-1.762c0.043-0.023,0.084-0.047,0.123-0.068c1.047-0.578,2.117-1.16,3.217-1.744
				c0.055-0.031,0.109-0.059,0.164-0.088c1.084-0.576,2.195-1.154,3.33-1.736c0.07-0.037,0.15-0.076,0.223-0.113
				c1.117-0.574,2.262-1.15,3.428-1.727c0.088-0.043,0.178-0.088,0.266-0.135c1.154-0.57,2.33-1.145,3.525-1.723
				c0.107-0.053,0.217-0.104,0.326-0.156c1.182-0.568,2.383-1.143,3.605-1.717c0.125-0.059,0.252-0.119,0.377-0.178
				c1.213-0.57,2.443-1.143,3.689-1.717c0.143-0.066,0.283-0.131,0.43-0.195c1.234-0.572,2.486-1.141,3.756-1.717
				c0.166-0.072,0.328-0.146,0.488-0.221c1.256-0.564,2.525-1.133,3.811-1.705c0.186-0.084,0.375-0.166,0.564-0.254
				c1.27-0.559,2.549-1.127,3.842-1.695c0.213-0.094,0.428-0.188,0.641-0.283c1.27-0.555,2.551-1.115,3.844-1.678
				c0.262-0.113,0.521-0.227,0.783-0.342c1.258-0.543,2.525-1.088,3.803-1.641c0.305-0.133,0.611-0.268,0.92-0.398
				c1.205-0.518,2.416-1.041,3.637-1.563c0.445-0.191,0.891-0.383,1.338-0.574c1.07-0.459,2.143-0.918,3.221-1.377
				c27.758-11.857,59.309-25.012,88.633-40.291c0.002,0,0.006-0.002,0.008-0.004c13.109-6.834,25.773-14.09,37.451-21.842
				c0.037-0.025,0.078-0.055,0.119-0.078c0.633-0.42,1.264-0.846,1.893-1.27c0.104-0.072,0.209-0.143,0.313-0.211
				c0.574-0.389,1.143-0.779,1.713-1.172c0.158-0.105,0.318-0.213,0.475-0.324c0.535-0.373,1.07-0.746,1.604-1.119
				c0.184-0.131,0.367-0.256,0.551-0.383c0.508-0.361,1.01-0.719,1.514-1.078c0.205-0.148,0.414-0.295,0.615-0.441
				c0.475-0.344,0.947-0.686,1.416-1.029c0.232-0.168,0.465-0.334,0.695-0.506c0.457-0.336,0.906-0.672,1.359-1.01
				c0.236-0.176,0.473-0.352,0.709-0.527c0.439-0.332,0.877-0.666,1.316-1c0.244-0.186,0.488-0.371,0.729-0.557
				c0.422-0.322,0.832-0.643,1.25-0.967c0.258-0.203,0.516-0.404,0.775-0.607c0.398-0.313,0.795-0.629,1.193-0.947
				c0.262-0.211,0.529-0.422,0.791-0.631c0.385-0.313,0.775-0.631,1.16-0.945c0.264-0.217,0.531-0.434,0.793-0.648
				c0.379-0.314,0.754-0.627,1.131-0.941c0.264-0.221,0.529-0.443,0.789-0.664c0.367-0.311,0.732-0.625,1.096-0.938
				c0.268-0.227,0.535-0.457,0.801-0.688c0.352-0.307,0.699-0.615,1.047-0.92c0.271-0.24,0.541-0.477,0.807-0.719
				c0.344-0.303,0.682-0.605,1.016-0.91c0.271-0.246,0.545-0.49,0.811-0.736c0.33-0.305,0.658-0.607,0.984-0.91
				c0.266-0.248,0.533-0.498,0.801-0.75c0.322-0.305,0.641-0.609,0.961-0.914c0.262-0.254,0.525-0.508,0.789-0.76
				c0.313-0.307,0.623-0.609,0.932-0.914c0.266-0.258,0.523-0.518,0.783-0.777c0.303-0.303,0.604-0.607,0.9-0.91
				c0.26-0.266,0.521-0.531,0.779-0.795c0.295-0.305,0.586-0.609,0.875-0.914c0.254-0.268,0.512-0.533,0.76-0.801
				c0.285-0.307,0.568-0.611,0.85-0.916c0.25-0.273,0.5-0.545,0.748-0.816c0.277-0.309,0.551-0.611,0.822-0.918
				c0.248-0.277,0.492-0.553,0.734-0.83c0.266-0.305,0.531-0.609,0.797-0.916c0.242-0.281,0.482-0.564,0.723-0.846
				c0.256-0.303,0.512-0.611,0.766-0.914c0.236-0.289,0.473-0.574,0.711-0.863c0.244-0.305,0.49-0.609,0.734-0.914
				c0.234-0.293,0.463-0.582,0.693-0.875c0.236-0.305,0.479-0.613,0.715-0.918c0.227-0.295,0.447-0.584,0.67-0.881
				c0.232-0.311,0.463-0.617,0.689-0.924c0.219-0.301,0.438-0.598,0.656-0.898c0.221-0.309,0.445-0.615,0.662-0.924
				c0.213-0.301,0.426-0.607,0.637-0.91c0.211-0.309,0.424-0.617,0.635-0.926c0.209-0.305,0.41-0.617,0.615-0.924
				c0.207-0.311,0.41-0.619,0.611-0.93c0.199-0.313,0.398-0.625,0.594-0.936s0.393-0.623,0.584-0.93
				c0.195-0.316,0.385-0.635,0.576-0.953c0.188-0.311,0.373-0.623,0.557-0.932c0.188-0.318,0.367-0.641,0.551-0.961
				c0.178-0.316,0.357-0.627,0.531-0.939c0.18-0.322,0.354-0.646,0.525-0.971c0.172-0.314,0.34-0.629,0.508-0.945
				c0.172-0.326,0.338-0.656,0.506-0.982c0.162-0.316,0.32-0.629,0.477-0.949c0.164-0.328,0.32-0.66,0.48-0.992
				c0.152-0.316,0.305-0.631,0.453-0.951c0.156-0.336,0.305-0.672,0.457-1.01c0.141-0.316,0.283-0.631,0.422-0.949
				c0.146-0.342,0.287-0.684,0.43-1.025c0.133-0.318,0.27-0.635,0.395-0.955c0.141-0.346,0.275-0.689,0.406-1.037
				c0.123-0.318,0.248-0.637,0.369-0.955c0.131-0.35,0.254-0.705,0.381-1.055c0.109-0.318,0.225-0.637,0.336-0.957
				c0.121-0.357,0.236-0.717,0.355-1.074c0.102-0.318,0.207-0.637,0.307-0.953c0.113-0.363,0.221-0.73,0.33-1.096
				c0.092-0.316,0.189-0.633,0.279-0.947c0.104-0.369,0.199-0.738,0.297-1.107c0.088-0.318,0.172-0.639,0.254-0.955
				c0.094-0.375,0.18-0.75,0.268-1.123c0.076-0.318,0.154-0.635,0.225-0.955c0.086-0.389,0.164-0.781,0.244-1.172
				c0.061-0.307,0.131-0.609,0.188-0.918c0.078-0.406,0.146-0.814,0.217-1.217c0.055-0.301,0.113-0.596,0.16-0.896
				c0.068-0.418,0.127-0.84,0.189-1.264c0.039-0.287,0.084-0.574,0.125-0.861c0.061-0.477,0.115-0.959,0.168-1.438
				C3547.999,5163.949,3548.03,5163.717,3548.059,5163.502z"/>
			<path id="_x31_80611245_1_" fill="#CCCCCC" stroke="#000000" d="M2896.258,3957.973c-23.475,12.34-44.025,29.945-63.311,47.951
				c-21.549,20.121-41.846,41.605-61.213,63.826c-18.023,20.668-35.234,42.098-51.213,64.406
				c-11.252,15.705-21.684,31.918-31.457,48.584c-0.959,1.631-2.014,3.242-2.875,4.92c-64.484,125.15-87.451,290.91,29.705,396.291
				c44.008,39.594,117.416,76.688,176.611,53.15c70.367-27.98,72.982-91.869,37.945-148.889
				c-36.965-60.146-59.873-118.629-68.172-189.51c-1.461-12.545-2.498-25.164-3.084-37.785c-1.115-23.693-0.846-47.416,0.535-71.088
				c0.451-7.725,4.518-17.896,2.383-25.461c-0.822-2.932-2.518-5.447-3.217-8.402c-4.705-19.654-0.934-38.172,4.693-57.225
				c8.451-28.645,22.318-57.24,36.031-83.705c12.045-23.258,25.572-45.498,44.311-64.123c2.785-2.773,8.16-5.797,9.75-9.277
				C2933.514,3944.209,2914.405,3948.422,2896.258,3957.973z"/>
			<path id="_x31_80611246_1_" fill="#CCCCCC" stroke="#000000" d="M1368.897,4807.164c3.482,4.125,6.975,8.236,10.477,12.334
				c6.23,6.783,12.783,13.375,18.557,20.232c7.174,8.541,14.307,17.123,21.492,25.658c44.822,50.432,90.092,98.693,132.283,145.025
				c17.84,19.59,36.713,36.373,56.379,51.404c30.518,22.713,62.729,41.359,95.453,60.582c18,10.078,36.307,20.039,54.781,30.492
				c19.547,10.754,38.918,21.777,57.486,34.375c13.629,9.246,26.254,18.879,38.424,28.992
				c40.461,32.566,76.18,69.729,109.576,109.174c12.135,13.764,24.078,27.701,35.947,41.68
				c22.895,26.957,48.781,76.697,89.219,78.436c3.969,0.168,7.709,0.037,11.213-0.375c62.262-7.266,51.742-102.117,29.57-142.328
				c-10.787-19.549-24.818-39.832-40.141-56.115c-66.387-70.586-148.207-120.137-227.932-173.461
				c-99.633-66.635-192.375-148.76-288.01-220.902c-30.561-23.055-57.764-50.295-88.787-72.695
				c-26.953-19.467-64.406-46.477-98.27-50.559c-11.953-1.449-36.516,4.768-41.516,18.021c-9.029,23.932,8.578,37.861,20.523,55.486
				C1366.663,4804.16,1367.762,4805.668,1368.897,4807.164z"/>
			<path id="_x31_80611244_1_" fill="#AAAAAA" stroke="#000000" d="M3030.897,3929.436
				c-68.953-31.166-117.725,54.918-140.68,104.979c-18.717,40.844-61.268,121.254-7.115,152.887
				c53.152,31.037,107.393-71.324,138.764-98.404c24.578-21.209,47.141-58.314,49.604-92.629
				C3073.413,3969.211,3062.85,3943.873,3030.897,3929.436z"/>
		</g>
	</g>
</g>
</svg>
