<?xml version="1.0" encoding="utf-8"?>
<!-- Generator: Adobe Illustrator 16.0.0, SVG Export Plug-In . SVG Version: 6.00 Build 0)  -->
<!DOCTYPE svg PUBLIC "-//W3C//DTD SVG 1.1//EN" "http://www.w3.org/Graphics/SVG/1.1/DTD/svg11.dtd">
<svg version="1.1" id="Layer_1" xmlns="http://www.w3.org/2000/svg" xmlns:xlink="http://www.w3.org/1999/xlink" x="0px" y="0px"
	 width="4864px" height="4224px" viewBox="0 0 4864 4224" enable-background="new 0 0 4864 4224" xml:space="preserve">
<g>
	<g transform="scale(1.0)">
		<g id="_x31_80608795" transform=" scale(1.0, 1.0)">
			<path id="_x31_80608797" fill="#BFDAE3" stroke="#000000" d="M4439.9,1408.34c13.766,44.489,25.423,89.772,35.636,135.474
				c22.483,100.667,52.479,202.124,49.444,306.082c-5.486,187.754-89.11,359.626-107.627,543.995
				c-19.387,192.986-59.967,390.723-154.864,560.816c-99.754,178.795-227.984,350.665-393.932,473.264
				c-124.076,91.668-266.153,177.825-419.317,208.285c-198.525,39.473-443.656-94.736-613.701-185.062
				c-179.3-95.248-317.533-243.053-371.513-444.139c-63.273-235.66-13.055-502.342-14.242-742.817
				c-0.5-101.076,31.999-197.733,38.149-297.917c5.319-86.761-2.64-173.043,6.721-260.247
				c24.784-230.882,23.736-451.656,130.063-667.553c79.63-161.678,199.004-319.284,363.499-400.751
				c166.307-82.366,366.905-65.215,540.481-14.181c317.511,93.354,578.271,211.678,773.869,493.278
				C4364.896,1206.595,4408.032,1305.333,4439.9,1408.34z"/>
			<path id="_x31_80608798" fill="#B0FFB8" stroke="#000000" d="M4475.542,1543.82c-10.206-45.699-21.868-90.984-35.63-135.473
				c-31.88-103.008-75.008-201.75-137.333-291.485c-195.606-281.595-456.353-399.919-773.863-493.275
				c-173.569-51.037-374.172-68.183-540.479,14.183c-164.488,81.47-283.856,239.072-363.482,400.752
				c-106.333,215.897-105.278,436.667-130.063,667.558c-9.359,87.208-1.398,173.481-6.721,260.247
				c-6.142,100.182-38.643,196.839-38.14,297.917c1.184,240.476-49.028,507.156,14.236,742.822
				c53.985,201.083,192.211,348.89,371.513,444.142c170.039,90.326,415.172,224.538,613.691,185.063
				c153.17-30.463,295.238-116.623,419.313-208.287c165.945-122.597,294.174-294.47,393.921-473.267
				c94.894-170.094,135.474-367.83,154.856-560.813c18.518-184.368,102.141-356.247,107.629-544
				C4528.025,1745.943,4498.023,1644.486,4475.542,1543.82z M3498.895,1657.299c-25.779,65.237-45.607,136.611-65.281,204.019
				c-2.785,9.52-5.454,18.979-8.072,28.404c-11.24,40.507-21.432,80.305-34.689,120.971
				c-18.055,55.32-31.686,122.486-62.231,172.565c-1.689-22.29,5.155-44.139,9.398-65.715
				c13.952-70.895,28.605-142.256,40.722-213.287c17.703-103.802,51.605-220.88,5.432-323.018
				c-4.95-10.962-29.449-39.34-18.416-51.978c16.375-18.701,77.145,26.671,90.528,34.146
				C3497.618,1586.5,3519.25,1605.768,3498.895,1657.299z"/>
			<path id="_x31_80608799" fill="#9AD2BD" stroke="#000000" d="M4475.542,1543.82c-10.206-45.699-21.868-90.984-35.63-135.473
				c-31.88-103.008-75.008-201.75-137.333-291.485c-195.606-281.595-456.353-399.919-773.863-493.275
				c-173.569-51.037-374.172-68.183-540.479,14.183c-164.488,81.47-283.856,239.072-363.482,400.752
				c-106.333,215.897-105.278,436.667-130.063,667.558c-9.359,87.208-1.398,173.481-6.721,260.247
				c-6.142,100.182-38.643,196.839-38.14,297.917c1.184,240.476-49.028,507.156,14.236,742.822
				c53.985,201.083,192.211,348.89,371.513,444.142c170.039,90.326,415.172,224.538,613.691,185.063
				c153.17-30.463,295.238-116.623,419.313-208.287c165.945-122.597,294.174-294.47,393.921-473.267
				c94.894-170.094,135.474-367.83,154.856-560.813c18.518-184.368,102.141-356.247,107.629-544
				C4528.025,1745.943,4498.023,1644.486,4475.542,1543.82z M3498.895,1657.299c-25.779,65.237-45.607,136.611-65.281,204.019
				c-2.785,9.52-5.454,18.979-8.072,28.404c-11.24,40.507-21.432,80.305-34.689,120.971
				c-18.055,55.32-31.686,122.486-62.231,172.565c-1.689-22.29,5.155-44.139,9.398-65.715
				c13.952-70.895,28.605-142.256,40.722-213.287c17.703-103.802,51.605-220.88,5.432-323.018
				c-4.95-10.962-29.449-39.34-18.416-51.978c16.375-18.701,77.145,26.671,90.528,34.146
				C3497.618,1586.5,3519.25,1605.768,3498.895,1657.299z"/>
			<path id="_x31_80608800" fill="#9AD2BD" stroke="#000000" d="M4475.536,1543.814c-10.213-45.701-21.872-90.985-35.635-135.474
				c-31.869-103.006-75.005-201.745-137.334-291.476c-195.599-281.599-456.357-399.924-773.87-493.278
				c-173.576-51.034-374.174-68.185-540.48,14.181c-164.495,81.468-283.869,239.073-363.499,400.751
				c-106.328,215.897-105.279,436.671-130.064,667.553c-9.36,87.205-1.401,173.485-6.721,260.248
				c-6.149,100.184-38.649,196.84-38.148,297.917c1.187,240.476-49.032,507.157,14.241,742.817
				c53.98,201.086,192.216,348.891,371.514,444.139c170.045,90.325,415.174,224.535,613.701,185.062
				c153.164-30.46,295.241-116.617,419.315-208.286c165.948-122.598,294.179-294.468,393.934-473.263
				c94.897-170.095,135.478-367.83,154.864-560.816c18.517-184.367,102.141-356.241,107.625-543.995
				C4528.016,1745.938,4498.02,1644.481,4475.536,1543.814z M3498.895,1657.299c-25.779,65.237-45.607,136.611-65.281,204.019
				c-2.785,9.52-5.454,18.979-8.072,28.404c-11.24,40.507-21.432,80.305-34.689,120.971
				c-18.055,55.32-31.686,122.486-62.231,172.565c-1.689-22.29,5.155-44.139,9.398-65.715
				c13.952-70.895,28.605-142.256,40.722-213.287c17.703-103.802,51.605-220.88,5.432-323.018
				c-4.95-10.962-29.449-39.34-18.416-51.978c16.375-18.701,77.145,26.671,90.528,34.146
				C3497.618,1586.5,3519.25,1605.768,3498.895,1657.299z"/>
			<path id="_x31_80608801" fill="#82C7AE" stroke="#000000" d="M2598.85,1776.229c18.24,92.127-5.879,189.419-18.214,281.4
				c-49.205,366.816-0.76,728.93,189.668,1051.286c61.41,103.968,166.672,205.387,254.277,287.629
				c108.879,102.215,253.558,167.706,404.748,154.657c147.44-12.72,266.815-105.836,378.817-194.106
				c148.549-117.065,173.383-308.577,186.537-484.649c7.176-96.054,37.928-193.924,78.509-280.766
				c73.665-157.649,189.971-289.74,288.492-431.454c81.718-117.541,76.513-307.417,75.81-445.595
				c-0.372-72.537-3.32-147.655-12.928-219.657c-3.469-25.979-7.537-53.071-12.396-80.617
				c-23.682-134.162-74.641-249.663-149.97-352.172c-190.579-242.726-437.34-351.537-733.481-438.608
				c-173.577-51.03-374.181-68.175-540.479,14.188c-2.783,1.379-5.555,2.787-8.32,4.21c-1.962,1.012-3.916,2.036-5.863,3.071
				c-0.483,0.252-0.963,0.506-1.443,0.76c-115.326,61.551-207.754,160.695-279.261,271.252
				c-64.899,125.681-63.044,269.099-91.858,407.704C2569.581,1478.211,2568.26,1621.685,2598.85,1776.229z M2850.303,2015.272
				c33.552-139.555-25.128-299.412-46.535-438.029c-7.581-49.07-13.861-98.69-17.648-148.459
				c-8.2-107.74-4.699-216.189,22.638-321.325c18.94-72.813,46.715-143.566,88.849-206.133
				c60.041-89.162,143.073-194.486,246.762-233.293c183.663-68.744,374.914-23.195,536.949,75.983
				c78.597,48.11,144.113,126.749,228.409,164.417c79.352,35.458,141.554,88.585,199.598,155.362
				c68.009,78.237,128.384,187.352,154.837,287.958c25.734,97.862,31.62,224.266,9.52,323.871
				c-21.313,96.063-69.379,176.378-122.613,257.03c-53.15,80.507-105.942,160.132-155.213,242.67
				c-46.099,77.229-100.174,137.97-177.166,186.25c-29.209,18.313-46.446,32.831-63.259,64.502
				c-36.608,68.935-38.925,162.915-20.614,236.69c32.084,129.219,14.824,256.314-4.427,384.739
				c-9.104,60.725-24.946,125.536-47.958,182.522c-34.103,84.472-115.934,153.322-201.291,182.623
				c-165.938,56.944-368.234-70.929-459.913-205.369c-80.243-117.672-148.624-236.299-202.242-368.56
				c-74.222-183.087-104.005-389.006-54.22-581.901C2786.122,2174.038,2830.643,2097.064,2850.303,2015.272z"/>
			<path id="_x31_80608805" fill="#82C7AE" stroke="#000000" d="M3328.633,2183.353c-1.689-22.292,5.153-44.147,9.398-65.725
				c13.949-70.899,28.612-142.259,40.721-213.293c17.7-103.812,51.603-220.893,5.437-323.037
				c-4.958-10.96-29.455-39.341-18.415-51.98c0,0,7.106-12.786,42.281,5.337c-52.663-34.325-84.047-76.718-62.984-159.151
				c30.156-117.986,135.533-88.045,197.763-12.259c39.703,48.359,80.033,125.93,84.354,189.391
				c5.286,77.595-48.441,156.627-84.497,221.621c-72.158,130.014-118.672,264.438-148.154,410.119
				c-29.878,147.673-56.191,297.795-79.524,446.585c-4.289,27.361-19.108,62.505-38.935,24.38
				c-27.616-53.081-22.071-129.001-20.086-186.873c2.354-68.908,11.736-138.114,32.155-204.108
				c8.63-27.88,23.143-52.668,37.415-77.604L3328.633,2183.353z M3817.846,1880.131c62.369-58.861,132.799-115.234,163.442-197.957
				c30.83-83.256,43.146-176.42,19.246-263.004c-15.027-54.466-40.845-105.741-71.362-153.088
				c-43.58-67.597-102.553-138.898-164.776-190.336c-101.869-84.217-194.354-198.315-332.732-219.858
				c-245.283-38.182-383.521,256.553-372.096,462.554c5.445,98.306,52.007,189.551,78.069,283.881
				c17.431,63.135,40.642,127.093,48.45,192.351c6.646,55.434-0.932,115.157-2.782,170.975
				c-7.906,238.937-245.378,415.398-190.723,666.424c36.863,169.292,158.233,363.753,295.149,469.528
				c106.449,82.24,224.727,35.156,239.613-150.245c9.173-114.3-36.47-226.88-34.887-342.458
				c1.798-131.067,12.915-266.92,62.958-389.479c24.189-59.226,60.395-115.676,102.139-168.532
				C3706.829,1988.499,3763.82,1931.125,3817.846,1880.131z"/>
			<path id="_x31_80608804" fill="#9AD2BD" stroke="#000000" d="M3939.892,1193.543c-54.132-60.564-115.949-113.786-168.987-175.597
				c-56.888-66.296-115.159-110.575-187.611-159.428c-43.789-29.521-93.863-57.523-146.162-65
				c-92.577-13.243-161.072,20.477-234.815,71.289c-96.551,66.532-181.5,224.76-191.234,340.131
				c-6.025,71.425-3.041,155.042,14.636,224.787c12.353,48.741,31.839,96.151,53.616,141.418
				c56.321,117.031,74.928,239.016,54.629,369.625c-14.534,93.519-39.763,188.292-90.366,267.529
				c-158.253,247.769-103.76,564.838,72.772,789.37c44.52,56.627,99.972,115.314,159.271,156.823
				c70.294,49.199,176.667,67.839,241.23-2.728c35.13-38.393,38.371-80.651,42.289-129.038
				c4.522-55.808,15.686-110.865,13.959-167.093c-2.646-86.284-16.588-173.21-27.388-258.761
				c-9.923-78.557-5.291-151.818,7.448-232.934c16.875-107.431,74.06-193.42,149.323-269.585
				c67.258-68.05,145.25-129.685,210.132-209.663c83.743-103.221,183.366-261.627,160.972-401.801
				C4055.631,1370.344,4017.03,1279.836,3939.892,1193.543z M3981.288,1682.175c-30.642,82.722-101.073,139.095-163.442,197.957
				c-54.025,50.994-111.017,108.367-160.289,170.758c-41.745,52.858-77.951,109.307-102.139,168.533
				c-50.042,122.559-61.161,258.41-62.958,389.479c-1.585,115.577,44.059,228.157,34.886,342.457
				c-14.887,185.4-133.164,232.487-239.614,150.245c-136.916-105.774-258.285-300.234-295.148-469.529
				c-54.656-251.025,182.815-427.485,190.722-666.422c1.852-55.817,9.43-115.542,2.783-170.976
				c-7.809-65.257-31.02-129.215-48.45-192.35c-26.062-94.331-72.625-185.577-78.069-283.882
				c-11.427-206.002,126.813-500.736,372.095-462.554c138.378,21.543,230.865,135.641,332.732,219.858
				c62.226,51.437,121.198,122.739,164.778,190.336c30.518,47.346,56.333,98.621,71.36,153.087
				C4024.433,1505.755,4012.118,1598.918,3981.288,1682.175z"/>
			<path id="_x31_80608803" fill="#82C7AE" stroke="#000000" d="M3702.504,2094.353c-75.264,76.167-132.448,162.154-149.323,269.585
				c-12.74,81.115-17.371,154.377-7.448,232.935c10.8,85.549,24.742,172.476,27.388,258.762
				c1.726,56.226-9.437,111.283-13.96,167.091c-3.917,48.387-7.158,90.646-42.288,129.038
				c-64.563,70.567-170.937,51.928-241.232,2.729c-59.299-41.51-114.752-100.199-159.271-156.825
				c-176.531-224.532-231.024-541.602-72.771-789.37c50.603-79.239,75.831-174.01,90.365-267.529
				c20.3-130.61,1.691-252.595-54.629-369.625c-21.778-45.269-41.265-92.678-53.616-141.419
				c-17.676-69.745-20.66-153.363-14.635-224.786c9.732-115.371,94.685-273.599,191.233-340.132
				c73.743-50.812,142.237-84.531,234.816-71.288c52.297,7.477,102.373,35.477,146.162,64.999
				c72.45,48.854,130.722,93.133,187.61,159.429c53.038,61.81,114.854,115.033,168.988,175.596
				c77.139,86.292,115.739,176.801,133.714,289.344c22.396,140.174-77.229,298.581-160.971,401.802
				C3847.754,1964.667,3769.76,2026.301,3702.504,2094.353z M3951.255,1885.928c104.745-122.697,198.132-266.94,168.671-424.363
				c-13.859-74.068-32.492-147.267-72.108-212.195c-76.189-124.86-203.915-203.344-309.049-300.686
				c-86.36-79.958-193.433-165.334-309.517-194.347c-141.384-35.333-298.365,86.368-374.453,197.052
				c-51.371,74.732-86.181,157.92-96.821,247.684c-7.336,61.854-5.695,132.438,7.651,193.488
				c13.749,62.847,45.133,101.266,70.351,157.375c54.246,120.728,96.482,256.009,74.118,390.307
				c-13.809,82.916-37.689,156.354-85.691,226.683c-176.078,258.018-119.616,598.55,51.456,840.964
				c46.591,66.01,106.013,123.432,173.969,167.423c39.712,25.702,100.317,43.74,146.743,51.475
				c262.813,43.775,205.105-383.864,187.374-530.557c-12.892-106.589-31.488-215.292-10.027-322.769
				c19.868-99.565,74.901-186.555,146.081-257.705c35.388-35.366,76.156-59.833,111.001-97.531
				C3868.482,1977.683,3910.716,1933.419,3951.255,1885.928z"/>
			<path id="_x31_80608802" fill="#9AD2BD" stroke="#000000" d="M2818.986,2838.726c53.618,132.264,121.999,250.888,202.242,368.561
				c91.677,134.441,293.975,262.313,459.912,205.368c85.358-29.302,167.188-98.152,201.293-182.623
				c23.011-56.985,38.854-121.798,47.957-182.521c19.252-128.425,36.51-255.521,4.428-384.74
				c-18.312-73.775-15.994-167.756,20.614-236.69c16.812-31.673,34.046-46.188,63.26-64.502
				c76.993-48.279,131.064-109.021,177.165-186.25c49.269-82.54,102.062-162.164,155.211-242.672
				c53.236-80.65,101.303-160.964,122.614-257.027c22.101-99.607,16.215-226.009-9.521-323.872
				c-26.453-100.609-86.828-209.722-154.836-287.958c-58.045-66.777-120.244-119.903-199.598-155.361
				c-84.296-37.669-149.813-116.308-228.408-164.417c-162.037-99.181-353.288-144.729-536.951-75.984
				c-103.687,38.807-186.72,144.131-246.762,233.293c-42.134,62.568-69.908,133.321-88.847,206.134
				c-27.337,105.134-30.84,213.584-22.638,321.323c3.789,49.772,10.065,99.39,17.646,148.46
				c21.409,138.62,80.088,298.477,46.536,438.03c-19.66,81.792-64.18,158.765-85.535,241.551
				C2714.98,2449.72,2744.764,2655.638,2818.986,2838.726z M3024.396,2166.839c48.001-70.329,71.884-143.756,85.691-226.673
				c22.365-134.291-19.871-269.563-74.113-390.28c-25.219-56.106-56.609-94.521-70.359-157.371
				c-13.34-61.044-14.977-131.625-7.641-193.479c10.642-89.757,45.442-172.938,96.813-247.664
				c76.098-110.686,233.08-232.379,374.456-197.049c116.081,29.011,223.162,114.379,309.515,194.333
				c105.132,97.336,232.856,175.814,309.046,300.667c39.616,64.924,58.256,138.118,72.114,212.182
				c29.462,157.415-63.936,301.65-168.673,424.341c-40.539,47.488-82.775,91.749-120.264,132.292
				c-34.833,37.696-75.612,62.162-110.998,97.531c-71.174,71.142-126.207,158.131-146.076,257.688
				c-21.461,107.475-2.866,216.164,10.033,322.754c17.723,146.685,75.422,574.299-187.387,530.527
				c-46.418-7.737-107.031-25.773-146.741-51.473c-67.956-43.987-127.379-101.403-173.969-167.408
				C2904.774,2765.354,2848.313,2424.847,3024.396,2166.839z"/>
			<path id="_x31_80608807" fill="#CCCCCC" stroke="#000000" d="M4475.535,1543.75c-10.209-45.697-21.877-90.978-35.637-135.459
				c-31.873-103.007-74.997-201.742-137.332-291.474c-13.159-18.942-26.621-37.124-40.368-54.631
				c75.329,102.511,126.29,218.012,149.972,352.172c4.859,27.547,8.926,54.638,12.395,80.617
				c9.608,72.002,12.558,147.12,12.929,219.657c0.704,138.179,5.909,328.054-75.81,445.594
				c-98.522,141.716-214.826,273.805-288.492,431.454c-40.58,86.842-71.332,184.712-78.511,280.767
				c-13.151,176.07-37.987,367.581-186.535,484.648c-112.002,88.271-231.378,181.388-378.816,194.107
				c-151.191,13.049-295.869-52.442-404.749-154.657c-87.605-82.242-192.868-183.662-254.278-287.63
				c-190.426-322.356-238.872-684.47-189.668-1051.286c12.334-91.98,36.453-189.271,18.215-281.401
				c-30.59-154.544-29.269-298.018,2.642-451.463c28.818-138.607,26.96-282.025,91.86-407.706
				c-25.499,39.426-48.344,80.298-68.607,121.44c-106.334,215.886-105.282,436.646-130.062,667.519
				c-9.368,87.205-1.406,173.476-6.724,260.234c-6.15,100.173-38.644,196.828-38.149,297.9
				c1.19,240.461-49.031,507.127,14.239,742.78c53.983,201.072,192.211,348.873,371.513,444.115
				c170.035,90.318,415.168,224.521,613.686,185.044c153.167-30.458,295.24-116.617,419.314-208.278
				c165.946-122.598,294.176-294.455,393.924-473.243c94.896-170.084,135.479-367.81,154.862-560.783
				c18.521-184.36,102.136-356.223,107.624-543.972C4528.005,1745.862,4498.016,1644.413,4475.535,1543.75z"/>
			<path id="_x31_80608808" fill="#CCCCCC" stroke="#000000" d="M3425.541,1889.722c-11.24,40.507-21.432,80.305-34.689,120.971
				c-13.627,41.772-22.129,86.224-39.581,126.639c-18.827,43.576-48.938,81.07-63.139,126.928
				c-20.419,65.991-29.799,135.196-32.156,204.095c-1.985,57.871-7.532,133.783,20.083,186.869
				c19.827,38.12,34.646,2.98,38.936-24.384c23.337-148.777,49.648-298.897,79.529-446.561
				c29.483-145.667,76-280.083,148.149-410.096c36.059-64.985,89.791-144.02,84.508-221.609
				c-4.321-63.457-44.658-141.021-84.361-189.375c-62.22-75.782-167.596-105.725-197.753,12.256
				c-23.185,90.701,17.749,134.764,80.685,168.742c10.137,5.473,19.597,13.101,30.533,19.212
				c41.335,23.091,62.966,42.36,42.61,93.891C3469.045,1732.839,3447.249,1811.543,3425.541,1889.722z"/>
			<path id="_x31_80608806" fill="#AAAAAA" stroke="#000000" d="M3456.284,1563.407c-13.384-7.476-74.153-52.848-90.528-34.146
				c-11.032,12.637,13.466,41.016,18.416,51.978c46.174,102.137,12.271,219.216-5.432,323.018
				c-12.117,71.03-26.77,142.392-40.722,213.287c-4.243,21.576-11.088,43.425-9.398,65.715
				c30.546-50.079,44.177-117.245,62.231-172.565c13.258-40.666,23.449-80.464,34.689-120.971
				c2.618-9.426,5.287-18.885,8.072-28.404c19.674-67.407,39.502-138.783,65.281-204.019
				C3519.25,1605.768,3497.618,1586.5,3456.284,1563.407z"/>
		</g>
	</g>
	<g transform="scale(1.0)">
		<g id="_x31_80608795_1_" transform=" scale(1.0, 1.0)">
			<path id="_x31_80608797_1_" fill="#BFDAE3" stroke="#000000" d="M561.433,1116.865
				c195.599-281.6,456.358-399.924,773.869-493.278c173.576-51.034,374.175-68.185,540.481,14.181
				c164.495,81.468,283.87,239.073,363.5,400.751c106.327,215.897,105.279,436.671,130.063,667.553
				c9.36,87.204,1.401,173.486,6.72,260.247c6.15,100.185,38.65,196.841,38.15,297.917c-1.188,240.476,49.03,507.157-14.242,742.817
				c-53.98,201.086-192.213,348.891-371.514,444.139c-170.045,90.325-415.176,224.534-613.701,185.062
				c-153.164-30.46-295.241-116.617-419.317-208.285c-165.947-122.599-294.178-294.469-393.932-473.264
				c-94.897-170.094-135.478-367.83-154.864-560.816c-18.517-184.368-102.141-356.241-107.627-543.995
				c-3.035-103.958,26.961-205.415,49.444-306.082c10.213-45.702,21.87-90.985,35.636-135.474
				C455.968,1305.333,499.104,1206.595,561.433,1116.865z"/>
			<path id="_x31_80608798_1_" fill="#B0FFB8" stroke="#000000" d="M339.01,1849.905c5.488,187.753,89.111,359.631,107.629,544
				c19.383,192.982,59.963,390.719,154.856,560.813c99.747,178.797,227.976,350.67,393.921,473.267
				c124.075,91.664,266.143,177.824,419.313,208.287c198.52,39.475,443.652-94.737,613.691-185.063
				c179.303-95.252,317.528-243.059,371.514-444.142c63.264-235.666,13.053-502.347,14.235-742.822
				c0.504-101.077-31.998-197.735-38.139-297.917c-5.322-86.766,2.639-173.038-6.721-260.247
				c-24.785-230.891-23.73-451.661-130.063-667.558c-79.626-161.68-198.995-319.282-363.483-400.752
				c-166.308-82.365-366.91-65.219-540.479-14.183c-317.51,93.355-578.256,211.68-773.863,493.275
				c-62.325,89.735-105.453,188.477-137.333,291.485c-13.762,44.489-25.424,89.773-35.63,135.473
				C365.977,1644.486,335.975,1745.943,339.01,1849.905z M1407.715,1563.407c13.384-7.476,74.153-52.848,90.528-34.146
				c11.033,12.638-13.466,41.015-18.416,51.978c-46.174,102.138-12.271,219.216,5.432,323.018
				c12.116,71.03,26.77,142.392,40.722,213.287c4.243,21.576,11.088,43.425,9.398,65.715
				c-30.546-50.079-44.177-117.245-62.231-172.565c-13.258-40.666-23.449-80.464-34.689-120.971
				c-2.618-9.426-5.287-18.885-8.072-28.404c-19.674-67.408-39.502-138.782-65.281-204.019
				C1344.75,1605.768,1366.381,1586.5,1407.715,1563.407z"/>
			<path id="_x31_80608799_1_" fill="#9AD2BD" stroke="#000000" d="M339.01,1849.905c5.488,187.753,89.111,359.631,107.629,544
				c19.383,192.982,59.963,390.719,154.856,560.813c99.747,178.797,227.976,350.67,393.921,473.267
				c124.075,91.664,266.143,177.824,419.313,208.287c198.52,39.475,443.652-94.737,613.691-185.063
				c179.303-95.252,317.528-243.059,371.514-444.142c63.264-235.666,13.053-502.347,14.235-742.822
				c0.504-101.077-31.998-197.735-38.139-297.917c-5.322-86.766,2.639-173.038-6.721-260.247
				c-24.785-230.891-23.73-451.661-130.063-667.558c-79.626-161.68-198.995-319.282-363.483-400.752
				c-166.308-82.365-366.91-65.219-540.479-14.183c-317.51,93.355-578.256,211.68-773.863,493.275
				c-62.325,89.735-105.453,188.477-137.333,291.485c-13.762,44.489-25.424,89.773-35.63,135.473
				C365.977,1644.486,335.975,1745.943,339.01,1849.905z M1407.715,1563.407c13.384-7.476,74.153-52.848,90.528-34.146
				c11.033,12.638-13.466,41.015-18.416,51.978c-46.174,102.138-12.271,219.216,5.432,323.018
				c12.116,71.03,26.77,142.392,40.722,213.287c4.243,21.576,11.088,43.425,9.398,65.715
				c-30.546-50.079-44.177-117.245-62.231-172.565c-13.258-40.666-23.449-80.464-34.689-120.971
				c-2.618-9.426-5.287-18.885-8.072-28.404c-19.674-67.408-39.502-138.782-65.281-204.019
				C1344.75,1605.768,1366.381,1586.5,1407.715,1563.407z"/>
			<path id="_x31_80608800_1_" fill="#9AD2BD" stroke="#000000" d="M339.021,1849.895c5.484,187.754,89.108,359.627,107.625,543.995
				c19.387,192.986,59.967,390.722,154.864,560.816c99.755,178.795,227.985,350.665,393.934,473.263
				c124.074,91.669,266.151,177.826,419.315,208.286c198.527,39.474,443.656-94.736,613.701-185.062
				c179.299-95.248,317.533-243.053,371.514-444.139c63.274-235.66,13.056-502.342,14.242-742.817
				c0.501-101.076-32-197.733-38.148-297.917c-5.32-86.763,2.639-173.043-6.721-260.248
				c-24.785-230.882-23.736-451.656-130.064-667.553c-79.63-161.678-199.005-319.284-363.5-400.751
				c-166.307-82.366-366.904-65.215-540.48-14.181c-317.512,93.354-578.271,211.679-773.87,493.278
				c-62.329,89.731-105.465,188.47-137.334,291.476c-13.763,44.488-25.422,89.773-35.635,135.474
				C365.98,1644.481,335.984,1745.938,339.021,1849.895z M1407.715,1563.407c13.384-7.476,74.153-52.848,90.528-34.146
				c11.033,12.638-13.466,41.015-18.416,51.978c-46.174,102.138-12.271,219.216,5.432,323.018
				c12.116,71.03,26.77,142.392,40.722,213.287c4.243,21.576,11.088,43.425,9.398,65.715
				c-30.546-50.079-44.177-117.245-62.231-172.565c-13.258-40.666-23.449-80.464-34.689-120.971
				c-2.618-9.426-5.287-18.885-8.072-28.404c-19.674-67.408-39.502-138.782-65.281-204.019
				C1344.75,1605.768,1366.381,1586.5,1407.715,1563.407z"/>
			<path id="_x31_80608801_1_" fill="#82C7AE" stroke="#000000" d="M2262.506,1324.761
				c-28.814-138.605-26.959-282.022-91.858-407.704c-71.507-110.557-163.936-209.702-279.262-271.252
				c-0.48-0.254-0.96-0.508-1.443-0.76c-1.947-1.035-3.901-2.059-5.863-3.071c-2.766-1.423-5.537-2.831-8.32-4.21
				c-166.298-82.362-366.901-65.218-540.479-14.188C1039.14,710.648,792.379,819.459,601.8,1062.185
				c-75.329,102.509-126.288,218.01-149.97,352.172c-4.859,27.545-8.928,54.638-12.396,80.617
				c-9.607,72.002-12.556,147.121-12.928,219.657c-0.703,138.178-5.908,328.054,75.81,445.595
				c98.521,141.714,214.827,273.805,288.492,431.454c40.581,86.842,71.333,184.712,78.509,280.766
				c13.154,176.072,37.988,367.584,186.537,484.649c112.001,88.271,231.376,181.387,378.817,194.106
				c151.19,13.049,295.869-52.442,404.748-154.657c87.605-82.242,192.867-183.661,254.278-287.629
				c190.428-322.355,238.873-684.47,189.668-1051.286c-12.335-91.981-36.454-189.273-18.214-281.4
				C2295.741,1621.685,2294.419,1478.211,2262.506,1324.761z M2099.237,2256.821c49.785,192.896,20.002,398.814-54.221,581.901
				c-53.618,132.261-121.999,250.888-202.242,368.56c-91.679,134.44-293.975,262.313-459.913,205.369
				c-85.357-29.301-167.188-98.151-201.291-182.623c-23.012-56.986-38.853-121.798-47.958-182.522
				c-19.251-128.425-36.511-255.521-4.427-384.739c18.311-73.775,15.994-167.756-20.614-236.69
				c-16.813-31.671-34.05-46.188-63.259-64.502c-76.992-48.28-131.067-109.021-177.166-186.25
				c-49.271-82.539-102.063-162.164-155.213-242.67c-53.234-80.651-101.301-160.966-122.613-257.03
				c-22.101-99.605-16.215-226.009,9.52-323.871c26.453-100.606,86.828-209.722,154.837-287.958
				c58.044-66.777,120.246-119.904,199.598-155.362c84.296-37.669,149.813-116.308,228.409-164.417
				c162.035-99.178,353.286-144.727,536.949-75.983c103.688,38.808,186.721,144.132,246.762,233.293
				c42.134,62.567,69.908,133.32,88.849,206.133c27.337,105.136,30.838,213.585,22.638,321.325
				c-3.787,49.769-10.067,99.389-17.648,148.459c-21.407,138.618-80.087,298.475-46.535,438.029
				C2033.357,2097.064,2077.877,2174.038,2099.237,2256.821z"/>
			<path id="_x31_80608805_1_" fill="#82C7AE" stroke="#000000" d="M1538.439,2186.753c14.272,24.937,28.785,49.725,37.415,77.604
				c20.419,65.994,29.801,135.2,32.155,204.108c1.985,57.872,7.53,133.792-20.086,186.873c-19.826,38.125-34.646,2.981-38.935-24.38
				c-23.333-148.79-49.646-298.912-79.524-446.585c-29.482-145.68-75.996-280.105-148.154-410.119
				c-36.056-64.993-89.783-144.026-84.497-221.621c4.32-63.461,44.65-141.032,84.354-189.391
				c62.229-75.786,167.606-105.727,197.763,12.259c21.063,82.434-10.321,124.827-62.984,159.151
				c35.175-18.123,42.281-5.337,42.281-5.337c11.04,12.64-13.457,41.02-18.415,51.98c-46.166,102.144-12.264,219.225,5.437,323.037
				c12.108,71.034,26.771,142.395,40.721,213.293c4.245,21.577,11.088,43.433,9.398,65.725L1538.439,2186.753z M1206.445,2050.889
				c41.744,52.855,77.949,109.306,102.139,168.532c50.043,122.559,61.16,258.411,62.958,389.479
				c1.583,115.578-44.06,228.158-34.887,342.458c14.887,185.401,133.164,232.485,239.613,150.245
				c136.916-105.775,258.286-300.236,295.149-469.528c54.655-251.026-182.816-427.487-190.723-666.424
				c-1.851-55.817-9.428-115.541-2.782-170.975c7.809-65.258,31.02-129.216,48.45-192.351
				c26.063-94.33,72.624-185.576,78.069-283.881c11.426-206.001-126.813-500.736-372.096-462.554
				c-138.378,21.543-230.863,135.641-332.732,219.858c-62.224,51.438-121.196,122.739-164.776,190.336
				c-30.518,47.347-56.335,98.622-71.362,153.088c-23.899,86.584-11.584,179.748,19.246,263.004
				c30.644,82.722,101.073,139.095,163.442,197.957C1100.18,1931.125,1157.17,1988.499,1206.445,2050.889z"/>
			<path id="_x31_80608804_1_" fill="#9AD2BD" stroke="#000000" d="M790.395,1482.889
				C768,1623.063,867.623,1781.469,951.366,1884.69c64.882,79.979,142.874,141.613,210.131,209.663
				c75.264,76.166,132.448,162.155,149.323,269.585c12.739,81.115,17.371,154.377,7.448,232.934
				c-10.8,85.551-24.741,172.477-27.388,258.761c-1.727,56.228,9.437,111.285,13.959,167.093
				c3.918,48.387,7.159,90.646,42.289,129.038c64.563,70.566,170.937,51.927,241.23,2.728
				c59.3-41.509,114.752-100.196,159.271-156.823c176.532-224.532,231.025-541.602,72.772-789.37
				c-50.604-79.237-75.832-174.01-90.366-267.529c-20.299-130.609-1.692-252.595,54.629-369.625
				c21.777-45.267,41.264-92.678,53.616-141.418c17.677-69.745,20.661-153.362,14.636-224.787
				c-9.734-115.371-94.684-273.599-191.234-340.131c-73.743-50.812-142.238-84.531-234.815-71.289
				c-52.299,7.477-102.373,35.478-146.162,65c-72.452,48.854-130.723,93.132-187.611,159.428
				c-53.038,61.811-114.855,115.033-168.987,175.597C846.97,1279.836,808.369,1370.344,790.395,1482.889z M863.466,1419.172
				c15.027-54.466,40.843-105.741,71.36-153.087c43.58-67.597,102.553-138.899,164.778-190.336
				c101.867-84.217,194.354-198.315,332.732-219.858c245.282-38.183,383.521,256.552,372.095,462.554
				c-5.444,98.305-52.008,189.551-78.069,283.882c-17.431,63.135-40.642,127.093-48.45,192.35
				c-6.646,55.434,0.932,115.158,2.783,170.976c7.906,238.937,245.378,415.397,190.722,666.422
				c-36.863,169.295-158.232,363.755-295.148,469.529c-106.45,82.242-224.728,35.155-239.614-150.245
				c-9.173-114.3,36.471-226.88,34.886-342.457c-1.797-131.068-12.916-266.92-62.958-389.479
				c-24.188-59.226-60.394-115.674-102.139-168.533c-49.272-62.391-106.263-119.764-160.289-170.758
				c-62.369-58.861-132.801-115.235-163.442-197.957C851.882,1598.918,839.567,1505.755,863.466,1419.172z"/>
			<path id="_x31_80608803_1_" fill="#82C7AE" stroke="#000000" d="M951.363,1884.69
				c-83.742-103.222-183.366-261.628-160.971-401.802c17.975-112.543,56.575-203.052,133.714-289.344
				c54.134-60.563,115.95-113.786,168.988-175.596c56.889-66.296,115.16-110.576,187.61-159.429
				c43.789-29.522,93.865-57.522,146.162-64.999c92.579-13.244,161.073,20.476,234.816,71.288
				c96.549,66.533,181.501,224.761,191.233,340.132c6.025,71.423,3.041,155.041-14.635,224.786
				c-12.352,48.741-31.838,96.15-53.616,141.419c-56.32,117.03-74.929,239.015-54.629,369.625
				c14.534,93.519,39.763,188.29,90.365,267.529c158.253,247.769,103.76,564.838-72.771,789.37
				c-44.519,56.626-99.972,115.315-159.271,156.825c-70.296,49.198-176.669,67.838-241.232-2.729
				c-35.13-38.393-38.371-80.651-42.288-129.038c-4.523-55.808-15.686-110.865-13.96-167.091
				c2.646-86.286,16.588-173.213,27.388-258.762c9.923-78.558,5.292-151.819-7.448-232.935
				c-16.875-107.432-74.06-193.419-149.323-269.585C1094.24,2026.301,1016.246,1964.667,951.363,1884.69z M1032.997,2018.226
				c34.845,37.698,75.613,62.165,111.001,97.531c71.179,71.15,126.212,158.14,146.081,257.705
				c21.461,107.477,2.864,216.18-10.027,322.769c-17.731,146.692-75.438,574.332,187.374,530.557
				c46.426-7.734,107.031-25.772,146.743-51.475c67.956-43.991,127.378-101.413,173.969-167.423
				c171.072-242.414,227.534-582.946,51.456-840.964c-48.002-70.33-71.883-143.767-85.691-226.683
				c-22.364-134.298,19.872-269.579,74.118-390.307c25.218-56.11,56.602-94.529,70.351-157.375
				c13.347-61.051,14.987-131.635,7.651-193.488c-10.641-89.763-45.45-172.952-96.821-247.684
				c-76.088-110.684-233.069-232.385-374.453-197.052c-116.084,29.013-223.156,114.389-309.516,194.347
				c-105.134,97.342-232.859,175.826-309.049,300.686c-39.616,64.928-58.249,138.127-72.108,212.195
				c-29.461,157.423,63.926,301.666,168.671,424.363C953.284,1933.419,995.518,1977.683,1032.997,2018.226z"/>
			<path id="_x31_80608802_1_" fill="#9AD2BD" stroke="#000000" d="M2099.23,2256.826c-21.356-82.786-65.876-159.759-85.536-241.551
				c-33.552-139.554,25.127-299.411,46.536-438.03c7.581-49.07,13.857-98.688,17.646-148.46
				c8.202-107.739,4.699-216.188-22.638-321.323c-18.938-72.813-46.713-143.566-88.847-206.134
				c-60.042-89.162-143.075-194.486-246.762-233.293c-183.663-68.745-374.914-23.197-536.951,75.984
				c-78.595,48.11-144.112,126.749-228.408,164.417c-79.354,35.458-141.553,88.584-199.598,155.361
				c-68.008,78.237-128.383,187.35-154.836,287.958c-25.735,97.862-31.621,224.264-9.521,323.872
				c21.312,96.063,69.378,176.377,122.614,257.027c53.149,80.509,105.942,160.133,155.211,242.672
				c46.101,77.229,100.172,137.971,177.165,186.25c29.214,18.313,46.448,32.829,63.26,64.502
				c36.608,68.935,38.926,162.915,20.614,236.69c-32.082,129.22-14.824,256.315,4.428,384.74
				c9.104,60.724,24.946,125.536,47.957,182.521c34.104,84.471,115.935,153.321,201.293,182.623
				c165.938,56.945,368.235-70.927,459.912-205.368c80.243-117.673,148.624-236.297,202.242-368.561
				C2119.237,2655.638,2149.02,2449.72,2099.23,2256.826z M1788.157,3007.759c-46.59,66.005-106.013,123.421-173.969,167.408
				c-39.71,25.699-100.323,43.735-146.741,51.473c-262.809,43.771-205.109-383.843-187.387-530.527
				c12.899-106.59,31.494-215.279,10.033-322.754c-19.869-99.557-74.902-186.546-146.076-257.688
				c-35.386-35.369-76.165-59.834-110.998-97.531c-37.488-40.543-79.725-84.804-120.264-132.292
				c-104.737-122.691-198.135-266.926-168.673-424.341c13.858-74.064,32.498-147.258,72.114-212.182
				c76.189-124.854,203.914-203.331,309.046-300.667c86.352-79.954,193.433-165.323,309.514-194.333
				c141.376-35.33,298.358,86.363,374.456,197.049c51.37,74.726,86.171,157.906,96.813,247.664
				c7.336,61.854,5.699,132.435-7.641,193.479c-13.75,62.849-45.141,101.265-70.359,157.371
				c-54.242,120.717-96.479,255.989-74.113,390.28c13.808,82.917,37.69,156.345,85.691,226.673
				C2015.687,2424.847,1959.225,2765.354,1788.157,3007.759z"/>
			<path id="_x31_80608807_1_" fill="#CCCCCC" stroke="#000000" d="M339.029,1849.816c5.488,187.749,89.104,359.612,107.624,543.972
				c19.384,192.974,59.967,390.699,154.862,560.783c99.748,178.788,227.978,350.646,393.924,473.243
				c124.074,91.661,266.147,177.82,419.314,208.278c198.518,39.477,443.65-94.726,613.686-185.044
				c179.303-95.242,317.53-243.043,371.514-444.115c63.27-235.653,13.049-502.319,14.239-742.78
				c0.494-101.072-31.999-197.727-38.149-297.9c-5.317-86.758,2.645-173.029-6.725-260.234
				c-24.778-230.873-23.727-451.633-130.061-667.519c-20.264-41.142-43.108-82.014-68.607-121.44
				c64.9,125.68,63.042,269.099,91.86,407.706c31.909,153.445,33.231,296.919,2.642,451.463
				c-18.238,92.13,5.881,189.421,18.215,281.401c49.204,366.816,0.758,728.929-189.668,1051.286
				c-61.411,103.968-166.674,205.388-254.279,287.63c-108.88,102.215-253.558,167.706-404.749,154.657
				c-147.438-12.72-266.814-105.836-378.816-194.107c-148.548-117.067-173.384-308.578-186.535-484.648
				c-7.179-96.055-37.931-193.925-78.511-280.767c-73.666-157.649-189.97-289.738-288.492-431.454
				c-81.719-117.541-76.514-307.416-75.81-445.594c0.371-72.537,3.32-147.655,12.929-219.657
				c3.469-25.979,7.535-53.07,12.395-80.617c23.682-134.16,74.643-249.661,149.972-352.172
				c-13.747,17.507-27.209,35.688-40.368,54.631c-62.335,89.732-105.459,188.467-137.332,291.474
				c-13.76,44.481-25.428,89.762-35.637,135.459C365.984,1644.413,335.995,1745.862,339.029,1849.816z"/>
			<path id="_x31_80608808_1_" fill="#CCCCCC" stroke="#000000" d="M1365.105,1657.3c-20.355-51.531,1.275-70.8,42.61-93.891
				c10.937-6.112,20.396-13.739,30.533-19.212c62.936-33.978,103.869-78.041,80.685-168.742
				c-30.157-117.981-135.533-88.038-197.753-12.256c-39.703,48.354-80.04,125.918-84.361,189.375
				c-5.283,77.589,48.449,156.624,84.508,221.609c72.149,130.013,118.666,264.429,148.149,410.096
				c29.881,147.663,56.192,297.783,79.529,446.561c4.29,27.364,19.108,62.504,38.936,24.384
				c27.615-53.086,22.068-128.998,20.083-186.869c-2.357-68.898-11.737-138.104-32.156-204.095
				c-14.201-45.857-44.312-83.352-63.139-126.928c-17.452-40.416-25.954-84.867-39.581-126.639
				c-13.258-40.666-23.449-80.464-34.689-120.971C1416.75,1811.543,1394.955,1732.839,1365.105,1657.3z"/>
			<path id="_x31_80608806_1_" fill="#AAAAAA" stroke="#000000" d="M1365.105,1657.299c25.779,65.236,45.607,136.612,65.281,204.019
				c2.785,9.52,5.454,18.979,8.072,28.404c11.24,40.507,21.432,80.305,34.689,120.971c18.055,55.32,31.686,122.486,62.231,172.565
				c1.689-22.29-5.155-44.139-9.398-65.715c-13.952-70.895-28.604-142.256-40.722-213.287
				c-17.703-103.802-51.605-220.881-5.432-323.018c4.95-10.961,29.448-39.341,18.416-51.978
				c-16.375-18.701-77.145,26.671-90.528,34.146C1366.381,1586.5,1344.75,1605.768,1365.105,1657.299z"/>
		</g>
	</g>
</g>
</svg>
