<?xml version="1.0" encoding="utf-8"?>
<!-- Generator: Adobe Illustrator 16.0.0, SVG Export Plug-In . SVG Version: 6.00 Build 0)  -->
<!DOCTYPE svg PUBLIC "-//W3C//DTD SVG 1.1//EN" "http://www.w3.org/Graphics/SVG/1.1/DTD/svg11.dtd">
<svg version="1.1" id="Layer_1" xmlns="http://www.w3.org/2000/svg" xmlns:xlink="http://www.w3.org/1999/xlink" x="0px" y="0px"
	 width="4672px" height="4352px" viewBox="0 0 4672 4352" enable-background="new 0 0 4672 4352" xml:space="preserve">
<g>
	<g transform="scale(1.0)">
		<g id="_x31_80606973" transform=" scale(1.0, 1.0)">
			<path id="_x31_80606975" fill="#BFDAE3" stroke="#000000" d="M4418.719,1561.106c36.994,136.352,49.576,279.669,33.461,402.375
				c-20.668,157.59-71.887,309.964-110.063,464.55c-42.492,172.068-44.738,355.549-94.752,525.969
				c-78.674,268.104-321.223,424.638-537.133,578.789c-167.852,119.836-414.818,166.824-612.151,107.389
				c-154-46.391-301.346-87.68-436.299-179.469c-330.661-224.9-357.932-647.355-304.043-1007.216
				c24.109-160.985,26.562-321.489,49.328-482.474c23.139-163.646,60.158-327.281,104.645-486.178
				c36.957-131.986,67.83-263.665,130.344-386.356c58.904-115.599,137.025-265.386,253.988-331.515
				c159.506-90.186,359.577-91.167,536.255-68.406C3903.504,759.261,4294.23,1102.263,4418.719,1561.106z"/>
			<path id="_x31_80606976" fill="#B0FFB8" stroke="#000000" d="M4418.719,1561.106
				c-124.488-458.844-515.215-801.845-986.422-862.542c-176.678-22.761-376.747-21.779-536.253,68.406
				c-116.963,66.128-195.086,215.917-253.99,331.515c-62.512,122.69-93.385,254.37-130.342,386.356
				c-44.486,158.897-81.507,322.532-104.646,486.178c-22.767,160.985-25.218,321.49-49.327,482.475
				c-53.89,359.861-26.617,782.315,304.042,1007.216c134.953,91.787,282.301,133.078,436.299,179.469
				c197.335,59.436,444.3,12.447,612.153-107.391c215.908-154.15,458.459-310.684,537.131-578.787
				c50.014-170.42,52.26-353.902,94.754-525.97c38.174-154.586,89.395-306.96,110.061-464.548
				C4468.295,1840.775,4455.713,1697.46,4418.719,1561.106z M3465.52,1713.293c-17.518,71.397-65.873,133.108-102.732,195.417
				c-33.752,57.06-55.236,114.795-72.262,178.616c-4.326-17.834,3.254-36.355,9.482-52.994
				c12.273-32.67,20.111-65.045,24.453-99.899l-5.381,15.915c-1.354,4.146-2.742,8.271-4.182,12.366l4.182-12.366
				c21.471-65.819,32.623-137.557,50.516-204.392c9.551-35.701,3.217-160.541,65.748-155.321
				C3489.375,1595.142,3473.744,1679.791,3465.52,1713.293z"/>
			<path id="_x31_80606977" fill="#9AD2BD" stroke="#000000" d="M4418.719,1561.106
				c-124.488-458.844-515.215-801.845-986.422-862.542c-176.678-22.761-376.747-21.779-536.253,68.406
				c-116.963,66.128-195.086,215.917-253.99,331.515c-62.512,122.69-93.385,254.37-130.342,386.356
				c-44.486,158.897-81.507,322.532-104.646,486.178c-22.767,160.985-25.218,321.49-49.327,482.475
				c-53.89,359.861-26.617,782.315,304.042,1007.216c134.953,91.787,282.301,133.078,436.299,179.469
				c197.335,59.436,444.3,12.447,612.153-107.391c215.908-154.15,458.459-310.684,537.131-578.787
				c50.014-170.42,52.26-353.902,94.754-525.97c38.174-154.586,89.395-306.96,110.061-464.548
				C4468.295,1840.775,4455.713,1697.46,4418.719,1561.106z M3465.52,1713.293c-17.518,71.397-65.873,133.108-102.732,195.417
				c-33.752,57.06-55.236,114.795-72.262,178.616c-4.326-17.834,3.254-36.355,9.482-52.994
				c12.273-32.67,20.111-65.045,24.453-99.899l-5.381,15.915c21.471-65.819,32.623-137.557,50.516-204.392
				c9.551-35.701,3.217-160.541,65.748-155.321C3489.375,1595.142,3473.744,1679.791,3465.52,1713.293z"/>
			<path id="_x31_80606978" fill="#9AD2BD" stroke="#000000" d="M4418.719,1561.106
				c-124.488-458.844-515.215-801.845-986.422-862.542c-176.678-22.761-376.747-21.779-536.253,68.406
				c-116.963,66.128-195.086,215.917-253.99,331.515c-62.512,122.69-93.385,254.37-130.342,386.356
				c-44.486,158.897-81.507,322.532-104.646,486.178c-22.767,160.985-25.218,321.49-49.327,482.475
				c-53.89,359.861-26.617,782.315,304.042,1007.216c134.953,91.787,282.301,133.078,436.299,179.469
				c197.335,59.436,444.3,12.447,612.153-107.391c215.908-154.15,458.459-310.684,537.131-578.787
				c50.014-170.42,52.26-353.902,94.754-525.97c38.174-154.586,89.395-306.96,110.061-464.548
				C4468.295,1840.775,4455.713,1697.46,4418.719,1561.106z M3465.52,1713.293c-17.518,71.397-65.873,133.108-102.732,195.417
				c-33.752,57.06-55.236,114.795-72.262,178.616c-4.326-17.834,3.254-36.355,9.482-52.994
				c12.273-32.67,20.111-65.045,24.453-99.899l-5.381,15.915c-1.354,4.146-2.742,8.271-4.182,12.366l4.182-12.366
				c21.471-65.819,32.623-137.557,50.516-204.392c9.551-35.701,3.217-160.541,65.748-155.321
				C3489.375,1595.142,3473.744,1679.791,3465.52,1713.293z"/>
			<path id="_x31_80606979" fill="#82C7AE" stroke="#000000" d="M2896.044,766.971c-120.006,67.854-191.361,189.817-206.488,324.211
				c-10.334,91.886-44.895,175.177-65.084,263.665c-24.088,105.556-45.445,205.479-51.104,313.577
				c-4.631,88.303,1.379,175.462-1.75,263.646c-6.801,191.606-32.496,382.974-68.256,571.698
				c-26.633,140.607-3.359,284.723,40.813,419.421c50.965,155.432,138.207,278.53,259.584,387.054
				c55.088,49.261,114.803,93.031,171.355,140.061c54.375,45.223,119.535,77.291,190.745,82.26
				c102.215,7.125,209.465-22.672,301.592-65.223c172.117-79.504,213.229-228.043,278.92-392.272
				c56.707-141.771,128.063-267.625,206.654-398.127c63.777-105.903,125.748-207.601,197.49-308.228
				c72.879-102.241,145.324-205.964,198.283-320.255c28.303-61.081,39.529-141.524,52.986-207.333
				c13.156-64.292,22.139-129.732,21.596-195.475c-0.662-81.5-24.66-173.181-58.309-246.995
				c-113.029-247.971-299.178-457.532-543.902-580.632c-117.473-59.088-258.242-102.633-388.873-119.458
				C3255.621,675.804,3055.55,676.786,2896.044,766.971z M3655.623,2563.918c-11.887,24.319-21.141,49.812-26.623,76.559
				c-7.346,35.807,2.635,68.484,3.939,103.937c1.291,34.854-9.068,69.655-17.557,103.43
				c-19.754,78.626-60.955,149.091-95.926,221.518c-33.719,69.861-41.996,156.235-83.152,220.695
				c-39.594,62.018-93.293,115.774-170.793,119.542c-92.539,4.494-146.529-82.569-221.464-117.817
				c-83.813-39.418-164.912-103.451-220.639-177.497c-28.908-38.415-42.279-90.767-60.354-134.748
				c-27.375-66.604-91.092-130.646-90.811-205.088c0.342-88.963-11.008-178.795-15.17-268.398
				c-2.914-62.873-0.963-158.497,32.463-214.163c29.09-48.468,71.525-68.395,73.734-133.806c1.238-36.534-6.725-76.242,1.15-112.225
				c6.352-29.07,20.527-60.356,29.211-89.375c18.277-61.087,12.996-139.655,12.449-202.891
				c-0.506-58.095-22.299-110.779-20.26-168.926c2.178-62.113-21.373-122.619-17.781-185.343
				c3.938-68.649,35.305-115.254,52.107-178.396c19.439-73.068,45.201-133.369,81.748-197.95
				c44.23-78.17,28.98-204.696,137.584-234.176c68.518-18.601,140.228-7.139,209.771-12.263
				c114.936-8.472,235.535-1.392,345.342,35.596c80.152,26.998,157.672,64.19,227.295,112.399
				c58.131,40.25,118.373,109.613,159.826,166.551c27.607,37.915,27.838,82.004,45.475,123.335
				c17.803,41.701,62.508,56.42,92.482,87.066c31.336,32.047,51.268,84.661,68.27,125.736
				c27.916,67.445,36.764,141.75,36.104,214.278c-0.719,77.992-30.33,138.197-53.037,211.788c-5.389,17.47-5.07,38.331-10.195,55.86
				c-28.414,97.165-90.361,141.979-158.473,208.851c-52.779,51.821-66.627,118.839-114.648,170.867
				c-41.619,45.083-86.9,86.704-128.434,131.895C3719.904,2463.578,3681.508,2510.979,3655.623,2563.918z"/>
			<path id="_x31_80606983" fill="#82C7AE" stroke="#000000" d="M3570.16,2126.629c-69.258,60.819-134.051,176.916-156.229,277.864
				c-24.945,113.524-0.938,239.401-33.383,349.641c-24.906,84.604-1.414,120.328-16.617,206.805
				c-30.418,173.066-149.691,206.649-246.346,119.648c-149.007-134.107-247.7-370.472-199.077-594.188
				c23.396-107.613,87.607-205.926,125.576-309.132c23.352-63.435,40.035-125.929,56.316-193.076
				c28.257-116.502,38.276-234.673,7.092-344.413c-14.484-51.006-51.732-88.791-56.932-144.948
				c-24.248-262.295,137.61-578.528,400.093-513.794c94.895,23.407,163.66,92.304,230.232,170.897
				c40.094,47.341,90.877,102.874,123.355,157.774c62.752,106.074,136.404,207.967,142.262,345.808
				c6.049,142.225-83.598,214.289-168.096,306.415C3723.412,2021.888,3630.125,2073.974,3570.16,2126.629z M3324.469,1934.433
				c-4.348,34.855-12.184,67.226-24.453,99.903c-6.234,16.643-13.813,35.153-9.486,52.997
				c17.027-63.829,38.508-121.563,72.264-178.629c36.857-62.306,85.213-124.005,102.73-195.414
				c8.227-33.503,23.857-118.152-30.176-122.661c-62.533-5.215-56.195,119.624-65.742,155.32
				c-19.025,71.046-30.422,147.636-54.701,216.76"/>
			<path id="_x31_80606982" fill="#9AD2BD" stroke="#000000" d="M3101.267,3129.25c113.29,92.817,248.288,85.107,281.415-96.734
				c16.559-90.86-8.146-154.905,19.691-243.674c36.271-115.648,6.814-248.493,34.334-367.713
				c24.469-105.996,93.17-183.861,172.797-247.024c68.949-54.689,158.324-119.288,221.404-181.714
				c96.924-95.922,183.826-199.036,175.01-348.857c-8.549-145.203-76.057-251.191-150.246-363.663
				c-38.396-58.224-77.787-123.815-124.924-174.167c-78.266-83.594-158.961-157.006-269.402-182.842
				c-305.502-71.475-489.392,259.428-457.927,535.909c6.756,59.187,31.199,97.215,48.66,151.103
				c37.578,115.945,46.709,242.455,15.383,364.776c-18.053,70.481-36.641,136.068-62.938,202.565
				c-42.766,108.185-116.064,210.888-141.863,323.899C2809.046,2736.044,2926.606,2986.161,3101.267,3129.25z M2918.501,2486.402
				c23.395-107.614,87.605-205.93,125.58-309.133c23.355-63.439,40.039-125.932,56.314-193.074
				c28.261-116.502,38.276-234.676,7.092-344.415c-14.48-51.007-51.734-88.795-56.934-144.944
				c-24.246-262.307,137.61-578.532,400.097-513.795c94.895,23.4,163.664,92.299,230.232,170.893
				c40.098,47.339,90.881,102.868,123.354,157.776c62.758,106.07,136.41,207.965,142.266,345.811
				c6.051,142.223-83.596,214.292-168.1,306.416c-54.992,59.943-148.277,112.027-208.248,164.695
				c-69.258,60.818-134.047,176.912-156.23,277.864c-24.947,113.523-0.941,239.398-33.379,349.639
				c-24.906,84.606-1.42,120.326-16.623,206.801c-30.412,173.064-149.693,206.654-246.35,119.65
				C2968.571,2946.481,2869.882,2710.115,2918.501,2486.402z"/>
			<path id="_x31_80606981" fill="#82C7AE" stroke="#000000" d="M3609.51,2174.107c-79.627,63.163-148.33,141.026-172.799,247.021
				c-27.521,119.221,1.936,252.063-34.334,367.715c-27.838,88.769-3.135,152.81-19.689,243.67
				c-33.127,181.84-168.131,189.551-281.415,96.735c-174.656-143.085-292.217-393.207-238.604-628.133
				c25.797-113.011,99.098-215.717,141.863-323.9c26.299-66.492,44.883-132.078,62.934-202.567
				c31.322-122.313,22.195-248.828-15.379-364.77c-17.463-53.886-41.91-91.916-48.66-151.105
				c-31.463-276.476,152.425-607.387,457.923-535.909c110.447,25.84,191.135,99.251,269.398,182.845
				c47.141,50.352,86.529,115.947,124.924,174.162c74.189,112.476,141.699,218.462,150.244,363.67
				c8.82,149.819-78.08,252.926-175.008,348.854C3767.828,2054.819,3678.457,2119.418,3609.51,2174.107z M3866.66,1995.306
				c105.791-96.797,200.469-200.999,189.32-353.716c-10.805-148.021-86.158-256.651-168.916-371.952
				c-42.834-59.68-68.555-124.772-120.941-176.527c-86.967-85.92-192.799-176.485-315.627-199.411
				c-311.549-58.15-537.249,268.025-499.946,549.998c7.992,60.371,35.273,99.351,55.02,154.417
				c42.484,118.481,72.006,249.567,38.699,373.88c-19.193,71.633-57.273,136.168-85.586,203.655
				c-46.053,109.806-98.369,216.906-125.676,331.78c-56.77,238.826,47.678,491.614,241.332,639.066
				c125.608,95.651,289.497,116.499,324.222-68.437c17.346-92.41,3.389-190.312,33.184-280.486
				c38.816-117.47,3.307-244.904,32.457-366.103c25.918-107.759,100.805-186.423,187.859-250
				C3727.438,2126.42,3797.816,2058.304,3866.66,1995.306z"/>
			<path id="_x31_80606980" fill="#9AD2BD" stroke="#000000" d="M2689.522,2291.89c-33.422,55.664-35.377,151.285-32.459,214.162
				c4.164,89.609,15.51,179.436,15.17,268.398c-0.279,74.444,63.438,138.483,90.816,205.085
				c18.07,43.985,31.439,96.336,60.354,134.753c55.725,74.047,136.82,138.075,220.637,177.493
				c74.933,35.252,128.923,122.317,221.466,117.822c77.506-3.768,131.199-57.525,170.797-119.547
				c41.152-64.458,49.432-150.829,83.152-220.693c34.967-72.424,76.168-142.893,95.924-221.521
				c8.484-33.767,18.848-68.567,17.557-103.427c-1.305-35.452-11.285-68.123-3.938-103.935c5.48-26.741,14.736-52.244,26.619-76.561
				c25.887-52.937,64.285-100.338,103.633-143.16c41.535-45.193,86.813-86.813,128.439-131.899
				c48.021-52.021,61.867-119.037,114.648-170.863c68.105-66.868,130.053-111.682,158.473-208.849
				c5.125-17.535,4.805-38.396,10.191-55.866c22.709-73.583,52.326-133.795,53.041-211.78
				c0.656-72.527-8.189-146.835-36.105-214.284c-16.998-41.071-36.934-93.688-68.266-125.735
				c-29.975-30.653-74.682-45.366-92.482-87.068c-17.643-41.328-17.867-85.42-45.48-123.33
				c-41.449-56.945-101.695-126.307-159.828-166.555c-69.619-48.204-147.143-85.401-227.289-112.401
				c-109.814-36.98-230.406-44.072-345.346-35.599c-69.543,5.13-141.259-6.334-209.772,12.268
				c-108.607,29.477-93.355,156.006-137.584,234.184c-36.549,64.573-62.309,124.871-81.752,197.944
				c-16.797,63.145-48.172,109.739-52.107,178.401c-3.592,62.722,19.965,123.228,17.785,185.337
				c-2.045,58.149,19.75,110.834,20.258,168.931c0.543,63.228,5.828,141.805-12.447,202.888
				c-8.688,29.021-22.859,60.304-29.217,89.376c-7.875,35.986,0.092,75.685-1.148,112.221
				C2761.052,2223.495,2718.614,2243.42,2689.522,2291.89z M2832.997,2507.437c27.311-114.88,79.623-221.98,125.674-331.786
				c28.316-67.486,66.396-132.023,85.588-203.66c33.311-124.311,3.787-255.397-38.693-373.879
				c-19.752-55.062-47.031-94.04-55.018-154.414c-37.313-281.965,188.396-608.146,499.948-550.001
				c122.822,22.922,228.652,113.491,315.627,199.42c52.383,51.754,78.105,116.846,120.936,176.529
				c82.76,115.296,158.115,223.923,168.924,371.942c11.146,152.723-83.535,256.924-189.322,353.717
				c-68.846,63.002-139.227,131.12-214.604,186.169c-87.053,63.58-161.941,142.245-187.855,250
				c-29.156,121.2,6.355,248.629-32.461,366.109c-29.799,90.166-15.838,188.073-33.182,280.48
				c-34.727,184.931-198.617,164.085-324.224,68.438C2880.673,2999.043,2776.228,2746.255,2832.997,2507.437z"/>
			<path id="_x31_80606985" fill="#CCCCCC" stroke="#000000" d="M4418.719,1561.109c-3.725-13.731-7.697-27.354-11.893-40.875
				c10.148,42.029,16.229,84.976,16.559,125.42c0.543,65.744-8.438,131.185-21.596,195.467
				c-13.461,65.814-24.686,146.259-52.994,207.343c-52.951,114.287-125.396,218.01-198.277,320.25
				c-71.744,100.628-133.715,202.327-197.494,308.228c-78.59,130.504-149.949,256.355-206.656,398.125
				c-65.693,164.23-106.799,312.773-278.916,392.273c-92.127,42.546-199.383,72.356-301.594,65.229
				c-71.216-4.967-136.372-37.047-190.747-82.265c-56.559-47.024-116.27-90.799-171.359-140.064
				c-121.381-108.521-208.617-231.625-259.582-387.053c-44.172-134.701-67.445-278.813-40.814-419.416
				c35.764-188.733,61.453-380.097,68.258-571.701c3.127-88.19-2.887-175.346,1.75-263.649
				c5.654-108.096,27.014-208.019,51.102-313.574c20.191-88.487,54.746-171.781,65.088-263.667
				c7.17-63.711,26.986-124.623,58.621-178.307c-41.92,60.508-76.463,127.396-106.127,185.616
				c-62.506,122.689-93.385,254.367-130.34,386.348c-44.494,158.907-81.508,322.532-104.648,486.179
				c-22.769,160.983-25.219,321.489-49.327,482.474c-53.894,359.863-26.618,782.322,304.04,1007.215
				c134.959,91.788,282.309,133.083,436.301,179.476c197.337,59.434,444.302,12.449,612.157-107.393
				c215.91-154.15,458.463-310.687,537.135-578.787c50.018-170.422,52.262-353.908,94.752-525.975
				c38.18-154.588,89.4-306.961,110.068-464.542C4468.297,1840.771,4455.713,1697.462,4418.719,1561.109z"/>
			<path id="_x31_80606984" fill="#AAAAAA" stroke="#000000" d="M3324.461,1934.433c-4.342,34.854-12.18,67.229-24.453,99.898
				c-6.23,16.639-13.809,35.16-9.482,52.995c17.025-63.821,38.51-121.557,72.262-178.616
				c36.859-62.31,85.217-124.019,102.732-195.417c8.227-33.504,23.855-118.152-30.176-122.658
				c-62.531-5.22-56.195,119.619-65.746,155.32c-19.021,71.045-30.422,147.631-54.699,216.759"/>
		</g>
	</g>
	<g transform="scale(1.0)">
		<g id="_x31_80606973_1_" transform=" scale(1.0, 1.0)">
			<path id="_x31_80606975_1_" fill="#BFDAE3" stroke="#000000" d="M1239.701,698.564c176.678-22.761,376.749-21.779,536.256,68.406
				c116.962,66.129,195.084,215.916,253.988,331.515c62.513,122.691,93.386,254.37,130.343,386.356
				c44.486,158.897,81.506,322.532,104.645,486.178c22.767,160.985,25.219,321.489,49.328,482.474
				c53.889,359.86,26.619,782.315-304.042,1007.216c-134.953,91.789-282.3,133.078-436.299,179.469
				c-197.334,59.436-444.301,12.447-612.152-107.389C745.856,3378.638,503.307,3222.104,424.634,2954
				c-50.014-170.42-52.26-353.9-94.752-525.969c-38.176-154.586-89.396-306.96-110.063-464.55
				c-16.114-122.706-3.532-266.023,33.462-402.375C377.769,1102.263,768.496,759.261,1239.701,698.564z"/>
			<path id="_x31_80606976_1_" fill="#B0FFB8" stroke="#000000" d="M219.821,1963.484
				c20.666,157.588,71.887,309.962,110.062,464.548c42.494,172.067,44.74,355.55,94.753,525.97
				c78.673,268.104,321.224,424.637,537.132,578.787c167.853,119.838,414.818,166.826,612.153,107.391
				c153.999-46.391,301.346-87.682,436.3-179.469c330.659-224.9,357.931-647.354,304.041-1007.216
				c-24.109-160.985-26.561-321.49-49.327-482.475c-23.139-163.646-60.159-327.281-104.646-486.178
				c-36.957-131.986-67.83-263.666-130.342-386.356c-58.905-115.597-137.027-265.387-253.99-331.515
				c-159.507-90.186-359.576-91.167-536.254-68.406c-471.207,60.696-861.934,403.697-986.422,862.542
				C216.287,1697.46,203.705,1840.775,219.821,1963.484z M1236.656,1590.635c62.531-5.22,56.197,119.621,65.747,155.321
				c17.894,66.834,29.046,138.572,50.516,204.392l4.183,12.366c-1.439-4.096-2.828-8.221-4.183-12.366l-5.38-15.915
				c4.342,34.854,12.18,67.229,24.452,99.899c6.229,16.639,13.809,35.16,9.482,52.994c-17.025-63.821-38.51-121.557-72.261-178.616
				c-36.86-62.309-85.216-124.02-102.733-195.417C1198.254,1679.791,1182.624,1595.142,1236.656,1590.635z"/>
			<path id="_x31_80606977_1_" fill="#9AD2BD" stroke="#000000" d="M219.821,1963.484
				c20.666,157.588,71.887,309.962,110.062,464.548c42.494,172.067,44.74,355.55,94.753,525.97
				c78.673,268.104,321.224,424.637,537.132,578.787c167.853,119.838,414.818,166.826,612.153,107.391
				c153.999-46.391,301.346-87.682,436.3-179.469c330.659-224.9,357.931-647.354,304.041-1007.216
				c-24.109-160.985-26.561-321.49-49.327-482.475c-23.139-163.646-60.159-327.281-104.646-486.178
				c-36.957-131.986-67.83-263.666-130.342-386.356c-58.905-115.597-137.027-265.387-253.99-331.515
				c-159.507-90.186-359.576-91.167-536.254-68.406c-471.207,60.696-861.934,403.697-986.422,862.542
				C216.287,1697.46,203.705,1840.775,219.821,1963.484z M1236.656,1590.635c62.531-5.22,56.197,119.621,65.747,155.321
				c17.894,66.834,29.046,138.572,50.516,204.392l-5.38-15.915c4.342,34.854,12.18,67.229,24.452,99.899
				c6.229,16.639,13.809,35.16,9.482,52.994c-17.025-63.821-38.51-121.557-72.261-178.616
				c-36.86-62.309-85.216-124.02-102.733-195.417C1198.254,1679.791,1182.624,1595.142,1236.656,1590.635z"/>
			<path id="_x31_80606978_1_" fill="#9AD2BD" stroke="#000000" d="M219.821,1963.484
				c20.666,157.588,71.887,309.962,110.062,464.548c42.494,172.067,44.74,355.55,94.753,525.97
				c78.673,268.104,321.224,424.637,537.132,578.787c167.853,119.838,414.818,166.826,612.153,107.391
				c153.999-46.391,301.346-87.682,436.3-179.469c330.659-224.9,357.931-647.354,304.041-1007.216
				c-24.109-160.985-26.561-321.49-49.327-482.475c-23.139-163.646-60.159-327.281-104.646-486.178
				c-36.957-131.986-67.83-263.666-130.342-386.356c-58.905-115.597-137.027-265.387-253.99-331.515
				c-159.507-90.186-359.576-91.167-536.254-68.406c-471.207,60.696-861.934,403.697-986.422,862.542
				C216.287,1697.46,203.705,1840.775,219.821,1963.484z M1236.656,1590.635c62.531-5.22,56.197,119.621,65.747,155.321
				c17.894,66.834,29.046,138.572,50.516,204.392l4.183,12.366c-1.439-4.096-2.828-8.221-4.183-12.366l-5.38-15.915
				c4.342,34.854,12.18,67.229,24.452,99.899c6.229,16.639,13.809,35.16,9.482,52.994c-17.025-63.821-38.51-121.557-72.261-178.616
				c-36.86-62.309-85.216-124.02-102.733-195.417C1198.254,1679.791,1182.624,1595.142,1236.656,1590.635z"/>
			<path id="_x31_80606979_1_" fill="#82C7AE" stroke="#000000" d="M1239.703,698.563c-130.631,16.826-271.4,60.37-388.873,119.458
				c-244.726,123.101-430.873,332.662-543.902,580.632c-33.648,73.814-57.646,165.496-58.31,246.995
				c-0.543,65.743,8.44,131.184,21.596,195.475c13.458,65.809,24.685,146.252,52.987,207.333
				c52.959,114.291,125.403,218.014,198.283,320.255c71.742,100.627,133.713,202.324,197.49,308.228
				c78.592,130.502,149.947,256.355,206.654,398.127c65.69,164.229,106.803,312.769,278.919,392.272
				c92.127,42.551,199.378,72.348,301.592,65.223c71.211-4.969,136.371-37.037,190.746-82.26
				c56.553-47.029,116.268-90.8,171.356-140.061c121.377-108.523,208.618-231.622,259.583-387.054
				c44.172-134.698,67.445-278.813,40.813-419.421c-35.761-188.724-61.456-380.091-68.257-571.698
				c-3.129-88.185,2.882-175.343-1.749-263.646c-5.659-108.098-27.017-208.021-51.104-313.577
				c-20.188-88.488-54.749-171.778-65.084-263.665c-15.126-134.394-86.481-256.356-206.487-324.211
				C1616.45,676.786,1416.378,675.804,1239.703,698.563z M912.741,2420.757c-41.532-45.19-86.813-86.812-128.433-131.895
				c-48.022-52.027-61.869-119.045-114.648-170.867c-68.112-66.872-130.059-111.686-158.474-208.851
				c-5.125-17.529-4.807-38.39-10.194-55.86c-22.707-73.591-52.319-133.796-53.038-211.788
				c-0.659-72.528,8.188-146.833,36.104-214.278c17.002-41.075,36.934-93.689,68.27-125.736
				c29.975-30.646,74.681-45.365,92.482-87.066c17.637-41.331,17.867-85.42,45.476-123.335
				c41.453-56.938,101.695-126.301,159.826-166.551c69.622-48.208,147.142-85.401,227.294-112.399
				c109.807-36.988,230.406-44.068,345.343-35.596c69.542,5.125,141.254-6.338,209.771,12.263
				c108.603,29.48,93.354,156.006,137.584,234.176c36.547,64.582,62.309,124.882,81.747,197.95
				c16.803,63.142,48.171,109.747,52.107,178.396c3.593,62.724-19.959,123.23-17.78,185.343
				c2.038,58.146-19.754,110.831-20.261,168.926c-0.547,63.236-5.827,141.804,12.449,202.891
				c8.685,29.019,22.86,60.305,29.212,89.375c7.874,35.982-0.089,75.69,1.15,112.225c2.208,65.412,44.644,85.338,73.734,133.806
				c33.426,55.666,35.377,151.29,32.463,214.163c-4.162,89.604-15.513,179.436-15.171,268.398
				c0.282,74.441-63.436,138.483-90.811,205.088c-18.074,43.981-31.444,96.333-60.354,134.748
				c-55.727,74.046-136.826,138.079-220.639,177.497c-74.936,35.248-128.926,122.312-221.464,117.817
				c-77.5-3.768-131.199-57.524-170.793-119.542c-41.156-64.46-49.435-150.834-83.153-220.695
				c-34.97-72.427-76.172-142.892-95.925-221.518c-8.488-33.774-18.848-68.575-17.558-103.43
				c1.306-35.452,11.286-68.13,3.939-103.937c-5.482-26.747-14.735-52.239-26.622-76.559
				C990.491,2510.979,952.095,2463.578,912.741,2420.757z"/>
			<path id="_x31_80606983_1_" fill="#82C7AE" stroke="#000000" d="M893.591,1961.932
				c-84.499-92.126-174.145-164.19-168.096-306.415c5.857-137.84,79.509-239.733,142.261-345.808
				c32.479-54.901,83.263-110.434,123.356-157.774c66.571-78.593,135.337-147.491,230.231-170.897
				c262.482-64.734,424.342,251.499,400.095,513.794c-5.2,56.157-42.447,93.942-56.933,144.948
				c-31.185,109.74-21.165,227.91,7.092,344.413c16.281,67.146,32.966,129.641,56.316,193.076
				c37.969,103.206,102.181,201.519,125.576,309.132c48.624,223.716-50.069,460.08-199.077,594.188
				c-96.654,87.001-215.928,53.418-246.346-119.648c-15.203-86.477,8.288-122.2-16.617-206.805
				c-32.445-110.239-8.438-236.116-33.383-349.641c-22.179-100.948-86.971-217.045-156.229-277.864
				C1041.875,2073.974,948.587,2021.888,893.591,1961.932z M1357.094,1962.71c-24.279-69.125-35.675-145.714-54.701-216.76
				c-9.546-35.696-3.209-160.535-65.742-155.32c-54.032,4.508-38.402,89.157-30.176,122.661
				c17.519,71.409,65.873,133.107,102.73,195.414c33.756,57.066,55.237,114.8,72.265,178.629
				c4.326-17.844-3.253-36.354-9.487-52.997c-12.27-32.678-20.104-65.048-24.452-99.903"/>
			<path id="_x31_80606982_1_" fill="#9AD2BD" stroke="#000000" d="M1809.338,2501.114
				c-25.799-113.012-99.097-215.715-141.863-323.899c-26.296-66.497-44.884-132.083-62.937-202.565
				c-31.326-122.321-22.196-248.831,15.383-364.776c17.46-53.888,41.904-91.917,48.66-151.103
				c31.465-276.481-152.426-607.384-457.929-535.909c-110.441,25.835-191.136,99.248-269.402,182.842
				c-47.136,50.352-86.526,115.943-124.923,174.167c-74.189,112.472-141.698,218.46-150.247,363.663
				c-8.816,149.821,78.086,252.936,175.01,348.857c63.08,62.426,152.456,127.024,221.405,181.714
				c79.627,63.163,148.327,141.028,172.796,247.024c27.52,119.22-1.937,252.064,34.334,367.713
				c27.838,88.769,3.133,152.813,19.692,243.674c33.126,181.842,168.125,189.552,281.415,96.734
				C1745.393,2986.161,1862.954,2736.044,1809.338,2501.114z M1554.427,3080.586c-96.657,87.004-215.938,53.414-246.351-119.65
				c-15.203-86.475,8.284-122.194-16.622-206.801c-32.438-110.24-8.433-236.115-33.38-349.639
				c-22.184-100.952-86.972-217.046-156.229-277.864c-59.971-52.668-153.256-104.752-208.248-164.695
				c-84.505-92.125-174.15-164.193-168.101-306.416c5.856-137.845,79.509-239.74,142.266-345.811
				c32.474-54.908,83.257-110.437,123.354-157.776c66.567-78.594,135.337-147.493,230.232-170.893
				c262.485-64.737,424.344,251.488,400.098,513.795c-5.199,56.149-42.454,93.937-56.934,144.944
				c-31.187,109.739-21.17,227.913,7.091,344.415c16.276,67.142,32.96,129.635,56.315,193.074
				c37.974,103.203,102.186,201.519,125.58,309.133C1802.118,2710.115,1703.428,2946.481,1554.427,3080.586z"/>
			<path id="_x31_80606981_1_" fill="#82C7AE" stroke="#000000" d="M841.091,1992.394
				c-96.929-95.928-183.828-199.034-175.009-348.854c8.545-145.208,76.056-251.194,150.245-363.67
				c38.395-58.215,77.783-123.811,124.924-174.162c78.264-83.594,158.951-157.005,269.397-182.845
				c305.498-71.478,489.388,259.433,457.924,535.909c-6.75,59.189-31.197,97.219-48.66,151.105
				c-37.574,115.942-46.701,242.457-15.378,364.77c18.051,70.489,36.635,136.075,62.933,202.567
				c42.766,108.184,116.067,210.89,141.864,323.9c53.613,234.926-63.948,485.048-238.604,628.133
				c-113.285,92.815-248.289,85.104-281.416-96.735c-16.554-90.86,8.149-154.901-19.689-243.67
				c-36.27-115.652-6.812-248.494-34.334-367.715c-24.468-105.995-93.171-183.858-172.798-247.021
				C993.542,2119.418,904.17,2054.819,841.091,1992.394z M1019.939,2181.471c87.055,63.577,161.94,142.241,187.859,250
				c29.15,121.198-6.359,248.633,32.457,366.103c29.795,90.175,15.837,188.076,33.184,280.486
				c34.724,184.936,198.613,164.088,324.223,68.437c193.654-147.452,298.102-400.24,241.331-639.066
				c-27.307-114.874-79.622-221.974-125.675-331.78c-28.313-67.487-66.394-132.022-85.586-203.655
				c-33.307-124.313-3.786-255.399,38.699-373.88c19.746-55.067,47.026-94.047,55.019-154.417
				c37.304-281.972-188.397-608.147-499.946-549.998c-122.828,22.926-228.661,113.491-315.627,199.411
				c-52.388,51.755-78.108,116.848-120.941,176.527c-82.758,115.301-158.111,223.93-168.917,371.952
				c-11.148,152.717,83.53,256.919,189.32,353.716C874.183,2058.304,944.562,2126.42,1019.939,2181.471z"/>
			<path id="_x31_80606980_1_" fill="#9AD2BD" stroke="#000000" d="M1908.74,2158.082c-1.24-36.536,6.726-76.234-1.149-112.221
				c-6.356-29.072-20.529-60.355-29.216-89.376c-18.275-61.083-12.991-139.66-12.447-202.888
				c0.508-58.097,22.302-110.782,20.258-168.931c-2.18-62.109,21.376-122.615,17.784-185.337
				c-3.935-68.662-35.311-115.256-52.106-178.401c-19.443-73.073-45.203-133.371-81.752-197.944
				c-44.229-78.178-28.978-204.708-137.585-234.184c-68.513-18.602-140.23-7.138-209.772-12.268
				c-114.939-8.474-235.532-1.382-345.346,35.599c-80.147,27-157.67,64.198-227.289,112.401
				c-58.133,40.248-118.379,109.61-159.828,166.555c-27.614,37.91-27.838,82.002-45.481,123.33
				c-17.801,41.702-62.508,56.415-92.481,87.068c-31.333,32.047-51.268,84.664-68.266,125.735
				c-27.917,67.449-36.762,141.756-36.106,214.284c0.716,77.985,30.333,138.196,53.041,211.78
				c5.388,17.47,5.067,38.331,10.191,55.866c28.421,97.167,90.367,141.98,158.474,208.849
				c52.781,51.826,66.626,118.842,114.648,170.863c41.626,45.086,86.903,86.706,128.439,131.899
				c39.348,42.822,77.745,90.224,103.633,143.16c11.883,24.316,21.139,49.819,26.618,76.561
				c7.349,35.812-2.633,68.482-3.938,103.935c-1.29,34.859,9.073,69.66,17.558,103.427c19.756,78.629,60.956,149.098,95.923,221.521
				c33.722,69.864,42,156.235,83.153,220.693c39.598,62.021,93.291,115.779,170.797,119.547
				c92.543,4.495,146.532-82.57,221.467-117.822c83.815-39.418,164.911-103.446,220.637-177.493
				c28.914-38.417,42.283-90.768,60.354-134.753c27.379-66.602,91.095-130.641,90.815-205.085
				c-0.339-88.963,11.007-178.789,15.171-268.398c2.918-62.877,0.962-158.498-32.46-214.162
				C1953.386,2243.42,1910.948,2223.495,1908.74,2158.082z M1597.666,3146.5c-125.607,95.647-289.499,116.493-324.225-68.438
				c-17.344-92.407-3.384-190.314-33.183-280.48c-38.815-117.48-3.305-244.909-32.46-366.109
				c-25.914-107.755-100.803-186.42-187.855-250c-75.377-55.049-145.758-123.167-214.604-186.169
				c-105.786-96.793-200.469-200.994-189.321-353.717c10.808-148.019,86.163-256.646,168.923-371.942
				c42.83-59.683,68.553-124.775,120.936-176.529c86.975-85.929,192.806-176.498,315.627-199.42
				c311.554-58.145,537.262,268.037,499.95,550.001c-7.987,60.375-35.266,99.353-55.018,154.414
				c-42.48,118.482-72.004,249.569-38.693,373.879c19.191,71.637,57.271,136.174,85.588,203.66
				c46.051,109.805,98.362,216.906,125.674,331.786C1895.772,2746.255,1791.328,2999.043,1597.666,3146.5z"/>
			<path id="_x31_80606985_1_" fill="#CCCCCC" stroke="#000000" d="M219.816,1963.485
				c20.667,157.581,71.889,309.955,110.068,464.542c42.489,172.066,44.734,355.553,94.752,525.975
				c78.671,268.101,321.225,424.637,537.135,578.787c167.854,119.842,414.82,166.826,612.158,107.393
				c153.992-46.393,301.342-87.688,436.301-179.476c330.658-224.893,357.933-647.352,304.039-1007.215
				c-24.108-160.985-26.558-321.491-49.327-482.474c-23.14-163.647-60.153-327.272-104.648-486.179
				c-36.954-131.981-67.833-263.659-130.339-386.348c-29.664-58.22-64.208-125.108-106.128-185.616
				c31.636,53.684,51.452,114.596,58.621,178.307c10.342,91.886,44.897,175.18,65.088,263.667
				c24.089,105.556,45.447,205.479,51.102,313.574c4.637,88.303-1.377,175.458,1.751,263.649
				c6.805,191.604,32.494,382.967,68.258,571.701c26.631,140.603,3.357,284.715-40.814,419.416
				c-50.965,155.428-138.202,278.531-259.582,387.053c-55.09,49.266-114.802,93.04-171.36,140.064
				c-54.375,45.218-119.531,77.298-190.747,82.265c-102.212,7.127-209.467-22.684-301.595-65.229
				c-172.117-79.5-213.223-228.043-278.915-392.273c-56.707-141.77-128.066-267.621-206.657-398.125
				c-63.779-105.9-125.75-207.6-197.494-308.228c-72.881-102.24-145.325-205.963-198.276-320.25
				c-28.309-61.084-39.533-141.528-52.994-207.343c-13.159-64.282-22.139-129.723-21.596-195.467
				c0.329-40.444,6.41-83.391,16.559-125.42c-4.196,13.521-8.168,27.144-11.893,40.875
				C216.287,1697.462,203.703,1840.771,219.816,1963.485z"/>
			<path id="_x31_80606984_1_" fill="#AAAAAA" stroke="#000000" d="M1357.1,1962.714c-24.277-69.128-35.678-145.714-54.698-216.759
				c-9.551-35.701-3.215-160.54-65.746-155.32c-54.032,4.506-38.402,89.154-30.177,122.658
				c17.517,71.398,65.873,133.107,102.733,195.417c33.751,57.06,55.235,114.795,72.261,178.616
				c4.326-17.835-3.252-36.356-9.482-52.995c-12.272-32.669-20.11-65.044-24.452-99.898"/>
		</g>
	</g>
</g>
</svg>
