<?xml version="1.0" encoding="utf-8"?>
<!-- Generator: Adobe Illustrator 16.0.0, SVG Export Plug-In . SVG Version: 6.00 Build 0)  -->
<!DOCTYPE svg PUBLIC "-//W3C//DTD SVG 1.1//EN" "http://www.w3.org/Graphics/SVG/1.1/DTD/svg11.dtd">
<svg version="1.1" id="Layer_1" xmlns="http://www.w3.org/2000/svg" xmlns:xlink="http://www.w3.org/1999/xlink" x="0px" y="0px"
	 width="6976px" height="5696px" viewBox="0 0 6976 5696" enable-background="new 0 0 6976 5696" xml:space="preserve">
<g>
	<g transform="scale(1.0)">
		<g id="_x31_80610378" transform=" scale(1.0, 1.0)">
			<path id="_x31_80610380" fill="#BFDAE3" stroke="#000000" d="M3485.092,2763.528c-2.187,64.755,35.23,156.184,60.438,215.977
				c28.672,68.01,75.082,114.771,138.609,150.531c-38.753,47.684-33.03,82.38-40.242,139.164
				c-17.196,135.628-54.715,270.517-57.627,407.968c-1.79,84.325-5.133,173.695-5.857,264.856
				c-2.372,300.752,23.716,621.028,227.897,843.914c83.333,90.959,188.204,133.98,304.361,163.844
				c61.236,15.746,125.516,22.463,188.659,21.118c125.183-2.672,226.921-46.638,342.254-86.956
				c104.642-36.556,202.181-63.241,291.588-134.284c144.892-115.109,265.171-276.879,365.597-430.243
				c101.291-154.652,213.715-329.556,265.996-508.211c24.045-82.219,64.414-293.317-29.027-349.146
				c67.305,40.136,247.171-122.983,282.85-168.674c48.039-61.522,82.008-130.854,129.092-192.893
				c48.86-64.384,91.275-133.977,127.956-205.943c124.836-244.822,169.821-561.509,123.852-831.741
				c-28.562-167.932-88.654-332.47-170.076-482.185c-57.463-105.673-129.69-217.614-221.729-294.932
				c-59.776-50.201-121.624-97.694-181.581-147.769c-318.529-266.071-728.611-346.633-1127.717-394.258
				c-222.634-26.564-465.569-48.12-651.027,105.527c-106.64,88.344-210.426,210.077-277.647,330.998
				c-101.578,182.713-79.014,378.875-80.203,602.597L3485.092,2763.528z"/>
			<path id="_x31_80610381" fill="#B0FFB8" stroke="#000000" d="M6201.491,2062.84c-28.567-167.935-88.671-332.483-170.078-482.196
				c-57.464-105.677-129.696-217.617-221.735-294.935c-59.772-50.198-121.612-97.692-181.569-147.775
				c-318.529-266.068-728.604-346.629-1127.693-394.253c-222.626-26.57-465.563-48.122-651.02,105.525
				c-106.63,88.347-210.42,210.084-277.646,331c-101.575,182.717-78.996,378.888-80.192,602.611l-6.418,980.741
				c-2.176,64.759,35.232,156.194,60.441,215.986c28.67,68.011,75.077,114.772,138.592,150.528
				c-38.741,47.685-33.019,82.384-40.229,139.169c-17.199,135.636-54.716,270.52-57.635,407.972
				c-1.789,84.328-5.124,173.697-5.848,264.859c-2.382,300.761,23.715,621.036,227.895,843.926
				c83.319,90.969,188.194,133.984,304.346,163.854c61.251,15.749,125.526,22.455,188.664,21.112
				c125.168-2.665,226.908-46.64,342.246-86.95c104.634-36.562,202.175-63.254,291.579-134.291
				c144.898-115.116,265.162-276.89,365.589-430.248c101.294-154.653,213.717-329.56,265.985-508.215
				c24.053-82.221,64.424-293.328-29.025-349.161c67.314,40.151,247.166-122.974,282.851-168.674
				c48.036-61.519,82.003-130.846,129.081-192.886c48.864-64.385,91.273-133.983,127.965-205.946
				C6202.46,2649.771,6247.448,2333.078,6201.491,2062.84z M4410.489,3791.836c-57.487,88.354-149.553-0.944-112.753-93.134
				c24.746-61.943,122.129-97.844,144.817-11.845C4450.74,3717.83,4427.566,3765.598,4410.489,3791.836z"/>
			<path id="_x31_80610410" fill="#1F9D5A" stroke="#000000" d="M6201.454,2062.851c45.964,270.212,1.029,586.929-123.813,831.708
				c-31.903,62.643-68.187,123.436-109.26,180.644l-0.576-0.418l-157.962-135.657c46.271-84.606,100.145-165.031,139.311-253.818
				c121.109-274.797,122.61-573.595,35.24-848.669l150.282-25.967C6164.238,1892.867,6186.908,1977.425,6201.454,2062.851z"/>
			<path id="_x31_80610409" fill="#1F9D5A" stroke="#000000" d="M5984.397,1836.642c87.368,275.074,85.867,573.872-35.242,848.669
				c-39.164,88.785-93.037,169.212-139.309,253.818l-273.272-234.711c41.648-40.879,61.857-85.768,76.803-154.299
				c27.6-126.551,11.539-316.726-20.921-445.42c-13.634-54.099-37.629-122.671-67.276-188.705L5984.397,1836.642z"/>
			<path id="_x31_80610408" fill="#1F9D5A" stroke="#000000" d="M5592.452,2104.697c32.462,128.694,48.522,318.869,20.923,445.42
				c-14.947,68.532-35.152,113.42-76.803,154.298l-631.011-541.877c104.761,42.318,208.455,97.973,290.973,147.134
				c67.982,40.467,74.17-48.827,60.589-128.034c-13.26-77.629-48.285-144.688-95.954-202.697l364.011-62.951
				C5554.823,1982.025,5578.82,2050.599,5592.452,2104.697z"/>
			<path id="_x31_80610407" fill="#1F9D5A" stroke="#000000" d="M5257.121,2181.64c13.583,79.208,7.394,168.5-60.587,128.034
				c-82.518-49.161-186.212-104.816-290.975-147.134l-135.192-116.064l390.8-67.533
				C5208.836,2036.953,5243.861,2104.009,5257.121,2181.64z"/>
			<path id="_x31_80610414" fill="#1F9D5A" stroke="#000000" d="M6134.679,1810.674l-150.281,25.967
				c-40.424-127.161-99.768-249.285-175.072-361.634c-60.919-90.81-131.808-176.37-223.461-237.596
				c-96.439-64.316-202.979-83.112-308.49-124.522c-114.44-44.856-228.408-85.401-341.253-134.89
				c-220.972-96.797-466.152-129.089-705.942-99.536c-133.494,16.444-279.354,68.291-389.282,156.619l-63.011-118.082l-1.565-1.582
				c23.905-23.573,48.385-45.817,73.103-66.235c185.429-153.643,428.344-132.05,651.018-105.515
				c399.054,47.611,809.117,128.172,1127.714,394.28c59.892,50.035,121.785,97.515,181.511,147.716
				c92.063,77.385,164.306,189.302,221.746,295.007C6071.375,1654.141,6106.264,1731.305,6134.679,1810.674z"/>
			<path id="_x31_80610413" fill="#1F9D5A" stroke="#000000" d="M5984.397,1836.642l-459.221,79.352
				c-31.121-69.605-68.548-136.427-106.842-180.962c-124.518-144.841-286.522-252.098-458.063-342.17
				c-204.427-107.314-458.403-277.954-676.038-254.247c-138.541,15.093-235.605,68.687-303.695,158.233l-139.642-261.761
				c109.929-88.329,255.788-140.175,389.282-156.619c239.79-29.553,484.972,2.738,705.944,99.536
				c112.843,49.486,226.811,90.031,341.251,134.89c105.511,41.412,212.053,60.207,308.492,124.522
				c91.651,61.225,162.542,146.785,223.459,237.596C5884.629,1587.356,5943.974,1709.481,5984.397,1836.642z"/>
			<path id="_x31_80610412" fill="#1F9D5A" stroke="#000000" d="M5418.335,1735.03c38.294,44.535,75.721,111.356,106.842,180.962
				l-364.01,62.951c-84.555-102.535-209.198-176.698-324.341-230.424c-194.322-90.771-452.352-263.088-634.68-100.068
				c-7.577,6.838-15.073,14.17-22.24,22.006l-199.368-373.612c68.09-89.546,165.153-143.141,303.695-158.234
				c217.634-23.705,471.607,146.935,676.038,254.248C5131.813,1482.933,5293.817,1590.189,5418.335,1735.03z"/>
			<path id="_x31_80610411" fill="#1F9D5A" stroke="#000000" d="M4341.456,1973.104h-0.084l-161.464-302.647
				c7.167-7.834,14.664-15.167,22.238-22.006c182.332-163.019,440.358,9.296,634.682,100.068
				c115.14,53.727,239.786,127.89,324.34,230.424l-390.801,67.533C4526.911,1970.939,4379.499,1971.317,4341.456,1973.104z"/>
			<path id="_x31_80610418" fill="#40A666" stroke="#000000" d="M3777.886,917.002l63.011,118.082
				c-29.704,23.708-56.694,50.164-80.216,79.29c-36.283,45.052-66.384,96.516-91.207,152.15l-91.712-96.773
				c51.188-89.47,122.011-178.918,198.561-254.331L3777.886,917.002z"/>
			<path id="_x31_80610417" fill="#40A666" stroke="#000000" d="M3840.896,1035.084l139.643,261.761
				c-40.72,53.479-71.067,119.776-93.772,198.375c-0.002,0.082-0.085,0.248-0.085,0.329L3704.577,1303.5l-35.103-36.977
				c24.82-55.635,54.923-107.098,91.208-152.15C3784.202,1085.248,3811.19,1058.792,3840.896,1035.084z"/>
			<path id="_x31_80610416" fill="#40A666" stroke="#000000" d="M3980.538,1296.846l199.37,373.612
				c-20.169,21.77-38.782,47.441-55.586,75.692l-237.642-250.598c-0.001-0.083,0.082-0.248,0.084-0.331
				C3909.47,1416.622,3939.817,1350.326,3980.538,1296.846z"/>
			<path id="_x31_80610415" fill="#40A666" stroke="#000000" d="M4179.908,1670.457l161.464,302.647
				c-0.662-0.004-1.325,0.077-1.905,0.073l-215.144-227.027C4141.126,1717.899,4159.739,1692.227,4179.908,1670.457z"/>
			<path id="_x31_80610423" fill="#2FA850" stroke="#000000" d="M3577.762,1169.751l91.713,96.774
				c-91.403,204.437-112.257,465.013-109.694,668.957c1.074,78.311-3.271,163.472-2.721,247.417l-68.209,18.448l2.718-418.528
				c1.187-223.728-21.389-419.902,80.173-602.574C3573.664,1176.772,3575.672,1173.22,3577.762,1169.751z"/>
			<path id="_x31_80610422" fill="#2FA850" stroke="#000000" d="M3703.409,1304.657c29.094,29.817,14.674,108.212,3.101,180.991
				c-20.913,130.978-40.009,294.368-51.977,426.471c-7.748,85.722-5.349,164.623,0.111,244.448l-97.583,26.329
				c-0.551-83.942,3.796-169.104,2.721-247.415c-2.564-203.941,18.289-464.52,109.692-668.958l35.104,36.977L3703.409,1304.657z"/>
			<path id="_x31_80610421" fill="#2FA850" stroke="#000000" d="M3886.681,1495.552c-0.17,0.578-0.34,1.158-0.509,1.737
				c-55.633,194.103-77.913,410.84-77.353,617.588l-154.177,41.691c-5.46-79.826-7.859-158.727-0.112-244.448
				c11.968-132.104,31.064-295.493,51.978-426.472c11.573-72.776,25.991-151.171-3.101-180.99l1.165-1.155L3886.681,1495.552z"/>
			<path id="_x31_80610420" fill="#2FA850" stroke="#000000" d="M3886.681,1495.552l237.642,250.598
				c-53.172,89.044-88.751,204.451-97.68,309.888l-217.821,58.838c-0.563-206.748,21.718-423.484,77.353-617.588
				C3886.341,1496.71,3886.511,1496.131,3886.681,1495.552z"/>
			<path id="_x31_80610419" fill="#2FA850" stroke="#000000" d="M4124.322,1746.15l215.145,227.027
				c-5.224,0.303-7.874,0.539-7.874,0.539l-304.95,82.323C4035.571,1950.601,4071.15,1835.193,4124.322,1746.15z"/>
			<path id="_x31_80610402" fill="#248A5E" stroke="#000000" d="M5328.322,3223.945l76.126,160.746
				c-70.136-40.147-141.281-77.482-207.406-124.317c-74.789-52.933-155.006-98.52-230.965-150.214
				c-87.763-59.797-181.527-97.584-281.269-133.081c-40.443-14.383-82.01-19.823-123.644-28.25v-0.249l-42.496-189.817
				c9.446-0.035,18.809,0.597,27.915,2.053c152.335,24.26,287.216,136.426,422.679,202.191
				c57.191,27.732,115.029,74.441,167.281,111.761C5193.917,3115.758,5258.551,3177.834,5328.322,3223.945z"/>
			<path id="_x31_80610401" fill="#248A5E" stroke="#000000" d="M4954.087,2434.175l374.237,789.77
				c-69.773-46.111-134.407-108.188-191.776-149.177c-52.254-37.319-110.092-84.029-167.283-111.761
				c-135.461-65.766-270.344-177.931-422.679-202.191c-9.106-1.458-18.469-2.088-27.915-2.053l-88.226-394.318
				c125.122-47.398,229.981-54.63,361.761-13.991C4841.263,2365.547,4897.611,2396.256,4954.087,2434.175z"/>
			<path id="_x31_80610400" fill="#248A5E" stroke="#000000" d="M4808.882,2127.804l145.205,306.371
				c-56.476-37.919-112.825-68.628-161.883-83.722c-131.781-40.64-236.639-33.406-361.761,13.992l-53.824-240.84
				c103.917-32.759,217.966-39.199,323.026-22.233C4734.749,2107.026,4771.49,2116.088,4808.882,2127.804z"/>
			<path id="_x31_80610399" fill="#248A5E" stroke="#000000" d="M4770.369,2046.477l38.513,81.328
				c-37.392-11.718-74.133-20.778-109.236-26.433c-105.06-16.964-219.111-10.525-323.026,22.233l-32.621-145.682l-2.544-4.82
				C4379.499,1971.317,4526.911,1970.939,4770.369,2046.477z"/>
			<path id="_x31_80610428" fill="#248A5E" stroke="#000000" d="M3888.875,3018.763l-26.928,62.253
				c-25.61,1.355-51.31,3.21-76.276,8.461c-34.096,7.113-82.041,17.302-105.394,45.764c-0.667,0.741-1.252,1.482-1.835,2.311
				c1.753-2.477,3.672-4.95,5.757-7.51c-63.529-35.721-109.933-82.452-138.572-150.47c-25.203-59.795-62.668-151.226-60.501-216.016
				l3.726-562.21l68.208-18.448c0.544,69.274,4.408,137.66,17.414,200.621c37.726,183.079,38.922,597.902,289.472,633.04
				c6.458,0.945,13.166,1.645,20.043,2.011C3885.646,3018.664,3887.302,3018.754,3888.875,3018.763z"/>
			<path id="_x31_80610427" fill="#248A5E" stroke="#000000" d="M3856.592,2934.65c8.222,27.884,13.065,51.611,7.527,80.667
				l-0.175,1.242c-250.55-35.138-251.746-449.96-289.471-633.04c-13.006-62.962-16.871-131.346-17.414-200.622l97.584-26.329
				c3.467,49.737,8.088,99.728,12.202,151.954c9.785,123.684-3.928,240.615,45.874,349.679
				C3757.197,2755.635,3825.824,2830.493,3856.592,2934.65z"/>
			<path id="_x31_80610426" fill="#248A5E" stroke="#000000" d="M4106.903,2514.867l-218.028,503.898
				c-1.574-0.012-3.228-0.1-4.887-0.193c-6.877-0.366-13.585-1.065-20.043-2.011l0.174-1.242
				c5.539-29.055,0.695-52.781-7.528-80.667c-30.768-104.157-99.394-179.016-143.869-276.451
				c-49.802-109.063-36.091-225.994-45.874-349.679c-4.114-52.225-8.738-102.216-12.203-151.954l154.177-41.691
				c0.029,41.515,1.053,82.621,2.91,122.984c6.688,144.881-7.879,345.25,148.032,320.142
				C4009.687,2549.981,4058.574,2534.414,4106.903,2514.867z"/>
			<path id="_x31_80610425" fill="#248A5E" stroke="#000000" d="M4251.944,2179.872l-145.043,334.993
				c-48.327,19.547-97.218,35.116-147.141,43.138c-155.91,25.108-141.343-175.261-148.031-320.143
				c-1.858-40.363-2.882-81.47-2.909-122.983l217.82-58.838c-4.681,54.665-2.223,106.55,8.647,150.692
				c22.874,93.012,82.498,68.303,140.964,28.175C4202.947,2216.569,4229.412,2194.917,4251.944,2179.872z"/>
			<path id="_x31_80610424" fill="#248A5E" stroke="#000000" d="M4340.786,1974.511l-88.84,205.362
				c-22.534,15.044-48.999,36.697-75.694,55.034c-58.465,40.127-118.09,64.836-140.963-28.175
				c-10.87-44.141-13.327-96.026-8.648-150.692l304.95-82.324c0,0,2.65-0.234,7.875-0.538L4340.786,1974.511z"/>
			<path id="_x31_80610398" fill="#248A5E" stroke="#000000" d="M4182.923,3008.225l-48.251,20.626
				c-35.844,9.256-71.068,26.388-105.745,33.828c-37.828,8.168-76.297,12.604-114.843,15.468
				c-17.159,1.317-34.646,1.887-52.136,2.871l26.929-62.253c156.241,6.464,307.892-105.509,432.532-187.217
				c53.302-34.851,129.397-72.151,197.264-72.784l42.496,189.816v0.249c-10.595-2.211-21.189-4.587-31.699-7.295
				c-40.343-10.541-78.775-15.76-120.244-11.333c-35.562,3.796-65.149,23.747-98.801,33.043
				c-43.561,12.035-84.835,29.961-127.257,45.479L4182.923,3008.225z"/>
			<path id="_x31_80610397" fill="#248A5E" stroke="#000000" d="M4430.445,2364.445l88.226,394.318
				c-67.864,0.633-143.964,37.934-197.264,72.785c-124.64,81.706-276.288,193.679-432.532,187.218l218.028-503.899
				c72.078-29.035,142.878-66.858,214.073-102.031C4359.691,2393.733,4395.821,2377.602,4430.445,2364.445z"/>
			<path id="_x31_80610396" fill="#248A5E" stroke="#000000" d="M4376.619,2123.605l53.823,240.84
				c-34.625,13.157-70.753,29.289-109.468,48.391c-71.197,35.171-141.997,72.995-214.073,102.032l145.043-334.994
				c5.324-3.535,10.478-6.741,15.3-9.449C4301.733,2151.133,4338.438,2135.583,4376.619,2123.605z"/>
			<path id="_x31_80610395" fill="#248A5E" stroke="#000000" d="M4343.998,1977.925l32.621,145.682
				c-38.179,11.979-74.886,27.526-109.374,46.817c-4.82,2.708-9.975,5.914-15.299,9.45l88.84-205.362L4343.998,1977.925z"/>
			<path id="_x31_80610406" fill="#219866" stroke="#000000" d="M5967.805,3074.785l0.578,0.418
				c-6.092,8.501-12.353,17.003-18.694,25.338c-47.061,62.064-81.072,131.323-129.125,192.884
				c-31.789,40.767-73.795,71.453-113.82,103.641c-49.345,39.843-97.184,75.969-163.965,59.291
				c-43.775-10.922-79.266-37.461-117.513-59.705c-6.938-4.015-13.877-8.03-20.815-11.96l-76.124-160.746
				c81.58,53.879,170.239,85.837,262.723,36.692c98.468-52.345,139.039-155.708,183.212-251.432
				c10.981-23.806,23.036-47.108,35.588-70.079L5967.805,3074.785z"/>
			<path id="_x31_80610405" fill="#219866" stroke="#000000" d="M5536.572,2704.417l273.272,234.71
				c-12.55,22.971-24.606,46.273-35.588,70.079c-44.177,95.724-84.744,199.088-183.212,251.432
				c-92.485,49.146-181.143,17.188-262.723-36.691l-374.237-789.772c101.476,68.158,203.491,159.517,264.621,225.8
				c51.409,55.79,156.945,154.959,237.668,104.84C5489.712,2744.108,5515.834,2724.774,5536.572,2704.417z"/>
			<path id="_x31_80610404" fill="#219866" stroke="#000000" d="M4905.562,2162.541l631.011,541.877
				c-20.74,20.357-46.86,39.691-80.198,60.396c-80.723,50.119-186.259-49.048-237.668-104.84
				c-61.13-66.283-163.146-157.643-264.621-225.798l-145.205-306.371C4840.813,2137.669,4873.231,2149.524,4905.562,2162.541z"/>
			<path id="_x31_80610403" fill="#219866" stroke="#000000" d="M4770.369,2046.477l135.192,116.064
				c-32.33-13.017-64.748-24.872-96.68-34.736L4770.369,2046.477z"/>
			<path id="_x31_80610382" fill="#9AD2BD" stroke="#000000" d="M5537.737,3462.063c3.443,2.055,7.188,3.566,11.188,4.6
				c-41.443-17.727-92.323-51.788-123.661-70.013c-6.936-4.013-13.877-8.029-20.815-11.959
				c-70.136-40.147-141.281-77.482-207.404-124.317c-74.791-52.933-155.007-98.52-230.966-150.214
				c-87.765-59.797-181.528-97.584-281.27-133.081c-40.443-14.383-82.01-19.823-123.644-28.25
				c-10.595-2.211-21.188-4.587-31.699-7.295c-40.341-10.541-78.773-15.76-120.242-11.333
				c-35.562,3.796-65.149,23.747-98.801,33.043c-43.561,12.035-84.835,29.961-127.257,45.479l-0.245-0.499l-48.251,20.626
				c-35.843,9.256-71.067,26.388-105.743,33.828c-37.828,8.168-76.298,12.604-114.844,15.468
				c-17.159,1.317-34.646,1.887-52.137,2.871c-25.609,1.355-51.309,3.21-76.276,8.462c-34.095,7.112-82.039,17.301-105.393,45.763
				c-0.667,0.741-1.253,1.483-1.835,2.313c0.031-0.046,0.021-0.094-0.015-0.145c-32.471,43.997-27.699,77.977-34.533,131.792
				c-17.196,135.63-54.714,270.517-57.627,407.968c-1.791,84.325-5.132,173.696-5.857,264.858
				c-2.373,300.752,23.718,621.028,227.896,843.912c83.333,90.959,188.205,133.98,304.362,163.842
				c61.236,15.746,125.516,22.465,188.657,21.12c125.183-2.672,226.923-46.636,342.254-86.958
				c104.644-36.553,202.183-63.239,291.59-134.284c144.892-115.107,265.169-276.877,365.597-430.241
				c101.291-154.652,213.715-329.556,265.996-508.211C5590.81,3728.991,5631.18,3517.892,5537.737,3462.063z M4410.489,3791.836
				c-57.487,88.354-149.553-0.944-112.753-93.134c24.746-61.943,122.129-97.844,144.817-11.845
				C4450.74,3717.83,4427.566,3765.598,4410.489,3791.836z"/>
			<path id="_x31_80610383" fill="#9AD2BD" stroke="#000000" d="M3580.965,3965.59c0.51,141.173,16.383,282.977,120.419,329.346
				c26.164,11.661,57.379,17.281,94.534,15.346c163.435-8.522,174.535-215.251,182.132-352.939
				c7.455-135.091-1.604-280.839-93.261-383.738c-38.691-43.432-263.177-200.325-281.405-63.276
				c-7.351,55.245-14.194,113.615-15.386,169.424C3586.654,3743.071,3580.565,3854.144,3580.965,3965.59z"/>
			<path id="_x31_80610384" fill="#82C7AE" stroke="#000000" d="M3787.424,4019.223c22.604,8.672,47.776,7.658,72.796-9.393
				c75.536-51.539,48.171-193.518,41.475-269.251c-3.642-41.207-6.802-124.366-48.929-147.345
				c-116.361-63.448-164.498,273.817-142.023,339.176C3723.305,3968.896,3752.276,4005.746,3787.424,4019.223z"/>
			<path id="_x31_80610385" fill="#9AD2BD" stroke="#000000" d="M3884.79,3573.601c-38.692-43.431-263.179-200.324-281.407-63.277
				c-7.351,55.246-14.194,113.616-15.386,169.424c-1.343,63.322-7.432,174.395-7.032,285.841
				c0.509,141.173,16.382,282.977,120.418,329.348c26.164,11.659,57.379,17.279,94.535,15.344
				c163.433-8.522,174.534-215.251,182.132-352.939C3985.505,3822.249,3976.445,3676.503,3884.79,3573.601z M3860.219,4009.83
				c-25.021,17.051-50.191,18.064-72.795,9.393c-35.147-13.475-64.119-50.326-76.683-86.814
				c-22.476-65.356,25.661-402.624,142.023-339.174c42.127,22.977,45.285,106.135,48.929,147.343
				C3908.391,3816.313,3935.756,3958.291,3860.219,4009.83z"/>
			<path id="_x31_80610386" fill="#54BF94" stroke="#000000" d="M4285.987,3150.139c-38.838-134.026-48.627-161.217-102.821-141.411
				c42.443-15.518,83.655-33.436,127.29-45.484c18.598-5.137,36.987-11.574,55.299-17.447c48.157-15.424,82.958-5.246,130.63,3.106
				c62.841,11.006,126.392,16.645,186.126,40.793c91.945,37.169,181.863,74.043,266.843,125.558
				c171.945,104.227,336.733,223.694,516.79,313.225c24.955,12.404,49.904,32.515,75.337,43.906
				c32.203,14.437,43.591,33.927,47.267,68.548l6.971,49.91c2.566,51.615-1.986,104.985-12.711,155.496
				c-4.619,21.775-9.997,43.569-16.245,64.929c-52.27,178.653-164.691,353.56-265.985,508.213
				c-100.43,153.358-220.693,315.13-365.588,430.249c-89.404,71.037-186.944,97.729-291.577,134.29
				c-115.342,40.31-217.081,84.285-342.249,86.951c-63.139,1.342-127.412-5.362-188.664-21.112
				c-8.451-2.176-69.293-18.09-68.13-25.65c4.671-27.624,11.068-56.66,18.047-83.794c12.747-49.676,32.908-98.066,51.523-145.774
				c21.09-54.073,38.231-127.688,42.421-186.218c4.11-57.486-27.43-138.041-89.285-155.85c-51.443-14.8-133.88-1.164-174.625,30.257
				c-49.413,38.103-86.547,104.827-109.221,161.467c-12.523,31.247-22.163,63.494-34.281,94.869
				c-2.014,5.207-18.846,50.131-28.473,34.748c-59.196-94.657-87.555-195.697-108.747-304.845
				c-9.26-47.652-22.66-121.864-24.835-171.692c29.957,93.433,103.337,147.201,202.191,138.382
				c157-14.006,193.41-112.749,211.252-324.434c12.407-147.143,13.725-312.5-72.176-415.613
				c1.709,1.971,45.601,13.802,76.547,16.973c39.324,4.039,76.705,1.777,114.898,14.072c42.501,13.686,85.037,35.509,122.143,60.472
				c9.258,6.229,25.642,15.812,49.864,31.115c4.228-14.942,4.99-12.505,6.325-19.627c-39.775-25.983-49.62-86.487-24.854-118.806
				c19.533-28.256,68.773-51.43,119.722-49.623c-2.777-11.688-6.333-18.624-10.168-30.481c-4.86-15.004-9.18-30.211-13.489-45.389
				c-8.546-30.082-16.399-60.36-24.427-90.593C4327.212,3297.035,4305.193,3216.441,4285.987,3150.139 M4298.132,3698.698
				c-34.724,83.129,35.888,159.145,89.511,118.284c-17.526,17.339-63.96,14.34-75.731,61.688
				c-5.094,20.443,4.137,35.238,8.854,53.626c6.007,23.422,5.678,48.64,7.726,72.732c4.7,55.178,10.393,110.274,18.076,165.125
				c7.515,53.506,20.208,98.142,73.425,49.498c61.355-56.061,105.859-134.939,130.762-213.508
				c26.243-82.834,52.262-150.469,109.975-217.585c30.43-35.393,64.03-67.416,91.076-105.733
				c14.042-19.9,40.641-54.585,31.742-81.241c-7.639-22.874-37.034-27.093-57.473-30.974
				c-44.589-8.466-89.662-12.976-134.673-17.812c-88.755-9.544-252.386-58.578-318.583,26.858
				C4255.505,3602.006,4249.254,3665.683,4298.132,3698.698z"/>
			<path id="_x31_80610389" fill="#54BF94" stroke="#000000" d="M4783.54,3599.584c-7.639-22.873-37.035-27.093-57.474-30.972
				c-44.589-8.469-89.661-12.978-134.672-17.814c-50.759-5.456-126.004-23.832-193.512-22.58l-4.884,0.069
				c-2.775-11.689-6.329-18.625-10.165-30.482c-4.86-15.003-9.18-30.211-13.489-45.388c-8.547-30.082-16.398-60.36-24.428-90.592
				c-16.778-63.267-37.419-138.922-55.874-203.078l7.953-5.688c30.563-4.213,62.938-4.912,97.387-1.521
				c239.072,23.546,497.668,125.211,706.614,239.742c19.961,10.938,46.885,24.235,75.948,39.827l0.333,5.57
				c-62.834,148.021-250.063,179.901-392.395,165.714"/>
			<path id="_x31_80610388" fill="#54BF94" stroke="#000000" d="M4525.843,4070.493c9.744-21.151,18.065-42.762,24.906-64.348
				c26.245-82.834,52.264-150.469,109.975-217.586c30.43-35.392,64.03-67.415,91.076-105.732c12.514-17.73,34.994-47.2,33.452-72.27
				l-0.361-6.166c142.332,14.188,329.561-17.696,392.395-165.714l-0.333-5.572c90.041,48.303,200.614,118.62,188.274,209.036
				c-12.589,92.271-127.577,163.121-186.86,225.105c-60.152,62.917-130.094,111.672-193.103,170.801
				c-64.234,60.267-49.738,111.342-68.099,189.589c-24.813,105.745-104.182,178.306-195.353,238.314l0.532-6.323
				c-11.082-72.821,11.904-187.626-46.86-239.482c-53.673-47.372-131.948-48.511-147.954-134.437L4525.843,4070.493z"/>
			<path id="_x31_80610390" fill="#54BF94" stroke="#000000" d="M3928.654,3595.953c4.13,2.509,46.329,13.67,76.226,16.727
				c39.338,4.021,76.72,1.819,114.936,14.034c42.521,13.733,85.074,35.586,122.148,60.476c9.245,6.263,25.603,15.881,49.882,31.173
				l-0.083-0.019c-13.391,63.293,30.063,119.134,75.143,108.485l-9.037,5.309c-22.385,10.688-37.782,17.064-45.959,46.53
				c-5.653,20.295,4.137,35.239,8.854,53.627c6.007,23.422,5.678,48.638,7.726,72.732c2.898,34.019,6.173,68.01,10.06,101.93
				l0.325,8.819c-57.533,61.944-56.486,143.949-84.034,221.219c-14.967,41.953-25.402,101.37-48.401,140.607l-2.17,4.412
				c-37.375-53.049-70.142-105.47-100.563-163.464c-26.02-49.585-64.932-123.17-119.357-146.648l-7.791,0.719
				c11.529-44.037,18.591-97.549,23.971-161.307c12.083-142.538,13.664-302.192-64.293-405.768L3928.654,3595.953z"/>
			<path id="_x31_80610387" fill="#54BF94" stroke="#000000" d="M4339.564,4115.704c2.14,18.173,4.462,36.324,7.002,54.451
				c7.513,53.506,20.206,98.142,73.423,49.499c42.133-38.499,76.322-87.758,101.671-140.289l5.874,6.345
				c16.004,85.927,94.277,87.065,147.954,134.437c58.763,51.855,35.774,166.662,46.858,239.483l-0.532,6.321
				c-78.39,51.598-165.507,93.915-234.173,140.066c-102.588,68.957-206.403-18.068-264.203-97.284
				c-6.525-8.942-12.908-17.837-19.165-26.715l2.17-4.412c22.999-39.237,33.431-98.655,48.401-140.608
				c27.548-77.268,26.501-159.271,84.034-221.218L4339.564,4115.704z"/>
			<path id="_x31_80610391" fill="#54BF94" stroke="#000000" d="M5596.128,3600.875c-0.141-3.782-0.332-7.539-0.58-11.269
				l-6.382-45.681c-5.071-22.199-13.102-42.026-24.983-57.785c-6.087-5.146-13.551-9.657-22.698-13.759
				c-25.433-11.39-50.384-31.498-75.339-43.906c-180.057-89.528-344.843-208.997-516.787-313.223
				c-84.98-51.514-174.898-88.389-266.843-125.558c-59.735-24.147-123.287-29.787-186.127-40.793
				c-47.672-8.353-82.473-18.53-130.63-3.106c-18.31,5.873-36.704,12.311-55.297,17.445
				c-43.637,12.049-84.851,29.969-127.292,45.485c54.196-19.808,63.985,7.386,102.821,141.412c0,0,165.38-7.156,323.448,40.62
				c67.848,20.508,188.722,54.888,314.156,109.555c134.219,58.494,265.296,139.264,265.296,139.264
				c87.554,48.026,188.141,116.105,176.343,202.563c-12.591,92.272-127.577,163.122-186.86,225.108
				c-60.154,62.916-130.096,111.671-193.104,170.799c-64.232,60.268-49.736,111.343-68.099,189.59
				c-24.813,105.744-104.182,178.307-195.353,238.313l0.534-6.322l-0.532,6.313c-1.311,0.862-2.62,1.721-3.935,2.577
				c-0.771,0.501-1.535,1.004-2.306,1.503c-1.751,1.134-3.505,2.262-5.264,3.387c-0.716,0.46-1.432,0.922-2.149,1.379
				c-1.822,1.164-3.651,2.319-5.48,3.472c-0.657,0.415-1.312,0.833-1.974,1.245c-1.895,1.189-3.792,2.371-5.694,3.552
				c-0.602,0.373-1.198,0.749-1.799,1.12c-1.971,1.217-3.942,2.429-5.916,3.637c-0.537,0.329-1.074,0.658-1.612,0.987
				c-2.052,1.254-4.104,2.498-6.16,3.739c-0.462,0.278-0.927,0.563-1.389,0.841c-2.156,1.3-4.313,2.593-6.476,3.884
				c-0.358,0.215-0.723,0.434-1.082,0.647c-2.249,1.341-4.502,2.676-6.756,4.007c-0.278,0.167-0.563,0.333-0.841,0.498
				c-2.387,1.406-4.771,2.812-7.161,4.209c-0.139,0.081-0.272,0.16-0.41,0.24c-30.82,18.031-61.813,35.246-91.494,52.363
				c-0.126,0.074-0.253,0.146-0.379,0.222c-2.296,1.322-4.585,2.648-6.864,3.972c-0.396,0.229-0.79,0.461-1.188,0.691
				c-2.014,1.17-4.021,2.342-6.022,3.513c-0.599,0.351-1.19,0.7-1.789,1.054c-1.796,1.053-3.591,2.107-5.373,3.159
				c-0.735,0.435-1.463,0.869-2.193,1.304c-1.644,0.977-3.289,1.95-4.924,2.926c-0.823,0.495-1.64,0.986-2.46,1.481
				c-1.525,0.916-3.059,1.835-4.574,2.752c-0.954,0.578-1.896,1.155-2.85,1.732c-1.374,0.839-2.754,1.675-4.12,2.513
				c-1.036,0.636-2.063,1.273-3.092,1.908c-1.27,0.783-2.542,1.566-3.802,2.354c-1.109,0.689-2.201,1.382-3.304,2.07
				c-1.167,0.733-2.344,1.468-3.502,2.2c-1.158,0.734-2.304,1.473-3.452,2.208c-1.089,0.694-2.186,1.39-3.267,2.088
				c-1.386,0.893-2.75,1.789-4.122,2.685c-0.827,0.542-1.664,1.079-2.485,1.618c-2.189,1.442-4.361,2.887-6.516,4.334
				c-1.113,0.748-2.228,1.472-3.338,2.186c-0.256,0.161-0.509,0.324-0.764,0.482c-1.098,0.692-2.189,1.371-3.287,2.028
				c-0.142,0.084-0.282,0.165-0.423,0.249c-0.997,0.596-1.996,1.174-2.995,1.738c-0.237,0.136-0.479,0.272-0.713,0.406
				c-1.088,0.608-2.179,1.203-3.267,1.777c-0.209,0.109-0.417,0.219-0.627,0.327c-0.974,0.509-1.942,1.004-2.913,1.487
				c-0.201,0.1-0.398,0.199-0.602,0.298c-1.086,0.534-2.173,1.052-3.26,1.554c-0.245,0.11-0.492,0.224-0.737,0.334
				c-1.008,0.46-2.017,0.905-3.022,1.338c-0.12,0.053-0.243,0.105-0.365,0.158c-1.096,0.464-2.189,0.908-3.285,1.342
				c-0.257,0.104-0.517,0.202-0.771,0.302c-1.104,0.431-2.204,0.849-3.31,1.242c-0.039,0.015-0.078,0.025-0.118,0.041
				c-1.073,0.386-2.146,0.75-3.219,1.104c-0.256,0.086-0.509,0.17-0.765,0.252c-1.088,0.353-2.174,0.692-3.257,1.014
				c-0.163,0.047-0.324,0.091-0.485,0.139c-0.977,0.285-1.951,0.559-2.927,0.818c-0.236,0.063-0.475,0.128-0.708,0.188
				c-1.077,0.28-2.152,0.549-3.229,0.802c-0.223,0.052-0.44,0.102-0.662,0.149c-0.959,0.222-1.918,0.43-2.877,0.627
				c-0.19,0.038-0.382,0.08-0.574,0.118c-1.074,0.214-2.148,0.416-3.225,0.604c-0.249,0.045-0.5,0.085-0.749,0.127
				c-1.007,0.168-2.015,0.328-3.019,0.474c-0.104,0.019-0.212,0.036-0.317,0.049c-1.082,0.152-2.162,0.289-3.241,0.415
				c-0.26,0.029-0.521,0.061-0.777,0.087c-1.083,0.119-2.163,0.229-3.239,0.317c-0.082,0.006-0.162,0.014-0.244,0.02
				c-1.018,0.084-2.034,0.152-3.054,0.213c-0.257,0.016-0.513,0.03-0.77,0.046c-1.06,0.055-2.12,0.101-3.182,0.129
				c-0.184,0.006-0.363,0.008-0.545,0.013c-0.941,0.022-1.886,0.034-2.823,0.038c-0.232,0-0.465,0.002-0.695,0.001
				c-1.054-0.003-2.104-0.019-3.155-0.047c-0.23-0.006-0.463-0.016-0.693-0.021c-0.936-0.029-1.868-0.068-2.801-0.119
				c-0.184-0.009-0.367-0.018-0.549-0.027c-1.051-0.06-2.101-0.133-3.146-0.219c-0.254-0.02-0.51-0.041-0.766-0.063
				c-0.991-0.084-1.984-0.18-2.975-0.284c-0.088-0.009-0.18-0.02-0.268-0.026c-1.054-0.116-2.104-0.246-3.152-0.387
				c-0.265-0.034-0.525-0.07-0.786-0.105c-1.047-0.145-2.089-0.299-3.131-0.468c-0.115-0.019-0.229-0.038-0.346-0.059
				c-0.96-0.156-1.919-0.325-2.875-0.5c-0.254-0.048-0.505-0.093-0.759-0.144c-1.024-0.193-2.055-0.396-3.077-0.613
				c-0.195-0.044-0.394-0.088-0.589-0.132c-0.9-0.191-1.798-0.396-2.692-0.604c-0.229-0.055-0.456-0.104-0.686-0.158
				c-1.018-0.245-2.024-0.498-3.038-0.765c-0.237-0.062-0.48-0.126-0.719-0.188c-0.898-0.241-1.796-0.485-2.691-0.743
				c-0.174-0.051-0.353-0.097-0.524-0.145c-1.009-0.293-2.018-0.598-3.021-0.905c-0.261-0.082-0.521-0.165-0.779-0.246
				c-0.965-0.306-1.927-0.615-2.89-0.934c-0.072-0.025-0.146-0.05-0.221-0.071c-1.009-0.342-2.018-0.693-3.023-1.054
				c-0.264-0.097-0.526-0.188-0.791-0.287c-0.994-0.358-1.987-0.726-2.98-1.104c-0.146-0.059-0.292-0.113-0.439-0.172
				c-0.89-0.345-1.777-0.695-2.665-1.056c-0.25-0.101-0.501-0.2-0.748-0.303c-0.979-0.4-1.956-0.812-2.932-1.228
				c-0.208-0.09-0.417-0.182-0.626-0.272c-0.845-0.364-1.688-0.736-2.527-1.116c-0.226-0.104-0.448-0.2-0.671-0.304
				c-0.966-0.438-1.927-0.886-2.885-1.342c-0.247-0.116-0.49-0.233-0.734-0.354c-0.853-0.407-1.702-0.823-2.55-1.243
				c-0.167-0.083-0.333-0.162-0.496-0.245c-0.958-0.478-1.915-0.968-2.865-1.464c-0.26-0.134-0.521-0.271-0.777-0.404
				c-0.926-0.485-1.85-0.976-2.773-1.475c-0.09-0.051-0.184-0.102-0.273-0.147c-0.921-0.504-1.842-1.017-2.757-1.532
				c-0.262-0.145-0.522-0.295-0.78-0.44c-0.936-0.531-1.869-1.069-2.799-1.615c-0.169-0.099-0.336-0.2-0.502-0.298
				c-0.817-0.483-1.635-0.973-2.446-1.467c-0.243-0.147-0.485-0.294-0.729-0.442c-0.916-0.562-1.831-1.128-2.742-1.702
				c-0.223-0.14-0.442-0.282-0.666-0.422c-0.778-0.497-1.561-0.997-2.336-1.502c-0.211-0.139-0.425-0.273-0.637-0.413
				c-0.902-0.59-1.802-1.188-2.699-1.792c-0.248-0.165-0.495-0.333-0.741-0.5c-0.796-0.541-1.587-1.081-2.378-1.63
				c-0.154-0.108-0.312-0.214-0.465-0.322c-0.896-0.622-1.783-1.252-2.67-1.887c-0.258-0.185-0.517-0.368-0.773-0.555
				c-0.879-0.633-1.756-1.269-2.632-1.913c-0.103-0.078-0.204-0.152-0.311-0.229c-0.821-0.608-1.642-1.226-2.46-1.843
				c-0.254-0.188-0.506-0.384-0.761-0.575c-0.86-0.658-1.723-1.318-2.58-1.986c-0.188-0.146-0.37-0.293-0.56-0.438
				c-0.732-0.573-1.461-1.149-2.19-1.73c-0.237-0.189-0.477-0.376-0.711-0.567c-0.846-0.677-1.688-1.356-2.524-2.045
				c-0.227-0.186-0.449-0.37-0.675-0.557c-0.71-0.586-1.419-1.175-2.124-1.766c-0.203-0.17-0.404-0.34-0.606-0.51
				c-0.829-0.697-1.653-1.401-2.478-2.109c-0.244-0.21-0.484-0.421-0.729-0.631c-0.73-0.63-1.456-1.264-2.178-1.898
				c-0.144-0.127-0.287-0.252-0.432-0.378c-0.819-0.727-1.637-1.455-2.45-2.188c-0.245-0.221-0.486-0.438-0.732-0.66
				c-0.813-0.734-1.62-1.476-2.426-2.22c-0.123-0.111-0.244-0.227-0.369-0.34c-0.722-0.668-1.437-1.339-2.149-2.01
				c-0.236-0.227-0.477-0.45-0.715-0.674c-0.786-0.744-1.567-1.49-2.349-2.242c-0.187-0.178-0.369-0.357-0.558-0.538
				c-0.658-0.638-1.313-1.276-1.966-1.916c-0.144-0.141-0.287-0.282-0.432-0.421l-10.607-13.343
				c-1.066-0.354-2.166-0.706-3.279-1.059c-11.236-12.255-21.515-24.958-30.641-37.468c-6.524-8.942-12.907-17.837-19.165-26.715
				l-0.293-0.422c-37.255-52.901-69.927-105.204-100.271-163.044c-26.019-49.587-64.932-123.17-119.357-146.648l-7.781,0.718
				c-0.802,3.068-1.629,6.093-2.477,9.067c-0.045,0.158-0.092,0.319-0.137,0.479c-0.404,1.419-0.816,2.827-1.233,4.229
				c-0.079,0.268-0.16,0.534-0.242,0.804c-1.261,4.194-2.567,8.301-3.926,12.31c-0.125,0.371-0.252,0.744-0.38,1.112
				c-1.33,3.883-2.71,7.675-4.139,11.383c-0.154,0.4-0.312,0.808-0.469,1.208c-0.459,1.172-0.919,2.34-1.39,3.495
				c-0.091,0.224-0.183,0.438-0.271,0.662c-0.906,2.213-1.831,4.395-2.776,6.543c-0.173,0.394-0.344,0.787-0.518,1.18
				c-0.476,1.063-0.953,2.118-1.437,3.165c-0.197,0.434-0.402,0.862-0.603,1.295c-0.925,1.968-1.864,3.909-2.825,5.819
				c-0.154,0.313-0.31,0.622-0.465,0.932c-0.491,0.971-0.992,1.931-1.495,2.885c-0.26,0.492-0.521,0.98-0.78,1.471
				c-1.618,3.021-3.285,5.965-5.009,8.836c-0.308,0.515-0.618,1.028-0.931,1.541c-0.518,0.842-1.033,1.683-1.561,2.51
				c-0.313,0.5-0.636,0.989-0.956,1.483c-0.896,1.394-1.809,2.765-2.734,4.117c-0.367,0.538-0.733,1.077-1.106,1.607
				c-0.526,0.754-1.058,1.499-1.59,2.239c-0.398,0.551-0.805,1.097-1.207,1.642c-0.856,1.157-1.727,2.304-2.606,3.433
				c-0.465,0.597-0.927,1.19-1.394,1.777c-0.537,0.668-1.08,1.329-1.625,1.988c-0.46,0.557-0.925,1.107-1.388,1.655
				c-0.538,0.633-1.072,1.267-1.614,1.889c-0.871,0.995-1.751,1.978-2.643,2.945c-0.535,0.583-1.08,1.151-1.623,1.728
				c-0.529,0.563-1.064,1.12-1.602,1.672c-0.549,0.563-1.099,1.126-1.654,1.68c-0.72,0.719-1.452,1.426-2.184,2.131
				c-0.734,0.702-1.478,1.395-2.223,2.082c-0.635,0.584-1.27,1.167-1.915,1.738c-0.557,0.496-1.115,0.987-1.68,1.477
				c-0.697,0.604-1.403,1.197-2.111,1.788c-0.706,0.589-1.417,1.175-2.136,1.753c-0.85,0.684-1.701,1.358-2.564,2.024
				c-0.556,0.429-1.115,0.853-1.68,1.272c-0.743,0.557-1.495,1.106-2.249,1.651c-0.521,0.376-1.043,0.757-1.571,1.129
				c-1.164,0.817-2.344,1.62-3.534,2.411c-0.53,0.352-1.069,0.693-1.604,1.041c-0.829,0.535-1.666,1.063-2.509,1.586
				c-0.551,0.342-1.1,0.684-1.651,1.018c-1.262,0.762-2.535,1.511-3.825,2.243c-0.455,0.256-0.917,0.504-1.376,0.757
				c-0.978,0.544-1.959,1.078-2.953,1.604c-0.562,0.296-1.122,0.592-1.688,0.881c-1.11,0.572-2.231,1.133-3.365,1.685
				c-0.462,0.226-0.922,0.453-1.387,0.675c-1.307,0.624-2.629,1.232-3.966,1.827c-0.551,0.247-1.107,0.485-1.664,0.732
				c-1.105,0.479-2.222,0.952-3.349,1.416c-0.473,0.193-0.938,0.394-1.412,0.584c-1.514,0.607-3.045,1.202-4.594,1.781
				c-0.51,0.188-1.022,0.374-1.538,0.563c-1.188,0.435-2.391,0.858-3.602,1.276c-0.529,0.185-1.056,0.363-1.586,0.543
				c-1.625,0.545-3.267,1.074-4.928,1.59c-0.388,0.116-0.78,0.229-1.173,0.35c-1.374,0.414-2.759,0.818-4.157,1.213
				c-0.555,0.155-1.106,0.314-1.663,0.465c-1.626,0.442-3.267,0.879-4.927,1.298c-0.163,0.038-0.321,0.081-0.481,0.123
				c-1.799,0.446-3.618,0.872-5.455,1.286c-0.549,0.123-1.102,0.245-1.65,0.364c-1.521,0.335-3.06,0.656-4.607,0.967
				c-0.398,0.081-0.793,0.166-1.194,0.245c-1.899,0.371-3.822,0.728-5.766,1.068c-0.5,0.089-1.007,0.171-1.511,0.258
				c-1.575,0.268-3.166,0.526-4.771,0.774c-0.514,0.078-1.022,0.161-1.539,0.236c-2.013,0.3-4.043,0.585-6.1,0.854
				c-0.371,0.049-0.751,0.091-1.123,0.14c-1.752,0.222-3.521,0.43-5.305,0.63c-0.578,0.064-1.154,0.129-1.735,0.192
				c-2.139,0.227-4.293,0.442-6.476,0.639c-96.845,8.641-169.236-42.797-200.308-132.741c4.5,51.757,11.094,103.101,20.527,153.449
				c0.781,4.121,1.549,8.102,2.289,11.915c21.654,109.915,57.234,214.821,114.618,308.563c9.44-2.465,21.084-33.504,22.737-37.776
				c12.117-31.377,21.757-63.623,34.279-94.869c22.675-56.642,59.81-123.362,109.222-161.468
				c40.745-31.422,123.182-45.057,174.625-30.257c61.855,17.808,93.398,98.363,89.287,155.85c-0.17,2.4-0.372,4.833-0.59,7.281
				c-0.055,0.625-0.108,1.254-0.168,1.88c-0.213,2.328-0.439,4.669-0.691,7.034c-0.016,0.139-0.025,0.272-0.041,0.412
				c-0.271,2.548-0.57,5.12-0.886,7.706c-0.063,0.531-0.132,1.064-0.196,1.599c-0.311,2.511-0.638,5.031-0.986,7.571
				c-0.011,0.076-0.02,0.149-0.029,0.228c-0.376,2.739-0.779,5.501-1.199,8.272c-0.05,0.338-0.102,0.676-0.154,1.017
				c-0.86,5.616-1.801,11.286-2.826,16.987c-0.021,0.132-0.048,0.265-0.07,0.396c-0.518,2.896-1.057,5.797-1.617,8.703
				c-7.902,41.025-19.646,82.975-32.966,117.131c-18.619,47.711-38.778,96.101-51.523,145.775
				c-6.979,27.135-13.377,56.168-18.047,83.794c-1.094,7.117,52.765,21.64,66.125,25.131c0.669,0.173,1.335,0.349,2.004,0.52
				c61.249,15.75,125.528,22.454,188.664,21.112c125.168-2.665,226.908-46.64,342.25-86.951
				c104.631-36.562,202.171-63.254,291.575-134.29c-6.854,5.596-14.689,9.829-21.771,15.105
				c-20.517,15.265-50.468,29.871-75.393,16.772c-17.523-9.204-26.324-24.461-29.296-43.55
				c-3.423-21.934,3.335-39.861,10.619-60.208c55.292-154.341,233.479-279.906,331.564-403.542
				c51.662-65.136,95.217-137.167,143.168-205.007c55.528-78.533,114.75-149.131,166.026-231.106
				c16.058-25.655,46.683-88.887,80.62-95.054c67.945-12.352,6.654,123.572-4.609,151.785
				c-13.244,33.213-27.737,68.74-43.627,102.529c30.118-61.122,55.914-123.421,74.274-186.184c0.547-1.865,1.079-3.74,1.612-5.613
				c12.28-43.63,27.771-117.564,28.032-186.896C5596.407,3612.78,5596.317,3606.818,5596.128,3600.875z"/>
			<path id="_x31_80610394" fill="#62D09F" stroke="#000000" d="M4183.168,3008.724l-0.245-0.499l-48.251,20.626
				c-35.844,9.256-71.068,26.388-105.745,33.828c-37.828,8.168-76.297,12.604-114.843,15.468
				c-13.434,1.031-27.062,1.603-40.738,2.276l-15.068,0.793c-24.394,1.344-48.829,3.26-72.604,8.261
				c-30.757,6.417-72.788,15.335-97.865,37.915l-7.677,7.741c-34.347,45.112-29.282,79.325-36.232,134.066
				c-8.386,66.127-21.6,132.08-33.281,198.236l-0.563,3.938c2.101-5.87,4.864-11.076,7.956-15.617
				c9.692-15.196,24.398-22.741,42.223-24.47c53.89-5.265,114.44,29.361,159.381,55.038c15.527,8.905,29.527,21.808,43.557,34.32
				l0.005,0.004l4.522-8.129c109.4-155.348,225.51-317.656,407.202-353.745l14.034-5.494c-7.884-28.206-15.777-56.41-23.687-84.607
				c-4.955-17.653-8.575-36.605-15.223-53.682c-9.86-25.339-31.937-16.729-54.3-11.57L4183.168,3008.724z"/>
			<path id="_x31_80610393" fill="#62D09F" stroke="#000000" d="M4393.007,3530.286c-2.777-11.688-6.333-18.624-10.168-30.481
				c-4.86-15.004-9.18-30.211-13.489-45.39c-8.546-30.081-16.399-60.359-24.427-90.592c-16.777-63.266-37.419-138.92-55.875-203.076
				l-14.151-1.97c-181.692,36.087-297.802,198.397-407.202,353.744l-4.522,8.129c7.319,6.528,14.645,12.952,22.198,18.645
				c16.341,12.352,26.111,29.557,46.875,36.046c23.822,7.419,48.554,15.588,73.484,18.123c39.338,4.02,78.877,1.247,117.095,13.549
				c27.718,8.94,53.911,21.942,79.276,36.134c12.826,7.179,25.462,14.696,38.092,22.222c5.897,3.513,12.379,6.041,18.391,9.354
				c4.101,2.263,13.588,12.068,18.868,10.202c5.404-1.909-1.443-7.621-3.476-11.294c-4.221-7.628-7.434-15.828-10.201-24.078
				c-8.087-24.143-6.678-49.025,9.047-69.893c27.064-35.913,71.326-48.266,120.183-49.75L4393.007,3530.286z"/>
			<path id="_x31_80610392" fill="#62D09F" stroke="#000000" d="M4086.132,4693.902c21.083-54.076,44.322-109.752,48.505-168.286
				c4.109-57.481-16.37-137.404-78.234-155.211c-80.028-23.031-164.916,30.535-206.924,96.248
				c-11.287,17.66-21.279,35.66-30.349,53.944c-24.384,49.169-42.105,100.484-60.568,153.313
				c-1.669,4.798-13.905,30.492-11.352,34.167c6.058,8.717,9.648,13.866,12.335,17.608c3.194,4.284,6.405,8.549,9.688,12.748
				c1.53,1.943,3.362,4.265,5.731,7.284c8.989,11.257,18.318,22.148,27.963,32.752c6.516,6.938,13.242,13.819,20.647,21.313
				c4.455,4.494,8.839,8.815,13.206,13.003c18.539,17.274,38.241,33.474,59.681,48.158c0.232,0.166,0.565,0.377,0.825,0.56
				c1.44,0.958,2.907,1.901,4.382,2.854c6.554,4.177,15.306,9.399,22.302,13.434c8.115,4.604,16.702,9.213,25.971,13.908
				c3.937,1.994,41.901,17.975,60.046,26.17c3.157,1.193,6.429,2.388,9.789,3.591c4.678-27.624,9.591-55.158,16.569-82.3
				C4049.095,4789.487,4067.515,4741.611,4086.132,4693.902z"/>
			<path id="_x31_80610430" fill="#CCCCCC" stroke="#000000" d="M4444.226,3702.518c0.155-16.617-5.749-32.563-16.143-46.058
				c-28.018-36.419-83.387-17.795-107.633,8.652c-2.643,2.877-26.698,32.132-21.702,34.655
				c-18.543-9.33-28.683-31.444-34.979-50.218c-8.086-24.143-6.68-49.025,9.047-69.893c65.129-86.423,229.828-36.403,318.583-26.859
				c45.013,4.835,90.082,9.347,134.671,17.813c20.438,3.881,49.833,8.1,57.473,30.974c8.898,26.656-17.7,61.341-31.74,81.24
				c-27.048,38.317-60.646,70.342-91.078,105.733c-57.713,67.115-83.729,134.751-109.975,217.585
				c-24.9,78.567-69.406,157.45-130.762,213.507c-53.213,48.643-65.909,4.006-73.423-49.498
				c-7.683-54.851-13.378-109.949-18.076-165.124c-2.05-24.095-1.72-49.311-7.726-72.732c-4.717-18.39-14.507-33.334-8.854-53.627
				c11.737-42.286,38.336-37.021,79.127-65.184C4418.94,3794.219,4443.933,3733.44,4444.226,3702.518z"/>
			<path id="_x31_80610431" fill="#CCCCCC" stroke="#000000" d="M5540.728,3743.134c-33.938,6.166-64.563,69.4-80.62,95.053
				c-51.274,81.977-110.495,152.573-166.024,231.105c-47.953,67.84-91.505,139.871-143.169,205.009
				c-98.084,123.638-276.271,249.203-331.563,403.542c-7.284,20.347-14.043,38.275-10.621,60.207
				c2.973,19.09,11.775,34.346,29.296,43.549c24.925,13.101,54.876-1.506,75.394-16.77c7.079-5.279,14.916-9.51,21.77-15.108
				c70.232-57.335,112.78-100.999,165.738-160.88c72.206-82.854,136.915-173.689,195.036-262.031
				c1.612-2.451,3.222-4.898,4.815-7.336c22.024-33.627,44.574-68.209,66.919-103.583c32.828-52.844,64.556-106.106,94.808-160.451
				c10.367-19.198,20.393-38.536,29.982-57.993c15.89-33.787,30.381-69.313,43.627-102.528
				C5547.384,3866.706,5608.673,3730.783,5540.728,3743.134z"/>
			<path id="_x31_80610429" fill="#AAAAAA" stroke="#000000" d="M4410.489,3791.836c17.077-26.238,40.249-74.006,32.064-104.979
				c-22.688-85.999-120.071-50.101-144.817,11.845C4260.935,3790.892,4353.002,3880.189,4410.489,3791.836z"/>
		</g>
	</g>
	<g transform="scale(1.0)">
		<g id="_x31_80610378_1_" transform=" scale(1.0, 1.0)">
			<path id="_x31_80610380_1_" fill="#BFDAE3" stroke="#000000" d="M3484.494,1782.789
				c-1.189-223.722,21.375-419.883-80.203-602.597c-67.221-120.92-171.008-242.653-277.646-330.998
				c-185.459-153.647-428.395-132.092-651.028-105.527c-399.105,47.625-809.187,128.187-1127.716,394.258
				c-59.957,50.074-121.805,97.567-181.582,147.769c-92.037,77.317-164.266,189.259-221.729,294.932
				c-81.422,149.715-141.514,314.253-170.076,482.185c-45.969,270.232-0.984,586.919,123.852,831.741
				c36.682,71.967,79.096,141.561,127.957,205.943c47.084,62.039,81.053,131.371,129.092,192.893
				c35.678,45.691,215.545,208.811,282.85,168.674c-93.441,55.828-53.072,266.928-29.027,349.146
				c52.281,178.654,164.705,353.559,265.996,508.211c100.425,153.363,220.705,315.133,365.596,430.242
				c89.407,71.043,186.946,97.729,291.588,134.285c115.333,40.318,217.072,84.283,342.253,86.955
				c63.145,1.346,127.424-5.371,188.66-21.117c116.156-29.863,221.027-72.885,304.361-163.844
				c204.182-222.887,230.27-543.162,227.896-843.914c-0.725-91.162-4.066-180.531-5.857-264.857
				c-2.912-137.451-40.43-272.34-57.627-407.967c-7.211-56.785-1.488-91.48-40.242-139.164
				c63.527-35.762,109.938-82.521,138.609-150.531c25.207-59.793,62.625-151.223,60.438-215.978L3484.494,1782.789z"/>
			<path id="_x31_80610381_1_" fill="#B0FFB8" stroke="#000000" d="M898.365,2894.594c36.691,71.963,79.1,141.563,127.965,205.947
				c47.078,62.039,81.045,131.367,129.08,192.885c35.686,45.701,215.537,208.826,282.852,168.674
				c-93.449,55.834-53.078,266.941-29.025,349.162c52.268,178.654,164.691,353.561,265.984,508.215
				c100.427,153.357,220.691,315.131,365.589,430.248c89.404,71.037,186.945,97.729,291.579,134.291
				c115.338,40.311,217.078,84.285,342.246,86.949c63.139,1.344,127.414-5.363,188.664-21.111
				c116.152-29.869,221.027-72.885,304.346-163.854c204.18-222.891,230.277-543.166,227.895-843.926
				c-0.723-91.162-4.059-180.531-5.848-264.859c-2.918-137.453-40.436-272.336-57.635-407.973
				c-7.211-56.785-1.488-91.484-40.229-139.168c63.514-35.756,109.922-82.518,138.592-150.529
				c25.209-59.791,62.617-151.228,60.441-215.986l-6.418-980.741c-1.197-223.723,21.383-419.895-80.193-602.611
				c-67.225-120.916-171.016-242.654-277.645-331c-185.457-153.647-428.395-132.096-651.02-105.525
				c-399.09,47.624-809.164,128.185-1127.693,394.253c-59.957,50.083-121.797,97.577-181.57,147.775
				c-92.039,77.317-164.271,189.258-221.734,294.935c-81.408,149.713-141.512,314.262-170.078,482.196
				C728.553,2333.078,773.541,2649.771,898.365,2894.594z M2533.447,3686.857c22.688-85.998,120.07-50.098,144.816,11.846
				c36.801,92.189-55.266,181.486-112.752,93.133C2548.434,3765.598,2525.26,3717.83,2533.447,3686.857z"/>
			<path id="_x31_80610410_1_" fill="#1F9D5A" stroke="#000000" d="M841.324,1810.673l150.283,25.967
				c-87.371,275.074-85.869,573.872,35.24,848.669c39.166,88.787,93.039,169.212,139.311,253.819l-157.963,135.656l-0.576,0.418
				c-41.072-57.207-77.355-118-109.26-180.643c-124.842-244.78-169.777-561.497-123.813-831.709
				C789.092,1977.425,811.762,1892.867,841.324,1810.673z"/>
			<path id="_x31_80610409_1_" fill="#1F9D5A" stroke="#000000" d="M1450.82,1915.993c-29.646,66.034-53.643,134.606-67.275,188.705
				c-32.461,128.695-48.521,318.869-20.922,445.42c14.945,68.531,35.154,113.42,76.803,154.299l-273.271,234.711
				c-46.271-84.605-100.145-165.033-139.309-253.818c-121.109-274.797-122.611-573.595-35.242-848.669L1450.82,1915.993z"/>
			<path id="_x31_80610408_1_" fill="#1F9D5A" stroke="#000000" d="M1450.82,1915.991l364.011,62.951
				c-47.669,58.009-82.695,125.067-95.955,202.697c-13.58,79.207-7.393,168.501,60.589,128.034
				c82.518-49.161,186.212-104.816,290.973-147.134l-631.011,541.877c-41.65-40.878-61.855-85.766-76.803-154.298
				c-27.6-126.551-11.539-316.726,20.924-445.42C1397.18,2050.599,1421.178,1982.025,1450.82,1915.991z"/>
			<path id="_x31_80610407_1_" fill="#1F9D5A" stroke="#000000" d="M1814.833,1978.942l390.8,67.533l-135.192,116.064
				c-104.763,42.318-208.457,97.973-290.975,147.134c-67.98,40.466-74.169-48.825-60.587-128.034
				C1732.139,2104.009,1767.165,2036.953,1814.833,1978.942z"/>
			<path id="_x31_80610414_1_" fill="#1F9D5A" stroke="#000000" d="M944.59,1580.673
				c57.439-105.705,129.682-217.622,221.746-295.007c59.725-50.201,121.619-97.681,181.51-147.716
				c318.598-266.108,728.661-346.669,1127.714-394.28c222.674-26.536,465.588-48.128,651.018,105.515
				c24.717,20.418,49.197,42.662,73.102,66.235l-1.564,1.582l-63.012,118.082c-109.928-88.328-255.787-140.174-389.281-156.619
				c-239.791-29.553-484.971,2.739-705.943,99.536c-112.845,49.488-226.813,90.033-341.252,134.89
				c-105.512,41.41-212.051,60.207-308.49,124.522c-91.654,61.226-162.543,146.786-223.461,237.596
				c-75.305,112.349-134.648,234.473-175.072,361.634l-150.281-25.967C869.736,1731.305,904.625,1654.141,944.59,1580.673z"/>
			<path id="_x31_80610413_1_" fill="#1F9D5A" stroke="#000000" d="M1166.676,1475.011
				c60.916-90.811,131.807-176.371,223.459-237.596c96.439-64.316,202.98-83.11,308.492-124.522
				c114.44-44.858,228.408-85.403,341.25-134.89c220.973-96.798,466.154-129.089,705.945-99.536
				c133.494,16.443,279.354,68.29,389.281,156.619l-139.641,261.761c-68.09-89.546-165.154-143.14-303.695-158.233
				c-217.635-23.707-471.612,146.933-676.039,254.247c-171.541,90.072-333.545,197.329-458.063,342.17
				c-38.295,44.535-75.721,111.356-106.842,180.962l-459.221-79.352C1032.027,1709.481,1091.371,1587.356,1166.676,1475.011z"/>
			<path id="_x31_80610412_1_" fill="#1F9D5A" stroke="#000000" d="M2015.729,1392.859
				c204.431-107.313,458.404-277.953,676.039-254.248c138.541,15.093,235.605,68.688,303.695,158.234l-199.369,373.612
				c-7.166-7.835-14.662-15.168-22.24-22.006c-182.328-163.02-440.357,9.297-634.679,100.068
				c-115.143,53.726-239.786,127.889-324.341,230.424l-364.009-62.951c31.121-69.605,68.547-136.427,106.842-180.962
				C1682.184,1590.189,1844.188,1482.933,2015.729,1392.859z"/>
			<path id="_x31_80610411_1_" fill="#1F9D5A" stroke="#000000" d="M2205.633,2046.477l-390.801-67.533
				c84.554-102.534,209.2-176.697,324.34-230.424c194.323-90.772,452.349-263.087,634.681-100.068
				c7.574,6.839,15.072,14.171,22.238,22.006l-161.463,302.647h-0.084C2596.502,1971.317,2449.089,1970.939,2205.633,2046.477z"/>
			<path id="_x31_80610418_1_" fill="#40A666" stroke="#000000" d="M3199.678,915.42c76.551,75.413,147.373,164.861,198.561,254.331
				l-91.711,96.773c-24.824-55.635-54.924-107.099-91.207-152.15c-23.521-29.126-50.512-55.582-80.217-79.29l63.012-118.082
				L3199.678,915.42z"/>
			<path id="_x31_80610417_1_" fill="#40A666" stroke="#000000" d="M3215.318,1114.373c36.285,45.052,66.387,96.515,91.207,152.15
				l-35.102,36.977l-182.105,192.049c0-0.081-0.082-0.247-0.084-0.329c-22.705-78.599-53.053-144.895-93.773-198.375
				l139.643-261.761C3164.811,1058.792,3191.799,1085.248,3215.318,1114.373z"/>
			<path id="_x31_80610416_1_" fill="#40A666" stroke="#000000" d="M3089.236,1495.221c0.002,0.083,0.084,0.248,0.084,0.331
				l-237.643,250.598c-16.803-28.25-35.416-53.922-55.586-75.692l199.371-373.612
				C3036.184,1350.326,3066.531,1416.622,3089.236,1495.221z"/>
			<path id="_x31_80610415_1_" fill="#40A666" stroke="#000000" d="M2851.678,1746.15l-215.145,227.027
				c-0.58,0.004-1.242-0.077-1.904-0.073l161.463-302.647C2816.262,1692.227,2834.875,1717.899,2851.678,1746.15z"/>
			<path id="_x31_80610423_1_" fill="#2FA850" stroke="#000000" d="M3404.26,1180.246
				c101.561,182.671,78.986,378.846,80.172,602.574l2.719,418.528l-68.209-18.448c0.551-83.945-3.795-169.106-2.721-247.417
				c2.563-203.943-18.291-464.52-109.695-668.957l91.713-96.774C3400.328,1173.22,3402.336,1176.772,3404.26,1180.246z"/>
			<path id="_x31_80610422_1_" fill="#2FA850" stroke="#000000" d="M3271.422,1303.499l35.104-36.977
				c91.404,204.439,112.258,465.017,109.693,668.958c-1.076,78.311,3.271,163.473,2.721,247.415l-97.584-26.329
				c5.461-79.826,7.859-158.727,0.111-244.448c-11.967-132.103-31.063-295.493-51.977-426.471
				c-11.572-72.778-25.992-151.173,3.102-180.991L3271.422,1303.499z"/>
			<path id="_x31_80610421_1_" fill="#2FA850" stroke="#000000" d="M3271.428,1303.503l1.166,1.155
				c-29.092,29.818-14.674,108.213-3.102,180.99c20.914,130.979,40.01,294.368,51.979,426.472
				c7.746,85.722,5.348,164.623-0.113,244.448l-154.176-41.691c0.561-206.748-21.721-423.485-77.354-617.588
				c-0.168-0.579-0.338-1.159-0.508-1.737L3271.428,1303.503z"/>
			<path id="_x31_80610420_1_" fill="#2FA850" stroke="#000000" d="M3089.826,1497.289c55.635,194.104,77.916,410.84,77.354,617.588
				l-217.822-58.838c-8.928-105.438-44.508-220.844-97.68-309.888l237.643-250.598
				C3089.49,1496.131,3089.66,1496.71,3089.826,1497.289z"/>
			<path id="_x31_80610419_1_" fill="#2FA850" stroke="#000000" d="M2949.357,2056.038l-304.949-82.323c0,0-2.65-0.235-7.875-0.539
				l215.145-227.027C2904.85,1835.193,2940.43,1950.601,2949.357,2056.038z"/>
			<path id="_x31_80610402_1_" fill="#248A5E" stroke="#000000" d="M1839.457,3074.77c52.252-37.32,110.09-84.029,167.281-111.762
				c135.463-65.766,270.344-177.932,422.679-202.191c9.106-1.457,18.469-2.088,27.915-2.053l-42.496,189.817v0.25
				c-41.634,8.426-83.2,13.867-123.644,28.25c-99.741,35.496-193.506,73.283-281.269,133.08
				c-75.959,51.695-156.176,97.281-230.965,150.215c-66.125,46.834-137.271,84.17-207.406,124.316l76.125-160.746
				C1717.449,3177.834,1782.083,3115.758,1839.457,3074.77z"/>
			<path id="_x31_80610401_1_" fill="#248A5E" stroke="#000000" d="M2183.794,2350.454c131.779-40.64,236.639-33.407,361.76,13.991
				l-88.225,394.318c-9.446-0.035-18.809,0.596-27.915,2.053c-152.335,24.261-287.218,136.426-422.679,202.191
				c-57.191,27.732-115.029,74.441-167.283,111.762c-57.369,40.988-122.003,103.064-191.777,149.176l374.238-789.77
				C2078.389,2396.256,2134.738,2365.547,2183.794,2350.454z"/>
			<path id="_x31_80610400_1_" fill="#248A5E" stroke="#000000" d="M2276.355,2101.372c105.061-16.966,219.11-10.526,323.026,22.233
				l-53.824,240.84c-125.122-47.398-229.979-54.631-361.76-13.992c-49.058,15.094-105.407,45.803-161.883,83.722l145.205-306.371
				C2204.51,2116.088,2241.251,2107.026,2276.355,2101.372z"/>
			<path id="_x31_80610399_1_" fill="#248A5E" stroke="#000000" d="M2634.547,1973.103l-2.545,4.82l-32.621,145.682
				c-103.914-32.758-217.966-39.197-323.026-22.233c-35.104,5.654-71.845,14.714-109.236,26.433l38.513-81.328
				C2449.089,1970.939,2596.502,1971.317,2634.547,1973.103z"/>
			<path id="_x31_80610428_1_" fill="#248A5E" stroke="#000000" d="M3092.012,3018.57c6.877-0.367,13.586-1.066,20.043-2.012
				c250.551-35.137,251.746-449.961,289.473-633.04c13.006-62.961,16.869-131.347,17.414-200.621l68.207,18.448l3.727,562.21
				c2.166,64.79-35.299,156.222-60.502,216.017c-28.639,68.018-75.043,114.748-138.572,150.469c2.086,2.561,4.004,5.033,5.758,7.51
				c-0.584-0.828-1.168-1.568-1.836-2.311c-23.352-28.461-71.297-38.65-105.393-45.764c-24.967-5.25-50.666-7.105-76.277-8.461
				l-26.928-62.252C3088.699,3018.754,3090.355,3018.664,3092.012,3018.57z"/>
			<path id="_x31_80610427_1_" fill="#248A5E" stroke="#000000" d="M3263.281,2658.202
				c49.801-109.064,36.088-225.995,45.873-349.679c4.115-52.226,8.736-102.217,12.203-151.954l97.584,26.329
				c-0.543,69.276-4.408,137.66-17.414,200.622c-37.725,183.08-38.922,597.902-289.471,633.041l-0.176-1.242
				c-5.537-29.057-0.693-52.783,7.527-80.668C3150.176,2830.493,3218.803,2755.635,3263.281,2658.202z"/>
			<path id="_x31_80610426_1_" fill="#248A5E" stroke="#000000" d="M3016.236,2558.003
				c155.912,25.107,141.346-175.261,148.033-320.142c1.857-40.363,2.881-81.47,2.91-122.984l154.176,41.691
				c-3.465,49.738-8.088,99.729-12.203,151.954c-9.783,123.685,3.928,240.616-45.873,349.679
				c-44.477,97.435-113.102,172.293-143.869,276.452c-8.225,27.885-13.068,51.611-7.529,80.666l0.174,1.242
				c-6.457,0.945-13.166,1.645-20.043,2.012c-1.658,0.094-3.313,0.182-4.887,0.193l-218.027-503.899
				C2917.426,2534.414,2966.314,2549.981,3016.236,2558.003z"/>
			<path id="_x31_80610425_1_" fill="#248A5E" stroke="#000000" d="M2799.748,2234.905c58.467,40.128,118.09,64.837,140.965-28.175
				c10.869-44.142,13.328-96.027,8.646-150.692l217.82,58.838c-0.027,41.514-1.051,82.62-2.908,122.983
				c-6.689,144.882,7.879,345.251-148.031,320.143c-49.924-8.022-98.814-23.591-147.141-43.138l-145.043-334.993
				C2746.588,2194.917,2773.053,2216.569,2799.748,2234.905z"/>
			<path id="_x31_80610424_1_" fill="#248A5E" stroke="#000000" d="M2636.535,1973.178c5.225,0.303,7.875,0.538,7.875,0.538
				l304.949,82.324c4.68,54.666,2.223,106.551-8.648,150.692c-22.873,93.011-82.498,68.302-140.963,28.175
				c-26.695-18.337-53.16-39.99-75.693-55.034l-88.84-205.362L2636.535,1973.178z"/>
			<path id="_x31_80610398_1_" fill="#248A5E" stroke="#000000" d="M2792.832,3008.725c-42.422-15.52-83.695-33.445-127.256-45.48
				c-33.652-9.295-63.24-29.246-98.801-33.043c-41.469-4.426-79.902,0.793-120.245,11.334c-10.51,2.707-21.104,5.084-31.699,7.295
				v-0.25l42.496-189.816c67.866,0.633,143.961,37.934,197.264,72.784c124.641,81.708,276.291,193.681,432.531,187.218l26.93,62.252
				c-17.49-0.984-34.977-1.553-52.137-2.871c-38.545-2.863-77.014-7.299-114.842-15.467c-34.678-7.441-69.902-24.572-105.746-33.828
				l-48.25-20.627L2792.832,3008.725z"/>
			<path id="_x31_80610397_1_" fill="#248A5E" stroke="#000000" d="M2655.023,2412.836
				c71.195,35.173,141.996,72.996,214.074,102.031l218.027,503.899c-156.244,6.461-307.893-105.512-432.531-187.218
				c-53.301-34.851-129.4-72.151-197.264-72.785l88.225-394.318C2580.18,2377.602,2616.309,2393.733,2655.023,2412.836z"/>
			<path id="_x31_80610396_1_" fill="#248A5E" stroke="#000000" d="M2708.756,2170.424c4.822,2.708,9.977,5.915,15.301,9.449
				l145.043,334.994c-72.076-29.037-142.877-66.861-214.074-102.032c-38.715-19.103-74.842-35.234-109.467-48.391l53.822-240.84
				C2637.563,2135.583,2674.268,2151.133,2708.756,2170.424z"/>
			<path id="_x31_80610395_1_" fill="#248A5E" stroke="#000000" d="M2635.215,1974.513l88.84,205.362
				c-5.324-3.537-10.479-6.742-15.299-9.45c-34.488-19.292-71.195-34.839-109.375-46.817l32.621-145.682L2635.215,1974.513z"/>
			<path id="_x31_80610406_1_" fill="#219866" stroke="#000000" d="M1166.152,2939.127c12.551,22.971,24.605,46.273,35.588,70.08
				c44.172,95.723,84.744,199.086,183.211,251.432c92.484,49.145,181.143,17.186,262.723-36.693l-76.123,160.746
				c-6.939,3.93-13.879,7.945-20.816,11.961c-38.246,22.244-73.736,48.783-117.512,59.705
				c-66.781,16.678-114.621-19.449-163.965-59.291c-40.025-32.188-82.031-62.875-113.82-103.641
				c-48.053-61.561-82.064-130.82-129.125-192.885c-6.342-8.334-12.604-16.836-18.695-25.338l0.578-0.418L1166.152,2939.127z"/>
			<path id="_x31_80610405_1_" fill="#219866" stroke="#000000" d="M1519.627,2764.816c80.723,50.119,186.258-49.05,237.667-104.84
				c61.13-66.283,163.146-157.643,264.621-225.8l-374.238,789.772c-81.58,53.879-170.236,85.838-262.723,36.691
				c-98.467-52.344-139.035-155.707-183.211-251.432c-10.982-23.805-23.039-47.107-35.588-70.078l273.271-234.711
				C1460.166,2724.774,1486.289,2744.108,1519.627,2764.816z"/>
			<path id="_x31_80610404_1_" fill="#219866" stroke="#000000" d="M2167.121,2127.804l-145.205,306.371
				c-101.476,68.156-203.491,159.515-264.621,225.798c-51.41,55.792-156.945,154.959-237.667,104.84
				c-33.338-20.706-59.459-40.04-80.199-60.396l631.011-541.877C2102.769,2149.524,2135.187,2137.669,2167.121,2127.804z"/>
			<path id="_x31_80610403_1_" fill="#219866" stroke="#000000" d="M2167.119,2127.804c-31.932,9.865-64.35,21.719-96.68,34.736
				l135.192-116.064L2167.119,2127.804z"/>
			<path id="_x31_80610382_1_" fill="#9AD2BD" stroke="#000000" d="M1409.238,3811.209
				c52.281,178.654,164.705,353.559,265.996,508.211c100.427,153.363,220.705,315.133,365.596,430.24
				c89.407,71.045,186.946,97.732,291.59,134.285c115.331,40.322,217.072,84.285,342.253,86.957
				c63.143,1.346,127.422-5.373,188.658-21.119c116.156-29.861,221.029-72.883,304.361-163.842
				c204.18-222.885,230.27-543.16,227.896-843.912c-0.725-91.162-4.066-180.533-5.857-264.859
				c-2.912-137.451-40.43-272.338-57.627-407.967c-6.834-53.816-2.063-87.795-34.533-131.793c-0.035,0.051-0.045,0.1-0.014,0.145
				c-0.582-0.828-1.168-1.57-1.836-2.313c-23.354-28.461-71.297-38.65-105.393-45.762c-24.967-5.252-50.666-7.107-76.275-8.463
				c-17.49-0.984-34.979-1.553-52.137-2.871c-38.547-2.863-77.016-7.299-114.844-15.467c-34.676-7.441-69.9-24.572-105.744-33.828
				l-48.25-20.627l-0.246,0.5c-42.422-15.52-83.695-33.445-127.256-45.48c-33.652-9.295-63.24-29.246-98.801-33.043
				c-41.469-4.426-79.902,0.793-120.243,11.334c-10.511,2.707-21.104,5.084-31.699,7.295c-41.634,8.426-83.2,13.867-123.644,28.25
				c-99.741,35.496-193.505,73.283-281.27,133.08c-75.959,51.695-156.175,97.281-230.966,150.215
				c-66.123,46.834-137.269,84.17-207.404,124.316c-6.939,3.93-13.881,7.947-20.816,11.959
				c-31.338,18.225-82.217,52.287-123.66,70.014c4-1.033,7.744-2.545,11.188-4.6
				C1344.82,3517.893,1385.191,3728.992,1409.238,3811.209z M2533.447,3686.857c22.688-85.998,120.07-50.098,144.816,11.846
				c36.801,92.189-55.266,181.486-112.752,93.133C2548.434,3765.598,2525.26,3717.83,2533.447,3686.857z"/>
			<path id="_x31_80610383_1_" fill="#9AD2BD" stroke="#000000" d="M3388.002,3679.752c-1.191-55.809-8.035-114.18-15.385-169.424
				c-18.229-137.049-242.715,19.844-281.406,63.275c-91.656,102.9-100.715,248.648-93.26,383.738
				c7.596,137.689,18.697,344.418,182.131,352.939c37.156,1.936,68.371-3.684,94.535-15.346
				c104.035-46.369,119.908-188.172,120.418-329.346C3395.436,3854.145,3389.346,3743.072,3388.002,3679.752z"/>
			<path id="_x31_80610384_1_" fill="#82C7AE" stroke="#000000" d="M3265.258,3932.41c22.475-65.357-25.662-402.623-142.023-339.176
				c-42.127,22.979-45.287,106.139-48.928,147.346c-6.697,75.732-34.063,217.711,41.475,269.25
				c25.02,17.051,50.191,18.064,72.795,9.393C3223.725,4005.746,3252.695,3968.896,3265.258,3932.41z"/>
			<path id="_x31_80610385_1_" fill="#9AD2BD" stroke="#000000" d="M2997.951,3957.34c7.598,137.689,18.699,344.418,182.131,352.939
				c37.156,1.936,68.371-3.684,94.535-15.344c104.037-46.371,119.91-188.174,120.418-329.348
				c0.4-111.445-5.689-222.518-7.031-285.84c-1.191-55.809-8.035-114.178-15.387-169.424
				c-18.229-137.047-242.715,19.846-281.406,63.277C2999.555,3676.504,2990.496,3822.25,2997.951,3957.34z M3074.307,3740.578
				c3.645-41.209,6.803-124.367,48.93-147.344c116.361-63.449,164.498,273.818,142.023,339.174
				c-12.564,36.488-41.535,73.34-76.684,86.814c-22.604,8.672-47.773,7.658-72.795-9.393
				C3040.244,3958.291,3067.609,3816.313,3074.307,3740.578z"/>
			<path id="_x31_80610386_1_" fill="#54BF94" stroke="#000000" d="M2690.014,3150.139
				c-19.207,66.303-41.225,146.896-58.934,213.686c-8.027,30.232-15.881,60.51-24.428,90.592
				c-4.309,15.178-8.629,30.385-13.488,45.389c-3.836,11.857-7.391,18.795-10.168,30.482
				c50.947-1.807,100.188,21.367,119.721,49.623c24.766,32.318,14.922,92.822-24.854,118.805c1.334,7.123,2.098,4.686,6.324,19.627
				c24.223-15.303,40.607-24.887,49.865-31.115c37.105-24.963,79.641-46.785,122.143-60.471
				c38.193-12.295,75.574-10.033,114.898-14.072c30.945-3.172,74.838-15.002,76.547-16.973
				c-85.9,103.113-84.584,268.471-72.176,415.613c17.842,211.684,54.252,310.428,211.252,324.434
				c98.854,8.818,172.234-44.949,202.191-138.383c-2.176,49.828-15.576,124.041-24.836,171.693
				c-21.191,109.146-49.551,210.188-108.746,304.844c-9.627,15.383-26.459-29.541-28.473-34.748
				c-12.119-31.375-21.758-63.621-34.281-94.869c-22.674-56.639-59.809-123.363-109.221-161.467
				c-40.746-31.42-123.182-45.057-174.625-30.256c-61.855,17.809-93.396,98.363-89.285,155.85
				c4.189,58.529,21.33,132.145,42.42,186.217c18.615,47.709,38.777,96.1,51.523,145.775c6.979,27.133,13.377,56.17,18.047,83.793
				c1.164,7.561-59.678,23.475-68.129,25.65c-61.252,15.75-125.525,22.455-188.664,21.113
				c-125.168-2.666-226.908-46.643-342.25-86.951c-104.633-36.563-202.173-63.254-291.577-134.291
				c-144.895-115.119-265.158-276.891-365.587-430.248c-101.295-154.654-213.717-329.561-265.986-508.213
				c-6.248-21.359-11.625-43.154-16.244-64.93c-10.725-50.51-15.277-103.881-12.711-155.496l6.971-49.91
				c3.676-34.621,15.063-54.111,47.266-68.547c25.434-11.393,50.383-31.502,75.338-43.906
				c180.057-89.531,344.844-208.998,516.79-313.225c84.979-51.516,174.897-88.389,266.843-125.559
				c59.734-24.148,123.285-29.787,186.126-40.793c47.671-8.352,82.472-18.529,130.63-3.105
				c18.311,5.873,36.701,12.311,55.299,17.447c43.635,12.049,84.846,29.967,127.289,45.484
				C2738.641,2988.922,2728.852,3016.113,2690.014,3150.139 M2703.184,3579.658c-66.197-85.438-229.829-36.402-318.583-26.859
				c-45.011,4.836-90.084,9.346-134.673,17.813c-20.438,3.881-49.834,8.1-57.473,30.973c-8.898,26.656,17.7,61.342,31.742,81.242
				c27.046,38.316,60.646,70.34,91.076,105.732c57.713,67.117,83.731,134.752,109.975,217.586
				c24.902,78.568,69.407,157.447,130.762,213.508c53.217,48.643,65.91,4.008,73.424-49.498
				c7.684-54.852,13.377-109.947,18.076-165.125c2.049-24.094,1.719-49.311,7.727-72.732c4.717-18.389,13.947-33.184,8.854-53.627
				c-11.771-47.348-58.205-44.348-75.732-61.688c53.623,40.861,124.234-35.154,89.512-118.283
				C2726.746,3665.684,2720.496,3602.006,2703.184,3579.658z"/>
			<path id="_x31_80610389_1_" fill="#54BF94" stroke="#000000" d="M2191.117,3602.393
				c-142.332,14.188-329.561-17.693-392.395-165.715l0.333-5.57c29.063-15.592,55.987-28.889,75.948-39.826
				c208.946-114.531,467.542-216.197,706.614-239.742c34.449-3.391,66.824-2.691,97.387,1.521l7.953,5.688
				c-18.455,64.156-39.096,139.811-55.873,203.078c-8.029,30.23-15.881,60.51-24.428,90.592
				c-4.311,15.176-8.629,30.385-13.49,45.387c-3.836,11.857-7.389,18.793-10.164,30.482l-4.885-0.068
				c-67.508-1.252-142.752,17.123-193.511,22.58c-45.011,4.836-90.083,9.346-134.672,17.814
				c-20.438,3.879-49.835,8.098-57.474,30.971"/>
			<path id="_x31_80610388_1_" fill="#54BF94" stroke="#000000" d="M2448.47,4085.709c-16.006,85.926-94.281,87.064-147.954,134.438
				c-58.765,51.855-35.778,166.66-46.86,239.482l0.532,6.322c-91.171-60.008-170.54-132.568-195.353-238.314
				c-18.36-78.246-3.864-129.322-68.099-189.588c-63.009-59.129-132.95-107.885-193.103-170.801
				c-59.283-61.984-174.271-132.836-186.861-225.105c-12.34-90.416,98.234-160.734,188.275-209.037l-0.333,5.572
				c62.834,148.018,250.063,179.902,392.395,165.715l-0.361,6.166c-1.542,25.068,20.938,54.539,33.452,72.27
				c27.046,38.316,60.646,70.34,91.076,105.732c57.711,67.117,83.729,134.752,109.975,217.586
				c6.841,21.586,15.162,43.195,24.906,64.348L2448.47,4085.709z"/>
			<path id="_x31_80610390_1_" fill="#54BF94" stroke="#000000" d="M3039.768,3605.547
				c-77.957,103.576-76.377,263.23-64.293,405.768c5.379,63.758,12.441,117.27,23.971,161.307l-7.791-0.719
				c-54.426,23.479-93.338,97.064-119.357,146.648c-30.422,57.994-63.189,110.416-100.564,163.465l-2.17-4.412
				c-22.998-39.238-33.434-98.654-48.4-140.607c-27.549-77.27-26.502-159.275-84.035-221.219l0.326-8.82
				c3.887-33.92,7.16-67.91,10.059-101.93c2.049-24.094,1.719-49.311,7.727-72.732c4.717-18.387,14.506-33.332,8.854-53.627
				c-8.178-29.465-23.574-35.842-45.959-46.529l-9.037-5.309c45.078,10.648,88.533-45.193,75.143-108.486l-0.084,0.02
				c24.279-15.293,40.637-24.91,49.883-31.174c37.074-24.889,79.627-46.742,122.148-60.475
				c38.215-12.215,75.598-10.014,114.936-14.035c29.896-3.057,72.096-14.217,76.225-16.727L3039.768,3605.547z"/>
			<path id="_x31_80610387_1_" fill="#54BF94" stroke="#000000" d="M2637.121,4115.781c57.533,61.947,56.486,143.949,84.035,221.217
				c14.971,41.953,25.402,101.371,48.4,140.609l2.17,4.412c-6.256,8.877-12.639,17.771-19.164,26.715
				c-57.801,79.215-161.615,166.24-264.204,97.283c-68.666-46.15-155.783-88.469-234.173-140.066l-0.532-6.32
				c11.084-72.822-11.904-187.629,46.858-239.484c53.677-47.371,131.95-48.51,147.954-134.436l5.874-6.346
				c25.349,52.531,59.539,101.791,101.671,140.289c53.217,48.643,65.91,4.008,73.422-49.498c2.541-18.127,4.863-36.279,7.002-54.451
				L2637.121,4115.781z"/>
			<path id="_x31_80610391_1_" fill="#54BF94" stroke="#000000" d="M1379.584,3618.768c0.262,69.332,15.752,143.266,28.033,186.896
				c0.533,1.873,1.064,3.748,1.611,5.613c18.361,62.762,44.156,125.061,74.275,186.184c-15.891-33.789-30.383-69.316-43.627-102.529
				c-11.264-28.213-72.555-164.137-4.609-151.785c33.938,6.166,64.563,69.398,80.619,95.053
				c51.277,81.977,110.498,152.574,166.027,231.107c47.951,67.84,91.505,139.871,143.167,205.006
				c98.085,123.637,276.272,249.201,331.564,403.543c7.284,20.346,14.042,38.273,10.619,60.207
				c-2.972,19.09-11.772,34.346-29.296,43.551c-24.925,13.098-54.876-1.508-75.393-16.773c-7.081-5.275-14.916-9.51-21.771-15.105
				c89.404,71.037,186.944,97.729,291.575,134.291c115.342,40.311,217.082,84.285,342.25,86.951
				c63.137,1.342,127.416-5.363,188.664-21.113c0.67-0.17,1.336-0.346,2.004-0.52c13.361-3.49,67.219-18.014,66.125-25.131
				c-4.67-27.625-11.068-56.658-18.047-83.793c-12.744-49.676-32.904-98.064-51.523-145.775
				c-13.318-34.156-25.063-76.105-32.965-117.131c-0.561-2.906-1.1-5.809-1.617-8.703c-0.023-0.133-0.051-0.266-0.07-0.396
				c-1.025-5.701-1.967-11.371-2.826-16.988c-0.053-0.34-0.105-0.678-0.154-1.016c-0.42-2.771-0.824-5.533-1.199-8.273
				c-0.01-0.078-0.02-0.15-0.029-0.227c-0.35-2.541-0.676-5.061-0.986-7.572c-0.064-0.533-0.135-1.066-0.197-1.598
				c-0.314-2.586-0.613-5.158-0.885-7.707c-0.016-0.139-0.025-0.273-0.041-0.412c-0.252-2.365-0.479-4.705-0.691-7.033
				c-0.061-0.627-0.113-1.256-0.168-1.881c-0.219-2.447-0.42-4.881-0.59-7.281c-4.111-57.486,27.432-138.041,89.287-155.85
				c51.443-14.799,133.879-1.164,174.625,30.258c49.412,38.105,86.547,104.826,109.221,161.467
				c12.523,31.246,22.162,63.492,34.279,94.869c1.654,4.273,13.297,35.313,22.738,37.777
				c57.383-93.742,92.963-198.648,114.617-308.564c0.74-3.813,1.508-7.793,2.289-11.914c9.434-50.35,16.027-101.693,20.527-153.449
				c-31.07,89.943-103.463,141.381-200.307,132.74c-2.184-0.195-4.338-0.412-6.477-0.639c-0.58-0.063-1.156-0.127-1.734-0.191
				c-1.785-0.201-3.553-0.408-5.305-0.631c-0.373-0.049-0.752-0.09-1.123-0.139c-2.057-0.27-4.088-0.555-6.1-0.855
				c-0.518-0.074-1.025-0.158-1.539-0.236c-1.605-0.248-3.197-0.506-4.771-0.773c-0.504-0.088-1.012-0.17-1.512-0.258
				c-1.943-0.342-3.865-0.697-5.766-1.068c-0.4-0.08-0.795-0.164-1.193-0.246c-1.549-0.311-3.088-0.631-4.607-0.967
				c-0.549-0.119-1.102-0.24-1.65-0.363c-1.838-0.414-3.656-0.84-5.455-1.287c-0.16-0.041-0.318-0.084-0.482-0.123
				c-1.66-0.418-3.301-0.855-4.926-1.297c-0.557-0.15-1.109-0.311-1.664-0.465c-1.398-0.395-2.783-0.799-4.156-1.213
				c-0.393-0.121-0.785-0.234-1.174-0.35c-1.66-0.516-3.303-1.045-4.928-1.59c-0.529-0.18-1.057-0.359-1.586-0.543
				c-1.211-0.418-2.414-0.842-3.602-1.277c-0.516-0.188-1.027-0.373-1.537-0.563c-1.549-0.578-3.08-1.174-4.594-1.781
				c-0.475-0.189-0.939-0.391-1.412-0.584c-1.127-0.463-2.244-0.936-3.35-1.416c-0.557-0.246-1.113-0.484-1.664-0.732
				c-1.336-0.594-2.658-1.203-3.965-1.826c-0.465-0.223-0.926-0.449-1.387-0.676c-1.135-0.551-2.256-1.111-3.365-1.684
				c-0.566-0.289-1.127-0.586-1.688-0.881c-0.994-0.525-1.977-1.061-2.953-1.604c-0.459-0.254-0.922-0.502-1.377-0.758
				c-1.289-0.732-2.563-1.48-3.824-2.242c-0.553-0.334-1.102-0.676-1.652-1.018c-0.842-0.523-1.68-1.051-2.508-1.586
				c-0.535-0.348-1.074-0.689-1.605-1.041c-1.189-0.791-2.369-1.594-3.533-2.412c-0.529-0.371-1.051-0.752-1.572-1.129
				c-0.754-0.545-1.506-1.094-2.248-1.65c-0.564-0.42-1.125-0.844-1.68-1.273c-0.863-0.666-1.715-1.34-2.564-2.023
				c-0.719-0.578-1.43-1.164-2.137-1.754s-1.414-1.184-2.111-1.787c-0.564-0.49-1.123-0.98-1.68-1.477
				c-0.645-0.572-1.279-1.154-1.914-1.738c-0.746-0.688-1.488-1.381-2.223-2.082c-0.732-0.705-1.465-1.412-2.184-2.131
				c-0.557-0.555-1.105-1.117-1.654-1.68c-0.537-0.553-1.072-1.109-1.602-1.672c-0.543-0.576-1.088-1.145-1.623-1.729
				c-0.893-0.967-1.771-1.949-2.643-2.945c-0.543-0.621-1.076-1.256-1.615-1.889c-0.463-0.547-0.928-1.098-1.387-1.654
				c-0.545-0.66-1.088-1.32-1.625-1.988c-0.467-0.588-0.93-1.182-1.395-1.777c-0.879-1.129-1.75-2.275-2.605-3.434
				c-0.402-0.545-0.809-1.09-1.207-1.641c-0.533-0.74-1.064-1.486-1.59-2.24c-0.373-0.529-0.74-1.068-1.107-1.607
				c-0.926-1.352-1.838-2.723-2.734-4.117c-0.32-0.494-0.643-0.982-0.955-1.482c-0.527-0.828-1.043-1.668-1.561-2.51
				c-0.313-0.514-0.623-1.027-0.932-1.541c-1.723-2.871-3.391-5.814-5.008-8.836c-0.26-0.49-0.521-0.979-0.781-1.471
				c-0.502-0.955-1.004-1.914-1.494-2.885c-0.156-0.311-0.311-0.619-0.465-0.932c-0.961-1.91-1.9-3.852-2.826-5.82
				c-0.199-0.432-0.404-0.861-0.602-1.295c-0.484-1.047-0.961-2.102-1.438-3.164c-0.174-0.393-0.344-0.787-0.518-1.18
				c-0.945-2.148-1.869-4.33-2.775-6.543c-0.088-0.225-0.18-0.439-0.271-0.662c-0.471-1.156-0.93-2.324-1.389-3.496
				c-0.158-0.4-0.314-0.807-0.469-1.207c-1.43-3.709-2.809-7.5-4.139-11.383c-0.129-0.369-0.256-0.742-0.381-1.113
				c-1.357-4.008-2.664-8.115-3.926-12.309c-0.082-0.27-0.162-0.537-0.242-0.805c-0.416-1.4-0.828-2.809-1.232-4.229
				c-0.045-0.158-0.092-0.32-0.137-0.479c-0.848-2.975-1.676-5.998-2.477-9.066l-7.781-0.719
				c-54.426,23.479-93.34,97.063-119.357,146.648c-30.344,57.84-63.016,110.143-100.271,163.045l-0.293,0.422
				c-6.258,8.877-12.641,17.771-19.164,26.715c-9.127,12.51-19.404,25.213-30.641,37.467c-1.113,0.354-2.213,0.705-3.279,1.059
				l-10.607,13.344c-0.145,0.139-0.289,0.279-0.432,0.42c-0.654,0.641-1.309,1.279-1.967,1.916
				c-0.188,0.182-0.371,0.361-0.557,0.539c-0.781,0.752-1.563,1.498-2.35,2.242c-0.238,0.223-0.479,0.447-0.715,0.674
				c-0.713,0.67-1.428,1.342-2.148,2.01c-0.125,0.113-0.246,0.229-0.369,0.34c-0.807,0.744-1.613,1.484-2.426,2.219
				c-0.246,0.223-0.488,0.439-0.732,0.66c-0.814,0.732-1.631,1.461-2.451,2.188c-0.145,0.127-0.287,0.252-0.432,0.379
				c-0.721,0.635-1.447,1.268-2.178,1.898c-0.244,0.209-0.484,0.42-0.729,0.631c-0.824,0.707-1.648,1.412-2.479,2.109
				c-0.201,0.17-0.402,0.34-0.605,0.51c-0.705,0.59-1.414,1.18-2.125,1.766c-0.225,0.186-0.447,0.371-0.674,0.557
				c-0.836,0.688-1.68,1.367-2.525,2.045c-0.234,0.191-0.473,0.377-0.711,0.566c-0.729,0.582-1.457,1.158-2.189,1.73
				c-0.189,0.145-0.373,0.291-0.561,0.438c-0.857,0.668-1.719,1.328-2.58,1.986c-0.254,0.191-0.506,0.387-0.76,0.576
				c-0.818,0.617-1.639,1.234-2.461,1.842c-0.105,0.078-0.207,0.152-0.311,0.23c-0.875,0.645-1.752,1.279-2.631,1.912
				c-0.258,0.188-0.516,0.371-0.773,0.555c-0.887,0.635-1.775,1.266-2.67,1.887c-0.154,0.109-0.311,0.215-0.465,0.322
				c-0.791,0.549-1.582,1.09-2.379,1.631c-0.246,0.166-0.492,0.334-0.74,0.5c-0.898,0.604-1.797,1.201-2.699,1.791
				c-0.213,0.141-0.426,0.275-0.637,0.414c-0.775,0.504-1.559,1.004-2.336,1.502c-0.225,0.139-0.443,0.281-0.666,0.422
				c-0.912,0.574-1.826,1.141-2.742,1.701c-0.244,0.148-0.486,0.295-0.73,0.443c-0.811,0.494-1.629,0.982-2.445,1.467
				c-0.166,0.098-0.334,0.199-0.502,0.297c-0.93,0.547-1.863,1.084-2.799,1.615c-0.258,0.146-0.52,0.297-0.781,0.441
				c-0.914,0.516-1.836,1.027-2.756,1.531c-0.09,0.047-0.184,0.098-0.273,0.148c-0.924,0.498-1.848,0.988-2.773,1.475
				c-0.256,0.133-0.518,0.27-0.777,0.404c-0.951,0.496-1.908,0.986-2.865,1.463c-0.164,0.084-0.33,0.162-0.496,0.246
				c-0.848,0.42-1.697,0.836-2.551,1.242c-0.244,0.121-0.486,0.238-0.734,0.354c-0.957,0.457-1.918,0.904-2.885,1.342
				c-0.223,0.104-0.445,0.201-0.67,0.305c-0.84,0.379-1.684,0.752-2.527,1.115c-0.209,0.092-0.418,0.184-0.627,0.273
				c-0.975,0.416-1.953,0.826-2.932,1.227c-0.246,0.104-0.498,0.203-0.748,0.303c-0.887,0.361-1.775,0.711-2.664,1.057
				c-0.148,0.059-0.295,0.113-0.439,0.172c-0.994,0.379-1.986,0.746-2.98,1.104c-0.266,0.1-0.527,0.191-0.791,0.287
				c-1.006,0.361-2.016,0.713-3.023,1.055c-0.074,0.021-0.148,0.045-0.221,0.07c-0.963,0.318-1.926,0.629-2.891,0.934
				c-0.258,0.082-0.518,0.164-0.779,0.246c-1.004,0.309-2.012,0.613-3.021,0.906c-0.172,0.047-0.35,0.094-0.523,0.145
				c-0.896,0.258-1.793,0.502-2.691,0.742c-0.238,0.063-0.482,0.127-0.719,0.188c-1.014,0.268-2.021,0.52-3.039,0.766
				c-0.229,0.055-0.455,0.104-0.686,0.158c-0.895,0.209-1.791,0.412-2.691,0.604c-0.195,0.045-0.395,0.088-0.59,0.133
				c-1.021,0.217-2.053,0.42-3.076,0.613c-0.254,0.051-0.506,0.096-0.76,0.143c-0.955,0.176-1.914,0.344-2.875,0.5
				c-0.117,0.021-0.23,0.041-0.346,0.059c-1.041,0.17-2.084,0.324-3.131,0.469c-0.26,0.035-0.521,0.07-0.785,0.105
				c-1.049,0.141-2.1,0.27-3.152,0.387c-0.088,0.006-0.18,0.018-0.268,0.025c-0.99,0.105-1.984,0.201-2.975,0.285
				c-0.256,0.021-0.512,0.043-0.766,0.063c-1.047,0.086-2.096,0.158-3.146,0.219c-0.182,0.01-0.365,0.018-0.549,0.027
				c-0.934,0.051-1.865,0.09-2.801,0.119c-0.23,0.004-0.463,0.014-0.693,0.02c-1.053,0.029-2.102,0.045-3.156,0.047
				c-0.23,0.002-0.463,0-0.695,0c-0.938-0.004-1.881-0.016-2.822-0.039c-0.182-0.004-0.361-0.006-0.545-0.012
				c-1.063-0.029-2.123-0.074-3.182-0.129c-0.258-0.016-0.514-0.031-0.77-0.047c-1.02-0.061-2.037-0.129-3.055-0.213
				c-0.082-0.006-0.162-0.014-0.244-0.02c-1.076-0.088-2.156-0.197-3.238-0.316c-0.258-0.027-0.518-0.059-0.777-0.088
				c-1.08-0.125-2.16-0.262-3.242-0.414c-0.105-0.014-0.213-0.031-0.316-0.049c-1.004-0.146-2.012-0.307-3.02-0.475
				c-0.248-0.041-0.5-0.082-0.748-0.127c-1.076-0.188-2.15-0.391-3.225-0.604c-0.193-0.039-0.385-0.08-0.574-0.119
				c-0.959-0.197-1.918-0.404-2.877-0.627c-0.223-0.047-0.439-0.098-0.662-0.148c-1.076-0.254-2.152-0.521-3.229-0.803
				c-0.234-0.061-0.473-0.125-0.709-0.188c-0.975-0.26-1.949-0.533-2.926-0.818c-0.162-0.049-0.322-0.092-0.486-0.139
				c-1.082-0.322-2.168-0.662-3.256-1.014c-0.256-0.082-0.51-0.166-0.766-0.252c-1.072-0.355-2.145-0.719-3.219-1.105
				c-0.039-0.016-0.078-0.025-0.117-0.041c-1.105-0.393-2.207-0.811-3.311-1.242c-0.254-0.1-0.514-0.197-0.77-0.301
				c-1.096-0.434-2.189-0.879-3.285-1.342c-0.123-0.053-0.246-0.105-0.365-0.158c-1.006-0.434-2.016-0.879-3.023-1.338
				c-0.244-0.111-0.492-0.225-0.736-0.334c-1.088-0.502-2.174-1.02-3.26-1.555c-0.203-0.098-0.4-0.197-0.602-0.297
				c-0.971-0.484-1.939-0.979-2.914-1.488c-0.209-0.107-0.418-0.217-0.627-0.326c-1.088-0.574-2.178-1.17-3.266-1.777
				c-0.234-0.135-0.477-0.271-0.713-0.406c-1-0.564-1.998-1.143-2.996-1.738c-0.141-0.084-0.281-0.166-0.422-0.25
				c-1.098-0.656-2.189-1.336-3.287-2.027c-0.256-0.158-0.508-0.322-0.764-0.482c-1.111-0.715-2.225-1.438-3.338-2.186
				c-2.154-1.447-4.326-2.893-6.516-4.334c-0.821-0.539-1.658-1.076-2.485-1.619c-1.372-0.895-2.736-1.791-4.122-2.684
				c-1.081-0.699-2.178-1.395-3.267-2.088c-1.148-0.736-2.294-1.475-3.452-2.209c-1.158-0.732-2.335-1.467-3.502-2.199
				c-1.103-0.689-2.194-1.381-3.304-2.07c-1.26-0.787-2.532-1.57-3.802-2.354c-1.029-0.635-2.056-1.273-3.092-1.908
				c-1.366-0.838-2.746-1.674-4.12-2.514c-0.954-0.576-1.896-1.154-2.85-1.732c-1.516-0.916-3.049-1.836-4.574-2.752
				c-0.82-0.494-1.637-0.986-2.46-1.48c-1.635-0.977-3.28-1.949-4.924-2.926c-0.73-0.436-1.458-0.869-2.193-1.305
				c-1.782-1.051-3.577-2.105-5.373-3.158c-0.599-0.354-1.19-0.703-1.789-1.055c-2.001-1.17-4.009-2.342-6.022-3.512
				c-0.397-0.23-0.792-0.463-1.188-0.691c-2.279-1.324-4.568-2.65-6.864-3.973c-0.126-0.074-0.253-0.146-0.379-0.221
				c-29.682-17.117-60.674-34.332-91.494-52.363c-0.138-0.08-0.271-0.16-0.41-0.24c-2.39-1.398-4.774-2.803-7.161-4.209
				c-0.278-0.166-0.563-0.332-0.841-0.498c-2.254-1.332-4.507-2.666-6.756-4.008c-0.359-0.213-0.724-0.432-1.082-0.646
				c-2.162-1.291-4.319-2.584-6.476-3.885c-0.462-0.277-0.927-0.563-1.389-0.84c-2.057-1.242-4.108-2.486-6.16-3.74
				c-0.538-0.328-1.075-0.658-1.612-0.986c-1.974-1.209-3.945-2.42-5.916-3.637c-0.601-0.371-1.197-0.748-1.799-1.121
				c-1.902-1.18-3.8-2.361-5.694-3.551c-0.662-0.412-1.316-0.83-1.974-1.246c-1.829-1.152-3.658-2.307-5.48-3.471
				c-0.718-0.457-1.434-0.92-2.149-1.379c-1.759-1.125-3.513-2.254-5.264-3.387c-0.771-0.5-1.535-1.002-2.306-1.504
				c-1.314-0.855-2.624-1.715-3.935-2.576l-0.532-6.313l0.534,6.322c-91.171-60.008-170.54-132.57-195.353-238.314
				c-18.362-78.246-3.866-129.322-68.099-189.59c-63.009-59.127-132.95-107.883-193.104-170.799
				c-59.283-61.986-174.269-132.836-186.861-225.107c-11.797-86.457,88.789-154.537,176.343-202.563
				c0,0,131.077-80.77,265.296-139.264c125.435-54.668,246.309-89.047,314.156-109.555
				c158.068-47.777,323.449-40.621,323.449-40.621c38.836-134.025,48.625-161.219,102.82-141.412
				c-42.441-15.516-83.654-33.436-127.291-45.484c-18.594-5.135-36.988-11.572-55.297-17.445
				c-48.158-15.424-82.959-5.246-130.63,3.105c-62.84,11.006-126.392,16.646-186.127,40.793
				c-91.944,37.17-181.862,74.045-266.843,125.559c-171.944,104.225-336.73,223.693-516.787,313.223
				c-24.955,12.408-49.906,32.516-75.34,43.906c-9.146,4.102-16.611,8.611-22.697,13.758c-11.883,15.76-19.912,35.586-24.984,57.785
				l-6.381,45.682c-0.248,3.729-0.439,7.486-0.58,11.268C1379.684,3606.818,1379.594,3612.781,1379.584,3618.768z"/>
			<path id="_x31_80610394_1_" fill="#62D09F" stroke="#000000" d="M2780.275,3003.422c-22.363-5.158-44.439-13.768-54.301,11.57
				c-6.646,17.076-10.268,36.029-15.223,53.682c-7.908,28.197-15.803,56.402-23.686,84.607l14.033,5.494
				c181.693,36.09,297.803,198.398,407.203,353.746l4.521,8.129l0.006-0.004c14.029-12.514,28.029-25.416,43.557-34.32
				c44.939-25.678,105.49-60.303,159.381-55.039c17.824,1.729,32.529,9.273,42.223,24.471c3.092,4.541,5.855,9.746,7.955,15.617
				l-0.563-3.939c-11.682-66.156-24.896-132.109-33.281-198.236c-6.951-54.74-1.887-88.953-36.232-134.066l-7.678-7.74
				c-25.076-22.58-67.107-31.498-97.865-37.916c-23.773-5-48.209-6.916-72.604-8.26l-15.068-0.793
				c-13.676-0.674-27.305-1.246-40.738-2.277c-38.545-2.863-77.014-7.299-114.842-15.467
				c-34.678-7.441-69.902-24.572-105.746-33.828l-48.25-20.627l-0.246,0.5L2780.275,3003.422z"/>
			<path id="_x31_80610393_1_" fill="#62D09F" stroke="#000000" d="M2582.996,3529.91c48.857,1.484,93.119,13.836,120.184,49.75
				c15.725,20.867,17.133,45.75,9.047,69.893c-2.768,8.25-5.98,16.449-10.201,24.078c-2.033,3.672-8.881,9.385-3.477,11.293
				c5.281,1.867,14.768-7.939,18.869-10.201c6.012-3.313,12.492-5.842,18.391-9.354c12.629-7.525,25.266-15.043,38.092-22.223
				c25.365-14.191,51.559-27.193,79.275-36.133c38.219-12.303,77.758-9.529,117.096-13.549c24.93-2.535,49.662-10.705,73.484-18.123
				c20.764-6.49,30.533-23.695,46.875-36.047c7.553-5.691,14.879-12.115,22.197-18.645l-4.521-8.129
				c-109.4-155.346-225.51-317.656-407.203-353.744l-14.15,1.971c-18.457,64.156-39.098,139.811-55.875,203.076
				c-8.027,30.232-15.881,60.51-24.428,90.592c-4.309,15.178-8.629,30.385-13.488,45.389c-3.836,11.857-7.391,18.795-10.168,30.482
				L2582.996,3529.91z"/>
			<path id="_x31_80610392_1_" fill="#62D09F" stroke="#000000" d="M2939.656,4839.16c6.979,27.143,11.891,54.676,16.568,82.301
				c3.361-1.203,6.633-2.398,9.789-3.592c18.145-8.195,56.109-24.176,60.047-26.17c9.268-4.695,17.855-9.305,25.971-13.908
				c6.996-4.033,15.748-9.256,22.301-13.434c1.475-0.951,2.941-1.895,4.383-2.854c0.26-0.182,0.592-0.393,0.824-0.559
				c21.439-14.686,41.143-30.885,59.682-48.158c4.367-4.188,8.75-8.51,13.205-13.004c7.406-7.494,14.133-14.375,20.648-21.313
				c9.645-10.604,18.973-21.496,27.963-32.752c2.369-3.02,4.201-5.342,5.73-7.285c3.283-4.199,6.494-8.463,9.688-12.748
				c2.688-3.742,6.277-8.891,12.336-17.607c2.553-3.676-9.684-29.369-11.352-34.168c-18.463-52.828-36.186-104.143-60.568-153.313
				c-9.07-18.283-19.063-36.283-30.35-53.943c-42.008-65.713-126.895-119.279-206.924-96.248
				c-61.863,17.807-82.344,97.729-78.234,155.211c4.184,58.533,27.422,114.209,48.506,168.285
				C2908.486,4741.611,2926.906,4789.488,2939.656,4839.16z"/>
			<path id="_x31_80610430_1_" fill="#CCCCCC" stroke="#000000" d="M2584.965,3813.484c40.791,28.164,67.391,22.898,79.127,65.184
				c5.652,20.293-4.137,35.238-8.854,53.627c-6.006,23.422-5.676,48.639-7.727,72.732c-4.697,55.176-10.393,110.273-18.076,165.125
				c-7.514,53.504-20.209,98.141-73.422,49.498c-61.355-56.057-105.862-134.939-130.762-213.508
				c-26.245-82.834-52.262-150.469-109.975-217.584c-30.432-35.393-64.03-67.416-91.078-105.734
				c-14.04-19.898-40.639-54.584-31.74-81.24c7.64-22.873,37.034-27.092,57.473-30.973c44.589-8.467,89.658-12.979,134.671-17.813
				c88.755-9.545,253.455-59.564,318.583,26.859c15.727,20.867,17.133,45.75,9.047,69.893c-6.297,18.773-16.438,40.887-34.98,50.217
				c4.996-2.523-19.059-31.777-21.701-34.654c-24.246-26.447-79.615-45.072-107.633-8.652
				c-10.395,13.494-16.299,29.439-16.143,46.057C2532.068,3733.441,2557.061,3794.219,2584.965,3813.484z"/>
			<path id="_x31_80610431_1_" fill="#CCCCCC" stroke="#000000" d="M1439.887,3894.918c13.246,33.215,27.736,68.742,43.627,102.529
				c9.59,19.457,19.615,38.795,29.982,57.992c30.252,54.346,61.979,107.607,94.807,160.451
				c22.346,35.375,44.895,69.957,66.92,103.584c1.594,2.438,3.203,4.885,4.814,7.336c58.121,88.342,122.831,179.178,195.037,262.031
				c52.958,59.881,95.506,103.545,165.738,160.879c6.854,5.6,14.69,9.83,21.77,15.109c20.518,15.264,50.469,29.869,75.394,16.77
				c17.521-9.203,26.323-24.459,29.296-43.549c3.422-21.932-3.337-39.861-10.621-60.207
				c-55.292-154.34-233.479-279.904-331.563-403.543c-51.664-65.137-95.215-137.168-143.168-205.008
				c-55.529-78.533-114.75-149.129-166.025-231.105c-16.057-25.652-46.682-88.887-80.619-95.053
				C1367.328,3730.783,1428.617,3866.707,1439.887,3894.918z"/>
			<path id="_x31_80610429_1_" fill="#AAAAAA" stroke="#000000" d="M2678.264,3698.703
				c-24.746-61.945-122.129-97.844-144.816-11.846c-8.186,30.973,14.986,78.74,32.064,104.979
				C2622.998,3880.189,2715.066,3790.893,2678.264,3698.703z"/>
		</g>
	</g>
</g>
</svg>
